<svg width="128" height="29" fill="none" xmlns="http://www.w3.org/2000/svg"><path d="M86.56 8.29h-2.48v9.74L68.01 8.29h-2.49v12.64h2.49v-9.72l16.07 9.72h2.48V8.29ZM43.28 13.49v-3.06s0-2.13-2.13-2.13H22.13v12.64h2.49V10.78H41.2v2.35H27.99v2.49l10 5.31h5.28l-9.99-5.31h7.86c2.13 0 2.13-2.13 2.13-2.13h.01ZM127.84 10.77v-2.5h-17.95v12.66h17.95v-2.48h-15.46v-2.79h15.46v-2.48h-15.46v-2.41h15.46ZM21.05 10.71V8.23H2.13C0 8.23 0 10.35 0 10.35v10.51h18.92c2.13 0 2.13-2.12 2.13-2.12v-5.68H5.77v2.49h12.78v2.83H2.49v-7.66h18.56v-.01ZM106.54 8.31H87.61v12.62h18.93c2.12 0 2.12-2.11 2.12-2.11V10.43s0-2.12-2.12-2.12Zm-.35 3.73v6.42h-16.1v-7.67h14.87c1.26 0 1.23 1.25 1.23 1.25ZM65.52 20.93 56.06 9.55l-1.66-2-1.65 2-9.47 11.38h3.31l7.81-9.39 7.8 9.39h3.32Z" fill="#fff"/><path d="M64.99 15.33H54.15l-1.95 2.63h10.84l1.95-2.63ZM25.05 24.73h-.15c-.18-.66-.62-1.12-1.31-1.12-1 0-1.43.81-1.43 1.89 0 .85.44 1.76 1.43 1.76.6 0 1-.19 1.42-.61l.1.13c-.37.46-.99.75-1.58.75-1.17 0-2.07-.75-2.07-2.08 0-1.2.84-2.1 2.06-2.1.83 0 1.13.5 1.33 0h.12l.06 1.36.02.02ZM25.78 25.65c0-.58-.09-.65-.46-.55V25l.97-.32v.55h.02c.1-.2.37-.55.67-.55.24 0 .37.14.34.4-.03.13-.13.19-.25.19-.21 0-.26-.21-.41-.21-.12 0-.37.3-.37.47v1.44c0 .27.09.38.45.4v.09h-1.42v-.09c.37-.01.46-.12.46-.4v-1.32ZM27.88 25.59c.06-.38.24-.69.66-.69.42 0 .56.34.58.69h-1.24Zm1.86.19c-.02-.63-.41-1.1-1.06-1.1-.76 0-1.24.61-1.24 1.48 0 .72.45 1.36 1.15 1.36.61 0 1.07-.48 1.26-1.02l-.09-.03c-.19.33-.52.64-.92.64-.69 0-.97-.76-.98-1.33h1.88ZM31.71 26.89c-.06.13-.42.26-.53.26-.29 0-.43-.23-.43-.5 0-.54.58-.64.96-.8v1.04Zm.51-1.19c0-.74-.2-1.03-.87-1.03-.38 0-.76.09-.96.46-.13.23-.07.47.2.47.14 0 .26-.12.26-.27 0-.16-.03-.28.01-.35.06-.12.27-.17.39-.17.38 0 .44.23.44.87-.52.21-1.49.47-1.49 1.19 0 .36.28.64.64.64.26 0 .61-.22.88-.47 0 .23.12.47.44.47.16 0 .4-.22.5-.33v-.15c-.3.2-.45.18-.45-.05V25.7h.01ZM33.63 26.57c0 .45.06.74.44.59.09-.04.16-.11.22-.18l.07.06c-.22.29-.48.48-.77.48-.4 0-.49-.25-.48-.84v-1.74h-.18c-.07 0-.21.04-.15-.09.33-.23.56-.57.85-.89v.79h.6v.19h-.6v1.64-.01ZM34.96 25.5c0-.47-.07-.51-.46-.41V25l.97-.32v2.28c0 .27.09.38.46.4v.09H34.5v-.09c.37-.01.46-.12.46-.4V25.5Zm-.1-1.87c0-.16.14-.31.31-.31.17 0 .31.14.31.31 0 .17-.13.32-.31.32a.32.32 0 0 1-.31-.32ZM36.48 25.49c0-.46-.05-.45-.38-.44v-.08l.9-.29v.48c.22-.23.5-.48.92-.48.47 0 .71.32.71.97v1.32c0 .27.1.38.38.4v.09h-1.28v-.09c.29-.01.38-.12.38-.4v-1.3c0-.35-.04-.67-.46-.67-.29 0-.51.2-.66.35v1.61c0 .27.09.38.38.4v.09H36.1v-.09c.29-.01.38-.12.38-.4v-1.48.01ZM39.95 27.46c.28.06.65.07.91.07.39 0 .82.01.82.32 0 .35-.46.57-1.17.57-.62 0-.86-.21-.86-.43 0-.2.18-.4.3-.54v.01Zm.03-2.03c0-.3.11-.58.47-.58.42 0 .6.62.6.96 0 .29-.1.6-.45.6-.49 0-.62-.6-.62-.98Zm1.92-.55c-.79.11-.85-.2-1.37-.2-.57 0-1.06.38-1.06.98 0 .39.22.65.56.81-.24.17-.54.42-.54.65 0 .17.19.26.32.31-.31.29-.6.46-.6.69 0 .25.34.63 1.05.63.56 0 1.58-.33 1.58-1.02s-.63-.64-1.44-.68c-.13 0-.46 0-.54-.13-.04-.13.22-.39.34-.41.12.01.23.03.33.03.53 0 .98-.34.98-.92 0-.13-.04-.34-.12-.52h.5v-.23l.01.01ZM45.75 26.97c0 .18.09.37.53.37v.12H44.6v-.12c.44 0 .53-.19.53-.37v-3.26c-.43 0-.9-.03-1.08.22-.13.16-.16.36-.2.55h-.14l.03-1.03h3.41l.04 1.03h-.14c-.14-.79-.44-.78-.86-.78h-.44V26.97ZM47.73 24.07c0-.39-.06-.37-.37-.36v-.11c.2-.05.36-.08.5-.14l.39-.12v1.84h.01c.19-.27.49-.48.85-.48.62 0 .77.36.77 1.03v1.26c0 .27.09.38.38.4v.09h-1.28v-.09c.29-.01.38-.12.38-.4v-1.26c0-.35-.02-.71-.45-.71-.34 0-.48.18-.66.37v1.59c0 .27.09.38.38.4v.09h-1.27v-.09c.28-.01.37-.12.37-.4V24.07ZM50.88 25.59c.06-.38.24-.69.67-.69.4 0 .56.34.58.69h-1.25Zm1.87.19c-.02-.63-.41-1.1-1.06-1.1-.75 0-1.23.61-1.23 1.48 0 .72.46 1.36 1.15 1.36.6 0 1.08-.48 1.27-1.02l-.1-.03c-.19.33-.52.64-.92.64-.69 0-.97-.76-.98-1.33h1.88-.01ZM58.22 27.53h-.09l-2.67-3.33h-.02v2.76c0 .18.09.37.59.37v.12h-1.44v-.12c.5 0 .58-.19.58-.37v-3.07l-.04-.06c-.18-.21-.25-.27-.54-.27v-.11h1.04l2.32 2.9v-2.42c0-.17-.09-.37-.59-.37v-.11h1.44v.11c-.5 0-.59.19-.59.37v3.6h.01ZM59.45 25.59c.05-.38.24-.69.66-.69.4 0 .56.34.58.69h-1.25.01Zm1.86.19c-.02-.63-.41-1.1-1.07-1.1-.74 0-1.23.61-1.23 1.48 0 .72.46 1.36 1.15 1.36.61 0 1.08-.48 1.27-1.02l-.09-.03c-.19.33-.53.64-.93.64-.68 0-.97-.76-.98-1.33h1.88ZM63.93 26.94c.15.25.33.43.53.43v.09h-1.21v-.09c.22 0 .38-.07.28-.21l-.63-.9-.44.69c-.23.36-.23.42.08.42v.09h-.88v-.09c.22 0 .33-.15.49-.37l.64-.93-.52-.79c-.15-.22-.17-.42-.56-.44v-.08h1.25v.08c-.21 0-.26.09-.26.17 0 .09.3.53.37.64.08-.13.4-.51.4-.65 0-.12-.15-.14-.24-.15v-.08h.96v.08c-.23 0-.41.16-.54.34l-.46.65.73 1.13.01-.03ZM65.53 26.57c0 .45.06.74.44.59.1-.04.16-.11.23-.18l.08.06c-.22.29-.49.48-.78.48-.4 0-.49-.25-.47-.84v-1.74h-.19c-.07 0-.21.04-.15-.09.34-.23.57-.57.85-.89v.79h.6v.19h-.6v1.64l-.01-.01ZM68.98 23.96c0-.28.06-.28.45-.28.54 0 .97.24.97.83 0 .65-.54.83-1.42.87v-1.42Zm-.61 3c0 .18-.09.37-.52.37v.12h1.67v-.12c-.44 0-.53-.19-.53-.37V25.6h.34l1.44 1.85h.98v-.12c-.28-.02-.41-.13-.57-.34l-1.2-1.47c.57-.08 1.1-.37 1.1-1.02 0-.7-.61-1.05-1.61-1.05h-1.6v.11c.43 0 .52.19.52.37v3.04l-.02-.01ZM72.38 25.59c.06-.38.24-.69.67-.69.4 0 .56.34.58.69h-1.25Zm1.87.19c-.02-.63-.41-1.1-1.07-1.1-.75 0-1.23.61-1.23 1.48 0 .72.45 1.36 1.16 1.36.6 0 1.07-.48 1.26-1.02l-.1-.03c-.19.33-.52.64-.92.64-.69 0-.97-.76-.98-1.33h1.88ZM74.81 26.52h.1c.07.44.28.85.79.85.26 0 .48-.16.48-.44 0-.64-1.37-.66-1.37-1.51 0-.48.4-.75.85-.75.13 0 .24.04.44.11.2.06.21-.03.22-.05h.08v.82h-.1c-.11-.41-.26-.74-.67-.74-.23 0-.46.14-.46.39 0 .6 1.42.72 1.42 1.48 0 .52-.41.82-.9.82-.17 0-.27-.04-.43-.1-.36-.11-.37 0-.38.04h-.08v-.94l.01.02ZM77.45 25.5c0-.47-.08-.51-.46-.41V25l.98-.32v2.28c0 .27.09.38.46.4v.09h-1.44v-.09c.37-.01.46-.12.46-.4V25.5Zm-.1-1.87c0-.16.14-.31.3-.31.16 0 .31.14.31.31 0 .17-.14.32-.31.32-.17 0-.3-.14-.3-.32ZM80.58 26.75c0 .21-.18.47-.53.47-.49 0-.84-.43-.84-1.22 0-.57.24-1.13.74-1.13.44 0 .63.34.63.76v1.12Zm.52-3.42-.38.12c-.15.06-.31.09-.52.14v.11c.36 0 .39-.05.39.36v.85c-.07-.09-.31-.24-.61-.24-.79 0-1.28.79-1.28 1.5s.37 1.34 1.12 1.34c.3 0 .61-.19.76-.43h.01v.45c.32-.15.63-.26.92-.34v-.1c-.2 0-.41.04-.41-.18v-3.58ZM82.12 25.59c.06-.38.25-.69.67-.69.42 0 .56.34.58.69h-1.26.01Zm1.87.19c-.01-.63-.41-1.1-1.06-1.1-.76 0-1.24.61-1.24 1.48 0 .72.45 1.36 1.15 1.36.61 0 1.08-.48 1.27-1.02l-.1-.03c-.19.33-.52.64-.92.64-.68 0-.97-.76-.98-1.33h1.88ZM84.67 25.49c0-.46-.05-.45-.38-.44v-.08l.9-.29v.48c.22-.23.49-.48.92-.48.47 0 .71.32.71.97v1.32c0 .27.09.38.38.4v.09h-1.28v-.09c.29-.01.37-.12.37-.4v-1.3c.01-.35-.03-.67-.46-.67-.29 0-.51.2-.65.35v1.61c0 .27.09.38.38.4v.09h-1.28v-.09c.29-.01.38-.12.38-.4v-1.48l.01.01ZM89.75 26.54c-.25.53-.59.98-1.21.98-.66 0-1.13-.61-1.13-1.36 0-.79.45-1.48 1.35-1.48.34 0 .88.19.91.6 0 .15-.13.27-.28.27-.15 0-.28-.14-.28-.27 0-.24-.15-.42-.46-.42-.52 0-.78.55-.78 1.05 0 .56.32 1.18.94 1.18.39 0 .65-.28.86-.58l.08.03ZM90.51 25.59c.06-.38.25-.69.67-.69.4 0 .56.34.57.69H90.5h.01Zm1.86.19c-.02-.63-.41-1.1-1.06-1.1-.75 0-1.23.61-1.23 1.48 0 .72.45 1.36 1.15 1.36.6 0 1.08-.48 1.26-1.02l-.1-.03c-.19.33-.52.64-.92.64-.68 0-.98-.76-.98-1.33h1.88ZM94.39 26.23h.14c.19.57.61 1.08 1.26 1.08.49 0 .82-.43.68-.9-.25-.85-1.9-.89-1.9-2.03 0-.6.48-1.02 1.07-1.02.64 0 .94.45 1.09 0h.12l.13 1.29h-.14c-.14-.57-.54-1.04-1.1-1.04-.36 0-.64.2-.64.58 0 .35.38.6.64.75.83.5 1.39.76 1.39 1.48 0 .55-.46 1.11-1.28 1.11-.62 0-1.06-.44-1.12 0h-.14l-.18-1.3h-.02ZM98.44 26.57c0 .45.06.74.44.59.09-.04.17-.11.22-.18l.08.06c-.21.29-.49.48-.78.48-.4 0-.49-.25-.48-.84v-1.74h-.18c-.07 0-.21.04-.15-.09.33-.23.56-.57.85-.89v.79h.6v.19h-.6v1.64-.01ZM101.51 25.08c.05-.11.03-.23-.27-.26v-.08h.82v.08c-.12 0-.26.21-.31.35l-.89 2.32c-.18.46-.45 1.27-1.05 1.27a.49.49 0 0 1-.41-.19c-.03-.11-.06-.19 0-.28.05-.1.18-.13.28-.13.1 0 .22.07.36.11.18.03.31-.11.54-.68.04-.09.09-.22.06-.28l-1.03-2.21c-.08-.16-.16-.24-.34-.27v-.08h1.25v.08c-.41 0-.41.14-.29.4l.69 1.53.59-1.68ZM102.79 24.07c0-.44-.05-.39-.47-.39v-.08c.29-.05.71-.17.98-.27v3.64c0 .27.09.38.46.4v.09h-1.44v-.09c.37-.01.47-.12.47-.4v-2.9ZM104.45 25.59c.06-.38.24-.69.67-.69.43 0 .56.34.58.69h-1.25Zm1.86.19c-.01-.63-.41-1.1-1.06-1.1-.75 0-1.23.61-1.23 1.48 0 .72.45 1.36 1.15 1.36.61 0 1.08-.48 1.27-1.02l-.1-.03c-.18.33-.52.64-.91.64-.69 0-.97-.76-.98-1.33h1.87-.01ZM48.74.03h-1.06v4.13L40.85.03h-1.06V5.4h1.06V1.27l6.83 4.13h1.06V.03ZM88.05.03H87v4.13L80.16.03H79.1V5.4h1.06V1.27L87 5.4h1.05V.03ZM77.76.03h-8.05V5.4h8.05c.89 0 .89-.9.89-.9V.94s0-.9-.89-.9V.03Zm-.16 1.58v2.73h-6.85V1.09h6.32c.53 0 .52.53.52.53l.01-.01ZM50.28 5.42h-1.06V0h1.06v5.42ZM58.92 2.08H53.3v1.05h5.61c.88 0 .89-.9.89-.9V.94s0-.91-.91-.91h-8.08V5.4h1.05V1.09h7.06v.99ZM68.31 2.06H62.7v1.06h5.61c.88-.02.88-.91.88-.91V.92s0-.91-.9-.91H60.2v5.37h1.06V1.07h7.05v.99Z" fill="#fff"/></svg>