<svg width="142" height="25" viewBox="0 0 142 25" fill="none" xmlns="http://www.w3.org/2000/svg">
<path d="M141.734 0H0V25H141.734V0Z" fill="#004C94"/>
<path d="M21.0558 14.3804C21.0558 12.974 20.9692 12.7855 20.2761 12.5918C20.0811 12.5563 19.8832 12.5392 19.685 12.5409C19.6188 12.5409 19.5474 12.5052 19.5474 12.4389C19.5474 12.3727 19.6341 12.2963 19.8277 12.2963C20.6074 12.2963 21.6979 12.3523 21.7845 12.3523C21.8711 12.3523 22.9667 12.2963 23.4865 12.2963C23.675 12.2963 23.7617 12.3319 23.7617 12.4389C23.7617 12.546 23.6903 12.5409 23.6241 12.5409C23.4785 12.5449 23.3335 12.562 23.1909 12.5918C22.7221 12.6784 22.5845 12.974 22.5489 13.5804C22.5132 14.1868 22.5132 14.6556 22.5132 15.3843V17.3258C22.5132 18.1055 22.5132 18.1411 22.289 18.2634C21.1365 18.7901 19.882 19.0563 18.6149 19.0431C17.2951 19.0431 14.8338 18.8698 12.9076 17.1882C12.2512 16.5451 11.732 15.7754 11.3817 14.9257C11.0313 14.0761 10.857 13.1642 10.8693 12.2453C10.8255 11.1275 11.0679 10.0169 11.5735 9.01901C12.0791 8.0211 12.8313 7.16886 13.7586 6.54311C15.1533 5.75244 16.7433 5.3726 18.3448 5.44751C19.2351 5.46786 20.1218 5.56676 20.9946 5.74307C21.4578 5.83991 21.9283 5.89787 22.4011 5.91632C22.5743 5.91632 22.61 6.00295 22.61 6.07429C22.5227 6.89174 22.4819 7.71349 22.4877 8.53556C22.4877 8.81074 22.452 8.90246 22.3297 8.90246C22.2074 8.90246 22.2278 8.79545 22.2074 8.63748C22.1759 8.2343 22.0521 7.84377 21.8456 7.49602C21.4023 6.83866 20.0163 6.11506 17.7792 6.11506C16.4449 6.03804 15.1276 6.44517 14.0695 7.26162C13.0503 8.05656 12.3522 9.63625 12.3522 11.6644C12.3396 13.4389 12.9965 15.153 14.1918 16.4646C14.7864 17.0613 15.4945 17.5328 16.2743 17.8514C17.0541 18.1699 17.8898 18.3291 18.7321 18.3195C19.4095 18.3421 20.0838 18.2187 20.7093 17.9577C20.8246 17.9002 20.9195 17.8089 20.9815 17.696C21.0434 17.5831 21.0693 17.4539 21.0558 17.3258V14.3804Z" fill="white"/>
<path d="M27.767 10.7011C27.767 7.99524 27.767 7.51114 27.7365 6.9557C27.7059 6.40026 27.5632 6.11489 27.0078 5.9875C26.8144 5.95218 26.6182 5.93512 26.4217 5.93654C26.3504 5.93654 26.2791 5.90087 26.2791 5.82953C26.2791 5.75819 26.3657 5.69194 26.5593 5.69194C27.339 5.69194 28.4295 5.7429 28.5161 5.7429C28.7097 5.7429 30.0448 5.69194 30.5544 5.69194C31.6648 5.6101 32.773 5.87735 33.724 6.45631C34.0869 6.73425 34.3829 7.09003 34.5901 7.49746C34.7973 7.90488 34.9106 8.35359 34.9215 8.81057C34.9215 10.0947 34.3865 11.3585 32.8271 12.8159C34.2489 14.6402 35.426 16.1791 36.4299 17.2543C36.9648 17.9076 37.7142 18.35 38.5446 18.5028C38.7685 18.5411 38.9953 18.5599 39.2224 18.5588C39.309 18.5588 39.3803 18.6098 39.3803 18.6607C39.3803 18.7117 39.2733 18.7983 38.9625 18.7983H37.7089C37.072 18.8587 36.4307 18.7442 35.8541 18.4671C35.1101 18.0696 34.5037 17.2237 33.5151 15.9192C32.7864 14.9663 31.9863 13.8044 31.6245 13.3713C31.5982 13.3371 31.5641 13.3096 31.5252 13.2911C31.4862 13.2725 31.4435 13.2633 31.4003 13.2643L29.2652 13.2337C29.1786 13.2337 29.148 13.2847 29.148 13.3713V13.7586C29.148 15.4249 29.148 16.8161 29.2346 17.5244C29.2856 18.034 29.3875 18.4059 29.9073 18.4773C30.1657 18.5147 30.426 18.5385 30.6869 18.5486C30.7939 18.5486 30.8296 18.5996 30.8296 18.6505C30.8296 18.7015 30.743 18.7881 30.5493 18.7881C29.5964 18.7881 28.511 18.7372 28.4193 18.7372C28.3276 18.7372 27.3084 18.7881 26.7886 18.7881C26.6001 18.7881 26.5135 18.7525 26.5135 18.6505C26.5135 18.5486 26.544 18.5486 26.651 18.5486C26.8228 18.5414 26.9935 18.5175 27.1606 18.4773C27.5071 18.4059 27.5938 18.0238 27.6702 17.5244C27.7568 16.7957 27.7568 15.4249 27.7568 13.7586L27.767 10.7011ZM29.1582 12.2298C29.1566 12.2721 29.1666 12.314 29.1873 12.3508C29.208 12.3877 29.2385 12.4181 29.2754 12.4388C29.8539 12.6526 30.4678 12.7546 31.0844 12.7394C31.5413 12.7652 31.995 12.6495 32.3838 12.4082C32.9902 11.9954 33.4386 11.0578 33.4386 9.738C33.4386 7.57229 32.2972 6.27286 30.4423 6.27286C30.0525 6.26436 29.6629 6.29853 29.2805 6.37478C29.2385 6.39077 29.2027 6.41955 29.178 6.45705C29.1533 6.49454 29.141 6.53885 29.1429 6.58371L29.1582 12.2298Z" fill="white"/>
<path d="M43.3397 6.115C43.5487 5.54427 43.62 5.43726 43.7219 5.43726C43.8238 5.43726 43.8952 5.52388 44.1041 6.06404C44.364 6.7214 47.0851 13.881 48.1451 16.5155C48.7667 18.0443 49.2712 18.3398 49.633 18.4417C49.857 18.5134 50.0909 18.5495 50.3261 18.5487C50.4331 18.5487 50.4993 18.5487 50.4993 18.6507C50.4993 18.7526 50.3464 18.7882 50.1528 18.7882C49.9592 18.7882 48.6241 18.7882 47.4317 18.7526C47.1004 18.7526 46.9221 18.7526 46.9221 18.6303C46.9221 18.508 46.973 18.5284 47.0444 18.5131C47.1157 18.4978 47.2533 18.3194 47.1463 18.0443L45.536 13.7791C45.5248 13.7469 45.5032 13.7194 45.4745 13.701C45.4459 13.6825 45.412 13.6741 45.378 13.6772H41.6428C41.6027 13.6772 41.5637 13.6909 41.5323 13.7158C41.5008 13.7408 41.4787 13.7757 41.4696 13.8147L40.4504 16.8722C40.3055 17.2434 40.2229 17.636 40.2058 18.0341C40.2058 18.3806 40.5676 18.5436 40.8632 18.5436H41.0364C41.1587 18.5436 41.2097 18.5742 41.2097 18.6456C41.2097 18.7169 41.1078 18.7831 40.9498 18.7831C40.537 18.7831 39.788 18.7322 39.5994 18.7322C39.4109 18.7322 38.4529 18.7831 37.6375 18.7831C37.4133 18.7831 37.3114 18.7475 37.3114 18.6456C37.3114 18.5436 37.3776 18.5436 37.4643 18.5436C37.5509 18.5436 37.8312 18.5436 37.9739 18.508C38.7688 18.401 39.1204 17.7436 39.4313 16.8773L43.3397 6.115ZM45.1436 13.0504C45.2303 13.0504 45.2303 12.9994 45.215 12.9281L43.5639 8.25014C43.4756 7.98855 43.389 7.98855 43.3041 8.25014L41.7753 12.9281C41.7396 13.0147 41.7753 13.0504 41.8263 13.0504H45.1436Z" fill="white"/>
<path d="M53.4499 16.439C53.4855 17.8608 53.6588 18.3143 54.1276 18.4774C54.4113 18.5461 54.702 18.582 54.9939 18.5844C55.0805 18.5844 55.1315 18.615 55.1315 18.6863C55.1315 18.7576 55.0296 18.8239 54.8206 18.8239C53.832 18.8239 53.139 18.7729 52.981 18.7729C52.8231 18.7729 52.0995 18.8239 51.3198 18.8239C51.1415 18.8239 51.0396 18.8239 51.0396 18.6863C51.0396 18.5487 51.0905 18.5844 51.1771 18.5844C51.4189 18.5833 51.6591 18.5472 51.8905 18.4774C52.3237 18.3551 52.4001 17.8557 52.4001 16.276V6.33919C52.4001 5.66654 52.4511 5.4729 52.5938 5.4729C52.7364 5.4729 53.0269 5.85509 53.2002 6.02834C53.4601 6.3239 56.0436 9.11639 58.7138 11.9751C60.426 13.8147 62.3165 15.9295 62.872 16.5002L62.6834 7.69467C62.6834 6.5685 62.5459 6.16593 62.0057 6.04873C61.7255 5.99245 61.4405 5.96344 61.1547 5.9621C61.0324 5.9621 61.0171 5.90604 61.0171 5.8398C61.0171 5.77355 61.1547 5.7175 61.3636 5.7175C62.1433 5.7175 62.979 5.76846 63.1675 5.76846C63.3561 5.76846 63.9319 5.7175 64.6402 5.7175C64.8339 5.7175 64.9511 5.7175 64.9511 5.8398C64.9511 5.9621 64.8848 5.9621 64.7625 5.9621C64.6216 5.9603 64.481 5.97744 64.3447 6.01305C63.7739 6.13535 63.7026 6.52263 63.7026 7.54179L63.6975 17.6875C63.6975 18.8341 63.6618 18.9207 63.5395 18.9207C63.4172 18.9207 63.193 18.7322 62.2758 17.8098C62.0821 17.6366 59.5852 15.0887 57.7507 13.1115C55.7124 10.9458 53.7811 8.75969 53.2256 8.138L53.4499 16.439Z" fill="white"/>
<path d="M89.4771 11.2058H74.2457V12.4747H89.4771V11.2058Z" fill="#BDC3C4"/>
<path d="M83.3214 3.24249e-05V25H84.7125V3.24249e-05H83.3214Z" fill="#BDC3C4"/>
<path d="M68.834 10.7014C68.834 7.9955 68.834 7.5114 68.7984 6.95595C68.7627 6.40051 68.6251 6.08967 68.0544 5.96737C67.8594 5.93185 67.6615 5.91479 67.4633 5.91641C67.397 5.91641 67.3257 5.88074 67.3257 5.8094C67.3257 5.73806 67.4123 5.67181 67.606 5.67181C68.3856 5.67181 69.4761 5.72277 69.5627 5.72277C69.7717 5.72277 70.8622 5.67181 71.9017 5.67181C73.619 5.67181 76.7937 5.51384 78.8575 7.64898C79.976 8.8378 80.5803 10.42 80.5391 12.0517C80.5635 13.8609 79.8922 15.6102 78.6638 16.9386C77.9198 17.7234 76.3605 18.9362 73.4101 18.9362C72.6661 18.9362 71.7488 18.8801 70.9998 18.8292C70.2507 18.7782 69.6494 18.7272 69.5627 18.7272C69.4761 18.7272 69.2315 18.7272 68.8697 18.7272C68.5079 18.7272 68.1257 18.7629 67.8505 18.7629C67.5754 18.7629 67.5703 18.7272 67.5703 18.6253C67.5703 18.5234 67.606 18.5234 67.7079 18.5234C67.8797 18.5169 68.0504 18.493 68.2174 18.4521C68.5691 18.3807 68.6557 17.9985 68.727 17.4992C68.8137 16.7705 68.8137 15.3997 68.8137 13.7334L68.834 10.7014ZM70.2914 12.5715C70.2914 14.4111 70.2914 16.0061 70.3271 16.3322C70.3107 16.7799 70.3746 17.2269 70.5157 17.652C70.7399 17.9833 71.4176 18.3451 73.4661 18.3451C74.9987 18.3722 76.4802 17.7935 77.5886 16.7348C78.4906 15.8481 78.9747 14.1869 78.9747 12.5919C79.0106 10.9739 78.4147 9.4056 77.3134 8.21971C75.6828 6.50243 73.7056 6.26293 71.6418 6.26293C71.2628 6.25625 70.8844 6.29734 70.5157 6.38523C70.4458 6.40941 70.3866 6.45733 70.3484 6.52065C70.3103 6.58396 70.2955 6.65866 70.3067 6.73174C70.3067 7.31776 70.3067 9.086 70.3067 10.4211L70.2914 12.5715Z" fill="white"/>
<path d="M101.258 6.115C101.462 5.54427 101.534 5.43726 101.636 5.43726C101.737 5.43726 101.809 5.52388 102.018 6.06404C102.278 6.7214 104.999 13.881 106.059 16.5155C106.68 18.0443 107.185 18.3398 107.552 18.4417C107.776 18.5134 108.01 18.5495 108.245 18.5487C108.347 18.5487 108.418 18.5487 108.418 18.6507C108.418 18.7526 108.26 18.7882 108.072 18.7882C107.883 18.7882 106.543 18.7882 105.345 18.7526C105.019 18.7526 104.836 18.7526 104.836 18.6303C104.836 18.508 104.892 18.5284 104.958 18.5131C105.024 18.4978 105.167 18.3194 105.065 18.0443L103.445 13.7893C103.435 13.757 103.415 13.7291 103.387 13.7104C103.359 13.6918 103.325 13.6836 103.292 13.6873H99.5616C99.5217 13.6883 99.4832 13.7023 99.4519 13.7271C99.4206 13.7519 99.3983 13.7863 99.3883 13.8249L98.3692 16.8824C98.2243 17.2536 98.1417 17.6462 98.1246 18.0443C98.1246 18.3908 98.4915 18.5538 98.787 18.5538H98.9603C99.0775 18.5538 99.1335 18.5844 99.1335 18.6557C99.1335 18.7271 99.0265 18.7933 98.8737 18.7933C98.4558 18.7933 97.7118 18.7424 97.5182 18.7424C97.3245 18.7424 96.3767 18.7933 95.5614 18.7933C95.3372 18.7933 95.2302 18.7577 95.2302 18.6557C95.2302 18.5538 95.3015 18.5538 95.3881 18.5538C95.4748 18.5538 95.7499 18.5538 95.8977 18.5182C96.6978 18.4111 97.0443 17.7538 97.3551 16.8875L101.258 6.115ZM103.057 13.0504C103.144 13.0504 103.144 12.9994 103.129 12.9281L101.483 8.25013C101.394 7.98855 101.308 7.98855 101.223 8.25013L99.6941 12.9281C99.6635 13.0147 99.6941 13.0504 99.7501 13.0504H103.057Z" fill="white"/>
<path d="M110.069 10.7012C110.069 7.99536 110.069 7.51126 110.034 6.95582C109.998 6.40038 109.86 6.08953 109.284 5.96723C109.091 5.93191 108.895 5.91485 108.698 5.91628C108.627 5.91628 108.561 5.88061 108.561 5.80926C108.561 5.73792 108.647 5.67168 108.836 5.67168C109.616 5.67168 110.706 5.72264 110.793 5.72264C110.986 5.72264 112.322 5.67168 112.831 5.67168C113.942 5.58983 115.05 5.85708 116.001 6.43605C116.369 6.71352 116.67 7.07188 116.878 7.48356C117.087 7.89524 117.198 8.34926 117.203 8.81069C117.203 10.0948 116.668 11.3586 115.109 12.816C116.531 14.6403 117.708 16.1792 118.712 17.2544C119.247 17.9078 119.996 18.3502 120.826 18.5029C121.05 18.5413 121.277 18.56 121.504 18.5589C121.591 18.5589 121.662 18.6099 121.662 18.6609C121.662 18.7118 121.555 18.7984 121.244 18.7984H120.011C119.374 18.8588 118.733 18.7443 118.156 18.4672C117.412 18.0697 116.806 17.2238 115.817 15.9193C115.089 14.9664 114.289 13.8046 113.927 13.3714C113.9 13.3373 113.866 13.3098 113.827 13.2912C113.788 13.2726 113.746 13.2634 113.703 13.2644L111.567 13.2338C111.481 13.2338 111.45 13.2848 111.45 13.3714V13.7587C111.45 15.425 111.45 16.8162 111.537 17.5245C111.588 18.0341 111.69 18.4061 112.209 18.4774C112.47 18.5151 112.732 18.5389 112.994 18.5488C113.096 18.5488 113.132 18.5997 113.132 18.6507C113.132 18.7016 113.045 18.7883 112.852 18.7883C111.899 18.7883 110.813 18.7373 110.721 18.7373C110.63 18.7373 109.611 18.7883 109.091 18.7883C108.902 18.7883 108.816 18.7526 108.816 18.6507C108.816 18.5488 108.846 18.5488 108.953 18.5488C109.125 18.5415 109.296 18.5176 109.463 18.4774C109.809 18.4061 109.896 18.0239 109.972 17.5245C110.069 16.8162 110.069 15.4352 110.069 13.7587V10.7012ZM111.455 12.23C111.454 12.2722 111.464 12.3141 111.484 12.351C111.505 12.3878 111.536 12.4183 111.572 12.4389C112.158 12.6456 112.777 12.739 113.397 12.7141C113.84 12.7315 114.278 12.6161 114.655 12.3828C115.262 11.9701 115.715 11.0325 115.715 9.71264C115.715 7.54693 114.569 6.2475 112.714 6.2475C112.324 6.239 111.934 6.27317 111.552 6.34942C111.51 6.36541 111.474 6.39419 111.45 6.43169C111.425 6.46918 111.413 6.51349 111.415 6.55835L111.455 12.23Z" fill="white"/>
<path d="M123.119 10.7011C123.119 7.9952 123.119 7.5111 123.084 6.95566C123.048 6.40022 122.911 6.08938 122.34 5.96708C122.145 5.93156 121.947 5.9145 121.749 5.91612C121.682 5.91612 121.611 5.88045 121.611 5.80911C121.611 5.73777 121.698 5.67152 121.891 5.67152C122.289 5.67152 122.758 5.67152 123.14 5.67152L123.848 5.70719C123.97 5.70719 127.415 5.70719 127.818 5.70719C128.069 5.69729 128.32 5.66834 128.567 5.62056C128.653 5.62056 128.72 5.53394 128.806 5.53394C128.893 5.53394 128.878 5.60018 128.878 5.68681C128.878 5.77344 128.791 6.01804 128.74 6.50214C128.74 6.67539 128.684 7.43976 128.653 7.64869C128.653 7.73532 128.597 7.83723 128.531 7.83723C128.465 7.83723 128.414 7.77099 128.414 7.64359C128.414 7.43176 128.378 7.22145 128.307 7.02191C128.185 6.74164 128.011 6.51233 127.079 6.4308C126.783 6.39512 124.893 6.37984 124.699 6.37984C124.633 6.37984 124.597 6.4308 124.597 6.55309V11.338C124.597 11.4603 124.597 11.5113 124.699 11.5113C124.928 11.5113 127.058 11.5113 127.456 11.4756C127.853 11.44 128.118 11.4043 128.271 11.231C128.424 11.0578 128.465 11.0068 128.531 11.0068C128.597 11.0068 128.618 11.0425 128.618 11.1444C128.618 11.2463 128.531 11.547 128.48 12.1177C128.445 12.4642 128.414 13.1063 128.414 13.2286C128.414 13.3509 128.414 13.5547 128.292 13.5547C128.169 13.5547 128.169 13.4885 128.169 13.4018C128.178 13.2073 128.154 13.0127 128.098 12.826C128.032 12.5865 127.874 12.3164 127.196 12.2196C126.732 12.1687 125.015 12.133 124.72 12.133C124.703 12.1314 124.686 12.1335 124.671 12.1391C124.655 12.1447 124.641 12.1536 124.63 12.1653C124.618 12.177 124.609 12.1911 124.603 12.2067C124.598 12.2222 124.596 12.2388 124.597 12.2553V13.784C124.597 14.3751 124.597 16.388 124.597 16.7498C124.648 17.9473 124.908 18.1715 126.61 18.1715C127.17 18.2022 127.732 18.1384 128.271 17.983C128.725 17.7893 128.934 17.4428 129.051 16.7345C129.087 16.5409 129.122 16.4746 129.209 16.4746C129.296 16.4746 129.311 16.6122 129.311 16.7345C129.311 16.8568 129.173 18.0492 129.087 18.4161C128.964 18.8645 128.827 18.8645 128.154 18.8645C126.85 18.8645 125.897 18.834 125.224 18.8136C124.551 18.7932 124.128 18.7626 123.869 18.7626C123.833 18.7626 123.537 18.7626 123.175 18.7626C122.814 18.7626 122.432 18.7983 122.156 18.7983C121.881 18.7983 121.876 18.7626 121.876 18.6607C121.876 18.5588 121.912 18.5588 122.019 18.5588C122.191 18.5516 122.361 18.5277 122.528 18.4874C122.875 18.4161 122.961 18.0339 123.038 17.5345C123.125 16.8058 123.125 15.4351 123.125 13.7687L123.119 10.7011Z" fill="white"/>
<path d="M88.4936 10.7011C88.4936 7.9952 88.4936 7.5111 88.4579 6.95566C88.4222 6.40022 88.2847 6.08938 87.7139 5.96708C87.5189 5.93156 87.321 5.9145 87.1228 5.91612C87.0566 5.91612 86.9852 5.88045 86.9852 5.80911C86.9852 5.73777 87.0719 5.67152 87.2655 5.67152C87.663 5.67152 88.1318 5.67152 88.514 5.67152L89.2223 5.70719C89.5688 5.70719 93.09 5.70719 93.4875 5.70719C93.7439 5.7073 93.9998 5.68341 94.2518 5.63585C94.3538 5.60018 94.4251 5.53394 94.4913 5.53394C94.5576 5.53394 94.5983 5.60018 94.5983 5.68681C94.5983 5.77344 94.5117 6.01804 94.4608 6.50214C94.4608 6.67539 94.4047 7.43976 94.3741 7.64869C94.3741 7.73532 94.3181 7.83723 94.2315 7.83723C94.1448 7.83723 94.1091 7.75061 94.1091 7.62831C94.0979 7.40181 94.0461 7.17916 93.9563 6.97095C93.8241 6.78526 93.6464 6.63666 93.4403 6.53939C93.2342 6.44213 93.0065 6.39947 92.7792 6.41551L90.109 6.36455C90.0019 6.36455 89.951 6.41551 89.951 6.55819V11.3635C89.951 11.4654 89.951 11.5164 90.0733 11.5164H92.29C92.5855 11.5164 92.8301 11.5164 93.0696 11.5164C93.4875 11.4858 93.7117 11.4298 93.8697 11.2056C93.9359 11.1189 93.992 11.0323 94.0582 11.0323C94.1244 11.0323 94.1448 11.0833 94.1448 11.1699C94.1448 11.2565 94.0582 11.5725 94.0072 12.1432C93.9716 12.4897 93.9359 13.1623 93.9359 13.305C93.9359 13.4477 93.9359 13.6312 93.8187 13.6312C93.7015 13.6312 93.6964 13.5649 93.6964 13.4783C93.6826 13.2662 93.6467 13.0561 93.5894 12.8515C93.5142 12.6735 93.39 12.5206 93.2312 12.4105C93.0724 12.3004 92.8856 12.2378 92.6925 12.2298C92.2543 12.1789 90.3688 12.1789 90.0733 12.1789C89.9867 12.1789 89.951 12.2145 89.951 12.3317V13.7585C89.951 15.4249 89.951 16.816 90.0376 17.5243C90.0886 18.0339 90.1956 18.4059 90.7154 18.4773C90.9738 18.5151 91.234 18.5389 91.495 18.5486C91.5969 18.5486 91.6326 18.5996 91.6326 18.6505C91.6326 18.7015 91.546 18.7881 91.3574 18.7881C90.3994 18.7881 89.3191 18.7371 89.2223 18.7371C89.1255 18.7371 88.0452 18.7881 87.5254 18.7881C87.3317 18.7881 87.2451 18.7524 87.2451 18.6505C87.2451 18.5486 87.2808 18.5486 87.3827 18.5486C87.5545 18.5414 87.7251 18.5175 87.8923 18.4773C88.2388 18.4059 88.3254 18.0237 88.4019 17.5243C88.4885 16.7956 88.4885 15.4249 88.4885 13.7585L88.4936 10.7011Z" fill="white"/>
</svg>
