<svg width="506" height="15" viewBox="0 0 506 15" fill="none" xmlns="http://www.w3.org/2000/svg">
<path d="M12.5633 3.71631C12.5633 3.8626 12.5633 3.91746 12.3987 3.97233C12.2341 4.02719 12.1427 3.97233 12.0695 3.82603C11.6739 2.97138 11.0929 2.21552 10.3688 1.61329C9.56806 1.03067 8.59742 0.728549 7.60746 0.753789C4.79123 0.753789 2.59678 3.38714 2.59678 7.00799C2.59678 10.6288 4.79123 13.3536 7.86348 13.3536C8.94515 13.3741 9.99536 12.9892 10.8077 12.2747C10.8772 11.8576 10.9138 11.4357 10.9174 11.0129C10.9174 9.18417 10.9174 8.96473 10.698 8.54412C10.4785 8.12352 10.0396 8.16009 9.23501 8.08694C9.107 8.08694 9.07043 8.08693 9.07043 7.8492C9.07043 7.61147 9.07043 7.62976 9.23501 7.62976C10.1128 7.62976 11.0637 7.62976 11.9232 7.62976C12.7827 7.62976 13.5325 7.62976 14.4103 7.62976C14.5383 7.62976 14.5566 7.62976 14.5566 7.8492C14.5566 8.06865 14.5566 8.06866 14.4103 8.08694C13.6971 8.08694 13.4411 8.08694 13.2216 8.54412C13.0184 9.26297 12.9441 10.0121 13.0022 10.7569C12.9777 11.6909 13.0143 12.6255 13.1119 13.5548C13.1119 13.5548 13.1119 13.6828 12.9107 13.6828C12.515 13.6544 12.1178 13.6544 11.7221 13.6828C10.7528 13.6828 9.56418 14.1766 7.5526 14.1766C2.96252 14.012 0 11.1958 0 7.04458C0.00419885 6.07564 0.208872 5.11806 0.601143 4.23207C0.993414 3.34608 1.56479 2.55087 2.27934 1.89644C2.99388 1.24202 3.83613 0.742542 4.75309 0.429447C5.67005 0.116352 6.64189 -0.00358804 7.60746 0.0771662C8.44323 0.0856727 9.27389 0.208734 10.0762 0.442911C10.7868 0.622641 11.5241 0.672202 12.2524 0.589204C12.289 1.52185 12.4353 2.76537 12.5633 3.71631Z" fill="#231815"/>
<path d="M20.4089 10.3177C20.4089 12.1464 20.4089 12.4025 20.6284 12.7499C20.8478 13.0974 21.305 13.1522 22.1096 13.2254C22.2376 13.2254 22.2559 13.2254 22.2559 13.4814C22.2559 13.7374 22.2559 13.7008 22.0731 13.7008C21.1953 13.7008 20.2443 13.7008 19.33 13.7008C18.4156 13.7008 17.5013 13.7008 16.6783 13.7008C16.5138 13.7008 16.4772 13.7008 16.4772 13.4814C16.4772 13.262 16.4772 13.2437 16.6783 13.2254C17.3733 13.2254 17.8121 13.2254 17.995 12.7499C18.2408 11.9642 18.3218 11.1362 18.2328 10.3177V3.69777C18.2328 1.86906 18.2328 1.72276 18.0316 1.32044C17.8304 0.918124 17.2635 0.936411 16.4772 0.863263C16.3492 0.863263 16.2943 0.863257 16.2943 0.607237C16.2943 0.351216 16.2943 0.387793 16.4772 0.387793H19.2203C19.9517 0.387793 21.1953 0.387793 22.4022 0.387793C26.206 0.387793 27.6506 1.86905 27.6506 3.78921C27.6506 5.16074 26.6631 6.51399 24.4321 7.0626C25.255 8.489 26.2608 10.0251 27.2117 11.5978C27.4921 12.1276 27.8779 12.5944 28.3455 12.9694C28.7084 13.1524 29.1096 13.2464 29.5159 13.2437C29.6257 13.2437 29.6622 13.2437 29.6622 13.4814C29.6622 13.7191 29.6622 13.7191 29.5159 13.7191C28.7113 13.7191 28.0895 13.7191 27.4678 13.7191H25.639C25.4371 13.2297 25.205 12.7534 24.9441 12.2927C23.9932 10.6469 23.1154 9.11077 22.1645 7.46492H21.6159C21.2318 7.46492 20.9027 7.46492 20.4089 7.46492V10.3177ZM20.4089 6.6603C20.8291 6.68551 21.2505 6.68551 21.6707 6.6603C24.2675 6.6603 25.2002 5.3619 25.2002 3.71606C25.2002 2.07021 24.2309 0.826688 22.0182 0.826688C21.5062 0.826688 20.9027 0.826688 20.6284 1.15586C20.3926 1.9248 20.3179 2.73408 20.4089 3.53319V6.6603Z" fill="#231815"/>
<path d="M38.6592 8.67169C38.0191 8.67169 37.1962 8.67169 36.4647 8.67169C35.7332 8.67169 34.892 8.67169 34.0691 8.67169L33.3559 10.5004C33.1815 10.8088 33.0721 11.1496 33.0344 11.5018C32.9966 11.854 33.0314 12.2102 33.1364 12.5486C33.301 12.9326 33.9411 13.0606 34.636 13.1337C34.7457 13.1337 34.8006 13.1338 34.8006 13.3715C34.8006 13.6092 34.8006 13.6092 34.5994 13.6092C33.8862 13.6092 32.8987 13.6092 32.1855 13.6092C31.4723 13.6092 30.814 13.6092 30.1739 13.6092C30.0093 13.6092 29.9545 13.6092 29.9545 13.3715C29.9545 13.1338 29.9545 13.1337 30.1739 13.1337C30.6015 13.067 30.9978 12.8689 31.3077 12.5668C31.8398 11.941 32.2381 11.2129 32.4781 10.4273L34.7823 4.59365C35.6966 2.28946 35.8612 1.72257 36.1721 0.753346L37.6899 0.0950068C37.7476 0.0890583 37.8054 0.104361 37.8525 0.138035C37.8997 0.171709 37.9329 0.22144 37.946 0.277883C38.33 1.3934 38.6774 2.30776 39.5369 4.70338L41.7131 10.665C41.9264 11.4027 42.2467 12.1051 42.664 12.7497C42.9932 13.1337 43.1944 13.1703 43.9259 13.2252C44.127 13.2252 44.1636 13.2252 44.1636 13.4629C44.1636 13.7006 44.1636 13.7007 43.9259 13.7007H41.1828H38.4763C38.3483 13.7007 38.33 13.7006 38.33 13.4629C38.33 13.2252 38.33 13.2252 38.4763 13.2252C39.2078 13.2252 39.6832 13.1155 39.8112 12.7497C39.8792 12.1192 39.7582 11.4827 39.4638 10.921L38.6592 8.67169ZM37.2328 4.73995C36.7939 3.53299 36.6293 2.91123 36.4281 2.34433C36.1538 3.05753 36.0075 3.533 35.5503 4.70338L34.3251 7.9402C34.9651 7.9402 35.7332 7.9402 36.4647 7.9402C37.1962 7.9402 37.8179 7.9402 38.3848 7.9402L37.2328 4.73995Z" fill="#231815"/>
<path d="M48.1865 2.34488L48.278 10.3547C48.2068 11.1507 48.3455 11.9514 48.6803 12.6771C49.072 13.0434 49.5888 13.2462 50.125 13.244C50.2713 13.244 50.2896 13.244 50.2896 13.4818C50.2896 13.7195 50.2896 13.7012 50.1067 13.7012C49.3752 13.7012 48.6437 13.7012 47.8574 13.7012C47.071 13.7012 46.2298 13.7012 45.5532 13.7012C45.3886 13.7012 45.3703 13.7012 45.3703 13.5001C45.3703 13.2989 45.3703 13.2806 45.5349 13.2623C45.7826 13.259 46.027 13.2055 46.2533 13.1049C46.4796 13.0043 46.6832 12.8587 46.8516 12.6771C47.2285 11.9642 47.3935 11.1583 47.327 10.3547L47.4368 3.69814C47.5388 2.94002 47.4313 2.16843 47.1259 1.4671C46.6755 1.09001 46.1039 0.888644 45.5166 0.900202C45.3703 0.900202 45.3337 0.9002 45.3337 0.625892C45.3337 0.351585 45.3337 0.388157 45.5166 0.388157C46.1932 0.388157 46.943 0.388157 47.5282 0.388157C48.1134 0.388157 48.9363 0.388157 49.869 0.388157C50.3242 1.14493 50.8186 1.87742 51.3502 2.58262L55.7574 8.81855C56.434 9.78776 56.8364 10.3547 57.3301 11.1776V9.16599V3.67984C57.3748 2.90315 57.2173 2.12815 56.8729 1.43052C56.6352 1.04649 56.0317 0.936773 55.5014 0.881911C55.3368 0.881911 55.2637 0.881909 55.2637 0.644176C55.2637 0.406443 55.2637 0.369873 55.4465 0.369873C56.0683 0.369873 56.9278 0.369873 57.6776 0.369873C58.4273 0.369873 59.36 0.369873 59.8903 0.369873C60.0183 0.369873 60.0549 0.369868 60.0549 0.607601C60.0549 0.845334 60.0549 0.845337 59.8903 0.881911C59.652 0.870379 59.4142 0.913863 59.1954 1.009C58.9766 1.10414 58.7826 1.24837 58.6285 1.43052C58.2865 2.12896 58.1291 2.90333 58.1713 3.67984L58.0616 10.3181C58.0616 11.5799 58.0616 12.348 58.0616 13.3538C56.8364 13.9755 56.7632 13.9938 56.6535 13.9938C56.6276 14.0054 56.5996 14.0114 56.5712 14.0114C56.5428 14.0114 56.5148 14.0054 56.4889 13.9938C55.8671 13.0612 55.5197 12.5308 54.3127 10.7935L48.4426 2.41803L48.1865 2.34488Z" fill="#231815"/>
<path d="M64.0782 3.6967C64.0782 1.86798 64.0782 1.70339 63.8404 1.30108C63.6027 0.898759 63.1821 0.935337 62.3592 0.862189C62.2495 0.862189 62.2129 0.862187 62.2129 0.624454C62.2129 0.386721 62.2129 0.386719 62.3592 0.386719C63.237 0.386719 64.0782 0.386719 64.9925 0.386719C65.9069 0.386719 67.5893 0.386719 68.7597 0.386719C74.1178 0.386719 76.9706 2.78233 76.9706 6.93352C76.9706 11.0847 73.935 13.7912 68.6134 13.7912C67.571 13.7912 66.1812 13.6815 64.956 13.6815C63.7307 13.6815 63.237 13.6815 62.414 13.6815C62.286 13.6815 62.2495 13.6815 62.2495 13.462C62.2495 13.2426 62.2495 13.2426 62.414 13.2243C63.1638 13.2243 63.6393 13.0597 63.8222 12.7488C64.0432 11.9583 64.1115 11.1328 64.0233 10.3167L64.0782 3.6967ZM66.3458 10.3349C66.3458 11.8345 66.3458 12.1636 66.6567 12.566C66.9676 12.9683 67.571 13.1329 68.5768 13.1329C72.3805 13.1329 74.4287 10.8836 74.4287 6.9701C74.4287 3.05665 72.4537 0.990198 68.7963 0.990198C67.6807 0.990198 66.9675 1.09992 66.675 1.46566C66.3824 1.8314 66.4372 2.39831 66.4372 3.6967L66.3458 10.3349Z" fill="#231815"/>
<path d="M83.7189 10.3349C83.7189 12.1636 83.7189 12.4197 83.9383 12.8037C84.1578 13.1877 84.615 13.1877 85.4013 13.2609C85.5476 13.2609 85.5842 13.2609 85.5842 13.4803C85.5842 13.6998 85.5842 13.6998 85.383 13.6998C84.4869 13.6998 83.4263 13.6998 82.4937 13.6998C81.561 13.6998 80.6649 13.6998 79.8237 13.6998C79.6957 13.6998 79.6591 13.6998 79.6591 13.4986C79.6591 13.2975 79.6591 13.2792 79.8054 13.2609C80.5735 13.2609 80.9392 13.2609 81.1587 12.8037C81.3853 12.0017 81.4598 11.1643 81.3781 10.3349V3.6967C81.3781 1.86798 81.3781 1.70339 81.1587 1.30108C80.9392 0.898759 80.4821 0.935337 79.6957 0.862189C79.5677 0.862189 79.5311 0.862187 79.5311 0.624454C79.5311 0.386721 79.5311 0.386719 79.6957 0.386719H84.8527C86.4254 0.386719 88.181 0.386719 89.8634 0.386719C89.8634 1.30108 90.0828 2.50803 90.2108 3.49554C90.2108 3.60526 90.2108 3.66012 90.028 3.6967C89.8451 3.73327 89.7536 3.6967 89.7171 3.56869C89.4414 2.82032 88.9898 2.14922 88.4004 1.61196C87.4897 1.11767 86.4496 0.91349 85.4196 1.02677C84.743 1.02677 84.1395 1.02677 83.9018 1.48395C83.7116 2.20512 83.6497 2.9541 83.7189 3.6967V6.42148H84.7978C85.6473 6.49353 86.5015 6.35536 87.2849 6.01916C87.656 5.71224 87.9083 5.28535 87.9981 4.81221C87.9981 4.66592 87.9981 4.61105 88.2724 4.61105C88.5467 4.61105 88.5284 4.61106 88.5284 4.83051C88.5284 5.47056 88.5284 6.09232 88.5284 6.65922C88.5284 7.22612 88.5284 8.12219 88.5284 8.78053C88.5284 8.92682 88.5284 8.98168 88.2907 8.98168C88.0529 8.98168 88.0347 8.98168 87.9981 8.78053C87.9046 8.26305 87.6483 7.78895 87.2666 7.42728C86.4876 7.0955 85.6434 6.94542 84.7978 6.98839H83.7189V10.3349Z" fill="#231815"/>
<path d="M99.9765 8.67169C99.3547 8.67169 98.5318 8.67169 97.8003 8.67169C97.0688 8.67169 96.2093 8.67169 95.4047 8.67169L94.6732 10.5004C94.4745 10.8156 94.3471 11.1704 94.2997 11.5399C94.2523 11.9094 94.2862 12.2849 94.3989 12.64C94.5635 13.024 95.2035 13.152 95.8984 13.2252C96.0082 13.2252 96.063 13.2252 96.063 13.4629C96.063 13.7006 96.063 13.7007 95.8619 13.7007C95.1487 13.7007 94.1612 13.7007 93.448 13.7007C92.7348 13.7007 92.0764 13.7007 91.4364 13.7007C91.2535 13.7007 91.2169 13.7006 91.2169 13.4629C91.2169 13.2252 91.2169 13.2252 91.4364 13.2252C91.864 13.1585 92.2602 12.9604 92.5702 12.6583C93.1023 12.0325 93.5006 11.3043 93.7405 10.5187L96.0447 4.59365C96.9591 2.28946 97.1237 1.72257 97.4346 0.753346L98.9524 0.0950068C99.01 0.0890583 99.0678 0.104361 99.115 0.138035C99.1621 0.171709 99.1953 0.22144 99.2084 0.277883C99.5924 1.3934 99.9399 2.30776 100.799 4.70338L102.976 10.665C103.181 11.4055 103.502 12.1091 103.926 12.7497C104.256 13.1337 104.457 13.1703 105.188 13.2252C105.389 13.2252 105.426 13.2252 105.426 13.4629C105.426 13.7006 105.426 13.7007 105.188 13.7007H102.445H99.7387C99.6107 13.7007 99.5924 13.7006 99.5924 13.4629C99.5924 13.2252 99.5924 13.2252 99.7387 13.2252C100.47 13.2252 100.946 13.1155 101.074 12.7497C101.142 12.1192 101.021 11.4827 100.726 10.921L99.9765 8.67169ZM98.5684 4.73995C98.1295 3.53299 97.9649 2.91123 97.7637 2.34433C97.4894 3.05753 97.3248 3.533 96.8859 4.70338L95.6607 7.9402C96.3007 7.9402 97.0688 7.9402 97.8003 7.9402C98.5318 7.9402 99.1536 7.9402 99.629 7.9402L98.5684 4.73995Z" fill="#231815"/>
<path d="M110.967 10.3177C110.967 12.1464 110.967 12.4025 111.186 12.7499C111.406 13.0974 111.863 13.1522 112.667 13.2254C112.795 13.2254 112.814 13.2254 112.814 13.4814C112.814 13.7374 112.814 13.7008 112.631 13.7008C111.735 13.7008 110.802 13.7008 109.869 13.7008C108.937 13.7008 108.041 13.7008 107.218 13.7008C107.071 13.7008 107.035 13.7008 107.035 13.4814C107.035 13.262 107.035 13.2437 107.218 13.2254C107.931 13.2254 108.352 13.2254 108.553 12.7499C108.799 11.9642 108.88 11.1362 108.79 10.3177V3.69777C108.79 1.86906 108.79 1.72276 108.589 1.32044C108.388 0.918124 107.821 0.936411 107.035 0.863263C106.889 0.863263 106.852 0.863257 106.852 0.607237C106.852 0.351216 106.852 0.387793 107.035 0.387793H109.778C110.509 0.387793 111.735 0.387793 112.96 0.387793C116.764 0.387793 118.208 1.86905 118.208 3.78921C118.208 5.16074 117.221 6.51399 114.99 7.0626C115.813 8.489 116.819 10.0251 117.769 11.5978C118.05 12.1276 118.436 12.5944 118.903 12.9694C119.266 13.1524 119.667 13.2464 120.074 13.2437C120.183 13.2437 120.22 13.2437 120.22 13.4814C120.22 13.7191 120.22 13.7191 120.074 13.7191C119.251 13.7191 118.647 13.7191 118.025 13.7191H116.343C116.155 13.2267 115.929 12.7498 115.666 12.2927C114.716 10.6469 113.838 9.11077 112.887 7.46492H112.265C111.863 7.46492 111.552 7.46492 111.058 7.46492L110.967 10.3177ZM110.967 6.6603C111.387 6.68605 111.808 6.68605 112.228 6.6603C114.825 6.6603 115.758 5.3619 115.758 3.71606C115.758 2.07021 114.789 0.826688 112.576 0.826688C112.064 0.826688 111.46 0.826688 111.186 1.15586C110.95 1.9248 110.876 2.73408 110.967 3.53319V6.6603Z" fill="#231815"/>
<path d="M125.652 10.3349C125.575 11.0838 125.669 11.8402 125.926 12.5477C126.237 13.0414 126.913 13.078 127.755 13.078C128.927 13.1864 130.1 12.8754 131.065 12.2002C131.664 11.6697 132.182 11.0535 132.601 10.3715C132.601 10.2435 132.71 10.1886 132.893 10.2435C133.076 10.2984 133.131 10.3898 133.113 10.4995C132.858 11.6019 132.522 12.6838 132.107 13.7363H127.06C125.359 13.7363 123.512 13.7363 121.811 13.7363C121.665 13.7363 121.628 13.7364 121.628 13.5169C121.628 13.2975 121.628 13.2975 121.811 13.2792C122.543 13.2792 122.872 13.2792 123.073 12.8037C123.328 12.0198 123.415 11.1912 123.329 10.3715V3.6967C123.329 1.86798 123.329 1.70339 123.091 1.30108C122.854 0.898759 122.506 0.935337 121.702 0.862189C121.555 0.862189 121.519 0.862187 121.519 0.624454C121.519 0.386721 121.519 0.386719 121.702 0.386719C123.384 0.386719 125.158 0.386719 126.785 0.386719C128.413 0.386719 130.059 0.386719 131.723 0.386719C131.723 1.30108 131.942 2.52632 132.089 3.47725C132.089 3.58698 132.089 3.66012 131.887 3.6967C131.686 3.73327 131.595 3.6967 131.558 3.56869C131.274 2.86136 130.822 2.23375 130.242 1.73997C129.384 1.15709 128.345 0.903793 127.316 1.02677C126.621 1.02677 126.017 1.02677 125.78 1.48395C125.562 2.20009 125.494 2.95312 125.578 3.6967V6.36662H126.657C127.506 6.45557 128.362 6.32326 129.144 5.98259C129.348 5.8375 129.519 5.65231 129.648 5.43844C129.777 5.22457 129.861 4.98655 129.894 4.73906C129.894 4.62934 129.894 4.57447 130.187 4.57447C130.479 4.57447 130.425 4.57448 130.425 4.75736C130.425 5.41569 130.425 6.05574 130.425 6.58607C130.425 7.1164 130.425 8.04904 130.425 8.70737C130.425 8.85367 130.425 8.90854 130.187 8.90854C129.949 8.90854 129.949 8.90854 129.894 8.72567C129.81 8.19153 129.537 7.70511 129.126 7.35413C128.372 7.02461 127.552 6.87438 126.731 6.91524H125.652V10.3349Z" fill="#231815"/>
<path d="M146.206 10.3349C146.206 12.1636 146.206 12.4562 146.352 12.8037C146.499 13.1512 147.084 13.1877 147.889 13.2609C148.017 13.2609 148.071 13.2609 148.071 13.4803C148.071 13.6998 148.071 13.6998 147.87 13.6998H145.054C144.213 13.6998 143.225 13.6998 142.329 13.6998C142.219 13.6998 142.201 13.6998 142.201 13.4986C142.201 13.2975 142.201 13.2792 142.329 13.2609C143.116 13.2609 143.481 13.2609 143.701 12.8037C143.974 12.0111 144.061 11.1666 143.957 10.3349V3.6967C143.957 1.86798 143.957 1.70339 143.701 1.30108C143.445 0.898759 143.079 0.935337 142.274 0.862189C142.165 0.862189 142.128 0.862187 142.128 0.624454C142.128 0.386721 142.128 0.386719 142.274 0.386719H145.054H147.742C147.907 0.386719 147.962 0.386721 147.962 0.624454C147.962 0.862187 147.962 0.843902 147.779 0.862189C147.047 0.862189 146.627 0.862185 146.389 1.30108C146.194 2.0837 146.132 2.89355 146.206 3.6967V6.23861C147.431 6.23861 148.51 6.23861 149.644 6.23861C150.778 6.23861 151.765 6.23861 152.991 6.23861V3.6967C152.991 1.86798 152.991 1.68511 152.789 1.30108C152.588 0.917046 152.113 0.935337 151.308 0.862189C151.18 0.862189 151.162 0.862187 151.162 0.624454C151.162 0.386721 151.162 0.386719 151.326 0.386719H154.161H156.813C156.996 0.386719 157.032 0.386717 157.032 0.606163C157.032 0.825609 157.032 0.843902 156.831 0.862189C156.081 0.862189 155.715 0.862185 155.496 1.30108C155.241 2.07229 155.154 2.88904 155.24 3.6967V10.3349C155.24 12.1636 155.24 12.4197 155.478 12.8037C155.715 13.1877 156.154 13.1877 156.977 13.2609C157.105 13.2609 157.124 13.2609 157.124 13.4986C157.124 13.7363 157.124 13.6998 156.941 13.6998H154.161H151.436C151.272 13.6998 151.253 13.6998 151.253 13.4986C151.253 13.2975 151.253 13.2792 151.436 13.2609C152.204 13.2609 152.533 13.2609 152.753 12.8037C152.974 12.0003 153.03 11.1605 152.917 10.3349V7.1164C151.692 7.1164 150.686 7.1164 149.571 7.1164C148.455 7.1164 147.358 7.1164 146.133 7.1164L146.206 10.3349Z" fill="#231815"/>
<path d="M163.579 10.336C163.579 12.1647 163.579 12.4207 163.762 12.7865C163.945 13.1522 164.475 13.1705 165.261 13.2437C165.389 13.2437 165.444 13.2437 165.444 13.4814C165.444 13.7191 165.444 13.7009 165.243 13.7009H162.427H159.72C159.611 13.7009 159.574 13.7008 159.574 13.4814C159.574 13.262 159.574 13.262 159.702 13.2437C160.433 13.2437 160.854 13.2437 161.092 12.7865C161.319 11.9908 161.388 11.1581 161.293 10.336V3.69777C161.293 1.86906 161.293 1.72276 161.11 1.32044C160.927 0.918124 160.415 0.936411 159.611 0.863263C159.611 0.863263 159.483 0.863257 159.483 0.607237C159.483 0.351216 159.483 0.387793 159.629 0.387793H162.427H165.17C165.298 0.387793 165.334 0.387795 165.334 0.625528C165.334 0.863261 165.334 0.844976 165.17 0.863263C164.438 0.863263 163.999 0.863263 163.78 1.32044C163.568 2.09388 163.5 2.8997 163.579 3.69777V10.336Z" fill="#231815"/>
<path d="M180.44 3.71652C180.44 3.86281 180.44 3.91768 180.257 3.97254C180.074 4.0274 180.019 3.97254 179.946 3.82624C179.55 2.97159 178.969 2.21573 178.245 1.6135C177.45 1.01501 176.48 0.693826 175.484 0.69914C172.668 0.69914 170.473 3.38735 170.473 7.0082C170.473 10.6291 172.613 13.3539 175.74 13.3539C176.821 13.3708 177.87 12.9864 178.684 12.2749C178.716 11.8549 178.716 11.4331 178.684 11.0131C178.684 9.18438 178.684 8.96494 178.483 8.54433C178.282 8.12373 177.825 8.1603 177.02 8.08715C176.892 8.08715 176.837 8.08715 176.837 7.84941C176.837 7.61168 176.837 7.62998 177.02 7.62998C177.898 7.62998 178.849 7.62998 179.708 7.62998C180.568 7.62998 181.299 7.62998 182.195 7.62998C182.323 7.62998 182.342 7.62997 182.342 7.84941C182.342 8.06886 182.342 8.06887 182.195 8.08715C181.482 8.08715 181.226 8.08715 181.007 8.54433C180.804 9.26318 180.729 10.0123 180.787 10.7571C180.793 11.6931 180.86 12.6278 180.988 13.555C180.988 13.555 180.988 13.683 180.787 13.683C180.392 13.6546 179.994 13.6546 179.599 13.683C178.629 13.683 177.441 14.1768 175.411 14.1768C170.821 14.1768 167.877 11.3605 167.877 7.20936C167.881 6.24043 168.085 5.28285 168.478 4.39687C168.87 3.51088 169.441 2.71567 170.156 2.06124C170.87 1.40681 171.713 0.907337 172.63 0.594242C173.547 0.281147 174.518 0.161207 175.484 0.241961C176.32 0.250468 177.15 0.373522 177.953 0.607699C178.663 0.787429 179.401 0.836997 180.129 0.753999C180.185 1.74596 180.288 2.73463 180.44 3.71652Z" fill="#231815"/>
<path d="M191.887 8.67163C191.247 8.67163 190.424 8.67163 189.693 8.67163C188.961 8.67163 188.12 8.67163 187.316 8.67163L186.584 10.5003C186.415 10.8105 186.308 11.1511 186.27 11.5026C186.233 11.854 186.265 12.2094 186.365 12.5485C186.547 12.9325 187.169 13.0605 187.864 13.1337C187.992 13.1337 188.047 13.1337 188.047 13.3714C188.047 13.6092 188.047 13.6092 187.828 13.6092C187.114 13.6092 186.145 13.6092 185.432 13.6092C184.719 13.6092 184.042 13.6092 183.402 13.6092C183.238 13.6092 183.201 13.6092 183.201 13.3714C183.201 13.1337 183.201 13.1337 183.402 13.1337C183.832 13.0758 184.231 12.8763 184.536 12.5668C185.068 11.9383 185.472 11.2113 185.725 10.4272L188.029 4.50216C188.925 2.19797 189.108 1.63107 189.4 0.661848L190.918 0.00350933C190.947 -0.00171408 190.977 -0.00110212 191.005 0.00531612C191.034 0.0117344 191.061 0.0238314 191.085 0.0408798C191.109 0.0579281 191.129 0.0795859 191.144 0.104578C191.16 0.129569 191.17 0.157382 191.174 0.186378C191.558 1.30189 191.906 2.21626 192.765 4.61187L194.978 10.6649C195.187 11.4072 195.515 12.1111 195.947 12.7497C196.276 13.1337 196.459 13.1703 197.191 13.2251C197.41 13.2251 197.447 13.2251 197.447 13.4629C197.447 13.7006 197.447 13.7006 197.191 13.7006H194.466H191.759C191.613 13.7006 191.595 13.7006 191.595 13.4629C191.595 13.2251 191.595 13.2251 191.759 13.2251C192.491 13.2251 192.966 13.1154 193.076 12.7497C193.144 12.1191 193.023 11.4826 192.729 10.9209L191.887 8.67163ZM190.461 4.73988C190.022 3.53293 189.876 2.91117 189.656 2.34426C189.382 3.05746 189.236 3.53294 188.797 4.70332L187.553 7.94014C188.193 7.94014 188.961 7.94014 189.693 7.94014C190.424 7.94014 191.064 7.94014 191.522 7.94014L190.461 4.73988Z" fill="#231815"/>
<path d="M202.439 7.24547C200.153 6.14824 199.385 5.23388 199.385 3.36859C199.385 1.5033 201.104 0.0769043 203.683 0.0769043C204.338 0.0825904 204.99 0.17482 205.621 0.351207C206.227 0.453518 206.845 0.453518 207.45 0.351207C207.45 1.28385 207.596 2.47252 207.67 3.44174C207.67 3.44174 207.67 3.58804 207.468 3.62461C207.267 3.66118 207.231 3.62461 207.194 3.51488C206.943 2.7784 206.489 2.12808 205.884 1.63933C205.279 1.15057 204.547 0.843432 203.774 0.753527C203.469 0.737968 203.164 0.786299 202.879 0.895426C202.593 1.00455 202.334 1.17207 202.117 1.38725C201.9 1.60244 201.731 1.86054 201.619 2.14504C201.508 2.42954 201.457 2.73417 201.47 3.03942C201.47 3.86234 201.982 4.6304 203.61 5.38018L204.652 5.85565C207.377 7.11746 208.31 7.94039 208.31 10.1166C208.31 12.5853 206.481 14.0666 203.189 14.0666C201.943 14.0517 200.708 13.8356 199.532 13.4265C199.239 12.4245 199.013 11.4043 198.855 10.3726C198.855 10.2446 198.855 10.1165 199.075 10.08C199.294 10.0434 199.349 10.08 199.404 10.1897C199.707 11.0549 200.243 11.8198 200.953 12.4005C201.663 12.9811 202.519 13.3551 203.427 13.4814C203.787 13.5066 204.148 13.4571 204.488 13.3359C204.828 13.2147 205.139 13.0244 205.402 12.777C205.665 12.5297 205.874 12.2306 206.015 11.8986C206.157 11.5666 206.228 11.2089 206.225 10.848C206.225 9.45821 205.347 8.74501 203.409 7.79408L202.439 7.24547Z" fill="#231815"/>
<path d="M214.984 10.3349C214.984 12.1636 214.984 12.4562 215.13 12.8037C215.277 13.1512 215.862 13.1877 216.667 13.2609C216.795 13.2609 216.849 13.2609 216.849 13.4803C216.849 13.6998 216.849 13.6998 216.648 13.6998H213.832C212.991 13.6998 212.003 13.6998 211.107 13.6998C210.998 13.6998 210.979 13.6998 210.979 13.4986C210.979 13.2975 210.979 13.2792 211.107 13.2609C211.894 13.2609 212.259 13.2609 212.479 12.8037C212.752 12.0111 212.839 11.1666 212.735 10.3349V3.6967C212.735 1.86798 212.735 1.70339 212.479 1.30108C212.223 0.898759 211.857 0.935337 211.052 0.862189C210.943 0.862189 210.906 0.862187 210.906 0.624454C210.906 0.386721 210.906 0.386719 211.052 0.386719H213.832H216.52C216.685 0.386719 216.74 0.386721 216.74 0.624454C216.74 0.862187 216.74 0.843902 216.557 0.862189C215.825 0.862189 215.405 0.862185 215.167 1.30108C214.972 2.0837 214.91 2.89355 214.984 3.6967V6.23861C216.209 6.23861 217.288 6.23861 218.422 6.23861C219.556 6.23861 220.543 6.23861 221.769 6.23861V3.6967C221.769 1.86798 221.769 1.68511 221.568 1.30108C221.366 0.917046 220.891 0.935337 220.086 0.862189C219.958 0.862189 219.94 0.862187 219.94 0.624454C219.94 0.386721 219.94 0.386719 220.105 0.386719H222.939H225.591C225.774 0.386719 225.828 0.386717 225.828 0.606163C225.828 0.825609 225.828 0.843902 225.609 0.862189C224.859 0.862189 224.493 0.862185 224.274 1.30108C224.019 2.07229 223.932 2.88904 224.018 3.6967V10.3349C224.018 12.1636 224.018 12.4197 224.256 12.8037C224.493 13.1877 224.932 13.1877 225.755 13.2609C225.883 13.2609 225.902 13.2609 225.902 13.4986C225.902 13.7363 225.902 13.6998 225.719 13.6998H222.939H220.214C220.05 13.6998 220.031 13.6998 220.031 13.4986C220.031 13.2975 220.031 13.2792 220.214 13.2609C220.982 13.2609 221.33 13.2609 221.531 12.8037C221.776 12.0053 221.857 11.1655 221.769 10.3349V7.1164C220.543 7.1164 219.538 7.1164 218.422 7.1164C217.307 7.1164 216.209 7.1164 214.984 7.1164V10.3349Z" fill="#231815"/>
<path d="M232.357 10.336C232.357 12.1647 232.357 12.4207 232.54 12.7865C232.723 13.1522 233.253 13.1705 234.039 13.2437C234.167 13.2437 234.222 13.2437 234.222 13.4814C234.222 13.7191 234.222 13.7009 234.021 13.7009H231.205H228.498C228.389 13.7009 228.352 13.7008 228.352 13.4814C228.352 13.262 228.352 13.262 228.48 13.2437C229.212 13.2437 229.632 13.2437 229.87 12.7865C230.107 11.9926 230.181 11.1593 230.089 10.336V3.69777C230.089 1.86906 230.089 1.72276 229.888 1.32044C229.687 0.918124 229.193 0.936411 228.389 0.863263C228.389 0.863263 228.261 0.863257 228.261 0.607237C228.261 0.351216 228.261 0.387793 228.407 0.387793H231.205H233.948C234.076 0.387793 234.113 0.387795 234.113 0.625528C234.113 0.863261 234.113 0.844976 233.948 0.863263C233.216 0.863263 232.778 0.863263 232.558 1.32044C232.346 2.09388 232.278 2.8997 232.357 3.69777V10.336Z" fill="#231815"/>
<path d="M247.371 7.24547C245.085 6.14825 244.317 5.23388 244.317 3.36859C244.317 1.5033 246.146 0.0769043 248.614 0.0769043C249.276 0.0826802 249.934 0.174893 250.571 0.351208C251.176 0.453518 251.794 0.453518 252.4 0.351208C252.4 1.28385 252.528 2.47252 252.601 3.44174C252.601 3.44174 252.601 3.58804 252.418 3.62461C252.235 3.66119 252.162 3.62461 252.125 3.51489C251.893 2.74779 251.439 2.06634 250.821 1.5557C250.203 1.04505 249.448 0.727873 248.651 0.643802C248.344 0.625594 248.037 0.671963 247.75 0.779904C247.462 0.887844 247.2 1.05495 246.981 1.27042C246.763 1.48589 246.591 1.74492 246.479 2.03074C246.366 2.31657 246.315 2.62282 246.328 2.9297C246.328 3.75262 246.859 4.52068 248.468 5.27046L249.51 5.74593C252.235 7.00774 253.168 7.83065 253.168 10.0068C253.168 12.4756 251.339 13.9569 248.029 13.9569C246.784 13.9404 245.549 13.7243 244.372 13.3168C244.097 12.311 243.841 11.1589 243.695 10.2628C243.695 10.1348 243.695 10.0068 243.915 9.97026C244.134 9.93368 244.207 9.97025 244.244 10.08C244.547 10.9488 245.085 11.7165 245.799 12.2976C246.512 12.8787 247.373 13.2505 248.285 13.3717C248.644 13.3971 249.005 13.3475 249.344 13.2261C249.683 13.1047 249.993 12.9141 250.254 12.6665C250.516 12.4189 250.723 12.1196 250.862 11.7876C251.002 11.4557 251.071 11.0983 251.065 10.7383C251.065 9.34849 250.205 8.63529 248.267 7.68436L247.371 7.24547Z" fill="#231815"/>
<path d="M263.537 8.67157C262.897 8.67157 262.074 8.67157 261.342 8.67157C260.611 8.67157 259.77 8.67157 258.947 8.67157L258.215 10.5003C258.042 10.8092 257.934 11.1507 257.9 11.5033C257.865 11.8558 257.904 12.2117 258.014 12.5484C258.179 12.9325 258.819 13.0605 259.514 13.1336C259.623 13.1336 259.678 13.1336 259.678 13.3714C259.678 13.6091 259.678 13.6091 259.477 13.6091C258.764 13.6091 257.776 13.6091 257.063 13.6091C256.35 13.6091 255.692 13.6091 255.051 13.6091C254.887 13.6091 254.832 13.6091 254.832 13.3714C254.832 13.1336 254.832 13.1336 255.051 13.1336C255.479 13.0669 255.875 12.8688 256.185 12.5667C256.717 11.9409 257.116 11.2128 257.356 10.4271L259.66 4.5021C260.574 2.19792 260.739 1.63101 261.05 0.661793L262.568 0.00345408C262.625 -0.00249443 262.683 0.0128082 262.73 0.046482C262.777 0.0801559 262.81 0.12988 262.824 0.186323C263.208 1.30184 263.555 2.2162 264.415 4.61182L266.591 10.5734C266.804 11.3111 267.124 12.0135 267.542 12.6582C267.871 13.0422 268.072 13.0788 268.803 13.1336C269.005 13.1336 269.041 13.1336 269.041 13.3714C269.041 13.6091 269.041 13.6091 268.803 13.6091H266.06H263.354C263.226 13.6091 263.208 13.6091 263.208 13.3714C263.208 13.1336 263.208 13.1336 263.354 13.1336C264.085 13.1336 264.561 13.0239 264.689 12.6582C264.757 12.0276 264.636 11.3911 264.341 10.8295L263.537 8.67157ZM262.11 4.73983C261.671 3.53288 261.507 2.91111 261.306 2.34421C261.031 3.05741 260.885 3.53288 260.428 4.70326L259.203 7.94008C259.843 7.94008 260.611 7.94008 261.342 7.94008C262.074 7.94008 262.696 7.94008 263.262 7.94008L262.11 4.73983Z" fill="#231815"/>
<path d="M274.582 10.3177C274.582 12.1464 274.582 12.4207 274.746 12.7499C274.911 13.0791 275.478 13.1522 276.301 13.2254C276.447 13.2254 276.465 13.2254 276.465 13.4631C276.465 13.7008 276.465 13.7009 276.282 13.7009C275.386 13.7009 274.362 13.7009 273.484 13.7009C272.607 13.7009 271.546 13.7009 270.723 13.7009C270.613 13.7009 270.577 13.7008 270.577 13.4631C270.577 13.2254 270.577 13.2254 270.741 13.2254C271.473 13.2254 271.857 13.2254 272.095 12.7499C272.322 11.9605 272.396 11.135 272.314 10.3177V3.69777C272.314 1.86906 272.314 1.72276 272.113 1.32044C271.912 0.918124 271.327 0.936411 270.577 0.863263C270.449 0.863263 270.412 0.863257 270.412 0.607237C270.412 0.351216 270.412 0.387793 270.577 0.387793H273.448C274.179 0.387793 275.368 0.387793 276.593 0.387793C280.635 0.387793 282.079 1.81419 282.079 3.89893C282.079 5.98367 280.818 7.72094 276.081 7.72094C275.612 7.74777 275.142 7.74777 274.673 7.72094L274.582 10.3177ZM274.582 6.95288C274.986 7.02816 275.396 7.06489 275.807 7.0626C278.568 7.0626 279.464 5.69107 279.464 3.97207C279.464 2.25308 278.239 0.991272 276.136 0.991272C275.697 0.991272 275.002 0.991274 274.746 1.35702C274.505 2.11228 274.424 2.90948 274.509 3.69777L274.582 6.95288Z" fill="#231815"/>
<path d="M288.498 10.3177C288.498 12.1464 288.498 12.4207 288.681 12.7499C288.864 13.0791 289.412 13.1522 290.235 13.2254C290.363 13.2254 290.382 13.2254 290.382 13.4631C290.382 13.7008 290.382 13.7009 290.217 13.7009C289.303 13.7009 288.297 13.7009 287.401 13.7009C286.505 13.7009 285.462 13.7009 284.658 13.7009C284.548 13.7009 284.511 13.7008 284.511 13.4631C284.511 13.2254 284.511 13.2254 284.676 13.2254C285.408 13.2254 285.792 13.2254 286.029 12.7499C286.238 11.9572 286.306 11.134 286.23 10.3177V3.69777C286.23 1.86906 286.23 1.72276 286.048 1.32044C285.865 0.918124 285.261 0.936411 284.511 0.863263C284.365 0.863263 284.329 0.863257 284.329 0.607237C284.329 0.351216 284.329 0.387793 284.511 0.387793H287.364C288.096 0.387793 289.193 0.387793 290.528 0.387793C294.551 0.387793 295.923 1.81419 295.923 3.89893C295.923 5.98367 294.661 7.72094 289.924 7.72094C289.449 7.74745 288.973 7.74745 288.498 7.72094V10.3177ZM288.498 6.95288C288.908 7.02898 289.325 7.06572 289.742 7.0626C292.503 7.0626 293.399 5.69107 293.399 3.97207C293.399 2.25308 292.156 0.991272 290.071 0.991272C289.614 0.991272 288.937 0.991274 288.681 1.35702C288.423 2.10863 288.336 2.90819 288.425 3.69777L288.498 6.95288Z" fill="#231815"/>
<path d="M313.296 7.00828C313.402 8.50198 313.056 9.99314 312.304 11.2878C311.552 12.5825 310.427 13.6208 309.076 14.2677C307.726 14.9146 306.212 15.1401 304.731 14.9149C303.251 14.6897 301.872 14.0243 300.775 13.0051C299.678 11.986 298.913 10.6602 298.58 9.20035C298.246 7.74048 298.359 6.21404 298.905 4.81953C299.451 3.42503 300.404 2.227 301.639 1.38127C302.875 0.53554 304.337 0.0812383 305.834 0.0774511C306.788 0.0042528 307.747 0.12928 308.65 0.444661C309.553 0.760042 310.381 1.25894 311.082 1.90998C311.783 2.56101 312.341 3.35007 312.722 4.2275C313.103 5.10493 313.298 6.05171 313.296 7.00828ZM301.061 7.00828C301.061 10.8669 302.89 13.3722 305.834 13.3722C308.779 13.3722 310.626 10.8669 310.626 7.06314C310.626 3.25941 308.669 0.754074 305.834 0.754074C303 0.754074 301.043 3.22284 301.043 7.00828H301.061Z" fill="#231815"/>
<path d="M319.898 10.3177C319.898 12.1464 319.898 12.4025 320.117 12.7499C320.337 13.0974 320.776 13.1522 321.599 13.2254C321.727 13.2254 321.745 13.2254 321.745 13.4814C321.745 13.7374 321.745 13.7008 321.562 13.7008C320.666 13.7008 319.733 13.7008 318.801 13.7008C317.868 13.7008 316.972 13.7008 316.149 13.7008C316.003 13.7008 315.966 13.7008 315.966 13.4814C315.966 13.262 315.966 13.2437 316.149 13.2254C316.862 13.2254 317.283 13.2254 317.484 12.7499C317.711 11.9605 317.786 11.135 317.703 10.3177V3.69777C317.703 1.86906 317.703 1.72276 317.52 1.32044C317.338 0.918124 316.752 0.936411 315.966 0.863263C315.82 0.863263 315.783 0.863257 315.783 0.607237C315.783 0.351216 315.783 0.387793 315.966 0.387793H318.709C319.441 0.387793 320.666 0.387793 321.873 0.387793C325.695 0.387793 327.121 1.86905 327.121 3.78921C327.121 5.16074 326.152 6.51399 323.921 7.0626C324.744 8.489 325.75 10.0251 326.682 11.5978C326.963 12.1276 327.349 12.5944 327.816 12.9694C328.181 13.148 328.581 13.2418 328.987 13.2437C329.115 13.2437 329.151 13.2437 329.151 13.4814C329.151 13.7191 329.151 13.7191 328.987 13.7191C328.182 13.7191 327.578 13.7191 326.957 13.7191H325.128C324.941 13.2231 324.709 12.7456 324.433 12.2927C323.5 10.6469 322.604 9.11077 321.672 7.46492H321.16C320.776 7.46492 320.446 7.46492 319.971 7.46492L319.898 10.3177ZM319.898 6.6603C320.318 6.68656 320.739 6.68656 321.16 6.6603C323.738 6.6603 324.689 5.3619 324.689 3.71606C324.689 2.07021 323.702 0.826688 321.489 0.826688C320.995 0.826688 320.373 0.826688 320.117 1.15586C319.882 1.9248 319.807 2.73408 319.898 3.53319V6.6603Z" fill="#231815"/>
<path d="M345.463 7.00828C345.569 8.50198 345.224 9.99314 344.471 11.2878C343.719 12.5825 342.594 13.6208 341.244 14.2677C339.893 14.9146 338.379 15.1401 336.899 14.9149C335.418 14.6897 334.04 14.0243 332.943 13.0051C331.846 11.986 331.081 10.6602 330.747 9.20035C330.413 7.74048 330.527 6.21404 331.073 4.81953C331.618 3.42503 332.571 2.227 333.807 1.38127C335.043 0.53554 336.504 0.0812383 338.002 0.0774511C338.956 0.0042528 339.914 0.12928 340.817 0.444661C341.72 0.760042 342.548 1.25894 343.249 1.90998C343.95 2.56101 344.509 3.35007 344.89 4.2275C345.271 5.10493 345.466 6.05171 345.463 7.00828ZM333.229 7.00828C333.229 10.8669 335.058 13.3722 338.002 13.3722C340.946 13.3722 342.793 10.8669 342.793 7.06314C342.793 3.25941 340.836 0.754074 338.002 0.754074C335.167 0.754074 333.229 3.22284 333.229 7.00828Z" fill="#231815"/>
<path d="M355.652 10.3164C355.652 12.1454 355.652 12.4198 355.817 12.749C355.981 13.0782 356.548 13.1514 357.371 13.2245C357.518 13.2245 357.536 13.2245 357.536 13.4623C357.536 13.7001 357.536 13.7001 357.353 13.7001C356.457 13.7001 355.524 13.7001 354.555 13.7001C353.585 13.7001 352.616 13.7001 351.793 13.7001C351.683 13.7001 351.647 13.7001 351.647 13.4623C351.647 13.2245 351.647 13.2245 351.811 13.2245C352.543 13.2245 352.927 13.2245 353.165 12.749C353.392 11.9595 353.466 11.1339 353.384 10.3164V3.69538C353.384 1.86637 353.384 1.72005 353.183 1.31766C352.982 0.915281 352.396 0.933572 351.647 0.860411C351.519 0.860411 351.482 0.860405 351.482 0.604343C351.482 0.348281 351.482 0.384863 351.647 0.384863H354.518C355.25 0.384863 356.347 0.384863 357.664 0.384863C361.706 0.384863 363.06 1.8115 363.06 3.89658C363.06 5.98165 361.798 7.71921 357.06 7.71921C356.591 7.74605 356.121 7.74605 355.652 7.71921V10.3164ZM355.652 6.95103C356.056 7.02631 356.466 7.06305 356.878 7.06076C359.639 7.06076 360.536 5.689 360.536 3.96973C360.536 2.25046 359.31 0.988442 357.207 0.988442C356.768 0.988442 356.073 0.988443 355.817 1.35425C355.576 2.10963 355.495 2.90696 355.579 3.69538L355.652 6.95103Z" fill="#231815"/>
<path d="M369.626 10.3344C369.553 11.0819 369.641 11.8362 369.882 12.5475C370.211 13.0413 370.906 13.0779 371.711 13.0779C372.882 13.1477 374.042 12.8189 375.003 12.1451C375.603 11.6243 376.11 11.006 376.503 10.3161C376.503 10.188 376.613 10.1515 376.832 10.2063C377.052 10.2612 377.033 10.3526 377.015 10.4624C376.758 11.5623 376.428 12.6438 376.027 13.6998H370.943C369.242 13.6998 367.431 13.6998 365.712 13.6998C365.584 13.6998 365.547 13.6997 365.547 13.4803C365.547 13.2608 365.547 13.2608 365.712 13.2425C366.443 13.2425 366.809 13.2425 367.047 12.767C367.293 11.9811 367.374 11.1529 367.285 10.3344V3.69504C367.285 1.86603 367.285 1.70141 367.065 1.29903C366.846 0.896646 366.443 0.93323 365.675 0.860069C365.529 0.860069 365.474 0.860067 365.474 0.622295C365.474 0.384523 365.474 0.384521 365.675 0.384521H368.4H371.126C371.29 0.384521 371.345 0.384523 371.345 0.622295C371.345 0.860067 371.345 0.841779 371.18 0.860069C370.449 0.860069 370.046 0.860065 369.827 1.29903C369.596 2.07525 369.521 2.88972 369.607 3.69504L369.626 10.3344Z" fill="#231815"/>
<path d="M386.434 8.67079C385.794 8.67079 384.971 8.67079 384.239 8.67079C383.508 8.67079 382.666 8.67079 381.843 8.67079L381.13 10.4998C380.956 10.8082 380.846 11.1491 380.808 11.5014C380.771 11.8536 380.805 12.2099 380.911 12.5483C381.075 12.9324 381.715 13.0604 382.41 13.1336C382.52 13.1336 382.575 13.1336 382.575 13.3714C382.575 13.6091 382.575 13.6091 382.374 13.6091C381.66 13.6091 380.673 13.6091 379.959 13.6091C379.246 13.6091 378.588 13.6091 377.948 13.6091C377.783 13.6091 377.728 13.6091 377.728 13.3714C377.728 13.1336 377.728 13.1336 377.948 13.1336C378.375 13.0669 378.772 12.8687 379.082 12.5666C379.614 11.9407 380.012 11.2124 380.252 10.4266L382.557 4.50064C383.471 2.19608 383.636 1.62908 383.947 0.659703L385.465 0.00125702C385.522 -0.00469246 385.58 0.0106127 385.627 0.044292C385.675 0.0779713 385.708 0.127704 385.721 0.184156C386.105 1.29985 386.452 2.21437 387.312 4.61038L389.489 10.573C389.702 11.3108 390.022 12.0133 390.44 12.658C390.769 13.0421 390.97 13.0787 391.702 13.1336C391.903 13.1336 391.939 13.1336 391.939 13.3714C391.939 13.6091 391.939 13.6091 391.702 13.6091H388.958H386.251C386.123 13.6091 386.105 13.6091 386.105 13.3714C386.105 13.1336 386.105 13.1336 386.251 13.1336C386.983 13.1336 387.458 13.0238 387.586 12.658C387.654 12.0274 387.533 11.3908 387.239 10.829L386.434 8.67079ZM385.008 4.73841C384.569 3.53126 384.404 2.90939 384.203 2.34239C383.928 3.05571 383.782 3.53126 383.325 4.70183L382.099 7.93918C382.74 7.93918 383.508 7.93918 384.239 7.93918C384.971 7.93918 385.593 7.93918 386.068 7.93918L385.008 4.73841Z" fill="#231815"/>
<path d="M405.749 3.7335C405.749 3.87982 405.749 3.95298 405.548 3.98956C405.346 4.02614 405.328 3.98956 405.237 3.84324C404.82 2.97544 404.235 2.19851 403.517 1.55697C402.812 1.00603 401.944 0.703814 401.048 0.697339C398.268 0.697339 396.11 3.1848 396.11 6.98915C396.05 7.71019 396.133 8.43596 396.355 9.12472C396.576 9.81347 396.932 10.4516 397.401 11.0024C397.87 11.5532 398.444 12.0057 399.088 12.334C399.733 12.6623 400.437 12.8598 401.158 12.9152C402.1 12.9544 403.036 12.7391 403.866 12.2917C404.697 11.8443 405.391 11.1815 405.877 10.3728C405.877 10.2814 406.005 10.2448 406.261 10.3728C406.517 10.5009 406.48 10.5557 406.407 10.7021C405.875 11.7364 405.059 12.5973 404.055 13.1838C403.05 13.7702 401.899 14.0577 400.737 14.0126C399.789 14.0789 398.837 13.9468 397.943 13.6247C397.048 13.3026 396.231 12.7976 395.542 12.1419C394.854 11.4862 394.31 10.6942 393.945 9.81647C393.579 8.93873 393.401 7.9945 393.421 7.04402C393.415 6.09816 393.602 5.16099 393.972 4.29052C394.342 3.42004 394.887 2.63478 395.573 1.9833C396.259 1.33182 397.071 0.827988 397.959 0.502977C398.847 0.177966 399.793 0.0386861 400.737 0.0937609C401.558 0.10185 402.374 0.206212 403.17 0.404697C403.871 0.600659 404.602 0.668803 405.328 0.605883C405.493 1.52039 405.621 2.78242 405.749 3.7335Z" fill="#231815"/>
<path d="M412.351 10.3344C412.275 11.0833 412.369 11.8399 412.626 12.5475C412.918 13.0413 413.613 13.0779 414.455 13.0779C415.622 13.19 416.791 12.8784 417.747 12.2C418.356 11.6786 418.875 11.0607 419.283 10.3709C419.283 10.2429 419.411 10.188 419.594 10.2429C419.777 10.2978 419.832 10.3892 419.814 10.499C419.559 11.6015 419.223 12.6836 418.808 13.7363H413.76C412.059 13.7363 410.212 13.7363 408.511 13.7363C408.364 13.7363 408.328 13.7363 408.328 13.5169C408.328 13.2974 408.328 13.2974 408.511 13.2791C409.242 13.2791 409.571 13.2791 409.773 12.8035C410.027 12.0195 410.114 11.1908 410.029 10.3709V3.69504C410.029 1.86603 410.029 1.70141 409.791 1.29903C409.553 0.896646 409.206 0.93323 408.383 0.860069C408.254 0.860069 408.218 0.860067 408.218 0.622295C408.218 0.384523 408.218 0.384521 408.383 0.384521C410.083 0.384521 411.858 0.384521 413.485 0.384521C415.113 0.384521 416.759 0.384521 418.424 0.384521C418.424 1.29903 418.643 2.52447 418.79 3.47556C418.79 3.5853 418.79 3.65846 418.588 3.69504C418.387 3.73162 418.296 3.69504 418.259 3.56701C417.975 2.85957 417.523 2.23185 416.942 1.738C416.091 1.19 415.075 0.957055 414.071 1.07955C413.376 1.07955 412.772 1.07955 412.516 1.5368C412.317 2.25647 412.255 3.00727 412.333 3.74991V6.42027H413.412C414.238 6.49086 415.068 6.35248 415.827 6.01788C416.228 5.71613 416.497 5.27023 416.576 4.77415C416.576 4.66441 416.576 4.60955 416.869 4.60955C417.162 4.60955 417.107 4.60955 417.107 4.79245C417.107 5.45089 417.107 6.09105 417.107 6.62146C417.107 7.15188 417.107 8.08468 417.107 8.74313C417.107 8.88945 417.107 8.94432 416.869 8.94432C416.631 8.94432 416.613 8.94431 416.576 8.76141C416.485 8.22978 416.214 7.74563 415.808 7.38964C415.054 7.06007 414.234 6.90982 413.412 6.95069H412.333L412.351 10.3344Z" fill="#231815"/>
<path d="M441.25 3.7335C441.25 3.87982 441.25 3.95298 441.049 3.98956C440.848 4.02614 440.829 3.98956 440.738 3.84324C440.321 2.97544 439.737 2.19851 439.019 1.55697C438.312 1.00845 437.444 0.706526 436.549 0.697339C433.769 0.697339 431.611 3.1848 431.611 6.98915C431.551 7.70876 431.634 8.43315 431.854 9.12078C432.074 9.80842 432.428 10.4458 432.896 10.9963C433.363 11.5469 433.934 11.9997 434.577 12.329C435.22 12.6583 435.921 12.8575 436.641 12.9152C437.586 12.9578 438.526 12.744 439.36 12.2965C440.194 11.8489 440.891 11.1843 441.378 10.3728C441.378 10.2814 441.506 10.2448 441.762 10.3728C442.018 10.5009 441.982 10.5557 441.89 10.7021C441.363 11.7364 440.551 12.5979 439.549 13.1846C438.547 13.7714 437.398 14.0587 436.238 14.0126C435.29 14.0789 434.338 13.9468 433.444 13.6247C432.549 13.3026 431.732 12.7976 431.044 12.1419C430.355 11.4862 429.811 10.6942 429.446 9.81647C429.081 8.93873 428.902 7.9945 428.922 7.04402C428.916 6.09816 429.103 5.16099 429.473 4.29052C429.844 3.42004 430.388 2.63478 431.074 1.9833C431.76 1.33182 432.572 0.827988 433.46 0.502977C434.349 0.177966 435.294 0.0386861 436.238 0.0937609C437.059 0.10185 437.875 0.206212 438.671 0.404697C439.373 0.600659 440.104 0.668803 440.829 0.605883C440.994 1.52039 441.122 2.78242 441.25 3.7335Z" fill="#231815"/>
<path d="M458.735 7.00722C458.842 8.50116 458.496 9.99257 457.744 11.2875C456.991 12.5824 455.866 13.6208 454.516 14.2678C453.165 14.9148 451.651 15.1404 450.17 14.9151C448.689 14.6899 447.31 14.0244 446.213 13.005C445.116 11.9857 444.351 10.6598 444.017 9.19964C443.683 7.73954 443.797 6.21284 444.343 4.81811C444.889 3.42338 445.841 2.22516 447.077 1.37929C448.313 0.533421 449.775 0.0790449 451.273 0.0752571C452.227 0.00204689 453.186 0.127094 454.089 0.442527C454.992 0.757959 455.82 1.25694 456.521 1.90808C457.222 2.55922 457.781 3.34842 458.162 4.22598C458.543 5.10355 458.738 6.05049 458.735 7.00722ZM446.499 7.00722C446.499 10.8664 448.328 13.3722 451.273 13.3722C454.218 13.3722 456.065 10.8664 456.065 7.06209C456.065 3.25774 454.108 0.751991 451.273 0.751991C448.438 0.751991 446.499 3.22116 446.499 7.00722Z" fill="#231815"/>
<path d="M473.093 3.69513C473.131 2.95163 473.007 2.20874 472.727 1.5186C472.536 1.31366 472.304 1.15209 472.045 1.0448C471.786 0.937522 471.507 0.887032 471.228 0.896743C471.081 0.896743 471.045 0.89674 471.045 0.622388C471.045 0.348036 471.045 0.384614 471.228 0.384614H473.55H475.709C475.837 0.384614 475.873 0.384612 475.873 0.604094C475.873 0.823576 475.873 0.860163 475.709 0.896743C475.462 0.89294 475.218 0.949238 474.999 1.06078C474.779 1.17231 474.589 1.33573 474.447 1.5369C474.098 2.20032 473.94 2.94731 473.989 3.69513V6.01798C473.989 7.18855 473.989 8.32255 473.989 9.40166C474.023 10.0456 473.908 10.6887 473.654 11.2815C473.401 11.8743 473.015 12.4013 472.526 12.8219C471.454 13.6607 470.118 14.0889 468.758 14.0291C467.113 14.1364 465.487 13.6206 464.204 12.5841C463.799 12.2214 463.483 11.7706 463.28 11.2664C463.077 10.7621 462.993 10.218 463.034 9.67601C463.034 8.56031 463.034 7.26171 463.034 6.01798V3.64027C463.034 1.92099 463.034 1.7015 462.796 1.29912C462.558 0.896738 462.192 0.896738 461.351 0.841868C461.223 0.841868 461.205 0.841872 461.205 0.56752C461.205 0.293168 461.205 0.329746 461.351 0.329746H464.094H466.893C467.039 0.329746 467.076 0.329748 467.076 0.56752C467.076 0.805292 467.076 0.805288 466.893 0.841868C466.125 0.841868 465.759 0.841868 465.558 1.29912C465.3 2.05099 465.213 2.85055 465.302 3.64027V6.05456C465.302 6.84104 465.302 7.68239 465.302 8.46886C465.302 10.0967 465.302 11.1758 466.289 11.9623C467.03 12.6003 467.982 12.9393 468.96 12.9134C469.539 12.9643 470.122 12.8983 470.675 12.7192C471.228 12.5401 471.739 12.2516 472.179 11.8708C472.539 11.4908 472.814 11.0378 472.985 10.5424C473.155 10.047 473.217 9.52073 473.166 8.99928C473.166 8.08477 473.166 7.17026 473.166 5.96311L473.093 3.69513Z" fill="#231815"/>
<path d="M482.11 10.3164C482.11 12.1454 482.11 12.4015 482.311 12.749C482.513 13.0965 482.988 13.1514 483.793 13.2245C483.921 13.2245 483.957 13.2245 483.957 13.4806C483.957 13.7367 483.957 13.7001 483.756 13.7001C482.878 13.7001 481.927 13.7001 481.013 13.7001C480.098 13.7001 479.184 13.7001 478.361 13.7001C478.196 13.7001 478.159 13.7001 478.159 13.4806C478.159 13.2611 478.16 13.2428 478.361 13.2245C479.056 13.2245 479.495 13.2245 479.678 12.749C479.923 11.9632 480.004 11.135 479.915 10.3164V3.69538C479.915 1.86637 479.915 1.72005 479.714 1.31766C479.513 0.915281 478.946 0.933572 478.159 0.860411C478.031 0.860411 477.995 0.860405 477.995 0.604343C477.995 0.348281 477.995 0.384863 478.159 0.384863H480.903C481.635 0.384863 482.878 0.384863 484.085 0.384863C487.89 0.384863 489.335 1.86637 489.335 3.78683C489.335 5.15859 488.347 6.51206 486.116 7.06076C486.939 8.48739 487.945 10.0238 488.896 11.5967C489.176 12.1266 489.562 12.5935 490.03 12.9685C490.393 13.1496 490.794 13.2435 491.2 13.2428C491.31 13.2428 491.347 13.2428 491.347 13.4806C491.347 13.7184 491.347 13.7184 491.2 13.7184C490.396 13.7184 489.774 13.7184 489.152 13.7184H487.323C487.128 13.2255 486.896 12.7486 486.628 12.2917C485.677 10.6456 484.799 9.10926 483.848 7.46315H483.226C482.842 7.46315 482.513 7.46315 482.037 7.46315L482.11 10.3164ZM482.11 6.65839C482.524 6.68409 482.94 6.68409 483.354 6.65839C485.951 6.65839 486.884 5.35978 486.884 3.71367C486.884 2.06756 485.914 0.82383 483.701 0.82383C483.189 0.82383 482.586 0.82383 482.311 1.15305C482.084 1.92379 482.015 2.73275 482.11 3.53077V6.65839Z" fill="#231815"/>
<path d="M497.876 3.69504C497.876 2.01235 497.876 1.71971 497.656 1.3539C497.437 0.988101 497.053 1.02468 496.577 1.02468C495.76 0.984755 494.952 1.20924 494.273 1.66483C493.685 2.21519 493.218 2.88161 492.901 3.62188C492.901 3.62188 492.901 3.7682 492.59 3.73162C492.279 3.69504 492.37 3.64017 492.37 3.53043C492.535 2.59763 492.663 1.29903 492.736 0.384521C494.931 0.384521 496.98 0.384521 499.065 0.384521C501.15 0.384521 503.217 0.384521 505.43 0.384521C505.43 1.29903 505.649 2.59763 505.777 3.53043C505.777 3.64017 505.777 3.69504 505.576 3.73162C505.375 3.7682 505.283 3.73162 505.247 3.62188C504.959 2.87067 504.494 2.19954 503.893 1.66483C503.208 1.19123 502.383 0.965415 501.552 1.02468C501.077 1.02468 500.693 1.02468 500.418 1.39048C500.154 2.12808 500.066 2.9174 500.162 3.69504V10.3344C500.162 12.1634 500.162 12.3646 500.345 12.767C500.528 13.1693 501.095 13.151 501.826 13.2242C501.955 13.2242 501.991 13.2242 501.991 13.462C501.991 13.6997 501.991 13.6998 501.79 13.6998C500.967 13.6998 499.961 13.6998 499.028 13.6998C498.095 13.6998 497.199 13.6998 496.376 13.6998C496.248 13.6998 496.193 13.6997 496.193 13.4803C496.193 13.2608 496.193 13.2425 496.376 13.2242C497.053 13.2242 497.492 13.2242 497.711 12.767C497.909 11.9722 497.965 11.1486 497.876 10.3344V3.69504Z" fill="#231815"/>
</svg>
