<svg width="139" height="16" viewBox="0 0 139 16" fill="none" xmlns="http://www.w3.org/2000/svg">
<path d="M5.02539 1.48645C5.02539 1.54497 5.02539 1.56691 4.95955 1.58886C4.89372 1.6108 4.85714 1.58886 4.82788 1.53034C4.66961 1.18847 4.43723 0.886125 4.14759 0.645227C3.82728 0.412176 3.43902 0.291326 3.04303 0.301422C1.91652 0.301422 1.03873 1.35478 1.03873 2.80314C1.03873 4.25151 1.91652 5.34144 3.14544 5.34144C3.57812 5.34961 3.9982 5.19567 4.32315 4.90986C4.35093 4.74302 4.3656 4.57425 4.36704 4.40512C4.36704 3.67363 4.36704 3.58585 4.27926 3.4176C4.19148 3.24936 4.01592 3.26399 3.69406 3.23473C3.64286 3.23473 3.62823 3.23472 3.62823 3.13963C3.62823 3.04454 3.62823 3.05185 3.69406 3.05185C4.04518 3.05185 4.42556 3.05185 4.76936 3.05185C5.11317 3.05185 5.41308 3.05185 5.7642 3.05185C5.8154 3.05185 5.82272 3.05185 5.82272 3.13963C5.82272 3.22741 5.82272 3.22741 5.7642 3.23473C5.47892 3.23473 5.37651 3.23473 5.28873 3.4176C5.20745 3.70514 5.17773 4.00481 5.20095 4.30271C5.19114 4.67634 5.20581 5.0502 5.24484 5.4219C5.24484 5.4219 5.24484 5.47311 5.16437 5.47311C5.00608 5.46175 4.84719 5.46175 4.6889 5.47311C4.3012 5.47311 3.82573 5.67061 3.02108 5.67061C1.18503 5.60478 0 4.47827 0 2.81777C0.00167957 2.4302 0.0835499 2.04716 0.240461 1.69276C0.397371 1.33836 0.625927 1.02027 0.911749 0.758491C1.19757 0.496716 1.53447 0.296923 1.90126 0.171683C2.26806 0.0464435 2.65679 -0.00153321 3.04303 0.030769C3.37734 0.0341716 3.70961 0.0833971 4.03055 0.177069C4.3148 0.248962 4.60972 0.268787 4.90103 0.235587C4.91566 0.608651 4.97418 1.10607 5.02539 1.48645Z" fill="#231815"/>
<path d="M8.16369 4.12705C8.16369 4.85855 8.16369 4.96096 8.25147 5.09994C8.33925 5.23892 8.52213 5.26087 8.84398 5.29013C8.89519 5.29013 8.9025 5.29013 8.9025 5.39254C8.9025 5.49495 8.9025 5.48032 8.82935 5.48032C8.47824 5.48032 8.09786 5.48032 7.73211 5.48032C7.36636 5.48032 7.00061 5.48032 6.67144 5.48032C6.6056 5.48032 6.59097 5.48032 6.59097 5.39254C6.59097 5.30476 6.59097 5.29745 6.67144 5.29013C6.94941 5.29013 7.12497 5.29013 7.19812 5.09994C7.29645 4.78565 7.32882 4.45444 7.29321 4.12705V1.47903C7.29321 0.747533 7.29321 0.689014 7.21274 0.528085C7.13228 0.367155 6.90552 0.37447 6.59097 0.34521C6.53977 0.34521 6.51782 0.345208 6.51782 0.242798C6.51782 0.140389 6.51782 0.155019 6.59097 0.155019H7.68822C7.98082 0.155019 8.47824 0.155019 8.96102 0.155019C10.4825 0.155019 11.0604 0.747533 11.0604 1.5156C11.0604 2.06423 10.6654 2.60553 9.77299 2.82498C10.1022 3.39555 10.5045 4.01001 10.8849 4.6391C10.997 4.85102 11.1513 5.03774 11.3384 5.18772C11.4835 5.26093 11.644 5.29855 11.8065 5.29745C11.8504 5.29745 11.8651 5.29745 11.8651 5.39254C11.8651 5.48764 11.8651 5.48763 11.8065 5.48763C11.4847 5.48763 11.236 5.48763 10.9873 5.48763H10.2558C10.175 5.29188 10.0822 5.10132 9.97781 4.91707C9.59743 4.25872 9.24631 3.64426 8.86593 2.98591H8.64648C8.49287 2.98591 8.3612 2.98591 8.16369 2.98591V4.12705ZM8.16369 2.66406C8.33178 2.67414 8.50033 2.67414 8.66842 2.66406C9.70715 2.66406 10.0802 2.14469 10.0802 1.48634C10.0802 0.827997 9.69252 0.33058 8.80741 0.33058C8.60259 0.33058 8.3612 0.33058 8.25147 0.46225C8.15717 0.769832 8.12729 1.09355 8.16369 1.4132V2.66406Z" fill="#231815"/>
<path d="M15.4639 3.46882C15.2078 3.46882 14.8787 3.46882 14.5861 3.46882C14.2935 3.46882 13.957 3.46882 13.6278 3.46882L13.3425 4.20032C13.2728 4.32367 13.229 4.45999 13.2139 4.60088C13.1988 4.74178 13.2127 4.88427 13.2547 5.0196C13.3206 5.17321 13.5766 5.22441 13.8546 5.25367C13.8985 5.25367 13.9204 5.25368 13.9204 5.34877C13.9204 5.44387 13.9204 5.44387 13.8399 5.44387C13.5547 5.44387 13.1596 5.44387 12.8744 5.44387C12.5891 5.44387 12.3257 5.44387 12.0697 5.44387C12.0039 5.44387 11.9819 5.44387 11.9819 5.34877C11.9819 5.25368 11.9819 5.25367 12.0697 5.25367C12.2408 5.22699 12.3993 5.14774 12.5232 5.02691C12.7361 4.77658 12.8954 4.48531 12.9914 4.17106L13.9131 1.83758C14.2788 0.915897 14.3447 0.689133 14.469 0.30144L15.0762 0.0381004C15.0992 0.035721 15.1223 0.0418421 15.1412 0.0553118C15.1601 0.0687816 15.1734 0.0886744 15.1786 0.111252C15.3322 0.557465 15.4712 0.923215 15.815 1.88148L16.6855 4.26615C16.7708 4.56124 16.8989 4.84221 17.0658 5.10006C17.1975 5.25367 17.278 5.26831 17.5706 5.29025C17.651 5.29025 17.6657 5.29025 17.6657 5.38534C17.6657 5.48044 17.6657 5.48044 17.5706 5.48044H16.4733H15.3907C15.3395 5.48044 15.3322 5.48044 15.3322 5.38534C15.3322 5.29025 15.3322 5.29025 15.3907 5.29025C15.6833 5.29025 15.8735 5.24636 15.9247 5.10006C15.9519 4.84784 15.9035 4.59324 15.7857 4.36856L15.4639 3.46882ZM14.8933 1.8961C14.7177 1.41332 14.6519 1.16461 14.5714 0.937842C14.4617 1.22313 14.4032 1.41332 14.2203 1.88148L13.7302 3.17622C13.9862 3.17622 14.2935 3.17622 14.5861 3.17622C14.8787 3.17622 15.1274 3.17622 15.3541 3.17622L14.8933 1.8961Z" fill="#231815"/>
<path d="M19.2749 0.937965L19.3115 4.14192C19.283 4.46033 19.3385 4.78064 19.4724 5.07092C19.6291 5.21742 19.8358 5.29854 20.0503 5.29769C20.1088 5.29769 20.1161 5.29769 20.1161 5.39278C20.1161 5.48788 20.1161 5.48057 20.043 5.48057C19.7504 5.48057 19.4578 5.48057 19.1433 5.48057C18.8287 5.48057 18.4922 5.48057 18.2216 5.48057C18.1557 5.48057 18.1484 5.48057 18.1484 5.4001C18.1484 5.31964 18.1484 5.31232 18.2143 5.305C18.3133 5.30369 18.4111 5.28226 18.5016 5.24202C18.5922 5.20178 18.6736 5.14357 18.7409 5.07092C18.8917 4.78576 18.9577 4.4634 18.9311 4.14192L18.975 1.47927C19.0158 1.17602 18.9728 0.867381 18.8507 0.586847C18.6705 0.436007 18.4419 0.355461 18.2069 0.360084C18.1484 0.360084 18.1338 0.360083 18.1338 0.250358C18.1338 0.140634 18.1338 0.155263 18.2069 0.155263C18.4776 0.155263 18.7775 0.155263 19.0116 0.155263C19.2457 0.155263 19.5748 0.155263 19.9479 0.155263C20.13 0.457977 20.3278 0.750976 20.5404 1.03306L22.3033 3.52747C22.574 3.91516 22.7349 4.14192 22.9324 4.4711V3.66645V1.47196C22.9503 1.16128 22.8873 0.851272 22.7495 0.572216C22.6544 0.418602 22.413 0.374712 22.2009 0.352768C22.1351 0.352768 22.1058 0.352767 22.1058 0.257672C22.1058 0.162577 22.1058 0.147949 22.179 0.147949C22.4277 0.147949 22.7715 0.147949 23.0714 0.147949C23.3713 0.147949 23.7444 0.147949 23.9565 0.147949C24.0077 0.147949 24.0223 0.147947 24.0223 0.243042C24.0223 0.338137 24.0223 0.338138 23.9565 0.352768C23.8612 0.348154 23.7661 0.365549 23.6785 0.403604C23.591 0.441659 23.5134 0.499353 23.4518 0.572216C23.315 0.851594 23.252 1.16135 23.2689 1.47196L23.225 4.1273C23.225 4.63203 23.225 4.93926 23.225 5.34158C22.7349 5.59029 22.7056 5.5976 22.6618 5.5976C22.6514 5.60224 22.6402 5.60465 22.6288 5.60465C22.6175 5.60465 22.6063 5.60224 22.5959 5.5976C22.3472 5.22454 22.2082 5.0124 21.7254 4.31748L19.3773 0.967225L19.2749 0.937965Z" fill="#231815"/>
<path d="M25.6316 1.4788C25.6316 0.747299 25.6316 0.681463 25.5365 0.520534C25.4414 0.359604 25.2732 0.374236 24.944 0.344976C24.9001 0.344976 24.8855 0.344975 24.8855 0.249881C24.8855 0.154786 24.8855 0.154785 24.944 0.154785C25.2951 0.154785 25.6316 0.154785 25.9974 0.154785C26.3631 0.154785 27.0361 0.154785 27.5043 0.154785C29.6475 0.154785 30.7887 1.11305 30.7887 2.77354C30.7887 4.43404 29.5744 5.51666 27.4457 5.51666C27.0288 5.51666 26.4728 5.47277 25.9827 5.47277C25.4926 5.47277 25.2951 5.47277 24.966 5.47277C24.9148 5.47277 24.9001 5.47277 24.9001 5.38499C24.9001 5.29721 24.9001 5.29721 24.966 5.2899C25.2659 5.2899 25.4561 5.22406 25.5292 5.09971C25.6177 4.78347 25.645 4.45328 25.6097 4.12682L25.6316 1.4788ZM26.5387 4.13413C26.5387 4.73396 26.5387 4.86563 26.663 5.02656C26.7874 5.18749 27.0288 5.25332 27.4311 5.25332C28.9526 5.25332 29.7719 4.35358 29.7719 2.78818C29.7719 1.22277 28.9819 0.396181 27.5189 0.396181C27.0727 0.396181 26.7874 0.440069 26.6704 0.586369C26.5533 0.732668 26.5753 0.959433 26.5753 1.4788L26.5387 4.13413Z" fill="#231815"/>
<path d="M33.4881 4.13413C33.4881 4.86563 33.4881 4.96804 33.5759 5.12165C33.6637 5.27526 33.8466 5.27526 34.1611 5.30452C34.2196 5.30452 34.2342 5.30453 34.2342 5.39231C34.2342 5.48009 34.2342 5.48009 34.1538 5.48009C33.7953 5.48009 33.3711 5.48009 32.998 5.48009C32.625 5.48009 32.2665 5.48009 31.93 5.48009C31.8788 5.48009 31.8642 5.48009 31.8642 5.39962C31.8642 5.31916 31.8642 5.31184 31.9227 5.30452C32.2299 5.30452 32.3762 5.30452 32.464 5.12165C32.5547 4.80084 32.5844 4.4659 32.5518 4.13413V1.4788C32.5518 0.747299 32.5518 0.681463 32.464 0.520534C32.3762 0.359604 32.1934 0.374236 31.8788 0.344976C31.8276 0.344976 31.813 0.344975 31.813 0.249881C31.813 0.154786 31.813 0.154785 31.8788 0.154785H33.9416C34.5707 0.154785 35.273 0.154785 35.9459 0.154785C35.9459 0.520534 36.0337 1.00332 36.0849 1.39833C36.0849 1.44222 36.0849 1.46417 36.0118 1.4788C35.9386 1.49343 35.9021 1.4788 35.8874 1.42759C35.7772 1.12824 35.5965 0.859795 35.3608 0.64489C34.9964 0.44717 34.5804 0.365497 34.1684 0.410811C33.8978 0.410811 33.6564 0.410811 33.5613 0.593685C33.4852 0.882157 33.4604 1.18175 33.4881 1.4788V2.56873H33.9197C34.2595 2.59755 34.6012 2.54228 34.9145 2.4078C35.063 2.28503 35.1639 2.11427 35.1998 1.92501C35.1998 1.86649 35.1998 1.84455 35.3095 1.84455C35.4193 1.84455 35.412 1.84455 35.412 1.93233C35.412 2.18835 35.412 2.43706 35.412 2.66382C35.412 2.89059 35.412 3.24902 35.412 3.51236C35.412 3.57088 35.412 3.59282 35.3169 3.59282C35.2218 3.59282 35.2145 3.59282 35.1998 3.51236C35.1624 3.30536 35.0599 3.11572 34.9072 2.97105C34.5956 2.83834 34.2579 2.7783 33.9197 2.79549H33.4881V4.13413Z" fill="#231815"/>
<path d="M39.9912 3.46882C39.7425 3.46882 39.4133 3.46882 39.1207 3.46882C38.8281 3.46882 38.4843 3.46882 38.1624 3.46882L37.8698 4.20032C37.7904 4.3264 37.7394 4.4683 37.7204 4.61613C37.7015 4.76395 37.715 4.91412 37.7601 5.05617C37.8259 5.20979 38.082 5.26099 38.3599 5.29025C38.4038 5.29025 38.4258 5.29025 38.4258 5.38534C38.4258 5.48044 38.4258 5.48044 38.3453 5.48044C38.06 5.48044 37.665 5.48044 37.3797 5.48044C37.0944 5.48044 36.8311 5.48044 36.5751 5.48044C36.5019 5.48044 36.4873 5.48044 36.4873 5.38534C36.4873 5.29025 36.4873 5.29025 36.5751 5.29025C36.7461 5.26357 36.9046 5.18432 37.0286 5.06349C37.2415 4.81316 37.4008 4.52189 37.4968 4.20763L38.4185 1.83758C38.7842 0.915897 38.85 0.689133 38.9744 0.30144L39.5815 0.0381004C39.6046 0.035721 39.6277 0.0418421 39.6466 0.0553118C39.6654 0.0687816 39.6787 0.0886744 39.684 0.111252C39.8376 0.557465 39.9765 0.923215 40.3204 1.88148L41.1908 4.26615C41.273 4.56238 41.4014 4.8438 41.5712 5.10006C41.7029 5.25367 41.7833 5.26831 42.0759 5.29025C42.1564 5.29025 42.171 5.29025 42.171 5.38534C42.171 5.48044 42.171 5.48044 42.0759 5.48044H40.9787H39.8961C39.8449 5.48044 39.8376 5.48044 39.8376 5.38534C39.8376 5.29025 39.8376 5.29025 39.8961 5.29025C40.1887 5.29025 40.3789 5.24636 40.4301 5.10006C40.4573 4.84784 40.4089 4.59324 40.2911 4.36856L39.9912 3.46882ZM39.4279 1.8961C39.2524 1.41332 39.1865 1.16461 39.1061 0.937842C38.9963 1.22313 38.9305 1.41332 38.7549 1.88148L38.2648 3.17622C38.5209 3.17622 38.8281 3.17622 39.1207 3.17622C39.4133 3.17622 39.662 3.17622 39.8522 3.17622L39.4279 1.8961Z" fill="#231815"/>
<path d="M44.3873 4.12705C44.3873 4.85855 44.3873 4.96096 44.4751 5.09994C44.5629 5.23892 44.7458 5.26087 45.0676 5.29013C45.1188 5.29013 45.1261 5.29013 45.1261 5.39254C45.1261 5.49495 45.1261 5.48032 45.053 5.48032C44.6946 5.48032 44.3215 5.48032 43.9484 5.48032C43.5754 5.48032 43.2169 5.48032 42.8878 5.48032C42.8292 5.48032 42.8146 5.48032 42.8146 5.39254C42.8146 5.30476 42.8146 5.29745 42.8878 5.29013C43.173 5.29013 43.3413 5.29013 43.4217 5.09994C43.5201 4.78565 43.5525 4.45444 43.5168 4.12705V1.47903C43.5168 0.747533 43.5168 0.689014 43.4364 0.528085C43.3559 0.367155 43.1291 0.37447 42.8146 0.34521C42.7561 0.34521 42.7415 0.345208 42.7415 0.242798C42.7415 0.140389 42.7415 0.155019 42.8146 0.155019H43.9118C44.2044 0.155019 44.6946 0.155019 45.1847 0.155019C46.7062 0.155019 47.284 0.747533 47.284 1.5156C47.284 2.06423 46.889 2.60553 45.9966 2.82498C46.3258 3.39555 46.7281 4.01001 47.1085 4.6391C47.2206 4.85102 47.375 5.03774 47.562 5.18772C47.7072 5.26093 47.8676 5.29855 48.0302 5.29745C48.0741 5.29745 48.0887 5.29745 48.0887 5.39254C48.0887 5.48764 48.0887 5.48763 48.0302 5.48763C47.701 5.48763 47.4596 5.48763 47.2109 5.48763H46.5379C46.4628 5.29066 46.3723 5.09988 46.2673 4.91707C45.8869 4.25872 45.5358 3.64426 45.1554 2.98591H44.9067C44.7458 2.98591 44.6214 2.98591 44.4239 2.98591L44.3873 4.12705ZM44.3873 2.66406C44.5554 2.67436 44.724 2.67436 44.8921 2.66406C45.9308 2.66406 46.3038 2.14469 46.3038 1.48634C46.3038 0.827997 45.9162 0.33058 45.031 0.33058C44.8262 0.33058 44.5848 0.33058 44.4751 0.46225C44.3808 0.769832 44.3509 1.09355 44.3873 1.4132V2.66406Z" fill="#231815"/>
<path d="M50.2613 4.13413C50.2307 4.43367 50.2682 4.73625 50.3711 5.01924C50.4954 5.21674 50.7661 5.23138 51.1026 5.23138C51.5715 5.27473 52.0407 5.15032 52.4266 4.88026C52.6663 4.66805 52.8734 4.42155 53.041 4.14876C53.041 4.09756 53.0849 4.07561 53.1581 4.09756C53.2312 4.1195 53.2532 4.15608 53.2458 4.19997C53.144 4.64093 53.0095 5.0737 52.8435 5.49472H50.8246C50.1443 5.49472 49.4055 5.49472 48.7252 5.49472C48.6667 5.49472 48.652 5.49472 48.652 5.40694C48.652 5.31916 48.652 5.31916 48.7252 5.31184C49.0178 5.31184 49.1495 5.31184 49.2299 5.12165C49.3318 4.80809 49.3667 4.47665 49.3323 4.14876V1.4788C49.3323 0.747299 49.3323 0.681463 49.2372 0.520534C49.1421 0.359604 49.0032 0.374236 48.6813 0.344976C48.6228 0.344976 48.6082 0.344975 48.6082 0.249881C48.6082 0.154786 48.6082 0.154785 48.6813 0.154785C49.3543 0.154785 50.0638 0.154785 50.7149 0.154785C51.3659 0.154785 52.0242 0.154785 52.6899 0.154785C52.6899 0.520534 52.7777 1.01064 52.8362 1.39102C52.8362 1.43491 52.8362 1.46417 52.7557 1.4788C52.6753 1.49343 52.6387 1.4788 52.6241 1.42759C52.5104 1.14466 52.3297 0.893609 52.0974 0.696094C51.7544 0.462938 51.3388 0.361618 50.927 0.410811C50.649 0.410811 50.4076 0.410811 50.3125 0.593685C50.2256 0.880146 50.1983 1.18136 50.2321 1.4788V2.54678H50.6637C51.003 2.58236 51.3457 2.52944 51.6585 2.39317C51.7398 2.33513 51.8084 2.26105 51.8599 2.1755C51.9115 2.08995 51.945 1.99475 51.9584 1.89575C51.9584 1.85186 51.9584 1.82991 52.0755 1.82991C52.1925 1.82991 52.1705 1.82992 52.1705 1.90307C52.1705 2.16641 52.1705 2.42243 52.1705 2.63456C52.1705 2.8467 52.1705 3.21976 52.1705 3.4831C52.1705 3.54162 52.1705 3.56356 52.0755 3.56356C51.9804 3.56356 51.9804 3.56356 51.9584 3.49041C51.9247 3.27676 51.8157 3.08218 51.6512 2.94179C51.3496 2.80998 51.0216 2.74989 50.6929 2.76623H50.2613V4.13413Z" fill="#231815"/>
<path d="M58.4833 4.13413C58.4833 4.86563 58.4833 4.98267 58.5418 5.12165C58.6003 5.26063 58.8344 5.27526 59.1563 5.30452C59.2075 5.30452 59.2294 5.30453 59.2294 5.39231C59.2294 5.48009 59.2294 5.48009 59.149 5.48009H58.0224C57.686 5.48009 57.2909 5.48009 56.9325 5.48009C56.8886 5.48009 56.8813 5.48009 56.8813 5.39962C56.8813 5.31916 56.8813 5.31184 56.9325 5.30452C57.2471 5.30452 57.3934 5.30452 57.4811 5.12165C57.5903 4.80462 57.6253 4.4668 57.5835 4.13413V1.4788C57.5835 0.747299 57.5835 0.681463 57.4811 0.520534C57.3787 0.359604 57.2324 0.374236 56.9106 0.344976C56.8667 0.344976 56.8521 0.344975 56.8521 0.249881C56.8521 0.154786 56.8521 0.154785 56.9106 0.154785H58.0224H59.0977C59.1636 0.154785 59.1855 0.154786 59.1855 0.249881C59.1855 0.344975 59.1855 0.337661 59.1124 0.344976C58.8198 0.344976 58.6515 0.344974 58.5564 0.520534C58.4785 0.833587 58.4537 1.15753 58.4833 1.4788V2.49558C58.9734 2.49558 59.405 2.49558 59.8585 2.49558C60.312 2.49558 60.707 2.49558 61.1971 2.49558V1.4788C61.1971 0.747299 61.1971 0.674148 61.1167 0.520534C61.0362 0.366919 60.846 0.374236 60.5242 0.344976C60.473 0.344976 60.4656 0.344975 60.4656 0.249881C60.4656 0.154786 60.4656 0.154785 60.5315 0.154785H61.6653H62.726C62.7991 0.154785 62.8138 0.154784 62.8138 0.242564C62.8138 0.330344 62.8138 0.337661 62.7333 0.344976C62.4334 0.344976 62.2871 0.344974 62.1993 0.520534C62.0973 0.829024 62.0624 1.15573 62.0969 1.4788V4.13413C62.0969 4.86563 62.0969 4.96804 62.192 5.12165C62.2871 5.27526 62.4626 5.27526 62.7918 5.30452C62.843 5.30452 62.8503 5.30453 62.8503 5.39962C62.8503 5.49472 62.8503 5.48009 62.7772 5.48009H61.6653H60.5754C60.5095 5.48009 60.5022 5.48009 60.5022 5.39962C60.5022 5.31916 60.5022 5.31184 60.5754 5.30452C60.8826 5.30452 61.0143 5.30452 61.1021 5.12165C61.1903 4.80028 61.2127 4.46438 61.1679 4.13413V2.8467C60.6778 2.8467 60.2755 2.8467 59.8292 2.8467C59.383 2.8467 58.9441 2.8467 58.454 2.8467L58.4833 4.13413Z" fill="#231815"/>
<path d="M65.4325 4.13436C65.4325 4.86586 65.4325 4.96827 65.5057 5.11457C65.5788 5.26087 65.7909 5.26819 66.1055 5.29745C66.1567 5.29745 66.1786 5.29745 66.1786 5.39254C66.1786 5.48764 66.1786 5.48032 66.0982 5.48032H64.9717H63.889C63.8452 5.48032 63.8305 5.48032 63.8305 5.39254C63.8305 5.30476 63.8305 5.30476 63.8817 5.29745C64.1743 5.29745 64.3426 5.29745 64.4377 5.11457C64.5287 4.79631 64.556 4.46321 64.5181 4.13436V1.47903C64.5181 0.747533 64.5181 0.689014 64.445 0.528085C64.3718 0.367155 64.167 0.37447 63.8452 0.34521C63.8452 0.34521 63.7939 0.345208 63.7939 0.242798C63.7939 0.140389 63.7939 0.155019 63.8525 0.155019H64.9717H66.0689C66.1201 0.155019 66.1347 0.15502 66.1347 0.250115C66.1347 0.34521 66.1347 0.337895 66.0689 0.34521C65.7763 0.34521 65.6007 0.34521 65.513 0.528085C65.4281 0.837463 65.4009 1.1598 65.4325 1.47903V4.13436Z" fill="#231815"/>
<path d="M72.177 1.48653C72.177 1.54505 72.177 1.56699 72.1038 1.58894C72.0307 1.61088 72.0088 1.58894 71.9795 1.53042C71.8212 1.18856 71.5888 0.886208 71.2992 0.64531C70.9809 0.40591 70.5929 0.277436 70.1946 0.279561C69.0681 0.279561 68.1903 1.35486 68.1903 2.80323C68.1903 4.25159 69.0462 5.34152 70.2971 5.34152C70.7295 5.34829 71.1491 5.19452 71.4748 4.90994C71.4876 4.74194 71.4876 4.57321 71.4748 4.40521C71.4748 3.67371 71.4748 3.58593 71.3943 3.41769C71.3138 3.24944 71.131 3.26407 70.8091 3.23481C70.7579 3.23481 70.7359 3.23481 70.7359 3.13971C70.7359 3.04462 70.7359 3.05194 70.8091 3.05194C71.1602 3.05194 71.5406 3.05194 71.8844 3.05194C72.2282 3.05194 72.5208 3.05194 72.8792 3.05194C72.9304 3.05194 72.9378 3.05193 72.9378 3.13971C72.9378 3.22749 72.9378 3.2275 72.8792 3.23481C72.594 3.23481 72.4915 3.23481 72.4038 3.41769C72.3225 3.70523 72.2928 4.00489 72.316 4.3028C72.3183 4.67722 72.3452 5.05108 72.3964 5.42199C72.3964 5.42199 72.3964 5.47319 72.316 5.47319C72.1577 5.46183 71.9988 5.46183 71.8405 5.47319C71.4528 5.47319 70.9773 5.67069 70.1654 5.67069C68.3293 5.67069 67.1516 4.54419 67.1516 2.88369C67.1533 2.49611 67.2352 2.11307 67.3921 1.75867C67.549 1.40427 67.7775 1.08618 68.0634 0.824409C68.3492 0.562634 68.6861 0.362841 69.0529 0.237601C69.4197 0.112362 69.8084 0.0643848 70.1946 0.0966869C70.529 0.10009 70.8612 0.149312 71.1822 0.242984C71.4664 0.314877 71.7613 0.334705 72.0526 0.301505C72.0749 0.698295 72.1164 1.09377 72.177 1.48653Z" fill="#231815"/>
<path d="M76.7561 3.4687C76.5001 3.4687 76.1709 3.4687 75.8783 3.4687C75.5857 3.4687 75.2492 3.4687 74.9274 3.4687L74.6348 4.2002C74.567 4.32428 74.5244 4.46051 74.5093 4.6011C74.4942 4.74168 74.507 4.88385 74.547 5.01947C74.6201 5.17309 74.8688 5.22429 75.1468 5.25355C75.198 5.25355 75.22 5.25356 75.22 5.34865C75.22 5.44374 75.22 5.44374 75.1322 5.44374C74.8469 5.44374 74.4592 5.44374 74.1739 5.44374C73.8886 5.44374 73.618 5.44374 73.362 5.44374C73.2961 5.44374 73.2815 5.44374 73.2815 5.34865C73.2815 5.25356 73.2815 5.25355 73.362 5.25355C73.5341 5.23038 73.6937 5.15061 73.8155 5.02679C74.0285 4.77539 74.19 4.4846 74.291 4.17094L75.2126 1.80089C75.5711 0.879203 75.6442 0.652437 75.7613 0.264743L76.3684 0.00140375C76.38 -0.000685641 76.3918 -0.000440854 76.4033 0.00212648C76.4147 0.00469381 76.4255 0.0095327 76.4351 0.0163521C76.4446 0.0231716 76.4527 0.0318349 76.4588 0.0418317C76.465 0.0518285 76.4691 0.0629537 76.4708 0.0745524C76.6244 0.520766 76.7634 0.886516 77.1072 1.84478L77.9923 4.26603C78.0761 4.56296 78.207 4.84451 78.38 5.09994C78.5117 5.25355 78.5849 5.26818 78.8774 5.29013C78.9652 5.29013 78.9799 5.29013 78.9799 5.38522C78.9799 5.48032 78.9799 5.48032 78.8774 5.48032H77.7875H76.7049C76.6464 5.48032 76.6391 5.48032 76.6391 5.38522C76.6391 5.29013 76.6391 5.29013 76.7049 5.29013C76.9975 5.29013 77.1877 5.24624 77.2316 5.09994C77.2588 4.84772 77.2104 4.59312 77.0926 4.36844L76.7561 3.4687ZM76.1855 1.89598C76.01 1.41319 75.9515 1.16448 75.8637 0.937719C75.754 1.223 75.6954 1.4132 75.5199 1.88135L75.0225 3.1761C75.2785 3.1761 75.5857 3.1761 75.8783 3.1761C76.1709 3.1761 76.4269 3.1761 76.6098 3.1761L76.1855 1.89598Z" fill="#231815"/>
<path d="M80.9769 2.89823C80.0626 2.45933 79.7553 2.09358 79.7553 1.34746C79.7553 0.601329 80.443 0.0307617 81.4744 0.0307617C81.7365 0.0330362 81.9972 0.0699285 82.2498 0.140485C82.4919 0.18141 82.7391 0.18141 82.9812 0.140485C82.9812 0.513548 83.0398 0.989023 83.069 1.37672C83.069 1.37672 83.069 1.43524 82.9886 1.44987C82.9081 1.4645 82.8935 1.44986 82.8788 1.40597C82.7786 1.11138 82.5969 0.851243 82.3547 0.65574C82.1126 0.460236 81.82 0.337378 81.5109 0.301415C81.3889 0.295191 81.2669 0.314524 81.1527 0.358175C81.0386 0.401827 80.9348 0.468836 80.848 0.55491C80.7613 0.640984 80.6934 0.744227 80.6489 0.85803C80.6043 0.971832 80.584 1.09368 80.5893 1.21579C80.5893 1.54496 80.7941 1.85219 81.4451 2.1521L81.8621 2.34229C82.952 2.84703 83.3251 3.1762 83.3251 4.04668C83.3251 5.0342 82.5936 5.62671 81.2769 5.62671C80.7786 5.62078 80.2845 5.53432 79.8139 5.37069C79.6969 4.96987 79.6065 4.56179 79.5432 4.14909C79.5432 4.09789 79.5432 4.04668 79.631 4.03205C79.7188 4.01742 79.7407 4.03205 79.7627 4.07594C79.8841 4.42204 80.0985 4.728 80.3824 4.96026C80.6663 5.19253 81.0087 5.34212 81.372 5.39264C81.516 5.40274 81.6605 5.38292 81.7965 5.33443C81.9325 5.28594 82.0569 5.20983 82.1621 5.11089C82.2672 5.01194 82.3507 4.89231 82.4073 4.75951C82.464 4.62672 82.4925 4.48364 82.4911 4.33928C82.4911 3.78334 82.14 3.49806 81.3646 3.11768L80.9769 2.89823Z" fill="#231815"/>
<path d="M85.995 4.13413C85.995 4.86563 85.995 4.98267 86.0535 5.12165C86.112 5.26063 86.3461 5.27526 86.668 5.30452C86.7192 5.30452 86.7411 5.30453 86.7411 5.39231C86.7411 5.48009 86.7411 5.48009 86.6607 5.48009H85.5342C85.1977 5.48009 84.8027 5.48009 84.4442 5.48009C84.4003 5.48009 84.393 5.48009 84.393 5.39962C84.393 5.31916 84.393 5.31184 84.4442 5.30452C84.7588 5.30452 84.9051 5.30452 84.9929 5.12165C85.102 4.80462 85.137 4.4668 85.0953 4.13413V1.4788C85.0953 0.747299 85.0953 0.681463 84.9929 0.520534C84.8904 0.359604 84.7441 0.374236 84.4223 0.344976C84.3784 0.344976 84.3638 0.344975 84.3638 0.249881C84.3638 0.154786 84.3638 0.154785 84.4223 0.154785H85.5342H86.6095C86.6753 0.154785 86.6972 0.154786 86.6972 0.249881C86.6972 0.344975 86.6972 0.337661 86.6241 0.344976C86.3315 0.344976 86.1633 0.344974 86.0682 0.520534C85.9902 0.833587 85.9655 1.15753 85.995 1.4788V2.49558C86.4851 2.49558 86.9167 2.49558 87.3702 2.49558C87.8238 2.49558 88.2188 2.49558 88.7089 2.49558V1.4788C88.7089 0.747299 88.7089 0.674148 88.6284 0.520534C88.5479 0.366919 88.3577 0.374236 88.0359 0.344976C87.9847 0.344976 87.9774 0.344975 87.9774 0.249881C87.9774 0.154786 87.9774 0.154785 88.0432 0.154785H89.177H90.2377C90.3108 0.154785 90.3328 0.154784 90.3328 0.242564C90.3328 0.330344 90.3328 0.337661 90.245 0.344976C89.9451 0.344976 89.7988 0.344974 89.711 0.520534C89.6091 0.829024 89.5741 1.15573 89.6086 1.4788V4.13413C89.6086 4.86563 89.6086 4.96804 89.7037 5.12165C89.7988 5.27526 89.9744 5.27526 90.3035 5.30452C90.3547 5.30452 90.3621 5.30453 90.3621 5.39962C90.3621 5.49472 90.362 5.48009 90.2889 5.48009H89.177H88.0871C88.0213 5.48009 88.0139 5.48009 88.0139 5.39962C88.0139 5.31916 88.0139 5.31184 88.0871 5.30452C88.3943 5.30452 88.5333 5.30452 88.6138 5.12165C88.7119 4.80228 88.7442 4.46635 88.7089 4.13413V2.8467C88.2188 2.8467 87.8164 2.8467 87.3702 2.8467C86.924 2.8467 86.4851 2.8467 85.995 2.8467V4.13413Z" fill="#231815"/>
<path d="M92.9442 4.13436C92.9442 4.86586 92.9442 4.96827 93.0174 5.11457C93.0905 5.26087 93.3027 5.26819 93.6172 5.29745C93.6684 5.29745 93.6904 5.29745 93.6904 5.39254C93.6904 5.48764 93.6904 5.48032 93.6099 5.48032H92.4834H91.4008C91.3569 5.48032 91.3422 5.48032 91.3422 5.39254C91.3422 5.30476 91.3422 5.30476 91.3934 5.29745C91.686 5.29745 91.8543 5.29745 91.9494 5.11457C92.044 4.79702 92.0739 4.46368 92.0372 4.13436V1.47903C92.0372 0.747533 92.0372 0.689014 91.9567 0.528085C91.8762 0.367155 91.6787 0.37447 91.3569 0.34521C91.3569 0.34521 91.3057 0.345208 91.3057 0.242798C91.3057 0.140389 91.3057 0.155019 91.3642 0.155019H92.4834H93.5806C93.6318 0.155019 93.6465 0.15502 93.6465 0.250115C93.6465 0.34521 93.6465 0.337895 93.5806 0.34521C93.288 0.34521 93.1125 0.34521 93.0247 0.528085C92.9398 0.837463 92.9126 1.1598 92.9442 1.47903V4.13436Z" fill="#231815"/>
<path d="M98.9498 2.89823C98.0354 2.45933 97.7282 2.09358 97.7282 1.34746C97.7282 0.601329 98.4597 0.0307617 99.4472 0.0307617C99.7118 0.0330721 99.9749 0.0699579 100.23 0.140485C100.472 0.18141 100.719 0.18141 100.961 0.140485C100.961 0.513548 101.013 0.989023 101.042 1.37672C101.042 1.37672 101.042 1.43524 100.969 1.44987C100.896 1.4645 100.866 1.44986 100.852 1.40597C100.759 1.09913 100.577 0.826548 100.33 0.622288C100.083 0.418028 99.7808 0.291153 99.4619 0.257524C99.3392 0.250241 99.2164 0.268789 99.1014 0.311966C98.9863 0.355142 98.8816 0.421987 98.7941 0.508175C98.7065 0.594364 98.638 0.697977 98.593 0.812308C98.548 0.92664 98.5275 1.04914 98.5329 1.1719C98.5329 1.50107 98.745 1.8083 99.3887 2.10821L99.8057 2.29841C100.896 2.80314 101.269 3.13231 101.269 4.00279C101.269 4.99031 100.537 5.58283 99.2131 5.58283C98.7149 5.57625 98.221 5.48982 97.7501 5.3268C97.6404 4.92448 97.538 4.46363 97.4795 4.1052C97.4795 4.05399 97.4795 4.00279 97.5673 3.98816C97.655 3.97353 97.6843 3.98816 97.6989 4.03205C97.8202 4.37958 98.0356 4.68665 98.321 4.91911C98.6064 5.15156 98.9507 5.30029 99.3155 5.34875C99.4592 5.35891 99.6034 5.33908 99.739 5.29052C99.8746 5.24196 99.9987 5.16573 100.103 5.06667C100.208 4.96762 100.291 4.8479 100.346 4.71512C100.402 4.58234 100.43 4.4394 100.427 4.29539C100.427 3.73945 100.084 3.45417 99.3082 3.07379L98.9498 2.89823Z" fill="#231815"/>
<path d="M105.416 3.46878C105.16 3.46878 104.831 3.46878 104.538 3.46878C104.246 3.46878 103.909 3.46878 103.58 3.46878L103.288 4.20028C103.218 4.32384 103.175 4.46045 103.161 4.60147C103.148 4.7425 103.163 4.88485 103.207 5.01955C103.273 5.17316 103.529 5.22437 103.807 5.25363C103.851 5.25363 103.873 5.25363 103.873 5.34873C103.873 5.44382 103.873 5.44382 103.792 5.44382C103.507 5.44382 103.112 5.44382 102.827 5.44382C102.541 5.44382 102.278 5.44382 102.022 5.44382C101.956 5.44382 101.934 5.44382 101.934 5.34873C101.934 5.25363 101.934 5.25363 102.022 5.25363C102.193 5.22695 102.352 5.1477 102.476 5.02687C102.688 4.77653 102.848 4.48527 102.944 4.17101L103.865 1.80096C104.231 0.879278 104.297 0.652512 104.421 0.264819L105.029 0.0014793C105.052 -0.000900143 105.075 0.00522101 105.094 0.0186907C105.112 0.0321605 105.126 0.0520505 105.131 0.0746279C105.285 0.520841 105.424 0.886592 105.767 1.84485L106.638 4.22954C106.723 4.52462 106.851 4.80559 107.018 5.06344C107.15 5.21706 107.23 5.23168 107.523 5.25363C107.603 5.25363 107.618 5.25363 107.618 5.34873C107.618 5.44382 107.618 5.44382 107.523 5.44382H106.426H105.343C105.292 5.44382 105.285 5.44382 105.285 5.34873C105.285 5.25363 105.285 5.25363 105.343 5.25363C105.636 5.25363 105.826 5.20974 105.877 5.06344C105.904 4.81122 105.856 4.55662 105.738 4.33194L105.416 3.46878ZM104.846 1.89606C104.67 1.41327 104.604 1.16456 104.524 0.937795C104.414 1.22308 104.356 1.41327 104.173 1.88143L103.683 3.17618C103.939 3.17618 104.246 3.17618 104.538 3.17618C104.831 3.17618 105.08 3.17618 105.307 3.17618L104.846 1.89606Z" fill="#231815"/>
<path d="M109.834 4.12705C109.834 4.85855 109.834 4.96827 109.9 5.09994C109.966 5.23161 110.193 5.26087 110.522 5.29013C110.58 5.29013 110.588 5.29013 110.588 5.38522C110.588 5.48032 110.588 5.48032 110.515 5.48032C110.156 5.48032 109.747 5.48032 109.395 5.48032C109.044 5.48032 108.62 5.48032 108.291 5.48032C108.247 5.48032 108.232 5.48032 108.232 5.38522C108.232 5.29013 108.232 5.29013 108.298 5.29013C108.591 5.29013 108.744 5.29013 108.839 5.09994C108.93 4.78418 108.96 4.45398 108.927 4.12705V1.47903C108.927 0.747533 108.927 0.689014 108.847 0.528085C108.766 0.367155 108.532 0.37447 108.232 0.34521C108.181 0.34521 108.167 0.345208 108.167 0.242798C108.167 0.140389 108.167 0.155019 108.232 0.155019H109.381C109.673 0.155019 110.149 0.155019 110.639 0.155019C112.256 0.155019 112.833 0.725589 112.833 1.5595C112.833 2.3934 112.329 3.08832 110.434 3.08832C110.247 3.09906 110.058 3.09906 109.871 3.08832L109.834 4.12705ZM109.834 2.7811C109.996 2.8112 110.16 2.8259 110.324 2.82498C111.429 2.82498 111.787 2.27636 111.787 1.58875C111.787 0.901146 111.297 0.396415 110.456 0.396415C110.281 0.396415 110.003 0.396415 109.9 0.542715C109.804 0.844824 109.771 1.16371 109.805 1.47903L109.834 2.7811Z" fill="#231815"/>
<path d="M115.401 4.12705C115.401 4.85855 115.401 4.96827 115.474 5.09994C115.547 5.23161 115.767 5.26087 116.096 5.29013C116.147 5.29013 116.154 5.29013 116.154 5.38522C116.154 5.48032 116.154 5.48032 116.089 5.48032C115.723 5.48032 115.32 5.48032 114.962 5.48032C114.604 5.48032 114.187 5.48032 113.865 5.48032C113.821 5.48032 113.806 5.48032 113.806 5.38522C113.806 5.29013 113.806 5.29013 113.872 5.29013C114.165 5.29013 114.318 5.29013 114.413 5.09994C114.497 4.78285 114.524 4.45356 114.494 4.12705V1.47903C114.494 0.747533 114.494 0.689014 114.421 0.528085C114.348 0.367155 114.106 0.37447 113.806 0.34521C113.748 0.34521 113.733 0.345208 113.733 0.242798C113.733 0.140389 113.733 0.155019 113.806 0.155019H114.947C115.24 0.155019 115.679 0.155019 116.213 0.155019C117.822 0.155019 118.371 0.725589 118.371 1.5595C118.371 2.3934 117.866 3.08832 115.972 3.08832C115.781 3.09893 115.591 3.09893 115.401 3.08832V4.12705ZM115.401 2.7811C115.565 2.81154 115.732 2.82623 115.898 2.82498C117.003 2.82498 117.361 2.27636 117.361 1.58875C117.361 0.901146 116.864 0.396415 116.03 0.396415C115.847 0.396415 115.577 0.396415 115.474 0.542715C115.371 0.843366 115.336 1.16319 115.372 1.47903L115.401 2.7811Z" fill="#231815"/>
<path d="M125.32 2.80345C125.363 3.40094 125.224 3.99741 124.923 4.5153C124.622 5.03318 124.173 5.44851 123.632 5.70726C123.092 5.96602 122.487 6.05623 121.894 5.96615C121.302 5.87608 120.751 5.6099 120.312 5.20223C119.873 4.79455 119.567 4.26425 119.434 3.68029C119.3 3.09633 119.346 2.48575 119.564 1.92794C119.782 1.37013 120.163 0.890912 120.658 0.552614C121.152 0.214317 121.737 0.0325931 122.336 0.0310782C122.717 0.00179846 123.101 0.05181 123.462 0.177964C123.823 0.304119 124.154 0.503682 124.435 0.764099C124.715 1.02452 124.938 1.34015 125.091 1.69112C125.243 2.0421 125.321 2.42082 125.32 2.80345ZM120.426 2.80345C120.426 4.34691 121.158 5.34906 122.336 5.34906C123.513 5.34906 124.252 4.34691 124.252 2.8254C124.252 1.30388 123.469 0.301731 122.336 0.301731C121.202 0.301731 120.419 1.28925 120.419 2.80345H120.426Z" fill="#231815"/>
<path d="M127.961 4.12705C127.961 4.85855 127.961 4.96096 128.049 5.09994C128.137 5.23892 128.312 5.26087 128.641 5.29013C128.693 5.29013 128.7 5.29013 128.7 5.39254C128.7 5.49495 128.7 5.48032 128.627 5.48032C128.268 5.48032 127.895 5.48032 127.522 5.48032C127.149 5.48032 126.791 5.48032 126.461 5.48032C126.403 5.48032 126.388 5.48032 126.388 5.39254C126.388 5.30476 126.388 5.29745 126.461 5.29013C126.747 5.29013 126.915 5.29013 126.995 5.09994C127.086 4.78418 127.116 4.45398 127.083 4.12705V1.47903C127.083 0.747533 127.083 0.689014 127.01 0.528085C126.937 0.367155 126.703 0.37447 126.388 0.34521C126.33 0.34521 126.315 0.345208 126.315 0.242798C126.315 0.140389 126.315 0.155019 126.388 0.155019H127.486C127.778 0.155019 128.268 0.155019 128.751 0.155019C130.28 0.155019 130.85 0.747533 130.85 1.5156C130.85 2.06423 130.463 2.60553 129.57 2.82498C129.9 3.39555 130.302 4.01001 130.675 4.6391C130.787 4.85102 130.941 5.03774 131.128 5.18772C131.274 5.25917 131.434 5.29668 131.597 5.29745C131.648 5.29745 131.662 5.29745 131.662 5.39254C131.662 5.48764 131.662 5.48763 131.597 5.48763C131.275 5.48763 131.033 5.48763 130.785 5.48763H130.053C129.978 5.28921 129.885 5.0982 129.775 4.91707C129.402 4.25872 129.044 3.64426 128.671 2.98591H128.466C128.312 2.98591 128.181 2.98591 127.99 2.98591L127.961 4.12705ZM127.961 2.66406C128.129 2.67456 128.298 2.67456 128.466 2.66406C129.497 2.66406 129.878 2.14469 129.878 1.48634C129.878 0.827997 129.483 0.33058 128.597 0.33058C128.4 0.33058 128.151 0.33058 128.049 0.46225C127.955 0.769832 127.925 1.09355 127.961 1.4132V2.66406Z" fill="#231815"/>
<path d="M138.187 2.80345C138.23 3.40094 138.092 3.99741 137.791 4.5153C137.49 5.03318 137.04 5.44851 136.5 5.70726C135.959 5.96602 135.354 6.05623 134.762 5.96615C134.169 5.87608 133.618 5.6099 133.179 5.20223C132.74 4.79455 132.434 4.26425 132.301 3.68029C132.167 3.09633 132.213 2.48575 132.431 1.92794C132.649 1.37013 133.03 0.890912 133.525 0.552614C134.019 0.214317 134.604 0.0325931 135.203 0.0310782C135.584 0.00179846 135.968 0.05181 136.329 0.177964C136.69 0.304119 137.021 0.503682 137.302 0.764099C137.582 1.02452 137.806 1.34015 137.958 1.69112C138.11 2.0421 138.188 2.42082 138.187 2.80345ZM133.294 2.80345C133.294 4.34691 134.025 5.34906 135.203 5.34906C136.381 5.34906 137.119 4.34691 137.119 2.8254C137.119 1.30388 136.337 0.301731 135.203 0.301731C134.069 0.301731 133.294 1.28925 133.294 2.80345Z" fill="#231815"/>
<path d="M1.66811 14.1268C1.66811 14.8584 1.66811 14.9682 1.73395 15.0998C1.7998 15.2315 2.02661 15.2608 2.35584 15.2901C2.41437 15.2901 2.42169 15.2901 2.42169 15.3852C2.42169 15.4803 2.42168 15.4803 2.34852 15.4803C1.99002 15.4803 1.61689 15.4803 1.22913 15.4803C0.841367 15.4803 0.453608 15.4803 0.124375 15.4803C0.0804777 15.4803 0.0658438 15.4803 0.0658438 15.3852C0.0658438 15.2901 0.0658412 15.2901 0.131688 15.2901C0.424339 15.2901 0.577985 15.2901 0.673096 15.0998C0.764006 14.784 0.7938 14.4538 0.760888 14.1268V11.4783C0.760888 10.7467 0.760888 10.6881 0.680409 10.5272C0.59993 10.3662 0.365811 10.3735 0.0658438 10.3443C0.0146299 10.3443 0 10.3443 0 10.2418C0 10.1394 -2.68192e-06 10.154 0.0658438 10.154H1.21451C1.50716 10.154 1.94613 10.154 2.47291 10.154C4.0898 10.154 4.63121 10.7247 4.63121 11.5588C4.63121 12.3928 4.12638 13.0879 2.23147 13.0879C2.04384 13.0986 1.85574 13.0986 1.66811 13.0879V14.1268ZM1.66811 12.7806C1.82975 12.8107 1.99388 12.8254 2.1583 12.8245C3.26306 12.8245 3.62156 12.2758 3.62156 11.588C3.62156 10.9003 3.13137 10.3955 2.29 10.3955C2.11441 10.3955 1.83638 10.3955 1.73395 10.5418C1.63753 10.844 1.60515 11.1629 1.63885 11.4783L1.66811 12.7806Z" fill="#231815"/>
<path d="M7.25772 14.1339C7.22881 14.4329 7.26372 14.7346 7.36015 15.0191C7.49184 15.2167 7.76986 15.2313 8.09178 15.2313C8.5603 15.2592 9.02448 15.1277 9.40871 14.8582C9.64851 14.6499 9.85134 14.4025 10.0086 14.1266C10.0086 14.0753 10.0525 14.0607 10.1403 14.0827C10.2281 14.1046 10.2208 14.1412 10.2135 14.1851C10.1108 14.625 9.97877 15.0577 9.81842 15.4801H7.7845C7.10408 15.4801 6.37977 15.4801 5.69204 15.4801C5.64083 15.4801 5.6262 15.4801 5.6262 15.3923C5.6262 15.3045 5.62619 15.3045 5.69204 15.2972C5.98469 15.2972 6.13101 15.2972 6.22612 15.1069C6.32447 14.7926 6.35686 14.4613 6.32124 14.1339V11.4781C6.32124 10.7464 6.32124 10.6806 6.23345 10.5196C6.14565 10.3587 5.98469 10.3733 5.6774 10.344C5.61887 10.344 5.59692 10.344 5.59692 10.2489C5.59692 10.1538 5.59692 10.1538 5.6774 10.1538H6.76753H7.85766C7.92351 10.1538 7.94545 10.1538 7.94545 10.2489C7.94545 10.344 7.94546 10.3367 7.87961 10.344C7.58696 10.344 7.426 10.344 7.3382 10.5196C7.24569 10.8301 7.21585 11.1559 7.25041 11.4781L7.25772 14.1339Z" fill="#231815"/>
<path d="M13.9813 13.4684C13.7253 13.4684 13.396 13.4684 13.1034 13.4684C12.8107 13.4684 12.4742 13.4684 12.1449 13.4684L11.8596 14.2C11.7899 14.3234 11.7461 14.4598 11.731 14.6007C11.7159 14.7416 11.7298 14.8841 11.7718 15.0195C11.8377 15.1731 12.0937 15.2243 12.3718 15.2536C12.4157 15.2536 12.4376 15.2536 12.4376 15.3487C12.4376 15.4438 12.4376 15.4438 12.3571 15.4438C12.0718 15.4438 11.6767 15.4438 11.3914 15.4438C11.106 15.4438 10.8427 15.4438 10.5866 15.4438C10.5207 15.4438 10.4988 15.4438 10.4988 15.3487C10.4988 15.2536 10.4988 15.2536 10.5866 15.2536C10.7577 15.2269 10.9162 15.1476 11.0402 15.0268C11.2531 14.7764 11.4124 14.4851 11.5084 14.1708L12.4303 11.8003C12.7961 10.8785 12.8619 10.6517 12.9863 10.2639L13.5936 10.0005C13.6166 9.99812 13.6398 10.0042 13.6586 10.0177C13.6775 10.0312 13.6908 10.0511 13.696 10.0737C13.8496 10.52 13.9886 10.8858 14.3325 11.8442L15.2032 14.2293C15.2885 14.5245 15.4167 14.8055 15.5836 15.0634C15.7153 15.217 15.7958 15.2316 16.0884 15.2536C16.1689 15.2536 16.1835 15.2536 16.1835 15.3487C16.1835 15.4438 16.1835 15.4438 16.0884 15.4438H14.991H13.9082C13.857 15.4438 13.8496 15.4438 13.8496 15.3487C13.8496 15.2536 13.8496 15.2536 13.9082 15.2536C14.2008 15.2536 14.3911 15.2097 14.4423 15.0634C14.4694 14.8111 14.4211 14.5565 14.3033 14.3317L13.9813 13.4684ZM13.4107 11.8954C13.2351 11.4125 13.1692 11.1638 13.0887 10.937C12.979 11.2223 12.9205 11.4125 12.7376 11.8808L12.2474 13.1758C12.5035 13.1758 12.8107 13.1758 13.1034 13.1758C13.396 13.1758 13.6448 13.1758 13.835 13.1758L13.4107 11.8954Z" fill="#231815"/>
<path d="M21.7074 11.4933C21.7074 11.5519 21.7074 11.5811 21.6269 11.5958C21.5465 11.6104 21.5392 11.5958 21.5026 11.5372C21.3357 11.1901 21.102 10.8793 20.8148 10.6227C20.5325 10.4023 20.1853 10.2814 19.8271 10.2788C18.7151 10.2788 17.8517 11.2739 17.8517 12.7956C17.8277 13.0841 17.861 13.3744 17.9497 13.6499C18.0383 13.9254 18.1805 14.1807 18.3682 14.401C18.5559 14.6213 18.7853 14.8023 19.0432 14.9336C19.3011 15.065 19.5825 15.144 19.871 15.1661C20.248 15.1818 20.6223 15.0957 20.9544 14.9167C21.2866 14.7378 21.5644 14.4726 21.7586 14.1492C21.7586 14.1126 21.8099 14.0979 21.9123 14.1492C22.0147 14.2004 22.0001 14.2223 21.9708 14.2809C21.758 14.6946 21.4316 15.039 21.0298 15.2736C20.628 15.5082 20.1676 15.6232 19.7028 15.6051C19.3234 15.6316 18.9427 15.5788 18.5849 15.4499C18.2271 15.3211 17.9001 15.1191 17.6247 14.8568C17.3493 14.5945 17.1317 14.2777 16.9856 13.9266C16.8395 13.5755 16.7682 13.1978 16.7762 12.8176C16.7736 12.4392 16.8486 12.0644 16.9967 11.7162C17.1447 11.368 17.3626 11.0538 17.637 10.7932C17.9113 10.5326 18.2362 10.3311 18.5915 10.2011C18.9468 10.0711 19.325 10.0154 19.7028 10.0374C20.0309 10.0406 20.3575 10.0824 20.6758 10.1618C20.9564 10.2402 21.2489 10.2674 21.5392 10.2423C21.605 10.6081 21.6562 11.1129 21.7074 11.4933Z" fill="#231815"/>
<path d="M24.3485 14.1339C24.3179 14.4335 24.3554 14.7361 24.4583 15.0191C24.5753 15.2167 24.8534 15.2313 25.1899 15.2313C25.6568 15.2761 26.1243 15.1515 26.5068 14.8801C26.7504 14.6716 26.958 14.4244 27.1214 14.1485C27.1214 14.0973 27.1726 14.0753 27.2458 14.0973C27.319 14.1192 27.3409 14.1558 27.3336 14.1997C27.2317 14.6408 27.0972 15.0736 26.9312 15.4947H24.9119C24.2315 15.4947 23.4925 15.4947 22.8121 15.4947C22.7536 15.4947 22.739 15.4947 22.739 15.4069C22.739 15.3191 22.739 15.3191 22.8121 15.3118C23.1048 15.3118 23.2365 15.3118 23.3169 15.1216C23.4188 14.8079 23.4537 14.4764 23.4194 14.1485V11.4781C23.4194 10.7464 23.4194 10.6806 23.3243 10.5196C23.2292 10.3587 23.0901 10.3733 22.7609 10.344C22.7097 10.344 22.6951 10.344 22.6951 10.2489C22.6951 10.1538 22.6951 10.1538 22.7609 10.1538C23.4413 10.1538 24.151 10.1538 24.8021 10.1538C25.4533 10.1538 26.1118 10.1538 26.7775 10.1538C26.7775 10.5196 26.8653 11.0098 26.9239 11.3903C26.9239 11.4342 26.9239 11.4634 26.8434 11.4781C26.7629 11.4927 26.7263 11.4781 26.7117 11.4268C26.598 11.1439 26.4172 10.8928 26.1849 10.6952C25.8445 10.476 25.4382 10.3828 25.0363 10.4318C24.7583 10.4318 24.5168 10.4318 24.4144 10.6147C24.3346 10.9026 24.3098 11.2029 24.3412 11.5V12.5682H24.7729C25.1032 12.5964 25.4353 12.5411 25.7386 12.4072C25.8993 12.2865 26.0068 12.1082 26.0386 11.9097C26.0386 11.8658 26.0386 11.8439 26.1557 11.8439C26.2727 11.8439 26.2508 11.8439 26.2508 11.917C26.2508 12.1804 26.2508 12.4365 26.2508 12.6487C26.2508 12.8608 26.2508 13.234 26.2508 13.4974C26.2508 13.5559 26.2508 13.5778 26.1557 13.5778C26.0606 13.5778 26.0532 13.5778 26.0386 13.5047C26.0019 13.292 25.8935 13.0983 25.7313 12.9559C25.4297 12.8241 25.1016 12.764 24.7729 12.7804H24.3412L24.3485 14.1339Z" fill="#231815"/>
<path d="M35.9084 11.4933C35.9084 11.5519 35.9084 11.5811 35.8279 11.5958C35.7474 11.6104 35.7401 11.5958 35.7035 11.5372C35.5367 11.1901 35.303 10.8793 35.0158 10.6227C34.7329 10.4033 34.386 10.2825 34.0281 10.2788C32.916 10.2788 32.0527 11.2739 32.0527 12.7956C32.0286 13.0835 32.0617 13.3733 32.1498 13.6483C32.238 13.9234 32.3796 14.1783 32.5666 14.3986C32.7535 14.6188 32.982 14.7999 33.2391 14.9317C33.4962 15.0634 33.7767 15.1431 34.0646 15.1661C34.4428 15.1832 34.8186 15.0977 35.1522 14.9186C35.4858 14.7396 35.7647 14.4737 35.9596 14.1492C35.9596 14.1126 36.0108 14.0979 36.1132 14.1492C36.2156 14.2004 36.201 14.2223 36.1644 14.2809C35.9536 14.6946 35.6286 15.0392 35.2279 15.2739C34.8272 15.5086 34.3677 15.6235 33.9037 15.6051C33.5243 15.6316 33.1436 15.5788 32.7858 15.4499C32.428 15.3211 32.101 15.1191 31.8256 14.8568C31.5503 14.5945 31.3326 14.2777 31.1865 13.9266C31.0404 13.5755 30.9691 13.1978 30.9772 12.8176C30.9745 12.4392 31.0496 12.0644 31.1976 11.7162C31.3457 11.368 31.5636 11.0538 31.8379 10.7932C32.1122 10.5326 32.4371 10.3311 32.7924 10.2011C33.1477 10.0711 33.526 10.0154 33.9037 10.0374C34.2318 10.0406 34.5584 10.0824 34.8768 10.1618C35.1574 10.2402 35.4498 10.2674 35.7401 10.2423C35.8059 10.6081 35.8571 11.1129 35.9084 11.4933Z" fill="#231815"/>
<path d="M42.9027 12.803C42.9453 13.4006 42.8071 13.9971 42.506 14.5151C42.205 15.0331 41.755 15.4485 41.2147 15.7073C40.6744 15.9661 40.0687 16.0563 39.4764 15.9662C38.8841 15.8762 38.3326 15.6099 37.8936 15.2022C37.4547 14.7944 37.1486 14.264 37.0152 13.68C36.8817 13.0959 36.9271 12.4852 37.1455 11.9273C37.3638 11.3694 37.7449 10.8901 38.2394 10.5517C38.7338 10.2134 39.3186 10.0316 39.9177 10.0301C40.2993 10.0008 40.6828 10.0508 41.0441 10.177C41.4054 10.3032 41.7367 10.5028 42.017 10.7633C42.2974 11.0237 42.5209 11.3394 42.6733 11.6904C42.8257 12.0415 42.9038 12.4203 42.9027 12.803ZM38.0081 12.803C38.0081 14.3467 38.7398 15.349 39.9177 15.349C41.0956 15.349 41.8345 14.3467 41.8345 12.8249C41.8345 11.3031 41.0517 10.3008 39.9177 10.3008C38.7837 10.3008 38.0081 11.2885 38.0081 12.803Z" fill="#231815"/>
<path d="M48.646 11.4782C48.6613 11.1808 48.6113 10.8836 48.4996 10.6076C48.4233 10.5256 48.3302 10.4609 48.2267 10.418C48.1232 10.3751 48.0117 10.3549 47.8997 10.3588C47.8412 10.3588 47.8265 10.3588 47.8265 10.2491C47.8265 10.1393 47.8265 10.1539 47.8997 10.1539H48.8289H49.6922C49.7434 10.1539 49.758 10.1539 49.758 10.2417C49.758 10.3295 49.758 10.3442 49.6922 10.3588C49.5936 10.3573 49.4961 10.3798 49.4081 10.4244C49.3202 10.469 49.2444 10.5344 49.1874 10.6149C49.0479 10.8802 48.9846 11.1791 49.0045 11.4782V12.4074C49.0045 12.8756 49.0045 13.3292 49.0045 13.7609C49.0178 14.0185 48.9719 14.2757 48.8705 14.5128C48.769 14.75 48.6147 14.9608 48.4192 15.129C47.9904 15.4646 47.4559 15.6358 46.912 15.6119C46.2537 15.6548 45.6034 15.4485 45.0902 15.0339C44.9283 14.8888 44.8019 14.7085 44.7207 14.5068C44.6395 14.3051 44.6057 14.0874 44.622 13.8706C44.622 13.4243 44.622 12.9049 44.622 12.4074V11.4562C44.622 10.7685 44.622 10.6807 44.5269 10.5198C44.4318 10.3588 44.2855 10.3588 43.9489 10.3369C43.8977 10.3369 43.8904 10.3369 43.8904 10.2271C43.8904 10.1174 43.8904 10.132 43.9489 10.132H45.0463H46.1657C46.2243 10.132 46.2389 10.132 46.2389 10.2271C46.2389 10.3222 46.2389 10.3222 46.1657 10.3369C45.8584 10.3369 45.7121 10.3369 45.6317 10.5198C45.5287 10.8205 45.4937 11.1403 45.5292 11.4562V12.422C45.5292 12.7366 45.5292 13.0731 45.5292 13.3877C45.5292 14.0389 45.5292 14.4705 45.9243 14.7851C46.2207 15.0403 46.6015 15.176 46.9925 15.1656C47.2241 15.186 47.4575 15.1596 47.6787 15.0879C47.8999 15.0163 48.1044 14.9009 48.2801 14.7486C48.4244 14.5966 48.5344 14.4153 48.6025 14.2172C48.6707 14.019 48.6955 13.8085 48.6752 13.5999C48.6752 13.2341 48.6752 12.8683 48.6752 12.3854L48.646 11.4782Z" fill="#231815"/>
<path d="M52.2529 14.1268C52.2529 14.8584 52.2528 14.9608 52.3333 15.0998C52.4138 15.2389 52.604 15.2608 52.926 15.2901C52.9772 15.2901 52.9918 15.2901 52.9918 15.3925C52.9918 15.4949 52.9918 15.4803 52.9113 15.4803C52.5601 15.4803 52.1797 15.4803 51.8139 15.4803C51.4481 15.4803 51.0823 15.4803 50.753 15.4803C50.6872 15.4803 50.6725 15.4803 50.6725 15.3925C50.6725 15.3047 50.6725 15.2974 50.753 15.2901C51.031 15.2901 51.2066 15.2901 51.2798 15.0998C51.3781 14.7855 51.4105 14.4542 51.3749 14.1268V11.4783C51.3749 10.7467 51.3749 10.6881 51.2944 10.5272C51.2139 10.3662 50.9871 10.3735 50.6725 10.3443C50.6213 10.3443 50.6067 10.3443 50.6067 10.2418C50.6067 10.1394 50.6067 10.154 50.6725 10.154H51.77C52.0626 10.154 52.5601 10.154 53.043 10.154C54.5648 10.154 55.1428 10.7467 55.1428 11.5149C55.1428 12.0636 54.7477 12.605 53.8551 12.8245C54.1844 13.3952 54.5867 14.0097 54.9672 14.6389C55.0793 14.8509 55.2337 15.0376 55.4208 15.1876C55.5662 15.2601 55.7266 15.2977 55.889 15.2974C55.9329 15.2974 55.9476 15.2974 55.9476 15.3925C55.9476 15.4876 55.9476 15.4876 55.889 15.4876C55.5671 15.4876 55.3184 15.4876 55.0696 15.4876H54.338C54.2602 15.2905 54.1673 15.0997 54.06 14.9169C53.6795 14.2585 53.3284 13.6439 52.9479 12.9854H52.6991C52.5455 12.9854 52.4138 12.9854 52.2236 12.9854L52.2529 14.1268ZM52.2529 12.6635C52.4185 12.6738 52.5847 12.6738 52.7504 12.6635C53.7893 12.6635 54.1624 12.1441 54.1624 11.4856C54.1624 10.8271 53.7746 10.3296 52.8894 10.3296C52.6845 10.3296 52.4431 10.3296 52.3333 10.4613C52.2423 10.7696 52.2149 11.0932 52.2529 11.4124V12.6635Z" fill="#231815"/>
<path d="M58.5593 11.4781C58.5593 10.805 58.5593 10.6879 58.4715 10.5416C58.3837 10.3952 58.23 10.4099 58.0398 10.4099C57.713 10.3939 57.3897 10.4837 57.118 10.6659C56.8828 10.8861 56.696 11.1527 56.5692 11.4488C56.5692 11.4488 56.5693 11.5073 56.4449 11.4927C56.3205 11.4781 56.3571 11.4561 56.3571 11.4122C56.4229 11.0391 56.4741 10.5196 56.5034 10.1538C57.3814 10.1538 58.2008 10.1538 59.0348 10.1538C59.8689 10.1538 60.6956 10.1538 61.5809 10.1538C61.5809 10.5196 61.6687 11.0391 61.7199 11.4122C61.7199 11.4561 61.7199 11.4781 61.6394 11.4927C61.5589 11.5073 61.5224 11.4927 61.5077 11.4488C61.3925 11.1483 61.2068 10.8798 60.9663 10.6659C60.6924 10.4765 60.3621 10.3862 60.0298 10.4099C59.8396 10.4099 59.686 10.4099 59.5762 10.5562C59.4705 10.8513 59.4354 11.167 59.4738 11.4781V14.1339C59.4738 14.8655 59.4738 14.946 59.547 15.1069C59.6201 15.2679 59.8469 15.2606 60.1396 15.2898C60.1908 15.2898 60.2054 15.2898 60.2054 15.3849C60.2054 15.4801 60.2054 15.4801 60.125 15.4801C59.7957 15.4801 59.3933 15.4801 59.0202 15.4801C58.6471 15.4801 58.2886 15.4801 57.9593 15.4801C57.9081 15.4801 57.8862 15.4801 57.8862 15.3923C57.8862 15.3045 57.8862 15.2972 57.9593 15.2898C58.23 15.2898 58.4056 15.2898 58.4934 15.1069C58.5727 14.789 58.595 14.4596 58.5593 14.1339V11.4781Z" fill="#231815"/>
</svg>
