<svg width="40" height="33" fill="none" xmlns="http://www.w3.org/2000/svg"><path fill-rule="evenodd" clip-rule="evenodd" d="M23.75 7.417c0 3.752-6.19 13.208-6.5 13.208-.308 0-6.5-9.456-6.5-13.208 0-3.75 2.91-6.792 6.5-6.792s6.5 3.042 6.5 6.792Zm-6.5-2.598c-1.372 0-2.485 1.163-2.485 2.598 0 1.435 1.113 2.598 2.485 2.598 1.374 0 2.487-1.163 2.487-2.598 0-1.435-1.113-2.598-2.486-2.598ZM9.228 17.375h3.91a66.395 66.395 0 0 1-.85-1.5H8.272l-.202.433-7 15-.498 1.067H39.428l-.498-1.067-7-15-.202-.433h-9.18a66.391 66.391 0 0 1-.85 1.5h4.344c.07.165.143.35.215.546l.94-.344-.077-.202h3.652l6.3 13.5H21.65l-.045-.334-.992.131.028.203h-7.39l.005-.22v-.02c.003-.155.005-.317.006-.482l-1-.004c0 .158-.003.313-.006.47v.017l-.004.239H2.928l3.562-7.633.22.076c.102.035.205.07.308.107l.33-.944-.327-.114H7.02l-.105-.036 2.313-4.956Zm.32 7.277a8.038 8.038 0 0 0-1.632-.889l.384-.923a9.025 9.025 0 0 1 1.833 1.001l-.584.811Zm1.302 1.273a5.925 5.925 0 0 0-.601-.685l.698-.716c.245.24.481.505.703.801.219.292.409.575.574.851l-.858.514a8.815 8.815 0 0 0-.516-.765Zm1.375 3.302a5.692 5.692 0 0 0-.444-1.73l.918-.396c.317.735.46 1.406.521 2.028l-.995.098Zm15.524-9.102c0-.428-.073-.886-.178-1.324l-.973.232c.095.395.151.77.151 1.092 0 .31.016.59.027.781.005.082.009.147.01.192l1-.026c-.003-.106-.009-.2-.015-.299a9.332 9.332 0 0 1-.022-.648Zm-1.145 2.854.01-.01c.291-.292.515-.516.678-.698l-.743-.668c-.143.159-.348.364-.653.668a3.9 3.9 0 0 1-.627.512l.548.836c.263-.172.526-.38.787-.64ZM24.4 24.314c.17-.069.349-.142.54-.227l-.404-.914c-.136.06-.283.12-.436.183-.404.164-.854.347-1.28.607l.52.854c.355-.216.688-.351 1.06-.503Zm-2.25 1.611c.185-.247.368-.45.548-.618l-.685-.73c-.224.211-.445.457-.663.748-.24.32-.418.671-.55 1.038l.942.337a2.93 2.93 0 0 1 .408-.775Zm-.653 3.62c-.05-.643-.06-1.315.03-1.945l-.99-.14c-.104.73-.09 1.482-.037 2.163l.997-.079Z" fill="#fff"/></svg>