<svg width="18" height="24" viewBox="0 0 18 24" fill="none" xmlns="http://www.w3.org/2000/svg">
<path d="M14.8013 6.38318H2.69922V7.40446H14.8013V6.38318Z" fill="#003616"/>
<path d="M14.8013 3.01294H2.69922V4.03422H14.8013V3.01294Z" fill="#003616"/>
<path d="M14.8013 13.1742H2.69922V14.1955H14.8013V13.1742Z" fill="#003616"/>
<path d="M14.8013 9.80396H2.69922V10.8252H14.8013V9.80396Z" fill="#003616"/>
<path d="M14.7501 19.9658H8.72461V20.9871H14.7501V19.9658Z" fill="#003616"/>
<path d="M14.7501 16.5955H8.72461V17.6167H14.7501V16.5955Z" fill="#003616"/>
<path d="M0.350046 18.6383L5.45643 23.7447L5.71175 24H17.4054V0H0.0947266V18.434L0.350046 18.6383ZM5.3543 22.2638L1.8309 18.7404H5.3543V22.2638ZM16.333 1.02128V22.9787H6.37558V17.7191H1.116V1.02128H16.333Z" fill="#003616"/>
</svg>
