<svg width="18" height="25" viewBox="0 0 18 25" fill="none" xmlns="http://www.w3.org/2000/svg">
<path d="M14.9268 6.8833H2.82471V7.90458H14.9268V6.8833Z" fill="#00A7AE"/>
<path d="M14.9268 3.5127H2.82471V4.53397H14.9268V3.5127Z" fill="#00A7AE"/>
<path d="M14.9268 13.6743H2.82471V14.6956H14.9268V13.6743Z" fill="#00A7AE"/>
<path d="M14.9268 10.3037H2.82471V11.325H14.9268V10.3037Z" fill="#00A7AE"/>
<path d="M14.8751 20.4658H8.84961V21.4871H14.8751V20.4658Z" fill="#00A7AE"/>
<path d="M14.8751 17.0957H8.84961V18.117H14.8751V17.0957Z" fill="#00A7AE"/>
<path d="M0.475046 19.1383L5.58143 24.2447L5.83675 24.5H17.5304V0.5H0.219727V18.934L0.475046 19.1383ZM5.4793 22.7638L1.9559 19.2404H5.4793V22.7638ZM16.458 1.52128V23.4787H6.50058V18.2191H1.241V1.52128H16.458Z" fill="#00A7AE"/>
</svg>
