<svg width="28" height="28" viewBox="0 0 28 28" fill="none" xmlns="http://www.w3.org/2000/svg">
<path d="M18.6667 14H21.7778C21.7778 11.9372 20.9583 9.9589 19.4997 8.50028C18.0411 7.04166 16.0628 6.22222 14 6.22222V9.33333C15.2377 9.33333 16.4247 9.825 17.2998 10.7002C18.175 11.5753 18.6667 12.7623 18.6667 14ZM24.8889 14H28C28 6.22222 21.7311 0 14 0V3.11111C20.0044 3.11111 24.8889 7.98 24.8889 14ZM26.4444 19.4444C24.5 19.4444 22.6333 19.1333 20.8911 18.5578C20.3467 18.3867 19.74 18.5111 19.3044 18.9467L15.8822 22.3689C11.4696 20.1185 7.88154 16.5304 5.63111 12.1178L9.05333 8.69556C9.48889 8.26 9.61333 7.65333 9.44222 7.10889C8.85212 5.31698 8.55278 3.44213 8.55556 1.55556C8.55556 1.143 8.39167 0.747335 8.09994 0.455612C7.80822 0.163888 7.41256 0 7 0H1.55556C1.143 0 0.747335 0.163888 0.455612 0.455612C0.163888 0.747335 0 1.143 0 1.55556C0 8.56906 2.7861 15.2953 7.7454 20.2546C12.7047 25.2139 19.4309 28 26.4444 28C26.857 28 27.2527 27.8361 27.5444 27.5444C27.8361 27.2527 28 26.857 28 26.4444V21C28 20.5874 27.8361 20.1918 27.5444 19.9001C27.2527 19.6083 26.857 19.4444 26.4444 19.4444Z" fill="white"/>
</svg>
