<svg width="265" height="134" viewBox="0 0 265 134" fill="none" xmlns="http://www.w3.org/2000/svg">
<path d="M175.17 83.9376L264.86 133.558L171.97 101.218" fill="#004C94"/>
<path d="M0.000183105 106.37L264.575 106.37L264.575 0L0.00018311 -1.08186e-08L0.000183105 106.37Z" fill="#004C94"/>
<path d="M80.1389 56.7793C79.8766 56.8783 79.837 56.9426 79.451 57.586C77.308 61.1592 76.14 63.1191 73.23 65.163C71.4335 66.4349 69.1074 67.5287 67.6128 67.8108L67.5732 67.6871C69.835 66.5339 73.0073 63.6882 75.3482 60.4367C76.0757 59.4271 77.793 56.2151 77.793 56.1557C77.793 56.032 77.6743 56.032 77.6099 56.032C77.1249 56.032 74.6801 56.5368 74.5811 56.5368C74.3386 56.5368 73.8734 56.2547 73.6507 56.0914C71.9729 58.0908 70.4189 59.9269 67.8751 60.8969L67.7959 60.7782C70.706 57.9275 72.9875 53.9287 72.9875 53.2853C72.9875 52.8399 72.5817 52.5974 71.7552 52.1322C72.4827 51.9095 72.9083 51.9095 72.9677 51.9095C73.5962 51.9095 75.7144 52.8795 75.7144 53.6466C75.7144 53.8297 75.6748 53.8693 75.1502 54.3543C75.0463 54.4533 74.7048 54.7799 74.3633 55.2006C76.3628 55.2204 77.8178 54.8987 77.9811 54.7947C78.1246 54.6958 78.8274 54.1662 78.9709 54.1662C79.1342 54.1662 80.4259 55.255 80.6486 55.4382C80.9703 55.7202 81.0743 55.8044 81.0743 56.0221C81.0693 56.4131 80.7872 56.517 80.1389 56.7793ZM81.5741 54.8987C81.2524 54.8987 81.0495 54.6364 80.8268 54.3741C80.1389 53.4833 79.5153 52.6766 78.4414 52.1322C79.9558 52.053 82.2175 52.8003 82.2175 54.1316C82.2224 54.6562 81.8364 54.8987 81.5741 54.8987ZM83.5339 53.9287C83.232 53.9287 83.1677 53.8495 82.4847 52.9983C82.3214 52.7756 81.6384 51.9095 80.322 51.3403C82.3016 51.2611 84.2021 51.8847 84.2021 53.1566C84.2021 53.4635 84.0981 53.9287 83.5339 53.9287Z" fill="white"/>
<path d="M100.084 58.2938C99.6583 58.5561 99.5989 58.6551 99.1139 59.6697C98.2676 61.4662 97.258 63.6091 94.7092 65.5887C93.5759 66.4795 91.5171 67.791 89.196 68.0138L89.1762 67.8702C91.2795 66.8012 95.9613 63.2825 97.3768 57.8484C94.3875 58.0315 90.8737 58.8184 90.2848 59.0411C90.161 59.0807 89.4979 59.3826 89.394 59.3826C88.7456 59.3826 87.3945 58.0266 87.3945 56.7992C87.3945 56.4577 87.4737 56.2152 87.637 55.8886C88.3646 57.2397 89.295 57.2397 89.8988 57.2397C91.23 57.2397 97.0897 56.6557 97.4955 56.4924C97.6391 56.3934 98.2231 55.948 98.3418 55.8638C98.421 55.8044 98.5052 55.7846 98.6239 55.7846C98.9258 55.7846 100.643 57.1357 100.643 57.6653C100.648 57.9276 100.465 58.0711 100.084 58.2938ZM97.0749 54.3544C95.8822 54.3544 93.1552 54.5969 92.0466 54.7998C91.136 54.9631 91.037 54.9829 90.7945 54.9829C90.0274 54.9829 89.0376 53.8941 89.0376 52.7608C89.0376 52.637 89.0574 52.5777 89.097 52.3748C89.9631 53.221 90.8737 53.2656 91.6408 53.2656C93.8827 53.2656 95.6199 52.8202 96.0455 52.6816C96.5107 52.5183 96.8918 52.3995 97.0749 52.3995C97.5995 52.3995 99.1337 52.8053 99.1337 53.6516C99.1337 54.3148 98.4062 54.3346 97.0749 54.3544Z" fill="white"/>
<path d="M111.758 56.3537C111.352 56.3537 111.155 56.1309 110.303 55.2005C109.333 54.1117 108.324 53.2803 107.052 52.7953C107.477 52.7161 107.923 52.632 108.566 52.632C109.699 52.632 112.827 52.9982 112.827 55.1362C112.832 55.928 112.224 56.3537 111.758 56.3537ZM114.851 62.6538C114.267 63.1388 111.214 65.5243 111.095 65.643C110.531 66.227 110.467 66.2914 110.185 66.2914C109.313 66.2914 107.66 64.3513 107.66 63.0596C107.66 62.6736 107.784 62.3519 107.863 62.1094C108.71 63.5248 109.417 63.5446 109.502 63.5446C110.066 63.5446 112.916 61.664 114.574 60.4317C117.039 58.5956 119.34 56.3289 120.959 54.3097L121.082 54.3691C120.528 56.2101 118.529 59.6646 114.851 62.6538Z" fill="white"/>
<path d="M138.592 55.9084C138.31 56.0717 138.127 56.2103 137.924 56.8586C135.905 63.0796 132.228 66.049 127.521 67.2615L127.462 67.0784C132.47 64.495 135.826 58.2295 136.148 55.0373C135.217 55.0571 130.09 55.8836 128.917 56.2103C128.694 56.2697 127.625 56.7151 127.541 56.7151C127.036 56.7151 125.601 55.463 125.601 53.9882C125.601 53.4833 125.745 53.1814 125.844 52.9587C126.814 54.1119 127.056 54.4138 128.387 54.4138C129.941 54.4138 135.598 53.9684 136.187 53.6467C136.35 53.5675 137.033 53.0825 137.197 53.0825C137.499 53.0825 138.691 54.2554 138.954 54.5177C139.157 54.7206 139.275 54.9037 139.275 55.1858C139.275 55.5471 139.216 55.5669 138.592 55.9084Z" fill="white"/>
<path d="M156.775 58.4125C156.414 58.4521 156.27 58.5115 155.078 59.239C154.553 59.5607 153.444 60.0853 152.816 60.3526C152.737 60.6545 152.37 62.0105 152.291 62.2728C151.242 65.4056 150.049 66.5735 147.946 67.8059L147.847 67.6425C150.411 64.9552 151.158 60.5901 151.158 60.1299C151.158 59.6251 150.876 59.5013 150.025 59.1598C150.307 59.0361 150.628 58.8976 151.074 58.8976C151.861 58.8976 152.732 59.3826 152.949 59.6449C153.192 59.442 154.221 58.5115 154.929 57.3436C153.355 57.4425 150.386 57.7692 148.565 58.3136C148.401 58.3532 147.654 58.6996 147.496 58.6996C147.07 58.6996 146.001 57.7692 146.001 56.8833C146.001 56.3389 146.144 56.0964 146.263 55.8539C146.649 56.5814 146.907 56.9427 147.698 56.9427C149.455 56.9427 154.83 56.3785 154.974 56.3389C155.137 56.2993 155.78 55.9529 155.924 55.9529C156.067 55.9529 156.186 56.0518 156.409 56.3141C157.478 57.6256 157.602 57.789 157.602 57.9919C157.602 58.3532 157.458 58.3531 156.775 58.4125Z" fill="white"/>
<path d="M177.423 60.3922C177.081 60.3922 176.576 60.3527 176.492 60.3527C175.319 60.2735 172.632 60.2735 171.177 60.2735C170.954 60.2735 166.936 60.3526 165.52 60.7387C164.976 60.8822 164.917 60.902 164.793 60.902C164.105 60.902 162.873 59.348 162.873 58.3186C162.873 57.8534 163.174 57.2298 163.298 56.9873C163.966 58.5611 164.328 58.6452 166.589 58.6452C167.841 58.6452 174.914 58.566 175.394 58.4027C175.537 58.3433 176.062 58.1998 176.2 58.1998C177.007 58.1998 178.705 58.5413 178.705 59.5954C178.714 60.0903 178.19 60.3922 177.423 60.3922Z" fill="white"/>
<path d="M188.474 65.9896C188.048 66.2519 188.008 66.2915 187.647 66.6775C187.464 66.8606 187.345 66.8804 187.281 66.8804C186.677 66.8804 185.425 64.7573 185.425 64.4752C185.425 64.3118 185.707 63.6685 185.747 63.5448C185.89 63.1389 185.89 61.1593 185.89 59.9468C185.89 59.442 185.851 54.3692 185.707 53.9485C185.564 53.5427 185.163 53.3646 183.99 52.9983C184.574 52.6568 185.098 52.35 185.687 52.35C186.474 52.35 188.474 53.0577 188.474 53.706C188.474 53.909 188.112 54.7948 188.073 54.978C187.87 55.948 187.608 60.7535 187.608 62.3916C187.608 62.9558 187.627 63.3418 187.647 63.7477C192.898 61.6889 197.184 57.5069 197.887 56.715L198.03 56.8388C195.684 61.5651 192.898 63.2825 188.474 65.9896Z" fill="white"/>
<path d="M54.1415 86.2956V86.4787C54.1415 88.3148 52.8498 88.7404 52.1223 88.8443C52.0629 87.6516 51.6571 86.9439 51.3948 86.7014C51.3948 87.4685 51.4541 91.2446 51.4541 92.0959C51.4541 92.7838 50.9691 93.0857 50.2812 93.0857C49.5537 93.0857 49.5537 92.6996 49.5537 92.4175C49.5537 92.175 49.6131 90.9823 49.6131 90.7002C49.6527 88.2158 49.6725 85.672 49.6725 83.1876C49.6725 82.0542 49.6725 81.7523 49.6329 78.6245H48.7025V79.0501C48.7025 80.4012 48.7817 87.0676 48.7817 88.587C48.7817 89.0324 48.7817 89.656 47.7325 89.656C47.0841 89.656 47.0841 89.2699 47.0841 89.0076C47.0841 88.2603 47.1633 84.5238 47.1633 83.6726C47.1633 82.1582 47.1633 78.4612 47 77.2487L48.8163 78.1395H49.623C49.5834 75.3334 49.5834 75.0068 49.3013 74.2001L51.6026 74.8484C51.9045 74.9276 52.0678 75.0315 52.0678 75.2097C52.0678 75.4522 51.7214 75.6551 51.3403 75.8778C51.3601 76.0411 51.3601 77.8376 51.3601 78.1395H52.2312L52.736 77.4912C52.8399 77.3724 52.8993 77.2883 52.9982 77.2883C53.0774 77.2883 53.221 77.3675 53.3199 77.4714L54.4533 78.4216C54.5523 78.5206 54.6562 78.6245 54.6562 78.7631C54.6562 78.9858 54.5968 79.0254 54.0277 79.451C54.0474 80.3616 54.1068 84.8455 54.1266 85.8551C54.9531 85.9145 55.9429 85.9541 56.7942 85.9541H58.1898C58.1898 85.5928 58.2096 83.732 58.2096 83.3063C58.2096 82.4996 58.2096 82.1928 57.9869 80.9605L60.209 81.6286C60.5703 81.7276 60.595 81.8513 60.595 81.9305C60.595 82.0493 60.595 82.1532 59.9467 82.4947V85.9491H62.3916L62.9755 84.8999C63.0547 84.7564 63.1587 84.6376 63.2774 84.6376C63.4012 84.6376 63.5001 84.7168 63.6635 84.8603L64.8562 85.9095C64.9601 86.0085 65.0591 86.0927 65.0591 86.2114C65.0591 86.4341 64.8562 86.4341 64.7572 86.4341H60.7188V89.3046C60.7188 89.4481 60.7386 90.0915 60.7386 90.235C60.7386 90.7398 60.8178 90.819 61.5255 90.819C62.5549 90.819 62.7182 90.7794 62.9409 90.3538C63.0003 90.2301 63.3022 89.6263 63.7476 88.2108H63.9109C63.9703 88.7552 64.0742 89.2205 64.1732 89.7649C64.2524 90.2697 64.2722 90.3934 64.5592 90.5913C64.9007 90.8338 65.0442 90.9328 65.0442 91.2595C65.0442 91.4624 64.9403 91.8039 64.6186 92.1057C64.3167 92.4076 63.9901 92.7343 61.2632 92.7343C59.9913 92.7343 58.9619 92.5511 58.9619 91.2001V86.4341H56.9624L58.076 86.7558C58.3581 86.835 58.5808 86.9191 58.5808 87.1171C58.5808 87.3794 58.076 87.5031 57.9127 87.5625C57.1456 90.3686 54.9432 92.0464 51.9936 92.8333L51.9144 92.6897C55.2451 90.5468 55.8934 88.1861 56.0766 86.4292C55.2303 86.449 54.9036 86.449 54.2603 86.5727L54.1415 86.2956ZM51.37 78.6196C51.3502 81.589 51.3502 82.074 51.3898 86.4193C51.5135 86.4193 51.7313 86.4391 51.9738 86.4391C52.3796 86.4391 52.3994 86.4391 52.3994 86.2164V84.9049C52.3994 83.9547 52.3796 79.7133 52.3796 78.8423V78.6196H51.37ZM54.8047 82.0344C56.4626 82.4403 57.5316 83.2469 57.5316 84.2763C57.5316 84.9049 57.007 85.3651 56.4824 85.3651C55.6955 85.3651 55.5916 84.598 55.4926 83.9497C55.3293 82.8411 54.9878 82.4551 54.7453 82.1928L54.8047 82.0344ZM61.2483 75.5066L61.7729 74.7791C61.8917 74.6158 61.956 74.5168 62.055 74.5168C62.154 74.5168 62.2975 74.6158 62.4163 74.6999L63.7921 75.67C63.9109 75.7491 63.995 75.8531 63.995 75.9916C63.995 76.2143 63.4309 76.64 63.3269 76.7192C63.3269 77.2833 63.3863 79.7876 63.3863 80.2924C63.3863 81.1584 62.9607 81.6237 62.0748 81.6237C61.5304 81.6237 61.3671 81.3811 61.3671 80.817H56.9031C56.8833 81.9057 55.8736 81.9058 55.6509 81.9058C55.067 81.9058 54.963 81.5643 54.963 81.2178C54.963 80.7526 55.0422 78.7136 55.0422 78.288C55.0422 76.2688 55.0026 75.9025 54.8591 74.591L57.002 75.5017H61.2483V75.5066ZM56.908 75.9916V77.8525H61.3721V75.9916H56.908ZM56.908 78.3375V80.3369H61.3721V78.3375H56.908ZM63.5348 82.8411C63.7179 82.9401 63.7971 83.0045 63.7971 83.1232C63.7971 83.4251 63.515 83.4251 63.1488 83.4449C62.8073 83.7666 62.3817 84.212 60.501 85.5037L60.3822 85.38C61.1691 83.6231 61.4116 82.2472 61.4512 81.7622L63.5348 82.8411Z" fill="white"/>
<path d="M83.6333 76.8626H77.3084V80.3764H79.8522L80.5599 79.4262C80.6391 79.3025 80.7035 79.2233 80.8024 79.2233C80.8816 79.2233 80.946 79.2827 81.0647 79.3668L82.5396 80.5001C82.6583 80.5991 82.7623 80.7031 82.7623 80.8218C82.7623 81.0445 82.5594 81.2079 82.1387 81.5098C82.0991 84.6029 82.1783 88.2355 82.2179 89.448C82.2377 89.7895 82.3416 91.3287 82.3416 91.6504C82.3416 91.9918 82.2822 92.2343 82.0397 92.4372C81.6982 92.6995 81.233 92.7985 80.9064 92.7985C79.9958 92.7985 80.0353 92.1947 80.0799 91.6058H69.6176C69.6176 92.8777 68.2813 92.8777 68.1626 92.8777C67.3559 92.8777 67.3361 92.4125 67.3361 92.2096C67.3361 92.0859 67.3757 91.3633 67.3757 91.2594C67.4153 90.329 67.4944 86.7359 67.4944 83.7269C67.4944 81.0198 67.4351 80.3715 67.2321 79.2431L69.8997 80.3764H71.7358V76.8626H68.2616C66.8659 76.8626 66.465 76.9418 66.079 77.0061L65.7573 76.2588C66.7075 76.338 67.6578 76.3825 68.6278 76.3825H80.3422L81.3716 75.071C81.4953 74.9077 81.5745 74.8087 81.6735 74.8087C81.7725 74.8087 81.8764 74.8879 82.0595 75.0314L83.7372 76.3429C83.8164 76.4023 83.9402 76.526 83.9402 76.6448C83.9402 76.8428 83.7372 76.8626 83.6333 76.8626ZM80.0799 86.5776C79.9166 87.0626 79.6345 87.6664 77.4321 87.6664C75.7544 87.6664 75.3535 87.122 75.3535 86.0926V80.8614H73.6362C73.5372 83.7715 72.8493 86.4588 69.6176 88.4582V91.1258H80.0799V86.5776ZM69.6176 80.8614V88.2355C71.617 85.7709 71.7407 83.7319 71.7407 80.8614H69.6176ZM75.3535 76.8626H73.656V80.3764H75.3535V76.8626ZM80.0799 80.8614H77.3134V85.1423C77.3134 85.365 77.3134 85.6076 77.838 85.6076C78.2834 85.6076 78.6051 85.5284 78.9317 83.5289H79.095C79.3969 85.1423 79.4167 85.1671 80.0848 85.7907V80.8614H80.0799Z" fill="white"/>
<path d="M99.3361 81.0247C99.0738 81.1237 99.0343 81.188 98.6482 81.8314C96.5053 85.4046 95.3324 87.3644 92.4273 89.4084C90.6308 90.6803 88.3047 91.774 86.8101 92.0561L86.7705 91.9324C89.0322 90.7793 92.2046 87.9336 94.5455 84.682C95.273 83.6724 96.9903 80.4605 96.9903 80.4011C96.9903 80.2774 96.8715 80.2774 96.8072 80.2774C96.3222 80.2774 93.8773 80.7822 93.7784 80.7822C93.5359 80.7822 93.0707 80.5001 92.8479 80.3368C91.1702 82.3362 89.6162 84.1723 87.0724 85.1423L86.9932 85.0235C89.9032 82.1729 92.1848 78.174 92.1848 77.5307C92.1848 77.0852 91.7789 76.8428 90.9524 76.3775C91.68 76.1548 92.1056 76.1548 92.165 76.1548C92.7935 76.1548 94.9117 77.1249 94.9117 77.892C94.9117 78.0751 94.8721 78.1147 94.3475 78.5997C94.2485 78.6986 93.9021 79.0253 93.5606 79.4459C95.56 79.4657 97.015 79.1441 97.1784 79.0401C97.3219 78.9412 98.0247 78.4116 98.1682 78.4116C98.3315 78.4116 99.6232 79.5004 99.8459 79.6835C100.168 79.9656 100.272 80.0497 100.272 80.2675C100.262 80.6585 99.9795 80.7574 99.3361 81.0247ZM100.766 79.1441C100.445 79.1441 100.242 78.8818 100.019 78.6195C99.3312 77.7286 98.7076 76.9219 97.6337 76.3775C99.1481 76.2984 101.41 77.0457 101.41 78.377C101.415 78.9016 101.034 79.1441 100.766 79.1441ZM102.726 78.1741C102.424 78.1741 102.365 78.0949 101.677 77.2436C101.514 77.0209 100.831 76.1548 99.5143 75.5857C101.494 75.5065 103.394 76.1301 103.394 77.402C103.394 77.7088 103.295 78.1741 102.726 78.1741Z" fill="white"/>
<path d="M119.276 82.5392C118.851 82.8015 118.791 82.9005 118.306 83.915C117.46 85.7115 116.445 87.8545 113.902 89.8341C112.768 90.7249 110.709 92.0364 108.388 92.2591L108.369 92.1156C110.467 91.0466 115.154 87.5278 116.569 82.0938C113.58 82.2769 110.066 83.0638 109.477 83.2865C109.358 83.3261 108.69 83.628 108.591 83.628C107.943 83.628 106.592 82.2719 106.592 81.0446C106.592 80.7031 106.671 80.4606 106.834 80.1339C107.562 81.485 108.492 81.485 109.096 81.485C110.427 81.485 116.287 80.9011 116.693 80.7377C116.836 80.6388 117.42 80.1933 117.539 80.1092C117.618 80.0498 117.702 80.03 117.821 80.03C118.123 80.03 119.84 81.3811 119.84 81.9107C119.84 82.173 119.657 82.3165 119.276 82.5392ZM116.267 78.5997C115.074 78.5997 112.348 78.8422 111.239 79.0451C110.328 79.2085 110.229 79.2283 109.987 79.2283C109.22 79.2283 108.23 78.1395 108.23 77.0061C108.23 76.8824 108.25 76.823 108.289 76.6201C109.16 77.4664 110.066 77.5109 110.833 77.5109C113.075 77.5109 114.812 77.0655 115.238 76.927C115.703 76.7636 116.084 76.6449 116.267 76.6449C116.792 76.6449 118.326 77.0507 118.326 77.897C118.326 78.5602 117.598 78.5799 116.267 78.5997Z" fill="white"/>
<path d="M130.956 80.5991C130.55 80.5991 130.352 80.3764 129.501 79.446C128.531 78.3572 127.521 77.5257 126.25 77.0407C126.675 76.9616 127.121 76.8774 127.764 76.8774C128.897 76.8774 132.025 77.2437 132.025 79.3817C132.025 80.1735 131.416 80.5991 130.956 80.5991ZM134.044 86.8993C133.46 87.3843 130.407 89.7697 130.288 89.8885C129.724 90.4725 129.659 90.5368 129.377 90.5368C128.506 90.5368 126.853 88.5968 126.853 87.3051C126.853 86.919 126.977 86.5974 127.056 86.3549C127.902 87.7703 128.61 87.7901 128.694 87.7901C129.259 87.7901 132.109 85.9094 133.767 84.6771C136.232 82.841 138.533 80.5744 140.151 78.5551L140.275 78.6145C139.721 80.4556 137.721 83.91 134.044 86.8993Z" fill="white"/>
<path d="M149.579 83.9695C149.258 83.9695 149.094 83.8457 148.471 83.3657C146.471 81.7919 145.724 81.485 144.675 81.1831C145.383 81.0396 146.15 80.901 147.139 80.901C149.723 80.901 150.574 82.0542 150.574 82.8807C150.569 83.4053 150.287 83.9695 149.579 83.9695ZM151.178 79.2827C150.792 79.2827 150.53 79.06 150.267 78.8175C148.327 77.0804 147.659 76.5954 146.55 76.2737C147.055 76.1945 147.56 76.0906 148.288 76.0906C150.431 76.0906 152.103 76.9814 152.103 78.1692C152.108 78.58 151.886 79.2827 151.178 79.2827ZM150.995 89.8688C150.005 90.5567 149.901 90.6358 149.421 91.2C149.381 91.2594 149.218 91.4227 148.956 91.4227C148.713 91.4227 146.615 90.4131 146.615 88.2306C146.615 87.9881 146.654 87.8446 146.714 87.607C147.179 88.2554 147.966 88.7997 148.293 88.7997C149.767 88.7997 156.716 83.2865 159.463 79.5697L159.606 79.6292C158.532 82.9005 155.196 86.8795 150.995 89.8688Z" fill="white"/>
<path d="M177.2 90.0717C176.997 90.0717 176.091 89.8688 175.765 89.8094C175.423 89.7302 174.231 89.5274 172.677 89.5274C171.038 89.5274 167.747 89.8094 166.475 90.2548C166.332 90.3142 165.768 90.6161 165.649 90.6161C165.184 90.6161 163.932 89.364 163.932 88.4732C163.932 88.0476 164.031 87.7655 164.135 87.523C164.496 88.0476 165.02 88.8147 166.075 88.8147C166.297 88.8147 169.588 88.5722 169.955 88.5326C169.994 87.6665 170.014 87.0973 170.014 86.5332C170.014 85.6671 170.014 84.2319 169.673 83.5439C169.371 83.5835 167.995 83.8656 167.713 83.8656C166.946 83.8656 165.995 82.7323 166.119 81.8662C166.886 82.4947 167.777 82.4947 167.935 82.4947C169.45 82.4947 170.964 82.371 172.439 82.1533C172.662 82.1137 173.553 81.7672 173.731 81.7672C174.092 81.7672 175.206 82.1087 175.206 82.7966C175.206 83.3212 174.577 83.3212 174.275 83.3212C173.548 83.3212 172.013 83.3212 171.365 83.3806C171.949 83.7666 171.949 83.8458 171.949 83.9448C171.949 84.0685 171.746 84.5486 171.726 84.6723C171.543 85.38 171.405 88.2901 171.405 88.4286C171.969 88.3891 174.453 88.3049 174.958 88.2257C175.102 88.206 175.725 88.0228 175.869 88.0228C176.052 88.0228 177.829 88.7503 177.829 89.4778C177.824 89.9727 177.502 90.0717 177.2 90.0717Z" fill="white"/>
<path d="M196.615 84.6375C196.269 84.6375 195.769 84.5979 195.685 84.5979C194.512 84.5187 191.829 84.5187 190.374 84.5187C190.152 84.5187 186.133 84.5979 184.718 84.9839C184.173 85.1274 184.114 85.1472 183.99 85.1472C183.302 85.1472 182.07 83.5932 182.07 82.5638C182.07 82.0986 182.372 81.475 182.495 81.2325C183.164 82.8063 183.525 82.8905 185.787 82.8905C187.039 82.8905 194.111 82.8113 194.596 82.648C194.739 82.5886 195.264 82.4451 195.403 82.4451C196.209 82.4451 197.907 82.7865 197.907 83.8407C197.907 84.3356 197.382 84.6375 196.615 84.6375Z" fill="white"/>
<path d="M206.899 80.8416C206.82 81.2029 206.474 83.6874 206.375 84.2367C205.489 88.6216 202.698 90.517 201.065 91.2248L200.946 91.101C203.693 88.4731 204.865 84.6969 204.865 80.901C204.865 79.6291 204.524 79.5252 203.207 79.1243C203.915 78.763 204.341 78.5601 204.801 78.5601C205.449 78.5601 207.187 79.2084 207.187 79.9112C207.182 80.0745 206.919 80.6981 206.899 80.8416ZM212.72 88.3543C212.334 88.6562 210.681 89.9479 210.354 90.235C209.968 90.5368 209.889 90.5566 209.81 90.5566C209.305 90.5566 208.275 88.7799 208.275 88.2949C208.275 88.092 208.557 87.2853 208.597 87.1022C208.701 86.538 208.8 83.8507 208.8 82.3759C208.8 81.6681 208.8 78.6393 208.538 78.1939C208.256 77.6891 207.404 77.506 207.023 77.407C207.305 77.2041 207.83 76.823 208.419 76.823C209.127 76.823 211.106 77.5505 211.106 78.2978C211.106 78.5007 210.785 79.3272 210.745 79.5103C210.562 80.3764 210.319 85.7511 210.319 87.0032C210.319 87.1665 210.359 87.3051 210.502 87.3051C211.27 87.3051 215.308 84.4148 217.857 81.2425L218 81.3613C217.283 83.3855 215.768 85.9292 212.72 88.3543Z" fill="white"/>
<path d="M202.935 13.4949H61.0356V39.3388H202.935V13.4949Z" fill="#004C94"/>
<path d="M202.44 13.9898V38.8439H61.5303V13.9898H202.44ZM203.43 13H202.44H61.5303H60.5405V13.9898V38.8439V39.8338H61.5303H202.445H203.435V38.8439V13.9898V13H203.43Z" fill="white"/>
<path d="M83.4795 28.2876C83.4795 26.8919 83.3954 26.7039 82.7026 26.5109C82.564 26.4762 82.272 26.4614 82.1186 26.4614C82.0493 26.4614 81.98 26.4268 81.98 26.3575C81.98 26.2535 82.0641 26.2189 82.2571 26.2189C83.0341 26.2189 84.118 26.2684 84.2071 26.2684C84.2912 26.2684 85.38 26.2189 85.8947 26.2189C86.0827 26.2189 86.1718 26.2535 86.1718 26.3575C86.1718 26.4268 86.1025 26.4614 86.0333 26.4614C85.9145 26.4614 85.8106 26.4812 85.6027 26.5109C85.1375 26.6 84.9989 26.892 84.9643 27.4908C84.9296 28.0401 84.9296 28.5598 84.9296 29.2823V31.2125C84.9296 31.9895 84.9148 32.0241 84.7069 32.1429C83.6033 32.7269 82.0542 32.9199 81.0545 32.9199C79.743 32.9199 77.2982 32.7467 75.3829 31.0739C74.3337 30.1583 73.334 28.3173 73.334 26.1595C73.334 23.4029 74.6801 21.453 76.2143 20.4879C77.7634 19.5228 79.4708 19.4041 80.7972 19.4041C81.881 19.4041 83.1084 19.6267 83.435 19.696C83.7963 19.7802 84.4001 19.8495 84.8306 19.8693C85.0039 19.8841 85.0385 19.9534 85.0385 20.0227C85.0385 20.2652 84.9197 20.7452 84.9197 22.4675C84.9197 22.7447 84.8851 22.8288 84.7663 22.8288C84.6822 22.8288 84.6624 22.7248 84.6475 22.5714C84.6327 22.3289 84.5436 21.8489 84.2862 21.4332C83.8557 20.7799 82.46 20.0375 80.2379 20.0375C79.1541 20.0375 77.8574 20.1414 76.5509 21.1758C75.5512 21.9676 74.8435 23.5365 74.8435 25.5557C74.8435 27.9857 76.0659 29.7426 76.6697 30.3315C78.0306 31.6579 79.5995 32.1776 81.1881 32.1776C81.8068 32.1776 82.7025 32.0736 83.1529 31.8163C83.3756 31.6975 83.4993 31.5045 83.4993 31.2125V28.2876H83.4795Z" fill="white"/>
<path d="M90.1509 24.6501C90.1509 21.9628 90.1509 21.4777 90.1163 20.9284C90.0816 20.3444 89.9431 20.0673 89.3739 19.9485C89.2354 19.9139 88.9434 19.899 88.7899 19.899C88.7207 19.899 88.6514 19.8644 88.6514 19.7951C88.6514 19.6912 88.7355 19.6565 88.9285 19.6565C89.7055 19.6565 90.7894 19.706 90.8784 19.706C91.0665 19.706 92.378 19.6565 92.9125 19.6565C93.9963 19.6565 95.1544 19.7604 96.0651 20.4137C96.4956 20.7255 97.2528 21.5668 97.2528 22.7596C97.2528 24.0364 96.7183 25.3133 95.1693 26.7435C96.5847 28.5549 97.7527 30.0891 98.7524 31.1581C99.6828 32.138 100.425 32.331 100.856 32.4003C101.182 32.4498 101.425 32.4498 101.529 32.4498C101.613 32.4498 101.682 32.4993 101.682 32.5537C101.682 32.6577 101.578 32.6923 101.266 32.6923H100.044C99.079 32.6923 98.6485 32.6082 98.1981 32.3657C97.4557 31.9698 96.8519 31.1234 95.872 29.8317C95.1495 28.8815 94.3378 27.7284 93.9914 27.278C93.9221 27.2088 93.8726 27.1741 93.7687 27.1741L91.6505 27.1395C91.5664 27.1395 91.5317 27.189 91.5317 27.278V27.6938C91.5317 29.3468 91.5317 30.7078 91.6158 31.4353C91.6653 31.9351 91.7693 32.3162 92.2889 32.3855C92.5314 32.4201 92.9075 32.4548 93.0659 32.4548C93.1698 32.4548 93.2045 32.5042 93.2045 32.5587C93.2045 32.6428 93.1204 32.6973 92.9273 32.6973C91.9771 32.6973 90.8933 32.6478 90.8091 32.6478C90.7943 32.6478 89.7055 32.6973 89.1908 32.6973C89.0027 32.6973 88.9137 32.6626 88.9137 32.5587C88.9137 32.5092 88.9483 32.4548 89.0522 32.4548C89.2057 32.4548 89.4135 32.4201 89.5669 32.3855C89.9134 32.3162 89.9975 31.9351 90.0668 31.4353C90.1509 30.7127 90.1509 29.3517 90.1509 27.6938V24.6501ZM91.5317 26.1497C91.5317 26.2338 91.5664 26.3031 91.6505 26.3575C91.9078 26.511 92.6997 26.6347 93.4618 26.6347C93.8776 26.6347 94.3576 26.5852 94.7535 26.308C95.3573 25.8923 95.8028 24.9619 95.8028 23.6553C95.8028 21.5025 94.6645 20.2108 92.8185 20.2108C92.3038 20.2108 91.8336 20.2603 91.6653 20.3147C91.5812 20.3494 91.5268 20.4186 91.5268 20.5226V26.1497H91.5317Z" fill="white"/>
<path d="M105.631 20.0822C105.839 19.513 105.908 19.4091 106.012 19.4091C106.116 19.4091 106.186 19.4932 106.393 20.0277C106.651 20.681 109.358 27.8027 110.412 30.4207C111.031 31.9549 111.531 32.2321 111.892 32.336C112.149 32.4201 112.407 32.4399 112.58 32.4399C112.684 32.4399 112.753 32.4548 112.753 32.5439C112.753 32.6478 112.6 32.6824 112.407 32.6824C112.149 32.6824 110.892 32.6824 109.699 32.6478C109.373 32.628 109.185 32.628 109.185 32.529C109.185 32.4597 109.234 32.4251 109.304 32.4102C109.407 32.3756 109.511 32.2222 109.407 31.945L107.804 27.7037C107.769 27.6344 107.735 27.5998 107.651 27.5998H103.944C103.86 27.5998 103.805 27.6492 103.77 27.7383L102.736 30.7919C102.583 31.2224 102.494 31.6382 102.494 31.945C102.494 32.2915 102.855 32.4449 103.147 32.4449H103.32C103.439 32.4449 103.493 32.4795 103.493 32.5488C103.493 32.6527 103.389 32.6874 103.236 32.6874C102.82 32.6874 102.083 32.6379 101.89 32.6379C101.702 32.6379 100.752 32.6874 99.9399 32.6874C99.7172 32.6874 99.6133 32.6527 99.6133 32.5488C99.6133 32.4795 99.6826 32.4449 99.7667 32.4449C99.8855 32.4449 100.128 32.4251 100.267 32.4102C101.058 32.3063 101.405 31.653 101.717 30.7919L105.631 20.0822ZM107.423 26.9762C107.507 26.9762 107.507 26.9267 107.492 26.8574L105.854 22.2053C105.77 21.9479 105.681 21.9479 105.597 22.2053L104.082 26.8574C104.048 26.9415 104.082 26.9762 104.132 26.9762H107.423Z" fill="white"/>
<path d="M115.683 30.3366C115.718 31.752 115.891 32.1974 116.356 32.336C116.683 32.4201 117.064 32.4399 117.217 32.4399C117.301 32.4399 117.356 32.4746 117.356 32.5439C117.356 32.6478 117.252 32.6824 117.044 32.6824C116.059 32.6824 115.371 32.6329 115.218 32.6329C115.064 32.6329 114.337 32.6824 113.565 32.6824C113.392 32.6824 113.288 32.6676 113.288 32.5439C113.288 32.4746 113.337 32.4399 113.426 32.4399C113.565 32.4399 113.872 32.4201 114.134 32.336C114.564 32.2172 114.649 31.7174 114.649 30.1485L114.668 20.2702C114.668 19.5971 114.718 19.4091 114.856 19.4091C114.995 19.4091 115.287 19.7902 115.46 19.9584C115.718 20.2504 118.286 23.0268 120.944 25.8725C122.651 27.6987 124.527 29.8021 125.081 30.3712L124.893 21.6163C124.878 20.4979 124.755 20.1168 124.22 19.9782C123.908 19.9089 123.512 19.8891 123.374 19.8891C123.255 19.8891 123.235 19.8396 123.235 19.7704C123.235 19.6664 123.374 19.6516 123.582 19.6516C124.359 19.6516 125.185 19.7011 125.373 19.7011C125.561 19.7011 126.13 19.6516 126.838 19.6516C127.026 19.6516 127.15 19.6664 127.15 19.7704C127.15 19.8396 127.081 19.8891 126.962 19.8891C126.878 19.8891 126.754 19.8891 126.546 19.9386C125.977 20.0574 125.908 20.4385 125.908 21.4728L125.873 31.5738C125.873 32.7121 125.838 32.7963 125.72 32.7963C125.581 32.7963 125.373 32.6082 124.463 31.6926C124.274 31.5194 121.79 28.9855 119.964 27.0207C117.964 24.8679 116.015 22.6952 115.465 22.0717L115.683 30.3366Z" fill="white"/>
<path d="M151.5 25.1351H136.36V26.3972H151.5V25.1351Z" fill="#BDC3C4"/>
<path d="M145.381 13.9936L145.381 38.8478L146.762 38.8478L146.762 13.9936L145.381 13.9936Z" fill="#BDC3C4"/>
<path d="M130.98 24.6501C130.98 21.9627 130.98 21.4777 130.945 20.9284C130.911 20.3444 130.772 20.0673 130.203 19.9485C130.064 19.9138 129.772 19.899 129.619 19.899C129.55 19.899 129.48 19.8644 129.48 19.7951C129.48 19.6911 129.565 19.6565 129.758 19.6565C130.535 19.6565 131.618 19.706 131.708 19.706C131.915 19.706 132.999 19.6565 134.034 19.6565C135.741 19.6565 138.894 19.4981 140.947 21.6213C141.809 22.517 142.62 23.9473 142.62 26.0012C142.62 28.1738 141.724 29.8466 140.759 30.8611C140.017 31.6381 138.468 32.8457 135.538 32.8457C134.796 32.8457 133.885 32.7913 133.143 32.7418C132.386 32.6923 131.797 32.6379 131.712 32.6379C131.678 32.6379 131.386 32.6379 131.025 32.6576C130.678 32.6576 130.282 32.6923 130.025 32.6923C129.837 32.6923 129.748 32.6576 129.748 32.5537C129.748 32.5042 129.782 32.4498 129.886 32.4498C130.04 32.4498 130.248 32.4151 130.401 32.3805C130.747 32.3112 130.832 31.9301 130.901 31.4303C130.985 30.7077 130.985 29.3467 130.985 27.6888V24.6501H130.98ZM132.425 26.5109C132.425 28.3371 132.445 29.9258 132.46 30.2524C132.475 30.683 132.509 31.3709 132.648 31.5639C132.871 31.8905 133.544 32.2518 135.578 32.2518C137.181 32.2518 138.661 31.6678 139.68 30.6483C140.576 29.7674 141.061 28.1144 141.061 26.5307C141.061 24.3432 140.116 22.9278 139.408 22.1855C137.79 20.478 135.825 20.2355 133.771 20.2355C133.425 20.2355 132.786 20.285 132.653 20.3543C132.499 20.4236 132.445 20.5077 132.445 20.7007C132.425 21.2847 132.425 23.0466 132.425 24.3729V26.5109Z" fill="white"/>
<path d="M163.214 20.0822C163.422 19.513 163.491 19.4091 163.595 19.4091C163.699 19.4091 163.768 19.4932 163.976 20.0277C164.233 20.681 166.94 27.8027 167.995 30.4207C168.613 31.9549 169.113 32.2321 169.479 32.336C169.737 32.4201 169.994 32.4399 170.167 32.4399C170.271 32.4399 170.34 32.4548 170.34 32.5439C170.34 32.6478 170.187 32.6824 169.994 32.6824C169.737 32.6824 168.48 32.6824 167.287 32.6478C166.96 32.628 166.772 32.628 166.772 32.529C166.772 32.4597 166.822 32.4251 166.891 32.4102C166.995 32.3756 167.099 32.2222 166.995 31.945L165.391 27.7037C165.357 27.6344 165.322 27.5998 165.238 27.5998H161.531C161.447 27.5998 161.393 27.6492 161.358 27.7383L160.324 30.7919C160.17 31.2224 160.081 31.6382 160.081 31.945C160.081 32.2915 160.442 32.4449 160.734 32.4449H160.908C161.026 32.4449 161.081 32.4795 161.081 32.5488C161.081 32.6527 160.977 32.6874 160.823 32.6874C160.408 32.6874 159.67 32.6379 159.477 32.6379C159.284 32.6379 158.339 32.6874 157.527 32.6874C157.305 32.6874 157.201 32.6527 157.201 32.5488C157.201 32.4795 157.27 32.4449 157.354 32.4449C157.473 32.4449 157.715 32.4251 157.854 32.4102C158.646 32.3063 158.992 31.653 159.304 30.7919L163.214 20.0822ZM165.005 26.9762C165.089 26.9762 165.089 26.9267 165.075 26.8574L163.436 22.2053C163.352 21.9479 163.263 21.9479 163.179 22.2053L161.665 26.8574C161.63 26.9415 161.665 26.9762 161.714 26.9762H165.005Z" fill="white"/>
<path d="M171.954 24.6501C171.954 21.9628 171.954 21.4777 171.919 20.9284C171.884 20.3444 171.746 20.0673 171.177 19.9485C171.038 19.9139 170.746 19.899 170.593 19.899C170.523 19.899 170.454 19.8644 170.454 19.7951C170.454 19.6912 170.538 19.6565 170.731 19.6565C171.508 19.6565 172.592 19.706 172.681 19.706C172.869 19.706 174.181 19.6565 174.715 19.6565C175.799 19.6565 176.957 19.7604 177.868 20.4137C178.298 20.7255 179.056 21.5668 179.056 22.7596C179.056 24.0364 178.521 25.3133 176.972 26.7435C178.387 28.5549 179.555 30.0891 180.555 31.1581C181.486 32.138 182.228 32.331 182.658 32.4003C182.985 32.4498 183.228 32.4498 183.332 32.4498C183.416 32.4498 183.485 32.4993 183.485 32.5537C183.485 32.6577 183.381 32.6923 183.069 32.6923H181.847C180.882 32.6923 180.451 32.6082 180.001 32.3657C179.258 31.9698 178.655 31.1234 177.675 29.8317C176.952 28.8815 176.141 27.7284 175.794 27.278C175.725 27.2088 175.675 27.1741 175.571 27.1741L173.453 27.1395C173.369 27.1395 173.334 27.189 173.334 27.278V27.6938C173.334 29.3468 173.334 30.7078 173.419 31.4353C173.468 31.9351 173.572 32.3162 174.092 32.3855C174.334 32.4201 174.71 32.4548 174.869 32.4548C174.973 32.4548 175.007 32.5042 175.007 32.5587C175.007 32.6428 174.923 32.6973 174.73 32.6973C173.785 32.6973 172.696 32.6478 172.612 32.6478C172.597 32.6478 171.508 32.6973 170.994 32.6973C170.805 32.6973 170.716 32.6626 170.716 32.5587C170.716 32.5092 170.751 32.4548 170.855 32.4548C171.008 32.4548 171.216 32.4201 171.37 32.3855C171.716 32.3162 171.8 31.9351 171.87 31.4353C171.954 30.7127 171.954 29.3517 171.954 27.6938V24.6501ZM173.33 26.1497C173.33 26.2338 173.364 26.3031 173.448 26.3575C173.706 26.511 174.497 26.6347 175.26 26.6347C175.675 26.6347 176.155 26.5852 176.551 26.308C177.155 25.8923 177.601 24.9619 177.601 23.6553C177.601 21.5025 176.462 20.2108 174.616 20.2108C174.102 20.2108 173.631 20.2603 173.463 20.3147C173.379 20.3494 173.325 20.4186 173.325 20.5226V26.1497H173.33Z" fill="white"/>
<path d="M184.95 24.6501C184.95 21.9627 184.95 21.4777 184.915 20.9284C184.88 20.3444 184.742 20.0672 184.173 19.9485C184.034 19.9138 183.742 19.899 183.589 19.899C183.519 19.899 183.45 19.8643 183.45 19.795C183.45 19.6911 183.534 19.6565 183.727 19.6565C184.123 19.6565 184.588 19.6565 184.97 19.6713L185.677 19.706C185.796 19.706 189.231 19.7059 189.627 19.6861C189.953 19.6663 190.23 19.6367 190.369 19.602C190.453 19.5822 190.522 19.5129 190.611 19.5129C190.661 19.5129 190.681 19.5822 190.681 19.6664C190.681 19.7851 190.597 19.993 190.542 20.478C190.527 20.6512 190.493 21.4084 190.458 21.6163C190.443 21.7004 190.409 21.8044 190.339 21.8044C190.235 21.8044 190.201 21.7153 190.201 21.5816C190.201 21.4629 190.181 21.1659 190.097 20.963C189.978 20.6859 189.805 20.4829 188.874 20.3741C188.582 20.3394 186.702 20.3246 186.514 20.3246C186.444 20.3246 186.41 20.3741 186.41 20.4978V25.2538C186.41 25.3726 186.43 25.4271 186.514 25.4271C186.736 25.4271 188.86 25.4271 189.255 25.3924C189.671 25.3578 189.909 25.3231 190.067 25.1499C190.186 25.0113 190.255 24.9272 190.324 24.9272C190.374 24.9272 190.409 24.9619 190.409 25.0658C190.409 25.1697 190.324 25.4617 190.27 26.0308C190.235 26.3773 190.201 27.0157 190.201 27.1345C190.201 27.2731 190.201 27.4611 190.082 27.4611C189.998 27.4611 189.963 27.3918 189.963 27.3077C189.963 27.1345 189.963 26.9613 189.894 26.7385C189.825 26.496 189.671 26.2041 188.998 26.1348C188.533 26.0853 186.825 26.0506 186.533 26.0506C186.449 26.0506 186.415 26.1001 186.415 26.1694V27.6888C186.415 28.2728 186.4 30.2722 186.415 30.6384C186.464 31.8262 186.726 32.0539 188.414 32.0539C188.864 32.0539 189.622 32.0539 190.067 31.8658C190.517 31.6777 190.72 31.3313 190.844 30.6236C190.879 30.4355 190.913 30.3662 190.998 30.3662C191.101 30.3662 191.101 30.5048 191.101 30.6236C191.101 30.7621 190.963 31.9351 190.879 32.2964C190.76 32.7418 190.621 32.7417 189.948 32.7417C188.657 32.7417 187.706 32.7071 187.033 32.6923C186.36 32.6576 185.949 32.6428 185.687 32.6428C185.653 32.6428 185.361 32.6428 184.999 32.6626C184.653 32.6626 184.257 32.6972 184 32.6972C183.811 32.6972 183.722 32.6626 183.722 32.5586C183.722 32.5091 183.757 32.4547 183.861 32.4547C184.014 32.4547 184.222 32.4201 184.376 32.3854C184.722 32.3161 184.806 31.9351 184.876 31.4352C184.96 30.7127 184.96 29.3517 184.96 27.6937V24.6501H184.95Z" fill="white"/>
<path d="M150.524 24.6501C150.524 21.9627 150.524 21.4777 150.49 20.9284C150.455 20.3444 150.317 20.0672 149.747 19.9485C149.609 19.9138 149.317 19.899 149.163 19.899C149.094 19.899 149.025 19.8643 149.025 19.795C149.025 19.6911 149.109 19.6565 149.302 19.6565C149.698 19.6565 150.163 19.6565 150.544 19.6713L151.252 19.706C151.598 19.7208 155.097 19.7059 155.493 19.6861C155.82 19.6663 156.097 19.6664 156.251 19.6169C156.354 19.5822 156.424 19.5129 156.493 19.5129C156.562 19.5129 156.597 19.5822 156.597 19.6664C156.597 19.7851 156.513 19.993 156.458 20.478C156.439 20.6512 156.409 21.4084 156.374 21.6163C156.359 21.7004 156.325 21.8044 156.236 21.8044C156.152 21.8044 156.117 21.7153 156.117 21.5965C156.117 21.4579 156.067 21.1659 155.963 20.9432C155.86 20.7205 155.464 20.4087 154.791 20.3939L152.138 20.3444C152.034 20.3444 151.984 20.3939 151.984 20.5324V25.2885C151.984 25.3924 152.004 25.4468 152.103 25.4468L154.31 25.4271C154.602 25.4271 154.845 25.4271 155.087 25.4073C155.503 25.3726 155.726 25.3231 155.879 25.0955C155.949 25.0064 155.998 24.9223 156.067 24.9223C156.137 24.9223 156.152 24.9718 156.152 25.0608C156.152 25.1648 156.067 25.4568 156.013 26.0259C155.978 26.3723 155.944 27.0602 155.944 27.179C155.944 27.3324 155.944 27.5057 155.825 27.5057C155.741 27.5057 155.706 27.4364 155.706 27.3523C155.691 27.179 155.671 26.9365 155.602 26.7336C155.518 26.4911 155.241 26.1843 154.706 26.115C154.276 26.0655 152.395 26.0655 152.103 26.0655C152.019 26.0655 151.984 26.1001 151.984 26.2239V27.6888C151.984 29.3418 151.984 30.7028 152.069 31.4303C152.118 31.9301 152.222 32.3112 152.742 32.3805C152.984 32.4151 153.36 32.4498 153.519 32.4498C153.623 32.4498 153.657 32.4992 153.657 32.5537C153.657 32.6378 153.573 32.6923 153.38 32.6923C152.43 32.6923 151.346 32.6428 151.262 32.6428C151.178 32.6428 150.089 32.6923 149.574 32.6923C149.386 32.6923 149.297 32.6576 149.297 32.5537C149.297 32.5042 149.332 32.4498 149.436 32.4498C149.589 32.4498 149.797 32.4151 149.95 32.3805C150.297 32.3112 150.381 31.9301 150.45 31.4303C150.534 30.7077 150.534 29.3467 150.534 27.6888V24.6501H150.524Z" fill="white"/>
</svg>
