<svg version="1.1" id="レイヤー_1" xmlns="http://www.w3.org/2000/svg" x="0" y="0" viewBox="0 0 540 440" style="enable-background:new 0 0 540 440" xml:space="preserve"><style>.st1{fill:#43774f}.st2{fill:#5a504b}.st3{fill:#48899c}.st4{fill:#6a3a0d}.st5{fill:#c61a22}.st6{fill:none;stroke:#5a504b;stroke-width:.5056}</style><path style="fill:#fff" d="M0 0h540v440H0z"/><path class="st1" d="M37.8 74.2c-.4 1.5-.7 3.2-1 4.4H25.6v-.8c1.5-1.6 3.2-3.3 4.6-5.1 1.9-2.5 3.3-4.7 3.3-7.3 0-2.2-1-3.7-3.1-3.7-1.7 0-2.9 1.3-3.8 2.5l-.8-.6 1.7-2.6c1-1.1 2.3-1.8 4.1-1.8 2.7 0 5.1 1.9 5.1 5.2 0 2.6-1.4 4.6-4 7.3L29 75.8h5.1c1.5 0 1.9-.1 2.8-1.9l.9.3zM53.2 67.5c1.2-.5 2.6-.9 3.4-.9 3.7 0 5.6 2.5 5.6 5.1 0 1.9-.9 3.6-2.8 5.1-1.6 1.3-3.6 2.1-5.2 2.1-1.2 0-2.4-.5-2.9-1-.4-.4-.6-.7-.5-1.1 0-.4.4-.9.8-1.2.3-.2.6-.2.9 0 .7.6 1.9 1.6 3.6 1.6 2 0 3-1.8 3-4.2 0-2.6-1.6-4.5-4.4-4.5-1.2 0-2.3.3-2.9.5l1.2-9.4h8.6l.2.3-.8 2.5h-7l-.8 5.1zM104.7 63.6c-.3-1.1-.5-1.8-1-2.4-.5-.7-1.3-.9-3-.9h-1.6c-.9 0-1 .1-1 1v6.9h2.5c2.4 0 2.6-.2 3-2.1h.9v5.7h-.9c-.4-2-.5-2.3-3-2.3h-2.5v5.3c0 2.6.2 2.8 2.6 3v.9h-8.2v-.9c2-.2 2.3-.4 2.3-3V63c0-2.5-.2-2.7-2.2-2.9v-.9h12.8c0 .6.2 2.7.3 4.3l-1 .1zM135.4 78.9h-1c-3.2-.2-4.2-1-5.4-2.9-.8-1.2-1.7-3-2.5-4.6-.5-.9-.8-1.3-1.9-1.3h-.6v4.7c0 2.5.2 2.7 2.3 2.9v.9h-8v-.9c2.2-.2 2.4-.4 2.4-2.9V62.9c0-2.5-.2-2.6-2.2-2.8v-.9h7.6c2.2 0 3.5.3 4.6 1.1 1.2.8 1.9 2.1 1.9 3.9 0 2.6-1.5 4.1-3.6 5 .4.9 1.5 3 2.4 4.3 1 1.6 1.5 2.4 2.2 3.2.7.8 1.3 1.2 1.9 1.4l-.1.8zM125 69c1.2 0 2-.2 2.6-.8.9-.8 1.4-2 1.4-3.6 0-3.2-1.8-4.4-3.5-4.4-.7 0-1.1.1-1.3.3-.2.2-.2.5-.2 1.2V69h1zM161.8 74c-.2 1-.7 3.8-1 4.6H147v-.9c2.3-.2 2.6-.4 2.6-2.9V62.9c0-2.5-.3-2.6-2.2-2.8v-.9h12.7c0 .5.2 2.7.3 4.3l-1 .1c-.3-1.1-.6-1.9-1-2.4-.5-.6-1.2-.8-3.1-.8H154c-.9 0-1 .1-1 1V68h2c2.4 0 2.6-.2 3-2.2h1v5.8h-1c-.4-2.1-.6-2.2-3-2.2h-2V75c0 1.4.2 2.1.6 2.4.5.3 1.3.3 2.5.3 1.8 0 2.6-.2 3.2-1 .5-.6 1-1.5 1.5-2.8l1 .1zM188.7 74c-.2 1-.7 3.8-1 4.6h-13.8v-.9c2.3-.2 2.6-.4 2.6-2.9V62.9c0-2.5-.3-2.6-2.2-2.8v-.9H187c0 .5.2 2.7.3 4.3l-1 .1c-.3-1.1-.6-1.9-1-2.4-.5-.6-1.2-.8-3.1-.8h-1.4c-.9 0-1 .1-1 1V68h2c2.4 0 2.6-.2 3-2.2h1v5.8h-1c-.4-2.1-.6-2.2-3-2.2h-2V75c0 1.4.2 2.1.6 2.4.5.3 1.3.3 2.5.3 1.8 0 2.6-.2 3.2-1 .5-.6 1-1.5 1.5-2.8l1.1.1zM225.5 59.1c3.5 0 6.1.8 7.8 2.6 1.3 1.4 2.3 3.6 2.3 6.4 0 3.7-1.3 6.3-3.3 8-2 1.7-4.7 2.5-8.1 2.5h-6.5v-.9c2.2-.2 2.5-.4 2.5-2.9V63c0-2.5-.2-2.7-2.2-2.9v-.9h7.5zm-1.9 15.6c0 2 .5 2.7 2.2 2.7 3.6 0 6-3.2 6-8.8 0-3-.8-5.5-2.4-6.8-1.1-1.1-2.5-1.5-4-1.5-.8 0-1.3.1-1.5.3-.2.2-.3.6-.3 1.5v12.6zM262.9 74c-.2 1-.7 3.8-1 4.6h-13.8v-.9c2.3-.2 2.6-.4 2.6-2.9V62.9c0-2.5-.3-2.6-2.2-2.8v-.9h12.7c0 .5.2 2.7.3 4.3l-1 .1c-.3-1.1-.6-1.9-1-2.4-.5-.6-1.2-.8-3.1-.8H255c-.9 0-1 .1-1 1V68h2c2.4 0 2.6-.2 3-2.2h1v5.8h-1c-.4-2.1-.6-2.2-3-2.2h-2V75c0 1.4.2 2.1.6 2.4.5.3 1.3.3 2.5.3 1.8 0 2.6-.2 3.2-1 .5-.6 1-1.5 1.5-2.8l1.1.1zM285.3 63.7c-.6-1.9-1.4-3.9-3.8-3.9-1.7 0-2.8 1.3-2.8 3 0 1.9 1.2 2.9 3.4 4.2 2.6 1.4 4.9 3.1 4.9 6.2 0 3.3-2.6 5.8-6.6 5.8-1 0-1.9-.2-2.7-.4-.8-.2-1.3-.5-1.7-.6-.3-.8-.6-3-.8-4.7l1-.3c.5 1.8 1.9 4.9 4.7 4.9 1.9 0 3-1.3 3-3.3 0-1.9-1.3-3-3.4-4.2-2.4-1.4-4.9-3-4.9-6.1 0-3.1 2.3-5.6 6.3-5.6 1.5 0 2.9.4 3.7.7.1 1.1.3 2.3.5 4.1l-.8.2zM299.7 78.6v-.9c2.1-.2 2.3-.4 2.3-2.9V63c0-2.5-.2-2.7-2.3-2.9v-.9h8v.9c-2.1.2-2.3.4-2.3 2.9v11.9c0 2.4.2 2.7 2.3 2.9v.9h-8zM337.6 70.3c-1.5.3-1.6.4-1.6 2.2v2.6c0 1.1 0 2 .2 2.9-1.6.4-3.8 1-5.9 1-6.1 0-9.7-4-9.7-9.9 0-6.9 4.9-10.4 10.3-10.4 2.1 0 3.9.5 4.9.7.1 1.1.2 2.6.4 4.6l-1 .2c-.8-3.2-2.6-4.4-4.8-4.4-3.3 0-6 3.2-6 8.8 0 4.6 2 9.3 6.2 9.3.6 0 1.2-.1 1.5-.4.4-.2.5-.7.5-1.7v-3.2c0-1.9-.2-2.1-2.9-2.4v-.9h7.8v1zM368.4 60c-1.6.1-2.1.5-2.2 1.7-.1.9-.2 2.4-.2 5v12.2h-1.3l-10.7-15h-.1v7c0 2.6.1 4.1.2 5 .2 1.2.7 1.7 2.7 1.8v.9H350v-.9c1.6-.1 2.2-.6 2.3-1.8.1-.9.2-2.5.2-5v-6.6c0-2 0-2.4-.5-3.1-.5-.7-1.1-1.1-2.4-1.2v-.9h4.8l10.1 13.6h.1v-6c0-2.6-.1-4.1-.2-5-.2-1.2-.8-1.6-2.7-1.7v-.9h6.7v.9zM407.9 63.7c-.6-1.9-1.4-3.9-3.8-3.9-1.7 0-2.8 1.3-2.8 3 0 1.9 1.2 2.9 3.4 4.2 2.6 1.4 4.9 3.1 4.9 6.2 0 3.3-2.6 5.8-6.6 5.8-1 0-1.9-.2-2.7-.4-.8-.2-1.3-.5-1.7-.6-.3-.8-.6-3-.8-4.7l1-.3c.5 1.8 1.9 4.9 4.7 4.9 1.9 0 3-1.3 3-3.3 0-1.9-1.3-3-3.4-4.2-2.4-1.4-4.9-3-4.9-6.1 0-3.1 2.3-5.6 6.3-5.6 1.5 0 2.9.4 3.7.7.1 1.1.3 2.3.5 4.1l-.8.2zM436.6 63.8c-.3-1.4-.6-2.3-1-2.8-.5-.6-1.1-.7-2.6-.7h-1.5v14.5c0 2.5.2 2.7 2.7 2.9v.9h-8.6v-.9c2.3-.2 2.5-.4 2.5-2.9V60.3h-1.2c-1.8 0-2.4.2-2.8.9-.4.5-.7 1.4-1 2.7h-1c.1-1.9.3-3.9.3-5.4h.7c.4.6.8.8 1.5.8H435c.7 0 1.1-.2 1.5-.8h.7c0 1.3.2 3.6.3 5.4l-.9-.1zM467.1 60.1c-1.7.2-2.2.5-3.2 2.3-1.1 2.1-1.9 3.6-3.2 6.3-.4.7-.5 1-.5 1.9v4.1c0 2.5.2 2.7 2.7 2.9v.9h-8.6v-.9c2.4-.2 2.6-.4 2.6-2.9V71c0-.7-.1-1-.4-1.6-.9-1.9-1.9-3.8-3.5-7-1-1.9-1.4-2.2-2.9-2.3v-.9h7.5v.9c-1.8.3-1.8.5-1.3 1.6 1.1 2.3 2.2 4.5 3.3 6.7.8-1.7 2.2-4.5 2.9-6.5.5-1.3.4-1.6-1.7-1.9v-.9h6.3v1zM493.3 73.9c-.2 1.1-.8 3.9-1 4.7h-13.1v-.9c2.3-.2 2.5-.4 2.5-2.8v-12c0-2.5-.2-2.7-2.3-2.9v-.9h8v.9c-2.1.2-2.3.4-2.3 2.9v12c0 1.4.1 2 .7 2.3.5.3 1.3.3 2.2.3 1.3 0 2.2-.2 2.9-1 .5-.6 1-1.5 1.5-2.9l.9.3zM520 74c-.2 1-.7 3.8-1 4.6h-13.8v-.9c2.3-.2 2.6-.4 2.6-2.9V62.9c0-2.5-.3-2.6-2.2-2.8v-.9h12.7c0 .5.2 2.7.3 4.3l-1 .1c-.3-1.1-.6-1.9-1-2.4-.5-.6-1.2-.8-3.1-.8h-1.4c-.9 0-1 .1-1 1V68h2c2.4 0 2.6-.2 3-2.2h1v5.8h-1c-.4-2.1-.6-2.2-3-2.2h-2V75c0 1.4.2 2.1.6 2.4.5.3 1.3.3 2.5.3 1.8 0 2.6-.2 3.2-1 .5-.6 1-1.5 1.5-2.8l1.1.1z"/><path class="st2" d="M37.8 74.2c-.4 1.5-.7 3.2-1 4.4H25.6v-.8c1.5-1.6 3.2-3.3 4.6-5.1 1.9-2.5 3.3-4.7 3.3-7.3 0-2.2-1-3.7-3.1-3.7-1.7 0-2.9 1.3-3.8 2.5l-.8-.6 1.7-2.6c1-1.1 2.3-1.8 4.1-1.8 2.7 0 5.1 1.9 5.1 5.2 0 2.6-1.4 4.6-4 7.3L29 75.8h5.1c1.5 0 1.9-.1 2.8-1.9l.9.3zM53.2 67.5c1.2-.5 2.6-.9 3.4-.9 3.7 0 5.6 2.5 5.6 5.1 0 1.9-.9 3.6-2.8 5.1-1.6 1.3-3.6 2.1-5.2 2.1-1.2 0-2.4-.5-2.9-1-.4-.4-.6-.7-.5-1.1 0-.4.4-.9.8-1.2.3-.2.6-.2.9 0 .7.6 1.9 1.6 3.6 1.6 2 0 3-1.8 3-4.2 0-2.6-1.6-4.5-4.4-4.5-1.2 0-2.3.3-2.9.5l1.2-9.4h8.6l.2.3-.8 2.5h-7l-.8 5.1zM104.7 63.6c-.3-1.1-.5-1.8-1-2.4-.5-.7-1.3-.9-3-.9h-1.6c-.9 0-1 .1-1 1v6.9h2.5c2.4 0 2.6-.2 3-2.1h.9v5.7h-.9c-.4-2-.5-2.3-3-2.3h-2.5v5.3c0 2.6.2 2.8 2.6 3v.9h-8.2v-.9c2-.2 2.3-.4 2.3-3V63c0-2.5-.2-2.7-2.2-2.9v-.9h12.8c0 .6.2 2.7.3 4.3l-1 .1zM135.4 78.9h-1c-3.2-.2-4.2-1-5.4-2.9-.8-1.2-1.7-3-2.5-4.6-.5-.9-.8-1.3-1.9-1.3h-.6v4.7c0 2.5.2 2.7 2.3 2.9v.9h-8v-.9c2.2-.2 2.4-.4 2.4-2.9V62.9c0-2.5-.2-2.6-2.2-2.8v-.9h7.6c2.2 0 3.5.3 4.6 1.1 1.2.8 1.9 2.1 1.9 3.9 0 2.6-1.5 4.1-3.6 5 .4.9 1.5 3 2.4 4.3 1 1.6 1.5 2.4 2.2 3.2.7.8 1.3 1.2 1.9 1.4l-.1.8zM125 69c1.2 0 2-.2 2.6-.8.9-.8 1.4-2 1.4-3.6 0-3.2-1.8-4.4-3.5-4.4-.7 0-1.1.1-1.3.3-.2.2-.2.5-.2 1.2V69h1zM161.8 74c-.2 1-.7 3.8-1 4.6H147v-.9c2.3-.2 2.6-.4 2.6-2.9V62.9c0-2.5-.3-2.6-2.2-2.8v-.9h12.7c0 .5.2 2.7.3 4.3l-1 .1c-.3-1.1-.6-1.9-1-2.4-.5-.6-1.2-.8-3.1-.8H154c-.9 0-1 .1-1 1V68h2c2.4 0 2.6-.2 3-2.2h1v5.8h-1c-.4-2.1-.6-2.2-3-2.2h-2V75c0 1.4.2 2.1.6 2.4.5.3 1.3.3 2.5.3 1.8 0 2.6-.2 3.2-1 .5-.6 1-1.5 1.5-2.8l1 .1zM188.7 74c-.2 1-.7 3.8-1 4.6h-13.8v-.9c2.3-.2 2.6-.4 2.6-2.9V62.9c0-2.5-.3-2.6-2.2-2.8v-.9H187c0 .5.2 2.7.3 4.3l-1 .1c-.3-1.1-.6-1.9-1-2.4-.5-.6-1.2-.8-3.1-.8h-1.4c-.9 0-1 .1-1 1V68h2c2.4 0 2.6-.2 3-2.2h1v5.8h-1c-.4-2.1-.6-2.2-3-2.2h-2V75c0 1.4.2 2.1.6 2.4.5.3 1.3.3 2.5.3 1.8 0 2.6-.2 3.2-1 .5-.6 1-1.5 1.5-2.8l1.1.1zM225.5 59.1c3.5 0 6.1.8 7.8 2.6 1.3 1.4 2.3 3.6 2.3 6.4 0 3.7-1.3 6.3-3.3 8-2 1.7-4.7 2.5-8.1 2.5h-6.5v-.9c2.2-.2 2.5-.4 2.5-2.9V63c0-2.5-.2-2.7-2.2-2.9v-.9h7.5zm-1.9 15.6c0 2 .5 2.7 2.2 2.7 3.6 0 6-3.2 6-8.8 0-3-.8-5.5-2.4-6.8-1.1-1.1-2.5-1.5-4-1.5-.8 0-1.3.1-1.5.3-.2.2-.3.6-.3 1.5v12.6zM262.9 74c-.2 1-.7 3.8-1 4.6h-13.8v-.9c2.3-.2 2.6-.4 2.6-2.9V62.9c0-2.5-.3-2.6-2.2-2.8v-.9h12.7c0 .5.2 2.7.3 4.3l-1 .1c-.3-1.1-.6-1.9-1-2.4-.5-.6-1.2-.8-3.1-.8H255c-.9 0-1 .1-1 1V68h2c2.4 0 2.6-.2 3-2.2h1v5.8h-1c-.4-2.1-.6-2.2-3-2.2h-2V75c0 1.4.2 2.1.6 2.4.5.3 1.3.3 2.5.3 1.8 0 2.6-.2 3.2-1 .5-.6 1-1.5 1.5-2.8l1.1.1zM285.3 63.7c-.6-1.9-1.4-3.9-3.8-3.9-1.7 0-2.8 1.3-2.8 3 0 1.9 1.2 2.9 3.4 4.2 2.6 1.4 4.9 3.1 4.9 6.2 0 3.3-2.6 5.8-6.6 5.8-1 0-1.9-.2-2.7-.4-.8-.2-1.3-.5-1.7-.6-.3-.8-.6-3-.8-4.7l1-.3c.5 1.8 1.9 4.9 4.7 4.9 1.9 0 3-1.3 3-3.3 0-1.9-1.3-3-3.4-4.2-2.4-1.4-4.9-3-4.9-6.1 0-3.1 2.3-5.6 6.3-5.6 1.5 0 2.9.4 3.7.7.1 1.1.3 2.3.5 4.1l-.8.2zM299.7 78.6v-.9c2.1-.2 2.3-.4 2.3-2.9V63c0-2.5-.2-2.7-2.3-2.9v-.9h8v.9c-2.1.2-2.3.4-2.3 2.9v11.9c0 2.4.2 2.7 2.3 2.9v.9h-8zM337.6 70.3c-1.5.3-1.6.4-1.6 2.2v2.6c0 1.1 0 2 .2 2.9-1.6.4-3.8 1-5.9 1-6.1 0-9.7-4-9.7-9.9 0-6.9 4.9-10.4 10.3-10.4 2.1 0 3.9.5 4.9.7.1 1.1.2 2.6.4 4.6l-1 .2c-.8-3.2-2.6-4.4-4.8-4.4-3.3 0-6 3.2-6 8.8 0 4.6 2 9.3 6.2 9.3.6 0 1.2-.1 1.5-.4.4-.2.5-.7.5-1.7v-3.2c0-1.9-.2-2.1-2.9-2.4v-.9h7.8v1zM368.4 60c-1.6.1-2.1.5-2.2 1.7-.1.9-.2 2.4-.2 5v12.2h-1.3l-10.7-15h-.1v7c0 2.6.1 4.1.2 5 .2 1.2.7 1.7 2.7 1.8v.9H350v-.9c1.6-.1 2.2-.6 2.3-1.8.1-.9.2-2.5.2-5v-6.6c0-2 0-2.4-.5-3.1-.5-.7-1.1-1.1-2.4-1.2v-.9h4.8l10.1 13.6h.1v-6c0-2.6-.1-4.1-.2-5-.2-1.2-.8-1.6-2.7-1.7v-.9h6.7v.9zM407.9 63.7c-.6-1.9-1.4-3.9-3.8-3.9-1.7 0-2.8 1.3-2.8 3 0 1.9 1.2 2.9 3.4 4.2 2.6 1.4 4.9 3.1 4.9 6.2 0 3.3-2.6 5.8-6.6 5.8-1 0-1.9-.2-2.7-.4-.8-.2-1.3-.5-1.7-.6-.3-.8-.6-3-.8-4.7l1-.3c.5 1.8 1.9 4.9 4.7 4.9 1.9 0 3-1.3 3-3.3 0-1.9-1.3-3-3.4-4.2-2.4-1.4-4.9-3-4.9-6.1 0-3.1 2.3-5.6 6.3-5.6 1.5 0 2.9.4 3.7.7.1 1.1.3 2.3.5 4.1l-.8.2zM436.6 63.8c-.3-1.4-.6-2.3-1-2.8-.5-.6-1.1-.7-2.6-.7h-1.5v14.5c0 2.5.2 2.7 2.7 2.9v.9h-8.6v-.9c2.3-.2 2.5-.4 2.5-2.9V60.3h-1.2c-1.8 0-2.4.2-2.8.9-.4.5-.7 1.4-1 2.7h-1c.1-1.9.3-3.9.3-5.4h.7c.4.6.8.8 1.5.8H435c.7 0 1.1-.2 1.5-.8h.7c0 1.3.2 3.6.3 5.4l-.9-.1zM467.1 60.1c-1.7.2-2.2.5-3.2 2.3-1.1 2.1-1.9 3.6-3.2 6.3-.4.7-.5 1-.5 1.9v4.1c0 2.5.2 2.7 2.7 2.9v.9h-8.6v-.9c2.4-.2 2.6-.4 2.6-2.9V71c0-.7-.1-1-.4-1.6-.9-1.9-1.9-3.8-3.5-7-1-1.9-1.4-2.2-2.9-2.3v-.9h7.5v.9c-1.8.3-1.8.5-1.3 1.6 1.1 2.3 2.2 4.5 3.3 6.7.8-1.7 2.2-4.5 2.9-6.5.5-1.3.4-1.6-1.7-1.9v-.9h6.3v1zM493.3 73.9c-.2 1.1-.8 3.9-1 4.7h-13.1v-.9c2.3-.2 2.5-.4 2.5-2.8v-12c0-2.5-.2-2.7-2.3-2.9v-.9h8v.9c-2.1.2-2.3.4-2.3 2.9v12c0 1.4.1 2 .7 2.3.5.3 1.3.3 2.2.3 1.3 0 2.2-.2 2.9-1 .5-.6 1-1.5 1.5-2.9l.9.3zM520 74c-.2 1-.7 3.8-1 4.6h-13.8v-.9c2.3-.2 2.6-.4 2.6-2.9V62.9c0-2.5-.3-2.6-2.2-2.8v-.9h12.7c0 .5.2 2.7.3 4.3l-1 .1c-.3-1.1-.6-1.9-1-2.4-.5-.6-1.2-.8-3.1-.8h-1.4c-.9 0-1 .1-1 1V68h2c2.4 0 2.6-.2 3-2.2h1v5.8h-1c-.4-2.1-.6-2.2-3-2.2h-2V75c0 1.4.2 2.1.6 2.4.5.3 1.3.3 2.5.3 1.8 0 2.6-.2 3.2-1 .5-.6 1-1.5 1.5-2.8l1.1.1z"/><path class="st3" d="M68.6 119.4c0 .6-.2 1.1-1.3 1.1h-2.5l-.2-1.3H67c.2 0 .3-.2.3-.4v-8.4h-8.9v-1.3h11.7v1.3h-1.5v9zm-3.2-1.8h-5.9v-5.9h5.9v5.9zm-1.4-4.7h-3.3v3.6H64v-3.6zM77 119.8c-2.3.3-4.4.4-5.9.4L71 119c.7 0 1.5 0 2.9-.1v-.8h-2.6v-1h2.6v-.6h-2.5v-4.4h2.5v-.6H71v-1h2.9v-.5c-1.2.1-1.9.1-2.6.1l-.2-1c3.2 0 4.2-.1 6-.5l.4 1c-.5.1-1.1.3-2.5.3v.6h2.8v1H75v.6h2.6v4.4H75v.6h2.7v1H75v.7c1.3-.1 2-.2 2.7-.2.6-.9 1.3-2.3 1.4-6.3h-1V111h1v-2.5h1.3v2.5h2.2c0 1.5-.1 7.3-.4 8.4-.3.9-.8.9-1.4.9h-1.2l-.2-1.3h1c.5 0 .5-.2.6-.3.2-.7.3-5.4.3-6.4h-.9c-.1 5-1.3 6.8-2.3 8l-1.1-.5zm-4.6-6.7v.8h1.4v-.8h-1.4zm0 1.7v.9h1.4v-.9h-1.4zm2.5-1.7v.8h1.4v-.8h-1.4zm0 1.7v.9h1.4v-.9h-1.4zM47.2 127.8H52v4.6h-3.5v6.7h-1.3v-11.3zm1.2 1v.8h2.3v-.8h-2.3zm0 1.7v.8h2.3v-.8h-2.3zm7.1 2.6v4.7h-5.9v-4.7h5.9zm-4.6 1v.9h3.5v-.9h-3.5zm0 1.7v.9h3.5v-.9h-3.5zm5.9-3.4h-3.7v-4.6h5v10.1c0 .4 0 1.2-.8 1.2h-1.9l-.2-1.3h1.4c.2 0 .3-.1.3-.3v-5.1zm-2.5-3.6v.8h2.5v-.8h-2.5zm0 1.7v.8h2.5v-.8h-2.5zM60.8 132.7c-.4.6-.7.9-1 1.2l-.7-1.5c1.5-1.4 2.2-3.6 2.6-5.3l1.3.2c-.1.5-.3 1.5-.9 2.9v8.8h-1.3v-6.3zm5.4-5.4h1.4v3.6h3.6v1.3h-3.6v5.2h3.2v1.3h-7.7v-1.3h3.2v-5.2h-3.6v-1.3h3.6v-3.6zM73.2 132.1l-1.2.2-.1-1.4 1.2-.2v-3.5h1.3v3.2l2.6-.4.1 1.3-2.6.5v3.5c0 .3.1.3.3.3h.6c.2 0 .3-.3.3-.5.1-.7.1-1.2.1-1.4l1.2.3c-.2 1.8-.5 2.8-1.5 2.8H74c-.7 0-.8-.6-.8-.9v-3.8zm3.5-4.3h6.8c0 3.5 0 8.8-.7 10.3-.1.3-.4 1-1.6 1h-1.9l-.3-1.4h1.9c.4 0 .6 0 .8-.5.5-1.6.5-5.8.5-8.1h-2c-.2 5.6-.9 7.8-4.4 10l-.9-1.1c3.6-1.9 3.9-4.6 3.9-8.9h-2.1v-1.3zM87.4 128.1c-.2.7-.5 2.1-.5 4.3.4-.7.6-1.1.9-1.4l.8.7c-.4.5-.7 1-1.2 1.9-.4.7-.4 1.1-.4 1.5l-1.3.1c-.1-.5-.2-1.5-.2-3 0-2 .3-3.5.4-4.2l1.5.1zm5.9-.1c.2 2.3.2 3.9.2 4.2 0 3-.3 5.3-4.8 6.4l-1.1-1.1c4.4-1.1 4.4-3 4.4-5.5 0-1.8-.1-3.4-.2-4.1h1.5z"/><path class="st4" d="M68.6 119.4c0 .6-.2 1.1-1.3 1.1h-2.5l-.2-1.3H67c.2 0 .3-.2.3-.4v-8.4h-8.9v-1.3h11.7v1.3h-1.5v9zm-3.2-1.8h-5.9v-5.9h5.9v5.9zm-1.4-4.7h-3.3v3.6H64v-3.6zM77 119.8c-2.3.3-4.4.4-5.9.4L71 119c.7 0 1.5 0 2.9-.1v-.8h-2.6v-1h2.6v-.6h-2.5v-4.4h2.5v-.6H71v-1h2.9v-.5c-1.2.1-1.9.1-2.6.1l-.2-1c3.2 0 4.2-.1 6-.5l.4 1c-.5.1-1.1.3-2.5.3v.6h2.8v1H75v.6h2.6v4.4H75v.6h2.7v1H75v.7c1.3-.1 2-.2 2.7-.2.6-.9 1.3-2.3 1.4-6.3h-1V111h1v-2.5h1.3v2.5h2.2c0 1.5-.1 7.3-.4 8.4-.3.9-.8.9-1.4.9h-1.2l-.2-1.3h1c.5 0 .5-.2.6-.3.2-.7.3-5.4.3-6.4h-.9c-.1 5-1.3 6.8-2.3 8l-1.1-.5zm-4.6-6.7v.8h1.4v-.8h-1.4zm0 1.7v.9h1.4v-.9h-1.4zm2.5-1.7v.8h1.4v-.8h-1.4zm0 1.7v.9h1.4v-.9h-1.4zM47.2 127.8H52v4.6h-3.5v6.7h-1.3v-11.3zm1.2 1v.8h2.3v-.8h-2.3zm0 1.7v.8h2.3v-.8h-2.3zm7.1 2.6v4.7h-5.9v-4.7h5.9zm-4.6 1v.9h3.5v-.9h-3.5zm0 1.7v.9h3.5v-.9h-3.5zm5.9-3.4h-3.7v-4.6h5v10.1c0 .4 0 1.2-.8 1.2h-1.9l-.2-1.3h1.4c.2 0 .3-.1.3-.3v-5.1zm-2.5-3.6v.8h2.5v-.8h-2.5zm0 1.7v.8h2.5v-.8h-2.5zM60.8 132.7c-.4.6-.7.9-1 1.2l-.7-1.5c1.5-1.4 2.2-3.6 2.6-5.3l1.3.2c-.1.5-.3 1.5-.9 2.9v8.8h-1.3v-6.3zm5.4-5.4h1.4v3.6h3.6v1.3h-3.6v5.2h3.2v1.3h-7.7v-1.3h3.2v-5.2h-3.6v-1.3h3.6v-3.6zM73.2 132.1l-1.2.2-.1-1.4 1.2-.2v-3.5h1.3v3.2l2.6-.4.1 1.3-2.6.5v3.5c0 .3.1.3.3.3h.6c.2 0 .3-.3.3-.5.1-.7.1-1.2.1-1.4l1.2.3c-.2 1.8-.5 2.8-1.5 2.8H74c-.7 0-.8-.6-.8-.9v-3.8zm3.5-4.3h6.8c0 3.5 0 8.8-.7 10.3-.1.3-.4 1-1.6 1h-1.9l-.3-1.4h1.9c.4 0 .6 0 .8-.5.5-1.6.5-5.8.5-8.1h-2c-.2 5.6-.9 7.8-4.4 10l-.9-1.1c3.6-1.9 3.9-4.6 3.9-8.9h-2.1v-1.3zM87.4 128.1c-.2.7-.5 2.1-.5 4.3.4-.7.6-1.1.9-1.4l.8.7c-.4.5-.7 1-1.2 1.9-.4.7-.4 1.1-.4 1.5l-1.3.1c-.1-.5-.2-1.5-.2-3 0-2 .3-3.5.4-4.2l1.5.1zm5.9-.1c.2 2.3.2 3.9.2 4.2 0 3-.3 5.3-4.8 6.4l-1.1-1.1c4.4-1.1 4.4-3 4.4-5.5 0-1.8-.1-3.4-.2-4.1h1.5zM252.1 109.4h4c3.7 0 5 2.3 5 5 0 2-.8 5-5.1 5h-3.9v-10zm1.5 8.6h2.2c1.9 0 3.9-.5 3.9-3.7s-2.1-3.6-3.9-3.6h-2.2v7.3zM272.6 113.5v1.4h-4.3v3.1h4.9v1.4h-6.4v-10h6.2v1.4h-4.7v2.8h4.3zM280.7 109.4l5.3 8.1v-8.1h1.5v10h-1.9l-5.3-8.1v8.1h-1.5v-10h1.9zM251.7 127.7h3.6v1.1c-.2.7-.2.9-.9 3 1 1.3 1 2.6 1 3 0 .8-.2 1.9-1.4 1.9h-.7l-.2-1.2h.6c.5 0 .5-.7.5-.9 0-1-.4-1.9-1-2.7.4-1.3.6-1.9.9-3h-1.2v10.3h-1.2v-11.5zm5 8.4c-.3 1.6-.8 2.3-1.1 2.6l-1-.6c.4-.6.7-1.1 1.1-2.4l1 .4zm6.2-7.7c-2 .4-5.9.5-7.1.6l-.2-1c1.8 0 5.1-.2 6.9-.5l.4.9zm-7.2 6.7v-1h5.9v-.6H256v-.9h5.6v-.6h-5.8v-1h5c.3-.5.8-1.6 1-2.2l1.2.4c-.3.6-.6 1.3-1 1.8h.8v4.2h-4.1c.1.1.7.4 1.5 1.2l-.7.8c-.3-.4-1-1-1.5-1.3l.6-.7h-2.9zm1.3-6.1c.3.5.5 1 .6 1.5l-1.1.4c-.2-.5-.4-1.2-.6-1.5l1.1-.4zm.1 7.2h1.1v1.1c0 .3 0 .5.4.5h1.1c.2 0 .3 0 .4-.1.1-.1.1-.5.2-.8l1.1.3c-.3 1.7-.6 1.7-1.5 1.7h-1.4c-.6 0-1.4 0-1.4-1v-1.7zm2.4-7.3c.3.4.6 1.1.8 1.5l-1.1.3c-.2-.5-.5-1-.8-1.6l1.1-.2zm2.5 6.7c.7 1 1.2 2.1 1.3 2.6l-1.1.5c-.2-.7-.8-2-1.2-2.6l1-.5zM264.3 135.3c1.3-1.2 2-2.4 2.5-3.4v-.9h-2.2v-1.4h2.2v-1.9h1.5c-.1.9-.1 2.3-.1 2.8.5-.5 1.9-2 3.8-2 .9 0 1.9.6 1.9 2.2v.7l-.1 1.9c0 .3-.1 1.6-.1 1.9 0 .9 0 1.5 1.9 1.4l-.4 1.4c-2.6-.1-3-.9-2.9-2.6 0-.8.1-1.8.1-2.1l.1-1.8c0-.6.1-1.5-.8-1.5-1.3 0-2.8 1.6-3.4 2.3v6.1h-1.4v-4.2c-.4.7-.8 1.4-1.7 2.4l-.9-1.3zM287.8 132.3c-.2.2-.5.5-1.4 1.2-.2.2-.7.5-1.1.7 1 1.7 1.8 2.5 2.8 3.2l-1 1.1c-2.3-2.1-3.6-5.1-4.1-7.2h-.3c-.2.2-.3.4-.8.8.8.8 1.8 1.9 1.8 4.5 0 .5 0 2.5-1.7 2.5h-1.9l-.2-1.3h1.7c.4 0 .9 0 .9-1.4v-.7c-.9.8-2.9 2.1-5.7 2.9l-.5-1.2c2.8-.6 4.9-1.8 6-2.7-.1-.2-.1-.4-.3-.6-1.1.9-2.8 1.7-4.9 2.2l-.5-1.2c2.6-.5 4.3-1.4 4.9-1.8-.2-.2-.3-.4-.5-.5-1.7 1-3.3 1.3-4 1.4l-.5-1.2c1.9-.2 3.4-.7 4.7-1.6h-2.9v-1.1h7.8v1.1h-1.9c.2.9.5 1.5.6 1.8.2-.1 1.1-.8 1.9-1.7l1.1.8zm-6.1-4v-1h1.3v1h4.9v2.7h-1.3v-1.5h-8.5v1.5h-1.3v-2.7h4.9z"/><path class="st1" d="M339 367.8c.4-.4 1.6-1.6 1.9-4.5l1.3.2c-.1 1.1-.4 3.5-2.1 5.4l-1.1-1.1zm6.1 1.6h-1.4V362h-4.3v-1.3h4.3v-2h1.4v2h4.3v1.3h-4.3v7.4zm2.8-6.1c.3 1.5.6 3 1.9 4.6l-1.2.9c-1.1-1.4-1.6-2.7-2-5.4l1.3-.1zM362.1 363.4v1.5h-10.8v-1.5h10.8zM363.8 367.5h1.2c1.5-3.9 2.4-7.4 2.7-8.7l1.5.3c-1.1 4.2-2.2 6.9-2.8 8.4 2.2-.1 3.5-.1 5.8-.4-.7-1.3-.9-1.7-2-3.3l1.2-.6c1.5 1.9 2.3 3.4 3.2 5.6l-1.4.6c-.1-.4-.2-.6-.4-1.1-2.5.3-4.7.5-8.7.7l-.3-1.5zM380.2 359.5c-.6 5.5-2.4 8.5-3.1 9.7l-1.4-.7c1.8-2.8 2.7-5.8 3.1-9.2l1.4.2zm4.8 9.4c-.8-4.4-1.9-6.9-3-9.1l1.3-.6c1.1 2.1 2.5 5.2 3.2 9.3l-1.5.4zm-.1-10.5c.6.8.9 1.6 1.2 2.4l-.9.5c-.4-1-.6-1.6-1.2-2.4l.9-.5zm1.7-.7c.5.7.8 1.3 1.3 2.4l-.9.5c-.3-1-.6-1.6-1.2-2.4l.8-.5zM399.5 363.4v1.5h-10.8v-1.5h10.8zM360.9 377.5c.8 0 1.3.1 1.7.3.9.4 1.4 1.2 1.4 2.3 0 1.4-.8 1.9-1.2 2.2.5.3 1.5.8 1.5 2.5 0 2.8-2.6 2.8-3.5 2.8h-3.4v-10h3.5zm-2 1.3v2.8h2c.7 0 1.6-.3 1.6-1.4 0-1.4-1.3-1.4-1.9-1.4h-1.7zm0 4.1v3.2h1.9c.8 0 2.1-.1 2.1-1.6 0-1.6-1.4-1.6-1.8-1.6h-2.2zM367.6 384.8l-1 2.7h-1.7l3.8-10h2l3.8 10h-1.7l-1-2.7h-4.2zm3.7-1.3-1.7-4.6-1.6 4.6h3.3zM378.6 377.5c1.8 0 3.1 1 3.1 2.9 0 1.2-.6 2.5-2.5 2.8l3.2 4.4h-1.8l-3-4.3h-.6v4.3h-1.5v-10h3.1zm-1.7 1.3v3.1h1.1c1 0 2.1-.3 2.1-1.6s-.9-1.5-2.1-1.5h-1.1z"/><path class="st4" d="M241.2 362.2v-1.4h5.9v-2.1h1.4v2.1h3v1.4h-3v5.7c0 1.6-1.2 1.6-1.8 1.6-.3 0-1.1-.1-1.7-.1l-.2-1.4c.7.1 1.3.1 1.7.1.5 0 .7-.1.7-.5v-3.9c-.7.9-2.3 3.1-5.4 4.7l-.9-1.1c2.5-1.2 4.6-3.3 5.9-5.1h-5.6zM264 363.4v1.5h-10.8v-1.5H264zM266.5 368.2c3.4-.6 4.1-1.9 4.2-4.6h-4.8v-1.3h10.3v1.3h-4.1c-.1 4-2.1 5.2-5.1 5.8l-.5-1.2zm7.3-9v1.3h-7v-1.3h7zm1.1-1.1c.4.9.6 1.5.8 2.6l-1 .3c-.2-1-.3-1.7-.7-2.6l.9-.3zm1.8-.3c.4.9.6 1.5.8 2.6l-1 .3c-.2-1.1-.3-1.6-.7-2.6l.9-.3zM283.5 369.5h-1.3v-4.4c-1.4.9-2.5 1.4-3.8 1.9l-.6-1.2c3.9-1.1 6.5-3.9 7.3-5.1l1.1.8c-.8 1-1.8 1.8-2.8 2.7v5.3zM288.2 362.2v-1.4h5.9v-2.1h1.4v2.1h3v1.4h-3v5.7c0 1.6-1.2 1.6-1.8 1.6-.3 0-1.1-.1-1.7-.1l-.2-1.4c.7.1 1.3.1 1.7.1.5 0 .7-.1.7-.5v-3.9c-.7.9-2.3 3.1-5.4 4.7l-.9-1.1c2.5-1.2 4.6-3.3 5.9-5.1h-5.6zM255 380.8c0 4.4-1.2 6.2-2.4 7.3l-1.1-1.1c1.2-1.3 2-2.6 2-6.1v-3.1h1.4v3zm3.3 5.3c1.4-.5 2.9-1.1 3.5-4.6l1.4.6c-.6 2.6-1.7 5.5-6.2 5.8v-10.4h1.4v8.6zM275.4 381.9v1.5h-10.8v-1.5h10.8zM277.1 386.1h1.2c1.5-3.9 2.4-7.4 2.7-8.7l1.5.3c-1.1 4.2-2.2 6.9-2.8 8.4 2.2-.1 3.5-.1 5.8-.4-.7-1.3-.9-1.7-2-3.3l1.2-.6c1.5 1.9 2.3 3.4 3.2 5.6l-1.4.6c-.1-.4-.2-.6-.4-1.1-2.5.3-4.7.5-8.7.7l-.3-1.5z"/><path class="st1" d="M152.7 125.6h4.2v1.2h-4.2v1.4h5.3v1.2h-11.8v-1.2h5.2v-1.4h-4.1v-1.2h4.1v-1.1c-.7 0-3.7.1-4.3.1l-.1-1.1h1.9c.3-.6.5-.9.7-1.4h-1.5V121h7.8v1.1h-1.2c1 .8 2 1.8 2.4 2.4l-1 .8c-.2-.3-.4-.6-.8-1-1.6.1-2.1.1-2.7.2v1.1zm-1.3-7.6h1.3v1h5v2.9h-1.3v-1.7h-8.5v1.7h-1.3V119h4.9v-1zm3.3 4.1h-3.5c-.3.5-.6 1-.8 1.3 2.1 0 2.8-.1 4-.2-.2-.2-.3-.3-.7-.5l1-.6zM160.8 125.4c.6-.4 1.5-.9 2.4-2.3.5-.7.8-1.5.9-2.1h-3.3v8.8h-1.3v-10.1h4.7V118h1.3v1.8h4.6v8.9c0 1-.7 1.1-1.2 1.1h-2.1l-.2-1.3h1.8c.2 0 .3 0 .3-.3v-2.7l-.8 1.1c-.4-.3-2.5-1.7-3.2-4.1-.4 1.1-1.9 3.2-3.2 4l-.7-1.1zm7.9-4.4h-3.3c.1 1.2 1 3 3.3 4.5V121zM182.5 118.4v1.3h-4.4v3.2h5.2v1.3h-5.2v5.6h-1.4v-5.6h-5.2v-1.3h5.2v-3.2h-4.4v-1.3h10.2zM186.8 118.6c-.1 2.7-.2 5.5-.2 6.2 0 1.5.1 3 2.3 3 3.1 0 3.5-2.3 3.9-4.1l1.3.6c-.5 2.3-1.4 4.9-5.2 4.9-3.4 0-3.8-2.2-3.8-4.4 0-1 .1-5.3.1-6.1l1.6-.1z"/><path class="st4" d="M150.7 184.9v-2.7h-5.2v-1.3h11.9v1.3h-5.3v1.6c0 .5 0 .9-.1 1.1h5v1.3h-4.7c.5 2.1 2.3 3.7 5.2 4.8l-.8 1.3c-2.8-1.2-4.6-3.1-5.3-5-1.1 3.1-4 4.5-5.3 5.1l-.8-1.4c3.9-1.1 4.8-3.6 5.1-4.8H146v-1.3h4.7zM159.8 184.7c.9.4 1.5.9 1.7 1 .1-.1.2-.3.5-.7-.4-.3-1-.6-1.6-.9l.5-.8c.5.2 1.2.6 1.5.8.3-.6.4-1 .5-1.4h-2.2c-.4.7-1 1.6-1.9 2.5l-.7-1.2c1.1-1 1.8-1.9 2.2-3.4l1.3.2c-.1.3-.2.4-.3.8h3.1c-.1.5-.1.9-.3 1.4h1.6v-2.4h1.3v2.4h3.2v1.1h-2.9c.8 1.9 1.4 2.7 2.9 3.9l-.8 1.2c-2.1-1.6-2.7-3.5-2.9-4.3-.6 2-2.1 3.5-3.6 4.3l-.9-1.1c2.6-1.3 3.2-2.8 3.5-4h-1.8c-1.2 3.1-3.7 4.4-4.7 5l-.7-1.1c.6-.3 1.6-.7 2.5-1.6-.2-.1-.7-.6-1.5-.9l.5-.8zm1 5c-.1.3-.6 1.8-1.7 2.7l-1-.9c.7-.6 1.2-1.4 1.6-2.3l1.1.5zm2.3-.2c0 .4.1.9.1 1.8v.9h-1.4c.1-.4.2-.8.2-1.7 0-.5 0-.7-.1-1h1.2zm2.7-.2c.2.6.5 1.7.6 2.7l-1.3.1c-.1-1-.2-1.6-.6-2.7l1.3-.1zm2.5-.4c.7.7 1.5 1.9 1.8 2.5l-1.1.8c-.4-.8-1.1-2-1.7-2.8l1-.5zm0-8.4c.4.3 1.2 1.2 1.5 1.6l-1 .8c-.5-.7-.8-1-1.5-1.7l1-.7zM179.6 186.2c-1.1 1-2.2 1.7-2.4 1.9.8 0 2-.1 3-.1-.3-.5-.5-.6-.7-.9l1-.6c.9.9 1.5 1.7 2.1 2.7l-1.1.7c-.2-.3-.3-.4-.6-.9-.6 0-3.2.2-3.5.2v3.3h-1.3v-3.2c-1.4 0-3.5.1-5.2.1l-.1-1.1c3.1 0 3.4 0 4.3-.1-1.1-.6-1.8-1-2.8-1.3l.8-.9c.3.1.4.1.9.4.6-.5.7-.6.9-.8h-4v-1h5.3v-.7H172v-.9h4.2v-.6h-4.8v-1h4.8v-.7h1.3v.7h4.9v1h-4.9v.6h4.2v.9h-4.2v.7h5.3v1h-6.1c-.1.1-1 .9-1.6 1.3.2.1 1 .5 1.2.7.5-.4 1.5-1.2 2.2-1.9l1.1.5zm-4.9 4c-.7.8-1.9 1.6-3 2l-.8-1c1-.4 2-.9 2.8-1.7l1 .7zm7.1 2.1c-1.6-.7-2.7-1.8-3-2.1l.9-.8c1 .9 2.1 1.5 2.9 1.8l-.8 1.1zM183.3 188.2c.9-.9 1.9-2.7 2.3-4.1h-2v-1.2h2.1v-2.3h1.3v2.3h1.8v1.2H187v.9c.1.2.6 1.2 2 2.3l-.8 1.1c-.5-.6-.8-1-1.2-1.8v5.8h-1.3v-5.8c-.5 1.3-.8 2-1.8 3.2l-.6-1.6zm4.5 1.2c.7-.5 2.8-1.9 4.5-5.3h-3.2v-1.3h3.4v-2.3h1.3v2.3h1.6v1.3h-1.6v7.2c0 .9-.9 1.1-1.3 1.1h-2l-.2-1.3h1.7c.5 0 .5-.1.5-.5v-4.4c-.8 1.5-2.1 3.2-3.7 4.3l-1-1.1z"/><path class="st1" d="M447.7 183.9h1.9v1.2h-1.9c.3.4.9 1.5 2 2.4l-.6 1.3c-.6-.5-1-1.2-1.4-1.9v5.6h-1.3v-5.3c-.3.6-.9 1.7-2.1 3l-.5-1.6c.6-.6 1.3-1.4 2.4-3.4H444V184h2.4v-1.6c-.9.1-1.4.1-2.1.1l-.3-1.2c.5 0 2.8-.1 5-.6l.5 1.2c-.6.1-.9.2-1.8.3v1.7zm7.9 8.1H450v-10.6h5.6V192zm-1.3-9.3h-3v8.1h3v-8.1zM457.8 180.9h9.7c-.1 1-.2 3-.2 5.1 0 1.3 0 2.8.2 4 0 .2 0 .3.1.3s.1-.1.1-.2c.1-.3.2-.9.2-1.2l.9.6c-.1.8-.5 2.8-1.5 2.8-.3 0-.5-.2-.6-.5-.5-.8-.7-3.7-.7-5.6v-4.1h-7v4.5c0 .8 0 3.7-1.4 5.8l-1-1.1c1.1-1.8 1.1-4 1.1-4.6v-5.8zm7.2 11.2c-.1-.2-.1-.4-.3-.8-1.7.2-4.6.3-5.5.4l-.2-1.3h2.8v-1.7h-2.1v-3.8h2.1v-.9h-2.3l-.1-1c3.9 0 5.2-.2 5.8-.4l.4 1.1c-.4.1-1.1.2-2.5.2v.8h2.2v3.8h-2.2v1.7c.4 0 .9-.1 1.2-.1-.1-.3-.2-.4-.4-.8l1.1-.4c.5.7 1 1.8 1.2 2.6l-1.2.6zm-4.1-6.3v1.7h1v-1.7h-1zm2.2 0v1.7h1v-1.7h-1zM470.2 181.5h4.6v-.9h1.3v.9h5.1v1.2h-9.8v4.2c0 1.3-.1 3.6-1.1 5.5l-1.2-.9c.8-1.5 1-3.3 1-4.5v-5.5zm2.4 6.4c.2.3.4.7.8 1.3.3-.7.4-1.2.5-1.7h-2v-.9c.1 0 1.3-1.4 1.7-2.2h-1.8v-1h3.1v1c-.5 1-1.4 1.9-1.6 2.1h1.7v1c-.1.5-.3 1.4-.8 2.5 1.1.8 2.5.8 3 .8h4.2l-.3 1.2H477c-1.3 0-2.6-.3-3.5-1-.6.9-1 1.1-1.4 1.4l-.9-.8c.4-.3.9-.6 1.5-1.4-.4-.5-.7-.9-1.2-1.9l1.1-.4zm5.1-3.3h-1.8l-.2-1c.5 0 3 0 5-.5l.4 1c-.4.1-1 .3-2.2.4v1.4h2.4v1.1h-2.4v1.8h2.1v1.1h-5.3v-1.1h2V187h-2.3v-1.1h2.3v-1.3zM493.4 192.1h-10.8V181h10.8v11.1zm-1.3-10.1h-8.4v8.9h8.4V182zm-.5 6.1c-.4.5-1 1-1.1 1.1.4.2.6.3 1.3.5l-.6.9c-1.2-.4-2.2-1.2-2.8-1.7v1.7h-1.1v-1.8c-.3.3-1.2 1.1-2.6 1.5l-.5-1c.4-.1 1.5-.5 2.6-1.5h-2.2v-2.3h6.6v2.3l.4.3zm-.4-4.4h-2.7v.5h3.2v.8h-7.5v-.8h3.1v-.5h-2.7v-.8h2.7v-.6h1.2v.6h2.7v.8zm-1.1 2.6h-4.3v.7h4.3v-.7zm-1.5 1.6c.4.4.7.6 1 .8.4-.4.7-.8.8-.8h-1.8z"/><path class="st4" d="M439.9 122.9c1.5-.9 2.6-2.1 3.3-3.8h6.7c-.2 2-.8 8.2-8.5 10.2l-.7-1.3c3.2-.7 4.8-2.3 5.3-2.9-1-.9-2-1.6-3.7-2.4-.4.3-.7.7-1.5 1.2l-.9-1zm4.3-2.5c-.5.8-.7 1.1-1 1.4.5.3 2.3 1.1 3.7 2.3.6-1 1.1-2 1.4-3.7h-4.1zM458.5 129.2H457v-5.6c-2.1 1.3-3.4 1.8-4.7 2.3l-.7-1.3c3.6-1.1 6.7-3.3 9-6.2l1.3.9c-1 1.2-1.8 2-3.4 3.3v6.6zM467 122c0 4.4-1.2 6.2-2.4 7.3l-1.1-1.1c1.2-1.3 2-2.6 2-6.1V119h1.4v3zm3.3 5.3c1.4-.5 2.9-1.1 3.5-4.6l1.4.6c-.6 2.6-1.7 5.5-6.2 5.8v-10.4h1.4v8.6zM475.8 129c.4-.4.9-.9 1.3-2l1.1.5c-.3.8-.7 1.6-1.4 2.3l-1-.8zm4.9-10.7v8.4h-4.3v-8.4h4.3zm-1.1 1.1h-2v1.3h2v-1.3zm0 2.4h-2v1.3h2v-1.3zm0 2.4h-2v1.3h2v-1.3zm.4 5.4c-.2-.5-.5-1.3-1-2.1l1.1-.5c.6.9 1 1.8 1.1 2.2l-1.2.4zm7.9-8.6h-3.2v2.5h2.7v6h-5.9v-6h1.9V118h1.3v1.8h3.2v1.2zm-1.7 3.7h-3.4v3.6h3.4v-3.6zM491.6 118.8c-.2.7-.5 2.1-.5 4.3.4-.7.6-1.1.9-1.4l.8.7c-.4.5-.7 1-1.2 1.9-.4.7-.4 1.1-.4 1.5l-1.3.1c-.1-.5-.2-1.5-.2-3 0-2 .3-3.5.4-4.2l1.5.1zm5.8-.1c.2 2.3.2 3.9.2 4.2 0 3-.3 5.3-4.8 6.4l-1.1-1.1c4.4-1.1 4.4-3 4.4-5.5 0-1.8-.1-3.4-.2-4.1h1.5z"/><path class="st1" d="m357.9 125.5.4-.4 1 .8c-.9.9-1.9 1.5-2.6 1.9.9.4 1.6.6 2.8.8l-.6 1.3c-2.3-.5-4.5-1.4-6.4-4h-2v2.4c1.2-.1 2.4-.3 3.5-.4l.1 1.2c-1 .2-2.2.4-6.1.7l-.2-1.3c.5 0 .8 0 1.4-.1v-6.6c-.5.2-.7.3-1.1.4l-.7-1.3c2.5-.5 4.4-1.9 5.5-3h1.6c1.5 1.7 3 2.5 5.3 3.1l-.7 1.2c-.6-.2-.8-.3-1.2-.5v3.8zm-1.3-3.3h-6.1v.8h6.1v-.8zm0 1.8h-6.1v.9h6.1v-.9zm0-2.8c-.8-.5-1.7-1.1-3-2.2-1.3 1.2-2.8 2.1-3.1 2.2h2.4V120h1.3v1.2h2.4zm-2.7 4.7c.5.6.9.9 1.6 1.4 1-.6 1.8-1.2 2-1.4h-3.6zM368.8 123.9v5.7h-4.9v-5.7h4.9zm4.9-5.6v4.5h-8.6v-4.5h8.6zm-8.6 6.7v3.3h2.5V125h-2.5zm1.2-5.5v2.1h6.2v-2.1h-6.2zm8.6 4.4v5.7h-5.1v-5.7h5.1zM371 125v3.3h2.7V125H371zM380.1 118.9h4.6v-.9h1.3v.9h5.1v1.1h-9.7v4.6c0 .3 0 1.4-.3 2.8-.2 1.1-.5 1.5-.9 2.2l-1.1-1c.3-.5 1.1-1.7 1.1-4.1v-5.6zm10.9 9.6h-4.2v1.3h-1.2v-1.3h-4.2v-1.1h4.2v-.7h-3.3v-4h3.3v-.7h-4v-1.1h4v-.6h1.2v.6h4.1v1.1h-4.1v.7h3.4v4h-3.4v.7h4.2v1.1zm-7.5-5.1v.8h2.1v-.8h-2.1zm0 1.6v.8h2.1v-.8h-2.1zm3.3-1.6v.8h2.2v-.8h-2.2zm0 1.6v.8h2.2v-.8h-2.2z"/><path class="st4" d="M57.2 372.5c-.2.2-.5.5-1.4 1.2-.2.2-.7.5-1.1.7 1 1.7 1.8 2.5 2.8 3.2l-1 1.1c-2.3-2.1-3.7-5.1-4.1-7.2h-.3c-.2.2-.3.4-.8.8.8.8 1.8 1.9 1.8 4.5 0 .5 0 2.5-1.7 2.5h-1.9l-.2-1.3H51c.4 0 .9 0 .9-1.4v-.7c-.9.8-2.9 2.1-5.7 2.9l-.5-1.2c2.8-.6 4.9-1.8 6-2.7-.1-.2-.1-.4-.3-.6-1.1.9-2.8 1.7-4.9 2.2l-.5-1.2c2.6-.5 4.3-1.4 4.9-1.8-.2-.2-.3-.4-.5-.5-1.7 1-3.3 1.3-4 1.4l-.5-1.2c1.9-.2 3.4-.7 4.7-1.6h-2.9v-1.1h7.8v1.1h-1.9c.2.9.5 1.5.6 1.8.2-.1 1.1-.8 1.9-1.7l1.1.8zm-6.2-4v-1h1.3v1h4.9v2.7h-1.3v-1.5h-8.5v1.5h-1.3v-2.7H51zM70.1 369.3h-5.3v.6H69v2.5h-4.2v.6h4.5v1.5h.8v1.1h-.8v1.5h-4.5v.9c0 .7-.3 1.3-1.1 1.3h-2.3l-.2-1.3h1.9c.3 0 .4-.1.4-.4v-.5H59v-.9h4.6v-.7h-5.3v-1h5.3v-.6h-4.5v-1h4.5v-.6h-4.1v-2.5h4.1v-.6h-5.2v-1h5.2v-.8h1.3v.8h5.3v1.1zm-6.5 1.5h-2.8v.7h2.8v-.7zm4.2 0h-2.9v.7h2.9v-.7zm.2 3.1h-3.1v.6H68v-.6zm0 1.6h-3.2v.7H68v-.7zM81.8 374v1.3h-4.3v2.3h5.3v1.3H71v-1.3h5.2v-2.3H72V374h9.8zm-5.6-6.6h1.3v1.1h4.9v2.4h-1.3v-1.2h-2.4v1.8c0 .2 0 .3.2.3h1.2c.4 0 .4 0 .5-.8l1.3.2c-.1 1.1-.3 1.7-1.3 1.7h-2.3c-.4 0-.9-.1-.9-.8v-2.5h-1.5c-.4 1.7-1.6 3.3-4.3 3.9l-.6-1.3c2.3-.3 3.3-1.4 3.6-2.6h-2.3v1.4H71v-2.6h4.9v-1zM84.1 368h4.8v4.6h-3.5v6.7h-1.3V368zm1.2 1v.8h2.3v-.8h-2.3zm0 1.7v.8h2.3v-.8h-2.3zm7.1 2.6v4.7h-5.9v-4.7h5.9zm-4.6 1v.9h3.5v-.9h-3.5zm0 1.7v.9h3.5v-.9h-3.5zm5.9-3.4H90V368h5v10.1c0 .4 0 1.2-.8 1.2h-1.9L92 378h1.4c.2 0 .3 0 .3-.3v-5.1zm-2.5-3.6v.8h2.5v-.8h-2.5zm0 1.7v.8h2.5v-.8h-2.5z"/><path class="st1" d="M163.1 249.4c-3.4-1.1-4.7-2.1-5.6-3.2-1.7 1.6-3 2.4-5.5 3.2l-.6-1.3c2-.5 4.2-1.3 5.4-2.9h1.4c1.3 1.8 3.7 2.5 5.5 2.9l-.6 1.3zm-8.9-7h1.3v1h4.1v-1h1.3v1h2.7v1.2h-2.7v1h-1.3v-1h-4.1v1h-1.3v-1h-2.6v-1.2h2.6v-1zm1.6 9.2c-1.1 1.4-2.7 2.2-3.2 2.4l-.9-1c1.4-.6 2.6-1.5 3.1-2.2l1 .8zm-3-2.4h4.1v-1.5h1.3v1.5h4.1v1.2h-4.1v3.9h-1.3v-3.9h-4.1v-1.2zm9.7 4.9c-1.5-.9-2.3-1.5-3.2-2.4l1-.8c1.1 1.2 2.6 1.9 3.1 2.2l-.9 1zM183.4 250.1h4.2v1.2h-4.2v1.4h5.3v1.2h-11.8v-1.2h5.2v-1.4H178v-1.2h4.1V249c-.7 0-3.7.1-4.3.1l-.1-1.1h1.9c.3-.6.5-.9.7-1.4h-1.5v-1.1h7.8v1.1h-1.2c1 .8 2 1.8 2.4 2.4l-1 .8c-.2-.3-.4-.6-.8-1-1.6.1-2.1.1-2.7.1v1.2zm-1.3-7.7h1.3v1h5v2.9h-1.3v-1.7h-8.5v1.7h-1.3v-2.9h4.9v-1zm3.3 4.2h-3.5c-.3.5-.6 1-.8 1.3 2.1 0 2.8 0 4-.1-.2-.2-.3-.3-.7-.5l1-.7zM145.4 371.4c-.6 5-2.9 6.8-8.1 7.3l-.4-1.4c2.2-.1 3.7-.6 4.7-1.2.7-.4 1.8-1.5 2.2-3.4h-8.4v-1.3h10zm-.7-3v1.3h-8.3v-1.3h8.3zM153.9 378.7h-1.5v-5.6c-2.1 1.3-3.4 1.8-4.7 2.3l-.7-1.3c3.6-1.1 6.7-3.3 9-6.2l1.3.9c-1 1.2-1.8 2-3.4 3.3v6.6zM166.8 369l1.6 1.9c-.4 1.8-.7 3.3-2.1 4.9-.9 1-2.7 2.5-5.4 2.9l-.7-1.3c4.9-.8 6.3-3.6 6.7-7h-7.7V369h7.6zm.8-1.6c.6.7 1 1.3 1.5 2.3l-.8.6c-.5-1-.8-1.5-1.4-2.3l.7-.6zm1.8-.4c.6.7.9 1.3 1.4 2.3l-.8.6c-.5-1-.7-1.5-1.4-2.3l.8-.6zM181.8 371.4c-.6 5-2.9 6.8-8.1 7.3l-.4-1.4c2.2-.1 3.7-.6 4.7-1.2.7-.4 1.8-1.5 2.2-3.4h-8.4v-1.3h10zm-.8-3v1.3h-8.3v-1.3h8.3zM185.7 375.1h-1.5v-6.8h1.5v6.8zm6.2-1.6c0 4.3-3.5 5-6.7 5.2l-.5-1.4c3.3-.2 5.7-.7 5.7-3.7v-5.4h1.5v5.3zM205 372.6v1.5h-10.8v-1.5H205z"/><path class="st4" d="M349.7 302.1c-1.6-.9-2.9-1.3-3.6-1.5l.5-1.2c.7.2 2 .5 3.7 1.4l-.6 1.3zm-2.9 3.1c5.1-.5 7.1-2.4 8.5-7l1.2.9c-1.8 5.4-4.4 7-9.4 7.7l-.3-1.6zm4-6.1c-1.4-.8-2.7-1.2-3.7-1.5l.5-1.2c1.4.3 2.4.7 3.8 1.4l-.6 1.3zM366.9 296.8c-.6 2.6-1.5 4.1-2.3 5.2.7.5 2.3 1.8 4.2 3.7l-1.2 1.1c-.6-.6-1.7-1.8-3.9-3.8-1.7 1.9-3.5 3.1-5 3.8l-.8-1.2c1.5-.6 5.3-2.5 7.2-7.5h-6.5v-1.3h8.3zM370.8 305.7c3.2-.5 4.1-1.7 4.2-4.6h-4.8v-1.3h10.3v1.3h-4.1c-.1 3.7-1.7 5.2-5.1 5.8l-.5-1.2zm8.7-9.1v1.3h-8.3v-1.3h8.3zM382.1 305h1.2c1.5-3.9 2.4-7.4 2.7-8.7l1.5.3c-1.1 4.2-2.2 6.9-2.8 8.4 2.2-.1 3.5-.1 5.8-.4-.7-1.3-.9-1.7-2-3.3l1.2-.6c1.5 1.9 2.3 3.4 3.2 5.6l-1.4.6c-.1-.4-.2-.6-.4-1.1-2.5.3-4.7.5-8.7.7l-.3-1.5zM368.6 319.3c-.2.2-.5.5-1.4 1.2-.2.2-.7.5-1.1.7 1 1.7 1.8 2.5 2.8 3.2l-1 1.1c-2.3-2.1-3.6-5.1-4.1-7.2h-.3c-.2.2-.3.4-.8.8.8.8 1.8 1.9 1.8 4.5 0 .5 0 2.5-1.7 2.5H361l-.2-1.3h1.7c.4 0 .9 0 .9-1.4v-.7c-.9.8-2.9 2.1-5.7 2.9l-.5-1.2c2.8-.6 4.9-1.8 6-2.7-.1-.2-.1-.4-.3-.6-1.1.9-2.8 1.7-4.9 2.2l-.5-1.2c2.6-.5 4.3-1.4 4.9-1.8-.2-.2-.3-.4-.5-.5-1.7 1-3.3 1.3-4 1.4l-.5-1.2c1.9-.2 3.4-.7 4.7-1.6h-2.9v-1.1h7.8v1.1h-2c.2.9.5 1.5.6 1.8.2-.1 1.1-.8 1.9-1.7l1.1.8zm-6.2-4v-1h1.3v1h4.9v2.7h-1.3v-1.5h-8.5v1.5h-1.3v-2.7h4.9zM369.7 324.9c.6-.1 2.5-.4 3.8-1.3l.9.9c-1 .7-2.3 1.1-4 1.6l-.7-1.2zm.1-2.5h11.9v1.2h-11.9v-1.2zm10.5-7.7v7h-9.1v-7h9.1zm-1.3 1.1h-6.6v.9h6.6v-.9zm0 1.9h-6.6v.9h6.6v-.9zm0 1.9h-6.6v.9h6.6v-.9zm-.9 4c1.4.9 3.1 1.2 3.7 1.2l-.6 1.2c-2.1-.4-3.3-1.1-3.9-1.5l.8-.9z"/><path class="st1" d="M447 304.9c-.8.5-1.5.8-1.8 1l-.3-1.4c.7-.2 1.6-.6 2.1-.9v-5.7h1.1v9.7H447v-2.7zm-1-5.2c.3.5.7 1.4.8 1.9l-1.1.5c-.1-.5-.5-1.4-.7-1.9l1-.5zm9.3-1.8v-.5h-8.7v1.7h-1.2v-2.8h4.8v-.6h1.3v.6h5v2.8h-1v2.3H449v-.9h5.3v-.5h-5v-.7h5v-.5H449v-.9h6.3zm-5.6 5.8h-1.1v-1.9h8v1.9h-1.1v.5c-.2.3-.6.9-1.6 1.6 1.3.4 2.4.5 3.1.6l-.4 1.2c-1.2-.2-2.4-.4-3.9-1.1-.9.4-1.9.8-3.8 1.1l-.4-1.2c.6 0 1.6-.1 3-.6-.9-.6-1.2-1-1.4-1.3l.4-.3h-.8v-.5zm5.7-.4v-.5h-5.7v.5h5.7zm-4.4.9c.6.6 1.1.9 1.5 1.1.9-.5 1.2-.8 1.4-1.1H451zM464.2 303.3h4.2v1.2h-4.2v1.4h5.3v1.2h-11.8v-1.2h5.2v-1.4h-4.1v-1.2h4.1v-1.1c-.7 0-3.7.1-4.3.1l-.1-1.1h1.9c.3-.6.5-.9.7-1.4h-1.5v-1.1h7.8v1.1h-1.2c1 .8 2 1.8 2.4 2.4l-1 .8c-.2-.3-.4-.6-.8-1-1.6.1-2.1.1-2.7.2v1.1zm-1.3-7.6h1.3v1h5v2.9h-1.3v-1.7h-8.5v1.7H458v-2.9h4.9v-1zm3.2 4.1h-3.5c-.3.5-.6 1-.8 1.3 2.1 0 2.8-.1 4-.2-.2-.2-.3-.3-.7-.5l1-.6zM470.6 306.2c.8-1.6 1.6-3.8 2.2-6.5h-1.9v-1.4h2.1c.1-.7.2-1.4.3-2.2l1.5.1c-.1 1-.2 1.4-.3 2.2h1.3c1.7 0 2.8.6 2.8 3.4 0 1-.2 2.8-.6 3.8-.4 1-1.2 1.3-2.3 1.3-.7 0-1.3-.1-1.4-.1l-.1-1.4c.3.1.7.1 1.3.1.9 0 1.1-.4 1.3-1.1.2-.7.3-1.8.3-2.7 0-1.7-.5-2-1.9-2h-1c-.5 2.2-1.1 5-2.2 7.2l-1.4-.7zm9.6-3.2c0-1-.3-3.3-1.7-5.1l1.2-.6c.4.5 1.7 1.9 2 5.4l-1.5.3zM485.2 298.2c-.2.8-.4 1.4-.4 3.3 1.3-.9 2.6-1.4 4.1-1.4 2.9 0 3.5 2 3.5 3 0 2.7-2.3 3.7-5.7 3.7-1.2 0-1.9-.1-2.4-.2l-.2-1.4c.5.1 1.3.2 2.5.2 3.3 0 4.4-1 4.4-2.5 0-.8-.6-1.7-2.1-1.7-1.6 0-3.2.7-4 1.7v.3h-1.4c.1-3.4.1-3.9.4-5.2l1.3.2zm5.3.2c-1.3-.5-3-.8-5.2-1l.3-1.3c3 .1 4.5.5 5.3.8l-.4 1.5zM442.9 315.5c-.6 5.5-2.4 8.5-3.1 9.7l-1.4-.7c1.8-2.8 2.7-5.8 3.1-9.2l1.4.2zm4.8 9.5c-.8-4.4-1.9-6.9-3-9.1l1.3-.6c1.1 2.1 2.5 5.2 3.2 9.3l-1.5.4zm-.1-10.5c.6.8.9 1.6 1.2 2.4l-.9.5c-.4-1-.6-1.6-1.2-2.4l.9-.5zm1.7-.7c.5.7.8 1.3 1.3 2.4l-.9.5c-.3-1-.6-1.6-1.2-2.4l.8-.5zM460.2 315.4c-.6 2.6-1.5 4.1-2.3 5.2.7.5 2.3 1.8 4.2 3.7l-1.2 1.1c-.6-.6-1.7-1.8-3.9-3.8-1.7 1.9-3.5 3.1-5 3.8l-.8-1.2c1.5-.6 5.3-2.5 7.2-7.5h-6.5v-1.3h8.3zM466.6 318.3c0 4.4-1.2 6.2-2.4 7.3l-1.1-1.1c1.2-1.3 2-2.6 2-6.1v-3.1h1.4v3zm3.3 5.3c1.4-.5 2.9-1.1 3.5-4.6l1.4.6c-.6 2.6-1.7 5.5-6.2 5.8V315h1.4v8.6zM487 319.4v1.5h-10.8v-1.5H487zM488.7 323.6h1.2c1.5-3.9 2.4-7.4 2.7-8.7l1.5.3c-1.1 4.2-2.2 6.9-2.8 8.4 2.2-.1 3.5-.1 5.8-.4-.7-1.3-.9-1.7-2-3.3l1.2-.6c1.5 1.9 2.3 3.4 3.2 5.6l-1.4.6c-.1-.4-.2-.6-.4-1.1-2.5.3-4.7.5-8.7.7l-.3-1.5zM252.8 296.1h9.9v1.3c-1.5 1.2-2.2 1.6-4.3 2.6v.9h5.2v1.3h-5.2v4c0 .9-.2 1.4-1.4 1.4h-2.6l-.2-1.3h2.2c.4 0 .5-.1.5-.5v-3.6h-5.2v-1.3h5.2v-2h1.1c.8-.4 2-1.1 2.4-1.4h-7.8v-1.4zM274.2 300.5c-.5.1-7.6.8-7.6 3.4 0 1.3 1.4 1.5 3.9 1.5 2.1 0 3.4-.1 4.1-.2v1.5c-.8.1-1.8.1-3.7.1-2.2 0-5.8 0-5.8-2.8 0-2.1 2.5-3.2 3.3-3.6-.5-.8-.5-1.6-.5-4.2h1.5v1.4c0 1.4.1 1.8.3 2.3 1.1-.3 2.3-.6 4.2-.9l.3 1.5zm-1.6-4.8c.5.8.8 1.5 1.1 2.5l-1 .5c-.3-1-.6-1.6-1.1-2.5l1-.5zm2-.4c.2.4.7 1 1.1 2.5l-1 .5c-.3-1-.6-1.6-1.1-2.5l1-.5zM284.3 297.8v1.3h-3.9l-.1 2.1h1.5c1 0 1.7-.1 2.3-.2l.1 1.3c-.5.2-1.5.2-2.3.2h-1.5c0 2.6 0 3 2.4 3 1.4 0 2.9-.1 2.9-2.2 0-1-.3-1.8-.7-2.7l1.3-.3c.5 1 .9 2 .9 3.2 0 3.4-2.8 3.4-4.4 3.4-1.7 0-2.8-.2-3.4-1.4-.4-.7-.4-1.6-.3-3h-2.3v-1.3h2.3v-2.1h-2.2v-1.3h2.2v-1.6h1.5v1.6h3.7zM260.3 315.3v-1h1.3v1h2.5v1.1h-.8c-.1.7-.3 1.7-.5 2.5h1.5v1.1h-6.8v-1.1h1.5c-.1-.9-.2-1.8-.4-2.5h-.9v-1.1h2.6zm3.6 10.6h-5.8v-5h5.8v5zm-1.2-3.9h-3.3v2.7h3.3V322zm-1.1-3.1c.3-1 .4-2.1.5-2.5h-2.2c.2.9.3 1.5.4 2.5h1.3zm3.2 7.2v-11.5h4.5v1.1c-.6 1.6-.7 1.7-1.4 3.2 1.3 1.3 1.6 2.7 1.6 3.8 0 .7-.2 1.4-.6 1.8-.3.3-.7.4-1.4.4h-.9l-.2-1.3h.8c.4 0 .9-.1.9-1.1 0-1.3-.7-2.5-1.7-3.3.5-1 1.1-2.5 1.4-3.4h-1.7v10.4h-1.3zM276.4 321.5c-2.8.1-3.1.1-3.4.1l-.2-1.2h1c.4-.6.4-.7.6-1.2h-1.9v.6c0 3.1-.3 4.5-1.4 6.1l-1.1-.9c1.1-2 1.1-3.3 1.1-5.2v-5.2h10.2v2.8h-8.9v.7h9.5v1.1h-2.3c1.3 1.3 1.5 1.5 1.9 2l-1 .8c-.2-.2-.3-.4-.6-.8-.6.1-1.6.1-2.3.2v1h3.8v1h-3.8v1.2h4.3v1.1h-9.5v-1.1h3.9v-1.2H273v-1h3.3v-.9zm-3.9-5.9v.9h7.6v-.9h-7.6zm6.8 3.7H276c-.5.8-.5.9-.8 1.2 1.7 0 2.8 0 4.1-.1l-.7-.7.7-.4z"/><path class="st4" d="M163.9 306.4h-1.5v-8.7h-3.2v-1.4h8v1.4H164v8.7zM173.3 296.4l3.1 8.6 3.1-8.6h1.7l-3.8 10h-1.9l-3.8-10h1.6zM153.5 323.9c.4-.4 1.6-1.6 1.9-4.5l1.3.1c-.1 1.3-.5 3.6-2.1 5.4l-1.1-1zm6 1.6h-1.4v-7.3h-4.3v-1.3h4.3v-2.1h1.4v2.1h4.3v1.3h-4.3v7.3zm2.8-6.2c.3 1.5.6 3 1.9 4.6l-1.2.9c-1.1-1.4-1.6-2.7-2-5.4l1.3-.1zm-.3-5.5c.3.5.7 1.2 1.1 2.4l-.9.4c-.3-1-.5-1.5-1-2.4l.8-.4zm2 0c.5.8.7 1.4 1.1 2.4l-1 .4c-.3-1-.5-1.5-1-2.4l.9-.4zM176.8 319.4v1.5H166v-1.5h10.8zM186.2 322.1c-2-1.3-3.3-1.9-5.3-2.7v6.2h-1.5v-10.8h1.5v3.1c3 .9 5.2 2.2 6.1 2.7l-.8 1.5zm-2-6.9c.6.7 1 1.5 1.4 2.4l-1 .6c-.4-1-.7-1.6-1.3-2.4l.9-.6zm1.8-.9c.5.7.9 1.3 1.4 2.4l-1 .6c-.4-1.1-.7-1.5-1.3-2.4l.9-.6zM46.1 235.7c1.9-.6 3-1.1 4.3-2.5l1.4.2c-.2.3-.3.4-.5.7h4.1v1.1c-1.7 2.1-3.7 3.8-9.1 5l-.4-1.3c.7-.1 2.2-.3 4.2-1.2-.4-.5-.8-.8-1.6-1.5-.8.4-1.3.6-1.7.7l-.7-1.2zm.9 8c1.1-.1 3.1-.2 5.4-1.1-.5-.8-1.1-1.4-1.4-1.7-1.3.7-2.3 1-2.8 1.2l-.7-1.1c.9-.3 3.8-1.1 6.1-3.7l1.4.3c-.2.3-.4.5-.8.9h3.6v1.1c-2.3 4.1-7.1 5.3-10.4 5.4l-.4-1.3zm3.1-8.6c-.1.1-.3.2-.6.4.6.5 1.2 1 1.7 1.6 1.6-.9 2.3-1.7 2.6-2h-3.7zm2.9 4.5c-.3.3-.5.4-1 .7.6.5 1 1.1 1.6 1.7 1.7-.9 2.4-2 2.7-2.4H53zM64.9 243.3c-.5-.6-1.2-.9-1.4-1-.2 1.5-.6 2.2-1.1 2.8l-.9-.9c.8-1 .9-1.7.9-3.6H62v-.9l-.5.8c-.2-.3-.4-.7-.6-1.3v5.9h-1.2v-5c-.2.8-.3 1.3-.8 2.2l-.6-1.7c.7-1.2 1.1-2.5 1.3-3.9h-1.2v-1.2h1.2v-2.3H61v2.3h.8v1.2H61v.5c.1.3.4 1.1 1.2 2.1h3.4c-.2-1.5-.4-3.7-.4-6.1h1.3v1.7l.6-.7c.1.1.2.1.2.2.3-.4.5-.7.7-1.2l.9.3c-.2.3-.4.7-1 1.5.2.2.3.3.4.5.5-.7.7-1 .8-1.2l.8.4c-.9 1.2-1 1.4-2.1 2.6.7 0 .9 0 1.3-.1-.1-.3-.2-.4-.3-.6l.8-.3c.5 1 .6 1.6.7 1.9l-.9.4c-.1-.4-.1-.4-.2-.6-.3.1-.7.1-1 .1l.9.6-.5.6h1.5v1.1h-3.3c.1.6.3 1.2.4 1.6.6-.6.8-1 1.1-1.4l1.1.5c-.2.4-.7 1.2-1.7 2.1.1.3.4.7.7.7.3 0 .6-.9.8-1.5l.9.8c-.4 1.5-.9 1.8-1.7 1.8-.9 0-1.4-.4-1.8-1.1-1.1.7-1.9.9-2.4 1.1l-.5-1.1c.5-.1 1.3-.3 2.4-1.1-.2-.5-.5-1.3-.7-2.4h-2.2v.7c1 .3 1.6.8 2 1.1l-.3 1.1zm-3.1-5.9c.2-.3.5-.6 1-1.2-.2-.2-.7-.8-1.4-1.4l.7-.8c.1.1.2.2.3.2.3-.4.5-.7.8-1.2l.9.3c-.2.4-.5.9-1.1 1.5.1.2.3.3.4.5l.8-1.2.8.5c-.7 1.1-2.1 2.6-2.2 2.7.3 0 .8 0 1.1-.1-.1-.2-.1-.4-.2-.6l.9-.3c.3.7.5 1.4.6 1.9l-.9.3c0-.2-.1-.3-.1-.5-.1 0-2.4.2-2.6.2l-.1-1h.3zm5.9-1.2c-.4-.5-.8-.9-1.2-1.3 0 .6.1 1.7.1 2.4h.2c.5-.6.8-.9.9-1.1zm.2 1.9c-.2 0-1.1.1-1.2.1.1.5.1.9.2 1.1h1.7c-.4-.3-.6-.4-1-.7l.3-.5zM75.9 237c-.1-.2-.1-.4-.4-.8-.8.1-3 .4-4.6.5l-.1-1.1h.9c.4-.7.7-1.6.9-2.3l1.3.2c-.2.6-.3.9-.9 2.1.1 0 1.4-.1 2.1-.2-.3-.5-.5-.8-.7-1.1l1-.6c1.1 1.4 1.4 2 1.7 2.8l-1.2.5zm-4.5.3h4.9v6.6c0 .8-.7 1-1 1h-1.6l-.2-1.2h1.3c.2 0 .3-.1.3-.2v-1h-2.4v2.4h-1.2v-7.6zm1.2 1.1v1H75v-1h-2.4zm0 2.1v1.1H75v-1.1h-2.4zm6.2-7.3v1.8c.4-.1 1.9-.7 3-1.4l.7 1c-.9.5-2.3 1.1-3.7 1.5v1.2c0 .1 0 .3.3.3h1.7c.4 0 .6 0 .6-1.4l1.2.4c-.1 1.7-.4 2.3-1.4 2.3h-2.6c-1.1 0-1.2-.8-1.2-1.1v-4.5h1.4zm-1.3 5.9h1.3v1.7c.5-.2 2-.8 2.8-1.4l.7 1.1c-1.1.7-2.6 1.2-3.5 1.5v1.4c0 .3.2.4.4.4h1.7c.4 0 .4 0 .6-1.7l1.2.3c-.2 2.1-.4 2.6-1.6 2.6h-2.5c-1.1 0-1.1-.9-1.1-1.2v-4.7zM89.9 235.2v1.3h-2.7c-.5 2.3-1.2 4.4-2.1 6.5l-1.4-.6c1.1-2 1.7-3.9 2.1-5.9h-2v-1.3H86c.1-.6.2-1 .2-1.6l1.5.1c-.1.8-.2 1.1-.2 1.5h2.4zm2.4 5.1c1.1.5 2 1.3 2.6 1.8l-.8 1.3c-.7-.8-1.3-1.2-1.8-1.6v.4c0 1.6-1.3 2.2-2.6 2.2-1.9 0-2.9-1.1-2.9-2.3 0-1 .8-2.4 3-2.4.5 0 .9.1 1.1.1l-.1-2.6h1.4l.1 3.1zm-1.4.8c-.3-.1-.6-.2-1.2-.2-1.1 0-1.7.5-1.7 1.2 0 .2.1 1.1 1.6 1.1 1 0 1.3-.5 1.3-1.3v-.8zm3.1-3.7c-1.3-.8-2.2-1.2-3.5-1.7l.6-1.2c1.3.5 2.2.8 3.5 1.6l-.6 1.3zM40.9 253.9l.1 1.3-4.1.4.2 2.3 4.7-.4.1 1.3-4.6.4.4 3.7-1.5.1-.4-3.6-4.7.4-.1-1.3 4.7-.5-.2-2.3-4.1.4-.1-1.3 4-.4-.2-2.1 1.5-.1.2 2.1 4.1-.4zM44.1 258.8c-.2-1.2-.6-2.2-1-3.1l1.2-.3c.6 1.1.9 2.3 1.1 3.1l-1.3.3zm-.1 3.3c4.1-.9 5.6-2.6 6.4-7l1.4.3c-.8 3.8-2.1 6.6-6.9 7.8l-.9-1.1zm2.9-3.9c-.1-.7-.3-1.8-.8-3.1l1.1-.3c.4.9.8 2.2.9 3l-1.2.4zM59.5 256.3h4v1.3h-4c-.3 3.8-2.8 4.8-5.3 5.4l-.6-1.3c3.6-.7 4.4-2 4.5-4.1h-5v-1.3h5v-1.8c-2.3.3-3.5.3-4.3.3l-.3-1.3c2.9 0 5.9-.4 8.3-1.2l.7 1.3c-1.2.3-2 .5-3.1.7v2zM69.1 256.1c-.8-.5-2-1.2-3.9-1.9l.7-1.2c2.1.7 3.4 1.4 4 1.8l-.8 1.3zm-3.7 5.1c5-.4 7.6-2.7 9-7.6l1.2.9c-.7 2-2.6 7.6-10 8.2l-.2-1.5zM77 261.9c5-.9 6.8-3.8 7.5-7.4h-4.1c-.8 1.2-1.7 2.3-3.1 3.2l-.9-1.1c.9-.6 2.2-1.7 3.1-3.5h5.1l1.3 1.8c-.7 3.3-2.3 7-8.2 8.2l-.7-1.2zm8.3-10.1c.6.8.9 1.3 1.4 2.3l-.8.6c-.4-1-.8-1.5-1.4-2.3l.8-.6zm1.7-.5c.6.8.9 1.3 1.4 2.3l-.8.5c-.4-1-.7-1.5-1.3-2.4l.7-.4zM90.9 259.4h-1.5v-6.8h1.5v6.8zm6.3-1.6c0 4.3-3.5 5-6.7 5.2l-.5-1.4c3.3-.2 5.7-.7 5.7-3.7v-5.4h1.5v5.3zM102.2 255.8c0 4.4-1.2 6.2-2.4 7.3l-1.1-1.1c1.2-1.3 2-2.6 2-6.1v-3.1h1.4v3zm3.3 5.3c1.4-.5 2.9-1.1 3.5-4.6l1.4.6c-.6 2.6-1.7 5.5-6.2 5.8v-10.4h1.4v8.6z"/><path class="st1" d="M42.1 179.8c.3-.1.5-.1.8-.2v-7.4h1.2v7.2c.4-.1.7-.2 1.3-.4v-7.8h1.3v11.9h-1.3v-2.9c-1.3.4-1.5.5-3 .9l-.3-1.3zm6.8-6.1c.3 1.7.8 3.3 1.8 4.7 1.1-1.8 1.4-4 1.5-5.3h-4.8v-1.4h6.4c-.2 2.2-.5 5.3-2.1 7.8 1.1 1.3 2.1 1.9 2.7 2.3l-.8 1.3c-.6-.4-1.6-1.1-2.7-2.5-1.3 1.3-2.3 2-2.9 2.5l-.9-1.2c.6-.4 1.8-1.1 3-2.4-1.4-2.2-1.9-4.7-2.1-5.6l.9-.2zM56.3 178.7c0 .8-.1 2.4-.4 3.5l-1.1-.4c.2-.5.5-1.3.5-3.2l1 .1zm-1.6-2h.9c.2-.3.5-.7.7-1l-1.7-1.7.6-1c.2.1.2.2.4.3.2-.2.7-1 1.1-2.1l1.1.4c-.5 1.3-1.3 2.3-1.4 2.5.3.3.4.5.5.6.6-.9 1-1.6 1.3-2.1l1.2.5c-1.2 2-2.3 3.4-2.4 3.6.2 0 1.1-.1 1.3-.1-.2-.4-.2-.5-.3-.7l1-.4c.4.7.7 1.5.8 1.9v-4.3h2.6v-1.9h1.2v1.9h2.7v9.1c0 .8-.4 1-.9 1h-1.9l-.4-1.3h1.5c.4 0 .4-.1.4-.4v-1.9l-.8.8c-.9-1.5-1.1-3.1-1.3-3.8-.2 1.9-.6 2.9-1.1 3.8l-.8-.8v3.6h-1.2v-5.4l-1 .4c-.1-.2-.1-.3-.1-.5-.3 0-.5.1-.9.1v5.4h-1.2v-5.3c-.5 0-.9.1-1.9.1v-1.3zm4.5 1.9c.2 1.1.3 2.4.3 2.7l-1 .3c0-.7-.1-1.9-.2-2.8l.9-.2zm1.9-4.3v4.9c.6-.9 1.2-2.5 1.3-4.9h-1.3zm4 0h-1.4c.1 2.8 1.1 4.3 1.4 4.7v-4.7zM74 173.4h5.2v1.1H74v.6h4.3v4.3H74v.7h4.5v1H74v.6h5.3v1.1H67.5v-1.1h5.3v-.7h-4.4v-1h4.4v-.7h-4.2V175h4.2v-.6h-5.1v-1.1h5.1v-.6c-1.5.1-2.3.1-4.2.1l-.3-1.1h1.8c4.3 0 6.7-.4 7.8-.6l.5 1c-1.1.2-2.2.4-4.4.5v.8zm-1.2 2.6h-2.9v.7h2.9v-.7zm0 1.6h-2.9v.7h2.9v-.7zM77 176h-3v.7h3v-.7zm0 1.6h-3v.7h3v-.7zM83 183.1h-1.2v-4.7c-.7.7-1.1 1-1.3 1.2l-.5-1.4c1.4-1 2.4-2.1 3.2-3.8h-3v-1.2h1.7v-2H83v2h1.4v1.2c-.1.4-.4 1-1 2 .2.3.7 1 1.6 1.7l-.7 1.1c-.2-.2-.6-.5-1.3-1.4v5.3zm8.5-11.5v7.2H90v2.5c0 .4 0 .4.3.4h.2c.1 0 .2 0 .2-.2.1-.3.1-.6.1-1.2l1.2.2c-.1 1.1-.1 1.7-.2 1.9-.1.6-.7.6-.8.6h-1.3c-.6 0-1-.2-1-.9v-3.2h-1.1c-.4 2.5-1.5 3.6-3.3 4.3l-.7-1.2c2.6-.7 2.8-2.5 2.9-3.1h-1.3v-7.2h6.3zm-5 1.2v1h3.8v-1h-3.8zm0 2v.9h3.8v-.9h-3.8zm0 2v1h3.8v-1h-3.8zM95.5 182.7c-.7-1.1-1.5-2-2.2-2.8l1.2-.8c.9.8 1.9 1.9 2.4 2.7l-1.4.9zM38.2 196.3c-1.6-.9-2.9-1.3-3.6-1.5l.5-1.2c.7.2 2 .5 3.7 1.4l-.6 1.3zm-2.9 3c5.1-.5 7.1-2.4 8.5-7l1.2.9c-1.8 5.4-4.4 7-9.4 7.7l-.3-1.6zm4-6c-1.4-.8-2.7-1.2-3.7-1.5l.5-1.2c1.4.3 2.4.7 3.8 1.4l-.6 1.3zM55.4 191c-.6 2.6-1.5 4.1-2.3 5.2.7.5 2.3 1.8 4.2 3.7l-1.2 1.1c-.6-.6-1.7-1.8-3.9-3.8-1.7 1.9-3.5 3.1-5 3.8l-.8-1.2c1.5-.6 5.3-2.5 7.2-7.5H47V191h8.4zM59.3 199.9c3.2-.5 4.1-1.7 4.2-4.6h-4.8V194H69v1.3h-4.1c-.1 3.7-1.7 5.2-5.1 5.8l-.5-1.2zm8.7-9.1v1.3h-8.3v-1.3H68zM70.7 199.1h1.2c1.5-3.9 2.4-7.4 2.7-8.7l1.5.3c-1.1 4.2-2.2 6.9-2.8 8.4 2.2-.1 3.5-.1 5.8-.4-.7-1.3-.9-1.7-2-3.3l1.2-.6c1.5 1.9 2.3 3.4 3.2 5.6l-1.4.6c-.1-.4-.2-.6-.4-1.1-2.5.3-4.7.5-8.7.7l-.3-1.5zM82.4 198.3c.3-.1.5-.1.8-.2v-7.4h1.2v7.2c.4-.1.7-.2 1.3-.4v-7.8H87v11.9h-1.3v-2.9c-1.3.4-1.5.5-3 .9l-.3-1.3zm6.8-6c.3 1.7.8 3.3 1.8 4.7 1.1-1.8 1.4-4 1.5-5.3h-4.8v-1.4h6.4c-.2 2.2-.5 5.3-2.1 7.8 1.1 1.3 2.1 1.9 2.7 2.3l-.8 1.3c-.6-.4-1.6-1.1-2.7-2.5-1.3 1.3-2.3 2-2.9 2.5l-.9-1.2c.6-.4 1.8-1.1 3-2.4-1.4-2.2-1.9-4.7-2.1-5.6l.9-.2zM96.5 197.3c0 .8-.1 2.4-.4 3.5l-1.1-.4c.2-.5.5-1.3.5-3.2l1 .1zm-1.5-2h.9c.2-.3.5-.7.7-1l-1.7-1.7.6-1c.2.1.2.2.4.3.2-.2.7-1 1.1-2.1l1.1.4c-.5 1.3-1.3 2.3-1.4 2.5.3.3.4.5.5.6.6-.9 1-1.6 1.3-2.1l1.2.5c-1.2 2-2.3 3.4-2.4 3.6.2 0 1.1-.1 1.3-.1-.2-.4-.2-.5-.3-.7l1-.4c.4.7.7 1.5.8 1.9v-4.3h2.6v-1.9h1.2v1.9h2.7v9.1c0 .8-.4 1-.9 1h-1.9l-.4-1.3h1.5c.4 0 .4-.1.4-.4V198l-.8.8c-.9-1.5-1.1-3.1-1.3-3.8-.2 1.9-.6 2.9-1.1 3.8l-.8-.8v3.6h-1.2v-5.4l-1 .4c-.1-.2-.1-.3-.1-.5-.3 0-.5.1-.9.1v5.4H97v-5.3c-.5 0-.9.1-1.9.1l-.1-1.1zm4.5 1.9c.2 1.1.3 2.5.3 2.7l-1 .3c0-.7-.1-1.9-.2-2.8l.9-.2zm1.9-4.3v4.9c.6-.9 1.2-2.5 1.3-4.9h-1.3zm4 0H104c.1 2.8 1.1 4.3 1.4 4.7v-4.7z"/><path class="st4" d="M339.3 171.7h4.8v4.6h-3.5v6.7h-1.3v-11.3zm1.2 1.1v.8h2.3v-.8h-2.3zm0 1.7v.8h2.3v-.8h-2.3zm7.2 2.6v4.7h-5.9v-4.7h5.9zm-4.7 1v.9h3.5v-.9H343zm0 1.7v.9h3.5v-.9H343zm5.9-3.5h-3.7v-4.6h5v10.1c0 .4 0 1.2-.8 1.2h-1.9l-.2-1.3h1.4c.2 0 .3-.1.3-.3v-5.1zm-2.5-3.5v.8h2.5v-.8h-2.5zm0 1.7v.8h2.5v-.8h-2.5zM355.1 177.9c-.3.1-.6.3-.9.4v3.7c0 .5-.3 1.1-1.2 1.1h-1.4l-.1-1.3h1c.3 0 .4 0 .4-.3v-2.7c-.5.2-1.2.4-1.4.5l-.3-1.3c.4-.1.6-.2 1.6-.5v-2.8h-1.5v-1.2h1.5v-2.2h1.3v2.2h1v1.2h-1v2.3c.6-.2.7-.2 1-.4l.2 1h2c.4-.7.5-.8.6-1l1.3.2-.4.8h4.4v1.2h-1.1c-.2.5-.5 1.3-1.3 2.2 1.2.5 1.7.8 2.1 1.1l-.7 1.1c-.4-.3-1-.7-2.4-1.4-.4.3-1.7 1-4.6 1.4l-.4-1.2c.8 0 2.1-.1 3.5-.7-1.4-.5-2.3-.7-2.9-.9.3-.4.6-.7 1.1-1.6H355v-.9zm3.3-6.7h1.3v1.1h3.4v1.2h-1.3c-.1.6-.2.9-.5 1.7h2.1v1.2h-8.2v-1.2h1.7c-.1-.6-.3-1.2-.4-1.7h-1v-1.2h2.9v-1.1zm-.3 7.5c-.5.8-.5.8-.7 1.1.5.1 1.2.3 2.1.6.8-.7 1-1.3 1.1-1.7h-2.5zm-.4-5.2c.2.9.3 1.2.4 1.7h1.9c.2-.4.4-1.1.5-1.7h-2.8zM366.7 180c-.5 1.4-.9 2.2-1.7 3l-1-1c.7-.7 1.1-1.3 1.5-2.4l1.2.4zm-2.1-8.3h3.9v7.5h-3.9v-7.5zm1.1 1.1v2h1.7v-2h-1.7zm0 3.2v2.1h1.7V176h-1.7zm3.3 4.1c.1.7.2 2 .2 2.7h-1.4c0-.3.1-.5.1-1 0-.2-.1-1.4-.1-1.7h1.2zm.1-8.5h6.6c0 .7-.1 2.8-.5 3.2-.3.4-.6.6-1.1.6h-1.4l-.2-1.2h1.3c.4 0 .5-.2.6-1.4h-1.9c-.7 1.7-1.7 2.5-3 3.1l-.6-1c1.1-.4 1.8-.9 2.3-2.1h-2v-1.2zm5.1 8.1h-4.7V176h5.8v3.7h-1.1c.8.8 1.6 2.1 1.8 2.7l-1.2.7c-.5-1.1-1.6-2.6-1.8-2.8l1.2-.6zm-2.6.3c.2.5.5 1.2.8 2.8l-1.3.1c0-.3-.2-1.4-.6-2.7l1.1-.2zm-.9-2.9v1.5h3.4v-1.5h-3.4zM381.4 181H377v-9.3h4.4v9.3zm-1.3-8h-1.9v2.7h1.9V173zm0 3.9h-1.9v2.9h1.9v-2.9zm8.1 5.1c0 1-.9 1.1-1.1 1.1h-1.7l-.3-1.3h1.4c.3 0 .4 0 .4-.5V179h-3.3c-.2 1.2-.7 2.8-2.6 4.1l-.9-1.1c1.3-.6 2.4-1.4 2.4-4.7v-5.8h5.7V182zm-1.2-9.3h-3.2v1.9h3.2v-1.9zm0 3.1h-3.2v2h3.2v-2zM400.4 173.8c-.5 0-.9-.1-1.2-.1-.6 0-.9 0-1.3.2-1.8.6-4.1 2.5-4.1 4.6 0 1.6 1.3 2 2.5 2.2.9.2 2.1.2 3.1.2l-.3 1.5c-2.6-.1-6.8-.2-6.8-3.8 0-2.4 2.3-4 3.4-4.7-1.3.1-4.6.3-5.7.5l-.1-1.5c.9 0 4.4-.2 5.1-.3 1.9-.1 3.3-.1 5.5-.2l-.1 1.4zm-2.6 1.4c.6.7 1 1.5 1.4 2.4l-1 .6c-.4-1-.7-1.6-1.3-2.4l.9-.6zm1.8-.8c.6.7 1 1.4 1.4 2.4l-1 .6c-.5-1-.7-1.5-1.4-2.4l1-.6zM360.7 197.4c-.4 1.1-1.5 3.3-2.3 4.3l-.9-1.1c.8-1.1 1.6-2.4 2.2-4l1 .8zm-2.5-4c.7.3 1.3.7 2 1.2l-.8 1c-.6-.5-.9-.7-1.8-1.3l.6-.9zm.4-3.5c.8.4 1.4.7 2 1.2l-.8 1.1c-.7-.6-1.1-.9-1.9-1.3l.7-1zm5.2 10.3c-1.3 1-2.7 1.4-3 1.6l-.7-1.1c1.5-.4 2.1-.8 2.8-1.2l.9.7zm-1.7-6.9h-1.2v-2.5h3.6v-.9h1.2v.9h3.6v2.5h-1.2v.5h-2.4v.7h3.4v4.8h-8v-4.8h3.4v-.7h-2.4v-.5zm5.9-.6v-.8h-5.9v.8h5.9zm-5.8 3.7h2.2v-.9h-2.2v.9zm0 1.9h2.2v-1h-2.2v1zm3.5-1.9h2.2v-.9h-2.2v.9zm0 1.9h2.2v-1h-2.2v1zm3.4 3.4c-1.8-.5-2.6-1.2-3-1.5l.9-.8c.9.7 1.7 1 2.7 1.2l-.6 1.1zM372.5 190.7v3.4h3v-4.3h1.3v4.3h3v-3.4h1.4v4.7h-4.4v4.7h3.5v-3.9h1.4v5.2h-10.9v-5.2h1.3v3.9h3.5v-4.7h-4.4v-4.7h1.3z"/><path class="st1" d="M252.6 172.2c-.4 3.1-1.9 4.4-3.9 5.5l-.9-1.1c2.2-.9 2.7-2 3.1-3H242v-1.4h10.6zm-10.4 9.1c3.5-1.4 3.9-3.8 3.9-6.6h1.5c-.1 2.5-.3 5.7-4.4 7.7l-1-1.1zM260.8 182.5h-1.5v-5.6c-2.1 1.3-3.4 1.8-4.7 2.3l-.7-1.3c3.6-1.1 6.7-3.3 9-6.2l1.3.9c-1 1.2-1.8 2-3.4 3.3v6.6zM276.3 175.2c-.6 5-2.9 6.8-8.1 7.3l-.4-1.4c2.2-.1 3.7-.6 4.7-1.2.7-.4 1.8-1.5 2.2-3.4h-8.4v-1.3h10zm-.7-3v1.3h-8.3v-1.3h8.3zM282.2 175.6c-.8-.5-2-1.2-3.9-1.9l.7-1.2c2.1.7 3.4 1.4 4 1.8l-.8 1.3zm-3.6 5.1c5-.4 7.6-2.7 9-7.6l1.2.9c-.7 2-2.6 7.6-10 8.2l-.2-1.5zM297.8 179c-2-1.3-3.3-1.9-5.3-2.7v6.2H291v-10.8h1.5v3.1c3 .9 5.2 2.2 6.1 2.7l-.8 1.5zm-2.1-6.8c.6.7 1 1.5 1.4 2.4l-1 .6c-.4-1-.7-1.6-1.3-2.4l.9-.6zm1.9-.9c.5.7.9 1.3 1.4 2.4l-1 .6c-.4-1.1-.7-1.5-1.3-2.4l.9-.6zM257.5 192l.1 1.3-4.1.4.2 2.3 4.7-.4.1 1.3-4.6.4.4 3.7-1.5.1-.4-3.6-4.7.4-.1-1.3 4.7-.5-.2-2.3-4.1.4-.1-1.3 4-.4-.2-2.1 1.5-.1.2 2.1 4.1-.4zM261 196.9c-.2-1.2-.6-2.2-1-3.1l1.2-.3c.6 1.1.9 2.3 1.1 3.1l-1.3.3zm-.1 3.2c4.1-.9 5.6-2.6 6.4-7l1.4.3c-.8 3.8-2.1 6.6-6.9 7.8l-.9-1.1zm2.9-3.8c-.1-.7-.3-1.8-.8-3.1l1.1-.3c.4.9.8 2.2.9 3l-1.2.4zM276.7 194.4h4v1.3h-4c-.3 3.8-2.8 4.8-5.3 5.4l-.6-1.3c3.7-.7 4.4-2 4.5-4.1h-5v-1.3h5v-1.8c-2.3.3-3.5.3-4.3.3l-.3-1.3c2.9 0 5.9-.4 8.3-1.2l.7 1.3c-1.2.3-2 .5-3.1.7v2zM286.5 194.2c-.8-.5-2-1.2-3.9-1.9l.7-1.2c2.1.7 3.4 1.4 4 1.8l-.8 1.3zm-3.7 5.1c5-.4 7.6-2.7 9-7.6l1.2.9c-.7 2-2.6 7.6-10 8.2l-.2-1.5z"/><path class="st4" d="M236 242.2c2.1-1.4 3.6-2.9 5.1-5.5h-4.8v-1.3h5.2V233h1.4v2.4h5.3v1.3h-4.8c1.4 2.4 2.7 3.9 5.1 5.4l-.9 1.3c-2.4-1.7-3.5-3.2-4.6-5.3v6.8h-1.4v-6.8c-1.4 2.7-3.1 4.3-4.7 5.4l-.9-1.3zM254.8 243c1.3-.1 4.2-.6 4.2-4 0-1.4-.6-3.5-3.4-3.6-.4 5.6-2.1 8-3.8 8-1.5 0-2.4-1.7-2.4-3.6 0-3.6 2.6-5.7 5.9-5.7 3.9 0 5.2 2.6 5.2 5 0 4.8-4.3 5.2-5.2 5.3l-.5-1.4zm-4.1-3.3c0 .7.3 2.1 1.1 2.1.5 0 .8-.4 1.1-1 .9-1.6 1.1-3.5 1.2-5.4-2.2.5-3.4 2.3-3.4 4.3zM262.1 236.6c1.1.4 1.8.9 2.2 1.2l-.8 1.2c-.5-.4-1.2-.8-2-1.2l.6-1.2zm2.6 4c-1.2 2.8-1.6 3.4-2.3 4.4l-.9-1.3c.7-.9 1.2-1.7 2.1-3.9l1.1.8zm-1.9-7.4c.5.2 1.7.8 2.2 1.2l-.8 1.1c-.8-.6-1.6-1.1-2.1-1.3l.7-1zm2.3 6.3h7.9v3.9h.5v1.2h-9.2v-1.2h.8v-3.9zm7.6-1h-7.3v-5h7.3v5zm-6.4 2.1v2.8h1.1v-2.8h-1.1zm.4-6v.9h4.7v-.9h-4.7zm4.7 1.9h-4.7v1h4.7v-1zm-2.9 4.1v2.8h1.1v-2.8h-1.1zm2.2 0v2.8h1.1v-2.8h-1.1zM282.5 235.3v1.3h-3.9l-.1 2.1h1.5c1 0 1.7-.1 2.3-.2l.1 1.3c-.5.2-1.5.2-2.3.2h-1.5c0 2.6 0 3 2.4 3 1.4 0 2.9-.1 2.9-2.2 0-1-.3-1.8-.7-2.7l1.3-.3c.5 1 .9 2 .9 3.2 0 3.4-2.8 3.4-4.4 3.4-1.7 0-2.8-.2-3.4-1.4-.4-.7-.4-1.6-.3-3H275v-1.3h2.3v-2.1H275v-1.3h2.2v-1.6h1.5v1.6h3.8zM289.4 234c-.2.7-.5 2.1-.5 4.3.4-.7.6-1.1.9-1.4l.8.7c-.4.5-.7 1-1.2 1.9-.4.7-.4 1.1-.4 1.5l-1.3.1c-.1-.5-.2-1.5-.2-3 0-2 .3-3.5.4-4.2l1.5.1zm5.9-.1c.2 2.3.2 3.9.2 4.2 0 3-.3 5.3-4.8 6.4l-1.1-1.1c4.4-1.1 4.4-3 4.4-5.5 0-1.8-.1-3.4-.2-4.1h1.5zM299.9 244.6c-.7-1.1-1.5-2-2.2-2.8l1.2-.8c.9.8 1.9 1.9 2.4 2.7l-1.4.9zM247.2 254.1v.8c0 5.7-3.4 7.7-7.9 8.1l-.5-1.3c4.2-.4 6.8-2 6.8-6v-.2H239v2.9h-1.4v-4.2h4v-1.9h1.5v1.9h4.1zM249.9 258.8c-.2-1.2-.6-2.2-1-3.1l1.2-.3c.6 1.1.9 2.3 1.1 3.1l-1.3.3zm-.1 3.3c4.1-.9 5.6-2.6 6.4-7l1.4.3c-.8 3.8-2.1 6.6-6.9 7.8l-.9-1.1zm2.9-3.9c-.1-.7-.3-1.8-.8-3.1l1.1-.3c.4.9.8 2.2.9 3l-1.2.4zM266.7 259.6c-2-1.3-3.3-1.9-5.3-2.7v6.2h-1.5v-10.8h1.5v3.1c3 .9 5.2 2.2 6.1 2.7l-.8 1.5zm-2-6.9c.6.7 1 1.5 1.4 2.4l-1 .6c-.4-1-.7-1.6-1.3-2.4l.9-.6zm1.8-.9c.5.7.9 1.3 1.4 2.4l-1 .6c-.4-1.1-.7-1.5-1.3-2.4l.9-.6zM269.7 261.8c3.4-.6 4.1-1.9 4.2-4.6h-4.8v-1.3h10.3v1.3h-4.1c-.1 4-2.1 5.2-5.1 5.8l-.5-1.2zm7.3-9.1v1.3h-7v-1.3h7zm1.1-1c.4.9.6 1.5.8 2.6l-1 .3c-.2-1-.3-1.7-.7-2.6l.9-.3zm1.8-.3c.4.9.6 1.5.8 2.6l-1 .3c-.2-1.1-.3-1.6-.7-2.6l.9-.3zM282.2 258.8c-.2-1.2-.6-2.2-1-3.1l1.2-.3c.6 1.1.9 2.3 1.1 3.1l-1.3.3zm-.1 3.3c4.1-.9 5.6-2.6 6.4-7l1.4.3c-.8 3.8-2.1 6.6-6.9 7.8l-.9-1.1zm2.9-3.9c-.1-.7-.3-1.8-.8-3.1l1.1-.3c.4.9.8 2.2.9 3l-1.2.4zM301.2 253.9l.1 1.3-4.1.4.2 2.3 4.7-.4.1 1.3-4.6.4.4 3.7-1.5.1-.4-3.6-4.7.4-.1-1.3 4.7-.5-.2-2.3-4.1.4-.1-1.3 4-.4-.2-2.1 1.5-.1.2 2.1 4.1-.4z"/><path class="st1" d="M351.6 242.8c.4-.4 1.6-1.6 1.9-4.5l1.3.2c-.1 1.1-.4 3.5-2.1 5.4l-1.1-1.1zm6.1 1.6h-1.4V237H352v-1.3h4.3v-2h1.4v2h4.3v1.3h-4.3v7.4zm2.7-6.2c.3 1.5.6 3 1.9 4.6l-1.2.9c-1.1-1.4-1.6-2.7-2-5.4l1.3-.1zM374.7 238.3v1.5h-10.8v-1.5h10.8zM376.4 242.5h1.2c1.5-3.9 2.4-7.4 2.7-8.7l1.5.3c-1.1 4.2-2.2 6.9-2.8 8.4 2.2-.1 3.5-.1 5.8-.4-.7-1.3-.9-1.7-2-3.3l1.2-.6c1.5 1.9 2.3 3.4 3.2 5.6l-1.4.6c-.1-.4-.2-.6-.4-1.1-2.5.3-4.7.5-8.7.7l-.3-1.5zM344.5 253c-.6 5.5-2.4 8.5-3.1 9.7l-1.4-.7c1.8-2.7 2.7-5.9 3.1-9.2l1.4.2zm4.8 9.5c-.8-4.4-1.9-6.9-3-9.1l1.3-.6c1.1 2.1 2.5 5.2 3.2 9.3l-1.5.4zm2.9-9.5c0 1-.8 1.7-1.7 1.7-.9 0-1.7-.8-1.7-1.7 0-1 .8-1.7 1.7-1.7.9 0 1.7.7 1.7 1.7zm-2.7 0c0 .5.4.9.9.9s.9-.4.9-.9-.4-.9-.9-.9-.9.4-.9.9zM363.8 256.9v1.5H353v-1.5h10.8zM366.2 261.8c3.2-.5 4.1-1.7 4.2-4.6h-4.8v-1.3h10.3v1.3h-4.1c-.1 3.7-1.7 5.2-5.1 5.8l-.5-1.2zm8.7-9.1v1.3h-8.3v-1.3h8.3zM382.9 263.1h-1.3v-4.4c-1.4.9-2.5 1.4-3.8 1.9l-.6-1.2c3.9-1.1 6.5-3.9 7.3-5.1l1.1.8c-.8 1-1.8 1.8-2.8 2.7v5.3zM398.4 256.9v1.5h-10.8v-1.5h10.8z"/><path class="st4" d="M466.1 238.2c-.2.2-.5.5-1.4 1.2-.2.2-.7.5-1.1.7 1 1.7 1.8 2.5 2.8 3.2l-1 1.1c-2.3-2.1-3.7-5.1-4.1-7.2h-.3c-.2.2-.3.4-.8.8.8.8 1.8 1.9 1.8 4.5 0 .5 0 2.5-1.7 2.5h-1.9l-.2-1.3h1.7c.4 0 .9 0 .9-1.4v-.7c-.9.8-2.9 2.1-5.7 2.9l-.5-1.2c2.8-.6 4.9-1.8 6-2.7-.1-.2-.1-.4-.3-.6-1.1.9-2.8 1.7-4.9 2.2l-.5-1.2c2.6-.5 4.3-1.4 4.9-1.8-.2-.2-.3-.4-.5-.5-1.7 1-3.3 1.3-4 1.4l-.5-1.2c1.9-.2 3.4-.7 4.7-1.6h-2.9v-1.1h7.8v1.1h-1.9c.2.9.5 1.5.6 1.8.2-.1 1.1-.8 1.9-1.7l1.1.8zm-6.2-4v-1h1.3v1h4.9v2.7h-1.3v-1.5h-8.5v1.5H455v-2.7h4.9zM483.3 235H478v.6h4.2v2.5H478v.6h4.5v1.5h.8v1.1h-.8v1.5H478v.9c0 .7-.3 1.3-1.1 1.3h-2.3l-.2-1.3h1.9c.3 0 .4-.1.4-.4v-.5h-4.6v-.9h4.6v-.7h-5.3v-1h5.3v-.6h-4.5v-1h4.5v-.6h-4.1v-2.5h4.1v-.5h-5.2v-1h5.2v-.8h1.3v.8h5.3v1zm-6.5 1.5H474v.7h2.8v-.7zm4.2 0h-2.9v.7h2.9v-.7zm.2 3.1h-3.1v.6h3.1v-.6zm0 1.6H478v.7h3.2v-.7zM454.5 253.4v8.8h-9.1v-1.4h7.6v-6h-7.5v-1.4h9zM467.8 256.9v1.5H457v-1.5h10.8zM480.3 254.9v1.4h-4.4c-.1 2.7-.7 5.3-4.9 6.7l-.8-1.2c4-1.2 4.2-3.4 4.2-5.5h-4.7v-1.4h4.7v-2.6h1.5v2.6h4.4zM492.9 256.9v1.5h-10.8v-1.5h10.8z"/><path class="st1" d="M57.2 305.7v-.7h1.2v.7h4.3v1.4h1.1v.8h-1.1v1.5h-4.3v.5h4.7v.8h-4.7v.5h5.4v1H52v-1h5.2v-.5h-4.6v-.8h4.6v-.5H53v-.8h4.2v-.6H52v-.8h5.2v-.6H53v-.8h4.2zm5.4 7.1v3.8h-9.5v-3.8h9.5zm-8.2.8v.7h7v-.7h-7zm0 1.4v.7h7v-.7h-7zm7.1-8.5h-3.1v.6h3.1v-.6zm0 1.4h-3.1v.6h3.1v-.6zM87.9 316.8h-1.2v-3.7h-2.8v2.8c0 .7-.5.8-.7.8H82l-.3-1.2h.8c.2 0 .2-.1.2-.3v-2.1H80c-.2 2-1.3 3.1-1.9 3.7l-.9-1.1c1.6-1.4 1.6-2.5 1.6-5.5-.4.1-.5.1-1.2.1l-.4-1.2c1.4-.1 2.9-.2 4.7-.6-1.3-.7-2-1.4-2.2-1.7h-2.2v-1.2h5.2v-.8H84v.8h5v1.2h-2.3c-.9 1-1.6 1.5-1.9 1.7 2.1.5 3.5.5 4.4.5l-.5 1.2c-.4 0-.6 0-.9-.1v6.7zm-6-2.9c-.3.8-.9 2.1-1.4 2.7l-.9-.6c.5-.5 1-1.3 1.4-2.4l.9.3zm4.8-3.8c-.5-.1-1.6-.2-3.3-.8-.6.2-1.6.5-3.3.8v.2h6.6v-.2zm-6.6 1.2v.9h6.6v-.9h-6.6zm1.1-4.4c.3.3 1 .8 2.2 1.2.3-.1 1-.4 1.9-1.2h-4.1zm4.1 9.7c-.5-1-.8-1.8-1-2.7l1.1-.2c.3 1.2.6 1.9.9 2.3l-1 .6z"/><path class="st4" d="M458 368.7c-.4 3.1-1.9 4.4-3.9 5.5l-.9-1.1c2.2-.9 2.7-2 3.1-3h-8.8v-1.4H458zm-10.4 9.1c3.5-1.4 3.9-3.8 3.9-6.6h1.5c-.1 2.5-.3 5.7-4.4 7.7l-1-1.1zM467.4 375.4c-.8-.5-2.6-1.7-5.3-2.7v6.2h-1.5v-10.8h1.5v3.1c2.8.9 5 2.1 6.1 2.7l-.8 1.5zM471.4 375.3h-1.5v-6.8h1.5v6.8zm6.3-1.6c0 4.3-3.5 5-6.7 5.2l-.5-1.4c3.3-.2 5.7-.7 5.7-3.7v-5.4h1.5v5.3zM485.9 376.6h4.5v1.4H480v-1.4h4.5v-6.1h-3.8v-1.4h9.2v1.4H486v6.1z"/><path class="st5" d="M173.6 48.5H167v-.4c.5-.8.9-1.6 2.4-3.3 1.7-2 2.5-3 2.5-4.9 0-1.9-1.2-2.1-1.6-2.1-.8 0-1.7.6-1.7 1 0 .2.1.3.2.3.4.2.8.4.8 1s-.5 1.1-1.2 1.1c-.8 0-1.2-.5-1.2-1.2 0-1.2 1.4-2.7 3.7-2.7 1.3 0 3.4.6 3.4 3 0 1.8-.8 2.4-3.5 4.3-.2.2-1.3.9-2.2 2.1h2.5c2 0 2.7-1.3 3-1.8l.3.1-.8 3.5zM180.6 39.4l-.1 3.3c.5-.4 1.3-1.1 2.7-1.1 1.4 0 3.4 1 3.4 3.4 0 2.6-2.4 3.8-4.1 3.8-1.7 0-3-1-3-2.2 0-.8.6-1.2 1.2-1.2.8 0 1.1.5 1.1 1 0 .2 0 .5-.2.6-.3.3-.4.4-.4.6 0 .4.5.7 1.1.7 1.7 0 2-2.1 2-3.5 0-.5 0-2.6-1.7-2.6-.3 0-1.3.1-2.4 1.3l-.2-.1.2-5.7h5.7l-.4 1.7h-4.9zM198.5 48.3c1-.4 5.1-1.9 5.1-6 0-2.6-1.9-4-4.5-4-.4 0-.6 0-.8.1.4.2 1.5.8 1.5 1.6 0 .7-1.5 3.5-2.5 5-.4.6-1.6 2.3-2.5 2.3-.6 0-.8-.3-1.2-1-.2-.3-.2-.3-.7-.7-.6-.4-.7-1.1-.7-1.8 0-3.3 3.1-6.1 7.3-6.1 3.1 0 6.3 1.7 6.3 4.9 0 4.6-5.7 5.4-7.3 5.6v.1zm-4.8-4.6c0 .5.2 2.1.9 2.1s1.5-1.5 2.1-2.7c.3-.6 1.4-2.6 1.4-3.6 0-.5-.2-.8-.3-1-2.4.8-4.1 3.2-4.1 5.2zM221.1 38.5l.5-.7c.1-.2.2-.2.2-.2.1 0 .1.1.2.1l1.4.9c.2.1.2.2.2.3 0 .1-.1.2-.2.3-.2.1-.2.2-.4.3v6.4c0 .4.1 2.3.1 2.7 0 .6-.7.9-1.3.9-.4 0-.7-.1-.7-.6v-.4h-6.6c0 .4 0 .6-.2.8-.3.3-.8.4-1.1.4-.7 0-.7-.4-.7-.7v-6.3c0-3 0-4-.2-5l2.3.8h1.7c.3-1.6.4-1.8.5-2.6l2.4.8c.1 0 .2.1.2.2 0 .2-.2.3-.9.4-.2.2-1.2 1-1.5 1.1h4.1zm-6.5.3v2.7h6.6v-2.7h-6.6zm0 3.1v2.8h6.6v-2.8h-6.6zm0 3.1v3h6.6v-3h-6.6zM235.9 39.6c0-1.8 0-2.5-.4-3.6l2.7.5c.1 0 .2.1.2.2 0 .2 0 .2-.6.6v2.3h3.4l.5-.8c.1-.1.2-.2.3-.2.1 0 .2.1.3.1l1.4.9c.1.1.1.1.1.2 0 .2-.4.5-.7.7v3.1c0 .8.1 4.1.1 4.8 0 .7-.7 1-1.4 1s-.7-.4-.6-.9h-8.8c0 1.1-1.1 1.1-1.2 1.1-.8 0-.8-.4-.8-.7 0-.3.1-2.3.1-2.7v-3.7c0-1 0-2.8-.2-3.7l2.4.8h3.2zm-3.4.3v3.8h3.4v-3.8h-3.4zm0 4.2v4.1h3.4v-4.1h-3.4zm8.8-.4v-3.8h-3.5v3.8h3.5zm0 4.4V44h-3.5v4.1h3.5zM254.2 37.5c0-.6-.8-.7-1.3-.8.2-.2.6-.5 1.3-.5.7 0 2.1.4 2.1 1 0 .2-.1.4-.3.7-.2.3-.2.4-.6 1 .6-.2 1-.4 1.3-.4.7-.3.8-.3 1-.3.4 0 1.2.3 1.2.8 0 .3-.3.4-.4.5-.9.3-1.8.5-3.7.8-.2.4-1.9 3.7-2 3.8-.5.9-1.3 2.5-2 2.5-.3 0-.8-.3-.8-1 0-.5.2-.7.6-1 .1-.1 2-2.7 2.7-4.1-.2 0-.5.1-1 .1-1.8 0-2.3-1-2.3-1.4v-.3c.6.7 1.7.7 2.1.7.6 0 1.2-.1 1.6-.1.5-1.3.5-1.8.5-2zm5.3 2.9c2.1 0 3.3 1 3.3 1.9 0 .5-.3.7-.8.7-.3 0-.5-.1-.9-.3-.4-.3-.8-.4-1.3-.4-1.6 0-1.6 1.4-1.6 1.8 0 .7.1 1.2.2 1.6 1 .2 3.2.9 3.2 2.1 0 .5-.4.8-.8.8-.3 0-.6-.2-1.2-.6-.6-.5-.8-.6-1.1-.7-.2 1.9-2.4 1.9-2.7 1.9-1.1 0-2.9-.5-2.9-1.8s1.5-1.9 3.3-1.9h.7v-.7c0-1.6.7-2.4 2.3-2.8.1 0 .6-.1.7-.1.1 0 .1-.1.1-.2 0-.2-.8-.7-2.3-1 .5-.1 1-.3 1.8-.3zm-4.1 6c-.5 0-1.6.1-1.6.9s1.6.8 1.7.8c1.6 0 1.6-1 1.7-1.5-.5-.1-.9-.2-1.8-.2zM268.4 48.2c4.4-2 8.1-7.3 8.6-9-1.2.3-3.3.7-3.9 1-.7.4-.8.4-1 .4-.5 0-1.4-1-1.4-1.9 0-.3 0-.6.1-.9.3.5.8 1.1 1.6 1.1s4.2-.4 4.7-.7c.1-.1.4-.3.5-.4 0 0 .1-.1.2-.1s.9.6 1.1.7c.7.5.7.6.7.7 0 .2-.1.2-.4.4-.3.1-.4.2-.6.5-.8 1.4-1.2 2-2.3 3.3 2.1.6 3.5 1.7 4.1 2.2.4.4.9.8.9 1.5 0 .6-.4 1.1-1 1.1-.4 0-.6-.3-.8-.5-1.6-2.3-2.1-3-3.4-4-2 2.2-4.6 4.1-7.7 4.7v-.1zM286.9 43.9c2.2-2.1 4.1-5.4 4.1-5.8 0-.4-.7-.6-1.1-.8.3-.2.7-.3 1.1-.3.7 0 2.1.7 2.1 1.2 0 .2-.1.3-.4.6-.2.2-.3.3-.4.5.6.1 2.5-.3 2.7-.3.2 0 .8-.5.9-.5.2 0 .5.4.8.6.3.3.8.8.8 1 0 .2-.1.2-.4.4-.3.1-.4.2-1 1.3-2.3 4-5.3 6.1-9.2 7.1v-.1c2.4-1.1 4.4-3.1 5.6-4.5-.3-.1-.5-.3-.6-.4-1.1-1.4-1.3-1.6-1.8-1.8-1.4 1.1-2.6 1.7-3.2 1.8zm8.1-4c-.3 0-1.5.2-1.7.2-.1 0-.5.1-.6.1-.2 0-.3-.1-.7-.3-.7.9-1.2 1.4-1.7 1.9.9 0 2.7.3 3 1.3 1.1-1.6 1.5-2.7 1.7-3.2zM303 45.1c3.4-2 7.9-6.7 7.9-7.4 0-.5-.5-.8-.9-1 .2 0 .3-.1.5-.1 1.6 0 2.7 1.4 2.7 1.8 0 .3-.3.4-.6.5-.2.1-.3.2-.6.5-1.5 1.4-1.8 1.7-2.2 2 .4.2.8.4.8.6 0 0-.2.5-.2.6 0 .1-.1.4-.1.9 0 .7.1 4 .1 4.6 0 .6-.3 1.1-.8 1.1-.7 0-1.1-1-1.1-1.3 0-.2.2-1 .2-1.1 0-.3.1-2 .1-2.8 0-.4 0-1.4-.1-1.7-2.6 1.9-4.8 2.7-5.8 3l.1-.2zM319.3 48.6c.3-.3 3.3-2.8 3.3-7.7 0-.9-.4-1-1.4-1.3.7-.3.9-.4 1.3-.4.7 0 1.7.5 1.9.7.1.1.2.2.2.3 0 .1-.3.6-.3.7-.1.3-.2 1.4-.3 1.6-.2 1.4-.9 4.6-4.7 6.1zm14.1-7.4c-1.1 3.1-3.6 4.8-5.1 5.9-.2.1-1.1.8-1.3.9-.1.1-.2.1-.3.1-.5 0-1.3-1.3-1.3-1.7 0-.1.2-.8.3-1 .1-.5.2-2.8.2-3.6 0-.6 0-2.6-.3-3-.2-.4-.8-.5-1.2-.6.2-.1.7-.5 1.2-.5.6 0 2.3.6 2.3 1.2 0 .1-.3.8-.3.9-.2.7-.4 4.6-.4 5.5 0 .1 0 .2.1.2.7 0 4.1-2.2 6-4.5l.1.2zM350.4 40.9c-1.7 3.6-5 5.4-7.1 6.5-.8.5-.9.5-1.3.9-.1.1-.2.1-.3.1-.5 0-1.6-1.6-1.6-1.8 0-.1.2-.6.3-.7.1-.3.1-.3.1-2.3 0-.1 0-4.3-.2-4.6-.1-.3-.5-.5-1.4-.7.4-.2.9-.5 1.4-.5.7 0 2.4.5 2.4 1 0 .2-.3.8-.3 1-.2.7-.4 4.1-.4 5.3v1c4.6-1.6 7.8-4.6 8.2-5.1l.2-.1zM357.9 40.7c2.2 0 2.7.9 2.7 1.5 0 .5-.4.8-.9.8-.3 0-.4-.1-.9-.5-1.8-1.3-2.4-1.5-3-1.6.6 0 1.3-.2 2.1-.2zm1-3.5c1.6 0 3.1.6 3.1 1.5 0 .3-.2.9-.8.9-.3 0-.6-.2-.8-.4-1.5-1.2-2-1.6-3-1.9.4 0 .8-.1 1.5-.1zm9.2 2.6c-.3.8-1.6 4.1-7.5 7.9-.4.3-.5.3-.8.7-.1.1-.2.1-.4.1s-2-.7-2-2.5c0-.2 0-.3.1-.5.5.6 1 .9 1.3.9 1.1 0 6.8-3.8 9.2-6.8l.1.2zM381.1 39.8c0-.3-.4-.5-.7-.7.2 0 .4-.1.8-.1 1.2 0 2.5 1.3 2.5 1.7 0 .4-.1.4-1 .7 0 0-2.6 1-2.9 1.1-.9.3-2.2.7-3.2.8-.1 2.8 0 3.2 1.9 3.2 2.3 0 2.6-.1 3.2-.4.6-.2.7-.3.9-.3.5 0 2.1.4 2.1 1.1 0 .4-.4.5-.5.6-.8.4-3.5.4-3.9.4-5.1 0-5.3-.9-5.3-4.3 0-3.6 0-4.2-.1-4.6-.2-.5-.6-.7-1.3-.9.3-.3.8-.6 1.3-.6.7 0 2.4.7 2.4 1.3 0 .1-.3.6-.3.7-.2.5-.2.8-.3 3.4 1.6-.7 4.4-2.5 4.4-3.1zm4.7-2.2c0 .8-.7 1.4-1.6 1.4-.9 0-1.6-.7-1.6-1.4 0-.8.7-1.4 1.6-1.4.9-.1 1.6.6 1.6 1.4zm-2.4 0c0 .4.4.8.9.8s.8-.3.8-.8c0-.4-.4-.8-.8-.8-.5 0-.9.3-.9.8z"/><path class="st6" d="M20 404h497.6M20 341.6h497.6M20 279.2h497.6M20 216.8h497.6M20 154.3h497.6M20 91.9h497.6M120.1 91.1v313M219.6 91.1v313M319.1 91.1v313M418.6 91.1v313"/></svg>