<svg version="1.1" id="レイヤー_1" xmlns="http://www.w3.org/2000/svg" x="0" y="0" viewBox="0 0 167 106" style="enable-background:new 0 0 167 106" xml:space="preserve"><style>.st0{fill:#231815}.st5{fill:#0056a7}</style><path class="st0" d="M122.8 6.2c.6 1.3.7 2.8.6 4.2 0 1.8-.6 3.4-1.7 4.8-.9.9-1.9 1.5-3 1.9-2.8 1-5.9.5-8.9.6-2.8-.2-5.8-1.5-6.9-4.3-.6-1.6-.8-3.4-.5-5.1.3-2.2 1.7-4.3 3.8-5.3 3.1-1.5 6.7-.8 10.2-.9 2.6.3 5.4 1.5 6.4 4.1zm-4.5.1c-1.1-.8-2.5-1-3.9-1.1-2.7-.1-5.5-.1-7.5 1.7-1.4 1.3-1.3 3.6-.6 5.2.7 1.6 2.5 2.3 4.1 2.5 3.3 0 6.9.7 9-2.2.8-1.3.7-3.3.1-4.7-.3-.6-.7-1-1.2-1.4zM98.3 3.7c2 1 3 3.1 3.2 5.2.2 1.2 0 2.4-.2 3.5-.5 1.7-1.8 3.2-3.3 4-.1-.1-.2.1-.3.1-3.2 1.5-6.4.7-10 .9h-5.4V2.5l1.8-.1H92.4c2 0 4.3.2 5.9 1.3zm-4.1 2c-2.7-.1-5.3 0-8 0l-.2.1c-.1 2.8.1 5.5 0 8.3l.1.2c2.5.1 5.2.1 7.7 0 1.3-.2 2.6-.6 3.5-1.8.8-1.4.8-3.5 0-4.9-.7-1.1-1.9-1.7-3.1-1.9zM53.9 9.2l5.1.1v-.7h-5.1zM55.4 9.9l-14.8.2v.6l15.1-.2v-.6z"/><path class="st0" d="m55.1 10.5 3.9.1v-.7h-3.9z"/><path class="st0" d="m80.8 2.7-.1-.2c-1.2 0-2.4 0-3.6.1v10.1c0 .2 0 .4-.1.4C72.7 9.8 68.7 6 64.4 2.6c-1.2 0-2.5-.1-3.7.1V14c-.1.1.1.4-.2.4-4.6 0-8.8.1-13.4.1-.6-.1-1.1-.2-1.7-.4-.8-.4-1.4-1.3-1.5-2.2h5.2l9.8-.1v-.6l-9.8.1-5.4.1v.2c-1.1 0-2.2 0-3.4.1-.1 1.5.6 2.6 1.5 3.7 2.6 2.7 6.4 2.6 10.1 2.4h11.9l.7-.1V7.2c0-.1.1-.2.2-.1l8.6 7.2c1.4 1.1 2.5 2.2 3.9 3.3h3.6l.1-.1v-4.7l-.1-10.1z"/><path class="st0" d="m43.7 9.3 10.8-.1v-.6l-10.7.1c.1-.5.3-1.1.7-1.5 1-1.3 2.7-1.4 4.3-1.3l10.7-.1c.1-1.2 0-2 0-3.2h-7.3c-3.7 0-7.7-.3-10.3 2.4-1 1.2-1.7 2.5-1.6 4 1.1.1 2.3 0 3.5 0v.3zM112.4 79.6h-3.2v12.5L88.4 79.6h-3.2v16.3h3.2V83.3l20.8 12.6h3.2zM56.5 86.3v-4s0-2.8-2.8-2.8H29.2v16.3h3.2v-13h21.4v3H36.7V89l12.9 6.9h6.8L43.6 89h10.1c2.8 0 2.8-2.7 2.8-2.7z"/><path style="fill:#009450" d="M165.7 82.7v-3.2h-23.2v16.4h23.2v-3.2h-20v-3.6h20v-3.2h-20v-3.2z"/><path d="M27.8 82.7v-3.2H3.3C.6 79.5.6 82.2.6 82.2v13.6H25c2.8 0 2.8-2.7 2.8-2.7v-7.3H8V89h16.5v3.7H3.8v-9.9h24z" style="fill:#0062b0"/><path class="st0" d="M138.2 79.6h-24.4v16.3h24.4c2.7 0 2.7-2.7 2.7-2.7V82.4c0-.1 0-2.8-2.7-2.8zm-.5 4.8v8.3h-20.8v-9.9h19.2c1.7 0 1.6 1.6 1.6 1.6zM85.2 95.9 73 81.2l-2.2-2.6-2.1 2.6-12.2 14.7h4.3l10-12.2 10.1 12.2z"/><path style="fill:#e73820" d="M84.5 88.6h-14L68 92h14z"/><path class="st0" d="M32.9 100.8h-.2c-.2-.9-.8-1.4-1.7-1.4-1.3 0-1.8 1-1.8 2.4 0 1.1.6 2.3 1.8 2.3.8 0 1.3-.2 1.8-.8l.1.2c-.5.6-1.3 1-2 1-1.5 0-2.7-1-2.7-2.7 0-1.6 1.1-2.7 2.7-2.7 1.1 0 1.5.6 1.7 0h.2l.1 1.7zM33.9 102c0-.7-.1-.8-.6-.7v-.1l1.3-.4v.7c.1-.3.5-.7.9-.7.3 0 .5.2.4.5 0 .2-.2.2-.3.2-.3 0-.3-.3-.5-.3s-.5.4-.5.6v1.9c0 .4.1.5.6.5v.1h-1.8v-.1c.5 0 .6-.2.6-.5V102zM36.6 101.9c.1-.5.3-.9.9-.9.5 0 .7.4.7.9h-1.6zm2.4.2c0-.8-.5-1.4-1.4-1.4-1 0-1.6.8-1.6 1.9 0 .9.6 1.8 1.5 1.8.8 0 1.4-.6 1.6-1.3H39c-.2.4-.7.8-1.2.8-.9 0-1.3-1-1.3-1.7H39zM41.5 103.6c-.1.2-.5.3-.7.3-.4 0-.6-.3-.6-.7 0-.7.7-.8 1.2-1v1.4zm.7-1.6c0-1-.3-1.3-1.1-1.3-.5 0-1 .1-1.2.6-.2.3-.1.6.3.6.2 0 .3-.2.3-.3v-.4c.1-.2.3-.2.5-.2.5 0 .6.3.6 1.1-.7.3-1.9.6-1.9 1.5 0 .5.4.8.8.8.3 0 .8-.3 1.1-.6 0 .3.2.6.6.6.2 0 .5-.3.6-.4v-.2c-.4.3-.6.2-.6-.1V102zM44 103.2c0 .6.1 1 .6.8.1 0 .2-.1.3-.2l.1.1c-.3.4-.6.6-1 .6-.5 0-.6-.3-.6-1.1V101h-.2c-.1 0-.3.1-.2-.1.4-.3.7-.7 1.1-1.2v1h.8v.2H44v2.3zM45.7 101.8c0-.6-.1-.7-.6-.5v-.1l1.3-.4v2.9c0 .4.1.5.6.5v.1h-1.8v-.1c.5 0 .6-.2.6-.5v-1.9zm-.1-2.4c0-.2.2-.4.4-.4s.4.2.4.4-.2.4-.4.4-.4-.2-.4-.4zM47.7 101.8c0-.6-.1-.6-.5-.6v-.1l1.2-.4v.6c.3-.3.6-.6 1.2-.6s.9.4.9 1.3v1.7c0 .4.1.5.5.5v.1h-1.7v-.1c.4 0 .5-.2.5-.5V102c0-.5 0-.9-.6-.9-.4 0-.7.3-.9.5v2.1c0 .4.1.5.5.5v.1h-1.6v-.1c.4 0 .5-.2.5-.5v-1.9zM52.2 104.3c.4.1.8.1 1.2.1.5 0 1.1 0 1.1.4 0 .5-.6.7-1.5.7-.8 0-1.1-.3-1.1-.5-.1-.2.1-.5.3-.7zm0-2.6c0-.4.1-.7.6-.7s.8.8.8 1.2c0 .4-.1.8-.6.8-.6 0-.8-.8-.8-1.3zm2.5-.7c-1 .1-1.1-.3-1.8-.3s-1.4.5-1.4 1.3c0 .5.3.8.7 1-.3.2-.7.5-.7.8 0 .2.2.3.4.4-.4.4-.8.6-.8.9 0 .3.4.8 1.4.8.7 0 2-.4 2-1.3s-.8-.8-1.9-.9c-.2 0-.6 0-.7-.2-.1-.2.3-.5.4-.5h.4c.7 0 1.3-.4 1.3-1.2 0-.2 0-.4-.2-.7h.6v-.1zM59.7 103.7c0 .2.1.5.7.5v.2h-2.2v-.2c.6 0 .7-.2.7-.5v-4.2c-.6 0-1.2 0-1.4.3-.2.2-.2.5-.3.7H57v-1.3h4.4l.1 1.3h-.2c-.2-1-.6-1-1.1-1h-.6v4.2zM62.2 99.9c0-.5-.1-.5-.5-.5v-.1c.3-.1.5-.1.7-.2l.5-.2v2.4c.2-.3.6-.6 1.1-.6.8 0 1 .5 1 1.3v1.6c0 .4.1.5.5.5v.1h-1.7v-.1c.4 0 .5-.2.5-.5V102c0-.4 0-.9-.6-.9-.4 0-.6.2-.9.5v2.1c0 .4.1.5.5.5v.1h-1.6v-.1c.4 0 .5-.2.5-.5v-3.8zM66.3 101.9c.1-.5.3-.9.9-.9.5 0 .7.4.8.9h-1.7zm2.4.2c0-.8-.5-1.4-1.4-1.4-1 0-1.6.8-1.6 1.9 0 .9.6 1.8 1.5 1.8.8 0 1.4-.6 1.6-1.3h-.1c-.2.4-.7.8-1.2.8-.9 0-1.3-1-1.3-1.7h2.5zM75.8 104.4h-.1l-3.5-4.3v3.6c0 .2.1.5.8.5v.2h-1.9v-.2c.6 0 .8-.2.8-.5v-4l-.1-.1c-.2-.3-.3-.4-.7-.4v-.1h1.3l3 3.7v-3.1c0-.2-.1-.5-.8-.5v-.1h1.9v.1c-.6 0-.8.2-.8.5v4.7zM77.4 101.9c.1-.5.3-.9.9-.9.5 0 .7.4.8.9h-1.7zm2.4.2c0-.8-.5-1.4-1.4-1.4-1 0-1.6.8-1.6 1.9 0 .9.6 1.8 1.5 1.8.8 0 1.4-.6 1.6-1.3h-.1c-.2.4-.7.8-1.2.8-.9 0-1.3-1-1.3-1.7h2.5zM83.1 103.6c.2.3.4.5.7.5v.1h-1.6v-.1c.3 0 .5-.1.4-.3l-.8-1.2-.6.9c-.3.5-.3.5.1.5v.1h-1.1v-.1c.3 0 .4-.2.6-.5l.8-1.2-.7-1c-.2-.3-.2-.5-.7-.6v-.1h1.6v.1c-.3 0-.3.1-.3.2s.4.7.5.8c.1-.2.5-.7.5-.8 0-.2-.2-.2-.3-.2v-.1h1.2v.1c-.3 0-.5.2-.7.4l-.6.8 1 1.7zM85.2 103.2c0 .6.1 1 .6.8.1 0 .2-.1.3-.2l.1.1c-.3.4-.6.6-1 .6-.5 0-.6-.3-.6-1.1V101h-.2c-.1 0-.3.1-.2-.1.4-.3.7-.7 1.1-1.2v1h.7v.2h-.8v2.3zM89.7 99.8c0-.4.1-.4.6-.4.7 0 1.3.3 1.3 1.1s-.7 1.1-1.8 1.1v-1.8zm-.8 3.9c0 .2-.1.5-.7.5v.2h2.2v-.2c-.6 0-.7-.2-.7-.5v-1.8h.4l1.9 2.4h1.3v-.2c-.4 0-.5-.2-.7-.4l-1.6-1.9c.7-.1 1.4-.5 1.4-1.3 0-.9-.8-1.4-2.1-1.4h-2.1v.1c.6 0 .7.2.7.5v4zM94.1 101.9c.1-.5.3-.9.9-.9.5 0 .7.4.7.9h-1.6zm2.4.2c0-.8-.5-1.4-1.4-1.4-1 0-1.6.8-1.6 1.9 0 .9.6 1.8 1.5 1.8.8 0 1.4-.6 1.6-1.3h-.1c-.2.4-.7.8-1.2.8-.9 0-1.3-1-1.3-1.7h2.5zM97.2 103.1h.1c.1.6.4 1.1 1 1.1.3 0 .6-.2.6-.6 0-.8-1.8-.9-1.8-1.9 0-.6.5-1 1.1-1 .2 0 .3 0 .6.1s.3 0 .3-.1h.1v1.1h-.1c-.1-.5-.3-1-.9-1-.3 0-.6.2-.6.5 0 .8 1.8.9 1.8 1.9 0 .7-.5 1.1-1.2 1.1-.2 0-.3-.1-.6-.1-.5-.1-.5 0-.5.1H97v-1.2zM100.6 101.8c0-.6-.1-.7-.6-.5v-.1l1.3-.4v2.9c0 .4.1.5.6.5v.1H100v-.1c.5 0 .6-.2.6-.5v-1.9zm-.1-2.4c0-.2.2-.4.4-.4s.4.2.4.4-.2.4-.4.4-.4-.2-.4-.4zM104.6 103.4c0 .3-.2.6-.7.6-.6 0-1.1-.6-1.1-1.6 0-.7.3-1.5 1-1.5.6 0 .8.4.8 1v1.5zm.7-4.4-.5.2c-.2.1-.4.1-.7.2v.1c.5 0 .5-.1.5.5v1.1c-.1-.1-.4-.3-.8-.3-1 0-1.6 1-1.6 1.9 0 .9.5 1.7 1.4 1.7.4 0 .8-.2 1-.6v.6c.4-.2.8-.3 1.2-.4v-.1c-.3 0-.5.1-.5-.2V99zM106.6 101.9c.1-.5.3-.9.9-.9.5 0 .7.4.8.9h-1.7zm2.4.2c0-.8-.5-1.4-1.4-1.4-1 0-1.6.8-1.6 1.9 0 .9.6 1.8 1.5 1.8.8 0 1.4-.6 1.6-1.3h-.1c-.2.4-.7.8-1.2.8-.9 0-1.3-1-1.3-1.7h2.5zM109.9 101.8c0-.6-.1-.6-.5-.6v-.1l1.2-.4v.6c.3-.3.6-.6 1.2-.6s.9.4.9 1.3v1.7c0 .4.1.5.5.5v.1h-1.6v-.1c.4 0 .5-.2.5-.5V102c0-.5 0-.9-.6-.9-.4 0-.7.3-.8.5v2.1c0 .4.1.5.5.5v.1h-1.6v-.1c.4 0 .5-.2.5-.5v-1.9zM116.5 103.1c-.3.7-.8 1.3-1.6 1.3s-1.5-.8-1.5-1.8.6-1.9 1.7-1.9c.4 0 1.1.2 1.2.8 0 .2-.2.3-.4.3s-.4-.2-.4-.3c0-.3-.2-.5-.6-.5-.7 0-1 .7-1 1.4s.4 1.5 1.2 1.5c.5 0 .8-.4 1.1-.7l.3-.1zM117.5 101.9c.1-.5.3-.9.9-.9.5 0 .7.4.7.9h-1.6zm2.4.2c0-.8-.5-1.4-1.4-1.4-1 0-1.6.8-1.6 1.9 0 .9.6 1.8 1.5 1.8.8 0 1.4-.6 1.6-1.3h-.1c-.2.4-.7.8-1.2.8-.9 0-1.3-1-1.3-1.7h2.5zM122.5 102.7h.2c.2.7.8 1.4 1.6 1.4.6 0 1.1-.5.9-1.2-.3-1.1-2.5-1.1-2.5-2.6 0-.8.6-1.3 1.4-1.3.8 0 1.2.6 1.4 0h.2l.2 1.7h-.2c-.2-.7-.7-1.3-1.4-1.3-.5 0-.8.3-.8.8 0 .4.5.8.8 1 1.1.6 1.8 1 1.8 1.9 0 .7-.6 1.4-1.7 1.4-.8 0-1.4-.6-1.4 0h-.2l-.3-1.8zM127.7 103.2c0 .6.1 1 .6.8.1 0 .2-.1.3-.2l.1.1c-.3.4-.6.6-1 .6-.5 0-.6-.3-.6-1.1V101h-.2c-.1 0-.3.1-.2-.1.4-.3.7-.7 1.1-1.2v1h.8v.2h-.8v2.3zM131.7 101.2c.1-.1 0-.3-.4-.3v-.1h1.1v.1c-.2 0-.3.3-.4.5l-1.2 3c-.2.6-.6 1.6-1.4 1.6-.2 0-.4-.1-.5-.2 0-.1-.1-.2 0-.4.1-.1.2-.2.4-.2.1 0 .3.1.5.1s.4-.1.7-.9c0-.1.1-.3.1-.4l-1.3-2.9c-.1-.2-.2-.3-.4-.3v-.1h1.6v.1c-.5 0-.5.2-.4.5l.9 2 .7-2.1zM133.3 99.9c0-.6-.1-.5-.6-.5v-.1c.4-.1.9-.2 1.3-.3v4.7c0 .4.1.5.6.5v.1h-1.9v-.1c.5 0 .6-.2.6-.5v-3.8zM135.5 101.9c.1-.5.3-.9.9-.9.5 0 .7.4.7.9h-1.6zm2.4.2c0-.8-.5-1.4-1.4-1.4-1 0-1.6.8-1.6 1.9 0 .9.6 1.8 1.5 1.8.8 0 1.4-.6 1.6-1.3h-.1c-.2.4-.7.8-1.2.8-.9 0-1.3-1-1.3-1.7h2.5zM63.5 68.9h-1.3v5.3l-8.9-5.3H52v6.9h1.3v-5.3l8.9 5.3h1.3zM114.3 68.9h-1.4v5.3l-8.8-5.3h-1.4v6.9h1.4v-5.3l8.8 5.3h1.4zM101 68.9H90.6v6.9H101c1.2 0 1.2-1.2 1.2-1.2V70c0 .1 0-1.1-1.2-1.1zm-.2 2v3.5H92v-4.2h8.2c.6 0 .6.7.6.7zM65.5 75.8h-1.4v-7h1.4v7zM76.7 71.5h-7.3v1.4h7.2c1.1 0 1.1-1.2 1.1-1.2V70s0-1.2-1.2-1.2H66.2v6.9h1.4v-5.6h9.1v1.4zM88.8 71.5h-7.2v1.4h7.2c1.1 0 1.1-1.2 1.1-1.2V70s0-1.2-1.2-1.2H78.3v6.9h1.4v-5.6h9.1v1.4z"/><path d="M80.9 51 70.5 41l2.5-2.7 10.4 10.1 10.4-10.1 2.6 2.7-10.3 10 10.5 10-2.6 2.7-10.5-10.2-10.6 10.2-2.5-2.7 10.5-10z" style="fill:#656565"/><path class="st5" d="M120.9 31.6c-.6.7-1.3 1.1-2.2 1.2-.6.1-1.1.1-1.7.1-.8-.1-1.5-.3-2.1-.8-.5-.4-.9-.8-1.2-1.4-.3-.4-.4-.9-.5-1.4-.1-.7-.1-1.3.1-2 .4-1.6 1.6-2.7 3.2-3 .9-.2 1.7-.2 2.6.1.6.2 1.1.4 1.6.9.3.3.5.6.7.9.2.4.3.9.3 1.3h-2.8c-.1-.4-.2-.7-.5-.9-.4-.3-.9-.3-1.3-.1-.3.2-.5.4-.6.8-.2.8-.3 1.5 0 2.3.1.3.2.6.5.8.3.3.6.4 1 .3.2 0 .4-.1.6-.3.2-.2.3-.4.3-.6 0-.2.1-.3.1-.5h3c-.2.9-.5 1.7-1.1 2.3M109.5 21.1h3.1v2.2h-3.1zM109.5 24.4h3.1v8.3h-3.1zM103.1 25.3c.4-.4.8-.6 1.3-.8.8-.4 1.6-.4 2.4-.2.9.3 1.6.9 1.8 1.8.1.4.2.8.2 1.3v5.3h-3.3v-4.8c0-.2 0-.3-.1-.4-.1-.3-.3-.5-.5-.6-.6-.2-1.2 0-1.6.5-.1.2-.2.5-.2.7v4.6h-3.2v-8.3h3l.2.9M66.6 25.3c.4-.4.8-.6 1.3-.8.8-.4 1.6-.4 2.4-.2.9.3 1.6.9 1.8 1.8.1.4.2.8.2 1.3v5.3H69v-4.8c0-.2 0-.3-.1-.4-.1-.3-.3-.5-.5-.6-.6-.2-1.2 0-1.6.5-.1.2-.2.5-.2.7v4.6h-3.2v-8.3h3l.2.9M86.1 29.7c.2 0 .4.1.7.2.2.1.3.2.4.4 0 .2 0 .4-.2.6-.2.2-.3.2-.6.3-.3 0-.5 0-.8-.1-.1 0-.2-.1-.3-.2-.1-.1-.2-.3-.3-.4 0-.1-.1-.3-.1-.4h-3v.2c0 .3 0 .5.1.8.1.4.4.7.7 1 .4.4.8.6 1.4.8 1.1.3 2.1.4 3.3.2.5-.1 1-.2 1.5-.5.2-.1.4-.2.6-.4.8-.7 1.1-1.7.8-2.8-.1-.4-.3-.7-.6-.9-.4-.4-.8-.6-1.4-.7-.1 0-.2-.1-.3-.1-.7-.2-1.2-.3-1.9-.4-.2 0-.3-.1-.5-.1-.1 0-.1 0-.2-.1-.2-.1-.3-.3-.2-.5.1-.2.3-.3.5-.4.3-.1.7-.1 1 0 .3.1.5.4.5.8h2.9c0-.4-.1-.7-.2-1-.1-.3-.3-.6-.6-.8-.2-.2-.5-.3-.8-.4-.3-.1-.5-.2-.8-.2-.7-.1-1.3-.2-2.1-.1-.4 0-.8.1-1.2.2-.6.1-1 .3-1.4.7-.4.3-.6.6-.8 1.1-.1.2-.1.4-.1.6 0 .4 0 .7.2 1 .2.6.7 1 1.3 1.3l.9.3c.4-.2.9-.1 1.6 0M49.9 29.2h-2.1v-2.7H49.9c.4 0 .7-.2.9-.5.1-.2.2-.3.2-.5V25c-.1-.6-.6-1.1-1.2-1.1h-2.1v8.8h-3.5V21.1H50.6c1.5.1 2.8.9 3.4 2.3.3.7.4 1.4.4 2.2-.2 1.7-1.3 3-3 3.3-.5.2-.9.3-1.5.3M96 24.3c-.3-.1-.6-.1-.9-.1-.3 0-.6 0-.9.1-1 .1-1.7.5-2.4 1.2s-1.1 1.6-1.2 2.6c-.1.6 0 1.2.2 1.8.3.9.7 1.7 1.5 2.2.5.4 1 .6 1.6.8.4.1.8.1 1.3.1.4 0 .8 0 1.3-.1.6-.1 1.1-.4 1.6-.8l-1.8-1.9c-.3.6-1 .9-1.6.6-.3-.1-.5-.3-.6-.6-.1-.3-.2-.5-.2-.8-.1-.6-.1-1.1 0-1.7.1-.3.2-.5.3-.8.4-.6 1.1-.7 1.7-.3.1.1.3.2.3.3.2.3.3.5.3.8.1.6.1 1.1 0 1.7 0 .3-.1.5-.2.8l1.8 1.9c.8-.6 1.3-1.3 1.5-2.2.2-.6.2-1.2.2-1.8-.1-1-.5-1.9-1.2-2.6-.9-.7-1.7-1.1-2.6-1.2M81.5 32.1c-.1-.7-.1-1.3-.1-1.9v-2.6c0-.5-.1-.9-.2-1.4-.2-.6-.5-1.1-1.1-1.4-.3-.2-.6-.3-1-.4-1.2-.3-2.2-.3-3.4-.1-.3.1-.6.1-.9.3-.7.3-1.2.9-1.5 1.6-.1.3-.1.6-.1.9v.2l2.8.1c0-.2 0-.3.1-.5.1-.3.3-.4.5-.5.4-.1.7-.1 1.1 0 .2.1.4.3.5.5.1.2 0 .3-.1.4l-.3.3c-.1 0-.2.1-.2.1-.4.1-.7.2-1.1.2-.3.1-.6.1-.9.2l-1.2.3c-.4.1-.7.3-1 .6-.4.3-.6.8-.7 1.3v1c.2.9.8 1.5 1.6 1.8.9.3 1.8.2 2.7-.1.4-.2.8-.4 1.1-.8l-.2-1.4c-.1.2-.3.4-.5.5-.2.1-.4.2-.7.2h-.6c-.2 0-.3-.1-.4-.2-.1-.1-.2-.2-.2-.3 0-.2 0-.4.2-.5.1-.1.2-.2.3-.2l.9-.3c.4-.1.7-.2 1.1-.4v.9c0 .2-.1.4-.2.6l.2 1.4c.1.2.1.4.2.6 0 .1.1.2.2.3h3.1c.1-.9 0-1.1 0-1.3M62.9 32.1c0-.7-.1-1.3-.1-1.9v-2.6c0-.5-.1-.9-.2-1.4-.2-.6-.5-1.1-1.1-1.4-.3-.2-.6-.3-1-.4-1.2-.3-2.2-.3-3.4-.1-.3.1-.6.1-.9.3-.7.3-1.2.9-1.5 1.6-.1.3-.1.6-.1.9v.2l2.8.1c0-.2 0-.3.1-.5.1-.3.3-.4.5-.5.4-.1.7-.1 1.1 0 .2.1.4.3.5.5 0 .2 0 .3-.1.4l-.3.3c-.1 0-.2.1-.2.1-.4.1-.7.2-1.1.2-.3.1-.6.1-.9.2l-1.2.3c-.4.1-.7.3-1 .6-.4.3-.6.8-.7 1.3v1c.2.9.8 1.5 1.6 1.8.9.3 1.8.2 2.7-.1.4-.2.8-.4 1.1-.8l-.2-1.4c-.1.2-.3.4-.5.5-.2.1-.4.2-.7.2h-.6c-.2 0-.3-.1-.4-.2-.1-.1-.1-.2-.2-.3 0-.2 0-.4.2-.5.1-.1.2-.2.4-.2l.9-.3c.4-.1.7-.2 1.1-.4v.9c0 .2-.1.4-.2.6l.2 1.4c.1.2.1.4.2.6 0 .1.1.2.2.3H63c0-.9 0-1.1-.1-1.3"/></svg>