<svg version="1.1" id="レイヤー_1" xmlns="http://www.w3.org/2000/svg" xmlns:xlink="http://www.w3.org/1999/xlink" x="0" y="0" viewBox="0 0 620 385" style="enable-background:new 0 0 620 385" xml:space="preserve"><style>.st2{fill:#fadce9}.st4,.st5{stroke:#000;stroke-width:.332}.st4{fill:#fffcdb}.st5{stroke-miterlimit:10}.st5,.st6{fill:#dfeaf8}.st7{stroke:#000;stroke-width:.332;stroke-miterlimit:10}.st7,.st8{fill:#fff}.st10{fill:#bfc0c0;stroke:#000;stroke-width:.498}.st11,.st12{stroke-width:.332}.st11{fill:#f7f3e3;stroke:#000}.st12{stroke-miterlimit:10}.st12,.st13,.st14{fill:none;stroke:#000}.st13{stroke-width:.249;stroke-dasharray:8.3,1.079,1.079,1.079}.st14{stroke-width:.332}.st15{fill:none;stroke-linecap:round;stroke-linejoin:round;stroke-miterlimit:10}.st15,.st16,.st17{stroke:#000;stroke-width:.332}.st16{fill:none;stroke-dasharray:1.079,1.079}.st17{fill:#fff}.st18{fill:none;stroke:#aaabab;stroke-width:.249;stroke-dasharray:3.735,2.075}.st19,.st20,.st22,.st23{fill:none;stroke:#000;stroke-width:.249}.st20,.st22,.st23{stroke-dasharray:1.09,1.09}.st22,.st23{stroke-dasharray:1.067,1.067}.st23{stroke-dasharray:1.0744,1.0744}.st26,.st29,.st30,.st31,.st32,.st37,.st38{fill:none;stroke:#000;stroke-width:.249;stroke-dasharray:1.0627,1.0627}.st29,.st30,.st31,.st32,.st37,.st38{stroke-dasharray:1.0754,1.0754}.st30,.st31,.st32,.st37,.st38{stroke-dasharray:1.0644,1.0644}.st31,.st32,.st37,.st38{stroke-dasharray:1.0986,1.0986}.st32,.st37,.st38{stroke-dasharray:1.0582,1.0582}.st37,.st38{stroke-dasharray:1.1903,1.1903}.st38{stroke-dasharray:1.069,1.069}.st39{fill:none;stroke:#b5b5b6;stroke-width:.332}</style><path style="fill:#feebbe" d="M432.5 178.8h111.9v71.3H432.5z"/><defs><path id="SVGID_1_" d="M381.9 32.6v74H49.7v180.6h517.1V32.6z"/></defs><clipPath id="SVGID_00000037665486199061948370000001896371497636438157_"><use xlink:href="#SVGID_1_" style="overflow:visible"/></clipPath><path style="clip-path:url(#SVGID_00000037665486199061948370000001896371497636438157_);fill:none;stroke:#cfb5a7;stroke-width:.3735" d="M566.8 282.5H49.7M566.8 277.8H49.7M566.8 273.1H49.7M566.8 268.4H49.7M566.8 263.6H49.7M566.8 258.9H49.7M566.8 254.2H49.7M566.8 249.5H49.7M566.8 131.7H49.7M566.8 127H49.7M566.8 122.3H49.7M566.8 117.6H49.7M566.8 112.9H49.7M566.8 108.2H49.7M566.8 103.5H49.7M566.8 98.8H49.7M566.8 94H49.7M566.8 89.3H49.7M566.8 84.6H49.7M566.8 79.9H49.7M566.8 75.2H49.7M566.8 70.5H49.7M566.8 65.8H49.7M566.8 61.1H49.7M566.8 56.4H49.7M566.8 51.6H49.7M566.8 46.9H49.7M566.8 42.2H49.7M566.8 37.5H49.7M566.8 244.8H49.7M566.8 240.1H49.7M566.8 235.4H49.7M566.8 230.7H49.7M566.8 226H49.7M566.8 221.2H49.7M566.8 216.5H49.7M566.8 211.8H49.7M566.8 207.1H49.7M566.8 202.4H49.7M566.8 197.7H49.7M566.8 193H49.7M566.8 188.3H49.7M566.8 183.6H49.7M566.8 178.8H49.7M566.8 174.1H49.7M566.8 169.4H49.7M566.8 164.7H49.7M566.8 160H49.7M566.8 155.3H49.7M566.8 150.6H49.7M566.8 145.9H49.7M566.8 141.2H49.7M566.8 136.4H49.7"/><path class="st2" d="M283.1 181.4v8.9h-1.9v42.3l26.8.1v-51.3zM309.9 235.9h-26.8v46.8H308v-4.4h1.9zM283 149.9h24.9v28.2H283zM385.2 71.2h23.5v32.6h-23.5zM457.2 32.9h100v20.7h-100z"/><path style="fill:#ecf4d9;stroke:#000;stroke-width:.332" d="M548 299.9v.7h-97v-.7h-63v.9h-59.4v-.9h-65.9v.7h-73.4v-.7H144v.7H70.5v-.7H42.9v70.6h530.7v-70.6z"/><path class="st4" d="M370.2 53.8v-8.7h-39.1v20.5h-3.3v-1.2h-56.5v38.9h56.5v-4.8h3.3v2.5h50.8V53.8z"/><path class="st5" d="M214 34.3h-77.9V31H46.5v72.5h89.6v-.6H214zM265.9 81.6V34.3H229v35.8h-11.8v33.2h14.1v1.6H268V81.6z"/><path class="st6" d="M453.9 94v40.5h102.8v-9.9h10.1V94z"/><path class="st2" d="M317 53.8h10.8v10.6H317zM139.1 34.3h32V46h-32zM49.7 107.1v24.6H55v2.2h63.4v-2.2h5.4v-24.6zM283.1 181.4v8.9h-1.9v42.3l26.8.1v-51.3zM309.9 235.9h-26.8v46.8H308v-4.4h1.9zM283 149.9h24.9v28.2H283zM385.2 71.2h23.5v32.6h-23.5zM457.2 32.9h100v20.7h-100zM217.2 70.1h10.4v32.8h-10.4z"/><path class="st4" d="M331.1 101h50.8v5.6h-50.8z"/><path class="st6" d="M428.8 300.2c-.5 0-.9.4-.9.9v16c0 1 .8 1.9 1.9 1.9h16.9c1 0 1.9-.8 1.9-1.9v-16c0-.5-.4-.9-.9-.9h-18.9z"/><path class="st7" d="M232.5 104.1v-1.3h-1.2v2.1h1.7v-.8zM266.8 104.1v-1.3h1.2v2.1h-1.7v-.8zM212.7 100.7h1.2v2.1h-1.2z"/><path class="st7" d="M176.3 101h36.5v1.9h-36.5z"/><path class="st8" d="M136.5 65.1v-.2h3v-1h-3.1v.4h-1v-.2h-1.3v1.2h.1v.8h-.5v.1H132.6v.2h-.3v.4h-.3v.3h-.2v.4h-.2v2.9h.4v-1.7h.2v-.6h.1v-.2h.3v-.1h1.1v.1h.5v32.5h1.5v-.8H138.6V98h-.7V70.5h.4v-2.6h.3v-1.8h-2.9v-.5h.4v-.5h-.7zM167.6 107.1h4.2v1h-4.2zM167.6 147.3h4.2v1.1h-4.2z"/><path class="st8" d="M167.6 107.7h1.3v40.8h-1.3zM278.6 148.1v2.1h-.7v.7h-37.6v-.8h-.8v-2h-1.1v4.1H279.8v-4.1zM283 148.5h24.9v1.4H283zM279.8 190.5h1.4v42.2h-1.4zM309.9 236h1.4v42.3h-1.4zM402 245.3h1.6v31.3H402zM405 246.8h-1.4v-31.1h1.4zM405.2 185.7h1.4V217h-1.4zM406.7 185.6h3.8v1.2h-3.8zM401.5 276.7h9.1v.9h-9.1z"/><path style="fill:#d2cce6" d="M312.8 21.1v20.6h3v-.4h55.6v.5h1.7V21.1z"/><path class="st2" d="M271.3 64.4h18.8v38.9h-18.8z"/><path transform="rotate(90 247.437 41.299)" class="st2" d="M240.4 22.8h14v36.9h-14z"/><path class="st8" d="M381 107.1v1.1h3.1v.7h.7v37.7h-.7v.7H381v1.2h5.1v-41.4z"/><path class="st10" d="M261.9 287.2v12.1l.7.6h18.1v30.6h44.7v-30.6h3.4l.5-.5v-12.2h-.8v-4.4h-17.2v-4.5H308v4.5h-24.9V236h28.2v-84.2h95.5v33.9h3.3v-37.2H308v29.7h-24.9v-29.7h-3.3v41.9h3.3v-8.9H308v51.2h-28.2v50.1h-2.2v4.4zM387.7 299.9l-.5-.4v-12.3H402v-9.4h43.4v9.4h6.4v12.1l-.7.7zM238.4 151.8v-3.3H168v138.7h-24.8v12.1l.7.6h45.3l.7-.6v-12.1h-17.7V151.8z"/><path class="st10" d="M331.1 65.6V45.1h-4.5v-1.4h-10.8v-2h-2.9v-21H4.4v41.2h29.3v220.3H2.8v48.3h43.6v-30.6h24.1l.7-.6v-12.1H49.7V135.7H55v-3.9h-5.3v-24.7h74.1v24.7h-5.3v3.6h8.6v-28.3h44.2v-.4h4.9v-3.6h-37.3V102h-2.8v1.5H46.4V31h89.7v32.9h2.8V34.3h75v72.4h17.4v-3.3h-14.1V70.1h11.7V34.3h37v47.4h2.1v25h63.1v-8.2h-3.3v4.9h-56.5v-39h45.6V53.8h10.9v11.8zM4 370.5h42.3v11.8H4zM283.1 370.5h42.3v11.8h-42.3zM570.1 370.5h42.3v11.8h-42.3zM556.7 127.2v12.5h10.1v147.5h-19.5v12.1l.6.6h22.2v30.6h47.1v-48h-34.4V63.1h19.1V20.6H373.2v21.2h-1.7v3.3h-1.3v8.7h11.7v53.3h28.2v-3.3h-24.9V71.3h24.9V68h-24.9V32.7h172v32h9.6v59.9h-10.1"/><path class="st11" d="M404.8 280.6h37.8v8.1h-37.8z"/><path class="st7" d="M329.7 65.6h1.4v32.9h-1.4zM408.7 71.3h1.4v32.4h-1.4z"/><path class="st11" d="M216.7 31.5h9.3v35.8h-9.3zM559.1 127.4h10.6v9.4h-10.6z"/><path transform="rotate(-90 451.108 368.419)" class="st8" d="M449 367.1h4.1v2.7H449z"/><path transform="rotate(-90 451.078 364.87)" class="st8" d="M449 363.9h4.1v1.8H449z"/><path transform="rotate(-90 451.108 353.29)" class="st8" d="M440.6 352.7h20.9v1.2h-20.9z"/><path transform="rotate(-90 333.47 368.419)" class="st8" d="M331.4 367.1h4.1v2.7h-4.1z"/><path transform="rotate(-90 333.44 364.87)" class="st8" d="M331.4 363.9h4.1v1.8h-4.1z"/><path transform="rotate(-90 333.47 353.29)" class="st8" d="M323 352.7h20.9v1.2H323z"/><path class="st10" d="M556.7 127.2h-32.2v-2.6h32.2"/><path class="st12" d="M283.1 370.5h42.3" id="LINE_00000163754318253921009800000012155140984140980128_"/><path class="st12" d="M283.1 382.3v-11.8" id="LINE_00000006677525612268146210000008544035157262346403_"/><path class="st12" d="M283.1 382.3h42.3" id="LINE_00000023273893537714969460000003693137411503128509_"/><path class="st12" d="M325.4 370.5v11.8" id="LINE_00000005970290820026593770000002191859378103340714_"/><path class="st12" d="M42.9 365.8h530.7" id="LINE_00000152983244211487632150000015439657061204593027_"/><path class="st12" d="M42.9 332.8v35.3" id="LINE_00000041989606098143663640000013431070709842053517_"/><path class="st12" d="M40.5 368.1v-35.3" id="LINE_00000138531967730077875100000008089567253028295343_"/><path class="st12" d="M573.6 368.1v-35.3" id="LINE_00000110438907664043512850000001628900764275960989_"/><path class="st12" d="M576 332.8v35.3" id="LINE_00000183953354732802030560000003230265524434264974_"/><path class="st12" d="M283.1 370.5H46.4" id="LINE_00000116949882135216103100000002937486765077088932_"/><path class="st12" d="M283.1 379.9H46.4" id="LINE_00000103952440438234149690000016655400013547300003_"/><path class="st12" d="M570.1 379.9H325.4" id="LINE_00000058587750903079929610000010840584378032885666_"/><path class="st12" d="M570.1 370.5H325.4" id="LINE_00000150094268203994685600000012530600695861384334_"/><path class="st12" d="M576 368.1v2.4" id="LINE_00000021084046381311130210000012137082013905008816_"/><path class="st12" d="M573.6 370.5v-2.4" id="LINE_00000163763580021754478980000013225863237396144779_"/><path class="st12" d="M573.6 368.1h2.4" id="LINE_00000088098069244278350530000004550924393192263592_"/><path class="st12" d="M42.9 368.1v2.4" id="LINE_00000052804698954345979850000004224639858043467947_"/><path class="st12" d="M40.5 370.5v-2.4" id="LINE_00000005225330135703483220000011970087477558816149_"/><path class="st12" d="M40.5 368.1h2.4" id="LINE_00000133528021387764896630000011034555995756680108_"/><path class="st12" d="M42.9 330.5v2.3" id="LINE_00000085214924043970496850000005490829657455646638_"/><path class="st12" d="M42.9 332.8h-2.4" id="LINE_00000183952654406133112600000004217273048715877264_"/><path class="st12" d="M40.5 332.8v-2.3" id="LINE_00000118372034314391948730000013707302301198664876_"/><path class="st12" d="M576 330.5v2.3" id="LINE_00000114038881940524283600000012346878301795960233_"/><path class="st12" d="M576 332.8h-2.4" id="LINE_00000130612388285216514560000006914904794388934047_"/><path class="st12" d="M573.6 332.8v-2.3" id="LINE_00000053525138559236177960000005403558325140181928_"/><path class="st12" d="M570.1 376.8H325.4" id="LINE_00000107569148866426073650000005103481687422245803_"/><path class="st12" d="M570.1 373.5H325.4" id="LINE_00000112596674270044561860000005815705089710115727_"/><path class="st12" d="M283.1 376.8H46.4" id="LINE_00000045620247449342696210000000538502484115176362_"/><path class="st12" d="M283.1 373.5H46.4" id="LINE_00000067231215764375945070000014973002030549978024_"/><path class="st12" d="M4 365.8h25M38.4 365.8h2.3M576.2 365.8h1.8"/><circle class="st12" cx="582.8" cy="366.2" r="2.4"/><circle class="st12" cx="582.8" cy="366.2" r="1.6"/><path class="st12" d="M578 362.5v3.3M578 362.5h9.4M587.4 362.5v3.3"/><circle class="st12" cx="33.8" cy="366.2" r="2.4"/><circle class="st12" cx="33.8" cy="366.2" r="1.6"/><path class="st12" d="M29 362.5v3.3M29 362.5h9.4M38.4 362.5v3.3M587.4 365.8h25"/><path class="st13" d="m308 181.4-19.3 51.2M302.4 236l-17.6 46.7M49.7 126.4l74.1-19.3M171.1 34.3 138.9 46M290.1 65.6l-18.8 37.7M229 48.4l36.7-14.1M317 64.4l10.8-10.6M405.2 71.2l-20 32.6M283.1 178.1l24.9-18.8M138.9 46h32.2M171.1 46V34.3M49.7 126.4h74.1M308 159.3h-24.9M288.7 181.4v51.2M302.4 236v46.7M317 64.4h10.8M405.2 71.2v32.6M290.1 64.4v38.9M229 48.4h36.7M64.9 282h84.6M183.6 282h84.6M553.6 282.3H445.5M328.5 282.5H402M553.6 284.7H445.5M328.5 284.9H402M183.6 284.5h84.6M64.9 284.5h84.6"/><path class="st14" d="M331.8 45.1h37.7M369.9 41.3V2.7c-21.3 0-38.6 17.3-38.6 38.6M457.2 32.6v21.2h100M194 107.6v-8M176.3 102.6h1.2v4.5h-1.2zM213.9 100.7h-1.2v6.4h1.2v-6.4M212.7 101h-36.4v1.4h36.4M176.3 101.7H141M168.9 109h.7v-.8M168.9 108.2v39.1M168.9 146.6h.7v.7M174.1 127.8h-10.3M128.5 108.2c0 21.6 17.5 39.1 39.1 39.1M55 135.3h63.5M55 133.9h63.5M60.5 155.8c9.3-2.5 15.7-10.9 15.7-20.5M55 135.3l5.5 20.5M76.2 133.9v1.4M97.3 133.9v1.4M113 155.8l-5.5-20.6M118.5 135.3l-5.5 20.5M266.7 106.9V105M266.8 107v-2M266.8 105h-34.3M232.5 107v-2M232.6 106.9V105M266.7 106.9h-34.1M249.7 110.1v-8.6M268 102.8H266.8v1.3h-.5v.9M266.8 106.9h1.2v-2M232.5 107h-1.2v-2.1M233.1 105v-.9h-.6v-1.3h-1.2v2.1M266.7 140.7V105M232.6 106.9c.1 18.7 15.3 33.8 34.1 33.8M384.8 146.6h-.7v.7M384.1 108.2v.8h.7M384.8 108.2v39.1M425.2 109.7h-39.1M386.1 147.3c21.6 0 39.1-17.5 39.1-39.1"/><path class="st14" d="M386.1 147.3H381v1.2h5.1v-41.4H381v1.1h44.2M376.9 127.8H391M410.1 103.8V71.2M408.7 103.8V71.2M408.7 87.5h1.4M425.8 99.6l-15.7-4.3M410.1 103.8l15.7-4.2M277.9 150.9v-.7h.7M278.6 150.9h-39.1M240.3 150.9v-.7h-.8M239.5 152.2c0 21.6 17.5 39.1 39.1 39.1"/><path class="st14" d="M278.6 191.3V148h1.2v4.2h-41.4V148h1.1v4.2M259.1 145.7v10.2M128.5 108.2h43.3v-1.1h-4.2v41.4h4.2v-1.2h-4.2M408.7 216.2h-7.2M400 246.1h7.9M402 276.7v-31.4h1.5"/><path class="st14" d="M403.5 276.7v-61.2h1.6M406.7 186.8v-1.2h3.8v1.2h-3.8M401.5 186.2H412"/><path class="st14" d="M403.5 246.8h1.6v-61.2h1.5"/><path class="st14" d="M406.6 185.6v31.3h-1.5M408.6 276.7h-1.5M401.5 151.8v1.1h5.3M401.5 276.7h9.1v1.1h-9.1zM369.5 45.1h1.9v-3.8h-1.2v1.9h-.7v1.9"/><path class="st14" d="M331.1 41.3h38.8v1.6h-38.8z"/><path class="st14" d="M331.4 41.3h-15.6v2.4"/><path class="st14" d="M331.8 45.1v-1.9h-.7v-1.9M350.6 37.1V49M331.8 45.1h-1.9M328.1 82h4.8M331.1 74.1l15.9-4.3M347 69.8l-15.9-4.2M329.7 98.5V65.6M331.1 98.5V65.6M283.1 148.5H308M283.1 149.9H308M283.1 148.5l6.4-24.1M308 148.5c0-11.3-7.6-21.2-18.5-24.1M281.2 211.5h-1.4M259.3 227.2l20.6-5.5M279.8 190.3v42.4M259.3 227.2l20.5 5.5M281.2 190.3v42.4M309.9 257.1h1.4M331.8 272.8l-20.6 5.5M331.8 272.8l-20.5-5.5M311.3 278.3V236M309.9 278.3V236M268 104.9h-36.7M261 78.5V54.3c0-.4.3-.7.8-.7h4v1.5h-3.2v22.6h3.2-4c-.5 0-.8.4-.8.8s.3.8.8.8h4"/><path class="st15" d="M461.7 97.3c0 1.4-1.2 2.6-2.6 2.6M491.3 98.2c2.4.1 4.4 2 4.5 4.4M495.8 102.6c.2 3.5.2 7.1 0 10.7M495.9 113.3c-.1 2.4-2.1 4.4-4.5 4.5M487.2 117.8c1.4-.1 2.8-.1 4.2-.1M483.9 119c.9-.7 2.1-1.1 3.3-1.2M483.9 119c-3.5 2.7-8.4 2.7-12 0M468.6 117.8c1.2 0 2.3.4 3.3 1.1M468.6 117.8c-1.4 0-2.8-.1-4.2-.1M464.4 117.7c-2.4-.1-4.4-2-4.5-4.4M459.9 113.3c-.2-3.6-.2-7.1 0-10.7"/><path class="st15" d="M459.9 102.6c.1-2.4 2.1-4.3 4.5-4.4M464.5 98.2c8.9-.3 17.9-.3 26.8 0M496.7 118.9c0 1.6-1.3 2.8-2.8 2.8M461.9 121.7c-1.6 0-2.8-1.3-2.8-2.8M459.1 100.1c0-1.6 1.3-2.8 2.8-2.8M493.9 97.3c1.6 0 2.8 1.3 2.8 2.8"/><circle class="st15" cx="477.9" cy="109.5" r="3.7"/><path class="st15" d="M496.7 118.9v-18.8"/><path class="st16" d="M524.5 124.7V95.9"/><path class="st15" d="M558.2 118.6h-25.3M558.4 97.6h-25.7M558.8 119.7h-26.5M558.8 95.9h-26.5M558.4 97.8h-25.7M558.4 116.1h-25.7M532.4 115.8V98M532.5 98v17.8M531.5 118.8V96.7M542.8 116.2h-10.1M542.8 116.5h-10.1M532.5 118.2v-1.5M558.8 115.8V98M558.6 98v17.8M559.6 96.7v22.1M558.4 116.2h-10.1M558.4 116.5h-10.1M558.6 118.2v-1.5"/><circle class="st15" cx="545.6" cy="112" r="3.4"/><path class="st15" d="M548.1 116.3c-1.6.9-3.5.9-5.1 0"/><path class="st15" d="M548.2 116.5c-1.6 1-3.7 1-5.4 0"/><circle class="st15" cx="538.8" cy="104.2" r="5.1"/><path class="st15" d="M532.4 98c0-.2.2-.4.4-.4M531.5 96.7c0-.5.4-.8.8-.8M532.9 118.6c-.2 0-.4-.2-.4-.4M532.3 119.7c-.5 0-.8-.4-.8-.8M532.7 116.2c-.2 0-.4-.2-.4-.4M532.5 116.7c0-.1.1-.2.2-.2"/><path class="st15" d="M532.7 116.1c-.1 0-.2-.1-.2-.2M542.8 116.5h.1M542.8 116.2c.1 0 .2 0 .2.1"/><circle class="st15" cx="552.3" cy="104.2" r="5.1"/><path class="st15" d="M558.4 97.6c.2 0 .4.2.4.4M558.4 97.8c.1 0 .2.1.2.2M558.8 95.9c.5 0 .8.4.8.8M548.1 116.3c.1 0 .1-.1.2-.1M548.2 116.5h.1M558.6 118.2c0 .2-.2.4-.4.4M559.6 118.8c0 .5-.4.8-.8.8M558.8 115.8c0 .2-.2.4-.4.4M558.4 116.5c.1 0 .2.1.2.2M558.6 115.8c0 .1-.1.2-.2.2M453.9 94v40.5"/><path class="st16" d="M524.5 95.9h42.3"/><path class="st15" d="M566.8 94H453.9M556.7 134.5H453.9M493.9 97.3h-32M461.9 121.7h32M459.1 100.1v18.8M532.5 98c0-.1.1-.2.2-.2"/><path class="st14" d="M93.9 64.9h-7.1M94.4 65.4c0-.3-.2-.5-.5-.5M94.4 65.4v6.7M93.9 72.6c.3 0 .5-.2.5-.5M93.9 72.6h-7.1M86.8 64.9c-.3 0-.5.2-.5.5M86.3 72.1v-6.7M86.2 66c.1-.1.1-.2.1-.3M86.2 66l-.6.6M85.6 66.6c-.1.1-.2.3-.2.5M86.3 72.1c0 .3.2.5.5.5M86.3 71.8c0-.1 0-.2-.1-.3M86.2 71.5l-.6-.6M85.4 70.4c0 .2.1.4.2.5M85.4 101.7V35.8M83.8 52.2c-.8-8.8-8.6-15.3-17.5-14.5-7.7.7-13.8 6.8-14.5 14.5M78 60.5c0 .7.2 1.4.4 2.1M79.4 66c0-.6-.1-1.2-.3-1.7M78.8 60.1c0 1 .3 2 .8 2.8M80.8 66.5c0-.9-.2-1.8-.6-2.6M79.1 64.3c-.2-.6-.4-1.1-.6-1.7M79.4 68.7V66M80.2 63.9c-.2-.3-.4-.7-.5-1"/><path class="st14" d="M78 60.5c-.1-4.1-.2-8.3-.4-12.4M78.8 45.8c-.9-1.2-2.1-2-3.6-2.3"/><path class="st14" d="M80.8 52.2c0-2.3-.7-4.6-2.1-6.5M78.5 47.6c-.1-2.1-1.6-3.9-3.7-4.2"/><path class="st14" d="M77.7 48.1c-.1-2-1.6-3.7-3.6-4M59.1 43.3c-1.1.2-2.2.7-3 1.5M56.1 44.8c-2 1.9-3.1 4.6-3.1 7.4M80.8 52.2v16.5M51.8 85.2v-33M83.8 52.2v33M52.9 52.2v14.1M53.7 66.3v2.4M75.2 43.4c-5.3-1-10.8-1-16.1-.1"/><path class="st14" d="M59.9 43.2c-2.3.3-4.2 2.2-4.4 4.6"/><path class="st14" d="M59.8 44.1c-1.9.3-3.4 1.8-3.6 3.8M74.1 44.1c-4.7-.8-9.6-.8-14.3-.1M53.4 64.1c-.3.7-.4 1.4-.4 2.1M54 62.7c.3-.7.5-1.5.6-2.2M54.7 62.7c.4-.7.5-1.5.6-2.3M54.1 64.1c-.3.7-.4 1.4-.4 2.2M54.7 62.7c-.2.5-.4.9-.6 1.4M54 62.7c-.2.5-.4.9-.6 1.4M55.5 47.8c-.4 4.2-.7 8.4-.9 12.7M56.2 47.8c-.4 4.2-.7 8.4-.9 12.6M51.8 85.2c.8 8.8 8.6 15.3 17.5 14.5 7.6-.7 13.7-6.8 14.5-14.5M78.5 74.8c-.3.7-.4 1.4-.4 2.1M79.1 73.2c.2-.6.3-1.1.3-1.7M79.6 74.6c-.5.8-.8 1.8-.8 2.8M80.2 73.6c.4-.8.6-1.7.6-2.6M78.5 74.8c.2-.6.4-1.1.6-1.7M79.4 71.5v-2.7M79.6 74.6c.2-.3.4-.7.5-1M78.5 89.8l.3-12.4"/><path class="st14" d="M77.7 89.3c.1-4.1.3-8.2.3-12.3M75.2 94c1.5-.3 2.8-1.1 3.6-2.3M78.8 91.7c1.3-1.9 2.1-4.2 2.1-6.5"/><path class="st14" d="M74.8 94.1c2.1-.4 3.6-2.1 3.7-4.2"/><path class="st14" d="M74.1 93.3c2-.3 3.5-2 3.6-4M56.1 92.6c.8.8 1.9 1.3 3 1.5M52.9 85.2c0 2.8 1.1 5.5 3.1 7.4M80.8 85.2V68.7M52.9 85.2v-14M53.7 71.2v-2.5M59.1 94.2c5.3.8 10.8.8 16.1-.2"/><path class="st14" d="M55.5 89.7c.2 2.4 2.1 4.2 4.4 4.6"/><path class="st14" d="M56.2 89.6c.2 1.9 1.7 3.5 3.6 3.8M59.8 93.4c4.7.7 9.6.7 14.3-.1M52.9 71.2c0 .7.1 1.5.4 2.1M54.6 77c0-.8-.2-1.5-.6-2.2M55.3 77.1c0-.8-.2-1.6-.6-2.3M53.7 71.2c0 .7.1 1.5.4 2.2"/><path class="st14" d="M54.1 73.4c.2.5.4.9.6 1.4M53.4 73.4c.2.5.4 1 .6 1.4M54.6 77c.2 4.2.5 8.5.9 12.7M55.3 77.1c.2 4.2.5 8.4.9 12.6M75.1 68.7c0 .9.7 1.6 1.6 1.6s1.6-.7 1.6-1.6M78.3 68.7c0-.9-.7-1.6-1.6-1.6s-1.6.7-1.6 1.6M86.8 101.7V35.8"/><circle class="st14" cx="82.3" cy="99.3" r=".7"/><circle class="st14" cx="82.3" cy="99.3" r="1.2"/><path class="st14" d="M91.8 48.3c0 .3.2.5.5.5M128.9 48.7c.3 0 .5-.2.5-.5M128.9 48.7H92.2M91.8 48.3V35.8M129.4 48.3V44M52.8 54.8c0-.1 0-.2-.1-.2"/><path class="st14" d="M52.7 54.6c-1-.6-2.1-1.1-3.3-1.3M51.6 56.7c.1.1.2.1.3.1M51.6 56.7c-.7-.4-1.4-.7-2.2-.9M52.8 56.7h-.9M51.9 80.7c-.1 0-.2 0-.3.1M52.8 80.7h-.9M52.8 82.7v-2M49.4 81.7c.8-.2 1.5-.5 2.2-.9M49.4 84.3c1.2-.3 2.3-.7 3.3-1.3M52.7 82.9c.1 0 .1-.1.1-.2M52.7 80.7v-24M52.8 54.8v1.9M55 98.4c-.6-.1-1.2-.1-1.7 0M55 101.7h-1.8M55.1 98.4l-.1 3.3M53.1 98.4l.1 3.3M55 98.4h.1M53.2 98.4h-.1M87 68.7c0 1.8 1.5 3.3 3.3 3.3 1.8 0 3.3-1.5 3.3-3.3M93.6 68.7c0-1.8-1.5-3.3-3.3-3.3-1.8 0-3.3 1.5-3.3 3.3M124.7 35.9c0 5.2 4.1 9.4 9.2 9.4M124.7 36h.2M134.1 45v-1M133.9 45.2V45M134.1 38.3v-1.7M88.2 99c-.1.9-.2 1.8-.2 2.7M90 101.7c-.1-.9-.1-1.8-.2-2.7M89.8 99c-.1-.4-.4-.8-.9-.7-.4 0-.7.3-.7.7M90 101.7h-2.1M48.3 34.7v68.1M49.3 35.7v66.1"/><path class="st14" d="M134.1 64.1V35.7H49.3M134.2 101.8H49.3M48.3 102.8H136M123.8 98.9h.7c.1 0 .2.1.2.2v2.7h-.9v-2.9zM123.8 99.7h-17.9M123.8 99.1h-17.9M105 99.1c0-.1.1-.2.2-.2h.7v2.9h-.9v-2.7zM128.3 66l4.1 22.1M134.2 65.3c-2.5.1-5 .4-7.4 1l5.1 29.3M136.1 63.9h2.9M139 63.9h.5V65h-5.4M136.1 102h2.4M139.1 82.9h-8.3M138.5 102h.4M135.4 64.3h1M137.6 68.1c-.2-.2-.4-.3-.7-.3H136.6c-.3-.1-.6-.3-.6-.7-.1-.4.2-.9.7-.9h.3c.2 0 .5.2.5.2.1.1.2.2.4.3.1.2.3.3.4.5v.1c.1 1 .1 2 .1 3 0 .1-.1.2-.2.2s-.2-.1-.2-.2c0-.7-.1-1.3-.2-1.9 0-.1-.1-.2-.2-.3M136.1 65.7V65M134.1 64.1v2M135.5 65v-.9M134.2 68.4h1.6M135.8 97.4h-1.6M135.8 65.5v34.2c0 .3-.2.5-.4.7h-.7c-.3-.1-.4-.4-.4-.7V65.5h1.5zM134.2 66.1l-.7.1M133.5 67.8l.7.1M136.6 67.8l-.8.1M135.8 66.1l.8.1M135.8 98h2.8v1.6h-2.8z"/><path class="st14" d="M137.9 98V67.8h-2.1M135.8 66.2h2.8v1.6h-2.8zM135.5 101.5h.6v.5M134.2 100.8h1.3v1h-1.3zM134.1 67.9l-.6-.1M136.5 63.9V65M134.1 64.1h1.6M133.5 66.2l.6-.1M138.9 102h.6v-1.2h-4M135.2 64.1V34.7H48.3M78.8 60.1l-.3-12.4M218 97.9c0 .1.1.2.2.2M217.3 98.7c0 .1.1.1.1.1M218 93.4c0 .1.1.2.2.2M217.5 82.4c-.1 0-.1.1-.1.1M218.3 83.1c-.1 0-.2.1-.2.2M224.6 98.1c.1 0 .2-.1.2-.2M224.9 98.1c.1 0 .2-.1.2-.2M225.6 98.9c.1 0 .2-.1.2-.2M225.8 82.6c0-.1-.1-.2-.2-.2M225.1 83.3c0-.1-.1-.2-.2-.2M218 83.3v14.6M217.3 82.5v16.2M224.8 97.9v-4.5M225.1 83.3v14.6M225.8 82.6v16M225.6 82.4h-8.1M224.9 83.1h-6.6M218.3 93.7h6.3c.1 0 .2-.1.2-.2M224.9 98.1h-6.6M225.6 98.9h-8.1M223.4 102v1.3M223.9 102v1.3M220.1 101.5h7.1v.5h-7.1zM217.3 94.5v-7.4M213.9 34.8h-42.3M212.7 39.9h-8.5M212.7 34.8v5.1M204.2 34.8h8.5M213.9 40.6h-8M213.9 62.5h-8M172.7 39.9h8.5M172.7 34.8v5.1M181.2 34.8h-8.5M179.6 40.6h-8M179.6 62.5h-8M179.1 35.7v-1.4M174.9 35.7h4.2M174.9 34.3v1.4M179.1 34.3h-4.2M181.2 39.9v-5.1M180.4 36.4h-.2M180.2 36.4l-.1.1M180.1 36.5l-.1.1M180 36.6l-.2.1M179.8 36.7l-.1.1M179.7 36.8v.2M179.7 37l-.1.1M179.6 37.1v.2M206.4 35.7v-1.4M210.6 35.7h-4.2M210.6 34.3v1.4M206.4 34.3h4.2M204.2 39.9v-5.1M192.7 63.2l11.2-.5M181.5 62.7l11.2.5M181.4 57.1l-.7.8M180.7 57.9l-.5.8M180.2 58.7l-.3 1M179.9 59.7l-.2 1M179.7 60.7l-.1.6M181.4 57.1l1-1.1M182.4 56l.9-1.4M183.3 54.6l.6-1.5M183.9 53.1l.4-1.6M184.3 51.5l.1-.8M184.4 50.7l.2-6.1M184.6 44.6v-.4M184.6 44.2v-.4M184.6 43.8l-.1-.4M184.5 43.4l-.2-.4M184.3 43l-.2-.4M184.1 42.6h-.1M184 42.6l-.2-.2M183.8 42.4l-.2-.1M183.6 42.3l-.1-.1M205.9 40.6h-.1M201.9 42.2l-.2.1M201.7 42.3l-.2.2M201.5 42.5l-.1.1M201.4 42.6l-.2.3M201.2 42.9l-.2.4M201 43.3l-.1.4M200.9 43.7l-.1.4M200.8 44.1v.1M200.8 44.2l.2 6.1M201 50.3l.1.4M201.1 50.7l.2 1.7M201.3 52.4l.6 1.5M201.9 53.9l.7 1.4M202.6 55.3l1 1.3M203.6 56.6l.5.5M205.8 61.3l-.1-1M205.7 60.3l-.2-.9M205.5 59.4l-.4-1M205.1 58.4l-.6-.8M204.5 57.6l-.4-.5M205.9 37.3l-.1-.1M205.8 37.2V37M205.8 37l-.1-.1M205.7 36.9v-.2M205.7 36.7l-.1-.1M205.6 36.6l-.2-.1M205.4 36.5h-.1M205.3 36.5l-.1-.1M205.2 36.4h-.1M205.1 36.4l-12.4-.7M192.7 35.7l-12.3.7M180.4 36.4h-.2M180.2 36.4l-.1.1M180.1 36.5l-.1.1M180 36.6l-.2.1M179.8 36.7l-.1.1M179.7 36.8v.2M179.7 37l-.1.1M179.6 37.1v.2M181.5 62.7l-1.9-.2M205.9 62.5l-2 .2M203.7 40.3l.1.1M203.8 40.4v.1M203.8 40.5h.1M203.9 40.5h.1M203.7 37.6v-.2M203.7 37.4v-.1M203.7 37.3l-.1-.2M203.6 37.1l-.1-.1M203.5 37l-.1-.1M203.4 36.9l-.1-.1M203.3 36.8l-.1-.1M203.2 36.7h-.2M203 36.7l-10.3-.5M192.7 36.2l-10.2.5M182.5 36.7h-.2M182.3 36.7h-.1M182.2 36.7l-.1.1M182.1 36.8l-.1.1M182 36.9l-.1.2M181.9 37.1l-.1.1M181.8 37.2l-.1.1M181.7 37.3v.2M181.7 37.5v.1M181.5 40.5h.1M181.6 40.5l.1-.1M181.7 40.4v-.1M180.7 40.4l-1.1-.1M180.7 40.4l12 .7M192.7 41.1l12.1-.7M205.9 40.3l-1.1.1M179.6 40.6l3.9 1.6M201.9 42.2l3.9-1.6M205.9 37.3v25.2M179.6 62.5V37.3M203.7 37.6v2.7M181.7 40.3v-2.7M213.9 62.5V34.3M171.6 34.3v28.2"/><path class="st14" d="M227.6 70.1v32.8h-10.4M217.3 70.1v32.8M259.3 43c0-.1 0-.1 0 0M259.3 42.8c0-.1-.1-.2-.1-.3M259.3 42.8c0 .1 0 .1 0 0M259.1 42.3c0-.1-.1-.1-.2-.1M259.2 42.5c0-.1 0-.1-.1-.2M259.2 43.7c0-.1.1-.2.1-.3M259 44c.1 0 .1-.1.2-.1M259.1 43.9c0-.1 0-.1.1-.2M241.1 46.1v.2M255.9 46.3v-.2M257.4 61.1c.3-2.3.4-4.5.4-6.8M255.9 66.6c.8-1.7 1.3-3.6 1.5-5.5M257.6 54.5h-18.3M258 46.7c0-.2-.2-.4-.4-.5M257.5 46.2h-.2M258 46.7v.6M258 50.2v-2.9M258 50.2v.8M257.9 51v.3M257.9 51.3v.4M257.8 54.3c.1-.9.2-1.7.1-2.6M248.6 46.8c2.7 0 5.5-.2 8.2-.5M257.6 49.8v-.7M257.6 49.1c0-.1 0-.1 0 0 0-.1 0-.1 0 0M257.5 49.9c.1 0 .2-.1.2-.1M257.5 49c-3-.2-6-.3-9.1-.3M257.5 49.9c-3-.2-6-.2-9-.2M252.5 71c1.6-1.1 2.8-2.6 3.5-4.4M248.5 72.2c1.4 0 2.8-.4 4-1.2"/><path class="st14" d="M257.7 54.5c.1 0 .2-.1.1-.2M257.8 54.3c0-1.1 0-2.3-.1-3.4M257.6 54.5s.1 0 0 0M257.8 50.9c0-.2 0-.3-.1-.5M257.7 50.4s-.1-.1 0 0M257.2 50.4c.1 0 .3 0 .4-.1M255.1 50.3s0 .1 0 0c0 .1 0 .1 0 0M255.1 52v-1.6M255 52.1s.1-.1.1-.2M254.9 52.2c.1 0 .1 0 0 0M242 52.1c0 .1 0 .1 0 0M241.9 52c0 .1 0 .1.1.2M241.9 50.4V52M241.9 50.4s0-.1 0 0c0-.1 0-.1 0 0M239.4 50.3c.1.1.2.1.4.1M239.4 50.3c-.1 0-.1.1 0 0M239.3 50.4c-.1.2-.1.3-.1.5M239.2 50.9c-.1 1.1-.1 2.3-.1 3.4M239.1 54.3c0 .1.1.2.1.2M244.5 71c1.2.8 2.6 1.2 4 1.2M241 66.6c.7 1.8 1.9 3.3 3.5 4.4M248.5 49.7c-3 0-6 .1-9 .2M248.5 48.7c-3 0-6 .1-9.1.3"/><path class="st14" d="M239.4 49.8c0 .1.1.1.2.1M239.4 49c0 .1 0 .1 0 0M239.4 49.1v.7M240.2 46.2c2.7.4 5.5.5 8.2.5M239 51.7c0 .9 0 1.7.1 2.6M239 49.4v2.3M239.1 48.3v-1.7M239.7 46.2h-.2M239.4 46.2c-.2 0-.4.2-.4.4M239.6 61.1c.2 1.9.7 3.8 1.5 5.5M239.1 54.3c0 2.3.2 4.5.4 6.8M239 49.4v-1.1M255.6 46.2c.3 0 .5-.1.8-.1M254.8 46.2c.3 0 .5 0 .8-.1M248.5 46.5c2.1 0 4.2-.1 6.4-.3M242.1 46.2c2.1.2 4.2.3 6.4.3M240.6 46c.3.1.5.1.8.1M241.4 46.2c.3 0 .5.1.8.1M239.1 44.2c0 .9.6 1.6 1.5 1.8M240.5 36.2c-.8 0-1.4.6-1.4 1.4M248.5 36.2c-2.7 0-5.3 0-8 .1M257.9 37.6c0-.8-.6-1.4-1.4-1.4M256.5 36.2c-2.7 0-5.3-.1-8-.1M256.4 46c.9-.2 1.5-1 1.5-1.8M257.9 42.2h1.1M257.9 44h1.1M259.3 43v.1M259.3 43.2v-.1M240 45.8v.4M239.3 45.1v1.2M257.2 46.2v.1M257.3 46.2h-.1M257.2 46.2h-.4M248.4 46.7v.1M248.5 46.7h-.1M248.6 46.7h-.1M248.6 46.8v-.1M257.2 50.4h-1.1M256.1 50.4l-1-.1M254.9 52.2h-6.4M242 52.2h6.5M240.8 50.4l1.1-.1M239.8 50.4h1M248.2 49.7h.1M248.3 49.7h.4M248.6 46.7v.1M248.5 46.7h.1M248.4 46.7h.1M248.4 46.8v-.1M239.6 46.2h.6M239.1 37.6v6.6M257.9 37.6v6.6M139.9 100.7h1.1v2.3h-1.1z"/><path class="st13" d="M184.3 34.3h16.9v7.1h-16.9z"/><path class="st14" d="M132.3 68.1c.2-.2.4-.3.7-.3H133.3c.3-.1.6-.3.6-.7.1-.4-.2-.9-.7-.9h-.3c-.2 0-.5.2-.5.2-.1.1-.2.2-.4.3-.1.2-.3.3-.4.5v.1c-.1 1-.1 2-.1 3 0 .1.1.2.2.2s.2-.1.2-.2c0-.7.1-1.3.2-1.9.1-.1.2-.2.2-.3"/><path class="st12" d="M211.3 45.8h.8v7.9h-.8z"/><path transform="rotate(90 212.947 49.771)" class="st12" d="M212.4 48.9h1.2v1.7h-1.2z"/><path class="st15" d="M191.1 45.9h0M191.1 45.9l.1.2M191.2 46.1v.3M191.2 46.4l.1.2M191.3 46.6l.2.3M191.6 47l.2.2M191.8 47.2l.3.1M192.1 47.3l.2.1M192.3 47.4h.2M192.5 47.4h.3M192.8 47.4l.2-.1M193 47.3l.2-.1M193.2 47.2l.2-.2M193.4 47l.2-.1M193.6 46.9l.1-.3M193.7 46.6l.2-.2M193.9 46.4v-.3M193.9 46.1v-.2M193.9 45.9v-.3M193.9 45.6v-.3M193.8 45.3l-.1-.2M193.7 45.1l-.1-.2M193.6 44.9l-.2-.2M193.4 44.7l-.2-.2M193.2 44.5l-.2-.1M193 44.4l-.2-.1M192.8 44.3h-.3M192.5 44.3h-.2M192.3 44.3l-.2.1M192.1 44.4l-.3.1M191.8 44.5l-.2.2M191.6 44.7l-.1.2M191.5 44.9l-.2.2M191.3 45.1l-.1.2M191.2 45.3v.3M191.2 45.6l-.1.3M191.1 45.9h0M191.5 46.9l.1.1"/><path class="st14" d="M334.8 370.5h-2.7M334.5 366.3v-3.5h-.4M332.4 366.3v-3.5h.5M334.5 365.7h-2.1M332.9 342.8h1.2v20.9h-1.2zM334.8 368.3h-2.7"/><path class="st14" d="M334.8 370.5v-4.2h-2.7v4.2M452.5 370.5h-2.8M452.1 366.3v-3.5h-.4M450.1 366.3v-3.5h.4M452.1 365.7h-2M450.5 342.8h1.2v20.9h-1.2zM452.5 368.3h-2.8"/><path class="st14" d="M449.7 370.5v-4.2h2.8v4.2"/><circle class="st12" cx="438.2" cy="303.1" r="1.2"/><path class="st12" d="M447.9 317.1v-16c0-.1-.1-.2-.2-.2h-18.8c-.1 0-.2.1-.2.2v16c0 .6.5 1.2 1.2 1.2h16.9c.6 0 1.1-.6 1.1-1.2z"/><path class="st12" d="M428.8 300.2c-.5 0-.9.4-.9.9v16c0 1 .8 1.9 1.9 1.9h16.9c1 0 1.9-.8 1.9-1.9v-16c0-.5-.4-.9-.9-.9h-18.9z"/><path class="st14" d="M451.6 287.3h49.2v1.2h-49.2zM498.3 289h48.9v1.2h-48.9zM451.6 293.9h49.2v1.2h-49.2zM498.3 295.5h48.9v1.2h-48.9zM498.1 291.7h2.8v2.2h-2.8zM499.5 301.8v-17.5M329.3 287.5h30.3v1.2h-30.3zM357 289.2h30.1v1.2H357zM329.3 293.9h30.3v1.2h-30.3zM357 295.5h30.1v1.2H357zM356.9 291.7h2.8v2.2h-2.8zM358.3 301.8v-17.5M189.9 287.3h37.5v1.2h-37.5zM224.8 289h37v1.2h-37zM189.9 293.9h37.5v1.2h-37.5zM224.8 295.5h37v1.2h-37zM224.6 291.7h2.8v2.2h-2.8zM226 301.8v-17.5M71.1 287.3h37.5v1.2H71.1zM105.9 289H143v1.2h-37.1zM71.1 293.9h37.5v1.2H71.1zM105.9 295.5H143v1.2h-37.1zM105.8 291.7h2.8v2.2h-2.8zM107.2 301.8v-17.5M548 299.9v.8h.1v-.8M451.1 299.9v.8h-.1v-.8M451.1 300.6H548"/><path class="st17" d="M450.9 299.2h-.7v-3.3h.7v-8.6h.8v11.9zM388.1 299.4h.6V296h-.6v-8.8h-.8v12.2zM262.8 299.3h.6v-3.4h-.6v-8.7h-.9v12.1zM189.1 299.1h-.7v-3.3h.7v-8.5h.8v11.8zM144 299.3h.7v-3.4h-.7v-8.7h-.8v12.1zM70.3 299.3h-.6v-3.4h.6v-8.7h.9v12.1zM328.5 299.4h-.7v-3.3h.7v-8.7h.8v12z"/><path class="st14" d="M547.9 286.8h-1.2M546.7 287.1v-.3M547.9 287.1v-.3M546.7 286.7s0 .1 0 0M548 286.8c0-.1 0-.1 0 0M548 287.2v-.4M546.7 286.8v.4M452.4 286.8h94.3M548 286.7h-96.9M451.1 286.8h1.2M452.3 287.1v-.3M451.1 287.1v-.3M452.4 286.8s0-.1 0 0M451.1 287.2v-.4M452.4 286.8v.4M330 287v.4M328.7 287.4v-.4M328.7 287.4v-.4M329.9 287.4v-.4M328.7 287h1.2M330 287h-1.3M386.6 287v.4M387.9 287.4v-.4M386.7 287c-.1 0-.1 0 0 0M387.9 287.4v-.4M386.7 287.4v-.4M387.9 287h-1.2M330 287.1h56.6M330 287h57.9M328.7 299.9v1h-.1v-1M387.9 299.9v1h.1v-1M328.7 300.8H388M189.2 299.9v.8h-.1v-.8M262.6 299.9v.8h.1v-.8M189.2 300.6h73.4M189.3 286.8h1.1M190.4 287.1v-.3M189.3 287.1v-.3M190.5 286.8s0-.1 0 0M189.2 287.2v-.4M190.5 286.8v.4M262.5 286.8h-1.1M261.4 287.1v-.3M262.5 287.1v-.3M261.3 286.7s0 .1 0 0M262.6 286.8c0-.1 0-.1 0 0M262.6 287.2v-.4M261.3 286.8v.4M190.5 286.8h70.8M262.6 286.7h-73.4M70.6 286.8h1.1M71.7 287.1v-.3M70.6 287.1v-.3M71.8 286.8s0-.1 0 0M70.5 287.2v-.4M71.8 286.8v.4M143.8 286.8h-1.1M142.7 287.1v-.3M143.8 287.1v-.3M142.6 286.7s0 .1 0 0M143.9 286.8c0-.1 0-.1 0 0M143.9 287.2v-.4M142.6 286.8v.4M71.8 286.8h70.8M143.9 286.7H70.5M70.5 299.9v.8h-.1v-.8M143.9 299.9v.8h.1v-.8M70.5 300.6h73.4"/><path class="st18" d="M46.4 324.6h234.3M325.4 324.6h244.7M313 21.1h60.2M410.1 53.6h147.1M410.1 67.9V53.6M410.1 107.1h43.4M410.6 184.7v93.1M374.8 53.8v87.6M427.2 107.1v170.7M338.1 53.8v87.6h36.7M374.8 53.8h-36.7M479.1 127.2h45.2M477.4 127.2c-11.8 0-21.6-8.7-23.3-20.1M401.5 151.8v124.9"/><path class="st19" d="M49.7 120.3h.5"/><path class="st20" d="M51.3 120.3h71.4"/><path class="st19" d="M123.3 120.3h.5M49.7 121.7h.5"/><path class="st20" d="M51.3 121.7h71.4"/><path class="st19" d="M123.3 121.7h.5M445.5 287.1v-.5"/><path style="fill:none;stroke:#000;stroke-width:.249;stroke-dasharray:1.0829,1.0829" d="M445.5 285.5v-3.8"/><path class="st19" d="M445.5 281.2v-.6M293.4 181.4v.6"/><path class="st22" d="M293.4 183v48.6"/><path class="st19" d="M293.4 232.1v.5M294.8 181.4v.6"/><path class="st22" d="M294.8 183v48.6"/><path class="st19" d="M294.8 232.1v.5M305.6 64.3v.6"/><path class="st23" d="M305.6 65.9v36"/><path class="st19" d="M305.6 102.5v.5M307.1 64.3v.6"/><path class="st23" d="M307.1 65.9v36"/><path class="st19" d="M307.1 102.5v.5M328.5 287v-.5"/><path style="fill:none;stroke:#000;stroke-width:.249;stroke-dasharray:1.0133,1.0133" d="M328.5 285.4v-3.5"/><path class="st19" d="M328.5 281.4v-.6h.5"/><path style="fill:none;stroke:#000;stroke-width:.249;stroke-dasharray:1.0809,1.0809" d="M330.1 280.8h70.8"/><path class="st19" d="M401.4 280.8h.6M296.3 236v.5"/><path class="st26" d="M296.3 237.6v44.1"/><path class="st19" d="M296.3 282.2v.5M297.7 236v.5"/><path class="st26" d="M297.7 237.6v44.1"/><path class="st19" d="M297.7 282.2v.5M553.6 287.3v-.5"/><path style="fill:none;stroke:#000;stroke-width:.249;stroke-dasharray:1.1281,1.1281" d="M553.6 285.7v-4"/><path class="st19" d="M553.6 281.2v-.6h-.5"/><path style="fill:none;stroke:#000;stroke-width:.249;stroke-dasharray:1.0814,1.0814" d="M552 280.6H446.5"/><path class="st19" d="M446 280.6h-.5M139.9 65.2h.6"/><path class="st29" d="M141.5 65.2H169"/><path class="st19" d="M169.5 65.2h.5M170 35.1l-.3.4"/><path class="st30" d="m168.9 36.2-28.2 28.2"/><path class="st19" d="m140.3 64.8-.4.4M170 65.2l-.3-.4"/><path class="st30" d="m168.9 64.1-28.2-28.3"/><path class="st19" d="m140.3 35.5-.4-.4M418.8 66.8v-.5"/><path class="st31" d="M418.8 65.2V35"/><path class="st19" d="M418.8 34.4v-.5M385.8 66.8l.4-.3"/><path class="st32" d="m387 65.7 31-31"/><path class="st19" d="m418.4 34.3.4-.4M385.8 33.9l.4.4"/><path class="st32" d="m387 35 31 31.1"/><path class="st19" d="m418.4 66.5.4.3M139.9 35.1v.5"/><path class="st29" d="M139.9 36.7v27.4"/><path class="st19" d="M139.9 64.7v.5M170 65.2v-.5"/><path class="st29" d="M170 63.6V36.2"/><path class="st19" d="M170 35.6v-.5M170 35.1h-.5"/><path class="st29" d="M168.4 35.1H141"/><path class="st19" d="M140.5 35.1h-.6M418.8 33.9h-.6"/><path class="st31" d="M417.1 33.9h-30.2"/><path class="st19" d="M386.4 33.9h-.6M385.8 33.9v.5"/><path class="st31" d="M385.8 35.5v30.2"/><path class="st19" d="M385.8 66.3v.5M385.8 66.8h.6"/><path class="st31" d="M387.5 66.8h30.2"/><path class="st19" d="M418.2 66.8h.6M405.9 185.6v-.5"/><path style="fill:none;stroke:#000;stroke-width:.249;stroke-dasharray:1.0901,1.0901" d="M405.9 184v-30"/><path class="st19" d="M405.9 153.5v-.6M404.3 215.3v-.6"/><path style="fill:none;stroke:#000;stroke-width:.249;stroke-dasharray:1.0743,1.0743" d="M404.3 213.6V154"/><path class="st19" d="M404.3 153.5v-.6M402.8 245.5v-.5"/><path style="fill:none;stroke:#000;stroke-width:.249;stroke-dasharray:1.0765,1.0765" d="M402.8 243.9V154"/><path class="st19" d="M402.8 153.5v-.6M426.6 309.5l-.5-.2"/><path style="fill:none;stroke:#000;stroke-width:.249;stroke-dasharray:1.0548,1.0548" d="m425.1 308.9-21.1-8.5"/><path class="st19" d="m403.5 300.3-.5-.2M426 309.5h.6v-.6"/><path class="st37" d="M426.6 307.7v-6.5"/><path class="st19" d="M426.6 300.6v-.5h-.6"/><path class="st38" d="M424.9 300.1h-20.8"/><path class="st19" d="M403.6 300.1h-.6v.5"/><path class="st37" d="M403 301.8v6.5"/><path class="st19" d="M403 308.9v.6h.6"/><path class="st38" d="M404.6 309.5h20.9"/><path class="st39" d="m271.3 65.9 1.5-1.5M370.2 53.8h-39.1M381.9 91.5H271.3M341.2 45.1l.1 55.9M360.1 45.1V101M378.9 54.7V101M381.9 72.6H271.3M284.8 64.4v38.9M303.6 64.4v38.9M322.4 53.8v49.5"/><path d="m343.2 206-2.2 4.4-1-.6 2.4-4.4c.3.3.6.5.8.6zm-.4-3.6-.5.9c-.6-.4-1.3-.7-2.1-1.1l.5-.9c.8.3 1.5.7 2.1 1.1zm.8-3.2-.6.8c-.6-.6-1.3-1.1-2-1.5l.6-.8c.7.4 1.4.9 2 1.5zm7.8-1.3-1.2 2h2.9v.9H349v2h3.3v.9H349v2.3h4.2v.9H349v3.7h-1v-3.7h-4.3v-.9h4.3v-2.3h-3.4v-.9h3.4v-2h-4v-.8h5.1l1.3-2.6 1 .5zm-4.1 1.4-.8.6c-.4-.6-.8-1.2-1.3-1.8l.8-.6c.6.7 1 1.3 1.3 1.8zM361.2 206.6v-1.3h1.1v1.3h4.6v.9h-4.6v1.6h5.9v.9h-13v-.9h6.1v-1.6h-4.4v-.9h4.3zm1-9.3v1.5h5.3v2.9h-1v.5H361l-1.2 2.1c1.5-.1 3.1-.2 4.6-.3-.3-.3-.7-.5-1-.8l.7-.7c1.3 1 2.3 1.8 2.9 2.4l-.8.8-.9-.9c-3.4.3-6.4.5-8.9.6l-.2-1c.7 0 1.5 0 2.3-.1l1.2-2.2h-3.1v-.5h-.9v-2.9h5.3v-1.5h1.2zm4.3 3.8v-1.4h-9.6v1.4h9.6zM375.6 208.4c-.7.6-1.4.8-2.3.8-1.9 0-3-.9-3.4-2.9h1.2c.3 1.3 1 2 2.3 2 .6 0 1.1-.2 1.5-.7.3-.4.5-1 .5-1.6 0-.7-.2-1.2-.6-1.6-.4-.4-.9-.6-1.6-.6h-1.5v-.8h1.5c.6 0 1.1-.2 1.4-.6.3-.4.5-.9.5-1.5 0-1.2-.7-1.8-2-1.8-.9 0-1.5.5-1.7 1.6h-1.1c.3-1.6 1.3-2.4 3-2.4.9 0 1.6.2 2.2.6.6.4.9 1.1.9 2 0 1.2-.6 2-1.6 2.4 1.3.6 1.9 1.5 1.9 2.8-.2 1-.5 1.7-1.1 2.3zM210.2 209.2l-2.2 4.4-1-.6 2.4-4.4c.3.3.6.5.8.6zm-.4-3.6-.5.9c-.6-.4-1.3-.7-2.1-1.1l.5-.9c.8.4 1.5.7 2.1 1.1zm.8-3.2-.6.8c-.6-.6-1.3-1.1-2-1.5l.6-.8c.7.5 1.4.9 2 1.5zm7.8-1.3-1.2 2h2.9v.9H216v2h3.3v.9H216v2.3h4.2v.9H216v3.7h-1v-3.7h-4.3v-.9h4.3v-2.3h-3.4v-.9h3.4v-2h-4v-.9h5.1l1.3-2.6 1 .6zm-4.1 1.4-.8.6c-.4-.6-.8-1.2-1.3-1.8l.8-.6c.6.7 1 1.3 1.3 1.8zM228.2 209.8v-1.3h1.1v1.3h4.6v.9h-4.6v1.6h5.9v.9h-13v-.9h6.1v-1.6h-4.4v-.9h4.3zm1-9.3v1.5h5.3v2.9h-1v.5H228l-1.2 2.1c1.5-.1 3.1-.2 4.6-.3-.3-.3-.7-.5-1-.8l.7-.7c1.3 1 2.3 1.8 2.9 2.4l-.8.8-.9-.9c-3.4.3-6.4.5-8.9.6l-.2-1c.7 0 1.5 0 2.3-.1l1.2-2.2h-3.1v-.5h-.9V202h5.3v-1.5h1.2zm4.3 3.9V203h-9.6v1.4h9.6zM237 212.3c0-1 .3-1.9 1-2.8.4-.5 1.2-1.2 2.2-2.1 1.4-1.1 2-2.1 2-3 0-.6-.2-1-.6-1.4-.4-.3-.9-.5-1.5-.5-1.4 0-2.2.8-2.2 2.3h-1.2c.1-1 .4-1.8 1-2.4.6-.6 1.4-.8 2.4-.8s1.7.2 2.3.7c.6.5.9 1.2.9 2.1 0 .7-.2 1.3-.6 1.9-.3.4-.7.9-1.3 1.4-.5.4-1.1.8-1.6 1.2-1 .8-1.6 1.6-1.7 2.3h5.2v1H237zM280.1 340.5c-.7 1.5-1.5 2.8-2.4 3.9l-.8-.8c1.7-1.9 2.9-4.6 3.9-7.9l1.1.4c-.7 1.9-1.3 3.3-1.8 4.4zm7.8 3.6c-.9-2.8-2.2-5.4-3.9-8.1l.9-.6c1.7 2.7 3.1 5.4 4.2 8.2l-1.2.5zm-.4-7c-.3-.5-.8-1-1.4-1.5l.6-.5c.6.5 1.1 1 1.5 1.5l-.7.5zm1.1-.9c-.3-.5-.8-1-1.4-1.5l.5-.5c.6.5 1.1 1 1.5 1.5l-.6.5zM292.9 340.9c-.5 1.7-1.5 3.3-3 4.6-.2-.3-.5-.6-.7-.9 1.1-.8 1.9-1.8 2.4-2.9.4-.9.6-2.2.7-3.7v-2.6h1c.1 2.5 0 4.4-.4 5.5zm3.6 4.2-.8-.8.1-.2v-9.8h1v9.1c1.5-1.1 2.9-2.5 4.4-4.4.2.3.5.5.8.7-1.8 2.4-3.6 4.2-5.5 5.4zM310.4 345.2v-.7h-7.7v-1h7.7v-5.9h-7.7v-1.1h8.9v8.7h-1.2zM312.8 343.9v-1.1h11.9v1.1h-11.9zm1.7-6.8V336h8.5v1.1h-8.5zM325.2 340.3v-1h10.9v1h-10.9zM460.3 214.4v-9.9h1.1v8.9h6.1v1h-7.2zM477.6 213.1c-1 .8-2.4 1.2-4 1.2h-2.8v-9.9h3.3c1.5 0 2.7.5 3.7 1.3 1 .9 1.5 2.1 1.5 3.5-.1 1.8-.7 3.1-1.7 3.9zm-.8-6.6c-.8-.6-1.8-1-3.1-1h-2v7.9h2.2c1.2 0 2.2-.4 2.9-1.1.7-.7 1.1-1.7 1.1-2.9.1-1.3-.3-2.2-1.1-2.9zM489.2 214.4l-3.8-5.5-2.1 1.8v3.7h-1.1v-9.9h1.1v4.9l5.6-4.9h1.5l-4.2 3.7 4.5 6.1h-1.5zM95.5 201l-2.2 4.4-1-.6 2.4-4.4c.3.4.5.5.8.6zm-.4-3.5-.5.9c-.6-.4-1.3-.7-2.1-1.1l.5-.9c.7.3 1.4.7 2.1 1.1zm.7-3.3-.6.8c-.6-.6-1.3-1.1-2-1.5l.6-.8c.8.5 1.4 1 2 1.5zm7.9-1.2-1.2 2h2.9v.9h-4.1v2h3.3v.9h-3.3v2.3h4.2v.9h-4.2v3.7h-1V202H96v-.9h4.3v-2.3h-3.4v-.9h3.4v-2h-4v-.9h5.1l1.3-2.6 1 .6zm-4.1 1.3-.8.6c-.4-.6-.8-1.2-1.3-1.8l.8-.6c.6.8 1 1.4 1.3 1.8zM113.5 201.7v-1.3h1.1v1.3h4.6v.9h-4.6v1.6h5.9v.9h-13v-.9h6.1v-1.6H109v-.9h4.5zm1-9.4v1.5h5.3v2.9h-1v.5h-5.5l-1.2 2.1c1.5-.1 3.1-.2 4.6-.3-.3-.3-.7-.5-1-.8l.7-.7c1.3 1 2.3 1.8 2.9 2.4l-.8.8-.9-.9c-3.4.3-6.4.5-8.9.6l-.2-1c.7 0 1.5 0 2.3-.1l1.2-2.2h-3v-.5h-.9v-2.9h5.3v-1.5h1.1zm4.3 3.9v-1.4h-9.6v1.4h9.6zM124.1 204.1v-9.3c-.7.4-1.4.6-2 .6v-1c1 0 1.6-.3 2-.9h1.1V204h-1.1zM422.7 284.8c-.3.2-.6.4-1 .4h-1.4v2h-.5v-4.7h1.6c.5 0 .9.1 1.2.3.4.2.5.6.5 1 0 .5-.1.8-.4 1zm-1.2-1.8h-1.3v1.7h1.2c.7 0 1.1-.3 1.1-.9.1-.5-.3-.8-1-.8zM426.8 287c-.3.2-.7.3-1.1.3-.5 0-.9-.1-1.2-.4-.3-.2-.5-.6-.7-1h.7c.1.3.2.6.4.7.2.1.4.2.8.2.3 0 .5-.1.7-.2.2-.2.4-.4.4-.6 0-.3-.4-.6-1.1-.9-1-.4-1.6-.9-1.6-1.4 0-.4.2-.7.5-.9.3-.2.6-.3 1.1-.3.7 0 1.2.4 1.5 1.2h-.6c-.2-.5-.5-.7-.9-.7-.3 0-.5.1-.7.2-.2.1-.3.3-.3.6 0 .2.2.5.7.7.4.2.9.5 1.3.7.5.3.7.6.7 1-.1.2-.3.5-.6.8zM91.2 227.4c-.8-.7-1.4-1.4-1.7-2.1-.5-.8-.7-1.8-.7-2.8s.2-1.9.7-2.8c.4-.6.9-1.3 1.7-2.1l.5.5c-.7.7-1.3 1.3-1.6 1.9-.4.7-.6 1.5-.6 2.4 0 .9.2 1.7.6 2.4.3.6.9 1.2 1.6 1.9l-.5.7zM95.1 218.1l-1.1 2c.2.2.4.3.6.5l1-1.7.6.4-1.9 3c.5 0 1 0 1.6-.1-.1-.3-.3-.6-.4-.8l.5-.4c.4.7.7 1.3.8 1.7l-.5.4c0-.1-.1-.2-.1-.3-.4.1-.8.1-1.2.1v4.3h-.7V223c-.6.1-1.1.1-1.6.1l-.2-.7h1.1l.6-1c-.5-.5-1.1-.9-1.7-1.2l.4-.6c.2.1.3.2.5.3l1-2.1.7.3zm-1.3 5.8c-.2 1-.4 1.9-.6 2.7-.2-.1-.4-.2-.7-.3.3-.8.5-1.7.6-2.6l.7.2zm2.9 1.8-.7.2c-.1-.6-.3-1.3-.4-1.9l.6-.2c.2.6.3 1.2.5 1.9zm2-7.8c-.2.8-.3 1.4-.5 1.9h3.4v4.2c0 1.1-.1 1.9-.2 2.2-.1.6-.9.9-2.2 1 0-.3-.1-.6-.3-.8h1.2c.4 0 .6-.2.6-.6.1-.3.2-1 .2-2v-3.2H98c-.2.6-.4 1.2-.7 1.6-.2-.2-.4-.3-.6-.4.3-.7.6-1.3.8-2.1.2-.6.4-1.3.5-1.9l.7.1zm1.1 5.9-.6.5c-.4-.6-.8-1.2-1.4-1.9l.5-.4 1.5 1.8zM107.1 225.6c-.4.5-.9.7-1.6.7-.8 0-1.4-.4-1.8-1.1-.3-.6-.5-1.3-.5-2.2 0-2.5.8-3.8 2.4-3.8.5 0 .9.1 1.2.4.3.2.5.6.7 1.1h-.9c-.2-.6-.6-.9-1-.9-1 0-1.5.9-1.6 2.7.7-.5 1.3-.7 1.7-.7.6 0 1 .2 1.4.6.3.4.5.9.5 1.5.1.8-.1 1.3-.5 1.7zm-.6-2.6c-.2-.3-.6-.5-.9-.5-.5 0-1.1.3-1.6.8 0 1.6.5 2.4 1.5 2.4.5 0 .8-.2 1.1-.6.2-.3.3-.7.3-1.2 0-.3-.1-.6-.4-.9zM109.7 226.3h-.8l-.2-.2v-.7l.2-.2h.8l.2.2v.7l-.2.2zM113.5 226.2v-6c-.5.3-1 .5-1.4.6v-.8c.6-.1 1-.3 1.4-.6h.8v6.7h-.8zM118.2 219.6v-1.8h.7v1.8h1.5v4.9c0 .2 0 .4-.1.5-.1.1-.4.2-.9.2 0-.3-.1-.6-.2-.8h.3c.1 0 .2 0 .2-.1v-4h-.8v7.1h-.7v-7.1h-.8v4.9h-.7v-5.6h1.5zm5.4-1.8v2h2.3v.7h-2.3v2.1h1.9v4.6h-.7v-.5h-2.9v.6h-.7v-4.7h1.8v-4.8h.6zm1.1 8.2v-2.7h-2.9v2.7h2.9zM129.1 225.3c-.4.7-.9 1.3-1.7 2.1l-.5-.5c.7-.7 1.3-1.3 1.6-1.9.4-.7.6-1.5.6-2.4 0-.9-.2-1.7-.6-2.4-.3-.6-.9-1.2-1.6-1.9l.5-.5c.8.7 1.3 1.4 1.7 2.1.5.8.7 1.8.7 2.8s-.2 1.7-.7 2.6zM207.1 234.9c-.8-.7-1.4-1.4-1.7-2.1-.5-.8-.7-1.8-.7-2.8s.2-1.9.7-2.8c.4-.6.9-1.3 1.7-2.1l.5.5c-.7.7-1.3 1.3-1.6 1.9-.4.7-.6 1.5-.6 2.4 0 .9.2 1.7.6 2.4.3.6.9 1.2 1.6 1.9l-.5.7zM210.9 225.7l-1.1 2c.2.2.4.3.6.5l1-1.7.6.4-1.9 3c.5 0 1 0 1.6-.1-.1-.3-.3-.6-.4-.8l.5-.4c.4.7.7 1.3.8 1.7l-.5.4c0-.1-.1-.2-.1-.3-.4.1-.8.1-1.2.1v4.3h-.7v-4.3c-.6.1-1.1.1-1.6.1l-.2-.7h1.1l.6-1c-.5-.5-1.1-.9-1.7-1.2l.4-.6c.2.1.3.2.5.3l1-2.1.7.4zm-1.2 5.7c-.2 1-.4 1.9-.6 2.7-.2-.1-.4-.2-.7-.3.3-.8.5-1.7.6-2.6l.7.2zm2.9 1.9-.7.2c-.1-.6-.3-1.3-.4-1.9l.6-.2c.1.5.3 1.2.5 1.9zm2-7.8c-.2.8-.3 1.4-.5 1.9h3.4v4.2c0 1.1-.1 1.9-.2 2.2-.1.6-.9.9-2.2 1 0-.3-.1-.6-.3-.8h1.2c.4 0 .6-.2.6-.6.1-.3.2-1 .2-2V228h-2.9c-.2.6-.4 1.2-.7 1.6-.2-.2-.4-.3-.6-.4.3-.7.6-1.3.8-2.1.2-.6.4-1.3.5-1.9l.7.3zm1 5.8-.6.5c-.4-.6-.8-1.2-1.4-1.9l.5-.4c.6.7 1.1 1.2 1.5 1.8zM222.8 232.2v1.6h-.6v-1.6h-3.3v-.6l3.3-4.5h.6v4.6h.9v.6h-.9zm-.6-4.1-2.5 3.5h2.5v-3.5zM225.6 233.9h-.8l-.2-.2v-.7l.2-.2h.8l.2.2v.7l-.2.2zM230.6 233.3c-.5.4-1 .6-1.6.6-1.2 0-2-.6-2.3-1.7h.8c.2.8.7 1.2 1.5 1.2.4 0 .7-.2 1-.5.3-.3.4-.7.4-1.1 0-.4-.1-.8-.4-1.1-.3-.4-.7-.5-1.1-.5-.5 0-1 .2-1.3.7l-.8-.3.4-3.5h3.5v.7H228l-.3 2.3c.4-.3 1-.5 1.5-.5s1.1.2 1.5.6c.4.4.6 1 .6 1.6 0 .6-.3 1.1-.7 1.5zM234.1 227.1v-1.8h.7v1.8h1.5v4.9c0 .2 0 .4-.1.5-.1.1-.4.2-.9.2 0-.3-.1-.6-.2-.8h.3c.1 0 .2 0 .2-.1v-4h-.8v7.1h-.7v-7.1h-.8v4.9h-.7v-5.6h1.5zm5.4-1.7v2h2.3v.7h-2.3v2.1h1.9v4.6h-.7v-.5h-2.9v.6h-.8v-4.7h1.8v-4.8h.7zm1.1 8.2v-2.7h-2.9v2.7h2.9zM245 232.8c-.4.7-.9 1.3-1.7 2.1l-.5-.5c.7-.7 1.3-1.3 1.6-1.9.4-.7.6-1.5.6-2.4 0-.9-.2-1.7-.6-2.4-.3-.6-.9-1.2-1.6-1.9l.5-.5c.8.7 1.3 1.4 1.7 2.1.5.8.7 1.8.7 2.8s-.3 1.8-.7 2.6zM340.1 233.2c-.8-.7-1.4-1.4-1.7-2.1-.5-.8-.7-1.8-.7-2.8s.2-1.9.7-2.8c.4-.6.9-1.3 1.7-2.1l.5.5c-.7.7-1.3 1.3-1.6 1.9-.4.7-.6 1.5-.6 2.4 0 .9.2 1.7.6 2.4.3.6.9 1.2 1.6 1.9l-.5.7zM344 224l-1.1 2c.2.2.4.3.6.5l1-1.7.6.4-1.9 3c.5 0 1 0 1.6-.1-.1-.3-.3-.6-.4-.8l.5-.4c.4.7.7 1.3.8 1.7l-.5.4c0-.1-.1-.2-.1-.3-.4.1-.8.1-1.2.1v4.3h-.7v-4.3c-.6.1-1.1.1-1.6.1l-.2-.7h1.1l.6-1c-.5-.5-1.1-.9-1.7-1.2l.4-.6c.2.1.3.2.5.3l1-2.1.7.4zm-1.2 5.7c-.2 1-.4 1.9-.6 2.7-.2-.1-.4-.2-.7-.3.3-.8.5-1.7.6-2.6l.7.2zm2.8 1.9-.7.2c-.1-.6-.3-1.3-.4-1.9l.6-.2c.2.6.4 1.2.5 1.9zm2-7.8c-.2.8-.3 1.4-.5 1.9h3.4v4.2c0 1.1-.1 1.9-.2 2.2-.1.6-.9.9-2.2 1 0-.3-.1-.6-.3-.8h1.2c.4 0 .6-.2.6-.6.1-.3.2-1 .2-2v-3.2h-2.9c-.2.6-.4 1.2-.7 1.6-.2-.2-.4-.3-.6-.4.3-.7.6-1.3.8-2.1.2-.6.4-1.3.5-1.9l.7.1zm1.1 5.9-.6.5c-.4-.6-.8-1.2-1.4-1.9l.5-.4c.6.6 1.1 1.2 1.5 1.8zM355.9 231.6c-.5.4-1 .6-1.5.6-1.2 0-2-.6-2.3-1.9h.9c.2.8.6 1.3 1.4 1.3.4 0 .7-.1 1-.4.3-.2.4-.6.4-.9 0-1-.5-1.5-1.6-1.5h-.8v-.6h.5c1.1 0 1.7-.4 1.7-1.3 0-.3-.1-.6-.3-.9-.2-.2-.5-.4-.9-.4-.7 0-1.1.4-1.2 1.2h-.8c.2-1.1.8-1.7 2-1.7.5 0 1 .2 1.4.5.4.3.6.8.6 1.3 0 .6-.3 1.2-1 1.5.8.5 1.2 1.1 1.2 1.9 0 .5-.2 1-.7 1.3zM358.6 232.2h-.8l-.2-.2v-.7l.2-.2h.8l.2.2v.7l-.2.2zM363.8 231c-.4.8-1 1.2-1.9 1.2-1 0-1.6-.5-2-1.5h.9c.3.6.6.9 1.1.9.9 0 1.4-.9 1.6-2.8-.6.5-1.1.8-1.6.8-.6 0-1-.2-1.4-.6-.4-.4-.5-.9-.5-1.5 0-.7.2-1.3.6-1.7.4-.5.9-.7 1.7-.7 1.4 0 2.1 1.1 2.1 3.4-.2 1.1-.3 1.9-.6 2.5zm-1.7-5.3c-.5 0-.9.2-1.1.6-.2.3-.3.8-.3 1.3 0 .9.4 1.4 1.3 1.4.6 0 1.1-.3 1.5-1-.2-1.5-.6-2.3-1.4-2.3zM367.1 225.4v-1.8h.7v1.8h1.5v4.9c0 .2 0 .4-.1.5-.1.1-.4.2-.9.2 0-.3-.1-.6-.2-.8h.3c.1 0 .2 0 .2-.1v-4h-.8v7.1h-.7v-7.1h-.8v4.9h-.7v-5.6h1.5zm5.4-1.7v2h2.3v.7h-2.3v2.1h1.9v4.6h-.7v-.5h-2.9v.6h-.8v-4.7h1.8v-4.8h.7zm1.2 8.2v-2.7h-2.9v2.7h2.9zM378 231.2c-.4.7-.9 1.3-1.7 2.1l-.5-.5c.7-.7 1.3-1.3 1.6-1.9.4-.7.6-1.5.6-2.4 0-.9-.2-1.7-.6-2.4-.3-.6-.9-1.2-1.6-1.9l.5-.5c.8.7 1.3 1.4 1.7 2.1.5.8.7 1.8.7 2.8s-.2 1.7-.7 2.6zM454.7 226c-.8-.7-1.4-1.4-1.7-2.1-.5-.8-.7-1.8-.7-2.8s.2-1.9.7-2.8c.4-.6.9-1.3 1.7-2.1l.5.5c-.7.7-1.3 1.3-1.6 1.9-.4.7-.6 1.5-.6 2.4 0 .9.2 1.7.6 2.4.3.6.9 1.2 1.6 1.9l-.5.7zM458.6 216.7l-1.1 2c.2.2.4.3.6.5l1-1.7.6.4-1.9 3c.5 0 1 0 1.6-.1-.1-.3-.3-.6-.4-.8l.5-.4c.4.7.7 1.3.8 1.7l-.5.4c0-.1-.1-.2-.1-.3-.4.1-.8.1-1.2.1v4.3h-.7v-4.3c-.6.1-1.1.1-1.6.1l-.2-.6h1.1l.6-1c-.5-.5-1.1-.9-1.7-1.2l.4-.6c.2.1.3.2.5.3l1-2.1.7.3zm-1.3 5.8c-.2 1-.4 1.9-.6 2.7-.2-.1-.4-.2-.7-.3.3-.8.5-1.7.6-2.6l.7.2zm2.9 1.8-.7.2c-.1-.6-.3-1.3-.4-1.9l.6-.2c.2.6.3 1.2.5 1.9zm2-7.8c-.2.8-.3 1.4-.5 1.9h3.4v4.2c0 1.1-.1 1.9-.2 2.2-.1.6-.9.9-2.2 1 0-.3-.1-.6-.3-.8h1.2c.4 0 .6-.2.6-.6.1-.3.2-1 .2-2v-3.2h-2.9c-.2.6-.4 1.2-.7 1.6-.2-.2-.4-.3-.6-.4.3-.7.6-1.3.8-2.1.2-.6.4-1.3.5-1.9l.7.1zm1 5.9-.6.5c-.4-.6-.8-1.2-1.4-1.9l.5-.4c.6.6 1.1 1.2 1.5 1.8zM469.3 224.8v-6c-.5.3-1 .5-1.4.6v-.8c.6-.1 1-.3 1.4-.6h.8v6.7h-.8zM472.3 224.8c.1-1.1.6-2.1 1.7-3 1.1-.9 1.7-1.6 1.7-2.1 0-.4-.1-.7-.3-.9-.2-.3-.5-.4-.9-.4-.5 0-.9.1-1.1.4-.2.2-.4.6-.4 1.1h-.8c.2-1.4.9-2.1 2.3-2.1.6 0 1.1.2 1.4.5.4.3.6.8.6 1.4 0 .7-.6 1.4-1.6 2.3-.9.7-1.4 1.4-1.6 2h3.4v.7h-4.4zM478.6 225h-.8l-.2-.2v-.7l.2-.2h.8l.2.2v.7l-.2.2zM483.8 223.7c-.4.8-1 1.2-1.9 1.2-1 0-1.6-.5-2-1.5h.9c.3.6.6.9 1.1.9.9 0 1.4-.9 1.6-2.8-.6.5-1.1.8-1.6.8-.6 0-1-.2-1.4-.6-.4-.4-.5-.9-.5-1.5 0-.7.2-1.3.6-1.7.4-.5.9-.7 1.7-.7 1.4 0 2.1 1.1 2.1 3.4-.2 1.1-.3 1.9-.6 2.5zm-1.7-5.2c-.5 0-.9.2-1.1.6-.2.3-.3.8-.3 1.3 0 .9.4 1.4 1.3 1.4.6 0 1.1-.3 1.5-1-.2-1.6-.7-2.3-1.4-2.3zM487.1 218.2v-1.8h.7v1.8h1.5v4.9c0 .2 0 .4-.1.5-.1.1-.4.2-.9.2 0-.3-.1-.6-.2-.8h.3c.1 0 .2 0 .2-.1v-4h-.8v7.1h-.7v-7.1h-.8v4.9h-.7v-5.6h1.5zm5.4-1.8v2h2.3v.7h-2.3v2.1h1.9v4.6h-.7v-.5h-2.9v.6h-.8v-4.7h1.8v-4.8h.7zm1.1 8.2v-2.7h-2.9v2.7h2.9zM498 223.9c-.4.7-.9 1.3-1.7 2.1l-.5-.5c.7-.7 1.3-1.3 1.6-1.9.4-.7.6-1.5.6-2.4 0-.9-.2-1.7-.6-2.4-.3-.6-.9-1.2-1.6-1.9l.5-.5c.8.7 1.3 1.4 1.7 2.1.5.8.7 1.8.7 2.8s-.2 1.7-.7 2.6zM525.2 242.1v.9h2.4v.4H523v1.5c0 1.3-.3 2.3-.9 3.2-.1-.2-.2-.3-.4-.4.6-.7.9-1.6.9-2.8V243h2.2v-.9h.4zm-.1 2.6v-1h.4v1h2v.4h-1.8c.2.4.4.7.7 1.1.3.4.8.7 1.3 1-.2.1-.3.3-.3.4-.5-.3-.9-.7-1.3-1.2-.2-.3-.5-.6-.6-.9v2.6h-.4v-2.5c-.2.4-.5.7-.7.9-.4.4-.8.8-1.2 1.1-.1-.1-.2-.3-.3-.4.4-.2.7-.5 1.1-.9.3-.3.6-.7.9-1.2h-1.6v-.4h1.8zM530.2 242.7v4h-1v.7h-.4v-4.7h1.4zm-.4 1.9v-1.4h-.7v1.4h.7zm0 1.8V245h-.7v1.4h.7zm4.2-3.4-.5 1h.7v.4h-2c0 .2-.1.4-.1.5h2.3v.4H532c-.1.2-.1.3-.2.5H533.5l.2.3c-.3.4-.5.8-.8 1.1.4.2.9.4 1.5.5-.1.2-.2.3-.3.4-.6-.1-1.1-.3-1.6-.6-.4.3-.9.5-1.6.7 0-.2-.1-.3-.2-.4.6-.1 1.1-.3 1.4-.5-.3-.2-.5-.5-.7-.7-.3.5-.7.9-1.2 1.3l-.3-.3c.6-.4 1-.8 1.3-1.3.1-.2.2-.4.3-.7h-1.2v-.4h1.3c0-.2.1-.4.1-.5h-1.2v-.7h2.6l.5-1.2.4.2zm.1-.4c-1.2.2-2.3.4-3.3.4 0-.1-.1-.2-.2-.4 1.1-.1 2.2-.2 3.3-.4l.2.4zm-2.5 1.2-.4.1-.3-.6.3-.1c.2.1.3.3.4.6zm1 3.1c.3-.2.5-.5.6-.8h-1.4c.2.3.4.6.8.8zm0-3.2-.4.1c-.1-.2-.1-.4-.2-.7l.3-.1c.2.2.3.5.3.7zM536.1 246.4c-.1.6-.3 1.1-.6 1.6-.1-.2-.2-.3-.3-.4.3-.4.4-.9.5-1.4.1-.5.1-1.1.1-1.9v-1.2h4.7v1.3h-1.8v.7h2.3v.4h-2.6c0 .2-.1.5-.1.6h2.2l-.1 1.1c0 .3-.1.5-.3.6-.2.1-.5.1-.9.1 0-.2 0-.3-.1-.4h.8s.1-.1.1-.2l.1-.7h-1.9c-.1.1-.1.3-.2.4-.3.4-.8.8-1.5 1.1-.1-.1-.2-.3-.3-.4.7-.2 1.2-.5 1.5-.9.2-.3.3-.7.4-1.1h-1.4v-.4h1.7v-.7h-2c-.2.6-.3 1.3-.3 1.8zm4.8-4v.4h-5.7v-.4h5.7zm-4.7 1.8h3.8v-.6h-3.8v.6zM379.1 358.6c0 .3 0 .5-.1.7h.5V358h.4v1.3h.6v.3h-.6v1.2c.2-.1.4-.1.6-.2v.4c-.2.1-.4.1-.6.2v2.1h-.4v-2c-.3.1-.7.2-1 .3l-.1-.4c.3-.1.7-.2 1.1-.3v-1.3h-.6c-.1.3-.1.6-.2.8h-.3c.2-.6.3-1.2.4-1.9l.3.1zm2.6-.4c-.1.4-.2.7-.4 1h2.1l-.1 3.1c0 .3-.1.6-.1.7-.1.2-.2.2-.5.3h-.5c0-.2 0-.3-.1-.5h.6c.1 0 .2 0 .2-.1s0-.2.1-.4l.1-2.8h-.4c0 .8-.2 1.6-.5 2.1-.4.6-.8 1.1-1.4 1.5l-.3-.3c.6-.4 1-.8 1.4-1.4.3-.5.5-1.1.5-1.9h-.4c-.1.5-.2.9-.4 1.3-.3.5-.6.8-.9 1.1-.1-.1-.1-.2-.2-.3.3-.2.6-.5.8-.9.2-.3.3-.7.4-1.2h-.3c-.2.4-.4.7-.6 1-.1-.1-.2-.2-.3-.2.3-.4.5-.8.6-1.2.2-.4.3-.7.4-1.1l.2.2zM389 358.5v.4h-2v1.5h2.3v.4H387v2.6h-.4v-2.6h-2.3v-.4h2.3v-1.5h-1.9v-.4h4.3zM392.9 358.2c0 .1-.1.1-.1.1.4.4.8.8 1.2 1.1.4.3.8.6 1.2.7-.1.1-.2.3-.3.4-.4-.2-.7-.4-1-.6v.3h-1.2v.6h2.1v.4h-2.1v1.5h2.3v.4h-5v-.4h2.3v-1.5h-2v-.2h2v-.6h-1.2v-.3c-.4.3-.7.5-.9.6-.1-.1-.2-.3-.3-.3.5-.3.9-.6 1.4-1 .4-.4.8-.8 1.2-1.4l.4.2zm-1.2 4.2-.4.2c-.1-.2-.3-.5-.5-.7l.4-.2c.2.2.4.4.5.7zm2.3-2.4c-.2-.1-.3-.2-.4-.3-.4-.3-.7-.7-1-1-.3.4-.7.7-1 1.1-.1.1-.2.2-.3.2h2.7zm.3 1.8-.5.9-.3-.2.5-1 .3.3zM396.5 358.6c0 .3 0 .5-.1.7h.5V358h.4v1.3h.6v.3h-.6v1.2c.2-.1.4-.1.6-.2v.4c-.2.1-.4.1-.6.2v2.1h-.4v-2c-.3.1-.7.2-1 .3l-.1-.4c.3-.1.7-.2 1.1-.3v-1.3h-.6c-.1.3-.1.6-.2.8h-.3c.2-.6.3-1.2.4-1.9l.3.1zm2.7-.4c-.1.4-.2.7-.4 1h2.1l-.1 3.1c0 .3-.1.6-.1.7-.1.2-.2.2-.5.3h-.5c0-.2 0-.3-.1-.5h.6c.1 0 .2 0 .2-.1s0-.2.1-.4l.1-2.8h-.4c0 .8-.2 1.6-.5 2.1-.4.6-.8 1.1-1.4 1.5l-.3-.3c.6-.4 1-.8 1.4-1.4.3-.5.5-1.1.5-1.9h-.4c-.1.5-.2.9-.4 1.3-.3.5-.6.8-.9 1.1-.1-.1-.1-.2-.2-.3.3-.2.6-.5.8-.9.2-.3.3-.7.4-1.2h-.3c-.2.4-.4.7-.6 1-.1-.1-.2-.2-.3-.2.3-.4.5-.8.6-1.2.2-.4.3-.7.4-1.1l.2.2zM352.3 65.4c1.1 1 2.3 2.4 2.9 3.4l-.7.4c-.1-.2-.3-.5-.5-.8-2.9.1-6 .2-7.9.2 0 .1-.1.1-.2.2l-.3-.9h1.7c.6-.6 1.3-1.2 2-2-.8-.7-2.1-1.7-3.2-2.4l.5-.5c.3.2.7.4 1 .6.6-.7 1.3-1.6 1.8-2.3h-3.9v-.7h4.4V59l1 .1c0 .1-.1.1-.2.2v1.4h4.4v.7h-5l.3.2c0 .1-.1.1-.2.1-.5.7-1.3 1.7-2 2.4.6.4 1.3.9 1.7 1.3 1-1 1.9-2.1 2.6-3.1l.8.5c0 .1-.1.1-.3.1-1.2 1.6-3.1 3.6-4.7 5l5.2-.1c-.6-.7-1.2-1.5-1.9-2.1l.7-.3zM360.5 63.1h-3.2v6h-.7v-9.6h3.9v3.6zm-.7-3h-2.5v.9h2.5v-.9zm-2.5 2.4h2.5v-1h-2.5v1zm8.3-3v8.6c0 .9-.4.9-1.8.9 0-.2-.1-.5-.2-.7l-.1.1c-1.1-.3-1.9-.9-2.4-1.8-.3.7-1 1.3-2.6 1.8-.1-.1-.3-.4-.4-.5 1.6-.4 2.2-1.1 2.4-1.7h-2.3v-.6h2.4v-.9h-2.3v-.6h1.2c-.1-.3-.3-.7-.5-.9l.6-.2c.3.3.5.8.6 1.1h1.5c.2-.3.5-.8.6-1.2l.8.3c0 .1-.1.1-.2.1-.1.2-.3.5-.5.8h1.4v.6h-2.4v.9h2.6v.6h-2.4c.4.8 1.3 1.4 2.4 1.6-.1.1-.2.2-.3.4h.8c.5 0 .5 0 .5-.2v-5.1h-3.3v-3.5h3.9zm-.7.6h-2.6v.9h2.6v-.9zm-2.6 2.4h2.6v-1h-2.6v1zM307.2 131.6c-.2-.2-.5-.4-.8-.5.8-.9 1.4-1.9 2-3.2l.7.4c-.5 1.3-1.2 2.4-1.9 3.3zm4-4.8v6.1h-.8v-6.1h-3.9v-.8h3.9v-2.3h.8v2.3h4.3v.8h-4.3zm3.6 4.6c-.9-.9-1.7-1.9-2.4-3.2l.8-.5c.7 1.3 1.5 2.3 2.4 3.1-.4.2-.6.4-.8.6zM316.3 128.7v-.7h8.4v.8h-8.4zM328.3 129.2c-.4 1.3-1.1 2.5-2.3 3.5-.2-.2-.4-.5-.5-.7.9-.6 1.5-1.4 1.8-2.2.3-.7.5-1.7.5-2.8v-2h.8c0 1.9-.1 3.3-.3 4.2zm2.7 3.2-.6-.6.1-.1v-7.5h.8v7c1.1-.8 2.2-1.9 3.3-3.3.2.2.4.4.6.5-1.4 1.7-2.8 3-4.2 4zM219.1 123.5v1h4v.6h-7.9v3.2c0 1.2-.1 2.1-.2 2.7-.2.8-.5 1.5-.9 2.3-.2-.2-.4-.4-.7-.5.4-.6.7-1.3.8-2 .1-.5.2-1.4.2-2.5v-3.8h3.8v-1h.9zm-1.2 2v.9h1.3v3.5h-2.6v1.9c.5-.1 1.1-.2 1.7-.3-.1-.3-.3-.6-.4-.9l.6-.2.9 2.1-.7.2c-.1-.2-.1-.4-.2-.6-1.1.3-2.2.5-3.2.7l-.2-.7c.3 0 .5-.1.8-.1v-5.5h1.3v-.9h.7zm.6 2.3v-.8h-1.9v.8h1.9zm0 1.4v-.8h-1.9v.8h1.9zm4-3.3.7.4c-.3.7-.7 1.5-1.1 2.2.4.6.7 1.1.8 1.4.1.3.2.7.2 1 0 .3-.1.5-.1.7-.1.2-.3.4-.6.5-.3.1-.7.1-1 .1-.1-.2-.2-.5-.3-.8.7 0 1.1 0 1.1-.1.1-.1.1-.2.1-.4 0-.3-.1-.6-.1-.9-.1-.3-.4-.8-.8-1.4.4-.7.7-1.4.9-2.1h-1.7v6.7h-.7v-7.3h2.6zM233.9 124.3v.7h-4.5v1.6c1.2.7 2.3 1.4 3.2 2.2l-.5.6c-.8-.7-1.7-1.4-2.7-2v5.7h-.7V125h-4.2v-.7h9.4zM292.8 245.1c-.2.5-.5 1-.9 1.4l-.3-.3c.6-.7 1-1.6 1.4-2.8l.4.2c-.3.6-.5 1.2-.6 1.5zm2.7 1.3c-.3-1-.8-1.9-1.4-2.8l.3-.2c.6.9 1.1 1.9 1.5 2.9l-.4.1zM294.3 249.5c-.5.4-1.2.8-1.9 1.1l-.2-.4c1.3-.5 2.5-1.3 3.5-2.5l.3.3c-.7.6-1.2 1.1-1.7 1.5zm-1-1.5c-.4-.3-.7-.6-1.1-.8l.2-.3c.4.2.8.5 1.1.8l-.2.3zM295.3 253.3c0 .5-.1.9-.1 1.2 0 .1-.1.2-.2.3-.1.1-.4.1-.8.2 0-.1-.1-.2-.1-.4h.4c.1 0 .3-.1.3-.2.1-.1.1-.4.1-.8v-1.1h-1.2c-.1.7-.3 1.2-.5 1.6-.3.4-.7.8-1.2 1.1l-.3-.3c.5-.3.9-.6 1.1-1 .3-.4.4-.8.5-1.4H292v-.5h1.3v-1h.4v1h1.6v1.3zm0-1.5-.5-.5.2-.2c.2.2.4.3.6.5l-.3.2zm.4-.4-.5-.5.2-.2c.2.2.4.3.6.5l-.3.2zM293.7 259.2v-3.9h.3v3.9h-.3zM292.8 261.5c-.2.5-.5 1-.9 1.4l-.3-.3c.6-.7 1-1.6 1.4-2.8l.4.2c-.3.6-.5 1.1-.6 1.5zm2.7 1.2c-.3-1-.8-1.9-1.4-2.8l.3-.2c.6.9 1.1 1.9 1.5 2.9l-.4.1zm.3-2.7c-.1.1-.2.2-.3.2-.1 0-.3 0-.4-.1-.1-.1-.1-.2-.1-.4 0-.1 0-.3.1-.3.1-.1.2-.1.4-.1.1 0 .2 0 .3.1.1.1.1.2.1.3s0 .2-.1.3zm-.1-.5s-.1-.1-.2-.1c-.2 0-.3.1-.3.3 0 .1 0 .1.1.2s.1.1.2.1.1 0 .2-.1c0-.1.1-.1.1-.2-.1-.1-.1-.1-.1-.2zM294.2 264.6v2.7h-.4v-2.4c-.6.5-1.3.9-1.8 1.1-.1-.1-.1-.3-.2-.4.6-.2 1.2-.6 1.8-1.1.6-.4 1.1-.9 1.5-1.4l.4.3c-.5.5-1 .8-1.3 1.2zM294.5 270.6c-.4.5-1.1.9-1.9 1.3 0-.1-.1-.2-.2-.4.7-.2 1.3-.6 1.8-1 .4-.4.7-1 1-1.8H292v-.4h3.3l.3.3c-.4.9-.7 1.6-1.1 2zm1.6-2.4c-.1.1-.2.2-.3.2-.1 0-.3 0-.4-.1-.1-.1-.1-.2-.1-.4 0-.1 0-.3.1-.3.1-.1.2-.1.4-.1.1 0 .2.1.3.1.1.1.1.2.1.3.1.1 0 .2-.1.3zm-.1-.5c-.1-.1-.1-.1-.2-.1-.2 0-.3.1-.3.3 0 .1 0 .1.1.2s.1.1.2.1.1 0 .2-.1c0 0 .1-.1.1-.2-.1-.1-.1-.2-.1-.2zM241.3 38.1v2.1h2.1v.4h-2.1v2.7h2.7v.4h-5.8v-.4h2.6v-5.2h.5zM247.7 39.4l-.4 1.1h.9v.4h-3.5v-.4h2.1l.4-1.3.5.2zm-.9-1.4v.7h1.3v.4h-3.2v-.4h1.4V38h.5zm1.1 5.7h-.4v-.3h-1.7v.5h-.4v-2.5h2.6v2.3zm-1.8-3.5-.4.1-.3-.9.4-.1c0 .3.2.6.3.9zm1.3 2.8v-1.1h-1.7V43h1.7zm2.8-4.7.5.2c-.2.5-.5 1.1-.8 1.7.3.5.6.9.7 1.1.1.3.2.6.2.8 0 .2 0 .3-.1.4-.1.2-.2.3-.4.3-.2.1-.4.1-.7.1 0-.2-.1-.3-.2-.5h.5c.2 0 .3 0 .3-.1V42c0-.2 0-.5-.1-.7-.1-.2-.3-.6-.7-1.2.2-.5.5-1.1.7-1.6H249v5.1h-.4v-5.5h1.6zM252.2 39.4V38h.4v1.4h.7v.4h-.7v.5l.3.3c.1.1.3.2.4.3-.1.1-.2.3-.3.4-.2-.1-.3-.2-.4-.4 0 0-.1 0-.1-.1v3h-.4v-3l-.3.6c-.2.3-.3.5-.4.6-.1-.2-.1-.3-.3-.4.2-.3.4-.6.5-.9.1-.3.3-.6.4-1h-.7v-.4h.9zm2.8-1.1v5c0 .1 0 .2-.1.3-.1.1-.3.1-.7.2 0-.2-.1-.3-.1-.4h.3c.1 0 .2 0 .2-.1v-1.5h-.7c0 .2-.1.4-.1.6-.1.6-.3 1.1-.5 1.5-.1-.2-.2-.3-.3-.4.2-.4.4-.8.5-1.3.1-.4.1-.9.1-1.6v-2.2h1.4zm-.4 3v-1.1h-.6v1.1h.6zm0-1.5v-1.1h-.6v1.1h.6zm2.4-1.5v5.1c0 .1 0 .2-.1.3-.1.1-.3.1-.7.1 0-.2-.1-.3-.1-.4h.3c.1 0 .2 0 .2-.1v-1.6h-.7c0 .3 0 .6-.1.8-.1.5-.2 1-.4 1.4-.1-.2-.2-.3-.3-.4.1-.4.3-.8.3-1.2 0-.4.1-.9.1-1.5v-2.5h1.5zm-.4 3v-1.1h-.7v1.1h.7zm0-1.5v-1.1h-.7v1.1h.7zM142.5 41.1v1.8h1.9v.4h-1.9v2.3h2.4v.4h-5.1v-.4h2.3v-4.5h.4zM148.2 42.2l-.3.9h.8v.4h-3.1v-.4h1.9l.3-1.1.4.2zm-.9-1.2v.6h1.2v.4h-2.8v-.4h1.2V41h.4zm1 4.9h-.4v-.2h-1.5v.4h-.4V44h2.3v1.9zm-1.6-3-.4.1c-.1-.2-.2-.5-.3-.8l.3-.1c.2.3.3.6.4.8zm1.2 2.5v-1h-1.5v1h1.5zm2.5-4.1.4.2c-.2.5-.4 1-.7 1.5.3.4.5.8.6 1 .1.3.1.5.1.7 0 .2 0 .3-.1.4l-.3.3c-.2 0-.4.1-.6.1 0-.1-.1-.3-.2-.4h.5c.2 0 .3 0 .3-.1v-.2c0-.2 0-.4-.1-.6-.1-.2-.3-.6-.6-1 .2-.5.4-.9.6-1.4h-1v4.5h-.4v-4.9h1.5zM152.1 42.2V41h.3v1.2h.6v.4h-.6v.5l.3.3c.1.1.2.2.4.3-.1.1-.2.2-.2.3-.2-.1-.3-.2-.4-.3l-.1-.1v2.6h-.3v-2.6c-.1.2-.1.4-.2.5-.1.3-.3.5-.4.6 0-.1-.1-.3-.2-.3.2-.3.3-.5.5-.8.1-.2.2-.5.3-.9h-.6v-.4h.6zm2.4-1v4.3c0 .1 0 .2-.1.3-.1.1-.3.1-.6.1 0-.2-.1-.3-.1-.4h.3c.1 0 .2 0 .2-.1v-1.3h-.6c0 .2 0 .4-.1.6-.1.5-.2.9-.5 1.3-.1-.1-.2-.3-.3-.4.2-.3.3-.7.4-1.2.1-.4.1-.8.1-1.4v-2h1.3zm-.3 2.7v-1h-.5v1h.5zm0-1.3v-1h-.5v1h.5zm2.1-1.4v4.5c0 .1 0 .2-.1.3-.1.1-.3.1-.6.1 0-.2-.1-.3-.1-.4h.3c.1 0 .2 0 .2-.1v-1.4h-.6c0 .3 0 .5-.1.7-.1.5-.2.9-.3 1.2-.1-.2-.2-.3-.3-.4.1-.3.2-.7.3-1.1 0-.3.1-.8.1-1.3v-2.2h1.2zm-.3 2.7v-1h-.6v.9h.6zm0-1.3v-1h-.6v1h.6zM344.6 135.8v-1.3h.4v1.3h.7v.4h-.7v1.1c.3-.1.5-.2.8-.2v.4c-.3.1-.5.2-.8.2v2c0 .1-.1.3-.2.3-.2.1-.4.1-.7.1 0-.2 0-.3-.2-.5h.6c.1 0 .1 0 .1-.1v-1.7c-.3.1-.7.2-1 .3l-.1-.5c.3-.1.7-.2 1.1-.3v-1.2h-1v-.4h1zm4.6-.9c-.9.3-1.7.5-2.5.6v1.1h2.6v.4h-.8v3.3h-.5V137h-1.3v.3c0 .5-.1 1-.2 1.5s-.4 1-.7 1.5c-.1-.1-.2-.2-.4-.3.3-.4.5-.8.6-1.3.1-.5.2-1 .2-1.4v-2.2l.3.1c.8-.1 1.6-.3 2.3-.6l.4.3zM353.3 134.4v2.1h2.1v.4h-2.1v2.7h2.7v.4h-5.8v-.4h2.6v-5.2h.5zM362.5 134.8v.4H360v1.4h2.3v.4h-2.2c.1.5.4 1 .9 1.5s1.1.9 1.8 1.2l-.4.4c-.8-.3-1.4-.8-1.9-1.4-.3-.4-.5-.7-.7-1.2-.1.5-.3.8-.5 1.1-.4.6-1.2 1.1-2.2 1.5-.1-.2-.2-.3-.3-.4 1.1-.4 1.9-1 2.2-1.6.2-.3.3-.7.4-1.1h-2.1v-.4h2.1v-1.4H357v-.4h5.5zM365.1 135.7v-1.3h.4v1.3h1.7v-1.3h.4v1.3h1.3v.4h-1.3v1.5h1.7v.4h-1.7v2.2h-.4V138h-1.8c-.1.4-.2.7-.3 1-.3.5-.7.8-1.3 1.2-.1-.2-.2-.3-.3-.4.6-.2 1-.6 1.3-1.1.1-.2.2-.4.3-.8h-1.6v-.4h1.7V136h-1.3v-.4h1.2zm2.1.4h-1.7v1.5h1.7v-1.5zM428.6 109.8v-1.3h.4v1.3h.7v.4h-.7v1.1c.3-.1.5-.2.8-.2v.4c-.3.1-.5.2-.8.2v2c0 .1-.1.3-.2.3-.2.1-.4.1-.7.1 0-.2 0-.3-.2-.5h.6c.1 0 .1 0 .1-.1v-1.7c-.3.1-.7.2-1 .3l-.1-.5c.3-.1.7-.2 1.1-.3v-1.2h-1v-.4h1zm4.6-.9c-.9.3-1.7.5-2.5.6v1.1h2.6v.4h-.8v3.3h-.5V111h-1.3v.3c0 .5-.1 1-.2 1.5s-.4 1-.7 1.5c-.1-.1-.2-.2-.4-.3.3-.4.5-.8.6-1.3.1-.5.2-1 .2-1.4V109l.3.1c.8-.1 1.6-.3 2.3-.6l.4.4zM437.3 108.5v2.1h2.1v.4h-2.1v2.7h2.7v.4h-5.8v-.4h2.6v-5.2h.5zM446.5 108.8v.4H444v1.4h2.3v.4h-2.2c.1.5.4 1 .9 1.5s1.1.9 1.8 1.2l-.4.4c-.8-.3-1.4-.8-1.9-1.4-.3-.4-.5-.7-.7-1.2-.1.5-.3.8-.5 1.1-.4.6-1.2 1.1-2.2 1.5-.1-.2-.2-.3-.3-.4 1.1-.4 1.9-1 2.2-1.6.2-.3.3-.7.4-1.1h-2.1v-.4h2.1v-1.4H441v-.4h5.5zM449.1 109.7v-1.3h.4v1.3h1.7v-1.3h.4v1.3h1.3v.4h-1.3v1.5h1.7v.4h-1.7v2.2h-.4V112h-1.8c-.1.4-.2.7-.3 1-.3.5-.7.8-1.3 1.2-.1-.2-.2-.3-.3-.4.6-.2 1-.6 1.3-1.1.1-.2.2-.4.3-.8h-1.6v-.4h1.7V110h-1.3v-.4h1.2zm2.1.5h-1.7v1.5h1.7v-1.5zM337.3 30.1l-.3-.4c.4-.3.9-.8 1.5-1.3h-4.2v-.5h4.7l.4.4c-.9.8-1.6 1.4-2.1 1.8zm-.7 1.4c-.3.6-.8 1-1.7 1.4-.1-.2-.2-.3-.3-.5.7-.2 1.3-.5 1.5-1 .2-.4.3-1 .3-1.8v-.5h.5c.1 1.3-.1 2-.3 2.4zM341.8 30.7c-.2.8-.7 1.5-1.4 2.1-.1-.2-.2-.3-.3-.4.5-.4.9-.8 1.1-1.4.2-.4.3-1 .3-1.7v-1.2h.5c0 1.2-.1 2.1-.2 2.6zm1.7 2-.4-.4.1-.1v-4.6h.5v4.3c.7-.5 1.4-1.2 2.1-2.1.1.1.2.2.4.3-1 1.2-1.9 2-2.7 2.6zM350.3 32.7v-.4h-3.6v-.5h3.6V29h-3.6v-.5h4.2v4.1h-.6zM351.6 30.4V30h5.1v.5h-5.1zM360.7 31.3c-.6.6-1.4 1.2-2.6 1.7 0-.2-.1-.3-.2-.5 1-.3 1.8-.8 2.3-1.4.5-.6 1-1.4 1.3-2.4h-4.1v-.5h4.4l.4.4c-.5 1.2-1 2.1-1.5 2.7zm1.6-2.9c-.2-.2-.4-.4-.7-.6l.2-.3c.3.2.6.4.7.6l-.2.3zm.5-.5c-.2-.2-.4-.4-.7-.6l.2-.3c.3.2.6.4.7.6l-.2.3zM162.5 75.3v-.7h5l.3-4.3h-4.4v-.7h5l-.3 5h2.1v.7h-7.7zM170.7 72.7V72h7v.7h-7zM182.2 71.8c-.1 1.5-.4 2.5-.8 3.2-.4.6-1.1 1.2-2.3 1.8-.1-.2-.2-.5-.4-.7 1-.4 1.8-.9 2.1-1.5.3-.5.5-1.5.6-2.8h-3.6v-.7h7.7v.7h-3.3zm-3-2.3v-.7h5.1v.7h-5.1zM189.5 72.5v4.3h-.6V73c-.8.7-1.6 1.3-2.6 1.8l-.3-.6c.8-.4 1.7-.9 2.6-1.7.8-.7 1.5-1.5 2.1-2.3l.5.5c-.6.7-1.2 1.3-1.7 1.8zM192.2 73.5v-4.7h.7v4.7h-.7zm4.6-2.7c0 1.2-.1 2.1-.2 2.8-.2.7-.5 1.3-1 1.8s-1.2.9-2.2 1.2c-.1-.3-.2-.5-.4-.7 1.3-.4 2.1-.9 2.5-1.6.3-.6.5-1.7.5-3.3v-2.6h.7l.1 2.4zM201.9 71.8c-.1 1.5-.4 2.5-.8 3.2-.4.6-1.1 1.2-2.3 1.8-.1-.2-.2-.5-.4-.7 1-.4 1.8-.9 2.1-1.5.3-.5.5-1.5.6-2.8h-3.6v-.7h7.7v.7h-3.3zm-3-2.3v-.7h5.1v.7h-5.1zM209.2 72.5v4.3h-.6V73c-.8.7-1.6 1.3-2.6 1.8l-.3-.6c.8-.4 1.7-.9 2.6-1.7.8-.7 1.5-1.5 2.1-2.3l.5.5c-.6.7-1.2 1.3-1.7 1.8zM100.4 62.6c.7.3 1.6.7 2 1.1l-.4.6c-.4-.4-1.3-.9-2-1.2l.4-.5zm-.1 6.3c.5-.8 1.2-2.1 1.7-3.2l.6.5c-.5 1-1.1 2.3-1.6 3 0 .1.1.1.1.2v.1l-.8-.6zm.7-9.3c.7.3 1.5.8 2 1.2l-.4.6c-.4-.4-1.3-.9-2-1.3l.4-.5zm5.9 2.2c0 .1-.1.1-.2.2.8 1.2 2.2 2.6 3.4 3.3-.2.2-.3.5-.4.7-1.3-.8-2.6-2.1-3.4-3.4-.7 1.2-1.9 2.6-3.3 3.5-.1-.2-.3-.4-.4-.6 1.4-.8 2.7-2.3 3.4-3.6l.9-.1zm-1.2-1.9c0 .1-.1.1-.2.1-.5 1-1.3 2-2.1 2.7-.1-.1-.4-.3-.6-.4.7-.6 1.5-1.7 2-2.6l.9.2zm-1.9 9.6v-4.1h5.2v4h-.7V69h-3.7v.5h-.8zm4.5-3.4h-3.7v2.3h3.7v-2.3zm-.7-6.5c.8.7 1.8 1.7 2.3 2.4l-.6.5c-.4-.7-1.4-1.7-2.3-2.5l.6-.4zM116.1 68.6h4.5v.7H111v-.7h4.4v-1.4H112v-.6h3.4v-1.1l1 .1c0 .1-.1.1-.2.1v.9h3.5v.6h-3.5v1.4zm-4.1-7.4v1.3h-.7v-2h4.1v-1.1l1 .1c0 .1-.1.1-.2.1v.9h4.2v2h-.7v-1.3H112zm7.6 4.5-.6-.6c-2.4.1-5 .2-6.7.3 0 .1-.1.1-.2.2l-.3-.8h1.5c.4-.5.8-1.1 1.1-1.7h-2.1v-.6h7.3v.5h-4.3l.2.1c0 .1-.1.1-.2.1-.3.4-.7 1-1 1.5 1.3 0 2.8-.1 4.2-.1-.4-.3-.9-.6-1.3-.9l.5-.4c.9.6 2.1 1.4 2.6 2l-.7.4zM103.3 77.2c-.5-.5-.8-.9-1.1-1.3-.3-.5-.4-1.1-.4-1.7 0-.6.1-1.2.4-1.7.2-.4.6-.8 1.1-1.3l.3.3c-.5.4-.8.8-1 1.2-.3.5-.4.9-.4 1.5 0 .5.1 1 .4 1.5.2.4.5.8 1 1.2l-.3.3zM105.6 76.5v-3.7c-.3.2-.6.3-.9.4v-.5c.3 0 .6-.2.9-.4h.5v4.1h-.5zM109.6 75.5v1h-.4v-1h-2v-.4l2.1-2.8h.3v2.8h.6v.4h-.6zm-.3-2.5-1.6 2.1h1.6V73zM112.3 76.5v-3.7c-.3.2-.6.3-.9.4v-.5c.3 0 .6-.2.9-.4h.5v4.1h-.5zM116.4 76.3c-.3.2-.6.3-1 .3s-.7-.1-1-.3c-.3-.2-.5-.5-.5-.8 0-.3.1-.5.2-.7.1-.2.4-.3.7-.5-.3-.1-.5-.3-.6-.4-.1-.1-.2-.3-.2-.6 0-.4.1-.6.4-.8.2-.2.6-.3.9-.3.3 0 .6.1.9.3.2.2.4.5.4.8 0 .2-.1.4-.2.6-.1.1-.3.3-.6.4.4.2.6.3.7.5.2.2.2.4.2.7.2.3.1.6-.3.8zm-.3-1.5c-.1-.1-.4-.2-.7-.4-.3.1-.5.3-.6.4-.2.2-.3.4-.3.7 0 .3.1.5.3.6.2.1.4.1.7.1.2 0 .5-.1.7-.2.2-.1.3-.3.3-.6-.1-.2-.2-.4-.4-.6zm-.1-2c-.1-.1-.3-.2-.5-.2s-.4.1-.6.2c-.2.1-.3.3-.3.5s.1.4.3.5c.1.1.3.2.5.3.1-.1.3-.1.5-.3.2-.1.3-.3.3-.5s-.1-.4-.2-.5zM118.6 75.9c-.2.4-.6.8-1.1 1.3l-.3-.3c.4-.4.8-.8 1-1.2.3-.5.4-.9.4-1.5 0-.5-.1-1-.4-1.5-.2-.4-.5-.8-1-1.2l.3-.3c.5.5.8.9 1.1 1.3.3.5.4 1.1.4 1.7.1.6-.1 1.2-.4 1.7zM232.6 71.3c-.4.1-1 .2-1.6.2v.7h1.7v.3H231v.8h2v.3h-2V75c0 .1-.1.2-.2.3-.1.1-.4.1-.7.1 0-.1 0-.3-.1-.4h.5c.1 0 .1 0 .1-.1v-1.1h-1.9v-.3h1.9v-.8h-1.7v-.3h1.7v-.7c-.5 0-1.1.1-1.6.1 0-.2-.1-.3-.2-.3.7 0 1.3 0 1.9-.1.5-.1 1.1-.1 1.6-.2l.3.1zM229.6 78.5l-.8 1.6-.3-.2.8-1.6c.1.1.2.2.3.2zm-.2-1.1-.2.3c-.2-.2-.4-.3-.7-.5l.2-.3c.3.2.5.3.7.5zm.2-1.1-.2.3-.6-.6.2-.3c.2.2.4.3.6.6zm1-.4c-.1.2-.2.4-.2.6h.7v-.9h.3v.9h1.2v.3h-1.2v.9h1.5v.3h-1v1.6c0 .1 0 .1.1.1h.5c.1 0 .2 0 .2-.1s.1-.2.1-.4c.1.1.2.1.3.1 0 .2-.1.3-.1.5-.1.1-.2.2-.4.2h-.6c-.2 0-.3-.1-.3-.4V78h-.7c0 .6-.1 1-.3 1.3-.2.3-.5.5-.9.7-.1-.1-.1-.2-.2-.3.5-.2.8-.4.9-.7.1-.2.2-.6.2-1h-.9v-.3h1.5v-.9h-.9c-.1.2-.2.4-.4.6-.1-.1-.2-.1-.3-.2.2-.2.3-.5.4-.7.1-.2.2-.4.2-.7l.3.1zM232.3 82.6c0 .5-.1.9-.1 1.2 0 .1-.1.2-.2.3-.1.1-.4.1-.8.2 0-.1-.1-.2-.1-.4h.4c.1 0 .3-.1.3-.2.1-.1.1-.4.1-.8v-1.1h-1.2c-.1.7-.3 1.2-.5 1.6-.3.4-.7.8-1.2 1.1l-.3-.3c.5-.3.9-.6 1.1-1 .3-.4.4-.8.5-1.4H229v-.4h1.3v-1h.4v1h1.6v1.2zM231.9 87.8c-.4.5-1 .9-2 1.2-.1-.2-.1-.3-.2-.4.8-.2 1.3-.5 1.7-.9.4-.4.6-1 .6-1.8h-2.6v1.2h-.4v-1.6h1.5v-.9h.4v.9h1.5c0 1-.2 1.8-.5 2.3zM231.3 92c-.5.4-1.2.8-1.9 1.1l-.2-.4c1.3-.5 2.5-1.3 3.5-2.5l.3.3c-.7.6-1.3 1.1-1.7 1.5zm-1.1-1.6c-.4-.3-.7-.6-1.1-.8l.2-.3c.4.2.8.5 1.1.8l-.2.3zM231.2 96.3c-.5.5-1.1.9-2 1.3 0-.1-.1-.2-.2-.3.7-.3 1.4-.7 1.9-1.2-.3-.3-.6-.5-.9-.7l.2-.2c.3.2.7.5.9.7.3-.4.5-.8.8-1.3h-1.6c-.4.6-.9 1.1-1.4 1.4-.1-.1-.1-.2-.2-.3.5-.3.8-.6 1.1-.9.2-.3.5-.7.7-1.2l.4.1c-.1.2-.2.3-.3.5h1.6l.2.2c-.3.8-.8 1.4-1.2 1.9zM230.6 101.6v-3.9h.3v3.9h-.3zM257.5 65.1v-3.5h.3v3.2h2.1v.3h-2.4zM259 65.6v.3h-.5v.6h.6v.3h-.6v1h-.3v-1h-.6c0 .2-.1.4-.2.6-.1.3-.4.5-.7.7-.1-.1-.1-.2-.2-.3.3-.1.5-.3.6-.6.1-.1.1-.2.1-.4h-.6v-.3h.7v-.6h-.5v-.3h2.2zm-.5 2.8V68h.4v.4h1.5v.3h-1.5v.6h2v.3h-4.3v-.3h2v-.6h-1.4v-.3h1.3zm-.4-2.5h-.6v.6h.6v-.6zm1.6-.2v1.8h-.3v-1.8h.3zm1-.3v2.4c0 .1-.1.2-.2.2-.1.1-.3.1-.5.1 0-.1 0-.2-.1-.4h.4s.1 0 .1-.1v-2.2h.3zM260.5 70.6c-.4.1-1 .2-1.6.2v.7h1.7v.3h-1.7v.8h2v.4h-2v1.2c0 .1-.1.2-.2.3-.1.1-.4.1-.7.1 0-.1 0-.3-.1-.4h.5c.1 0 .1 0 .1-.1V73h-1.9v-.3h1.9v-.8h-1.7v-.3h1.7v-.7c-.5 0-1.1.1-1.6.1 0-.2-.1-.3-.2-.3.7 0 1.3 0 1.9-.1.5-.1 1.1-.1 1.6-.2l.3.2zM257.1 75.9v-1h.3v1h.4v.3h-.4v.8c.1-.1.3-.1.4-.2v.3c-.1.1-.3.1-.4.2V79c0 .1-.1.2-.2.2-.1.1-.3.1-.6.1 0-.1 0-.2-.1-.4h.5c.1 0 .1 0 .1-.1v-1.5c-.2.1-.4.2-.6.2l-.1-.3c.2-.1.4-.1.7-.2v-.9h-.6v-.3h.6zm2.1-.9v1.8l.3.1-.1.4h1.1v2h-.3v-.2h-1.7v.2h-.3v-2h.9l.1-.4c-.1.1-.2.1-.5.1 0-.1 0-.3-.1-.3h.2c.1 0 .1 0 .1-.1v-1.3h-1V75h1.3zm-.4 1.4c-.3.1-.6.2-.8.3l-.1-.3c.2-.1.5-.2.9-.3v.3zm-.2-.6-.2.2-.4-.4.1-.2c.2.2.4.3.5.4zm1.6 2.3v-.4h-1.7v.4h1.7zm0 .7v-.5h-1.7v.5h1.7zm.5-3.8v1.7c0 .1 0 .2-.1.2-.1.1-.2.1-.5.1 0-.1 0-.3-.1-.4H260.3v-1.3h-1V75h1.4zm-.6.8-.2.2c-.1-.1-.3-.2-.5-.3l.1-.2c.3.1.4.2.6.3zm.1.6c-.3.1-.5.2-.8.3l-.1-.3c.2-.1.5-.2.8-.3v.3zM307 243.9c-.7.8-1.7 1.3-2.9 1.7-.1-.2-.2-.3-.3-.6 1.1-.3 1.9-.7 2.6-1.4.6-.6 1.1-1.4 1.5-2.5h-2.3c-.5.8-1.1 1.5-1.8 2.1-.1-.1-.3-.3-.5-.4.6-.5 1-1 1.4-1.5.3-.4.6-1 1-1.8l.6.2c-.1.2-.3.5-.5.9h2.4l.1-.1.4.4c-.5 1.4-1.1 2.3-1.7 3zM307.9 251.1v-.5h-3.8v.5h-.6v-4.9h4.9v4.9h-.5zm0-4.4h-3.8v3.3h3.8v-3.3zM305.8 257.4v-5.8h.5v5.8h-.5zM306.9 261.9l-.4-.4c.6-.5 1.2-1.1 1.6-1.6l-2.8.4v2.4c0 .3.2.5.7.6h1.1c.6 0 1.2 0 1.7-.1v.6c-.7 0-1.3.1-1.9.1-.6 0-1.1-.1-1.4-.1-.6-.2-.8-.5-.8-1v-2.4l-1.7.3-.1-.6 1.8-.3v-1.9h.6v1.8l3-.4.1-.1.5.5c-.8.9-1.4 1.6-2 2.2zm1.8-2.8c-.2-.2-.5-.5-.8-.7l.3-.3c.4.2.6.5.8.7l-.3.3zm.5-.6c-.2-.2-.5-.5-.8-.7l.3-.3c.4.2.6.5.8.7l-.3.3zM305.5 266.3c-.2-.4-.4-.8-.7-1.3l.4-.3c.3.4.5.8.8 1.3l-.5.3zm3.3.2c-.3.6-.7 1.2-1.3 1.6-.4.3-1 .7-1.8 1-.1-.2-.2-.3-.3-.5.7-.2 1.2-.4 1.6-.7.4-.3.8-.8 1.2-1.3.3-.5.5-1.1.7-1.9l.5.1c-.1.7-.4 1.3-.6 1.7zm-1.9-.6c-.2-.4-.4-.9-.6-1.3l.4-.2c.3.5.5.9.6 1.3l-.4.2zM308.4 273.4c-.8-.5-1.8-.9-3-1.4v3.8h-.6v-6.3h.6v2c1.2.4 2.3.8 3.4 1.4l-.4.5zM391.7 45.3l-1.1 2.6-.5-.3 1.2-2.6c.1.1.3.2.4.3zm0-3-.4.5c-.3-.3-.7-.5-1.1-.7l.3-.5c.5.2.9.5 1.2.7zm3.1-1c0 .1-.1.1-.1.1.4.6.8 1.1 1.2 1.4.4.4.9.8 1.5 1.1-.2.2-.3.3-.4.5-.4-.2-.8-.5-1.2-1-.5-.4-.9-.9-1.4-1.6-.3.5-.6.9-1 1.3-.5.6-1 1-1.6 1.4-.1-.2-.2-.3-.3-.5.5-.3.9-.6 1.4-1.1.5-.5.9-1.1 1.3-1.9l.6.3zm1.7 3.9v2.1c0 .3-.1.4-.2.5-.1.1-.4.1-.9.2 0-.2-.1-.4-.2-.6h.7c.1 0 .1 0 .1-.2v-1.5h-1.8v2.9h-.6v-2.9H392v-.5h4.5zm-.9-1.4v.5H393v-.5h2.6zM400.4 41.6V41h.5v.6h1.9v-.5h.5v.5h2.1v.4h-2.1v.6h.3v.6h1.8v.5h-1.8c0 .8 0 1.4.1 1.8 0 .3.1.6.1.8.3-.4.6-1 .9-1.7l.5.2c-.4.8-.8 1.5-1.2 2.1.1.2.1.3.2.4.2.3.3.4.4.4.1 0 .3-.2.5-.7.1.1.3.2.4.2-.2.6-.3.9-.5 1-.1.1-.2.2-.3.2-.3 0-.5-.1-.8-.4-.2-.2-.4-.4-.5-.7-.5.5-1.1.9-1.6 1.1-.1-.2-.2-.3-.4-.4.3-.1.6-.3.8-.5.3-.2.6-.5.9-.8-.1-.4-.2-.8-.3-1.3-.1-.4-.1-1-.1-1.8h-3.6v1c0 .8-.1 1.5-.2 1.9-.1.5-.4 1.1-.7 1.6-.1-.1-.3-.3-.5-.3.3-.4.6-.9.7-1.4.1-.4.2-.9.2-1.8v-1.4h4.1v-.6h-.3V42H401v.7h-.5V42h-2v-.4h1.9zm2.3 3.1h-1v.5h1v1.3h-1v.6h1v.4h-2.2v.5h-.5v-3.7h2.6v.4zm-1.4.6v-.5h-.7v.5h.7zm.9.9v-.6h-1.7v.6h1.7zm-.9 1v-.6h-.7v.6h.7zm3.9-4.2-.3.3c-.2-.2-.5-.5-.8-.7l.3-.3c.4.3.6.5.8.7zM410.7 41v.7h3.1v.5h-6v2.7c0 .8-.1 1.5-.1 1.9-.1.5-.3 1.1-.6 1.6-.1-.2-.3-.3-.5-.4.3-.4.5-.9.6-1.4.1-.3.1-.9.1-1.7v-3.2h2.9V41h.5zm-.1 2.1v-.6h.6v.6h2.3v.5h-2.3v.5h1.9v2.4h-1.9v.6h2.8v.5h-2.8v1h-.6v-1h-2.7v-.5h2.7v-.6h-1.9v-2.4h1.9v-.5h-2.3v-.5h2.3zm-1.3 2h1.4v-.5h-1.4v.5zm1.3.4h-1.4v.5h1.4v-.5zm.6-.4h1.4v-.5h-1.4v.5zm0 .4v.5h1.4v-.5h-1.4zM398.1 53v.6h3.3v.4h-3.3v.5h2.1v2.8H396v-2.8h1.5V54H394v-.4h3.5V53h-2.8v-1.7h6.1V53h-2.7zm-3 1.7v3h6.3v.5h-6.3v.4h-.5v-3.9h.5zm.2-2.1h1.3v-.8h-1.3v.8zm1.3 2.7h3.2v-.4h-3.2v.4zm0 .4v.4h3.2v-.4h-3.2zm0 .7v.4h3.2v-.4h-3.2zm.5-3.8h1.4v-.8h-1.4v.8zm1.9 0h1.3v-.8H399v.8zM403.3 53.2v-2.1h.5v2.1h.8v.5h-.8v2.4l.9-.3v.4c.3-.2.5-.4.7-.6.2-.2.4-.5.5-.8h-1.2v-.5h5.3v.5h-3.4c-.1.2-.2.4-.4.6h3.3c0 1 0 1.7-.1 2.2-.1.4-.2.6-.3.7-.1.1-.5.2-1 .2 0-.2-.1-.4-.2-.6h.7c.1 0 .2-.1.3-.4.1-.3.1-.8.1-1.5h-.5c-.3.7-.6 1.2-1 1.6-.4.4-.9.7-1.3.9-.1-.1-.2-.3-.4-.4.5-.2.9-.5 1.2-.9.3-.3.5-.7.8-1.3h-.7c-.2.5-.5.8-.8 1.1-.4.3-.7.5-1.1.7-.1-.1-.2-.3-.4-.4.4-.2.7-.4 1-.7.2-.2.4-.4.6-.8h-.7c-.3.3-.6.6-1.1.9-.1-.1-.2-.3-.3-.4-.7.2-1.4.4-2 .6l-.1-.6c.3-.1.6-.2 1-.3v-2.6h-.8v-.5h.9zm2.3.7v-2.6h3.5v2.6h-3.5zm.6-1.6h2.4v-.5h-2.4v.5zm0 .5v.6h2.4v-.6h-2.4zM148.5 51.2l-.9 1.9-.4-.2 1-1.8c.1 0 .2.1.3.1zm-.2-1.3-.2.3c-.2-.2-.5-.4-.8-.5l.2-.3c.3.2.5.3.8.5zm.3-1.3-.2.3c-.2-.3-.5-.5-.8-.7l.2-.3c.3.3.5.5.8.7zm1.1-.3c-.1.3-.2.5-.3.7h.8v-1h.4v1h1.4v.3h-1.4v1h1.7v.3h-1.2v1.8c0 .1 0 .1.1.1h.6c.1 0 .2-.1.2-.1.1-.1.1-.2.1-.4.1.1.2.1.4.1 0 .2-.1.4-.2.6-.1.2-.2.2-.4.2h-.8c-.3 0-.4-.2-.4-.5v-1.8h-.7c0 .7-.1 1.2-.3 1.5-.2.3-.6.6-1.1.8-.1-.2-.1-.3-.2-.4.5-.2.9-.5 1.1-.8.1-.3.2-.7.2-1.2h-1.1v-.3h1.7v-1h-1c-.1.3-.3.5-.4.7-.1-.1-.2-.2-.3-.2.2-.3.4-.5.5-.8.1-.3.2-.5.3-.8l.3.2zM153.4 49.8l-.2.3c-.2-.1-.5-.2-.8-.3l.1-.3c.4.1.7.2.9.3zm.2 1.4-.8 1.8-.3-.2.8-1.8c.2.2.3.2.3.2zm.1-2.6-.2.3c-.2-.2-.4-.4-.7-.5l.2-.3c.3.1.5.3.7.5zm1.3 1.5c-.1.1-.1.2-.2.3h1c.1-.1.2-.3.3-.5l.3.1c-.1.1-.1.3-.2.4h1.3v.3h-1.4v.4h1.3v.3h-1.3v.4h1.3v.3h-1.3v.5h1.5v.3h-3v.2h-.4V51c-.2.2-.3.3-.5.4-.1-.1-.2-.2-.2-.3.2-.1.4-.3.6-.5.2-.2.3-.4.5-.7l.4.2zm.5-2v1.8h-.4v-.1H154v-.3h1.1v-.4H154v-.3h1.1v-.4H154v-.3h1.5zm.2 2.6h-1.1v.4h1.1v-.4zm0 .7h-1.1v.4h1.1v-.4zm0 1.2v-.5h-1.1v.5h1.1zm1.7-4.5v1.8h-.4v-.1h-1.2v-.3h1.2v-.4h-1.2v-.3h1.2v-.4h-1.2v-.3h1.6zM158.4 49.1v-1.2h.4v1.2h.5v.4h-.5v.6l.2.2.3.3c-.1.1-.2.2-.2.3l-.3-.3v2.5h-.4v-2.5c-.1.4-.3.7-.5 1-.1-.1-.1-.3-.2-.3.2-.3.3-.6.5-.9.1-.2.2-.5.3-.9h-.6v-.4h.5zm2-1-.5.9.2.2.3-.5.3.2-.7 1.1h.4c0-.1-.1-.2-.1-.3l.3-.1c.1.2.3.5.4.7-.1-.5-.1-1.3-.1-2.4h.4v1l.2-.3c.1 0 .1.1.2.1l.3-.8.3.2-.4.8.2.2.3-.5.3.2-.8 1.1h.5c0-.1-.1-.2-.1-.2l.3-.1c.1.2.2.5.3.8l-.4.1c0-.1 0-.1-.1-.2-.4.1-.8.1-1.1.2l-.1-.4h.2l.3-.5c-.2-.2-.4-.4-.7-.5 0 .7.1 1.3.1 1.6v.2h.6c0-.1-.1-.2-.1-.3l.3-.1c.1.1.2.3.2.4h.5v.4h-1.4c0 .2.1.4.2.5 0 .1.1.2.2.3.2-.2.4-.4.5-.6l.3.3c-.1.2-.3.4-.6.7.2.2.3.3.4.3 0 0 .1-.2.2-.5.1.1.2.1.4.2-.1.4-.2.6-.3.6 0 .1-.1.1-.2.1-.2 0-.5-.1-.7-.3l-.2-.2c-.4.3-.8.5-1.2.6 0-.1-.1-.2-.2-.4.4-.1.8-.3 1.1-.5h.1c-.1-.1-.1-.2-.2-.4s-.2-.5-.2-.7h-.8c0 .2-.1.3-.1.4.3.1.5.3.7.5l-.2.3c-.2-.2-.4-.3-.6-.4 0 .1-.1.2-.1.3-.1.3-.3.6-.6.9l-.3-.3c.2-.2.4-.5.6-.8.1-.2.2-.5.3-.8h-.6V51h1.7V50.7l-.4.1c0-.1 0-.1-.1-.2-.4.1-.8.1-1.1.1l-.1-.4h.2l.3-.5c-.2-.2-.5-.4-.7-.6l.2-.3c.1.1.2.1.2.2l.4-.9.7-.1zM152.7 55.9v.4h2.3v.3h-2.3v.4h1.5v1.9h-2.9V57h1.1v-.4h-2.5v-.3h2.5v-.4h-2v-1.2h4.2v1.2h-1.9zm-2.1 1.2v2.1h4.4v.3h-4.4v.3h-.4v-2.7h.4zm.1-1.5h.9V55h-.9v.6zm.9 1.9h2.2v-.3h-2.2v.3zm0 .2v.3h2.2v-.3h-2.2zm0 .6v.3h2.2v-.3h-2.2zm.4-2.7h1V55h-1v.6zm1.3 0h.9V55h-.9v.6z"/><path d="M155.7 56v-1.5h.4V56h.6v.4h-.6v1.7c.2-.1.4-.1.6-.2v.3c.2-.1.4-.3.5-.4.1-.2.3-.3.4-.6h-.9v-.4h3.7v.4H158c-.1.2-.2.3-.3.4h2.3c0 .7 0 1.2-.1 1.5-.1.3-.1.4-.2.5-.1.1-.3.1-.7.1 0-.1 0-.3-.1-.4h.5c.1 0 .1-.1.2-.3 0-.2.1-.6.1-1.1h-.4c-.2.5-.4.8-.7 1.1-.3.3-.6.5-.9.7 0-.1-.1-.2-.3-.3l.9-.6c.2-.2.4-.5.6-.9h-.5c-.2.3-.4.6-.6.8-.3.2-.5.4-.7.5 0-.1-.1-.2-.3-.3.3-.1.5-.3.7-.5.1-.1.3-.3.4-.5h-.5c-.2.2-.4.5-.8.7-.1-.1-.1-.2-.2-.3-.5.2-.9.3-1.4.4l-.1-.4c.2 0 .4-.1.7-.2v-1.8h-.6V56h.7zm1.7.5v-1.8h2.5v1.8h-2.5zm.4-1.1h1.7V55h-1.7v.4zm0 .3v.4h1.7v-.4h-1.7zM220.9 50.5c-.3.2-.6.4-1 .4h-1.4v2h-.5v-4.7h1.6c.5 0 .9.1 1.2.3.4.2.5.6.5 1s-.1.7-.4 1zm-1.2-1.9h-1.3v1.7h1.2c.7 0 1.1-.3 1.1-.9.1-.5-.3-.8-1-.8zM225 52.6c-.3.2-.7.3-1.1.3-.5 0-.9-.1-1.2-.4-.3-.2-.5-.6-.7-1h.7c.1.3.2.6.4.7.2.1.4.2.8.2.3 0 .5-.1.7-.2.2-.2.4-.4.4-.6 0-.3-.4-.6-1.1-.9-1-.4-1.6-.9-1.6-1.4 0-.4.2-.7.5-.9.3-.2.6-.3 1.1-.3.7 0 1.2.4 1.5 1.2h-.6c-.2-.5-.5-.7-.9-.7-.3 0-.5.1-.7.2-.2.1-.3.3-.3.6 0 .2.2.5.7.7.4.2.9.5 1.3.7.5.3.7.6.7 1-.1.2-.3.6-.6.8zM563.6 132.3c-.3.2-.6.4-1 .4h-1.4v2h-.5V130h1.6c.5 0 .9.1 1.2.3.4.2.5.6.5 1 .1.4-.1.8-.4 1zm-1.1-1.9h-1.3v1.7h1.2c.7 0 1.1-.3 1.1-.9 0-.5-.3-.8-1-.8zM567.7 134.4c-.3.2-.7.3-1.1.3-.5 0-.9-.1-1.2-.4-.3-.2-.5-.6-.7-1h.7c.1.3.2.6.4.7.2.1.4.2.8.2.3 0 .5-.1.7-.2.2-.2.4-.4.4-.6 0-.3-.4-.6-1.1-.9-1-.4-1.6-.9-1.6-1.4 0-.4.2-.7.5-.9.3-.2.6-.3 1.1-.3.7 0 1.2.4 1.5 1.2h-.6c-.2-.5-.5-.7-.9-.7-.3 0-.5.1-.7.2-.2.1-.3.3-.3.6 0 .2.2.5.7.7.4.2.9.5 1.3.7.5.3.7.6.7 1-.1.3-.3.6-.6.8zM297 196.5c-.2.5-.5 1-.9 1.4l-.3-.3c.6-.7 1-1.6 1.4-2.8l.4.2c-.3.6-.5 1.1-.6 1.5zm2.7 1.2c-.3-1-.8-1.9-1.4-2.8l.3-.2c.6.9 1.1 1.9 1.5 2.9l-.4.1zM298.5 200.8c-.5.4-1.2.8-1.9 1.1l-.2-.4c1.3-.5 2.5-1.3 3.5-2.5l.3.3c-.7.7-1.2 1.2-1.7 1.5zm-1-1.5c-.4-.3-.7-.6-1.1-.8l.2-.3c.4.2.8.5 1.1.8l-.2.3zM299.5 204.6c0 .5-.1.9-.1 1.2 0 .1-.1.2-.2.3-.1.1-.4.1-.8.2 0-.1-.1-.2-.1-.4h.4c.1 0 .3-.1.3-.2.1-.1.1-.4.1-.8v-1.1H298c-.1.7-.3 1.2-.5 1.6-.3.4-.7.8-1.2 1.1l-.3-.3c.5-.3.9-.6 1.1-1 .3-.4.4-.8.5-1.4h-1.3v-.4h1.3v-1h.4v1h1.6l-.1 1.2zm0-1.4-.5-.5.2-.2c.2.2.4.3.6.5l-.3.2zm.4-.4-.5-.5.2-.2c.2.2.4.3.6.5l-.3.2zM297.9 210.5v-3.9h.3v3.9h-.3zM297 212.8c-.2.5-.5 1-.9 1.4l-.3-.3c.6-.7 1-1.6 1.4-2.8l.4.2c-.3.6-.5 1.1-.6 1.5zm2.7 1.3c-.3-1-.8-1.9-1.4-2.8l.3-.2c.6.9 1.1 1.9 1.5 2.9l-.4.1zm.3-2.7c-.1.1-.2.2-.3.2-.1 0-.3 0-.4-.1-.1-.1-.1-.2-.1-.4 0-.1 0-.3.1-.3.1-.1.2-.1.4-.1.1 0 .2 0 .3.1.1.1.1.2.1.3.1.1 0 .2-.1.3zm-.1-.5s-.1-.1-.2-.1c-.2 0-.3.1-.3.3 0 .1 0 .1.1.2s.1.1.2.1.1 0 .2-.1c0-.1.1-.1.1-.2-.1-.1-.1-.2-.1-.2zM298.4 215.9v2.7h-.4v-2.4c-.6.5-1.3.9-1.8 1.1-.1-.1-.1-.3-.2-.4.6-.2 1.2-.6 1.8-1.1.6-.4 1.1-.9 1.5-1.4l.4.3c-.5.5-.9.9-1.3 1.2zM298.7 221.9c-.4.5-1.1.9-1.9 1.3 0-.1-.1-.2-.2-.4.7-.2 1.3-.6 1.8-1 .4-.4.7-1 1-1.8h-3.1v-.4h3.3l.3.3c-.5.9-.8 1.6-1.2 2zm1.6-2.4c-.1.1-.2.2-.3.2-.1 0-.3 0-.4-.1-.1-.1-.1-.2-.1-.4 0-.1 0-.3.1-.3.1-.1.2-.1.4-.1.1 0 .2.1.3.1.1.1.1.2.1.3.1.1 0 .2-.1.3zm-.1-.5c-.1-.1-.1-.1-.2-.1-.2 0-.3.1-.3.3 0 .1 0 .1.1.2s.1.1.2.1.1 0 .2-.1c0 0 .1-.1.1-.2-.1-.1-.1-.1-.1-.2zM300.2 73.3c-.2.5-.5 1-.9 1.4l-.3-.3c.6-.7 1-1.6 1.4-2.8l.4.2c-.2.6-.4 1.1-.6 1.5zm2.7 1.3c-.3-1-.8-1.9-1.4-2.8l.3-.2c.6.9 1.1 1.9 1.5 2.9l-.4.1zM301.7 77c-.5.4-1.2.8-1.9 1.1l-.2-.4c1.3-.5 2.5-1.3 3.5-2.5l.3.3c-.7.6-1.2 1.1-1.7 1.5zm-1-1.6c-.4-.3-.7-.6-1.1-.8l.2-.3c.4.2.8.5 1.1.8l-.2.3zM302.8 80c0 .5-.1.9-.1 1.2 0 .1-.1.2-.2.3-.1.1-.4.1-.8.2 0-.1-.1-.2-.1-.4h.4c.1 0 .3-.1.3-.2.1-.1.1-.4.1-.8v-1.1h-1.2c-.1.7-.3 1.2-.5 1.6-.3.4-.7.8-1.2 1.1l-.3-.3c.5-.3.9-.6 1.1-1 .3-.4.4-.8.5-1.4h-1.3v-.4h1.3v-1h.4v1h1.6V80zm-.1-1.5-.5-.5.2-.2c.2.2.4.3.6.5l-.3.2zm.4-.4-.5-.5.2-.2c.2.2.4.3.6.5l-.3.2z"/><path d="M301.1 85.2v-3.9h.3v3.9h-.3zM300.2 86.7c-.2.5-.5 1-.9 1.4l-.3-.3c.6-.7 1-1.6 1.4-2.8l.4.2c-.2.6-.4 1.1-.6 1.5zm2.7 1.2c-.3-1-.8-1.9-1.4-2.8l.3-.2c.6.9 1.1 1.9 1.5 2.9l-.4.1zm.3-2.6c-.1.1-.2.2-.3.2-.1 0-.3 0-.4-.1-.1-.1-.1-.2-.1-.4 0-.1 0-.3.1-.3.1-.1.2-.1.4-.1.1 0 .2 0 .3.1.1.1.1.2.1.3.1 0 0 .2-.1.3zm-.1-.6s-.1-.1-.2-.1c-.2 0-.3.1-.3.3 0 .1 0 .1.1.2s.1.1.2.1.1 0 .2-.1c0-.1.1-.1.1-.2s-.1-.1-.1-.2z"/><path d="M301.6 89v2.7h-.4v-2.4c-.6.5-1.3.9-1.8 1.1-.1-.1-.1-.3-.2-.4.6-.2 1.2-.6 1.8-1.1.6-.4 1.1-.9 1.5-1.4l.4.3c-.5.5-.9.9-1.3 1.2zM301.9 94.3c-.4.5-1.1.9-1.9 1.3 0-.1-.1-.2-.2-.4.7-.2 1.3-.6 1.8-1 .4-.4.7-1 1-1.8h-3.1V92h3.3l.3.3c-.4.9-.8 1.6-1.2 2zm1.6-2.4c-.1.1-.2.2-.3.2-.1 0-.3 0-.4-.1-.1-.1-.1-.2-.1-.4 0-.1 0-.3.1-.3.1-.1.2-.1.4-.1.1 0 .2.1.3.1.1.1.1.2.1.3.1.1 0 .2-.1.3zm-.1-.5c-.1-.1-.1-.1-.2-.1-.2 0-.3.1-.3.3 0 .1 0 .1.1.2s.1.1.2.1.1 0 .2-.1c0 0 .1-.1.1-.2s-.1-.2-.1-.2zM285.7 195.2c-.7.8-1.7 1.3-2.9 1.7-.1-.2-.2-.3-.3-.6 1.1-.3 1.9-.7 2.6-1.4.6-.6 1.1-1.4 1.5-2.5h-2.3c-.5.8-1.1 1.5-1.8 2.1-.1-.1-.3-.3-.5-.4.6-.5 1-1 1.4-1.5.3-.4.6-1 1-1.8l.6.2c-.1.2-.3.5-.5.9h2.4l.1-.1.4.4c-.5 1.4-1.1 2.3-1.7 3zM286.6 202.4v-.5h-3.8v.5h-.6v-4.9h4.9v4.9h-.5zm0-4.4h-3.8v3.3h3.8V198zM284.5 208.7v-5.8h.5v5.8h-.5zM285.6 213.2l-.4-.4c.6-.5 1.2-1.1 1.6-1.6l-2.8.4v2.4c0 .3.2.5.7.6h1.1c.6 0 1.2 0 1.7-.1v.6c-.7 0-1.3.1-1.9.1-.6 0-1.1-.1-1.4-.1-.6-.2-.8-.5-.8-1v-2.4l-1.7.3-.1-.6 1.8-.3v-1.9h.6v1.8l3-.4.1-.1.5.5c-.8.9-1.4 1.6-2 2.2zm1.8-2.8c-.2-.2-.5-.5-.8-.7l.3-.3c.4.2.6.5.8.7l-.3.3zm.5-.6c-.2-.2-.5-.5-.8-.7l.3-.3c.4.2.6.5.8.7l-.3.3zM284.2 217.6c-.2-.4-.4-.8-.7-1.3l.4-.3c.3.4.5.8.8 1.3l-.5.3zm3.3.2c-.3.6-.7 1.2-1.3 1.6-.4.3-1 .7-1.8 1-.1-.2-.2-.3-.3-.5.7-.2 1.2-.4 1.6-.7.4-.3.8-.8 1.2-1.3.3-.5.5-1.1.7-1.9l.5.1c-.1.7-.4 1.3-.6 1.7zm-1.9-.6c-.2-.4-.4-.9-.6-1.3l.4-.2c.3.5.5.9.6 1.3l-.4.2zM287.1 224.7c-.8-.5-1.8-.9-3-1.4v3.8h-.6v-6.3h.6v2c1.2.4 2.3.8 3.4 1.4l-.4.5zM73.3 118.3c-.2.5-.5 1-.9 1.4l-.3-.3c.6-.7 1-1.6 1.4-2.8l.4.2c-.2.6-.4 1.1-.6 1.5zm2.7 1.2c-.3-1-.8-1.9-1.4-2.8l.3-.2c.6.9 1.1 1.9 1.5 2.9l-.4.1zM78.9 118.9c-.5.4-1.2.8-1.9 1.1l-.2-.4c1.3-.5 2.5-1.3 3.5-2.5l.3.3c-.7.6-1.2 1.1-1.7 1.5zm-1-1.6c-.4-.3-.7-.6-1.1-.8l.2-.3c.4.2.8.5 1.1.8l-.2.3zM84.4 118.3c0 .5-.1.9-.1 1.2 0 .1-.1.2-.2.3-.1.1-.4.1-.8.2 0-.1-.1-.2-.1-.4h.4c.1 0 .3-.1.3-.2.1-.1.1-.4.1-.8v-1.1h-1.2c-.1.7-.3 1.2-.5 1.6-.3.4-.7.8-1.2 1.1l-.3-.3c.5-.3.9-.6 1.1-1 .3-.4.4-.8.5-1.4h-1.3v-.5h1.3v-1h.4v1h1.6v1.3zm0-1.5-.5-.5.2-.2c.2.2.4.3.6.5l-.3.2zm.3-.4-.5-.5.2-.2c.2.2.4.3.6.5l-.3.2zM84.9 118.2v-.3h3.9v.3h-3.9zM90.1 118.3c-.2.5-.5 1-.9 1.4l-.3-.3c.6-.7 1-1.6 1.4-2.8l.4.2c-.3.6-.4 1.1-.6 1.5zm2.7 1.2c-.3-1-.8-1.9-1.4-2.8l.3-.2c.6.9 1.1 1.9 1.5 2.9l-.4.1zm.3-2.7c-.1.1-.2.2-.3.2-.1 0-.3 0-.4-.1-.1-.1-.1-.2-.1-.4 0-.1 0-.3.1-.3.1-.1.2-.1.4-.1.1 0 .2 0 .3.1.1.1.1.2.1.3s0 .2-.1.3zm-.1-.5s-.1-.1-.2-.1c-.2 0-.3.1-.3.3 0 .1 0 .1.1.2s.1.1.2.1.1 0 .2-.1c0-.1.1-.1.1-.2-.1-.1-.1-.2-.1-.2zM95.8 117.4v2.7h-.4v-2.4c-.6.5-1.3.9-1.8 1.1-.1-.1-.1-.3-.2-.4.6-.2 1.2-.6 1.8-1.1.6-.4 1.1-.9 1.5-1.4l.4.3c-.5.5-.9.9-1.3 1.2zM99.9 118.8c-.4.5-1.1.9-1.9 1.3 0-.1-.1-.2-.2-.4.7-.2 1.3-.6 1.8-1 .4-.4.7-1 1-1.8h-3.1v-.4h3.3l.3.3c-.5.9-.9 1.6-1.2 2zm1.6-2.4c-.1.1-.2.2-.3.2-.1 0-.3 0-.4-.1-.1-.1-.1-.2-.1-.4 0-.1 0-.3.1-.3.1-.1.2-.1.4-.1.1 0 .2.1.3.1.1.1.1.2.1.3 0 .1 0 .2-.1.3zm-.1-.5c-.1-.1-.1-.1-.2-.1-.2 0-.3.1-.3.3 0 .1 0 .1.1.2s.1.1.2.1.1 0 .2-.1c0 0 .1-.1.1-.2-.1-.1-.1-.2-.1-.2zM73.6 130.9c-.7.8-1.7 1.3-2.9 1.7-.1-.2-.2-.3-.3-.6 1.1-.3 1.9-.7 2.6-1.4.6-.6 1.1-1.4 1.5-2.5h-2.3c-.5.8-1.1 1.5-1.8 2.1-.1-.1-.3-.3-.5-.4.6-.5 1-1 1.4-1.5.3-.4.6-1 1-1.8l.6.2c-.1.2-.3.5-.5.9h2.4l.1-.1.4.4c-.5 1.3-1.1 2.3-1.7 3zM80.2 132.2v-.5h-3.8v.5h-.6v-4.9h4.9v4.9h-.5zm0-4.4h-3.8v3.3h3.8v-3.3zM81.2 129.8v-.5H87v.5h-5.8zM91.2 130.5l-.4-.4c.6-.5 1.2-1.1 1.6-1.6l-2.8.4v2.4c0 .3.2.5.7.6h1.1c.6 0 1.2 0 1.7-.1v.6c-.7 0-1.3.1-1.9.1-.6 0-1.1-.1-1.4-.1-.6-.2-.8-.5-.8-1V129l-1.7.3-.1-.6 1.8-.3v-1.9h.6v1.8l3-.4.1-.1.5.5c-.8.9-1.5 1.7-2 2.2zm1.7-2.8c-.2-.2-.5-.5-.8-.7l.3-.3c.4.2.6.5.8.7l-.3.3zm.6-.6c-.2-.2-.5-.5-.8-.7l.3-.3c.4.2.6.5.8.7l-.3.3zM94.6 130.2c-.2-.4-.4-.8-.7-1.3l.4-.3c.3.4.5.9.8 1.3l-.5.3zm3.3.2c-.3.6-.7 1.2-1.3 1.6-.4.3-1 .7-1.8 1-.1-.2-.2-.3-.3-.5.7-.2 1.2-.4 1.6-.7.4-.3.8-.8 1.2-1.3.3-.5.5-1.1.7-1.9l.5.1c-.1.7-.3 1.3-.6 1.7zm-1.9-.6c-.1-.4-.4-.9-.6-1.3l.4-.2c.3.5.5.9.6 1.3l-.4.2zM103.3 130.4c-.8-.5-1.8-.9-3-1.4v3.8h-.6v-6.3h.6v2c1.2.4 2.3.8 3.4 1.4l-.4.5zM242.9 88.3c-.5.7-1.2 1.2-2.4 1.6-.1-.2-.2-.4-.2-.5.9-.3 1.6-.6 2-1.2.5-.6.7-1.4.8-2.4H240v1.7h-.4v-2.1h1.8v-1.2h.4v1.2h1.8c0 1.3-.2 2.2-.7 2.9zM247 87v2.3c0 .2 0 .4-.1.5-.1.1-.3.1-.7.2 0-.2-.1-.4-.1-.5h.3c.1 0 .2-.1.2-.2v-1.8c-.6.8-1.3 1.4-2.1 1.9-.1-.1-.2-.3-.3-.4.9-.5 1.7-1.2 2.2-2h-2v-.4h2.1v-1.1h.4v1.1h1.4v.4H247zM250.1 87.2c-.4-.2-.7-.4-1.1-.6l.2-.4c.4.2.8.3 1.1.5l-.2.5zm1.7 1.2c-.6.5-1.4.9-2.3 1.3l-.2-.6c1.7-.6 3-1.6 4.1-3.1.1.1.2.3.3.4-.7.8-1.3 1.5-1.9 2zm-1.1-2.8c-.4-.3-.7-.5-1.1-.7l.2-.4c.5.3.8.5 1.1.7l-.2.4zM254.2 89.5v-.4h2.6l.2-2.2h-2.3v-.4h2.7l-.2 2.7h1.1v.4h-4.1zM245.5 94.5c-.5.4-1 .8-1.6 1.1-.4.2-.7.4-.9.6l-.4-.4V91.1h.4v4.3c.8-.4 1.4-.8 1.9-1.2.4-.4.9-.9 1.5-1.6.1.1.2.3.3.4-.4.6-.8 1.1-1.2 1.5zM247.9 94.3c-.1-.3-.3-.7-.6-1.2l.3-.2.6 1.2-.3.2zm2.7.2c-.3.6-.6 1-1 1.4-.3.3-.8.6-1.4.9-.1-.2-.1-.3-.2-.4.5-.2 1-.4 1.3-.7.4-.3.7-.7.9-1.2.2-.4.4-1 .5-1.7l.4.1c-.1.6-.3 1.2-.5 1.6zm-1.5-.6c-.1-.4-.3-.8-.5-1.2l.4-.2c.2.5.4.8.5 1.2l-.4.2zM255.2 94.4c-.6-.4-1.4-.8-2.4-1.2v3.3h-.4v-5.6h.4v1.8c.9.3 1.8.7 2.7 1.2l-.3.5zM278.3 81.3v-1.4h.4v1.4h.7v.4h-.7v.5l.3.3c.1.1.3.2.4.3-.1.1-.2.3-.3.4-.2-.1-.3-.2-.4-.4 0 0-.1 0-.1-.1v3h-.4v-3l-.3.6c-.2.3-.3.5-.4.6-.1-.2-.1-.3-.3-.4.2-.3.4-.6.5-.9.1-.3.3-.6.4-1h-.7v-.4h.9zm2.8-1.2v5c0 .1 0 .2-.1.3-.1.1-.3.1-.7.2 0-.2-.1-.3-.1-.4h.3c.1 0 .2 0 .2-.1v-1.5h-.7c0 .2-.1.4-.1.6-.1.6-.3 1.1-.5 1.5-.1-.2-.2-.3-.3-.4.2-.4.4-.8.5-1.3.1-.4.1-.9.1-1.6v-2.2h1.4zm-.4 3.1v-1.1h-.6v1.1h.6zm0-1.5v-1.1h-.6v1.1h.6zm2.5-1.6v5.1c0 .1 0 .2-.1.3-.1.1-.3.1-.7.1 0-.2-.1-.3-.1-.4h.3c.1 0 .2 0 .2-.1v-1.6h-.8c0 .3 0 .6-.1.8-.1.5-.2 1-.4 1.4-.1-.2-.2-.3-.3-.4.1-.4.3-.8.3-1.2 0-.4.1-.9.1-1.5v-2.5h1.6zm-.5 3.1v-1.1h-.7v1.1h.7zm0-1.5v-1.1h-.7v1.1h.7zM320.2 57.4V56h.4v1.4h.7v.4h-.7v.5l.3.3c.1.1.3.2.4.3-.1.1-.2.3-.3.4-.2-.1-.3-.2-.4-.4 0 0-.1 0-.1-.1v3h-.4v-3l-.3.6c-.2.3-.3.5-.4.6-.1-.2-.1-.3-.3-.4.2-.3.4-.6.5-.9.1-.3.3-.6.4-1h-.7v-.4h.9zm2.8-1.1v5c0 .1 0 .2-.1.3-.1.1-.3.1-.7.2 0-.2-.1-.3-.1-.4h.3c.1 0 .2 0 .2-.1v-1.5h-.7c0 .2-.1.4-.1.6-.1.6-.3 1.1-.5 1.5-.1-.2-.2-.3-.3-.4.2-.4.4-.8.5-1.3.1-.4.1-.9.1-1.6v-2.2h1.4zm-.4 3v-1.1h-.6v1.1h.6zm0-1.5v-1.1h-.6v1.1h.6zm2.4-1.5v5.1c0 .1 0 .2-.1.3-.1.1-.3.1-.7.1 0-.2-.1-.3-.1-.4h.3c.1 0 .2 0 .2-.1v-1.6h-.7c0 .3 0 .6-.1.8-.1.5-.2 1-.4 1.4-.1-.2-.2-.3-.3-.4.1-.4.3-.8.3-1.2 0-.4.1-.9.1-1.5v-2.5h1.5zm-.4 3v-1.1h-.7v1.1h.7zm0-1.5v-1.1h-.7v1.1h.7zM286.7 161.6c-.1-.1-.3-.3-.5-.4.5-.6 1-1.3 1.4-2.2l.5.3c-.4.8-.9 1.6-1.4 2.3zm2.8-3.4v4.2h-.5v-4.2h-2.7v-.5h2.7v-1.6h.5v1.6h3v.5h-3zm2.5 3.2c-.6-.6-1.2-1.3-1.7-2.2l.5-.3c.5.9 1 1.6 1.7 2.2-.2 0-.4.2-.5.3zM292.7 159.5v-.5h5.8v.5h-5.8zM300.6 159.8c-.3.9-.8 1.7-1.6 2.4-.1-.2-.2-.3-.4-.5.6-.4 1-.9 1.3-1.5.2-.5.3-1.2.4-2v-1.4h.6c-.1 1.5-.2 2.4-.3 3zm1.9 2.3-.4-.4.1-.1v-5.2h.6v4.8c.8-.6 1.5-1.3 2.3-2.3l.4.4c-1.1 1.2-2.1 2.1-3 2.8zM289.9 165.9v3.4c.3-.1.6-.2 1-.4V165h.5v6.5h-.5v-2.2c-.7.3-1.3.5-1.9.7l-.1-.5c.2 0 .4-.1.6-.2v-3.6h.4zm5.5-.2c-.4 1.4-.8 2.5-1.2 3.3-.1.1-.2.3-.3.4.4.6 1 1.1 1.8 1.6-.1.1-.3.2-.4.4-.7-.4-1.3-1-1.7-1.6-.5.6-1.1 1.1-1.7 1.6-.1-.2-.2-.3-.3-.5.7-.5 1.3-1 1.8-1.6-.1-.1-.1-.3-.2-.4-.4-.9-.6-1.9-.7-3.1h-.7v-.5H295.1l.3.4zm-1.9 3.3c0-.1.1-.1.1-.2.5-.8.8-1.8 1.1-2.9h-1.9c.1 1.2.3 2.3.7 3.1zM297.5 165.1l-.7 1.4c.2.1.3.2.4.4l.7-1.2.5.3-1.3 2.2c.3 0 .6-.1.9-.1-.1-.1-.1-.3-.2-.4l.4-.2c.2.4.3.8.5 1.2l-.5.2c0-.1-.1-.2-.1-.4-.2 0-.4.1-.6.1v3h-.5v-2.9c-.4.1-.8.1-1.2.1l-.1-.5h.8l.5-.9c-.4-.4-.8-.7-1.2-.9l.3-.4c.1.1.2.1.3.2l.6-1.5.5.3zm-.8 4.3c0 .6-.2 1.2-.4 1.7l-.5-.1c.2-.5.3-1.1.4-1.7l.5.1zm1.9 1.2c-.1 0-.3 0-.5.1-.1-.4-.2-.8-.2-1.4l.5-.1c0 .6.1 1 .2 1.4zm1.7-4.2V165h.5v1.5h1.6v4.5c0 .3-.1.4-.2.5-.1.1-.4.1-.7.2 0-.2-.1-.4-.2-.6h.5c.1 0 .1 0 .1-.1v-4h-1.1c0 .4 0 .7-.1 1 .4.5.8 1 1.1 1.5l-.4.4c-.2-.4-.5-.8-.8-1.3-.1.5-.4 1-.8 1.6-.1-.1-.3-.2-.4-.3v1.9h-.5v-5.2h1.4zm-.2 1.9c.1-.3.2-.8.2-1.4h-.9v2.8c.3-.5.6-.9.7-1.4zM499.6 39.1l-.1.1c.5.5 1 .9 1.6 1.2.6.3 1.2.6 1.9.8-.1.1-.2.2-.4.5-.6-.2-1.3-.5-1.9-.9-.5-.3-1.1-.7-1.6-1.2-.4.4-.9.8-1.4 1.1-.7.5-1.3.8-1.7 1-.1-.2-.3-.3-.4-.4.7-.3 1.3-.6 1.8-1 .6-.4 1.1-.9 1.7-1.4l.5.2zm-.2 1.3v.8h1.9V44h-2.1c.2.3.5.6.9.9.7-.3 1.3-.7 1.7-1l.4.5c-.5.3-1.1.6-1.6.9.6.3 1.3.5 2.1.6l-.3.6c-1-.2-1.9-.5-2.5-1-.6-.4-1-.8-1.3-1.4h-1.2v1.5c.5-.1 1.1-.1 1.7-.2v.5c-1.2.2-2.4.3-3.5.5l-.1-.6c.4-.1.9-.1 1.4-.2v-4.3h1.9v-.8h.6zm1.4 2v-.6h-3.3v.6h3.3zm0 1.2v-.7h-3.3v.7h3.3zM507.5 41.8c.2-.2.4-.5.6-.7l.6.2c-.1.2-.3.4-.4.5h3.6v.5h-2.3c.3.2.5.5.9.7.4.3 1 .5 1.8.8-.2.2-.4.4-.4.5-.2-.1-.3-.1-.5-.2v2.2h-.5v-.4h-1.3v.4h-.5v-2.5h1.8c-.3-.1-.5-.3-.7-.4-.4-.3-.8-.6-1-1H508c-.3.3-.5.5-.8.7-.3.3-.7.5-1.1.7h1.9v2.5h-.5v-.4H506v.4h-.5v-2.2c-.2.1-.4.2-.5.3-.1-.2-.2-.3-.4-.5.9-.3 1.6-.7 2.1-1.1.2-.1.3-.3.5-.4h-2.4v-.5h2.7zm-2.1-.6v-2h2.3v2h-2.3zm.5-.6h1.2v-1h-1.2v1zm1.4 4.8v-1.1H506v1.1h1.3zm1.6-4.2v-2h2.4v2h-2.4zm.6-.6h1.3v-1h-1.3v1zm1.3 4.8v-1.1h-1.3v1.1h1.3zM514.8 40.7V39h.5v1.8h.9v.5h-.9v.7l.4.4c.1.1.3.2.5.4-.1.2-.2.3-.3.5-.2-.2-.4-.3-.5-.4l-.1-.1v3.7h-.5v-3.8c-.1.3-.2.5-.3.8-.2.4-.4.7-.5.8-.1-.2-.2-.4-.3-.5.3-.4.5-.8.7-1.2.2-.3.3-.8.5-1.3h-.9v-.5h.8zm3.5-1.4v6.2c0 .2 0 .3-.1.4-.1.1-.4.2-.9.2 0-.2-.1-.4-.2-.6h.4c.1 0 .2 0 .2-.1v-1.8h-.8c0 .3-.1.6-.1.8-.1.7-.3 1.3-.6 1.9-.1-.2-.2-.4-.4-.5.3-.5.5-1 .6-1.6.1-.5.1-1.2.1-2v-2.8h1.8zm-.5 3.8v-1.4h-.8v1.4h.8zm0-1.9v-1.4h-.8v1.4h.8zm3-1.9v6.4c0 .2 0 .3-.1.4-.1.1-.4.1-.9.2 0-.2-.1-.4-.2-.5h.4c.2 0 .2 0 .2-.1v-2h-.9c0 .4-.1.8-.1 1.1-.1.7-.3 1.2-.5 1.8-.1-.2-.2-.4-.4-.5.2-.4.3-1 .4-1.5 0-.5.1-1.1.1-1.8v-3.2h2zm-.5 3.8v-1.4h-.9v1.4h.9zm0-1.9v-1.4h-.9v1.4h.9zM337.7 88.7c-.4-.5-.7-.9-.9-1.3-.3-.5-.4-1.1-.4-1.7 0-.6.1-1.2.4-1.7.2-.4.5-.8.9-1.3l.3.3c-.4.4-.7.8-.8 1.2-.2.5-.3.9-.3 1.5 0 .5.1 1 .3 1.5.2.4.4.8.8 1.2l-.3.3zM340.3 84.4V82.7h.4V84.4h2.4v.4h-2.2c.1.7.4 1.3.7 1.9.4.7.9 1.1 1.5 1.4-.1.1-.2.3-.3.4-.6-.4-1.2-1-1.6-1.7-.3-.5-.5-1.1-.6-1.6-.1.4-.2.8-.3 1.1-.3.7-.9 1.5-1.9 2.3-.1-.2-.2-.3-.3-.4.8-.5 1.4-1.1 1.7-1.8.2-.5.4-1 .5-1.6h-2.1v-.4h2.1zM345.3 83.3v.4h-.7v1.2h.6v.4h-.6v1.5c.2-.1.5-.2.7-.3v.5l-1.8.6-.1-.5c.2-.1.5-.1.8-.2v-1.6h-.7v-.4h.7v-1.2h-.7v-.4h1.8zm1.7 2.6v.8h1.2v.4H347v.9h1.4v.4H345V88h1.6v-.9h-1.1v-.4h1.1v-.8h-1.1v-3h2.6v3H347zm-1.2-1.7h.8v-.9h-.8v.9zm.8.4h-.8v.9h.8v-.9zm.4-.4h.8v-.9h-.8v.9zm0 .4v.9h.8v-.9h-.8zM353.7 83.1v.4h-2.6c-.3.8-.5 1.4-.8 1.9h2.9v3.2h-.4v-.4h-2.5v.5h-.3V86l-.9 1.2c-.1-.1-.2-.3-.3-.4.5-.5 1-1 1.3-1.6.3-.5.5-1.1.7-1.7H349v-.4h4.7zm-.9 4.6v-1.9h-2.5v1.9h2.5zM356.1 83.9v.4h-2v-.4h2zm-.3-.9v.4h-1.5V83h1.5zm0 1.8v.4h-1.5v-.4h1.5zm0 .8v.4h-1.5v-.4h1.5zm.1.9v1.7h-1.2v.4h-.4v-2.1h1.6zm-.4 1.3v-.9h-.8v.9h.8zM359 83v5.1c0 .2 0 .3-.1.4-.1.1-.3.1-.5.1 0-.1-.1-.3-.1-.4h.4s.1 0 .1-.1v-4.7h-1.9v2.5c0 1.1-.2 2-.5 2.7-.1-.2-.2-.3-.3-.4.3-.6.4-1.3.4-2.3V83h2.5zm-1.5 1.2v-.7h.3v.7h.5v.4h-.5v.7h.6v.3h-1.5v-.3h.6v-.7h-.5v-.4h.5zm.7 1.9v1.5h-.9v.4h-.3v-1.9h1.2zm-.3 1.1v-.8h-.6v.8h.6zM362.3 86.8c-.5.7-1.3 1.2-2.2 1.7-.1-.1-.1-.3-.3-.4.8-.3 1.6-.9 2.2-1.6-.3-.3-.7-.6-1-.9l.2-.3c.4.3.7.6 1.1.9.3-.5.6-1.1.9-1.7h-1.8c-.5.8-1 1.4-1.6 1.9-.1-.2-.2-.3-.3-.4.5-.4.9-.8 1.2-1.2.3-.4.5-.9.8-1.6l.5.2c-.1.2-.2.4-.3.7h1.8l.3.3c-.5.9-1 1.8-1.5 2.4zM366.9 84.8v3.6h-.4v-3.2c-.7.6-1.4 1.1-2.1 1.5-.1-.2-.1-.3-.2-.5.7-.3 1.3-.8 2-1.4.6-.6 1.2-1.2 1.7-1.9l.4.4c-.6.6-1 1.1-1.4 1.5zM370 86.2c-.2.8-.6 1.5-1.2 2.1-.1-.2-.2-.3-.3-.4.4-.4.8-.8 1-1.4.2-.4.3-1 .3-1.7v-1.2h.4c0 1.2-.1 2-.2 2.6zm1.4 2-.3-.4.1-.1v-4.6h.4v4.3c.6-.5 1.2-1.2 1.7-2.1l.3.3c-.7 1.1-1.4 2-2.2 2.6zM374.9 87.4c-.2.4-.5.8-.9 1.3l-.3-.3c.4-.4.7-.8.8-1.2.2-.5.3-.9.3-1.5 0-.5-.1-1-.3-1.5-.2-.4-.5-.8-.8-1.2l.3-.3c.4.5.7.9.9 1.3.2.5.4 1.1.4 1.7 0 .6-.2 1.2-.4 1.7zM389.6 81.9l.2 2.4-.5.1-.2-2.4-2.2.3-.1-.5 2.2-.3V80l-1.7.2v-.5l1.7-.2-.1-1.4.5-.1.1 1.4 1.7-.2v.5l-1.7.2.1 1.4 2.1-.3.1.5-2.2.4zM392.7 81.8c-.1-.4-.3-.8-.6-1.3l.3-.3c.2.4.4.9.6 1.3l-.3.3zm2.6.2c-.3.6-.6 1.2-1 1.6-.3.3-.8.7-1.4 1-.1-.2-.1-.3-.2-.5.5-.2 1-.4 1.3-.7.4-.3.7-.8.9-1.3.2-.5.4-1.1.5-1.9l.4.1c-.1.7-.3 1.3-.5 1.7zm-1.5-.6c-.1-.4-.3-.9-.5-1.3l.4-.2c.2.5.4.9.5 1.3l-.4.2zM399 80.9c0 1-.2 1.7-.5 2.2-.3.5-.8.9-1.5 1.3-.1-.2-.2-.3-.3-.5.7-.2 1.1-.6 1.4-1 .3-.4.4-1.1.5-2h-2.4v-.6h2.4V79c-.7.1-1.3.2-1.8.3 0-.2-.1-.3-.1-.5 1.3-.2 2.5-.4 3.6-.7l.2.5c-.5.1-.9.3-1.4.4v1.4h2.3v.6H399zM404.1 82.5c-.6.6-1.4 1.2-2.3 1.7l-.3-.7c1.6-.7 3-2 4.2-3.8.1.2.2.3.3.4-.6 1-1.3 1.8-1.9 2.4zm-1.2-2.3c-.4-.5-.9-.9-1.3-1.2l.3-.5c.5.4.9.8 1.3 1.2l-.3.5zM386.6 88.2c-.3.8-.6 1.5-1 2.1-.1-.2-.2-.3-.4-.4.7-1 1.2-2.4 1.6-4.2l.4.2c-.2.9-.4 1.7-.6 2.3zm3.3 1.9c-.4-1.5-.9-2.9-1.6-4.3l.4-.3c.7 1.4 1.3 2.8 1.8 4.3l-.6.3zm.3-4.1c-.1.2-.2.2-.4.2s-.3-.1-.4-.2c-.1-.1-.2-.3-.2-.5s.1-.4.2-.5c.1-.1.3-.2.4-.2.2 0 .3.1.4.2.1.1.2.3.2.5s-.1.4-.2.5zm-.1-.8c-.1-.1-.1-.1-.2-.1-.2 0-.3.1-.3.4 0 .1 0 .2.1.3.1.1.1.1.2.1s.2 0 .2-.1c.1-.1.1-.2.1-.3-.1-.1-.1-.2-.1-.3zM393.1 89.1c-.6.6-1.4 1.2-2.3 1.7l-.3-.7c1.6-.7 3-2 4.2-3.8.1.2.2.3.3.4-.6 1.1-1.3 1.8-1.9 2.4zm-1.2-2.3c-.4-.5-.9-.9-1.3-1.2l.3-.5c.5.4.9.8 1.3 1.2l-.3.5zM398.9 88.6c-.6-.5-1.4-.9-2.4-1.4V91h-.5v-6.3h.4v2c.9.4 1.8.8 2.7 1.4l-.2.5zM399.8 88.6v-3.5h.4v3.5h-.4zm3-2c0 .9-.1 1.6-.2 2.1-.1.6-.3 1-.6 1.3-.3.3-.8.6-1.4.9-.1-.2-.1-.4-.2-.6.9-.3 1.4-.7 1.7-1.2.2-.5.4-1.3.4-2.5v-1.9h.4l-.1 1.9zM403.3 88.1v-.5h4.6v.5h-4.6zM393.7 97.8c-.4-.5-.7-.9-.8-1.3-.2-.5-.4-1.1-.4-1.7 0-.6.1-1.2.4-1.7.2-.4.5-.8.8-1.3l.3.3c-.4.4-.6.8-.8 1.2-.2.5-.3.9-.3 1.5 0 .5.1 1 .3 1.5.2.4.4.8.8 1.2l-.3.3zM394.8 93.2v-1.4h.3v1.4h.6v.4h-.6v.5l.3.3.3.3c-.1.1-.1.3-.2.4-.1-.1-.3-.2-.3-.4l-.1-.1v3h-.3v-3c-.1.2-.1.4-.2.6-.1.3-.2.5-.3.6 0-.2-.1-.3-.2-.4.2-.3.3-.6.4-.9.1-.3.2-.6.3-1h-.6v-.4h.6zm2.2-1.1v5c0 .1 0 .2-.1.3-.1.1-.2.1-.5.2 0-.2 0-.3-.1-.4h.2c.1 0 .1 0 .1-.1v-1.5h-.5c0 .2 0 .4-.1.6-.1.6-.2 1.1-.4 1.5-.1-.2-.2-.3-.3-.4.2-.4.3-.8.4-1.3.1-.4.1-.9.1-1.6v-2.2h1.2zm-.3 3V94h-.5v1.1h.5zm0-1.5v-1.1h-.5v1.1h.5zm1.9-1.5v5.1c0 .1 0 .2-.1.3-.1.1-.3.1-.6.1 0-.2 0-.3-.1-.4h.3c.1 0 .2 0 .2-.1v-1.6h-.6c0 .3 0 .6-.1.8-.1.5-.2 1-.3 1.4-.1-.2-.2-.3-.3-.4l.3-1.2c0-.4.1-.9.1-1.5v-2.5h1.2zm-.3 3V94h-.6v1.1h.6zm0-1.5v-1.1h-.6v1.1h.6zM400.1 96.5c-.2.4-.5.8-.8 1.3l-.3-.3c.4-.4.6-.8.8-1.2.2-.5.3-.9.3-1.5 0-.5-.1-1-.3-1.5-.2-.4-.4-.8-.8-1.2l.3-.3c.4.5.7.9.8 1.3.2.5.4 1.1.4 1.7-.1.6-.2 1.2-.4 1.7zM405 305.6c-.2.7-.4 1.3-.6 1.8l-.2-.2c.2-.5.5-1.1.6-1.8l.2.2zm-.1-1.4-.1.3c-.2-.1-.4-.3-.6-.4l.1-.3c.2.1.4.3.6.4zm.2-1.3-.2.3c-.2-.2-.4-.3-.5-.5l.2-.3c.2.2.4.3.5.5zm2.7 4h.3v.4h-3.2v-.4h.5v-1.7h2.4v1.7zm-2.2-2.2v-2.2h2v2.2h-2zm.5 2.2v-1.3h-.4v1.3h.4zm-.2-3.5h1.4v-.5h-1.4v.5zm0 .3v.6h1.4v-.6h-1.4zm.9 3.2v-1.3h-.4v1.3h.4zm.7 0v-1.3h-.5v1.3h.5zM409.6 304c-.1.8-.3 1.3-.4 1.7-.2.5-.4.9-.8 1.3-.1-.1-.1-.3-.2-.3.3-.3.5-.7.7-1.1.2-.4.3-.9.4-1.4h-1v-.4h1.1l.2.2zm.6-1.7v.9c.1.5.2.9.4 1.3l1-1 .2.3c-.3.4-.7.8-1 1.1.1.1.1.3.2.4.3.6.7 1 1.1 1.3-.1.1-.2.2-.2.4-.5-.3-.8-.8-1.1-1.4-.2-.4-.3-.8-.5-1.2v2.7c0 .1-.1.2-.2.3-.1.1-.3.1-.5.1 0-.1 0-.3-.1-.4h.4c.1 0 .1 0 .1-.1v-4.6h.2z"/><path d="m412.3 306.6-.3-.3c.3-.5.6-1 .8-1.7l.3.2c-.2.7-.5 1.3-.8 1.8zm1.6-2.6v3.3h-.3V304H412v-.4h1.6v-1.3h.3v1.3h1.7v.4h-1.7zm1.5 2.5c-.4-.5-.7-1-1-1.7l.3-.3c.3.7.6 1.2 1 1.7l-.3.3zm-.3-3.1c-.1-.2-.3-.4-.5-.6l.2-.2.5.5-.2.3zm.3-.4c-.1-.2-.3-.4-.5-.6l.2-.2.5.5-.2.3zM417.7 304.1v3.2h-.3v-2.8c-.6.6-1.1 1-1.6 1.3 0-.2-.1-.3-.2-.4.5-.3 1-.7 1.6-1.2.5-.5.9-1.1 1.3-1.7l.3.4c-.4.4-.8.8-1.1 1.2zM421.1 306.3a5 5 0 0 1-1.6 1.1c0-.2-.1-.3-.2-.4.6-.2 1.1-.4 1.4-.8.4-.4.7-.9 1-1.7h-2.8v-.5h3l.2.3c-.3.9-.7 1.6-1 2zm-1.8-3.2v-.4h2.3v.4h-2.3zM422.1 305.1v-.4h3.4v.4h-3.4zM432.6 313c-.1.2-.3.3-.4.4h1.4l.2.3c-.6.6-1.1 1.1-1.5 1.3-.5.3-1.2.7-2.1 1 0-.1-.1-.2-.2-.4.6-.2 1.2-.4 1.8-.8l-.6-.6.3-.2c.3.2.5.4.6.6.5-.3.9-.6 1.2-1h-1.5c-.1.1-.2.2-.3.2-.4.3-.9.5-1.3.7-.1-.1-.1-.2-.2-.3.4-.1.8-.3 1.2-.6.4-.2.8-.6 1.1-.9l.3.3zm1 2c-.2.2-.5.4-.7.6h1.5l.2.3c-.5.6-1 1.1-1.6 1.4-.7.4-1.6.7-2.8.9-.1-.1-.1-.3-.2-.4.8-.1 1.6-.3 2.3-.6-.2-.2-.4-.4-.6-.7l.3-.2.7.7c.5-.3 1-.6 1.3-1.1h-1.7l-.1.1c-.5.3-1 .5-1.7.8l-.3-.3c.7-.2 1.2-.4 1.7-.7.4-.2.8-.6 1.3-1l.4.2zM439.4 317.9h-.4v-.3h-2.5v.4h-.4v-4.7h3.3v4.6zm-.4-3.3v-.9h-2.5v.9h2.5zm0 1.3v-1h-2.5v1h2.5zm0 1.3v-1h-2.5v1h2.5zM442.2 313l-.2.9h.7v3.8h-.4v-.3h-1v.4h-.3v-4h.7l.1-1 .4.2zm.2 2.4v-1.2h-1v1.2h1zm0 1.6v-1.3h-1v1.3h1zm1.8-4c-.1.3-.2.6-.2.9h1.7v1.7c0 1.1 0 1.8-.1 2 0 .2-.1.3-.2.3-.2.1-.5.1-.8.1 0-.2-.1-.3-.2-.4h.6c.1 0 .2-.1.2-.2 0-.2.1-.9.1-1.8v-1.4h-1.4v.1c-.1.4-.3.7-.5 1.1-.1-.1-.2-.2-.3-.2.2-.4.4-.8.5-1.2.1-.4.2-.7.3-1.1l.3.1zm.5 3-.3.3c-.2-.2-.4-.5-.7-.8l.2-.3c.3.3.6.5.8.8zM426 323.5c-.5-.7-1-1.3-1.7-1.9-.6.7-1.4 1.3-2.4 1.9-.1-.2-.2-.3-.3-.4.8-.4 1.5-.8 2-1.3.4-.4.9-1.1 1.5-2h-2.9v-.4h3.2l.3.3c-.4.6-.7 1.2-1 1.6.7.6 1.3 1.2 1.8 1.9l-.5.3zM430.2 323.3v-.4h-2.9v.4h-.4v-3.8h3.8v3.8h-.5zm0-3.4h-2.9v2.6h2.9v-2.6zM431.7 321.8c-.1-.3-.3-.6-.6-1l.3-.2c.2.3.4.7.6 1l-.3.2zm2.6.2c-.3.5-.6.9-1 1.2-.3.3-.8.5-1.4.7-.1-.1-.1-.3-.2-.4.5-.2.9-.3 1.2-.6.3-.3.7-.6.9-1 .2-.4.4-.8.5-1.5l.4.1c0 .7-.2 1.1-.4 1.5zm-1.5-.5c-.1-.3-.3-.7-.5-1l.3-.1c.2.4.4.7.5 1l-.3.1zM438.1 322.3c-.5.6-1.2 1-2.3 1.5 0-.1-.1-.3-.2-.4.8-.3 1.5-.7 2-1.2s.9-1.2 1.2-2.1h-3.6v-.4h3.8l.3.3c-.4 1-.8 1.8-1.2 2.3zm1.9-2.9c-.1.1-.2.2-.4.2s-.3-.1-.4-.2c-.1-.1-.2-.2-.2-.4s.1-.3.2-.4c.1-.1.2-.2.4-.2s.3.1.4.2c.1.1.2.2.2.4-.1.2-.1.3-.2.4zm-.2-.6c-.1-.1-.1-.1-.2-.1-.2 0-.3.1-.3.3 0 .1 0 .2.1.2.1.1.1.1.2.1s.2 0 .2-.1c.1-.1.1-.1.1-.2 0 0 0-.1-.1-.2zM441.3 321.4c-.3-.2-.7-.4-1.1-.5l.2-.4c.4.1.8.3 1.1.5l-.2.4zm1.6 1.1c-.6.4-1.3.8-2.2 1.2l-.2-.5c1.6-.5 2.9-1.4 4-2.7l.3.3c-.6.7-1.3 1.2-1.9 1.7zm-1-2.5c-.4-.2-.7-.4-1-.6l.2-.4c.5.2.8.4 1.1.6l-.3.4zM447.6 322.3c-.6.5-1.3.9-2.3 1.3l-.3-.5c1.6-.5 2.9-1.5 4.1-3 .1.1.2.3.3.3-.6.9-1.2 1.5-1.8 1.9zm-1.2-1.8c-.4-.4-.9-.7-1.3-1l.3-.4c.5.3.9.6 1.3.9l-.3.5zM452.6 322.3c-.6.6-1.3 1-2.2 1.3-.1-.1-.1-.3-.2-.4.8-.2 1.5-.6 2-1.1.4-.4.8-1.1 1.2-2h-1.8c-.4.6-.8 1.2-1.4 1.6-.1-.1-.3-.2-.4-.3.5-.4.8-.8 1.1-1.2.2-.3.5-.8.8-1.4l.5.2c-.1.2-.2.4-.4.7h2l.3.3c-.5 1.1-1 1.8-1.5 2.3zM307.1 69.7v1h1.9v.4h-2.1l-.7 1.8c.2.2.4.4.6.7l1-1.7.4.3-1.7 2.8c.5-.1 1.1-.1 1.8-.2-.2-.3-.3-.5-.5-.8l.3-.3c.5.7.8 1.2 1 1.7l-.3.3c-.1-.2-.2-.4-.3-.5-1.4.2-2.6.4-3.6.4l-.1-.5c.4 0 .8 0 1.2-.1l.6-1c-.4-.5-1-1-1.6-1.4l.2-.4c.2.2.5.4.7.6l.6-1.6h-1.7v-.4h2v-1h.3zM311.4 69.9v2H310v3.7h-.3v-5.7h1.7zm-.4.9v-.4h-1v.4h1zm0 .7v-.4h-1v.4h1zm2.6-1.6V75c0 .2 0 .4-.1.4-.1.1-.3.1-.6.1 0-.2-.1-.3-.1-.5h.5c.1 0 .1 0 .1-.1v-3h-1.2l.3.2-.3.6h.7v.4h-1.1v.5h1.3v.4H312c.1.2.2.4.3.5.1.2.3.3.6.5-.1.1-.2.2-.2.4-.3-.2-.5-.4-.6-.6l-.3-.6c0 .1-.1.3-.1.4-.2.3-.5.6-.9.9-.1-.2-.1-.3-.3-.4.4-.2.7-.4.9-.7.1-.1.1-.2.1-.3h-1v-.4h1.1v-.5h-.9v-.4h.5c-.1-.2-.2-.3-.3-.5l.2-.3c.1.2.3.4.4.6l-.2.2h.6l.1-.8h-.2v-2h1.8zm-.3.5h-1v.4h1v-.4zm0 .7h-1v.4h1v-.4zM316.6 73.9c-.5.7-1.1 1.2-1.9 1.5 0-.1-.1-.3-.2-.5.7-.2 1.3-.6 1.7-1.2.4-.5.7-1.3 1-2.3h-1.6c-.3.7-.7 1.3-1.2 1.9-.1-.1-.2-.2-.3-.4.4-.4.7-.9.9-1.3.2-.4.4-.9.7-1.6l.4.2c-.1.2-.2.5-.3.8h1.6l.1-.1.2.3c-.3 1.2-.7 2.1-1.1 2.7zM321 75v-.5h-2.5v.5h-.4v-4.4h3.3V75h-.4zm0-3.9h-2.5v3h2.5v-3zM321.7 72.9v-.5h3.9v.5h-3.9zM328.1 73.9c-.5.7-1.1 1.2-1.9 1.5 0-.1-.1-.3-.2-.5.7-.2 1.3-.6 1.7-1.2.4-.5.7-1.3 1-2.3h-1.6c-.3.7-.7 1.3-1.2 1.9-.1-.1-.2-.2-.3-.4.4-.4.7-.9.9-1.3.2-.4.4-.9.7-1.6l.4.2c-.1.2-.2.5-.3.8H329l.2.3c-.3 1.1-.7 2-1.1 2.6zM210.6 279c0 .6-.1 1.1-.2 1.4 0 .2-.1.3-.2.4-.1.1-.4.1-1 .2 0-.1-.1-.3-.1-.4h.5c.2 0 .3-.1.4-.2.1-.2.1-.5.1-1v-1.3h-1.4c-.1.8-.3 1.4-.6 1.9s-.8.9-1.4 1.3c-.1-.1-.2-.3-.3-.4.6-.3 1-.7 1.3-1.1.3-.4.5-1 .6-1.7h-1.5v-.4h1.5v-1.2h.5v1.2h1.9l-.1 1.3zM211.2 278.9v-.4h4.5v.4h-4.5zM218.9 278.3c-.1.9-.2 1.5-.5 1.8-.2.3-.7.7-1.5 1-.1-.1-.2-.3-.3-.4.7-.2 1.1-.5 1.4-.8.2-.3.4-.9.4-1.6H216v-.4h5v.4h-2.1zm-2-1.3v-.4h3.3v.4h-3.3zM224.2 279.7c-.6.5-1.3.9-2.3 1.3l-.3-.5c1.6-.5 2.9-1.5 4.1-3l.3.3c-.6.9-1.3 1.5-1.8 1.9zm-1.2-1.8c-.4-.4-.9-.7-1.3-1l.3-.4c.5.3.9.6 1.3.9l-.3.5zM229.6 279.4c-.5.4-1 .7-1.5 1-.4.2-.7.4-.9.5l-.4-.3v-4.1h.4v3.7c.8-.4 1.4-.7 1.8-1.1.4-.3.9-.8 1.4-1.4l.3.3c-.3.6-.7 1-1.1 1.4zM231.3 278.9v-.4h4.5v.4h-4.5zM237.7 279.1c-.2.7-.6 1.3-1.2 1.9-.1-.1-.2-.3-.3-.4.5-.3.8-.7 1-1.2.2-.4.3-.9.3-1.5v-1.1h.4c0 1.1-.1 1.9-.2 2.3zm1.5 1.8-.3-.3.1-.1v-4h.4v3.8c.6-.4 1.2-1 1.8-1.8l.3.3c-.8.8-1.6 1.6-2.3 2.1zM245.1 280.7h-.4l-.8-3-.8 3h-.4l-.9-3.6h.4l.7 2.9.8-2.9h.4l.8 2.9.7-2.9h.4l-.9 3.6zM91.7 279c0 .6-.1 1.1-.2 1.4 0 .2-.1.3-.2.4-.1.1-.4.1-1 .2 0-.1-.1-.3-.1-.4h.5c.2 0 .3-.1.4-.2.1-.2.1-.5.1-1v-1.3h-1.4c-.1.8-.3 1.4-.6 1.9s-.8.9-1.4 1.3c-.1-.1-.2-.3-.3-.4.6-.3 1-.7 1.3-1.1.3-.4.5-1 .6-1.7H88v-.4h1.5v-1.2h.5v1.2h1.9l-.2 1.3zM92.3 278.9v-.4h4.5v.4h-4.5zM100 278.3c-.1.9-.2 1.5-.5 1.8-.2.3-.7.7-1.5 1-.1-.1-.2-.3-.3-.4.7-.2 1.1-.5 1.4-.8.2-.3.4-.9.4-1.6h-2.4v-.4h5v.4H100zm-1.9-1.3v-.4h3.3v.4h-3.3zM105.3 279.7c-.6.5-1.3.9-2.3 1.3l-.3-.5c1.6-.5 2.9-1.5 4.1-3 .1.1.2.3.3.3-.6.9-1.2 1.5-1.8 1.9zm-1.2-1.8c-.4-.4-.9-.7-1.3-1l.3-.4c.5.3.9.6 1.3.9l-.3.5zM110.8 279.4c-.5.4-1 .7-1.5 1-.4.2-.7.4-.9.5l-.4-.3v-4.1h.4v3.7c.8-.4 1.4-.7 1.8-1.1.4-.3.9-.8 1.4-1.4l.3.3c-.3.6-.7 1-1.1 1.4zM112.4 278.9v-.4h4.5v.4h-4.5zM118.9 279.1c-.2.7-.6 1.3-1.2 1.9-.1-.1-.2-.3-.3-.4.5-.3.8-.7 1-1.2.2-.4.3-.9.3-1.5v-1.1h.4c0 1.1-.1 1.9-.2 2.3zm1.4 1.8-.3-.3.1-.1v-4h.4v3.8c.6-.4 1.2-1 1.8-1.8l.3.3c-.7.8-1.5 1.6-2.3 2.1zM126.2 280.7h-.4l-.8-3-.8 3h-.4l-.9-3.6h.4l.7 2.9.8-2.9h.4l.8 2.9.7-2.9h.4l-.9 3.6zM330.4 277.9c0 .6-.1 1.1-.1 1.4 0 .2-.1.3-.2.4-.1.1-.3.1-.8.2 0-.1-.1-.3-.1-.4h.4c.1 0 .2-.1.3-.2.1-.2.1-.5.1-1V277h-1.1c-.1.8-.3 1.4-.5 1.9s-.6.9-1.1 1.3c-.1-.1-.1-.3-.2-.4.5-.3.8-.7 1-1.1.2-.4.4-1 .5-1.7h-1.2v-.4h1.2v-1.2h.4v1.2h1.5l-.1 1.3zM330.6 277.8v-.4h3.6v.4h-3.6zM336.6 277.3c-.1.9-.2 1.5-.4 1.8-.2.3-.6.7-1.2 1-.1-.1-.1-.3-.2-.4.5-.2.9-.5 1.1-.8.2-.3.3-.9.3-1.6h-1.9v-.4h4v.4h-1.7zm-1.6-1.4v-.4h2.6v.4H335zM340.6 278.6c-.5.5-1.1.9-1.8 1.3l-.2-.5c1.2-.5 2.3-1.5 3.2-3 .1.1.2.3.3.3-.6.9-1.1 1.5-1.5 1.9zm-1-1.8c-.3-.4-.7-.7-1-1l.2-.4c.4.3.7.6 1 .9l-.2.5zM342.6 279.4l-.3-.3c.3-.5.6-1 .9-1.7l.3.2c-.3.7-.6 1.3-.9 1.8zm1.7-2.6v3.3h-.3v-3.3h-1.7v-.4h1.7v-1.3h.3v1.3h1.8v.4h-1.8zm1.6 2.5c-.4-.5-.7-1-1-1.7l.3-.3c.3.7.7 1.2 1 1.7-.1 0-.2.2-.3.3zm-.3-3.1c-.1-.2-.3-.4-.5-.6l.2-.2.5.5-.2.3zm.3-.5c-.1-.2-.3-.4-.5-.6l.2-.2.5.5-.2.3zM346.7 278.1c-.1-.3-.3-.6-.5-1l.3-.2c.2.3.3.7.5 1l-.3.2zm2.1.2c-.2.5-.5.9-.8 1.2-.3.3-.6.5-1.1.7 0-.1-.1-.3-.2-.4.4-.2.7-.3 1-.6.3-.3.5-.6.7-1 .2-.4.3-.8.4-1.5l.3.1c0 .6-.2 1.1-.3 1.5zm-1.2-.5c-.1-.3-.2-.7-.4-1l.3-.1c.2.4.3.7.4 1l-.3.1zM351.7 278.6c-.5.6-1 1-1.8 1.3 0-.1-.1-.3-.2-.4.7-.2 1.2-.6 1.6-1.1.4-.4.7-1.1 1-2h-1.5c-.3.6-.7 1.2-1.1 1.6l-.3-.3c.4-.4.7-.8.9-1.2.2-.3.4-.8.6-1.4l.4.2c-.1.2-.2.4-.3.7h1.6l.2.3c-.3 1.1-.7 1.8-1.1 2.3zM356.5 279.8c-.4-.7-.8-1.3-1.3-1.9-.5.7-1.1 1.3-1.9 1.9-.1-.2-.2-.3-.3-.4.7-.4 1.2-.8 1.6-1.3.3-.4.7-1.1 1.2-2h-2.3v-.4h2.5l.2.3-.8 1.6c.6.6 1.1 1.2 1.5 1.9l-.4.3zM358.3 278h-.5l-.1-.1v-.6l.1-.1h.5l.1.1v.6l-.1.1zM362.6 277.9c0 .6-.1 1.1-.1 1.4 0 .2-.1.3-.2.4-.1.1-.3.1-.8.2 0-.1-.1-.3-.1-.4h.4c.1 0 .2-.1.3-.2.1-.2.1-.5.1-1V277h-1.1c-.1.8-.3 1.4-.5 1.9s-.6.9-1.1 1.3c-.1-.1-.1-.3-.2-.4.5-.3.8-.7 1-1.1.2-.4.4-1 .5-1.7h-1.2v-.4h1.2v-1.2h.4v1.2h1.5l-.1 1.3zM362.8 277.8v-.4h3.6v.4h-3.6zM368.7 277.3c-.1.9-.2 1.5-.4 1.8-.2.3-.6.7-1.2 1-.1-.1-.1-.3-.2-.4.5-.2.9-.5 1.1-.8.2-.3.3-.9.3-1.6h-1.9v-.4h4v.4h-1.7zm-1.5-1.4v-.4h2.6v.4h-2.6zM372.7 278.6c-.5.5-1.1.9-1.8 1.3l-.2-.5c1.2-.5 2.3-1.5 3.2-3 .1.1.2.3.3.3-.5.9-1 1.5-1.5 1.9zm-.9-1.8c-.3-.4-.7-.7-1-1l.2-.4c.4.3.7.6 1 .9l-.2.5zM376.8 278.3c-.4.4-.8.7-1.2 1-.3.2-.6.4-.7.5l-.3-.3v-4.1h.3v3.7c.6-.4 1.1-.7 1.5-1.1.3-.3.7-.8 1.1-1.4l.3.3c-.3.6-.6 1-1 1.4zM378 277.8v-.4h3.6v.4H378zM382.9 278c-.2.7-.5 1.3-1 1.9-.1-.1-.2-.3-.2-.4.4-.3.6-.7.8-1.2.1-.4.2-.9.2-1.5v-1.1h.3c0 1.1 0 1.9-.1 2.3zm1.1 1.8-.3-.3v-4.1h.3v3.8c.5-.4 1-1 1.4-1.8l.3.3c-.4.8-1.1 1.6-1.7 2.1zM388.8 279.6h-.3l-.8-3.4-.8 3.4h-.3l-.8-4.1h.3l.6 3.2.8-3.2h.3l.7 3.2.6-3.2h.3l-.6 4.1zM462.3 277.6c0 .6-.1 1.1-.2 1.4 0 .2-.1.3-.2.4-.1.1-.4.1-1 .2 0-.1-.1-.3-.1-.4h.5c.2 0 .3-.1.4-.2.1-.2.1-.5.1-1v-1.3h-1.4c-.1.8-.3 1.4-.6 1.9s-.8.9-1.4 1.3c-.1-.1-.2-.3-.3-.4.6-.3 1-.7 1.3-1.1.3-.4.5-1 .6-1.7h-1.5v-.4h1.5v-1.2h.5v1.2h1.9l-.1 1.3zM462.9 277.5v-.4h4.5v.4h-4.5zM470.6 276.9c-.1.9-.2 1.5-.5 1.8-.2.3-.7.7-1.5 1-.1-.1-.2-.3-.3-.4.7-.2 1.1-.5 1.4-.8.2-.3.4-.9.4-1.6h-2.4v-.4h5v.4h-2.1zm-2-1.3v-.4h3.3v.4h-3.3zM475.9 278.3c-.6.5-1.3.9-2.3 1.3l-.3-.5c1.6-.5 2.9-1.5 4.1-3 .1.1.2.3.3.3-.6.8-1.2 1.5-1.8 1.9zm-1.2-1.8c-.4-.4-.9-.7-1.3-1l.3-.4c.5.3.9.6 1.3.9l-.3.5zM478.7 279.1c-.1-.1-.3-.2-.4-.3.4-.5.8-1 1.1-1.7l.4.2c-.4.6-.7 1.2-1.1 1.8zm2.2-2.6v3.3h-.4v-3.3h-2.1v-.5h2.1v-1.3h.4v1.3h2.3v.4h-2.3zm1.9 2.4c-.5-.5-.9-1-1.3-1.7l.4-.3c.4.7.8 1.2 1.3 1.7-.2.1-.3.2-.4.3zm-.4-3.1c-.1-.2-.4-.4-.6-.6l.2-.2c.3.2.5.4.7.5l-.3.3zm.4-.4c-.1-.2-.4-.4-.6-.6l.2-.2c.3.2.5.4.7.5l-.3.3zM484.2 277.8c-.1-.3-.3-.6-.6-1l.3-.2c.2.3.4.7.6 1l-.3.2zm2.6.2c-.3.5-.6.9-1 1.2-.3.3-.8.5-1.4.7-.1-.1-.1-.3-.2-.4.5-.2.9-.3 1.2-.6.3-.3.7-.6.9-1 .2-.4.4-.8.5-1.5l.4.1c-.1.6-.3 1.1-.4 1.5zm-1.5-.6c-.1-.3-.3-.7-.5-1l.3-.1c.2.4.4.7.5 1l-.3.1zM490.7 278.3c-.6.6-1.3 1-2.2 1.3-.1-.1-.1-.3-.2-.4.8-.2 1.5-.6 2-1.1.4-.4.8-1.1 1.2-2h-1.8c-.4.6-.8 1.2-1.4 1.6-.1-.1-.2-.2-.4-.3.5-.4.8-.8 1.1-1.2.2-.3.5-.8.8-1.4l.5.2c-.1.2-.2.4-.4.7h2l.3.3c-.6 1-1 1.8-1.5 2.3zM497 279.5c-.5-.7-1-1.3-1.7-1.9-.6.7-1.4 1.3-2.4 1.9-.1-.2-.2-.3-.3-.4.8-.4 1.5-.8 2-1.3.4-.4.9-1.1 1.5-2h-2.9v-.4h3.2l.3.3c-.4.6-.7 1.2-1 1.6.7.6 1.3 1.2 1.8 1.9l-.5.3zM499.5 277.7h-.6l-.1-.1v-.6l.1-.1h.6l.1.1v.6l-.1.1zM505.1 277.6c0 .6-.1 1.1-.2 1.4 0 .2-.1.3-.2.4-.1.1-.4.1-1 .2 0-.1-.1-.3-.1-.4h.5c.2 0 .3-.1.4-.2.1-.2.1-.5.1-1v-1.3h-1.4c-.1.8-.3 1.4-.6 1.9s-.8.9-1.4 1.3c-.1-.1-.2-.3-.3-.4.6-.3 1-.7 1.3-1.1.3-.4.5-1 .6-1.7h-1.5v-.4h1.5v-1.2h.5v1.2h1.9l-.1 1.3zM505.7 277.5v-.4h4.5v.4h-4.5zM513.4 276.9c-.1.9-.2 1.5-.5 1.8-.2.3-.7.7-1.5 1-.1-.1-.2-.3-.3-.4.7-.2 1.1-.5 1.4-.8.2-.3.4-.9.4-1.6h-2.4v-.4h5v.4h-2.1zm-1.9-1.3v-.4h3.3v.4h-3.3zM518.7 278.3c-.6.5-1.3.9-2.3 1.3l-.3-.5c1.6-.5 2.9-1.5 4.1-3 .1.1.2.3.3.3-.6.8-1.2 1.5-1.8 1.9zm-1.2-1.8c-.4-.4-.9-.7-1.3-1l.3-.4c.5.3.9.6 1.3.9l-.3.5zM524.1 277.9c-.5.4-1 .7-1.5 1-.4.2-.7.4-.9.5l-.4-.3V275h.4v3.7c.8-.4 1.4-.7 1.8-1.1.4-.3.9-.8 1.4-1.4l.3.3c-.3.7-.7 1.1-1.1 1.4zM525.8 277.5v-.4h4.5v.4h-4.5zM532.2 277.7c-.2.7-.6 1.3-1.2 1.9-.1-.1-.2-.3-.3-.4.5-.3.8-.7 1-1.2.2-.4.3-.9.3-1.5v-1.1h.4c0 1.1 0 1.8-.2 2.3zm1.5 1.8-.3-.3.1-.1v-4h.4v3.8c.6-.4 1.2-1 1.8-1.8l.3.3c-.8.8-1.5 1.6-2.3 2.1zM540 279.3h-.3l-1-3.4-1 3.4h-.3l-1-4.1h.4l.8 3.2 1-3.2h.4l.9 3.2.8-3.2h.4l-1.1 4.1z"/></svg>