<svg version="1.1" id="レイヤー_1" xmlns="http://www.w3.org/2000/svg" x="0" y="0" viewBox="0 0 620 449.3" style="enable-background:new 0 0 620 449.3" xml:space="preserve"><style>.st2{fill:#bfc0c0}.st3,.st4{stroke-width:.4}.st3{fill:none;stroke:#000}.st4{stroke-dasharray:1.3,1.3,0,0,0,0}.st4,.st5,.st6{fill:none;stroke:#000}.st5{stroke-width:.4;stroke-miterlimit:10}.st6{stroke-width:.6}.st7{fill:#dfeaf8}.st8{fill:#fadce9}.st10{fill:#fffcdb}.st12{fill:#f9f4e4}.st14,.st15{fill:none;stroke:#cfb5a7;stroke-width:.4}.st15{stroke:#b5b5b6;stroke-miterlimit:10}.st18,.st25,.st26,.st29,.st30,.st33{fill:none;stroke:#000;stroke-width:.4}.st18{stroke-linejoin:bevel;stroke-dasharray:15,1.3,1.3,1.3}.st25,.st26,.st29,.st30,.st33{stroke-dasharray:9.078339e-03,0,0,0}.st26,.st29,.st30,.st33{stroke-dasharray:1.1802,1.1711,9.078339e-03,0,0,0}.st29,.st30,.st33{stroke-dasharray:9.077640e-03,0,0,0}.st30,.st33{stroke-dasharray:1.1801,1.171,9.077640e-03,0,0,0}.st33{stroke-width:.3;stroke-linejoin:bevel;stroke-dasharray:1.3,1.3,0,0,0,0}.st34,.st35,.st36{fill:none;stroke:#000;stroke-width:.4}.st34{stroke-linejoin:bevel;stroke-dasharray:10,1.3,1.3,1.3}.st35,.st36{stroke-dasharray:1.3,1.3}.st36{stroke-width:.2;stroke-linecap:round;stroke-linejoin:round;stroke-miterlimit:10;stroke-dasharray:1.3,1.3,0,0,0,0}.st37{fill:#fff}</style><path d="M537.6 405.3V403h-4v-23.5h-21.8v.7h-93.4v-.7h-29.7v.7h-67.8l-.1-.7h-2.4v11.6h-56.7v-11.6H259v.7h-53.9v-.7h-23.4v.7h-77.2v-.7H82.7v24.2h-4v2.3h-.6v29.1h.6v2.3h458.8v-2.3h.6v-29.8h-.5zm-225.2 3.1c0 1-.8 1.9-1.9 1.9h-16.7c-1 0-1.9-.8-1.9-1.9v-15.8c0-.5.4-.9.9-.9h18.6c.5 0 .9.4.9.9v15.8z" style="fill:#ecf4d9"/><path d="M311.5 392h-18.6c-.5 0-.9.4-.9.9v15.8c0 1 .8 1.9 1.9 1.9h16.7c1 0 1.9-.8 1.9-1.9v-15.8c-.1-.5-.5-.9-1-.9z" style="fill:#dff2fc"/><path class="st2" d="M523.9 437.7v9.8h9v-1.2h11.6v1.2h9.1v-9.8zM62.7 437.7v9.8h9.1v-1.1h11.6v1.1h9v-9.7z"/><path class="st3" d="M538.1 405.7h1.2v29.8h-1.2zM537.6 403.3h2.3v2.3h-2.3z"/><path class="st3" d="M537.6 435.4h2.3v2.3h-2.3zM538.1 433.1H534v-3.6h-9.3v3.6H91.6v-3.6h-9.3v3.6h-4.2M523.9 437.7H92.4M523.9 441H92.4M523.9 443.3H92.4M523.9 446.6H92.4"/><circle class="st3" cx="87" cy="433.1" r="1.6"/><circle class="st3" cx="529.3" cy="433.1" r="1.6"/><path class="st3" d="M77 406.4h1.2v29.1H77zM76.4 404h2.3v2.3h-2.3z"/><path class="st3" d="M76.4 435.4h2.3v2.3h-2.3zM562.7 437.7l-9.1.1M562.7 441h-9.1M562.7 443.3h-9.1M562.7 446.6h-9.1M539.3 433.1h23.4M77 433.1H57.3M57.3 437.7h5.4M57.3 446.6h5.4M57.3 441h5.4M57.3 443.3h5.4"/><path transform="rotate(-180 279.1 396.658)" class="st4" d="M267.5 392h23.2v9.3h-23.2z"/><path class="st4" d="m290.7 401.3-23.2-9.3"/><path class="st5" d="M311.5 392.7h-18.6c-.1 0-.2.1-.2.2v15.8c0 .6.5 1.2 1.2 1.2h16.7c.6 0 1.2-.5 1.2-1.2v-15.8c-.1-.1-.2-.2-.3-.2z"/><path class="st5" d="M311.5 392h-18.6c-.5 0-.9.4-.9.9v15.8c0 1 .8 1.9 1.9 1.9h16.7c1 0 1.9-.8 1.9-1.9v-15.8c-.1-.5-.5-.9-1-.9z"/><circle class="st5" cx="302.2" cy="394.9" r="1.2"/><path class="st6" d="M62.7 437.7v9.8h9.1v-1.2h11.6v1.2h9v-9.8zM523.9 437.7v9.8h9v-1.1h11.6v1.1h9.1v-9.7z"/><path d="M415 409.4c-.7 1.5-1.5 2.8-2.5 4-.3-.3-.6-.6-.9-.8 1.7-2 3-4.6 3.9-8.1l1.1.4c-.6 1.9-1.1 3.3-1.6 4.5zm7.9 3.6c-.9-2.8-2.2-5.5-3.9-8.2l.9-.6c1.8 2.7 3.2 5.5 4.2 8.3l-1.2.5zm-.4-7.1c-.3-.5-.8-1-1.4-1.6l.6-.5c.6.5 1.1 1 1.5 1.5l-.7.6zm1.1-1c-.3-.5-.8-1-1.4-1.6l.6-.5c.6.5 1.1 1 1.5 1.5l-.7.6zM428.7 409.7c-.5 1.8-1.5 3.3-3 4.6-.2-.3-.5-.6-.7-.9 1.1-.8 2-1.8 2.4-3 .4-1 .6-2.2.7-3.8V404h1.1c0 2.7-.2 4.6-.5 5.7zm3.7 4.4-.8-.8.1-.2v-9.9h1.1v9.3c1.5-1.1 3-2.6 4.4-4.4.2.3.5.5.8.7-1.9 2.2-3.8 4-5.6 5.3zM447.2 414.1v-.8h-7.9v-1h7.9v-6h-7.9v-1.1h9.1v8.9h-1.2zM450.3 412.8v-1.1h12.1v1.1h-12.1zm1.8-6.9v-1.1h8.6v1.1h-8.6zM463.7 409.2v-1h11.1v1h-11.1zM150.1 409.4c-.7 1.5-1.5 2.8-2.5 4-.3-.3-.6-.6-.9-.8 1.7-2 3-4.6 3.9-8.1l1.1.4c-.6 1.9-1.1 3.3-1.6 4.5zm7.9 3.6c-.9-2.8-2.2-5.5-3.9-8.2l.9-.6c1.8 2.7 3.2 5.5 4.2 8.3l-1.2.5zm-.5-7.1c-.3-.5-.8-1-1.4-1.6l.6-.5c.6.5 1.1 1 1.5 1.5l-.7.6zm1.2-1c-.3-.5-.8-1-1.4-1.6l.6-.5c.6.5 1.1 1 1.5 1.5l-.7.6zM163.8 409.7c-.5 1.8-1.5 3.3-3 4.6-.2-.3-.5-.6-.7-.9 1.1-.8 2-1.8 2.4-3 .4-1 .6-2.2.7-3.8V404h1.1c0 2.7-.2 4.6-.5 5.7zm3.6 4.4-.8-.8.1-.2v-9.9h1.1v9.3c1.5-1.1 3-2.6 4.4-4.4.2.3.5.5.8.7-1.8 2.2-3.7 4-5.6 5.3zM182.3 414.1v-.8h-7.9v-1h7.9v-6h-7.9v-1.1h9.1v8.9h-1.2zM185.4 412.8v-1.1h12.1v1.1h-12.1zm1.7-6.9v-1.1h8.6v1.1h-8.6zM198.8 409.2v-1h11.1v1h-11.1zM269.1 397.3c-.2.7-.4 1.3-.6 1.8l-.2-.2c.2-.5.4-1.1.6-1.8l.2.2zm-.1-1.3-.1.3c-.1-.1-.3-.3-.5-.4l.1-.3c.1.1.3.2.5.4zm.2-1.3-.2.3-.5-.5.2-.3c.2.1.4.3.5.5zm2.5 3.9h.3v.4h-3v-.4h.4v-1.7h2.2v1.7zm-2.1-2.2v-2.2h1.8v2.2h-1.8zm.5 2.2v-1.3h-.4v1.3h.4zm-.2-3.5h1.3v-.5h-1.3v.5zm0 .4v.6h1.3v-.6h-1.3zm.8 3.1v-1.3h-.4v1.3h.4zm.7 0v-1.3h-.4v1.3h.4zM273.7 395.7c-.1.8-.2 1.3-.4 1.7-.2.5-.4.9-.7 1.3-.1-.1-.1-.3-.2-.3.3-.3.5-.7.7-1.1.1-.4.3-.9.3-1.4h-.9v-.4h1l.2.2zm.6-1.7v.9c.1.5.2.9.3 1.3.3-.3.6-.6.9-1l.2.3c-.3.4-.6.8-.9 1.1.1.1.1.3.2.4.3.6.6 1 1 1.3-.1.1-.1.2-.2.4-.4-.3-.8-.8-1-1.4-.2-.4-.3-.8-.4-1.2v2.7c0 .1-.1.2-.1.3-.1.1-.3.1-.4.1 0-.1 0-.3-.1-.4h.3s.1 0 .1-.1V394h.1zM276.6 398.4l-.3-.3c.3-.5.5-1 .8-1.7l.3.2c-.3.7-.5 1.2-.8 1.8zm1.5-2.6v3.2h-.3v-3.2h-1.5v-.4h1.5v-1.2h.3v1.2h1.6v.4h-1.6zm1.4 2.4c-.3-.5-.6-1-.9-1.7l.3-.3c.3.7.6 1.2.9 1.7-.2.1-.3.2-.3.3zm-.3-3c-.1-.2-.2-.4-.4-.6l.1-.2c.2.2.3.4.5.5l-.2.3zm.3-.5c-.1-.2-.2-.4-.4-.6l.1-.2c.2.2.3.4.5.5l-.2.3zM282 395.9v3.2h-.3v-2.8c-.5.6-1 1-1.5 1.3 0-.2-.1-.3-.2-.4.5-.3 1-.7 1.4-1.2.4-.5.8-1.1 1.2-1.7l.3.3c-.3.5-.6.9-.9 1.3zM285.5 398c-.3.4-.9.8-1.5 1.1 0-.1-.1-.3-.1-.4.6-.2 1-.4 1.3-.8.3-.4.6-.9.9-1.7h-2.6v-.4h2.8l.2.3c-.3.8-.7 1.5-1 1.9zm-1.6-3.1v-.4h2.1v.4h-2.1zM286.8 396.8v-.4h3.1v.4h-3.1zM296.8 404.2c-.1.2-.3.3-.4.4h1.4l.2.3c-.6.6-1.1 1-1.5 1.3-.5.3-1.2.7-2.1 1 0-.1-.1-.2-.2-.4.6-.2 1.1-.4 1.8-.8l-.6-.6.3-.2c.3.2.4.4.6.6.5-.3.9-.6 1.2-1H296c-.1.1-.2.2-.3.2-.4.3-.9.5-1.3.7-.1-.1-.1-.2-.2-.3.4-.1.8-.3 1.2-.6.4-.2.8-.6 1.1-.9l.3.3zm.9 2.1c-.2.2-.5.4-.7.6h1.5l.2.3c-.4.6-1 1.1-1.6 1.4-.7.4-1.6.7-2.7.9-.1-.1-.1-.3-.2-.4.8-.1 1.6-.2 2.3-.6-.2-.2-.4-.4-.6-.7l.3-.2.7.7c.5-.3.9-.6 1.3-1.1h-1.7l-.1.1c-.4.3-1 .5-1.7.8l-.3-.3c.6-.2 1.2-.4 1.7-.7.4-.2.8-.6 1.2-1l.4.2zM303.8 409.1h-.4v-.3H301v.4h-.4v-4.6h3.2v4.5zm-.4-3.3v-.9H301v.9h2.4zm0 1.3v-.9H301v.9h2.4zm0 1.3v-.9H301v.9h2.4zM306.9 404.3l-.2.8h.7v3.8h-.4v-.3h-1v.4h-.4v-3.9h.7l.1-.9.5.1zm.1 2.3v-1.2h-1v1.2h1zm0 1.6V407h-1v1.3h1zm1.8-3.9c-.1.3-.2.6-.2.9h1.7v1.7c0 1.1 0 1.7-.1 2 0 .2-.1.3-.2.3-.2.1-.4.1-.8.1 0-.1-.1-.3-.2-.4h.6c.1 0 .2-.1.2-.2 0-.2.1-.8.1-1.8v-1.4h-1.4v.1c-.1.4-.3.7-.5 1.1-.1-.1-.2-.2-.3-.2.2-.4.4-.8.5-1.2.1-.4.2-.7.3-1.1l.3.1zm.5 2.9-.3.3c-.2-.2-.4-.5-.7-.8l.2-.3c.3.3.6.5.8.8zM289.7 415.8c-.5-.6-1-1.3-1.7-1.9-.6.7-1.4 1.3-2.3 1.9-.1-.2-.2-.3-.3-.4.8-.4 1.5-.8 2-1.3.4-.4.9-1.1 1.5-2H286v-.4h3.2l.3.3c-.4.6-.7 1.2-1 1.6.7.6 1.3 1.2 1.8 1.9l-.6.3zM294.2 415.6v-.4h-2.9v.4h-.4v-3.8h3.8v3.8h-.5zm0-3.4h-2.9v2.6h2.9v-2.6zM295.9 414.1c-.1-.3-.3-.6-.6-1l.3-.2c.2.3.4.7.6 1l-.3.2zm2.6.2c-.3.5-.6.9-1 1.2-.3.3-.8.5-1.3.7-.1-.1-.1-.3-.2-.4.5-.1.9-.3 1.2-.6.3-.2.6-.6.9-1 .2-.3.4-.8.5-1.4l.4.1c-.2.6-.3 1-.5 1.4zm-1.5-.5c-.1-.3-.3-.7-.5-1l.3-.1c.2.4.4.7.5 1l-.3.1zM302.5 414.6c-.5.6-1.2 1-2.2 1.4 0-.1-.1-.3-.2-.4.8-.3 1.5-.6 2-1.2.5-.5.9-1.2 1.2-2.1h-3.6v-.4h3.8l.3.3c-.5 1.1-.9 1.9-1.3 2.4zm1.9-2.8c-.1.1-.2.2-.4.2s-.3-.1-.4-.2c-.1-.1-.2-.2-.2-.4s.1-.3.2-.4c.1-.1.2-.2.4-.2.1 0 .3.1.4.2.1.1.2.2.2.4-.1.1-.1.2-.2.4zm-.2-.6c-.1-.1-.1-.1-.2-.1-.2 0-.3.1-.3.3 0 .1 0 .2.1.2.1.1.1.1.2.1s.2 0 .2-.1c.1-.1.1-.1.1-.2s-.1-.2-.1-.2zM305.9 413.7c-.3-.2-.7-.4-1-.5l.2-.4c.4.1.8.3 1.1.5l-.3.4zm1.7 1c-.6.4-1.3.8-2.2 1.1l-.2-.5c1.6-.5 2.9-1.4 3.9-2.7l.3.3c-.6.9-1.2 1.4-1.8 1.8zm-1.1-2.4c-.4-.2-.7-.4-1-.6l.2-.4c.4.2.8.4 1.1.6l-.3.4zM312.5 414.6c-.6.4-1.3.9-2.2 1.3l-.3-.5c1.5-.5 2.9-1.5 4-2.9l.3.3c-.6.8-1.3 1.4-1.8 1.8zm-1.2-1.8c-.4-.4-.8-.7-1.2-1l.3-.4c.5.3.9.6 1.3.9l-.4.5zM317.7 414.6c-.6.6-1.3 1-2.2 1.3-.1-.1-.1-.3-.2-.4.8-.2 1.5-.6 2-1 .4-.4.8-1.1 1.2-1.9h-1.8c-.4.6-.8 1.2-1.3 1.6-.1-.1-.2-.2-.4-.3l1.1-1.1c.2-.3.5-.8.8-1.4l.5.2c-.1.2-.2.4-.4.7H318.9l.3.3c-.5.8-1 1.5-1.5 2z"/><path class="st7" d="M158.9 176.9H93.7V93.2h65.1v47.5h.2V176h-.1zM202.8 106.3V100h-.6v-6h-38.4v45.8h.5V177h-.5v.4h85.5v-3.2h-.4V173h3.7v-33.9h-3.7v-1.2h.4v-31.6z"/><path class="st8" d="M202.8 100h46.5v6.3h-46.5zM138.9 229.9v1.9h-30.2v-1.9H85.3v-38.1h60.4V226l-4 3.9zM193.6 237.6h26.5v26.5h-26.5zM307.9 207.4h43.2v26.5h-43.2z"/><path class="st7" d="M362.7 119.3h12.1v38.1h-66.9v-3.5h.5v-1.2h-1.3v-.7h-.9v-32.5h.9v-.7h1.3v-1.3h54.3z"/><path class="st8" d="M306.8 66.3h17.9v37.2h-17.9zM228.7 97h-21V46.1h31.4v18.6h-10.4zM375.3 104h-46.9V46.1h46.9v25.7h1.8V102h-1.8zM378.5 46.1h116.3v21H378.5z"/><path class="st7" d="M494.2 154.1h-76.6v-39.9h112.9v30.2h-42.3v3.7h6z"/><path style="fill:#feeab4" d="M193.3 78.2h-50.2V41.9h5.8v.7h1.9v-2.7h34.9v2.7h1.8v-.7h5.8z"/><path class="st8" d="M511.2 147.6h19.3v11.9h-19.3z"/><path class="st10" d="M304.7 109.1h-52.1v-4h1.6v-8.3h-.4V66.5h4.4V54.7h.2v-1.9h37.2v13.7h11.2v37h-2.1zM228.7 64.7h10.4v1.1h11.4v.7h1.9v30.3h-23.7z"/><path style="fill:#d2cce6" d="M314 51.4h-.7V51h-56.5v.4h-3.3V31.7H314z"/><path class="st12" d="M366 106.7h9.3v9.4H366zM82.2 92.1h10.4V178H82.2zM274.2 368.8h31.6v10.1h-31.6zM497.5 147.6H508v9.1h-10.5z"/><path class="st8" d="M307.9 107.2h54.8v10.3h-54.8zM163.8 94h31.9v16.3h-31.9z"/><path transform="rotate(-180 369.583 138.366)" class="st8" d="M364.4 119.3h10.5v38.1h-10.5z"/><path style="fill:#feebbe" d="M435.2 184.9h70.4v138.8h-70.4z"/><path class="st2" d="M181.6 379.9v-2.1h1v-4h-.8v-8.3h7.6V233.4h72v4.2h-39v5.6h-3.3v-5.6h-25.5v26.5h27.8v3.3h-27.8v98.1h11.2v8.3h-.5v4h.7v2.1zM388.9 365.5h29.3v8.3h-.7v4h.9v2.1h-29.6v-2.1h.9v-4h-.8zM543.8 403.3v-23.5h18.9v-14.4h-15.8V41.9H560V31.7H314v19.8h-.7v1.9h-16v1.4h-1.6v11.9h11.2v-.2h17.9v37.2h-20v14.1h3.3v-10.4h54.8v12.1H375v38.1h-66.9V154h-3.3v9.4h3.3v-2.1h70.6V102h-3.3v2h-46.9V46.1h46.9v25.7h3.3V46.1h152v98.3h-42.3v3.7h6V160h17v-12.3h19.3v217.8h-18.5v8.4h.7v4h-.9v2.1h21.8v23.5h10zM366 106.8h9.3v9.3H366v-9.3zm142 49.9h-10.5v-9.1H508v9.1z"/><path class="st2" d="M258.2 66.5V54.7h-1.4v-3.3h-3.3V31.7h-66v10.2h5.8v36.3h-50.2V41.9h5.8V31.7h-16.7v10.2h.7v36.3H69v287.3H57.3v14.4h15.2v24.2h10.2v-24.2h21.8v-2.1h-.9v-4h.7v-8.4H85.8V233.2h23v-3.3H85.3v-38.1h60.4V226l-4 4h-2.8v3.3h4.1l5.9-5.9v-35.5h100.6v.7h4.2v-18.4h-4.4v3.3h-85.5v-.5h-4.9v-.1H93.7V93.2h65.1v46.6h5V94h38.4v6h47.2v37.9h3.3v-32.8h-.7V104h2.2v-7.2h-46.5V46.1h31.4v19.8h11.4v.7h7.7zM92.6 178H82.2V92.1h10.4V178zM304.7 204.1v29.3h-2.3v4.2h2.3v127.8h-45.5v8.4h.5v4h-.7v2.1h2.7v11.6h56.7v-11.6h2.5v-2.1h-.9v-4h.7v-8.4H308v-158h43.2v27.9h3.3v-27.9H407v39.9h3.3v-43.2H304.7zm1.1 174.8h-31.6v-10.3h31.6v10.3z"/><path class="st14" d="M252.6 113h52.1M252.6 117.6h51.6M252.6 122.3h51.6M252.6 126.9h51.6M252.6 131.6h51.6M252.6 136.2h51.6M254 140.9h50.2M254 145.5h50.2M254 150.2h50.2M254 154.8h50.7M254 159.5h50.7M254 164.1h50.2M254 168.8h53.1M254.2 173.4h52.9M253.8 178.1h53.3M253.8 182.7h53.3M253.8 187.4h53.3M148.9 192h100.7M148.9 196.7h100.2M148.9 201.3h100.2M148.9 206h100.2M148.9 210.6h100.2M148.9 215.3h100.2M148.9 219.9h100.2M148.9 224.6h100.2M147 229.2h102.1M85.3 196.7h60.4M85.3 201.3h60.4M85.3 206h60.4M85.3 210.6h60.4M85.3 215.3h60.4M85.3 219.9h60.4M85.3 224.6h60.4M85.3 229.2h57.1M85.7 233.9h103.7M85.7 238.5h103.7M85.7 243.2h103.7M85.7 247.8h103.7M85.7 252.5h103.7M85.7 257.1h103.7M85.7 261.8h103.7M85.7 266.4h103.7M85.7 271.1h103.7M85.7 275.7h103.7M85.7 280.3h103.7M85.7 285h103.7M85.7 289.6h103.7M85.7 294.3h103.7M85.7 298.9h103.7M85.7 303.6h103.7M85.7 308.2h103.7M85.7 312.9h103.7M85.7 317.5h103.7M85.7 322.2h103.7M85.7 326.8h103.7M85.7 331.5h103.7M85.7 336.1h103.7M85.7 340.8h103.7M85.7 345.4h103.7M85.7 350.1h103.7M85.7 354.7h103.7M85.7 359.4h103.7M85.7 364h103.7M253.8 192h53.3M250.4 196.7h56.7M250.4 201.3h56.7M250.4 206h54.3M250.4 210.6h54.3M250.4 215.3h54.3M250.4 219.9h54.3M250.4 224.6h54.3M250.4 229.2h54.3M262.6 233.9h38.6M301.2 238.5h3.5M221.4 238.5h78.4M301.2 243.2h3.5M221.4 243.2h78.4M301.2 247.8h3.5M221.4 247.8h78.4M301.2 252.5h3.5M221.4 252.5h78.4M301.2 257.1h3.5M221.4 257.1h78.4M301.2 261.8h3.5M221.4 261.8h78.4M193.6 238.5h26.5M193.6 243.2h26.5M193.6 247.8h26.5M193.6 252.5h26.5M193.6 257.1h26.5M193.6 261.8h26.5M301.2 266.4h3.5M221.4 266.4h78.4M301.2 271.1h3.5M193.6 271.1h106.2M301.2 275.7h3.5M193.6 275.7h106.2M193.6 280.3h111.1M193.6 285h111.1M193.6 289.6h111.1M193.6 294.3h111.1M193.6 298.9h111.1M193.6 303.6h111.1M193.6 308.2h111.1M193.6 312.9h111.1M193.6 317.5h111.1M193.6 322.2h111.1M193.6 326.8h111.1M193.6 331.5h111.1M193.6 336.1h111.1M193.6 340.8h111.1M193.6 345.4h111.1M193.6 350.1h111.1M193.6 354.7h111.1M193.6 359.4h111.1M193.6 364h111.1M494.8 47.9h35.7M494.8 52.6h35.7M494.8 57.2h35.7M494.8 61.9h35.7M494.8 66.5h35.7M378.5 71.2h152M378.5 75.8h152M378.5 80.4h152M378.5 85.1h152M378.5 89.7h152M378.5 94.4h152M378.5 99h152M378.5 103.7h152M378.5 108.3h152M378.5 113h152M378.5 117.6h39.1M378.5 122.3h39.1M378.5 126.9h39.1M378.5 131.6h39.1M378.5 136.2h39.1M378.5 140.9h39.1M378.5 145.5h39.1M378.5 150.2h39.1M378.5 154.8h115.7M378.5 159.5h115.7M308.4 164.1h222.1M308.4 168.8h222.1M308.4 173.4h222.1M308.4 178.1h222.1M308.4 182.7h222.1M308.4 187.4h222.1M308.4 192h222.1M308.4 196.7h222.1M308.4 201.3h222.1M410.2 206h120.3M410.2 210.6h120.3M410.2 215.3h120.3M410.2 219.9h120.3M410.2 224.6h120.3M410.2 229.2h120.3M410.2 233.9h120.3M410.2 238.5h120.3M410.2 243.2h120.3M410.7 247.8h119.8M406.8 252.5h123.7M406.8 257.1h123.7M406.8 261.8h123.7M406.8 266.4h123.7M406.8 271.1h123.7M406.8 275.7h123.7M406.8 280.3h123.7M406.8 285h123.7M405.2 289.6h125.3M405.2 294.3h125.3M405.2 298.9h125.3M405.2 303.6h125.3M405.2 308.2h125.3M405.2 312.9h125.3M405.2 317.5h125.3M405.2 322.2h125.3M403.7 326.8h126.8M403.7 331.5h126.8M403.7 336.1h126.8M403.7 340.8h126.8M403.7 345.4h126.8M403.7 350.1h126.8M403.7 354.7h126.8M403.7 359.4h126.8M403.7 364h126.8M354.4 210.6h52.5M354.4 215.3h52.5M354.4 219.9h52.5M354.4 224.6h52.5M354.4 229.2h52.5M354.4 233.9h52.5M307.9 210.6h43.3M307.9 215.3h43.3M307.9 219.9h43.3M307.9 224.6h43.3M307.9 229.2h43.3M307.9 233.9h43.3M307.9 238.5h99M307.9 243.2h99M307.9 247.8h97.3M307.9 252.5h97.3M307.9 257.1h97.3M307.9 261.8h97.3M307.9 266.4h97.3M307.9 271.1h97.3M307.9 275.7h97.3M307.9 280.3h97.3M307.9 285h97.3M307.9 289.6h95.8M307.9 294.3h95.8M307.9 298.9h95.8M307.9 303.6h95.8M307.9 308.2h95.8M307.9 312.9h95.8M307.9 317.5h95.8M307.9 322.2h95.8M307.9 326.8h94.2M307.9 331.5h94.2M307.9 336.1h94.2M307.9 340.8h94.2M307.9 345.4h94.2M307.9 350.1h94.2M307.9 354.7h94.2M307.9 359.4h94.2M307.9 364h94.2"/><path class="st15" d="M267.5 55.2V104M255.8 66.5V104M236.6 64.7v32.1M286 55.2V104M304.7 66.5v37M306.8 87.7h-53M306.8 69.1h-53M252.4 69.1h-23.7M252.4 87.7h-23.7M295.6 55.2h-37.4"/><path style="fill:none;stroke:#aaabab;stroke-width:.4;stroke-linecap:round;stroke-linejoin:round;stroke-miterlimit:10;stroke-dasharray:4.5,2.5" d="M300 67.6v108h-41.4V65.8h37"/><path style="fill:none;stroke:#aaabab;stroke-width:.4022;stroke-linecap:round;stroke-linejoin:round;stroke-miterlimit:10;stroke-dasharray:4.5245,2.5136" d="M401.7 207.4v158.1"/><path class="st18" d="M420.5 360.6h92.3M420.5 363h92.3M313.2 360.6h78.3M313.2 363h78.3M201.5 360.3h63.9M201.5 362.8h63.9M96.9 360.6h87.3M96.9 363h87.3"/><path class="st3" d="M419.6 365.5v-.7"/><path style="fill:none;stroke:#000;stroke-width:.4;stroke-dasharray:9.443405e-03,0,0,0" d="M419.6 363.6"/><path style="fill:none;stroke:#000;stroke-width:.4;stroke-dasharray:1.2276,1.2182,9.443405e-03,0,0,0" d="M419.6 363.6v-4.9"/><path class="st3" d="M419.6 358.7v-.7h.6"/><path style="fill:none;stroke:#000;stroke-width:.4;stroke-dasharray:1.000860e-02,0,0,0" d="M421.5 358"/><path style="fill:none;stroke:#000;stroke-width:.4;stroke-dasharray:1.3011,1.2911,1.000860e-02,0,0,0" d="M421.5 358h91.1"/><path class="st3" d="M512.6 358h.6v.7"/><path style="fill:none;stroke:#000;stroke-width:.4;stroke-dasharray:9.442684e-03,0,0,0" d="M513.2 359.9"/><path style="fill:none;stroke:#000;stroke-width:.4;stroke-dasharray:1.2275,1.2181,9.442684e-03,0,0,0" d="M513.2 359.9v4.9"/><path class="st3" d="M513.2 364.8v.7M312.3 365.2v-.6"/><path class="st25" d="M312.3 363.4"/><path class="st26" d="M312.3 363.4v-4.7"/><path class="st3" d="M312.3 358.7v-.7h.6"/><path style="fill:none;stroke:#000;stroke-width:.4;stroke-dasharray:9.944855e-03,0,0,0" d="M314.2 358"/><path style="fill:none;stroke:#000;stroke-width:.4;stroke-dasharray:1.2928,1.2829,9.944855e-03,0,0,0" d="M314.2 358h77.6"/><path class="st3" d="M391.8 358h.6v.7"/><path class="st29" d="M392.4 359.8v.1"/><path class="st30" d="M392.4 359.9v4.7"/><path class="st3" d="M392.4 364.6v.6M200.7 365.2v-.6"/><path class="st25" d="M200.7 363.4"/><path class="st26" d="M200.7 363.4v-4.7"/><path class="st3" d="M200.7 358.7v-.7h.6"/><path style="fill:none;stroke:#000;stroke-width:.4;stroke-dasharray:1.007928e-02,0,0,0" d="M202.6 358"/><path style="fill:none;stroke:#000;stroke-width:.4;stroke-dasharray:1.3103,1.3002,1.007928e-02,0,0,0" d="M202.6 358h62.9"/><path class="st3" d="M265.5 358h.7v.7"/><path class="st29" d="M266.2 359.8v.1"/><path class="st30" d="M266.2 359.9v4.7"/><path class="st3" d="M266.2 364.6v.6"/><path class="st33" d="M99.2 191.8v38.1M97.8 191.8v38.1M145.7 204.4H99.2M145.7 205.8H99.2M207 237.5v26.6M205.6 237.5v26.6M351.2 221.3h-43.3M351.2 220h-43.3M221.2 64.7v32.1M219.8 64.7v32.1"/><path class="st34" d="M145.7 212.7h-39.5v17.2l-20.9-38.1 60.4 20.9M214.5 237.6v26.5l-20.9-26.5M307.9 228.3h43.3l-43.3-20.9M228.7 64.7v32.1l-21-50.7 31.4 18.6M239.1 64.7h-31.4M328.4 75l20.9-28M328.4 103l20.9-27M511.1 159.5l19.4-11.9M193.3 57.2h-50.4l50.4 21M163.8 94l31.9 16.2M364.4 157.4v-38.1l10.4 38.1M195.7 94v16.2h-31.9"/><path class="st5" d="M328.4 47h20.9v28h-20.9zM328.4 76h20.9v27.1h-20.9zM378.6 67.1h116.2V46.2M530.5 159.5h-19.4M304.7 104h-50.5M252.6 109.1h52.1"/><path class="st4" d="M497 46.8h32.5v32.5H497zM488.2 144.4V116h42.3M249.3 106.3h-46.5M164.5 94.5h29.7v29.7h-29.7z"/><path class="st5" d="M436.2 129.4c0 2 1.6 3.7 3.7 3.7 2 0 3.7-1.6 3.7-3.7 0-2-1.6-3.7-3.7-3.7-2.1.1-3.7 1.7-3.7 3.7z"/><path class="st5" d="M530.5 114.2H417.6v39.9h76.6"/><path class="st5" d="M458.5 138.8c0 1.7-1.3 2.7-2.8 2.8h-31.6c-1.7 0-2.8-1.4-2.8-2.8v-18.6c0-1.5 1.2-2.8 2.8-2.8h31.8c1.3 0 2.6 1.3 2.6 2.8v18.6z"/><path class="st5" d="M438.1 118.1c-2.8 0-9.8.1-11.5.2-1.8.1-4.2 1.3-4.5 4.4-.3 3.1-.3 10.4 0 11.2.3.8 1 3.8 5.3 3.8 2.3 0 3 0 3.3.1.3 0 1.6-.1 3.5 1.3 1.2.8 2.7 1.8 5.5 1.8h.2c2.8 0 4.3-1 5.5-1.8 1.3-.8 1.7-1.1 3.6-1.3 1.1-.1 2.5 0 4.1-.1 3-.1 4.3-2.6 4.5-4.4.2-2.3 0-9.3 0-9.9 0-3.5-2.7-4.9-4.5-5-2.1-.1-8.7-.2-11.6-.2h-3.4zM495.2 137.7c0 .6.5 1 1 1h25.9c.6 0 1-.5 1-1v-21.3c0-.6-.5-1-1-1h-25.9c-.6 0-1 .5-1 1v21.3z"/><path class="st5" d="M496.4 117H522v18.2h-25.6z"/><circle class="st5" cx="502.5" cy="123.3" r="4.6"/><circle class="st5" cx="515.9" cy="123.3" r="4.6"/><circle class="st5" cx="509.2" cy="131.4" r="3.3"/><path class="st5" d="M512.2 135.4c-.8.6-1.8.9-2.9.9-1.1 0-2.1-.3-2.9-.9h-9.8v2.3H522v-2.3h-9.8zM101.9 112.7l.5-8.6s.6-3.5 3.6-3.8 12.2-.9 12.2-.9.9.1 2.2-.6l1.6-.8s.9-.4 1.9-.4h4.8s1-.1 2.1.5c1.1.5 2.1 1.2 3.2 1.2 1.1.1 13 1 13 1s2.7.5 3.2 3.7l.5 6.4-.6 8.6s-.3 2.8-3.2 3.6l-12.7.5s-1 0-1.9.4-2 1-3.5 1h-5.3s-.8.1-1.7-.3c-.9-.4-1.6-.7-1.6-.7s-1.1-.4-2-.5c-1 0-12-.4-12-.4s-3.2 0-3.9-3.7l-.4-6.2z"/><path class="st5" d="m112.5 96.8-2.3.1s-2.7-.2-5 1.5c-.1.1-3.4 2-3.7 5.3-.2 3.3 0 0 0 0"/><path class="st5" d="M128.7 96.9c2.1.3 2.8.8 3.5 1.1s2.2.6 2.2.6l12.8 1c3.4.7 3.9 4.5 3.9 4.5l.5 7.5-.7 8.2c-.9 3.9-4.1 3.9-4.1 3.9l-12 .3c-1.4 0-2.5.7-2.5.7l-1.1.7c-1.1.7-2.5.7-2.5.7h-4.4c-1.3 0-2.5-.7-2.5-.7s-1.1-.7-1.8-1c-.7-.4-1.9-.4-1.9-.4l-12.7-.4c-3.3-.7-3.5-3.8-3.5-3.8l-.7-7.9.6-8.3s1-3.8 4.3-4.1l12.3-.9s1.1-.1 1.9-.4c.7-.4 2.3-1.3 3.8-1.3h4.6z"/><path class="st5" d="M151 104.2c-.2-1.1-.3-3.1-2.9-5.2s-5.9-2-5.9-2l-2.4-.2M128.5 126.1h13.8s3.1 0 5.5-1.6c2.4-1.5 2.6-2.7 3.1-4.7M124.1 126.1h-14.7c-.3-.1-1.3 0-3.7-1.1 0 0-3.4-1.4-3.9-5.1"/><path class="st5" d="M143.6 95.9c3.4.8 13.2 4.1 13.2 16.7 0 14.5-14.3 16.6-14.3 16.6h-32.4s-14.3-2.2-14.3-16.6c0-14.9 14.2-16.8 14.2-16.8h.7"/><path class="st5" d="m141.8 93.2-.1.4s-.9 1.9-.9 2v1.1h2.2s.2 0 .2-.1l1-1.8.6-1.5M109.8 93.2l.7 2 .7 1.4s.1.1.2.1h2.2v-1.2l-.2-.4-.8-2M140.8 95.2h-27.3M140.8 96.7h-27.3M158.8 132.6H93.7M249.3 127.9h-8.8s-7 .7-14.4.7-14.4-.7-14.4-.7h-8.8V100M211.7 107h-8.8M240.5 107h8.8"/><path class="st5" d="m211.7 106.3 4.3 1.6c1.1.4 1.2 2 1.2 2 .2 2 0 3.9-.3 6.4-.2 2.5-1.2 4.4-3.3 6.3s-1.9 4.6-1.9 4.6V103c0-.8.8-.9.8-.9l1-.1s5.3-.6 12.6-.6 13.6.7 13.6.7c.8.1.8.9.8.9v24.2s.3-2.7-1.9-4.6c-2.2-2-3.2-4-3.5-7.7-.3-3.7-.1-5.5-.1-5.5s.2-1.2 1.2-1.6 4.3-1.5 4.3-1.5"/><path class="st5" d="M240.5 105.9s-8.2.8-14.4.8-14.4-.8-14.4-.8"/><circle class="st5" cx="226.1" cy="111.6" r="1.2"/><path class="st5" d="M103.7 176.9c.1-3.1-2.3-9.7-10-9.8"/><path class="st5" d="M100.4 169.5h7.1V140H93.7M101.1 140v29.5M99.9 140v29.1M94.8 140v27.1M328.6 108.1h-14.4c-.1 0-.2.1-.2.2v6.5c0 .1.1.2.2.2h14.4c.1 0 .2-.1.2-.2v-6.5c0-.1-.1-.2-.2-.2z"/><path class="st5" d="M318.6 115.1c-.1 0-.2-.1-.2-.2v-6.5c0-.1.1-.2.2-.2"/><circle class="st5" cx="323.7" cy="110.4" r="1"/><path class="st5" d="M313.5 107.4h15.8c.1 0 .2.1.2.2v7.9c0 .1-.1.2-.2.2h-15.8c-.1 0-.2-.1-.2-.2v-7.9c0-.1.1-.2.2-.2zM309.3 109.9h.9v7.4h-.9zM307.9 113.1h1.3v1.1h-1.3zM337.3 136.6c0 9 13.5 9.1 13.5 9.1s6.4.2 9 .2c2.6 0 2.2-1.5 2.2-1.5s.2-5.2.2-7.7-.2-8-.2-8 .3-1.5-2.2-1.5c-2.6 0-9 .2-9 .2s-13.5.2-13.5 9.1M372.9 129.4c0-2.2-1.7-1.9-1.7-1.9h-5.8c-2.2 0-2.3 1.9-2.3 1.9s-.5 1.9-.5 7.6c0 5.7.5 7 .5 7s.1 1.9 2.3 1.9h5.8s1.7.2 1.7-1.9v-14.6zM361.9 128.3h1.6M362 144.5h1M354.4 146v-18.5"/><path class="st5" d="m358.3 146.1.3-2.7h-1.9v-12.8h1.9l-.4-3.1M333.5 157.6v-4c0-.3-.3-.6-.7-.7h-.2c-.3 0-.6.3-.7.7v4M358.3 157.6v-3.2h-24.8"/><path class="st5" d="M332.7 152.9h26.5s.8 0 .8.9v3.7M362.9 117.5h-55"/><circle class="st5" cx="126.3" cy="121.9" r="1.6"/><path class="st35" d="M253.3 137.9v-32.8M402.9 208.5v115.9M404.4 208.5v77.4M406 208.5v38.8"/><path class="st3" d="M304.2 117.6h4.2v1.2h-1.3v.7h-.9v-.7h-2zM304.2 153.9h4.2v-1.2h-1.3v-.7h-.9v.7h-2zM270.9 118.8h33.3v1.7h-33.3z"/><path transform="rotate(-180 305.197 135.74)" class="st3" d="M304.2 118.8h2v33.9h-2z"/><path class="st3" d="M304.2 152.7c-18.4 0-33.3-15.2-33.3-33.9"/><path transform="rotate(-90 253.06 81.65)" class="st3" d="M238 81h30.2v1.4H238z"/><path class="st3" d="M306.8 103.5V66.3M258.4 54.7v-1.9h-.7V51h-.9v3.7zM295.6 54.7v-1.9h.7V51h.9v3.7zM295.6 52.8h-37.2M296.3 51h-38.6"/><path class="st3" d="M296.3 52.8c0-21.2-17.3-38.4-38.6-38.4V51"/><path transform="rotate(-90 305.243 52.13)" class="st3" d="M304.1 44.1h2.3v16h-2.3z"/><path class="st3" d="m253.8 71.6 14.8-2.5-14.8-2.6M148.9 37.9h1.2v2h.7v2.7h-1.9zM185.7 39.9h.6v-2h1.2v4.7h-1.8z"/><path class="st3" d="M150.1 38h36.3v1.9h-36.3zM186.3 38c0-20-16.2-36.2-36.3-36.2V38M248.9 137.9h3.8v1.2h-3.8zM248.9 173h5.4v1.2h-5.4z"/><path class="st3" d="M252.6 137.9h1.3V173h-1.3zM252 104h2.2v1.2H252z"/><path transform="rotate(90 161.548 140.225)" class="st3" d="M161.1 137.5h.9v5.4h-.9z"/><path transform="rotate(90 161.595 176.486)" class="st3" d="M161.1 173.8h.9v5.3h-.9z"/><path class="st3" d="M164.3 140.7V176M162.2 140.7V176M160.7 140.7V176M159 140.7V176M160.7 140.7c-17.8 0-32.5 13.8-34 31.4l34 3.9"/><path transform="rotate(-180 123.823 232.504)" class="st3" d="M108.7 231.8h30.2v1.4h-30.2z"/><path class="st3" d="m113.8 233.2-2.6 14.9-2.5-14.9M388 377.8h1.7v-4h-.8V365h-.9zM321.5 377.8h-1.6v-4h.8V365h.8zM181 377.8h1.6v-4h-.8V365h-.8zM105.1 377.8h-1.6v-4h.8V365h.8zM258.3 377.8h1.3v-4h-.5V365h-.8zM205.6 377.8h-1.3v-4h.5V365h.8zM388.7 377.8v2.8h-67.8v-2.8M354.8 363.3v7.1"/><path class="st3" d="M321.5 366.5h34.7v1.2h-34.7z"/><path class="st3" d="M353.4 367.6H388v1.2h-34.6zM353.3 371.6h2.9v2.6h-2.9z"/><path class="st3" d="M321.5 374.2h34.7v1.2h-34.7z"/><path class="st3" d="M353.4 375.3H388v1.2h-34.6zM354.8 379.6v-5.5M321.6 365H388M511.1 377.8h1.7v-4h-.8V365h-.9zM419 377.8h-1.5v-4h.7V365h.8zM511.8 377.8v2.8h-93.4v-2.8M470.6 363.3v7.1"/><path class="st3" d="M419 366.5h53v1.2h-53z"/><path class="st3" d="M469.2 367.6h41.9v1.2h-41.9zM469.1 371.6h2.9v2.6h-2.9z"/><path class="st3" d="M419 374.2h53v1.2h-53z"/><path class="st3" d="M469.2 375.3h41.9v1.2h-41.9zM470.6 379.6v-5.5M419 365h92.1M258.9 377.8v2.8H205v-2.8M232 363.3v7.1M205.6 366.5h27.8v1.2h-27.8z"/><path class="st3" d="M230.7 367.6h27.6v1.2h-27.6zM230.6 371.6h2.9v2.6h-2.9z"/><path class="st3" d="M205.6 374.2h27.8v1.2h-27.8z"/><path class="st3" d="M230.7 375.3h27.6v1.2h-27.6zM232 379.6v-5.5M205.6 365h52.7M181.6 377.8v2.8h-77.1v-2.8M143.1 363.3v7.1M105.1 366.5h39.4v1.2h-39.4z"/><path class="st3" d="M141.7 367.6H181v1.2h-39.3zM141.6 371.6h2.9v2.6h-2.9z"/><path class="st3" d="M105.1 374.2h39.4v1.2h-39.4z"/><path class="st3" d="M141.7 375.3H181v1.2h-39.3zM143.1 379.6v-5.5M105.1 365H181M406.8 247.3h3.9v1.2h-3.9zM405.2 247.3h1.5v40h-1.5zM403.7 285.9h1.5v40h-1.5zM402.1 324.4h1.5v40h-1.5z"/><path class="st3" d="M401.7 364.3h9v1.1h-9zM401.7 207.4h5.2v1.1h-5.2z"/><path transform="rotate(-180 329.533 234.596)" class="st3" d="M307.9 233.9h43.2v1.4h-43.2z"/><path class="st3" d="m315.6 235.3-3.6 21.1-3.6-21.1"/><path transform="rotate(-180 220.751 253.637)" class="st3" d="M220.1 243.2h1.4v21h-1.4z"/><path class="st3" d="M221.4 264.1c11.6 0 21-9.4 21-21h-21"/><path transform="rotate(-90 377.834 86.88)" class="st3" d="M362.7 86.2h30.2v1.4h-30.2z"/><path class="st3" d="m378.5 76.8 14.9-2.5-14.9-2.5M302.3 233v5.1h-1.1v-1.3h-.7v-.9h.7V233zM261.4 233v5.1h1.2v-1.3h.7v-.9h-.7V233z"/><path transform="rotate(-90 300.478 257.376)" class="st3" d="M281.2 256.7h38.6v1.4h-38.6z"/><path transform="rotate(90 281.883 237.455)" class="st3" d="M281.3 218.2h1.3v38.6h-1.3z"/><path class="st3" d="M262.6 238.1c0 21.3 17.3 38.6 38.6 38.6M254.2 192.5h-5.1v1.2h1.3v.7h.9v-.7h2.9zM254.2 233.4h-5.1v-1.1h1.3v-.7h.9v.7h2.9zM210.5 193.7h38.6v1.4h-38.6z"/><path transform="rotate(-180 249.737 212.98)" class="st3" d="M249.1 193.7h1.3v38.6h-1.3z"/><path class="st3" d="M249.1 232.3c-21.3 0-38.6-17.3-38.6-38.6M304.2 163.2h4.2v1.2h-1.3v.7h-.7v-.7h-2.2zM304.2 204.1h4.2V203h-1.3v-.7h-.7v.7h-2.2z"/><path transform="rotate(180 327.674 165.097)" class="st3" d="M308.4 164.4H347v1.4h-38.6z"/><path class="st3" d="M307.1 164.4h1.3V203h-1.3z"/><path class="st3" d="M308.4 203c21.3 0 38.6-17.3 38.6-38.6M256.1 156H250M408 325.1h-7.8M409.7 286.6h-7.8"/><path class="st6" d="M256.8 51.4h-3.3V31.7h-66v6.2"/><path class="st6" d="M258.2 54.7v11.8h-7.7v-.7h-11.4V46.1h-31.4v50.7h46.5v7.2M252.6 105.1v32.8"/><path class="st6" d="M249.3 137.9V100h-47.1v-6h-38.4v45.8M158.8 139.8V93.2H93.7v83.7h65.2M163.8 177v.4h85.5v-3.2M253.8 174.2v18.3M249.6 192.5v-.7H148.9v35.5l-5.9 5.9h-4.1v-3.3h2.8l4-3.9v-34.2H85.3v38.1h23.4v3.3h-23v132.3h18.6"/><path class="st6" d="M181.8 365.5h7.6V233.4h72"/><path class="st6" d="M261.4 237.6h-39v5.6h-3.3v-5.6h-25.5v26.5h27.8v3.3h-27.8v98.1h11.2M104.5 379.9H82.7V404H72.5v-24.1H57.3v-14.4H69V78.2h63.9V41.9h-.7V31.7h16.7v6.2M181.6 379.9H205M259.1 365.5h45.6V237.6h-2.4M302.3 233.4h2.4v-29.3M308.4 204.1h101.8v43.2"/><path class="st6" d="M406.9 247.3v-39.9h-52.5v27.9h-3.2v-27.9h-43.3v158.1h12.8M258.9 379.9h2.7v11.6h56.7v-11.6h2.6M388.9 365.5h29.3M388.8 379.9h29.6"/><path class="st6" d="M512 365.5h18.5V147.6h-19.3V160h-17v-11.9h-6v-3.7h42.3V46.1h-152v25.7h-3.2V46.1h-46.9V104h46.9v-2h3.2v59.1h-70.6v2.1M304.7 163.2v-9.3"/><path class="st6" d="M307.9 153.9v3.5h66.9v-38.1h-12.1v-12.1h-54.8v10.4"/><path class="st6" d="M304.7 117.6v-14.1h20V66.3h-17.9v.2h-11.2V54.7"/><path class="st6" d="M511.8 379.9h21.8v23.4h10.2v-23.4h18.9v-14.4h-15.8V41.9H560V31.7H314v19.7h-.7M82.2 92.1h10.4V178H82.2z"/><path class="st6" d="M366 106.8h9.3v9.3H366zM497.5 147.6H508v9.1h-10.5zM187.5 41.9h5.8v36.3h-50.2V41.9h5.8M274.2 368.7h31.6v10.2h-31.6z"/><path d="M178.9 148.5v-.7h5.5l.4-4.2H180v-.7h5.5l-.4 5h2.3v.7h-8.5zM188.3 145.9v-.7h7.6v.7h-7.6zM201.4 145c-.1 1.5-.4 2.5-.8 3.1-.4.6-1.2 1.2-2.5 1.8-.1-.2-.3-.5-.5-.7 1.2-.4 1.9-.9 2.3-1.4.4-.5.6-1.4.7-2.7h-4v-.7h8.4v.7h-3.6zm-3.3-2.2v-.7h5.6v.7h-5.6zM209.9 145.7v4.3h-.6v-3.8c-.8.7-1.8 1.3-2.9 1.8-.1-.2-.2-.4-.4-.6.9-.4 1.8-.9 2.8-1.7.9-.7 1.7-1.4 2.3-2.3l.6.5c-.6.7-1.2 1.3-1.8 1.8zM213.4 146.7v-4.6h.7v4.6h-.7zm5-2.6c0 1.2-.1 2.1-.3 2.7-.2.7-.5 1.3-1 1.8s-1.3.8-2.4 1.2c-.1-.3-.2-.5-.4-.7 1.4-.4 2.3-.9 2.8-1.6.4-.6.6-1.7.6-3.3v-2.5h.7v2.4zM224.5 145c-.1 1.5-.4 2.5-.8 3.1-.4.6-1.2 1.2-2.5 1.8-.1-.2-.3-.5-.5-.7 1.2-.4 1.9-.9 2.3-1.4.4-.5.6-1.4.7-2.7h-4v-.7h8.4v.7h-3.6zm-3.3-2.2v-.7h5.6v.7h-5.6zM233.1 145.7v4.3h-.6v-3.8c-.8.7-1.8 1.3-2.9 1.8-.1-.2-.2-.4-.4-.6.9-.4 1.8-.9 2.8-1.7.9-.7 1.7-1.4 2.3-2.3l.6.5c-.6.7-1.3 1.3-1.8 1.8zM316 67.4v1h3.2v.4h-3.4l-1.2 1.8c.4.2.7.4 1 .6l1.6-1.7.6.3-2.7 2.7c.9-.1 1.8-.1 2.9-.2-.3-.3-.6-.5-.9-.8l.5-.3c.8.7 1.3 1.2 1.7 1.7l-.5.3c-.1-.2-.3-.3-.5-.5-2.3.2-4.3.4-5.9.4l-.1-.5c.6 0 1.3 0 2-.1l.9-1c-.7-.5-1.6-1-2.6-1.4l.3-.4 1.2.6.9-1.5h-2.9v-.4h3.2v-1h.7zM315.3 74.2v2H313v3.6h-.6v-5.6h2.9zm-.6.8v-.4H313v.4h1.7zm0 .7v-.4H313v.4h1.7zm4.3-1.5v5.1c0 .2-.1.4-.2.4-.2.1-.5.1-1 .1 0-.2-.1-.3-.2-.5h.7c.1 0 .1 0 .1-.1v-3h-1.9l.5.2-.5.6h1.1v.4h-1.8v.5h2.1v.4h-1.8c.2.2.3.4.5.5.2.2.5.3 1 .5-.1.1-.3.2-.4.4-.4-.2-.8-.4-1-.6-.2-.2-.4-.4-.5-.6-.1.1-.2.3-.2.4-.3.3-.8.6-1.5.9-.1-.2-.2-.3-.4-.4.7-.2 1.2-.4 1.5-.7.1-.1.1-.2.2-.3h-1.6V78h1.7v-.5h-1.5v-.4h.9c-.1-.2-.3-.3-.5-.5l.4-.3c.2.2.5.4.7.6l-.3.2h1l.5-.8h-.3v-2h2.7zm-.6.4h-1.7v.4h1.7v-.4zm0 .7h-1.7v.4h1.7v-.4zM313.1 81.4v3c.3-.1.7-.2 1.1-.3v-3.4h.5v5.7h-.5v-1.9l-2.1.6-.1-.5c.2 0 .4-.1.6-.1v-3.1h.5zm6.1-.1c-.4 1.3-.9 2.2-1.4 2.9-.1.1-.2.3-.3.4.5.5 1.1 1 1.9 1.4-.2.1-.3.2-.4.4-.8-.4-1.4-.9-1.9-1.4-.5.5-1.2 1-1.9 1.4-.1-.2-.2-.3-.4-.4.8-.4 1.4-.9 2-1.4-.1-.1-.2-.2-.2-.3-.4-.8-.7-1.7-.7-2.7h-.7V81h3.6l.4.3zm-2 2.8c0-.1.1-.1.1-.1.5-.7.9-1.6 1.2-2.5h-2.1c.1 1 .3 1.9.8 2.6zM313.8 87.3l-.8 1.3c.2.1.3.2.5.3l.8-1.1.5.3-1.5 2c.3 0 .7-.1 1-.1-.1-.1-.1-.2-.2-.4l.5-.2c.2.3.4.7.5 1l-.5.2c0-.1-.1-.2-.1-.3-.2 0-.5.1-.7.1V93h-.5v-2.5c-.5.1-.9.1-1.3.1l-.1-.4h.8l.5-.8c-.4-.3-.8-.6-1.3-.8l.3-.4c.1.1.2.1.4.2l.7-1.3.5.2zm-.9 3.7c0 .5-.2 1-.4 1.5l-.5-.1c.2-.4.3-.9.4-1.5l.5.1zm2.1 1.1c-.1 0-.3 0-.5.1-.2-.3-.2-.7-.3-1.2l.5-.1c0 .4.1.8.3 1.2zm1.8-3.7v-1.3h.5v1.3h1.7v4c0 .2-.1.4-.2.4-.1.1-.4.1-.8.1 0-.2-.1-.3-.2-.5h.6c.1 0 .1 0 .1-.1v-3.5h-1.2c0 .3 0 .6-.1.8.4.5.8.9 1.2 1.3l-.5.3c-.2-.4-.5-.7-.9-1.1-.2.5-.4.9-.8 1.4-.1-.1-.3-.2-.5-.3V93h-.5v-4.6h1.6zm-.2 1.6c.1-.3.2-.7.2-1.2h-1v2.4c.4-.3.6-.7.8-1.2zM319 94.8c-.5-.4-1-.7-1.5-.8-.6-.2-1.2-.3-1.8-.3-.7 0-1.3.1-1.8.3-.5.2-.9.5-1.5.8l-.4-.3c.6-.4 1.1-.7 1.6-.9.6-.3 1.3-.4 2.1-.4s1.5.1 2.1.4c.5.2 1 .5 1.6.9l-.4.3zM316 95.7v4.6h-.4v-4.6h-1.4v-.5h3.2v.5H316zM317.8 102.1c-.6.3-1.3.4-2.1.4s-1.5-.1-2.1-.4c-.5-.2-1-.5-1.6-.9l.4-.3c.5.4 1 .7 1.5.8.6.2 1.2.3 1.8.3.7 0 1.3-.1 1.8-.3.4-.2.9-.5 1.5-.8l.4.3c-.5.4-1.1.7-1.6.9zM501.9 152.3c-.3.2-.6.3-1 .3h-1.3v2h-.6V150h1.6c.5 0 .9.1 1.2.3.4.2.5.6.5 1 .1.5-.1.8-.4 1zm-1.1-1.8h-1.2v1.7h1.2c.7 0 1.1-.3 1.1-.8-.1-.6-.4-.9-1.1-.9zM505.9 154.4c-.3.2-.7.3-1.1.3-.5 0-.8-.1-1.2-.3-.3-.2-.5-.6-.6-1h.6c.1.3.2.6.4.7.2.1.4.2.8.2.3 0 .5-.1.7-.2.2-.2.4-.4.4-.6 0-.3-.4-.6-1.1-.9-1-.4-1.5-.9-1.5-1.4 0-.4.2-.7.5-.9.3-.2.6-.3 1-.3.7 0 1.2.4 1.5 1.2h-.6c-.2-.5-.5-.7-.9-.7-.3 0-.5.1-.7.2-.2.1-.3.3-.3.6 0 .2.2.5.7.7.4.2.8.5 1.3.7.5.3.7.6.7 1 0 .2-.2.5-.6.7zM369.8 111.6c-.3.2-.6.3-1 .3h-1.3v2h-.5v-4.6h1.6c.5 0 .9.1 1.2.3.4.2.5.6.5 1s-.2.7-.5 1zm-1.1-1.9h-1.2v1.7h1.2c.7 0 1.1-.3 1.1-.8-.1-.6-.4-.9-1.1-.9zM373.9 113.7c-.3.2-.7.3-1.1.3-.5 0-.8-.1-1.2-.3-.3-.2-.5-.6-.6-1h.6c.1.3.2.6.4.7.2.1.4.2.8.2.3 0 .5-.1.7-.2.2-.2.4-.4.4-.6 0-.3-.4-.6-1.1-.9-1-.4-1.5-.9-1.5-1.4 0-.4.2-.7.5-.9.3-.2.6-.3 1-.3.7 0 1.2.4 1.5 1.2h-.6c-.2-.5-.5-.7-.9-.7-.3 0-.5.1-.7.2-.2.1-.3.3-.3.6 0 .2.2.5.7.7.4.2.8.5 1.3.7.5.3.7.6.7 1-.1.1-.3.4-.6.7zM88.6 131.3c-.3.2-.6.3-1 .3h-1.3v2h-.5V129h1.6c.5 0 .9.1 1.2.3.4.2.5.6.5 1s-.2.7-.5 1zm-1.1-1.9h-1.2v1.7h1.2c.7 0 1.1-.3 1.1-.8-.1-.6-.4-.9-1.1-.9zM88.6 140.8c-.3.2-.7.3-1.1.3-.5 0-.8-.1-1.2-.3-.3-.2-.5-.6-.6-1h.6c.1.3.2.6.4.7.2.1.4.2.8.2.3 0 .5-.1.7-.2.2-.2.4-.4.4-.6 0-.3-.4-.6-1.1-.9-1-.4-1.5-.9-1.5-1.4 0-.4.2-.7.5-.9.3-.2.6-.3 1-.3.7 0 1.2.4 1.5 1.2h-.6c-.2-.5-.5-.7-.9-.7-.3 0-.5.1-.6.2-.2.1-.3.3-.3.6 0 .2.2.5.7.7.4.2.8.5 1.3.7.5.3.7.6.7 1-.2.1-.4.4-.7.7zM287.9 374c-.3.2-.6.3-1 .3h-1.3v2h-.5v-4.6h1.6c.5 0 .9.1 1.2.3.4.2.5.6.5 1s-.2.7-.5 1zm-1.1-1.9h-1.2v1.7h1.2c.7 0 1.1-.3 1.1-.8-.1-.6-.4-.9-1.1-.9zM294.4 376.1c-.3.2-.7.3-1.1.3-.5 0-.8-.1-1.2-.3-.3-.2-.5-.6-.6-1h.6c.1.3.2.6.4.7.2.1.4.2.8.2.3 0 .5-.1.7-.2.2-.2.4-.4.4-.6 0-.3-.4-.6-1.1-.9-1-.4-1.5-.9-1.5-1.4 0-.4.2-.7.5-.9.3-.2.6-.3 1-.3.7 0 1.2.4 1.5 1.2h-.6c-.2-.5-.5-.7-.9-.7-.3 0-.5.1-.6.2-.2.1-.3.3-.3.6 0 .2.2.5.7.7.4.2.8.5 1.3.7.5.3.7.6.7 1-.1.1-.3.5-.7.7zM127.8 353.9c0 .6-.1 1.1-.1 1.4 0 .2-.1.3-.2.4-.1.1-.4.1-.9.2 0-.1-.1-.3-.1-.4h.5c.2 0 .3-.1.4-.2.1-.2.1-.5.1-1V353H126c-.1.8-.3 1.4-.6 1.9s-.8.9-1.4 1.3c-.1-.1-.2-.3-.3-.4.6-.3 1-.7 1.3-1.1.3-.4.5-1 .6-1.6h-1.5v-.4h1.5v-1.2h.5v1.2h1.8l-.1 1.2zM128.4 353.8v-.4h4.5v.4h-4.5zM136 353.3c-.1.9-.2 1.5-.5 1.8-.2.3-.7.7-1.4 1-.1-.1-.1-.3-.3-.4.7-.2 1.1-.5 1.4-.8.2-.3.3-.8.4-1.6h-2.3v-.4h4.9v.4H136zm-1.9-1.3v-.4h3.3v.4h-3.3zM141.2 354.6c-.6.4-1.3.9-2.2 1.3l-.3-.5c1.5-.5 2.9-1.5 4-2.9l.3.3c-.6.8-1.2 1.4-1.8 1.8zm-1.2-1.8c-.4-.4-.8-.7-1.2-1l.3-.4c.5.3.9.6 1.3.9l-.4.5zM146.6 354.3c-.5.4-1 .7-1.5 1-.4.2-.7.4-.9.5l-.4-.3v-4h.4v3.7c.8-.3 1.4-.7 1.8-1 .4-.3.9-.8 1.4-1.4l.3.3c-.3.4-.7.8-1.1 1.2zM148.2 353.8v-.4h4.5v.4h-4.5zM154.6 354c-.2.7-.6 1.3-1.2 1.9-.1-.1-.2-.3-.3-.4.5-.3.8-.7 1-1.2.2-.4.3-.9.3-1.5v-1h.4c0 1-.1 1.8-.2 2.2zm1.5 1.8-.3-.3.1-.1v-4h.4v3.7c.6-.4 1.2-1 1.8-1.8l.3.3c-.8.9-1.6 1.6-2.3 2.2zM161.9 355.6h-.4l-.7-2.9-.8 2.9h-.4l-.9-3.6h.4l.7 2.9.8-2.9h.4l.7 2.9.7-2.9h.4l-.9 3.6zM212.1 353.9c0 .6-.1 1.1-.1 1.4 0 .2-.1.3-.2.4-.1.1-.3.1-.7.2 0-.1-.1-.3-.1-.4h.3c.1 0 .2-.1.3-.2.1-.2.1-.5.1-1V353h-.9c-.1.8-.2 1.4-.4 1.9s-.5.9-1 1.3c-.1-.1-.1-.3-.2-.4.4-.3.7-.7.9-1.1.2-.4.3-1 .4-1.6h-1v-.4h1v-1.2h.3v1.2h1.3v1.2zM212.5 353.8v-.4h3.1v.4h-3.1zM217.8 353.3c-.1.9-.2 1.5-.3 1.8-.2.3-.5.7-1 1 0-.1-.1-.3-.2-.4.5-.2.8-.5 1-.8.2-.3.2-.8.3-1.6H216v-.4h3.4v.4h-1.6zm-1.4-1.3v-.4h2.3v.4h-2.3zM221.4 354.6c-.4.4-.9.9-1.6 1.3l-.2-.5c1.1-.5 2-1.5 2.8-2.9.1.1.1.2.2.3-.3.8-.8 1.4-1.2 1.8zm-.8-1.8c-.3-.4-.6-.7-.9-1l.2-.4.9.9-.2.5zM223.4 355.4l-.3-.3c.3-.5.5-1 .8-1.7l.3.2c-.3.7-.5 1.2-.8 1.8zm1.5-2.6v3.2h-.3v-3.2h-1.5v-.4h1.5v-1.2h.3v1.2h1.6v.4h-1.6zm1.3 2.4c-.3-.5-.6-1-.9-1.7l.3-.3c.3.7.6 1.2.9 1.7l-.3.3zm-.2-3c-.1-.2-.2-.4-.4-.6l.1-.2c.2.2.3.4.5.5l-.2.3zm.2-.5c-.1-.2-.2-.4-.4-.6l.1-.2c.2.2.3.4.5.5l-.2.3zM227.2 354.1c-.1-.3-.2-.6-.4-1l.2-.2c.1.3.3.7.4 1l-.2.2zm1.8.2c-.2.5-.4.9-.7 1.2-.2.3-.5.5-.9.7 0-.1-.1-.3-.2-.4.4-.1.6-.3.9-.6.2-.2.5-.6.6-1 .1-.3.3-.8.4-1.4l.3.1c-.2.6-.3 1-.4 1.4zm-1.1-.5c-.1-.3-.2-.7-.3-1l.2-.1c.1.4.3.7.3 1l-.2.1zM231.7 354.6c-.4.6-.9 1-1.5 1.3 0-.1-.1-.3-.2-.4.6-.2 1-.6 1.4-1 .3-.4.6-1.1.8-1.9h-1.3c-.3.6-.6 1.2-.9 1.6l-.3-.3c.3-.4.6-.8.8-1.1.1-.3.3-.8.5-1.4l.3.2c-.1.2-.1.4-.2.7h1.3l.2.3c-.2.8-.6 1.5-.9 2zM236 355.8c-.3-.6-.7-1.3-1.2-1.9-.4.7-1 1.3-1.6 1.9-.1-.2-.1-.3-.2-.4.6-.4 1-.8 1.4-1.3.3-.4.6-1.1 1-2h-2v-.4h2.1l.2.3c-.2.6-.5 1.2-.7 1.6.5.6.9 1.2 1.3 1.9l-.3.3zM237.8 354h-.4l-.1-.1v-.6l.1-.1h.4l.1.1v.6l-.1.1zM241.7 353.9c0 .6-.1 1.1-.1 1.4 0 .2-.1.3-.2.4-.1.1-.3.1-.7.2 0-.1-.1-.3-.1-.4h.3c.1 0 .2-.1.3-.2.1-.2.1-.5.1-1V353h-.9c-.1.8-.2 1.4-.4 1.9s-.5.9-1 1.3c-.1-.1-.1-.3-.2-.4.4-.3.7-.7.9-1.1.2-.4.3-1 .4-1.6h-1v-.4h1v-1.2h.3v1.2h1.3v1.2zM242.1 353.8v-.4h3.1v.4h-3.1zM247.4 353.3c-.1.9-.2 1.5-.3 1.8-.2.3-.5.7-1 1 0-.1-.1-.3-.2-.4.5-.2.8-.5 1-.8.2-.3.2-.8.3-1.6h-1.6v-.4h3.4v.4h-1.6zm-1.3-1.3v-.4h2.3v.4h-2.3zM251.1 354.6c-.4.4-.9.9-1.6 1.3l-.2-.5c1.1-.5 2-1.5 2.8-2.9.1.1.1.2.2.3-.4.8-.8 1.4-1.2 1.8zm-.9-1.8c-.3-.4-.6-.7-.9-1l.2-.4.9.9-.2.5zM254.8 354.3c-.3.4-.7.7-1.1 1-.3.2-.5.4-.6.5l-.3-.3v-4h.3v3.7c.5-.3 1-.7 1.3-1 .3-.3.6-.8 1-1.4.1.1.1.2.2.3-.2.4-.5.8-.8 1.2zM256 353.8v-.4h3.1v.4H256zM260.4 354c-.1.7-.4 1.3-.8 1.9-.1-.1-.1-.3-.2-.4.3-.3.5-.7.7-1.2.1-.4.2-.9.2-1.5v-1h.3c0 1-.1 1.8-.2 2.2zm1 1.8-.2-.3v-4.1h.3v3.7c.4-.4.8-1 1.2-1.8.1.1.1.2.2.3-.4.9-.9 1.6-1.5 2.2zM265.5 355.6h-.3l-.5-2.9-.6 2.9h-.3l-.6-3.6h.3l.5 2.9.6-2.9h.3l.5 2.9.5-2.9h.3l-.7 3.6zM322.9 353.9c0 .6-.1 1.1-.1 1.4 0 .2-.1.3-.2.4-.1.1-.4.1-.8.2 0-.1-.1-.3-.1-.4h.4c.2 0 .3-.1.3-.2.1-.2.1-.5.1-1V353h-1.2c-.1.8-.3 1.4-.6 1.9s-.7.9-1.3 1.3c-.1-.1-.2-.3-.3-.4.5-.3.9-.7 1.2-1.1.3-.4.4-1 .5-1.6h-1.3v-.4h1.3v-1.2h.4v1.2h1.7v1.2zM323.4 353.8v-.4h4v.4h-4zM330.3 353.3c-.1.9-.2 1.5-.4 1.8-.2.3-.6.7-1.3 1-.1-.1-.1-.3-.2-.4.6-.2 1-.5 1.2-.8.2-.3.3-.8.4-1.6h-2.1v-.4h4.4v.4h-2zm-1.7-1.3v-.4h2.9v.4h-2.9zM335 354.6c-.5.4-1.2.9-2 1.3l-.2-.5c1.4-.5 2.6-1.5 3.6-2.9l.3.3c-.6.8-1.2 1.4-1.7 1.8zm-1.1-1.8c-.4-.4-.8-.7-1.1-1l.2-.4 1.2.9-.3.5zM337.5 355.4c-.1-.1-.2-.2-.4-.3.4-.5.7-1 1-1.7l.4.2c-.3.7-.7 1.2-1 1.8zm1.9-2.6v3.2h-.4v-3.2h-1.9v-.4h1.9v-1.2h.4v1.2h2v.4h-2zm1.7 2.4c-.4-.5-.8-1-1.1-1.7l.4-.3c.3.7.7 1.2 1.1 1.7-.1.1-.3.2-.4.3zm-.3-3c-.1-.2-.3-.4-.6-.6l.2-.2c.2.2.4.4.6.5l-.2.3zm.4-.5c-.1-.2-.3-.4-.6-.6l.2-.2c.2.2.4.4.6.5l-.2.3zM342.4 354.1c-.1-.3-.3-.6-.5-1l.3-.2c.2.3.4.7.5 1l-.3.2zm2.3.2c-.2.5-.5.9-.9 1.2-.3.3-.7.5-1.2.7-.1-.1-.1-.3-.2-.4.5-.1.8-.3 1.1-.6.3-.2.6-.6.8-1 .2-.3.3-.8.5-1.4l.4.1c-.2.6-.4 1-.5 1.4zm-1.4-.5c-.1-.3-.2-.7-.4-1l.3-.1c.2.4.3.7.4 1l-.3.1zM348.2 354.6c-.5.6-1.2 1-2 1.3-.1-.1-.1-.3-.2-.4.7-.2 1.3-.6 1.8-1 .4-.4.7-1.1 1.1-1.9h-1.6c-.4.6-.8 1.2-1.2 1.6-.1-.1-.2-.2-.4-.3.4-.4.7-.8 1-1.1.2-.3.4-.8.7-1.4l.4.2c-.1.2-.2.4-.3.7h1.8l.3.3c-.6.8-1 1.5-1.4 2zM353.8 355.8c-.4-.6-.9-1.3-1.5-1.9-.5.7-1.2 1.3-2.1 1.9-.1-.2-.2-.3-.3-.4.7-.4 1.3-.8 1.8-1.3.4-.4.8-1.1 1.3-2h-2.6v-.4h2.9l.3.3c-.3.6-.6 1.2-.9 1.6.6.6 1.2 1.2 1.6 1.9l-.5.3zM356 354h-.6l-.1-.1v-.6l.1-.1h.6l.1.1v.6l-.1.1zM361 353.9c0 .6-.1 1.1-.1 1.4 0 .2-.1.3-.2.4-.1.1-.4.1-.8.2 0-.1-.1-.3-.1-.4h.4c.2 0 .3-.1.3-.2.1-.2.1-.5.1-1V353h-1.2c-.1.8-.3 1.4-.6 1.9s-.7.9-1.3 1.3c-.1-.1-.2-.3-.3-.4.5-.3.9-.7 1.2-1.1.3-.4.4-1 .5-1.6h-1.3v-.4h1.3v-1.2h.4v1.2h1.7v1.2zM361.5 353.8v-.4h4v.4h-4zM368.4 353.3c-.1.9-.2 1.5-.4 1.8-.2.3-.6.7-1.3 1-.1-.1-.1-.3-.2-.4.6-.2 1-.5 1.2-.8.2-.3.3-.8.4-1.6H366v-.4h4.4v.4h-2zm-1.8-1.3v-.4h2.9v.4h-2.9zM373.1 354.6c-.5.4-1.2.9-2 1.3l-.2-.5c1.4-.5 2.6-1.5 3.6-2.9l.3.3c-.7.8-1.2 1.4-1.7 1.8zm-1.1-1.8c-.4-.4-.8-.7-1.1-1l.2-.4 1.2.9-.3.5zM377.9 354.3c-.4.4-.9.7-1.4 1-.4.2-.6.4-.8.5l-.3-.3v-4h.4v3.7c.7-.3 1.2-.7 1.6-1 .4-.3.8-.8 1.3-1.4l.3.3c-.4.4-.8.8-1.1 1.2zM379.4 353.8v-.4h4v.4h-4zM385.1 354c-.2.7-.5 1.3-1.1 1.9-.1-.1-.2-.3-.3-.4.4-.3.7-.7.9-1.2.1-.4.2-.9.3-1.5v-1h.4c0 1-.1 1.8-.2 2.2zm1.3 1.8-.3-.3v-4.1h.4v3.7c.5-.4 1.1-1 1.6-1.8l.3.3c-.6.9-1.3 1.6-2 2.2zM391.7 355.6h-.4l-.7-2.9-.7 2.9h-.4l-.8-3.6h.4l.6 2.9.7-2.9h.4l.7 2.9.7-2.9h.4l-.9 3.6zM440.8 353.9c0 .6-.1 1.1-.1 1.4 0 .2-.1.3-.2.4-.1.1-.4.1-.8.2 0-.1-.1-.3-.1-.4h.4c.2 0 .3-.1.3-.2.1-.2.1-.5.1-1V353h-1.2c-.1.8-.3 1.4-.6 1.9s-.7.9-1.3 1.3c-.1-.1-.2-.3-.3-.4.5-.3.9-.7 1.2-1.1.3-.4.4-1 .5-1.6h-1.3v-.4h1.3v-1.2h.4v1.2h1.7v1.2zM441.3 353.8v-.4h4v.4h-4zM448.2 353.3c-.1.9-.2 1.5-.4 1.8-.2.3-.6.7-1.3 1-.1-.1-.1-.3-.2-.4.6-.2 1-.5 1.2-.8.2-.3.3-.8.4-1.6h-2.1v-.4h4.4v.4h-2zm-1.7-1.3v-.4h2.9v.4h-2.9zM452.9 354.6c-.5.4-1.2.9-2 1.3l-.2-.5c1.4-.5 2.6-1.5 3.6-2.9l.3.3c-.6.8-1.2 1.4-1.7 1.8zm-1.1-1.8c-.4-.4-.8-.7-1.1-1l.2-.4 1.2.9-.3.5zM455.4 355.4c-.1-.1-.2-.2-.4-.3.4-.5.7-1 1-1.7l.4.2c-.3.7-.7 1.2-1 1.8zm1.9-2.6v3.2h-.3v-3.2h-1.9v-.4h1.9v-1.2h.4v1.2h2v.4h-2.1zm1.8 2.4c-.4-.5-.8-1-1.1-1.7l.4-.3c.3.7.7 1.2 1.1 1.7-.2.1-.4.2-.4.3zm-.4-3c-.1-.2-.3-.4-.6-.6l.2-.2c.2.2.4.4.6.5l-.2.3zm.4-.5c-.1-.2-.3-.4-.6-.6l.2-.2c.2.2.4.4.6.5l-.2.3zM460.3 354.1c-.1-.3-.3-.6-.5-1l.3-.2c.2.3.4.7.5 1l-.3.2zm2.3.2c-.2.5-.5.9-.9 1.2-.3.3-.7.5-1.2.7-.1-.1-.1-.3-.2-.4.5-.1.8-.3 1.1-.6.3-.2.6-.6.8-1 .2-.3.3-.8.5-1.4l.4.1c-.2.6-.4 1-.5 1.4zm-1.4-.5c-.1-.3-.2-.7-.4-1l.3-.1c.2.4.3.7.4 1l-.3.1zM466.1 354.6c-.5.6-1.2 1-2 1.3-.1-.1-.1-.3-.2-.4.7-.2 1.3-.6 1.8-1 .4-.4.7-1.1 1.1-1.9h-1.6c-.4.6-.8 1.2-1.2 1.6-.1-.1-.2-.2-.4-.3.4-.4.7-.8 1-1.1.2-.3.4-.8.7-1.4l.4.2c-.1.2-.2.4-.3.7h1.8l.3.3c-.6.8-1 1.5-1.4 2zM471.7 355.8c-.4-.6-.9-1.3-1.5-1.9-.5.7-1.2 1.3-2.1 1.9-.1-.2-.2-.3-.3-.4.7-.4 1.3-.8 1.8-1.3.4-.4.8-1.1 1.3-2h-2.6v-.4h2.9l.3.3c-.3.6-.6 1.2-.9 1.6.6.6 1.2 1.2 1.6 1.9l-.5.3zM473.9 354h-.6l-.1-.1v-.6l.1-.1h.6l.1.1v.6l-.1.1zM478.9 353.9c0 .6-.1 1.1-.1 1.4 0 .2-.1.3-.2.4-.1.1-.4.1-.8.2 0-.1-.1-.3-.1-.4h.4c.2 0 .3-.1.3-.2.1-.2.1-.5.1-1V353h-1.2c-.1.8-.3 1.4-.6 1.9s-.7.9-1.3 1.3c-.1-.1-.2-.3-.3-.4.5-.3.9-.7 1.2-1.1.3-.4.4-1 .5-1.6h-1.3v-.4h1.3v-1.2h.4v1.2h1.7v1.2zM479.4 353.8v-.4h4v.4h-4zM486.3 353.3c-.1.9-.2 1.5-.4 1.8-.2.3-.6.7-1.3 1-.1-.1-.1-.3-.2-.4.6-.2 1-.5 1.2-.8.2-.3.3-.8.4-1.6h-2.1v-.4h4.4v.4h-2zm-1.8-1.3v-.4h2.9v.4h-2.9zM491 354.6c-.5.4-1.2.9-2 1.3l-.2-.5c1.4-.5 2.6-1.5 3.6-2.9l.3.3c-.7.8-1.2 1.4-1.7 1.8zm-1.1-1.8c-.4-.4-.8-.7-1.1-1l.2-.4 1.2.9-.3.5zM495.8 354.3c-.4.4-.9.7-1.4 1-.4.2-.6.4-.8.5l-.3-.3v-4h.4v3.7c.7-.3 1.2-.7 1.6-1 .4-.3.8-.8 1.3-1.4l.3.3c-.4.4-.8.8-1.1 1.2zM497.3 353.8v-.4h4v.4h-4zM503 354c-.2.7-.5 1.3-1.1 1.9-.1-.1-.2-.3-.3-.4.4-.3.7-.7.9-1.2.1-.4.2-.9.3-1.5v-1h.4c0 1-.1 1.8-.2 2.2zm1.3 1.8-.3-.3v-4.1h.4v3.7c.5-.4 1.1-1 1.6-1.8l.3.3c-.6.9-1.3 1.6-2 2.2zM509.6 355.6h-.4l-.7-2.9-.7 2.9h-.4l-.8-3.6h.4l.6 2.9.7-2.9h.4l.7 2.9.7-2.9h.4l-.9 3.6zM310.5 135.7c-.5.7-1.4 1.2-2.6 1.6-.1-.2-.2-.4-.3-.5 1-.2 1.8-.6 2.2-1.2.5-.6.8-1.4.8-2.4h-3.4v1.6h-.5v-2.1h2v-1.2h.5v1.2h2c0 1.4-.2 2.4-.7 3zM315 134.5v2.3c0 .2 0 .4-.1.5-.1.1-.3.1-.7.2 0-.2-.1-.4-.1-.5h.3c.2 0 .2-.1.2-.2V135c-.6.8-1.4 1.4-2.3 1.9-.1-.1-.2-.3-.3-.4 1-.5 1.8-1.2 2.4-2h-2.2v-.4h2.3v-1h.4v1h1.5v.4H315zM318.3 134.7l-1.2-.6.2-.4c.5.2.9.3 1.2.5l-.2.5zm1.9 1.1c-.7.5-1.5.9-2.5 1.3l-.3-.5c1.8-.6 3.3-1.6 4.5-3 .1.1.2.3.3.4-.6.7-1.3 1.3-2 1.8zm-1.2-2.7c-.4-.3-.8-.5-1.2-.7l.2-.4c.5.3.9.5 1.2.7l-.2.4zM322.9 137v-.4h2.9l.2-2.2h-2.5v-.4h2.9l-.2 2.6h1.3v.4h-4.6zM313.3 143.1c-.5.4-1.1.8-1.7 1.1-.5.2-.8.4-1 .6l-.4-.4v-4.6h.5v4.2c.9-.4 1.6-.8 2.1-1.2.5-.4 1-.9 1.6-1.6.1.1.2.3.4.4-.6.7-1.1 1.2-1.5 1.5zM316 142.9c-.2-.3-.4-.7-.7-1.1l.4-.2c.2.4.5.7.7 1.2l-.4.1zm2.9.2c-.3.6-.7 1-1.1 1.4-.4.3-.9.6-1.5.8-.1-.2-.2-.3-.3-.4.6-.2 1-.4 1.4-.6.4-.3.7-.7 1-1.2.2-.4.4-1 .6-1.7l.5.1c-.2.7-.4 1.2-.6 1.6zm-1.7-.5c-.1-.4-.3-.8-.5-1.1l.4-.2c.2.4.4.8.6 1.1l-.5.2zM324 143.1c-.7-.4-1.6-.8-2.7-1.2v3.3h-.5v-5.6h.5v1.8c1 .3 2 .7 3 1.2l-.3.5zM322.5 120.3c-.5.1-1.1.2-1.9.3v.8h2v.4h-2v.9h2.3v.4h-2.3v1.4c0 .1-.1.2-.3.3-.2.1-.4.1-.8.1 0-.1 0-.3-.2-.4h.6c.1 0 .1 0 .1-.1v-1.3h-2v-.4h2.2v-.9h-2v-.4h2v-.8c-.6.1-1.2.1-1.8.1-.1-.2-.1-.3-.2-.4.8 0 1.6-.1 2.2-.1.6-.1 1.2-.2 1.9-.3l.2.4zM324.8 123.1l-.9 1.8-.4-.2 1-1.8c.1.1.2.2.3.2zm-.3-1.2-.2.3c-.2-.2-.5-.4-.8-.5l.2-.3c.4.1.6.3.8.5zm.3-1.3-.2.3c-.2-.3-.5-.5-.7-.6l.2-.3c.2.1.5.3.7.6zm1.1-.4c-.1.3-.2.5-.3.7h.8v-1h.4v1h1.4v.3h-1.4v1h1.7v.3h-1.2v1.8c0 .1 0 .1.1.1h.6c.1 0 .2-.1.2-.1.1-.1.1-.2.1-.4.1.1.2.1.4.1 0 .2-.1.4-.2.6-.1.2-.2.2-.4.2h-.7c-.3 0-.4-.2-.4-.5v-1.8h-.8c0 .7-.1 1.2-.3 1.5-.2.3-.6.6-1.1.8-.1-.1-.1-.3-.2-.4.5-.2.9-.5 1-.8.1-.3.2-.6.2-1.1h-1.1v-.3h1.7v-1h-1c-.1.3-.3.5-.4.7-.1-.1-.2-.2-.3-.2.2-.3.4-.5.5-.8.1-.3.2-.5.3-.8l.4.1zM333.5 122.6c0 .6-.1 1.1-.1 1.4 0 .2-.1.3-.2.4-.1.1-.4.1-.9.2 0-.1-.1-.3-.1-.4h.5c.2 0 .3-.1.4-.2.1-.2.1-.5.1-1v-1.3h-1.3c-.1.8-.3 1.4-.6 1.9s-.8.9-1.4 1.3c-.1-.1-.2-.3-.3-.4.6-.3 1-.7 1.3-1.1.3-.4.5-1 .6-1.6H330v-.4h1.5v-1.2h.5v1.2h1.8l-.3 1.2zM337.5 123.4c-.4.6-1.2 1.1-2.3 1.4-.1-.2-.2-.3-.2-.4.9-.2 1.5-.6 2-1 .5-.5.7-1.2.7-2.1h-3v1.4h-.4v-1.8h1.7v-1h.4v1h1.8c-.1 1.1-.3 1.9-.7 2.5zM341.3 123.4c-.6.4-1.3.9-2.2 1.3l-.3-.5c1.5-.5 2.9-1.5 4-2.9l.3.3c-.6.7-1.2 1.3-1.8 1.8zm-1.2-1.8c-.4-.4-.8-.7-1.2-1l.3-.4c.5.3.9.6 1.3.9l-.4.5zM346.6 123.3c-.6.6-1.3 1.1-2.3 1.5-.1-.1-.1-.2-.3-.4.9-.3 1.6-.8 2.2-1.4-.3-.3-.7-.6-1-.8l.2-.3c.4.3.8.5 1.1.8.3-.4.6-.9.9-1.5h-1.8c-.5.7-1 1.2-1.7 1.6-.1-.1-.2-.3-.3-.4.6-.4 1-.7 1.2-1 .3-.3.5-.8.8-1.4l.5.2-.3.6h1.8l.3.3c-.3.9-.8 1.7-1.3 2.2zM348.6 122.6v-.4h4.5v.4h-4.5zM263.2 39l-.4-.4c.5-.4 1.1-1 1.8-1.7h-5.2v-.6h5.8l.5.5c-1.1 1-2 1.7-2.5 2.2zm-.9 1.8c-.3.7-1 1.3-2.1 1.8-.1-.2-.2-.4-.4-.6.9-.2 1.6-.6 1.9-1.2.3-.5.4-1.2.4-2.2V38h.6c0 1.3-.1 2.3-.4 2.8zM268.7 39.8c-.3 1-.9 1.9-1.7 2.6-.1-.2-.3-.4-.4-.5.6-.5 1.1-1 1.4-1.7.2-.5.4-1.3.4-2.2v-1.5h.6c0 1.5-.1 2.6-.3 3.3zm2.1 2.4-.5-.5.1-.1V36h.6v5.3c.9-.6 1.7-1.5 2.5-2.5.1.1.3.3.5.4-1.1 1.3-2.2 2.3-3.2 3zM279.2 42.3v-.4h-4.5v-.6h4.5v-3.4h-4.5v-.6h5.2v5.1h-.7zM280.8 39.4v-.6h6.4v.6h-6.4zM292 40.5c-.7.8-1.7 1.5-3.2 2.1l-.3-.6c1.2-.4 2.2-.9 2.9-1.7.7-.7 1.2-1.7 1.7-3H288v-.6h5.4l.5.5c-.7 1.5-1.3 2.6-1.9 3.3zm2-3.6c-.2-.2-.5-.5-.9-.8l.3-.3c.4.3.7.5.9.8l-.3.3zm.6-.6c-.2-.2-.5-.5-.9-.8l.3-.3c.4.3.7.5.9.8l-.3.3zM262.4 45.2v1.1h.4l.2.2c-.2.4-.4.9-.7 1.2l.2.2c.2-.1.3-.3.5-.5l.2.3-.5.5c.1.1.3.2.4.3-.1.1-.2.2-.2.3-.2-.1-.4-.3-.5-.5l-.1-.1v2.1h-.3v-2.1l-.6.6c0-.1-.1-.3-.2-.4.6-.6 1.1-1.1 1.4-1.8h-1.3v-.3h.7v-1.1h.4zm3.8 5h-.4v-.4h-1.9v.4h-.4v-3.7h1.1v-1.3h.4v1.3h1.1v3.7zm-1.6-2.2v-1.1h-.8V48h.8zm0 1.5v-1.2h-.8v1.2h.8zm.4-1.5h.8v-1.1h-.8V48zm0 1.5h.8v-1.2h-.8v1.2zM268.7 45.3c-.1.4-.3.8-.5 1.2v3.9h-.4v-3.2c-.2.3-.4.6-.7.9 0-.1-.1-.3-.2-.4.5-.7 1-1.5 1.4-2.6l.4.2zm2.1 1.3v-1.3h.4v1.3h1v.4h-1v2.9c0 .1-.1.2-.2.3-.2.1-.4.1-.7.1 0-.1 0-.3-.1-.4h.6c.1 0 .1 0 .1-.1V47h-2.3v-.4h2.2zm-.8 1.9-.3.2c-.2-.3-.5-.6-.8-1l.3-.2c.3.4.6.8.8 1zM275.5 45.2v.9h2.2v.4h-2.4l-.8 1.6c.3.2.5.4.7.6l1.1-1.5.4.2-1.9 2.4c.6 0 1.3-.1 2-.2-.2-.2-.4-.5-.6-.7l.3-.2c.5.6.9 1.1 1.2 1.5l-.3.2c-.1-.2-.2-.3-.3-.4-1.6.2-3 .3-4.1.4l-.1-.4c.4 0 .9 0 1.4-.1l.7-.9c-.5-.4-1.1-.9-1.8-1.2l.2-.4c.3.2.6.3.8.5l.6-1.3h-2v-.4h2.3v-.9h.4zM280.8 45.4v1.7h-1.6v3.2h-.4v-4.9h2zm-.4.7v-.4h-1.2v.4h1.2zm0 .7v-.4h-1.2v.4h1.2zm3-1.4v4.4c0 .2-.1.3-.2.4-.1.1-.3.1-.7.1 0-.1-.1-.3-.2-.4h.5c.1 0 .1 0 .1-.1v-2.6h-1.3l.3.1-.3.5h.8v.3h-1.3v.5h1.5v.3h-1.3c.1.2.2.3.3.4.1.1.4.3.7.4l-.3.3c-.3-.2-.6-.3-.7-.5-.1-.1-.3-.3-.4-.5-.1.1-.1.2-.2.3-.2.3-.6.5-1.1.8l-.3-.3c.5-.1.8-.4 1.1-.6.1-.1.1-.1.1-.2h-1.1v-.3h1.2v-.5h-1.1v-.3h.6c-.1-.1-.2-.3-.4-.5l.3-.2.5.5-.2.2h.7l.3-.7h-.2v-1.7h2.3zm-.4.3h-1.2v.4h1.2v-.4zm0 .7h-1.2v.4h1.2v-.4zM287.6 48.4c-.6-.4-1.4-.7-2.3-1v2.9h-.4v-4.9h.4V47c.9.3 1.8.6 2.6 1.1l-.3.3zm-.6-1.6c-.1-.2-.3-.4-.6-.6l.2-.2c.3.2.5.4.6.5l-.2.3zm.4-.4c-.1-.2-.3-.4-.6-.6l.2-.2c.3.2.5.4.6.5l-.2.3zM290.9 47.6l-.3-.3c.4-.3.8-.7 1.3-1.2h-3.6v-.4h4.1l.3.4c-.8.7-1.4 1.2-1.8 1.5zm-.6 1.3c-.2.5-.7.9-1.5 1.2-.1-.1-.2-.3-.3-.4.6-.2 1.1-.4 1.3-.9.2-.3.3-.8.3-1.5v-.4h.4c.1 1 0 1.7-.2 2zM111.8 200.5c-.2.5-.5 1-.9 1.4l-.3-.3c.6-.7 1-1.6 1.3-2.8l.4.2c-.1.6-.3 1.1-.5 1.5zm2.8 1.2c-.3-1-.8-1.9-1.3-2.8l.3-.2c.6.9 1.1 1.9 1.5 2.8l-.5.2zM117.7 201.1c-.5.4-1.1.8-1.9 1.1l-.2-.4c1.3-.4 2.5-1.3 3.4-2.5l.3.3c-.6.6-1.2 1.1-1.6 1.5zm-1.1-1.5c-.4-.3-.7-.6-1.1-.8l.2-.3c.4.2.8.5 1.1.8l-.2.3zM123.3 200.5c0 .5-.1.9-.1 1.2 0 .1-.1.2-.2.3-.1.1-.4.1-.8.2 0-.1-.1-.2-.1-.4h.4c.1 0 .3-.1.3-.2.1-.1.1-.4.1-.8v-1.1h-1.2c-.1.6-.3 1.2-.5 1.6-.3.4-.7.8-1.2 1.1l-.3-.3c.5-.3.9-.6 1.1-.9.3-.4.4-.8.5-1.4h-1.2v-.4h1.3v-1h.4v1h1.6l-.1 1.1zm0-1.4-.5-.5.2-.2c.2.2.4.3.6.5l-.3.2zm.3-.4-.5-.5.2-.2c.2.2.4.3.6.5l-.3.2zM124.1 200.4v-.3h3.8v.3h-3.8zM129.4 200.5c-.2.5-.5 1-.9 1.4l-.3-.3c.6-.7 1-1.6 1.3-2.8l.4.2c-.1.6-.3 1.1-.5 1.5zm2.7 1.2c-.3-1-.8-1.9-1.3-2.8l.3-.2c.6.9 1.1 1.9 1.5 2.8l-.5.2zm.3-2.6c-.1.1-.2.2-.3.2-.1 0-.3 0-.3-.1-.1-.1-.1-.2-.1-.3 0-.1 0-.3.1-.3.1-.1.2-.1.3-.1.1 0 .2 0 .3.1.1.1.1.2.1.3s0 .1-.1.2zm-.1-.5s-.1-.1-.2-.1c-.2 0-.3.1-.3.3 0 .1 0 .1.1.2 0 .1.1.1.2.1s.1 0 .2-.1c0 0 .1-.1.1-.2s-.1-.2-.1-.2zM135.3 199.6v2.7h-.3v-2.4c-.6.5-1.2.9-1.8 1.1-.1-.1-.1-.3-.2-.4.6-.2 1.2-.6 1.8-1.1.5-.4 1-.9 1.5-1.4l.4.3c-.6.5-1 .9-1.4 1.2zM139.6 201.1c-.4.5-1 .9-1.9 1.2 0-.1-.1-.2-.2-.4.7-.2 1.3-.6 1.7-1 .4-.4.7-1 1-1.8h-3v-.4h3.2l.3.3c-.4 1-.7 1.7-1.1 2.1zm1.6-2.4c-.1.1-.2.2-.3.2-.1 0-.3 0-.3-.1-.1-.1-.1-.2-.1-.3 0-.1 0-.3.1-.3.1-.1.2-.1.3-.1.1 0 .2 0 .3.1.1.1.1.2.1.3 0 0 0 .1-.1.2zm-.1-.5s-.1-.1-.2-.1c-.2 0-.3.1-.3.3 0 .1 0 .1.1.2 0 .1.1.1.2.1s.1 0 .2-.1c0 0 .1-.1.1-.2-.1-.1-.1-.2-.1-.2zM211.5 241.2c-.6.5-1.5.9-2.5 1.2-.1-.1-.2-.2-.3-.4.9-.2 1.7-.5 2.2-1 .5-.4 1-1 1.4-1.8h-2.1c-.4.6-1 1.1-1.5 1.5-.1-.1-.3-.2-.4-.3.5-.3.9-.7 1.2-1 .2-.3.5-.7.9-1.3l.5.2c-.1.1-.2.4-.4.7h2.2l.3.3c-.4.8-.9 1.5-1.5 1.9zM212.3 246.3v-.4H209v.4h-.5v-3.5h4.3v3.5h-.5zm0-3.1H209v2.3h3.3v-2.3zM210.5 250.7v-4.1h.5v4.1h-.5zM211.4 253.9l-.3-.3c.5-.4 1-.7 1.4-1.1l-2.4.3v1.7c0 .2.2.4.6.4h2.5v.4h-1.6c-.6 0-1 0-1.3-.1-.5-.1-.7-.3-.7-.7v-1.7l-1.6.2-.1-.4 1.6-.2v-1.3h.5v1.3l2.6-.3.1-.1.4.3c-.6.7-1.2 1.2-1.7 1.6zm1.6-2c-.2-.2-.4-.3-.7-.5l.2-.2c.3.2.6.3.7.5l-.2.2zm.4-.4c-.2-.2-.4-.3-.7-.5l.2-.2c.3.2.6.3.7.5l-.2.2zM210.2 257c-.2-.3-.4-.6-.7-.9l.4-.2c.2.3.5.6.7.9l-.4.2zm2.9.1c-.3.4-.7.8-1.1 1.1-.4.2-.9.5-1.5.7-.1-.1-.2-.2-.3-.4.6-.1 1-.3 1.4-.5.4-.2.7-.5 1-.9.2-.3.4-.8.6-1.3l.5.1c-.2.5-.4.9-.6 1.2zm-1.7-.4c-.1-.3-.3-.6-.5-.9l.4-.1c.2.4.4.7.6.9l-.5.1zM212.8 261.9c-.7-.3-1.6-.6-2.7-1v2.6h-.5V259h.5v1.4c1 .3 2 .6 3 1l-.3.5zM201.4 239.9c-.2.5-.5.9-.9 1.2-.1-.1-.2-.2-.3-.2.6-.6 1-1.4 1.3-2.5l.4.1c-.1.6-.3 1.1-.5 1.4zm2.7 1.1c-.3-.9-.8-1.7-1.3-2.5l.3-.2c.6.8 1.1 1.7 1.5 2.6l-.5.1zM202.9 243.8c-.5.3-1.1.7-1.9 1l-.2-.4c1.3-.4 2.5-1.2 3.4-2.3l.3.3c-.5.6-1.1 1.1-1.6 1.4zm-1-1.4c-.4-.3-.7-.5-1.1-.7l.2-.3c.4.2.8.5 1.1.7l-.2.3zM204 247.1c0 .5-.1.8-.1 1 0 .1-.1.2-.2.3-.1.1-.4.1-.8.1 0-.1-.1-.2-.1-.3h.4c.1 0 .3-.1.3-.2.1-.1.1-.4.1-.8v-1h-1.2c-.1.6-.3 1.1-.5 1.4-.3.4-.7.7-1.2 1l-.3-.3c.5-.3.9-.5 1.1-.8.3-.3.4-.8.5-1.3h-1.2v-.2h1.3v-.9h.4v1h1.6l-.1 1zm0-1.3c-.1-.1-.3-.3-.5-.4l.2-.2c.2.1.4.3.6.4l-.3.2zm.3-.3c-.1-.1-.3-.3-.5-.4l.2-.2c.2.1.4.3.6.4l-.3.2zM202.3 252.4V249h.3v3.4h-.3zM201.4 254.4c-.2.5-.5.9-.9 1.2-.1-.1-.2-.2-.3-.2.6-.6 1-1.4 1.3-2.5l.4.1c-.1.6-.3 1.1-.5 1.4zm2.7 1.2c-.3-.9-.8-1.7-1.3-2.5l.3-.2c.6.8 1.1 1.7 1.5 2.6l-.5.1zm.3-2.4c-.1.1-.2.1-.3.1-.1 0-.3 0-.3-.1-.1-.1-.1-.2-.1-.3 0-.1 0-.2.1-.3.1-.1.2-.1.3-.1.1 0 .2 0 .3.1.1.1.1.2.1.3.1.1 0 .2-.1.3zm-.1-.5s-.1-.1-.2-.1c-.2 0-.3.1-.3.2s0 .1.1.2c0 0 .1.1.2.1s.1 0 .2-.1c0 0 .1-.1.1-.2l-.1-.1zM202.8 257.2v2.4h-.4v-2.2c-.6.4-1.2.8-1.8 1-.1-.1-.1-.2-.2-.3.6-.2 1.2-.5 1.8-.9.5-.4 1-.8 1.5-1.3l.4.3c-.5.4-.9.7-1.3 1zM203.1 262.5c-.4.4-1 .8-1.9 1.1 0-.1-.1-.2-.2-.3.7-.2 1.3-.5 1.7-.9.4-.4.7-.9 1-1.6h-3v-.3h3.2l.3.2c-.3.8-.7 1.5-1.1 1.8zm1.6-2.1c-.1.1-.2.1-.3.1-.1 0-.3 0-.3-.1-.1-.1-.1-.2-.1-.3 0-.1 0-.2.1-.3.1-.1.2-.1.3-.1.1 0 .2 0 .3.1.1.1.1.2.1.3.1.1 0 .2-.1.3zm-.1-.5s-.1-.1-.2-.1c-.2 0-.3.1-.3.2s0 .1.1.2c0 0 .1.1.2.1s.1 0 .2-.1c0 0 .1-.1.1-.2 0 0-.1 0-.1-.1zM214.6 67.7c-.2.5-.5 1-.9 1.4l-.3-.3c.6-.7 1-1.6 1.3-2.8l.4.2c-.2.6-.3 1.1-.5 1.5zm2.7 1.2c-.3-1-.8-1.9-1.3-2.8l.3-.2c.6.9 1.1 1.9 1.5 2.8l-.5.2zM216.1 72.2c-.5.4-1.1.8-1.9 1.1l-.2-.4c1.3-.4 2.5-1.3 3.4-2.5l.3.3c-.6.6-1.1 1.2-1.6 1.5zm-1-1.5c-.4-.3-.7-.6-1.1-.8l.2-.3c.4.2.8.5 1.1.8l-.2.3zM217.1 76.2c0 .5-.1.9-.1 1.2 0 .1-.1.2-.2.3-.1.1-.4.1-.8.2 0-.1-.1-.2-.1-.4h.4c.1 0 .3-.1.3-.2.1-.1.1-.4.1-.8v-1.1h-1.2c-.1.6-.3 1.2-.5 1.6-.3.4-.7.8-1.2 1.1l-.3-.3c.5-.3.9-.6 1.1-.9.3-.4.4-.8.5-1.4h-1.2V75h1.3v-1h.4v1h1.6l-.1 1.2zm0-1.4-.5-.5.2-.2c.2.2.4.3.6.5l-.3.2zm.4-.4-.5-.5.2-.2c.2.2.4.3.6.5l-.3.2zM215.5 82.3v-3.8h.3v3.8h-.3zM214.6 84.8c-.2.5-.5 1-.9 1.4l-.3-.3c.6-.7 1-1.6 1.3-2.8l.4.2c-.2.6-.3 1.1-.5 1.5zm2.7 1.2c-.3-1-.8-1.9-1.3-2.8l.3-.2c.6.9 1.1 1.9 1.5 2.8l-.5.2zm.3-2.6c-.1.1-.2.2-.3.2-.1 0-.3 0-.3-.1-.1-.1-.1-.2-.1-.3 0-.1 0-.3.1-.3.1-.1.2-.1.3-.1.1 0 .2 0 .3.1.1.1.1.2.1.3s0 .1-.1.2zm-.2-.5s-.1-.1-.2-.1c-.2 0-.3.1-.3.3 0 .1 0 .1.1.2 0 .1.1.1.2.1s.1 0 .2-.1c0 0 .1-.1.1-.2s0-.2-.1-.2zM216 88.1v2.7h-.4v-2.4c-.6.5-1.2.9-1.8 1.1-.1-.1-.1-.3-.2-.4.6-.2 1.2-.6 1.8-1.1.5-.4 1-.9 1.5-1.4l.4.3c-.5.5-1 .9-1.3 1.2zM216.3 94.3c-.4.5-1 .9-1.9 1.2 0-.1-.1-.2-.2-.4.7-.2 1.3-.6 1.7-1 .4-.4.7-1 1-1.8h-3V92h3.2l.3.3c-.4.9-.7 1.6-1.1 2zm1.6-2.4c-.1.1-.2.2-.3.2-.1 0-.3 0-.3-.1-.1-.1-.1-.2-.1-.3 0-.1 0-.3.1-.3.1-.1.2-.1.3-.1.1 0 .2 0 .3.1.1.1.1.2.1.3 0 0 0 .1-.1.2zm-.1-.5s-.1-.1-.2-.1c-.2 0-.3.1-.3.3 0 .1 0 .1.1.2 0 .1.1.1.2.1s.1 0 .2-.1c0 0 .1-.1.1-.2-.1-.1-.1-.2-.1-.2zM92.4 197.8c-.2.5-.5 1-.9 1.4l-.3-.3c.6-.7 1-1.6 1.3-2.8l.4.2-.5 1.5zm2.7 1.3c-.3-1-.8-1.9-1.3-2.8l.3-.2c.6.9 1.1 1.9 1.5 2.8l-.5.2zM93.9 202.4c-.5.4-1.1.8-1.9 1.1l-.2-.4c1.3-.4 2.5-1.3 3.4-2.5l.3.3c-.6.6-1.1 1.1-1.6 1.5zm-1-1.5c-.4-.3-.7-.6-1.1-.8l.2-.3c.4.2.8.5 1.1.8l-.2.3zM94.9 206.4c0 .5-.1.9-.1 1.2 0 .1-.1.2-.2.3-.1.1-.4.1-.8.2 0-.1-.1-.2-.1-.4h.4c.1 0 .3-.1.3-.2.1-.1.1-.4.1-.8v-1.1h-1.2c-.1.6-.3 1.2-.5 1.6-.3.4-.7.8-1.2 1.1l-.3-.3c.5-.3.9-.6 1.1-.9.3-.4.4-.8.5-1.4h-1.2v-.4H93v-1h.4v1H95l-.1 1.1zm0-1.5-.5-.5.2-.2c.2.2.4.3.6.5l-.3.2zm.3-.3-.5-.5.2-.2c.2.2.4.3.6.5l-.3.2zM93.2 212.5v-3.8h.3v3.8h-.3zM92.4 215c-.2.5-.5 1-.9 1.4l-.3-.3c.6-.7 1-1.6 1.3-2.8l.4.2c-.2.6-.4 1.1-.5 1.5zm2.7 1.2c-.3-1-.8-1.9-1.3-2.8l.3-.2c.6.9 1.1 1.9 1.5 2.8l-.5.2zm.3-2.7c-.1.1-.2.2-.3.2-.1 0-.3 0-.3-.1-.1-.1-.1-.2-.1-.3 0-.1 0-.3.1-.3.1-.1.2-.1.3-.1.1 0 .2 0 .3.1.1.1.1.2.1.3 0 0 0 .1-.1.2zm-.2-.5s-.1-.1-.2-.1c-.2 0-.3.1-.3.3 0 .1 0 .1.1.2 0 .1.1.1.2.1s.1 0 .2-.1c0 0 .1-.1.1-.2s0-.1-.1-.2zM93.8 218.2v2.7h-.4v-2.4c-.6.5-1.2.9-1.8 1.1-.1-.1-.1-.3-.2-.4.6-.2 1.2-.6 1.8-1.1.5-.4 1-.9 1.5-1.4l.4.3c-.6.6-1 .9-1.3 1.2zM94.1 224.5c-.4.5-1 .9-1.9 1.2 0-.1-.1-.2-.2-.4.7-.2 1.3-.6 1.7-1 .4-.4.7-1 1-1.8h-3v-.4h3.2l.3.3c-.4 1-.8 1.6-1.1 2.1zm1.6-2.4c-.1.1-.2.2-.3.2-.1 0-.3 0-.3-.1-.1-.1-.1-.2-.1-.3 0-.1 0-.3.1-.3.1-.1.2-.1.3-.1.1 0 .2 0 .3.1.1.1.1.2.1.3 0 0 0 .1-.1.2zm-.2-.5s-.1-.1-.2-.1c-.2 0-.3.1-.3.3 0 .1 0 .1.1.2 0 .1.1.1.2.1s.1 0 .2-.1c0 0 .1-.1.1-.2s0-.2-.1-.2zM343.2 292.4l-2.1 4.3-1-.6 2.3-4.2c.3.3.6.4.8.5zm-.4-3.4-.4.8c-.6-.4-1.2-.7-2-1.1l.4-.8c.7.3 1.4.7 2 1.1zm.7-3.2-.6.8c-.6-.5-1.2-1-1.9-1.4l.6-.7c.7.4 1.4.8 1.9 1.3zm7.6-1.1-1.1 2h2.8v.9h-4v1.9h3.1v.9h-3.1v2.2h4v.9h-4v3.5h-.9v-3.5h-4.1v-.9h4.1v-2.2h-3.3v-.9h3.3v-1.9H344v-.9h4.9l1.3-2.5.9.5zm-4 1.3-.8.6c-.3-.6-.7-1.2-1.2-1.7l.8-.6c.6.6 1 1.2 1.2 1.7zM360.5 293v-1.2h1v1.2h4.4v.8h-4.4v1.5h5.7v.8h-12.5v-.8h5.8v-1.5h-4.3v-.8h4.3zm1-9v1.4h5.1v2.7h-1v.4h-5.3l-1.1 2.1c1.5-.1 2.9-.2 4.5-.3-.3-.3-.6-.5-1-.8l.7-.7c1.3 1 2.2 1.7 2.7 2.3l-.7.7-.8-.8c-3.3.3-6.1.5-8.5.6l-.2-.9c.7 0 1.4 0 2.2-.1l1.2-2.1h-3v-.4h-.9v-2.7h5.1V284h1zm4.1 3.7v-1.3h-9.3v1.3h9.3zM373.8 294.7c-.6.5-1.3.8-2 .8-1.6 0-2.6-.8-3-2.5h1.2c.2 1.1.8 1.7 1.8 1.7.5 0 .9-.2 1.3-.5s.6-.7.6-1.2c0-1.3-.7-2-2.2-2-.3 0-.6 0-1.1.1v-.8h.7c1.5 0 2.2-.6 2.2-1.7 0-.4-.2-.8-.5-1.1-.3-.3-.7-.5-1.1-.5-.9 0-1.4.5-1.6 1.5h-1c.2-1.5 1.1-2.3 2.6-2.3.7 0 1.3.2 1.9.7.5.4.8 1 .8 1.7 0 .9-.5 1.5-1.3 2 1.1.6 1.6 1.4 1.6 2.5 0 .5-.3 1.1-.9 1.6zM339.1 315.4c-.7-.7-1.2-1.3-1.6-1.9-.4-.8-.6-1.6-.6-2.5 0-.9.2-1.7.6-2.5.3-.6.9-1.2 1.6-1.9l.5.5c-.7.6-1.1 1.2-1.5 1.8-.4.7-.6 1.4-.6 2.2 0 .8.2 1.5.6 2.2.3.5.8 1.1 1.5 1.8l-.5.3zM343.2 306.7l-1 1.9c.2.2.4.3.6.5l.9-1.6.6.4-1.7 2.7c.4 0 .9 0 1.4-.1-.1-.3-.3-.5-.4-.8l.5-.3c.4.6.6 1.1.8 1.5l-.5.4c0-.1-.1-.2-.1-.3-.4 0-.8.1-1.1.1v4h-.7v-3.9c-.5 0-1 .1-1.5.1l-.2-.6h1l.6-1c-.5-.4-1-.8-1.6-1.1l.4-.5c.1.1.3.2.4.3l.9-1.9.7.2zm-1.1 5.2c-.2.9-.4 1.7-.6 2.4-.2-.1-.4-.2-.6-.2.2-.7.4-1.5.6-2.3l.6.1zm2.6 1.7-.6.2c-.1-.6-.2-1.2-.4-1.8l.6-.2c.1.6.3 1.2.4 1.8zm1.8-7.1c-.2.7-.3 1.3-.4 1.7h3.1v3.8c0 1-.1 1.7-.2 2-.1.6-.8.9-2 .9 0-.3-.1-.6-.3-.8h1.1c.3 0 .5-.2.6-.5.1-.3.1-.9.2-1.9v-3H346c-.2.6-.4 1.1-.6 1.5-.2-.2-.4-.3-.6-.4.3-.6.5-1.2.7-1.9.2-.6.3-1.2.4-1.8l.6.4zm1 5.3-.5.5c-.3-.5-.8-1.1-1.3-1.7l.5-.4c.5.5.9 1.1 1.3 1.6zM354.5 312.6v1.4h-.5v-1.4h-3v-.6l3-4.1h.5v4.2h.8v.6h-.8zm-.5-3.7-2.3 3.1h2.3v-3.1zM357.6 314.2h-.7l-.1-.1v-.6l.1-.1h.7l.1.1v.6l-.1.1zM362.6 313.6c-.4.4-.9.6-1.4.6-1.1 0-1.8-.5-2.1-1.6h.8c.2.7.7 1.1 1.3 1.1.4 0 .7-.1.9-.5.3-.3.4-.6.4-1s-.1-.7-.4-1c-.3-.3-.6-.5-1-.5-.5 0-.9.2-1.2.6l-.7-.2.3-3.2h3.2v.6h-2.6l-.2 2.1c.4-.3.9-.4 1.4-.4.5 0 1 .2 1.3.6.3.4.5.9.5 1.4.1.5-.1 1-.5 1.4zM366.3 308v-1.7h.7v1.7h1.4v4.5c0 .2 0 .3-.1.4-.1.1-.4.2-.8.2 0-.3-.1-.5-.2-.7h.3c.1 0 .2 0 .2-.1v-3.7h-.7v6.5h-.7v-6.5h-.7v4.5h-.6V308h1.2zm4.9-1.6v1.8h2.1v.6h-2.1v2h1.7v4.2h-.6v-.5h-2.7v.6h-.6v-4.3h1.6v-4.4h.6zm1.1 7.5v-2.5h-2.7v2.5h2.7zM376.8 313.5c-.3.6-.9 1.2-1.6 1.9l-.5-.4c.7-.6 1.1-1.2 1.5-1.8.4-.7.6-1.4.6-2.2 0-.8-.2-1.5-.6-2.2-.3-.5-.8-1.1-1.5-1.8l.5-.5c.7.7 1.2 1.3 1.6 1.9.4.8.6 1.6.6 2.5.1 1-.2 1.8-.6 2.6zM234.7 292.4l-2.1 4.3-1-.6 2.3-4.2c.3.3.5.4.8.5zm-.4-3.4-.4.8c-.6-.4-1.2-.7-2-1.1l.4-.8c.7.3 1.4.7 2 1.1zm.7-3.2-.6.8c-.6-.5-1.2-1-1.9-1.4l.6-.7c.7.4 1.3.8 1.9 1.3zm7.5-1.1-1.1 2h2.8v.9h-4v1.9h3.1v.9h-3.1v2.2h4v.9h-4v3.5h-.9v-3.5h-4.1v-.9h4.1v-2.2H236v-.9h3.3v-1.9h-3.8v-.9h4.9l1.3-2.5.8.5zm-3.9 1.3-.8.6c-.3-.6-.7-1.2-1.2-1.7l.8-.6c.5.6.9 1.2 1.2 1.7zM251.9 293v-1.2h1v1.2h4.4v.8h-4.4v1.5h5.7v.8h-12.5v-.8h5.8v-1.5h-4.3v-.8h4.3zm1-9v1.4h5.1v2.7h-1v.4h-5.3l-1.1 2.1c1.5-.1 2.9-.2 4.5-.3-.3-.3-.6-.5-1-.8l.7-.7c1.3 1 2.2 1.7 2.7 2.3l-.7.7-.8-.8c-3.3.3-6.1.5-8.5.6l-.2-.9c.7 0 1.4 0 2.2-.1l1.2-2.1h-3v-.4h-.9v-2.7h5.1V284h1zm4.1 3.7v-1.3h-9.3v1.3h9.3zM260.5 295.3c.1-1.5.8-2.8 2.3-3.9 1.5-1.2 2.2-2.1 2.2-2.7 0-.5-.1-.9-.4-1.2-.3-.3-.7-.5-1.2-.5-.7 0-1.1.2-1.5.6-.3.3-.5.8-.5 1.5h-1c.2-1.9 1.3-2.8 3.1-2.8.8 0 1.4.2 1.9.7.5.5.7 1.1.7 1.8 0 .9-.7 1.9-2.2 3.1-1.2 1-1.9 1.9-2.2 2.7h4.5v.9h-5.7zM230.6 315.4c-.7-.7-1.2-1.3-1.6-1.9-.4-.8-.6-1.6-.6-2.5 0-.9.2-1.7.6-2.5.3-.6.9-1.2 1.6-1.9l.5.5c-.7.6-1.2 1.2-1.5 1.8-.4.7-.6 1.4-.6 2.2 0 .8.2 1.5.6 2.2.3.5.8 1.1 1.5 1.8l-.5.3zM234.7 306.7l-1 1.9c.2.2.4.3.6.5l.9-1.6.6.4-1.7 2.7c.4 0 .9 0 1.4-.1-.1-.3-.3-.5-.4-.8l.5-.3c.4.6.6 1.1.8 1.5l-.5.4c0-.1-.1-.2-.1-.3-.4 0-.8.1-1.1.1v4h-.7v-3.9c-.5 0-1 .1-1.5.1l-.2-.6h1l.6-1c-.5-.4-1-.8-1.6-1.1l.4-.5c.1.1.3.2.4.3l.9-1.9.7.2zm-1.2 5.2c-.2.9-.4 1.7-.6 2.4-.2-.1-.4-.2-.6-.2.2-.7.4-1.5.6-2.3l.6.1zm2.7 1.7-.6.2c-.1-.6-.2-1.2-.4-1.8l.6-.2c.1.6.2 1.2.4 1.8zm1.8-7.1c-.2.7-.3 1.3-.4 1.7h3.1v3.8c0 1-.1 1.7-.2 2-.1.6-.8.9-2 .9 0-.3-.1-.6-.3-.8h1.1c.3 0 .5-.2.6-.5.1-.3.1-.9.2-1.9v-3h-2.6c-.2.6-.4 1.1-.6 1.5-.2-.2-.4-.3-.6-.4.3-.6.5-1.2.7-1.9.2-.6.3-1.2.4-1.8l.6.4zm1 5.3-.5.5c-.3-.5-.8-1.1-1.3-1.7l.5-.4c.4.5.9 1.1 1.3 1.6zM246 312.6v1.4h-.6v-1.4h-3v-.6l3-4.1h.5v4.2h.8v.6h-.7zm-.6-3.7-2.3 3.1h2.3v-3.1zM249 314.2h-.7l-.1-.1v-.6l.1-.1h.7l.1.1v.6l-.1.1zM250.7 314c.1-1 .6-1.9 1.5-2.7 1-.8 1.5-1.4 1.5-1.9 0-.3-.1-.6-.3-.8-.2-.2-.5-.4-.8-.4-.5 0-.8.1-1 .4-.2.2-.3.6-.4 1h-.7c.2-1.3.9-1.9 2.1-1.9.5 0 1 .2 1.3.5.3.3.5.7.5 1.2 0 .6-.5 1.3-1.5 2.1-.8.7-1.3 1.3-1.5 1.8h3.1v.6h-3.8zM257.7 308v-1.7h.7v1.7h1.4v4.5c0 .2 0 .3-.1.4-.1.1-.4.2-.8.2 0-.3-.1-.5-.2-.7h.3c.1 0 .2 0 .2-.1v-3.7h-.7v6.5h-.7v-6.5h-.8v4.5h-.6V308h1.3zm5-1.6v1.8h2.1v.6h-2.1v2h1.7v4.2h-.6v-.5H261v.6h-.6v-4.3h1.6v-4.4h.7zm1 7.5v-2.5H261v2.5h2.7zM268.3 313.5c-.3.6-.9 1.2-1.6 1.9l-.5-.4c.7-.6 1.1-1.2 1.5-1.8.4-.7.6-1.4.6-2.2 0-.8-.2-1.5-.6-2.2-.3-.5-.8-1.1-1.5-1.8l.5-.5c.7.7 1.2 1.3 1.6 1.9.4.8.6 1.6.6 2.5 0 1-.2 1.8-.6 2.6zM123.3 292.4l-2.1 4.3-1-.6 2.3-4.2c.4.3.6.4.8.5zm-.3-3.4-.4.8c-.6-.4-1.2-.7-2-1.1l.4-.8c.7.3 1.3.7 2 1.1zm.7-3.2-.6.8c-.6-.5-1.2-1-1.9-1.4l.6-.7c.7.4 1.3.8 1.9 1.3zm7.5-1.1-1.1 2h2.8v.9h-4v1.9h3.1v.9h-3.1v2.2h4v.9h-4v3.5h-.9v-3.5h-4.1v-.9h4.1v-2.2h-3.3v-.9h3.3v-1.9h-3.8v-.9h4.9l1.3-2.5.8.5zm-3.9 1.3-.8.6c-.3-.6-.7-1.2-1.2-1.7l.8-.6c.5.6.9 1.2 1.2 1.7zM140.6 293v-1.2h1v1.2h4.4v.8h-4.4v1.5h5.7v.8h-12.5v-.8h5.8v-1.5h-4.3v-.8h4.3zm1-9v1.4h5.1v2.7h-1v.4h-5.3l-1.1 2.1c1.5-.1 2.9-.2 4.5-.3-.3-.3-.6-.5-1-.8l.7-.7c1.3 1 2.2 1.7 2.7 2.3l-.7.7-.8-.8c-3.3.3-6.1.5-8.5.6l-.2-.9c.7 0 1.4 0 2.2-.1l1.2-2.1h-3v-.4h-.9v-2.7h5.1V284h1zm4.1 3.7v-1.3h-9.3v1.3h9.3zM152.4 295.3v-7.9c-.7.4-1.3.6-1.9.8v-1c.7-.1 1.4-.4 1.9-.8h1v9h-1zM119.2 315.4c-.7-.7-1.2-1.3-1.6-1.9-.4-.8-.6-1.6-.6-2.5 0-.9.2-1.7.6-2.5.3-.6.9-1.2 1.6-1.9l.5.5c-.7.6-1.2 1.2-1.5 1.8-.4.7-.6 1.4-.6 2.2 0 .8.2 1.5.6 2.2.3.5.8 1.1 1.5 1.8l-.5.3zM123.4 306.7l-1 1.9c.2.2.4.3.6.5l.9-1.6.6.4-1.7 2.7c.4 0 .9 0 1.4-.1-.1-.3-.3-.5-.4-.8l.5-.3c.4.6.6 1.1.8 1.5l-.5.4c0-.1-.1-.2-.1-.3-.4 0-.8.1-1.1.1v4h-.7v-3.9c-.5 0-1 .1-1.5.1l-.2-.6h1l.6-1c-.5-.4-1-.8-1.6-1.1l.4-.5c.1.1.3.2.4.3l.9-1.9.7.2zm-1.2 5.2c-.2.9-.4 1.7-.6 2.4-.2-.1-.4-.2-.6-.2.2-.7.4-1.5.6-2.3l.6.1zm2.6 1.7-.6.2c-.1-.6-.2-1.2-.4-1.8l.6-.2c.2.6.3 1.2.4 1.8zm1.9-7.1c-.2.7-.3 1.3-.4 1.7h3.1v3.8c0 1-.1 1.7-.2 2-.1.6-.8.9-2 .9 0-.3-.1-.6-.3-.8h1.1c.3 0 .5-.2.6-.5.1-.3.1-.9.2-1.9v-3H126c-.2.6-.4 1.1-.6 1.5-.2-.2-.4-.3-.6-.4.3-.6.5-1.2.7-1.9.2-.6.3-1.2.4-1.8l.8.4zm.9 5.3-.5.5c-.3-.5-.8-1.1-1.3-1.7l.5-.4c.5.5 1 1.1 1.3 1.6zM134.8 313.5c-.4.4-.8.6-1.5.6s-1.3-.3-1.7-1c-.3-.5-.4-1.2-.4-2 0-2.3.7-3.5 2.2-3.5.5 0 .8.1 1.1.4.2.2.5.6.6 1h-.8c-.2-.6-.5-.8-.9-.8-.9 0-1.4.8-1.5 2.5.6-.4 1.1-.6 1.6-.6s1 .2 1.3.6c.3.4.5.8.5 1.3 0 .6-.1 1.1-.5 1.5zm-.5-2.4c-.2-.3-.5-.4-.8-.4-.5 0-1 .3-1.4.7 0 1.5.5 2.2 1.3 2.2.4 0 .7-.2 1-.6.2-.3.3-.7.3-1.1-.1-.3-.2-.5-.4-.8zM137.7 314.2h-.7l-.1-.1v-.6l.1-.1h.7l.1.1v.6l-.1.1zM141.6 314v-5.4c-.5.3-.9.4-1.3.5v-.7c.5-.1.9-.2 1.3-.5h.7v6.1h-.7zM146.4 308v-1.7h.7v1.7h1.4v4.5c0 .2 0 .3-.1.4-.1.1-.4.2-.8.2 0-.3-.1-.5-.2-.7h.3c.1 0 .2 0 .2-.1v-3.7h-.7v6.5h-.7v-6.5h-.7v4.5h-.8V308h1.4zm4.9-1.6v1.8h2.1v.6h-2.1v2h1.7v4.2h-.6v-.5h-2.7v.6h-.6v-4.3h1.6v-4.4h.6zm1.1 7.5v-2.5h-2.7v2.5h2.7zM156.9 313.5c-.3.6-.9 1.2-1.6 1.9l-.5-.4c.7-.6 1.1-1.2 1.5-1.8.4-.7.6-1.4.6-2.2 0-.8-.2-1.5-.6-2.2-.3-.5-.8-1.1-1.5-1.8l.5-.5c.7.7 1.2 1.3 1.6 1.9.4.8.6 1.6.6 2.5.1 1-.1 1.8-.6 2.6zM452.7 52.5l-.1.1c.5.5 1 .8 1.6 1.1.6.3 1.2.6 1.9.8-.1.1-.2.2-.4.5-.6-.2-1.3-.5-1.8-.9-.5-.3-1.1-.7-1.6-1.2-.4.4-.9.8-1.4 1.1-.7.5-1.3.8-1.7 1-.1-.2-.3-.3-.4-.4.7-.3 1.3-.6 1.8-1 .6-.4 1.1-.9 1.6-1.4l.5.3zm-.2 1.3v.8h1.9v2.8h-2.1c.2.3.5.6.9.9.7-.3 1.3-.7 1.7-1l.4.5c-.5.3-1.1.6-1.6.8.6.3 1.3.5 2.1.6-.1.2-.2.4-.3.5-1-.2-1.9-.5-2.5-1-.6-.4-1-.8-1.3-1.4h-1.1v1.4c.5-.1 1.1-.1 1.7-.2v.5c-1.2.2-2.3.3-3.4.5l-.1-.6c.4 0 .9-.1 1.3-.2v-4.3h1.9v-.8h.5zm1.4 2v-.6h-3.3v.6h3.3zm0 1.1v-.7h-3.3v.7h3.3zM459.7 55.2c.2-.2.4-.5.6-.7l.6.2c-.1.2-.3.4-.4.5h3.6v.5h-2.3c.3.2.5.5.8.7.4.3 1 .5 1.7.7-.2.2-.4.4-.4.5-.2-.1-.3-.1-.5-.2v2.2h-.5v-.4h-1.3v.4h-.5v-2.4h1.8c-.3-.1-.5-.3-.7-.4-.4-.3-.8-.6-1-1H460c-.3.3-.5.5-.8.7-.3.3-.7.5-1.1.7h1.8v2.5h-.5v-.4h-1.3v.4h-.5v-2.2c-.2.1-.4.2-.5.3-.1-.2-.2-.3-.4-.5.8-.3 1.5-.7 2.1-1.1.2-.1.3-.3.5-.4H457v-.5h2.7zm-2.1-.7v-2h2.3v2h-2.3zm.5-.5h1.2v-1h-1.2v1zm1.4 4.7v-1.1h-1.3v1.1h1.3zm1.6-4.2v-2h2.4v2h-2.4zm.5-.5h1.3v-1h-1.3v1zm1.3 4.7v-1.1h-1.3v1.1h1.3zM466.1 54.1v-1.8h.5v1.8h.9v.5h-.9v.7l.4.4c.1.1.3.2.5.4-.1.2-.2.3-.3.5-.2-.2-.4-.3-.5-.4 0 0-.1 0-.1-.1v3.7h-.5V56c-.1.3-.2.5-.3.8-.2.4-.4.7-.5.8-.1-.2-.2-.4-.3-.5.3-.4.5-.7.7-1.1.2-.3.3-.7.5-1.3h-.9v-.5h.8zm3.4-1.4v6.1c0 .2 0 .3-.1.4-.1.1-.4.2-.8.2 0-.2-.1-.4-.2-.5h.4c.1 0 .2 0 .2-.1V57h-.8c0 .3-.1.5-.1.8-.1.7-.3 1.3-.6 1.8-.1-.2-.2-.4-.4-.5.3-.5.5-1 .6-1.6.1-.5.1-1.2.1-1.9v-2.8h1.7zm-.5 3.7v-1.3h-.8v1.4h.8zm0-1.8v-1.4h-.8v1.4h.8zm3-1.9V59c0 .2 0 .3-.1.4-.1.1-.4.1-.9.2 0-.2-.1-.4-.2-.5h.4c.2 0 .2 0 .2-.1v-2h-.9c0 .4-.1.7-.1 1-.1.7-.3 1.2-.5 1.7-.1-.2-.2-.4-.4-.5.2-.4.3-1 .4-1.5 0-.5.1-1.1.1-1.8v-3.1h2zm-.5 3.7v-1.3h-.9v1.4h.9zm0-1.8v-1.4h-.9v1.4h.9zM518.2 151.8V150h.5v1.8h.9v.5h-.9v.7l.4.4c.1.1.3.2.5.4-.1.2-.2.3-.3.5-.2-.2-.4-.3-.5-.4 0 0-.1 0-.1-.1v3.7h-.5v-3.7c-.1.3-.2.5-.3.8-.2.4-.4.7-.5.8-.1-.2-.2-.4-.3-.5.3-.4.5-.7.7-1.1.2-.3.3-.7.5-1.3h-.9v-.5h.8zm3.4-1.4v6.1c0 .2 0 .3-.1.4-.1.1-.4.2-.8.2 0-.2-.1-.4-.2-.5h.4c.1 0 .2 0 .2-.1v-1.8h-.8c0 .3-.1.5-.1.8-.1.7-.3 1.3-.6 1.8-.1-.2-.2-.4-.4-.5.3-.5.5-1 .6-1.6.1-.5.1-1.2.1-1.9v-2.8h1.7zm-.5 3.7v-1.3h-.8v1.4h.8zm0-1.8v-1.4h-.8v1.4h.8zm3.1-1.9v6.3c0 .2 0 .3-.1.4-.1.1-.4.1-.9.2 0-.2-.1-.4-.2-.5h.4c.2 0 .2 0 .2-.1v-2h-.9c0 .4-.1.7-.1 1-.1.7-.3 1.2-.5 1.7-.1-.2-.2-.4-.4-.5.2-.4.3-1 .4-1.5 0-.5.1-1.1.1-1.8v-3.1h2zm-.5 3.7v-1.3h-.9v1.4h.9zm0-1.8v-1.4h-.9v1.4h.9zM503.1 65.4 502 68l-.5-.3 1.2-2.6c.1.2.3.2.4.3zm0-2.9-.4.5c-.3-.3-.6-.5-1.1-.7l.3-.5c.5.2.9.5 1.2.7zm3-1c0 .1-.1.1-.1.1.4.6.8 1 1.2 1.4.4.4.9.8 1.5 1.1-.2.2-.3.3-.4.5-.4-.2-.8-.5-1.2-.9-.5-.4-.9-.9-1.4-1.6-.3.5-.6.9-1 1.3-.5.5-1 1-1.5 1.3-.1-.2-.2-.3-.3-.5.5-.3.9-.6 1.4-1.1.5-.5.9-1.1 1.3-1.8l.5.2zm1.8 3.8v2c0 .3-.1.4-.2.5-.1.1-.4.1-.9.2 0-.2-.1-.4-.2-.6h.7c.1 0 .1 0 .1-.2v-1.5h-1.8v2.9h-.6v-2.9h-1.5v-.5h4.4zM507 64v.5h-2.5V64h2.5zM511.7 61.8v-.5h.5v.5h1.9v-.5h.5v.5h2v.4h-2v.6h.3v.6h1.8v.5H515c0 .8 0 1.4.1 1.7 0 .3.1.6.1.8.3-.4.6-1 .9-1.7l.5.2c-.4.8-.8 1.5-1.2 2.1.1.2.1.3.2.4.2.3.3.4.4.4.1 0 .3-.2.5-.7.1.1.3.2.4.2-.2.5-.3.9-.5 1-.1.1-.2.2-.3.2-.3 0-.5-.1-.7-.4-.2-.2-.4-.4-.5-.7-.5.5-1.1.9-1.6 1.1-.1-.2-.2-.3-.4-.4.3-.1.6-.3.8-.5.3-.2.6-.5.9-.7l-.3-1.2c-.1-.4-.1-1-.1-1.8h-3.6v1c0 .8-.1 1.5-.2 1.9-.1.5-.4 1.1-.7 1.6-.1-.1-.3-.3-.5-.3.3-.4.5-.9.7-1.4.1-.4.2-.9.2-1.7v-1.4h4.1V63h-.3v-.6H512v.6h-.5v-.6h-2V62h2.2zm2.3 3.1h-1v.5h1v1.3h-1v.6h1v.4h-2.1v.4h-.5v-3.6h2.6v.4zm-1.4.5v-.5h-.7v.5h.7zm.9.9v-.6h-1.7v.6h1.7zm-.9 1v-.6h-.7v.6h.7zm3.8-4.1-.3.3c-.2-.2-.5-.5-.8-.7l.3-.3c.4.3.7.5.8.7zM521.9 61.2v.7h3v.5h-6v2.7c0 .8 0 1.5-.1 1.9-.1.5-.3 1-.6 1.6-.1-.2-.3-.3-.5-.4.3-.4.5-.9.6-1.4.1-.3.1-.9.1-1.7v-3.2h2.9v-.7h.6zm-.1 2v-.6h.5v.6h2.3v.5h-2.3v.5h1.9v2.4h-1.9v.6h2.8v.5h-2.8v1h-.5v-1h-2.7v-.5h2.7v-.6h-1.9v-2.4h1.9v-.5h-2.2v-.5h2.2zm-1.3 2h1.3v-.5h-1.3v.5zm1.3.4h-1.3v.5h1.3v-.5zm.6-.4h1.4v-.5h-1.4v.5zm0 .4v.5h1.4v-.5h-1.4zM509.4 73v.6h3.3v.4h-3.3v.5h2.1v2.7h-4.2v-2.7h1.5V74h-3.5v-.4h3.5V73H506v-1.7h6V73h-2.6zm-2.9 1.7v3h6.2v.5h-6.2v.4h-.5v-3.8h.5zm.1-2.1h1.3v-.8h-1.3v.8zm1.3 2.7h3.1v-.4h-3.1v.4zm0 .4v.4h3.1v-.4h-3.1zm0 .7v.4h3.1v-.4h-3.1zm.5-3.8h1.4v-.8h-1.4v.8zm1.9 0h1.3v-.8h-1.3v.8zM514.5 73.3v-2h.5v2h.8v.5h-.8v2.4l.9-.3v.4c.3-.2.5-.4.7-.6.2-.2.4-.5.5-.8h-1.2v-.5h5.2v.5h-3.3c-.1.2-.2.4-.4.6h3.3c0 1 0 1.7-.1 2.1-.1.4-.2.6-.3.7-.1.1-.5.2-1 .2 0-.2-.1-.4-.2-.5h.7c.1 0 .2-.1.3-.4.1-.3.1-.8.1-1.5h-.5c-.3.7-.6 1.2-1 1.6-.4.4-.8.7-1.2.9-.1-.1-.2-.3-.4-.4.5-.2.9-.5 1.2-.9.3-.3.5-.7.8-1.2h-.7c-.2.5-.5.8-.8 1.1-.4.3-.7.5-1.1.7-.1-.1-.2-.3-.4-.4.4-.2.7-.4 1-.7.2-.2.4-.4.6-.8h-.7c-.3.3-.6.6-1.1.9-.1-.1-.2-.3-.3-.4-.7.2-1.3.4-1.9.6l-.1-.6c.3-.1.6-.2 1-.3v-2.6h-.8v-.5h.7zm2.3.6v-2.6h3.5v2.6h-3.5zm.6-1.5h2.4v-.5h-2.4v.5zm0 .4v.5h2.4v-.5h-2.4zM172.3 114.4l-.9 1.8-.4-.2 1-1.8c.1.1.2.2.3.2zm-.2-1.2-.2.3c-.2-.2-.5-.4-.8-.5l.2-.3c.3.1.5.3.8.5zm.2-1.3-.2.3c-.2-.3-.5-.5-.7-.6l.2-.3c.3.1.5.3.7.6zm1.1-.4c-.1.3-.2.5-.3.7h.8v-1h.4v1h1.4v.3h-1.4v1h1.7v.3h-1.2v1.8c0 .1 0 .1.1.1h.6c.1 0 .2-.1.2-.1.1-.1.1-.2.1-.4.1.1.2.1.4.1 0 .2-.1.4-.2.6-.1.2-.2.2-.4.2h-.7c-.3 0-.4-.2-.4-.5v-1.8h-.8c0 .7-.1 1.2-.3 1.5-.2.3-.6.6-1.1.8-.1-.1-.1-.3-.2-.4.5-.2.9-.5 1-.8.1-.3.2-.6.2-1.1h-1.1v-.3h1.7v-1h-1c-.1.3-.3.5-.4.7-.1-.1-.2-.2-.3-.2.2-.3.4-.5.5-.8.1-.3.2-.5.3-.8l.4.1zM177.7 113l-.2.3c-.2-.1-.5-.2-.7-.3l.1-.3c.3.1.6.2.8.3zm.2 1.4-.8 1.8-.3-.2.8-1.8c.2.2.3.2.3.2zm.1-2.6-.2.3c-.2-.2-.4-.4-.6-.5l.2-.3c.2.1.4.3.6.5zm1.3 1.5c-.1.1-.1.2-.2.3h1c.1-.1.2-.3.3-.5l.3.1c-.1.1-.1.3-.2.4h1.3v.3h-1.4v.4h1.3v.3h-1.3v.4h1.3v.3h-1.3v.5h1.5v.3H179v.2h-.4v-2.1l-.4.4c-.1-.1-.1-.2-.2-.3.2-.1.4-.3.6-.5.2-.2.3-.4.5-.7l.2.2zm.5-1.9v1.8h-.4v-.2h-1.1v-.3h1.1v-.4h-1.1v-.3h1.1v-.4h-1.1v-.3h1.5zm.2 2.5h-1v.4h1.1v-.4zm0 .7h-1v.4h1.1v-.4zm0 1.2v-.5h-1v.5h1zm1.6-4.4v1.8h-.4v-.2H180v-.3h1.2v-.4H180v-.3h1.2v-.4H180v-.3h1.6zM183.2 112.3v-1.2h.4v1.2h.5v.4h-.5v.6c.1.1.1.2.2.2l.3.3c-.1.1-.2.2-.2.3l-.3-.3v2.5h-.4v-2.4c-.1.4-.3.7-.5 1-.1-.1-.1-.2-.2-.3.2-.3.3-.6.4-.9.1-.2.2-.5.2-.9h-.6v-.4h.7zm2-.9-.5.9.2.2.3-.5.3.2-.7 1.1h.4c0-.1-.1-.2-.1-.3l.3-.1c.1.2.3.5.4.7-.1-.5-.1-1.3-.1-2.4h.4v1l.2-.2c.1 0 .1.1.2.1l.3-.8.3.2-.4.8.2.2.3-.5.3.2-.7 1.1h.4c0-.1-.1-.2-.1-.2l.3-.1c.1.2.2.5.3.8l-.4.1c0-.1 0-.1-.1-.2-.4.1-.8.1-1.1.1l-.1-.4h.2l.3-.5c-.2-.2-.4-.4-.7-.5 0 .7.1 1.2.1 1.6v.2h.6c0-.1-.1-.2-.1-.3l.3-.1c.1.1.2.3.2.4h.5v.4H186c0 .2.1.4.2.5 0 .1.1.2.2.3.2-.2.4-.4.5-.6l.3.2c-.1.2-.3.4-.6.6.2.2.3.3.4.3 0 0 .1-.1.2-.5.1.1.2.1.4.2-.1.4-.2.6-.3.6 0 .1-.1.1-.2.1-.2 0-.5-.1-.7-.3l-.2-.2c-.4.3-.8.4-1.2.6 0-.1-.1-.2-.2-.4.4-.1.7-.3 1.1-.5h.1c-.1-.1-.1-.2-.2-.4s-.2-.5-.2-.7h-.7c0 .2-.1.3-.1.4.3.1.5.3.7.5l-.2.3c-.2-.2-.4-.3-.6-.4 0 .1-.1.2-.1.3-.1.3-.3.6-.6.9l-.3-.3c.2-.2.4-.5.5-.8.1-.2.2-.5.3-.8h-.6v-.4h1.7V113.8l-.4.1c0-.1 0-.1-.1-.2-.4.1-.8.1-1.1.1l-.1-.4h.2l.3-.5c-.2-.2-.5-.4-.7-.6l.2-.3c.1.1.2.1.2.2l.4-.9.7.1zM176.8 119.3v.4h2.3v.3h-2.3v.4h1.5v1.9h-2.9v-1.9h1.1v-.4h-2.4v-.3h2.4v-.4h-2v-1.2h4.2v1.2h-1.9zm-2.1 1.2v2.1h4.4v.3h-4.4v.3h-.4v-2.7h.4zm.1-1.5h.9v-.6h-.9v.6zm.9 2h2.2v-.3h-2.2v.3zm0 .2v.3h2.2v-.3h-2.2zm0 .5v.3h2.2v-.3h-2.2zm.3-2.7h1v-.6h-1v.6zm1.4 0h.9v-.6h-.9v.6zM180.3 119.5v-1.4h.4v1.4h.6v.4h-.6v1.7c.2-.1.4-.1.6-.2v.3c.2-.1.4-.3.5-.4.1-.2.3-.3.4-.6h-.9v-.4h3.6v.4h-2.3c-.1.2-.2.3-.2.4h2.3c0 .7 0 1.2-.1 1.5-.1.2-.1.4-.2.5-.1.1-.3.1-.7.1 0-.1 0-.3-.1-.4h.5c.1 0 .1-.1.2-.3 0-.2.1-.6.1-1.1h-.4c-.2.5-.4.8-.7 1.1-.3.3-.6.5-.9.6 0-.1-.1-.2-.2-.3l.9-.6c.2-.2.4-.5.5-.9h-.6c-.2.3-.4.6-.6.8-.3.2-.5.4-.7.5 0-.1-.1-.2-.2-.3.3-.1.5-.3.7-.5.1-.1.3-.3.4-.5h-.6c-.2.2-.4.4-.8.6-.1-.1-.1-.2-.2-.3-.5.2-.9.3-1.4.4l-.1-.4c.2 0 .4-.1.7-.2v-1.8h-.6v-.4h.7zm1.6.4v-1.8h2.4v1.8h-2.4zm.4-1h1.7v-.4h-1.7v.4zm0 .3v.4h1.7v-.4h-1.7zM118 159.2l-2.1 4.4-.9-.5 2.2-4.4c.3.3.5.5.8.5zm-.6-3-.5.8c-.5-.5-1.1-.9-1.8-1.3l.4-.8c.7.5 1.4.9 1.9 1.3zm.7-3.2-.5.8c-.6-.6-1.2-1-1.8-1.4l.5-.7c.6.3 1.2.7 1.8 1.3zm5 1.2c-.1.1-.1.2-.2.3.7.8 1.4 1.5 2.1 2 .8.6 1.7 1.1 2.7 1.6-.3.3-.5.6-.7.9-.7-.3-1.4-.8-2.2-1.4-.8-.6-1.6-1.4-2.5-2.3-.5.7-1.1 1.3-1.6 1.9-.9.8-1.6 1.4-2.2 1.8-.2-.3-.4-.6-.6-.8.8-.5 1.6-1.1 2.3-1.9.7-.7 1.4-1.5 2-2.6l.9.5zm-1.4-2.3c-.8 1.1-1.7 1.9-2.8 2.6-.1-.3-.4-.6-.7-.8 1.1-.6 2-1.4 2.7-2.5l.8.7zm3.9 11.5h-.9v-.7h-3.8v.9h-.9v-5.4h5.7v5.2zm-.9-1.5v-2.8h-3.8v2.8h3.8zm.8-9.4c.4.3.9.6 1.4.7-.2.2-.4.5-.6.8-.6-.3-1.1-.6-1.6-1s-.9-.7-1.2-1l.5-.7c.5.5 1 .9 1.5 1.2zM134.9 159.9v-1.2h1v1.2h4.3v.8h-4.3v1.5h5.5v.8h-12.1v-.8h5.7v-1.5h-4.1v-.8h4zm1-8.7v1.4h4.9v2.7h-1v.4h-5.1l-1.1 2c1.4-.1 2.9-.2 4.3-.3-.3-.3-.6-.5-.9-.7l.7-.7c1.2.9 2.1 1.7 2.7 2.2l-.7.7-.8-.8c-3.2.3-6 .5-8.3.6l-.2-.9c.7 0 1.4 0 2.1-.1l1.2-2h-2.9v-.4h-.9v-2.7h4.9v-1.4h1.1zm4 3.6v-1.3h-9v1.3h9zM117.6 174.2c-.8-.7-1.3-1.4-1.7-2.1-.5-.8-.7-1.7-.7-2.7 0-1 .2-1.9.7-2.7.4-.6.9-1.3 1.7-2.1l.5.5c-.7.7-1.2 1.3-1.6 1.9-.4.7-.6 1.6-.6 2.4 0 .9.2 1.7.6 2.4.3.6.9 1.2 1.6 1.9l-.5.5zM121.2 172.7v-5.9c-.5.3-1 .5-1.4.6v-.8c.5-.1 1-.3 1.4-.6h.8v6.7h-.8zM127.5 171.2v1.5h-.6v-1.5h-3.2v-.6l3.3-4.5h.5v4.5h.9v.6h-.9zm-.6-4-2.5 3.4h2.5v-3.4zM131.4 172.7v-5.9c-.5.3-1 .5-1.4.6v-.8c.5-.1 1-.3 1.4-.6h.8v6.7h-.8zM137.8 172.4c-.4.3-1 .4-1.6.4-.6 0-1.2-.1-1.6-.4-.5-.3-.8-.8-.8-1.3s.1-.9.3-1.2c.2-.3.6-.5 1.1-.8-.5-.2-.8-.4-.9-.7-.2-.2-.3-.5-.3-.9 0-.6.2-1 .7-1.3.4-.3.9-.4 1.5-.4s1 .2 1.4.5c.4.3.6.7.6 1.2 0 .4-.1.7-.2.9-.2.2-.5.4-.9.7.6.3 1 .5 1.2.8.3.3.4.7.4 1.2-.1.6-.3 1-.9 1.3zm-.6-2.3c-.2-.1-.6-.4-1.1-.6-.5.2-.8.4-1 .6-.3.3-.5.6-.5 1s.2.7.5.9c.3.2.6.2 1.1.2.4 0 .7-.1 1.1-.3.4-.2.5-.5.5-.9 0-.3-.2-.6-.6-.9zm-.1-3.3c-.2-.2-.5-.3-.8-.3-.4 0-.7.1-.9.3-.3.2-.4.5-.4.9 0 .3.1.6.4.8.2.1.5.3.9.4.2-.1.5-.2.8-.4.3-.2.4-.5.4-.8-.1-.4-.2-.7-.4-.9zM141.2 172.1c-.4.7-.9 1.3-1.7 2.1l-.5-.5c.7-.7 1.2-1.3 1.6-1.9.4-.7.6-1.5.6-2.4 0-.9-.2-1.7-.6-2.4-.3-.6-.9-1.2-1.6-1.9l.5-.5c.8.7 1.3 1.4 1.7 2.1.5.8.7 1.7.7 2.7 0 1-.3 1.9-.7 2.7zM115.7 211c-.5.7-1.4 1.2-2.6 1.6-.1-.2-.2-.4-.3-.5 1-.2 1.8-.6 2.2-1.2.5-.6.8-1.4.8-2.4h-3.4v1.6h-.5V208h2v-1h.5v1.2h2c.1 1.2-.2 2.1-.7 2.8zM120.2 209.7v2.3c0 .2 0 .4-.1.5-.1.1-.3.1-.7.2 0-.2-.1-.4-.1-.5h.3c.2 0 .2-.1.2-.2v-1.7c-.6.8-1.4 1.4-2.3 1.9-.1-.1-.2-.3-.3-.4 1-.5 1.8-1.2 2.4-2h-2.2v-.4h2.3v-1h.4v1h1.5v.4h-1.4zM122.2 210v-.5h5.1v.5h-5.1zM131.1 211c-.6.7-1.5 1.2-2.5 1.5-.1-.1-.2-.3-.3-.5.9-.2 1.7-.6 2.2-1.2.5-.5 1-1.2 1.4-2.2h-2.1c-.4.7-1 1.3-1.5 1.9-.1-.1-.3-.2-.4-.3.5-.4.9-.9 1.2-1.3.2-.4.5-.9.9-1.6l.5.2c-.1.2-.2.5-.4.8h2.1l.1-.1.3.3c-.5 1-1 1.9-1.5 2.5zM136.5 208.9v3.6h-.5v-3.2c-.8.6-1.7 1.1-2.4 1.5-.1-.2-.2-.3-.3-.5.8-.3 1.6-.8 2.4-1.4.7-.6 1.4-1.2 2-1.9l.5.4c-.7.6-1.2 1.1-1.7 1.5zM141.7 210.9c-.7.5-1.5 1-2.5 1.5l-.3-.6c1.8-.6 3.3-1.7 4.6-3.3.1.2.2.3.4.4-.8.8-1.5 1.5-2.2 2zm-1.3-2c-.5-.4-1-.8-1.4-1.1l.3-.4c.5.3 1 .7 1.5 1.1l-.4.4zM115.5 216.7c-.6.7-1.5 1.2-2.5 1.5-.1-.1-.2-.3-.3-.5.9-.2 1.7-.6 2.2-1.2.5-.5 1-1.2 1.4-2.2h-2.1c-.4.7-1 1.3-1.5 1.9-.1-.1-.3-.2-.4-.3.5-.4.9-.9 1.2-1.3.2-.4.5-.9.9-1.6l.5.2c-.1.2-.2.5-.4.8h2.1l.1-.1.3.3c-.5 1.1-1 1.9-1.5 2.5zM121.6 217.8v-.4h-3.3v.4h-.5v-4.3h4.3v4.3h-.5zm0-3.8h-3.3v2.9h3.3V214zM122.8 215.7v-.5h5.1v.5h-5.1zM131.9 216.3l-.3-.4c.5-.5 1-.9 1.4-1.4l-2.4.4v2.1c0 .3.2.4.6.5h1c.6 0 1.1 0 1.5-.1v.5c-.6 0-1.2.1-1.6.1-.6 0-1 0-1.3-.1-.5-.1-.7-.4-.7-.9v-2l-1.5.2-.1-.5 1.6-.2v-1.7h.5v1.6l2.6-.4.1-.1.4.4c-.7.9-1.3 1.6-1.8 2zm1.6-2.4c-.2-.2-.4-.4-.7-.6l.2-.3c.3.2.6.4.7.6l-.2.3zm.4-.5c-.2-.2-.4-.4-.7-.6l.2-.3c.3.2.6.4.7.6l-.2.3zM135.3 216.1c-.2-.3-.4-.7-.7-1.1l.4-.2c.2.4.5.7.7 1.2l-.4.1zm2.9.2c-.3.6-.7 1-1.1 1.4-.4.3-.9.6-1.5.8-.1-.2-.2-.3-.3-.4.6-.2 1-.4 1.4-.6.4-.3.7-.7 1-1.2.2-.4.4-1 .6-1.7l.5.1c-.2.7-.4 1.2-.6 1.6zm-1.7-.6c-.1-.4-.3-.8-.5-1.1l.4-.2c.2.4.4.8.6 1.1l-.5.2zM143.2 216.2c-.7-.4-1.6-.8-2.7-1.2v3.3h-.5v-5.6h.5v1.8c1 .3 2 .7 3 1.2l-.3.5zM315.7 216c-.2.5-.5 1-.9 1.4l-.3-.3c.6-.7 1-1.6 1.3-2.8l.4.2c-.2.6-.4 1.1-.5 1.5zm2.7 1.2c-.3-1-.8-1.9-1.3-2.8l.3-.2c.6.9 1.1 1.9 1.5 2.8l-.5.2zM321.5 216.6c-.5.4-1.1.8-1.9 1.1l-.2-.4c1.3-.4 2.5-1.3 3.4-2.5l.3.3c-.6.6-1.1 1.1-1.6 1.5zm-1-1.5c-.4-.3-.7-.6-1.1-.8l.2-.3c.4.2.8.5 1.1.8l-.2.3zM327.1 216c0 .5-.1.9-.1 1.2 0 .1-.1.2-.2.3-.1.1-.4.1-.8.2 0-.1-.1-.2-.1-.4h.4c.1 0 .3-.1.3-.2.1-.1.1-.4.1-.8v-1.1h-1.1c-.1.6-.3 1.2-.5 1.6-.3.4-.7.8-1.2 1.1l-.3-.3c.5-.3.9-.6 1.1-.9.3-.4.4-.8.5-1.4H324v-.4h1.3v-1h.4v1h1.6l-.2 1.1zm0-1.5-.5-.5.2-.2c.2.2.4.3.6.5l-.3.2zm.4-.3-.5-.5.2-.2c.2.2.4.3.6.5l-.3.2zM327.9 215.9v-.3h3.8v.3h-3.8zM333.2 216c-.2.5-.5 1-.9 1.4l-.3-.3c.6-.7 1-1.6 1.3-2.8l.4.2c-.1.6-.3 1.1-.5 1.5zm2.8 1.2c-.3-1-.8-1.9-1.3-2.8l.3-.2c.6.9 1.1 1.9 1.5 2.8l-.5.2zm.3-2.7c-.1.1-.2.2-.3.2-.1 0-.3 0-.3-.1-.1-.1-.1-.2-.1-.3 0-.1 0-.3.1-.3.1-.1.2-.1.3-.1.1 0 .2 0 .3.1.1.1.1.2.1.3s0 .1-.1.2zm-.2-.5s-.1-.1-.2-.1c-.2 0-.3.1-.3.3 0 .1 0 .1.1.2 0 .1.1.1.2.1s.1 0 .2-.1c0 0 .1-.1.1-.2s0-.1-.1-.2zM339.2 215.1v2.7h-.4v-2.4c-.6.5-1.2.9-1.8 1.1-.1-.1-.1-.3-.2-.4.6-.2 1.2-.6 1.8-1.1.5-.4 1-.9 1.5-1.4l.4.3c-.6.5-1 .9-1.3 1.2zM343.4 216.5c-.4.5-1 .9-1.9 1.2 0-.1-.1-.2-.2-.4.7-.2 1.3-.6 1.7-1 .4-.4.7-1 1-1.8h-3v-.4h3.2l.3.3c-.3 1-.7 1.7-1.1 2.1zm1.6-2.4c-.1.1-.2.2-.3.2-.1 0-.3 0-.3-.1-.1-.1-.1-.2-.1-.3 0-.1 0-.3.1-.3.1-.1.2-.1.3-.1.1 0 .2 0 .3.1.1.1.1.2.1.3.1 0 0 .1-.1.2zm-.1-.5s-.1-.1-.2-.1c-.2 0-.3.1-.3.3 0 .1 0 .1.1.2 0 .1.1.1.2.1s.1 0 .2-.1c0 0 .1-.1.1-.2s-.1-.1-.1-.2zM317.3 226c-.6.7-1.5 1.2-2.5 1.5-.1-.1-.2-.3-.3-.5.9-.2 1.7-.6 2.2-1.2.5-.5 1-1.2 1.4-2.2H316c-.4.7-1 1.3-1.5 1.9-.1-.1-.3-.2-.4-.3.5-.4.9-.9 1.2-1.3.2-.4.5-.9.9-1.6l.5.2c-.1.2-.2.5-.4.8h2.1l.1-.1.3.3c-.4 1-.9 1.9-1.5 2.5zM323.5 227.1v-.4h-3.3v.4h-.5v-4.3h4.3v4.3h-.5zm0-3.9h-3.3v2.9h3.3v-2.9zM324.7 225v-.5h5.1v.5h-5.1zM333.8 225.6l-.3-.4c.5-.5 1-.9 1.4-1.4l-2.4.4v2.1c0 .3.2.4.6.5h1c.6 0 1.1 0 1.5-.1v.5c-.6 0-1.2.1-1.6.1-.6 0-1 0-1.3-.1-.5-.1-.7-.4-.7-.9v-2.1l-1.5.2-.1-.5 1.6-.2V222h.5v1.6l2.6-.4.1-.1.4.4c-.7 1-1.3 1.6-1.8 2.1zm1.5-2.5c-.2-.2-.4-.4-.7-.6l.2-.3c.3.2.6.4.7.6l-.2.3zm.5-.5c-.2-.2-.4-.4-.7-.6l.2-.3c.3.2.6.4.7.6l-.2.3zM337.1 225.3c-.2-.3-.4-.7-.7-1.1l.4-.2c.2.4.5.7.7 1.2l-.4.1zm2.9.2c-.3.6-.7 1-1.1 1.4-.4.3-.9.6-1.5.8-.1-.2-.2-.3-.3-.4.6-.2 1-.4 1.4-.6.4-.3.7-.7 1-1.2.2-.4.4-1 .6-1.7l.5.1c-.2.7-.4 1.2-.6 1.6zm-1.6-.5c-.1-.4-.3-.8-.5-1.1l.4-.2c.2.4.4.8.6 1.1l-.5.2zM345.1 225.5c-.7-.4-1.6-.8-2.7-1.2v3.3h-.5V222h.5v1.8c1 .3 2 .7 3 1.2l-.3.5zM225.1 65.6v.8h2.6v.4H225l-1 1.5c.3.2.6.4.8.6l1.3-1.4.5.2-2.2 2.3c.7 0 1.5-.1 2.3-.2-.2-.2-.5-.4-.7-.7l.4-.2c.6.6 1.1 1 1.4 1.4l-.4.2c-.1-.2-.2-.3-.4-.4-1.8.2-3.4.3-4.7.4l-.1-.4c.5 0 1 0 1.6-.1l.8-.8c-.6-.4-1.3-.8-2.1-1.2l.2-.3c.3.2.6.3.9.5l.7-1.3H222v-.4h2.6v-.8h.5zM224.6 71.4v1.7h-1.8v3.1h-.5v-4.8h2.3zm-.5.7v-.4h-1.4v.4h1.4zm0 .7v-.4h-1.4v.4h1.4zm3.4-1.4v4.3c0 .2-.1.3-.2.4-.1.1-.4.1-.8.1 0-.1-.1-.3-.2-.4h.6c.1 0 .1 0 .1-.1v-2.6h-1.5l.4.1-.4.5h.9v.3H225v.5h1.7v.3h-1.5c.1.2.3.3.4.4.2.1.4.3.8.4l-.3.3c-.4-.2-.6-.3-.8-.5-.2-.1-.3-.3-.4-.5-.1.1-.1.2-.2.3-.2.3-.7.5-1.2.7l-.3-.3c.6-.1 1-.4 1.2-.6l.2-.2h-1.3v-.3h1.4V74h-1.2v-.3h.7c-.1-.1-.2-.3-.4-.4l.3-.2c.2.2.4.3.5.5l-.2.2h.8l.4-.7h-.2v-1.7h2.1zm-.4.3h-1.4v.4h1.4v-.4zm0 .7h-1.4v.4h1.4v-.4zM225.7 80.1c-.6.6-1.5 1-2.5 1.3-.1-.1-.2-.3-.3-.4.9-.2 1.7-.5 2.2-1 .5-.4 1-1.1 1.4-1.9h-2.1c-.4.6-1 1.1-1.5 1.6-.1-.1-.3-.2-.4-.3.5-.4.9-.7 1.2-1.1.2-.3.5-.8.9-1.4l.5.2c-.1.2-.2.4-.4.7h2.2l.3.3c-.4.8-.9 1.5-1.5 2zM226.5 85.8v-.4h-3.3v.4h-.5v-3.7h4.3v3.7h-.5zm0-3.3h-3.3V85h3.3v-2.5zM224.7 90.8v-4.3h.5v4.3h-.5zM225.7 94.5c-.6.6-1.5 1-2.5 1.3-.1-.1-.2-.3-.3-.4.9-.2 1.7-.5 2.2-1 .5-.4 1-1.1 1.4-1.9h-2.1c-.4.6-1 1.1-1.5 1.6-.1-.1-.3-.2-.4-.3.5-.4.9-.7 1.2-1.1.2-.3.5-.8.9-1.4l.5.2c-.1.2-.2.4-.4.7h2.2l.3.3c-.4.8-.9 1.5-1.5 2zM164.7 43v-.5h.4v.5h2.5v.4h-2.5v.5h2V46h-.8v.5h1.5v.4h-1.5v1c0 .2-.1.3-.2.3-.2.1-.4.1-.7.1 0-.2-.1-.3-.2-.5h.6c.1 0 .1 0 .1-.1v-.9h-3.8v-.4h3.8v-.5h-3v-2.1h1.9v-.5h-2.5V43h2.4zm-.4 4.6-.4.3c-.2-.3-.4-.5-.7-.8l.3-.3c.3.3.6.5.8.8zm-1.1-2.9h1.5v-.5h-1.5v.5zm1.5.3h-1.5v.5h1.5V45zm.5-.3h1.5v-.5h-1.5v.5zm0 .3v.5h1.5V45h-1.5zM173.9 42.9v4.9c0 .2-.1.4-.2.4-.1.1-.4.1-.7.1 0-.2-.1-.3-.2-.5h.5c.1 0 .1 0 .1-.1v-1.5h-1.7v2.1h-.4v-2.1h-1.5c-.1.9-.3 1.6-.8 2.2-.1-.2-.3-.3-.4-.4.5-.6.8-1.4.8-2.5v-2.7h4.5zm-2.6 2.9v-1h-1.5v1.1h1.5zm0-1.5v-1.1h-1.5v1.1h1.5zm.4 0h1.7v-1.1h-1.7v1.1zm0 1.5h1.7v-1h-1.7v1zM152.6 54c-.7-.4-1.6-.8-2.7-1.2v3.3h-.5v-5.6h.5v1.8c1 .3 2 .7 3 1.2l-.3.5zM157 54.9c-.6.5-1.4.9-2.5 1.2 0-.2-.1-.3-.2-.5.9-.2 1.6-.5 2.1-.9.6-.4 1-1.1 1.5-1.9h-4.2v-.5h4.6l.3.3c-.5 1-1 1.8-1.6 2.3zm-2.7-3.6v-.5h3.5v.5h-3.5zM162.2 54.4c-.7.5-1.5 1-2.5 1.5l-.3-.6c1.8-.6 3.3-1.7 4.6-3.3.1.2.2.3.4.4-.8.8-1.5 1.5-2.2 2zm-1.3-2c-.5-.4-1-.8-1.4-1.1l.3-.4c.5.3 1 .7 1.5 1.1l-.4.4zM168.2 54.4c-.6.7-1.5 1.2-2.5 1.5-.1-.1-.2-.3-.3-.5.9-.2 1.7-.6 2.2-1.2.5-.5 1-1.2 1.4-2.2h-2c-.4.7-1 1.3-1.5 1.9-.1-.1-.3-.2-.4-.3.5-.4.9-.9 1.2-1.3.2-.4.5-.9.9-1.6l.5.2c-.1.2-.2.5-.4.8h2.1l.1-.1.3.3c-.5 1.1-1 1.9-1.6 2.5zM172 53.8c-.2.8-.7 1.5-1.4 2.1-.1-.2-.2-.3-.3-.4.5-.4.9-.8 1.1-1.4.2-.4.3-1 .3-1.7v-1.2h.5c0 1.2 0 2-.2 2.6zm1.7 1.9-.4-.4.1-.1v-4.5h.5V55c.7-.5 1.4-1.2 2-2 .1.1.2.2.4.3-.9 1-1.8 1.9-2.6 2.4zM176.7 53.5V53h5.1v.5h-5.1zM187.1 55.7c-.1-.2-.2-.4-.4-.7-2 .3-3.4.5-4.3.6l-.1-.6h.7c.6-1.2 1.2-2.6 1.7-4.3l.6.2c-.8 1.9-1.4 3.2-1.8 4 .9-.1 1.9-.2 3-.3-.3-.5-.7-1.1-1.1-1.6l.4-.3c.8 1 1.4 1.9 1.8 2.7l-.5.3zM264.8 168.4c-.2-.2-.5-.4-.8-.6.8-.9 1.5-2.1 2.2-3.4l.8.4c-.7 1.4-1.4 2.6-2.2 3.6zm4.3-5.1v6.5h-.8v-6.5h-4.2v-.8h4.2V160h.8v2.5h4.5v.8h-4.5zm3.8 4.9c-.9-.9-1.8-2.1-2.5-3.4l.8-.5c.8 1.3 1.6 2.4 2.5 3.3-.3.2-.6.4-.8.6zM274.5 165.3v-.8h8.9v.8h-8.9zM287.2 165.8c-.4 1.4-1.2 2.7-2.4 3.7-.2-.3-.4-.5-.6-.8.9-.7 1.6-1.4 2-2.4.3-.8.5-1.8.6-3v-2.1h.9c-.1 2.1-.2 3.6-.5 4.6zm2.9 3.4-.6-.7.1-.1v-7.9h.8v7.4c1.2-.9 2.4-2 3.5-3.5.2.2.4.4.7.6-1.5 1.8-3 3.2-4.5 4.2zM261.9 130.1V129h.4v1.2h.6v.4h-.6v1c.2-.1.4-.1.7-.2v.4c-.2.1-.5.1-.7.2v1.7c0 .1-.1.2-.2.3-.1.1-.3.1-.6.1 0-.1 0-.3-.1-.4h.5c.1 0 .1 0 .1-.1V132c-.3.1-.6.2-.8.2l-.1-.4c.3-.1.6-.1.9-.2v-1.1h-1v-.4h.9zm4-.8c-.8.3-1.5.4-2.1.5v.9h2.3v.4h-.7v2.9h-.4v-2.9h-1.2v.2c0 .5-.1.9-.2 1.3-.1.5-.3.9-.6 1.3-.1-.1-.2-.2-.3-.2.3-.4.4-.7.6-1.1.1-.4.2-.8.2-1.2v-1.9l.3.1c.7-.1 1.4-.2 2-.5l.1.2zM263.7 134.7v1.8h1.8v.4h-1.8v2.3h2.3v.4h-5v-.4h2.2v-4.5h.5zM265.9 140.7v.4h-2.2v1.2h2v.3h-1.9c.1.5.4.9.7 1.3.4.5 1 .8 1.6 1-.1.1-.2.2-.3.4-.7-.3-1.2-.7-1.6-1.2-.3-.3-.5-.6-.6-1-.1.4-.2.7-.4 1-.4.5-1 1-1.9 1.3-.1-.2-.1-.3-.2-.4 1-.4 1.6-.8 1.9-1.4.1-.3.2-.6.3-1h-1.8v-.3h1.8v-1.2h-2.1v-.4h4.7zM262.3 147.3v-1.1h.4v1.1h1.5v-1.2h.4v1.2h1.1v.4h-1.1v1.3h1.5v.4h-1.5v1.9h-.4v-1.9h-1.5c-.1.3-.1.6-.3.9-.2.4-.6.7-1.1 1l-.3-.3c.5-.2.9-.5 1.1-.9.1-.2.2-.4.2-.7h-1.4v-.4h1.4v-1.3h-1.1v-.4h1.1zm1.9.3h-1.5v1.3h1.5v-1.3zM371.4 52.7l.2 2.1h-.5l-.2-2.1-2.4.2-.1-.5 2.4-.2-.1-1.2-1.8.2v-.5l1.8-.2-.1-1.3h.5l.1 1.3 1.8-.2v.5l-1.8.2.1 1.2 2.4-.2.1.5-2.4.2zM370.6 57.3c-.2-.3-.4-.7-.7-1.1l.4-.2c.2.4.5.7.7 1.2l-.4.1zm2.9.2c-.3.6-.7 1-1.1 1.4-.4.3-.9.6-1.5.9-.1-.2-.2-.3-.3-.4.6-.2 1-.4 1.4-.6.4-.3.7-.7 1-1.2.2-.4.4-1 .6-1.6l.5.1c-.2.5-.4 1-.6 1.4zm-1.6-.6c-.1-.4-.3-.8-.5-1.1l.4-.2c.2.4.4.8.6 1.1l-.5.2zM371.4 63c-.1.9-.2 1.5-.5 1.9-.3.4-.9.8-1.7 1.1-.1-.1-.2-.3-.3-.5.7-.2 1.2-.5 1.5-.8.3-.4.5-1 .5-1.8h-2.6v-.5h2.6v-1.2c-.8.1-1.4.2-1.9.3 0-.2-.1-.3-.2-.4 1.4-.1 2.7-.4 3.9-.7l.2.4-1.5.3v1.2h2.5v.7h-2.5zM371.7 70.4c-.7.5-1.5 1-2.5 1.5l-.3-.6c1.8-.6 3.3-1.7 4.6-3.3.1.2.2.3.4.4-.8.8-1.5 1.5-2.2 2zm-1.3-2.1c-.5-.4-1-.8-1.4-1.1l.3-.4c.5.3 1 .7 1.5 1.1l-.4.4zM369.7 75.3c-.3.7-.7 1.3-1.1 1.8-.1-.2-.3-.3-.4-.4.8-.9 1.4-2.1 1.8-3.7l.5.2c-.3 1-.5 1.6-.8 2.1zm3.6 1.7c-.4-1.3-1-2.5-1.8-3.8l.5-.2c.8 1.2 1.4 2.5 1.9 3.8l-.6.2zm.4-3.6c-.1.1-.3.2-.4.2-.2 0-.3-.1-.5-.2-.1-.1-.2-.3-.2-.5s.1-.3.2-.5c.1-.1.3-.2.5-.2s.3.1.4.2c.1.1.2.3.2.4 0 .4 0 .5-.2.6zm-.2-.6c-.1-.1-.2-.1-.2-.1-.2 0-.4.1-.4.3 0 .1 0 .2.1.3.1.1.2.1.3.1.1 0 .2 0 .2-.1.1-.1.1-.2.1-.3 0-.1 0-.2-.1-.2zM371.7 81.4c-.7.5-1.5 1-2.5 1.5l-.3-.6c1.8-.6 3.3-1.7 4.6-3.3.1.2.2.3.4.4-.8.8-1.5 1.5-2.2 2zm-1.3-2c-.5-.4-1-.8-1.4-1.1l.3-.4c.5.3 1 .7 1.5 1.1l-.4.4zM373.2 87c-.7-.4-1.6-.8-2.7-1.2v3.3h-.5v-5.6h.5v1.8c1 .3 2 .7 3 1.2l-.3.5zM369.4 93.1V90h.5v3.1h-.5zm3.3-1.8c0 .8-.1 1.4-.2 1.8-.1.5-.4.9-.7 1.2-.3.3-.9.6-1.6.8-.1-.2-.2-.3-.3-.5.9-.2 1.6-.6 1.8-1.1.3-.4.4-1.1.4-2.2v-1.7h.5l.1 1.7zM370.9 100.8v-5.1h.5v5.1h-.5zM336.2 59.1v-1.8h.5v1.8h.9v.5h-.9v.7l.4.4c.1.1.3.2.5.4-.1.2-.2.3-.3.5-.2-.2-.4-.3-.5-.4 0 0-.1 0-.1-.1v3.7h-.5v-3.7c-.1.3-.2.5-.3.8-.2.4-.4.7-.5.8-.1-.2-.2-.4-.3-.5.3-.4.5-.7.7-1.1.2-.3.3-.7.5-1.3h-.9v-.5h.8zm3.4-1.4v6.1c0 .2 0 .3-.1.4-.1.1-.4.2-.8.2 0-.2-.1-.4-.2-.5h.4c.1 0 .2 0 .2-.1V62h-.8c0 .3-.1.5-.1.8-.1.7-.3 1.3-.6 1.8-.1-.2-.2-.4-.4-.5.3-.5.5-1 .6-1.6.1-.5.1-1.2.1-1.9v-2.8h1.7zm-.5 3.7v-1.3h-.8v1.4h.8zm0-1.8v-1.4h-.8v1.4h.8zm3.1-1.9V64c0 .2 0 .3-.1.4-.1.1-.4.1-.9.2 0-.2-.1-.4-.2-.5h.4c.2 0 .2 0 .2-.1v-2h-.9c0 .4-.1.7-.1 1-.1.7-.3 1.2-.5 1.7-.1-.2-.2-.4-.4-.5.2-.4.3-1 .4-1.5 0-.5.1-1.1.1-1.8v-3.1h2zm-.5 3.7v-1.3h-.9v1.4h.9zm0-1.8v-1.4h-.9v1.4h.9zM336.2 87.6v-1.8h.5v1.8h.9v.5h-.9v.7l.4.4c.1.1.3.2.5.4-.1.2-.2.3-.3.5-.2-.2-.4-.3-.5-.4 0 0-.1 0-.1-.1v3.7h-.5v-3.7c-.1.3-.2.5-.3.8-.2.4-.4.7-.5.8-.1-.2-.2-.4-.3-.5.3-.4.5-.7.7-1.1.2-.3.3-.7.5-1.3h-.9v-.5h.8zm3.4-1.4v6.1c0 .2 0 .3-.1.4-.1.1-.4.2-.8.2 0-.2-.1-.4-.2-.5h.4c.1 0 .2 0 .2-.1v-1.8h-.8c0 .3-.1.5-.1.8-.1.7-.3 1.3-.6 1.8-.1-.2-.2-.4-.4-.5.3-.5.5-1 .6-1.6.1-.5.1-1.2.1-1.9v-2.8h1.7zm-.5 3.7v-1.3h-.8V90h.8zm0-1.8v-1.4h-.8v1.4h.8zm3.1-1.9v6.3c0 .2 0 .3-.1.4-.1.1-.4.1-.9.2 0-.2-.1-.4-.2-.5h.4c.2 0 .2 0 .2-.1v-2h-.9c0 .4-.1.7-.1 1-.1.7-.3 1.2-.5 1.7-.1-.2-.2-.4-.4-.5.2-.4.3-1 .4-1.5 0-.5.1-1.1.1-1.8v-3.1h2zm-.5 3.7v-1.3h-.9V90h.9zm0-1.8v-1.4h-.9v1.4h.9zM220.8 53.1v-1.8h.5v1.8h.9v.5h-.9v.7l.4.4c.1.1.3.2.5.4-.1.2-.2.3-.3.5-.2-.2-.4-.3-.5-.4 0 0-.1 0-.1-.1v3.7h-.5V55c-.1.3-.2.5-.3.8-.2.4-.4.7-.5.8-.1-.2-.2-.4-.3-.5.3-.4.5-.7.7-1.1.2-.3.3-.7.5-1.3h-.9v-.5h.8zm3.4-1.4v6.1c0 .2 0 .3-.1.4-.1.1-.4.2-.8.2 0-.2-.1-.4-.2-.5h.4c.1 0 .2 0 .2-.1V56h-.8c0 .3-.1.5-.1.8-.1.7-.3 1.3-.6 1.8-.1-.2-.2-.4-.4-.5.3-.5.5-1 .6-1.6.1-.5.1-1.2.1-1.9v-2.8h1.7zm-.5 3.7v-1.3h-.8v1.4h.8zm0-1.8v-1.4h-.8v1.4h.8zm3-1.9V58c0 .2 0 .3-.1.4-.1.1-.4.1-.9.2 0-.2-.1-.4-.2-.5h.4c.2 0 .2 0 .2-.1v-2h-.9c0 .4-.1.7-.1 1-.1.7-.3 1.2-.5 1.7-.1-.2-.2-.4-.4-.5.2-.4.3-1 .4-1.5 0-.5.1-1.1.1-1.8v-3.1h2zm-.5 3.7v-1.3h-.9v1.4h.9zm0-1.8v-1.4h-.9v1.4h.9zM165.6 65.7V64h.5v1.8h.9v.5h-1v.7l.4.4c.1.1.3.2.5.4-.1.2-.2.3-.3.5-.2-.2-.4-.3-.5-.4 0 0-.1 0-.1-.1v3.7h-.5v-3.7c-.1.3-.2.5-.3.8-.2.4-.4.7-.5.8-.1-.2-.2-.4-.3-.5.3-.4.5-.7.7-1.1.2-.3.3-.7.5-1.3h-.9V66h.9zm3.4-1.4v6.1c0 .2 0 .3-.1.4-.1.1-.4.2-.8.2 0-.2-.1-.4-.2-.5h.4c.1 0 .2 0 .2-.1v-1.8h-.8c0 .3-.1.5-.1.8-.1.7-.3 1.3-.6 1.8-.1-.2-.2-.4-.4-.5.3-.5.5-1 .6-1.6.1-.5.1-1.2.1-1.9v-2.8h1.7zm-.5 3.7v-1.3h-.8v1.4h.8zm0-1.8v-1.4h-.8v1.4h.8zm3-1.9v6.3c0 .2 0 .3-.1.4-.1.1-.4.1-.9.2 0-.2-.1-.4-.2-.5h.4c.2 0 .2 0 .2-.1v-2h-.9c0 .4-.1.7-.1 1-.1.7-.3 1.2-.5 1.7-.1-.2-.2-.4-.4-.5.2-.4.3-1 .4-1.5 0-.5.1-1.1.1-1.8v-3.1h2zM171 68v-1.3h-.9v1.4h.9zm0-1.8v-1.4h-.9v1.4h.9zM273.9 74.3V76h4.5v.8h-4.8l-1.7 3.1c.5.4 1 .7 1.5 1.1l2.2-3 .8.5-3.8 4.8c1.2-.1 2.6-.2 4-.4-.4-.5-.8-.9-1.2-1.4l.7-.5c1.1 1.2 1.9 2.2 2.4 2.9l-.7.5-.6-.9c-3.2.4-6 .7-8.2.8l-.2-.8c.9 0 1.8-.1 2.8-.1l1.3-1.7c-1-.9-2.2-1.7-3.6-2.5l.4-.7c.6.3 1.1.6 1.6 1l1.3-2.7h-4V76h4.5v-1.7h.8zM284.5 74.7v3.5h-3.2v6.4h-.8v-9.9h4zm-.8 1.4v-.7h-2.4v.7h2.4zm0 1.3v-.7h-2.4v.7h2.4zm5.9-2.7v8.9c0 .4-.1.6-.3.7-.2.1-.7.2-1.4.2 0-.3-.1-.6-.3-.9h1c.1 0 .2-.1.2-.2v-5.2h-2.7l.7.3-.7 1.1h1.6v.6h-2.6v.9h3v.7h-2.6c.2.4.4.7.7.9.3.3.7.6 1.4.8-.2.1-.4.3-.5.6-.6-.3-1.1-.7-1.5-1-.3-.3-.5-.6-.7-1.1-.1.2-.2.5-.3.7-.4.6-1.2 1.1-2.2 1.5-.1-.3-.3-.5-.6-.7 1-.3 1.7-.7 2.1-1.3.1-.1.2-.3.3-.5h-2.3V81h2.4v-.9h-2.1v-.6h1.3c-.2-.3-.4-.6-.7-.9l.5-.4c.3.3.7.7.9 1l-.4.3h1.4l.7-1.4h-.4v-3.5h4.1zm-.8.7h-2.4v.7h2.4v-.7zm0 1.3h-2.4v.7h2.4v-.7zM259.7 93.8c-.4-.4-.7-.8-.9-1.1-.3-.4-.4-.9-.4-1.5 0-.5.1-1 .4-1.5.2-.3.5-.7.9-1.1l.3.3c-.4.4-.7.7-.8 1-.2.4-.3.8-.3 1.3s.1.9.3 1.3c.2.3.5.7.8 1l-.3.3zM262.7 90.1v-1.5h.4v1.5h2.4v.4h-2.2c.1.6.4 1.1.7 1.6.4.6.9 1 1.5 1.3-.1.1-.2.2-.3.4-.6-.4-1.2-.9-1.6-1.5-.3-.4-.5-.9-.6-1.4-.1.4-.2.7-.3 1-.3.6-.9 1.3-1.9 2-.1-.2-.2-.3-.3-.4.8-.4 1.4-1 1.8-1.6.2-.4.4-.9.5-1.4h-2.1v-.4h2zM268 89.1v.4h-.7v1.1h.6v.4h-.6v1.3c.2-.1.5-.1.7-.2v.4c-.6.2-1.2.4-1.8.5l-.1-.4c.2-.1.5-.1.8-.2V91h-.7v-.4h.7v-1.1h-.7v-.4h1.8zm1.7 2.3v.7h1.3v.4h-1.3v.8h1.5v.4h-3.5v-.4h1.6v-.8h-1.2v-.4h1.2v-.7h-1.1v-2.6h2.7v2.6h-1.2zm-1.1-1.5h.8v-.7h-.8v.7zm.8.4h-.8v.7h.8v-.7zm.3-.4h.8v-.7h-.8v.7zm0 .4v.7h.8v-.7h-.8zM276.8 89v.4h-2.6c-.3.7-.5 1.2-.8 1.6h2.9v2.8h-.3v-.4h-2.5v.4h-.4v-2.3c-.3.3-.6.7-1 1l-.3-.3c.6-.4 1-.8 1.3-1.4.3-.4.5-.9.7-1.5h-1.7V89h4.7zm-.8 4v-1.7h-2.5V93h2.5zM279.6 89.7v.3h-2v-.3h2zm-.2-.8v.3h-1.5v-.3h1.5zm0 1.5v.3h-1.5v-.3h1.5zm0 .8v.3h-1.5v-.3h1.5zm0 .8v1.5h-1.2v.3h-.4V92h1.6zm-.4 1.1v-.8h-.8v.8h.8zm3.5-4.2v4.4c0 .2 0 .3-.1.3s-.3.1-.5.1c0-.1-.1-.3-.1-.4h.4s.1 0 .1-.1v-4.1h-1.9v2.2c0 .9-.2 1.7-.5 2.3-.1-.1-.2-.3-.3-.3.3-.5.4-1.2.4-2v-2.5h2.5zM281 90v-.6h.3v.6h.5v.3h-.5v.6h.6v.3h-1.6v-.3h.6v-.6h-.5V90h.6zm.8 1.6v1.3h-.9v.4h-.4v-1.7h1.3zm-.4 1v-.7h-.6v.7h.6zM286.2 92.2c-.6.6-1.3 1.1-2.3 1.5-.1-.1-.1-.2-.3-.4.9-.3 1.6-.8 2.2-1.4-.3-.3-.7-.6-1-.8l.2-.3c.4.3.8.5 1.1.8.3-.4.6-.9.9-1.5h-1.8c-.5.7-1 1.2-1.7 1.6-.1-.1-.2-.3-.3-.4.6-.4 1-.7 1.2-1 .3-.3.5-.8.8-1.4l.5.2-.3.6h1.8l.3.3c-.3.9-.8 1.7-1.3 2.2zM291.1 90.4v3.2h-.4v-2.8c-.7.6-1.5 1-2.1 1.3-.1-.2-.1-.3-.2-.4.7-.3 1.4-.7 2.1-1.2.6-.5 1.2-1.1 1.7-1.7l.4.3c-.6.6-1.1 1-1.5 1.3zM294.6 91.6c-.2.7-.6 1.3-1.2 1.9-.1-.1-.2-.3-.3-.4.5-.3.8-.7 1-1.2.2-.4.3-.9.3-1.5v-1h.4c0 1-.1 1.8-.2 2.2zm1.5 1.8-.3-.3.1-.1v-4h.4v3.7c.6-.4 1.2-1 1.8-1.8l.3.3c-.8.9-1.6 1.6-2.3 2.2zM299.9 92.7c-.2.4-.5.7-.9 1.1l-.3-.3c.4-.4.7-.7.8-1 .2-.4.3-.8.3-1.3s-.1-.9-.3-1.3c-.2-.3-.5-.7-.8-1l.3-.3c.4.4.7.8.9 1.1.3.4.4.9.4 1.5-.1.6-.2 1-.4 1.5zM337.1 150.5v-3.8h.4v3.5h2.4v.4h-2.8zM342.9 146.4v.3h-.5v.6h.6v.3h-.6v1h-.3v-1h-.6c0 .2-.1.4-.2.6-.1.3-.4.5-.7.7-.1-.1-.1-.2-.2-.3.3-.1.5-.3.6-.6.1-.1.1-.2.1-.4h-.6v-.3h.7v-.6h-.5v-.3h2.2zm-.4 2.8v-.4h.3v.4h1.5v.3h-1.5v.6h2v.3h-4.3v-.3h2v-.6h-1.4v-.3h1.4zm-.4-2.5h-.6v.6h.6v-.6zm1.5-.2v1.8h-.3v-1.8h.3zm1-.3v2.3c0 .1-.1.2-.2.2-.1.1-.3.1-.5.1 0-.1 0-.2-.1-.4h.4s.1 0 .1-.1v-2.2h.3zM349.4 146.6c-.4.1-.9.2-1.6.2v.7h1.7v.3h-1.7v.8h2v.3h-2v1.2c0 .1-.1.2-.2.3-.1.1-.4.1-.6.1 0-.1 0-.3-.1-.4h.5c.1 0 .1 0 .1-.1v-1h-1.9v-.3h1.9v-.8h-1.7v-.3h1.7v-.7c-.5 0-1.1.1-1.5.1 0-.2-.1-.3-.2-.3.7 0 1.3 0 1.9-.1.5-.1 1.1-.1 1.6-.2l.1.2zM350.9 147.2v-1h.3v1h.4v.3h-.4v.7c.1 0 .3-.1.4-.2v.3c-.1.1-.3.1-.4.2v1.7c0 .1-.1.2-.2.2s-.3.1-.6.1c0-.1 0-.2-.1-.3h.5c.1 0 .1 0 .1-.1v-1.5c-.2.1-.4.2-.6.2l-.1-.3c.2-.1.4-.1.7-.2v-.9h-.6v-.3h.6zm2.1-.8v1.8l.3.1-.1.4h1.1v2h-.3v-.2h-1.6v.2h-.4v-2h.9l.1-.4c-.1 0-.2.1-.5.1 0-.1 0-.3-.1-.3h.2c.1 0 .1 0 .1-.1v-1.3h-1v-.3h1.3zm-.4 1.3c-.3.1-.6.2-.8.3l-.1-.3c.2-.1.5-.2.9-.3v.3zm-.2-.5-.2.2-.4-.4.1-.2c.2.1.3.2.5.4zm1.6 2.2v-.4h-1.6v.4h1.6zm0 .7v-.5h-1.6v.5h1.6zm.5-3.7v1.7c0 .1 0 .2-.1.2s-.2.1-.5.1c0-.1 0-.3-.1-.3H354.1v-1.3h-1v-.3h1.4zm-.6.8-.2.2c-.1-.1-.3-.2-.5-.3l.1-.2.6.3zm.1.5c-.3.1-.5.2-.7.3l-.1-.3c.2-.1.5-.2.8-.3v.3zM464.2 315.3v.9h2.4v.4H462v1.5c0 1.3-.3 2.3-.9 3.2-.1-.2-.2-.3-.4-.4.6-.7.8-1.6.8-2.8v-1.9h2.1v-.9h.6zm-.1 2.6v-1h.4v1h2v.4h-1.8c.2.4.4.7.7 1 .3.4.7.7 1.3 1-.2.1-.3.3-.3.4-.5-.3-.9-.7-1.3-1.1l-.6-.9v2.6h-.4v-2.5c-.2.3-.5.7-.7.9-.4.4-.8.8-1.2 1.1-.1-.1-.2-.3-.3-.4.4-.2.7-.5 1.1-.9.3-.3.6-.7.9-1.2h-1.5v-.4h1.7zM469.1 316v4h-1v.7h-.4V316h1.4zm-.4 1.8v-1.4h-.6v1.4h.6zm0 1.7v-1.4h-.6v1.4h.6zm4.2-3.3-.5 1h.7v.4h-2c0 .2-.1.4-.1.5h2.3v.4H471c-.1.2-.1.3-.2.5H472.5l.2.3c-.2.4-.5.8-.8 1.1.4.2.9.4 1.5.5-.1.2-.2.3-.3.4-.6-.1-1.1-.3-1.6-.6-.4.3-.9.5-1.6.6 0-.2-.1-.3-.2-.4.6-.1 1.1-.3 1.4-.5-.3-.2-.5-.5-.7-.7-.3.5-.7.9-1.2 1.3l-.3-.3c.6-.4 1-.8 1.3-1.3.1-.2.2-.4.3-.7h-1.1v-.4h1.2c0-.2.1-.4.1-.5h-1.2v-.4h2.5l.5-1.1.4-.1zm.1-.4c-1.2.2-2.3.4-3.3.4 0-.1-.1-.2-.2-.4 1.1-.1 2.2-.2 3.2-.4l.3.4zm-2.5 1.2-.4.1-.3-.6.3-.1c.2.2.3.4.4.6zm.9 3.1c.3-.2.5-.5.6-.8h-1.4c.3.3.5.6.8.8zm.1-3.2-.4.1c-.1-.2-.1-.4-.2-.7l.3-.1c.2.3.3.5.3.7zM474.9 319.6c-.1.6-.3 1.1-.6 1.6-.1-.2-.2-.3-.3-.4.3-.4.4-.9.5-1.4.1-.5.1-1.1.1-1.8v-1.2h4.6v1.3h-1.8v.7h2.3v.4h-2.6c0 .2-.1.4-.1.6h2.2l-.1 1.1c0 .3-.1.5-.3.6-.2.1-.5.1-.9.1 0-.2 0-.3-.1-.4h.8s.1-.1.1-.2l.1-.7h-1.9c-.1.1-.1.3-.2.4-.3.4-.8.8-1.5 1-.1-.1-.2-.3-.3-.4.7-.2 1.2-.5 1.5-.9.2-.3.3-.7.4-1.1h-1.4v-.4h1.7v-.7h-2c-.1.6-.1 1.3-.2 1.8zm4.8-4v.4H474v-.4h5.7zm-4.7 1.8h3.7v-.6H475v.6zM449.8 269.9c-.7-.7-1.2-1.3-1.6-1.9-.4-.8-.6-1.6-.6-2.5 0-.9.2-1.7.6-2.5.3-.6.9-1.2 1.6-1.9l.5.5c-.7.6-1.2 1.2-1.5 1.8-.4.7-.6 1.4-.6 2.2 0 .8.2 1.5.6 2.2.3.5.8 1.1 1.5 1.8l-.5.3zM453.9 261.2l-1 1.9c.2.2.4.3.6.5l.9-1.6.6.4-1.7 2.7c.4 0 .9 0 1.4-.1-.1-.3-.3-.5-.4-.8l.5-.3c.4.6.6 1.1.8 1.5l-.5.4c0-.1-.1-.2-.1-.3-.4 0-.8.1-1.1.1v4h-.7v-3.9c-.5 0-1 .1-1.5.1l-.2-.6h1l.6-1c-.5-.4-1-.8-1.6-1.1l.4-.5c.1.1.3.2.4.3l.9-1.9.7.2zm-1.1 5.2c-.2.9-.4 1.7-.6 2.4-.2-.1-.4-.2-.6-.2.2-.7.4-1.5.6-2.3l.6.1zm2.6 1.7-.6.2c-.1-.6-.2-1.2-.4-1.8l.6-.2c.1.6.2 1.2.4 1.8zm1.8-7.1c-.2.7-.3 1.3-.4 1.7h3.1v3.8c0 1-.1 1.7-.2 2-.1.6-.8.9-2 .9 0-.3-.1-.6-.3-.8h1.1c.3 0 .5-.2.6-.5.1-.3.1-.9.2-1.9v-3h-2.6c-.2.6-.4 1.1-.6 1.5-.2-.2-.4-.3-.6-.4.3-.6.5-1.2.7-1.9.2-.6.3-1.2.4-1.8l.6.4zm1 5.3-.5.5c-.3-.5-.8-1.1-1.3-1.7l.5-.4c.4.5.9 1.1 1.3 1.6zM464.2 268.5v-5.4c-.5.3-.9.4-1.3.5v-.7c.5-.1.9-.2 1.3-.5h.7v6.1h-.7zM470.8 268.1c-.4.4-.9.6-1.4.6-1.1 0-1.8-.5-2.1-1.6h.8c.2.7.7 1.1 1.3 1.1.4 0 .7-.1.9-.5.3-.3.4-.6.4-1s-.1-.7-.4-1c-.3-.3-.6-.5-1-.5-.5 0-.9.2-1.2.6l-.7-.2.3-3.2h3.2v.6h-2.6l-.2 2.1c.4-.3.9-.4 1.4-.4s1 .2 1.3.6c.3.4.5.9.5 1.4.1.5-.1 1-.5 1.4zM473.7 268.7h-.7l-.1-.1v-.6l.1-.1h.7l.1.1v.6l-.1.1zM479 267.6c-.4.7-1 1.1-1.7 1.1-.8 0-1.4-.3-1.8-1-.3-.5-.5-1.3-.5-2.2 0-2.2.8-3.3 2.3-3.3.8 0 1.4.4 1.7 1.1.3.6.4 1.3.4 2.2.1.8 0 1.5-.4 2.1zm-.5-3.8c-.2-.7-.6-1-1.2-1-1 0-1.5.9-1.5 2.7 0 1.7.5 2.6 1.5 2.6.5 0 .9-.3 1.2-.9.2-.5.3-1 .3-1.6 0-.8-.1-1.3-.3-1.8zM482.4 262.5v-1.7h.7v1.7h1.4v4.5c0 .2 0 .3-.1.4-.1.1-.4.2-.8.2 0-.3-.1-.5-.2-.7h.3c.1 0 .2 0 .2-.1v-3.7h-.7v6.5h-.7v-6.5h-.7v4.5h-.8v-5.1h1.4zm4.9-1.6v1.8h2.1v.6h-2.1v2h1.7v4.2h-.6v-.5h-2.7v.6h-.6v-4.3h1.6v-4.4h.6zm1.1 7.5v-2.5h-2.7v2.5h2.7zM492.9 268c-.3.6-.9 1.2-1.6 1.9l-.5-.4c.7-.6 1.1-1.2 1.5-1.8.4-.7.6-1.4.6-2.2 0-.8-.2-1.5-.6-2.2-.3-.5-.8-1.1-1.5-1.8l.5-.5c.7.7 1.2 1.3 1.6 1.9.4.8.6 1.6.6 2.5.1 1-.1 1.8-.6 2.6zM456.4 257.1v-10.5h1.2v9.5h6.5v1h-7.7zM473.1 255.8c-1.1.9-2.5 1.3-4.3 1.3h-3v-10.5h3.5c1.6 0 2.9.5 4 1.4 1 1 1.6 2.2 1.6 3.8 0 1.7-.6 3-1.8 4zm-.8-7.1c-.8-.7-1.9-1-3.3-1h-2.1v8.5h2.3c1.3 0 2.3-.4 3.1-1.2.8-.8 1.2-1.8 1.2-3.1.1-1.5-.4-2.5-1.2-3.2zM483.8 257.1l-4-5.9-2.3 1.9v4h-1.1v-10.5h1.1v5.2l6-5.2h1.6l-4.5 3.9 4.8 6.6h-1.6z"/><path class="st36" d="M410.4 358V205.3h120.1M410.4 358l120.1-152.7"/><path class="st36" d="M410.4 358h120.1L410.4 205.3"/><path d="M524 265.4h-2v3.5h-.4v-5.8h2.4v2.3zm-.5-1.9H522v.6h1.5v-.6zM522 265h1.5v-.6H522v.6zm3.5 3.3h-2.1v.3h-.4v-2.7h2.5v2.4zm-.4-2.1h-1.6v.7h1.6v-.7zm-1.7 1.7h1.6v-.7h-1.6v.7zm3.6-4.8v5.2c0 .6-.3.6-1.4.6 0-.1-.1-.3-.2-.5h.6c.5 0 .5 0 .5-.2v-2.9h-2V263h2.5zm-.4.4H525v.6h1.6v-.6zM525 265h1.6v-.6H525v.6zM523.4 272.7l-.8.2v2c0 .5-.3.6-1.1.6 0-.1-.1-.3-.1-.4h.4c.5 0 .5 0 .5-.1v-1.8c-.3.1-.5.2-.8.2 0 .1 0 .1-.1.1l-.2-.5c.3-.1.6-.2 1-.2v-1.5h-.9v-.4h.9v-1.4h.6c0 .1 0 .1-.1.1v1.2h.8v.4h-.8v1.4c.3-.1.5-.1.8-.2l-.1.3zm3.9-.5h-2.1l-.1.1-.3.6h2.4v.4h-.8c-.1.5-.4.9-.7 1.2.5.2 1 .5 1.3.7l-.3.3c-.3-.2-.8-.5-1.4-.7-.5.3-1.2.6-2.2.7 0-.1-.1-.3-.2-.4.8-.1 1.4-.3 1.9-.5-.3-.1-.6-.2-.8-.3l-.1.2-.4-.1c.2-.3.3-.7.5-1.1h-.9v-.4h1.1c.1-.2.2-.5.3-.7H523v-.4h4.2v.4zm-.2-2.1v.4h-3.6v-.4h1.5v-.7h.6s0 .1-.1.1v.6h1.6zm-2.6.5c.1.4.2.8.3 1.1l-.4.1c0-.3-.1-.7-.2-1.1l.3-.1zm.1 2.7c-.1.2-.2.5-.3.7.3.1.7.2 1 .3.3-.3.5-.6.7-1h-1.4zm2-2.6-.1.1c-.1.3-.3.8-.4 1.1l-.4-.1c.1-.3.3-.8.4-1.2l.5.1zM522.5 280.7c-.2.5-.5 1-.8 1.3l-.4-.2c.3-.3.6-.8.8-1.3l.4.2zm-.5-.9v.4h-.4v-4h1.9v3.6H522zm1.1-3.2H522v1.2h1.1v-1.2zm-1.1 2.8h1.1v-1.2H522v1.2zm1.4 2.6c0-.3-.1-.8-.1-1.2h.4c.1.4.2.9.2 1.2h-.5zm3.7-5.8v.1c-.1 1.7-.2 1.7-.9 1.7h-.5c0-.1-.1-.3-.1-.4h.7c.1 0 .2 0 .2-.1.1-.1.1-.4.2-1h-1.2c-.1.8-.5 1.4-1.5 1.7 0-.1-.2-.3-.2-.3.9-.2 1.2-.7 1.4-1.3h-1.1v-.4h3zm-.2 2.2v1.8h-2.8v-1.8h2.8zm-.4 1.5v-1.1h-2v1.1h2zM525 282c-.1-.3-.2-.8-.4-1.2l.4-.1c.2.4.4.9.4 1.2l-.4.1zm1.9 0c-.2-.4-.6-.9-.9-1.3l.4-.1c.3.4.7 1 .9 1.3l-.4.1zM523.7 286.9H522v.6h-.4v-4.6h2.2v4zm-.4-3.6H522v1.3h1.3v-1.3zm-1.4 3.2h1.3v-1.4h-1.3v1.4zm5.2-3.7v5.2c0 .3-.1.4-.3.5-.2.1-.6.1-1.1.1 0-.1-.1-.3-.2-.4h.6c.5 0 .5 0 .5-.2v-1.5h-2c-.2.8-.5 1.6-1.2 2.2l-.3-.3c1.1-.9 1.2-2.1 1.2-3.2v-2.4h2.8zm-2.4 2.3v.9h2v-1.2h-1.9v.3zm2-1.9h-1.9v1.2h1.9v-1.2zM414.8 265.4h-2v3.5h-.4v-5.8h2.4v2.3zm-.5-1.9h-1.5v.6h1.5v-.6zm-1.5 1.5h1.5v-.6h-1.5v.6zm3.5 3.3h-2.1v.3h-.4v-2.7h2.5v2.4zm-.4-2.1h-1.6v.7h1.6v-.7zm-1.7 1.7h1.6v-.7h-1.6v.7zm3.6-4.8v5.2c0 .6-.3.6-1.4.6 0-.1-.1-.3-.2-.5h.6c.5 0 .5 0 .5-.2v-2.9h-2V263h2.5zm-.4.4h-1.6v.6h1.6v-.6zm-1.6 1.5h1.6v-.6h-1.6v.6zM414.2 272.7l-.8.2v2c0 .5-.3.6-1.1.6 0-.1-.1-.3-.1-.4h.4c.5 0 .5 0 .5-.1v-1.8c-.3.1-.5.2-.8.2 0 .1 0 .1-.1.1l-.2-.5c.3-.1.6-.2 1-.2v-1.5h-.9v-.4h.9v-1.4h.6c0 .1 0 .1-.1.1v1.2h.8v.4h-.8v1.4c.3-.1.5-.1.8-.2l-.1.3zm3.9-.5H416l-.1.1-.3.6h2.4v.4h-.8c-.1.5-.4.9-.7 1.2.5.2 1 .5 1.3.7l-.3.3c-.3-.2-.8-.5-1.4-.7-.5.3-1.2.6-2.2.7 0-.1-.1-.3-.2-.4.8-.1 1.4-.3 1.9-.5-.3-.1-.6-.2-.8-.3l-.1.2-.4-.1c.2-.3.3-.7.5-1.1h-.8v-.4h1.1c.1-.2.2-.5.3-.7H414v-.4h4.2v.4zm-.2-2.1v.4h-3.6v-.4h1.5v-.7h.6s0 .1-.1.1v.6h1.6zm-2.6.5c.1.4.2.8.3 1.1l-.4.1c0-.3-.1-.7-.2-1.1l.3-.1zm.1 2.7c-.1.2-.2.5-.3.7.3.1.7.2 1 .3.3-.3.5-.6.7-1h-1.4zm2-2.6-.1.1c-.1.3-.3.8-.4 1.1l-.4-.1c.1-.3.3-.8.4-1.2l.5.1zM413.3 280.7c-.2.5-.5 1-.8 1.3l-.4-.2c.3-.3.6-.8.8-1.3l.4.2zm-.5-.9v.4h-.4v-4h1.9v3.6h-1.5zm1.1-3.2h-1.1v1.2h1.1v-1.2zm-1.1 2.8h1.1v-1.2h-1.1v1.2zm1.4 2.6c0-.3-.1-.8-.1-1.2h.4c.1.4.2.9.2 1.2h-.5zm3.7-5.8v.1c-.1 1.7-.2 1.7-.9 1.7h-.5c0-.1-.1-.3-.1-.4h.7c.1 0 .2 0 .2-.1.1-.1.1-.4.2-1h-1.2c-.1.8-.5 1.4-1.5 1.7 0-.1-.2-.3-.2-.3.9-.2 1.2-.7 1.4-1.3h-1.1v-.4h3zm-.2 2.2v1.8h-2.8v-1.8h2.8zm-.5 1.5v-1.1h-2v1.1h2zm-1.4 2.1c-.1-.3-.2-.8-.4-1.2l.4-.1c.2.4.4.9.4 1.2l-.4.1zm1.9 0c-.2-.4-.6-.9-.9-1.3l.4-.1c.3.4.7 1 .9 1.3l-.4.1zM414.5 286.9h-1.7v.6h-.4v-4.6h2.2v4zm-.5-3.6h-1.3v1.3h1.3v-1.3zm-1.3 3.2h1.3v-1.4h-1.3v1.4zm5.2-3.7v5.2c0 .3-.1.4-.3.5s-.6.1-1.1.1c0-.1-.1-.3-.2-.4h.6c.5 0 .5 0 .5-.2v-1.5h-2c-.2.8-.5 1.6-1.2 2.2l-.3-.3c1.1-.9 1.2-2.1 1.2-3.2v-2.4h2.8zm-2.4 2.3v.9h2v-1.2h-1.9v.3zm2-1.9h-1.9v1.2h1.9v-1.2z"/><path class="st37" d="M132.5 440.6v-4.4h.5v-3.5h.4V413h1.1v19.7h.5v3.5h.4v4.4zM259.1 440.6v-4.4h.5v-3.5h.4V413h1.1v19.7h.5v3.5h.4v4.4z"/><path class="st3" d="M132.5 436.2h2.8v4.4h-2.8zM133.4 432.7v1h1.1v-1h.5v3.4h-2v-3.4z"/><path class="st3" d="M133.4 413h1.1v20.8h-1.1zM259.1 436.2h2.8v4.4h-2.8zM260 432.7v1h1.1v-1h.5v3.4h-2v-3.4z"/><path class="st3" d="M260 413h1.1v20.8H260z"/><path d="M187.1 427.3c0 .3 0 .5-.1.7h.5v-1.3h.4v1.3h.6v.3h-.6v1.2c.2-.1.4-.1.6-.2v.4c-.2.1-.4.1-.6.2v2.1h-.4v-2c-.3.1-.7.2-1 .3l-.1-.4c.3-.1.7-.2 1.1-.3v-1.3h-.5c-.1.3-.1.6-.2.8h-.3c.2-.6.3-1.2.4-1.9l.2.1zm2.7-.4c-.1.4-.2.7-.4 1h2.1l-.1 3.1c0 .3-.1.6-.1.7-.1.1-.2.2-.5.3h-.5c0-.2 0-.3-.1-.4h.6c.1 0 .2 0 .2-.1s0-.2.1-.4l.1-2.7h-.4c0 .8-.2 1.5-.5 2.1-.4.6-.8 1.1-1.4 1.5l-.3-.3c.6-.4 1-.8 1.3-1.4.3-.5.5-1.1.5-1.9h-.4c-.1.4-.2.9-.4 1.3-.3.5-.6.8-.9 1.1-.1-.1-.1-.2-.2-.3.3-.2.6-.5.8-.9.2-.3.3-.7.4-1.2h-.3c-.2.4-.4.7-.6 1-.1-.1-.2-.2-.3-.2.3-.4.5-.8.6-1.2.2-.3.3-.7.4-1.1h.3zM197 427.2v.4h-2v1.5h2.3v.4H195v2.6h-.4v-2.6h-2.3v-.5h2.3v-1.5h-1.9v-.4h4.3zM200.8 426.9c0 .1-.1.1-.1.1.4.4.8.8 1.2 1.1.4.3.8.6 1.2.7-.1.1-.2.3-.2.4-.4-.2-.7-.4-1-.6v.3h-1.2v.6h2v.4h-2v1.4h2.3v.4h-5v-.4h2.2V430h-2v-.4h2v-.6H199v-.3c-.4.3-.7.5-.9.6-.1-.1-.2-.3-.3-.3.5-.3.9-.6 1.3-1s.8-.8 1.2-1.4l.5.3zm-1.2 4.1-.4.2c-.1-.2-.3-.5-.4-.7l.4-.2c.1.2.3.5.4.7zm2.3-2.3c-.1-.1-.3-.2-.4-.3-.4-.3-.7-.7-1-1-.3.4-.7.7-1 1.1-.1.1-.2.2-.3.2h2.7zm.3 1.7-.5.9-.3-.2.4-.9.4.2zM204.4 427.3c0 .3 0 .5-.1.7h.5v-1.3h.4v1.3h.6v.3h-.6v1.2c.2-.1.4-.1.6-.2v.4c-.2.1-.4.1-.6.2v2.1h-.4v-2c-.3.1-.7.2-1 .3l-.1-.4c.3-.1.7-.2 1.1-.3v-1.3h-.5c-.1.3-.1.6-.2.8h-.3c.2-.6.3-1.2.4-1.9l.2.1zm2.6-.4c-.1.4-.2.7-.4 1h2.1l-.1 3.1c0 .3-.1.6-.1.7-.1.1-.2.2-.5.3h-.5c0-.2 0-.3-.1-.4h.6c.1 0 .2 0 .2-.1s0-.2.1-.4l.1-2.7h-.4c0 .8-.2 1.5-.5 2.1-.4.6-.8 1.1-1.4 1.5l-.3-.3c.6-.4 1-.8 1.3-1.4.3-.5.5-1.1.5-1.9h-.4c-.1.4-.2.9-.4 1.3-.3.5-.6.8-.9 1.1-.1-.1-.1-.2-.2-.3.3-.2.6-.5.8-.9.2-.3.3-.7.4-1.2h-.3c-.2.4-.4.7-.6 1-.1-.1-.2-.2-.3-.2.3-.4.5-.8.6-1.2.2-.3.3-.7.4-1.1h.3zM432.8 292h-2.9v4.8c0 1-.6 1-2.5 1 0-.2-.1-.5-.2-.6h1.6c.2 0 .4-.2.3-.4v-4.2c-1 1.5-2.6 3-4.2 4-.1-.2-.3-.4-.5-.5 1.6-.9 3.3-2.4 4.3-3.9h-3.9v-.7h4.3v-2.1h.9c0 .1-.1.2-.2.2v1.9h3v.5zM434.1 293h8.2v.7h-7.8c-.1.1-.2.2-.3.2l-.1-.9zM443.8 290.4H450.2l.7.5-.1.1c-.8 3.7-2.5 5.6-5.5 6.8-.1-.2-.3-.4-.4-.6 2.9-1.1 4.5-2.9 5.2-6.1H444v-.7zm7.5-1.8c.6 0 1.1.5 1.1 1.1 0 .6-.5 1.1-1.1 1.1-.6 0-1.1-.5-1.1-1.1 0-.6.5-1.1 1.1-1.1zm.7 1.1c0-.4-.3-.8-.7-.8-.4 0-.8.3-.8.8 0 .4.3.8.8.8.4 0 .7-.4.7-.8zM453.4 290c1 .3 2.2.8 2.9 1.3l-.3.7c-.7-.5-1.9-1-2.9-1.4l.3-.6zm0 6.8c3.5-1.1 5.8-3 7-5.8.2.2.4.3.6.4-1.2 2.7-3.6 4.8-7 5.9 0 .1-.1.2-.1.2l-.5-.7zM461.8 294.1c.7-.8 2.3-2.5 2.9-3.1.3-.3.5-.4.8-.4.3 0 .5.1.8.4 1.3 1.2 3.3 3.4 4.8 5.4l-.6.5c-1.4-1.9-3.5-4.3-4.6-5.3-.2-.2-.3-.2-.4-.2-.1 0-.2.1-.4.2-.5.5-1.9 2.2-2.6 2.9v.1c0 .1 0 .2-.1.2l-.6-.7zm7.5-5c.6 0 1.1.5 1.1 1.1s-.5 1.1-1.1 1.1c-.6 0-1.1-.5-1.1-1.1 0-.7.5-1.1 1.1-1.1zm.7 1.1c0-.4-.3-.8-.8-.8-.4 0-.8.4-.8.8s.4.8.8.8c.5 0 .8-.4.8-.8zM472.4 290c1 .3 2.2.8 2.9 1.3l-.4.6c-.7-.5-1.9-1-2.9-1.4l.4-.5zm-.1 6.8c3.5-1.1 5.8-3 7-5.8.2.2.4.3.6.4-1.2 2.7-3.6 4.8-7 5.9 0 .1-.1.2-.1.2l-.5-.7zM486.8 294.4c-1-.5-2.4-1.2-3.5-1.6v4.9h-.7v-8.5l1 .1c0 .1-.1.2-.3.2v2.9l.1-.2c1.2.4 2.7 1.1 3.7 1.6l-.3.6zM491.9 290.7c0 .1-.1.1-.3.2-.4 2.3-1.2 4.8-2.4 6.3-.2-.1-.5-.2-.7-.3 1.2-1.4 1.9-3.8 2.3-6.4l1.1.2zm3.1-.3c1.1 1.8 2.3 4.7 2.7 6.5l-.7.3c-.4-1.7-1.6-4.7-2.6-6.5l.6-.3zM502.2 289.2l1 .1c0 .1-.1.2-.3.2v1.5h2.6l.1-.1.6.3-.1.1c-.5 3.4-1.9 5.4-5 6.5-.1-.2-.3-.4-.5-.6 2.9-1 4.3-2.8 4.6-5.6h-5.6v2.4h-.7v-3h3.1v-1.8zM514.1 290.2l-.1.1c-.5 1.2-1.2 2.3-2 3.4 1.1.9 2.7 2.3 3.6 3.3l-.6.5c-.9-1-2.4-2.5-3.5-3.3-.9 1.1-2.4 2.5-3.8 3.3-.1-.1-.3-.4-.5-.5 2.7-1.5 4.9-4.3 5.8-6.4h-4.8v-.7h5.3l.6.3zM444.6 308.4c-.7-.9-1.5-2.3-1.5-4.5s.7-3.6 1.5-4.6h.7c-.8 1.1-1.4 2.5-1.4 4.6 0 2 .6 3.4 1.4 4.5h-.7zM452.4 306.8h4.5v.7H448v-.7h3.8V299l.9.1c0 .1-.1.1-.2.1v2.9h3.8v.7h-3.8v4zM462.8 302.6c.2-.5.5-1.3.6-1.9l.8.2c0 .1-.1.1-.2.1-.1.5-.4 1.2-.6 1.7h1.5v.6h-5.2v-.6h3.5l-.4-.1zm1.9-2.7v.6h-4.8v-.6h2v-1.2h.8c0 .1-.1.1-.2.1v1h2.2zm-4.4 8v-3.7h3.9v3.7h-.6v-.5H461v.6h-.7zm.8-7.1c.2.5.4 1.2.5 1.6l-.6.1c0-.4-.2-1.1-.4-1.6l.5-.1zm2.5 4H461v2h2.6v-2zm4.8-5.5.4.2s0 .1-.1.1c-.4.8-.9 1.9-1.4 2.9 1.1 1 1.5 1.7 1.5 2.4 0 1.5-1.1 1.5-1.7 1.5h-.5c0-.2-.1-.5-.2-.6h.6c.7 0 1.1 0 1.1-.9 0-.6-.5-1.3-1.6-2.3.5-1 .9-1.9 1.2-2.7h-2v7.9h-.6v-8.5h3.3zM477.8 301.2v1.7c0 .8.4 3.4 2.9 4.5-.1.2-.3.4-.4.6-1.9-1-2.6-2.9-2.8-3.8-.1.9-1 2.8-3.2 3.8-.1-.1-.3-.4-.4-.6 2.8-1.2 3.3-3.7 3.3-4.5v-1.7H476c-.3.9-.6 1.7-1 2.3-.1-.1-.3-.2-.5-.3v1.9h-2.1v1h-.6v-6.4h2.7v3.3c.6-1 1.1-2.6 1.3-4.2l.8.2c0 .1-.1.1-.2.1-.1.5-.2 1-.3 1.4h4.5c-.3 1.1-.5 2-.8 2.8l-.6-.2c.2-.5.4-1.3.6-2h-2zm-3.9 3.3v-4.2h-1.5v4.2h1.5zM491.3 302.7l.4.1s0 .1-.1.1c-.2 1.4-.7 2.4-1.3 3.3.6.5 1.3.9 2.2 1.1-.1.1-.3.4-.4.6-.8-.3-1.6-.7-2.2-1.2-.5.6-1.2 1-1.9 1.3-.1-.2-.2-.4-.4-.6.7-.2 1.3-.6 1.8-1.2-.5-.6-.9-1.2-1.2-2-.3 1.5-.9 2.7-1.7 3.6-.1-.1-.3-.4-.5-.5 1.2-1.3 1.7-3.5 2-6.2h-1.4v.2h-1.1v2.1l1.1-.3.1.6-1.2.4v3c0 .7-.3.8-1.6.8 0-.2-.1-.4-.2-.6h1c.1 0 .2 0 .2-.2v-2.7c-.5.2-.9.3-1.2.4 0 .1 0 .1-.1.2l-.3-.8c.4-.1 1-.3 1.6-.5v-2.3h-1.5v-.6h1.5v-2h.8c0 .1-.1.1-.2.1v1.8h1v-.2h1.6c0-.6.1-1.2.1-1.8l.8.1c0 .1-.1.1-.2.1 0 .5-.1 1.1-.1 1.6h3.7v.6h-3.7c0 .5-.1 1-.2 1.5h2.7l.1.1zm-3 1 .2-.1c.3.8.7 1.5 1.3 2.1.5-.7.9-1.5 1.1-2.4h-2.6v.4zM495.6 299.3c.7.9 1.4 2.3 1.4 4.5s-.7 3.6-1.4 4.5h-.7c.8-1.1 1.4-2.5 1.4-4.5s-.6-3.4-1.4-4.5h.7z"/></svg>