<svg version="1.1" id="レイヤー_1" xmlns="http://www.w3.org/2000/svg" x="0" y="0" viewBox="0 0 620 445.4" style="enable-background:new 0 0 620 445.4" xml:space="preserve"><style>.st2{fill:#bfc0c0}.st3,.st4{stroke-width:.4}.st3{fill:none;stroke:#000}.st4{stroke-dasharray:1.3,1.3,0,0,0,0}.st4,.st5,.st6{fill:none;stroke:#000}.st5{stroke-width:.4;stroke-miterlimit:10}.st6{stroke-width:.6}.st7{fill:#fadce9}.st8{fill:#f9f4e4}.st11{fill:#dfeaf8}.st14{stroke:#cfb5a7}.st14,.st15,.st19,.st20,.st21{fill:none;stroke-width:.4}.st15{stroke:#b5b5b6;stroke-miterlimit:10}.st19,.st20,.st21{stroke:#000;stroke-linejoin:bevel;stroke-dasharray:15,1.3,1.3,1.3}.st20,.st21{stroke-width:.3;stroke-dasharray:1.3,1.3,0,0,0,0}.st21{stroke-width:.4;stroke-dasharray:10,1.3,1.3,1.3}.st22,.st23,.st24,.st25,.st26,.st28{fill:none;stroke:#000;stroke-width:.4;stroke-dasharray:1.005940e-02,0,0,0}.st23,.st24,.st25,.st26,.st28{stroke-dasharray:1.3077,1.2977,1.005940e-02,0,0,0}.st24,.st25,.st26,.st28{stroke-dasharray:9.911315e-03,0,0,0}.st25,.st26,.st28{stroke-dasharray:1.2885,1.2786,9.911315e-03,0,0,0}.st26,.st28{stroke-dasharray:1.3,1.3}.st28{stroke-width:.2;stroke-linecap:round;stroke-linejoin:round;stroke-miterlimit:10;stroke-dasharray:1.3,1.3,0,0,0,0}.st29{fill:#fff}</style><path style="fill:#ecf4d9" d="M118.4 434.1v-2.4h-.6V402h.6v-2.3h4v-23.5h19v.7h77.2v-.7h2.8v11.6h56.7v-11.6h2.5v.7h63.3v-.7h28.3v.7h77.2v-.7h16.3v23.5h3.9v2.3h.6v29.7h-.6v2.4z"/><path d="M249.5 388.3h-18.6c-.5 0-.9.4-.9.9V405c0 1 .8 1.9 1.9 1.9h16.7c1 0 1.9-.8 1.9-1.9v-15.8c-.1-.5-.5-.9-1-.9z" style="fill:#dff2fc"/><path class="st2" d="M455.9 434v9.8h8.9v-1.2h11.6v1.2h9.3V434zM102.2 434v9.8h9.1v-1.2h11.6v1.2h9.1V434z"/><path class="st3" d="M116.6 402h1.2v29.8h-1.2zM116.1 399.7h2.3v2.3h-2.3z"/><path class="st3" d="M116.1 431.7h2.3v2.3h-2.3zM470.2 402h1.2v29.8h-1.2zM469.6 399.7h2.3v2.3h-2.3z"/><path class="st3" d="M469.6 431.7h2.3v2.3h-2.3zM117.8 429.4h338.9v-3.6h9.3v3.6h4.2M517.8 434h-32.1M517.8 437.3h-32.1M517.8 439.6h-32.1M517.8 442.9h-32.1M455.9 434H132.1M455.9 437.3H132.1M455.9 439.6H132.1M455.9 442.9H132.1"/><circle class="st3" cx="461.3" cy="429.4" r="1.6"/><path class="st3" d="M102.2 429.4h1v-3.6h9.3v3.6h4.1"/><circle class="st3" cx="107.8" cy="429.4" r="1.6"/><path class="st3" d="M471.3 429.4h46.5"/><path class="st4" d="M251.6 388.3h23.2v9.3h-23.2z"/><path class="st5" d="M249.5 389h-18.6c-.1 0-.2.1-.2.2V405c0 .6.5 1.2 1.2 1.2h16.7c.6 0 1.2-.5 1.2-1.2v-15.8c-.1-.1-.2-.2-.3-.2z"/><path class="st5" d="M249.5 388.3h-18.6c-.5 0-.9.4-.9.9V405c0 1 .8 1.9 1.9 1.9h16.7c1 0 1.9-.8 1.9-1.9v-15.8c-.1-.5-.5-.9-1-.9z"/><circle class="st5" cx="240.2" cy="391.2" r="1.2"/><path class="st6" d="M455.9 434v9.8h8.9v-1.2h11.6v1.2h9.3V434zM102.2 434v9.8h9.1v-1.2h11.6v1.2h9.1V434z"/><path d="M333.1 405.1c-.7 1.5-1.5 2.8-2.5 4-.3-.3-.6-.6-.9-.8 1.7-2 3-4.6 3.9-8.1l1.1.4c-.5 1.9-1 3.4-1.6 4.5zm8 3.6c-.9-2.8-2.2-5.5-3.9-8.2l.9-.6c1.8 2.7 3.2 5.5 4.2 8.3l-1.2.5zm-.5-7.1c-.3-.5-.8-1-1.4-1.6l.6-.5c.6.5 1.1 1 1.5 1.5l-.7.6zm1.2-.9c-.3-.5-.8-1-1.4-1.6l.6-.5c.6.5 1.1 1 1.5 1.5l-.7.6zM346.9 405.5c-.5 1.8-1.5 3.3-3 4.6-.2-.3-.5-.6-.7-.9 1.1-.8 2-1.8 2.4-3 .4-1 .6-2.2.7-3.8v-2.6h1.1c0 2.6-.2 4.5-.5 5.7zm3.6 4.3-.8-.8.1-.2v-9.9h1.1v9.3c1.5-1.1 3-2.6 4.4-4.4.2.3.5.5.8.7-1.8 2.2-3.7 4-5.6 5.3zM365.4 409.8v-.8h-7.9v-1h7.9v-6h-7.9v-1h9.1v8.9h-1.2zM368.5 408.5v-1.1h12.1v1.1h-12.1zm1.7-6.9v-1.1h8.6v1.1h-8.6zM381.9 404.9v-1H393v1h-11.1zM253.3 393.7c-.2.7-.4 1.3-.6 1.8l-.2-.2c.2-.5.4-1.1.6-1.8l.2.2zm-.2-1.4-.1.3c-.1-.1-.3-.3-.5-.4l.1-.3c.2.1.4.2.5.4zm.3-1.3-.2.3-.5-.5.2-.3.5.5zm2.4 3.9h.3v.4h-3v-.4h.4v-1.7h2.2v1.7zm-2-2.2v-2.2h1.8v2.2h-1.8zm.4 2.2v-1.3h-.4v1.3h.4zm-.2-3.4h1.3v-.5H254v.5zm0 .3v.6h1.3v-.6H254zm.9 3.1v-1.3h-.4v1.3h.4zm.7 0v-1.3h-.4v1.3h.4zM257.8 392c-.1.8-.2 1.3-.4 1.7-.2.5-.4.9-.7 1.3-.1-.1-.1-.3-.2-.3.3-.3.5-.7.7-1.1.1-.4.3-.9.3-1.4h-.9v-.4h1l.2.2zm.7-1.7v.9c.1.5.2.9.3 1.3.3-.3.6-.6.9-1l.2.3c-.3.4-.6.8-.9 1.1.1.1.1.3.2.4.3.6.6 1 1 1.3-.1.1-.1.2-.2.4-.4-.3-.8-.8-1-1.4-.2-.4-.3-.8-.4-1.2v2.7c0 .1-.1.2-.1.3-.1.1-.3.1-.4.1 0-.1 0-.3-.1-.4h.3s.1 0 .1-.1v-4.6h.1zM260.8 394.7l-.3-.3c.3-.5.5-1 .8-1.7l.3.2c-.3.7-.6 1.2-.8 1.8zm1.5-2.6v3.2h-.3v-3.2h-1.5v-.4h1.5v-1.2h.3v1.2h1.6v.4h-1.6zm1.3 2.4c-.3-.5-.6-1-.9-1.7l.3-.3c.3.7.6 1.2.9 1.7l-.3.3zm-.3-3c-.1-.2-.2-.4-.4-.6l.1-.2c.2.2.3.4.5.5l-.2.3zm.3-.5c-.1-.2-.2-.4-.4-.6l.1-.2c.2.2.3.4.5.5l-.2.3zM266.2 392.2v3.2h-.3v-2.8c-.5.6-1 1-1.5 1.3 0-.2-.1-.3-.2-.4.5-.3 1-.7 1.4-1.2.4-.5.8-1.1 1.2-1.7l.3.3c-.3.5-.6.9-.9 1.3zM269.7 394.3c-.3.4-.9.8-1.5 1.1 0-.1-.1-.3-.1-.4.6-.2 1-.4 1.3-.8.3-.4.6-.9.9-1.7h-2.6v-.4h2.8l.2.3c-.4.8-.7 1.5-1 1.9zm-1.7-3.1v-.4h2.1v.4H268zM271 393.1v-.4h3.1v.4H271zM234.8 400.4c-.1.2-.3.3-.4.4h1.4l.2.3c-.6.6-1.1 1-1.5 1.3-.5.3-1.2.7-2.1 1 0-.1-.1-.2-.2-.4.6-.2 1.1-.4 1.8-.8l-.6-.6.3-.2c.3.2.4.4.6.6.5-.3.9-.6 1.2-1H234c-.1.1-.2.2-.3.2-.4.3-.9.5-1.3.7-.1-.1-.1-.2-.2-.3.4-.1.8-.3 1.2-.6.4-.2.8-.6 1.1-.9l.3.3zm.9 2.1c-.2.2-.5.4-.7.6h1.5l.2.3c-.4.6-1 1.1-1.6 1.4-.7.4-1.6.7-2.7.9-.1-.1-.1-.3-.2-.4.8-.1 1.6-.2 2.3-.6-.2-.2-.4-.4-.6-.7l.3-.2.7.7c.5-.3.9-.6 1.3-1.1h-1.7l-.1.1c-.4.3-1 .5-1.7.8l-.3-.3c.6-.2 1.2-.4 1.7-.7.4-.2.8-.6 1.2-1l.4.2zM241.7 405.3h-.4v-.3h-2.5v.4h-.4v-4.6h3.2v4.5zm-.3-3.3v-.9h-2.5v.9h2.5zm0 1.3v-.9h-2.5v.9h2.5zm0 1.3v-.9h-2.5v.9h2.5zM244.8 400.5l-.2.8h.7v3.8h-.3v-.3h-1v.4h-.4v-3.9h.7l.1-.9.4.1zm.2 2.3v-1.2h-1v1.2h1zm0 1.6v-1.3h-1v1.3h1zm1.8-3.9c-.1.3-.2.6-.2.9h1.7v1.7c0 1.1 0 1.7-.1 2 0 .2-.1.3-.2.3-.2.1-.4.1-.8.1 0-.1-.1-.3-.2-.4h.6c.1 0 .2-.1.2-.2 0-.2.1-.8.1-1.8v-1.4h-1.4v.1c-.1.4-.3.7-.5 1.1-.1-.1-.2-.2-.3-.2.2-.4.4-.8.5-1.2.1-.4.2-.7.3-1.1l.3.1zm.4 2.9-.3.3c-.2-.2-.4-.5-.7-.8l.2-.3c.4.3.6.6.8.8zM227.6 412c-.5-.6-1-1.3-1.7-1.9-.6.7-1.4 1.3-2.3 1.9-.1-.2-.2-.3-.3-.4.8-.4 1.5-.8 2-1.3.4-.4.9-1.1 1.5-2h-2.9v-.4h3.2l.3.3c-.4.6-.7 1.2-1 1.6.7.6 1.3 1.2 1.8 1.9l-.6.3zM232.1 411.8v-.4h-2.9v.4h-.4V408h3.8v3.8h-.5zm0-3.4h-2.9v2.6h2.9v-2.6zM233.9 410.3c-.1-.3-.3-.6-.6-1l.3-.2c.2.3.4.7.6 1l-.3.2zm2.5.2c-.3.5-.6.9-1 1.2-.3.3-.8.5-1.3.7-.1-.1-.1-.3-.2-.4.5-.1.9-.3 1.2-.6.3-.2.6-.6.9-1 .2-.3.4-.8.5-1.4l.4.1c-.1.6-.3 1-.5 1.4zm-1.4-.5c-.1-.3-.3-.7-.5-1l.3-.1c.2.4.4.7.5 1l-.3.1zM240.4 410.8c-.5.6-1.2 1-2.2 1.4 0-.1-.1-.3-.2-.4.8-.3 1.5-.6 2-1.2.5-.5.9-1.2 1.2-2.1h-3.6v-.5h3.8l.3.3c-.4 1.2-.8 2-1.3 2.5zm1.9-2.8c-.1.1-.2.2-.4.2s-.3-.1-.4-.2c-.1-.1-.2-.2-.2-.4s.1-.3.2-.4c.1-.1.2-.2.4-.2.1 0 .3.1.4.2.1.1.2.2.2.4 0 .1-.1.2-.2.4zm-.2-.6c-.1-.1-.1-.1-.2-.1-.2 0-.3.1-.3.3 0 .1 0 .2.1.2.1.1.1.1.2.1s.2 0 .2-.1c.1-.1.1-.1.1-.2s0-.2-.1-.2zM243.9 409.9c-.3-.2-.7-.4-1-.5l.2-.4c.4.1.8.3 1.1.5l-.3.4zm1.6 1c-.6.4-1.3.8-2.2 1.1l-.2-.5c1.6-.5 2.9-1.4 3.9-2.7l.3.3c-.6.9-1.2 1.4-1.8 1.8zm-1-2.4c-.4-.2-.7-.4-1-.6l.2-.4c.4.2.8.4 1.1.6l-.3.4zM250.4 410.8c-.6.4-1.3.9-2.2 1.3l-.3-.5c1.5-.5 2.9-1.5 4-2.9l.3.3c-.6.8-1.2 1.4-1.8 1.8zm-1.2-1.8c-.4-.4-.8-.7-1.2-1l.3-.4c.5.3.9.6 1.3.9l-.4.5zM255.7 410.8c-.6.6-1.3 1-2.2 1.3-.1-.1-.1-.3-.2-.4.8-.2 1.5-.6 2-1 .4-.4.8-1.1 1.2-1.9h-1.8c-.4.6-.8 1.2-1.3 1.6-.1-.1-.2-.2-.4-.3l1.1-1.1c.2-.3.5-.8.8-1.4l.5.2c-.1.2-.2.4-.4.7H256.9l.3.3c-.6.8-1 1.5-1.5 2z"/><path class="st7" d="M463.1 181.4h-21.4v1.8h-30.2v-1.4l-8.3-8.4v-30.6h59.9z"/><path class="st8" d="M233.9 365h31.6v10.2h-31.6zM121.9 205.8H143v6.4h-21.1zM299.3 75.2h15.1v8.1h-15.1z"/><path style="fill:#fffcdb" d="M249.7 126.8H296V78h-7.6V65.9h-38.7z"/><path style="fill:#feeab4" d="M195.7 41.2v41.2h40.2V41.2h-.9v.7h-1.9v-2.7h-34.9v2.7h-1.8v-.7z"/><path class="st8" d="M286.2 226h8.4v9h-8.4z"/><path class="st7" d="M254.6 213H282v24.6h-27.4zM297.9 224.6h56.9v10.2h-56.9zM250 185.8h32.1v23.9H250zM211.4 96.8H125v21.4h16.7v-3.5h69.7zM125 160.1h17.8V203H125zM296 86.6h17.8v55.8H296z"/><path class="st11" d="M205.9 214.9v-40.5h-50.3v-56.2h55.8v-3.5h-69.7v3.5H125v42h17.7V203h3.6v11.9zM354.8 224.6h-56.9v-1.8h-11.7v-35.4h32.3v.5h1.1v-1.3h.7v-.9h32.6v.9h.7v1.3h1.2z"/><path style="fill:#d2cce6" d="M306.5 33.6h-60.4v29h3.2v-.5h56.4v.5h.8z"/><path class="st7" d="M320.4 49.4h42.9v7h-42.9zM364.6 49.4h29.7v14.3h-29.7z"/><path transform="rotate(-90 292.045 205.094)" class="st7" d="M274.4 199.3h35.3v11.6h-35.3z"/><path class="st11" d="M395.2 90.1h.5V49.4h-75.3v28.3h-3.3v51.1h36.1v1.4h32.5v-1.4h1.2v.4h8.8v-1.5h-.5zM400.4 48.5l.1 41.6v37.6H461V48.5z"/><path style="fill:#feebbe" d="M138.7 236.2h82.4v84.5h-82.4z"/><path class="st2" d="M479 361.8v-336h-13.3v7.8H306.5v29.1h-.7v1.9h-16V66h-1.3v12h7.5v8.6h17.9v56.7h3.3V77.7h3.3V49.4h75.3v40.7h4.7V48.5H461v79.2h-65.3v1.5h-8.8v1.5h-1.2v-.5h-32.5v3.5h1.6v9.6h4.2v-.5h40.9v32.1l9.9 9.7h1.7v-3.3h-.4l-8-8v-30.6H463v38.6h-21.4v3.3h20.9v177.1h-13v8.4h.7v4h-.9v2.1h16.3v23.5h10.2v-23.5h41.9v-14.4H479zM314.4 83.3h-15.1v-8.1h15.1v8.1zM279.7 374.1v-4h.7v-8.4h-61.6v8.4h.7v4h-.9v2.1h2.8v11.6h56.7v-11.6h2.5v-2.1h-.9zm-14.2 1.1h-31.6V365h31.6v10.2z"/><path class="st2" d="M371.3 374.1v-4h.7v-8.4h-13V184.2h-4.2v50.7h-56.9v-12.1h-11.6v-35.3h32.2v-3.3H282v25.5h-32.2v-22.2h5.2v-3.3h-5.2v-.9h-3.3v29.2h4.8v36.1h3.3V239h.4v-3.3h-.4V213H282v26h72.8v122.7h-10.7v8.4h.7v4h-.9v2.1h28.4v-2.1h-1zm-76.7-139.2h-8.4V226h8.4v8.9zM249.3 65.9v-3.3h-3.2v-29H235v7.7h.9v41.1h-40.2V41.2h.7v-3.5h-.7V28h-10.3v54.4H109v279.4h-6.8v14.4h9.9v23.5h10.2v-23.5h19.1v-2.1h-.9v-4h.7v-8.4h-15.8V215.3h20.8V203H125V96.8h121.6v45.6h3.2V65.9h-.5zM143 205.8v6.2h-21.1v-6.2H143z"/><path class="st14" d="M359.2 217.6h103.4M359.2 222.3h103.4M359.2 226.9h103.4M359.2 231.6h103.4M359.2 236.2h103.4M359.2 240.9h103.4M359.2 245.5h103.4M359.2 250.2h103.4M359.2 254.8h103.4M359.2 259.5h103.4M359.2 264.1h103.4M359.2 268.8h103.4M359.2 273.4h103.4M359.2 278.1h103.4M359.2 282.7h103.4M359.2 287.4h103.4M359.2 292h103.4M359.2 296.7h103.4M359.2 301.3h103.4M359.2 306h103.4M359.2 310.6h103.4M359.2 315.3h103.4M359.2 319.9h103.4M359.2 324.6h103.4M359.2 329.2h103.4M359.2 333.9h103.4M359.2 338.5h103.4M359.2 343.2h103.4M359.2 347.8h103.4M359.2 352.5h103.4M359.2 357.1h103.4M359.2 213h103.4M359.2 208.3h103.4M359.2 203.7h103.4M359.2 199h103.4M359.2 194.4h103.4M359.2 189.7h103.4M359.2 185.1h103.4M410.2 180.5h52.4M405.5 175.8h57.1M403.2 171.2h59.4M403.2 166.5h59.4M403.2 161.9h59.4M403.2 157.2h59.4M403.2 152.6h59.4M403.2 147.9h59.4M403.2 143.3h59.4M359.5 180.5h46M359.5 175.8h41.3M359.5 171.2h40.4M359.5 166.5h40.4M359.5 161.9h40.4M359.5 157.2h40.4M359.5 152.6h40.4M359.5 147.9h40.4M359.5 143.3h40.4M254.6 240.9h100.2M254.6 245.5h100.2M255.1 236.2H282M254.6 231.6H282M254.6 226.9H282M254.6 222.3H282M254.6 217.6H282M249.8 208.3H282M249.8 203.7H282M249.8 199H282M249.8 194.4H282M249.8 189.7H282M251.2 250.2h103.6M251.2 254.8h103.6M251.2 259.5h103.6M251.2 264.1h103.6M251.2 268.8h103.6M251.2 273.4h103.6M251.2 278.1h103.6M251.2 282.7h103.6M249.6 287.4h105.2M249.6 292h105.2M249.6 296.7h105.2M249.6 301.3h105.2M249.6 306h105.2M249.6 310.6h105.2M249.6 315.3h105.2M249.6 319.9h105.2M248.1 324.6h106.7M248.1 329.2h106.7M248.1 333.9h106.7M248.1 338.5h106.7M248.1 343.2h106.7M248.1 347.8h106.7M248.1 352.5h106.7M248.1 357.1h106.7M125.2 240.9h126.2M125.2 245.5h126.2M125.2 236.2h126.2M125.2 231.6h126.2M125.2 226.9h126.2M125.2 222.3h126.2M125.2 217.6h126.2M205.9 213h40.3M205.9 208.3h40.7M205.9 203.7h40.7M205.9 199h40.7M205.9 194.4h40.7M205.9 189.7h40.7M205.9 185.1h40.7M204.6 180.5H249M204.6 175.8H249M155.6 171.2H249M155.6 166.5H249M155.6 161.9H249M155.6 157.2H249M155.6 152.6H249M155.6 147.9H249M155.6 143.3h90.5M155.6 138.6h91M155.6 134h91M155.6 129.3h91M155.6 124.7h90.2M155.6 120h90.2M211.4 115.2h34.4M211.4 110.4h34.4M211.4 105.5h34.4M211.4 100.7h34.4M125.2 250.2h124.5M125.2 254.8h124.5M125.2 259.5h124.5M125.2 264.1h124.5M125.2 268.8h124.5M125.2 273.4h124.5M125.2 278.1h124.5M125.2 282.7h124.5M125.2 287.4h122.9M125.2 292h122.9M125.2 296.7h122.9M125.2 301.3h122.9M125.2 306h122.9M125.2 310.6h122.9M125.2 315.3h122.9M125.2 319.9h122.9M125.2 324.6h121.4M125.2 329.2h121.4M125.2 333.9h121.4M125.2 338.5h121.4M125.2 343.2h121.4M125.2 347.8h121.4M125.2 352.5h121.4M125.2 357.1h121.4M250.3 180.5h107.8M250.3 175.8h107.8M250.3 171.2h107.8M250.3 166.5h107.8M250.3 161.9h107.8M250.3 157.2h107.8M250.3 152.6h107.8M250.3 147.9h107.8M250.3 143.3h107.8M249.8 138.6H296M249.8 134H296M249.8 129.4H296M317.1 138.6h37.7M318.3 134H352"/><path class="st15" d="M260.2 121.7V65.9M278.8 121.7V65.9M249.8 84.5H296M249.8 103.1H296"/><path style="fill:none;stroke:#aaabab;stroke-width:.4;stroke-linecap:round;stroke-linejoin:round;stroke-miterlimit:10;stroke-dasharray:4.5,2.5" d="M254.5 77.3h36.8v50.2h-36.8z"/><path style="fill:none;stroke:#aaabab;stroke-width:.4008;stroke-linecap:round;stroke-linejoin:round;stroke-miterlimit:10;stroke-dasharray:4.5089,2.5049" d="M246.2 213.6v148.2"/><path style="fill:none;stroke:#aaabab;stroke-width:.3485;stroke-linecap:round;stroke-linejoin:round;stroke-miterlimit:10;stroke-dasharray:3.921,2.1783" d="M255.1 249.7v112.1"/><path class="st19" d="M133.8 356.9h91.8M133.8 359.3h91.8M277.9 356.9h73.3M277.9 359.3h73.3M363.7 356.9h87.8M363.7 359.3h87.8"/><path class="st4" d="M226.9 361.8v-7.5h-94.4v7.1M352.2 361.8v-7.5h-75.3v7.1"/><path class="st20" d="M403.2 154.9h59.9M403.2 156.3h59.9M451 156.2v25.2M449.6 156.2v25.2M249.8 196.2H282M249.8 197.6H282M254.6 225.1H282M254.6 226.5H282"/><path class="st21" d="m463.1 142.8-59.9 20.9h59.9l-20.9 17.7v-17.6M249.8 191.2H282l-32.2 18.5M254.6 231.6H282L254.6 213M364.6 63.6h29.7l-29.7-14.2M297.9 222.8v-35.4l-11.7 35.4M125 160.1h17.7v43M211.4 114.8h-69.7v3.4H125M125.3 203.1l17.4-43M211.4 97.2l-86.4 21"/><path class="st5" d="M296 86.6v55.8h17.9"/><path class="st21" d="M235.9 61.3h-40.2l40.2 21.1"/><path class="st5" d="M249.8 121.7H296M249.8 126.8H296"/><path class="st4" d="M364.6 49.7h29.8v29.8h-29.8zM213.2 97.2h32.5v32.5h-32.5zM320.4 56.3h43"/><path class="st5" d="M451.8 127.7c-.1-2.9 2.1-8.9 9.1-9.1M454.3 120.6h-6V92.7H461M454.3 92.7v28.7M455.4 92.7v27.6M460.1 92.7v25.9M408.1 66.9l.6-8.1s.7-3.3 4.2-3.5 8.5-.9 8.5-.9 1 .1 2.6-.6l1.8-.7s1-.3 2.2-.3h5.6s1.2-.1 2.5.4 2.4 1.1 3.7 1.2c1.3.1 9.2 1 9.2 1s3.1.5 3.8 3.5l.6 6-.6 8.1s-.3 2.7-3.7 3.4l-8.8.5s-1.1 0-2.2.4-2.4 1-4 1H428s-.9.1-1.9-.3c-1-.3-1.9-.6-1.9-.6s-1.3-.4-2.4-.4c-1.1 0-8.2-.4-8.2-.4s-3.7 0-4.5-3.5l-1-6.2z"/><path class="st5" d="m416.7 51.9 1.9.1s-3.9-.2-6.6 1.4c-.1.1-4 1.9-4.3 5"/><path class="st5" d="M433.5 52c2.4.2 3.2.7 4 1 .8.3 2.5.6 2.5.6l8.9 1c4 .7 4.6 4.3 4.6 4.3l.6 7.1-.8 7.7c-1 3.7-4.8 3.7-4.8 3.7l-8.1.3c-1.7 0-2.9.7-2.9.7l-1.3.6c-1.3.6-2.9.6-2.9.6h-5.1c-1.5 0-2.9-.6-2.9-.6s-1.3-.6-2.1-1c-.8-.3-2.2-.4-2.2-.4l-9-.4c-3.8-.7-4.1-3.6-4.1-3.6l-.8-7.5.7-7.8s1.1-3.6 5.1-3.8l8.5-.9s1.3-.1 2.2-.4c.9-.3 2.6-1.2 4.4-1.2h5.5z"/><path class="st5" d="M453.6 58.9c-.3-1.1-.4-3.1-3.5-5.1-3.1-2-5.6-1.7-5.6-1.7M433.6 79.6h9.8s4 0 6.8-1.5 2.5-2.5 3.2-4.4M427.7 79.6h-10.9c-.3-.1-1.5 0-4.3-1 0 0-3.9-1.3-4.6-4.9"/><path class="st5" d="M445.2 50.9s13.9 1.6 13.9 15.9c0 13.7-13.4 15.7-13.4 15.7h-29.3s-14.1-2.1-14.1-15.7c0-14 14-15.8 14-15.8"/><path class="st5" d="m443.6 48.4-.1.4s-.9 1.9-.9 2v1.1h2s.2 0 .2-.1l1-1.8.6-1.5M415.2 48.4l.8 2 .8 1.3s.1.1.2.1h2v-1l-.2-.4-.9-2M442.8 50.4h-24.1M442.5 51.8h-23.6M460.9 84h-60.4"/><circle class="st5" cx="430.7" cy="75.5" r="1.6"/><path class="st5" d="M320.4 77.3h7.6s7 .7 14.4.7 14.4-.7 14.4-.7h6.5V49.4M356.9 56.3h6.4M328.1 56.4h-7.7"/><path class="st5" d="m356.9 55.7-4.3 1.6c-1.1.4-1.2 2-1.2 2-.2 2 0 3.9.3 6.4.2 2.5 1.2 4.4 3.3 6.3s1.9 4.6 1.9 4.6V52.4c0-.8-.8-.9-.8-.9l-1-.1s-5.3-.6-12.6-.6-13.6.7-13.6.7c-.8.1-.8.9-.8.9v24.2s-.3-2.7 1.9-4.6c2.2-2 3.2-4 3.5-7.7s.1-5.5.1-5.5-.2-1.2-1.2-1.6-4.3-1.5-4.3-1.5"/><path class="st5" d="M328.1 55.3s8.2.8 14.4.8c6.2 0 14.4-.8 14.4-.8"/><circle class="st5" cx="342.5" cy="61" r="1.2"/><path class="st5" d="M322 61.1h.9v7.4h-.9zM320.4 64.2h1.6v1.1h-1.6zM325.9 208.3c0-9-13.5-9.1-13.5-9.1s-6.4-.2-9-.2c-2.6 0-2.2 1.5-2.2 1.5s-.2 5.2-.2 7.7.2 8 .2 8-.3 1.5 2.2 1.5c2.6 0 9-.2 9-.2s13.5-.2 13.5-9.1M290.2 215.5c0 2.2 1.7 1.9 1.7 1.9h5.8c2.2 0 2.3-1.9 2.3-1.9s.5-1.9.5-7.6c0-5.7-.5-7-.5-7s-.1-1.9-2.3-1.9h-5.8s-1.7-.2-1.7 1.9v14.6zM301.3 216.6h-1.7M301.2 200.4h-1M308.7 198.9v18.5"/><path class="st5" d="m304.9 198.8-.3 2.7h1.8v12.8h-1.8l.4 3.1M317.1 187.4v4c0 .3.3.6.7.7h.2c.3 0 .6-.3.7-.7v-4M292.1 187.4v3.2H317"/><path class="st5" d="M317.9 192.1h-26.5s-.8 0-.8-.9v-3.7M297.9 224.6h56.9M336 234h14.4c.1 0 .2-.1.2-.2v-6.5c0-.1-.1-.2-.2-.2H336c-.1 0-.2.1-.2.2v6.5c0 .1.1.2.2.2z"/><path class="st5" d="M346 227c.1 0 .2.1.2.2v6.5c0 .1-.1.2-.2.2"/><circle class="st5" cx="340.9" cy="231.7" r="1"/><path class="st5" d="M351.1 234.7h-15.8c-.1 0-.2-.1-.2-.2v-7.9c0-.1.1-.2.2-.2h15.8c.1 0 .2.1.2.2v7.9c0 .1-.1.2-.2.2zM353 224.8h.9v7.4h-.9zM353.9 227.9h.9v1.1h-.9zM131.5 125.1c-.6 0-1 .5-1 1V152c0 .6.5 1 1 1h21.3c.6 0 1-.5 1-1v-25.9c0-.6-.5-1-1-1h-21.3z"/><path class="st5" d="M134 126.3h18.2v25.6H134zM185.9 189.7c0 2-1.6 3.7-3.7 3.7-2 0-3.7-1.6-3.7-3.7s1.6-3.7 3.7-3.7c2 0 3.7 1.7 3.7 3.7z"/><path class="st5" d="M146.3 214.9h59.6v-40.5h-50.3v-56.2h55.8V96.8"/><path class="st5" d="M163.5 199.6c0 1.3 1 2.3 2.3 2.3h32.6c1.3 0 2.3-1 2.3-2.3V180c0-1.3-1-2.3-2.3-2.3h-32.6c-1.3 0-2.3 1-2.3 2.3v19.6z"/><circle class="st5" cx="146" cy="132.4" r="4.6"/><circle class="st5" cx="146" cy="145.7" r="4.6"/><circle class="st5" cx="137.9" cy="139.1" r="3.3"/><path class="st5" d="M133.8 142c-.6-.8-.9-1.8-.9-2.9 0-1.1.3-2.1.9-2.9v-9.8h-2.3V152h2.3v-10zM183.9 178.4c2.8 0 9.9 0 11.5.2s4.5 1.8 4.5 4.9c0 3.1.2 9.8-.1 10.6-.3.8-1 3.8-5.3 3.8s-3.6-.1-3.6-.1-2 .6-3.2 1.4c-1.2.8-2.7 1.8-5.5 1.8h-.2c-2.8 0-4.3-1-5.5-1.8-1.2-.8-3.2-1.4-3.2-1.4s.7.1-3.6.1-5-3-5.3-3.8c-.3-.8-.1-7.4-.1-10.6 0-3.1 2.9-4.7 4.5-4.9s8.7-.2 11.5-.2h3.6z"/><path class="st3" d="M126.1 160.1h-.7v-.7"/><path class="st22" d="M125.4 158.1"/><path class="st23" d="M125.4 158.1v-39.2"/><path class="st3" d="M125.4 118.9v-.7h.7"/><path class="st24" d="M127.4 118.2"/><path class="st25" d="M127.4 118.2h25.7"/><path class="st3" d="M153.1 118.2h.7v.7"/><path class="st22" d="M153.8 120.2"/><path class="st23" d="M153.8 120.2v39.2"/><path class="st3" d="M153.8 159.4v.7h-.7"/><path class="st24" d="M151.9 160.1"/><path class="st25" d="M151.9 160.1h-25.8"/><path class="st26" d="M385.7 129.4h-32.5M247.3 213.6v108.7"/><path class="st3" d="M248.9 285.5v-.7"/><path style="fill:none;stroke:#000;stroke-width:.4;stroke-dasharray:1.284,1.284" d="M248.9 283.6v-68.7"/><path class="st3" d="M248.9 214.2v-.6"/><path class="st26" d="M250.4 248.5v-34.9"/><path class="st3" d="M359.5 143.3h-5.2v1.1h3.1v.7h.7v-.7h1.4zM359.5 184.2h-5.2V183h3.1v-.7h.7v.7h1.4z"/><path transform="rotate(-180 358.789 163.725)" class="st3" d="M358.1 144.4h1.3V183h-1.3z"/><path transform="rotate(-180 378.745 145.13)" class="st3" d="M359.5 144.4h38.6v1.4h-38.6z"/><path class="st3" d="M359.5 183c21.3 0 38.6-17.3 38.6-38.6M250.3 183.2h-4.2v-1.1h2.2v-.7h.7v.7h1.3zM250.3 142.3h-4.2v1.2h2.2v.7h.7v-.7h1.3z"/><path transform="rotate(-180 249.634 162.795)" class="st3" d="M249 143.5h1.3v38.6H249z"/><path transform="rotate(-180 269.591 181.39)" class="st3" d="M250.3 180.7h38.6v1.4h-38.6z"/><path class="st3" d="M250.3 143.5c21.3 0 38.6 17.3 38.6 38.6M246.2 212.4h5.2v1.1h-5.2zM251.2 248.5h3.9v1.2h-3.9zM246.1 360.6h9v1.1h-9z"/><path class="st3" d="M246.6 322.3h1.5v38.4h-1.5zM248.1 285.5h1.5v38.4h-1.5zM249.6 248.5h1.5v38.4h-1.5zM448.8 374.1h1.5v-4h-.7v-8.8h-.8zM372.8 374.1h-1.5v-4h.7v-8.8h.8zM449.4 374.1v2.8h-77.2v-2.8M410.8 359.6v7.1M372.8 361.3h76"/><path transform="rotate(-180 429.066 363.354)" class="st3" d="M409.4 362.8h39.4v1.2h-39.4z"/><path transform="rotate(-180 392.503 364.516)" class="st3" d="M372.8 363.9h39.3v1.2h-39.3z"/><path class="st3" d="M409.3 367.9h2.9v2.6h-2.9z"/><path transform="rotate(-180 429.066 371.062)" class="st3" d="M409.4 370.5h39.4v1.2h-39.4z"/><path transform="rotate(-180 392.503 372.225)" class="st3" d="M372.8 371.6h39.3v1.2h-39.3z"/><path class="st3" d="M410.8 375.9v-5.5M343.2 374.1h1.6v-4h-.7v-8.8h-.9zM281.3 374.1h-1.6v-4h.7v-8.8h.9zM343.9 374.1v2.8h-63.3v-2.8M312.2 359.6v7.1M281.3 361.3h61.9"/><path transform="rotate(-180 327.03 363.354)" class="st3" d="M310.8 362.8h32.4v1.2h-32.4z"/><path transform="rotate(-180 297.442 364.516)" class="st3" d="M281.3 363.9h32.4v1.2h-32.4z"/><path class="st3" d="M310.8 367.9h2.9v2.6h-2.9z"/><path transform="rotate(-180 327.03 371.062)" class="st3" d="M310.8 370.5h32.4v1.2h-32.4z"/><path transform="rotate(-180 297.442 372.225)" class="st3" d="M281.3 371.6h32.4v1.2h-32.4z"/><path class="st3" d="M312.2 375.9v-5.5M218 374.1h1.5v-4h-.7v-8.8h-.8zM142.1 374.1h-1.6v-4h.7v-8.8h.9zM141.4 374.1v2.8h77.2v-2.8M180 359.6v7.1M142.1 361.3H218"/><path transform="rotate(-180 198.298 363.354)" class="st3" d="M178.6 362.8H218v1.2h-39.4z"/><path transform="rotate(-180 161.74 364.516)" class="st3" d="M142.1 363.9h39.3v1.2h-39.3z"/><path class="st3" d="M178.6 367.9h2.9v2.6h-2.9z"/><path transform="rotate(-180 198.298 371.062)" class="st3" d="M178.6 370.5H218v1.2h-39.4z"/><path transform="rotate(-180 161.74 372.225)" class="st3" d="M142.1 371.6h39.3v1.2h-39.3z"/><path class="st3" d="M180 375.9v-5.5M250.9 65.9V64h-.7v-1.9h-.9v3.8zM288.1 65.9V64h.7v-1.9h.9v3.8zM288.1 65.9h-37.2M288.1 64h-37.2M288.8 62.1h-38.6"/><path class="st3" d="M288.8 64c0-21.3-15.6-40-38.6-40v38.1"/><path transform="rotate(-90 297.74 63.31)" class="st3" d="M296.6 55.3h2.3v16h-2.3z"/><path class="st3" d="M196.4 37.2h1.1v2h.7v2.7h-1.8zM233.1 39.2h.7v-2h1.2v4.7h-1.9z"/><path class="st3" d="M197.5 37.3h36.3v1.9h-36.3zM233.8 37.3c-.6-20-16.2-35.7-36.3-35.7v35.7M255 184.2h27v1.4h-27zM255 184.2l2.4-13.8 2.3 13.8M255 237.6h27v1.4h-27zM255 239l2.4 13.8 2.3-13.8"/><path transform="rotate(-180 426.582 183.947)" class="st3" d="M411.5 183.2h30.2v1.4h-30.2z"/><path class="st3" d="m441.7 184.6-2.5 14.9-2.6-14.9M354.8 183.7v4.2h-1.2v-1.3h-.7v-.9h.7v-2zM318.5 183.7v4.2h1.1v-1.3h.7v-.9h-.7v-2z"/><path transform="rotate(90 352.944 167.072)" class="st3" d="M336.3 166.4h33.3v1.4h-33.3z"/><path transform="rotate(-90 336.633 184.715)" class="st3" d="M335.6 167.7h2v34h-2z"/><path class="st3" d="M319.6 183.7c0-18.8 15.2-33.3 34-33.3"/><path transform="rotate(-90 397.84 127.25)" class="st3" d="M397.3 124.7h1v5.2h-1z"/><path transform="rotate(-90 397.84 90.58)" class="st3" d="M397.3 88h1v5.2h-1z"/><path class="st3" d="M395.2 126.8V91.1M397.4 126.7V91.1M398.8 126.8V91.1M400.4 126.8V91.1M398.8 91.1c18 0 32.8 14.1 34.4 31.7l-34.4 3.9"/><path transform="rotate(-90 352.596 132.143)" class="st3" d="M350.6 131.6h4.1v1.2h-4.1z"/><path transform="rotate(-90 317.73 131.478)" class="st3" d="M315 130.9h5.4v1.2H315z"/><path transform="rotate(-90 335.744 129.442)" class="st3" d="M335.1 112h1.3v34.9h-1.3z"/><path class="st3" d="M385.7 128.8h1.2v2h-1.2zM244.7 323.1h7.7M246.3 286.2h7.9M335.2 127v5.8"/><path class="st6" d="M235 41.2h.9v41.2h-40.2V41.2h.7M249.3 62.6h-3.2v-29H235v3.6M249.8 142.3V65.9M141.2 361.8h-15.8V215.3h20.9v-12.2H125V96.8h121.6v45.5M280.6 376.2h-2.5v11.6h-56.7v-11.6h-2.8M218.8 361.8h61.6M372 361.8h-13V184.2M343.9 376.2h28.3M282 239h72.8v122.8h-10.7M255 237.6v-1.8h-.4V213H282v24.6M254.6 248.5V239h.4M251.4 213.6v34.9M246.6 183.2v29.2M255 184.2h-5.2v-1M282 185.6v24h-32.2v-22.2h5.2v-1.8M318.5 184.2H282M354.8 187.9v47h-56.9v-12.1h-11.7v-35.4h32.3M449.4 376.2h16.3v23.5h10.2v-23.5h41.9v-14.4H479v-336h-13.3v7.8H306.5v29h-.8"/><path class="st6" d="M441.7 184.6h20.9v177.2h-13M411.5 183.2v-1.8h-.4l-7.9-8v-30.6h59.9v38.6h-21.4v1.8"/><path class="st6" d="M359 143.3v-.5h40.9v32.1l9.9 9.7h1.7M353.2 133.7h1.6v9.6M385.7 130.3h-32.5M395.7 127.7v1.5h-8.8M400.4 90.1V48.5H461v79.2h-60.5M317.1 128.7v-51h3.3V49.4h75.3v40.7M288.5 65.9V78h7.5v8.6h17.9v56.7h3.2v-9.1"/><path class="st6" d="M299.3 75.2h15.1v8.1h-15.1zM233.9 365h31.6v10.2h-31.6zM121.9 205.8H143v6.2h-21.1zM286.2 226h8.4v8.8h-8.4z"/><path class="st6" d="M196.4 37.7h-.7V28h-10.3v54.4h-76.3v279.4h-6.9v14.4h9.9v23.5h10.3v-23.5h19"/><path d="M267.5 88.5v1.7h4.5v.8h-4.8l-1.7 3.1c.5.4 1 .7 1.5 1.1l2.2-3 .8.5-3.8 4.8c1.2-.1 2.6-.2 4-.4-.4-.5-.8-.9-1.2-1.4l.7-.5c1.1 1.2 1.9 2.2 2.4 2.9l-.7.5-.6-.9c-3.2.4-6 .7-8.2.8l-.2-.8c.9 0 1.8-.1 2.8-.1l1.3-1.7c-1-.9-2.2-1.7-3.6-2.5l.4-.7c.6.3 1.1.6 1.6 1l1.3-2.7h-4v-.8h4.5v-1.7h.8zM278.1 88.9v3.5h-3.2v6.4h-.8v-9.9h4zm-.9 1.4v-.7h-2.4v.7h2.4zm0 1.3v-.7h-2.4v.7h2.4zm6-2.7v8.9c0 .4-.1.6-.3.7-.2.1-.7.2-1.4.2 0-.3-.1-.6-.3-.9h1c.1 0 .2-.1.2-.2v-5.2h-2.7l.7.3-.7 1.1h1.6v.6h-2.6v.9h3v.7h-2.6c.2.4.4.7.7.9.3.3.7.6 1.4.8-.2.1-.4.3-.5.6-.6-.3-1.1-.7-1.5-1-.3-.3-.5-.6-.7-1.1-.1.2-.2.5-.3.7-.4.6-1.2 1.1-2.2 1.5-.1-.3-.3-.5-.6-.7 1-.3 1.7-.7 2.1-1.3.1-.1.2-.3.3-.5h-2.3v-.7h2.4v-.9h-2.1v-.6h1.3c-.2-.3-.4-.6-.7-.9l.5-.4c.3.3.7.7.9 1l-.4.3h1.4l.7-1.4h-.4v-3.5h4.1zm-.8.7H280v.7h2.4v-.7zm0 1.3H280v.7h2.4v-.7zM329.1 98.9v-.7h5.5l.4-4.2h-4.8v-.7h5.5l-.4 5h2.3v.7h-8.5zM338.6 96.4v-.7h7.6v.7h-7.6zM351.6 95.5c-.1 1.5-.4 2.5-.8 3.1-.4.6-1.2 1.2-2.5 1.8-.1-.2-.3-.5-.5-.7 1.2-.4 1.9-.9 2.3-1.4.4-.5.6-1.4.7-2.7h-4v-.7h8.4v.7h-3.6zm-3.3-2.2v-.7h5.6v.7h-5.6zM360.2 96.2v4.3h-.6v-3.8c-.8.7-1.8 1.3-2.9 1.8-.1-.2-.2-.4-.4-.6.9-.4 1.8-.9 2.8-1.7.9-.7 1.7-1.4 2.3-2.3l.6.5c-.6.7-1.3 1.3-1.8 1.8zM363.7 97.2v-4.6h.7v4.6h-.7zm4.9-2.7c0 1.2-.1 2.1-.3 2.7-.2.7-.5 1.3-1 1.8s-1.3.8-2.4 1.2c-.1-.3-.2-.5-.4-.7 1.4-.4 2.3-.9 2.8-1.6.4-.6.6-1.7.6-3.3v-2.5h.7v2.4zM374.8 95.5c-.1 1.5-.4 2.5-.8 3.1-.4.6-1.2 1.2-2.5 1.8-.1-.2-.3-.5-.5-.7 1.2-.4 1.9-.9 2.3-1.4.4-.5.6-1.4.7-2.7h-4v-.7h8.4v.7h-3.6zm-3.3-2.2v-.7h5.6v.7h-5.6zM383.3 96.2v4.3h-.6v-3.8c-.8.7-1.8 1.3-2.9 1.8-.1-.2-.2-.4-.4-.6.9-.4 1.8-.9 2.8-1.7.9-.7 1.7-1.4 2.3-2.3l.6.5c-.6.7-1.2 1.3-1.8 1.8zM305.1 90.3v1.2h3.2v.5h-3.4l-1.2 2.2c.4.3.7.5 1 .8l1.6-2.1.6.3-2.7 3.4c.9-.1 1.8-.1 2.9-.3-.3-.3-.6-.7-.9-1l.5-.4c.8.8 1.3 1.5 1.7 2.1l-.5.4c-.1-.2-.3-.4-.5-.6-2.3.3-4.3.5-5.9.5l-.1-.6c.6 0 1.3 0 2-.1l.9-1.2c-.7-.6-1.6-1.2-2.6-1.8l.3-.5c.4.2.8.5 1.2.7l.9-1.9h-2.9v-.5h3.2v-1.2h.7zM304.4 98.7v2.5h-2.3v4.5h-.6v-7h2.9zm-.6 1v-.5h-1.7v.5h1.7zm0 1v-.5h-1.7v.5h1.7zm4.3-2v6.3c0 .3-.1.5-.2.5-.2.1-.5.1-1 .2 0-.2-.1-.4-.2-.6h.7c.1 0 .1 0 .1-.2v-3.7h-1.9l.5.2-.5.8h1.1v.4h-1.8v.7h2.1v.5h-1.8c.2.3.3.5.5.6.2.2.5.4 1 .6-.1.1-.3.2-.4.5-.4-.2-.8-.5-1-.7-.2-.2-.4-.5-.5-.8-.1.2-.2.3-.2.5-.3.4-.8.8-1.5 1.1-.1-.2-.2-.4-.4-.5.7-.2 1.2-.5 1.5-.9.1-.1.1-.2.2-.3h-1.6v-.5h1.7v-.7H303v-.4h.9c-.1-.2-.3-.4-.5-.6l.4-.3.7.7-.3.2h1l.5-1h-.3v-2.5h2.7zm-.6.5h-1.7v.5h1.7v-.5zm0 1h-1.7v.5h1.7v-.5zM302.2 107.7v3.7c.3-.1.7-.2 1.1-.4v-4.3h.5v7.2h-.5v-2.4c-.7.3-1.4.5-2.1.8l-.1-.6c.2 0 .4-.1.6-.2v-3.9h.5zm6.1-.1c-.4 1.6-.9 2.8-1.4 3.6-.1.2-.2.3-.3.5.5.6 1.1 1.2 1.9 1.7-.2.1-.3.2-.4.4-.8-.5-1.4-1.1-1.9-1.7-.5.6-1.2 1.2-1.9 1.8-.1-.2-.2-.4-.4-.5.8-.5 1.4-1.1 2-1.8-.1-.1-.2-.3-.2-.4-.4-.9-.7-2.1-.7-3.4h-.7v-.5h3.6l.4.3zm-2 3.5c0-.1.1-.1.1-.2.5-.9.9-1.9 1.2-3.2h-2.1c0 1.4.3 2.5.8 3.4zM302.9 115.1l-.8 1.6c.2.1.3.3.5.4l.8-1.4.5.3-1.5 2.5c.3 0 .7-.1 1-.1-.1-.1-.1-.3-.2-.5l.5-.2c.2.4.4.8.5 1.3l-.5.2c0-.1-.1-.3-.1-.4-.2 0-.5.1-.7.1v3.3h-.5V119c-.5.1-.9.1-1.3.1l-.1-.5h.8l.5-1c-.4-.4-.8-.7-1.3-1l.3-.5c.1.1.2.1.4.2l.7-1.6.5.4zm-.9 4.7c0 .6-.2 1.3-.4 1.9l-.5-.1c.2-.5.3-1.2.4-1.9l.5.1zm2.1 1.3c-.1 0-.3 0-.5.1-.2-.4-.2-.9-.3-1.5l.5-.1c0 .6.1 1.1.3 1.5zm1.8-4.6v-1.6h.5v1.6h1.7v5c0 .3-.1.5-.2.5-.1.1-.4.1-.8.2 0-.2-.1-.4-.2-.6h.6c.1 0 .1 0 .1-.2V117h-1.2c0 .4 0 .8-.1 1 .4.6.8 1.1 1.2 1.7l-.5.4c-.2-.4-.5-.9-.9-1.4-.2.6-.4 1.1-.8 1.7-.1-.1-.3-.3-.5-.4v2.1h-.5v-5.7h1.6zm-.2 2.1c.1-.3.2-.8.2-1.5h-1v3c.4-.5.6-1 .8-1.5zM308.1 126.6c-.5-.6-1-1-1.5-1.2-.6-.3-1.2-.5-1.8-.5-.7 0-1.3.2-1.8.5s-.9.6-1.5 1.2l-.4-.4c.6-.6 1.1-1 1.6-1.3.6-.4 1.3-.5 2.1-.5s1.5.2 2.1.5c.5.3 1 .7 1.6 1.3l-.4.4zM305.1 128.7v4.6h-.6v-4.6h-2v-.5h4.6v.5h-2zM306.9 136.8c-.6.4-1.3.5-2.1.5s-1.5-.2-2.1-.5c-.5-.3-1-.7-1.6-1.3l.4-.4c.5.6 1 1 1.5 1.2.6.3 1.2.5 1.8.5.7 0 1.3-.2 1.8-.5.4-.2.9-.6 1.5-1.2l.4.4c-.5.6-1.1 1.1-1.6 1.3zM130.4 209.1c-.3.2-.6.3-1 .3h-1.3v2h-.5v-4.6h1.6c.5 0 .9.1 1.2.3.4.2.5.6.5 1 0 .5-.2.8-.5 1zm-1.1-1.8h-1.2v1.7h1.2c.7 0 1.1-.3 1.1-.8-.1-.6-.4-.9-1.1-.9zM136.9 211.2c-.3.2-.7.3-1.1.3-.5 0-.8-.1-1.2-.3-.3-.2-.5-.6-.6-1h.6c.1.3.2.6.4.7.2.1.4.2.8.2.3 0 .5-.1.7-.2.2-.2.4-.4.4-.6 0-.3-.4-.6-1.1-.9-1-.4-1.5-.9-1.5-1.4 0-.4.2-.7.5-.9.3-.2.6-.3 1-.3.7 0 1.2.4 1.5 1.2h-.6c-.2-.5-.5-.7-.9-.7-.3 0-.5.1-.6.2-.2.1-.3.3-.3.6 0 .2.2.5.7.7.4.2.8.5 1.3.7.5.3.7.6.7 1-.2.2-.3.5-.7.7zM289.6 230.5c-.3.2-.6.3-1 .3h-1.3v2h-.5v-4.6h1.6c.5 0 .9.1 1.2.3.4.2.5.6.5 1s-.2.8-.5 1zm-1.1-1.8h-1.2v1.7h1.2c.7 0 1.1-.3 1.1-.8-.1-.6-.4-.9-1.1-.9zM293.6 232.6c-.3.2-.7.3-1.1.3-.5 0-.8-.1-1.2-.3-.3-.2-.5-.6-.6-1h.6c.1.3.2.6.4.7.2.1.4.2.8.2.3 0 .5-.1.7-.2.2-.2.4-.4.4-.6 0-.3-.4-.6-1.1-.9-1-.4-1.5-.9-1.5-1.4 0-.4.2-.7.5-.9.3-.2.6-.3 1-.3.7 0 1.2.4 1.5 1.2h-.6c-.2-.5-.5-.7-.9-.7-.3 0-.5.1-.6.2-.2.1-.3.3-.3.6 0 .2.2.5.7.7.4.2.8.5 1.3.7.5.3.7.6.7 1-.1.1-.3.5-.7.7zM305.6 79.4c-.3.2-.6.3-1 .3h-1.3v2h-.5v-4.6h1.6c.5 0 .9.1 1.2.3.4.2.5.6.5 1s-.2.7-.5 1zm-1.1-1.9h-1.2v1.7h1.2c.7 0 1.1-.3 1.1-.8-.1-.6-.4-.9-1.1-.9zM310.4 81.5c-.3.2-.7.3-1.1.3-.5 0-.8-.1-1.2-.3-.3-.2-.5-.6-.6-1h.6c.1.3.2.6.4.7.2.1.4.2.8.2.3 0 .5-.1.7-.2.2-.2.4-.4.4-.6 0-.3-.4-.6-1.1-.9-1-.4-1.5-.9-1.5-1.4 0-.4.2-.7.5-.9.3-.2.6-.3 1-.3.7 0 1.2.4 1.5 1.2h-.6c-.2-.5-.5-.7-.9-.7-.3 0-.5.1-.6.2-.2.1-.3.3-.3.6 0 .2.2.5.7.7.4.2.8.5 1.3.7.5.3.7.6.7 1-.2.1-.3.5-.7.7zM247.7 370.3c-.3.2-.6.3-1 .3h-1.3v2h-.5V368h1.6c.5 0 .9.1 1.2.3.4.2.5.6.5 1s-.2.7-.5 1zm-1.1-1.9h-1.2v1.7h1.2c.7 0 1.1-.3 1.1-.8-.1-.6-.4-.9-1.1-.9zM254.2 372.4c-.3.2-.7.3-1.1.3-.5 0-.8-.1-1.2-.3-.3-.2-.5-.6-.6-1h.6c.1.3.2.6.4.7.2.1.4.2.8.2.3 0 .5-.1.7-.2.2-.2.4-.4.4-.6 0-.3-.4-.6-1.1-.9-1-.4-1.5-.9-1.5-1.4 0-.4.2-.7.5-.9.3-.2.6-.3 1-.3.7 0 1.2.4 1.5 1.2h-.6c-.2-.5-.5-.7-.9-.7-.3 0-.5.1-.6.2-.2.1-.3.3-.3.6 0 .2.2.5.7.7.4.2.8.5 1.3.7.5.3.7.6.7 1-.2.1-.4.5-.7.7zM395.5 350.1c0 .6-.1 1.1-.1 1.4 0 .2-.1.3-.2.4-.1.1-.4.1-.9.2 0-.1-.1-.3-.1-.4h.5c.2 0 .3-.1.4-.2.1-.2.1-.5.1-1v-1.3h-1.3c-.1.8-.3 1.4-.6 1.9s-.8.9-1.4 1.3c-.1-.1-.2-.3-.3-.4.6-.3 1-.7 1.3-1.1.3-.4.5-1 .6-1.6H392v-.4h1.5v-1.2h.5v1.2h1.8l-.3 1.2zM396.1 350v-.4h4.5v.4h-4.5zM403.7 349.5c-.1.9-.2 1.5-.5 1.8-.2.3-.7.7-1.4 1-.1-.1-.1-.3-.3-.4.7-.2 1.1-.5 1.4-.8.2-.3.3-.8.4-1.6H401v-.4h4.9v.4h-2.2zm-1.9-1.3v-.4h3.3v.4h-3.3zM408.9 350.8c-.6.4-1.3.9-2.2 1.3l-.3-.5c1.5-.5 2.9-1.5 4-2.9l.3.3c-.6.8-1.2 1.4-1.8 1.8zm-1.2-1.7c-.4-.4-.8-.7-1.2-1l.3-.4c.5.3.9.6 1.3.9l-.4.5zM414.3 350.5c-.5.4-1 .7-1.5 1-.4.2-.7.4-.9.5l-.4-.3v-4h.4v3.7c.8-.3 1.4-.7 1.8-1 .4-.3.9-.8 1.4-1.4l.3.3c-.3.4-.8.9-1.1 1.2zM415.9 350v-.4h4.5v.4h-4.5zM422.3 350.3c-.2.7-.6 1.3-1.2 1.9-.1-.1-.2-.3-.3-.4.5-.3.8-.7 1-1.2.2-.4.3-.9.3-1.5v-1h.4c0 .9-.1 1.7-.2 2.2zm1.4 1.7-.3-.3.1-.1v-4h.4v3.7c.6-.4 1.2-1 1.8-1.8l.3.3c-.8 1-1.5 1.7-2.3 2.2zM429.6 351.8h-.4l-.7-2.9-.8 2.9h-.4l-.9-3.6h.4l.7 2.9.8-2.9h.4l.7 2.9.7-2.9h.4l-.9 3.6zM143.2 349c0 .6-.1 1.1-.1 1.4 0 .2-.1.3-.2.4-.1.1-.4.1-.9.2 0-.1-.1-.3-.1-.4h.5c.2 0 .3-.1.4-.2.1-.2.1-.5.1-1v-1.3h-1.3c-.1.8-.3 1.4-.6 1.9s-.8.9-1.4 1.3c-.1-.1-.2-.3-.3-.4.6-.3 1-.7 1.3-1.1.3-.4.5-1 .6-1.6h-1.5v-.4h1.5v-1.2h.5v1.2h1.8l-.3 1.2zM143.8 348.9v-.4h4.5v.4h-4.5zM151.4 348.4c-.1.9-.2 1.5-.5 1.8-.2.3-.7.7-1.4 1-.1-.1-.1-.3-.3-.4.7-.2 1.1-.5 1.4-.8.2-.3.4-.8.4-1.6h-2.3v-.4h4.9v.4h-2.2zm-1.9-1.3v-.4h3.3v.4h-3.3zM156.6 349.7c-.6.4-1.3.9-2.2 1.3l-.3-.5c1.5-.5 2.9-1.5 4-2.9l.3.3c-.6.8-1.2 1.4-1.8 1.8zm-1.2-1.7c-.4-.4-.8-.7-1.2-1l.3-.4c.5.3.9.6 1.3.9l-.4.5zM159.4 350.5c-.1-.1-.3-.2-.4-.3.4-.5.8-1 1.1-1.7l.4.2c-.4.7-.7 1.3-1.1 1.8zm2.1-2.6v3.2h-.4v-3.2H159v-.4h2.1v-1.2h.4v1.2h2.3v.4h-2.3zm2 2.5c-.5-.5-.9-1-1.3-1.7l.4-.3c.4.7.8 1.2 1.3 1.7-.2.1-.3.2-.4.3zm-.4-3.1c-.1-.2-.4-.4-.6-.6l.2-.2c.3.2.5.4.6.5l-.2.3zm.4-.4c-.1-.2-.4-.4-.6-.6l.2-.2c.3.2.5.4.6.5l-.2.3zM164.8 349.2c-.1-.3-.3-.6-.6-1l.3-.2c.2.3.4.7.6 1l-.3.2zm2.6.2c-.3.5-.6.9-1 1.2-.3.3-.8.5-1.3.7-.1-.1-.1-.3-.2-.4.5-.1.9-.3 1.2-.6.3-.2.6-.6.9-1 .2-.3.4-.8.5-1.4l.4.1c-.2.6-.4 1.1-.5 1.4zm-1.5-.5c-.1-.3-.3-.7-.5-1l.3-.1c.2.4.4.7.5 1l-.3.1zM171.3 349.8c-.6.6-1.3 1-2.2 1.3-.1-.1-.1-.3-.2-.4.8-.2 1.5-.6 2-1 .4-.4.8-1.1 1.2-1.9h-1.8c-.4.6-.8 1.2-1.3 1.6-.1-.1-.2-.2-.4-.3l1.1-1.1c.2-.3.5-.8.8-1.4l.5.2c-.1.2-.2.4-.4.7H172.5l.3.3c-.6.7-1 1.5-1.5 2zM177.5 350.9c-.5-.6-1-1.3-1.7-1.9-.6.7-1.4 1.3-2.3 1.9-.1-.2-.2-.3-.3-.4.8-.4 1.5-.8 2-1.3.4-.4.9-1.1 1.5-2h-2.9v-.4h3.2l.3.3c-.4.6-.7 1.2-1 1.6.7.6 1.3 1.2 1.8 1.9l-.6.3zM179.9 349.1h-.6l-.1-.1v-.6l.1-.1h.6l.1.1v.6l-.1.1zM185.5 349c0 .6-.1 1.1-.1 1.4 0 .2-.1.3-.2.4-.1.1-.4.1-.9.2 0-.1-.1-.3-.1-.4h.5c.2 0 .3-.1.4-.2.1-.2.1-.5.1-1v-1.3h-1.3c-.1.8-.3 1.4-.6 1.9s-.8.9-1.4 1.3c-.1-.1-.2-.3-.3-.4.6-.3 1-.7 1.3-1.1.3-.4.5-1 .6-1.6H182v-.4h1.5v-1.2h.5v1.2h1.8l-.3 1.2zM186.1 348.9v-.4h4.5v.4h-4.5zM193.7 348.4c-.1.9-.2 1.5-.5 1.8-.2.3-.7.7-1.4 1-.1-.1-.1-.3-.3-.4.7-.2 1.1-.5 1.4-.8.2-.3.4-.8.4-1.6H191v-.4h4.9v.4h-2.2zm-1.9-1.3v-.4h3.3v.4h-3.3zM198.9 349.7c-.6.4-1.3.9-2.2 1.3l-.3-.5c1.5-.5 2.9-1.5 4-2.9l.3.3c-.6.8-1.2 1.4-1.8 1.8zm-1.2-1.7c-.4-.4-.8-.7-1.2-1l.3-.4c.5.3.9.6 1.3.9l-.4.5zM204.3 349.4c-.5.4-1 .7-1.5 1-.4.2-.7.4-.9.5l-.4-.3v-4h.4v3.7c.8-.3 1.4-.7 1.8-1 .4-.3.9-.8 1.4-1.4l.3.3c-.3.4-.7.9-1.1 1.2zM205.9 348.9v-.4h4.5v.4h-4.5zM212.3 349.2c-.2.7-.6 1.3-1.2 1.9-.1-.1-.2-.3-.3-.4.5-.3.8-.7 1-1.2.2-.4.3-.9.3-1.5v-1h.4c0 1-.1 1.7-.2 2.2zm1.4 1.7-.3-.3.1-.1v-4h.4v3.7c.6-.4 1.2-1 1.8-1.8l.3.3c-.7 1-1.5 1.7-2.3 2.2zM219.6 350.7h-.4l-.7-2.9-.8 2.9h-.4l-.9-3.6h.4l.7 2.9.8-2.9h.4l.7 2.9.7-2.9h.4l-.9 3.6zM281.7 350.1c0 .6-.1 1.1-.1 1.4 0 .2-.1.3-.2.4-.1.1-.4.1-.8.2 0-.1-.1-.3-.1-.4h.4c.2 0 .3-.1.3-.2.1-.2.1-.5.1-1v-1.3h-1.2c-.1.8-.3 1.4-.6 1.9s-.7.9-1.3 1.3c-.1-.1-.2-.3-.3-.4.5-.3.9-.7 1.2-1.1.3-.4.4-1 .5-1.6h-1.3v-.4h1.3v-1.2h.4v1.2h1.7v1.2zM282.2 350v-.4h4v.4h-4zM289.1 349.5c-.1.9-.2 1.5-.4 1.8-.2.3-.6.7-1.3 1-.1-.1-.1-.3-.2-.4.6-.2 1-.5 1.2-.8.2-.3.3-.8.4-1.6h-2.1v-.4h4.4v.4h-2zm-1.7-1.3v-.4h2.9v.4h-2.9zM293.8 350.8c-.5.4-1.2.9-2 1.3l-.2-.5c1.4-.5 2.6-1.5 3.6-2.9l.3.3c-.6.8-1.2 1.4-1.7 1.8zm-1.1-1.7c-.4-.4-.8-.7-1.1-1l.2-.4 1.2.9-.3.5zM296.3 351.6c-.1-.1-.2-.2-.4-.3.4-.5.7-1 1-1.7l.4.2c-.3.7-.7 1.3-1 1.8zm1.9-2.6v3.2h-.4V349H296v-.4h1.9v-1.2h.4v1.2h2v.4h-2.1zm1.8 2.5c-.4-.5-.8-1-1.1-1.7l.4-.3c.3.7.7 1.2 1.1 1.7-.2.1-.4.2-.4.3zm-.4-3.1c-.1-.2-.3-.4-.6-.6l.2-.2c.2.2.4.4.6.5l-.2.3zm.4-.4c-.1-.2-.3-.4-.6-.6l.2-.2c.2.2.4.4.6.5l-.2.3zM301.2 350.3c-.1-.3-.3-.6-.5-1l.3-.2c.2.3.4.7.5 1l-.3.2zm2.3.2c-.2.5-.5.9-.9 1.2-.3.3-.7.5-1.2.7-.1-.1-.1-.3-.2-.4.5-.1.8-.3 1.1-.6.3-.2.6-.6.8-1 .2-.3.3-.8.5-1.4l.4.1c-.2.6-.4 1-.5 1.4zm-1.4-.5c-.1-.3-.2-.7-.4-1l.3-.1c.2.4.3.7.4 1l-.3.1zM307 350.9c-.5.6-1.2 1-2 1.3-.1-.1-.1-.3-.2-.4.7-.2 1.3-.6 1.8-1 .4-.4.7-1.1 1.1-1.9H306c-.4.6-.8 1.2-1.2 1.6-.1-.1-.2-.2-.4-.3.4-.4.7-.8 1-1.1.2-.3.4-.8.7-1.4l.4.2c-.1.2-.2.4-.3.7h1.8l.3.3c-.5.7-.9 1.4-1.3 2zM312.6 352c-.4-.6-.9-1.3-1.5-1.9-.5.7-1.2 1.3-2.1 1.9-.1-.2-.2-.3-.3-.4.7-.4 1.3-.8 1.8-1.3.4-.4.8-1.1 1.3-2h-2.6v-.4h2.9l.3.3c-.3.6-.6 1.2-.9 1.6.6.6 1.2 1.2 1.6 1.9l-.5.3zM314.8 350.2h-.6l-.1-.1v-.6l.1-.1h.6l.1.1v.6l-.1.1zM319.8 350.1c0 .6-.1 1.1-.1 1.4 0 .2-.1.3-.2.4-.1.1-.4.1-.8.2 0-.1-.1-.3-.1-.4h.4c.2 0 .3-.1.3-.2.1-.2.1-.5.1-1v-1.3h-1.2c-.1.8-.3 1.4-.6 1.9s-.7.9-1.3 1.3c-.1-.1-.2-.3-.3-.4.5-.3.9-.7 1.2-1.1.3-.4.4-1 .5-1.6h-1.3v-.4h1.3v-1.2h.4v1.2h1.7v1.2zM320.3 350v-.4h4v.4h-4zM327.2 349.5c-.1.9-.2 1.5-.4 1.8-.2.3-.6.7-1.3 1-.1-.1-.1-.3-.2-.4.6-.2 1-.5 1.2-.8.2-.3.3-.8.4-1.6h-2.1v-.4h4.4v.4h-2zm-1.8-1.3v-.4h2.9v.4h-2.9zM331.9 350.8c-.5.4-1.2.9-2 1.3l-.2-.5c1.4-.5 2.6-1.5 3.6-2.9l.3.3c-.7.8-1.2 1.4-1.7 1.8zm-1.1-1.7c-.4-.4-.8-.7-1.1-1l.2-.4 1.2.9-.3.5zM336.7 350.5c-.4.4-.9.7-1.4 1-.4.2-.6.4-.8.5l-.3-.3v-4h.4v3.7c.7-.3 1.2-.7 1.6-1 .4-.3.8-.8 1.3-1.4l.3.3c-.4.4-.8.9-1.1 1.2zM338.2 350v-.4h4v.4h-4zM343.9 350.3c-.2.7-.5 1.3-1.1 1.9-.1-.1-.2-.3-.3-.4.4-.3.7-.7.9-1.2.1-.4.2-.9.3-1.5v-1h.4c0 .9-.1 1.7-.2 2.2zm1.3 1.7-.3-.3v-4.1h.4v3.7c.5-.4 1.1-1 1.6-1.8l.3.3c-.6 1-1.3 1.7-2 2.2zM350.5 351.8h-.4l-.7-2.9-.7 2.9h-.4l-.8-3.6h.4l.6 2.9.7-2.9h.4l.7 2.9.7-2.9h.4l-.9 3.6zM336.6 202.3c-.5.7-1.4 1.2-2.6 1.6-.1-.2-.2-.4-.3-.5 1-.2 1.8-.6 2.2-1.2.5-.6.8-1.4.8-2.4h-3.4v1.6h-.5v-2.1h2v-1.2h.5v1.2h2c0 1.4-.3 2.3-.7 3zM341.1 201v2.3c0 .2 0 .4-.1.5-.1.1-.3.1-.7.2 0-.2-.1-.4-.1-.5h.3c.2 0 .2-.1.2-.2v-1.7c-.6.8-1.4 1.4-2.3 1.9-.1-.1-.2-.3-.3-.4 1-.5 1.8-1.2 2.4-2h-2.2v-.4h2.3v-1h.4v1h1.5v.4h-1.4zM344.4 201.2l-1.2-.6.2-.4c.5.2.9.3 1.2.5l-.2.5zm1.8 1.2c-.7.5-1.5.9-2.5 1.3l-.3-.5c1.8-.6 3.3-1.6 4.5-3 .1.1.2.3.3.4-.6.7-1.3 1.3-2 1.8zm-1.2-2.7c-.4-.3-.8-.5-1.2-.7l.2-.4c.5.3.9.5 1.2.7l-.2.4zM349 203.5v-.4h2.9l.2-2.2h-2.5v-.4h2.9l-.2 2.6h1.3v.4H349zM339.3 209.7c-.5.4-1.1.8-1.7 1.1-.5.2-.8.4-1 .6l-.4-.4v-4.6h.5v4.2c.9-.4 1.6-.8 2.1-1.2.5-.4 1-.9 1.6-1.6.1.1.2.3.4.4-.5.6-1 1.1-1.5 1.5zM342 209.5c-.2-.3-.4-.7-.7-1.1l.4-.2c.2.4.5.7.7 1.2l-.4.1zm2.9.2c-.3.6-.7 1-1.1 1.4-.4.3-.9.6-1.5.8-.1-.2-.2-.3-.3-.4.6-.2 1-.4 1.4-.6.4-.3.7-.7 1-1.2.2-.4.4-1 .6-1.7l.5.1c-.2.7-.3 1.2-.6 1.6zm-1.6-.6c-.1-.4-.3-.8-.5-1.1l.4-.2c.2.4.4.8.6 1.1l-.5.2zM350 209.7c-.7-.4-1.6-.8-2.7-1.2v3.3h-.5v-5.6h.5v1.8c1 .3 2 .7 3 1.2l-.3.5zM313.2 218.1c-.5.1-1.1.2-1.9.3v.8h2v.4h-2v.9h2.3v.4h-2.3v1.4c0 .1-.1.2-.3.3-.2.1-.4.1-.8.1 0-.1 0-.3-.2-.4h.6c.1 0 .1 0 .1-.1v-1.3h-2.2v-.4h2.2v-.9h-2v-.4h2v-.8c-.6.1-1.2.1-1.8.1-.1-.2-.1-.3-.2-.4.8 0 1.6-.1 2.2-.1.6-.1 1.2-.2 1.9-.3l.4.4zM315.5 220.9l-.9 1.8-.4-.2 1-1.8c.1.2.2.2.3.2zm-.2-1.2-.3.3c-.2-.2-.5-.4-.8-.5l.2-.3c.4.1.6.3.9.5zm.2-1.3-.2.3c-.2-.3-.5-.5-.7-.6l.2-.3c.3.1.5.3.7.6zm1.1-.4c-.1.3-.2.5-.3.7h.8v-1h.4v1h1.4v.3h-1.4v1h1.7v.3H318v1.8c0 .1 0 .1.1.1h.6c.1 0 .2-.1.2-.1.1-.1.1-.2.1-.4.1.1.2.1.4.1 0 .2-.1.4-.2.6-.1.2-.2.2-.4.2h-.7c-.3 0-.4-.2-.4-.5v-1.8h-.7c0 .7-.1 1.2-.3 1.5-.2.3-.6.6-1.1.8-.1-.1-.1-.3-.2-.4.5-.2.9-.5 1-.8.1-.3.2-.6.2-1.1h-1.1v-.3h1.7v-1h-1c-.1.3-.3.5-.4.7-.1-.1-.2-.2-.3-.2.2-.3.4-.5.5-.8.1-.3.2-.5.3-.8l.3.1zM324.2 220.5c0 .6-.1 1.1-.1 1.4 0 .2-.1.3-.2.4-.1.1-.4.1-.9.2 0-.1-.1-.3-.1-.4h.5c.2 0 .3-.1.4-.2.1-.2.1-.5.1-1v-1.3h-1.3c-.1.8-.3 1.4-.6 1.9s-.8.9-1.4 1.3c-.1-.1-.2-.3-.3-.4.6-.3 1-.7 1.3-1.1.3-.4.5-1 .6-1.6h-1.5v-.7h1.5v-1.2h.5v1.2h1.8l-.3 1.5zM328.2 221.2c-.4.6-1.2 1.1-2.3 1.4-.1-.2-.2-.3-.2-.4.9-.2 1.5-.6 2-1 .5-.5.7-1.2.7-2.1h-3v1.4h-.4v-1.8h1.7v-1h.4v1h1.8c-.1 1.1-.3 2-.7 2.5zM332 221.2c-.6.4-1.3.9-2.2 1.3l-.3-.5c1.5-.5 2.9-1.5 4-2.9l.3.3c-.6.7-1.2 1.4-1.8 1.8zm-1.1-1.8c-.4-.4-.8-.7-1.2-1l.3-.4c.5.3.9.6 1.3.9l-.4.5zM337.4 221.1c-.6.6-1.3 1.1-2.3 1.5-.1-.1-.1-.2-.3-.4.9-.3 1.6-.8 2.2-1.4-.3-.3-.7-.6-1-.8l.2-.3c.4.3.8.5 1.1.8.3-.4.6-.9.9-1.5h-1.8c-.5.7-1 1.2-1.7 1.6-.1-.1-.2-.3-.3-.4.6-.4 1-.7 1.2-1 .3-.3.5-.8.8-1.4l.5.2-.3.6h1.8l.3.3c-.4 1-.9 1.7-1.3 2.2zM339.3 220.4v-.4h4.5v.4h-4.5zM255.6 46l-.4-.4c.5-.4 1.1-1 1.8-1.7h-5.2v-.6h5.8l.5.5c-1.1 1.1-1.9 1.8-2.5 2.2zm-.8 1.9c-.3.7-1 1.3-2.1 1.8-.1-.2-.2-.4-.4-.6.9-.2 1.6-.6 1.9-1.2.3-.5.4-1.2.4-2.2v-.6h.6c0 1.3-.2 2.2-.4 2.8zM261.1 46.8c-.3 1-.9 1.9-1.7 2.6-.1-.2-.3-.4-.4-.5.6-.5 1.1-1 1.4-1.7.2-.5.4-1.3.4-2.2v-1.5h.6c0 1.6-.1 2.7-.3 3.3zm2.1 2.5-.5-.5.1-.1V43h.6v5.3c.9-.6 1.7-1.5 2.5-2.5.1.1.3.3.5.4-1.1 1.4-2.1 2.4-3.2 3.1zM271.7 49.3v-.4h-4.5v-.6h4.5v-3.4h-4.5v-.6h5.2v5.1h-.7zM273.3 46.5v-.6h6.4v.6h-6.4zM284.5 47.6c-.7.8-1.7 1.5-3.2 2.1l-.3-.6c1.2-.4 2.2-.9 2.9-1.7.7-.7 1.2-1.7 1.7-3h-5.1v-.6h5.4l.5.5c-.7 1.4-1.3 2.6-1.9 3.3zm2-3.6c-.2-.2-.5-.5-.9-.8l.3-.3c.4.3.7.5.9.8l-.3.3zm.5-.6c-.2-.2-.5-.5-.9-.8l.3-.3c.4.3.7.5.9.8l-.3.3zM254.8 55.9V57h.4l.2.2c-.2.4-.4.9-.7 1.2l.2.2c.2-.1.3-.3.5-.5l.2.3-.5.5c.1.1.3.2.4.3-.1.1-.2.2-.2.3-.2-.1-.4-.3-.5-.5l-.1-.1V61h-.4v-2.1l-.6.6c0-.1-.1-.3-.2-.4.6-.6 1.1-1.1 1.4-1.8h-1.3V57h.7v-1.1h.5zm3.8 5.1h-.4v-.4h-1.9v.4h-.4v-3.7h1.1V56h.4v1.3h1.1V61zm-1.5-2.2v-1.1h-.8v1.1h.8zm0 1.5v-1.2h-.8v1.2h.8zm.3-1.5h.8v-1.1h-.8v1.1zm0 1.5h.8v-1.2h-.8v1.2zM261.1 56.1c-.1.4-.3.8-.5 1.2v3.9h-.4V58c-.2.3-.4.6-.7.9 0-.1-.1-.3-.2-.4.5-.7 1-1.5 1.4-2.6l.4.2zm2.1 1.3V56h.4v1.3h1v.4h-1v2.9c0 .1-.1.2-.2.3-.2.1-.4.1-.7.1 0-.1 0-.3-.1-.4h.6c.1 0 .1 0 .1-.1v-2.8H261v-.4h2.2zm-.8 1.9-.3.2c-.2-.3-.5-.6-.8-1l.3-.2c.4.4.6.7.8 1zM268 56v.9h2.2v.4h-2.4l-.8 1.6c.3.2.5.4.7.6l1.1-1.5.4.2-1.9 2.4c.6 0 1.3-.1 2-.2-.2-.2-.4-.5-.6-.7l.3-.2c.5.6.9 1.1 1.2 1.5l-.3.2c-.1-.2-.2-.3-.3-.4-1.6.2-3 .3-4.1.4l-.1-.4c.4 0 .9 0 1.4-.1l.7-.9c-.5-.4-1.1-.9-1.8-1.2l.2-.4c.3.2.6.3.8.5l.6-1.3h-2V57h2.3v-1h.4zM273.2 56.1v1.7h-1.6V61h-.4v-4.9h2zm-.4.8v-.4h-1.2v.4h1.2zm0 .6v-.4h-1.2v.4h1.2zm3-1.4v4.4c0 .2-.1.3-.2.4-.1.1-.3.1-.7.1 0-.1-.1-.3-.2-.4h.5c.1 0 .1 0 .1-.1v-2.6H274l.3.1-.3.5h.8v.3h-1.3v.5h1.5v.3h-1.3c.1.2.2.3.3.4.1.1.4.3.7.4l-.3.3c-.3-.2-.6-.3-.7-.5-.1-.1-.3-.3-.4-.5-.1.1-.1.2-.2.3-.2.3-.6.5-1.1.8l-.3-.3c.5-.1.8-.4 1.1-.6.1-.1.1-.1.1-.2h-1.1v-.3h1.2v-.5h-1.1v-.3h.6c-.1-.1-.2-.3-.4-.5l.3-.2.5.5-.2.2h.7l.3-.7h-.2v-1.7h2.3zm-.4.4h-1.2v.4h1.2v-.4zm0 .7h-1.2v.4h1.2v-.4zM280 59.2c-.6-.4-1.4-.7-2.3-1V61h-.4v-4.9h.4v1.6c.9.3 1.8.6 2.6 1.1l-.3.4zm-.5-1.7c-.1-.2-.3-.4-.6-.6l.2-.2c.3.2.5.4.6.5l-.2.3zm.4-.4c-.1-.2-.3-.4-.6-.6l.2-.2c.3.2.5.4.6.5l-.2.3zM283.3 58.4l-.3-.3c.4-.3.8-.7 1.3-1.2h-3.6v-.4h4.1l.3.4c-.8.7-1.4 1.2-1.8 1.5zm-.6 1.3c-.2.5-.7.9-1.5 1.2-.1-.1-.2-.3-.3-.4.6-.2 1.1-.4 1.3-.9.2-.3.3-.8.3-1.5v-.4h.4c.1 1 0 1.6-.2 2zM417.7 160.3c-.2.5-.5 1-.9 1.4l-.3-.3c.6-.7 1-1.6 1.3-2.8l.4.2c-.2.6-.4 1.1-.5 1.5zm2.7 1.2c-.3-1-.8-1.9-1.3-2.8l.3-.2c.6.9 1.1 1.9 1.5 2.8l-.5.2zM423.5 160.9c-.5.4-1.1.8-1.9 1.1l-.2-.4c1.3-.4 2.5-1.3 3.4-2.5l.3.3c-.6.6-1.2 1.1-1.6 1.5zm-1.1-1.5c-.4-.3-.7-.6-1.1-.8l.2-.3c.4.2.8.5 1.1.8l-.2.3zM429.1 160.3c0 .5-.1.9-.1 1.2 0 .1-.1.2-.2.3-.1.1-.4.1-.8.2 0-.1-.1-.2-.1-.4h.4c.1 0 .3-.1.3-.2.1-.1.1-.4.1-.8v-1.1h-1.2c-.1.6-.3 1.2-.5 1.6-.3.4-.7.8-1.2 1.1l-.3-.3c.5-.3.9-.6 1.1-.9.3-.4.4-.8.5-1.4h-1.2v-.4h1.3v-1h.4v1h1.6l-.1 1.1zm0-1.4-.5-.5.2-.2c.2.2.4.3.6.5l-.3.2zm.4-.4-.5-.5.2-.2c.2.2.4.3.6.5l-.3.2zM429.9 160.2v-.3h3.8v.3h-3.8zM435.2 160.3c-.2.5-.5 1-.9 1.4l-.3-.3c.6-.7 1-1.6 1.3-2.8l.4.2c-.1.6-.3 1.1-.5 1.5zm2.7 1.2c-.3-1-.8-1.9-1.3-2.8l.3-.2c.6.9 1.1 1.9 1.5 2.8l-.5.2zm.3-2.6c-.1.1-.2.2-.3.2-.1 0-.3 0-.3-.1-.1-.1-.1-.2-.1-.3 0-.1 0-.3.1-.3.1-.1.2-.1.3-.1.1 0 .2 0 .3.1.1.1.1.2.1.3s0 .1-.1.2zm-.1-.5s-.1-.1-.2-.1c-.2 0-.3.1-.3.3 0 .1 0 .1.1.2 0 .1.1.1.2.1s.1 0 .2-.1c0 0 .1-.1.1-.2s-.1-.2-.1-.2zM441.2 159.4v2.7h-.4v-2.4c-.6.5-1.2.9-1.8 1.1-.1-.1-.1-.3-.2-.4.6-.2 1.2-.6 1.8-1.1.5-.4 1-.9 1.5-1.4l.4.3c-.6.5-1 .9-1.3 1.2zM445.4 160.9c-.4.5-1 .9-1.9 1.2 0-.1-.1-.2-.2-.4.7-.2 1.3-.6 1.7-1 .4-.4.7-1 1-1.8h-3v-.4h3.2l.3.3c-.4 1-.7 1.7-1.1 2.1zm1.6-2.4c-.1.1-.2.2-.3.2-.1 0-.3 0-.3-.1-.1-.1-.1-.2-.1-.3 0-.1 0-.3.1-.3.1-.1.2-.1.3-.1.1 0 .2 0 .3.1.1.1.1.2.1.3.1 0 0 .1-.1.2zm-.1-.5s-.1-.1-.2-.1c-.2 0-.3.1-.3.3 0 .1 0 .1.1.2 0 .1.1.1.2.1s.1 0 .2-.1c0 0 .1-.1.1-.2-.1-.1-.1-.2-.1-.2zM454.1 158.4c-.2.4-.5.8-.9 1.1-.1-.1-.2-.2-.3-.2.6-.5 1-1.3 1.3-2.2l.4.1c-.1.5-.3.9-.5 1.2zm2.7 1c-.3-.8-.8-1.5-1.3-2.3l.3-.2c.6.7 1.1 1.5 1.5 2.3l-.5.2zM455.6 162c-.5.3-1.1.6-1.9.9l-.2-.4c1.3-.4 2.5-1 3.4-2 .1.1.2.2.3.2-.6.6-1.1 1-1.6 1.3zm-1-1.2c-.4-.3-.7-.5-1.1-.7l.2-.2c.4.2.8.4 1.1.6l-.2.3zM456.7 165.2c0 .4-.1.7-.1.9 0 .1-.1.2-.2.3-.1.1-.4.1-.8.1 0-.1-.1-.2-.1-.3h.4c.1 0 .3-.1.3-.2.1-.1.1-.3.1-.7v-.9h-1.2c-.1.5-.3.9-.5 1.3-.3.3-.7.6-1.2.9l-.3-.3c.5-.2.9-.5 1.1-.8.3-.3.4-.7.5-1.1h-1.2v-.3h1.3v-.8h.4v.8h1.6l-.1 1.1zm-.1-1.1c-.1-.1-.3-.2-.5-.4l.2-.2c.2.1.4.3.6.4l-.3.2zm.4-.3c-.1-.1-.3-.2-.5-.4l.2-.2c.2.1.4.3.6.4l-.3.2zM455 170.1V167h.3v3.1h-.3zM454.1 172.1c-.2.4-.5.8-.9 1.1-.1-.1-.2-.2-.3-.2.6-.5 1-1.3 1.3-2.2l.4.1c-.1.5-.3.9-.5 1.2zm2.7 1c-.3-.8-.8-1.5-1.3-2.3l.3-.2c.6.7 1.1 1.5 1.5 2.3l-.5.2zm.3-2.1c-.1.1-.2.1-.3.1-.1 0-.3 0-.3-.1-.1-.1-.1-.2-.1-.3 0-.1 0-.2.1-.3.1-.1.2-.1.3-.1.1 0 .2 0 .3.1.1.1.1.2.1.3.1.1 0 .2-.1.3zm-.1-.5s-.1-.1-.2-.1c-.2 0-.3.1-.3.2s0 .1.1.2c0 0 .1.1.2.1s.1 0 .2-.1c0 0 .1-.1.1-.2-.1 0-.1 0-.1-.1zM455.5 174.7v2.2h-.4V175c-.6.4-1.2.7-1.8.9-.1-.1-.1-.2-.2-.3.6-.2 1.2-.5 1.8-.8.5-.3 1-.7 1.5-1.1l.4.2c-.5.3-.9.6-1.3.8zM455.8 179.7c-.4.4-1 .7-1.9 1 0-.1-.1-.2-.2-.3.7-.2 1.3-.4 1.7-.8.4-.3.7-.8 1-1.5h-3v-.3h3.2l.3.2c-.3.8-.7 1.4-1.1 1.7zm1.6-1.9c-.1.1-.2.1-.3.1-.1 0-.3 0-.3-.1-.1-.1-.1-.2-.1-.3 0-.1 0-.2.1-.3.1-.1.2-.1.3-.1.1 0 .2 0 .3.1.1.1.1.2.1.3.1.1 0 .2-.1.3zm-.1-.4s-.1-.1-.2-.1c-.2 0-.3.1-.3.2s0 .1.1.2c0 0 .1.1.2.1s.1 0 .2-.1c0 0 .1-.1.1-.2l-.1-.1zM290.8 292.9l-2.1 4.3-1-.6 2.3-4.2c.4.3.6.4.8.5zm-.3-3.4-.4.8c-.6-.4-1.2-.7-2-1.1l.4-.8c.7.3 1.4.7 2 1.1zm.7-3.2-.6.8c-.6-.5-1.2-1-1.9-1.4l.6-.7c.7.4 1.3.8 1.9 1.3zm7.5-1.1-1.1 2h2.8v.9h-4v1.9h3.1v.9h-3.1v2.2h4v.9h-4v3.5h-.9V294h-4.1v-.9h4.1v-2.2h-3.3v-.9h3.3v-2h-3.8v-.9h4.9l1.3-2.5.8.6zm-3.9 1.3-.8.5c-.3-.6-.7-1.2-1.2-1.7l.8-.6c.5.7.9 1.3 1.2 1.8zM308.1 293.5v-1.2h1v1.2h4.4v.8h-4.4v1.5h5.7v.8h-12.5v-.8h5.8v-1.5h-4.3v-.8h4.3zm1-9v1.4h5.1v2.7h-1v.4H308l-1.1 2.1c1.5-.1 2.9-.2 4.5-.3-.3-.3-.6-.5-1-.8l.7-.7c1.3 1 2.2 1.7 2.7 2.3l-.7.7-.8-.8c-3.3.3-6.1.5-8.5.6l-.2-.9c.7 0 1.4 0 2.2-.1l1.2-2.1h-3v-.4h-1V286h5.1v-1.4h1zm4.1 3.7v-1.3H304v1.3h9.2zM316.7 295.8c.1-1.5.8-2.8 2.3-3.9 1.5-1.2 2.2-2.1 2.2-2.7 0-.5-.1-.9-.4-1.2-.3-.3-.7-.5-1.2-.5-.7 0-1.1.2-1.5.6-.3.3-.5.8-.5 1.5h-1c.2-1.9 1.3-2.8 3.1-2.8.8 0 1.4.2 1.9.7.5.5.7 1.1.7 1.8 0 .9-.7 1.9-2.2 3.1-1.2 1-1.9 1.9-2.2 2.7h4.5v.9h-5.7zM286.8 315.9c-.7-.7-1.2-1.3-1.6-1.9-.4-.8-.6-1.6-.6-2.5s.2-1.7.6-2.5c.3-.6.9-1.2 1.6-1.9l.5.5c-.7.6-1.2 1.2-1.5 1.8-.4.7-.6 1.4-.6 2.2 0 .8.2 1.5.6 2.2.3.5.8 1.1 1.5 1.8l-.5.3zM290.9 307.2l-1 1.9c.2.2.4.3.6.5l.9-1.6.6.4-1.7 2.7c.4 0 .9 0 1.4-.1-.1-.3-.3-.5-.4-.8l.5-.3c.4.6.6 1.1.8 1.5l-.5.4c0-.1-.1-.2-.1-.3-.4 0-.8.1-1.1.1v4h-.7v-3.9c-.5 0-1 .1-1.5.1l-.2-.6h1l.6-1c-.5-.4-1-.8-1.6-1.1l.4-.5c.1.1.3.2.4.3l.9-1.9.7.2zm-1.2 5.2c-.2.9-.4 1.7-.6 2.4-.2-.1-.4-.2-.6-.2.2-.7.4-1.5.6-2.3l.6.1zm2.7 1.7-.6.2c-.1-.6-.2-1.2-.4-1.8l.6-.2c.1.6.2 1.2.4 1.8zm1.8-7.1c-.2.7-.3 1.3-.4 1.7h3.1v3.8c0 1-.1 1.7-.2 2-.1.6-.8.9-2 .9 0-.3-.1-.6-.3-.8h1.1c.3 0 .5-.2.6-.5.1-.3.1-.9.2-1.9v-3h-2.6c-.2.6-.4 1.1-.6 1.5-.2-.2-.4-.3-.6-.4.3-.6.5-1.2.7-1.9.2-.6.3-1.2.4-1.8l.6.4zm1 5.3-.5.5c-.3-.5-.8-1.1-1.3-1.7l.5-.4c.4.5.9 1.1 1.3 1.6zM302.2 313.1v1.4h-.6v-1.4h-3v-.6l3-4.1h.5v4.2h.8v.6h-.7zm-.6-3.7-2.3 3.1h2.3v-3.1zM305.2 314.7h-.7l-.1-.1v-.6l.1-.1h.7l.1.1v.6l-.1.1zM309.1 314.5v-5.4c-.5.3-.9.4-1.3.5v-.7c.5-.1.9-.2 1.3-.5h.7v6.1h-.7zM313.9 308.5v-1.7h.7v1.7h1.4v4.5c0 .2 0 .3-.1.4-.1.1-.4.2-.8.2 0-.3-.1-.5-.2-.7h.3c.1 0 .2 0 .2-.1v-3.7h-.7v6.5h-.7v-6.5h-.7v4.5h-.6v-5.1h1.2zm5-1.6v1.8h2.1v.6h-2.1v2h1.7v4.2h-.6v-.5h-2.7v.6h-.6v-4.3h1.6v-4.4h.6zm1 7.5v-2.5h-2.7v2.5h2.7zM324.5 314c-.3.6-.9 1.2-1.6 1.9l-.5-.4c.7-.6 1.1-1.2 1.5-1.8.4-.7.6-1.4.6-2.2 0-.8-.2-1.5-.6-2.2-.3-.5-.8-1.1-1.5-1.8l.5-.5c.7.7 1.2 1.3 1.6 1.9.4.8.6 1.6.6 2.5s-.2 1.8-.6 2.6zM396.4 292.9l-2.1 4.3-1-.6 2.3-4.2c.3.3.6.4.8.5zm-.4-3.4-.4.8c-.6-.4-1.2-.7-2-1.1l.4-.8c.7.3 1.4.7 2 1.1zm.7-3.2-.6.8c-.6-.5-1.2-1-1.9-1.4l.6-.7c.7.4 1.4.8 1.9 1.3zm7.5-1.1-1.1 2h2.8v.9h-4v1.9h3.1v.9h-3.1v2.2h4v.9h-4v3.5h-.9V294h-4.1v-.9h4.1v-2.2h-3.3v-.9h3.3v-2h-3.8v-.9h4.9l1.3-2.5.8.6zm-3.9 1.3-.8.6c-.3-.6-.7-1.2-1.2-1.7l.8-.6c.5.6 1 1.2 1.2 1.7zM413.7 293.5v-1.2h1v1.2h4.4v.8h-4.4v1.5h5.7v.8h-12.5v-.8h5.8v-1.5h-4.3v-.8h4.3zm1-9v1.4h5.1v2.7h-1v.4h-5.3l-1.1 2.1c1.5-.1 2.9-.2 4.5-.3-.3-.3-.6-.5-1-.8l.7-.7c1.3 1 2.2 1.7 2.7 2.3l-.7.7-.8-.8c-3.3.3-6.1.5-8.5.6l-.2-.9c.7 0 1.4 0 2.2-.1l1.2-2.1h-3v-.4h-.9V286h5.1v-1.4h1zm4.1 3.7v-1.3h-9.3v1.3h9.3zM425.4 295.8v-7.9c-.7.4-1.3.6-1.9.8v-1c.7-.1 1.4-.4 1.9-.8h1v9h-1zM392.3 315.9c-.7-.7-1.2-1.3-1.6-1.9-.4-.8-.6-1.6-.6-2.5s.2-1.7.6-2.5c.3-.6.9-1.2 1.6-1.9l.5.5c-.7.6-1.2 1.2-1.5 1.8-.4.7-.6 1.4-.6 2.2 0 .8.2 1.5.6 2.2.3.5.8 1.1 1.5 1.8l-.5.3zM396.4 307.2l-1 1.9c.2.2.4.3.6.5l.9-1.6.6.4-1.7 2.7c.4 0 .9 0 1.4-.1-.1-.3-.3-.5-.4-.8l.5-.3c.4.6.6 1.1.8 1.5l-.5.4c0-.1-.1-.2-.1-.3-.4 0-.8.1-1.1.1v4h-.7v-3.9c-.5 0-1 .1-1.5.1l-.2-.6h1l.6-1c-.5-.4-1-.8-1.6-1.1l.4-.5c.1.1.3.2.4.3l.9-1.9.7.2zm-1.1 5.2c-.2.9-.4 1.7-.6 2.4-.2-.1-.4-.2-.6-.2.2-.7.4-1.5.6-2.3l.6.1zm2.6 1.7-.6.2c-.1-.6-.2-1.2-.4-1.8l.6-.2c.1.6.3 1.2.4 1.8zm1.8-7.1c-.2.7-.3 1.3-.4 1.7h3.1v3.8c0 1-.1 1.7-.2 2-.1.6-.8.9-2 .9 0-.3-.1-.6-.3-.8h1.1c.3 0 .5-.2.6-.5.1-.3.1-.9.2-1.9v-3h-2.6c-.2.6-.4 1.1-.6 1.5-.2-.2-.4-.3-.6-.4.3-.6.5-1.2.7-1.9.2-.6.3-1.2.4-1.8l.6.4zm1 5.3-.5.5c-.3-.5-.8-1.1-1.3-1.7l.5-.4c.4.5.9 1.1 1.3 1.6zM407.9 314c-.4.4-.8.6-1.5.6s-1.3-.3-1.7-1c-.3-.5-.4-1.2-.4-2 0-2.3.7-3.5 2.2-3.5.5 0 .8.1 1.1.4.2.2.5.6.6 1h-.8c-.2-.6-.5-.8-.9-.8-.9 0-1.4.8-1.5 2.5.6-.4 1.1-.6 1.6-.6s1 .2 1.3.6c.3.4.5.8.5 1.3 0 .6-.2 1.1-.5 1.5zm-.5-2.4c-.2-.3-.5-.4-.8-.4-.5 0-1 .3-1.4.7 0 1.5.5 2.2 1.3 2.2.4 0 .7-.2 1-.6.2-.3.3-.7.3-1.1-.1-.2-.2-.5-.4-.8zM410.7 314.7h-.7l-.1-.1v-.6l.1-.1h.7l.1.1v.6l-.1.1zM414.7 311.6c-.3.8-.5 1.8-.5 2.9h-.7c0-1.1.1-2.1.4-2.8.3-.8.8-1.7 1.6-2.7h-3.1v-.6h3.9v.8c-.7.8-1.2 1.6-1.6 2.4zM419.5 308.5v-1.7h.7v1.7h1.4v4.5c0 .2 0 .3-.1.4-.1.1-.4.2-.8.2 0-.3-.1-.5-.2-.7h.3c.1 0 .2 0 .2-.1v-3.7h-.7v6.5h-.7v-6.5h-.7v4.5h-.6v-5.1h1.2zm4.9-1.6v1.8h2.1v.6h-2.1v2h1.7v4.2h-.6v-.5h-2.7v.6h-.6v-4.3h1.6v-4.4h.6zm1 7.5v-2.5h-2.7v2.5h2.7zM430 314c-.3.6-.9 1.2-1.6 1.9l-.5-.4c.7-.6 1.1-1.2 1.5-1.8.4-.7.6-1.4.6-2.2 0-.8-.2-1.5-.6-2.2-.3-.5-.8-1.1-1.5-1.8l.5-.5c.7.7 1.2 1.3 1.6 1.9.4.8.6 1.6.6 2.5s-.2 1.8-.6 2.6zM164.2 260.3v-10.5h1.2v9.5h6.5v1h-7.7zM180.9 259c-1.1.9-2.5 1.3-4.3 1.3h-3v-10.5h3.5c1.6 0 2.9.5 4 1.4 1 1 1.6 2.2 1.6 3.8-.1 1.7-.7 3-1.8 4zm-.9-7.2c-.8-.7-1.9-1-3.3-1h-2.1v8.5h2.3c1.3 0 2.3-.4 3.1-1.2.8-.8 1.2-1.8 1.2-3.1.1-1.4-.3-2.4-1.2-3.2zM191.5 260.3l-4-5.9-2.3 1.9v4h-1.1v-10.5h1.1v5.2l6-5.2h1.6l-4.5 3.9 4.8 6.6h-1.6zM157.5 279.1c-.7-.7-1.2-1.3-1.6-1.9-.4-.8-.6-1.6-.6-2.5 0-.9.2-1.7.6-2.5.3-.6.9-1.2 1.6-1.9l.5.5c-.7.6-1.2 1.2-1.5 1.8-.4.7-.6 1.4-.6 2.2 0 .8.2 1.5.6 2.2.3.5.8 1.1 1.5 1.8l-.5.3zM161.6 270.4l-1 1.9c.2.2.4.3.6.5l.9-1.6.6.4-1.7 2.7c.4 0 .9 0 1.4-.1-.1-.3-.3-.5-.4-.8l.5-.3c.4.6.6 1.1.8 1.5l-.5.4c0-.1-.1-.2-.1-.3-.4 0-.8.1-1.1.1v4h-.7v-3.9c-.5 0-1 .1-1.5.1l-.2-.6h1l.6-1c-.5-.4-1-.8-1.6-1.1l.4-.5c.1.1.3.2.4.3l.9-1.9.7.2zm-1.1 5.2c-.2.9-.4 1.7-.6 2.4-.2-.1-.4-.2-.6-.2.2-.7.4-1.5.6-2.3l.6.1zm2.6 1.7-.6.2c-.1-.6-.2-1.2-.4-1.8l.6-.2c.1.6.3 1.2.4 1.8zm1.8-7.1c-.2.7-.3 1.3-.4 1.7h3.1v3.8c0 1-.1 1.7-.2 2-.1.6-.8.9-2 .9 0-.3-.1-.6-.3-.8h1.1c.3 0 .5-.2.6-.5.1-.3.1-.9.2-1.9v-3h-2.6c-.2.6-.4 1.1-.6 1.5-.2-.2-.4-.3-.6-.4.3-.6.5-1.2.7-1.9.2-.6.3-1.2.4-1.8l.6.4zm1 5.3-.5.5c-.3-.5-.8-1.1-1.3-1.7l.5-.4c.5.6.9 1.1 1.3 1.6zM171.9 277.7v-5.4c-.5.3-.9.4-1.3.5v-.7c.5-.1.9-.2 1.3-.5h.7v6.1h-.7zM178.8 276.8c-.4.7-1 1.1-1.7 1.1-.8 0-1.4-.3-1.8-1-.3-.5-.5-1.3-.5-2.2 0-2.2.8-3.3 2.3-3.3.8 0 1.4.4 1.7 1.1.3.6.4 1.3.4 2.2.1.9-.1 1.6-.4 2.1zm-.5-3.8c-.2-.7-.6-1-1.2-1-1 0-1.5.9-1.5 2.7 0 1.7.5 2.6 1.5 2.6.5 0 .9-.3 1.2-.9.2-.5.3-1 .3-1.6-.1-.7-.2-1.3-.3-1.8zM181.4 277.9h-.7l-.1-.1v-.6l.1-.1h.7l.1.1v.6l-.1.1zM186.4 276.3v1.4h-.6v-1.4h-3v-.6l3-4.1h.5v4.2h.8v.6h-.7zm-.6-3.7-2.3 3.1h2.3v-3.1zM190.1 271.7V270h.7v1.7h1.4v4.5c0 .2 0 .3-.1.4-.1.1-.4.2-.8.2 0-.3-.1-.5-.2-.7h.3c.1 0 .2 0 .2-.1v-3.7h-.7v6.5h-.7v-6.5h-.7v4.5h-.6v-5.1h1.2zm5-1.6v1.8h2.1v.6h-2.1v2h1.7v4.2h-.6v-.5h-2.7v.6h-.6v-4.3h1.6v-4.4h.6zm1 7.5v-2.5h-2.7v2.5h2.7zM200.7 277.2c-.3.6-.9 1.2-1.6 1.9l-.5-.4c.7-.6 1.1-1.2 1.5-1.8.4-.7.6-1.4.6-2.2 0-.8-.2-1.5-.6-2.2-.3-.5-.8-1.1-1.5-1.8l.5-.5c.7.7 1.2 1.3 1.6 1.9.4.8.6 1.6.6 2.5 0 1-.2 1.9-.6 2.6zM160.3 110v.9h2.8v2.6c0 .2 0 .3-.1.4-.1.1-.5.2-1 .2 0-.3-.1-.5-.2-.6h.5c.2 0 .3 0 .3-.1v-1.9h-2.2v3.3h-.6v-3.3h-2.2v2.7h-.5V111h2.7v-1h-2v-2.4h4.7v2.4h-2.2zm-2.1-.5h3.6v-1.3h-3.6v1.3zM171 112.2h-.6v-.5h-4.2c0 .5-.1 1-.3 1.5-.2.6-.6 1-1 1.5-.1-.2-.2-.3-.4-.5.4-.3.7-.7.9-1.3.1-.4.2-.9.2-1.7v-2h5.3v3zm.7-4.4v.5h-7v-.5h7zm-5.5 3.4 4.2.1v-1.6h-4.2v1.5zM173.7 109.1v-1.8h.5v1.8h.9v.5h-.9v.7l.4.4c.1.1.3.2.5.4-.1.2-.2.3-.3.5-.2-.2-.4-.3-.5-.4 0 0-.1 0-.1-.1v3.7h-.5V111c-.1.3-.2.5-.3.8-.2.4-.4.7-.5.8-.1-.2-.2-.4-.3-.5.3-.4.5-.7.7-1.1.2-.3.3-.7.5-1.3h-.9v-.5h.8zm3.5-1.4v6.1c0 .2 0 .3-.1.4-.1.1-.4.2-.8.2 0-.2-.1-.4-.2-.5h.4c.1 0 .2 0 .2-.1V112h-.8c0 .3-.1.5-.1.8-.1.7-.3 1.3-.6 1.8-.1-.2-.2-.4-.4-.5.3-.5.5-1 .6-1.6.1-.5.1-1.2.1-1.9v-2.8h1.7zm-.5 3.7v-1.3h-.8v1.4h.8zm0-1.8v-1.4h-.8v1.4h.8zm3-1.9v6.3c0 .2 0 .3-.1.4-.1.1-.4.1-.9.2 0-.2-.1-.4-.2-.5h.4c.2 0 .2 0 .2-.1v-2h-.9c0 .4-.1.7-.1 1-.1.7-.3 1.2-.5 1.7-.1-.2-.2-.4-.4-.5.2-.4.3-1 .4-1.5 0-.5.1-1.1.1-1.8v-3.1h2zm-.5 3.7v-1.3h-.9v1.4h.9zm0-1.8v-1.4h-.9v1.4h.9zM134.1 172.3v.9h2.8v2.6c0 .2 0 .3-.1.4-.1.1-.5.2-1 .2 0-.3-.1-.5-.2-.6h.5c.2 0 .3 0 .3-.1v-1.9h-2.2v3.3h-.6v-3.3h-2.2v2.7h-.5v-3.2h2.7v-.9h-2V170h4.7v2.4h-2.2zm-2.1-.5h3.6v-1.3H132v1.3zM136.6 182.7h-.6v-.5h-4.2c0 .5-.1 1-.3 1.5-.2.6-.6 1-1 1.5-.1-.2-.2-.3-.4-.5.4-.3.7-.7.9-1.3.1-.4.2-.9.2-1.7v-2h5.3v3zm.7-4.4v.5h-7v-.5h7zm-5.4 3.4 4.2.1v-1.6h-4.2v1.5zM131.2 187.8V186h.5v1.8h.9v.5h-.9v.7l.4.4c.1.1.3.2.5.4-.1.2-.2.3-.3.5-.2-.2-.4-.3-.5-.4 0 0-.1 0-.1-.1v3.7h-.5v-3.7c-.1.3-.2.5-.3.8-.2.4-.4.7-.5.8-.1-.2-.2-.4-.3-.5.3-.4.5-.7.7-1.1.2-.3.3-.7.5-1.3h-.9v-.5h.8zm3.4-1.4v6.1c0 .2 0 .3-.1.4-.1.1-.4.2-.8.2 0-.2-.1-.4-.2-.5h.4c.1 0 .2 0 .2-.1v-1.8h-.8c0 .3-.1.5-.1.8-.1.7-.3 1.3-.6 1.8-.1-.2-.2-.4-.4-.5.3-.5.5-1 .6-1.6.1-.5.1-1.2.1-1.9v-2.8h1.7zm-.5 3.7v-1.3h-.8v1.4h.8zm0-1.8v-1.4h-.8v1.4h.8zm3-1.9v6.3c0 .2 0 .3-.1.4-.1.1-.4.1-.9.2 0-.2-.1-.4-.2-.5h.4c.2 0 .2 0 .2-.1v-2h-.9c0 .4-.1.7-.1 1-.1.7-.3 1.2-.5 1.7-.1-.2-.2-.4-.4-.5.2-.4.3-1 .4-1.5 0-.5.1-1.1.1-1.8v-3.1h2zm-.5 3.7v-1.3h-.9v1.4h.9zm0-1.8v-1.4h-.9v1.4h.9zM219.9 115.7l-1.1 2.6-.5-.3 1.2-2.6c.1.1.3.2.4.3zm0-2.9-.4.5c-.3-.3-.6-.5-1.1-.7l.3-.5c.4.2.8.4 1.2.7zm3-1.1c0 .1-.1.1-.1.1.4.6.8 1 1.2 1.4.4.4.9.8 1.5 1.1-.2.2-.3.3-.4.5-.4-.2-.8-.5-1.2-.9-.5-.4-.9-.9-1.4-1.6-.3.5-.6.9-1 1.3-.5.5-1 1-1.5 1.3-.1-.2-.2-.3-.3-.5.5-.3.9-.6 1.4-1.1.5-.5.9-1.1 1.3-1.8l.5.2zm1.8 3.9v2c0 .3-.1.4-.2.5-.1.1-.4.1-.9.2 0-.2-.1-.4-.2-.6h.7c.1 0 .1 0 .1-.2V116h-1.8v2.9h-.6V116h-1.5v-.5h4.4zm-.9-1.4v.5h-2.5v-.5h2.5zM228.5 112v-.5h.5v.5h1.9v-.5h.5v.5h2v.4h-2v.6h.3v.6h1.8v.5h-1.8c0 .8 0 1.4.1 1.7 0 .3.1.6.1.8.3-.4.6-1 .9-1.7l.5.2c-.4.8-.8 1.5-1.2 2.1.1.2.1.3.2.4.2.3.3.4.4.4.1 0 .3-.2.5-.7.1.1.3.2.4.2-.2.5-.3.9-.5 1-.1.1-.2.2-.3.2-.3 0-.5-.1-.7-.4-.2-.2-.4-.4-.5-.7-.5.5-1.1.9-1.6 1.1-.1-.2-.2-.3-.4-.4.3-.1.6-.3.8-.5.3-.2.6-.5.9-.7l-.3-1.2c-.1-.4-.1-1-.1-1.8h-3.6v1c0 .8-.1 1.5-.2 1.9-.1.5-.4 1.1-.7 1.6-.1-.1-.3-.3-.5-.3.3-.4.5-.9.7-1.4.1-.4.2-.9.2-1.7v-1.4h4.1v-.6h.1v-.6h-2v.6h-.5v-.6h-2v-.6h2zm2.2 3.1h-1v.5h1v1.3h-1v.6h1v.4h-2.1v.4h-.5v-3.6h2.6v.4zm-1.4.6v-.5h-.7v.5h.7zm1 .9v-.6h-1.7v.6h1.7zm-1 1v-.6h-.7v.6h.7zm3.9-4.2-.3.3c-.2-.2-.5-.5-.8-.7l.3-.3c.4.3.6.6.8.7zM238.7 111.5v.7h3v.5h-6v2.7c0 .8 0 1.5-.1 1.9-.1.5-.3 1-.6 1.6-.1-.2-.3-.3-.5-.4.3-.4.5-.9.6-1.4.1-.3.1-.9.1-1.7v-3.2h2.9v-.7h.6zm-.1 2v-.6h.5v.6h2.3v.5h-2.3v.5h1.9v2.4h-1.9v.6h2.8v.5h-2.8v1h-.5v-1h-2.7v-.5h2.7v-.6h-1.9v-2.4h1.9v-.5h-2.2v-.5h2.2zm-1.4 2h1.3v-.5h-1.3v.5zm1.4.4h-1.3v.5h1.3v-.5zm.5-.4h1.4v-.5h-1.4v.5zm0 .4v.5h1.4v-.5h-1.4zM226.2 123.3v.6h3.3v.4h-3.3v.5h2.1v2.7h-4.2v-2.7h1.5v-.5h-3.5v-.4h3.5v-.6h-2.8v-1.7h6v1.7h-2.6zm-2.9 1.7v3h6.2v.5h-6.2v.4h-.5V125h.5zm.1-2.1h1.3v-.9h-1.3v.9zm1.3 2.7h3.1v-.4h-3.1v.4zm0 .3v.4h3.1v-.4h-3.1zm0 .8v.4h3.1v-.4h-3.1zm.5-3.8h1.4v-.9h-1.4v.9zm1.9 0h1.3v-.9h-1.3v.9zM231.3 123.5v-2h.5v2h.8v.5h-.8v2.4l.9-.3v.4c.3-.2.5-.4.7-.6.2-.2.4-.5.5-.8h-1.2v-.5h5.2v.5h-3.3c-.1.2-.2.4-.4.6h3.3c0 1 0 1.7-.1 2.1-.1.4-.2.6-.3.7-.1.1-.5.2-1 .2 0-.2-.1-.4-.2-.5h.7c.1 0 .2-.1.3-.4.1-.3.1-.8.1-1.5h-.5c-.3.7-.6 1.2-1 1.6-.4.4-.8.7-1.2.9-.1-.1-.2-.3-.4-.4.5-.2.9-.5 1.2-.9.3-.3.5-.7.8-1.2h-.7c-.2.5-.5.8-.8 1.1-.4.3-.7.5-1.1.7-.1-.1-.2-.3-.4-.4.4-.2.7-.4 1-.7.2-.2.4-.4.6-.8h-.7c-.3.3-.6.6-1.1.9-.1-.1-.2-.3-.3-.4-.7.2-1.3.4-1.9.6l-.1-.6c.3-.1.6-.2 1-.3v-2.6h-.8v-.5h.7zm2.3.7v-2.6h3.5v2.6h-3.5zm.6-1.6h2.4v-.5h-2.4v.5zm0 .5v.5h2.4v-.5h-2.4zM372.6 70.2l-.9 1.8-.4-.2 1-1.8c.2.1.3.2.3.2zm-.2-1.2-.2.3c-.2-.2-.5-.4-.8-.5l.2-.3c.3.1.6.3.8.5zm.3-1.4-.2.3c-.2-.3-.5-.5-.7-.6l.2-.3c.2.2.5.4.7.6zm1.1-.3c-.1.3-.2.5-.3.7h.8v-1h.4v1h1.4v.3h-1.4v1h1.7v.3h-1.2v1.8c0 .1 0 .1.1.1h.6c.1 0 .2-.1.2-.1.1-.1.1-.2.1-.4.1.1.2.1.4.1 0 .2-.1.4-.2.6-.1.2-.2.2-.4.2h-.7c-.3 0-.4-.2-.4-.5v-1.8h-.8c0 .7-.1 1.2-.3 1.5-.2.3-.6.6-1.1.8-.1-.1-.1-.3-.2-.4.5-.2.9-.5 1-.8.1-.3.2-.6.2-1.1h-1.1v-.3h1.7v-1h-1c-.1.3-.3.5-.4.7-.1-.1-.2-.2-.3-.2.2-.3.4-.5.5-.8.1-.3.2-.5.3-.8l.4.1zM378.1 68.8l-.2.3c-.2-.1-.5-.2-.7-.3l.1-.3c.3.1.5.2.8.3zm.2 1.4-.8 1.8-.3-.2.8-1.8c.1.1.2.2.3.2zm0-2.6-.2.3c-.2-.2-.4-.4-.6-.5l.2-.3c.2.1.4.3.6.5zm1.3 1.5c-.1.1-.1.2-.2.3h1c.1-.1.2-.3.3-.5l.3.1c-.1.1-.1.3-.2.4h1.3v.3h-1.4v.3h1.3v.3h-1.3v.4h1.3v.3h-1.3v.5h1.5v.3h-2.9v.2h-.4v-2.1l-.4.4c-.1-.1-.1-.2-.2-.3.2-.1.4-.3.6-.5.2-.2.3-.4.5-.7l.2.3zm.5-2v1.8h-.4v-.1h-1.1v-.3h1.1v-.4h-1.1v-.3h1.1v-.4h-1.1v-.3h1.5zm.3 2.5h-1.1v.4h1.1v-.4zm0 .7h-1.1v.4h1.1v-.4zm0 1.2V71h-1.1v.5h1.1zm1.6-4.4v1.8h-.4v-.1h-1.2v-.3h1.2v-.4h-1.2v-.3h1.2v-.4h-1.2v-.3h1.6zM383.6 68.1v-1.2h.4v1.2h.5v.4h-.5v.6c.1.1.1.2.2.2l.3.3c-.1.1-.2.2-.2.3l-.3-.3v2.5h-.4v-2.4c-.1.4-.3.7-.5 1-.1-.1-.1-.2-.2-.3.2-.3.3-.6.4-.9.1-.2.2-.5.2-.9h-.5v-.4h.6zm2-.9-.5.9.2.2.3-.5.3.2-.7 1.1h.4c0-.1-.1-.2-.1-.3l.3-.1c.1.2.3.5.4.7-.1-.5-.1-1.3-.1-2.4h.4v1l.2-.2c.1 0 .1.1.2.1l.3-.8.3.2-.4.8.2.2.3-.5.3.2-.7 1.1h.4c0-.1-.1-.2-.1-.2l.3-.1c.1.2.2.5.3.8l-.4.1c0-.1 0-.1-.1-.2-.4.1-.8.1-1.1.1l-.1-.4h.2l.3-.5c-.2-.2-.4-.4-.7-.5 0 .7.1 1.2.1 1.6v.2h.6c0-.1-.1-.2-.1-.3l.3-.1c.1.1.2.3.2.4h.5v.4h-1.4c0 .2.1.4.2.5 0 .1.1.2.2.3.2-.2.4-.4.5-.6l.3.2c-.1.2-.3.4-.6.6.2.2.3.3.4.3 0 0 .1-.1.2-.5.1.1.2.1.4.2-.1.4-.2.6-.3.6 0 .1-.1.1-.2.1-.2 0-.5-.1-.7-.3l-.2-.2c-.4.3-.8.4-1.2.6 0-.1-.1-.2-.2-.4.4-.1.7-.3 1.1-.5h.1c-.1-.1-.1-.2-.2-.4s-.2-.5-.2-.7h-.7c0 .2-.1.3-.1.4.3.1.5.3.7.5l-.2.3c-.2-.2-.4-.3-.6-.4 0 .1-.1.2-.1.3-.1.3-.3.6-.6.9l-.3-.3c.2-.2.4-.5.5-.8.1-.2.2-.5.3-.8h-.6v-.4h1.7V69.6l-.3.1c0-.1 0-.1-.1-.2-.4.1-.8.1-1.1.1l-.1-.4h.2l.3-.5c-.2-.2-.5-.4-.7-.6l.2-.3c.1.1.2.1.2.2l.4-.9.6.1zM377.1 75.1v.4h2.3v.3h-2.3v.4h1.5v1.9h-2.9v-1.9h1.1v-.4h-2.4v-.3h2.4v-.4h-2V74h4.2v1.2h-1.9zm-2.1 1.2v2.1h4.4v.3H375v.3h-.4v-2.7h.4zm.1-1.5h.9v-.6h-.9v.6zm.9 1.9h2.2v-.3H376v.3zm0 .3v.3h2.2V77H376zm0 .5v.3h2.2v-.3H376zm.4-2.7h1v-.6h-1v.6zm1.3 0h.9v-.6h-.9v.6zM380.6 75.3v-1.4h.4v1.4h.6v.4h-.6v1.7c.2-.1.4-.1.6-.2v.3c.2-.1.4-.3.5-.4.1-.2.3-.3.4-.6h-.9v-.4h3.6v.4h-2.3c-.1.2-.2.3-.2.4h2.3c0 .7 0 1.2-.1 1.5-.1.2-.1.4-.2.5-.1.1-.3.1-.7.1 0-.1 0-.3-.1-.4h.5c.1 0 .1-.1.2-.3 0-.2.1-.6.1-1.1h-.3c-.2.5-.4.8-.7 1.1-.3.3-.6.5-.9.6 0-.1-.1-.2-.2-.3.3-.2.6-.4.8-.6.2-.2.4-.5.5-.9h-.5c-.2.3-.4.6-.6.8-.3.2-.5.4-.7.5 0-.1-.1-.2-.2-.3.3-.1.5-.3.7-.5.1-.1.3-.3.4-.5h-.5c-.2.2-.4.4-.8.6-.1-.1-.1-.2-.2-.3-.5.2-.9.3-1.4.4l-.1-.4c.2 0 .4-.1.7-.2v-1.8h-.6V75h.5zm1.7.4v-1.8h2.4v1.8h-2.4zm.4-1h1.7v-.4h-1.7v.4zm0 .3v.4h1.7V75h-1.7zM417.3 111.3l-2.1 4.4-.9-.5 2.2-4.4c.3.3.6.4.8.5zm-.5-3-.5.8c-.5-.5-1.1-.9-1.8-1.3l.4-.8c.7.4 1.3.8 1.9 1.3zm.6-3.3-.5.8c-.6-.6-1.2-1-1.8-1.4l.5-.7c.7.4 1.3.8 1.8 1.3zm5.1 1.2c-.1.1-.1.2-.2.3.7.8 1.4 1.5 2.1 2 .8.6 1.7 1.1 2.7 1.6-.3.3-.5.6-.7.9-.7-.3-1.4-.8-2.2-1.4-.8-.6-1.6-1.4-2.5-2.3-.5.7-1.1 1.3-1.6 1.9-.9.8-1.6 1.4-2.2 1.8-.2-.3-.4-.6-.6-.8.8-.5 1.6-1.1 2.3-1.9.7-.7 1.4-1.5 2-2.6l.9.5zm-1.4-2.2c-.8 1.1-1.7 1.9-2.8 2.6-.1-.3-.4-.6-.7-.8 1.1-.6 2-1.4 2.7-2.5l.8.7zm3.8 11.5h-.9v-.7h-3.8v.9h-.9v-5.4h5.7v5.2zm-.9-1.6v-2.8h-3.8v2.8h3.8zm.8-9.3c.4.3.9.6 1.4.7-.2.2-.4.5-.6.8-.6-.3-1.1-.6-1.6-1s-.9-.7-1.2-1l.5-.7c.6.5 1 .9 1.5 1.2zM434.3 112v-1.2h1v1.2h4.3v.8h-4.3v1.5h5.5v.8h-12.1v-.8h5.7v-1.5h-4.1v-.8h4zm.9-8.7v1.4h4.9v2.7h-1v.4H434l-1.1 2c1.4-.1 2.9-.2 4.3-.3-.3-.3-.6-.5-.9-.7l.7-.7c1.2.9 2.1 1.7 2.7 2.2l-.7.7-.8-.8c-3.2.3-6 .5-8.3.6l-.2-.9c.7 0 1.4 0 2.1-.1l1.2-2h-2.9v-.4h-.9v-2.7h4.9v-1.4h1.1zm4 3.6v-1.3h-9v1.3h9zM417 126.3c-.8-.7-1.3-1.4-1.7-2.1-.5-.8-.7-1.7-.7-2.7 0-1 .2-1.9.7-2.7.4-.6.9-1.3 1.7-2.1l.5.5c-.7.7-1.2 1.3-1.6 1.9-.4.7-.6 1.6-.6 2.4 0 .9.2 1.7.6 2.4.3.6.9 1.2 1.6 1.9l-.5.5zM420.6 124.8v-5.9c-.5.3-1 .5-1.4.6v-.8c.5-.1 1-.3 1.4-.6h.8v6.7h-.8zM426.9 124.3c-.5.4-.9.6-1.5.6-1.2 0-2-.6-2.2-1.9h.9c.2.8.6 1.2 1.4 1.2.4 0 .7-.1 1-.4.3-.2.4-.5.4-.9 0-1-.5-1.5-1.6-1.5h-.8v-.6h.5c1.1 0 1.6-.4 1.6-1.3 0-.3-.1-.6-.3-.9-.2-.2-.5-.4-.8-.4-.7 0-1.1.4-1.2 1.1h-.8c.2-1.1.8-1.7 2-1.7.5 0 1 .2 1.4.5.4.3.6.7.6 1.3 0 .6-.3 1.1-1 1.5.8.4 1.2 1.1 1.2 1.8-.1.8-.4 1.3-.8 1.6zM430.8 124.8v-5.9c-.5.3-1 .5-1.4.6v-.8c.5-.1 1-.3 1.4-.6h.8v6.7h-.8zM436 121.6c-.4.9-.5 2-.5 3.1h-.8c0-1.2.1-2.2.4-3.1.3-.9.9-1.8 1.7-2.9h-3.4v-.7h4.2v.8c-.7 1.1-1.3 2-1.6 2.8zM440.5 124.2c-.4.7-.9 1.3-1.7 2.1l-.5-.5c.7-.7 1.2-1.3 1.6-1.9.4-.7.6-1.5.6-2.4 0-.9-.2-1.7-.6-2.4-.3-.6-.9-1.2-1.6-1.9l.5-.5c.8.7 1.3 1.4 1.7 2.1.5.8.7 1.7.7 2.7 0 1-.2 1.9-.7 2.7zM408.1 150.2c-.5.7-1.2 1.2-2.3 1.6-.1-.2-.2-.4-.2-.5.9-.2 1.6-.6 2-1.2.5-.6.7-1.4.8-2.4h-3.1v1.6h-.4v-2.1h1.8V146h.4v1.2h1.8c-.1 1.4-.4 2.4-.8 3zM412.2 149v2.3c0 .2 0 .4-.1.5-.1.1-.3.1-.7.2 0-.2-.1-.4-.1-.5h.3c.1 0 .2-.1.2-.2v-1.7c-.6.8-1.3 1.4-2.1 1.9-.1-.1-.2-.3-.3-.4.9-.5 1.6-1.2 2.2-2h-2v-.4h2.1v-1h.4v1h1.3v.4h-1.2zM414 149.3v-.5h4.6v.5H414zM421.9 150.2c-.6.7-1.3 1.2-2.3 1.5-.1-.1-.1-.3-.2-.5.8-.2 1.5-.6 2-1.2.4-.5.9-1.2 1.2-2.2h-1.8c-.4.7-.9 1.3-1.4 1.9-.1-.1-.3-.2-.4-.3.5-.4.8-.9 1.1-1.3.2-.4.5-.9.8-1.6l.5.2c-.1.2-.2.5-.4.8h1.9l.1-.1.3.3c-.4 1.1-.9 1.9-1.4 2.5zM426.8 148.2v3.6h-.4v-3.2c-.8.6-1.5 1.1-2.2 1.5-.1-.2-.1-.3-.2-.5.7-.3 1.4-.8 2.1-1.4.7-.6 1.2-1.2 1.8-1.9l.4.4-1.5 1.5zM431.5 150.2c-.6.5-1.4 1-2.3 1.5l-.3-.6c1.6-.6 3-1.7 4.1-3.3.1.2.2.3.3.4-.6.8-1.2 1.5-1.8 2zm-1.2-2c-.4-.4-.9-.8-1.3-1.1l.3-.4c.5.3.9.7 1.3 1.1l-.3.4zM436.9 150.2c-.6.7-1.3 1.2-2.3 1.5-.1-.1-.1-.3-.2-.5.8-.2 1.5-.6 2-1.2.4-.5.9-1.2 1.2-2.2h-1.8c-.4.7-.9 1.3-1.4 1.9-.1-.1-.3-.2-.4-.3.5-.4.8-.9 1.1-1.3.2-.4.5-.9.8-1.6l.5.2c-.1.2-.2.5-.4.8h1.9l.1-.1.3.3c-.4 1.1-.9 1.9-1.4 2.5zM442.4 151.3v-.4h-3v.4h-.4V147h3.9v4.3h-.5zm0-3.8h-3v2.9h3v-2.9zM443.5 149.3v-.5h4.6v.5h-4.6zM451.7 149.9l-.3-.4c.5-.5.9-.9 1.3-1.4l-2.2.4v2.1c0 .3.2.4.6.5h.9c.5 0 1 0 1.4-.1v.5c-.6 0-1.1.1-1.5.1-.5 0-.9 0-1.1-.1-.4-.1-.6-.4-.6-.9v-2.1l-1.4.2-.1-.5 1.5-.2v-1.7h.4v1.6l2.4-.4.1-.1.4.4c-.8 1-1.3 1.6-1.8 2.1zm1.4-2.5c-.1-.2-.4-.4-.6-.6l.2-.3c.3.2.5.4.7.6l-.3.3zm.4-.5c-.1-.2-.4-.4-.6-.6l.2-.3c.3.2.5.4.7.6l-.3.3zM454.7 149.6c-.1-.3-.3-.7-.6-1.1l.3-.2c.2.4.4.7.6 1.2l-.3.1zm2.6.2c-.3.6-.6 1-1 1.4-.3.3-.8.6-1.4.8-.1-.2-.1-.3-.2-.4.5-.2.9-.4 1.3-.6.4-.3.7-.7.9-1.2.2-.4.4-1 .5-1.7l.4.1c-.1.7-.3 1.2-.5 1.6zm-1.5-.6c-.1-.4-.3-.8-.5-1.1l.4-.2c.2.4.4.8.5 1.1l-.4.2zM461.9 149.8c-.6-.4-1.4-.8-2.4-1.2v3.3h-.5v-5.6h.4v1.8c.9.3 1.8.7 2.7 1.2l-.2.5zM251.7 193.9c-.2.5-.4 1-.7 1.4l-.3-.3c.5-.7.9-1.6 1.1-2.8l.3.2c-.1.6-.2 1.1-.4 1.5zm2.3 1.3c-.3-1-.7-1.9-1.1-2.8l.3-.2c.5.9.9 1.9 1.2 2.8l-.4.2zM256.6 194.5c-.4.4-1 .8-1.6 1.1l-.2-.4c1.1-.4 2.1-1.3 2.9-2.5.1.1.1.2.2.3-.4.7-.8 1.2-1.3 1.5zm-.8-1.5c-.3-.3-.6-.6-.9-.8l.2-.3c.3.2.7.5.9.8l-.2.3zM261.5 193.9c0 .5-.1.9-.1 1.2 0 .1-.1.2-.2.3-.1.1-.3.1-.7.2 0-.1-.1-.2-.1-.4h.3c.1 0 .2-.1.3-.2.1-.1.1-.4.1-.8v-1.1h-1c-.1.6-.2 1.2-.5 1.6-.2.4-.6.8-1 1.1-.1-.1-.1-.2-.2-.3.4-.3.7-.6.9-.9.2-.4.4-.8.4-1.4h-1.1v-.4h1.1v-1h.3v1h1.3l.2 1.1zm-.1-1.4-.5-.5.1-.2c.2.2.4.3.5.5l-.1.2zm.3-.4-.5-.5.1-.2c.2.2.4.3.5.5l-.1.2zM262.1 193.9v-.3h3.2v.3h-3.2zM266.6 193.9c-.2.5-.4 1-.7 1.4l-.3-.3c.5-.7.9-1.6 1.1-2.8l.3.2c0 .6-.2 1.1-.4 1.5zm2.4 1.3c-.3-1-.7-1.9-1.1-2.8l.3-.2c.5.9.9 1.9 1.2 2.8l-.4.2zm.2-2.7c-.1.1-.2.2-.3.2-.1 0-.2 0-.3-.1-.1-.1-.1-.2-.1-.3 0-.1 0-.3.1-.3.1-.1.2-.1.3-.1.1 0 .2 0 .3.1.1.1.1.2.1.3 0 0 0 .1-.1.2zm-.1-.5s-.1-.1-.2-.1c-.2 0-.2.1-.2.3 0 .1 0 .1.1.2 0 .1.1.1.2.1s.1 0 .2-.1c0 0 .1-.1.1-.2-.2-.1-.2-.2-.2-.2zM271.7 193.1v2.7h-.3v-2.4c-.5.5-1.1.9-1.6 1.1 0-.1-.1-.3-.2-.4.5-.2 1-.6 1.5-1.1.5-.4.9-.9 1.3-1.4l.3.3c-.4.5-.7.8-1 1.2zM275.3 194.5c-.4.5-.9.9-1.6 1.2 0-.1-.1-.2-.2-.4.6-.2 1.1-.6 1.5-1 .3-.4.6-1 .8-1.8h-2.6v-.4h2.7l.2.3c-.2 1-.5 1.7-.8 2.1zm1.4-2.4c-.1.1-.2.2-.3.2-.1 0-.2 0-.3-.1-.1-.1-.1-.2-.1-.3 0-.1 0-.3.1-.3.1-.1.2-.1.3-.1.1 0 .2 0 .3.1.1.1.1.2.1.3 0 0-.1.1-.1.2zm-.2-.5s-.1-.1-.2-.1c-.2 0-.2.1-.2.3 0 .1 0 .1.1.2 0 .1.1.1.2.1s.1 0 .2-.1c0 0 .1-.1.1-.2-.1-.1-.1-.2-.2-.2zM256.4 229.2c-.2.5-.4 1-.7 1.4l-.3-.3c.5-.7.9-1.6 1.1-2.8l.3.2c-.1.6-.3 1.1-.4 1.5zm2.3 1.2c-.3-1-.7-1.9-1.1-2.8l.3-.2c.5.9.9 1.9 1.2 2.8l-.4.2zM261.3 229.8c-.4.4-1 .8-1.6 1.1l-.2-.4c1.1-.4 2.1-1.3 2.9-2.5.1.1.1.2.2.3-.4.6-.9 1.2-1.3 1.5zm-.9-1.5c-.3-.3-.6-.6-.9-.8l.2-.3c.3.2.7.5.9.8l-.2.3zM266.1 229.2c0 .5-.1.9-.1 1.2 0 .1-.1.2-.2.3-.1.1-.3.1-.7.2 0-.1-.1-.2-.1-.4h.3c.1 0 .2-.1.3-.2.1-.1.1-.4.1-.8v-1.1h-1c-.1.6-.2 1.2-.5 1.6-.2.4-.6.8-1 1.1-.1-.1-.1-.2-.2-.3.4-.3.7-.6.9-.9.2-.4.4-.8.4-1.4h-1.1v-.5h1.1v-1h.3v1h1.3l.2 1.2zm0-1.4-.5-.5.1-.2c.2.2.4.3.5.5l-.1.2zm.3-.4-.5-.5.1-.2c.2.2.4.3.5.5l-.1.2zM266.7 229.1v-.3h3.2v.3h-3.2zM271.3 229.2c-.2.5-.4 1-.7 1.4l-.3-.3c.5-.7.9-1.6 1.1-2.8l.3.2c-.1.6-.3 1.1-.4 1.5zm2.3 1.2c-.3-1-.7-1.9-1.1-2.8l.3-.2c.5.9.9 1.9 1.2 2.8l-.4.2zm.3-2.6c-.1.1-.2.2-.3.2-.1 0-.2 0-.3-.1-.1-.1-.1-.2-.1-.3 0-.1 0-.3.1-.3.1-.1.2-.1.3-.1.1 0 .2 0 .3.1.1.1.1.2.1.3s-.1.1-.1.2zm-.2-.5s-.1-.1-.2-.1c-.2 0-.2.1-.2.3 0 .1 0 .1.1.2 0 .1.1.1.2.1s.1 0 .2-.1c0 0 .1-.1.1-.2-.1-.1-.1-.2-.2-.2zM276.3 228.3v2.7h-.3v-2.4c-.5.5-1.1.9-1.6 1.1 0-.1-.1-.3-.2-.4.5-.2 1-.6 1.5-1.1.5-.4.9-.9 1.3-1.4l.3.3c-.3.6-.7.9-1 1.2zM279.9 229.8c-.4.5-.9.9-1.6 1.2 0-.1-.1-.2-.2-.4.6-.2 1.1-.6 1.5-1 .3-.4.6-1 .8-1.8h-2.6v-.4h2.7l.2.3c-.1 1-.4 1.7-.8 2.1zm1.4-2.4c-.1.1-.2.2-.3.2-.1 0-.2 0-.3-.1-.1-.1-.1-.2-.1-.3 0-.1 0-.3.1-.3.1-.1.2-.1.3-.1.1 0 .2 0 .3.1.1.1.1.2.1.3 0 0 0 .1-.1.2zm-.1-.5s-.1-.1-.2-.1c-.2 0-.2.1-.2.3 0 .1 0 .1.1.2 0 .1.1.1.2.1s.1 0 .2-.1c0 0 .1-.1.1-.2-.2-.1-.2-.2-.2-.2zM256.7 202.6c-.1-.1-.2-.2-.4-.3.4-.5.7-1.2 1-1.9l.4.2c-.3.7-.6 1.4-1 2zm2.1-3v3.7h-.4v-3.7h-2v-.5h2v-1.4h.4v1.4h2.2v.5h-2.2zm1.9 2.8c-.5-.5-.9-1.2-1.2-1.9l.4-.3c.4.8.8 1.4 1.2 1.9-.2.1-.3.2-.4.3zM261.4 200.8v-.5h4.3v.5h-4.3zM267.6 201.1c-.2.8-.6 1.5-1.2 2.1-.1-.2-.2-.3-.3-.4.4-.4.8-.8.9-1.4.2-.4.3-1 .3-1.7v-1.2h.4c.1 1.2 0 2-.1 2.6zm1.4 1.9-.3-.4.1-.1V198h.4v4.2c.6-.5 1.2-1.2 1.7-2l.3.3c-.7 1.1-1.4 2-2.2 2.5zM253.2 207.5c-.5.7-1.3 1.2-2.1 1.5-.1-.1-.1-.3-.2-.5.8-.2 1.4-.6 1.9-1.2.4-.5.8-1.2 1.2-2.2h-1.7c-.4.7-.8 1.3-1.3 1.9-.1-.1-.2-.2-.4-.3.4-.4.8-.9 1-1.3.2-.4.5-.9.7-1.6l.5.2c-.1.2-.2.5-.3.8h1.8l.1-.1.3.3c-.6 1-1 1.9-1.5 2.5zM258.4 208.6v-.4h-2.8v.4h-.4v-4.3h3.6v4.3h-.4zm0-3.9h-2.8v2.9h2.8v-2.9zM259.5 206.5v-.5h4.3v.5h-4.3zM267.2 207.1l-.3-.4c.5-.5.9-.9 1.2-1.4l-2.1.4v2.1c0 .3.2.4.6.5h.8c.5 0 .9 0 1.3-.1v.5c-.5 0-1 .1-1.4.1-.5 0-.8 0-1.1-.1-.4-.1-.6-.4-.6-.9v-2.1l-1.3.2-.1-.5 1.4-.2v-1.7h.4v1.6l2.2-.4.1-.1.4.4c-.6 1-1.1 1.7-1.5 2.1zm1.3-2.4c-.1-.2-.3-.4-.6-.6l.2-.3c.3.2.5.4.6.6l-.2.3zm.4-.5c-.1-.2-.3-.4-.6-.6l.2-.3c.3.2.5.4.6.6l-.2.3zM270 206.9c-.1-.3-.3-.7-.6-1.1l.3-.2c.2.4.4.7.6 1.2l-.3.1zm2.5.2c-.2.6-.6 1-.9 1.4-.3.3-.8.6-1.3.8-.1-.2-.1-.3-.2-.4.5-.2.9-.4 1.2-.6.3-.3.6-.7.9-1.2.2-.4.4-1 .5-1.7l.4.1c-.3.6-.4 1.2-.6 1.6zm-1.4-.6c-.1-.4-.3-.8-.4-1.1l.3-.2c.2.4.4.8.5 1.1l-.4.2zM276.8 207c-.6-.4-1.4-.8-2.3-1.2v3.3h-.4v-5.6h.4v1.8c.9.3 1.7.7 2.5 1.2l-.2.5zM257.8 220.1c-.5.7-1.3 1.2-2.1 1.5-.1-.1-.1-.3-.2-.5.8-.2 1.4-.6 1.9-1.2.4-.5.8-1.2 1.2-2.2h-1.7c-.4.7-.8 1.3-1.3 1.9-.1-.1-.2-.2-.4-.3.4-.4.8-.9 1-1.3.2-.4.5-.9.7-1.6l.5.2c-.1.2-.2.5-.3.8h1.8l.1-.1.3.3c-.6 1-1.1 1.9-1.5 2.5zM263 221.2v-.4h-2.8v.4h-.4v-4.3h3.6v4.3h-.4zm0-3.9h-2.8v2.9h2.8v-2.9zM264 219.1v-.5h4.3v.5H264zM271.7 219.7l-.3-.4c.5-.5.9-.9 1.2-1.4l-2.1.4v2.1c0 .3.2.4.6.5h.8c.5 0 .9 0 1.3-.1v.5c-.5 0-1 .1-1.4.1-.5 0-.8 0-1.1-.1-.4-.1-.6-.4-.6-.9v-2.1l-1.3.2-.1-.5 1.4-.2v-1.7h.4v1.6l2.2-.4.1-.1.4.4c-.5 1-1 1.6-1.5 2.1zm1.4-2.5c-.1-.2-.3-.4-.6-.6l.2-.3c.3.2.5.4.6.6l-.2.3zm.3-.5c-.1-.2-.3-.4-.6-.6l.2-.3c.3.2.5.4.6.6l-.2.3zM274.6 219.5c-.1-.3-.3-.7-.6-1.1l.3-.2c.2.4.4.7.6 1.2l-.3.1zm2.5.1c-.2.6-.6 1-.9 1.4-.3.3-.8.6-1.3.8-.1-.2-.1-.3-.2-.4.5-.2.9-.4 1.2-.6.3-.3.6-.7.9-1.2.2-.4.4-1 .5-1.7l.4.1c-.3.7-.5 1.2-.6 1.6zm-1.5-.5c-.1-.4-.3-.8-.4-1.1l.3-.2c.2.4.4.8.5 1.1l-.4.2zM281.4 219.6c-.6-.4-1.4-.8-2.3-1.2v3.3h-.4v-5.6h.4v1.8c.9.3 1.7.7 2.5 1.2l-.2.5zM212.2 43.7v-.5h.4v.5h2.5v.4h-2.5v.5h2v2.1h-.8v.5h1.5v.4h-1.5v1c0 .2-.1.3-.2.3-.2.1-.4.1-.7.1 0-.2-.1-.3-.2-.5h.6c.1 0 .1 0 .1-.1v-.9h-3.8v-.4h3.8v-.5h-3v-2.1h1.9V44h-2.5v-.4h2.4zm-.5 4.6-.4.3c-.2-.3-.4-.5-.7-.8l.3-.3.8.8zm-1-2.9h1.5V45h-1.5v.4zm1.5.4h-1.5v.5h1.5v-.5zm.4-.4h1.5V45h-1.5v.4zm0 .4v.5h1.5v-.5h-1.5zM221.3 43.6v4.9c0 .2-.1.4-.2.4-.1.1-.4.1-.7.1 0-.2-.1-.3-.2-.5h.5c.1 0 .1 0 .1-.1v-1.5h-1.7V49h-.4v-2.1h-1.5c-.1.9-.3 1.6-.8 2.2-.1-.2-.3-.3-.4-.4.5-.6.8-1.4.8-2.5v-2.7h4.5zm-2.6 2.9v-1h-1.5v1.1h1.5zm0-1.4V44h-1.5v1.1h1.5zm.5 0h1.7V44h-1.7v1.1zm0 1.4h1.7v-1h-1.7v1zM200.1 54.7c-.7-.4-1.6-.8-2.7-1.2v3.3h-.5v-5.6h.5V53c1 .3 2 .7 3 1.2l-.3.5zM204.5 55.6c-.6.5-1.4.9-2.5 1.2 0-.2-.1-.3-.2-.5.9-.2 1.6-.5 2.1-.9.6-.4 1-1.1 1.5-1.9h-4.2V53h4.6l.3.3c-.6 1.1-1.1 1.8-1.6 2.3zm-2.7-3.6v-.5h3.5v.5h-3.5zM209.7 55.1c-.7.5-1.5 1-2.5 1.5l-.3-.6c1.8-.6 3.3-1.7 4.6-3.3.1.2.2.3.4.4-.9.9-1.6 1.6-2.2 2zm-1.4-2c-.5-.4-1-.8-1.4-1.1l.3-.4c.5.3 1 .7 1.5 1.1l-.4.4zM215.7 55.2c-.6.7-1.5 1.2-2.5 1.5-.1-.1-.2-.3-.3-.5.9-.2 1.7-.6 2.2-1.2.5-.5 1-1.2 1.4-2.2h-2.1c-.4.7-1 1.3-1.5 1.9-.1-.1-.3-.2-.4-.3.5-.4.9-.9 1.2-1.3.2-.4.5-.9.9-1.6l.5.2c-.1.2-.2.5-.4.8h2.1l.1-.1.3.3c-.5 1-1 1.9-1.5 2.5zM219.5 54.5c-.2.8-.7 1.5-1.4 2.1-.1-.2-.2-.3-.3-.4.5-.4.9-.8 1.1-1.4.2-.4.3-1 .3-1.7v-1.2h.5c0 1.2-.1 2.1-.2 2.6zm1.6 2-.4-.4.1-.1v-4.5h.5v4.2c.7-.5 1.4-1.2 2-2 .1.1.2.2.4.3-.9 1.1-1.7 1.9-2.6 2.5zM224.2 54.2v-.5h5.1v.5h-5.1zM234.5 56.5c-.1-.2-.2-.4-.4-.7-2 .3-3.4.5-4.3.6l-.1-.6h.7c.6-1.2 1.2-2.6 1.7-4.3l.6.2c-.8 1.9-1.4 3.2-1.8 4 .9-.1 1.9-.2 3-.3-.3-.5-.7-1.1-1.1-1.6l.4-.3c.8 1 1.4 1.9 1.8 2.7l-.5.3zM287 156.9c-.2-.2-.5-.4-.8-.6.8-.9 1.5-2.1 2.2-3.4l.8.4c-.7 1.4-1.5 2.6-2.2 3.6zm4.3-5.1v6.5h-.8v-6.5h-4.2v-.8h4.2v-2.5h.8v2.5h4.5v.8h-4.5zm3.8 4.9c-.9-.9-1.8-2.1-2.5-3.4l.8-.5c.8 1.3 1.6 2.4 2.5 3.3-.3.2-.6.4-.8.6zM296.7 153.8v-.8h8.9v.8h-8.9zM309.4 154.3c-.4 1.4-1.2 2.7-2.4 3.7-.2-.3-.4-.5-.6-.8.9-.7 1.6-1.4 2-2.4.3-.8.5-1.8.6-3v-2.1h.9c-.1 2.1-.2 3.6-.5 4.6zm2.9 3.4-.6-.7.1-.1V149h.8v7.4c1.2-.9 2.4-2 3.5-3.5.2.2.4.4.7.6-1.5 1.8-3 3.2-4.5 4.2zM262.6 78.9v-1.2h.4v1.2h.6v.4h-.6v1c.2-.1.4-.1.7-.2v.4c-.2.1-.5.1-.7.2v1.7c0 .1-.1.2-.2.3-.1.1-.3.1-.6.1 0-.1 0-.3-.1-.4h.5c.1 0 .1 0 .1-.1v-1.5c-.3.1-.6.2-.8.2l-.1-.4c.3-.1.6-.1.9-.2v-1.1h-.9v-.4h.8zm4-.8c-.8.3-1.5.4-2.1.5v.9h2.3v.4h-.7v2.9h-.4v-2.9h-1.2v.2c0 .5-.1.9-.2 1.3-.1.5-.3.9-.6 1.3-.1-.1-.2-.2-.3-.2.3-.4.4-.7.6-1.1.1-.4.2-.8.2-1.2v-1.9l.3.1c.7-.1 1.4-.2 2-.5l.1.2zM270.2 77.7v1.8h1.8v.4h-1.8v2.3h2.3v.4h-5v-.4h2.2v-4.5h.5zM278.1 78v.4h-2.2v1.2h2v.3H276c.1.5.4.9.7 1.3.4.5 1 .8 1.6 1-.1.1-.2.2-.3.4-.7-.3-1.2-.7-1.6-1.2-.3-.3-.5-.6-.6-1-.1.4-.2.7-.4 1-.4.5-1 1-1.9 1.3-.1-.2-.1-.3-.2-.4 1-.4 1.6-.8 1.9-1.4.1-.3.2-.6.3-1h-1.8v-.3h1.8v-1.2h-2.1V78h4.7zM280.3 78.8v-1.1h.4v1.1h1.5v-1.2h.4v1.2h1.1v.4h-1.1v1.3h1.5v.4h-1.5v1.9h-.4v-1.9h-1.5c-.1.3-.1.6-.3.9-.2.4-.6.7-1.1 1l-.3-.3c.5-.2.9-.5 1.1-.9.1-.2.2-.4.2-.7h-1.4v-.4h1.4v-1.3h-1.1v-.4h1.1zm1.9.4h-1.5v1.3h1.5v-1.3zM213.1 69.9v-1.8h.5v1.8h.9v.5h-.9v.7l.4.4c.1.1.3.2.5.4-.1.2-.2.3-.3.5-.2-.2-.4-.3-.5-.4 0 0-.1 0-.1-.1v3.7h-.5v-3.7c-.1.3-.2.5-.3.8-.2.4-.4.7-.5.8-.1-.2-.2-.4-.3-.5.3-.4.5-.7.7-1.1.2-.3.3-.7.5-1.3h-.9v-.5h.8zm3.4-1.4v6.1c0 .2 0 .3-.1.4-.1.1-.4.2-.8.2 0-.2-.1-.4-.2-.5h.4c.1 0 .2 0 .2-.1v-1.8h-.8c0 .3-.1.5-.1.8-.1.7-.3 1.3-.6 1.8-.1-.2-.2-.4-.4-.5.3-.5.5-1 .6-1.6.1-.5.1-1.2.1-1.9v-2.8h1.7zm-.5 3.7v-1.3h-.8v1.4h.8zm0-1.8V69h-.8v1.4h.8zm3.1-1.9v6.3c0 .2 0 .3-.1.4-.1.1-.4.1-.9.2 0-.2-.1-.4-.2-.5h.4c.2 0 .2 0 .2-.1v-2h-.9c0 .4-.1.7-.1 1-.1.7-.3 1.2-.5 1.7-.1-.2-.2-.4-.4-.5.2-.4.3-1 .4-1.5 0-.5.1-1.1.1-1.8v-3.1h2zm-.5 3.7v-1.3h-.9v1.4h.9zm0-1.8V69h-.9v1.4h.9zM299.7 197v-3.8h.4v3.5h2.4v.4h-2.8zM305.5 192.9v.3h-.5v.6h.6v.3h-.6v1h-.3v-1h-.6c0 .2-.1.4-.2.6-.1.3-.4.5-.7.7-.1-.1-.1-.2-.2-.3.3-.1.5-.3.6-.6.1-.1.1-.2.1-.4h-.6v-.3h.7v-.6h-.5v-.3h2.2zm-.4 2.8v-.4h.3v.4h1.5v.3h-1.5v.6h2v.3h-4.3v-.3h2v-.6h-1.4v-.3h1.4zm-.4-2.5h-.6v.6h.6v-.6zm1.5-.2v1.8h-.3V193h.3zm1-.2v2.3c0 .1-.1.2-.2.2-.1.1-.3.1-.5.1 0-.1 0-.2-.1-.4h.4s.1 0 .1-.1v-2.2h.3zM312 193.2c-.4.1-.9.2-1.6.2v.7h1.7v.3h-1.7v.8h2v.3h-2v1.2c0 .1-.1.2-.2.3-.1.1-.4.1-.6.1 0-.1 0-.3-.1-.4h.5c.1 0 .1 0 .1-.1v-1.1h-1.9v-.3h1.9v-.8h-1.7v-.3h1.7v-.7c-.5 0-1.1.1-1.5.1 0-.2-.1-.3-.2-.3.7 0 1.3 0 1.9-.1.5-.1 1.1-.1 1.6-.2l.1.3zM313.5 193.7v-1h.3v1h.4v.3h-.4v.7c.1 0 .3-.1.4-.2v.3c-.1.1-.3.1-.4.2v1.7c0 .1-.1.2-.2.2s-.3.1-.6.1c0-.1 0-.2-.1-.3h.5c.1 0 .1 0 .1-.1v-1.5c-.2.1-.4.2-.6.2l-.1-.3c.2-.1.4-.1.7-.2v-.8h-.6v-.3h.6zm2.1-.8v1.8l.3.1-.1.4h1.1v2h-.3v-.2H315v.2h-.3v-2h.9l.1-.4c-.1 0-.2.1-.5.1 0-.1 0-.3-.1-.3h.2c.1 0 .1 0 .1-.1v-1.3h-1v-.3h1.2zm-.5 1.4c-.3.1-.6.2-.8.3l-.1-.3c.2-.1.5-.2.9-.3v.3zm-.1-.6-.2.2-.4-.4.1-.2c.2.2.3.3.5.4zm1.5 2.2v-.4h-1.6v.4h1.6zm0 .7v-.5h-1.6v.5h1.6zm.6-3.7v1.7c0 .1 0 .2-.1.2s-.2.1-.5.1c0-.1 0-.3-.1-.3H316.7v-1.3h-1v-.3h1.4zm-.7.8-.2.2c-.1-.1-.3-.2-.5-.3l.1-.2c.3.1.5.2.6.3zm.2.5c-.3.1-.5.2-.7.3l-.1-.3c.2-.1.5-.2.8-.3v.3zM253.3 116.4c-.4-.4-.7-.8-.9-1.1-.3-.4-.4-.9-.4-1.5 0-.5.1-1 .4-1.5.2-.3.5-.7.9-1.1l.3.3c-.4.4-.7.7-.8 1-.2.4-.3.8-.3 1.3s.1.9.3 1.3c.2.3.5.7.8 1l-.3.3zM256.2 112.6v-1.5h.4v1.5h2.4v.4h-2.2c.1.6.4 1.1.7 1.6.4.6.9 1 1.5 1.3-.1.1-.2.2-.3.4-.6-.4-1.2-.9-1.6-1.5-.3-.4-.5-.9-.6-1.4-.1.4-.2.7-.3 1-.3.6-.9 1.3-1.9 2-.1-.2-.2-.3-.3-.4.8-.4 1.4-1 1.8-1.6.2-.4.4-.9.5-1.4h-2.1v-.4h2zM261.6 111.7v.4h-.7v1.1h.6v.4h-.6v1.3c.2-.1.5-.1.7-.2v.4c-.6.2-1.2.4-1.8.5l-.1-.4c.2-.1.5-.1.8-.2v-1.4h-.7v-.4h.7V112h-.7v-.4h1.8zm1.7 2.3v.7h1.3v.4h-1.3v.8h1.5v.4h-3.5v-.4h1.6v-.9h-1.2v-.4h1.2v-.6h-1.1v-2.6h2.7v2.6h-1.2zm-1.1-1.5h.8v-.7h-.8v.7zm.7.3h-.8v.7h.8v-.7zm.4-.3h.8v-.7h-.8v.7zm0 .3v.7h.8v-.7h-.8zM270.4 111.5v.4h-2.6c-.3.7-.5 1.2-.8 1.6h2.9v2.8h-.4v-.4H267v.4h-.4V114c-.3.3-.6.7-1 1l-.3-.3c.6-.4 1-.8 1.3-1.4.3-.4.5-.9.7-1.5h-1.7v-.4h4.8zm-.8 4v-1.7h-2.5v1.7h2.5zM273.2 112.2v.3h-2v-.3h2zm-.3-.7v.3h-1.5v-.3h1.5zm0 1.5v.3h-1.5v-.3h1.5zm0 .7v.3h-1.5v-.3h1.5zm.1.8v1.5h-1.2v.3h-.4v-1.8h1.6zm-.4 1.1v-.8h-.8v.8h.8zm3.5-4.2v4.4c0 .2 0 .3-.1.3s-.3.1-.5.1c0-.1-.1-.3-.1-.4h.4s.1 0 .1-.1v-4.1H274v2.2c0 .9-.2 1.7-.5 2.3-.1-.1-.2-.3-.3-.3.3-.5.4-1.2.4-2v-2.5h2.5zm-1.5 1.1v-.5h.3v.6h.5v.3h-.5v.6h.6v.3H274v-.3h.6v-.6h-.5v-.3h.5zm.8 1.6v1.3h-.9v.4h-.4v-1.7h1.3zm-.4 1v-.7h-.6v.7h.6zM279.8 114.7c-.6.6-1.3 1.1-2.3 1.5-.1-.1-.1-.2-.3-.4.9-.3 1.6-.8 2.2-1.4-.3-.3-.7-.6-1-.8l.2-.3c.4.3.8.5 1.1.8.3-.4.6-.9.9-1.5h-1.8c-.5.7-1 1.2-1.7 1.6-.1-.1-.2-.3-.3-.4.6-.4 1-.7 1.2-1 .3-.3.5-.8.8-1.4l.5.2-.3.6h1.8l.3.3c-.3.9-.8 1.7-1.3 2.2zM284.7 113v3.2h-.4v-2.8c-.7.6-1.5 1-2.1 1.3-.1-.2-.1-.3-.2-.4.7-.3 1.4-.7 2.1-1.2.6-.5 1.2-1.1 1.7-1.7l.4.3c-.6.5-1.1.9-1.5 1.3zM288.2 114.2c-.2.7-.6 1.3-1.2 1.9-.1-.1-.2-.3-.3-.4.5-.3.8-.7 1-1.2.2-.4.3-.9.3-1.5v-1h.4c0 1-.1 1.7-.2 2.2zm1.4 1.7-.3-.3.1-.1v-4h.4v3.7c.6-.4 1.2-1 1.8-1.8l.3.3c-.8 1-1.5 1.7-2.3 2.2zM293.4 115.2c-.2.4-.5.7-.9 1.1l-.3-.3c.4-.4.7-.7.8-1 .2-.4.3-.8.3-1.3s-.1-.9-.3-1.3c-.2-.3-.5-.7-.8-1l.3-.3c.4.4.7.8.9 1.1.3.4.4.9.4 1.5s-.1 1.1-.4 1.5zM174.6 314.3v.9h2.4v.4h-4.6v1.5c0 1.3-.3 2.3-.9 3.2-.1-.2-.2-.3-.4-.4.6-.7.8-1.6.8-2.8v-1.9h2.1v-.9h.6zm-.1 2.5v-1h.4v1h2v.4h-1.8c.2.4.4.7.7 1 .3.4.7.7 1.3 1-.2.1-.3.3-.3.4-.5-.3-.9-.7-1.3-1.1l-.6-.9v2.6h-.4v-2.5c-.2.3-.5.7-.7.9-.4.4-.8.8-1.2 1.1-.1-.1-.2-.3-.3-.4.4-.2.7-.5 1.1-.9.3-.3.6-.7.9-1.2h-1.5v-.4h1.7zM179.5 314.9v4h-1v.7h-.4V315h1.4zm-.4 1.8v-1.4h-.6v1.4h.6zm0 1.8v-1.4h-.6v1.4h.6zm4.2-3.3-.5 1h.7v.4h-2c0 .2-.1.4-.1.5h2.3v.4h-2.3c-.1.2-.1.3-.2.5H182.9l.2.3c-.2.4-.5.8-.8 1.1.4.2.9.4 1.5.5-.1.2-.2.3-.3.4-.6-.1-1.1-.3-1.6-.6-.4.3-.9.5-1.6.6 0-.2-.1-.3-.2-.4.6-.1 1.1-.3 1.4-.5-.3-.2-.5-.5-.7-.7-.3.5-.7.9-1.2 1.3l-.3-.3c.6-.4 1-.8 1.3-1.3.1-.2.2-.4.3-.7h-1.1v-.4h1.2c0-.2.1-.4.1-.5h-1.2v-.4h2.5l.5-1.1.4-.1zm0-.4c-1.2.2-2.3.4-3.3.4 0-.1-.1-.2-.2-.4 1.1-.1 2.2-.2 3.2-.4l.3.4zm-2.4 1.2-.4.1-.3-.6.3-.1c.2.1.3.3.4.6zm.9 3c.3-.2.5-.5.6-.8H181c.3.4.5.6.8.8zm.1-3.1-.4.1c-.1-.2-.1-.4-.2-.7l.3-.1c.2.2.2.5.3.7zM185.3 318.5c-.1.6-.3 1.1-.6 1.6-.1-.2-.2-.3-.3-.4.3-.4.4-.9.5-1.4.1-.5.1-1.1.1-1.8v-1.2h4.6v1.3h-1.8v.7h2.3v.4h-2.6c0 .2-.1.4-.1.6h2.2l-.1 1.1c0 .3-.1.5-.3.6-.2.1-.5.1-.9.1 0-.2 0-.3-.1-.4h.8s.1-.1.1-.2l.1-.7h-1.9c-.1.1-.1.3-.2.4-.3.4-.8.8-1.5 1-.1-.1-.2-.3-.3-.4.7-.2 1.2-.5 1.5-.9.2-.3.3-.7.4-1.1h-1.4v-.4h1.7v-.7h-2c-.1.7-.1 1.3-.2 1.8zm4.8-3.9v.4h-5.7v-.4h5.7zm-4.7 1.7h3.7v-.6h-3.7v.6zM140.2 294.5h-2.9v4.8c0 1-.6 1-2.5 1 0-.2-.1-.5-.2-.6h1.6c.2 0 .4-.2.3-.4v-4.2c-1 1.5-2.6 3-4.2 4-.1-.2-.3-.4-.5-.5 1.6-.9 3.3-2.4 4.3-3.9h-3.9v-.7h4.3v-2.1h.9c0 .1-.1.2-.2.2v1.9h3v.5zM141.5 295.5h8.2v.7h-7.8c-.1.1-.2.2-.3.2l-.1-.9zM151.1 292.9H157.5l.7.5-.1.1c-.8 3.7-2.5 5.6-5.5 6.8-.1-.2-.3-.4-.4-.6 2.9-1.1 4.5-2.9 5.2-6.1h-6.1v-.7zm7.5-1.7c.6 0 1.1.5 1.1 1.1 0 .6-.5 1.1-1.1 1.1-.6 0-1.1-.5-1.1-1.1.1-.7.6-1.1 1.1-1.1zm.8 1c0-.4-.3-.8-.7-.8-.4 0-.8.3-.8.8 0 .4.3.8.8.8.4 0 .7-.4.7-.8zM160.8 292.5c1 .3 2.2.8 2.9 1.3l-.4.6c-.7-.5-1.9-1-2.9-1.4l.4-.5zm-.1 6.8c3.5-1.1 5.8-3 7-5.8.2.2.4.3.6.4-1.2 2.7-3.6 4.8-7 5.9 0 .1-.1.2-.1.2l-.5-.7zM169.2 296.6c.7-.8 2.3-2.5 2.9-3.1.3-.3.5-.4.8-.4.3 0 .5.1.8.4 1.3 1.2 3.3 3.4 4.8 5.4l-.6.5c-1.4-1.9-3.5-4.3-4.6-5.3-.2-.2-.3-.2-.4-.2-.1 0-.2.1-.4.2-.5.5-1.9 2.2-2.6 2.9v.1c0 .1 0 .2-.1.2l-.6-.7zm7.5-5c.6 0 1.1.5 1.1 1.1s-.5 1.1-1.1 1.1c-.6 0-1.1-.5-1.1-1.1-.1-.6.5-1.1 1.1-1.1zm.7 1.1c0-.4-.3-.8-.8-.8-.4 0-.8.4-.8.8s.4.8.8.8c.5 0 .8-.4.8-.8zM179.8 292.5c1 .3 2.2.8 2.9 1.3l-.4.6c-.7-.5-1.9-1-2.9-1.4l.4-.5zm-.1 6.8c3.5-1.1 5.8-3 7-5.8.2.2.4.3.6.4-1.2 2.7-3.6 4.8-7 5.9 0 .1-.1.2-.1.2l-.5-.7zM194.2 297c-1-.5-2.4-1.2-3.5-1.6v4.9h-.7v-8.5l1 .1c0 .1-.1.2-.3.2v2.9l.1-.2c1.2.4 2.7 1.1 3.7 1.6l-.3.6zM199.3 293.2c0 .1-.1.1-.3.2-.4 2.3-1.2 4.8-2.4 6.3-.2-.1-.5-.2-.7-.3 1.2-1.4 1.9-3.8 2.3-6.4l1.1.2zm3.1-.3c1.1 1.8 2.3 4.7 2.7 6.5l-.7.3c-.4-1.7-1.6-4.7-2.6-6.5l.6-.3zM209.5 291.7l1 .1c0 .1-.1.2-.3.2v1.5h2.6l.1-.1.6.3-.1.1c-.5 3.4-1.9 5.4-5 6.5-.1-.2-.3-.4-.5-.6 2.9-1 4.3-2.8 4.6-5.6h-5.6v2.4h-.7v-3.1h3.1v-1.7zM221.4 292.7l-.1.1c-.5 1.2-1.2 2.3-2 3.4 1.1.9 2.7 2.3 3.6 3.3l-.6.5c-.9-1-2.4-2.5-3.5-3.3-.9 1.1-2.4 2.5-3.8 3.3-.1-.1-.3-.4-.5-.5 2.7-1.5 4.9-4.3 5.8-6.4h-4.8v-.7h5.3l.6.3zM152 310.9c-.7-.9-1.5-2.3-1.5-4.5s.7-3.6 1.5-4.6h.7c-.8 1.1-1.4 2.5-1.4 4.6 0 2 .6 3.4 1.4 4.5h-.7zM159.8 309.3h4.5v.7h-8.9v-.7h3.8v-7.8l.9.1c0 .1-.1.1-.2.1v2.9h3.8v.7h-3.8v4zM170.2 305.1c.2-.5.5-1.3.6-1.9l.8.2c0 .1-.1.1-.2.1-.1.5-.4 1.2-.6 1.7h1.5v.6H167v-.6h3.5l-.3-.1zm1.8-2.7v.6h-4.8v-.6h2v-1.2h.8c0 .1-.1.1-.2.1v1h2.2zm-4.3 8v-3.7h3.9v3.7h-.6v-.5h-2.6v.6h-.7zm.8-7.1c.2.5.4 1.2.5 1.6l-.6.1c0-.4-.2-1.1-.4-1.6l.5-.1zm2.5 4h-2.6v2h2.6v-2zm4.7-5.4.4.2s0 .1-.1.1c-.4.8-.9 1.9-1.4 2.9 1.1 1 1.5 1.7 1.5 2.4 0 1.5-1.1 1.5-1.7 1.5h-.5c0-.2-.1-.5-.2-.6h.6c.7 0 1.1 0 1.1-.9 0-.6-.5-1.3-1.6-2.3.5-1 .9-1.9 1.2-2.7h-2v7.9h-.6v-8.5h3.3zM185.2 303.7v1.7c0 .8.4 3.4 2.9 4.5-.1.2-.3.4-.4.6-1.9-1-2.6-2.9-2.8-3.8-.1.9-1 2.8-3.2 3.8-.1-.1-.3-.4-.4-.6 2.8-1.2 3.3-3.7 3.3-4.5v-1.7h-1.2c-.3.9-.6 1.7-1 2.3-.1-.1-.3-.2-.5-.3v1.9h-2.1v1h-.6v-6.4h2.7v3.3c.6-1 1.1-2.6 1.3-4.2l.8.2c0 .1-.1.1-.2.1-.1.5-.2 1-.3 1.4h4.5c-.3 1.1-.5 2-.8 2.8l-.6-.2c.2-.5.4-1.3.6-2h-2zm-3.9 3.3v-4.2h-1.5v4.2h1.5zM198.7 305.2l.4.1s0 .1-.1.1c-.2 1.4-.7 2.4-1.3 3.3.6.5 1.3.9 2.2 1.1-.1.1-.3.4-.4.6-.8-.3-1.6-.7-2.2-1.2-.5.6-1.2 1-1.9 1.3-.1-.2-.2-.4-.4-.6.7-.2 1.3-.6 1.8-1.2-.5-.6-.9-1.2-1.2-2-.3 1.5-.9 2.7-1.7 3.6-.1-.1-.3-.4-.5-.5 1.2-1.3 1.7-3.5 2-6.2H194v.2h-1.1v2.1l1.1-.3.1.6-1.2.4v3c0 .7-.3.8-1.6.8 0-.2-.1-.4-.2-.6h1c.1 0 .2 0 .2-.2v-2.7c-.5.2-.9.3-1.2.4 0 .1 0 .1-.1.2l-.3-.8c.4-.1 1-.3 1.6-.5v-2.3h-1.5v-.6h1.5v-2h.8c0 .1-.1.1-.2.1v1.8h1v-.2h1.6c0-.6.1-1.2.1-1.8l.8.1c0 .1-.1.1-.2.1 0 .5-.1 1.1-.1 1.6h3.7v.6H196c0 .5-.1 1-.2 1.5h2.7l.2.1zm-3.1 1 .2-.1c.3.8.7 1.5 1.3 2.1.5-.7.9-1.5 1.1-2.4h-2.6v.4zM203 301.9c.7.9 1.4 2.3 1.4 4.5s-.7 3.6-1.4 4.5h-.7c.8-1.1 1.4-2.5 1.4-4.5s-.6-3.4-1.4-4.5h.7zM225.5 267.8h-2v3.5h-.4v-5.8h2.4v2.3zm-.4-1.9h-1.5v.6h1.5v-.6zm-1.5 1.5h1.5v-.6h-1.5v.6zm3.5 3.3H225v.3h-.4v-2.7h2.5v2.4zm-.5-2H225v.7h1.6v-.7zm-1.6 1.6h1.6v-.7H225v.7zm3.6-4.8v5.2c0 .6-.3.6-1.4.6 0-.1-.1-.3-.2-.5h.6c.5 0 .5 0 .5-.2v-2.9h-2v-2.3h2.5zm-.5.4h-1.6v.6h1.6v-.6zm-1.5 1.5h1.6v-.6h-1.6v.6zM225 275.1l-.8.2v2c0 .5-.3.6-1.1.6 0-.1-.1-.3-.1-.4h.4c.5 0 .5 0 .5-.1v-1.8c-.3.1-.5.2-.8.2 0 .1 0 .1-.1.1l-.2-.5c.3-.1.6-.2 1-.2v-1.5h-.9v-.4h.9v-1.4h.6c0 .1 0 .1-.1.1v1.2h.8v.4h-.8v1.4c.3-.1.5-.1.8-.2l-.1.3zm3.9-.5h-2.1l-.1.1-.3.6h2.4v.4h-.8c-.1.5-.4.9-.7 1.2.5.2 1 .5 1.3.7l-.3.3c-.3-.2-.8-.5-1.4-.7-.5.3-1.2.6-2.2.7 0-.1-.1-.3-.2-.4.8-.1 1.4-.3 1.9-.5-.3-.1-.6-.2-.8-.3l-.1.2-.4-.1c.2-.3.3-.7.5-1.1h-.9v-.4h1.1c.1-.2.2-.5.3-.7h-1.5v-.4h4.2v.4zm-.3-2.1v.4H225v-.4h1.5v-.7h.6s0 .1-.1.1v.6h1.6zm-2.6.5c.1.4.2.8.3 1.1l-.4.1c0-.3-.1-.7-.2-1.1l.3-.1zm.2 2.7c-.1.2-.2.5-.3.7.3.1.7.2 1 .3.3-.3.5-.6.7-1h-1.4zm1.9-2.6-.1.1c-.1.3-.3.8-.4 1.1l-.4-.1c.1-.3.3-.8.4-1.2l.5.1zM224.1 283.1c-.2.5-.5 1-.8 1.3l-.4-.2c.3-.3.6-.8.8-1.3l.4.2zm-.5-.8v.4h-.4v-4h1.9v3.6h-1.5zm1.1-3.3h-1.1v1.2h1.1V279zm-1.1 2.9h1.1v-1.2h-1.1v1.2zm1.4 2.5c0-.3-.1-.8-.1-1.2h.4c.1.4.2.9.2 1.2h-.5zm3.6-5.7v.1c-.1 1.7-.2 1.7-.9 1.7h-.5c0-.1-.1-.3-.1-.4h.7c.1 0 .2 0 .2-.1.1-.1.1-.4.2-1H227c-.1.8-.5 1.4-1.5 1.7 0-.1-.2-.3-.2-.3.9-.2 1.2-.7 1.4-1.3h-1.1v-.4h3zm-.2 2.1v1.8h-2.8v-1.8h2.8zm-.4 1.5v-1.1h-2v1.1h2zm-1.4 2.1c-.1-.3-.2-.8-.4-1.2l.4-.1c.2.4.4.9.4 1.2l-.4.1zm1.8.1c-.2-.4-.6-.9-.9-1.3l.4-.1c.3.4.7 1 .9 1.3l-.4.1zM225.2 289.3h-1.7v.6h-.4v-4.6h2.2v4zm-.4-3.6h-1.3v1.3h1.3v-1.3zm-1.3 3.2h1.3v-1.4h-1.3v1.4zm5.2-3.7v5.2c0 .3-.1.4-.3.5-.2.1-.6.1-1.1.1 0-.1-.1-.3-.2-.4h.6c.5 0 .5 0 .5-.2v-1.5h-2c-.2.8-.5 1.6-1.2 2.2l-.3-.3c1.1-.9 1.2-2.1 1.2-3.2v-2.4h2.8zm-2.4 2.4v.9h2v-1.2h-1.9v.3zm1.9-2h-1.9v1.2h1.9v-1.2zM130.3 267.8h-2v3.5h-.4v-5.8h2.4v2.3zm-.5-1.9h-1.5v.6h1.5v-.6zm-1.5 1.5h1.5v-.6h-1.5v.6zm3.5 3.3h-2.1v.3h-.4v-2.7h2.5v2.4zm-.4-2h-1.6v.7h1.6v-.7zm-1.7 1.6h1.6v-.7h-1.6v.7zm3.6-4.8v5.2c0 .6-.3.6-1.4.6 0-.1-.1-.3-.2-.5h.6c.5 0 .5 0 .5-.2v-2.9h-2v-2.3h2.5zm-.4.4h-1.6v.6h1.6v-.6zm-1.6 1.5h1.6v-.6h-1.6v.6zM129.7 275.1l-.8.2v2c0 .5-.3.6-1.1.6 0-.1-.1-.3-.1-.4h.4c.5 0 .5 0 .5-.1v-1.8c-.3.1-.5.2-.8.2 0 .1 0 .1-.1.1l-.2-.5c.3-.1.6-.2 1-.2v-1.5h-.9v-.4h.9v-1.4h.6c0 .1 0 .1-.1.1v1.2h.8v.4h-.8v1.4c.3-.1.5-.1.8-.2l-.1.3zm3.9-.5h-2.1l-.1.1-.3.6h2.4v.4h-.8c-.1.5-.4.9-.7 1.2.5.2 1 .5 1.3.7l-.3.3c-.3-.2-.8-.5-1.4-.7-.5.3-1.2.6-2.2.7 0-.1-.1-.3-.2-.4.8-.1 1.4-.3 1.9-.5-.3-.1-.6-.2-.8-.3l-.1.2-.4-.1c.2-.3.3-.7.5-1.1h-.9v-.4h1.1c.1-.2.2-.5.3-.7h-1.5v-.4h4.2v.4zm-.2-2.1v.4h-3.6v-.4h1.5v-.7h.6s0 .1-.1.1v.6h1.6zm-2.6.5c.1.4.2.8.3 1.1l-.4.1c0-.3-.1-.7-.2-1.1l.3-.1zm.1 2.7c-.1.2-.2.5-.3.7.3.1.7.2 1 .3.3-.3.5-.6.7-1h-1.4zm2-2.6-.1.1c-.1.3-.3.8-.4 1.1l-.4-.1c.1-.3.3-.8.4-1.2l.5.1zM128.8 283.1c-.2.5-.5 1-.8 1.3l-.4-.2c.3-.3.6-.8.8-1.3l.4.2zm-.5-.8v.4h-.4v-4h1.9v3.6h-1.5zm1.1-3.3h-1.1v1.2h1.1V279zm-1.1 2.9h1.1v-1.2h-1.1v1.2zm1.4 2.5c0-.3-.1-.8-.1-1.2h.4c.1.4.2.9.2 1.2h-.5zm3.7-5.7v.1c-.1 1.7-.2 1.7-.9 1.7h-.5c0-.1-.1-.3-.1-.4h.7c.1 0 .2 0 .2-.1.1-.1.1-.4.2-1h-1.2c-.1.8-.5 1.4-1.5 1.7 0-.1-.2-.3-.2-.3.9-.2 1.2-.7 1.4-1.3h-1.1v-.4h3zm-.2 2.1v1.8h-2.8v-1.8h2.8zm-.5 1.5v-1.1h-2v1.1h2zm-1.4 2.1c-.1-.3-.2-.8-.4-1.2l.4-.1c.2.4.4.9.4 1.2l-.4.1zm1.9.1c-.2-.4-.6-.9-.9-1.3l.4-.1c.3.4.7 1 .9 1.3l-.4.1zM129.9 289.3h-1.7v.6h-.4v-4.6h2.2v4zm-.4-3.6h-1.3v1.3h1.3v-1.3zm-1.3 3.2h1.3v-1.4h-1.3v1.4zm5.2-3.7v5.2c0 .3-.1.4-.3.5-.2.1-.6.1-1.1.1 0-.1-.1-.3-.2-.4h.6c.5 0 .5 0 .5-.2v-1.5h-2c-.2.8-.5 1.6-1.2 2.2l-.3-.3c1.1-.9 1.2-2.1 1.2-3.2v-2.4h2.8zm-2.4 2.4v.9h2v-1.2h-2v.3zm2-2h-2v1.2h1.9v-1.2z"/><path class="st28" d="M126.8 215.3h103.3v137.3H126.8zM230 352.5 126.7 215.3M126.7 352.6 230 215.3"/><path class="st29" d="M295.4 437.2v-4.4h.4v-3.5h.5v-19.7h1v19.7h.5v3.5h.4v4.4zM422 437.2v-4.4h.4v-3.5h.5v-19.7h1v19.7h.5v3.5h.4v4.4z"/><path class="st3" d="M295.4 432.8h2.8v4.4h-2.8zM296.3 429.3v1h1v-1h.5v3.4h-2v-3.4z"/><path class="st3" d="M296.3 409.6h1.1v20.8h-1.1zM422 432.8h2.8v4.4H422zM422.9 429.3v1h1v-1h.5v3.4h-2v-3.4z"/><path class="st3" d="M422.9 409.6h1.1v20.8h-1.1z"/><path d="M350 423.9c0 .3 0 .5-.1.7h.5v-1.3h.4v1.3h.6v.3h-.6v1.2c.2-.1.4-.1.6-.2v.4c-.2.1-.4.1-.6.2v2.1h-.4v-2c-.3.1-.7.2-1 .3l-.1-.4c.3-.1.7-.2 1.1-.3V425h-.5c-.1.3-.1.6-.2.8h-.3c.2-.6.3-1.2.4-1.9h.2zm2.6-.4c-.1.4-.2.7-.4 1h2.1l-.1 3.1c0 .3-.1.6-.1.7-.1.1-.2.2-.5.3h-.5c0-.2 0-.3-.1-.4h.6c.1 0 .2 0 .2-.1s0-.2.1-.4l.1-2.7h-.4c0 .8-.2 1.5-.5 2.1-.4.6-.8 1.1-1.4 1.5l-.3-.3c.6-.4 1-.8 1.3-1.4.3-.5.5-1.1.5-1.9h-.4c-.1.4-.2.9-.4 1.3-.3.5-.6.8-.9 1.1-.1-.1-.1-.2-.2-.3.3-.2.6-.5.8-.9.2-.3.3-.7.4-1.2h-.3c-.2.4-.4.7-.6 1-.1-.1-.2-.2-.3-.2.3-.4.5-.8.6-1.2.2-.3.3-.7.4-1.1h.3zM359.8 423.8v.4h-2v1.5h2.3v.4h-2.3v2.6h-.4V426h-2.3v-.4h2.3v-1.5h-1.9v-.4h4.3zM363.7 423.5c0 .1-.1.1-.1.1.4.4.8.8 1.2 1.1.4.3.8.6 1.2.7-.1.1-.2.3-.2.4-.4-.2-.7-.4-1-.6v.3h-1.2v.6h2v.4h-2v1.4h2.3v.4H361v-.3h2.2v-1.4h-2v-.4h2v-.6H362v-.3c-.4.3-.7.5-.9.6-.1-.1-.2-.3-.3-.3.5-.3.9-.6 1.3-1s.8-.8 1.2-1.4l.4.3zm-1.2 4.1-.4.2c-.1-.2-.3-.5-.4-.7l.4-.2c.1.2.3.5.4.7zm2.2-2.3c-.1-.1-.3-.2-.4-.3-.4-.3-.7-.7-1-1-.3.4-.7.7-1 1.1-.1.1-.2.2-.3.2h2.7zm.4 1.7-.5.9-.3-.2.4-.9.4.2zM367.2 423.9c0 .3 0 .5-.1.7h.5v-1.3h.4v1.3h.6v.3h-.6v1.2c.2-.1.4-.1.6-.2v.4c-.2.1-.4.1-.6.2v2.1h-.4v-2c-.3.1-.7.2-1 .3l-.1-.4c.3-.1.7-.2 1.1-.3V425h-.5c-.1.3-.1.6-.2.8h-.3c.2-.6.3-1.2.4-1.9h.2zm2.6-.4c-.1.4-.2.7-.4 1h2.1l-.1 3.1c0 .3-.1.6-.1.7-.1.1-.2.2-.5.3h-.5c0-.2 0-.3-.1-.4h.6c.1 0 .2 0 .2-.1s0-.2.1-.4l.1-2.7h-.4c0 .8-.2 1.5-.5 2.1-.4.6-.8 1.1-1.4 1.5l-.3-.3c.6-.4 1-.8 1.3-1.4.3-.5.5-1.1.5-1.9h-.4c-.1.4-.2.9-.4 1.3-.3.5-.6.8-.9 1.1-.1-.1-.1-.2-.2-.3.3-.2.6-.5.8-.9.2-.3.3-.7.4-1.2h-.3c-.2.4-.4.7-.6 1-.1-.1-.2-.2-.3-.2.3-.4.5-.8.6-1.2.2-.3.3-.7.4-1.1h.3z"/></svg>