<svg version="1.1" id="レイヤー_1" xmlns="http://www.w3.org/2000/svg" x="0" y="0" viewBox="0 0 620 891.9" style="enable-background:new 0 0 620 891.9" xml:space="preserve"><style>.st0{fill:#ecf4d9}.st2{fill:#fff}.st4{fill:#bfc0c0}.st5{fill:#6b7b6e}.st6{fill:none;stroke:#000;stroke-width:.4;stroke-dasharray:1.3,1.3,0,0,0,0}.st7{stroke-miterlimit:10}.st10,.st7,.st9{fill:none;stroke:#000;stroke-width:.4}.st10{stroke-width:.6}.st11{fill:#dfeaf8}.st12{fill:#fadce9}.st13{fill:#fffcdb}.st14{fill:#f9f4e4}.st18{fill:none;stroke:#cfb5a7;stroke-width:.4}.st19{fill:none;stroke:#b5b5b6;stroke-miterlimit:10}.st19,.st20,.st21{stroke-width:.4}.st20{fill:none;stroke:#aaabab;stroke-linecap:round;stroke-linejoin:round;stroke-miterlimit:10;stroke-dasharray:4.5,2.5}.st21{stroke-linejoin:bevel;stroke-dasharray:15,1.3,1.3,1.3}.st21,.st22,.st23,.st24{fill:none;stroke:#000}.st22{stroke-width:.3;stroke-linejoin:bevel;stroke-dasharray:1.3,1.3,0,0,0,0}.st23,.st24{stroke-width:.4}.st23{stroke-linejoin:bevel;stroke-dasharray:10,1.3,1.3,1.3}.st24{stroke-dasharray:1.3,1.3}</style><path class="st0" d="M146 13.1v88.3h75.3v-.7h72.5v.7h53.5v-.7h77.2v.7h32.1V13.1z"/><path style="fill:#cae5cd" d="M206.2 697.1v-.9h239.9v.9h9.1V696h1.6v184.8H195.5V696h1.6v1.1z"/><path class="st0" d="M196.4 629.5V653h-3.9v2.3h-.6V685h.6v2.4h13.7v8.8h239.9v-8.8h13.7V685h.6v-29.7h-.6v-2.4h-3.9v-23.4h-18.2v.7h-58.6v-.7h-2.5v11.6h-56.7v-11.6h-4.8v.7H238v-.7z"/><path class="st2" d="M456.8 836.3h-4.4v-.4h-3.6v-.5h-19.7v-1.1h19.7v-.4h3.6v-.5h4.4zM456.8 743.3h-4.4v-.4h-3.6v-.5h-19.7v-1.1h19.7v-.4h3.6v-.4h4.4z"/><path d="M348 641.6h-18.6c-.5 0-.9.4-.9.9v15.8c0 1 .8 1.9 1.9 1.9H347c1 0 1.9-.8 1.9-1.9v-15.8c0-.5-.4-.9-.9-.9z" style="fill:#dff2fc"/><path class="st4" d="M135.8 101.4V2.8H484v10.3h-18.6v88.3h-8.8V13.1H146v88.3zM446.1 687.4v9.7h9.1V696h11.6v1.1h9v-9.7zM176.5 687.4v9.7h9V696h11.6v1.1h9.1v-9.7z"/><path class="st5" d="m229.8 851 12.7 1.5.1-.5-10.5-1.2 10.4-1.3-.1-.5-12.5 1.6 1.5-1.6 4.6-2 5.8-.6-.1-.5-4.1.4 3.2-1.4-.2-.5-4.8 2-2.4.2 5.5-6-.4-.4-5.9 6.4-6 .6.2-.5 9.9-9-.4-.4-8.6 7.9 6.6-8.5-.4-.3-6 7.9 3.6-9.4-.5-.2-4.2 11.1-1.3 1.7h-.1l.3-6.5 2.8-7.3-.5-.2-2.2 5.7.1-1.7h-.5l-.1 3.4-1.3 3.3-1.8-10.8-.5.1 2 11.7-.9 2.2-.2-.4-3.6-13.7-.5.1 3.1 11.7-5.5-9.4-.5.3 6.4 11.1-.5-.4-8.2-9.7-.4.3 6.8 8-8.8-6.4-.3.4 10.6 7.7 1 1.1-1.7.9-11.3-4.9-.2.5 10.7 4.6-5.1-.9-7.3-4.2-.3.5 6 3.4-6.8-1.2-.1.5 8.3 1.4 2 1.1-10.7.4v.5l11.6-.5.1.1-3.4 1.9-8.2 1 .1.5 6.8-.9-6.3 3.5.3.5 7.5-4.2 6.1-.8.7.4-.1.2-13.4 5.4.2.5 12.6-5-4.2 5.6-6.7 3.1.2.5 5.8-2.7-3.9 5.1.4.3 4.5-5.9 2.2-1-4.7 7.7.5.3 5.1-8.4 2-.9-.2 1.7-4.4 9.2.5.2 3.7-7.7-1.1 8.7.5.1 1.3-10.3 1.3-2.6 1.2-.5-1.6 9.5.5.1 1.7-9.8h.1l.8 2.3.7 11.6h.5l-.6-9.6 3.4 9.8.5-.2-4-11.7-.2-2.5.6.1 5.9 11.8.5-.2-5.7-11.4.8.2 7.3 10.3.4-.3-6.9-9.8 1.6.3 7.3 7.8.4-.4-6.7-7.2 6.3 1.4 1.8.9.2-.4 1.7.4.1-.5-3.7-.8-9.6-4.8.5-.6 13.7 4 .2-.5-13.4-3.9.5-.5-.1-.2zm-2.9 1.9-1 .9-1-1.9 1.5.5.5.5zm-8.6-2.5 3.4-.1h.1l-.1.5-.5.6-1.4.2-1.9-1.1.4-.1zm4.8 3.7-1 2-.5.2.4-2.9 1.1.7zm9-6.9-1.1 1.1-4.1 1.8-1.4-.2.8-2.2 5.8-.5zm-7.2-4.9-.2 5-.4.1-.4-2.4 1-2.7zm-1.2 5.1-.8.1.6-1.5.2 1.4zm-1.7 1 .1.2-.1 1-.5-.1-.8-.4 1.3-.7zm-6.6.7 3.2.5-.5.3h-1.2l-1.5-.8zm-.4 3.2 2.5-1.4 1.5.9-4 .5zm1.6 6.4 4.1-5.5.5-.2.2.1-2.8 4.7-2 .9zm2.9-1.3 1.9-3.1-.3 2.4-1.6.7zm7-2.4-.3-.6.2-.3.7 1-.6-.1zm1.5.3-1.1-1.6.4-.4 2.2 2.3-1.5-.3zm2.4.6-2.5-2.7 7.5 3.8-5-1.1zM273.1 857.6l10.6 1.3.1-.5-8.7-1 8.7-1.1-.1-.4-10.4 1.3 1.2-1.3 3.8-1.6 4.8-.5-.1-.4-3.4.3 2.6-1.1-.2-.4-4 1.7-2 .2 4.6-5-.3-.3-4.9 5.4-5 .5.2-.4 8.2-7.5-.3-.3-7.2 6.6 5.5-7.1-.4-.3-5 6.5 3-7.8-.4-.2-3.5 9.3-1.1 1.4h-.1l.2-5.5 2.3-6-.4-.2-1.8 4.8.1-1.4h-.5l-.1 2.8-1.1 2.8-1.5-9-.4.1 1.6 9.7-.7 1.9-.2-.4-3-11.4-.4.1 2.6 9.8-4.6-7.9-.4.2 5.3 9.2-.4-.3-6.8-8.1-.4.3 5.6 6.7-7.4-5.3-.3.4 8.9 6.4.8.9-1.4.8-9.4-4.1-.2.4 8.9 3.9-4.2-.7-6.1-3.5-.2.4 5 2.8-5.7-1-.1.4 6.9 1.2 1.7 1-8.9.4v.5l9.6-.4.1.1-2.9 1.6-6.8.9.1.5 5.7-.7-5.3 2.9.2.4 6.3-3.5 5.1-.7.6.3-.1.1L254 864l.2.4 10.5-4.2-3.5 4.6-5.6 2.6.2.4 4.8-2.2-3.2 4.3.4.3 3.7-5 1.8-.8-3.9 6.4.4.2 4.2-7 1.7-.8-.2 1.4-3.7 7.6.4.2 3.1-6.4-.9 7.3.5.1 1.1-8.6 1.1-2.1 1-.5-1.3 7.9.5.1 1.4-8.2h.1l.6 1.9.6 9.6h.5l-.5-8 2.8 8.2.4-.1-3.3-9.8-.1-2.1.5.1 4.9 9.9.4-.2-4.8-9.5.7.1 6.1 8.6.4-.3-5.8-8.1 1.4.3 6.1 6.5.3-.3-5.6-6 5.2 1.1 1.5.7.2-.4 1.4.3.1-.5-3-.7-8-4 .4-.5 11.4 3.3.1-.4-11.2-3.3.4-.4.2-.4zm-2.4 1.6-.8.8-.8-1.6 1.2.5.4.3zm-7.2-2 2.9-.1h.1l-.1.4-.4.5-1.2.2-1.6-.9.3-.1zm4.1 3-.8 1.7-.4.2.3-2.4.9.5zm7.5-5.8-.9 1-3.4 1.5-1.1-.1.7-1.8 4.7-.6zm-6.1-4-.2 4.2h-.4l-.3-2 .9-2.2zm-1 4.3-.7.1.5-1.2.2 1.1zm-1.4.8.1.2-.1.8-.4-.1-.7-.3 1.1-.6zm-5.5.6 2.7.4-.4.2h-1l-1.3-.6zm-.3 2.6 2.1-1.2 1.3.7-3.4.5zm1.3 5.4 3.4-4.6.4-.2.2.1-2.4 3.9-1.6.8zm2.4-1.1 1.6-2.6-.3 2-1.3.6zm5.9-2-.3-.5.2-.2.6.9-.5-.2zm1.2.2-1-1.3.3-.3 1.8 2-1.1-.4zm2 .5-2.1-2.3 6.3 3.2-4.2-.9zM351.7 863.1l5.8.7v-.3l-4.8-.6 4.8-.6v-.2l-5.8.7.7-.7 2.1-.9 2.7-.3v-.2l-1.9.2 1.5-.6-.1-.2-2.2.9-1.1.1 2.5-2.8-.2-.2-2.7 3-2.8.3.1-.2 4.6-4.2-.2-.2-4 3.6 3-3.9-.2-.2-2.8 3.6 1.7-4.3-.2-.1-2 5.1-.6.8h-.1l.1-3 1.3-3.3-.2-.1-1 2.6v-.8h-.3l-.1 1.5-.6 1.5-.8-5h-.2l.9 5.4-.4 1-.1-.2-1.7-6.3-.2.1 1.4 5.4-2.5-4.4-.2.1 2.9 5.1-.2-.2-3.8-4.5-.2.2 3.1 3.7-4.1-3-.2.2 4.9 3.6.5.5-.8.4-5.2-2.3-.1.2 5 2.1-2.3-.4-3.4-1.9-.1.2 2.8 1.6-3.2-.5v.2l3.8.7.9.5-4.9.2v.3l5.3-.2h.1l-1.6.9-3.8.5v.3l3.2-.4-2.9 1.6.1.2 3.5-1.9 2.8-.4.3.2-.1.1-6.2 2.5.1.2 5.8-2.3-1.9 2.6-3.1 1.4.1.2 2.7-1.2-1.8 2.4.2.1 2.1-2.7 1-.5-2.2 3.5.2.1 2.3-3.9.9-.4-.1.8-2.1 4.2.2.1 1.7-3.5-.5 4h.3l.6-4.8.6-1.2.5-.3-.7 4.4h.2l.8-4.5.4 1.1.3 5.3h.3l-.3-4.4 1.6 4.5.2-.1-1.9-5.4-.1-1.2.3.1 2.7 5.5.2-.1-2.6-5.3.4.1 3.4 4.7.2-.1-3.2-4.5.8.2 3.4 3.6.2-.2-3.1-3.3 2.9.6.8.4.1-.2.8.2.1-.3-1.7-.4-4.4-2.2.2-.3 6.3 1.8.1-.2-6.2-1.8.2-.2.4.3zm-1.4.9-.4.4-.4-.9.7.3.1.2zm-3.9-1.1 1.6-.1h.1v.2l-.2.3-.7.1-.9-.5h.1zm2.2 1.7-.5.9-.2.1.2-1.3.5.3zm4.2-3.2-.5.5-1.9.8-.6-.1.4-1 2.6-.2zm-3.4-2.2-.1 2.3h-.2l-.2-1.1.5-1.2zm-.5 2.3h-.4l.3-.7.1.7zm-.8.5v.1l-.1.5h-.2l-.4-.2.7-.4zm-3 .3 1.5.2-.2.1h-.6l-.7-.3zm-.3 1.4 1.2-.6.7.4-1.9.2zm.8 3 1.9-2.5.2-.1.1.1-1.3 2.2-.9.3zm1.3-.6.9-1.4-.1 1.1-.8.3zm3.3-1.1-.1-.3.1-.1.3.5-.3-.1zm.7.1-.5-.7.2-.2 1 1.1-.7-.2zm1 .3-1.2-1.3 3.5 1.8-2.3-.5zM431.4 858.3l11.3 1.3.1-.5-9.4-1.1 9.3-1.2-.1-.5-11.2 1.4 1.3-1.4 4.1-1.8 5.2-.5-.1-.5-3.6.4 2.8-1.2-.2-.5-4.3 1.8-2.1.2 4.9-5.3-.4-.3-5.3 5.8-5.4.5.2-.4 8.8-8.1-.3-.4-7.7 7.1 5.9-7.6-.4-.3-5.4 7 3.2-8.4-.5-.2-3.8 9.9-1.2 1.5h-.1l.2-5.9 2.5-6.5-.5-.2-2 5.1.1-1.5h-.5l-.1 3-1.2 3-1.6-9.6-.5.1 1.8 10.4-.8 2-.2-.4-3.3-12.3-.5.1 2.8 10.5-4.9-8.4-.4.2 5.7 9.9-.5-.3-7.3-8.7-.4.3 6.1 7.1-7.9-5.7-.3.4 9.5 6.9.9 1-1.5.8-10.1-4.4-.2.4 9.6 4.2-4.6-.8-6.5-3.7-.2.4 5.3 3-6.1-1-.1.5 7.4 1.3 1.8 1-9.6.4v.5l10.4-.4.1.1-3.1 1.7-7.4.9.1.5 6.1-.8-5.7 3.1.2.4 6.8-3.7 5.5-.7.6.4-.1.2-12 4.8.2.5 11.3-4.5-3.7 5-6 2.8.2.4 5.2-2.4-3.5 4.6.4.3 4-5.3 2-.9-4.2 6.9.4.3 4.5-7.5 1.8-.8-.2 1.5-4 8.2.5.2 3.3-6.9-1 7.8.5.1 1.2-9.3 1.1-2.3 1-.5-1.4 8.5.5.1 1.5-8.8h.1l.7 2 .6 10.4h.5l-.5-8.6 3 8.8.5-.2-3.6-10.5-.1-2.3.5.1 5.3 10.6.4-.2-5.1-10.2.7.2 6.5 9.2.4-.3-6.2-8.7 1.5.3 6.5 7 .4-.3-6-6.4 5.6 1.2 1.6.8.2-.4 1.5.3.1-.5-3.3-.7-8.6-4.3.5-.5 12.2 3.6.1-.5-12-3.5.4-.5 1-.2zm-2.7 1.7-.9.8-.9-1.7 1.3.5.5.4zm-7.6-2.2 3.1-.1h.1l-.1.5-.4.5-1.3.2-1.7-.9.3-.2zm4.3 3.3-.9 1.8-.4.2.3-2.6 1 .6zm8-6.2-.9 1-3.6 1.6-1.2-.1.7-2 5-.5zm-6.4-4.3-.2 4.5h-.4l-.4-2.1 1-2.4zm-1.1 4.5-.7.1.5-1.3.2 1.2zm-1.5.9.1.2-.1.9-.5-.1-.8-.3 1.3-.7zm-5.9.6 2.9.5-.4.2h-1.1l-1.4-.7zm-.4 2.9 2.2-1.2 1.4.8-3.6.4zm1.4 5.7 3.7-4.9.5-.2.2.1-2.5 4.2-1.9.8zm2.6-1.2 1.7-2.8-.3 2.1-1.4.7zm6.3-2.1-.3-.6.2-.2.6.9-.5-.1zm1.3.3-1-1.4.3-.4 2 2.1-1.3-.3zm2.2.5-2.3-2.4 6.8 3.4-4.5-1zM390.9 857.3l9.2 1.1v-.4l-7.6-.9 7.6-1v-.4l-9.1 1.1 1.1-1.2 3.4-1.4 4.2-.4v-.4l-3 .3 2.3-1-.1-.4-3.5 1.5-1.7.2 4-4.4-.3-.3-4.3 4.7-4.4.4.1-.3 7.2-6.6-.3-.3-6.3 5.8 4.8-6.2-.3-.2-4.4 5.7 2.6-6.9-.4-.1-3.1 8.1-.9 1.2h-.1l.2-4.8 2-5.3-.4-.1-1.6 4.2.1-1.3h-.4l-.1 2.4-.9 2.4-1.3-7.8-.4.1 1.4 8.5-.6 1.6-.2-.3-2.6-10-.4.1 2.3 8.6-4-6.9-.4.2 4.7 8.1-.4-.3-6-7.1-.3.3 4.9 5.8-6.4-4.7-.2.3 7.8 5.6.7.8-1.2.7-8.2-3.6-.2.4 7.8 3.4-3.7-.6-5.3-3-.2.4 4.3 2.5-5-.8-.1.4 6.1 1 1.5.8-7.8.3v.4l8.4-.3.1.1-2.5 1.4-6 .8.1.4 5-.6-4.6 2.5.2.4 5.5-3 4.5-.6.5.3-.1.1-9.8 3.9.2.4 9.2-3.7-3.1 4.1-4.9 2.2.2.4 4.2-1.9-2.8 3.7.3.2 3.3-4.3 1.6-.7-3.4 5.6.3.2 3.7-6.1 1.5-.7-.2 1.2-3.2 6.7.4.2 2.7-5.6-.8 6.4h.4l1-7.5.9-1.9.8-.4-1.2 6.9.4.1 1.2-7.2h.1l.6 1.7.5 8.4h.4l-.4-7 2.5 7.2.4-.1-2.9-8.6-.1-1.8.4.1 4.3 8.6.4-.2-4.2-8.3.6.1 5.3 7.5.3-.2-5-7.1 1.2.3 5.3 5.7.3-.3-4.9-5.2 4.6 1 1.3.6.2-.3 1.3.3.1-.4-2.7-.6-7-3.5.4-.4 10 2.9.1-.4-9.8-2.8.4-.4-.2-.5zm-2.2 1.5-.7.7-.7-1.4 1.1.4.3.3zm-6.2-1.9 2.5-.1h.1l-.1.4-.3.4-1 .1-1.4-.8h.2zm3.5 2.7-.7 1.5-.4.2.3-2.1.8.4zm6.6-5-.8.8-3 1.3-1-.1.6-1.6 4.2-.4zm-5.3-3.6-.2 3.6h-.3l-.3-1.7.8-1.9zm-.9 3.8-.6.1.4-1.1.2 1zm-1.2.7.1.2-.1.7-.4-.1-.6-.3 1-.5zm-4.8.5 2.3.4-.3.2h-.9l-1.1-.6zm-.3 2.3 1.8-1 1.1.6-2.9.4zm1.1 4.7 3-4 .4-.2.1.1-2.1 3.4-1.4.7zm2.2-1 1.4-2.3-.2 1.7-1.2.6zm5.1-1.7-.2-.5.2-.2.5.7h-.5zm1.1.2-.8-1.2.3-.3 1.6 1.7-1.1-.2zm1.7.4-1.9-2 5.5 2.8-3.6-.8z"/><path class="st6" d="M350.2 641.6h23.2v9.3h-23.2zM350.2 650.9l23.2-9.3"/><path class="st7" d="M348 642.3h-18.6c-.1 0-.2.1-.2.2v15.8c0 .6.5 1.2 1.2 1.2H347c.6 0 1.2-.5 1.2-1.2v-15.8c0-.1-.1-.2-.2-.2z"/><path class="st7" d="M348 641.6h-18.6c-.5 0-.9.4-.9.9v15.8c0 1 .8 1.9 1.9 1.9H347c1 0 1.9-.8 1.9-1.9v-15.8c0-.5-.4-.9-.9-.9z"/><circle class="st7" cx="338.7" cy="644.5" r="1.2"/><path style="fill:none;stroke:#000;stroke-width:.4;stroke-linecap:round;stroke-linejoin:round;stroke-miterlimit:10;stroke-dasharray:1.3,1.3,0,0,0,0" d="M456.6 13.1 146 57.9h310.6L146 13.1"/><path class="st9" d="M190.7 655.3h1.2v29.8h-1.2z"/><path class="st9" d="M190.2 685h2.3v2.3h-2.3zM460.4 655.3h1.2v29.8h-1.2z"/><path class="st9" d="M459.8 685h2.3v2.3h-2.3zM190.2 652.9h2.3v2.3h-2.3zM459.8 652.9h2.3v2.3h-2.3z"/><circle class="st9" cx="451.5" cy="682.7" r="1.6"/><path class="st9" d="M447 687.4v-8.3h9.3v8.3"/><circle class="st9" cx="181.9" cy="682.7" r="1.6"/><path class="st9" d="M177.3 687.4v-8.3h9.3v8.3M146 75h9.3V24.7h301.3"/><circle class="st9" cx="450.8" cy="19.1" r="1.6"/><circle class="st9" cx="150.6" cy="71.4" r="1.6"/><path class="st9" d="M456.8 696v184.8M195.5 696v184.8M187.2 696v184.8M465.1 696v184.8M169.9 880.8h314.3M169.9 889.1h314.3M452.4 833.4h4.4v2.8h-4.4zM448.8 835.4h1.1v-1.1h-1.1v-.4h3.4v2h-3.4z"/><path class="st9" d="M429.1 834.3h20.8v1.1h-20.8zM452.4 740.5h4.4v2.8h-4.4zM448.8 742.4h1.1v-1.1h-1.1v-.4h3.4v2h-3.4z"/><path class="st9" d="M429.1 741.3h20.8v1.1h-20.8zM206.2 696.2h239.9M475.8 696.2h8.4M169.9 696.2h6.6"/><path class="st10" d="M456.6 57.9V13.1H146v44.8"/><path class="st10" d="M135.8 57.9V2.8H484v10.3h-18.6v44.8M446.1 687.4v9.7h9.1V696h11.6v1.1h9v-9.7zM176.5 687.4v9.7h9V696h11.6v1.1h9.1v-9.7z"/><path d="M312.5 771.5v-1.1h.9v1.1h4.9v.7h-4.9v1h3.9v4.1h-1.6v1h3v.8h-3v2.1c0 .3-.2.5-.5.7-.3.2-.8.2-1.5.2 0-.3-.1-.7-.4-1h1.1c.2 0 .2-.1.2-.2v-1.8H307v-.8h7.6v-1h-6.1v-4.1h3.8v-1h-5v-.7h5.2zm-.9 9.3-.7.6c-.3-.5-.8-1.1-1.4-1.6l.6-.5c.6.4 1.1.9 1.5 1.5zm-2.1-5.8h3v-1h-3v1zm3 .6h-3v1h3v-1zm.9-.6h3.1v-1h-3.1v1zm0 .6v1h3.1v-1h-3.1zM330.8 771.3v9.8c0 .4-.1.7-.4.9-.2.1-.7.2-1.4.3 0-.3-.1-.7-.3-1h1.1c.1 0 .2-.1.2-.3v-3h-3.4v4.2h-.9V778h-3.1c-.2 1.7-.7 3.2-1.6 4.4-.3-.4-.5-.7-.8-.8 1-1.2 1.5-2.8 1.5-4.9v-5.3h9.1zm-5.2 5.8V775h-3v2.1h3zm0-2.9v-2.1h-3v2.1h3zm.9 0h3.4v-2.1h-3.4v2.1zm0 2.9h3.4V775h-3.4v2.1zM339.9 770.4v1.2h4.8v.8h-9.4v3.4c0 1.5-.1 2.7-.2 3.5-.2 1-.5 1.9-1 2.9-.2-.3-.5-.5-.8-.6.5-.8.8-1.7 1-2.6.1-.7.2-1.7.2-3.2v-4.3h4.6v-1.2h.8zm-1.3 3.4c-.4.8-.8 1.6-1.2 2.3h1.6c-.1 1.6-.3 2.8-.8 3.7 0 .1-.1.1-.1.2.2.2.4.3.6.4.8.4 1.8.7 2.8.7h3.7c-.2.2-.3.5-.3.8h-3.2c-1.2 0-2.3-.3-3.4-.8-.2-.1-.4-.2-.6-.4-.5.5-1.1 1-1.9 1.4-.2-.3-.4-.5-.6-.7.8-.4 1.5-.8 1.9-1.3-.5-.6-.9-1.3-1.1-2.3l.8-.3c.2.8.5 1.4.9 1.9.4-.7.6-1.5.6-2.5h-1.2c-.1.1-.1.2-.2.3l-.8-.4c.6-1 1.1-1.9 1.4-2.7h-1.6v-.8h1.9l.2-.1.6.6zm5.9 0c-.6.2-1.2.3-1.8.5v1.8h2.3v.8h-2.3v2h1.9v.8H340v-.7h1.9v-2h-2.3v-.8h2.3v-1.7c-.7.1-1.4.2-2 .3 0-.2-.2-.5-.4-.8 1.5-.1 3-.4 4.5-.9l.5.7zM333.3 653.6c-.1.2-.3.3-.4.4h1.4l.2.3c-.6.6-1.1 1-1.5 1.3-.5.3-1.2.7-2.1 1 0-.1-.1-.2-.2-.4.6-.2 1.1-.4 1.8-.8l-.6-.6.3-.2c.3.2.4.4.6.6.5-.3.9-.6 1.2-1h-1.5c-.1.1-.2.2-.3.2-.4.3-.8.5-1.3.7-.1-.1-.1-.2-.2-.3.4-.1.8-.3 1.2-.6.4-.2.8-.6 1.1-.9l.3.3zm.9 2.1c-.2.2-.5.4-.7.6h1.5l.2.3c-.4.6-1 1.1-1.6 1.4-.7.4-1.6.7-2.7.9-.1-.1-.1-.3-.2-.4.8-.1 1.6-.2 2.3-.6-.2-.2-.4-.4-.6-.7l.3-.2.7.7c.5-.3.9-.6 1.3-1.1H333l-.1.1c-.4.3-1 .5-1.7.8l-.3-.3c.6-.2 1.2-.4 1.7-.7.4-.2.8-.6 1.2-1l.4.2zM340.3 658.5h-.4v-.3h-2.5v.4h-.4V654h3.2v4.5zm-.4-3.3v-.9h-2.5v.9h2.5zm0 1.3v-.9h-2.5v.9h2.5zm0 1.3v-.9h-2.5v.9h2.5zM343.3 653.7l-.2.8h.7v3.8h-.4v-.3h-1v.4h-.4v-3.9h.7l.1-.9.5.1zm.2 2.3v-1.2h-1v1.2h1zm0 1.6v-1.3h-1v1.3h1zm1.8-3.9c-.1.3-.2.6-.2.9h1.7v1.7c0 1.1 0 1.7-.1 2 0 .2-.1.3-.2.3-.2.1-.4.1-.8.1 0-.1-.1-.3-.2-.4h.6c.1 0 .2-.1.2-.2 0-.2.1-.8.1-1.8v-1.4H345v.1c-.1.4-.3.7-.5 1.1-.1-.1-.2-.2-.3-.2.2-.4.4-.8.5-1.2.1-.4.2-.7.3-1.1l.3.1zm.5 2.9-.3.3c-.2-.2-.4-.5-.7-.8l.2-.3c.3.3.5.6.8.8zM326.1 665.2c-.5-.6-1-1.3-1.7-1.9-.6.7-1.4 1.3-2.3 1.9-.1-.2-.2-.3-.3-.4.8-.4 1.5-.8 2-1.3.4-.4.9-1.1 1.5-2h-2.9v-.4h3.2l.3.3c-.4.6-.7 1.2-1 1.6.7.6 1.3 1.2 1.8 1.9l-.6.3zM330.6 665v-.4h-2.9v.4h-.4v-3.8h3.8v3.8h-.5zm0-3.4h-2.9v2.6h2.9v-2.6zM332.4 663.5c-.1-.3-.3-.6-.6-1l.3-.2c.2.3.4.7.6 1l-.3.2zm2.5.2c-.3.5-.6.9-1 1.2-.3.3-.8.5-1.4.7-.1-.1-.1-.3-.2-.4.5-.1.9-.3 1.2-.6.3-.2.6-.6.9-1 .2-.3.4-.8.5-1.4l.4.1c0 .6-.2 1-.4 1.4zm-1.4-.5c-.1-.3-.3-.7-.5-1l.3-.1c.2.4.4.7.5 1l-.3.1zM338.9 664c-.5.6-1.2 1-2.2 1.4 0-.1-.1-.3-.2-.4.8-.3 1.5-.6 2-1.2.5-.5.8-1.2 1.2-2.1h-3.6v-.4h3.8l.3.3c-.4 1.1-.8 1.9-1.3 2.4zm1.9-2.8c-.1.1-.2.2-.4.2s-.3-.1-.4-.2c-.1-.1-.2-.2-.2-.4s.1-.3.2-.4c.1-.1.2-.2.4-.2.1 0 .3.1.4.2.1.1.2.2.2.4 0 .1-.1.2-.2.4zm-.1-.6c-.1-.1-.1-.1-.2-.1-.2 0-.3.1-.3.3 0 .1 0 .2.1.2.1.1.1.1.2.1s.2 0 .2-.1c.1-.1.1-.1.1-.2-.1-.1-.1-.2-.1-.2zM342.4 663.1c-.3-.2-.7-.4-1-.5l.2-.4c.4.1.8.3 1.1.5l-.3.4zm1.6 1c-.6.4-1.3.8-2.2 1.1l-.2-.5c1.6-.5 2.9-1.4 3.9-2.7l.3.3c-.6.9-1.2 1.4-1.8 1.8zm-1-2.4c-.4-.2-.7-.4-1-.6l.2-.4c.4.2.8.4 1.1.6l-.3.4zM348.9 664c-.6.4-1.3.9-2.2 1.3l-.3-.5c1.5-.5 2.9-1.5 4-2.9l.3.3c-.6.8-1.2 1.4-1.8 1.8zm-1.1-1.8c-.4-.4-.8-.7-1.2-1l.3-.4c.5.3.9.6 1.3.9l-.4.5zM354.2 664c-.6.6-1.3 1-2.2 1.3-.1-.1-.1-.3-.2-.4.8-.2 1.5-.6 2-1 .4-.4.8-1.1 1.2-1.9h-1.8c-.4.6-.8 1.2-1.3 1.6-.1-.1-.2-.2-.4-.3l1.1-1.1c.2-.3.5-.8.8-1.4l.5.2c-.1.2-.2.4-.4.7H355.4l.3.3c-.6.8-1 1.5-1.5 2zM315.7 674.8c-.2 1.8-.5 3.1-1 3.9-.5.7-1.5 1.5-3.1 2.2-.1-.3-.3-.6-.6-.9 1.4-.5 2.4-1.1 2.9-1.8s.8-1.8.9-3.4h-5v-.9h10.5v.9h-4.6zm-4.2-2.8v-.9h7v.9h-7zM327.8 678.6c-1.1.9-2.6 1.7-4.6 2.3-.1-.3-.2-.6-.4-.9 1.7-.3 3-.9 4-1.6 1-.8 1.9-2 2.7-3.6h-7.9v-.9l8.6-.1.6.6c-1 1.8-2 3.3-3 4.2zm-5.1-6.7v-.9h6.5v.9h-6.5zM341.3 680.2c-1-1.4-2.2-2.7-3.5-4-1.3 1.5-3 2.8-5 4-.2-.4-.4-.7-.7-.9 1.7-.8 3.1-1.7 4.2-2.7.9-.9 1.9-2.3 3.1-4.3h-6.2v-.9h6.6l.1-.1.7.7c-.8 1.3-1.5 2.5-2.2 3.4 1.5 1.3 2.8 2.6 3.9 4l-1 .8zM290.9 78.2c-.2 1.8-.5 3.1-1 3.9-.5.7-1.5 1.5-3.1 2.2-.1-.3-.3-.6-.6-.9 1.4-.5 2.4-1.1 2.9-1.8s.8-1.8.9-3.4h-5v-.9h10.5v.9h-4.6zm-4.1-2.8v-.9h7v.9h-7zM303 81.9c-1.1.9-2.6 1.7-4.6 2.3-.1-.3-.2-.6-.4-.9 1.7-.3 3-.9 4-1.6 1-.8 1.9-2 2.7-3.6h-7.9v-.9l8.6-.1.6.6c-1 1.9-2 3.3-3 4.2zm-5-6.7v-.9h6.5v.9H298zM316.5 83.5c-1-1.4-2.2-2.7-3.5-4-1.3 1.5-3 2.8-5 4-.2-.4-.4-.7-.7-.9 1.7-.8 3.1-1.7 4.2-2.7.9-.9 1.9-2.3 3.1-4.3h-6.2v-.9h6.6l.1-.1.7.7c-.8 1.3-1.5 2.5-2.2 3.4 1.5 1.3 2.8 2.6 3.9 4l-1 .8zM443.7 779.7c0 .3 0 .5-.1.7h.5v-1.3h.4v1.3h.6v.3h-.6v1.2c.2-.1.4-.1.6-.2v.4c-.2.1-.4.1-.6.2v2.1h-.4v-2c-.3.1-.7.2-1 .3l-.1-.4c.3-.1.7-.2 1.1-.3v-1.3h-.5c-.1.3-.1.6-.2.8h-.3c.2-.6.3-1.2.4-1.9l.2.1zm2.7-.4c-.1.4-.2.7-.4 1h2.1l-.1 3.1c0 .3-.1.6-.1.7-.1.1-.2.2-.5.3h-.5c0-.2 0-.3-.1-.4h.6c.1 0 .2 0 .2-.1s0-.2.1-.4l.1-2.7h-.4c0 .8-.2 1.5-.5 2.1-.4.6-.8 1.1-1.4 1.5l-.3-.3c.6-.4 1-.8 1.3-1.4.3-.5.5-1.1.5-1.9h-.4c-.1.4-.2.9-.4 1.3-.3.5-.6.8-.9 1.1-.1-.1-.1-.2-.2-.3.3-.2.6-.5.8-.9.2-.3.3-.7.4-1.2h-.3c-.2.4-.4.7-.6 1-.1-.1-.2-.2-.3-.2.3-.4.5-.8.6-1.2.2-.3.3-.7.4-1.1h.3zM447.8 785.3v.4h-2v1.5h2.3v.4h-2.3v2.6h-.4v-2.6h-2.3v-.4h2.3v-1.5h-1.9v-.4h4.3zM445.9 790.8c0 .1-.1.1-.1.1.4.4.8.8 1.2 1.1.4.3.8.6 1.2.7-.1.1-.2.3-.2.4-.3-.2-.7-.4-1-.6v.3h-1.2v.6h2v.4h-2v1.4h2.3v.4h-4.9v-.4h2.2v-1.4h-2v-.4h2v-.6h-1.2v-.3c-.4.3-.7.5-.9.6-.1-.1-.2-.3-.3-.3.5-.3.9-.6 1.3-1s.8-.8 1.2-1.4l.4.4zm-1.2 4.1-.4.2c-.1-.2-.3-.5-.4-.7l.4-.2c.1.2.3.4.4.7zm2.3-2.3c-.1-.1-.3-.2-.4-.3-.4-.3-.7-.7-1-1-.3.4-.7.7-1 1.1-.1.1-.2.2-.3.2h2.7zm.3 1.7-.5.9-.3-.2.4-.9.4.2zM443.7 796.9c0 .3 0 .5-.1.7h.5v-1.3h.4v1.3h.6v.3h-.6v1.2c.2-.1.4-.1.6-.2v.4c-.2.1-.4.1-.6.2v2.1h-.4v-2c-.3.1-.7.2-1 .3l-.1-.4c.3-.1.7-.2 1.1-.3V798h-.5c-.1.3-.1.6-.2.8h-.3c.2-.6.3-1.2.4-1.9h.2zm2.7-.4c-.1.4-.2.7-.4 1h2.1l-.1 3.1c0 .3-.1.6-.1.7-.1.1-.2.2-.5.3h-.5c0-.2 0-.3-.1-.4h.6c.1 0 .2 0 .2-.1s0-.2.1-.4l.1-2.7h-.4c0 .8-.2 1.5-.5 2.1-.4.6-.8 1.1-1.4 1.5l-.3-.3c.6-.4 1-.8 1.3-1.4.3-.5.5-1.1.5-1.9h-.4c-.1.4-.2.9-.4 1.3-.3.5-.6.8-.9 1.1-.1-.1-.1-.2-.2-.3.3-.2.6-.5.8-.9.2-.3.3-.7.4-1.2h-.3c-.2.4-.4.7-.6 1-.1-.1-.2-.2-.3-.2.3-.4.5-.8.6-1.2.2-.3.3-.7.4-1.1h.3zM351.8 646.8c-.2.7-.4 1.3-.6 1.8l-.2-.2c.2-.5.4-1.1.6-1.8l.2.2zm-.2-1.3-.1.3c-.1-.1-.3-.3-.5-.4l.1-.3c.2.1.4.2.5.4zm.3-1.3-.2.3-.5-.5.2-.3c.2.1.3.3.5.5zm2.4 3.9h.3v.4h-3v-.4h.4v-1.7h2.2v1.7zm-2-2.2v-2.2h1.8v2.2h-1.8zm.4 2.2v-1.3h-.4v1.3h.4zm-.1-3.5h1.3v-.5h-1.3v.5zm0 .4v.6h1.3v-.6h-1.3zm.8 3.1v-1.3h-.4v1.3h.4zm.7 0v-1.3h-.4v1.3h.4zM356.4 645.2c-.1.8-.2 1.3-.4 1.7-.2.5-.4.9-.7 1.3-.1-.1-.1-.3-.2-.3.3-.3.5-.7.7-1.1.1-.4.3-.9.3-1.4h-.9v-.4h1l.2.2zm.6-1.7v.9c.1.5.2.9.3 1.3.3-.3.6-.6.9-1l.2.3c-.3.4-.6.8-.9 1.1.1.1.1.3.2.4.3.6.6 1 1 1.3-.1.1-.1.2-.2.4-.4-.3-.8-.8-1-1.4-.2-.4-.3-.8-.4-1.2v2.7c0 .1-.1.2-.1.3-.1.1-.3.1-.4.1 0-.1 0-.3-.1-.4h.3s.1 0 .1-.1v-4.6h.1zM359.3 647.9l-.3-.3c.3-.5.5-1 .8-1.7l.3.2c-.3.7-.5 1.2-.8 1.8zm1.5-2.6v3.2h-.3v-3.2H359v-.4h1.5v-1.2h.3v1.2h1.6v.4h-1.6zm1.3 2.4c-.3-.5-.6-1-.9-1.7l.3-.3c.3.7.6 1.2.9 1.7l-.3.3zm-.2-3c-.1-.2-.2-.4-.4-.6l.1-.2c.2.2.3.4.5.5l-.2.3zm.2-.5c-.1-.2-.2-.4-.4-.6l.1-.2c.2.2.3.4.5.5l-.2.3zM364.7 645.4v3.2h-.3v-2.8c-.5.6-1 1-1.5 1.3 0-.2-.1-.3-.2-.4.5-.3 1-.7 1.4-1.2.4-.5.8-1.1 1.2-1.7l.3.3c-.3.5-.6.9-.9 1.3zM368.2 647.5c-.3.4-.9.8-1.5 1.1 0-.1-.1-.3-.1-.4.6-.2 1-.4 1.3-.8.3-.4.6-.9.9-1.7h-2.6v-.4h2.8l.2.3c-.4.8-.7 1.5-1 1.9zm-1.7-3.1v-.4h2.1v.4h-2.1zM369.5 646.3v-.4h3.1v.4h-3.1zM274.9 40.3c-.7-.7-1.2-1.3-1.6-1.9-.4-.8-.6-1.6-.6-2.5 0-.9.2-1.7.6-2.5.3-.6.9-1.2 1.6-1.9l.5.5c-.7.6-1.2 1.2-1.5 1.8-.4.7-.6 1.4-.6 2.2 0 .8.2 1.5.6 2.2.3.5.8 1.1 1.5 1.8l-.5.3zM282.8 31.3v3.1h3.1v.6h-3.1v4h4v.6h-8.6V39h3.8v-7.7h.8zM294.4 33.1l-.6 1.6h1.3v.6H290v-.6h3.2l.6-1.9.6.3zm-1.4-2v1h2v.6h-4.7v-.6h2v-1h.7zm1.6 8.4h-.6v-.4h-2.6v.7h-.6v-3.6h3.9v3.3zm-2.7-5.1-.7.2c-.1-.4-.3-.8-.5-1.3l.6-.2c.3.4.5.9.6 1.3zm2 4.1v-1.7h-2.6v1.7h2.6zm4.2-6.9h.1l.6.4c-.4.8-.8 1.6-1.2 2.5.5.7.8 1.3 1 1.7.2.4.2.8.2 1.2 0 .3 0 .5-.1.6-.1.2-.3.4-.5.5-.3.1-.6.1-1 .1-.1-.2-.2-.5-.3-.7h.8c.3 0 .4 0 .5-.1 0-.1.1-.2.1-.4 0-.4-.1-.7-.2-1.1-.1-.4-.5-.9-1.1-1.7.4-.8.7-1.6 1-2.3h-1.7v7.6h-.6v-8.2h2.4zM304.7 32.3v4.6h-1.8V38h-.6v-5.7h2.4zm-.6 4v-3.4h-1.2v3.4h1.2zm2.9-5c-.2.7-.4 1.3-.6 1.8H309.7l.5.3-1.2 2.1-.5-.2c.4-.6.7-1.1.9-1.6h-1.8V35.5c.3.9.6 1.7 1.1 2.3.5.7 1.1 1.2 1.9 1.5-.2.2-.3.4-.3.6-.8-.4-1.4-1-1.9-1.7-.4-.5-.7-1-.9-1.7-.1.3-.2.7-.4 1-.4.8-1.3 1.6-2.6 2.4-.1-.3-.3-.5-.5-.6 1.1-.5 1.8-1.2 2.3-1.9.5-.7.7-1.6.7-2.5v-1.2h-.8c-.2.6-.5 1.2-.8 1.7-.1-.2-.3-.3-.5-.3.4-.6.7-1.3.9-2 .2-.6.4-1.2.6-1.9l.6.1zM314.8 33.2v-2h.7v2h1.1v.6h-1.1v1.6c.3-.1.7-.3 1.1-.4v.6c-.4.2-.7.3-1.1.4v3.3c0 .2-.1.4-.4.5-.2.1-.6.2-1 .2 0-.2-.1-.5-.2-.7h.8c.1 0 .2 0 .2-.1v-2.9c-.5.2-.9.3-1.3.5l-.1-.7c.4-.1.9-.3 1.5-.5v-1.8h-1.3v-.6h1.1zm3.6-.4c0-.5.1-1.1.1-1.7h.7c0 .6 0 1.1-.1 1.7h3.4v.6H319c-.1.5-.1 1-.2 1.4h2.5l.5.4c-.5 1.2-.9 2.1-1.4 2.7.6.5 1.3.9 2.2 1.2-.2.2-.3.4-.4.6-.9-.3-1.6-.8-2.2-1.3-.6.6-1.3 1.1-2.3 1.6-.1-.3-.3-.5-.4-.6.9-.4 1.6-.9 2.2-1.4-.4-.5-.8-1-1.1-1.6-.4 1.2-1.1 2.2-2 3-.1-.2-.2-.4-.5-.6.9-.8 1.6-1.8 2-3.1.2-.7.3-1.5.4-2.2h-1.5v-.6h1.6zm1.5 4.6c.5-.6.8-1.3 1.1-2h-2.3c.3.8.7 1.5 1.2 2zM327.2 38.4c-.3.6-.9 1.2-1.6 1.9l-.5-.4c.7-.6 1.1-1.2 1.5-1.8.4-.7.6-1.4.6-2.2 0-.8-.2-1.5-.6-2.2-.3-.5-.8-1.1-1.5-1.8l.5-.5c.7.7 1.2 1.3 1.6 1.9.4.8.6 1.6.6 2.5.1 1-.1 1.8-.6 2.6z"/><path class="st11" d="M359.8 363.9h83.9v65.2h-83.9zM199.1 422v-30.3H312v40h-78v-6h7.4V422zM257.1 316.8v2.2h51.8v-.8h-.4V317h1.2v-.7h1v-32.5h-1v-.7h-1.2v-1.2h-51.8v34.9z"/><path class="st12" d="M445.7 282h7.1v42h-7.1zM244.6 281.9h12.1v34.9h-12.1zM200.2 301.4h41.2v15.3h-41.2zM444.3 244.8v-1.9h-42.8v1.9H393v24.6h59.8v-24.6zM150 115.8h47.1v4.6h1.9v30.3h-49zM362.3 245.7h26.5v33h-24.6V276h-1.9zM453.2 445.4h-89.6V470h2.1v1.9h85.5V470h2zM234.1 333.5h74.8v21h-74.8zM257.1 319.1h51.8v10.2h-51.8z"/><path class="st13" d="M200.9 237.7v2h-11.4v38.4h13.2v.5h47.7v-40.9zM232.9 281.9V280h-30.2v1.9h-2.5v19.5h41.1v-19.5z"/><path class="st14" d="M444.6 363.7h11.2V429h-11.2zM217.2 425.7h14v8.6h-14zM237.4 320h16.5v9.3h-16.5zM332.4 618.3H364v10.2h-31.6z"/><path class="st12" d="M199.5 425.7h14.4v11.4h-14.4z"/><path style="fill:#feeab4" d="M146 164.8v46.8h.9v-.7h1.9v2.7h34.9v-2.7h1.8v.7h.7v-46.8z"/><path style="fill:#d2cce6" d="M135.8 221.8h11.1v-6.2h38.6v6.2h.7v.8h-.4v56.5h.4v7.8h-50.4z"/><path class="st11" d="M452.7 328.9V324h-7v-42h-86.5v1.2h-.2V318h-1.7v38.7h2v1.2h-.5v1.2h1v-.4h37.3v.4h39.4v-30.2z"/><path class="st12" d="M436.5 328.9h16.2v30.2h-16.2z"/><path style="fill:#feebbe" d="M228.3 460.6h96.5v112.7h-96.5z"/><path class="st4" d="M347.1 115.8v-8.4h-.8v-3.9h1v-2.1h-53.5v2.1h1v3.9h-.8v8.4h20.8v118.7h-2.4v3.2h7.6v-4.1h-1.1V115.8zM271.5 234.5h-71.1V150.7H150v-34.9h47.1v4.6h3.3v-4.6h20.7v-8.4h-.7v-3.9h.9v-2.1h-85.5v120.4h11.1v-10.2h-.9v-46.8h40.2v46.8h-.7v10.2h.7v.8h1.9v16.1h1.4v1h11.4v-2h70.6zM315.3 615.1v8.4h.7v4h-.9v2.1h4.8v11.6h56.7v-11.6h2.5v-2.1h-.9v-4h.7v-8.4h-63.6zm48.8 13.5h-31.6v-10.2h31.6v10.2zM312.2 281.9v-3.3H233v3.3h8.4v34.9h-41.2v-34.9h2.6v-3.8h-13.2v1h-3.3v7.8h-50.4v15h47.8l-.5 313.2H170v14.4h16.3V653h10.2v-23.5H238v-2.1h-1v-4h.7V615h-38.2V425.7h14.4v11.9H234v-11.9h7.3V422H199V320h34.6v13.5h75.3V355h3.3v-36.8h-3.3v11.2h-51.8v-12.6h-12.6v-34.9h67.7zm-95 143.8h14v8.6h-14v-8.6zM253.9 320v9.3h-16.5V320h16.5zM469.1 115.8h15.1v-14.4h-59.7v2.1h.9v4h-.7v8.4h28.1v125.8h-8.5v3.5h8.5v24.4H393V245h8.5v-3.3h-36.4v-8h-4.2v12.2h27.9v33h-24.6V276h-3.3v2.8H354v3.3h98.8v77.1h-55.7v4.7h46.6v65.3h-83.9V364h.1v-4.8h-1.1v-1.3H357v-1.2h.3V318H354v11.3h-.9v4.2h.9V444h6.3v34.8h3.3v-5.5h2.1V470h-2.1v-24.6h89.7V470h-2.1v3.3h1.6v141.8h-14.9v8.4h.7v3.9h-.9v2.1h18.1V653H466v-23.5h18.1v-14.4H469V115.8zm-13.2 313.3h-11.2v-65.3h11.2v65.3z"/><path class="st18" d="M150 120.4h47.1M150 125.1h49M150 129.7h49M150 134.4h49M150 139h49M150 143.7h49M150 148.3h49M200.5 120.4h114.3M200.5 125.1h114.3M200.5 129.7h114.3M200.5 134.4h114.3M200.5 139h114.3M200.5 143.7h114.3M200.5 148.3h114.3M318.9 120.4h133.9M318.9 125.1h133.9M318.9 129.7h133.9M318.9 134.4h133.9M318.9 139h133.9M318.9 143.7h133.9M318.9 148.3h133.9M200.4 153h114.4M200.4 157.6h114.4M200.4 162.3h114.4M200.4 166.9h114.4M200.4 171.6h114.4M200.4 176.2h114.4M200.4 180.9h114.4M200.4 185.5h114.4M200.4 190.2h114.4M200.4 194.8h114.4M200.4 199.5h114.4M200.4 204.1h114.4M200.4 208.8h114.4M200.4 213.4h114.4M200.4 218.1h114.4M200.4 222.7h114.4M200.4 227.4h114.4M200.4 232h114.4M318.9 153h133.9M318.9 157.6h133.9M318.9 162.3h133.9M318.9 166.9h133.9M318.9 171.6h133.9M318.9 176.2h133.9M318.9 180.9h133.9M318.9 185.5h133.9M318.9 190.2h133.9M318.9 194.8h133.9M318.9 199.5h133.9M318.9 204.1h133.9M318.9 208.8h133.9M318.9 213.4h133.9M318.9 218.1h133.9M318.9 222.7h133.9M318.9 227.4h133.9M318.9 232h133.9M272.6 236.7h38.7M321.2 236.7h38.6M365.1 236.7h87.7M250.4 241.3h110.5M365.1 241.3h87.7M250.4 246h110.5M250.4 250.6h110.5M250.4 255.3h110.5M250.4 259.9h110.5M250.4 264.6h110.5M393 246h59.7M393 250.6h59.7M393 255.3h59.7M393 259.9h59.7M393 264.6h59.7M250.4 269.2h110.5M393 269.2h59.8M250.4 273.9h110.5M250.4 278.5h110.5M312.7 283.2h45M312.7 287.8h45M312.7 292.5h45M312.7 297.1h45M312.7 301.8h45M312.7 306.4h45M312.7 311h45M312.7 315.7h45M312.2 320.3H354M312.2 325H354M313.3 329.6h40.3M312.2 334.3H354M312.2 338.9H354M312.2 343.6H354M312.2 348.2H354M312.2 352.9H354M199.1 338.9h35M199.1 334.3h35M199.1 329.6h35M199.1 325h35M199.1 320.3h35M199.1 343.6h35M199.1 348.2h35M199.1 352.9h35M199.1 357.5H354M199.1 362.2H354M199.1 366.8H354M199.1 371.5H354M199.1 376.1H354M199.1 380.8H354M199.1 385.4H354M199.1 390.1H354M312 394.7h42M312 399.4h42M312 404h42M312 408.7h42M312 413.3h42M312 418h42M312 422.6h42M312 427.3h42M234 431.9h120M234.1 436.6H354M199.7 441.2H354M199.7 445.9h160.7M199.7 450.5h160.7M199.7 455.2h160.7M199.7 459.8h160.7M199.7 464.5h160.7M199.7 469.1h160.7M199.7 473.8h160.7M199.7 478.4h160.7M199.7 483.1h158.9M199.7 487.7h158.9M199.7 492.4h158.9M199.7 497h158.9M199.7 501.7h158.9M199.7 506.3h158.9M199.7 510.9h158.9M199.7 515.6h157.4M199.7 520.2h157.4M199.7 524.9h157.4M199.7 529.5h157.4M199.7 534.2h157.4M199.7 538.8h157.4M199.7 543.5h157.4M199.7 548.1h155.9M199.7 552.8h155.9M199.7 557.4h155.9M199.7 562.1h155.9M199.7 566.7h155.9M199.7 571.4h155.9M199.7 576h155.9M199.7 580.7H354M199.7 585.3H354M199.7 590H354M199.7 594.6H354M199.7 599.3H354M199.7 603.9H354M199.7 608.6H354M199.7 613.2H354M363.6 445.9h89.6M363.6 450.5h89.6M363.6 455.2h89.6M363.6 459.8h89.6M363.6 464.5h89.6M363.6 469.1h89.6M363.6 473.8h89.2M363.6 478.4h89.2M360.2 483.1h92.6M360.2 487.7h92.6M360.2 492.4h92.6M360.2 497h92.6M360.2 501.7h92.6M360.2 506.3h92.6M360.2 510.9h92.6M358.6 515.6h94.2M358.6 520.2h94.2M358.6 524.9h94.2M358.6 529.5h94.2M358.6 534.2h94.2M358.6 538.8h94.2M358.6 543.5h94.2M357.1 548.1h95.7M357.1 552.8h95.7M357.1 557.4h95.7M357.1 562.1h95.7M357.1 566.7h95.7M357.1 571.4h95.7M357.1 576h95.7M357.1 580.7h95.7M355.5 585.3h97.3M355.5 590h97.3M355.5 594.6h97.3M355.5 599.3h97.3M355.5 603.9h97.3M355.5 608.6h97.3M355.5 613.2h97.3"/><path class="st19" d="M226.7 237.7v40.9M208.1 237.7v40.9M226.7 280v21.4M208.1 280v21.4M189.5 249.6h55.8M189.5 268.2h55.8M200.2 286.8h45.1"/><path class="st20" d="M200.4 241.5h155.9v26.4H200.4z"/><path class="st21" d="M213.6 118.3h87.9M213.6 120.7h87.9M339.2 118.3h92.6M339.2 120.7h92.6M371.7 612.6h71.2M371.7 610.2h71.2M230.6 612.6h92.6M230.6 610.2h92.6"/><path class="st6" d="M229.7 615.1v-7.5h94.4v7.5M370.8 615.1v-7.5h73v7.5"/><path class="st22" d="M363.6 458h89.6M363.6 459.3h89.6M200.2 289.4h41.1M200.2 290.8h41.1M393 255.5h59.8M393 256.9h59.8M164.8 115.8v34.9M166.2 115.8v34.9"/><path class="st23" d="m453.2 445.4-89.6 20.9h89.6M388.8 278.7l-18.6-33v33M452.8 269.4 393 248.5h59.8M150 115.8l20.9 34.9v-34.9M146 164.8l40.2 21H146M241.3 316.8l-41.1-15.4h41.1M244.6 281.9l12.1 34.9v-34.9M199.5 425.7l14.4 11.4M436.5 328.9l16.3 30.2M452.8 328.9h-16.3v30.2"/><path class="st7" d="M308.9 354.5h-74.8v-21M199.5 437.1h14.4M250.4 237.7v40.9M245.3 237.7v40.9"/><path class="st6" d="M241.4 422v-28.4h-42.3M199.7 322.3h32.5v32.5h-32.5zM422.7 328.9h29.8v29.8h-29.8zM446.4 282v42"/><path class="st7" d="M424.8 282v7.1s-.7 7-.7 14.4.7 13.6.7 13.6v6.9h27.9M445.8 317.5v6.5M445.7 288.7V282"/><path class="st7" d="m446.4 317.5-1.6-4.3c-.4-1.1-2-1.2-2-1.2-2-.2-3.9 0-6.4.3-2.5.2-4.4 1.2-6.3 3.3-2 2.1-4.6 1.9-4.6 1.9h24.2c.8 0 .9-.8.9-.8l.1-1s.6-5.3.6-12.6-.7-13.6-.7-13.6c-.1-.8-.9-.8-.9-.8h-24.2s2.7-.3 4.6 1.9 4 3.2 7.7 3.5c3.7.3 5.5.1 5.5.1s1.2-.2 1.6-1.2 1.5-4.3 1.5-4.3"/><path class="st7" d="M446.8 288.7s-.8 8.2-.8 14.4.8 14.4.8 14.4"/><circle class="st7" cx="441.1" cy="303.1" r="1.2"/><path class="st7" d="M288.2 328.4h14.4c.1 0 .2-.1.2-.2v-6.5c0-.1-.1-.2-.2-.2h-14.4c-.1 0-.2.1-.2.2v6.5c0 .1.1.2.2.2z"/><path class="st7" d="M298.2 321.4c.1 0 .2.1.2.2v6.5c0 .1-.1.2-.2.2"/><circle class="st7" cx="293.1" cy="326.1" r="1"/><path class="st7" d="M303.4 329.1h-15.8c-.1 0-.2-.1-.2-.2V321c0-.1.1-.2.2-.2h15.8c.1 0 .2.1.2.2v7.9c0 .1-.1.2-.2.2zM306.7 319.1h.9v7.4h-.9zM307.6 322.3h1.3v1.1h-1.3zM433.5 283.4h7.4v.9h-7.4zM436.7 282h1.1v1.4h-1.1zM282.3 301.1c0-9-13.5-9.1-13.5-9.1s-6.4-.2-9-.2c-2.6 0-2.2 1.5-2.2 1.5s-.2 5.2-.2 7.7.2 8 .2 8-.3 1.5 2.2 1.5c2.6 0 9-.2 9-.2s13.5-.2 13.5-9.1M246.6 308.4c0 2.2 1.7 1.9 1.7 1.9h5.8c2.2 0 2.3-1.9 2.3-1.9s.5-1.9.5-7.6c0-5.7-.5-7-.5-7s-.1-1.9-2.3-1.9h-5.8s-1.7-.2-1.7 1.9v14.6zM257.7 309.5H256M257.6 293.2h-1M265.1 291.8v18.5"/><path class="st7" d="m261.3 291.6-.4 2.8h1.9v12.8h-1.9l.5 3M285.9 282v4c0 .3.3.6.7.7h.2c.3 0 .6-.3.7-.7v-4M261 282v3.1h24.8"/><path class="st7" d="M286.7 286.6h-26.5s-.8 0-.8-.9V282M204.1 415.9c0 .6.5 1 1 1H231c.6 0 1-.5 1-1v-21.3c0-.6-.5-1-1-1h-25.9c-.6 0-1 .5-1 1v21.3z"/><path class="st7" d="M205.3 395.2h25.6v18.2h-25.6zM292 407c0 2-1.6 3.7-3.7 3.7-2 0-3.7-1.6-3.7-3.7s1.6-3.7 3.7-3.7c2 .1 3.7 1.7 3.7 3.7z"/><path class="st7" d="M199.1 391.7H312v40h-78"/><path class="st7" d="M269.6 417c0 1.3 1 2.3 2.3 2.3h32.6c1.3 0 2.3-1 2.3-2.3v-19.6c0-1.3-1-2.3-2.3-2.3H272c-1.3 0-2.3 1-2.3 2.3V417z"/><circle class="st7" cx="211.5" cy="401.4" r="4.6"/><circle class="st7" cx="224.8" cy="401.4" r="4.6"/><circle class="st7" cx="218.1" cy="409.5" r="3.3"/><path class="st7" d="M221.1 413.5c-.8.6-1.8.9-2.9.9-1.1 0-2.1-.3-2.9-.9h-9.8v2.3h25.6v-2.3h-10zM290 395.7c2.8 0 9.9 0 11.5.2 1.6.2 4.5 1.8 4.5 4.9 0 3.1.2 9.8-.1 10.6-.3.8-1 3.8-5.3 3.8s-3.6-.1-3.6-.1-2 .6-3.2 1.4c-1.2.8-2.7 1.8-5.5 1.8h-.2c-2.8 0-4.3-1-5.5-1.8-1.2-.8-3.2-1.4-3.2-1.4s.7.1-3.6.1-5-3-5.3-3.8c-.3-.8-.1-7.4-.1-10.6 0-3.1 2.9-4.7 4.5-4.9 1.6-.2 8.7-.2 11.5-.2h3.6zM257.1 319h51.8M360.1 419.7c2.9-.1 8.9 2.1 9.1 9.1"/><path class="st7" d="M364.6 420.9v-4.7h37.1v12.9M401.7 422.2h-35.4M401.7 423.3h-34.3M401.7 428h-32.5M408.1 429.1v-65.3M362 378.3V396M362.5 378.3V396M362.8 378.3h-2.9v-.9h2.7s.2 0 .2.2v.7zM362.8 396h-2.9v.9h2.7s.2 0 .2-.2v-.7z"/><circle class="st7" cx="416.6" cy="396.4" r="1.6"/><path class="st7" d="M441.3 410.9v1.8c0 3-2 7.2-4.3 9.4s-6.1 5-10.9 5-9-1.5-12.7-5.6-3.7-9.2-3.7-9.2v-32.2c0-3.2 2.5-7.9 4.6-9.9s6.3-4.5 10.4-4.5c4.1 0 7.5.6 11.9 4.5s4.7 9.9 4.7 9.9v1.8"/><path class="st7" d="M443.6 381.1s-1.8.4-3.2 1.3c0 0-.1.1-.1.2v2h.9s.2 0 .4-.1c.1-.1 1.3-.6 2.1-.8M443.6 411.8s-1.8-.4-3.2-1.3c0 0-.1-.1-.1-.2v-2h.9s.2 0 .4.1c.1.1 1.3.6 2.1.8M440.3 384.6v23.7M441.7 408.5v-24.1M440.2 382.6l-.1-2.9s0-4-3.1-6.9c0 0-1.1-1.3-3.8-1.6s-5.6-.5-7.2-.5-5.4.2-7.6.7c-2.2.5-2.9 1.1-3.9 2.3s-2 3.8-2 6.4v32.6s-.2 3.3 2 6.4c0 0 1.1 1.9 3.9 2.3 2.8.4 5.8.7 7.8.7s6.5-.2 7.8-.6c1.3-.4 2.1-.6 3-1.5.9-.9 2.9-2.9 3.1-7.3l.1-2.5"/><path class="st7" d="M412.5 398.8s.1 1.5.6 2.5 1.3 1.9 1.3 3.7c0 1.9.3 12.3.3 12.3s-.1 3.2 3.7 4.2M431.8 421.9s5.1.1 5.7-4.7c.6-4.8.9-12.5.9-12.5s-.1-.8.6-2.2c.6-1.4 1.2-2.7 1.3-4.8M412.5 394.1s.1-1.5.6-2.5 1.3-1.9 1.3-3.7c0-1.9.3-12.3.3-12.3s-.1-3.2 3.7-4.2M431.8 371s5.1-.1 5.7 4.7c.6 4.8.9 12.5.9 12.5s-.1.8.6 2.2c.6 1.4 1.2 2.7 1.3 4.8"/><path class="st7" d="m415.3 388.3.4-12.2s.1-3.3 3.5-3.9c3.5-.6 6.6-.6 6.6-.6s5.8.1 7.5.5 3.3 1.6 3.5 3.7.9 12.4.9 12.4-.1.9.6 2.2c.6 1.4 1.1 2.1 1.1 3.5v4.9s0 1.1-.4 2.2c-.5 1-1.1 2-1.2 3.6l-.9 12.4s-.1 2-2.1 3.2c-1.9 1.1-8.7 1-8.7 1s-5.3-.1-6.9-.6-3.3-1.3-3.5-3.9l-.4-12.2s0-.9-.4-2.1c-.5-1.2-.9-2.1-.9-3.4v-5.4s0-.8.3-1.7c.3-.9.6-1.7.6-1.7s.3-.5.4-1.9z"/><path class="st24" d="M358.3 318v38.7M356.3 445.1v100.7M354.8 445.1v134M357.9 445.1v67.2M359.4 445.1v33.7"/><path class="st9" d="M222 103.5h-1.6v3.9h.7v8.9h.9zM293.2 103.5h1.6v3.9h-.8v8.9h-.8zM221.3 103.5v-2.8h72.5v2.8M257.6 117.9v-7.1M293.2 116.3H222"/><path transform="rotate(-180 274.692 114.21)" class="st9" d="M256.2 113.6h37v1.2h-37z"/><path transform="rotate(-180 240.458 113.047)" class="st9" d="M222 112.5h37v1.2h-37z"/><path transform="rotate(-180 257.609 108.367)" class="st9" d="M256.2 107.1h2.9v2.6h-2.9z"/><path transform="rotate(-180 274.692 106.5)" class="st9" d="M256.2 105.9h37v1.2h-37z"/><path transform="rotate(-180 240.458 105.339)" class="st9" d="M222 104.8h37v1.2h-37z"/><path class="st9" d="M257.6 101.6v5.6M347.9 103.5h-1.6v3.9h.8v8.9h.8zM423.8 103.5h1.6v3.9h-.7v8.9h-.9zM347.3 103.5v-2.8h77.2v2.8M385.9 117.9v-7.1M423.8 116.3h-75.9"/><path transform="rotate(-180 404.138 114.21)" class="st9" d="M384.5 113.6h39.4v1.2h-39.4z"/><path transform="rotate(-180 367.58 113.047)" class="st9" d="M347.9 112.5h39.3v1.2h-39.3z"/><path transform="rotate(-180 385.893 108.367)" class="st9" d="M384.5 107.1h2.9v2.6h-2.9z"/><path transform="rotate(-180 404.138 106.5)" class="st9" d="M384.5 105.9h39.4v1.2h-39.4z"/><path transform="rotate(-180 367.58 105.339)" class="st9" d="M347.9 104.8h39.3v1.2h-39.3z"/><path class="st9" d="M385.9 101.6v5.6M437.1 627.4h1.5v-3.9h-.7v-8.9h-.8zM379.8 627.4h-1.6v-3.9h.7v-8.9h.9zM437.7 627.4v2.8h-58.6v-2.8M408.4 613v7M379.8 614.6h57.3M379.8 616.1h30.1v1.2h-30.1z"/><path class="st9" d="M407 617.3h30v1.2h-30zM407 621.2h2.9v2.6H407z"/><path class="st9" d="M379.8 623.8h30.1v1.2h-30.1zM407 625h30v1.2h-30zM408.4 629.3v-5.6M314.5 627.4h1.6v-3.9h-.8v-8.9h-.8zM238.6 627.4H237v-3.9h.8v-8.9h.8zM315.1 627.4v2.8H238v-2.8M276.5 613v7M238.6 614.6h75.9"/><path class="st9" d="M238.6 616.1H278v1.2h-39.4z"/><path class="st9" d="M275.2 617.3h39.3v1.2h-39.3zM275.1 621.2h2.9v2.6h-2.9z"/><path class="st9" d="M238.6 623.8H278v1.2h-39.4zM275.2 625h39.3v1.2h-39.3zM276.5 629.3v-5.6M185.5 215.6h-1.1v-2h-.7v-2.7h1.8zM148.8 213.6h-.7v2h-1.2v-4.7h1.9z"/><path transform="rotate(-180 166.232 214.54)" class="st9" d="M148.1 213.6h36.3v1.9h-36.3z"/><path class="st9" d="M148.4 215.5c0 19.7 16 35.7 35.7 35.7v-35.7M189.5 277.5h-1.9v.7h-1.8v.9h3.7zM189.5 240.3h-1.9v-.7h-1.8v-.9h3.7zM189.5 240.3v37.2M187.6 240.3v37.2M185.8 239.6v38.6"/><path class="st9" d="M187.6 239.6c-21.3 0-38.6 17.3-38.6 38.6h36.7"/><path transform="rotate(-180 186.934 230.648)" class="st9" d="M185.8 222.6h2.3v16h-2.3z"/><path transform="rotate(-180 396.652 361.245)" class="st9" d="M396.2 358.7h1v5.2h-1z"/><path transform="rotate(-180 360.337 361.245)" class="st9" d="M359.8 358.7h1v5.2h-1z"/><path class="st9" d="M396.2 358.7h-35.4M396.1 360.8h-35.2M396.2 362.2h-35.3M396.2 363.8h-35.4M396.2 362.2c0 18-13.8 32.8-31.4 34.4l-3.9-34.4M353.6 316.9h4.1v1.2h-4.1zM353.6 281.9h5.6v1.2h-5.6z"/><path class="st9" d="M357.7 283.2h1.3v34.9h-1.3zM357 356.7h2.2v1.2H357zM353.7 300h8M353.1 334v-5.1h-1.2v3h-.7v.7h.7v1.4zM312.2 334v-5.1h1.1v3h.7v.7h-.7v1.4z"/><path transform="rotate(-90 332.642 333.304)" class="st9" d="M332 314h1.3v38.6H332z"/><path transform="rotate(-90 351.237 353.26)" class="st9" d="M331.9 352.6h38.6v1.4h-38.6z"/><path class="st9" d="M313.3 334c0 21.3 17.3 38.6 38.6 38.6M312.7 318.2h-4.2V317h1.2v-.7h1v.7h2zM312.7 281.8h-4.2v1.3h1.2v.7h1v-.7h2z"/><path transform="rotate(-180 329.294 283.9)" class="st9" d="M312.7 283.1H346v1.7h-33.3z"/><path class="st9" d="M310.7 283.1h2V317h-2zM312.7 316.9c18.7-.5 33.2-15.5 33.3-33.8M311.3 234v1.3h-.7v.7h.7v2.2h1.1V234zM271.5 234v4.2h1.2V236h.7v-.7h-.7V234z"/><path transform="rotate(90 291.982 234.683)" class="st9" d="M291.3 215.4h1.3V254h-1.3z"/><path transform="rotate(90 310.577 214.729)" class="st9" d="M291.3 214h38.6v1.4h-38.6z"/><path class="st9" d="M311.3 195.4c-21.3 0-38.6 17.3-38.6 38.6M321.2 233.1v1.3h.7v.7h-.7v3.1H320v-5.1zM360.9 233.1v5.1h-1.1v-3.1h-.7v-.7h.7v-1.3z"/><path transform="rotate(90 340.49 233.753)" class="st9" d="M339.8 214.5h1.3v38.6h-1.3z"/><path transform="rotate(90 321.895 213.8)" class="st9" d="M302.6 213.1h38.6v1.4h-38.6z"/><path class="st9" d="M321.2 194.5c21.3 0 38.6 17.3 38.6 38.6M401.5 241.5h42.8v1.4h-42.8zM444.3 241.5l-3.6-21-3.6 21M199 120.4h1.4v30.2H199zM200.4 125.5l14.9-2.5-14.9-2.6M365.7 471.9h85.5v1.4h-85.5zM444 473.3l3.6 21.1 3.6-21.1M365.7 473.3l3.6 21.1 3.5-21.1M360.3 478.8h3.8v1.2h-3.8zM358.6 478.8h1.5v34.9h-1.5zM357.1 512.3h1.5v34.9h-1.5zM355.6 545.8h1.5v34.9h-1.5zM354 579.1h1.5V614H354zM353.6 614h10.5v1.1h-10.5zM348.8 579.9h12.8M351 546.5h10.6M350.4 513h12.8M353.6 444h6.8v1.1h-6.8zM202.7 278.6h30v1.4h-30zM232.9 278.6l-2.5-14.8-2.5 14.8M360.9 245.7h1.4v30.2h-1.4zM360.9 270.9l-14.8 2.5 14.8 2.6"/><path class="st10" d="M347.3 101.4h-53.5M320 233.6h-1.1V115.8h28.2M312.4 237.7h7.6M294 115.8h20.8v118.7h-2.4M271.5 234.5h-71.1V150.7H150v-34.9h47.1v4.6h3.3v-4.6h20.7"/><path class="st10" d="M135.8 57.9v163.9h11.1v-10.2h-.9v-46.8h40.2v46.8h-.7v10.2h.7v.8h1.9v16.1h1.4v1h11.4v-2h70.6"/><path class="st10" d="M221.3 101.4H146V57.9M378.9 615.1h-63.4M315.1 629.5h4.8v11.6h56.7v-11.6h2.4M332.4 618.3H364v10.2h-31.6zM312.2 281.9v-3.3H233v3.3h8.4v34.9h-41.2v-34.9h2.6v-3.8h-13.2v1h-3.3v7.8h-50.4v15h47.8l-.5 313.2H170v14.4h16.3V653h10.2v-23.5H238m70.9-311.3v11.2h-51.8v-12.6h-12.6v-34.9h63.9m-70.6 333.2h-38.2V425.7H214v11.9h20v-11.9h7.3V422H199V320h34.6v13.5h75.3V355h3.3v-36.8m-95 107.5h14v8.6h-14v-8.6zM253.9 320v9.3h-16.5V320h16.5zM456.6 57.9v43.5h-32.1m13.2 528.1h18.1V653H466v-23.5h18.1v-14.4H469V115.8h15.1v-14.4h-18.8V57.9M363.6 478.8v-5.5h2.1V470h-2.1v-24.6h89.7V470h-2.1v3.3h1.6v141.8h-14.9m-77.6-170v33.7m-7.2-145.3h.9V444m0-126v11.3h-.9m4.2 27.4V318m2.5 41.1h-1v-1.3m38.3 5.9h46.6V429h-83.9v-65.2h.1m-.7-81.8h93.6v77.1h-55.7m-36.2-120.9v7.5h28v33h-24.6V276H361v2.8h-7v3.3m70.7-166.3h28.1v125.8h-8.5v3.5h8.5v24.4H393v-24.6h8.5v-3.3h-36.4v-8h-4.2m95 195.5h-11.2v-65.3h11.2v65.3z"/><path d="M362.9 312.6v-.7h5.5l.4-4.2H364v-.7h5.5l-.4 5h2.3v.7h-8.5zM372.4 310.1v-.7h7.6v.7h-7.6zM385.4 309.2c-.1 1.5-.4 2.5-.8 3.1-.4.6-1.2 1.2-2.5 1.8-.1-.2-.3-.5-.5-.7 1.2-.4 1.9-.9 2.3-1.4.4-.5.6-1.4.7-2.7h-4v-.7h8.4v.7h-3.6zm-3.3-2.2v-.7h5.6v.7h-5.6zM393.9 309.9v4.3h-.6v-3.8c-.8.7-1.8 1.3-2.9 1.8-.1-.2-.2-.4-.4-.6.9-.4 1.8-.9 2.8-1.7.9-.7 1.7-1.4 2.3-2.3l.6.5c-.6.7-1.2 1.3-1.8 1.8zM397.4 310.9v-4.6h.7v4.6h-.7zm5-2.6c0 1.2-.1 2.1-.3 2.7-.2.7-.5 1.3-1 1.8s-1.3.8-2.4 1.2c-.1-.3-.2-.5-.4-.7 1.4-.4 2.3-.9 2.8-1.6.4-.6.6-1.7.6-3.3v-2.5h.7v2.4zM408.5 309.2c-.1 1.5-.4 2.5-.8 3.1-.4.6-1.2 1.2-2.5 1.8-.1-.2-.3-.5-.5-.7 1.2-.4 1.9-.9 2.3-1.4.4-.5.6-1.4.7-2.7h-4v-.7h8.4v.7h-3.6zm-3.3-2.2v-.7h5.6v.7h-5.6zM417.1 309.9v4.3h-.6v-3.8c-.8.7-1.8 1.3-2.9 1.8-.1-.2-.2-.4-.4-.6.9-.4 1.8-.9 2.8-1.7.9-.7 1.7-1.4 2.3-2.3l.6.5c-.6.7-1.3 1.3-1.8 1.8zM363.7 251.6c-.1-.1-.3-.2-.5-.3.5-.5 1-1.1 1.4-1.7l.5.2c-.4.7-.9 1.3-1.4 1.8zm2.8-2.6v3.3h-.5V249h-2.7v-.4h2.7v-1.3h.5v1.3h2.9v.4h-2.9zm2.4 2.5c-.6-.5-1.1-1.1-1.6-1.8l.5-.3c.5.7 1 1.3 1.6 1.7-.2.2-.3.3-.5.4zM366.1 257.4v-4.6h.5v4.6h-.5zM364.9 260.7c-.3.7-.8 1.4-1.6 1.9-.1-.1-.2-.3-.4-.4.6-.3 1-.7 1.3-1.2.2-.4.3-.9.4-1.6v-1.1h.5c.1 1.1 0 1.9-.2 2.4zm1.9 1.8-.4-.3.1-.1V258h.5v3.8c.8-.4 1.5-1.1 2.3-1.8.1.1.3.2.4.3-1 .9-1.9 1.6-2.9 2.2zM363.9 263.9v2.7c.3-.1.6-.2 1-.3v-3.1h.5v5.2h-.5v-1.7c-.7.2-1.3.4-1.9.6l-.1-.4c.2 0 .4-.1.5-.1V264h.5zm5.5-.1c-.4 1.1-.8 2-1.2 2.6-.1.1-.2.2-.3.4.4.5 1 .9 1.7 1.3-.1.1-.3.2-.4.3-.7-.4-1.3-.8-1.7-1.3-.5.4-1 .9-1.7 1.3-.1-.2-.2-.3-.3-.4.7-.4 1.3-.8 1.8-1.3-.1-.1-.1-.2-.2-.3-.4-.7-.6-1.5-.7-2.4h-.6v-.4H369.1l.3.2zm-1.8 2.6.1-.1c.5-.6.8-1.4 1.1-2.3h-1.9c.1.9.3 1.7.7 2.4zM364.5 269.3l-.7 1.1c.2.1.3.2.4.3l.7-1 .5.2-1.3 1.8c.3 0 .6 0 .9-.1-.1-.1-.1-.2-.2-.3l.4-.1c.2.3.3.6.5.9l-.5.1c0-.1-.1-.2-.1-.3-.2 0-.4.1-.6.1v2.4h-.5v-2.3c-.4.1-.8.1-1.2.1l-.1-.4h.7l.5-.7c-.4-.3-.8-.5-1.2-.7l.3-.3c.1.1.2.1.3.2l.6-1.2.6.2zm-.8 3.3c0 .5-.2.9-.3 1.4l-.5-.1c.2-.4.3-.8.3-1.3h.5zm1.9 1c-.1 0-.3 0-.5.1-.1-.3-.2-.7-.2-1.1h.5c0 .3.1.7.2 1zm1.6-3.3v-1.2h.5v1.2h1.6v3.6c0 .2-.1.3-.2.4-.1.1-.4.1-.7.1 0-.2-.1-.3-.2-.5h.5c.1 0 .1 0 .1-.1v-3.1h-1.1c0 .3 0 .5-.1.8.4.4.8.8 1.1 1.2l-.4.3c-.2-.3-.5-.6-.8-1-.1.4-.4.8-.8 1.2-.1-.1-.3-.2-.4-.3v1.5h-.5v-4.1h1.4zm-.1 1.4c.1-.2.2-.6.2-1.1h-.9v2.2c.3-.3.5-.7.7-1.1zM223.2 429.9c-.3.2-.6.3-1 .3h-1.3v2h-.5v-4.6h1.6c.5 0 .9.1 1.2.3.4.2.5.6.5 1-.1.4-.2.8-.5 1zm-1.2-1.8h-1.2v1.7h1.2c.7 0 1.1-.3 1.1-.8 0-.6-.4-.9-1.1-.9zM227.2 432c-.3.2-.7.3-1.1.3-.5 0-.8-.1-1.2-.3-.3-.2-.5-.6-.6-1h.6c.1.3.2.6.4.7.2.1.4.2.8.2.3 0 .5-.1.7-.2.2-.2.4-.4.4-.6 0-.3-.4-.6-1.1-.9-1-.4-1.5-.9-1.5-1.4 0-.4.2-.7.5-.9.3-.2.6-.3 1-.3.7 0 1.2.4 1.5 1.2h-.6c-.2-.5-.5-.7-.9-.7-.3 0-.5.1-.6.2-.2.1-.3.3-.3.6 0 .2.2.5.7.7.4.2.8.5 1.3.7.5.3.7.6.7 1-.2.1-.4.5-.7.7zM346.4 623.9c-.3.2-.6.3-1 .3H344v2h-.5v-4.6h1.6c.5 0 .9.1 1.2.3.4.2.5.6.5 1 .1.4-.1.8-.4 1zm-1.1-1.8H344v1.7h1.2c.7 0 1.1-.3 1.1-.8 0-.6-.4-.9-1-.9zM352.9 626c-.3.2-.7.3-1.1.3-.5 0-.8-.1-1.2-.3-.3-.2-.5-.6-.6-1h.6c.1.3.2.6.4.7.2.1.4.2.8.2.3 0 .5-.1.7-.2.2-.2.4-.4.4-.6 0-.3-.4-.6-1.1-.9-1-.4-1.5-.9-1.5-1.4 0-.4.2-.7.5-.9.3-.2.6-.3 1-.3.7 0 1.2.4 1.5 1.2h-.6c-.2-.5-.5-.7-.9-.7-.3 0-.5.1-.6.2-.2.1-.3.3-.3.6 0 .2.2.5.7.7.4.2.8.5 1.3.7.5.3.7.6.7 1-.2.1-.4.5-.7.7zM243.6 324.8c-.3.2-.6.3-1 .3h-1.3v2h-.5v-4.6h1.6c.5 0 .9.1 1.2.3.4.2.5.6.5 1-.1.5-.2.8-.5 1zm-1.2-1.8h-1.2v1.7h1.2c.7 0 1.1-.3 1.1-.8 0-.6-.4-.9-1.1-.9zM250.1 326.9c-.3.2-.7.3-1.1.3-.5 0-.8-.1-1.2-.3-.3-.2-.5-.6-.6-1h.6c.1.3.2.6.4.7.2.1.4.2.8.2.3 0 .5-.1.7-.2.2-.2.4-.4.4-.6 0-.3-.4-.6-1.1-.9-1-.4-1.5-.9-1.5-1.4 0-.4.2-.7.5-.9.3-.2.6-.3 1-.3.7 0 1.2.4 1.5 1.2h-.6c-.2-.5-.5-.7-.9-.7-.3 0-.5.1-.6.2-.2.1-.3.3-.3.6 0 .2.2.5.7.7.4.2.8.5 1.3.7.5.3.7.6.7 1-.2.2-.4.5-.7.7zM240.4 605.2c0 .6-.1 1.1-.1 1.4 0 .2-.1.3-.2.4-.1.1-.4.1-.9.2 0-.1-.1-.3-.1-.4h.5c.2 0 .3-.1.4-.2.1-.2.1-.5.1-1v-1.3h-1.3c-.1.8-.3 1.4-.6 1.9s-.8.9-1.4 1.3c-.1-.1-.2-.3-.3-.4.6-.3 1-.7 1.3-1.1.3-.4.5-1 .6-1.6h-1.5v-.4h1.5v-1.2h.5v1.2h1.8l-.3 1.2zM241 605.1v-.4h4.5v.4H241zM248.6 604.6c-.1.9-.2 1.5-.5 1.8-.2.3-.7.7-1.4 1-.1-.1-.1-.3-.3-.4.7-.2 1.1-.5 1.4-.8.2-.3.4-.8.4-1.6h-2.3v-.4h4.9v.4h-2.2zm-1.9-1.3v-.4h3.3v.4h-3.3zM253.9 605.9c-.6.4-1.3.9-2.2 1.3l-.3-.5c1.5-.5 2.9-1.5 4-2.9l.3.3c-.7.8-1.3 1.4-1.8 1.8zm-1.2-1.8c-.4-.4-.8-.7-1.2-1l.3-.4c.5.3.9.6 1.3.9l-.4.5zM256.6 606.7c-.1-.1-.3-.2-.4-.3.4-.5.8-1 1.1-1.7l.4.2c-.3.7-.7 1.3-1.1 1.8zm2.2-2.6v3.2h-.4v-3.2h-2.1v-.4h2.1v-1.2h.4v1.2h2.3v.4h-2.3zm1.9 2.4c-.5-.5-.9-1-1.3-1.7l.4-.3c.4.7.8 1.2 1.3 1.7-.2.1-.3.2-.4.3zm-.4-3c-.1-.2-.4-.4-.6-.6l.2-.2c.3.2.5.4.6.5l-.2.3zm.4-.4c-.1-.2-.4-.4-.6-.6l.2-.2c.3.2.5.4.6.5l-.2.3zM262 605.4c-.1-.3-.3-.6-.6-1l.3-.2c.2.3.4.7.6 1l-.3.2zm2.6.2c-.3.5-.6.9-1 1.2-.3.3-.8.5-1.3.7-.1-.1-.1-.3-.2-.4.5-.1.9-.3 1.2-.6.3-.2.6-.6.9-1 .2-.3.4-.8.5-1.4l.4.1c-.2.6-.3 1-.5 1.4zm-1.5-.5c-.1-.3-.3-.7-.5-1l.3-.1c.2.4.4.7.5 1l-.3.1zM268.5 605.9c-.6.6-1.3 1-2.2 1.3-.1-.1-.1-.3-.2-.4.8-.2 1.5-.6 2-1 .4-.4.8-1.1 1.2-1.9h-1.8c-.4.6-.8 1.2-1.3 1.6-.1-.1-.2-.2-.4-.3l1.1-1.1c.2-.3.5-.8.8-1.4l.5.2c-.1.2-.2.4-.4.7H269.7l.3.3c-.6.8-1 1.5-1.5 2zM274.7 607.1c-.5-.6-1-1.3-1.7-1.9-.6.7-1.4 1.3-2.3 1.9-.1-.2-.2-.3-.3-.4.8-.4 1.5-.8 2-1.3.4-.4.9-1.1 1.5-2H271v-.4h3.2l.3.3c-.4.6-.7 1.2-1 1.6.7.6 1.3 1.2 1.8 1.9l-.6.3zM277.2 605.3h-.6l-.1-.1v-.6l.1-.1h.6l.1.1v.6l-.1.1zM282.7 605.2c0 .6-.1 1.1-.1 1.4 0 .2-.1.3-.2.4-.1.1-.4.1-.9.2 0-.1-.1-.3-.1-.4h.5c.2 0 .3-.1.4-.2.1-.2.1-.5.1-1v-1.3h-1.3c-.1.8-.3 1.4-.6 1.9s-.8.9-1.4 1.3c-.1-.1-.2-.3-.3-.4.6-.3 1-.7 1.3-1.1.3-.4.5-1 .6-1.6H279v-.4h1.5v-1.2h.5v1.2h1.8l-.1 1.2zM283.3 605.1v-.4h4.5v.4h-4.5zM290.9 604.6c-.1.9-.2 1.5-.5 1.8-.2.3-.7.7-1.4 1-.1-.1-.1-.3-.3-.4.7-.2 1.1-.5 1.4-.8.2-.3.4-.8.4-1.6h-2.3v-.4h4.9v.4h-2.2zm-1.9-1.3v-.4h3.3v.4H289zM296.2 605.9c-.6.4-1.3.9-2.2 1.3l-.3-.5c1.5-.5 2.9-1.5 4-2.9l.3.3c-.7.8-1.3 1.4-1.8 1.8zm-1.2-1.8c-.4-.4-.8-.7-1.2-1l.3-.4c.5.3.9.6 1.3.9l-.4.5zM301.5 605.6c-.5.4-1 .7-1.5 1-.4.2-.7.4-.9.5l-.4-.3v-4h.4v3.7c.8-.3 1.4-.7 1.8-1 .4-.3.9-.8 1.4-1.4l.3.3c-.3.4-.7.8-1.1 1.2zM303.2 605.1v-.4h4.5v.4h-4.5zM309.5 605.3c-.2.7-.6 1.3-1.2 1.9-.1-.1-.2-.3-.3-.4.5-.3.8-.7 1-1.2.2-.4.3-.9.3-1.5v-1h.4c0 1 0 1.8-.2 2.2zm1.5 1.8-.3-.3.1-.1v-4h.4v3.7c.6-.4 1.2-1 1.8-1.8l.3.3c-.8.9-1.6 1.7-2.3 2.2zM316.8 606.9h-.4l-.7-2.9-.8 2.9h-.4l-.9-3.6h.4l.7 2.9.8-2.9h.4l.7 2.9.7-2.9h.4l-.9 3.6zM375.5 605.2c0 .6-.1 1.1-.1 1.4 0 .2-.1.3-.2.4-.1.1-.4.1-.8.2 0-.1-.1-.3-.1-.4h.4c.2 0 .3-.1.3-.2.1-.2.1-.5.1-1v-1.3h-1.2c-.1.8-.3 1.4-.6 1.9s-.7.9-1.3 1.3c-.1-.1-.2-.3-.3-.4.5-.3.9-.7 1.2-1.1.3-.4.4-1 .5-1.6h-1.3v-.4h1.3v-1.2h.4v1.2h1.7v1.2zM375.9 605.1v-.4h4v.4h-4zM382.6 604.6c-.1.9-.2 1.5-.4 1.8-.2.3-.6.7-1.3 1-.1-.1-.1-.3-.2-.4.6-.2 1-.5 1.2-.8.2-.3.3-.8.4-1.6h-2.1v-.4h4.4v.4h-2zm-1.7-1.3v-.4h2.9v.4h-2.9zM387.2 605.9c-.5.4-1.2.9-2 1.3l-.2-.5c1.4-.5 2.6-1.5 3.6-2.9l.3.3c-.6.8-1.2 1.4-1.7 1.8zm-1.1-1.8c-.4-.4-.8-.7-1.1-1l.2-.4 1.2.9-.3.5zM389.6 606.7c-.1-.1-.2-.2-.4-.3.4-.5.7-1 1-1.7l.4.2c-.4.7-.7 1.3-1 1.8zm1.9-2.6v3.2h-.4v-3.2h-1.9v-.4h1.9v-1.2h.4v1.2h2v.4h-2zm1.7 2.4c-.4-.5-.8-1-1.1-1.7l.4-.3c.3.7.7 1.2 1.1 1.7-.2.1-.3.2-.4.3zm-.3-3c-.1-.2-.3-.4-.6-.6l.2-.2c.2.2.4.4.6.5l-.2.3zm.3-.4c-.1-.2-.3-.4-.6-.6l.2-.2c.2.2.4.4.6.5l-.2.3zM394.3 605.4c-.1-.3-.3-.6-.5-1l.3-.2c.2.3.4.7.5 1l-.3.2zm2.3.2c-.2.5-.5.9-.9 1.2-.3.3-.7.5-1.2.7-.1-.1-.1-.3-.2-.4.5-.1.8-.3 1.1-.6.3-.2.6-.6.8-1 .2-.3.3-.8.5-1.4l.4.1c-.2.6-.3 1-.5 1.4zm-1.3-.5c-.1-.3-.2-.7-.4-1l.3-.1c.2.4.3.7.4 1l-.3.1zM400 605.9c-.5.6-1.2 1-2 1.3-.1-.1-.1-.3-.2-.4.7-.2 1.3-.6 1.8-1 .4-.4.7-1.1 1.1-1.9H399c-.4.6-.8 1.2-1.2 1.6-.1-.1-.2-.2-.4-.3.4-.4.7-.8 1-1.1.2-.3.4-.8.7-1.4l.4.2c-.1.2-.2.4-.3.7h1.8l.3.3c-.5.8-.9 1.5-1.3 2zM405.4 607.1c-.4-.6-.9-1.3-1.5-1.9-.5.7-1.2 1.3-2.1 1.9-.1-.2-.2-.3-.3-.4.7-.4 1.3-.8 1.8-1.3.4-.4.8-1.1 1.3-2H402v-.4h2.9l.3.3c-.3.6-.6 1.2-.9 1.6.6.6 1.2 1.2 1.6 1.9l-.5.3zM407.5 605.3h-.6l-.1-.1v-.6l.1-.1h.6l.1.1v.6l-.1.1zM412.4 605.2c0 .6-.1 1.1-.1 1.4 0 .2-.1.3-.2.4-.1.1-.4.1-.8.2 0-.1-.1-.3-.1-.4h.4c.2 0 .3-.1.3-.2.1-.2.1-.5.1-1v-1.3h-1.2c-.1.8-.3 1.4-.6 1.9s-.7.9-1.3 1.3c-.1-.1-.2-.3-.3-.4.5-.3.9-.7 1.2-1.1.3-.4.4-1 .5-1.6H409v-.4h1.3v-1.2h.4v1.2h1.7v1.2zM412.8 605.1v-.4h4v.4h-4zM419.5 604.6c-.1.9-.2 1.5-.4 1.8-.2.3-.6.7-1.3 1-.1-.1-.1-.3-.2-.4.6-.2 1-.5 1.2-.8.2-.3.3-.8.4-1.6h-2.1v-.4h4.4v.4h-2zm-1.7-1.3v-.4h2.9v.4h-2.9zM424.1 605.9c-.5.4-1.2.9-2 1.3l-.2-.5c1.4-.5 2.6-1.5 3.6-2.9l.3.3c-.6.8-1.2 1.4-1.7 1.8zm-1.1-1.8c-.4-.4-.8-.7-1.1-1l.2-.4 1.2.9-.3.5zM428.8 605.6c-.4.4-.9.7-1.4 1-.4.2-.6.4-.8.5l-.3-.3v-4h.4v3.7c.7-.3 1.2-.7 1.6-1 .4-.3.8-.8 1.3-1.4l.3.3c-.4.4-.8.8-1.1 1.2zM430.2 605.1v-.4h4v.4h-4zM435.7 605.3c-.2.7-.5 1.3-1.1 1.9-.1-.1-.2-.3-.3-.4.4-.3.7-.7.9-1.2.1-.4.2-.9.3-1.5v-1h.4c0 1 0 1.8-.2 2.2zm1.4 1.8-.3-.3v-4.1h.4v3.7c.5-.4 1.1-1 1.6-1.8l.3.3c-.7.9-1.4 1.7-2 2.2zM442.2 606.9h-.4l-.7-2.9-.7 2.9h-.4l-.8-3.6h.4l.6 2.9.7-2.9h.4l.7 2.9.7-2.9h.4l-.9 3.6zM322.4 262.7v-1.2h.4v1.2h.6v.4h-.6v1c.2-.1.4-.1.7-.2v.4c-.2.1-.5.1-.7.2v1.7c0 .1-.1.2-.2.3-.1.1-.4.1-.6.1 0-.1 0-.3-.1-.4h.5c.1 0 .1 0 .1-.1v-1.5c-.3.1-.6.2-.8.2l-.1-.4c.3-.1.6-.1.9-.2v-1.1h-.9v-.4h.8zm4-.8c-.8.3-1.5.4-2.1.5v.9h2.3v.4h-.7v2.9h-.4v-2.9h-1.2v.2c0 .5-.1.9-.2 1.3-.1.5-.3.9-.6 1.3-.1-.1-.2-.2-.3-.2.3-.4.4-.7.6-1.1.1-.4.2-.8.2-1.2v-2l.3.1c.7-.1 1.4-.2 2-.5l.1.3zM329.9 261.6v1.8h1.8v.4h-1.8v2.3h2.3v.4h-5v-.4h2.2v-4.5h.5zM337.9 261.8v.4h-2.2v1.2h2v.3h-1.9c.1.5.4.9.7 1.3.4.5 1 .8 1.6 1-.1.1-.2.2-.3.4-.7-.3-1.2-.7-1.6-1.2-.3-.3-.5-.6-.6-1-.1.4-.2.7-.4 1-.4.5-1 1-1.9 1.3-.1-.2-.1-.3-.2-.4 1-.4 1.6-.8 1.9-1.4.1-.3.2-.6.3-1h-1.8v-.3h1.8v-1.2h-2.1v-.4h4.7zM340.1 262.6v-1.1h.4v1.1h1.5v-1.2h.4v1.2h1.1v.4h-1.1v1.3h1.5v.4h-1.5v1.9h-.4v-1.9h-1.5c-.1.3-.1.6-.3.9-.2.4-.6.7-1.1 1l-.3-.3c.5-.2.9-.5 1.1-.9.1-.2.2-.4.2-.7h-1.4v-.4h1.4V263H339v-.4h1.1zm1.8.4h-1.5v1.3h1.5V263zM295.7 299c-.4.7-1 1.2-1.9 1.6-.1-.2-.1-.4-.2-.5.8-.2 1.3-.6 1.7-1.2.4-.6.6-1.4.6-2.4h-2.6v1.6h-.4V296h1.5v-1h.4v1.2h1.5c-.1 1.2-.3 2.1-.6 2.8zM299 297.7v2.3c0 .2 0 .4-.1.5 0 .1-.2.1-.6.2 0-.2-.1-.4-.1-.5h.3c.1 0 .2-.1.2-.2v-1.7c-.5.8-1 1.4-1.7 1.9-.1-.1-.1-.3-.2-.4.8-.5 1.4-1.2 1.8-2H297v-.4h1.7v-1h.3v1h1.1v.4H299zM301.5 297.9l-.9-.6.1-.4c.3.2.6.3.9.5l-.1.5zm1.4 1.2c-.5.5-1.1.9-1.9 1.3l-.2-.5c1.4-.6 2.5-1.6 3.3-3 .1.1.1.3.3.4-.4.7-1 1.3-1.5 1.8zm-.9-2.7c-.3-.3-.6-.5-.9-.7l.2-.4c.4.3.7.5.9.7l-.2.4zM305 300.2v-.4h2.2l.2-2.2h-1.9v-.4h2.2l-.2 2.6h.9v.4H305zM297.7 306.4c-.4.4-.8.8-1.3 1.1-.3.2-.6.4-.7.6l-.3-.4v-4.6h.4v4.2c.6-.4 1.2-.8 1.5-1.2.4-.4.8-.9 1.2-1.6.1.1.2.3.3.4-.4.6-.7 1.1-1.1 1.5zM299.8 306.2c-.1-.3-.3-.7-.5-1.1l.3-.2c.2.4.3.7.5 1.2l-.3.1zm2.1.2c-.2.6-.5 1-.8 1.4-.3.3-.7.6-1.2.8 0-.2-.1-.3-.2-.4.4-.2.8-.4 1.1-.6.3-.3.6-.7.8-1.2.2-.4.3-1 .4-1.7l.4.1c-.2.7-.3 1.2-.5 1.6zm-1.2-.6c-.1-.4-.2-.8-.4-1.1l.3-.2c.2.4.3.8.4 1.1l-.3.2zM305.7 306.4c-.5-.4-1.2-.8-2-1.2v3.3h-.4v-5.6h.4v1.8c.8.3 1.5.7 2.2 1.2l-.2.5zM270.1 312.4c-.5.1-1.1.2-1.9.3v.8h2v.4h-2v.9h2.3v.4h-2.3v1.4c0 .1-.1.2-.3.3-.2.1-.4.1-.8.1 0-.1 0-.3-.2-.4h.6c.1 0 .1 0 .1-.1v-1.3h-2.2v-.4h2.2v-.9h-2v-.4h2v-.8c-.6.1-1.2.1-1.8.1-.1-.2-.1-.3-.2-.4.8 0 1.6-.1 2.2-.1.6-.1 1.2-.2 1.9-.3l.4.4zM272.4 315.2l-.9 1.8-.4-.2 1-1.8c.1.1.2.2.3.2zm-.3-1.2-.2.3c-.2-.2-.5-.4-.8-.5l.2-.3c.4.1.6.2.8.5zm.3-1.4-.2.3c-.2-.3-.5-.5-.7-.6l.2-.3c.2.2.5.4.7.6zm1.1-.3c-.1.3-.2.5-.3.7h.8v-1h.4v1h1.4v.3h-1.4v1h1.7v.3H275v1.8c0 .1 0 .1.1.1h.6c.1 0 .2-.1.2-.1.1-.1.1-.2.1-.4.1.1.2.1.4.1 0 .2-.1.4-.2.6-.1.2-.2.2-.4.2h-.8c-.3 0-.4-.2-.4-.5v-1.8h-.8c0 .7-.1 1.2-.3 1.5-.2.3-.6.6-1.1.8-.1-.1-.1-.3-.2-.4.5-.2.9-.5 1-.8.1-.3.2-.6.2-1.1h-1.1v-.3h1.7v-1h-1c-.1.3-.3.5-.4.7-.1-.1-.2-.2-.3-.2.2-.3.4-.5.5-.8.1-.3.2-.5.3-.8l.4.1zM281.1 314.7c0 .6-.1 1.1-.1 1.4 0 .2-.1.3-.2.4-.1.1-.4.1-.9.2 0-.1-.1-.3-.1-.4h.5c.2 0 .3-.1.4-.2.1-.2.1-.5.1-1v-1.3h-1.3c-.1.8-.3 1.4-.6 1.9s-.8.9-1.4 1.3c-.1-.1-.2-.3-.3-.4.6-.3 1-.7 1.3-1.1.3-.4.5-1 .6-1.6h-1.5v-.4h1.5v-1.2h.5v1.2h1.8l-.3 1.2zM285.1 315.5c-.4.6-1.2 1.1-2.3 1.4-.1-.2-.2-.3-.2-.4.9-.2 1.5-.6 2-1 .5-.5.7-1.2.7-2.1h-3v1.4h-.4V313h1.7v-1h.4v1h1.8c-.1 1.1-.3 1.9-.7 2.5zM288.9 315.4c-.6.4-1.3.9-2.2 1.3l-.3-.5c1.5-.5 2.9-1.5 4-2.9l.3.3c-.6.8-1.2 1.4-1.8 1.8zm-1.2-1.7c-.4-.4-.8-.7-1.2-1l.3-.4c.5.3.9.6 1.3.9l-.4.5zM294.2 315.4c-.6.6-1.3 1.1-2.3 1.5-.1-.1-.1-.2-.3-.4.9-.3 1.6-.8 2.2-1.4-.3-.3-.7-.6-1-.8l.2-.3c.4.3.8.5 1.1.8.3-.4.6-.9.9-1.5h-1.8c-.5.7-1 1.2-1.7 1.6-.1-.1-.2-.3-.3-.4.6-.4 1-.7 1.2-1 .3-.3.5-.8.8-1.4l.5.2-.3.6h1.8l.3.3c-.3.9-.8 1.7-1.3 2.2zM296.2 314.6v-.4h4.5v.4h-4.5zM146.6 235.9l-.4-.4c.5-.4 1.1-1 1.8-1.7h-5.2v-.6h5.8l.5.5c-1.1 1-2 1.8-2.5 2.2zm-.9 1.9c-.3.7-1 1.3-2.1 1.8-.1-.2-.2-.4-.4-.6.9-.2 1.6-.6 1.9-1.2.3-.5.4-1.2.4-2.2v-.6h.6c0 1.3-.1 2.2-.4 2.8zM144.5 244.1c-.3 1-.9 1.9-1.7 2.6-.1-.2-.3-.4-.4-.5.6-.5 1.1-1 1.4-1.7.2-.5.4-1.3.4-2.2v-1.5h.6c-.1 1.6-.1 2.7-.3 3.3zm2 2.5-.5-.5.1-.1v-5.7h.6v5.3c.9-.6 1.7-1.5 2.5-2.5.1.1.3.3.5.4-1 1.3-2.1 2.4-3.2 3.1zM147.8 252.8v-.4h-4.5v-.6h4.5v-3.4h-4.5v-.6h5.2v5.1h-.7zM145.7 260v-6.4h.6v6.4h-.6zM147.1 265.8c-.7.8-1.7 1.5-3.2 2.1l-.3-.6c1.2-.4 2.2-.9 2.9-1.7.7-.7 1.2-1.7 1.7-3h-5.1v-.6h5.4l.5.5c-.7 1.5-1.3 2.6-1.9 3.3zm2-3.6c-.2-.2-.5-.5-.9-.8l.3-.3c.4.3.7.5.9.8l-.3.3zm.6-.6c-.2-.2-.5-.5-.9-.8l.3-.3c.4.3.7.5.9.8l-.3.3zM179.6 242.6v1.1h.4l.2.2c-.2.4-.4.9-.7 1.2l.2.2c.2-.1.3-.3.5-.5l.2.3-.5.5c.1.1.3.2.4.3-.1.1-.2.2-.2.3-.2-.1-.4-.3-.5-.5l-.1-.1v2.1h-.4v-2.1l-.6.6c0-.1-.1-.3-.2-.4.6-.6 1.1-1.1 1.4-1.8h-1.3v-.3h.7v-1.1h.5zm3.7 5.1h-.4v-.4H181v.4h-.4V244h1.1v-1.3h.4v1.3h1.1v3.7zm-1.5-2.2v-1.1h-.8v1.1h.8zm0 1.5v-1.2h-.8v1.2h.8zm.4-1.5h.8v-1.1h-.8v1.1zm0 1.5h.8v-1.2h-.8v1.2zM180.1 248.5c-.1.4-.3.8-.5 1.2v3.9h-.4v-3.2c-.2.3-.4.6-.7.9 0-.1-.1-.3-.2-.4.5-.7 1-1.5 1.4-2.6l.4.2zm2.1 1.3v-1.3h.4v1.3h1v.4h-1v2.9c0 .1-.1.2-.2.3-.2.1-.4.1-.7.1 0-.1 0-.3-.1-.4h.6c.1 0 .1 0 .1-.1v-2.8H180v-.4h2.2zm-.8 1.9-.3.2c-.2-.3-.5-.6-.8-1l.3-.2c.3.4.6.7.8 1zM181.2 254.1v.9h2.2v.4H181l-.8 1.6c.3.2.5.4.7.6l1.1-1.5.4.2-1.9 2.4c.6 0 1.3-.1 2-.2-.2-.2-.4-.5-.6-.7l.3-.2c.5.6.9 1.1 1.2 1.5l-.3.2c-.1-.2-.2-.3-.3-.4-1.6.2-3 .3-4.1.4l-.1-.4c.4 0 .9 0 1.4-.1l.7-.9c-.5-.4-1.1-.9-1.8-1.2l.2-.4c.3.2.6.3.8.5l.6-1.3h-2v-.5h2.3v-.9h.4zM180.7 260v1.7h-1.6v3.2h-.4V260h2zm-.4.8v-.4h-1.2v.4h1.2zm0 .6v-.4h-1.2v.4h1.2zm3-1.4v4.4c0 .2-.1.3-.2.4-.1.1-.3.1-.7.1 0-.1-.1-.3-.2-.4h.5c.1 0 .1 0 .1-.1v-2.6h-1.3l.3.1-.3.5h.8v.3H181v.5h1.5v.3h-1.3c.1.2.2.3.3.4.1.1.4.3.7.4l-.3.3c-.3-.2-.6-.3-.7-.5-.1-.1-.3-.3-.4-.5-.1.1-.1.2-.2.3-.2.3-.6.5-1.1.8l-.3-.3c.5-.1.8-.4 1.1-.6.1-.1.1-.1.1-.2h-1.1v-.3h1.2v-.5h-1.1v-.3h.6c-.1-.1-.2-.3-.4-.5l.3-.2.5.5-.2.2h.7l.3-.7h-.2V260h2.3zm-.4.4h-1.2v.4h1.2v-.4zm0 .7h-1.2v.4h1.2v-.4zM182.8 268.6c-.6-.4-1.4-.7-2.3-1v2.9h-.4v-4.9h.4v1.6c.9.3 1.8.6 2.6 1.1l-.3.3zm-.5-1.6c-.1-.2-.3-.4-.6-.6l.2-.2c.3.2.5.4.6.5l-.2.3zm.4-.5c-.1-.2-.3-.4-.6-.6l.2-.2c.3.2.5.4.6.5l-.2.3zM181.4 273l-.3-.3c.4-.3.8-.7 1.3-1.2h-3.6v-.4h4.1l.3.4c-.8.7-1.4 1.2-1.8 1.5zm-.6 1.3c-.2.5-.7.9-1.5 1.2-.1-.1-.2-.3-.3-.4.6-.2 1.1-.4 1.3-.9.2-.3.3-.8.3-1.5v-.4h.4c.1 1 0 1.7-.2 2zM243.4 168.8l-2.1 4.3-1-.6 2.3-4.2c.3.2.5.4.8.5zm-.4-3.4-.4.8c-.6-.4-1.2-.7-2-1.1l.4-.8c.7.3 1.4.7 2 1.1zm.7-3.2-.6.8c-.6-.5-1.2-1-1.9-1.4l.6-.7c.7.4 1.3.8 1.9 1.3zm7.5-1.1-1.1 2h2.8v.9h-4v1.9h3.1v.9h-3.1v2.2h4v.9h-4v3.5h-.9v-3.5h-4.1v-.9h4.1v-2.2h-3.3v-.9h3.3V164h-3.8v-1h4.9l1.3-2.5.8.6zm-3.9 1.2-.8.6c-.3-.6-.7-1.2-1.2-1.7l.8-.6c.5.7.9 1.3 1.2 1.7zM260.6 169.4v-1.2h1v1.2h4.4v.8h-4.4v1.5h5.7v.8h-12.5v-.8h5.8v-1.5h-4.3v-.8h4.3zm1-9v1.4h5.1v2.7h-1v.4h-5.3l-1.1 2.1c1.5-.1 2.9-.2 4.5-.3-.3-.3-.6-.5-1-.8l.7-.7c1.3 1 2.2 1.7 2.7 2.3l-.7.7-.8-.8c-3.3.3-6.1.5-8.5.6l-.2-.9c.7 0 1.4 0 2.2-.1l1.2-2.1h-3v-.4h-.9v-2.7h5.1v-1.4h1zm4.1 3.7v-1.3h-9.3v1.3h9.3zM269.2 171.7c.1-1.5.8-2.8 2.3-3.9 1.5-1.2 2.2-2.1 2.2-2.7 0-.5-.1-.9-.4-1.2-.3-.3-.7-.5-1.2-.5-.7 0-1.1.2-1.5.6-.3.3-.5.8-.5 1.5h-1c.2-1.9 1.3-2.8 3.1-2.8.8 0 1.4.2 1.9.7.5.5.7 1.1.7 1.8 0 .9-.7 1.9-2.2 3.1-1.2 1-1.9 1.9-2.2 2.7h4.5v.9h-5.7zM239.3 191.8c-.7-.7-1.2-1.3-1.6-1.9-.4-.8-.6-1.6-.6-2.5s.2-1.7.6-2.5c.3-.6.9-1.2 1.6-1.9l.5.5c-.7.6-1.2 1.2-1.5 1.8-.4.7-.6 1.4-.6 2.2 0 .8.2 1.5.6 2.2.3.5.8 1.1 1.5 1.8l-.5.3zM243.4 183.1l-1 1.9c.2.2.4.3.6.5l.9-1.6.6.4-1.7 2.7c.4 0 .9 0 1.4-.1-.1-.3-.3-.5-.4-.8l.5-.3c.4.6.6 1.1.8 1.5l-.5.4c0-.1-.1-.2-.1-.3-.4 0-.8.1-1.1.1v4h-.7v-3.9c-.5 0-1 .1-1.5.1l-.2-.6h1l.6-1c-.5-.4-1-.8-1.6-1.1l.4-.5c.1.1.3.2.4.3l.9-1.9.7.2zm-1.2 5.2c-.2.9-.4 1.7-.6 2.4-.2-.1-.4-.2-.6-.2.2-.7.4-1.5.6-2.3l.6.1zm2.7 1.7-.6.2c-.1-.6-.2-1.2-.4-1.8l.6-.2c.1.6.2 1.2.4 1.8zm1.8-7.1c-.2.7-.3 1.3-.4 1.7h3.1v3.8c0 1-.1 1.7-.2 2-.1.6-.8.9-2 .9 0-.3-.1-.6-.3-.8h1.1c.3 0 .5-.2.6-.5.1-.3.1-.9.2-1.9v-3h-2.6c-.2.6-.4 1.1-.6 1.5-.2-.2-.4-.3-.6-.4.3-.6.5-1.2.7-1.9.2-.6.3-1.2.4-1.8l.6.4zm1 5.3-.5.5c-.3-.5-.8-1.1-1.3-1.7l.5-.4c.4.5.9 1.1 1.3 1.6zM254.7 189v1.4h-.6V189h-3v-.6l3-4.1h.5v4.2h.8v.6h-.7zm-.6-3.7-2.3 3.1h2.3v-3.1zM257.7 190.5h-.7l-.1-.1v-.6l.1-.1h.7l.1.1v.6l-.1.1zM262.8 190c-.4.4-.9.6-1.4.6-1.1 0-1.8-.5-2.1-1.6h.8c.2.7.7 1.1 1.3 1.1.4 0 .7-.1.9-.5.3-.3.4-.6.4-1s-.1-.7-.4-1c-.3-.3-.6-.5-1-.5-.5 0-.9.2-1.2.6l-.7-.2.3-3.2h3.2v.6h-2.6l-.2 2.1c.4-.3.9-.4 1.4-.4.5 0 1 .2 1.3.6.3.4.5.9.5 1.4.1.5-.1 1-.5 1.4zM266.4 184.4v-1.7h.7v1.7h1.4v4.5c0 .2 0 .3-.1.4-.1.1-.4.2-.8.2 0-.3-.1-.5-.2-.7h.3c.1 0 .2 0 .2-.1V185h-.7v6.5h-.7V185h-.7v4.5h-.6v-5.1h1.2zm5-1.6v1.8h2.1v.6h-2.1v2h1.7v4.2h-.6v-.5h-2.7v.6h-.6v-4.3h1.6v-4.4h.6zm1 7.4v-2.5h-2.7v2.5h2.7zM277 189.9c-.3.6-.9 1.2-1.6 1.9l-.5-.4c.7-.6 1.1-1.2 1.5-1.8.4-.7.6-1.4.6-2.2 0-.8-.2-1.5-.6-2.2-.3-.5-.8-1.1-1.5-1.8l.5-.5c.7.7 1.2 1.3 1.6 1.9.4.8.6 1.6.6 2.5s-.2 1.8-.6 2.6zM394.3 537.1l-2.1 4.3-1-.6 2.3-4.2c.3.3.6.4.8.5zm-.4-3.4-.4.8c-.6-.4-1.2-.7-2-1.1l.4-.8c.8.4 1.4.7 2 1.1zm.8-3.1-.6.8c-.6-.5-1.2-1-1.9-1.4l.6-.7c.7.3 1.3.8 1.9 1.3zm7.5-1.2-1.1 2h2.8v.9h-4v1.9h3.1v.9h-3.1v2.2h4v.9h-4v3.5h-.9v-3.5h-4.1v-.9h4.1v-2.2h-3.3v-.9h3.3v-1.9h-3.8v-.9h4.9l1.3-2.5.8.5zm-3.9 1.3-.8.6c-.3-.6-.7-1.2-1.2-1.7l.8-.6c.5.7.9 1.2 1.2 1.7zM411.6 537.8v-1.2h1v1.2h4.4v.8h-4.4v1.5h5.7v.8h-12.5v-.8h5.8v-1.5h-4.3v-.8h4.3zm1-9v1.4h5.1v2.7h-1v.4h-5.3l-1.1 2.1c1.5-.1 2.9-.2 4.5-.3-.3-.3-.6-.5-1-.8l.7-.7c1.3 1 2.2 1.7 2.7 2.3l-.7.7-.8-.8c-3.3.3-6.1.5-8.5.6l-.2-.9c.7 0 1.4 0 2.2-.1l1.2-2.1h-3v-.4h-.9v-2.7h5.1v-1.4h1zm4.1 3.7v-1.3h-9.3v1.3h9.3zM424.9 539.5c-.6.5-1.3.8-2 .8-1.6 0-2.6-.8-3-2.5h1.2c.2 1.1.8 1.7 1.8 1.7.5 0 .9-.2 1.3-.5s.6-.7.6-1.2c0-1.3-.7-2-2.2-2-.3 0-.6 0-1.1.1v-.8h.7c1.5 0 2.2-.6 2.2-1.7 0-.4-.2-.8-.5-1.1-.3-.3-.7-.5-1.1-.5-.9 0-1.4.5-1.6 1.5h-1c.2-1.5 1.1-2.3 2.6-2.3.7 0 1.3.2 1.9.7.5.4.8 1 .8 1.7 0 .9-.5 1.5-1.3 2 1.1.6 1.6 1.4 1.6 2.5.1.4-.3 1-.9 1.6zM390.2 560.1c-.7-.7-1.2-1.3-1.6-1.9-.4-.8-.6-1.6-.6-2.5s.2-1.7.6-2.5c.3-.6.9-1.2 1.6-1.9l.5.5c-.7.6-1.2 1.2-1.5 1.8-.4.7-.6 1.4-.6 2.2 0 .8.2 1.5.6 2.2.3.5.8 1.1 1.5 1.8l-.5.3zM394.4 551.4l-1 1.9c.2.2.4.3.6.5l.9-1.6.6.4-1.7 2.7c.4 0 .9 0 1.4-.1-.1-.3-.3-.5-.4-.8l.5-.3c.4.6.6 1.1.8 1.5l-.5.4c0-.1-.1-.2-.1-.3-.4 0-.8.1-1.1.1v4h-.7v-3.9c-.5 0-1 .1-1.5.1l-.2-.6h1l.6-1c-.5-.4-1-.8-1.6-1.1l.4-.5c.1.1.3.2.4.3l.9-1.9.7.2zm-1.2 5.2c-.2.9-.4 1.7-.6 2.4-.2-.1-.4-.2-.6-.2.2-.7.4-1.5.6-2.3l.6.1zm2.6 1.7-.6.2c-.1-.6-.2-1.2-.4-1.8l.6-.2c.2.6.3 1.2.4 1.8zm1.9-7.1c-.2.7-.3 1.3-.4 1.7h3.1v3.8c0 1-.1 1.7-.2 2-.1.6-.8.9-2 .9 0-.3-.1-.6-.3-.8h1.1c.3 0 .5-.2.6-.5.1-.3.1-.9.2-1.9v-3H397c-.2.6-.4 1.1-.6 1.5-.2-.2-.4-.3-.6-.4.3-.6.5-1.2.7-1.9.2-.6.3-1.2.4-1.8l.8.4zm.9 5.4-.5.5c-.3-.5-.8-1.1-1.3-1.7l.5-.4c.5.5.9 1 1.3 1.6zM405.7 557.3v1.4h-.6v-1.4h-3v-.6l3-4.1h.5v4.2h.8v.6h-.7zm-.6-3.7-2.3 3.1h2.3v-3.1zM408.7 558.9h-.7l-.1-.1v-.6l.1-.1h.7l.1.1v.6l-.1.1zM413.8 558.3c-.4.4-.9.6-1.4.6-1.1 0-1.8-.5-2.1-1.6h.8c.2.7.7 1.1 1.3 1.1.4 0 .7-.1.9-.5.3-.3.4-.6.4-1s-.1-.7-.4-1c-.3-.3-.6-.5-1-.5-.5 0-.9.2-1.2.6l-.7-.2.3-3.2h3.2v.6h-2.6l-.2 2.1c.4-.3.9-.4 1.4-.4.5 0 1 .2 1.3.6.3.4.5.9.5 1.4.1.6-.1 1.1-.5 1.4zM417.4 552.7V551h.7v1.7h1.4v4.5c0 .2 0 .3-.1.4-.1.1-.4.2-.8.2 0-.3-.1-.5-.2-.7h.3c.1 0 .2 0 .2-.1v-3.7h-.7v6.5h-.7v-6.5h-.7v4.5h-.8v-5.1h1.4zm4.9-1.6v1.8h2.1v.6h-2.1v2h1.7v4.2h-.6v-.5h-2.7v.6h-.6v-4.3h1.6v-4.4h.6zm1.1 7.5v-2.5h-2.7v2.5h2.7zM427.9 558.2c-.3.6-.9 1.2-1.6 1.9l-.5-.4c.7-.6 1.1-1.2 1.5-1.8.4-.7.6-1.4.6-2.2 0-.8-.2-1.5-.6-2.2-.3-.5-.8-1.1-1.5-1.8l.5-.5c.7.7 1.2 1.3 1.6 1.9.4.8.6 1.6.6 2.5s-.1 1.9-.6 2.6zM371.6 168.8l-2.1 4.3-1-.6 2.3-4.2c.4.2.6.4.8.5zm-.3-3.4-.4.8c-.6-.4-1.2-.7-2-1.1l.4-.8c.7.3 1.4.7 2 1.1zm.7-3.2-.6.8c-.6-.5-1.2-1-1.9-1.4l.6-.7c.7.4 1.3.8 1.9 1.3zm7.5-1.1-1.1 2h2.8v.9h-4v1.9h3.1v.9h-3.1v2.2h4v.9h-4v3.5h-.9v-3.5h-4.1v-.9h4.1v-2.2H373v-.9h3.3V164h-3.8v-1h4.9l1.3-2.5.8.6zm-3.9 1.2-.8.6c-.3-.6-.7-1.2-1.2-1.7l.8-.6c.5.7.9 1.3 1.2 1.7zM388.9 169.4v-1.2h1v1.2h4.4v.8h-4.4v1.5h5.7v.8h-12.5v-.8h5.8v-1.5h-4.3v-.8h4.3zm1-9v1.4h5.1v2.7h-1v.4h-5.3l-1.1 2.1c1.5-.1 2.9-.2 4.5-.3-.3-.3-.6-.5-1-.8l.7-.7c1.3 1 2.2 1.7 2.7 2.3l-.7.7-.8-.8c-3.3.3-6.1.5-8.5.6l-.2-.9c.7 0 1.4 0 2.2-.1l1.2-2.1h-3v-.4h-.9v-2.7h5.1v-1.4h1zm4.1 3.7v-1.3h-9.3v1.3h9.3zM400.7 171.7v-7.9c-.7.4-1.3.6-1.9.8v-1c.7-.1 1.4-.4 1.9-.8h1v9h-1zM367.6 191.8c-.7-.7-1.2-1.3-1.6-1.9-.4-.8-.6-1.6-.6-2.5s.2-1.7.6-2.5c.3-.6.9-1.2 1.6-1.9l.5.5c-.7.6-1.1 1.2-1.5 1.8-.4.7-.6 1.4-.6 2.2 0 .8.2 1.5.6 2.2.3.5.8 1.1 1.5 1.8l-.5.3zM371.7 183.1l-1 1.9c.2.2.4.3.6.5l.9-1.6.6.4-1.7 2.7c.4 0 .9 0 1.4-.1-.1-.3-.3-.5-.4-.8l.5-.3c.4.6.6 1.1.8 1.5l-.5.4c0-.1-.1-.2-.1-.3-.4 0-.8.1-1.1.1v4h-.7v-3.9c-.5 0-1 .1-1.5.1l-.2-.6h1l.6-1c-.5-.4-1-.8-1.6-1.1l.4-.5c.1.1.3.2.4.3l.9-1.9.7.2zm-1.2 5.2c-.2.9-.4 1.7-.6 2.4-.2-.1-.4-.2-.6-.2.2-.7.4-1.5.6-2.3l.6.1zm2.6 1.7-.6.2c-.1-.6-.2-1.2-.4-1.8l.6-.2c.2.6.3 1.2.4 1.8zm1.9-7.1c-.2.7-.3 1.3-.4 1.7h3.1v3.8c0 1-.1 1.7-.2 2-.1.6-.8.9-2 .9 0-.3-.1-.6-.3-.8h1.1c.3 0 .5-.2.6-.5.1-.3.1-.9.2-1.9v-3h-2.6c-.2.6-.4 1.1-.6 1.5-.2-.2-.4-.3-.6-.4.3-.6.5-1.2.7-1.9.2-.6.3-1.2.4-1.8l.6.4zm1 5.3-.5.5c-.3-.5-.8-1.1-1.3-1.7l.5-.4c.4.5.9 1.1 1.3 1.6zM383.1 190c-.4.4-.9.6-1.4.6-1.1 0-1.8-.5-2.1-1.6h.8c.2.7.7 1.1 1.3 1.1.4 0 .7-.1.9-.5.3-.3.4-.6.4-1s-.1-.7-.4-1c-.3-.3-.6-.5-1-.5-.5 0-.9.2-1.2.6l-.7-.2.3-3.2h3.2v.6h-2.6l-.2 2.1c.4-.3.9-.4 1.4-.4.5 0 1 .2 1.3.6.3.4.5.9.5 1.4.1.5-.1 1-.5 1.4zM386 190.5h-.7l-.1-.1v-.6l.1-.1h.7l.1.1v.6l-.1.1zM391.1 190c-.4.4-.9.6-1.4.6-1.1 0-1.8-.5-2.1-1.6h.8c.2.7.7 1.1 1.3 1.1.4 0 .7-.1.9-.5.3-.3.4-.6.4-1s-.1-.7-.4-1c-.3-.3-.6-.5-1-.5-.5 0-.9.2-1.2.6l-.7-.2.3-3.2h3.2v.6h-2.6l-.2 2.1c.4-.3.9-.4 1.4-.4.5 0 1 .2 1.3.6.3.4.5.9.5 1.4.1.5-.1 1-.5 1.4zM394.7 184.4v-1.7h.7v1.7h1.4v4.5c0 .2 0 .3-.1.4-.1.1-.4.2-.8.2 0-.3-.1-.5-.2-.7h.3c.1 0 .2 0 .2-.1V185h-.7v6.5h-.7V185h-.8v4.5h-.6v-5.1h1.3zm4.9-1.6v1.8h2.1v.6h-2.1v2h1.7v4.2h-.6v-.5H398v.6h-.6v-4.3h1.6v-4.4h.6zm1.1 7.4v-2.5H398v2.5h2.7zM405.2 189.9c-.3.6-.9 1.2-1.6 1.9l-.5-.4c.7-.6 1.1-1.2 1.5-1.8.4-.7.6-1.4.6-2.2 0-.8-.2-1.5-.6-2.2-.3-.5-.8-1.1-1.5-1.8l.5-.5c.7.7 1.2 1.3 1.6 1.9.4.8.6 1.6.6 2.5s-.1 1.8-.6 2.6zM262.2 516.7v-10.5h1.2v9.5h6.5v1h-7.7zM278.8 515.4c-1.1.9-2.5 1.3-4.3 1.3h-3v-10.5h3.5c1.6 0 2.9.5 4 1.4 1 1 1.6 2.2 1.6 3.8 0 1.7-.6 3-1.8 4zm-.8-7.1c-.8-.7-1.9-1-3.3-1h-2.1v8.5h2.3c1.3 0 2.3-.4 3.1-1.2.8-.8 1.2-1.8 1.2-3.1.1-1.5-.3-2.5-1.2-3.2zM289.5 516.7l-4-5.9-2.3 1.9v4h-1.1v-10.5h1.1v5.2l6-5.2h1.6l-4.5 3.9 4.8 6.6h-1.6zM255.5 542.9c-.7-.7-1.2-1.3-1.6-1.9-.4-.8-.6-1.6-.6-2.5 0-.9.2-1.7.6-2.5.3-.6.9-1.2 1.6-1.9l.5.5c-.7.6-1.2 1.2-1.5 1.8-.4.7-.6 1.4-.6 2.2 0 .8.2 1.5.6 2.2.3.5.8 1.1 1.5 1.8l-.5.3zM259.6 534.2l-1 1.9c.2.2.4.3.6.5l.9-1.6.6.4-1.7 2.6c.4 0 .9 0 1.4-.1-.1-.3-.3-.5-.4-.8l.5-.3c.4.6.6 1.1.8 1.5l-.5.4c0-.1-.1-.2-.1-.3-.4 0-.8.1-1.1.1v4h-.7v-3.9c-.5 0-1 .1-1.5.1l-.2-.6h1l.6-1c-.5-.4-1-.8-1.6-1.1l.4-.5c.1.1.3.2.4.3l.9-1.9.7.3zm-1.1 5.2c-.2.9-.4 1.7-.6 2.4-.2-.1-.4-.2-.6-.2.2-.7.4-1.5.6-2.3l.6.1zm2.6 1.7-.6.2c-.1-.6-.2-1.2-.4-1.8l.6-.2c.1.6.3 1.2.4 1.8zm1.8-7.1c-.2.7-.3 1.3-.4 1.7h3.1v3.8c0 1-.1 1.7-.2 2-.1.6-.8.9-2 .9 0-.3-.1-.6-.3-.8h1.1c.3 0 .5-.2.6-.5.1-.3.1-.9.2-1.9v-3h-2.6c-.2.6-.4 1.1-.6 1.5-.2-.2-.4-.3-.6-.4.3-.6.5-1.2.7-1.9.2-.6.3-1.2.4-1.8l.6.4zm1 5.3-.5.5c-.3-.5-.8-1.1-1.3-1.7l.5-.4c.5.5.9 1.1 1.3 1.6zM269.9 541.5v-5.4c-.5.3-.9.4-1.3.5v-.7c.5-.1.9-.2 1.3-.5h.7v6.1h-.7zM276.4 541.1c-.4.4-.9.5-1.4.5-1.1 0-1.8-.6-2.1-1.7h.8c.2.8.6 1.2 1.2 1.2.3 0 .6-.1.9-.3.3-.2.4-.5.4-.8 0-.9-.5-1.4-1.5-1.4h-.7v-.6h.5c1 0 1.5-.4 1.5-1.2 0-.3-.1-.6-.3-.8-.2-.2-.5-.3-.8-.3-.6 0-1 .4-1.1 1.1h-.7c.2-1 .8-1.6 1.8-1.6.5 0 .9.2 1.3.5s.5.7.5 1.2c0 .6-.3 1.1-.9 1.4.7.4 1.1 1 1.1 1.7.2.4-.1.8-.5 1.1zM279.4 541.7h-.7l-.1-.1v-.6l.1-.1h.7l.1.1v.6l-.1.1zM284.5 541.3c-.4.3-.9.4-1.5.4s-1.1-.1-1.5-.4c-.5-.3-.7-.7-.7-1.2 0-.4.1-.8.3-1.1.2-.2.5-.5 1-.8-.4-.2-.7-.4-.9-.6-.2-.2-.3-.5-.3-.8 0-.5.2-.9.6-1.2.4-.2.8-.4 1.4-.4.5 0 .9.1 1.3.4.3.3.5.7.5 1.2 0 .4-.1.6-.2.8-.2.2-.4.4-.8.6.5.2.9.5 1.1.7.2.3.4.6.4 1.1 0 .6-.2 1-.7 1.3zm-.6-2.2c-.2-.1-.5-.3-1-.6-.5.2-.8.4-.9.6-.3.3-.4.6-.4 1s.2.7.5.9c.3.1.6.2 1 .2s.7-.1 1-.3c.3-.2.5-.5.5-.8-.1-.4-.3-.7-.7-1zm-.1-3.1c-.2-.2-.5-.3-.8-.3-.3 0-.6.1-.9.3-.3.2-.4.5-.4.8 0 .3.1.5.4.7.2.1.4.3.8.4l.8-.4c.3-.2.4-.5.4-.7 0-.3-.1-.6-.3-.8zM288.1 535.5v-1.7h.7v1.7h1.4v4.5c0 .2 0 .3-.1.4-.1.1-.4.2-.8.2 0-.3-.1-.5-.2-.7h.3c.1 0 .2 0 .2-.1v-3.7h-.7v6.5h-.7v-6.5h-.7v4.5h-.6v-5.1h1.2zm5-1.6v1.8h2.1v.6h-2.1v2h1.7v4.2h-.6v-.5h-2.7v.6h-.6v-4.3h1.6v-4.4h.6zm1 7.4v-2.5h-2.7v2.5h2.7zM298.7 541c-.3.6-.9 1.2-1.6 1.9l-.5-.4c.7-.6 1.1-1.2 1.5-1.8.4-.7.6-1.4.6-2.2 0-.8-.2-1.5-.6-2.2-.3-.5-.8-1.1-1.5-1.8l.5-.5c.7.7 1.2 1.3 1.6 1.9.4.8.6 1.6.6 2.5 0 1-.2 1.8-.6 2.6zM263.7 345.4l-.1.1c.5.5 1 .8 1.6 1.1.6.3 1.2.6 1.9.8-.1.1-.2.2-.4.5-.6-.2-1.3-.5-1.8-.9-.5-.3-1.1-.7-1.6-1.2-.4.4-.9.8-1.4 1.1-.7.5-1.3.8-1.7 1-.1-.2-.3-.3-.4-.4.7-.3 1.3-.6 1.8-1 .6-.4 1.1-.9 1.6-1.4l.5.3zm-.2 1.3v.8h1.9v2.8h-2.1c.2.3.5.6.9.9.7-.3 1.3-.7 1.7-1l.4.5c-.5.3-1.1.6-1.6.8.6.3 1.3.5 2.1.6-.1.2-.2.4-.3.5-1-.2-1.9-.5-2.5-1-.6-.4-1-.8-1.3-1.4h-1.1v1.4c.5-.1 1.1-.1 1.7-.2v.5c-1.2.2-2.3.3-3.4.5l-.1-.6c.4 0 .9-.1 1.3-.2v-4.3h1.9v-.8h.5zm1.4 2v-.7h-3.3v.6h3.3zm0 1.1v-.7h-3.3v.7h3.3zM270.7 348.1c.2-.2.4-.5.6-.7l.6.2c-.1.2-.3.4-.4.5h3.6v.5h-2.3c.3.2.5.5.8.7.4.3 1 .5 1.7.7-.2.2-.4.4-.4.5-.2-.1-.3-.1-.5-.2v2.2h-.5v-.4h-1.3v.4h-.5v-2.4h1.8c-.3-.1-.5-.3-.7-.4-.4-.3-.8-.6-1-1H271c-.3.3-.5.5-.8.7-.3.3-.7.5-1.1.7h1.8v2.5h-.5v-.4h-1.3v.4h-.5v-2.2c-.2.1-.4.2-.5.3-.1-.2-.2-.3-.4-.5.8-.3 1.5-.7 2.1-1.1.2-.1.3-.3.5-.4H268v-.5h2.7zm-2.1-.6v-2h2.3v2h-2.3zm.5-.6h1.2v-1h-1.2v1zm1.3 4.8v-1.1h-1.3v1.1h1.3zm1.7-4.2v-2h2.4v2h-2.4zm.5-.6h1.3v-1h-1.3v1zm1.3 4.8v-1.1h-1.3v1.1h1.3zM277.1 347v-1.8h.5v1.8h.9v.5h-.9v.7l.4.4c.1.1.3.2.5.4-.1.2-.2.3-.3.5-.2-.2-.4-.3-.5-.4 0 0-.1 0-.1-.1v3.7h-.5V349c-.1.3-.2.5-.3.8-.2.4-.4.7-.5.8-.1-.2-.2-.4-.3-.5.3-.4.5-.7.7-1.1.2-.3.3-.7.5-1.3h-.9v-.7h.8zm3.4-1.4v6.1c0 .2 0 .3-.1.4-.1.1-.4.2-.8.2 0-.2-.1-.4-.2-.5h.4c.1 0 .2 0 .2-.1v-1.8h-.8c0 .3-.1.5-.1.8-.1.7-.3 1.3-.6 1.8-.1-.2-.2-.4-.4-.5.3-.5.5-1 .6-1.6.1-.5.1-1.2.1-1.9v-2.8h1.7zm-.5 3.7V348h-.8v1.4h.8zm0-1.8v-1.4h-.8v1.4h.8zm3-1.9v6.3c0 .2 0 .3-.1.4-.1.1-.4.1-.9.2 0-.2-.1-.4-.2-.5h.4c.2 0 .2 0 .2-.1v-2h-.9c0 .4-.1.7-.1 1-.1.7-.3 1.2-.5 1.7-.1-.2-.2-.4-.4-.5.2-.4.3-1 .4-1.5 0-.5.1-1.1.1-1.8v-3.1h2zm-.5 3.7V348h-.9v1.4h.9zm0-1.8v-1.4h-.9v1.4h.9zM205.6 340l-1.1 2.6-.5-.3 1.2-2.6c.1.1.2.2.4.3zm-.1-2.9-.4.5c-.3-.3-.6-.5-1.1-.7l.3-.5c.5.2.9.4 1.2.7zm3.1-1.1c0 .1-.1.1-.1.1.4.6.8 1 1.2 1.4.4.4.9.8 1.5 1.1-.2.2-.3.3-.4.5-.4-.2-.8-.5-1.2-.9-.5-.4-.9-.9-1.4-1.6-.3.5-.6.9-1 1.3-.5.5-1 1-1.5 1.3-.1-.2-.2-.3-.3-.5.5-.3.9-.6 1.4-1.1.5-.5.9-1.1 1.3-1.8l.5.2zm1.7 3.9v2c0 .3-.1.4-.2.5-.1.1-.4.1-.9.2 0-.2-.1-.4-.2-.6h.7c.1 0 .1 0 .1-.2v-1.5H208v2.9h-.6v-2.9h-1.5v-.5h4.4zm-.9-1.4v.5h-2.5v-.5h2.5zM214.2 336.3v-.5h.5v.5h1.9v-.5h.5v.5h2v.4h-2v.6h.3v.6h1.8v.5h-1.8c0 .8 0 1.4.1 1.7 0 .3.1.6.1.8.3-.4.6-1 .9-1.7l.5.2c-.4.8-.8 1.5-1.2 2.1.1.2.1.3.2.4.2.3.3.4.4.4.1 0 .3-.2.5-.7.1.1.3.2.4.2-.2.5-.3.9-.5 1-.1.1-.2.2-.3.2-.3 0-.5-.1-.7-.4-.2-.2-.4-.4-.5-.7-.5.5-1.1.9-1.6 1.1-.1-.2-.2-.3-.4-.4.3-.1.6-.3.8-.5.3-.2.6-.5.9-.7l-.3-1.2c-.1-.4-.1-1-.1-1.8H213v1c0 .8-.1 1.5-.2 1.9-.1.5-.4 1.1-.7 1.6-.1-.1-.3-.3-.5-.3.3-.4.5-.9.7-1.4.1-.4.2-.9.2-1.7V338h4.1v-.6h-.3v-.6h-1.9v.6h-.5v-.6h-2v-.4h2.3zm2.2 3.1h-1v.5h1v1.3h-1v.6h1v.4h-2.1v.4h-.5V339h2.6v.4zm-1.4.6v-.5h-.7v.5h.7zm1 .9v-.6h-1.7v.6h1.7zm-1 1v-.6h-.7v.6h.7zm3.9-4.2-.3.3c-.2-.2-.5-.5-.8-.7l.3-.3c.4.3.6.6.8.7zM224.3 335.8v.7h3v.5h-6v2.7c0 .8 0 1.5-.1 1.9-.1.5-.3 1-.6 1.6-.1-.2-.3-.3-.5-.4.3-.4.5-.9.6-1.4.1-.3.1-.9.1-1.7v-3.2h2.9v-.7h.6zm0 2v-.6h.5v.6h2.3v.5h-2.3v.5h1.9v2.4h-1.9v.6h2.8v.5h-2.8v1h-.5v-1h-2.7v-.5h2.7v-.6h-1.9v-2.4h1.9v-.5H222v-.5h2.3zm-1.4 2h1.3v-.5h-1.3v.5zm1.4.4H223v.5h1.3v-.5zm.5-.4h1.4v-.5h-1.4v.5zm0 .4v.5h1.4v-.5h-1.4zM211.9 347.6v.6h3.3v.4h-3.3v.5h2.1v2.7h-4.2v-2.7h1.5v-.5h-3.5v-.4h3.5v-.6h-2.8v-1.7h6v1.7h-2.6zm-2.9 1.7v3h6.2v.5H209v.4h-.5v-3.8h.5zm.1-2.1h1.3v-.8h-1.3v.8zm1.3 2.7h3.1v-.4h-3.1v.4zm0 .4v.4h3.1v-.4h-3.1zm0 .7v.4h3.1v-.4h-3.1zm.5-3.8h1.4v-.8h-1.4v.8zm1.9 0h1.3v-.8h-1.3v.8zM217 347.9v-2h.5v2h.8v.5h-.8v2.4l.9-.3v.4c.3-.2.5-.4.7-.6.2-.2.4-.5.5-.8h-1.2v-.5h5.2v.5h-3.3c-.1.2-.2.4-.4.6h3.3c0 1 0 1.7-.1 2.1-.1.4-.2.6-.3.7-.1.1-.5.2-1 .2 0-.2-.1-.4-.2-.5h.7c.1 0 .2-.1.3-.4.1-.3.1-.8.1-1.5h-.5c-.3.7-.6 1.2-1 1.6-.4.4-.8.7-1.2.9-.1-.1-.2-.3-.4-.4.5-.2.9-.5 1.2-.9.3-.3.5-.7.8-1.2h-.7c-.2.5-.5.8-.8 1.1-.4.3-.7.5-1.1.7-.1-.1-.2-.3-.4-.4.4-.2.7-.4 1-.7.2-.2.4-.4.6-.8h-.7c-.3.3-.6.6-1.1.9-.1-.1-.2-.3-.3-.4-.7.2-1.3.4-1.9.6l-.1-.6c.3-.1.6-.2 1-.3v-2.6h-.8v-.5h.7zm2.3.6v-2.6h3.5v2.6h-3.5zm.6-1.6h2.4v-.5h-2.4v.5zm0 .5v.5h2.4v-.5h-2.4zM430.1 341.6l-.9 1.8-.4-.2 1-1.8c.1.1.2.1.3.2zm-.2-1.3-.2.3c-.2-.2-.5-.4-.8-.5l.2-.3c.3.1.6.3.8.5zm.3-1.3-.2.3c-.2-.3-.5-.5-.7-.6l.2-.3c.2.1.4.4.7.6zm1.1-.4c-.1.3-.2.5-.3.7h.8v-1h.4v1h1.4v.3h-1.4v1h1.7v.3h-1.2v1.8c0 .1 0 .1.1.1h.6c.1 0 .2-.1.2-.1.1-.1.1-.2.1-.4.1.1.2.1.4.1 0 .2-.1.4-.2.6-.1.2-.2.2-.4.2h-.7c-.3 0-.4-.2-.4-.5V341h-.8c0 .7-.1 1.2-.3 1.5-.2.3-.6.6-1.1.8-.1-.1-.1-.3-.2-.4.5-.2.9-.5 1-.8.1-.3.2-.6.2-1.1h-1.1v-.3h1.7v-1h-1c-.1.3-.3.5-.4.7-.1-.1-.2-.2-.3-.2.2-.3.4-.5.5-.8.1-.3.2-.5.3-.8h.4zM435.5 340.1l-.2.3c-.2-.1-.5-.2-.7-.3l.1-.3c.3.1.6.2.8.3zm.3 1.5-.8 1.8-.3-.2.8-1.8c.1.1.2.2.3.2zm0-2.7-.2.3c-.2-.2-.4-.4-.6-.5l.2-.3c.2.2.4.3.6.5zm1.3 1.5c-.1.1-.1.2-.2.3h1c.1-.1.2-.3.3-.5l.3.1c-.1.1-.1.3-.2.4h1.3v.3h-1.4v.4h1.3v.3h-1.3v.4h1.3v.3h-1.3v.5h1.5v.3h-2.9v.2h-.4v-2.1l-.4.4c-.1-.1-.1-.2-.2-.3.2-.1.4-.3.6-.5.2-.2.3-.4.5-.7l.2.2zm.5-1.9v1.8h-.4v-.1h-1.1v-.3h1.1v-.4h-1.1v-.3h1.1v-.4h-1.1v-.3h1.5zm.2 2.5h-1.1v.4h1.1v-.4zm0 .7h-1.1v.4h1.1v-.4zm0 1.2v-.5h-1.1v.5h1.1zm1.7-4.4v1.8h-.4v-.1h-1.2v-.3h1.2v-.4h-1.2v-.3h1.2v-.4h-1.2v-.3h1.6zM441.1 339.4v-1.2h.4v1.2h.5v.4h-.5v.6c.1.1.1.2.2.2l.3.3c-.1.1-.2.2-.2.3l-.3-.3v2.5h-.4V341c-.1.4-.3.7-.5 1-.1-.1-.1-.2-.2-.3.2-.3.3-.6.4-.9.1-.2.2-.5.2-.9h-.6v-.4h.7zm1.9-.9-.5.9.2.2.3-.5.3.2-.7 1.1h.4c0-.1-.1-.2-.1-.3l.3-.1c.1.2.3.5.4.7-.1-.5-.1-1.3-.1-2.4h.4v1l.2-.2c.1 0 .1.1.2.1l.3-.8.3.2-.4.8.2.2.3-.5.3.2-.7 1.1h.4c0-.1-.1-.2-.1-.2l.3-.1c.1.2.2.5.3.8l-.4.1c0-.1 0-.1-.1-.2-.4.1-.8.1-1.1.1l-.1-.4h.2l.3-.5c-.2-.2-.4-.4-.7-.5 0 .7.1 1.2.1 1.6v.2h.6c0-.1-.1-.2-.1-.3l.3-.1c.1.1.2.3.2.4h.5v.4h-1.4c0 .2.1.4.2.5 0 .1.1.2.2.3.2-.2.4-.4.5-.6l.3.2c-.1.2-.3.4-.6.6.2.2.3.3.4.3 0 0 .1-.1.2-.5.1.1.2.1.4.2-.1.4-.2.6-.3.6 0 .1-.1.1-.2.1-.2 0-.5-.1-.7-.3l-.2-.2c-.4.3-.8.4-1.2.6 0-.1-.1-.2-.2-.4.4-.1.7-.3 1.1-.5h.1c-.1-.1-.1-.2-.2-.4s-.2-.5-.2-.7h-.4c0 .2-.1.3-.1.4.3.1.5.3.7.5l-.2.3c-.2-.2-.4-.3-.6-.4 0 .1-.1.2-.1.3-.1.3-.3.6-.6.9l-.3-.3c.2-.2.4-.5.5-.8.1-.2.2-.5.3-.8h-.6v-.4h1.7V340.9l-.4.1c0-.1 0-.1-.1-.2-.4.1-.8.1-1.1.1l-.1-.4h.2l.3-.5c-.2-.2-.5-.4-.7-.6l.2-.3c.1.1.2.1.2.2l.4-.9.4.1zM434.6 346.5v.4h2.3v.3h-2.3v.4h1.5v1.9h-2.9v-1.9h1.1v-.4h-2.4v-.3h2.4v-.4h-2v-1.2h4.2v1.2h-1.9zm-2.1 1.2v2.1h4.4v.3h-4.4v.3h-.4v-2.7h.4zm.1-1.5h.9v-.6h-.9v.6zm.9 1.9h2.2v-.3h-2.2v.3zm0 .2v.3h2.2v-.3h-2.2zm0 .6v.3h2.2v-.3h-2.2zm.4-2.7h1v-.6h-1v.6zm1.3 0h.9v-.6h-.9v.6zM438.1 346.7v-1.4h.4v1.4h.6v.4h-.6v1.7c.2-.1.4-.1.6-.2v.3c.2-.1.3-.3.5-.4.1-.2.3-.3.4-.6h-.9v-.4h3.6v.4h-2.3c-.1.2-.2.3-.2.4h2.3c0 .7 0 1.2-.1 1.5-.1.2-.1.4-.2.5-.1.1-.3.1-.7.1 0-.1 0-.3-.1-.4h.5c.1 0 .1-.1.2-.3 0-.2.1-.6.1-1.1h-.4c-.2.5-.4.8-.7 1.1-.3.3-.6.5-.9.6 0-.1-.1-.2-.2-.3l.9-.6c.2-.2.4-.5.5-.9h-.5c-.2.3-.4.6-.6.8-.3.2-.5.4-.7.5 0-.1-.1-.2-.2-.3.3-.1.5-.3.7-.5.1-.1.3-.3.4-.5h-.5c-.2.2-.4.4-.8.6-.1-.1-.1-.2-.2-.3-.5.2-.9.3-1.4.4l-.1-.4c.2 0 .4-.1.7-.2V347h-.6v-.4h.5zm1.7.4v-1.8h2.4v1.8h-2.4zm.3-1.1h1.7v-.4h-1.7v.4zm0 .3v.4h1.7v-.4h-1.7zM374.6 372.8l-2.1 4.4-.9-.5 2.2-4.4c.3.3.6.5.8.5zm-.5-3-.5.8c-.5-.5-1.1-.9-1.8-1.3l.4-.8c.7.5 1.4.9 1.9 1.3zm.6-3.2-.5.8c-.6-.6-1.2-1-1.8-1.4l.5-.7c.7.3 1.3.8 1.8 1.3zm5.1 1.2c-.1.1-.1.2-.2.3.7.8 1.4 1.5 2.1 2 .8.6 1.7 1.1 2.7 1.6-.3.3-.5.6-.7.9-.7-.3-1.4-.8-2.2-1.4-.8-.6-1.6-1.4-2.5-2.3-.5.7-1.1 1.3-1.6 1.9-.9.8-1.6 1.4-2.2 1.8-.2-.3-.4-.6-.6-.8.8-.5 1.6-1.1 2.3-1.9.7-.7 1.4-1.5 2-2.6l.9.5zm-1.4-2.3c-.8 1.1-1.7 1.9-2.8 2.6-.1-.3-.4-.6-.7-.8 1.1-.6 2-1.4 2.7-2.5l.8.7zm3.8 11.5h-.9v-.7h-3.8v.9h-.9v-5.4h5.7v5.2zm-.9-1.5v-2.8h-3.8v2.8h3.8zm.8-9.4c.4.3.9.6 1.4.7-.2.2-.4.5-.6.8-.6-.3-1.1-.6-1.6-1s-.9-.7-1.2-1l.5-.7c.6.5 1 .9 1.5 1.2zM390.2 373.5v-1.2h1v1.2h4.3v.8h-4.3v1.5h5.5v.8h-12.1v-.8h5.7v-1.5H386v-.8h4.2zm1-8.7v1.4h4.9v2.7h-1v.4H390l-1.1 2c1.4-.1 2.9-.2 4.3-.3-.3-.3-.6-.5-.9-.7l.7-.7c1.2.9 2.1 1.7 2.7 2.2l-.7.7-.8-.8c-3.2.3-6 .5-8.3.6l-.2-.9c.7 0 1.4 0 2.1-.1l1.2-2h-3v-.4h-.9v-2.7h4.9v-1.4h1.2zm3.9 3.6v-1.3h-9v1.3h9zM372.3 386.9c-.8-.7-1.3-1.4-1.7-2.1-.5-.8-.7-1.7-.7-2.7 0-1 .2-1.9.7-2.7.4-.6.9-1.3 1.7-2.1l.5.5c-.7.7-1.2 1.3-1.6 1.9-.4.7-.6 1.6-.6 2.4 0 .9.2 1.7.6 2.4.3.6.9 1.2 1.6 1.9l-.5.5zM376.2 385.4v-5.9c-.5.3-1 .5-1.4.6v-.8c.5-.1 1-.3 1.4-.6h.8v6.7h-.8zM382.7 383.8v1.5h-.6v-1.5h-3.2v-.6l3.3-4.5h.5v4.5h.9v.6h-.9zm-.6-4-2.5 3.4h2.5v-3.4zM386.9 385.4v-5.9c-.5.3-1 .5-1.4.6v-.8c.5-.1 1-.3 1.4-.6h.8v6.7h-.8zM393.6 385.1c-.4.3-1 .4-1.6.4-.6 0-1.2-.1-1.6-.4-.5-.3-.8-.8-.8-1.3s.1-.9.3-1.2c.2-.3.6-.5 1.1-.8-.5-.2-.8-.4-.9-.7-.2-.2-.3-.5-.3-.9 0-.6.2-1 .7-1.3.4-.3.9-.4 1.5-.4s1 .2 1.4.5c.4.3.6.7.6 1.2 0 .4-.1.7-.2.9-.2.2-.5.4-.9.7.6.3 1 .5 1.2.8.3.3.4.7.4 1.2-.2.6-.4 1-.9 1.3zm-.6-2.4c-.2-.1-.6-.4-1.1-.6-.5.2-.8.4-1 .6-.3.3-.5.6-.5 1s.2.7.5.9c.3.2.6.2 1.1.2.4 0 .7-.1 1.1-.3.4-.2.5-.5.5-.9s-.2-.6-.6-.9zm-.2-3.3c-.2-.2-.5-.3-.8-.3-.4 0-.7.1-.9.3-.3.2-.4.5-.4.9 0 .3.1.6.4.8.2.1.5.3.9.4.2-.1.5-.2.8-.4.3-.2.4-.5.4-.8-.1-.4-.2-.6-.4-.9zM397.2 384.8c-.4.7-.9 1.3-1.7 2.1l-.5-.5c.7-.7 1.2-1.3 1.6-1.9.4-.7.6-1.5.6-2.4 0-.9-.2-1.7-.6-2.4-.3-.6-.9-1.2-1.6-1.9l.5-.5c.8.7 1.3 1.4 1.7 2.1.5.8.7 1.7.7 2.7 0 1-.3 1.9-.7 2.7zM408.8 253.1c-.2.5-.5 1-.9 1.4l-.3-.3c.6-.7 1-1.6 1.3-2.8l.4.2c-.1.6-.3 1.1-.5 1.5zm2.7 1.2c-.3-1-.8-1.9-1.3-2.8l.3-.2c.6.9 1.1 1.9 1.5 2.8l-.5.2zM414.6 253.7c-.5.4-1.1.8-1.9 1.1l-.2-.4c1.3-.4 2.5-1.3 3.4-2.5l.3.3c-.6.6-1.1 1.1-1.6 1.5zm-1-1.5c-.4-.3-.7-.6-1.1-.8l.2-.3c.4.2.8.5 1.1.8l-.2.3zM420.3 253.1c0 .5-.1.9-.1 1.2 0 .1-.1.2-.2.3-.1.1-.4.1-.8.2 0-.1-.1-.2-.1-.4h.4c.1 0 .3-.1.3-.2.1-.1.1-.4.1-.8v-1.1h-1.1c-.1.6-.3 1.2-.5 1.6-.3.4-.7.8-1.2 1.1l-.3-.3c.5-.3.9-.6 1.1-.9.3-.4.4-.8.5-1.4h-1.2v-.4h1.3v-1h.4v1h1.6l-.2 1.1zm0-1.4-.5-.5.2-.2c.2.2.4.3.6.5l-.3.2zm.3-.4-.5-.5.2-.2c.2.2.4.3.6.5l-.3.2zM421 253v-.3h3.8v.3H421zM426.4 253.1c-.2.5-.5 1-.9 1.4l-.3-.3c.6-.7 1-1.6 1.3-2.8l.4.2c-.1.6-.3 1.1-.5 1.5zm2.7 1.2c-.3-1-.8-1.9-1.3-2.8l.3-.2c.6.9 1.1 1.9 1.5 2.8l-.5.2zm.3-2.6c-.1.1-.2.2-.3.2-.1 0-.3 0-.3-.1-.1-.1-.1-.2-.1-.3 0-.1 0-.3.1-.3.1-.1.2-.1.3-.1.1 0 .2 0 .3.1.1.1.1.2.1.3s0 .1-.1.2zm-.1-.6s-.1-.1-.2-.1c-.2 0-.3.1-.3.3 0 .1 0 .1.1.2 0 .1.1.1.2.1s.1 0 .2-.1c0 0 .1-.1.1-.2-.1-.1-.1-.1-.1-.2zM432.3 252.2v2.7h-.4v-2.4c-.6.5-1.2.9-1.8 1.1-.1-.1-.1-.3-.2-.4.6-.2 1.2-.6 1.8-1.1.5-.4 1-.9 1.5-1.4l.4.3c-.5.5-.9.9-1.3 1.2zM436.6 253.7c-.4.5-1 .9-1.9 1.2 0-.1-.1-.2-.2-.4.7-.2 1.3-.6 1.7-1 .4-.4.7-1 1-1.8h-3v-.4h3.2l.3.3c-.4.9-.8 1.6-1.1 2.1zm1.6-2.4c-.1.1-.2.2-.3.2-.1 0-.3 0-.3-.1-.1-.1-.1-.2-.1-.3 0-.1 0-.3.1-.3.1-.1.2-.1.3-.1.1 0 .2 0 .3.1.1.1.1.2.1.3 0 0 0 .1-.1.2zm-.2-.6s-.1-.1-.2-.1c-.2 0-.3.1-.3.3 0 .1 0 .1.1.2 0 .1.1.1.2.1s.1 0 .2-.1c0 0 .1-.1.1-.2 0 0 0-.1-.1-.2zM206.3 285.2c-.1.5-.3 1-.5 1.4-.1-.1-.1-.2-.2-.3.3-.7.6-1.6.8-2.8l.2.2c-.1.6-.2 1.1-.3 1.5zm1.7 1.3c-.2-1-.5-1.9-.8-2.8l.2-.2c.4.9.7 1.9.9 2.8l-.3.2zM209.8 285.8c-.3.4-.7.8-1.1 1.1l-.1-.4c.8-.4 1.5-1.3 2.1-2.5 0 .1.1.2.2.3-.5.7-.8 1.2-1.1 1.5zm-.6-1.5c-.2-.3-.4-.6-.6-.8l.1-.3c.2.2.5.5.7.8l-.2.3zM213.2 285.2c0 .5 0 .9-.1 1.2 0 .1-.1.2-.1.3-.1.1-.2.1-.5.2 0-.1 0-.2-.1-.4h.2c.1 0 .2-.1.2-.2s.1-.4.1-.8v-1.1h-.7c-.1.6-.2 1.2-.3 1.6-.2.4-.4.8-.7 1.1 0-.1-.1-.2-.2-.3.3-.3.5-.6.7-.9.2-.4.2-.8.3-1.4h-.7v-.5h.8v-1h.2v1h.9v1.2zm0-1.4c-.1-.1-.2-.3-.3-.5l.1-.2c.1.2.3.3.3.5l-.1.2zm.2-.4c-.1-.1-.2-.3-.3-.5l.1-.2c.1.2.3.3.3.5l-.1.2zM213.7 285.2v-.3h2.3v.3h-2.3zM216.9 285.2c-.1.5-.3 1-.5 1.4-.1-.1-.1-.2-.2-.3.3-.7.6-1.6.8-2.8l.2.2c-.1.6-.2 1.1-.3 1.5zm1.6 1.3c-.2-1-.5-1.9-.8-2.8l.2-.2c.4.9.7 1.9.9 2.8l-.3.2zm.2-2.7c-.1.1-.1.2-.2.2s-.2 0-.2-.1c-.1-.1-.1-.2-.1-.3 0-.1 0-.3.1-.3.1-.1.1-.1.2-.1s.1 0 .2.1.1.2.1.3c0 0-.1.1-.1.2zm-.1-.5-.1-.1c-.1 0-.2.1-.2.3 0 .1 0 .1.1.2 0 .1.1.1.1.1s.1 0 .1-.1v-.4zM220.4 284.3v2.7h-.2v-2.4c-.4.5-.7.9-1.1 1.1 0-.1-.1-.3-.1-.4.3-.2.7-.6 1.1-1.1.3-.4.6-.9.9-1.4l.2.3c-.3.6-.6.9-.8 1.2zM223 285.8c-.2.5-.6.9-1.1 1.2 0-.1-.1-.2-.1-.4.4-.2.8-.6 1-1 .2-.4.4-1 .6-1.8h-1.8v-.4h1.9l.2.3c-.3 1-.5 1.7-.7 2.1zm.9-2.4c-.1.1-.1.2-.2.2s-.2 0-.2-.1c-.1-.1-.1-.2-.1-.3 0-.1 0-.3.1-.3.1-.1.1-.1.2-.1s.1 0 .2.1.1.2.1.3c0 0 0 .1-.1.2zm0-.5-.1-.1c-.1 0-.2.1-.2.3 0 .1 0 .1.1.2 0 .1.1.1.1.1s.1 0 .1-.1v-.4zM394.5 454c-.2.5-.5 1-.9 1.4l-.3-.3c.6-.7 1-1.6 1.3-2.8l.4.2c-.2.6-.4 1.1-.5 1.5zm2.7 1.3c-.3-1-.8-1.9-1.3-2.8l.3-.2c.6.9 1.1 1.9 1.5 2.8l-.5.2zM400.3 454.6c-.5.4-1.1.8-1.9 1.1l-.2-.4c1.3-.4 2.5-1.3 3.4-2.5l.3.3c-.6.6-1.2 1.2-1.6 1.5zm-1.1-1.5c-.4-.3-.7-.6-1.1-.8l.2-.3c.4.2.8.5 1.1.8l-.2.3zM405.9 454c0 .5-.1.9-.1 1.2 0 .1-.1.2-.2.3-.1.1-.4.1-.8.2 0-.1-.1-.2-.1-.4h.4c.1 0 .3-.1.3-.2.1-.1.1-.4.1-.8v-1.1h-1.1c-.1.6-.3 1.2-.5 1.6-.3.4-.7.8-1.2 1.1l-.3-.3c.5-.3.9-.6 1.1-.9.3-.4.4-.8.5-1.4h-1.2v-.4h1.3v-1h.4v1h1.6l-.2 1.1zm0-1.4-.5-.5.2-.2c.2.2.4.3.6.5l-.3.2zm.4-.4-.5-.5.2-.2c.2.2.4.3.6.5l-.3.2zM406.7 453.9v-.3h3.8v.3h-3.8zM412 454c-.2.5-.5 1-.9 1.4l-.3-.3c.6-.7 1-1.6 1.3-2.8l.4.2c-.1.6-.3 1.1-.5 1.5zm2.7 1.3c-.3-1-.8-1.9-1.3-2.8l.3-.2c.6.9 1.1 1.9 1.5 2.8l-.5.2zm.3-2.7c-.1.1-.2.2-.3.2-.1 0-.3 0-.3-.1-.1-.1-.1-.2-.1-.3 0-.1 0-.3.1-.3.1-.1.2-.1.3-.1.1 0 .2 0 .3.1.1.1.1.2.1.3.1 0 0 .1-.1.2zm-.1-.5s-.1-.1-.2-.1c-.2 0-.3.1-.3.3 0 .1 0 .1.1.2 0 .1.1.1.2.1s.1 0 .2-.1c0 0 .1-.1.1-.2s-.1-.2-.1-.2zM418 453.1v2.7h-.4v-2.4c-.6.5-1.2.9-1.8 1.1-.1-.1-.1-.3-.2-.4.6-.2 1.2-.6 1.8-1.1.5-.4 1-.9 1.5-1.4l.4.3c-.6.6-1 .9-1.3 1.2zM422.2 454.6c-.4.5-1 .9-1.9 1.2 0-.1-.1-.2-.2-.4.7-.2 1.3-.6 1.7-1 .4-.4.7-1 1-1.8h-3v-.4h3.2l.3.3c-.4 1-.7 1.7-1.1 2.1zm1.6-2.4c-.1.1-.2.2-.3.2-.1 0-.3 0-.3-.1-.1-.1-.1-.2-.1-.3 0-.1 0-.3.1-.3.1-.1.2-.1.3-.1.1 0 .2 0 .3.1.1.1.1.2.1.3.1 0 0 .1-.1.2zm-.1-.5s-.1-.1-.2-.1c-.2 0-.3.1-.3.3 0 .1 0 .1.1.2 0 .1.1.1.2.1s.1 0 .2-.1c0 0 .1-.1.1-.2-.1-.1-.1-.2-.1-.2zM410.5 264.3c-.6.7-1.5 1.2-2.5 1.5-.1-.1-.2-.3-.3-.5.9-.2 1.7-.6 2.2-1.2.5-.5 1-1.2 1.4-2.2h-2.1c-.4.7-1 1.3-1.5 1.9-.1-.1-.3-.2-.4-.3.5-.4.9-.9 1.2-1.3.2-.4.5-.9.9-1.6l.5.2c-.1.2-.2.5-.4.8h2.1l.1-.1.3.3c-.5 1.1-1 1.9-1.5 2.5zM416.6 265.4v-.4h-3.3v.4h-.5v-4.3h4.3v4.3h-.5zm0-3.8h-3.3v2.9h3.3v-2.9zM417.8 263.4v-.5h5.1v.5h-5.1zM426.9 263.9l-.3-.4c.5-.5 1-.9 1.4-1.4l-2.4.4v2.1c0 .3.2.4.6.5h1c.6 0 1.1 0 1.5-.1v.5c-.6 0-1.2.1-1.6.1-.6 0-1 0-1.3-.1-.5-.1-.7-.4-.7-.9v-2.1l-1.5.2-.1-.5 1.6-.2v-1.7h.5v1.6l2.6-.4.1-.1.4.4c-.7 1-1.3 1.7-1.8 2.1zm1.6-2.4c-.2-.2-.4-.4-.7-.6l.2-.3c.3.2.6.4.7.6l-.2.3zm.4-.5c-.2-.2-.4-.4-.7-.6l.2-.3c.3.2.6.4.7.6l-.2.3zM430.2 263.7c-.2-.3-.4-.7-.7-1.1l.4-.2c.2.4.5.7.7 1.2l-.4.1zm3 .2c-.3.6-.7 1-1.1 1.4-.4.3-.9.6-1.5.8-.1-.2-.2-.3-.3-.4.6-.2 1-.4 1.4-.6.4-.3.7-.7 1-1.2.2-.4.4-1 .6-1.7l.5.1c-.2.7-.4 1.2-.6 1.6zm-1.7-.6c-.1-.4-.3-.8-.5-1.1l.4-.2c.2.4.4.8.6 1.1l-.5.2zM438.2 263.9c-.7-.4-1.6-.8-2.7-1.2v3.3h-.5v-5.6h.5v1.8c1 .3 2 .7 3 1.2l-.3.5zM396.7 463.9c-.6.7-1.5 1.2-2.5 1.5-.1-.1-.2-.3-.3-.5.9-.2 1.7-.6 2.2-1.2.5-.5 1-1.2 1.4-2.2h-2.1c-.4.7-1 1.3-1.5 1.9-.1-.1-.3-.2-.4-.3.5-.4.9-.9 1.2-1.3.2-.4.5-.9.9-1.6l.5.2c-.1.2-.2.5-.4.8h2.1l.1-.1.3.3c-.5 1.1-1 1.9-1.5 2.5zM402.8 465.1v-.4h-3.3v.4h-.5v-4.3h4.3v4.3h-.5zm0-3.9h-3.3v2.9h3.3v-2.9zM404 463v-.5h5.1v.5H404zM413.1 463.6l-.3-.4c.5-.5 1-.9 1.4-1.4l-2.4.4v2.1c0 .3.2.4.6.5h1c.6 0 1.1 0 1.5-.1v.5c-.6 0-1.2.1-1.6.1-.6 0-1 0-1.3-.1-.5-.1-.7-.4-.7-.9v-2.1l-1.5.2-.1-.5 1.6-.2V460h.5v1.6l2.6-.4.1-.1.4.4c-.7 1-1.3 1.6-1.8 2.1zm1.6-2.5c-.2-.2-.4-.4-.7-.6l.2-.3c.3.2.6.4.7.6l-.2.3zm.4-.5c-.2-.2-.4-.4-.7-.6l.2-.3c.3.2.6.4.7.6l-.2.3zM416.5 463.3c-.2-.3-.4-.7-.7-1.1l.4-.2c.2.4.5.7.7 1.2l-.4.1zm2.9.2c-.3.6-.7 1-1.1 1.4-.4.3-.9.6-1.5.8-.1-.2-.2-.3-.3-.4.6-.2 1-.4 1.4-.6.4-.3.7-.7 1-1.2.2-.4.4-1 .6-1.7l.5.1c-.2.7-.4 1.2-.6 1.6zm-1.7-.6c-.1-.4-.3-.8-.5-1.1l.4-.2c.2.4.4.8.6 1.1l-.5.2zM424.4 463.5c-.7-.4-1.6-.8-2.7-1.2v3.3h-.5V460h.5v1.8c1 .3 2 .7 3 1.2l-.3.5zM162.7 193.2v-.5h.4v.5h2.5v.4h-2.5v.5h2v2.1h-.8v.5h1.5v.4h-1.5v1c0 .2-.1.3-.2.3-.2.1-.4.1-.7.1 0-.2-.1-.3-.2-.5h.6c.1 0 .1 0 .1-.1v-.9H160v-.4h3.8v-.5h-3V194h1.9v-.5h-2.5v-.4h2.5zm-.5 4.6-.4.3c-.2-.3-.4-.5-.7-.8l.3-.3c.4.3.6.6.8.8zm-1-2.9h1.5v-.5h-1.5v.5zm1.5.4h-1.5v.5h1.5v-.5zm.4-.4h1.5v-.5h-1.5v.5zm0 .4v.5h1.5v-.5h-1.5zM171.8 193.1v4.9c0 .2-.1.4-.2.4-.1.1-.4.1-.7.1 0-.2-.1-.3-.2-.5h.5c.1 0 .1 0 .1-.1v-1.5h-1.7v2.1h-.4v-2.1h-1.5c-.1.9-.3 1.6-.8 2.2-.1-.2-.3-.3-.4-.4.5-.6.8-1.4.8-2.5V193h4.5zm-2.6 2.9v-1h-1.5v1.1h1.5zm0-1.5v-1.1h-1.5v1.1h1.5zm.5 0h1.7v-1.1h-1.7v1.1zm0 1.5h1.7v-1h-1.7v1zM150.6 204.2c-.7-.4-1.6-.8-2.7-1.2v3.3h-.5v-5.6h.5v1.8c1 .3 2 .7 3 1.2l-.3.5zM155 205.1c-.6.5-1.4.9-2.5 1.2 0-.2-.1-.3-.2-.5.9-.2 1.6-.5 2.1-.9.6-.4 1-1.1 1.5-1.9h-4.2v-.5h4.6l.3.3c-.6 1-1.1 1.8-1.6 2.3zm-2.7-3.6v-.5h3.5v.5h-3.5zM160.2 204.6c-.7.5-1.5 1-2.5 1.5l-.3-.6c1.8-.6 3.3-1.7 4.6-3.3.1.2.2.3.4.4-.9.8-1.6 1.5-2.2 2zm-1.4-2c-.5-.4-1-.8-1.4-1.1l.3-.4c.5.3 1 .7 1.5 1.1l-.4.4zM166.2 204.6c-.6.7-1.5 1.2-2.5 1.5-.1-.1-.2-.3-.3-.5.9-.2 1.7-.6 2.2-1.2.5-.5 1-1.2 1.4-2.2h-2.1c-.4.7-1 1.3-1.5 1.9-.1-.1-.3-.2-.4-.3.5-.4.9-.9 1.2-1.3.2-.4.5-.9.9-1.6l.5.2c-.1.2-.2.5-.4.8h2.1l.1-.1.3.3c-.5 1.1-1 2-1.5 2.5zM170 204c-.2.8-.7 1.5-1.4 2.1-.1-.2-.2-.3-.3-.4.5-.4.9-.8 1.1-1.4.2-.4.3-1 .3-1.7v-1.2h.5c0 1.2-.1 2-.2 2.6zm1.6 1.9-.4-.4.1-.1v-4.5h.5v4.2c.7-.5 1.4-1.2 2-2 .1.1.2.2.4.3-.9 1.1-1.7 2-2.6 2.5zM174.7 203.7v-.5h5.1v.5h-5.1zM185.1 206c-.1-.2-.2-.4-.4-.7-2 .3-3.4.5-4.3.6l-.1-.6h.7c.6-1.2 1.2-2.6 1.7-4.3l.6.2c-.8 1.9-1.4 3.2-1.8 4 .9-.1 1.9-.2 3-.3-.3-.5-.7-1.1-1.1-1.6l.4-.3c.8 1 1.4 1.9 1.8 2.7l-.5.3zM270.1 261.8c-.2-.2-.5-.4-.8-.6.8-.9 1.5-2.1 2.2-3.4l.8.4c-.7 1.4-1.4 2.5-2.2 3.6zm4.3-5.2v6.5h-.8v-6.5h-4.2v-.8h4.2v-2.5h.8v2.5h4.5v.8h-4.5zm3.8 4.9c-.9-.9-1.8-2.1-2.5-3.4l.8-.5c.8 1.3 1.6 2.4 2.5 3.3-.3.2-.6.4-.8.6zM279.8 258.6v-.8h8.9v.8h-8.9zM292.6 259.1c-.4 1.4-1.2 2.7-2.4 3.7-.2-.3-.4-.5-.6-.8.9-.7 1.6-1.4 2-2.4.3-.8.5-1.8.6-3v-2.1h.9c-.2 2.2-.3 3.7-.5 4.6zm2.9 3.5-.6-.7.1-.1v-7.9h.8v7.4c1.2-.9 2.4-2 3.5-3.5.2.2.4.4.7.6-1.5 1.7-3 3.2-4.5 4.2zM316.5 363.9v-1.2h.4v1.2h.6v.4h-.6v1c.2-.1.4-.1.7-.2v.4c-.2.1-.5.1-.7.2v1.7c0 .1-.1.2-.2.3-.1.1-.3.1-.6.1 0-.1 0-.3-.1-.4h.5c.1 0 .1 0 .1-.1v-1.5c-.3.1-.6.2-.8.2l-.1-.4c.3-.1.6-.1.9-.2v-1.1h-.9v-.4h.8zm4-.8c-.8.3-1.5.4-2.1.5v.9h2.3v.4h-.7v2.9h-.4v-2.9h-1.2v.2c0 .5-.1.9-.2 1.3-.1.5-.3.9-.6 1.3-.1-.1-.2-.2-.3-.2.3-.4.4-.7.6-1.1.1-.4.2-.8.2-1.2v-1.9l.3.1c.7-.1 1.4-.2 2-.5l.1.2zM318.3 368.5v1.8h1.8v.4h-1.8v2.3h2.3v.4h-5v-.4h2.2v-4.5h.5zM320.5 374.5v.4h-2.2v1.2h2v.3h-1.9c.1.5.4.9.7 1.3.4.5 1 .8 1.6 1-.1.1-.2.2-.3.4-.7-.3-1.2-.7-1.6-1.2-.3-.3-.5-.6-.6-1-.1.4-.2.7-.4 1-.4.5-1 1-1.9 1.3-.1-.2-.1-.3-.2-.4 1-.4 1.6-.8 1.9-1.4.1-.3.2-.6.3-1H316v-.3h1.8v-1.2h-2.1v-.4h4.8zM317 381v-1.1h.4v1.1h1.5v-1.2h.4v1.2h1.1v.4h-1.1v1.3h1.5v.4h-1.5v1.9h-.4v-2h-1.5c-.1.3-.1.6-.3.9-.2.4-.6.7-1.1 1l-.3-.3c.5-.2.9-.5 1.1-.9.1-.2.2-.4.2-.7h-1.4v-.4h1.4v-1.3h-1.1v-.3h1.1zm1.8.4h-1.5v1.3h1.5v-1.3zM204.1 429.6v-1.8h.5v1.8h.9v.5h-.9v.7l.4.4c.1.1.3.2.5.4-.1.2-.2.3-.3.5-.2-.2-.4-.3-.5-.4 0 0-.1 0-.1-.1v3.7h-.5v-3.7c-.1.3-.2.5-.3.8-.2.4-.4.7-.5.8-.1-.2-.2-.4-.3-.5.3-.4.5-.7.7-1.1.2-.3.3-.7.5-1.3h-.9v-.5h.8zm3.4-1.4v6.1c0 .2 0 .3-.1.4-.1.1-.4.2-.8.2 0-.2-.1-.4-.2-.5h.4c.1 0 .2 0 .2-.1v-1.8h-.8c0 .3-.1.5-.1.8-.1.7-.3 1.3-.6 1.8-.1-.2-.2-.4-.4-.5.3-.5.5-1 .6-1.6.1-.5.1-1.2.1-1.9v-2.8h1.7zm-.5 3.7v-1.3h-.8v1.4h.8zm0-1.8v-1.4h-.8v1.4h.8zm3-1.9v6.3c0 .2 0 .3-.1.4-.1.1-.4.1-.9.2 0-.2-.1-.4-.2-.5h.4c.2 0 .2 0 .2-.1v-2h-.9c0 .4-.1.7-.1 1-.1.7-.3 1.2-.5 1.7-.1-.2-.2-.4-.4-.5.2-.4.3-1 .4-1.5 0-.5.1-1.1.1-1.8v-3.1h2zm-.5 3.7v-1.3h-.9v1.4h.9zm0-1.8v-1.4h-.9v1.4h.9zM376.9 260.1v-1.8h.5v1.8h.9v.5h-.9v.7l.4.4c.1.1.3.2.5.4-.1.2-.2.3-.3.5-.2-.2-.4-.3-.5-.4 0 0-.1 0-.1-.1v3.7h-.5v-3.7c-.1.3-.2.5-.3.8-.2.4-.4.7-.5.8-.1-.2-.2-.4-.3-.5.3-.4.5-.7.7-1.1.2-.3.3-.7.5-1.3h-1v-.5h.9zm3.5-1.4v6.1c0 .2 0 .3-.1.4-.1.1-.4.2-.8.2 0-.2-.1-.4-.2-.5h.4c.1 0 .2 0 .2-.1V263h-.9c0 .3-.1.5-.1.8-.1.7-.3 1.3-.6 1.8-.1-.2-.2-.4-.4-.5.3-.5.5-1 .6-1.6.1-.5.1-1.2.1-1.9v-2.8h1.8zm-.6 3.7V261h-.8v1.4h.8zm0-1.8v-1.4h-.8v1.4h.8zm3.1-1.9v6.3c0 .2 0 .3-.1.4-.1.1-.4.1-.9.2 0-.2-.1-.4-.2-.5h.4c.2 0 .2 0 .2-.1v-2h-.9c0 .4-.1.7-.1 1-.1.7-.3 1.2-.5 1.7-.1-.2-.2-.4-.4-.5.2-.4.3-1 .4-1.5 0-.5.1-1.1.1-1.8v-3.1h2zm-.5 3.7V261h-.9v1.4h.9zm0-1.8v-1.4h-.9v1.4h.9zM206.9 306.1v1h2.6v.4h-2.7l-1 1.8c.3.2.6.4.8.6l1.3-1.7.5.3-2.2 2.7c.7-.1 1.5-.1 2.3-.2-.2-.3-.5-.5-.7-.8l.4-.3c.6.7 1.1 1.2 1.4 1.7l-.4.3c-.1-.2-.2-.3-.4-.5-1.8.2-3.4.4-4.7.4l-.1-.5c.5 0 1 0 1.6-.1l.8-1c-.6-.5-1.3-1-2.1-1.4l.2-.4.9.6.7-1.5h-2.3v-.4h2.6v-1h.5zM212.9 306.3v2h-1.8v3.6h-.5v-5.6h2.3zm-.5.8v-.4H211v.4h1.4zm0 .8v-.4H211v.4h1.4zm3.4-1.6v5.1c0 .2-.1.4-.2.4-.1.1-.4.1-.8.1 0-.2-.1-.3-.2-.5h.6c.1 0 .1 0 .1-.1v-3h-1.5l.4.2-.4.6h.9v.4h-1.5v.5h1.7v.4h-1.5c.1.2.3.4.4.5.2.2.4.3.8.5-.1.1-.2.2-.3.4-.4-.2-.6-.4-.8-.6-.2-.2-.3-.4-.4-.6-.1.1-.1.3-.2.4-.2.3-.7.6-1.2.9-.1-.2-.2-.3-.3-.4.6-.2 1-.4 1.2-.7.1-.1.1-.2.2-.3h-1.3v-.4h1.4v-.5h-1.2v-.4h.7c-.1-.2-.2-.3-.4-.5l.3-.3c.2.2.4.4.5.6l-.2.2h.8l.4-.8h-.2v-2h2.2zm-.4.4H214v.4h1.4v-.4zm0 .8H214v.4h1.4v-.4zM220.1 310.2c-.6.7-1.5 1.2-2.5 1.5-.1-.1-.2-.3-.3-.5.9-.2 1.7-.6 2.2-1.2.5-.5 1-1.2 1.4-2.2h-2.1c-.4.7-1 1.3-1.5 1.9-.1-.1-.3-.2-.4-.3.5-.4.9-.9 1.2-1.3.2-.4.5-.9.9-1.6l.5.2c-.1.2-.2.5-.4.8h2.1l.1-.1.3.3c-.5 1.1-1 1.9-1.5 2.5zM226.2 311.3v-.4h-3.3v.4h-.5V307h4.3v4.3h-.5zm0-3.8h-3.3v2.9h3.3v-2.9zM227.4 309.3v-.5h5.1v.5h-5.1zM236.3 310.2c-.6.7-1.5 1.2-2.5 1.5-.1-.1-.2-.3-.3-.5.9-.2 1.7-.6 2.2-1.2.5-.5 1-1.2 1.4-2.2H235c-.4.7-1 1.3-1.5 1.9-.1-.1-.3-.2-.4-.3.5-.4.9-.9 1.2-1.3.2-.4.5-.9.9-1.6l.5.2c-.1.2-.2.5-.4.8h2.1l.1-.1.3.3c-.5 1.1-1 1.9-1.5 2.5zM242.3 125.6c0 .6-.1 1.1-.1 1.4 0 .2-.1.3-.2.4-.1.1-.4.1-.9.2 0-.1-.1-.3-.1-.4h.5c.2 0 .3-.1.4-.2.1-.2.1-.5.1-1v-1.3h-1.3c-.1.8-.3 1.4-.6 1.9s-.8.9-1.4 1.3c-.1-.1-.2-.3-.3-.4.6-.3 1-.7 1.3-1.1.3-.4.5-1 .6-1.6h-1.5v-.4h1.5v-1.2h.5v1.2h1.8l-.3 1.2zM242.8 125.5v-.4h4.5v.4h-4.5zM250.5 125c-.1.9-.2 1.5-.5 1.8-.2.3-.7.7-1.4 1-.1-.1-.1-.3-.3-.4.7-.2 1.1-.5 1.4-.8.2-.3.3-.8.4-1.6h-2.3v-.4h4.9v.4h-2.2zm-2-1.3v-.4h3.3v.4h-3.3zM255.7 126.3c-.6.4-1.3.9-2.2 1.3l-.3-.5c1.5-.5 2.9-1.5 4-2.9l.3.3c-.6.8-1.3 1.4-1.8 1.8zm-1.2-1.8c-.4-.4-.8-.7-1.2-1l.3-.4c.5.3.9.6 1.3.9l-.4.5zM261 126c-.5.4-1 .7-1.5 1-.4.2-.7.4-.9.5l-.4-.3v-4h.4v3.7c.8-.3 1.4-.7 1.8-1 .4-.3.9-.8 1.4-1.4l.3.3c-.2.4-.7.8-1.1 1.2zM262.7 125.5v-.4h4.5v.4h-4.5zM269.1 125.7c-.2.7-.6 1.3-1.2 1.9-.1-.1-.2-.3-.3-.4.5-.3.8-.7 1-1.2.2-.4.3-.9.3-1.5v-1h.4c-.1 1-.1 1.8-.2 2.2zm1.4 1.8-.3-.3.1-.1v-4h.4v3.7c.6-.4 1.2-1 1.8-1.8l.3.3c-.8.9-1.5 1.7-2.3 2.2zM276.3 127.3h-.4l-.7-2.9-.8 2.9h-.4l-.9-3.6h.4l.7 2.9.8-2.9h.4l.7 2.9.7-2.9h.4l-.9 3.6zM370.5 125.6c0 .6-.1 1.1-.1 1.4 0 .2-.1.3-.2.4-.1.1-.4.1-.9.2 0-.1-.1-.3-.1-.4h.5c.2 0 .3-.1.4-.2.1-.2.1-.5.1-1v-1.3h-1.3c-.1.8-.3 1.4-.6 1.9s-.8.9-1.4 1.3c-.1-.1-.2-.3-.3-.4.6-.3 1-.7 1.3-1.1.3-.4.5-1 .6-1.6H367v-.4h1.5v-1.2h.5v1.2h1.8l-.3 1.2zM371.1 125.5v-.4h4.5v.4h-4.5zM378.7 125c-.1.9-.2 1.5-.5 1.8-.2.3-.7.7-1.4 1-.1-.1-.1-.3-.3-.4.7-.2 1.1-.5 1.4-.8.2-.3.3-.8.4-1.6H376v-.4h4.9v.4h-2.2zm-1.9-1.3v-.4h3.3v.4h-3.3zM384 126.3c-.6.4-1.3.9-2.2 1.3l-.3-.5c1.5-.5 2.9-1.5 4-2.9l.3.3c-.6.8-1.3 1.4-1.8 1.8zm-1.2-1.8c-.4-.4-.8-.7-1.2-1l.3-.4c.5.3.9.6 1.3.9l-.4.5zM389.3 126c-.5.4-1 .7-1.5 1-.4.2-.7.4-.9.5l-.4-.3v-4h.4v3.7c.8-.3 1.4-.7 1.8-1 .4-.3.9-.8 1.4-1.4l.3.3c-.3.4-.7.8-1.1 1.2zM391 125.5v-.4h4.5v.4H391zM397.3 125.7c-.2.7-.6 1.3-1.2 1.9-.1-.1-.2-.3-.3-.4.5-.3.8-.7 1-1.2.2-.4.3-.9.3-1.5v-1h.4c0 1 0 1.8-.2 2.2zm1.5 1.8-.3-.3.1-.1v-4h.4v3.7c.6-.4 1.2-1 1.8-1.8l.3.3c-.8.9-1.6 1.7-2.3 2.2zM404.6 127.3h-.4l-.7-2.9-.8 2.9h-.4l-.9-3.6h.4l.7 2.9.8-2.9h.4l.7 2.9.7-2.9h.4l-.9 3.6zM194 121.1c-.5.7-1.4 1.2-2.6 1.6-.1-.2-.2-.4-.3-.5 1-.2 1.8-.6 2.2-1.2.5-.6.8-1.4.8-2.4h-3.4v1.6h-.5v-2.1h2v-1.2h.5v1.2h2c0 1.4-.3 2.3-.7 3zM194.1 124.5v2.3c0 .2 0 .4-.1.5-.1.1-.3.1-.7.2 0-.2-.1-.4-.1-.5h.3c.2 0 .2-.1.2-.2V125c-.6.8-1.4 1.4-2.3 1.9-.1-.1-.2-.3-.3-.4 1-.5 1.8-1.2 2.4-2h-2.2v-.4h2.3v-1h.4v1h1.5v.4h-1.4zM192.3 132.8v-5.1h.5v5.1h-.5zM193.4 136.9c-.6.7-1.5 1.2-2.5 1.5-.1-.1-.2-.3-.3-.5.9-.2 1.7-.6 2.2-1.2.5-.5 1-1.2 1.4-2.2h-2.1c-.4.7-1 1.3-1.5 1.9-.1-.1-.3-.2-.4-.3.5-.4.9-.9 1.2-1.3.2-.4.5-.9.9-1.6l.5.2c-.1.2-.2.5-.4.8h2.1l.1-.1.3.3c-.5 1.1-1 1.9-1.5 2.5zM193 140.6v3.6h-.5V141c-.8.6-1.7 1.1-2.4 1.5-.1-.2-.2-.3-.3-.5.8-.3 1.6-.8 2.4-1.4.7-.6 1.4-1.2 2-1.9l.5.4c-.7.6-1.2 1.1-1.7 1.5zM193.2 148.1c-.7.5-1.5 1-2.5 1.5l-.3-.6c1.8-.6 3.3-1.7 4.6-3.3.1.2.2.3.4.4-.9.9-1.6 1.6-2.2 2zm-1.4-2c-.5-.4-1-.8-1.4-1.1l.3-.4c.5.3 1 .7 1.5 1.1l-.4.4zM186.8 121.4c-.6.7-1.5 1.2-2.5 1.5-.1-.1-.2-.3-.3-.5.9-.2 1.7-.6 2.2-1.2.5-.5 1-1.2 1.4-2.2h-2.1c-.4.7-1 1.3-1.5 1.9-.1-.1-.3-.2-.4-.3.5-.4.9-.9 1.2-1.3.2-.4.5-.9.9-1.6l.5.2c-.1.2-.2.5-.4.8h2.1l.1-.1.3.3c-.4 1-.9 1.9-1.5 2.5zM187.6 127.7v-.4h-3.3v.4h-.5v-4.3h4.3v4.3h-.5zm0-3.9h-3.3v2.9h3.3v-2.9zM185.8 133.2v-5.1h.5v5.1h-.5zM186.7 137.1l-.3-.4c.5-.5 1-.9 1.4-1.4l-2.4.4v2.1c0 .3.2.4.6.5h1c.6 0 1.1 0 1.5-.1v.5c-.6 0-1.2.1-1.6.1-.6 0-1 0-1.3-.1-.5-.1-.7-.4-.7-.9v-2.1l-1.5.2-.1-.5 1.6-.2v-1.7h.5v1.6l2.6-.4.1-.1.4.4c-.7 1-1.3 1.7-1.8 2.1zm1.6-2.4c-.2-.2-.4-.4-.7-.6l.2-.3c.3.2.6.4.7.6l-.2.3zm.4-.5c-.2-.2-.4-.4-.7-.6l.2-.3c.3.2.6.4.7.6l-.2.3zM185.5 141c-.2-.3-.4-.7-.7-1.1l.4-.2c.2.4.5.7.7 1.2l-.4.1zm2.9.2c-.3.6-.7 1-1.1 1.4-.4.3-.9.6-1.5.9-.1-.2-.2-.3-.3-.4.6-.2 1-.4 1.4-.6.4-.3.7-.7 1-1.2.2-.4.4-1 .6-1.6l.5.1c-.2.5-.4 1-.6 1.4zm-1.7-.5c-.1-.4-.3-.8-.5-1.1l.4-.2c.2.4.4.8.6 1.1l-.5.2zM188.1 147.2c-.7-.4-1.6-.8-2.7-1.2v3.3h-.5v-5.6h.5v1.8c1 .3 2 .7 3 1.2l-.3.5zM160.5 121c-.2.5-.5 1-.9 1.4l-.3-.3c.6-.7 1-1.6 1.3-2.8l.4.2c-.1.7-.3 1.2-.5 1.5zm2.7 1.3c-.3-1-.8-1.9-1.3-2.8l.3-.2c.6.9 1.1 1.9 1.5 2.8l-.5.2zM162 125.4c-.5.4-1.1.8-1.9 1.1l-.2-.4c1.3-.4 2.5-1.3 3.4-2.5l.3.3c-.5.6-1.1 1.1-1.6 1.5zm-1-1.6c-.4-.3-.7-.6-1.1-.8l.2-.3c.4.2.8.5 1.1.8l-.2.3zM163.1 129.1c0 .5-.1.9-.1 1.2 0 .1-.1.2-.2.3-.1.1-.4.1-.8.2 0-.1-.1-.2-.1-.4h.4c.1 0 .3-.1.3-.2.1-.1.1-.4.1-.8v-1.1h-1.2c-.1.6-.3 1.2-.5 1.6-.3.4-.7.8-1.2 1.1l-.3-.3c.5-.3.9-.6 1.1-.9.3-.4.4-.8.5-1.4h-1.2v-.4h1.3v-1h.4v1h1.6l-.1 1.1zm0-1.5-.5-.5.2-.2c.2.2.4.3.6.5l-.3.2zm.3-.3-.5-.5.2-.2c.2.2.4.3.6.5l-.3.2zM161.4 134.9v-3.8h.3v3.8h-.3zM160.5 137.2c-.2.5-.5 1-.9 1.4l-.3-.3c.6-.7 1-1.6 1.3-2.8l.4.2c-.1.6-.3 1.1-.5 1.5zm2.7 1.2c-.3-1-.8-1.9-1.3-2.8l.3-.2c.6.9 1.1 1.9 1.5 2.8l-.5.2zm.3-2.6c-.1.1-.2.2-.3.2-.1 0-.3 0-.3-.1-.1-.1-.1-.2-.1-.3 0-.1 0-.3.1-.3.1-.1.2-.1.3-.1.1 0 .2 0 .3.1.1.1.1.2.1.3.1 0 0 .1-.1.2zm-.1-.5s-.1-.1-.2-.1c-.2 0-.3.1-.3.3 0 .1 0 .1.1.2 0 .1.1.1.2.1s.1 0 .2-.1c0 0 .1-.1.1-.2s-.1-.2-.1-.2zM161.9 140.2v2.7h-.4v-2.4c-.6.5-1.2.9-1.8 1.1-.1-.1-.1-.3-.2-.4.6-.2 1.2-.6 1.8-1.1.5-.4 1-.9 1.5-1.4l.4.3c-.5.5-.9.9-1.3 1.2zM162.2 146.2c-.4.5-1 .9-1.9 1.2 0-.1-.1-.2-.2-.4.7-.2 1.3-.6 1.7-1 .4-.4.7-1 1-1.8h-3v-.4h3.2l.3.3c-.3 1-.7 1.7-1.1 2.1zm1.6-2.4c-.1.1-.2.2-.3.2-.1 0-.3 0-.3-.1-.1-.1-.1-.2-.1-.3 0-.1 0-.3.1-.3.1-.1.2-.1.3-.1.1 0 .2 0 .3.1.1.1.1.2.1.3.1 0 0 .1-.1.2zm-.1-.5s-.1-.1-.2-.1c-.2 0-.3.1-.3.3 0 .1 0 .1.1.2 0 .1.1.1.2.1s.1 0 .2-.1c0 0 .1-.1.1-.2s-.1-.2-.1-.2zM163.5 173.3v-1.8h.5v1.8h.9v.5h-.9v.7l.4.4c.1.1.3.2.5.4-.1.2-.2.3-.3.5-.2-.2-.4-.3-.5-.4 0 0-.1 0-.1-.1v3.7h-.5v-3.7c-.1.3-.2.5-.3.8-.2.4-.4.7-.5.8-.1-.2-.2-.4-.3-.5.3-.4.5-.7.7-1.1.2-.3.3-.7.5-1.3h-.9v-.5h.8zm3.4-1.4v6.1c0 .2 0 .3-.1.4-.1.1-.4.2-.8.2 0-.2-.1-.4-.2-.5h.4c.1 0 .2 0 .2-.1v-1.8h-.8c0 .3-.1.5-.1.8-.1.7-.3 1.3-.6 1.8-.1-.2-.2-.4-.4-.5.3-.5.5-1 .6-1.6.1-.5.1-1.2.1-1.9V172h1.7zm-.5 3.7v-1.3h-.8v1.4h.8zm0-1.8v-1.4h-.8v1.4h.8zm3.1-1.9v6.3c0 .2 0 .3-.1.4-.1.1-.4.1-.9.2 0-.2-.1-.4-.2-.5h.4c.2 0 .2 0 .2-.1v-2h-.9c0 .4-.1.7-.1 1-.1.7-.3 1.2-.5 1.7-.1-.2-.2-.4-.4-.5.2-.4.3-1 .4-1.5 0-.5.1-1.1.1-1.8V172h2zm-.6 3.7v-1.3h-.9v1.4h.9zm0-1.8v-1.4h-.9v1.4h.9zM451.5 392.6c-.3.2-.6.3-1 .3h-1.3v2h-.5v-4.6h1.6c.5 0 .9.1 1.2.3.4.2.5.6.5 1-.1.5-.2.8-.5 1zm-1.2-1.8h-1.2v1.7h1.2c.7 0 1.1-.3 1.1-.8 0-.6-.4-.9-1.1-.9zM451.4 402.1c-.3.2-.7.3-1.1.3-.5 0-.8-.1-1.2-.3-.3-.2-.5-.6-.6-1h.6c.1.3.2.6.4.7.2.1.4.2.8.2.3 0 .5-.1.7-.2.2-.2.4-.4.4-.6 0-.3-.4-.6-1.1-.9-1-.4-1.5-.9-1.5-1.4 0-.4.2-.7.5-.9.3-.2.6-.3 1-.3.7 0 1.2.4 1.5 1.2h-.6c-.2-.5-.5-.7-.9-.7-.3 0-.5.1-.6.2-.2.1-.3.3-.3.6 0 .2.2.5.7.7.4.2.8.5 1.3.7.5.3.7.6.7 1-.1.2-.3.5-.7.7zM215.4 242.6v1.7h4.5v.8h-4.8l-1.7 3.1c.5.4 1 .7 1.5 1.1l2.2-3 .8.5-3.8 4.8c1.2-.1 2.6-.2 4-.4-.4-.5-.8-.9-1.2-1.4l.7-.5c1.1 1.2 1.9 2.2 2.4 2.9l-.7.5-.6-.9c-3.2.4-6 .7-8.2.8l-.2-.8c.9 0 1.8-.1 2.8-.1l1.3-1.7c-1-.9-2.2-1.7-3.6-2.5l.4-.7c.6.3 1.1.6 1.6 1l1.3-2.7h-4v-.8h4.5v-1.7h.8zM225.9 243v3.5h-3.2v6.4h-.8V243h4zm-.8 1.4v-.7h-2.4v.7h2.4zm0 1.3v-.7h-2.4v.7h2.4zm6-2.7v8.9c0 .4-.1.6-.3.7-.2.1-.7.2-1.4.2 0-.3-.1-.6-.3-.9h1c.1 0 .2-.1.2-.2v-5.2h-2.7l.7.3-.7 1.1h1.6v.6h-2.6v.9h3v.7H227c.2.4.4.7.7.9.3.3.7.6 1.4.8-.2.1-.4.3-.5.6-.6-.3-1.1-.7-1.5-1-.3-.3-.5-.6-.7-1.1-.1.2-.2.5-.3.7-.4.6-1.2 1.1-2.2 1.5-.1-.3-.3-.5-.6-.7 1-.3 1.7-.7 2.1-1.3.1-.1.2-.3.3-.5h-2.3v-.7h2.4v-.9h-2.1v-.6h1.3c-.2-.3-.4-.6-.7-.9l.5-.4c.3.3.7.7.9 1l-.4.3h1.4l.7-1.4h-.4V243h4.1zm-.8.7h-2.4v.7h2.4v-.7zm0 1.3h-2.4v.7h2.4v-.7zM201.1 269.1c-.4-.4-.7-.8-.9-1.1-.3-.4-.4-.9-.4-1.5 0-.5.1-1 .4-1.5.2-.3.5-.7.9-1.1l.3.3c-.4.4-.7.7-.8 1-.2.4-.3.8-.3 1.3s.1.9.3 1.3c.2.3.5.7.8 1l-.3.3zM204.1 265.4v-1.5h.4v1.5h2.4v.4h-2.2c.1.6.4 1.1.7 1.6.4.6.9 1 1.5 1.3-.1.1-.2.2-.3.4-.6-.4-1.2-.9-1.6-1.5-.3-.4-.5-.9-.6-1.4-.1.4-.2.7-.3 1-.3.6-.9 1.3-1.9 2-.1-.2-.2-.3-.3-.4.8-.4 1.4-1 1.8-1.6.2-.4.4-.9.5-1.4h-2.1v-.4h2zM209.5 264.4v.4h-.7v1.1h.6v.4h-.6v1.3c.2-.1.5-.1.7-.2v.4c-.6.2-1.2.4-1.8.5l-.1-.4c.2-.1.5-.1.8-.2v-1.4h-.7v-.4h.7v-1.1h-.7v-.4h1.8zm1.7 2.3v.7h1.3v.4h-1.3v.8h1.5v.4h-3.5v-.4h1.6v-.8h-1.2v-.4h1.2v-.7h-1.1v-2.6h2.7v2.6h-1.2zm-1.2-1.5h.8v-.7h-.8v.7zm.8.4h-.8v.7h.8v-.7zm.4-.4h.8v-.7h-.8v.7zm0 .4v.7h.8v-.7h-.8zM218.3 264.2v.4h-2.6c-.3.7-.5 1.2-.8 1.6h2.9v2.8h-.4v-.4h-2.5v.4h-.4v-2.3c-.3.3-.6.7-1 1l-.3-.3c.6-.4 1-.8 1.3-1.4.3-.4.5-.9.7-1.5h-1.7v-.4h4.8zm-.9 4.1v-1.7h-2.5v1.7h2.5zM221 264.9v.3h-2v-.3h2zm-.2-.7v.3h-1.5v-.3h1.5zm0 1.5v.3h-1.5v-.3h1.5zm0 .7v.3h-1.5v-.3h1.5zm0 .8v1.5h-1.2v.3h-.4v-1.8h1.6zm-.3 1.1v-.8h-.8v.8h.8zm3.5-4.2v4.4c0 .2 0 .3-.1.3s-.3.1-.5.1c0-.1-.1-.3-.1-.4h.4s.1 0 .1-.1v-4.1h-1.9v2.2c0 .9-.2 1.7-.5 2.3-.1-.1-.2-.3-.3-.3.3-.5.4-1.2.4-2V264h2.5zm-1.6 1.1v-.6h.3v.6h.5v.3h-.5v.6h.6v.3h-1.6v-.3h.6v-.6h-.5v-.3h.6zm.8 1.6v1.3h-.9v.4h-.4v-1.7h1.3zm-.3 1v-.7h-.6v.7h.6zM227.7 267.4c-.6.6-1.3 1.1-2.3 1.5-.1-.1-.1-.2-.3-.4.9-.3 1.6-.8 2.2-1.4-.3-.3-.7-.6-1-.8l.2-.3c.4.3.8.5 1.1.8.3-.4.6-.9.9-1.5h-1.8c-.5.7-1 1.2-1.7 1.6-.1-.1-.2-.3-.3-.4.6-.4 1-.7 1.2-1 .3-.3.5-.8.8-1.4l.5.2-.3.6h1.8l.3.3c-.4.9-.9 1.7-1.3 2.2zM232.6 265.7v3.2h-.4v-2.8c-.7.6-1.5 1-2.1 1.3-.1-.2-.1-.3-.2-.4.7-.3 1.4-.7 2.1-1.2.6-.5 1.2-1.1 1.7-1.7l.4.3c-.6.5-1.1.9-1.5 1.3zM236 266.9c-.2.7-.6 1.3-1.2 1.9-.1-.1-.2-.3-.3-.4.5-.3.8-.7 1-1.2.2-.4.3-.9.3-1.5v-1h.4c0 1 0 1.7-.2 2.2zm1.5 1.7-.3-.3.1-.1v-4h.4v3.7c.6-.4 1.2-1 1.8-1.8l.3.3c-.8 1-1.5 1.7-2.3 2.2zM241.3 268c-.2.4-.5.7-.9 1.1l-.3-.3c.4-.4.7-.7.8-1 .2-.4.3-.8.3-1.3s-.1-.9-.3-1.3c-.2-.3-.5-.7-.8-1l.3-.3c.4.4.7.8.9 1.1.3.4.4.9.4 1.5 0 .5-.1 1-.4 1.5zM264.3 291.3v-3.8h.4v3.5h2.4v.4h-2.8zM270.1 287.2v.3h-.5v.6h.6v.3h-.6v1h-.3v-1h-.6c0 .2-.1.4-.2.6-.1.3-.4.5-.7.7-.1-.1-.1-.2-.2-.3.3-.1.5-.3.6-.6.1-.1.1-.2.1-.4h-.6v-.3h.7v-.6h-.5v-.3h2.2zm-.4 2.8v-.4h.3v.4h1.5v.3H270v.6h2v.3h-4.3v-.3h2v-.6h-1.4v-.3h1.4zm-.4-2.5h-.6v.6h.6v-.6zm1.6-.2v1.8h-.3v-1.8h.3zm.9-.3v2.3c0 .1-.1.2-.2.2-.1.1-.3.1-.5.1 0-.1 0-.2-.1-.4h.4s.1 0 .1-.1V287h.3zM276.6 287.4c-.4.1-.9.2-1.6.2v.7h1.7v.3H275v.8h2v.3h-2v1.2c0 .1-.1.2-.2.3-.1.1-.4.1-.6.1 0-.1 0-.3-.1-.4h.5c.1 0 .1 0 .1-.1v-1.1h-1.9v-.3h1.9v-.8H273v-.3h1.7v-.7c-.5 0-1.1.1-1.5.1 0-.2-.1-.3-.2-.3.7 0 1.3 0 1.9-.1.5-.1 1.1-.1 1.6-.2l.1.3zM278.1 288v-1h.3v1h.4v.3h-.4v.7c.1 0 .3-.1.4-.2v.3c-.1.1-.3.1-.4.2v1.7c0 .1-.1.2-.2.2s-.3.1-.6.1c0-.1 0-.2-.1-.3h.5c.1 0 .1 0 .1-.1v-1.5c-.2.1-.4.2-.6.2l-.1-.3c.2-.1.4-.1.7-.2v-.9h-.6v-.2h.6zm2.1-.8v1.8l.3.1-.1.4h1.1v2h-.3v-.2h-1.6v.2h-.3v-2h.9l.1-.4c-.1 0-.2.1-.5.1 0-.1 0-.3-.1-.3h.2c.1 0 .1 0 .1-.1v-1.3h-1v-.3h1.2zm-.4 1.3c-.3.1-.6.2-.8.3l-.1-.3c.2-.1.5-.2.9-.3v.3zm-.2-.5-.2.2-.4-.4.1-.2c.2.1.4.2.5.4zm1.6 2.2v-.4h-1.6v.4h1.6zm0 .7v-.5h-1.6v.5h1.6zm.5-3.7v1.7c0 .1 0 .2-.1.2s-.2.1-.5.1c0-.1 0-.3-.1-.3H281.3v-1.3h-1v-.3h1.4zm-.6.8-.2.2c-.1-.1-.3-.2-.5-.3l.1-.2c.3.1.4.2.6.3zm.1.5c-.3.1-.5.2-.7.3l-.1-.3c.2-.1.5-.2.8-.3v.3zM270.4 566.9v.9h2.4v.4h-4.6v1.5c0 1.3-.3 2.3-.9 3.2-.1-.2-.2-.3-.4-.4.6-.7.8-1.6.8-2.8v-1.9h2.1v-.9h.6zm-.1 2.6v-1h.4v1h2v.4h-1.8c.2.4.4.7.7 1 .3.4.7.7 1.3 1-.2.1-.3.3-.3.4-.5-.3-.9-.7-1.3-1.1l-.6-.9v2.6h-.4v-2.5c-.2.3-.5.7-.7.9-.4.4-.8.8-1.2 1.1-.1-.1-.2-.3-.3-.4.4-.2.7-.5 1.1-.9.3-.3.6-.7.9-1.2h-1.5v-.4h1.7zM275.3 567.5v4h-1v.7h-.4v-4.6h1.4zm-.4 1.9V568h-.6v1.4h.6zm0 1.7v-1.4h-.6v1.4h.6zm4.2-3.3-.5 1h.7v.4h-2c0 .2-.1.4-.1.5h2.3v.4h-2.3c-.1.2-.1.3-.2.5H278.7l.2.3c-.2.4-.5.8-.8 1.1.4.2.9.4 1.5.5-.1.2-.2.3-.3.4-.6-.1-1.1-.3-1.6-.6-.4.3-.9.5-1.6.6 0-.2-.1-.3-.2-.4.6-.1 1.1-.3 1.4-.5-.3-.2-.5-.5-.7-.7-.3.5-.7.9-1.2 1.3l-.3-.3c.6-.4 1-.8 1.3-1.3.1-.2.2-.4.3-.7h-1.1v-.4h1.2c0-.2.1-.4.1-.5h-1.2v-.4h2.5l.5-1.1.4-.1zm0-.4c-1.2.2-2.3.4-3.3.4 0-.1-.1-.2-.2-.4 1.1-.1 2.2-.2 3.2-.4l.3.4zm-2.4 1.2-.4.1-.3-.6.3-.1c.2.1.3.3.4.6zm.9 3c.3-.2.5-.5.6-.8h-1.4c.3.4.5.7.8.8zm.1-3.1-.4.1c-.1-.2-.1-.4-.2-.7l.3-.1c.1.2.2.5.3.7zM281.1 571.1c-.1.6-.3 1.1-.6 1.6-.1-.2-.2-.3-.3-.4.3-.4.4-.9.5-1.4.1-.5.1-1.1.1-1.8V568h4.6v1.3h-1.8v.7h2.3v.4h-2.6c0 .2-.1.4-.1.6h2.2l-.1 1.1c0 .3-.1.5-.3.6-.2.1-.5.1-.9.1 0-.2 0-.3-.1-.4h.8s.1-.1.1-.2l.1-.7h-1.9c-.1.1-.1.3-.2.4-.3.4-.8.8-1.5 1-.1-.1-.2-.3-.3-.4.7-.2 1.2-.5 1.5-.9.2-.3.3-.7.4-1.1h-1.4v-.5h1.7v-.7h-2c-.1.7-.1 1.3-.2 1.8zm4.8-3.9v.4h-5.7v-.4h5.7zm-4.7 1.7h3.7v-.6h-3.7v.6zM266.5 446.1v-1.2h.4v1.2h.6v.4h-.6v1c.2-.1.4-.1.7-.2v.4c-.2.1-.5.1-.7.2v1.7c0 .1-.1.2-.2.3-.1.1-.4.1-.6.1 0-.1 0-.3-.1-.4h.5c.1 0 .1 0 .1-.1V448c-.3.1-.6.2-.8.2l-.1-.4c.3-.1.6-.1.9-.2v-1.1h-.9v-.4h.8zm4-.8c-.8.3-1.5.4-2.1.5v.9h2.3v.4h-.7v2.9h-.4v-2.9h-1.2v.2c0 .5-.1.9-.2 1.3-.1.5-.3.9-.6 1.3-.1-.1-.2-.2-.3-.2.3-.4.4-.7.6-1.1.1-.4.2-.8.2-1.2v-1.9l.3.1c.7-.1 1.4-.2 2-.5l.1.2zM274.1 445v1.8h1.8v.4h-1.8v2.3h2.3v.4h-5v-.4h2.2V445h.5zM282 445.2v.4h-2.2v1.2h2v.3h-1.9c.1.5.4.9.7 1.3.4.5 1 .8 1.6 1-.1.1-.2.2-.3.4-.7-.3-1.2-.7-1.6-1.2-.3-.3-.5-.6-.6-1-.1.4-.2.7-.4 1-.4.5-1 1-1.9 1.3-.1-.2-.1-.3-.2-.4 1-.4 1.6-.8 1.9-1.4.1-.3.2-.6.3-1h-1.8v-.3h1.8v-1.2h-2.1v-.4h4.7zM284.2 446v-1.1h.4v1.1h1.5v-1.2h.4v1.2h1.1v.4h-1.1v1.3h1.5v.4h-1.5v1.9h-.4v-1.9h-1.5c-.1.3-.1.6-.3.9-.2.4-.6.7-1.1 1l-.3-.3c.5-.2.9-.5 1.1-.9.1-.2.2-.4.2-.7h-1.4v-.4h1.4v-1.3h-1.1v-.4h1.1zm1.9.4h-1.5v1.3h1.5v-1.3z"/><path class="st20" d="M199.5 444H354M312.2 355v70.7H354M222.8 444v171.1M353.6 444v171.1M364.1 480v135.1"/></svg>