<svg version="1.1" id="レイヤー_1" xmlns="http://www.w3.org/2000/svg" x="0" y="0" viewBox="0 0 620 642.1" style="enable-background:new 0 0 620 642.1" xml:space="preserve"><style>.st0{fill:#ecf4d9}.st2{fill:#fff}.st3{fill:none;stroke:#000;stroke-width:.4}.st4{fill:#bfc0c0}.st5{stroke-width:.4;stroke-dasharray:1.3,1.3,0,0,0,0}.st5,.st6,.st7,.st8{fill:none;stroke:#000}.st6{stroke-width:.4;stroke-miterlimit:10}.st7,.st8{stroke-width:.6}.st8{stroke-linecap:square}.st9{fill:#dfeaf8}.st10{fill:#fadce9}.st11{fill:#fffcdb}.st12{fill:#f9f4e4}.st16{fill:none;stroke:#cfb5a7;stroke-width:.4}.st17{stroke:#b5b5b6;stroke-miterlimit:10}.st17,.st18,.st19,.st20{fill:none;stroke-width:.4}.st18{stroke:#aaabab;stroke-linecap:round;stroke-linejoin:round;stroke-miterlimit:10;stroke-dasharray:4.5,2.5}.st19,.st20{stroke:#000;stroke-linejoin:bevel;stroke-dasharray:15,1.3,1.3,1.3}.st20{stroke-width:.3;stroke-dasharray:1.3,1.3,0,0,0,0}.st21,.st22,.st23{fill:none;stroke:#000;stroke-width:.4}.st21{stroke-linejoin:bevel;stroke-dasharray:10,1.3,1.3,1.3}.st22,.st23{stroke-dasharray:1.3,1.3}.st23{stroke-width:.2;stroke-linecap:round;stroke-linejoin:round;stroke-miterlimit:10;stroke-dasharray:1.3,1.3,0,0,0,0}</style><path class="st0" d="M196.4 573v23.5h-3.9v2.3h-.6v29.8h.6v2.3h267.3v-2.3h.6v-29.8h-.6v-2.3h-3.9V573h-18.2v.7h-58.6v-.7h-2.5v11.6h-56.7V573h-4.8v.7H238v-.7zM146 10.3v34.6h75.3v-.7h72.5v.7h53.5v-.7h77.2v.7h32.1V10.3z"/><path d="M348 585.1h-18.6c-.5 0-.9.4-.9.9v15.8c0 1 .8 1.9 1.9 1.9H347c1 0 1.9-.8 1.9-1.9V586c0-.5-.4-.9-.9-.9z" style="fill:#dff2fc"/><path class="st2" d="M281.9 634v-4.4h.4v-3.5h.5v-19.7h1v19.7h.5v3.5h.4v4.4zM408.5 634v-4.4h.4v-3.5h.5v-19.7h1v19.7h.5v3.5h.4v4.4z"/><path class="st3" d="M281.9 629.6h2.8v4.4h-2.8zM282.8 626.1v1h1v-1h.5v3.4h-2v-3.4z"/><path class="st3" d="M282.8 606.4h1.1v20.8h-1.1zM408.5 629.6h2.8v4.4h-2.8zM409.4 626.1v1h1v-1h.5v3.4h-2v-3.4z"/><path class="st3" d="M409.4 606.4h1.1v20.8h-1.1z"/><path d="M336.5 620.7c0 .3 0 .5-.1.7h.5v-1.3h.4v1.3h.6v.3h-.6v1.2c.2-.1.4-.1.6-.2v.4c-.2.1-.4.1-.6.2v2.1h-.4v-2c-.3.1-.7.2-1 .3l-.1-.4c.3-.1.7-.2 1.1-.3v-1.3h-.5c-.1.3-.1.6-.2.8h-.3c.2-.6.3-1.2.4-1.9l.2.1zm2.6-.4c-.1.4-.2.7-.4 1h2.1l-.1 3.1c0 .3-.1.6-.1.7-.1.1-.2.2-.5.3h-.5c0-.2 0-.3-.1-.4h.6c.1 0 .2 0 .2-.1s0-.2.1-.4l.1-2.7h-.4c0 .8-.2 1.5-.5 2.1-.4.6-.8 1.1-1.4 1.5l-.3-.3c.6-.4 1-.8 1.3-1.4.3-.5.5-1.1.5-1.9h-.4c-.1.4-.2.9-.4 1.3-.3.5-.6.8-.9 1.1-.1-.1-.1-.2-.2-.3.3-.2.6-.5.8-.9.2-.3.3-.7.4-1.2h-.3c-.2.4-.4.7-.6 1-.1-.1-.2-.2-.3-.2.3-.4.5-.8.6-1.2.2-.3.3-.7.4-1.1h.3zM346.3 620.6v.4h-2v1.5h2.3v.4h-2.3v2.6h-.4v-2.6h-2.3v-.4h2.3V621H342v-.4h4.3zM350.2 620.4c0 .1-.1.1-.1.1.4.4.8.8 1.2 1.1.4.3.8.6 1.2.7-.1.1-.2.3-.2.4-.4-.2-.7-.4-1-.6v.3H350v.6h2v.4h-2v1.4h2.3v.4h-4.9v-.4h2.2v-1.4h-2v-.4h2v-.6h-1.2v-.3c-.4.3-.7.5-.9.6-.1-.1-.2-.3-.3-.3.5-.3.9-.6 1.3-1s.8-.8 1.2-1.4l.5.4zm-1.2 4-.4.2c-.1-.2-.3-.5-.4-.7l.4-.2c.1.2.3.5.4.7zm2.2-2.3c-.1-.1-.3-.2-.4-.3-.4-.3-.7-.7-1-1-.3.4-.7.7-1 1.1-.1.1-.2.2-.3.2h2.7zm.4 1.7-.5.9-.3-.2.4-.9.4.2zM353.7 620.7c0 .3 0 .5-.1.7h.5v-1.3h.4v1.3h.6v.3h-.6v1.2c.2-.1.4-.1.6-.2v.4c-.2.1-.4.1-.6.2v2.1h-.4v-2c-.3.1-.7.2-1 .3l-.1-.4c.3-.1.7-.2 1.1-.3v-1.3h-.5c-.1.3-.1.6-.2.8h-.3c.2-.6.3-1.2.4-1.9l.2.1zm2.6-.4c-.1.4-.2.7-.4 1h2.1l-.1 3.1c0 .3-.1.6-.1.7-.1.1-.2.2-.5.3h-.5c0-.2 0-.3-.1-.4h.6c.1 0 .2 0 .2-.1s0-.2.1-.4l.1-2.7h-.4c0 .8-.2 1.5-.5 2.1-.4.6-.8 1.1-1.4 1.5l-.3-.3c.6-.4 1-.8 1.3-1.4.3-.5.5-1.1.5-1.9h-.4c-.1.4-.2.9-.4 1.3-.3.5-.6.8-.9 1.1-.1-.1-.1-.2-.2-.3.3-.2.6-.5.8-.9.2-.3.3-.7.4-1.2h-.3c-.2.4-.4.7-.6 1-.1-.1-.2-.2-.3-.2.3-.4.5-.8.6-1.2.2-.3.3-.7.4-1.1h.3z"/><path class="st4" d="M176.5 630.9v9.7h9v-1.1h11.6v1.1h9.1v-9.7zM446.1 630.9v9.7h9.1v-1.1h11.6v1.1h9v-9.7zM135.8 1.4H146v43.8h-10.2zM456.6 1.4h8.8v43.5h-8.8z"/><path class="st3" d="M460.4 598.8h1.2v29.8h-1.2zM459.8 596.5h2.3v2.3h-2.3zM459.8 628.6h2.3v2.3h-2.3z"/><path class="st3" d="M191.9 626.2H447v-3.6h9.3v3.6h4.1"/><circle class="st3" cx="451.5" cy="626.2" r="1.6"/><circle class="st3" cx="181.9" cy="626.2" r="1.6"/><path class="st3" d="M206.2 639.7h239.9M206.2 630.9h239.9M206.2 634.1h239.9M206.2 636.5h239.9M169.9 639.7h6.6M169.9 630.9h6.6M169.9 634.1h6.6M169.9 636.5h6.6M475.8 639.7h8.4M484.2 630.9h-8.4M475.8 634.1h8.4M475.8 636.5h8.4M461.5 626.2h22.7M190.7 598.8h1.2v29.8h-1.2zM190.2 596.5h2.3v2.3h-2.3zM190.2 628.6h2.3v2.3h-2.3z"/><path class="st3" d="M169.9 626.2h7.4v-3.6h9.3v3.6h4.1M146 1.9h310.6M146 4.7h310.6M146 7h310.6M146 10.3h310.6M456.6 14.9H155.3v3.6H146"/><circle class="st3" cx="150.6" cy="14.9" r="1.6"/><path class="st5" d="m350.2 594.4 23.2-9.3M350.2 585.1h23.2v9.3h-23.2z"/><path class="st6" d="M348 585.8h-18.6c-.1 0-.2.1-.2.2v15.8c0 .6.5 1.2 1.2 1.2H347c.6 0 1.2-.5 1.2-1.2V586c0-.1-.1-.2-.2-.2z"/><path class="st6" d="M348 585.1h-18.6c-.5 0-.9.4-.9.9v15.8c0 1 .8 1.9 1.9 1.9H347c1 0 1.9-.8 1.9-1.9V586c0-.5-.4-.9-.9-.9z"/><circle class="st6" cx="338.7" cy="588" r="1.2"/><path class="st7" d="M176.5 630.9v9.7h9v-1.1h11.6v1.1h9.1v-9.7zM446.1 630.9v9.7h9.1v-1.1h11.6v1.1h9v-9.7z"/><path class="st8" d="M135.8 1.4H146M456.6 1.4h8.8"/><path d="M351.8 590.5c-.2.7-.4 1.3-.6 1.8l-.2-.3c.2-.5.4-1.1.6-1.8l.2.3zm-.2-1.4-.1.3c-.1-.1-.3-.3-.5-.4l.1-.3c.2.1.4.3.5.4zm.3-1.3-.2.3-.5-.5.2-.3.5.5zm2.4 4h.3v.4h-3v-.4h.4v-1.7h2.2v1.7zm-2-2.2v-2.2h1.8v2.2h-1.8zm.4 2.2v-1.3h-.4v1.3h.4zm-.1-3.5h1.3v-.5h-1.3v.5zm0 .3v.6h1.3v-.6h-1.3zm.8 3.2v-1.3h-.4v1.3h.4zm.7 0v-1.3h-.4v1.3h.4zM356.3 588.9c-.1.8-.2 1.3-.4 1.7-.2.5-.4.9-.7 1.3-.1-.1-.1-.3-.2-.3.3-.3.5-.7.7-1.1.1-.4.3-.9.3-1.4h-.9v-.4h1l.2.2zm.7-1.7v.9c.1.5.2.9.3 1.3.3-.3.6-.6.9-1l.2.3c-.3.4-.6.8-.9 1.1.1.1.1.3.2.4.3.6.6 1 1 1.3-.1.1-.1.2-.2.4-.4-.3-.8-.8-1-1.4-.2-.4-.3-.8-.4-1.2v2.7c0 .1-.1.2-.1.3-.1.1-.3.1-.5.1 0-.1 0-.3-.1-.4h.3s.1 0 .1-.1v-4.6h.2zM359.3 591.5l-.3-.3c.3-.5.5-1 .8-1.7l.3.2c-.3.7-.5 1.3-.8 1.8zm1.5-2.6v3.2h-.3v-3.2H359v-.4h1.5v-1.2h.3v1.2h1.6v.4h-1.6zm1.3 2.5c-.3-.5-.6-1-.9-1.7l.3-.3c.3.7.6 1.2.9 1.7l-.3.3zm-.2-3.1c-.1-.2-.2-.4-.4-.6l.1-.2c.2.2.3.4.5.5l-.2.3zm.2-.4c-.1-.2-.2-.4-.4-.6l.1-.2c.2.2.3.4.5.5l-.2.3zM364.7 589v3.2h-.3v-2.8c-.5.6-1 1-1.5 1.3 0-.2-.1-.3-.2-.4.5-.3 1-.7 1.4-1.2.4-.5.8-1.1 1.2-1.7l.3.3c-.3.5-.6.9-.9 1.3zM368.2 591.1c-.3.4-.9.8-1.5 1.1 0-.1-.1-.3-.1-.4.6-.2 1-.4 1.3-.8.3-.4.6-.9.9-1.7h-2.6v-.4h2.8l.2.3c-.4.8-.7 1.5-1 1.9zm-1.7-3.1v-.4h2.1v.4h-2.1zM369.5 589.9v-.4h3.1v.4h-3.1zM333.2 597.3c-.1.2-.3.3-.4.4h1.4l.2.3c-.6.6-1.1 1-1.5 1.3-.5.3-1.2.7-2.1 1 0-.1-.1-.2-.2-.4.6-.2 1.1-.4 1.8-.8l-.6-.6.3-.2c.3.2.4.4.6.6.5-.3.9-.6 1.2-1h-1.5c-.1.1-.2.2-.3.2-.4.3-.8.5-1.3.7-.1-.1-.1-.2-.2-.3.4-.1.8-.3 1.2-.6.4-.2.8-.6 1.1-.9l.3.3zm.9 2c-.2.2-.5.4-.7.6h1.5l.2.3c-.4.6-1 1.1-1.6 1.4-.7.4-1.6.7-2.7.9-.1-.1-.1-.3-.2-.4.8-.1 1.6-.2 2.3-.6-.2-.2-.4-.4-.6-.7l.3-.2.7.7c.5-.3.9-.6 1.3-1.1H333l-.1.1c-.4.3-1 .5-1.7.8l-.3-.3c.6-.2 1.2-.4 1.7-.7.4-.2.8-.6 1.2-1l.3.2zM340.2 602.2h-.4v-.3h-2.5v.4h-.4v-4.6h3.2v4.5zm-.4-3.3v-.9h-2.5v.9h2.5zm0 1.3v-.9h-2.5v.9h2.5zm0 1.3v-.9h-2.5v.9h2.5zM343.2 597.3l-.2.8h.7v3.8h-.4v-.3h-1v.4h-.3v-3.9h.7l.1-.9.4.1zm.2 2.4v-1.2h-1v1.2h1zm0 1.6V600h-1v1.3h1zm1.8-4c-.1.3-.2.6-.2.9h1.7v1.7c0 1.1 0 1.7-.1 2 0 .2-.1.3-.2.3-.2.1-.4.1-.8.1 0-.1-.1-.3-.2-.4h.6c.1 0 .2-.1.2-.2 0-.2.1-.8.1-1.8v-1.4h-1.4v.1c-.1.4-.3.7-.5 1.1-.1-.1-.2-.2-.3-.2.2-.4.4-.8.5-1.2.1-.4.2-.7.3-1.1l.3.1zm.5 2.9-.3.3c-.2-.2-.4-.5-.7-.8l.2-.3c.3.3.5.6.8.8zM326.1 608.8c-.5-.6-1-1.3-1.7-1.9-.6.7-1.4 1.3-2.3 1.9-.1-.2-.2-.3-.3-.4.8-.4 1.5-.8 2-1.3.4-.4.9-1.1 1.5-2h-2.9v-.4h3.2l.3.3c-.4.6-.7 1.2-1 1.6.7.6 1.3 1.2 1.8 1.9l-.6.3zM330.5 608.6v-.4h-2.9v.4h-.4v-3.8h3.8v3.8h-.5zm0-3.3h-2.9v2.6h2.9v-2.6zM332.3 607.1c-.1-.3-.3-.6-.6-1l.3-.2c.2.3.4.7.6 1l-.3.2zm2.5.2c-.3.5-.6.9-1 1.2-.3.3-.8.5-1.4.7-.1-.1-.1-.3-.2-.4.5-.1.9-.3 1.2-.6.3-.2.6-.6.9-1 .2-.3.4-.8.5-1.4l.4.1c0 .6-.2 1-.4 1.4zm-1.4-.5c-.1-.3-.3-.7-.5-1l.3-.1c.2.4.4.7.5 1l-.3.1zM338.9 607.6c-.5.6-1.2 1-2.2 1.4 0-.1-.1-.3-.2-.4.8-.3 1.5-.6 2-1.2.5-.5.8-1.2 1.2-2.1H336v-.4h3.8l.3.3c-.4 1.1-.8 1.9-1.2 2.4zm1.8-2.8c-.1.1-.2.2-.4.2s-.3-.1-.4-.2c-.1-.1-.2-.2-.2-.4s.1-.3.2-.4c.1-.1.2-.2.4-.2.1 0 .3.1.4.2.1.1.2.2.2.4 0 .1-.1.3-.2.4zm-.1-.6c-.1-.1-.1-.1-.2-.1-.2 0-.3.1-.3.3 0 .1 0 .2.1.2.1.1.1.1.2.1s.2 0 .2-.1c.1-.1.1-.1.1-.2-.1-.1-.1-.2-.1-.2zM342.3 606.8c-.3-.2-.7-.4-1-.5l.2-.4c.4.1.8.3 1.1.5l-.3.4zm1.6 1c-.6.4-1.3.8-2.2 1.1l-.2-.5c1.6-.5 2.9-1.4 3.9-2.7l.3.3c-.6.8-1.2 1.3-1.8 1.8zm-1-2.4c-.4-.2-.7-.4-1-.6l.2-.4c.4.2.8.4 1.1.6l-.3.4zM348.9 607.6c-.6.4-1.3.9-2.2 1.3l-.3-.5c1.5-.5 2.9-1.5 4-2.9l.3.3c-.7.8-1.3 1.4-1.8 1.8zm-1.2-1.7c-.4-.4-.8-.7-1.2-1l.3-.4c.5.3.9.6 1.3.9l-.4.5zM354.1 607.7c-.6.6-1.3 1-2.2 1.3-.1-.1-.1-.3-.2-.4.8-.2 1.5-.6 2-1 .4-.4.8-1.1 1.2-1.9H353c-.4.6-.8 1.2-1.3 1.6-.1-.1-.2-.2-.4-.3l1.1-1.1c.2-.3.5-.8.8-1.4l.5.2c-.1.2-.2.4-.4.7H355.2l.3.3c-.5.7-.9 1.4-1.4 2zM233.8 595.3c-.7 1.5-1.5 2.8-2.5 4-.3-.3-.6-.6-.9-.8 1.7-2 3-4.6 3.9-8.1l1.1.4c-.6 1.8-1.1 3.3-1.6 4.5zm7.9 3.6c-.9-2.8-2.2-5.5-3.9-8.2l.9-.6c1.8 2.7 3.2 5.5 4.2 8.3l-1.2.5zm-.4-7.1c-.3-.5-.8-1-1.4-1.6l.6-.5c.6.5 1.1 1 1.5 1.5l-.7.6zm1.1-1c-.3-.5-.8-1-1.4-1.6l.6-.5c.6.5 1.1 1 1.5 1.5l-.7.6zM247.5 595.6c-.5 1.8-1.5 3.3-3 4.6-.2-.3-.5-.6-.7-.9 1.1-.8 2-1.8 2.4-3 .4-1 .6-2.2.7-3.8v-2.6h1.1c0 2.7-.2 4.5-.5 5.7zm3.7 4.3-.8-.8.1-.2V589h1.1v9.3c1.5-1.1 3-2.6 4.4-4.4.2.3.5.5.8.7-1.9 2.3-3.8 4.1-5.6 5.3zM266 600v-.8h-7.9v-1h7.9v-6h-7.9v-1.1h9.1v8.9H266zM269.1 598.7v-1.1h12.1v1.1h-12.1zm1.8-7v-1.1h8.6v1.1h-8.6zM282.5 595v-1h11.1v1h-11.1zM273.2 30.5c-.7 1.5-1.5 2.8-2.5 4-.3-.3-.6-.6-.9-.8 1.7-2 3-4.6 3.9-8.1l1.1.4c-.6 1.9-1.1 3.4-1.6 4.5zm7.9 3.6c-.9-2.8-2.2-5.5-3.9-8.2l.9-.6c1.8 2.7 3.2 5.5 4.2 8.3l-1.2.5zm-.4-7c-.3-.5-.8-1-1.4-1.6l.6-.5c.6.5 1.1 1 1.5 1.5l-.7.6zm1.1-1c-.3-.5-.8-1-1.4-1.6l.6-.5c.6.5 1.1 1 1.5 1.5l-.7.6zM286.9 30.9c-.5 1.8-1.5 3.3-3 4.6-.2-.3-.5-.6-.7-.9 1.1-.8 2-1.8 2.4-3 .4-1 .6-2.2.7-3.8v-2.6h1.1c0 2.7-.2 4.5-.5 5.7zm3.7 4.3-.8-.8.1-.2v-9.9h1.1v9.3c1.5-1.1 3-2.6 4.4-4.4.2.3.5.5.8.7-1.9 2.3-3.8 4-5.6 5.3zM305.4 35.3v-.8h-7.9v-1h7.9v-6h-7.9v-1.1h9.1v8.9h-1.2zM308.5 33.9v-1.1h12.1v1.1h-12.1zm1.8-6.9v-1h8.6v1h-8.6zM321.9 30.3v-1H333v1h-11.1z"/><path class="st9" d="M359.8 307.4h83.9v65.2h-83.9zM199.1 365.5v-30.3H312v40h-78v-6h7.4v-3.7zM257.1 260.3v2.2h51.8v-.8h-.4v-1.2h1.2v-.7h1v-32.5h-1v-.7h-1.2v-1.2h-51.8v34.9z"/><path class="st10" d="M445.7 225.5h7.1v42h-7.1zM244.6 225.4h12.1v34.9h-12.1zM200.2 244.9h41.2v15.3h-41.2zM444.3 188.3v-1.8h-42.8v1.8H393V213h59.8v-24.7zM150 59.3h47.1V64h1.9v30.2h-49zM362.3 189.2h26.5v33h-24.6v-2.7h-1.9zM453.2 388.9h-89.6v24.6h2.1v1.9h85.5v-1.9h2zM234.1 277h74.8v21h-74.8zM257.1 262.6h51.8v10.2h-51.8z"/><path class="st11" d="M200.9 181.2v2h-11.4v38.4h13.2v.6h47.7v-41zM232.9 225.4v-1.8h-30.2v1.8h-2.5v19.5h41.1v-19.5z"/><path class="st12" d="M444.6 307.3h11.2v65.3h-11.2zM217.2 369.2h14v8.6h-14zM237.4 263.5h16.5v9.3h-16.5zM332.4 561.8H364V572h-31.6z"/><path class="st10" d="M199.5 369.2h14.4v11.4h-14.4z"/><path style="fill:#feeab4" d="M146 108.4v46.7h.9v-.7h1.9v2.7h34.9v-2.7h1.8v.7h.7v-46.7z"/><path style="fill:#d2cce6" d="M135.8 165.3h11.1v-6.2h38.6v6.2h.7v.8h-.4v56.5h.4v7.8h-50.4z"/><path class="st9" d="M452.7 272.4v-4.9h-7v-42h-86.5v1.2h-.2v34.8h-1.7v38.7h2v1.2h-.5v1.2h1v-.4h37.3v.4h39.4v-30.2z"/><path class="st10" d="M436.5 272.4h16.2v30.2h-16.2z"/><path style="fill:#feebbe" d="M228.3 404.1h96.5v112.7h-96.5z"/><path class="st4" d="M347.1 59.3v-8.4h-.8V47h1v-2.1h-53.5V47h1v3.9h-.8v8.4h20.8V178h-2.4v3.2h7.6v-4.1h-1.1V59.3zM271.5 178h-71.1V94.2H150V59.3h47.1V64h3.3v-4.7h20.7v-8.4h-.7V47h.9v-2.1h-85.5v120.4h11.1v-10.2h-.9v-46.7h40.2v46.7h-.7v10.2h.7v.8h1.9v16.1h1.4v1h11.4v-2h70.6zM315.3 558.6v8.4h.7v4h-.9v2.1h4.8v11.6h56.7V573h2.5v-2.1h-.9v-4h.7v-8.4h-63.6zm48.8 13.5h-31.6v-10.2h31.6v10.2zM312.2 225.4v-3.3H233v3.3h8.4v34.9h-41.2v-34.9h2.6v-3.8h-13.2v1h-3.3v7.8h-50.4v15h47.8l-.5 313.2H170V573h16.3v23.5h10.2V573H238v-2.1h-1v-4h.7v-8.4h-38.2V369.2h14.4V381H234v-11.9h7.3v-3.7H199V263.5h34.6V277h75.3v21.5h3.3v-36.8h-3.3v11.2h-51.8v-12.6h-12.6v-34.9h67.7zm-95 143.8h14v8.6h-14v-8.6zm36.7-105.7v9.3h-16.5v-9.3h16.5zM469.1 59.3h15.1V44.9h-59.7V47h.9v4h-.7v8.4h28.1v125.8h-8.5v3.5h8.5V213H393v-24.6h8.5v-3.3h-36.4v-8h-4.2v12.2h27.9v33h-24.6v-2.8h-3.3v2.8H354v3.3h98.8v77.1h-55.7v4.7h46.6v65.3h-83.9v-65.2h.1v-4.8h-1.1v-1.3H357v-1.2h.3v-38.7H354v11.3h-.9v4.2h.9v110.5h6.3v34.8h3.3v-5.5h2.1v-3.3h-2.1v-24.6h89.7v24.6h-2.1v3.3h1.6v141.8h-14.9v8.4h.7v3.9h-.9v2.1h18.1v23.5H466V573h18.1v-14.4H469V59.3zm-13.2 313.3h-11.2v-65.3h11.2v65.3z"/><path class="st16" d="M150 64h47.1M150 68.6h49M150 73.3h49M150 77.9h49M150 82.6h49M150 87.2h49M150 91.8h49M200.5 64h114.3M200.5 68.6h114.3M200.5 73.3h114.3M200.5 77.9h114.3M200.5 82.6h114.3M200.5 87.2h114.3M200.5 91.8h114.3M318.9 64h133.9M318.9 68.6h133.9M318.9 73.3h133.9M318.9 77.9h133.9M318.9 82.6h133.9M318.9 87.2h133.9M318.9 91.8h133.9M200.4 96.5h114.4M200.4 101.1h114.4M200.4 105.8h114.4M200.4 110.4h114.4M200.4 115.1h114.4M200.4 119.7h114.4M200.4 124.4h114.4M200.4 129h114.4M200.4 133.7h114.4M200.4 138.3h114.4M200.4 143h114.4M200.4 147.6h114.4M200.4 152.3h114.4M200.4 156.9h114.4M200.4 161.6h114.4M200.4 166.2h114.4M200.4 170.9h114.4M200.4 175.5h114.4M318.9 96.5h133.9M318.9 101.1h133.9M318.9 105.8h133.9M318.9 110.4h133.9M318.9 115.1h133.9M318.9 119.7h133.9M318.9 124.4h133.9M318.9 129h133.9M318.9 133.7h133.9M318.9 138.3h133.9M318.9 143h133.9M318.9 147.6h133.9M318.9 152.3h133.9M318.9 156.9h133.9M318.9 161.6h133.9M318.9 166.2h133.9M318.9 170.9h133.9M318.9 175.5h133.9M272.6 180.2h38.7M321.2 180.2h38.6M365.1 180.2h87.7M250.4 184.8h110.5M365.1 184.8h87.7M250.4 189.5h110.5M250.4 194.1h110.5M250.4 198.8h110.5M250.4 203.4h110.5M250.4 208.1h110.5M393 189.5h59.7M393 194.1h59.7M393 198.8h59.7M393 203.4h59.7M393 208.1h59.7M250.4 212.7h110.5M393 212.7h59.8M250.4 217.4h110.5M250.4 222h110.5M312.7 226.7h45M312.7 231.3h45M312.7 236h45M312.7 240.6h45M312.7 245.3h45M312.7 249.9h45M312.7 254.6h45M312.7 259.2h45M312.2 263.9H354M312.2 268.5H354M313.3 273.2h40.3M312.2 277.8H354M312.2 282.5H354M312.2 287.1H354M312.2 291.7H354M312.2 296.4H354M199.1 282.5h35M199.1 277.8h35M199.1 273.2h35M199.1 268.5h35M199.1 263.9h35M199.1 287.1h35M199.1 291.7h35M199.1 296.4h35M199.1 301H354M199.1 305.7H354M199.1 310.3H354M199.1 315H354M199.1 319.6H354M199.1 324.3H354M199.1 328.9H354M199.1 333.6H354M312 338.2h42M312 342.9h42M312 347.5h42M312 352.2h42M312 356.8h42M312 361.5h42M312 366.1h42M312 370.8h42M234 375.4h120M234.1 380.1H354M199.7 384.7H354M199.7 389.4h160.7M199.7 394h160.7M199.7 398.7h160.7M199.7 403.3h160.7M199.7 408h160.7M199.7 412.6h160.7M199.7 417.3h160.7M199.7 421.9h160.7M199.7 426.6h158.9M199.7 431.2h158.9M199.7 435.9h158.9M199.7 440.5h158.9M199.7 445.2h158.9M199.7 449.8h158.9M199.7 454.5h158.9M199.7 459.1h157.4M199.7 463.8h157.4M199.7 468.4h157.4M199.7 473.1h157.4M199.7 477.7h157.4M199.7 482.3h157.4M199.7 487h157.4M199.7 491.6h155.9M199.7 496.3h155.9M199.7 500.9h155.9M199.7 505.6h155.9M199.7 510.2h155.9M199.7 514.9h155.9M199.7 519.5h155.9M199.7 524.2H354M199.7 528.8H354M199.7 533.5H354M199.7 538.1H354M199.7 542.8H354M199.7 547.4H354M199.7 552.1H354M199.7 556.7H354M363.6 389.4h89.6M363.6 394h89.6M363.6 398.7h89.6M363.6 403.3h89.6M363.6 408h89.6M363.6 412.6h89.6M363.6 417.3h89.2M363.6 421.9h89.2M360.2 426.6h92.6M360.2 431.2h92.6M360.2 435.9h92.6M360.2 440.5h92.6M360.2 445.2h92.6M360.2 449.8h92.6M360.2 454.5h92.6M358.6 459.1h94.2M358.6 463.8h94.2M358.6 468.4h94.2M358.6 473.1h94.2M358.6 477.7h94.2M358.6 482.3h94.2M358.6 487h94.2M357.1 491.6h95.7M357.1 496.3h95.7M357.1 500.9h95.7M357.1 505.6h95.7M357.1 510.2h95.7M357.1 514.9h95.7M357.1 519.5h95.7M357.1 524.2h95.7M355.5 528.8h97.3M355.5 533.5h97.3M355.5 538.1h97.3M355.5 542.8h97.3M355.5 547.4h97.3M355.5 552.1h97.3M355.5 556.7h97.3"/><path class="st17" d="M226.7 181.2v41M208.1 181.2v41M226.7 223.6v21.3M208.1 223.6v21.3M189.5 193.1h55.8M189.5 211.7h55.8M200.2 230.3h45.1"/><path class="st18" d="M200.4 185h155.9v26.4H200.4z"/><path class="st19" d="M213.6 61.8h87.9M213.6 64.2h87.9M339.2 61.8h92.6M339.2 64.2h92.6M371.7 556.1h71.2M371.7 553.7h71.2M230.6 556.1h92.6M230.6 553.7h92.6"/><path class="st5" d="M229.7 558.6v-7.4h94.4v7.4M370.8 558.6v-7.4h73v7.4"/><path class="st20" d="M363.6 401.5h89.6M363.6 402.9h89.6M200.2 232.9h41.1M200.2 234.3h41.1M393 199h59.8M393 200.4h59.8M164.8 59.3v34.9M166.2 59.3v34.9"/><path class="st21" d="m453.2 388.9-89.6 20.9h89.6M388.8 222.2l-18.6-33v33M452.8 213 393 192h59.8M150 59.3l20.9 34.9V59.3M146 108.4l40.2 20.9H146M241.3 260.3l-41.1-15.4h41.1M244.6 225.4l12.1 34.9v-34.9M199.5 369.2l14.4 11.4M436.5 272.4l16.3 30.2M452.8 272.4h-16.3v30.2"/><path class="st6" d="M308.9 298.1h-74.8V277M199.5 380.6h14.4M250.4 181.2v41M245.3 181.2v41"/><path class="st5" d="M241.4 365.5v-28.4h-42.3M199.7 265.8h32.5v32.5h-32.5zM422.7 272.4h29.8v29.8h-29.8zM446.4 225.5v42"/><path class="st6" d="M424.8 225.5v7.1s-.7 7-.7 14.4.7 13.6.7 13.6v6.9h27.9M445.8 261v6.5M445.7 232.2v-6.7"/><path class="st6" d="m446.4 261-1.6-4.3c-.4-1.1-2-1.2-2-1.2-2-.2-3.9 0-6.4.3-2.5.2-4.4 1.2-6.3 3.3-2 2.1-4.6 1.9-4.6 1.9h24.2c.8 0 .9-.8.9-.8l.1-1s.6-5.3.6-12.6-.7-13.6-.7-13.6c-.1-.8-.9-.8-.9-.8h-24.2s2.7-.3 4.6 1.9c2 2.2 4 3.2 7.7 3.5 3.7.3 5.5.1 5.5.1s1.2-.2 1.6-1.2c.3-1 1.5-4.3 1.5-4.3"/><path class="st6" d="M446.8 232.2s-.8 8.2-.8 14.4.8 14.4.8 14.4"/><circle class="st6" cx="441.1" cy="246.6" r="1.2"/><path class="st6" d="M288.2 271.9h14.4c.1 0 .2-.1.2-.2v-6.5c0-.1-.1-.2-.2-.2h-14.4c-.1 0-.2.1-.2.2v6.5c0 .1.1.2.2.2z"/><path class="st6" d="M298.2 264.9c.1 0 .2.1.2.2v6.5c0 .1-.1.2-.2.2"/><circle class="st6" cx="293.1" cy="269.6" r="1"/><path class="st6" d="M303.4 272.6h-15.8c-.1 0-.2-.1-.2-.2v-7.9c0-.1.1-.2.2-.2h15.8c.1 0 .2.1.2.2v7.9c0 .1-.1.2-.2.2zM306.7 262.6h.9v7.4h-.9zM307.6 265.8h1.3v1.1h-1.3zM433.5 226.9h7.4v.9h-7.4zM436.7 225.5h1.1v1.4h-1.1zM282.3 244.7c0-9-13.5-9.1-13.5-9.1s-6.4-.2-9-.2c-2.6 0-2.2 1.5-2.2 1.5s-.2 5.2-.2 7.7.2 8 .2 8-.3 1.5 2.2 1.5c2.6 0 9-.2 9-.2s13.5-.2 13.5-9.1M246.6 251.9c0 2.2 1.7 1.9 1.7 1.9h5.8c2.2 0 2.3-1.9 2.3-1.9s.5-1.9.5-7.6c0-5.7-.5-7-.5-7s-.1-1.9-2.3-1.9h-5.8s-1.7-.2-1.7 1.9v14.6zM257.7 253H256M257.6 236.7h-1M265.1 235.3v18.5"/><path class="st6" d="m261.3 235.1-.4 2.8h1.9v12.8h-1.9l.5 3M285.9 225.5v4c0 .3.3.6.7.7h.2c.3 0 .6-.3.7-.7v-4M261 225.5v3.1h24.8"/><path class="st6" d="M286.7 230.1h-26.5s-.8 0-.8-.9v-3.7M204.1 359.4c0 .6.5 1 1 1H231c.6 0 1-.5 1-1v-21.3c0-.6-.5-1-1-1h-25.9c-.6 0-1 .5-1 1v21.3z"/><path class="st6" d="M205.3 338.7h25.6v18.2h-25.6zM292 350.5c0 2-1.6 3.7-3.7 3.7-2 0-3.7-1.6-3.7-3.7s1.6-3.7 3.7-3.7c2 .1 3.7 1.7 3.7 3.7z"/><path class="st6" d="M199.1 335.2H312v40h-78"/><path class="st6" d="M269.6 360.5c0 1.3 1 2.3 2.3 2.3h32.6c1.3 0 2.3-1 2.3-2.3v-19.6c0-1.3-1-2.3-2.3-2.3H272c-1.3 0-2.3 1-2.3 2.3v19.6z"/><circle class="st6" cx="211.5" cy="344.9" r="4.6"/><circle class="st6" cx="224.8" cy="344.9" r="4.6"/><circle class="st6" cx="218.1" cy="353" r="3.3"/><path class="st6" d="M221.1 357c-.8.6-1.8.9-2.9.9-1.1 0-2.1-.3-2.9-.9h-9.8v2.3h25.6V357h-10zM290 339.2c2.8 0 9.9 0 11.5.2 1.6.2 4.5 1.8 4.5 4.9 0 3.1.2 9.8-.1 10.6-.3.8-1 3.8-5.3 3.8s-3.6-.1-3.6-.1-2 .6-3.2 1.4c-1.2.8-2.7 1.8-5.5 1.8h-.2c-2.8 0-4.3-1-5.5-1.8-1.2-.8-3.2-1.4-3.2-1.4s.7.1-3.6.1-5-3-5.3-3.8c-.3-.8-.1-7.4-.1-10.6 0-3.1 2.9-4.7 4.5-4.9 1.6-.2 8.7-.2 11.5-.2h3.6zM257.1 262.5h51.8M360.1 363.2c2.9-.1 8.9 2.1 9.1 9.1"/><path class="st6" d="M364.6 364.4v-4.7h37.1v12.9M401.7 365.7h-35.4M401.7 366.8h-34.3M401.7 371.5h-32.5M408.1 372.6v-65.3M362 321.9v17.6M362.5 321.9v17.6M362.8 321.9h-2.9v-.9h2.7s.2 0 .2.2v.7zM362.8 339.5h-2.9v.9h2.7s.2 0 .2-.2v-.7z"/><circle class="st6" cx="416.6" cy="340" r="1.6"/><path class="st6" d="M441.3 354.4v1.8c0 3-2 7.2-4.3 9.4s-6.1 5-10.9 5-9-1.5-12.7-5.6-3.7-9.2-3.7-9.2v-32.2c0-3.2 2.5-7.9 4.6-9.9 2.1-2 6.3-4.5 10.4-4.5 4.1 0 7.5.6 11.9 4.5s4.7 9.9 4.7 9.9v1.8"/><path class="st6" d="M443.6 324.6s-1.8.4-3.2 1.3c0 0-.1.1-.1.2v2h.9s.2 0 .4-.1c.1-.1 1.3-.6 2.1-.8M443.6 355.3s-1.8-.4-3.2-1.3c0 0-.1-.1-.1-.2v-2h.9s.2 0 .4.1c.1.1 1.3.6 2.1.8M440.3 328.1v23.7M441.7 352v-24.1M440.2 326.1l-.1-2.9s0-4-3.1-6.9c0 0-1.1-1.3-3.8-1.6s-5.6-.5-7.2-.5-5.4.2-7.6.7c-2.2.5-2.9 1.1-3.9 2.3s-2 3.8-2 6.4v32.6s-.2 3.3 2 6.4c0 0 1.1 1.9 3.9 2.3 2.8.4 5.8.7 7.8.7s6.5-.2 7.8-.6c1.3-.4 2.1-.6 3-1.5.9-.9 2.9-2.9 3.1-7.3l.1-2.5"/><path class="st6" d="M412.5 342.3s.1 1.5.6 2.5 1.3 1.9 1.3 3.7c0 1.9.3 12.3.3 12.3s-.1 3.2 3.7 4.2M431.8 365.4s5.1.1 5.7-4.7c.6-4.8.9-12.5.9-12.5s-.1-.8.6-2.2c.6-1.4 1.2-2.7 1.3-4.8M412.5 337.6s.1-1.5.6-2.5 1.3-1.9 1.3-3.7c0-1.9.3-12.3.3-12.3s-.1-3.2 3.7-4.2M431.8 314.5s5.1-.1 5.7 4.7c.6 4.8.9 12.5.9 12.5s-.1.8.6 2.2 1.2 2.7 1.3 4.8"/><path class="st6" d="m415.3 331.8.4-12.2s.1-3.3 3.5-3.9c3.5-.6 6.6-.6 6.6-.6s5.8.1 7.5.5 3.3 1.6 3.5 3.7.9 12.4.9 12.4-.1.9.6 2.2c.6 1.4 1.1 2.1 1.1 3.5v4.9s0 1.1-.4 2.2c-.5 1-1.1 2-1.2 3.6l-.9 12.4s-.1 2-2.1 3.2c-1.9 1.1-8.7 1-8.7 1s-5.3-.1-6.9-.6-3.3-1.3-3.5-3.9l-.4-12.2s0-.9-.4-2.1c-.5-1.2-.9-2.1-.9-3.4v-5.4s0-.8.3-1.7c.3-.9.6-1.7.6-1.7s.3-.5.4-1.9z"/><path class="st22" d="M358.3 261.5v38.7M356.3 388.6v100.7M354.8 388.6v134M357.9 388.6v67.2M359.4 388.6v33.7"/><path class="st3" d="M222 47h-1.6v3.9h.7v8.9h.9zM293.2 47h1.6v3.9h-.8v8.9h-.8zM221.3 47v-2.8h72.5V47M257.6 61.4v-7.1M293.2 59.8H222"/><path transform="rotate(-180 274.692 57.718)" class="st3" d="M256.2 57.1h37v1.2h-37z"/><path transform="rotate(-180 240.458 56.556)" class="st3" d="M222 56h37v1.2h-37z"/><path transform="rotate(-180 257.609 51.876)" class="st3" d="M256.2 50.6h2.9v2.6h-2.9z"/><path transform="rotate(-180 274.692 50.01)" class="st3" d="M256.2 49.4h37v1.2h-37z"/><path transform="rotate(-180 240.458 48.847)" class="st3" d="M222 48.3h37v1.2h-37z"/><path class="st3" d="M257.6 45.1v5.6M347.9 47h-1.6v3.9h.8v8.9h.8zM423.8 47h1.6v3.9h-.7v8.9h-.9zM347.3 47v-2.8h77.2V47M385.9 61.4v-7.1M423.8 59.8h-75.9"/><path transform="rotate(-180 404.138 57.718)" class="st3" d="M384.5 57.1h39.4v1.2h-39.4z"/><path transform="rotate(-180 367.58 56.556)" class="st3" d="M347.9 56h39.3v1.2h-39.3z"/><path transform="rotate(-180 385.893 51.876)" class="st3" d="M384.5 50.6h2.9v2.6h-2.9z"/><path transform="rotate(-180 404.138 50.01)" class="st3" d="M384.5 49.4h39.4v1.2h-39.4z"/><path transform="rotate(-180 367.58 48.847)" class="st3" d="M347.9 48.3h39.3v1.2h-39.3z"/><path class="st3" d="M385.9 45.1v5.6M437.1 570.9h1.5V567h-.7v-8.9h-.8zM379.8 570.9h-1.6V567h.7v-8.9h.9zM437.7 570.9v2.8h-58.6v-2.8M408.4 556.5v7.1M379.8 558.1h57.3M379.8 559.6h30.1v1.2h-30.1z"/><path class="st3" d="M407 560.8h30v1.2h-30zM407 564.7h2.9v2.6H407z"/><path class="st3" d="M379.8 567.3h30.1v1.2h-30.1zM407 568.5h30v1.2h-30zM408.4 572.8v-5.6M314.5 570.9h1.6V567h-.8v-8.9h-.8zM238.6 570.9H237V567h.8v-8.9h.8zM315.1 570.9v2.8H238v-2.8M276.5 556.5v7.1M238.6 558.1h75.9"/><path class="st3" d="M238.6 559.6H278v1.2h-39.4z"/><path class="st3" d="M275.2 560.8h39.3v1.2h-39.3zM275.1 564.7h2.9v2.6h-2.9z"/><path class="st3" d="M238.6 567.3H278v1.2h-39.4zM275.2 568.5h39.3v1.2h-39.3zM276.5 572.8v-5.6M185.5 159.1h-1.1v-2h-.7v-2.7h1.8zM148.8 157.1h-.7v2h-1.2v-4.7h1.9z"/><path transform="rotate(-180 166.232 158.048)" class="st3" d="M148.1 157.1h36.3v1.9h-36.3z"/><path class="st3" d="M148.4 159c0 19.7 16 35.7 35.7 35.7V159M189.5 221h-1.9v.7h-1.8v.9h3.7zM189.5 183.8h-1.9v-.7h-1.8v-.9h3.7zM189.5 183.8V221M187.6 183.8V221M185.8 183.1v38.6"/><path class="st3" d="M187.6 183.1c-21.3 0-38.6 17.3-38.6 38.6h36.7"/><path transform="rotate(-180 186.934 174.156)" class="st3" d="M185.8 166.1h2.3v16h-2.3z"/><path transform="rotate(-180 396.652 304.754)" class="st3" d="M396.2 302.2h1v5.2h-1z"/><path transform="rotate(-180 360.337 304.754)" class="st3" d="M359.8 302.2h1v5.2h-1z"/><path class="st3" d="M396.2 302.2h-35.4M396.1 304.3h-35.2M396.2 305.8h-35.3M396.2 307.3h-35.4M396.2 305.8c0 18-13.8 32.8-31.4 34.4l-3.9-34.4M353.6 260.4h4.1v1.2h-4.1zM353.6 225.4h5.6v1.2h-5.6z"/><path class="st3" d="M357.7 226.7h1.3v34.9h-1.3zM357 300.2h2.2v1.2H357zM353.7 243.5h8M353.1 277.5v-5.1h-1.2v3.1h-.7v.6h.7v1.4zM312.2 277.5v-5.1h1.1v3.1h.7v.6h-.7v1.4z"/><path transform="rotate(-90 332.642 276.812)" class="st3" d="M332 257.5h1.3v38.6H332z"/><path transform="rotate(-90 351.237 296.77)" class="st3" d="M331.9 296.1h38.6v1.4h-38.6z"/><path class="st3" d="M313.3 277.5c0 21.3 17.3 38.6 38.6 38.6M312.7 261.7h-4.2v-1.2h1.2v-.7h1v.7h2zM312.7 225.3h-4.2v1.3h1.2v.7h1v-.7h2z"/><path transform="rotate(-180 329.294 227.409)" class="st3" d="M312.7 226.6H346v1.7h-33.3z"/><path class="st3" d="M310.7 226.6h2v33.9h-2zM312.7 260.4c18.7-.5 33.2-15.5 33.3-33.8M311.3 177.5v1.4h-.7v.7h.7v2.1h1.1v-4.2zM271.5 177.5v4.2h1.2v-2.1h.7v-.7h-.7v-1.4z"/><path transform="rotate(90 291.982 178.191)" class="st3" d="M291.3 158.9h1.3v38.6h-1.3z"/><path transform="rotate(90 310.577 158.237)" class="st3" d="M291.3 157.5h38.6v1.4h-38.6z"/><path class="st3" d="M311.3 138.9c-21.3 0-38.6 17.3-38.6 38.6M321.2 176.6v1.3h.7v.7h-.7v3.1H320v-5.1zM360.9 176.6v5.1h-1.1v-3.1h-.7v-.7h.7v-1.3z"/><path transform="rotate(90 340.49 177.261)" class="st3" d="M339.8 158h1.3v38.6h-1.3z"/><path transform="rotate(90 321.895 157.308)" class="st3" d="M302.6 156.6h38.6v1.4h-38.6z"/><path class="st3" d="M321.2 138c21.3 0 38.6 17.3 38.6 38.6M401.5 185.1h42.8v1.4h-42.8zM444.3 185.1l-3.6-21.1-3.6 21.1M199 64h1.4v30.2H199zM200.4 69l14.9-2.5-14.9-2.5M365.7 415.4h85.5v1.4h-85.5zM444 416.8l3.6 21.1 3.6-21.1M365.7 416.8l3.6 21.1 3.5-21.1M360.3 422.3h3.8v1.2h-3.8zM358.6 422.3h1.5v34.9h-1.5zM357.1 455.8h1.5v34.9h-1.5zM355.6 489.3h1.5v34.9h-1.5zM354 522.6h1.5v34.9H354zM353.6 557.5h10.5v1.1h-10.5zM348.8 523.4h12.8M351 490h10.6M350.4 456.5h12.8M353.6 387.5h6.8v1.1h-6.8zM202.7 222.2h30v1.4h-30zM232.9 222.2l-2.5-14.9-2.5 14.9M360.9 189.2h1.4v30.2h-1.4zM360.9 214.4l-14.8 2.5 14.8 2.6"/><path class="st7" d="M347.3 44.9h-53.5M320 177.1h-1.1V59.3h28.2M312.4 181.2h7.6M294 59.3h20.8V178h-2.4M271.5 178h-71.1V94.2H150V59.3h47.1V64h3.3v-4.7h20.7"/><path class="st7" d="M135.8 1.4v163.9h11.1v-10.2h-.9v-46.7h40.2v46.7h-.7v10.2h.7v.8h1.9v16.1h1.4v1h11.4v-2h70.6"/><path class="st7" d="M221.3 44.9H146V1.4M378.9 558.6h-63.4M315.1 573h4.8v11.6h56.7V573h2.4M332.4 561.8H364V572h-31.6zM312.2 225.4v-3.3H233v3.3h8.4v34.9h-41.2v-34.9h2.6v-3.8h-13.2v1h-3.3v7.8h-50.4v15h47.8l-.5 313.2H170V573h16.3v23.5h10.2V573H238m70.9-311.3v11.2h-51.8v-12.6h-12.6v-34.9h63.9m-70.6 333.2h-38.2V369.2H214V381h20v-11.9h7.3v-3.7H199V263.5h34.6V277h75.3v21.5h3.3v-36.8m-95 107.5h14v8.6h-14v-8.6zm36.7-105.7v9.3h-16.5v-9.3h16.5zM456.6 1.4v43.5h-32.1M437.7 573h18.1v23.5H466V573h18.1v-14.4H469V59.3h15.1V44.9h-18.8V1.4M363.6 422.3v-5.5h2.1v-3.3h-2.1v-24.6h89.7v24.6h-2.1v3.3h1.6v141.8h-14.9m-77.6-170v33.7M353.1 277h.9v110.5m0-126v11.3h-.9m4.2 27.4v-38.7m2.5 41.1h-1v-1.3m38.3 6h46.6v65.3h-83.9v-65.2h.1m-.7-81.9h93.6v77.1h-55.7m-36.2-120.9v7.5h28v33h-24.6v-2.8H361v2.8h-7v3.3m70.7-166.2h28.1v125.8h-8.5v3.5h8.5V213H393v-24.6h8.5v-3.3h-36.4v-8h-4.2m95 195.5h-11.2v-65.3h11.2v65.3z"/><path d="M362.9 256.1v-.7h5.5l.4-4.2H364v-.7h5.5l-.4 5h2.3v.7h-8.5zM372.4 253.6v-.7h7.6v.7h-7.6zM385.4 252.7c-.1 1.5-.4 2.5-.8 3.1-.4.6-1.2 1.2-2.5 1.8-.1-.2-.3-.5-.5-.7 1.2-.4 1.9-.9 2.3-1.4.4-.5.6-1.4.7-2.7h-4v-.8h8.4v.7h-3.6zm-3.3-2.2v-.7h5.6v.7h-5.6zM393.9 253.4v4.3h-.6v-3.8c-.8.7-1.8 1.3-2.9 1.8-.1-.2-.2-.4-.4-.6.9-.4 1.8-.9 2.8-1.7.9-.7 1.7-1.4 2.3-2.3l.6.5c-.6.7-1.2 1.3-1.8 1.8zM397.4 254.4v-4.6h.7v4.6h-.7zm5-2.6c0 1.2-.1 2.1-.3 2.7-.2.7-.5 1.3-1 1.8s-1.3.8-2.4 1.2c-.1-.3-.2-.5-.4-.7 1.4-.4 2.3-.9 2.8-1.6.4-.6.6-1.7.6-3.3v-2.5h.7v2.4zM408.5 252.7c-.1 1.5-.4 2.5-.8 3.1-.4.6-1.2 1.2-2.5 1.8-.1-.2-.3-.5-.5-.7 1.2-.4 1.9-.9 2.3-1.4.4-.5.6-1.4.7-2.7h-4v-.8h8.4v.7h-3.6zm-3.3-2.2v-.7h5.6v.7h-5.6zM417.1 253.4v4.3h-.6v-3.8c-.8.7-1.8 1.3-2.9 1.8-.1-.2-.2-.4-.4-.6.9-.4 1.8-.9 2.8-1.7.9-.7 1.7-1.4 2.3-2.3l.6.5c-.6.7-1.3 1.3-1.8 1.8zM363.7 195.1c-.1-.1-.3-.2-.5-.3.5-.5 1-1.1 1.4-1.7l.5.2c-.4.7-.9 1.3-1.4 1.8zm2.8-2.6v3.3h-.5v-3.3h-2.7v-.4h2.7v-1.3h.5v1.3h2.9v.4h-2.9zm2.4 2.5c-.6-.5-1.1-1.1-1.6-1.8l.5-.3c.5.7 1 1.3 1.6 1.7-.2.2-.3.3-.5.4zM366.1 200.9v-4.6h.5v4.6h-.5zM364.9 204.2c-.3.7-.8 1.4-1.6 1.9-.1-.1-.2-.3-.4-.4.6-.3 1-.7 1.3-1.2.2-.4.3-.9.4-1.6v-1.1h.5c.1 1.1 0 1.9-.2 2.4zm1.9 1.8-.4-.3.1-.1v-4.1h.5v3.8c.8-.4 1.5-1.1 2.3-1.8.1.1.3.2.4.3-1 .9-1.9 1.6-2.9 2.2zM363.9 207.4v2.7c.3-.1.6-.2 1-.3v-3.1h.5v5.2h-.5v-1.7c-.7.2-1.3.4-1.9.6l-.1-.4c.2 0 .4-.1.5-.1v-2.8h.5zm5.5-.1c-.4 1.1-.8 2-1.2 2.6-.1.1-.2.2-.3.4.4.5 1 .9 1.7 1.3-.1.1-.3.2-.4.3-.7-.4-1.3-.8-1.7-1.3-.5.4-1 .9-1.7 1.3-.1-.2-.2-.3-.3-.4.7-.4 1.3-.8 1.8-1.3-.1-.1-.1-.2-.2-.3-.4-.7-.6-1.5-.7-2.4h-.6v-.4H369.1l.3.2zm-1.8 2.6.1-.1c.5-.6.8-1.4 1.1-2.3h-1.9c.1.9.3 1.8.7 2.4zM364.5 212.8l-.7 1.1c.2.1.3.2.4.3l.7-1 .5.2-1.3 1.8c.3 0 .6 0 .9-.1-.1-.1-.1-.2-.2-.3l.4-.1c.2.3.3.6.5.9l-.5.1c0-.1-.1-.2-.1-.3-.2 0-.4.1-.6.1v2.4h-.5v-2.3c-.4.1-.8.1-1.2.1l-.1-.4h.7l.5-.7c-.4-.3-.8-.5-1.2-.7l.3-.3c.1.1.2.1.3.2l.6-1.2.6.2zm-.8 3.3c0 .5-.2.9-.3 1.4l-.5-.1c.2-.4.3-.8.3-1.3h.5zm1.9 1c-.1 0-.3 0-.5.1-.1-.3-.2-.7-.2-1.1h.5c0 .3.1.7.2 1zm1.6-3.3v-1.2h.5v1.2h1.6v3.6c0 .2-.1.3-.2.4-.1.1-.4.1-.7.1 0-.2-.1-.3-.2-.5h.5c.1 0 .1 0 .1-.1v-3.1h-1.1c0 .3 0 .5-.1.8.4.4.8.8 1.1 1.2l-.4.3c-.2-.3-.5-.6-.8-1-.1.4-.4.8-.8 1.2-.1-.1-.3-.2-.4-.3v1.5h-.5v-4.1h1.4zm-.1 1.4c.1-.2.2-.6.2-1.1h-.9v2.2c.3-.3.5-.7.7-1.1zM223.2 373.4c-.3.2-.6.3-1 .3h-1.3v2h-.5v-4.6h1.6c.5 0 .9.1 1.2.3.4.2.5.6.5 1-.1.4-.2.8-.5 1zm-1.2-1.8h-1.2v1.7h1.2c.7 0 1.1-.3 1.1-.8 0-.6-.4-.9-1.1-.9zM227.2 375.5c-.3.2-.7.3-1.1.3-.5 0-.8-.1-1.2-.3-.3-.2-.5-.6-.6-1h.6c.1.3.2.6.4.7.2.1.4.2.8.2.3 0 .5-.1.7-.2.2-.2.4-.4.4-.6 0-.3-.4-.6-1.1-.9-1-.4-1.5-.9-1.5-1.4 0-.4.2-.7.5-.9.3-.2.6-.3 1-.3.7 0 1.2.4 1.5 1.2h-.6c-.2-.5-.5-.7-.9-.7-.3 0-.5.1-.6.2-.2.1-.3.3-.3.6 0 .2.2.5.7.7.4.2.8.5 1.3.7.5.3.7.6.7 1-.2.1-.4.5-.7.7zM346.4 567.4c-.3.2-.6.3-1 .3H344v2h-.5v-4.6h1.6c.5 0 .9.1 1.2.3.4.2.5.6.5 1 .1.5-.1.8-.4 1zm-1.1-1.8H344v1.7h1.2c.7 0 1.1-.3 1.1-.8 0-.6-.4-.9-1-.9zM352.9 569.5c-.3.2-.7.3-1.1.3-.5 0-.8-.1-1.2-.3-.3-.2-.5-.6-.6-1h.6c.1.3.2.6.4.7.2.1.4.2.8.2.3 0 .5-.1.7-.2.2-.2.4-.4.4-.6 0-.3-.4-.6-1.1-.9-1-.4-1.5-.9-1.5-1.4 0-.4.2-.7.5-.9.3-.2.6-.3 1-.3.7 0 1.2.4 1.5 1.2h-.6c-.2-.5-.5-.7-.9-.7-.3 0-.5.1-.6.2-.2.1-.3.3-.3.6 0 .2.2.5.7.7.4.2.8.5 1.3.7.5.3.7.6.7 1-.2.2-.4.5-.7.7zM243.6 268.3c-.3.2-.6.3-1 .3h-1.3v2h-.5V266h1.6c.5 0 .9.1 1.2.3.4.2.5.6.5 1-.1.5-.2.8-.5 1zm-1.2-1.8h-1.2v1.7h1.2c.7 0 1.1-.3 1.1-.8 0-.6-.4-.9-1.1-.9zM250.1 270.4c-.3.2-.7.3-1.1.3-.5 0-.8-.1-1.2-.3-.3-.2-.5-.6-.6-1h.6c.1.3.2.6.4.7.2.1.4.2.8.2.3 0 .5-.1.7-.2.2-.2.4-.4.4-.6 0-.3-.4-.6-1.1-.9-1-.4-1.5-.9-1.5-1.4 0-.4.2-.7.5-.9.3-.2.6-.3 1-.3.7 0 1.2.4 1.5 1.2h-.6c-.2-.5-.5-.7-.9-.7-.3 0-.5.1-.6.2-.2.1-.3.3-.3.6 0 .2.2.5.7.7.4.2.8.5 1.3.7.5.3.7.6.7 1-.2.2-.4.5-.7.7zM240.4 548.7c0 .6-.1 1.1-.1 1.4 0 .2-.1.3-.2.4-.1.1-.4.1-.9.2 0-.1-.1-.3-.1-.4h.5c.2 0 .3-.1.4-.2.1-.2.1-.5.1-1v-1.3h-1.3c-.1.8-.3 1.4-.6 1.9s-.8.9-1.4 1.3c-.1-.1-.2-.3-.3-.4.6-.3 1-.7 1.3-1.1.3-.4.5-1 .6-1.6h-1.5v-.4h1.5v-1.2h.5v1.2h1.8l-.3 1.2zM241 548.6v-.4h4.5v.4H241zM248.6 548.1c-.1.9-.2 1.5-.5 1.8-.2.3-.7.7-1.4 1-.1-.1-.1-.3-.3-.4.7-.2 1.1-.5 1.4-.8.2-.3.4-.8.4-1.6h-2.3v-.4h4.9v.4h-2.2zm-1.9-1.3v-.4h3.3v.4h-3.3zM253.9 549.4c-.6.4-1.3.9-2.2 1.3l-.3-.5c1.5-.5 2.9-1.5 4-2.9l.3.3c-.7.8-1.3 1.4-1.8 1.8zm-1.2-1.8c-.4-.4-.8-.7-1.2-1l.3-.4c.5.3.9.6 1.3.9l-.4.5zM256.6 550.2c-.1-.1-.3-.2-.4-.3.4-.5.8-1 1.1-1.7l.4.2c-.3.7-.7 1.3-1.1 1.8zm2.2-2.6v3.2h-.4v-3.2h-2.1v-.4h2.1V546h.4v1.2h2.3v.4h-2.3zm1.9 2.5c-.5-.5-.9-1-1.3-1.7l.4-.3c.4.7.8 1.2 1.3 1.7-.2 0-.3.2-.4.3zm-.4-3.1c-.1-.2-.4-.4-.6-.6l.2-.2c.3.2.5.4.6.5l-.2.3zm.4-.4c-.1-.2-.4-.4-.6-.6l.2-.2c.3.2.5.4.6.5l-.2.3zM262 548.9c-.1-.3-.3-.6-.6-1l.3-.2c.2.3.4.7.6 1l-.3.2zm2.6.2c-.3.5-.6.9-1 1.2-.3.3-.8.5-1.3.7-.1-.1-.1-.3-.2-.4.5-.1.9-.3 1.2-.6.3-.2.6-.6.9-1 .2-.3.4-.8.5-1.4l.4.1c-.2.6-.3 1-.5 1.4zm-1.5-.5c-.1-.3-.3-.7-.5-1l.3-.1c.2.4.4.7.5 1l-.3.1zM268.5 549.4c-.6.6-1.3 1-2.2 1.3-.1-.1-.1-.3-.2-.4.8-.2 1.5-.6 2-1 .4-.4.8-1.1 1.2-1.9h-1.8c-.4.6-.8 1.2-1.3 1.6-.1-.1-.2-.2-.4-.3l1.1-1.1c.2-.3.5-.8.8-1.4l.5.2c-.1.2-.2.4-.4.7H269.7l.3.3c-.6.8-1 1.5-1.5 2zM274.7 550.6c-.5-.6-1-1.3-1.7-1.9-.6.7-1.4 1.3-2.3 1.9-.1-.2-.2-.3-.3-.4.8-.4 1.5-.8 2-1.3.4-.4.9-1.1 1.5-2H271v-.4h3.2l.3.3c-.4.6-.7 1.2-1 1.6.7.6 1.3 1.2 1.8 1.9l-.6.3zM277.2 548.8h-.6l-.1-.1v-.6l.1-.1h.6l.1.1v.6l-.1.1zM282.7 548.7c0 .6-.1 1.1-.1 1.4 0 .2-.1.3-.2.4-.1.1-.4.1-.9.2 0-.1-.1-.3-.1-.4h.5c.2 0 .3-.1.4-.2.1-.2.1-.5.1-1v-1.3h-1.3c-.1.8-.3 1.4-.6 1.9s-.8.9-1.4 1.3c-.1-.1-.2-.3-.3-.4.6-.3 1-.7 1.3-1.1.3-.4.5-1 .6-1.6H279v-.4h1.5v-1.2h.5v1.2h1.8l-.1 1.2zM283.3 548.6v-.4h4.5v.4h-4.5zM290.9 548.1c-.1.9-.2 1.5-.5 1.8-.2.3-.7.7-1.4 1-.1-.1-.1-.3-.3-.4.7-.2 1.1-.5 1.4-.8.2-.3.4-.8.4-1.6h-2.3v-.4h4.9v.4h-2.2zm-1.9-1.3v-.4h3.3v.4H289zM296.2 549.4c-.6.4-1.3.9-2.2 1.3l-.3-.5c1.5-.5 2.9-1.5 4-2.9l.3.3c-.7.8-1.3 1.4-1.8 1.8zm-1.2-1.8c-.4-.4-.8-.7-1.2-1l.3-.4c.5.3.9.6 1.3.9l-.4.5zM301.5 549.1c-.5.4-1 .7-1.5 1-.4.2-.7.4-.9.5l-.4-.3v-4h.4v3.7c.8-.3 1.4-.7 1.8-1 .4-.3.9-.8 1.4-1.4l.3.3c-.3.4-.7.8-1.1 1.2zM303.2 548.6v-.4h4.5v.4h-4.5zM309.5 548.8c-.2.7-.6 1.3-1.2 1.9-.1-.1-.2-.3-.3-.4.5-.3.8-.7 1-1.2.2-.4.3-.9.3-1.5v-1h.4c0 1 0 1.8-.2 2.2zm1.5 1.8-.3-.3.1-.1v-4h.4v3.7c.6-.4 1.2-1 1.8-1.8l.3.3c-.8.9-1.6 1.7-2.3 2.2zM316.8 550.4h-.4l-.7-2.9-.8 2.9h-.4l-.9-3.6h.4l.7 2.9.8-2.9h.4l.7 2.9.7-2.9h.4l-.9 3.6zM375.5 548.7c0 .6-.1 1.1-.1 1.4 0 .2-.1.3-.2.4-.1.1-.4.1-.8.2 0-.1-.1-.3-.1-.4h.4c.2 0 .3-.1.3-.2.1-.2.1-.5.1-1v-1.3h-1.2c-.1.8-.3 1.4-.6 1.9s-.7.9-1.3 1.3c-.1-.1-.2-.3-.3-.4.5-.3.9-.7 1.2-1.1.3-.4.4-1 .5-1.6h-1.3v-.4h1.3v-1.2h.4v1.2h1.7v1.2zM375.9 548.6v-.4h4v.4h-4zM382.6 548.1c-.1.9-.2 1.5-.4 1.8-.2.3-.6.7-1.3 1-.1-.1-.1-.3-.2-.4.6-.2 1-.5 1.2-.8.2-.3.3-.8.4-1.6h-2.1v-.4h4.4v.4h-2zm-1.7-1.3v-.4h2.9v.4h-2.9zM387.2 549.4c-.5.4-1.2.9-2 1.3l-.2-.5c1.4-.5 2.6-1.5 3.6-2.9l.3.3c-.6.8-1.2 1.4-1.7 1.8zm-1.1-1.8c-.4-.4-.8-.7-1.1-1l.2-.4 1.2.9-.3.5zM389.6 550.2c-.1-.1-.2-.2-.4-.3.4-.5.7-1 1-1.7l.4.2c-.4.7-.7 1.3-1 1.8zm1.9-2.6v3.2h-.4v-3.2h-1.9v-.4h1.9V546h.4v1.2h2v.4h-2zm1.7 2.5c-.4-.5-.8-1-1.1-1.7l.4-.3c.3.7.7 1.2 1.1 1.7-.2 0-.3.2-.4.3zm-.3-3.1c-.1-.2-.3-.4-.6-.6l.2-.2c.2.2.4.4.6.5l-.2.3zm.3-.4c-.1-.2-.3-.4-.6-.6l.2-.2c.2.2.4.4.6.5l-.2.3zM394.3 548.9c-.1-.3-.3-.6-.5-1l.3-.2c.2.3.4.7.5 1l-.3.2zm2.3.2c-.2.5-.5.9-.9 1.2-.3.3-.7.5-1.2.7-.1-.1-.1-.3-.2-.4.5-.1.8-.3 1.1-.6.3-.2.6-.6.8-1 .2-.3.3-.8.5-1.4l.4.1c-.2.6-.3 1-.5 1.4zm-1.3-.5c-.1-.3-.2-.7-.4-1l.3-.1c.2.4.3.7.4 1l-.3.1zM400 549.4c-.5.6-1.2 1-2 1.3-.1-.1-.1-.3-.2-.4.7-.2 1.3-.6 1.8-1 .4-.4.7-1.1 1.1-1.9H399c-.4.6-.8 1.2-1.2 1.6-.1-.1-.2-.2-.4-.3.4-.4.7-.8 1-1.1.2-.3.4-.8.7-1.4l.4.2c-.1.2-.2.4-.3.7h1.8l.3.3c-.5.8-.9 1.5-1.3 2zM405.4 550.6c-.4-.6-.9-1.3-1.5-1.9-.5.7-1.2 1.3-2.1 1.9-.1-.2-.2-.3-.3-.4.7-.4 1.3-.8 1.8-1.3.4-.4.8-1.1 1.3-2H402v-.4h2.9l.3.3c-.3.6-.6 1.2-.9 1.6.6.6 1.2 1.2 1.6 1.9l-.5.3zM407.5 548.8h-.6l-.1-.1v-.6l.1-.1h.6l.1.1v.6l-.1.1zM412.4 548.7c0 .6-.1 1.1-.1 1.4 0 .2-.1.3-.2.4-.1.1-.4.1-.8.2 0-.1-.1-.3-.1-.4h.4c.2 0 .3-.1.3-.2.1-.2.1-.5.1-1v-1.3h-1.2c-.1.8-.3 1.4-.6 1.9s-.7.9-1.3 1.3c-.1-.1-.2-.3-.3-.4.5-.3.9-.7 1.2-1.1.3-.4.4-1 .5-1.6H409v-.4h1.3v-1.2h.4v1.2h1.7v1.2zM412.8 548.6v-.4h4v.4h-4zM419.5 548.1c-.1.9-.2 1.5-.4 1.8-.2.3-.6.7-1.3 1-.1-.1-.1-.3-.2-.4.6-.2 1-.5 1.2-.8.2-.3.3-.8.4-1.6h-2.1v-.4h4.4v.4h-2zm-1.7-1.3v-.4h2.9v.4h-2.9zM424.1 549.4c-.5.4-1.2.9-2 1.3l-.2-.5c1.4-.5 2.6-1.5 3.6-2.9l.3.3c-.6.8-1.2 1.4-1.7 1.8zm-1.1-1.8c-.4-.4-.8-.7-1.1-1l.2-.4 1.2.9-.3.5zM428.8 549.1c-.4.4-.9.7-1.4 1-.4.2-.6.4-.8.5l-.3-.3v-4h.4v3.7c.7-.3 1.2-.7 1.6-1 .4-.3.8-.8 1.3-1.4l.3.3c-.4.4-.8.8-1.1 1.2zM430.2 548.6v-.4h4v.4h-4zM435.7 548.8c-.2.7-.5 1.3-1.1 1.9-.1-.1-.2-.3-.3-.4.4-.3.7-.7.9-1.2.1-.4.2-.9.3-1.5v-1h.4c0 1 0 1.8-.2 2.2zm1.4 1.8-.3-.3v-4.1h.4v3.7c.5-.4 1.1-1 1.6-1.8l.3.3c-.7.9-1.4 1.7-2 2.2zM442.2 550.4h-.4l-.7-2.9-.7 2.9h-.4l-.8-3.6h.4l.6 2.9.7-2.9h.4l.7 2.9.7-2.9h.4l-.9 3.6zM322.4 206.2V205h.4v1.2h.6v.4h-.6v1c.2-.1.4-.1.7-.2v.4c-.2.1-.5.1-.7.2v1.7c0 .1-.1.2-.2.3-.1.1-.4.1-.6.1 0-.1 0-.3-.1-.4h.5c.1 0 .1 0 .1-.1V208c-.3.1-.6.2-.8.2l-.1-.4c.3-.1.6-.1.9-.2v-1.1h-.9v-.4h.8zm4-.8c-.8.3-1.5.4-2.1.5v.9h2.3v.4h-.7v2.9h-.4v-2.9h-1.2v.2c0 .5-.1.9-.2 1.3-.1.5-.3.9-.6 1.3-.1-.1-.2-.2-.3-.2.3-.4.4-.7.6-1.1.1-.4.2-.8.2-1.2v-1.9l.3.1c.7-.1 1.4-.2 2-.5l.1.2zM329.9 205.1v1.8h1.8v.4h-1.8v2.3h2.3v.4h-5v-.4h2.2v-4.5h.5zM337.9 205.3v.4h-2.2v1.2h2v.3h-1.9c.1.5.4.9.7 1.3.4.5 1 .8 1.6 1-.1.1-.2.2-.3.4-.7-.3-1.2-.7-1.6-1.2-.3-.3-.5-.6-.6-1-.1.4-.2.7-.4 1-.4.5-1 1-1.9 1.3-.1-.2-.1-.3-.2-.4 1-.4 1.6-.8 1.9-1.4.1-.3.2-.6.3-1h-1.8v-.3h1.8v-1.2h-2.1v-.4h4.7zM340.1 206.2V205h.4v1.1h1.5V205h.4v1.2h1.1v.4h-1.1v1.3h1.5v.4h-1.5v1.9h-.4v-1.9h-1.5c-.1.3-.1.6-.3.9-.2.4-.6.7-1.1 1l-.3-.3c.5-.2.9-.5 1.1-.9.1-.2.2-.4.2-.7h-1.4v-.4h1.4v-1.3H339v-.4h1.1zm1.8.3h-1.5v1.3h1.5v-1.3zM295.7 242.5c-.4.7-1 1.2-1.9 1.6-.1-.2-.1-.4-.2-.5.8-.2 1.3-.6 1.7-1.2.4-.6.6-1.4.6-2.4h-2.6v1.6h-.4v-2.1h1.5v-1.2h.4v1.2h1.5c-.1 1.4-.3 2.3-.6 3zM299 241.2v2.3c0 .2 0 .4-.1.5 0 .1-.2.1-.6.2 0-.2-.1-.4-.1-.5h.3c.1 0 .2-.1.2-.2v-1.7c-.5.8-1 1.4-1.7 1.9-.1-.1-.1-.3-.2-.4.8-.5 1.4-1.2 1.8-2H297v-.4h1.7v-1h.3v1h1.1v.4H299zM301.5 241.4l-.9-.6.1-.4c.3.2.6.3.9.5l-.1.5zm1.4 1.2c-.5.5-1.1.9-1.9 1.3l-.2-.5c1.4-.6 2.5-1.6 3.3-3 .1.1.1.3.3.4-.4.7-1 1.3-1.5 1.8zm-.9-2.7c-.3-.3-.6-.5-.9-.7l.2-.4c.4.3.7.5.9.7l-.2.4zM305 243.7v-.4h2.2l.2-2.2h-1.9v-.4h2.2l-.2 2.6h.9v.4H305zM297.7 249.9c-.4.4-.8.8-1.3 1.1-.3.2-.6.4-.7.6l-.3-.4v-4.6h.4v4.2c.6-.4 1.2-.8 1.5-1.2.4-.4.8-.9 1.2-1.6.1.1.2.3.3.4-.4.7-.7 1.1-1.1 1.5zM299.8 249.7c-.1-.3-.3-.7-.5-1.1l.3-.2c.2.4.3.7.5 1.2l-.3.1zm2.1.2c-.2.6-.5 1-.8 1.4-.3.3-.7.6-1.2.8 0-.2-.1-.3-.2-.4.4-.2.8-.4 1.1-.6.3-.3.6-.7.8-1.2.2-.4.3-1 .4-1.7l.4.1c-.2.7-.3 1.2-.5 1.6zm-1.2-.6c-.1-.4-.2-.8-.4-1.1l.3-.2c.2.4.3.8.4 1.1l-.3.2zM305.7 249.9c-.5-.4-1.2-.8-2-1.2v3.3h-.4v-5.6h.4v1.8c.8.3 1.5.7 2.2 1.2l-.2.5zM270.1 255.9c-.5.1-1.1.2-1.9.3v.8h2v.4h-2v.9h2.3v.4h-2.3v1.4c0 .1-.1.2-.3.3-.2.1-.4.1-.8.1 0-.1 0-.3-.2-.4h.6c.1 0 .1 0 .1-.1v-1.3h-2.2v-.4h2.2v-.9h-2v-.4h2v-.8c-.6.1-1.2.1-1.8.1-.1-.2-.1-.3-.2-.4.8 0 1.6-.1 2.2-.1.6-.1 1.2-.2 1.9-.3l.4.4zM272.4 258.7l-.9 1.8-.4-.2 1-1.8c.1.1.2.2.3.2zm-.3-1.2-.2.3c-.2-.2-.5-.4-.8-.5l.2-.3c.4.1.6.3.8.5zm.3-1.3-.2.3c-.2-.3-.5-.5-.7-.6l.2-.3c.2.1.5.3.7.6zm1.1-.4c-.1.3-.2.5-.3.7h.8v-1h.4v1h1.4v.3h-1.4v1h1.7v.3H275v1.8c0 .1 0 .1.1.1h.6c.1 0 .2-.1.2-.1.1-.1.1-.2.1-.4.1.1.2.1.4.1 0 .2-.1.4-.2.6-.1.2-.2.2-.4.2h-.8c-.3 0-.4-.2-.4-.5v-1.8h-.8c0 .7-.1 1.2-.3 1.5-.2.3-.6.6-1.1.8-.1-.1-.1-.3-.2-.4.5-.2.9-.5 1-.8.1-.3.2-.6.2-1.1h-1.1v-.3h1.7v-1h-1c-.1.3-.3.5-.4.7-.1-.1-.2-.2-.3-.2.2-.3.4-.5.5-.8.1-.3.2-.5.3-.8l.4.1zM281.1 258.2c0 .6-.1 1.1-.1 1.4 0 .2-.1.3-.2.4-.1.1-.4.1-.9.2 0-.1-.1-.3-.1-.4h.5c.2 0 .3-.1.4-.2.1-.2.1-.5.1-1v-1.3h-1.3c-.1.8-.3 1.4-.6 1.9s-.8.9-1.4 1.3c-.1-.1-.2-.3-.3-.4.6-.3 1-.7 1.3-1.1.3-.4.5-1 .6-1.6h-1.5v-.4h1.5v-1.2h.5v1.2h1.8l-.3 1.2zM285.1 259c-.4.6-1.2 1.1-2.3 1.4-.1-.2-.2-.3-.2-.4.9-.2 1.5-.6 2-1 .5-.5.7-1.2.7-2.1h-3v1.4h-.4v-1.8h1.7v-1h.4v1h1.8c-.1 1.1-.3 1.9-.7 2.5zM288.9 258.9c-.6.4-1.3.9-2.2 1.3l-.3-.5c1.5-.5 2.9-1.5 4-2.9l.3.3c-.6.8-1.2 1.4-1.8 1.8zm-1.2-1.7c-.4-.4-.8-.7-1.2-1l.3-.4c.5.3.9.6 1.3.9l-.4.5zM294.2 258.9c-.6.6-1.3 1.1-2.3 1.5-.1-.1-.1-.2-.3-.4.9-.3 1.6-.8 2.2-1.4-.3-.3-.7-.6-1-.8l.2-.3c.4.3.8.5 1.1.8.3-.4.6-.9.9-1.5h-1.8c-.5.7-1 1.2-1.7 1.6-.1-.1-.2-.3-.3-.4.6-.4 1-.7 1.2-1 .3-.3.5-.8.8-1.4l.5.2-.3.6h1.8l.3.3c-.3.9-.8 1.7-1.3 2.2zM296.2 258.1v-.4h4.5v.4h-4.5zM146.6 179.4l-.4-.4c.5-.4 1.1-1 1.8-1.7h-5.2v-.6h5.8l.5.5c-1.1 1-2 1.8-2.5 2.2zm-.9 1.9c-.3.7-1 1.3-2.1 1.8-.1-.2-.2-.4-.4-.6.9-.2 1.6-.6 1.9-1.2.3-.5.4-1.2.4-2.2v-.6h.6c0 1.3-.1 2.2-.4 2.8zM144.5 187.6c-.3 1-.9 1.9-1.7 2.6-.1-.2-.3-.4-.4-.5.6-.5 1.1-1 1.4-1.7.2-.5.4-1.3.4-2.2v-1.5h.6c-.1 1.6-.1 2.7-.3 3.3zm2 2.5-.5-.5.1-.1v-5.7h.6v5.3c.9-.6 1.7-1.5 2.5-2.5.1.1.3.3.5.4-1 1.4-2.1 2.4-3.2 3.1zM147.8 196.3v-.4h-4.5v-.6h4.5v-3.4h-4.5v-.6h5.2v5.1h-.7zM145.7 203.5v-6.4h.6v6.4h-.6zM147.1 209.3c-.7.8-1.7 1.5-3.2 2.1l-.3-.6c1.2-.4 2.2-.9 2.9-1.7.7-.7 1.2-1.7 1.7-3h-5.1v-.6h5.4l.5.5c-.7 1.5-1.3 2.6-1.9 3.3zm2-3.6c-.2-.2-.5-.5-.9-.8l.3-.3c.4.3.7.5.9.8l-.3.3zm.6-.6c-.2-.2-.5-.5-.9-.8l.3-.3c.4.3.7.5.9.8l-.3.3zM179.6 186.1v1.1h.4l.2.2c-.2.4-.4.9-.7 1.2l.2.2c.2-.1.3-.3.5-.5l.2.3-.5.5c.1.1.3.2.4.3-.1.1-.2.2-.2.3-.2-.1-.4-.3-.5-.5l-.1-.1v2.1h-.4v-2.1l-.6.6c0-.1-.1-.3-.2-.4.6-.6 1.1-1.1 1.4-1.8h-1.3v-.3h.7v-1.1h.5zm3.7 5.1h-.4v-.4H181v.4h-.4v-3.7h1.1v-1.3h.4v1.3h1.1v3.7zm-1.5-2.2v-1.1h-.8v1.1h.8zm0 1.5v-1.2h-.8v1.2h.8zm.4-1.5h.8v-1.1h-.8v1.1zm0 1.5h.8v-1.2h-.8v1.2zM180.1 192c-.1.4-.3.8-.5 1.2v3.9h-.4v-3.2c-.2.3-.4.6-.7.9 0-.1-.1-.3-.2-.4.5-.7 1-1.5 1.4-2.6l.4.2zm2.1 1.3V192h.4v1.3h1v.4h-1v2.9c0 .1-.1.2-.2.3-.2.1-.4.1-.7.1 0-.1 0-.3-.1-.4h.6c.1 0 .1 0 .1-.1v-2.8H180v-.4h2.2zm-.8 1.9-.3.2c-.2-.3-.5-.6-.8-1l.3-.2c.3.4.6.8.8 1zM181.2 197.6v.9h2.2v.4H181l-.8 1.6c.3.2.5.4.7.6l1.1-1.5.4.2-1.9 2.4c.6 0 1.3-.1 2-.2-.2-.2-.4-.5-.6-.7l.3-.2c.5.6.9 1.1 1.2 1.5l-.3.2c-.1-.2-.2-.3-.3-.4-1.6.2-3 .3-4.1.4l-.1-.4c.4 0 .9 0 1.4-.1l.7-.9c-.5-.4-1.1-.9-1.8-1.2l.2-.4c.3.2.6.3.8.5l.6-1.3h-2v-.4h2.3v-.9h.4zM180.7 203.6v1.7h-1.6v3.2h-.4v-4.9h2zm-.4.7v-.4h-1.2v.4h1.2zm0 .6v-.4h-1.2v.4h1.2zm3-1.3v4.4c0 .2-.1.3-.2.4-.1.1-.3.1-.7.1 0-.1-.1-.3-.2-.4h.5c.1 0 .1 0 .1-.1v-2.6h-1.3l.3.1-.3.5h.8v.3H181v.5h1.5v.3h-1.3c.1.2.2.3.3.4.1.1.4.3.7.4l-.3.3c-.3-.2-.6-.3-.7-.5-.1-.1-.3-.3-.4-.5-.1.1-.1.2-.2.3-.2.3-.6.5-1.1.8l-.3-.3c.5-.1.8-.4 1.1-.6.1-.1.1-.1.1-.2h-1.1v-.3h1.2v-.5h-1.1v-.4h.6c-.1-.1-.2-.3-.4-.5l.3-.2.5.5-.2.2h.7l.3-.7h-.2v-1.7h2.3zm-.4.3h-1.2v.4h1.2v-.4zm0 .7h-1.2v.4h1.2v-.4zM182.8 212.1c-.6-.4-1.4-.7-2.3-1v2.9h-.4v-4.9h.4v1.6c.9.3 1.8.6 2.6 1.1l-.3.3zm-.5-1.6c-.1-.2-.3-.4-.6-.6l.2-.2c.3.2.5.4.6.5l-.2.3zm.4-.4c-.1-.2-.3-.4-.6-.6l.2-.2c.3.2.5.4.6.5l-.2.3zM181.4 216.6l-.3-.3c.4-.3.8-.7 1.3-1.2h-3.6v-.4h4.1l.3.4c-.8.6-1.4 1.2-1.8 1.5zm-.6 1.2c-.2.5-.7.9-1.5 1.2-.1-.1-.2-.3-.3-.4.6-.2 1.1-.4 1.3-.9.2-.3.3-.8.3-1.5v-.4h.4c.1 1 0 1.7-.2 2zM243.4 112.3l-2.1 4.3-1-.6 2.3-4.2c.3.3.5.4.8.5zm-.4-3.4-.4.8c-.6-.4-1.2-.7-2-1.1l.4-.8c.7.3 1.4.7 2 1.1zm.7-3.2-.6.8c-.6-.5-1.2-1-1.9-1.4l.6-.7c.7.4 1.3.8 1.9 1.3zm7.5-1.1-1.1 2h2.8v.9h-4v1.9h3.1v.9h-3.1v2.2h4v.9h-4v3.5h-.9v-3.5h-4.1v-.9h4.1v-2.2h-3.3v-.9h3.3v-1.9h-3.8v-.9h4.9l1.3-2.5.8.5zm-3.9 1.3-.8.6c-.3-.6-.7-1.2-1.2-1.7l.8-.6c.5.6.9 1.2 1.2 1.7zM260.6 112.9v-1.2h1v1.2h4.4v.8h-4.4v1.5h5.7v.8h-12.5v-.8h5.8v-1.5h-4.3v-.8h4.3zm1-9v1.4h5.1v2.7h-1v.4h-5.3l-1.1 2.1c1.5-.1 2.9-.2 4.5-.3-.3-.3-.6-.5-1-.8l.7-.7c1.3 1 2.2 1.7 2.7 2.3l-.7.7-.8-.8c-3.3.3-6.1.5-8.5.6l-.2-.9c.7 0 1.4 0 2.2-.1l1.2-2.1h-3v-.4h-.9v-2.7h5.1v-1.4h1zm4.1 3.7v-1.3h-9.3v1.3h9.3zM269.2 115.2c.1-1.5.8-2.8 2.3-3.9 1.5-1.2 2.2-2.1 2.2-2.7 0-.5-.1-.9-.4-1.2-.3-.3-.7-.5-1.2-.5-.7 0-1.1.2-1.5.6-.3.3-.5.8-.5 1.5h-1c.2-1.9 1.3-2.8 3.1-2.8.8 0 1.4.2 1.9.7.5.5.7 1.1.7 1.8 0 .9-.7 1.9-2.2 3.1-1.2 1-1.9 1.9-2.2 2.7h4.5v.9h-5.7zM239.3 135.3c-.7-.7-1.2-1.3-1.6-1.9-.4-.8-.6-1.6-.6-2.5 0-.9.2-1.7.6-2.5.3-.6.9-1.2 1.6-1.9l.5.5c-.7.6-1.2 1.2-1.5 1.8-.4.7-.6 1.4-.6 2.2 0 .8.2 1.5.6 2.2.3.5.8 1.1 1.5 1.8l-.5.3zM243.4 126.6l-1 1.9c.2.2.4.3.6.5l.9-1.6.6.4-1.7 2.7c.4 0 .9 0 1.4-.1-.1-.3-.3-.5-.4-.8l.5-.3c.4.6.6 1.1.8 1.5l-.5.4c0-.1-.1-.2-.1-.3-.4 0-.8.1-1.1.1v4h-.7v-4c-.5 0-1 .1-1.5.1l-.2-.6h1l.6-1c-.5-.4-1-.8-1.6-1.1l.4-.5c.1.1.3.2.4.3l.9-1.9.7.3zm-1.2 5.2c-.2.9-.4 1.7-.6 2.4-.2-.1-.4-.2-.6-.2.2-.7.4-1.5.6-2.3l.6.1zm2.7 1.7-.6.2c-.1-.6-.2-1.2-.4-1.8l.6-.2c.1.6.2 1.2.4 1.8zm1.8-7.1c-.2.7-.3 1.3-.4 1.7h3.1v3.8c0 1-.1 1.7-.2 2-.1.6-.8.9-2 .9 0-.3-.1-.6-.3-.8h1.1c.3 0 .5-.2.6-.5.1-.3.1-.9.2-1.9v-3h-2.6c-.2.6-.4 1.1-.6 1.5-.2-.2-.4-.3-.6-.4.3-.6.5-1.2.7-1.9.2-.6.3-1.2.4-1.8l.6.4zm1 5.3-.5.5c-.3-.5-.8-1.1-1.3-1.7l.5-.4c.4.5.9 1.1 1.3 1.6zM254.7 132.5v1.4h-.6v-1.4h-3v-.6l3-4.1h.5v4.2h.8v.6h-.7zm-.6-3.7-2.3 3.1h2.3v-3.1zM257.7 134.1h-.7l-.1-.1v-.6l.1-.1h.7l.1.1v.6l-.1.1zM262.8 133.5c-.4.4-.9.6-1.4.6-1.1 0-1.8-.5-2.1-1.6h.8c.2.7.7 1.1 1.3 1.1.4 0 .7-.1.9-.5.3-.3.4-.6.4-1s-.1-.7-.4-1c-.3-.3-.6-.5-1-.5-.5 0-.9.2-1.2.6l-.7-.2.3-3.2h3.2v.6h-2.6l-.2 2.1c.4-.3.9-.4 1.4-.4.5 0 1 .2 1.3.6.3.4.5.9.5 1.4.1.5-.1 1-.5 1.4zM266.4 127.9v-1.7h.7v1.7h1.4v4.5c0 .2 0 .3-.1.4-.1.1-.4.2-.8.2 0-.3-.1-.5-.2-.7h.3c.1 0 .2 0 .2-.1v-3.7h-.7v6.5h-.7v-6.5h-.7v4.5h-.6v-5.1h1.2zm5-1.6v1.8h2.1v.6h-2.1v2h1.7v4.2h-.6v-.5h-2.7v.6h-.6v-4.3h1.6v-4.4h.6zm1 7.5v-2.5h-2.7v2.5h2.7zM277 133.4c-.3.6-.9 1.2-1.6 1.9l-.5-.4c.7-.6 1.1-1.2 1.5-1.8.4-.7.6-1.4.6-2.2 0-.8-.2-1.5-.6-2.2-.3-.5-.8-1.1-1.5-1.8l.5-.5c.7.7 1.2 1.3 1.6 1.9.4.8.6 1.6.6 2.5 0 1-.2 1.8-.6 2.6zM394.3 480.6l-2.1 4.3-1-.6 2.3-4.2c.3.3.6.5.8.5zm-.4-3.4-.4.8c-.6-.4-1.2-.7-2-1.1l.4-.8c.8.4 1.4.7 2 1.1zm.8-3.1-.6.8c-.6-.5-1.2-1-1.9-1.4l.6-.7c.7.3 1.3.8 1.9 1.3zm7.5-1.2-1.1 2h2.8v.9h-4v1.9h3.1v.9h-3.1v2.2h4v.9h-4v3.5h-.9v-3.5h-4.1v-.9h4.1v-2.2h-3.3v-.9h3.3v-1.9h-3.8v-.9h4.9l1.3-2.5.8.5zm-3.9 1.3-.8.6c-.3-.6-.7-1.2-1.2-1.7l.8-.6c.5.7.9 1.3 1.2 1.7zM411.6 481.3V480h1v1.2h4.4v.8h-4.4v1.5h5.7v.8h-12.5v-.8h5.8V482h-4.3v-.8h4.3zm1-9v1.4h5.1v2.7h-1v.4h-5.3l-1.1 2.1c1.5-.1 2.9-.2 4.5-.3-.3-.3-.6-.5-1-.8l.7-.7c1.3 1 2.2 1.7 2.7 2.3l-.7.7-.8-.8c-3.3.3-6.1.5-8.5.6l-.2-.9c.7 0 1.4 0 2.2-.1l1.2-2.1h-3v-.4h-.9v-2.7h5.1v-1.4h1zm4.1 3.7v-1.3h-9.3v1.3h9.3zM424.9 483c-.6.5-1.3.8-2 .8-1.6 0-2.6-.8-3-2.5h1.2c.2 1.1.8 1.7 1.8 1.7.5 0 .9-.2 1.3-.5s.6-.7.6-1.2c0-1.3-.7-2-2.2-2-.3 0-.6 0-1.1.1v-.8h.7c1.5 0 2.2-.6 2.2-1.7 0-.4-.2-.8-.5-1.1-.3-.3-.7-.5-1.1-.5-.9 0-1.4.5-1.6 1.5h-1c.2-1.5 1.1-2.3 2.6-2.3.7 0 1.3.2 1.9.7.5.4.8 1 .8 1.7 0 .9-.5 1.5-1.3 2 1.1.6 1.6 1.4 1.6 2.5.1.5-.3 1.1-.9 1.6zM390.2 503.7c-.7-.7-1.2-1.3-1.6-1.9-.4-.8-.6-1.6-.6-2.5s.2-1.7.6-2.5c.3-.6.9-1.2 1.6-1.9l.5.5c-.7.6-1.2 1.2-1.5 1.8-.4.7-.6 1.4-.6 2.2 0 .8.2 1.5.6 2.2.3.5.8 1.1 1.5 1.8l-.5.3zM394.4 494.9l-1 1.9c.2.2.4.3.6.5l.9-1.6.6.4-1.7 2.7c.4 0 .9 0 1.4-.1-.1-.3-.3-.5-.4-.8l.5-.3c.4.6.6 1.1.8 1.5l-.5.4c0-.1-.1-.2-.1-.3-.4 0-.8.1-1.1.1v4h-.7v-3.9c-.5 0-1 .1-1.5.1l-.2-.6h1l.6-1c-.5-.4-1-.8-1.6-1.1l.4-.5c.1.1.3.2.4.3l.9-1.9.7.2zm-1.2 5.2c-.2.9-.4 1.7-.6 2.4-.2-.1-.4-.2-.6-.2.2-.7.4-1.5.6-2.3l.6.1zm2.6 1.7-.6.2c-.1-.6-.2-1.2-.4-1.8l.6-.2c.2.6.3 1.2.4 1.8zm1.9-7.1c-.2.7-.3 1.3-.4 1.7h3.1v3.8c0 1-.1 1.7-.2 2-.1.6-.8.9-2 .9 0-.3-.1-.6-.3-.8h1.1c.3 0 .5-.2.6-.5.1-.3.1-.9.2-1.9v-3H397c-.2.6-.4 1.1-.6 1.5-.2-.2-.4-.3-.6-.4.3-.6.5-1.2.7-1.9.2-.6.3-1.2.4-1.8l.8.4zm.9 5.4-.5.5c-.3-.5-.8-1.1-1.3-1.7l.5-.4c.5.5.9 1 1.3 1.6zM405.7 500.9v1.4h-.6v-1.4h-3v-.6l3-4.1h.5v4.2h.8v.6h-.7zm-.6-3.7-2.3 3.1h2.3v-3.1zM408.7 502.4h-.7l-.1-.1v-.6l.1-.1h.7l.1.1v.6l-.1.1zM413.8 501.8c-.4.4-.9.6-1.4.6-1.1 0-1.8-.5-2.1-1.6h.8c.2.7.7 1.1 1.3 1.1.4 0 .7-.1.9-.5.3-.3.4-.6.4-1s-.1-.7-.4-1c-.3-.3-.6-.5-1-.5-.5 0-.9.2-1.2.6l-.7-.2.3-3.2h3.2v.6h-2.6l-.2 2.1c.4-.3.9-.4 1.4-.4.5 0 1 .2 1.3.6.3.4.5.9.5 1.4.1.6-.1 1.1-.5 1.4zM417.4 496.2v-1.7h.7v1.7h1.4v4.5c0 .2 0 .3-.1.4-.1.1-.4.2-.8.2 0-.3-.1-.5-.2-.7h.3c.1 0 .2 0 .2-.1v-3.7h-.7v6.5h-.7v-6.5h-.7v4.5h-.8v-5.1h1.4zm4.9-1.6v1.8h2.1v.6h-2.1v2h1.7v4.2h-.6v-.5h-2.7v.6h-.6V499h1.6v-4.4h.6zm1.1 7.5v-2.5h-2.7v2.5h2.7zM427.9 501.7c-.3.6-.9 1.2-1.6 1.9l-.5-.4c.7-.6 1.1-1.2 1.5-1.8.4-.7.6-1.4.6-2.2 0-.8-.2-1.5-.6-2.2-.3-.5-.8-1.1-1.5-1.8l.5-.5c.7.7 1.2 1.3 1.6 1.9.4.8.6 1.6.6 2.5s-.1 1.9-.6 2.6zM371.6 112.3l-2.1 4.3-1-.6 2.3-4.2c.4.3.6.4.8.5zm-.3-3.4-.4.8c-.6-.4-1.2-.7-2-1.1l.4-.8c.7.3 1.4.7 2 1.1zm.7-3.2-.6.8c-.6-.5-1.2-1-1.9-1.4l.6-.7c.7.4 1.3.8 1.9 1.3zm7.5-1.1-1.1 2h2.8v.9h-4v1.9h3.1v.9h-3.1v2.2h4v.9h-4v3.5h-.9v-3.5h-4.1v-.9h4.1v-2.2H373v-.9h3.3v-1.9h-3.8v-.9h4.9l1.3-2.5.8.5zm-3.9 1.3-.8.6c-.3-.6-.7-1.2-1.2-1.7l.8-.6c.5.6.9 1.2 1.2 1.7zM388.9 112.9v-1.2h1v1.2h4.4v.8h-4.4v1.5h5.7v.8h-12.5v-.8h5.8v-1.5h-4.3v-.8h4.3zm1-9v1.4h5.1v2.7h-1v.4h-5.3l-1.1 2.1c1.5-.1 2.9-.2 4.5-.3-.3-.3-.6-.5-1-.8l.7-.7c1.3 1 2.2 1.7 2.7 2.3l-.7.7-.8-.8c-3.3.3-6.1.5-8.5.6l-.2-.9c.7 0 1.4 0 2.2-.1l1.2-2.1h-3v-.4h-.9v-2.7h5.1v-1.4h1zm4.1 3.7v-1.3h-9.3v1.3h9.3zM400.7 115.2v-7.9c-.7.4-1.3.6-1.9.8v-1c.7-.1 1.4-.4 1.9-.8h1v9h-1zM367.6 135.3c-.7-.7-1.2-1.3-1.6-1.9-.4-.8-.6-1.6-.6-2.5 0-.9.2-1.7.6-2.5.3-.6.9-1.2 1.6-1.9l.5.5c-.7.6-1.1 1.2-1.5 1.8-.4.7-.6 1.4-.6 2.2 0 .8.2 1.5.6 2.2.3.5.8 1.1 1.5 1.8l-.5.3zM371.7 126.6l-1 1.9c.2.2.4.3.6.5l.9-1.6.6.4-1.7 2.7c.4 0 .9 0 1.4-.1-.1-.3-.3-.5-.4-.8l.5-.3c.4.6.6 1.1.8 1.5l-.5.4c0-.1-.1-.2-.1-.3-.4 0-.8.1-1.1.1v4h-.7v-4c-.5 0-1 .1-1.5.1l-.2-.6h1l.6-1c-.5-.4-1-.8-1.6-1.1l.4-.5c.1.1.3.2.4.3l.9-1.9.7.3zm-1.2 5.2c-.2.9-.4 1.7-.6 2.4-.2-.1-.4-.2-.6-.2.2-.7.4-1.5.6-2.3l.6.1zm2.6 1.7-.6.2c-.1-.6-.2-1.2-.4-1.8l.6-.2c.2.6.3 1.2.4 1.8zm1.9-7.1c-.2.7-.3 1.3-.4 1.7h3.1v3.8c0 1-.1 1.7-.2 2-.1.6-.8.9-2 .9 0-.3-.1-.6-.3-.8h1.1c.3 0 .5-.2.6-.5.1-.3.1-.9.2-1.9v-3h-2.6c-.2.6-.4 1.1-.6 1.5-.2-.2-.4-.3-.6-.4.3-.6.5-1.2.7-1.9.2-.6.3-1.2.4-1.8l.6.4zm1 5.3-.5.5c-.3-.5-.8-1.1-1.3-1.7l.5-.4c.4.5.9 1.1 1.3 1.6zM383.1 133.5c-.4.4-.9.6-1.4.6-1.1 0-1.8-.5-2.1-1.6h.8c.2.7.7 1.1 1.3 1.1.4 0 .7-.1.9-.5.3-.3.4-.6.4-1s-.1-.7-.4-1c-.3-.3-.6-.5-1-.5-.5 0-.9.2-1.2.6l-.7-.2.3-3.2h3.2v.6h-2.6l-.2 2.1c.4-.3.9-.4 1.4-.4.5 0 1 .2 1.3.6.3.4.5.9.5 1.4.1.5-.1 1-.5 1.4zM386 134.1h-.7l-.1-.1v-.6l.1-.1h.7l.1.1v.6l-.1.1zM391.1 133.5c-.4.4-.9.6-1.4.6-1.1 0-1.8-.5-2.1-1.6h.8c.2.7.7 1.1 1.3 1.1.4 0 .7-.1.9-.5.3-.3.4-.6.4-1s-.1-.7-.4-1c-.3-.3-.6-.5-1-.5-.5 0-.9.2-1.2.6l-.7-.2.3-3.2h3.2v.6h-2.6l-.2 2.1c.4-.3.9-.4 1.4-.4.5 0 1 .2 1.3.6.3.4.5.9.5 1.4.1.5-.1 1-.5 1.4zM394.7 127.9v-1.7h.7v1.7h1.4v4.5c0 .2 0 .3-.1.4-.1.1-.4.2-.8.2 0-.3-.1-.5-.2-.7h.3c.1 0 .2 0 .2-.1v-3.7h-.7v6.5h-.7v-6.5h-.8v4.5h-.6v-5.1h1.3zm4.9-1.6v1.8h2.1v.6h-2.1v2h1.7v4.2h-.6v-.5H398v.6h-.6v-4.3h1.6v-4.4h.6zm1.1 7.5v-2.5H398v2.5h2.7zM405.2 133.4c-.3.6-.9 1.2-1.6 1.9l-.5-.4c.7-.6 1.1-1.2 1.5-1.8.4-.7.6-1.4.6-2.2 0-.8-.2-1.5-.6-2.2-.3-.5-.8-1.1-1.5-1.8l.5-.5c.7.7 1.2 1.3 1.6 1.9.4.8.6 1.6.6 2.5.1 1-.1 1.8-.6 2.6zM262.2 460.2v-10.5h1.2v9.5h6.5v1h-7.7zM278.8 458.9c-1.1.9-2.5 1.3-4.3 1.3h-3v-10.5h3.5c1.6 0 2.9.5 4 1.4 1 1 1.6 2.2 1.6 3.8 0 1.7-.6 3.1-1.8 4zm-.8-7.1c-.8-.7-1.9-1-3.3-1h-2.1v8.5h2.3c1.3 0 2.3-.4 3.1-1.2.8-.8 1.2-1.8 1.2-3.1.1-1.4-.3-2.5-1.2-3.2zM289.5 460.2l-4-5.9-2.3 1.9v4h-1.1v-10.5h1.1v5.2l6-5.2h1.6l-4.5 3.9 4.8 6.6h-1.6zM255.5 486.4c-.7-.7-1.2-1.3-1.6-1.9-.4-.8-.6-1.6-.6-2.5 0-.9.2-1.7.6-2.5.3-.6.9-1.2 1.6-1.9l.5.5c-.7.6-1.2 1.2-1.5 1.8-.4.7-.6 1.4-.6 2.2 0 .8.2 1.5.6 2.2.3.5.8 1.1 1.5 1.8l-.5.3zM259.6 477.7l-1 1.9c.2.2.4.3.6.5l.9-1.6.6.4-1.7 2.7c.4 0 .9 0 1.4-.1-.1-.3-.3-.5-.4-.8l.5-.3c.4.6.6 1.1.8 1.5l-.5.4c0-.1-.1-.2-.1-.3-.4 0-.8.1-1.1.1v4h-.7v-3.9c-.5 0-1 .1-1.5.1l-.2-.6h1l.6-1c-.5-.4-1-.8-1.6-1.1l.4-.5c.1.1.3.2.4.3l.9-1.9.7.2zm-1.1 5.2c-.2.9-.4 1.7-.6 2.4-.2-.1-.4-.2-.6-.2.2-.7.4-1.5.6-2.3l.6.1zm2.6 1.7-.6.2c-.1-.6-.2-1.2-.4-1.8l.6-.2c.1.6.3 1.2.4 1.8zm1.8-7.1c-.2.7-.3 1.3-.4 1.7h3.1v3.8c0 1-.1 1.7-.2 2-.1.6-.8.9-2 .9 0-.3-.1-.6-.3-.8h1.1c.3 0 .5-.2.6-.5.1-.3.1-.9.2-1.9v-3h-2.6c-.2.6-.4 1.1-.6 1.5-.2-.2-.4-.3-.6-.4.3-.6.5-1.2.7-1.9.2-.6.3-1.2.4-1.8l.6.4zm1 5.3-.5.5c-.3-.5-.8-1.1-1.3-1.7l.5-.4c.5.5.9 1.1 1.3 1.6zM269.9 485v-5.4c-.5.3-.9.4-1.3.5v-.7c.5-.1.9-.2 1.3-.5h.7v6.1h-.7zM276.4 484.6c-.4.4-.9.5-1.4.5-1.1 0-1.8-.6-2.1-1.7h.8c.2.8.6 1.2 1.2 1.2.3 0 .6-.1.9-.3.3-.2.4-.5.4-.8 0-.9-.5-1.4-1.5-1.4h-.7v-.6h.5c1 0 1.5-.4 1.5-1.2 0-.3-.1-.6-.3-.8-.2-.2-.5-.3-.8-.3-.6 0-1 .4-1.1 1.1h-.7c.2-1 .8-1.6 1.8-1.6.5 0 .9.2 1.3.5s.5.7.5 1.2c0 .6-.3 1.1-.9 1.4.7.4 1.1 1 1.1 1.7.2.4-.1.8-.5 1.1zM279.4 485.2h-.7l-.1-.1v-.6l.1-.1h.7l.1.1v.6l-.1.1zM284.5 484.8c-.4.3-.9.4-1.5.4s-1.1-.1-1.5-.4c-.5-.3-.7-.7-.7-1.2 0-.4.1-.8.3-1.1.2-.2.5-.5 1-.8-.4-.2-.7-.4-.9-.6-.2-.2-.3-.5-.3-.8 0-.5.2-.9.6-1.2.4-.2.8-.4 1.4-.4.5 0 .9.1 1.3.4.3.3.5.7.5 1.2 0 .4-.1.6-.2.8-.2.2-.4.4-.8.6.5.2.9.5 1.1.7.2.3.4.6.4 1.1 0 .6-.2 1-.7 1.3zm-.6-2.2c-.2-.1-.5-.3-1-.6-.5.2-.8.4-.9.6-.3.3-.4.6-.4 1s.2.7.5.9c.3.1.6.2 1 .2s.7-.1 1-.3c.3-.2.5-.5.5-.8-.1-.4-.3-.7-.7-1zm-.1-3.1c-.2-.2-.5-.3-.8-.3-.3 0-.6.1-.9.3-.3.2-.4.5-.4.8 0 .3.1.5.4.7.2.1.4.3.8.4l.8-.4c.3-.2.4-.5.4-.7 0-.3-.1-.5-.3-.8zM288.1 479v-1.7h.7v1.7h1.4v4.5c0 .2 0 .3-.1.4-.1.1-.4.2-.8.2 0-.3-.1-.5-.2-.7h.3c.1 0 .2 0 .2-.1v-3.7h-.7v6.5h-.7v-6.5h-.7v4.5h-.6V479h1.2zm5-1.6v1.8h2.1v.6h-2.1v2h1.7v4.2h-.6v-.5h-2.7v.6h-.6v-4.3h1.6v-4.4h.6zm1 7.5v-2.5h-2.7v2.5h2.7zM298.7 484.5c-.3.6-.9 1.2-1.6 1.9l-.5-.4c.7-.6 1.1-1.2 1.5-1.8.4-.7.6-1.4.6-2.2 0-.8-.2-1.5-.6-2.2-.3-.5-.8-1.1-1.5-1.8l.5-.5c.7.7 1.2 1.3 1.6 1.9.4.8.6 1.6.6 2.5 0 1-.2 1.8-.6 2.6zM263.7 288.9l-.1.1c.5.5 1 .8 1.6 1.1.6.3 1.2.6 1.9.8-.1.1-.2.2-.4.5-.6-.2-1.3-.5-1.8-.9-.5-.3-1.1-.7-1.6-1.2-.4.4-.9.8-1.4 1.1-.7.5-1.3.8-1.7 1-.1-.2-.3-.3-.4-.4.7-.3 1.3-.6 1.8-1 .6-.4 1.1-.9 1.6-1.4l.5.3zm-.2 1.3v.8h1.9v2.8h-2.1c.2.3.5.6.9.9.7-.3 1.3-.7 1.7-1l.4.5c-.5.3-1.1.6-1.6.8.6.3 1.3.5 2.1.6-.1.2-.2.4-.3.5-1-.2-1.9-.5-2.5-1-.6-.4-1-.8-1.3-1.4h-1.1v1.4c.5-.1 1.1-.1 1.7-.2v.5c-1.2.2-2.3.3-3.4.5l-.1-.6c.4 0 .9-.1 1.3-.2v-4.3h1.9v-.8h.5zm1.4 2v-.6h-3.3v.6h3.3zm0 1.1v-.7h-3.3v.7h3.3zM270.7 291.6c.2-.2.4-.5.6-.7l.6.2c-.1.2-.3.4-.4.5h3.6v.5h-2.3c.3.2.5.5.8.7.4.3 1 .5 1.7.7-.2.2-.4.4-.4.5-.2-.1-.3-.1-.5-.2v2.2h-.5v-.4h-1.3v.4h-.5v-2.4h1.8c-.3-.1-.5-.3-.7-.4-.4-.3-.8-.6-1-1H271c-.3.3-.5.5-.8.7-.3.3-.7.5-1.1.7h1.8v2.5h-.5v-.4h-1.3v.4h-.5v-2.2c-.2.1-.4.2-.5.3-.1-.2-.2-.3-.4-.5.8-.3 1.5-.7 2.1-1.1.2-.1.3-.3.5-.4H268v-.5h2.7zm-2.1-.6v-2h2.3v2h-2.3zm.5-.6h1.2v-1h-1.2v1zm1.3 4.8v-1.1h-1.3v1.1h1.3zm1.7-4.2v-2h2.4v2h-2.4zm.5-.6h1.3v-1h-1.3v1zm1.3 4.8v-1.1h-1.3v1.1h1.3zM277.1 290.5v-1.8h.5v1.8h.9v.5h-.9v.7l.4.4c.1.1.3.2.5.4-.1.2-.2.3-.3.5-.2-.2-.4-.3-.5-.4 0 0-.1 0-.1-.1v3.7h-.5v-3.7c-.1.3-.2.5-.3.8-.2.4-.4.7-.5.8-.1-.2-.2-.4-.3-.5.3-.4.5-.7.7-1.1.2-.3.3-.7.5-1.3h-.9v-.5h.8zm3.4-1.4v6.1c0 .2 0 .3-.1.4-.1.1-.4.2-.8.2 0-.2-.1-.4-.2-.5h.4c.1 0 .2 0 .2-.1v-1.8h-.8c0 .3-.1.5-.1.8-.1.7-.3 1.3-.6 1.8-.1-.2-.2-.4-.4-.5.3-.5.5-1 .6-1.6.1-.5.1-1.2.1-1.9v-2.8h1.7zm-.5 3.7v-1.3h-.8v1.4h.8zm0-1.8v-1.4h-.8v1.4h.8zm3-1.9v6.3c0 .2 0 .3-.1.4-.1.1-.4.1-.9.2 0-.2-.1-.4-.2-.5h.4c.2 0 .2 0 .2-.1v-2h-.9c0 .4-.1.7-.1 1-.1.7-.3 1.2-.5 1.7-.1-.2-.2-.4-.4-.5.2-.4.3-1 .4-1.5 0-.5.1-1.1.1-1.8v-3.1h2zm-.5 3.7v-1.3h-.9v1.4h.9zm0-1.8v-1.4h-.9v1.4h.9zM205.6 283.5l-1.1 2.6-.5-.3 1.2-2.6c.1.1.2.2.4.3zm-.1-2.9-.4.5c-.3-.3-.6-.5-1.1-.7l.3-.5c.5.2.9.4 1.2.7zm3.1-1.1c0 .1-.1.1-.1.1.4.6.8 1 1.2 1.4.4.4.9.8 1.5 1.1-.2.2-.3.3-.4.5-.4-.2-.8-.5-1.2-.9-.5-.4-.9-.9-1.4-1.6-.3.5-.6.9-1 1.3-.5.5-1 1-1.5 1.3-.1-.2-.2-.3-.3-.5.5-.3.9-.6 1.4-1.1.5-.5.9-1.1 1.3-1.8l.5.2zm1.7 3.9v2c0 .3-.1.4-.2.5-.1.1-.4.1-.9.2 0-.2-.1-.4-.2-.6h.7c.1 0 .1 0 .1-.2v-1.5H208v2.9h-.6v-2.9h-1.5v-.5h4.4zm-.9-1.4v.5h-2.5v-.5h2.5zM214.2 279.9v-.5h.5v.5h1.9v-.5h.5v.5h2v.4h-2v.6h.3v.6h1.8v.5h-1.8c0 .8 0 1.4.1 1.7 0 .3.1.6.1.8.3-.4.6-1 .9-1.7l.5.2c-.4.8-.8 1.5-1.2 2.1.1.2.1.3.2.4.2.3.3.4.4.4.1 0 .3-.2.5-.7.1.1.3.2.4.2-.2.5-.3.9-.5 1-.1.1-.2.2-.3.2-.3 0-.5-.1-.7-.4-.2-.2-.4-.4-.5-.7-.5.5-1.1.9-1.6 1.1-.1-.2-.2-.3-.4-.4.3-.1.6-.3.8-.5.3-.2.6-.5.9-.7l-.3-1.2c-.1-.4-.1-1-.1-1.8H213v1c0 .8-.1 1.5-.2 1.9-.1.5-.4 1.1-.7 1.6-.1-.1-.3-.3-.5-.3.3-.4.5-.9.7-1.4.1-.4.2-.9.2-1.7v-1.4h4.1v-.6h-.3v-.6h-1.9v.6h-.5v-.6h-2v-.4h2.3zm2.2 3h-1v.5h1v1.3h-1v.6h1v.4h-2.1v.4h-.5v-3.6h2.6v.4zm-1.4.6v-.5h-.7v.5h.7zm1 .9v-.6h-1.7v.6h1.7zm-1 1v-.6h-.7v.6h.7zm3.9-4.2-.3.3c-.2-.2-.5-.5-.8-.7l.3-.3c.4.4.6.6.8.7zM224.3 279.3v.7h3v.5h-6v2.7c0 .8 0 1.5-.1 1.9-.1.5-.3 1-.6 1.6-.1-.2-.3-.3-.5-.4.3-.4.5-.9.6-1.4.1-.3.1-.9.1-1.7V280h2.9v-.7h.6zm0 2v-.6h.5v.6h2.3v.5h-2.3v.5h1.9v2.4h-1.9v.6h2.8v.5h-2.8v1h-.5v-1h-2.7v-.5h2.7v-.6h-1.9v-2.4h1.9v-.5H222v-.5h2.3zm-1.4 2h1.3v-.5h-1.3v.5zm1.4.4H223v.5h1.3v-.5zm.5-.4h1.4v-.5h-1.4v.5zm0 .4v.5h1.4v-.5h-1.4zM211.9 291.1v.6h3.3v.4h-3.3v.5h2.1v2.7h-4.2v-2.7h1.5v-.5h-3.5v-.4h3.5v-.6h-2.8v-1.7h6v1.7h-2.6zm-2.9 1.7v3h6.2v.5H209v.4h-.5v-3.8h.5zm.1-2.1h1.3v-.8h-1.3v.8zm1.3 2.7h3.1v-.4h-3.1v.4zm0 .4v.4h3.1v-.4h-3.1zm0 .7v.4h3.1v-.4h-3.1zm.5-3.8h1.4v-.8h-1.4v.8zm1.9 0h1.3v-.8h-1.3v.8zM217 291.4v-2h.5v2h.8v.5h-.8v2.4l.9-.3v.4c.3-.2.5-.4.7-.6.2-.2.4-.5.5-.8h-1.2v-.5h5.2v.5h-3.3c-.1.2-.2.4-.4.6h3.3c0 1 0 1.7-.1 2.1-.1.4-.2.6-.3.7-.1.1-.5.2-1 .2 0-.2-.1-.4-.2-.5h.7c.1 0 .2-.1.3-.4.1-.3.1-.8.1-1.5h-.5c-.3.7-.6 1.2-1 1.6-.4.4-.8.7-1.2.9-.1-.1-.2-.3-.4-.4.5-.2.9-.5 1.2-.9.3-.3.5-.7.8-1.2h-.7c-.2.5-.5.8-.8 1.1-.4.3-.7.5-1.1.7-.1-.1-.2-.3-.4-.4.4-.2.7-.4 1-.7.2-.2.4-.4.6-.8h-.7c-.3.3-.6.6-1.1.9-.1-.1-.2-.3-.3-.4-.7.2-1.3.4-1.9.6l-.1-.6c.3-.1.6-.2 1-.3v-2.6h-.8v-.5h.7zm2.3.6v-2.6h3.5v2.6h-3.5zm.6-1.6h2.4v-.5h-2.4v.5zm0 .5v.5h2.4v-.5h-2.4zM430.1 285.1l-.9 1.8-.4-.2 1-1.8c.1.1.2.1.3.2zm-.2-1.3-.2.3c-.2-.2-.5-.4-.8-.5l.2-.3c.3.1.6.3.8.5zm.3-1.3-.2.3c-.2-.3-.5-.5-.7-.6l.2-.3c.2.2.4.4.7.6zm1.1-.3c-.1.3-.2.5-.3.7h.8v-1h.4v1h1.4v.3h-1.4v1h1.7v.3h-1.2v1.8c0 .1 0 .1.1.1h.6c.1 0 .2-.1.2-.1.1-.1.1-.2.1-.4.1.1.2.1.4.1 0 .2-.1.4-.2.6-.1.2-.2.2-.4.2h-.7c-.3 0-.4-.2-.4-.5v-1.8h-.8c0 .7-.1 1.2-.3 1.5-.2.3-.6.6-1.1.8-.1-.1-.1-.3-.2-.4.5-.2.9-.5 1-.8.1-.3.2-.6.2-1.1h-1.1v-.3h1.7v-1h-1c-.1.3-.3.5-.4.7-.1-.1-.2-.2-.3-.2.2-.3.4-.5.5-.8.1-.3.2-.5.3-.8l.4.1zM435.5 283.6l-.2.3c-.2-.1-.5-.2-.7-.3l.1-.3c.3.1.6.2.8.3zm.3 1.5-.8 1.8-.3-.2.8-1.8c.1.1.2.2.3.2zm0-2.7-.2.3c-.2-.2-.4-.4-.6-.5l.2-.3c.2.2.4.3.6.5zm1.3 1.5c-.1.1-.1.2-.2.3h1c.1-.1.2-.3.3-.5l.3.1c-.1.1-.1.3-.2.4h1.3v.3h-1.4v.4h1.3v.3h-1.3v.4h1.3v.3h-1.3v.5h1.5v.3h-2.9v.2h-.4v-2.1l-.4.4c-.1-.1-.1-.2-.2-.3.2-.1.4-.3.6-.5.2-.2.3-.4.5-.7l.2.2zm.5-1.9v1.8h-.4v-.1h-1.1v-.3h1.1v-.4h-1.1v-.3h1.1v-.4h-1.1v-.3h1.5zm.2 2.5h-1.1v.4h1.1v-.4zm0 .7h-1.1v.4h1.1v-.4zm0 1.2v-.5h-1.1v.5h1.1zm1.7-4.4v1.8h-.4v-.1h-1.2v-.3h1.2v-.4h-1.2v-.3h1.2v-.4h-1.2v-.3h1.6zM441.1 283v-1.2h.4v1.2h.5v.4h-.5v.6c.1.1.1.2.2.2l.3.3c-.1.1-.2.2-.2.3l-.3-.3v2.5h-.4v-2.4c-.1.4-.3.7-.5 1-.1-.1-.1-.2-.2-.3.2-.3.3-.6.4-.9.1-.2.2-.5.2-.9h-.6v-.5h.7zm1.9-1-.5.9.2.2.3-.5.3.2-.7 1.1h.4c0-.1-.1-.2-.1-.3l.3-.1c.1.2.3.5.4.7-.1-.5-.1-1.3-.1-2.4h.4v1l.2-.2c.1 0 .1.1.2.1l.3-.8.3.2-.4.8.2.2.3-.5.3.2-.7 1.1h.4c0-.1-.1-.2-.1-.2l.3-.1c.1.2.2.5.3.8l-.4.1c0-.1 0-.1-.1-.2-.4.1-.8.1-1.1.1l-.1-.4h.2l.3-.5c-.2-.2-.4-.4-.7-.5 0 .7.1 1.2.1 1.6v.2h.6c0-.1-.1-.2-.1-.3l.3-.1c.1.1.2.3.2.4h.5v.4h-1.4c0 .2.1.4.2.5 0 .1.1.2.2.3.2-.2.4-.4.5-.6l.3.2c-.1.2-.3.4-.6.6.2.2.3.3.4.3 0 0 .1-.1.2-.5.1.1.2.1.4.2-.1.4-.2.6-.3.6 0 .1-.1.1-.2.1-.2 0-.5-.1-.7-.3l-.2-.2c-.4.3-.8.4-1.2.6 0-.1-.1-.2-.2-.4.4-.1.7-.3 1.1-.5h.1c-.1-.1-.1-.2-.2-.4s-.2-.5-.2-.7h-.4c0 .2-.1.3-.1.4.3.1.5.3.7.5l-.2.3c-.2-.2-.4-.3-.6-.4 0 .1-.1.2-.1.3-.1.3-.3.6-.6.9l-.3-.3c.2-.2.4-.5.5-.8.1-.2.2-.5.3-.8h-.6v-.4h1.7V284.4l-.4.1c0-.1 0-.1-.1-.2-.4.1-.8.1-1.1.1l-.1-.4h.2l.3-.5c-.2-.2-.5-.4-.7-.6l.2-.3c.1.1.2.1.2.2l.4-.9.4.1zM434.6 290v.4h2.3v.3h-2.3v.4h1.5v1.9h-2.9v-2h1.1v-.4h-2.4v-.3h2.4v-.3h-2v-1.2h4.2v1.2h-1.9zm-2.1 1.2v2.1h4.4v.3h-4.4v.3h-.4v-2.7h.4zm.1-1.5h.9v-.6h-.9v.6zm.9 1.9h2.2v-.3h-2.2v.3zm0 .2v.3h2.2v-.3h-2.2zm0 .6v.3h2.2v-.3h-2.2zm.4-2.7h1v-.6h-1v.6zm1.3 0h.9v-.6h-.9v.6zM438.1 290.2v-1.4h.4v1.4h.6v.4h-.6v1.7c.2-.1.4-.1.6-.2v.3c.2-.1.3-.3.5-.4.1-.2.3-.3.4-.6h-.9v-.4h3.6v.4h-2.3c-.1.2-.2.3-.2.4h2.3c0 .7 0 1.2-.1 1.5-.1.2-.1.4-.2.5-.1.1-.3.1-.7.1 0-.1 0-.3-.1-.4h.5c.1 0 .1-.1.2-.3 0-.2.1-.6.1-1.1h-.4c-.2.5-.4.8-.7 1.1-.3.3-.6.5-.9.6 0-.1-.1-.2-.2-.3l.9-.6c.2-.2.4-.5.5-.9h-.5c-.2.3-.4.6-.6.8-.3.2-.5.4-.7.5 0-.1-.1-.2-.2-.3.3-.1.5-.3.7-.5.1-.1.3-.3.4-.5h-.5c-.2.2-.4.4-.8.6-.1-.1-.1-.2-.2-.3-.5.2-.9.3-1.4.4l-.1-.4c.2 0 .4-.1.7-.2v-1.8h-.6v-.4h.5zm1.7.4v-1.8h2.4v1.8h-2.4zm.3-1.1h1.7v-.4h-1.7v.4zm0 .3v.4h1.7v-.4h-1.7zM374.6 316.3l-2.1 4.4-.9-.5 2.2-4.4c.3.3.6.5.8.5zm-.5-2.9-.5.8c-.5-.5-1.1-.9-1.8-1.3l.4-.8c.7.4 1.4.8 1.9 1.3zm.6-3.3-.5.8c-.6-.6-1.2-1-1.8-1.4l.5-.7c.7.3 1.3.8 1.8 1.3zm5.1 1.2c-.1.1-.1.2-.2.3.7.8 1.4 1.5 2.1 2 .8.6 1.7 1.1 2.7 1.6-.3.3-.5.6-.7.9-.7-.3-1.4-.8-2.2-1.4-.8-.6-1.6-1.4-2.5-2.3-.5.7-1.1 1.3-1.6 1.9-.9.8-1.6 1.4-2.2 1.8-.2-.3-.4-.6-.6-.8.8-.5 1.6-1.1 2.3-1.9.7-.7 1.4-1.5 2-2.6l.9.5zm-1.4-2.2c-.8 1.1-1.7 1.9-2.8 2.6-.1-.3-.4-.6-.7-.8 1.1-.6 2-1.4 2.7-2.5l.8.7zm3.8 11.4h-.9v-.7h-3.8v.9h-.9v-5.4h5.7v5.2zm-.9-1.5v-2.8h-3.8v2.8h3.8zm.8-9.4c.4.3.9.6 1.4.7-.2.2-.4.5-.6.8-.6-.3-1.1-.6-1.6-1s-.9-.7-1.2-1l.5-.7c.6.5 1 .9 1.5 1.2zM390.2 317.1v-1.2h1v1.2h4.3v.8h-4.3v1.5h5.5v.8h-12.1v-.8h5.7v-1.5H386v-.8h4.2zm1-8.8v1.4h4.9v2.7h-1v.4H390l-1.1 2c1.4-.1 2.9-.2 4.3-.3-.3-.3-.6-.5-.9-.7l.7-.7c1.2.9 2.1 1.7 2.7 2.2l-.7.7-.8-.8c-3.2.3-6 .5-8.3.6l-.2-.9c.7 0 1.4 0 2.1-.1l1.2-2h-3v-.4h-.9v-2.7h4.9v-1.4h1.2zm3.9 3.6v-1.3h-9v1.3h9zM372.3 330.4c-.8-.7-1.3-1.4-1.7-2.1-.5-.8-.7-1.7-.7-2.7 0-1 .2-1.9.7-2.7.4-.6.9-1.3 1.7-2.1l.5.5c-.7.7-1.2 1.3-1.6 1.9-.4.7-.6 1.6-.6 2.4 0 .9.2 1.7.6 2.4.3.6.9 1.2 1.6 1.9l-.5.5zM376.2 328.9V323c-.5.3-1 .5-1.4.6v-.8c.5-.1 1-.3 1.4-.6h.8v6.7h-.8zM382.7 327.4v1.5h-.6v-1.5h-3.2v-.6l3.3-4.5h.5v4.5h.9v.6h-.9zm-.6-4.1-2.5 3.4h2.5v-3.4zM386.9 328.9V323c-.5.3-1 .5-1.4.6v-.8c.5-.1 1-.3 1.4-.6h.8v6.7h-.8zM393.6 328.6c-.4.3-1 .4-1.6.4-.6 0-1.2-.1-1.6-.4-.5-.3-.8-.8-.8-1.3s.1-.9.3-1.2c.2-.3.6-.5 1.1-.8-.5-.2-.8-.4-.9-.7-.2-.2-.3-.5-.3-.9 0-.6.2-1 .7-1.3.4-.3.9-.4 1.5-.4s1 .2 1.4.5c.4.3.6.7.6 1.2 0 .4-.1.7-.2.9-.2.2-.5.4-.9.7.6.3 1 .5 1.2.8.3.3.4.7.4 1.2-.2.6-.4 1-.9 1.3zm-.6-2.4c-.2-.1-.6-.4-1.1-.6-.5.2-.8.4-1 .6-.3.3-.5.6-.5 1s.2.7.5.9c.3.2.6.2 1.1.2.4 0 .7-.1 1.1-.3.4-.2.5-.5.5-.9s-.2-.5-.6-.9zm-.2-3.2c-.2-.2-.5-.3-.8-.3-.4 0-.7.1-.9.3-.3.2-.4.5-.4.9 0 .3.1.6.4.8.2.1.5.3.9.4.2-.1.5-.2.8-.4.3-.2.4-.5.4-.8-.1-.4-.2-.7-.4-.9zM397.2 328.3c-.4.7-.9 1.3-1.7 2.1l-.5-.5c.7-.7 1.2-1.3 1.6-1.9.4-.7.6-1.5.6-2.4 0-.9-.2-1.7-.6-2.4-.3-.6-.9-1.2-1.6-1.9l.5-.5c.8.7 1.3 1.4 1.7 2.1.5.8.7 1.7.7 2.7 0 1-.3 1.9-.7 2.7zM408.8 196.6c-.2.5-.5 1-.9 1.4l-.3-.3c.6-.7 1-1.6 1.3-2.8l.4.2c-.1.6-.3 1.1-.5 1.5zm2.7 1.2c-.3-1-.8-1.9-1.3-2.8l.3-.2c.6.9 1.1 1.9 1.5 2.8l-.5.2zM414.6 197.2c-.5.4-1.1.8-1.9 1.1l-.2-.4c1.3-.4 2.5-1.3 3.4-2.5l.3.3c-.6.6-1.1 1.1-1.6 1.5zm-1-1.5c-.4-.3-.7-.6-1.1-.8l.2-.3c.4.2.8.5 1.1.8l-.2.3zM420.3 196.6c0 .5-.1.9-.1 1.2 0 .1-.1.2-.2.3-.1.1-.4.1-.8.2 0-.1-.1-.2-.1-.4h.4c.1 0 .3-.1.3-.2.1-.1.1-.4.1-.8v-1.1h-1.1c-.1.6-.3 1.2-.5 1.6-.3.4-.7.8-1.2 1.1l-.3-.3c.5-.3.9-.6 1.1-.9.3-.4.4-.8.5-1.4h-1.2v-.4h1.3v-1h.4v1h1.6l-.2 1.1zm0-1.4-.5-.5.2-.2c.2.2.4.3.6.5l-.3.2zm.3-.4-.5-.5.2-.2c.2.2.4.3.6.5l-.3.2zM421 196.5v-.3h3.8v.3H421zM426.4 196.6c-.2.5-.5 1-.9 1.4l-.3-.3c.6-.7 1-1.6 1.3-2.8l.4.2c-.1.6-.3 1.1-.5 1.5zm2.7 1.2c-.3-1-.8-1.9-1.3-2.8l.3-.2c.6.9 1.1 1.9 1.5 2.8l-.5.2zm.3-2.6c-.1.1-.2.2-.3.2-.1 0-.3 0-.3-.1-.1-.1-.1-.2-.1-.3 0-.1 0-.3.1-.3.1-.1.2-.1.3-.1.1 0 .2 0 .3.1.1.1.1.2.1.3 0 0 0 .1-.1.2zm-.1-.6s-.1-.1-.2-.1c-.2 0-.3.1-.3.3 0 .1 0 .1.1.2 0 .1.1.1.2.1s.1 0 .2-.1c0 0 .1-.1.1-.2-.1 0-.1-.1-.1-.2zM432.3 195.7v2.7h-.4V196c-.6.5-1.2.9-1.8 1.1-.1-.1-.1-.3-.2-.4.6-.2 1.2-.6 1.8-1.1.5-.4 1-.9 1.5-1.4l.4.3c-.5.5-.9.9-1.3 1.2zM436.6 197.2c-.4.5-1 .9-1.9 1.2 0-.1-.1-.2-.2-.4.7-.2 1.3-.6 1.7-1 .4-.4.7-1 1-1.8h-3v-.4h3.2l.3.3c-.4.9-.8 1.6-1.1 2.1zm1.6-2.4c-.1.1-.2.2-.3.2-.1 0-.3 0-.3-.1-.1-.1-.1-.2-.1-.3 0-.1 0-.3.1-.3.1-.1.2-.1.3-.1.1 0 .2 0 .3.1.1.1.1.2.1.3 0 0 0 .1-.1.2zm-.2-.5s-.1-.1-.2-.1c-.2 0-.3.1-.3.3 0 .1 0 .1.1.2 0 .1.1.1.2.1s.1 0 .2-.1c0 0 .1-.1.1-.2s0-.2-.1-.2zM206.3 228.7c-.1.5-.3 1-.5 1.4-.1-.1-.1-.2-.2-.3.3-.7.6-1.6.8-2.8l.2.2c-.1.6-.2 1.2-.3 1.5zm1.7 1.3c-.2-1-.5-1.9-.8-2.8l.2-.2c.4.9.7 1.9.9 2.8l-.3.2zM209.8 229.3c-.3.4-.7.8-1.1 1.1l-.1-.4c.8-.4 1.5-1.3 2.1-2.5 0 .1.1.2.2.3-.5.7-.8 1.2-1.1 1.5zm-.6-1.5c-.2-.3-.4-.6-.6-.8l.1-.3c.2.2.5.5.7.8l-.2.3zM213.2 228.7c0 .5 0 .9-.1 1.2 0 .1-.1.2-.1.3-.1.1-.2.1-.5.2 0-.1 0-.2-.1-.4h.2c.1 0 .2-.1.2-.2s.1-.4.1-.8v-1.1h-.7c-.1.6-.2 1.2-.3 1.6-.2.4-.4.8-.7 1.1 0-.1-.1-.2-.2-.3.3-.3.5-.6.7-.9.2-.4.2-.8.3-1.4h-.7v-.4h.8v-1h.2v1h.9v1.1zm0-1.4c-.1-.1-.2-.3-.3-.5l.1-.2c.1.2.3.3.3.5l-.1.2zm.2-.4c-.1-.1-.2-.3-.3-.5l.1-.2c.1.2.3.3.3.5l-.1.2zM213.7 228.7v-.3h2.3v.3h-2.3zM216.9 228.7c-.1.5-.3 1-.5 1.4-.1-.1-.1-.2-.2-.3.3-.7.6-1.6.8-2.8l.2.2c-.1.6-.2 1.2-.3 1.5zm1.6 1.3c-.2-1-.5-1.9-.8-2.8l.2-.2c.4.9.7 1.9.9 2.8l-.3.2zm.2-2.7c-.1.1-.1.2-.2.2s-.2 0-.2-.1c-.1-.1-.1-.2-.1-.3 0-.1 0-.3.1-.3.1-.1.1-.1.2-.1s.1 0 .2.1.1.2.1.3-.1.1-.1.2zm-.1-.5-.1-.1c-.1 0-.2.1-.2.3 0 .1 0 .1.1.2 0 .1.1.1.1.1s.1 0 .1-.1v-.4zM220.4 227.9v2.7h-.2v-2.4c-.4.5-.7.9-1.1 1.1 0-.1-.1-.3-.1-.4.3-.2.7-.6 1.1-1.1.3-.4.6-.9.9-1.4l.2.3c-.3.5-.6.8-.8 1.2zM223 229.3c-.2.5-.6.9-1.1 1.2 0-.1-.1-.2-.1-.4.4-.2.8-.6 1-1 .2-.4.4-1 .6-1.8h-1.8v-.3h1.9l.2.3c-.3.9-.5 1.6-.7 2zm.9-2.4c-.1.1-.1.2-.2.2s-.2 0-.2-.1c-.1-.1-.1-.2-.1-.3 0-.1 0-.3.1-.3.1-.1.1-.1.2-.1s.1 0 .2.1.1.2.1.3c0 0 0 .1-.1.2zm0-.5-.1-.1c-.1 0-.2.1-.2.3 0 .1 0 .1.1.2 0 .1.1.1.1.1s.1 0 .1-.1v-.4zM394.5 397.5c-.2.5-.5 1-.9 1.4l-.3-.3c.6-.7 1-1.6 1.3-2.8l.4.2c-.2.6-.4 1.1-.5 1.5zm2.7 1.3c-.3-1-.8-1.9-1.3-2.8l.3-.2c.6.9 1.1 1.9 1.5 2.8l-.5.2zM400.3 398.1c-.5.4-1.1.8-1.9 1.1l-.2-.4c1.3-.4 2.5-1.3 3.4-2.5l.3.3c-.6.7-1.2 1.2-1.6 1.5zm-1.1-1.5c-.4-.3-.7-.6-1.1-.8l.2-.3c.4.2.8.5 1.1.8l-.2.3zM405.9 397.5c0 .5-.1.9-.1 1.2 0 .1-.1.2-.2.3-.1.1-.4.1-.8.2 0-.1-.1-.2-.1-.4h.4c.1 0 .3-.1.3-.2.1-.1.1-.4.1-.8v-1.1h-1.1c-.1.6-.3 1.2-.5 1.6-.3.4-.7.8-1.2 1.1l-.3-.3c.5-.3.9-.6 1.1-.9.3-.4.4-.8.5-1.4h-1.2v-.4h1.3v-1h.4v1h1.6l-.2 1.1zm0-1.4-.5-.5.2-.2c.2.2.4.3.6.5l-.3.2zm.4-.4-.5-.5.2-.2c.2.2.4.3.6.5l-.3.2zM406.7 397.4v-.3h3.8v.3h-3.8zM412 397.5c-.2.5-.5 1-.9 1.4l-.3-.3c.6-.7 1-1.6 1.3-2.8l.4.2c-.1.6-.3 1.1-.5 1.5zm2.7 1.3c-.3-1-.8-1.9-1.3-2.8l.3-.2c.6.9 1.1 1.9 1.5 2.8l-.5.2zm.3-2.7c-.1.1-.2.2-.3.2-.1 0-.3 0-.3-.1-.1-.1-.1-.2-.1-.3 0-.1 0-.3.1-.3.1-.1.2-.1.3-.1.1 0 .2 0 .3.1.1.1.1.2.1.3.1 0 0 .1-.1.2zm-.1-.5s-.1-.1-.2-.1c-.2 0-.3.1-.3.3 0 .1 0 .1.1.2 0 .1.1.1.2.1s.1 0 .2-.1c0 0 .1-.1.1-.2s-.1-.2-.1-.2zM418 396.6v2.7h-.4v-2.4c-.6.5-1.2.9-1.8 1.1-.1-.1-.1-.3-.2-.4.6-.2 1.2-.6 1.8-1.1.5-.4 1-.9 1.5-1.4l.4.3c-.6.6-1 .9-1.3 1.2zM422.2 398.1c-.4.5-1 .9-1.9 1.2 0-.1-.1-.2-.2-.4.7-.2 1.3-.6 1.7-1 .4-.4.7-1 1-1.8h-3v-.4h3.2l.3.3c-.4 1-.7 1.7-1.1 2.1zm1.6-2.4c-.1.1-.2.2-.3.2-.1 0-.3 0-.3-.1-.1-.1-.1-.2-.1-.3 0-.1 0-.3.1-.3.1-.1.2-.1.3-.1.1 0 .2 0 .3.1.1.1.1.2.1.3.1 0 0 .1-.1.2zm-.1-.5s-.1-.1-.2-.1c-.2 0-.3.1-.3.3 0 .1 0 .1.1.2 0 .1.1.1.2.1s.1 0 .2-.1c0 0 .1-.1.1-.2-.1-.1-.1-.2-.1-.2zM410.5 207.8c-.6.7-1.5 1.2-2.5 1.5-.1-.1-.2-.3-.3-.5.9-.2 1.7-.6 2.2-1.2.5-.5 1-1.2 1.4-2.2h-2.1c-.4.7-1 1.3-1.5 1.9-.1-.1-.3-.2-.4-.3.5-.4.9-.9 1.2-1.3.2-.4.5-.9.9-1.6l.5.2c-.1.2-.2.5-.4.8h2.1l.1-.1.3.3c-.5 1.1-1 1.9-1.5 2.5zM416.6 208.9v-.4h-3.3v.4h-.5v-4.3h4.3v4.3h-.5zm0-3.8h-3.3v2.9h3.3v-2.9zM417.8 206.9v-.5h5.1v.5h-5.1zM426.9 207.4l-.3-.4c.5-.5 1-.9 1.4-1.4l-2.4.4v2.1c0 .3.2.4.6.5h1c.6 0 1.1 0 1.5-.1v.5c-.6 0-1.2.1-1.6.1-.6 0-1 0-1.3-.1-.5-.1-.7-.4-.7-.9V206l-1.5.2-.1-.5 1.6-.2V204h.5v1.6l2.6-.4.1-.1.4.4c-.7.9-1.3 1.5-1.8 1.9zm1.6-2.4c-.2-.2-.4-.4-.7-.6l.2-.3c.3.2.6.4.7.6l-.2.3zm.4-.5c-.2-.2-.4-.4-.7-.6l.2-.3c.3.2.6.4.7.6l-.2.3zM430.2 207.2c-.2-.3-.4-.7-.7-1.1l.4-.2c.2.4.5.7.7 1.2l-.4.1zm3 .2c-.3.6-.7 1-1.1 1.4-.4.3-.9.6-1.5.8-.1-.2-.2-.3-.3-.4.6-.2 1-.4 1.4-.6.4-.3.7-.7 1-1.2.2-.4.4-1 .6-1.7l.5.1c-.2.7-.4 1.2-.6 1.6zm-1.7-.6c-.1-.4-.3-.8-.5-1.1l.4-.2c.2.4.4.8.6 1.1l-.5.2zM438.2 207.4c-.7-.4-1.6-.8-2.7-1.2v3.3h-.5v-5.6h.5v1.8c1 .3 2 .7 3 1.2l-.3.5zM396.7 407.4c-.6.7-1.5 1.2-2.5 1.5-.1-.1-.2-.3-.3-.5.9-.2 1.7-.6 2.2-1.2.5-.5 1-1.2 1.4-2.2h-2.1c-.4.7-1 1.3-1.5 1.9-.1-.1-.3-.2-.4-.3.5-.4.9-.9 1.2-1.3.2-.4.5-.9.9-1.6l.5.2c-.1.2-.2.5-.4.8h2.1l.1-.1.3.3c-.5 1.1-1 1.9-1.5 2.5zM402.8 408.6v-.4h-3.3v.4h-.5v-4.3h4.3v4.3h-.5zm0-3.9h-3.3v2.9h3.3v-2.9zM404 406.5v-.5h5.1v.5H404zM413.1 407.1l-.3-.4c.5-.5 1-.9 1.4-1.4l-2.4.4v2.1c0 .3.2.4.6.5h1c.6 0 1.1 0 1.5-.1v.5c-.6 0-1.2.1-1.6.1-.6 0-1 0-1.3-.1-.5-.1-.7-.4-.7-.9v-2.1l-1.5.2-.1-.5 1.6-.2v-1.7h.5v1.6l2.6-.4.1-.1.4.4c-.7 1-1.3 1.6-1.8 2.1zm1.6-2.5c-.2-.2-.4-.4-.7-.6l.2-.3c.3.2.6.4.7.6l-.2.3zm.4-.5c-.2-.2-.4-.4-.7-.6l.2-.3c.3.2.6.4.7.6l-.2.3zM416.5 406.8c-.2-.3-.4-.7-.7-1.1l.4-.2c.2.4.5.7.7 1.2l-.4.1zm2.9.2c-.3.6-.7 1-1.1 1.4-.4.3-.9.6-1.5.8-.1-.2-.2-.3-.3-.4.6-.2 1-.4 1.4-.6.4-.3.7-.7 1-1.2.2-.4.4-1 .6-1.7l.5.1c-.2.7-.4 1.2-.6 1.6zm-1.7-.5c-.1-.4-.3-.8-.5-1.1l.4-.2c.2.4.4.8.6 1.1l-.5.2zM424.4 407c-.7-.4-1.6-.8-2.7-1.2v3.3h-.5v-5.6h.5v1.8c1 .3 2 .7 3 1.2l-.3.5zM162.7 136.7v-.5h.4v.5h2.5v.4h-2.5v.5h2v2.1h-.8v.5h1.5v.4h-1.5v1c0 .2-.1.3-.2.3-.2.1-.4.1-.7.1 0-.2-.1-.3-.2-.5h.6c.1 0 .1 0 .1-.1v-.9H160v-.4h3.8v-.5h-3v-2.1h1.9v-.5h-2.5v-.4h2.5zm-.5 4.6-.4.3c-.2-.3-.4-.5-.7-.8l.3-.3c.4.3.6.6.8.8zm-1-2.9h1.5v-.5h-1.5v.5zm1.5.4h-1.5v.5h1.5v-.5zm.4-.4h1.5v-.5h-1.5v.5zm0 .4v.5h1.5v-.5h-1.5zM171.8 136.6v4.9c0 .2-.1.4-.2.4-.1.1-.4.1-.7.1 0-.2-.1-.3-.2-.5h.5c.1 0 .1 0 .1-.1v-1.5h-1.7v2.1h-.4v-2.1h-1.5c-.1.9-.3 1.6-.8 2.2-.1-.2-.3-.3-.4-.4.5-.6.8-1.4.8-2.5v-2.7h4.5zm-2.6 2.9v-1h-1.5v1.1h1.5zm0-1.5v-1h-1.5v1.1h1.5zm.5 0h1.7v-1h-1.7v1zm0 1.5h1.7v-1h-1.7v1zM150.6 147.7c-.7-.4-1.6-.8-2.7-1.2v3.3h-.5v-5.6h.5v1.8c1 .3 2 .7 3 1.2l-.3.5zM155 148.6c-.6.5-1.4.9-2.5 1.2 0-.2-.1-.3-.2-.5.9-.2 1.6-.5 2.1-.9.6-.4 1-1.1 1.5-1.9h-4.2v-.5h4.6l.3.3c-.6 1.1-1.1 1.8-1.6 2.3zm-2.7-3.6v-.5h3.5v.5h-3.5zM160.2 148.1c-.7.5-1.5 1-2.5 1.5l-.3-.6c1.8-.6 3.3-1.7 4.6-3.3.1.2.2.3.4.4-.9.9-1.6 1.5-2.2 2zm-1.4-2c-.5-.4-1-.8-1.4-1.1l.3-.4c.5.3 1 .7 1.5 1.1l-.4.4zM166.2 148.2c-.6.7-1.5 1.2-2.5 1.5-.1-.1-.2-.3-.3-.5.9-.2 1.7-.6 2.2-1.2.5-.5 1-1.2 1.4-2.2h-2.1c-.4.7-1 1.3-1.5 1.9-.1-.1-.3-.2-.4-.3.5-.4.9-.9 1.2-1.3.2-.4.5-.9.9-1.6l.5.2c-.1.2-.2.5-.4.8h2.1l.1-.1.3.3c-.5 1-1 1.9-1.5 2.5zM170 147.5c-.2.8-.7 1.5-1.4 2.1-.1-.2-.2-.3-.3-.4.5-.4.9-.8 1.1-1.4.2-.4.3-1 .3-1.7v-1.2h.5c0 1.2-.1 2.1-.2 2.6zm1.6 2-.4-.4.1-.1v-4.5h.5v4.2c.7-.5 1.4-1.2 2-2 .1.1.2.2.4.3-.9 1.1-1.7 1.9-2.6 2.5zM174.7 147.2v-.5h5.1v.5h-5.1zM185.1 149.5c-.1-.2-.2-.4-.4-.7-2 .3-3.4.5-4.3.6l-.1-.6h.7c.6-1.2 1.2-2.6 1.7-4.3l.6.2c-.8 1.9-1.4 3.2-1.8 4 .9-.1 1.9-.2 3-.3-.3-.5-.7-1.1-1.1-1.6l.4-.3c.8 1 1.4 1.9 1.8 2.7l-.5.3zM270.1 205.3c-.2-.2-.5-.4-.8-.6.8-.9 1.5-2.1 2.2-3.4l.8.4c-.7 1.4-1.4 2.5-2.2 3.6zm4.3-5.2v6.5h-.8v-6.5h-4.2v-.8h4.2v-2.5h.8v2.5h4.5v.8h-4.5zm3.8 4.9c-.9-.9-1.8-2.1-2.5-3.4l.8-.5c.8 1.3 1.6 2.4 2.5 3.3-.3.2-.6.4-.8.6zM279.8 202.2v-.8h8.9v.8h-8.9zM292.6 202.6c-.4 1.4-1.2 2.7-2.4 3.7-.2-.3-.4-.5-.6-.8.9-.7 1.6-1.4 2-2.4.3-.8.5-1.8.6-3V198h.9c-.2 2.2-.3 3.7-.5 4.6zm2.9 3.5-.6-.7.1-.1v-7.9h.8v7.4c1.2-.9 2.4-2 3.5-3.5.2.2.4.4.7.6-1.5 1.7-3 3.2-4.5 4.2zM316.5 307.4v-1.2h.4v1.2h.6v.4h-.6v1c.2-.1.4-.1.7-.2v.4c-.2.1-.5.1-.7.2v1.7c0 .1-.1.2-.2.3-.1.1-.3.1-.6.1 0-.1 0-.3-.1-.4h.5c.1 0 .1 0 .1-.1v-1.5c-.3.1-.6.2-.8.2l-.1-.4c.3-.1.6-.1.9-.2v-1.1h-.9v-.4h.8zm4-.8c-.8.3-1.5.4-2.1.5v.9h2.3v.4h-.7v2.9h-.4v-2.9h-1.2v.2c0 .5-.1.9-.2 1.3-.1.5-.3.9-.6 1.3-.1-.1-.2-.2-.3-.2.3-.4.4-.7.6-1.1.1-.4.2-.8.2-1.2v-1.9l.3.1c.7-.1 1.4-.2 2-.5l.1.2zM318.3 312v1.8h1.8v.4h-1.8v2.3h2.3v.4h-5v-.4h2.2V312h.5zM320.5 318v.4h-2.2v1.2h2v.3h-1.9c.1.5.4.9.7 1.3.4.5 1 .8 1.6 1-.1.1-.2.2-.3.4-.7-.3-1.2-.7-1.6-1.2-.3-.3-.5-.6-.6-1-.1.4-.2.7-.4 1-.4.5-1 1-1.9 1.3-.1-.2-.1-.3-.2-.4 1-.4 1.6-.8 1.9-1.4.1-.3.2-.6.3-1H316v-.3h1.8v-1.2h-2.1v-.4h4.8zM317 324.5v-1.1h.4v1.1h1.5v-1.2h.4v1.2h1.1v.4h-1.1v1.3h1.5v.4h-1.5v1.9h-.4v-1.9h-1.5c-.1.3-.1.6-.3.9-.2.4-.6.7-1.1 1l-.3-.3c.5-.2.9-.5 1.1-.9.1-.2.2-.4.2-.7h-1.4v-.4h1.4v-1.3h-1.1v-.4h1.1zm1.8.4h-1.5v1.3h1.5v-1.3zM204.1 373.1v-1.8h.5v1.8h.9v.5h-.9v.7l.4.4c.1.1.3.2.5.4-.1.2-.2.3-.3.5-.2-.2-.4-.3-.5-.4 0 0-.1 0-.1-.1v3.7h-.5V375c-.1.3-.2.5-.3.8-.2.4-.4.7-.5.8-.1-.2-.2-.4-.3-.5.3-.4.5-.7.7-1.1.2-.3.3-.7.5-1.3h-.9v-.5h.8zm3.4-1.4v6.1c0 .2 0 .3-.1.4-.1.1-.4.2-.8.2 0-.2-.1-.4-.2-.5h.4c.1 0 .2 0 .2-.1V376h-.8c0 .3-.1.5-.1.8-.1.7-.3 1.3-.6 1.8-.1-.2-.2-.4-.4-.5.3-.5.5-1 .6-1.6.1-.5.1-1.2.1-1.9v-2.8h1.7zm-.5 3.7v-1.3h-.8v1.4h.8zm0-1.8v-1.4h-.8v1.4h.8zm3-1.9v6.3c0 .2 0 .3-.1.4-.1.1-.4.1-.9.2 0-.2-.1-.4-.2-.5h.4c.2 0 .2 0 .2-.1v-2h-.9c0 .4-.1.7-.1 1-.1.7-.3 1.2-.5 1.7-.1-.2-.2-.4-.4-.5.2-.4.3-1 .4-1.5 0-.5.1-1.1.1-1.8v-3.1h2zm-.5 3.7v-1.3h-.9v1.4h.9zm0-1.8v-1.4h-.9v1.4h.9zM376.9 203.6v-1.8h.5v1.8h.9v.5h-.9v.7l.4.4c.1.1.3.2.5.4-.1.2-.2.3-.3.5-.2-.2-.4-.3-.5-.4 0 0-.1 0-.1-.1v3.7h-.5v-3.7c-.1.3-.2.5-.3.8-.2.4-.4.7-.5.8-.1-.2-.2-.4-.3-.5.3-.4.5-.7.7-1.1.2-.3.3-.7.5-1.3h-1v-.5h.9zm3.5-1.4v6.1c0 .2 0 .3-.1.4-.1.1-.4.2-.8.2 0-.2-.1-.4-.2-.5h.4c.1 0 .2 0 .2-.1v-1.8h-.9c0 .3-.1.5-.1.8-.1.7-.3 1.3-.6 1.8-.1-.2-.2-.4-.4-.5.3-.5.5-1 .6-1.6.1-.5.1-1.2.1-1.9v-2.8h1.8zm-.6 3.7v-1.3h-.8v1.4h.8zm0-1.8v-1.4h-.8v1.4h.8zm3.1-1.9v6.3c0 .2 0 .3-.1.4-.1.1-.4.1-.9.2 0-.2-.1-.4-.2-.5h.4c.2 0 .2 0 .2-.1v-2h-.9c0 .4-.1.7-.1 1-.1.7-.3 1.2-.5 1.7-.1-.2-.2-.4-.4-.5.2-.4.3-1 .4-1.5 0-.5.1-1.1.1-1.8v-3.1h2zm-.5 3.7v-1.3h-.9v1.4h.9zm0-1.8v-1.4h-.9v1.4h.9zM206.9 249.6v1h2.6v.4h-2.7l-1 1.8c.3.2.6.4.8.6l1.3-1.7.5.3-2.2 2.7c.7-.1 1.5-.1 2.3-.2-.2-.3-.5-.5-.7-.8l.4-.3c.6.7 1.1 1.2 1.4 1.7l-.4.3c-.1-.2-.2-.3-.4-.5-1.8.2-3.4.4-4.7.4l-.1-.5c.5 0 1 0 1.6-.1l.8-1c-.6-.5-1.3-1-2.1-1.4l.2-.4.9.6.7-1.5h-2.3v-.4h2.6v-1h.5zM212.9 249.8v2h-1.8v3.6h-.5v-5.6h2.3zm-.5.8v-.4H211v.4h1.4zm0 .8v-.4H211v.4h1.4zm3.4-1.6v5.1c0 .2-.1.4-.2.4-.1.1-.4.1-.8.1 0-.2-.1-.3-.2-.5h.6c.1 0 .1 0 .1-.1v-3h-1.5l.4.2-.4.6h.9v.4h-1.5v.5h1.7v.4h-1.5c.1.2.3.4.4.5.2.2.4.3.8.5-.1.1-.2.2-.3.4-.4-.2-.6-.4-.8-.6-.2-.2-.3-.4-.4-.6-.1.1-.1.3-.2.4-.2.3-.7.6-1.2.9-.1-.2-.2-.3-.3-.4.6-.2 1-.4 1.2-.7.1-.1.1-.2.2-.3h-1.3v-.4h1.4v-.5h-1.2v-.4h.7c-.1-.2-.2-.3-.4-.5l.3-.3c.2.2.4.4.5.6l-.2.2h.8l.4-.8h-.2v-2h2.2zm-.4.4H214v.4h1.4v-.4zm0 .8H214v.4h1.4v-.4zM220.1 253.7c-.6.7-1.5 1.2-2.5 1.5-.1-.1-.2-.3-.3-.5.9-.2 1.7-.6 2.2-1.2.5-.5 1-1.2 1.4-2.2h-2.1c-.4.7-1 1.3-1.5 1.9-.1-.1-.3-.2-.4-.3.5-.4.9-.9 1.2-1.3.2-.4.5-.9.9-1.6l.5.2c-.1.2-.2.5-.4.8h2.1l.1-.1.3.3c-.5 1.1-1 1.9-1.5 2.5zM226.2 254.8v-.4h-3.3v.4h-.5v-4.3h4.3v4.3h-.5zm0-3.8h-3.3v2.9h3.3V251zM227.4 252.8v-.5h5.1v.5h-5.1zM236.3 253.7c-.6.7-1.5 1.2-2.5 1.5-.1-.1-.2-.3-.3-.5.9-.2 1.7-.6 2.2-1.2.5-.5 1-1.2 1.4-2.2H235c-.4.7-1 1.3-1.5 1.9-.1-.1-.3-.2-.4-.3.5-.4.9-.9 1.2-1.3.2-.4.5-.9.9-1.6l.5.2c-.1.2-.2.5-.4.8h2.1l.1-.1.3.3c-.5 1.1-1 1.9-1.5 2.5zM242.3 69.1c0 .6-.1 1.1-.1 1.4 0 .2-.1.3-.2.4-.1.1-.4.1-.9.2 0-.1-.1-.3-.1-.4h.5c.2 0 .3-.1.4-.2.1-.2.1-.5.1-1v-1.3h-1.3c-.1.8-.3 1.4-.6 1.9s-.8.9-1.4 1.3c-.1-.1-.2-.3-.3-.4.6-.3 1-.7 1.3-1.1.3-.4.5-1 .6-1.6h-1.5v-.4h1.5v-1.2h.5v1.2h1.8l-.3 1.2zM242.8 69v-.4h4.5v.4h-4.5zM250.5 68.5c-.1.9-.2 1.5-.5 1.8-.2.3-.7.7-1.4 1-.1-.1-.1-.3-.3-.4.7-.2 1.1-.5 1.4-.8.2-.3.3-.8.4-1.6h-2.3v-.4h4.9v.4h-2.2zm-2-1.3v-.4h3.3v.4h-3.3zM255.7 69.8c-.6.4-1.3.9-2.2 1.3l-.3-.5c1.5-.5 2.9-1.5 4-2.9l.3.3c-.6.8-1.3 1.4-1.8 1.8zm-1.2-1.8c-.4-.4-.8-.7-1.2-1l.3-.4c.5.3.9.6 1.3.9l-.4.5zM261 69.5c-.5.4-1 .7-1.5 1-.4.2-.7.4-.9.5l-.4-.3v-4h.4v3.7c.8-.3 1.4-.7 1.8-1 .4-.3.9-.8 1.4-1.4l.3.3c-.2.4-.7.8-1.1 1.2zM262.7 69v-.4h4.5v.4h-4.5zM269.1 69.3c-.2.7-.6 1.3-1.2 1.9-.1-.1-.2-.3-.3-.4.5-.3.8-.7 1-1.2.2-.4.3-.9.3-1.5v-1h.4c-.1.9-.1 1.7-.2 2.2zm1.4 1.7-.3-.3.1-.1v-4h.4v3.7c.6-.4 1.2-1 1.8-1.8l.3.3c-.8 1-1.5 1.7-2.3 2.2zM276.3 70.8h-.4l-.7-2.9-.8 2.9h-.4l-.9-3.6h.4l.7 2.9.8-2.9h.4l.7 2.9.7-2.9h.4l-.9 3.6zM370.5 69.1c0 .6-.1 1.1-.1 1.4 0 .2-.1.3-.2.4-.1.1-.4.1-.9.2 0-.1-.1-.3-.1-.4h.5c.2 0 .3-.1.4-.2.1-.2.1-.5.1-1v-1.3h-1.3c-.1.8-.3 1.4-.6 1.9s-.8.9-1.4 1.3c-.1-.1-.2-.3-.3-.4.6-.3 1-.7 1.3-1.1.3-.4.5-1 .6-1.6H367v-.4h1.5v-1.2h.5v1.2h1.8l-.3 1.2zM371.1 69v-.4h4.5v.4h-4.5zM378.7 68.5c-.1.9-.2 1.5-.5 1.8-.2.3-.7.7-1.4 1-.1-.1-.1-.3-.3-.4.7-.2 1.1-.5 1.4-.8.2-.3.3-.8.4-1.6H376v-.4h4.9v.4h-2.2zm-1.9-1.3v-.4h3.3v.4h-3.3zM384 69.8c-.6.4-1.3.9-2.2 1.3l-.3-.5c1.5-.5 2.9-1.5 4-2.9l.3.3c-.6.8-1.3 1.4-1.8 1.8zm-1.2-1.8c-.4-.4-.8-.7-1.2-1l.3-.4c.5.3.9.6 1.3.9l-.4.5zM389.3 69.5c-.5.4-1 .7-1.5 1-.4.2-.7.4-.9.5l-.4-.3v-4h.4v3.7c.8-.3 1.4-.7 1.8-1 .4-.3.9-.8 1.4-1.4l.3.3c-.3.4-.7.8-1.1 1.2zM391 69v-.4h4.5v.4H391zM397.3 69.3c-.2.7-.6 1.3-1.2 1.9-.1-.1-.2-.3-.3-.4.5-.3.8-.7 1-1.2.2-.4.3-.9.3-1.5v-1h.4c0 .9 0 1.7-.2 2.2zm1.5 1.7-.3-.3.1-.1v-4h.4v3.7c.6-.4 1.2-1 1.8-1.8l.3.3c-.8 1-1.6 1.7-2.3 2.2zM404.6 70.8h-.4l-.7-2.9-.8 2.9h-.4l-.9-3.6h.4l.7 2.9.8-2.9h.4l.7 2.9.7-2.9h.4l-.9 3.6zM194 64.6c-.5.7-1.4 1.2-2.6 1.6-.1-.2-.2-.4-.3-.5 1-.2 1.8-.6 2.2-1.2.5-.6.8-1.4.8-2.4h-3.4v1.6h-.5v-2.1h2v-1.2h.5v1.2h2c0 1.4-.3 2.3-.7 3zM194.1 68v2.3c0 .2 0 .4-.1.5-.1.1-.3.1-.7.2 0-.2-.1-.4-.1-.5h.3c.2 0 .2-.1.2-.2v-1.7c-.6.8-1.4 1.4-2.3 1.9-.1-.1-.2-.3-.3-.4 1-.5 1.8-1.2 2.4-2h-2.2v-.4h2.3v-1h.4v1h1.5v.3h-1.4zM192.3 76.3v-5.1h.5v5.1h-.5zM193.4 80.4c-.6.7-1.5 1.2-2.5 1.5-.1-.1-.2-.3-.3-.5.9-.2 1.7-.6 2.2-1.2.5-.5 1-1.2 1.4-2.2h-2.1c-.4.7-1 1.3-1.5 1.9-.1-.1-.3-.2-.4-.3.5-.4.9-.9 1.2-1.3.2-.4.5-.9.9-1.6l.5.2c-.1.2-.2.5-.4.8h2.1l.1-.1.3.3c-.5 1.1-1 2-1.5 2.5zM193 84.1v3.6h-.5v-3.2c-.8.6-1.7 1.1-2.4 1.5-.1-.2-.2-.3-.3-.5.8-.3 1.6-.8 2.4-1.4.7-.6 1.4-1.2 2-1.9l.5.4c-.7.6-1.2 1.1-1.7 1.5zM193.2 91.6c-.7.5-1.5 1-2.5 1.5l-.3-.6c1.8-.6 3.3-1.7 4.6-3.3.1.2.2.3.4.4-.9.9-1.6 1.6-2.2 2zm-1.4-2c-.5-.4-1-.8-1.4-1.1l.3-.4c.5.3 1 .7 1.5 1.1l-.4.4zM186.8 64.9c-.6.7-1.5 1.2-2.5 1.5-.1-.1-.2-.3-.3-.5.9-.2 1.7-.6 2.2-1.2.5-.5 1-1.2 1.4-2.2h-2.1c-.4.7-1 1.3-1.5 1.9-.1-.1-.3-.2-.4-.3.5-.4.9-.9 1.2-1.3.2-.4.5-.9.9-1.6l.5.2c-.1.2-.2.5-.4.8h2.1l.1-.2.3.3c-.4 1.1-.9 2-1.5 2.6zM187.6 71.2v-.4h-3.3v.4h-.5v-4.3h4.3v4.3h-.5zm0-3.9h-3.3v2.9h3.3v-2.9zM185.8 76.7v-5.1h.5v5.1h-.5zM186.7 80.6l-.3-.4c.5-.5 1-.9 1.4-1.4l-2.4.4v2.1c0 .3.2.4.6.5h1c.6 0 1.1 0 1.5-.1v.5c-.6 0-1.2.1-1.6.1-.6 0-1 0-1.3-.1-.5-.1-.7-.4-.7-.9v-2.1l-1.5.2-.1-.5 1.6-.2V77h.5v1.6l2.6-.4.1-.1.4.4c-.7 1-1.3 1.7-1.8 2.1zm1.6-2.4c-.2-.2-.4-.4-.7-.6l.2-.3c.3.2.6.4.7.6l-.2.3zm.4-.5c-.2-.2-.4-.4-.7-.6l.2-.3c.3.2.6.4.7.6l-.2.3zM185.5 84.5c-.2-.3-.4-.7-.7-1.1l.4-.2c.2.4.5.7.7 1.2l-.4.1zm2.9.2c-.3.6-.7 1-1.1 1.4-.4.3-.9.6-1.5.9-.1-.2-.2-.3-.3-.4.6-.2 1-.4 1.4-.6.4-.3.7-.7 1-1.2.2-.4.4-1 .6-1.6l.5.1c-.2.5-.4 1-.6 1.4zm-1.7-.5c-.1-.4-.3-.8-.5-1.1l.4-.2c.2.4.4.8.6 1.1l-.5.2zM188.1 90.7c-.7-.4-1.6-.8-2.7-1.2v3.3h-.5v-5.6h.5V89c1 .3 2 .7 3 1.2l-.3.5zM160.5 64.6c-.2.5-.5 1-.9 1.4l-.3-.3c.6-.7 1-1.6 1.3-2.8l.4.2c-.1.6-.3 1.1-.5 1.5zm2.7 1.2c-.3-1-.8-1.9-1.3-2.8l.3-.2c.6.9 1.1 1.9 1.5 2.8l-.5.2zM162 68.9c-.5.4-1.1.8-1.9 1.1l-.2-.4c1.3-.4 2.5-1.3 3.4-2.5l.3.3c-.5.6-1.1 1.1-1.6 1.5zm-1-1.6c-.4-.3-.7-.6-1.1-.8l.2-.3c.4.2.8.5 1.1.8l-.2.3zM163.1 72.6c0 .5-.1.9-.1 1.2 0 .1-.1.2-.2.3-.1.1-.4.1-.8.2 0-.1-.1-.2-.1-.4h.4c.1 0 .3-.1.3-.2.1-.1.1-.4.1-.8v-1.1h-1.2c-.1.6-.3 1.2-.5 1.6-.3.4-.7.8-1.2 1.1l-.3-.3c.5-.3.9-.6 1.1-.9.3-.4.4-.8.5-1.4h-1.2v-.4h1.3v-1h.4v1h1.6l-.1 1.1zm0-1.5-.5-.5.2-.2c.2.2.4.3.6.5l-.3.2zm.3-.3-.5-.5.2-.2c.2.2.4.3.6.5l-.3.2zM161.4 78.4v-3.8h.3v3.8h-.3zM160.5 80.7c-.2.5-.5 1-.9 1.4l-.3-.3c.6-.7 1-1.6 1.3-2.8l.4.2c-.1.6-.3 1.1-.5 1.5zm2.7 1.2c-.3-1-.8-1.9-1.3-2.8l.3-.2c.6.9 1.1 1.9 1.5 2.8l-.5.2zm.3-2.6c-.1.1-.2.2-.3.2-.1 0-.3 0-.3-.1-.1-.1-.1-.2-.1-.3 0-.1 0-.3.1-.3.1-.1.2-.1.3-.1.1 0 .2 0 .3.1.1.1.1.2.1.3s0 .1-.1.2zm-.1-.5s-.1-.1-.2-.1c-.2 0-.3.1-.3.3 0 .1 0 .1.1.2 0 .1.1.1.2.1s.1 0 .2-.1c0 0 .1-.1.1-.2s-.1-.2-.1-.2zM161.9 83.7v2.7h-.4V84c-.6.5-1.2.9-1.8 1.1-.1-.1-.1-.3-.2-.4.6-.2 1.2-.6 1.8-1.1.5-.4 1-.9 1.5-1.4l.4.3c-.5.5-.9.9-1.3 1.2zM162.2 89.7c-.4.5-1 .9-1.9 1.2 0-.1-.1-.2-.2-.4.7-.2 1.3-.6 1.7-1 .4-.4.7-1 1-1.8h-3v-.4h3.2l.3.3c-.3 1-.7 1.7-1.1 2.1zm1.6-2.4c-.1.1-.2.2-.3.2-.1 0-.3 0-.3-.1-.1-.1-.1-.2-.1-.3 0-.1 0-.3.1-.3.1-.1.2-.1.3-.1.1 0 .2 0 .3.1.1.1.1.2.1.3.1 0 0 .1-.1.2zm-.1-.5s-.1-.1-.2-.1c-.2 0-.3.1-.3.3 0 .1 0 .1.1.2 0 .1.1.1.2.1s.1 0 .2-.1c0 0 .1-.1.1-.2s-.1-.2-.1-.2zM163.5 116.8V115h.5v1.8h.9v.5h-.9v.7l.4.4c.1.1.3.2.5.4-.1.2-.2.3-.3.5-.2-.2-.4-.3-.5-.4 0 0-.1 0-.1-.1v3.7h-.5v-3.7c-.1.3-.2.5-.3.8-.2.4-.4.7-.5.8-.1-.2-.2-.4-.3-.5.3-.4.5-.7.7-1.1.2-.3.3-.7.5-1.3h-.9v-.5h.8zm3.4-1.4v6.1c0 .2 0 .3-.1.4-.1.1-.4.2-.8.2 0-.2-.1-.4-.2-.5h.4c.1 0 .2 0 .2-.1v-1.8h-.8c0 .3-.1.5-.1.8-.1.7-.3 1.3-.6 1.8-.1-.2-.2-.4-.4-.5.3-.5.5-1 .6-1.6.1-.5.1-1.2.1-1.9v-2.8h1.7zm-.5 3.7v-1.3h-.8v1.4h.8zm0-1.8V116h-.8v1.4h.8zm3.1-1.9v6.3c0 .2 0 .3-.1.4-.1.1-.4.1-.9.2 0-.2-.1-.4-.2-.5h.4c.2 0 .2 0 .2-.1v-2h-.9c0 .4-.1.7-.1 1-.1.7-.3 1.2-.5 1.7-.1-.2-.2-.4-.4-.5.2-.4.3-1 .4-1.5 0-.5.1-1.1.1-1.8v-3.1h2zm-.6 3.7v-1.3h-.9v1.4h.9zm0-1.8V116h-.9v1.4h.9zM451.5 336.1c-.3.2-.6.3-1 .3h-1.3v2h-.5v-4.6h1.6c.5 0 .9.1 1.2.3.4.2.5.6.5 1-.1.5-.2.8-.5 1zm-1.2-1.8h-1.2v1.7h1.2c.7 0 1.1-.3 1.1-.8 0-.6-.4-.9-1.1-.9zM451.4 345.6c-.3.2-.7.3-1.1.3-.5 0-.8-.1-1.2-.3-.3-.2-.5-.6-.6-1h.6c.1.3.2.6.4.7.2.1.4.2.8.2.3 0 .5-.1.7-.2.2-.2.4-.4.4-.6 0-.3-.4-.6-1.1-.9-1-.4-1.5-.9-1.5-1.4 0-.4.2-.7.5-.9.3-.2.6-.3 1-.3.7 0 1.2.4 1.5 1.2h-.6c-.2-.5-.5-.7-.9-.7-.3 0-.5.1-.6.2-.2.1-.3.3-.3.6 0 .2.2.5.7.7.4.2.8.5 1.3.7.5.3.7.6.7 1-.1.2-.3.5-.7.7zM215.4 186.1v1.7h4.5v.8h-4.8l-1.7 3.1c.5.4 1 .7 1.5 1.1l2.2-3 .8.5-3.8 4.8c1.2-.1 2.6-.2 4-.4-.4-.5-.8-.9-1.2-1.4l.7-.5c1.1 1.2 1.9 2.2 2.4 2.9l-.7.5-.6-.9c-3.2.4-6 .7-8.2.8l-.2-.8c.9 0 1.8-.1 2.8-.1l1.3-1.7c-1-.9-2.2-1.7-3.6-2.5l.4-.7c.6.3 1.1.6 1.6 1l1.3-2.7h-4v-.8h4.5v-1.7h.8zM225.9 186.5v3.5h-3.2v6.4h-.8v-9.9h4zm-.8 1.4v-.7h-2.4v.7h2.4zm0 1.4v-.7h-2.4v.7h2.4zm6-2.8v8.9c0 .4-.1.6-.3.7-.2.1-.7.2-1.4.2 0-.3-.1-.6-.3-.9h1c.1 0 .2-.1.2-.2V190h-2.7l.7.3-.7 1.1h1.6v.6h-2.6v.9h3v.7H227c.2.4.4.7.7.9.3.3.7.6 1.4.8-.2.1-.4.3-.5.6-.6-.3-1.1-.7-1.5-1-.3-.3-.5-.6-.7-1.1-.1.2-.2.5-.3.7-.4.6-1.2 1.1-2.2 1.5-.1-.3-.3-.5-.6-.7 1-.3 1.7-.7 2.1-1.3.1-.1.2-.3.3-.5h-2.3v-.7h2.4v-.9h-2.1v-.6h1.3c-.2-.3-.4-.6-.7-.9l.5-.4c.3.3.7.7.9 1l-.4.3h1.4l.7-1.4h-.4v-3.5h4.1zm-.8.7h-2.4v.7h2.4v-.7zm0 1.3h-2.4v.7h2.4v-.7zM201.1 212.6c-.4-.4-.7-.8-.9-1.1-.3-.4-.4-.9-.4-1.5s.1-1 .4-1.5c.2-.3.5-.7.9-1.1l.3.3c-.4.4-.7.7-.8 1-.2.4-.3.8-.3 1.3s.1.9.3 1.3c.2.3.5.7.8 1l-.3.3zM204.1 208.9v-1.5h.4v1.5h2.4v.4h-2.2c.1.6.4 1.1.7 1.6.4.6.9 1 1.5 1.3-.1.1-.2.2-.3.4-.6-.4-1.2-.9-1.6-1.5-.3-.4-.5-.9-.6-1.4-.1.4-.2.7-.3 1-.3.6-.9 1.3-1.9 2-.1-.2-.2-.3-.3-.4.8-.4 1.4-1 1.8-1.6.2-.4.4-.9.5-1.4h-2.1v-.4h2zM209.5 207.9v.4h-.7v1.1h.6v.4h-.6v1.3c.2-.1.5-.1.7-.2v.4c-.6.2-1.2.4-1.8.5l-.1-.4c.2-.1.5-.1.8-.2v-1.4h-.7v-.4h.7v-1.1h-.7v-.4h1.8zm1.7 2.3v.7h1.3v.4h-1.3v.8h1.5v.4h-3.5v-.5h1.6v-.8h-1.2v-.4h1.2v-.7h-1.1v-2.6h2.7v2.6h-1.2zm-1.2-1.5h.8v-.7h-.8v.7zm.8.4h-.8v.7h.8v-.7zm.4-.4h.8v-.7h-.8v.7zm0 .4v.7h.8v-.7h-.8zM218.3 207.7v.4h-2.6c-.3.7-.5 1.2-.8 1.6h2.9v2.8h-.4v-.4h-2.5v.4h-.4v-2.3c-.3.3-.6.7-1 1l-.3-.3c.6-.4 1-.8 1.3-1.4.3-.4.5-.9.7-1.5h-1.7v-.4h4.8zm-.9 4.1v-1.7h-2.5v1.7h2.5zM221 208.4v.3h-2v-.3h2zm-.2-.7v.3h-1.5v-.3h1.5zm0 1.5v.3h-1.5v-.3h1.5zm0 .7v.3h-1.5v-.3h1.5zm0 .8v1.5h-1.2v.3h-.4v-1.8h1.6zm-.3 1.2v-.8h-.8v.8h.8zm3.5-4.3v4.4c0 .2 0 .3-.1.3s-.3.1-.5.1c0-.1-.1-.3-.1-.4h.4s.1 0 .1-.1v-4.1h-1.9v2.2c0 .9-.2 1.7-.5 2.3-.1-.1-.2-.3-.3-.3.3-.5.4-1.2.4-2v-2.5h2.5zm-1.6 1.1v-.6h.3v.6h.5v.3h-.5v.6h.6v.3h-1.6v-.3h.6v-.6h-.5v-.3h.6zm.8 1.6v1.3h-.9v.4h-.4v-1.7h1.3zm-.3 1v-.7h-.6v.7h.6zM227.7 210.9c-.6.6-1.3 1.1-2.3 1.5-.1-.1-.1-.2-.3-.4.9-.3 1.6-.8 2.2-1.4-.3-.3-.7-.6-1-.8l.2-.3c.4.3.8.5 1.1.8.3-.4.6-.9.9-1.5h-1.8c-.5.7-1 1.2-1.7 1.6-.1-.1-.2-.3-.3-.4.6-.4 1-.7 1.2-1 .3-.3.5-.8.8-1.4l.5.2-.3.6h1.8l.3.3c-.4.9-.9 1.7-1.3 2.2zM232.6 209.2v3.2h-.4v-2.8c-.7.6-1.5 1-2.1 1.3-.1-.2-.1-.3-.2-.4.7-.3 1.4-.7 2.1-1.2.6-.5 1.2-1.1 1.7-1.7l.4.3c-.6.5-1.1 1-1.5 1.3zM236 210.4c-.2.7-.6 1.3-1.2 1.9-.1-.1-.2-.3-.3-.4.5-.3.8-.7 1-1.2.2-.4.3-.9.3-1.5v-1h.4c0 1 0 1.7-.2 2.2zm1.5 1.7-.3-.3.1-.1v-4h.4v3.7c.6-.4 1.2-1 1.8-1.8l.3.3c-.8 1-1.5 1.7-2.3 2.2zM241.3 211.5c-.2.4-.5.7-.9 1.1l-.3-.3c.4-.4.7-.7.8-1 .2-.4.3-.8.3-1.3s-.1-.9-.3-1.3c-.2-.3-.5-.7-.8-1l.3-.3c.4.4.7.8.9 1.1.3.4.4.9.4 1.5s-.1 1-.4 1.5zM264.3 234.8V231h.4v3.5h2.4v.4h-2.8zM270.1 230.7v.3h-.5v.6h.6v.3h-.6v1h-.3v-1h-.6c0 .2-.1.4-.2.6-.1.3-.4.5-.7.7-.1-.1-.1-.2-.2-.3.3-.1.5-.3.6-.6.1-.1.1-.2.1-.4h-.6v-.3h.7v-.6h-.5v-.3h2.2zm-.4 2.8v-.4h.3v.4h1.5v.3H270v.6h2v.3h-4.3v-.3h2v-.6h-1.4v-.3h1.4zm-.4-2.5h-.6v.6h.6v-.6zm1.6-.2v1.8h-.3v-1.8h.3zm.9-.2v2.3c0 .1-.1.2-.2.2-.1.1-.3.1-.5.1 0-.1 0-.2-.1-.4h.4s.1 0 .1-.1v-2.2h.3zM276.6 230.9c-.4.1-.9.2-1.6.2v.7h1.7v.3H275v.8h2v.3h-2v1.2c0 .1-.1.2-.2.3-.1.1-.4.1-.6.1 0-.1 0-.3-.1-.4h.5c.1 0 .1 0 .1-.1v-1.1h-1.9v-.2h1.9v-.8H273v-.3h1.7v-.7c-.5 0-1.1.1-1.5.1 0-.2-.1-.3-.2-.3.7 0 1.3 0 1.9-.1.5-.1 1.1-.1 1.6-.2l.1.2zM278.1 231.5v-1h.3v1h.4v.3h-.4v.7c.1 0 .3-.1.4-.2v.3c-.1.1-.3.1-.4.2v1.7c0 .1-.1.2-.2.2s-.3.1-.6.1c0-.1 0-.2-.1-.3h.5c.1 0 .1 0 .1-.1V233c-.2.1-.4.2-.6.2l-.1-.3c.2-.1.4-.1.7-.2v-.9h-.6v-.3h.6zm2.1-.8v1.8l.3.1-.1.4h1.1v2h-.3v-.2h-1.6v.2h-.3v-2h.9l.1-.4c-.1 0-.2.1-.5.1 0-.1 0-.3-.1-.3h.2c.1 0 .1 0 .1-.1V231h-1v-.3h1.2zm-.4 1.4c-.3.1-.6.2-.8.3l-.1-.3c.2-.1.5-.2.9-.3v.3zm-.2-.6-.2.2-.4-.4.1-.2c.2.1.4.3.5.4zm1.6 2.2v-.4h-1.6v.4h1.6zm0 .7v-.4h-1.6v.5h1.6zm.5-3.7v1.7c0 .1 0 .2-.1.2s-.2.1-.5.1c0-.1 0-.3-.1-.3H281.3V231h-1v-.3h1.4zm-.6.8-.2.2c-.1-.1-.3-.2-.5-.3l.1-.2c.3.1.4.2.6.3zm.1.5c-.3.1-.5.2-.7.3l-.1-.3c.2-.1.5-.2.8-.3v.3zM270.4 510.4v.9h2.4v.4h-4.6v1.5c0 1.3-.3 2.3-.9 3.2-.1-.2-.2-.3-.4-.4.6-.7.8-1.6.8-2.8v-1.9h2.1v-.9h.6zm-.1 2.6v-1h.4v1h2v.4h-1.8c.2.4.4.7.7 1 .3.4.7.7 1.3 1-.2.1-.3.3-.3.4-.5-.3-.9-.7-1.3-1.1l-.6-.9v2.6h-.4v-2.5c-.2.3-.5.7-.7.9-.4.4-.8.8-1.2 1.1-.1-.1-.2-.3-.3-.4.4-.2.7-.5 1.1-.9.3-.3.6-.7.9-1.2h-1.5v-.4h1.7zM275.3 511v4h-1v.7h-.4V511h1.4zm-.4 1.9v-1.4h-.6v1.4h.6zm0 1.7v-1.4h-.6v1.4h.6zm4.2-3.3-.5 1h.7v.4h-2c0 .2-.1.4-.1.5h2.3v.4h-2.3c-.1.2-.1.3-.2.5H278.7l.2.3c-.2.4-.5.8-.8 1.1.4.2.9.4 1.5.5-.1.2-.2.3-.3.4-.6-.1-1.1-.3-1.6-.6-.4.3-.9.5-1.6.6 0-.2-.1-.3-.2-.4.6-.1 1.1-.3 1.4-.5-.3-.2-.5-.5-.7-.7-.3.5-.7.9-1.2 1.3l-.3-.3c.6-.4 1-.8 1.3-1.3.1-.2.2-.4.3-.7h-1.1v-.4h1.2c0-.2.1-.4.1-.5h-1.2v-.4h2.5l.5-1.1.4-.1zm0-.4c-1.2.2-2.3.4-3.3.4 0-.1-.1-.2-.2-.4 1.1-.1 2.2-.2 3.2-.4l.3.4zm-2.4 1.2-.4.1-.3-.6.3-.1c.2.1.3.4.4.6zm.9 3.1c.3-.2.5-.5.6-.8h-1.4c.3.3.5.6.8.8zm.1-3.2-.4.1c-.1-.2-.1-.4-.2-.7l.3-.1c.1.3.2.5.3.7zM281.1 514.7c-.1.6-.3 1.1-.6 1.6-.1-.2-.2-.3-.3-.4.3-.4.4-.9.5-1.4.1-.5.1-1.1.1-1.8v-1.2h4.6v1.3h-1.8v.7h2.3v.4h-2.6c0 .2-.1.4-.1.6h2.2l-.1 1.1c0 .3-.1.5-.3.6-.2.1-.5.1-.9.1 0-.2 0-.3-.1-.4h.8s.1-.1.1-.2l.1-.7h-1.9c-.1.1-.1.3-.2.4-.3.4-.8.8-1.5 1-.1-.1-.2-.3-.3-.4.7-.2 1.2-.5 1.5-.9.2-.3.3-.7.4-1.1h-1.4v-.4h1.7v-.7h-2c-.1.6-.1 1.2-.2 1.8zm4.8-4v.4h-5.7v-.4h5.7zm-4.7 1.8h3.7v-.6h-3.7v.6zM344.8 455h-2v3.5h-.4v-5.8h2.4v2.3zm-.4-1.9h-1.5v.6h1.5v-.6zm-1.5 1.6h1.5v-.7h-1.5v.7zm3.5 3.2h-2.1v.3h-.4v-2.7h2.5v2.4zm-.4-2h-1.6v.7h1.6v-.7zm-1.7 1.7h1.6v-.7h-1.6v.7zm3.6-4.9v5.2c0 .6-.3.6-1.4.6 0-.1-.1-.3-.2-.5h.6c.5 0 .5 0 .5-.2V455h-2v-2.3h2.5zm-.4.4h-1.6v.6h1.6v-.6zm-1.6 1.6h1.6v-.7h-1.6v.7zM344.3 462.4l-.8.2v2c0 .5-.3.6-1.1.6 0-.1-.1-.3-.1-.4h.4c.5 0 .5 0 .5-.1v-1.8c-.3.1-.5.2-.8.2 0 .1 0 .1-.1.1l-.2-.5c.3-.1.6-.2 1-.2V461h-.9v-.4h.9V459h.6c0 .1 0 .1-.1.1v1.2h.8v.4h-.8v1.4c.3-.1.5-.1.8-.2l-.1.5zm3.9-.6h-2.1l-.1.1-.3.6h2.4v.4h-.8c-.1.5-.4.9-.7 1.2.5.2 1 .5 1.3.7l-.3.3c-.3-.2-.8-.5-1.4-.7-.5.3-1.2.6-2.2.7 0-.1-.1-.3-.2-.4.8-.1 1.4-.3 1.9-.5-.3-.1-.6-.2-.8-.3l-.1.2-.4-.1c.2-.3.3-.7.5-1.1h-.9v-.4h1.1c.1-.2.2-.5.3-.7H344v-.4h4.2v.4zm-.3-2v.4h-3.6v-.4h1.5v-.8h.6s0 .1-.1.1v.6h1.6zm-2.6.4c.1.4.2.8.3 1.1l-.4.1c0-.3-.1-.7-.2-1.1l.3-.1zm.2 2.7c-.1.2-.2.5-.3.7.3.1.7.2 1 .3.3-.3.5-.6.7-1h-1.4zm1.9-2.6-.1.1c-.1.3-.3.8-.4 1.1l-.4-.1c.1-.3.3-.8.4-1.2l.5.1zM343.4 470.3c-.2.5-.5 1-.8 1.3l-.4-.2c.3-.3.6-.8.8-1.3l.4.2zm-.5-.8v.4h-.4v-4h1.9v3.6h-1.5zm1.1-3.2h-1.1v1.2h1.1v-1.2zm-1.1 2.8h1.1v-1.2h-1.1v1.2zm1.4 2.5c0-.3-.1-.8-.1-1.2h.4c.1.4.2.9.2 1.2h-.5zm3.7-5.7v.1c-.1 1.7-.2 1.7-.9 1.7h-.5c0-.1-.1-.3-.1-.4h.7c.1 0 .2 0 .2-.1.1-.1.1-.4.2-1h-1.2c-.1.8-.5 1.4-1.5 1.7 0-.1-.2-.3-.2-.3.9-.2 1.2-.7 1.4-1.3H345v-.4h3zm-.2 2.2v1.8H345v-1.8h2.8zm-.5 1.4v-1.1h-2v1.1h2zm-1.4 2.1c-.1-.3-.2-.8-.4-1.2l.4-.1c.2.4.4.9.4 1.2l-.4.1zm1.9.1c-.2-.4-.6-.9-.9-1.3l.4-.1c.3.4.7 1 .9 1.3l-.4.1zM344.5 476.5h-1.7v.6h-.4v-4.6h2.2v4zm-.4-3.5h-1.3v1.3h1.3V473zm-1.3 3.1h1.3v-1.4h-1.3v1.4zm5.2-3.7v5.2c0 .3-.1.4-.3.5-.2.1-.6.1-1.1.1 0-.1-.1-.3-.2-.4h.6c.5 0 .5 0 .5-.2v-1.5h-2c-.2.8-.5 1.6-1.2 2.2l-.3-.3c1.1-.9 1.2-2.1 1.2-3.2v-2.4h2.8zm-2.4 2.4v.9h2v-1.2h-1.9v.3zm1.9-2h-1.9v1.2h1.9v-1.2zM238.3 491.7h-2.9v4.8c0 1-.6 1-2.5 1 0-.2-.1-.5-.2-.6h1.6c.2 0 .4-.2.3-.4v-4.2c-1 1.5-2.6 3-4.2 4-.1-.2-.3-.4-.5-.5 1.6-.9 3.3-2.4 4.3-3.9h-3.9v-.7h4.3v-2.1h.9c0 .1-.1.2-.2.2v1.9h3v.5zM239.6 492.7h8.2v.7H240c-.1.1-.2.2-.3.2l-.1-.9zM249.2 490.1H255.6l.7.5-.1.1c-.8 3.7-2.5 5.6-5.5 6.8-.1-.2-.3-.4-.4-.6 2.9-1.1 4.5-2.9 5.2-6.1h-6.1v-.7zm7.5-1.7c.6 0 1.1.5 1.1 1.1 0 .6-.5 1.1-1.1 1.1-.6 0-1.1-.5-1.1-1.1.1-.7.6-1.1 1.1-1.1zm.8 1c0-.4-.3-.8-.7-.8s-.8.3-.8.8c0 .4.3.8.8.8.4 0 .7-.4.7-.8zM258.9 489.7c1 .3 2.2.8 2.9 1.3l-.4.6c-.7-.5-1.9-1-2.9-1.4l.4-.5zm-.1 6.8c3.5-1.1 5.8-3 7-5.8.2.2.4.3.6.4-1.2 2.7-3.6 4.8-7 5.9 0 .1-.1.2-.1.2l-.5-.7zM267.3 493.8c.7-.8 2.3-2.5 2.9-3.1.3-.3.5-.4.8-.4.3 0 .5.1.8.4 1.3 1.2 3.3 3.4 4.8 5.4l-.6.5c-1.4-1.9-3.5-4.3-4.6-5.3-.2-.2-.3-.2-.4-.2-.1 0-.2.1-.4.2-.5.5-1.9 2.2-2.6 2.9v.1c0 .1 0 .2-.1.2l-.6-.7zm7.5-5c.6 0 1.1.5 1.1 1.1 0 .6-.5 1.1-1.1 1.1-.6 0-1.1-.5-1.1-1.1-.1-.6.5-1.1 1.1-1.1zm.7 1.1c0-.4-.3-.8-.8-.8-.4 0-.8.4-.8.8s.4.8.8.8c.5 0 .8-.4.8-.8zM277.9 489.7c1 .3 2.2.8 2.9 1.3l-.4.6c-.7-.5-1.9-1-2.9-1.4l.4-.5zm-.1 6.8c3.5-1.1 5.8-3 7-5.8.2.2.4.3.6.4-1.2 2.7-3.6 4.8-7 5.9 0 .1-.1.2-.1.2l-.5-.7zM292.3 494.2c-1-.5-2.4-1.2-3.5-1.6v4.9h-.7V489l1 .1c0 .1-.1.2-.3.2v2.9l.1-.2c1.2.4 2.7 1.1 3.7 1.6l-.3.6zM297.4 490.4c0 .1-.1.1-.3.2-.4 2.3-1.2 4.8-2.4 6.3-.2-.1-.5-.2-.7-.3 1.2-1.4 1.9-3.8 2.3-6.4l1.1.2zm3.1-.3c1.1 1.8 2.3 4.7 2.7 6.5l-.7.3c-.4-1.7-1.6-4.7-2.6-6.5l.6-.3zM307.6 488.9l1 .1c0 .1-.1.2-.3.2v1.5h2.6l.1-.1.6.3-.1.1c-.5 3.4-1.9 5.4-5 6.5-.1-.2-.3-.4-.5-.6 2.9-1 4.3-2.8 4.6-5.6H305v2.4h-.7v-3.1h3.1v-1.7zM319.5 489.9l-.1.1c-.5 1.2-1.2 2.3-2 3.4 1.1.9 2.7 2.3 3.6 3.3l-.6.5c-.9-1-2.4-2.5-3.5-3.3-.9 1.1-2.4 2.5-3.8 3.3-.1-.1-.3-.4-.5-.5 2.7-1.5 4.9-4.3 5.8-6.4h-4.8v-.7h5.3l.6.3zM250.1 508.1c-.7-.9-1.5-2.3-1.5-4.5s.7-3.6 1.5-4.6h.7c-.8 1.1-1.4 2.5-1.4 4.6 0 2 .6 3.4 1.4 4.5h-.7zM257.9 506.5h4.5v.7h-8.9v-.7h3.8v-7.8l.9.1c0 .1-.1.1-.2.1v2.9h3.8v.7H258v4zM268.3 502.3c.2-.5.5-1.3.6-1.9l.8.2c0 .1-.1.1-.2.1-.1.5-.4 1.2-.6 1.7h1.5v.6h-5.2v-.6h3.5l-.4-.1zm1.9-2.7v.6h-4.8v-.6h2v-1.2h.8c0 .1-.1.1-.2.1v1h2.2zm-4.4 8v-3.7h3.9v3.7h-.6v-.5h-2.6v.6h-.7zm.8-7.1c.2.5.4 1.2.5 1.6l-.6.1c0-.4-.2-1.1-.4-1.6l.5-.1zm2.5 4h-2.6v2h2.6v-2zm4.8-5.4.4.2s0 .1-.1.1c-.4.8-.9 1.9-1.4 2.9 1.1 1 1.5 1.7 1.5 2.4 0 1.5-1.1 1.5-1.7 1.5h-.5c0-.2-.1-.5-.2-.6h.6c.7 0 1.1 0 1.1-.9 0-.6-.5-1.3-1.6-2.3.5-1 .9-1.9 1.2-2.7h-2v7.9h-.6v-8.5h3.3zM283.3 500.9v1.7c0 .8.4 3.4 2.9 4.5-.1.2-.3.4-.4.6-1.9-1-2.6-2.9-2.8-3.8-.1.9-1 2.8-3.2 3.8-.1-.1-.3-.4-.4-.6 2.8-1.2 3.3-3.7 3.3-4.5v-1.7h-1.2c-.3.9-.6 1.7-1 2.3-.1-.1-.3-.2-.5-.3v1.9h-2.1v1h-.6v-6.4h2.7v3.3c.6-1 1.1-2.6 1.3-4.2l.8.2c0 .1-.1.1-.2.1-.1.5-.2 1-.3 1.4h4.5c-.3 1.1-.5 2-.8 2.8l-.6-.2c.2-.5.4-1.3.6-2h-2zm-3.9 3.3V500h-1.5v4.2h1.5zM296.8 502.4l.4.1s0 .1-.1.1c-.2 1.4-.7 2.4-1.3 3.3.6.5 1.3.9 2.2 1.1-.1.1-.3.4-.4.6-.8-.3-1.6-.7-2.2-1.2-.5.6-1.2 1-1.9 1.3-.1-.2-.2-.4-.4-.6.7-.2 1.3-.6 1.8-1.2-.5-.6-.9-1.2-1.2-2-.3 1.5-.9 2.7-1.7 3.6-.1-.1-.3-.4-.5-.5 1.2-1.3 1.7-3.5 2-6.2h-1.4v.2H291v2.1l1.1-.3.1.6-1.2.4v3c0 .7-.3.8-1.6.8 0-.2-.1-.4-.2-.6h1c.1 0 .2 0 .2-.2v-2.7c-.5.2-.9.3-1.2.4 0 .1 0 .1-.1.2l-.3-.8c.4-.1 1-.3 1.6-.5v-2.3h-1.5v-.6h1.5v-2h.8c0 .1-.1.1-.2.1v1.8h1v-.2h1.6c0-.6.1-1.2.1-1.8l.8.1c0 .1-.1.1-.2.1 0 .5-.1 1.1-.1 1.6h3.7v.6h-3.7c0 .5-.1 1-.2 1.5h2.7l.1.1zm-3 1 .2-.1c.3.8.7 1.5 1.3 2.1.5-.6.9-1.5 1.1-2.4h-2.6v.4zM301.1 499.1c.7.9 1.4 2.3 1.4 4.5s-.7 3.6-1.4 4.5h-.7c.8-1.1 1.4-2.5 1.4-4.5s-.6-3.4-1.4-4.5h.7zM204.8 455h-2v3.5h-.4v-5.8h2.4v2.3zm-.4-1.9h-1.5v.6h1.5v-.6zm-1.6 1.6h1.5v-.7h-1.5v.7zm3.5 3.2h-2.1v.3h-.4v-2.7h2.5v2.4zm-.4-2h-1.6v.7h1.6v-.7zm-1.6 1.7h1.6v-.7h-1.6v.7zm3.6-4.9v5.2c0 .6-.3.6-1.4.6 0-.1-.1-.3-.2-.5h.6c.5 0 .5 0 .5-.2V455h-2v-2.3h2.5zm-.5.4h-1.6v.6h1.6v-.6zm-1.6 1.6h1.6v-.7h-1.6v.7zM204.3 462.4l-.8.2v2c0 .5-.3.6-1.1.6 0-.1-.1-.3-.1-.4h.4c.5 0 .5 0 .5-.1v-1.8c-.3.1-.5.2-.8.2 0 .1 0 .1-.1.1l-.2-.5c.3-.1.6-.2 1-.2V461h-.9v-.4h.9V459h.6c0 .1 0 .1-.1.1v1.2h.8v.4h-.8v1.4c.3-.1.5-.1.8-.2l-.1.5zm3.9-.6h-2.1l-.1.1-.3.6h2.4v.4h-.8c-.1.5-.4.9-.7 1.2.5.2 1 .5 1.3.7l-.3.3c-.3-.2-.8-.5-1.4-.7-.5.3-1.2.6-2.2.7 0-.1-.1-.3-.2-.4.8-.1 1.4-.3 1.9-.5-.3-.1-.6-.2-.8-.3l-.1.2-.4-.1c.2-.3.3-.7.5-1.1h-.9v-.4h1.1c.1-.2.2-.5.3-.7H204v-.4h4.2v.4zm-.3-2v.4h-3.6v-.4h1.5v-.8h.6s0 .1-.1.1v.6h1.6zm-2.6.4c.1.4.2.8.3 1.1l-.4.1c0-.3-.1-.7-.2-1.1l.3-.1zm.2 2.7c-.1.2-.2.5-.3.7.3.1.7.2 1 .3.3-.3.5-.6.7-1h-1.4zm1.9-2.6-.1.1c-.1.3-.3.8-.4 1.1l-.4-.1c.1-.3.3-.8.4-1.2l.5.1zM203.4 470.3c-.2.5-.5 1-.8 1.3l-.4-.2c.3-.3.6-.8.8-1.3l.4.2zm-.5-.8v.4h-.4v-4h1.9v3.6h-1.5zm1-3.2h-1.1v1.2h1.1v-1.2zm-1 2.8h1.1v-1.2h-1.1v1.2zm1.3 2.5c0-.3-.1-.8-.1-1.2h.4c.1.4.2.9.2 1.2h-.5zm3.7-5.7v.1c-.1 1.7-.2 1.7-.9 1.7h-.5c0-.1-.1-.3-.1-.4h.7c.1 0 .2 0 .2-.1.1-.1.1-.4.2-1h-1.2c-.1.8-.5 1.4-1.5 1.7 0-.1-.2-.3-.2-.3.9-.2 1.2-.7 1.4-1.3h-1.1v-.4h3zm-.2 2.2v1.8h-2.8v-1.8h2.8zm-.4 1.4v-1.1h-2v1.1h2zm-1.4 2.1c-.1-.3-.2-.8-.4-1.2l.4-.1c.2.4.4.9.4 1.2l-.4.1zm1.8.1c-.2-.4-.6-.9-.9-1.3l.4-.1c.3.4.7 1 .9 1.3l-.4.1zM204.5 476.5h-1.7v.6h-.4v-4.6h2.2v4zm-.4-3.5h-1.3v1.3h1.3V473zm-1.4 3.1h1.3v-1.4h-1.3v1.4zm5.2-3.7v5.2c0 .3-.1.4-.3.5-.2.1-.6.1-1.1.1 0-.1-.1-.3-.2-.4h.6c.5 0 .5 0 .5-.2v-1.5h-2c-.2.8-.5 1.6-1.2 2.2l-.3-.3c1.1-.9 1.2-2.1 1.2-3.2v-2.4h2.8zm-2.3 2.4v.9h2v-1.2h-1.9v.3zm1.9-2h-1.9v1.2h1.9v-1.2z"/><path class="st23" d="M199.5 392.2h150.8v159.9H199.7M199.5 392.2l150.8 159.7M199.5 552.1l150.8-159.9"/><path class="st18" d="M312.2 298.5v70.7H354M353.6 387.5v171.1M364.1 423.5v135.1"/></svg>