<svg width="60" height="52" viewBox="0 0 60 52" fill="none" xmlns="http://www.w3.org/2000/svg">
<g clip-path="url(#clip0_269_494)">
<path d="M56.0833 13.3158C49.1755 1.1941 33.7979 -2.94477 21.7499 4.0666C9.69741 11.0689 5.52878 26.5639 12.4365 38.6856C19.3533 50.8028 34.7264 54.9327 46.7789 47.9304C58.8404 40.9235 62.9956 25.4239 56.0833 13.3158Z" stroke="black" stroke-width="0.37" stroke-linecap="round" stroke-linejoin="round"/>
<path d="M52.8121 15.2029C46.9326 4.9096 33.863 1.38967 23.6179 7.3452C13.3728 13.3008 9.83105 26.4714 15.7016 36.7692C21.581 47.0625 34.6506 50.5824 44.8957 44.6268C55.1408 38.6712 58.6826 25.5006 52.8121 15.2029Z" stroke="black" stroke-width="0.35" stroke-linecap="round" stroke-linejoin="round"/>
<path d="M58.1302 33.9087L10.3926 18.07" stroke="black" stroke-width="0.37" stroke-linecap="round" stroke-linejoin="round"/>
<path d="M42.2106 1.92023L26.3047 50.0521" stroke="black" stroke-width="0.37" stroke-linecap="round" stroke-linejoin="round"/>
<path d="M13.2656 22.8159L33.1425 29.38L34.2572 25.9859L35.3764 22.6008L15.4995 16.0367L10.3906 18.0711L13.2656 22.8159Z" fill="black"/>
<path d="M6.66211 19.1621L7.09193 17.6817" stroke="black" stroke-width="0.7" stroke-linecap="round" stroke-linejoin="round"/>
<path d="M6.87658 18.4248L0.619141 16.5815" stroke="black" stroke-width="0.7" stroke-linecap="round" stroke-linejoin="round"/>
<path d="M0.402344 17.3184L0.742621 16.1313" stroke="black" stroke-width="0.7" stroke-linecap="round" stroke-linejoin="round"/>
<path d="M0.707031 16.281L7.99424 14.5813" stroke="black" stroke-width="0.7" stroke-linecap="round" stroke-linejoin="round"/>
<path d="M7.99629 14.5873L1.73438 12.7574" stroke="black" stroke-width="0.7" stroke-linecap="round" stroke-linejoin="round"/>
<path d="M1.51758 13.4957L1.95634 12.0108" stroke="black" stroke-width="0.7" stroke-linecap="round" stroke-linejoin="round"/>
<path d="M0.742188 16.13L7.81465 14.5385" stroke="black" stroke-width="0.7" stroke-linecap="round" stroke-linejoin="round"/>
</g>
<defs>
<clipPath id="clip0_269_494">
<rect width="60" height="52" fill="white"/>
</clipPath>
</defs>
</svg>
