<svg width="49" height="43" viewBox="0 0 49 43" fill="none" xmlns="http://www.w3.org/2000/svg">
<g clip-path="url(#clip0_287_416)">
<path d="M3.2503 31.8666C8.91707 41.818 21.4737 45.1818 31.2856 39.3838C41.101 33.5932 44.4626 20.8385 38.7958 10.8871C33.1218 0.939449 20.5688 -2.41692 10.7533 3.37369C0.930539 9.16794 -2.42006 21.9264 3.2503 31.8666Z" stroke="black" stroke-width="0.37" stroke-linecap="round" stroke-linejoin="round"/>
<path d="M5.91204 30.3061C10.7352 38.7564 21.4072 41.6171 29.7507 36.6922C38.0943 31.7672 40.9502 20.9258 36.1344 12.4717C31.3113 4.0215 20.6392 1.16078 12.2958 6.08575C3.95228 11.0107 1.09622 21.852 5.91204 30.3061Z" stroke="black" stroke-width="0.35" stroke-linecap="round" stroke-linejoin="round"/>
<path d="M1.52734 14.9354L40.5155 27.837" stroke="black" stroke-width="0.37" stroke-linecap="round" stroke-linejoin="round"/>
<path d="M14.5957 41.2025L27.4502 1.57504" stroke="black" stroke-width="0.37" stroke-linecap="round" stroke-linejoin="round"/>
<path d="M38.1562 23.9412L21.9225 18.5946L21.0216 21.389L20.1172 24.176L36.351 29.5227L40.5139 27.8361L38.1562 23.9412Z" fill="black"/>
<path d="M43.5559 26.929L43.209 28.1477" stroke="black" stroke-width="0.7" stroke-linecap="round" stroke-linejoin="round"/>
<path d="M43.3828 27.536L48.4929 29.0357" stroke="black" stroke-width="0.7" stroke-linecap="round" stroke-linejoin="round"/>
<path d="M48.6692 28.429L48.3945 29.4061" stroke="black" stroke-width="0.7" stroke-linecap="round" stroke-linejoin="round"/>
<path d="M48.4196 29.2829L42.4785 30.7" stroke="black" stroke-width="0.7" stroke-linecap="round" stroke-linejoin="round"/>
<path d="M42.4785 30.6951L47.5922 32.1836" stroke="black" stroke-width="0.7" stroke-linecap="round" stroke-linejoin="round"/>
<path d="M47.7663 31.5758L47.4121 32.7982" stroke="black" stroke-width="0.7" stroke-linecap="round" stroke-linejoin="round"/>
<path d="M48.3912 29.4072L42.625 30.7347" stroke="black" stroke-width="0.7" stroke-linecap="round" stroke-linejoin="round"/>
</g>
<defs>
<clipPath id="clip0_287_416">
<rect width="49" height="43" fill="white"/>
</clipPath>
</defs>
</svg>
