<svg width="62" height="51" viewBox="0 0 62 51" fill="none" xmlns="http://www.w3.org/2000/svg">
<path d="M53.8999 7.90001C44.1999 -1.99999 28.1999 -2.19998 18.2999 7.60002C8.39991 17.3 8.19993 33.3 17.9999 43.2C27.6999 53.1 43.6999 53.3 53.5999 43.5C63.4999 33.7 63.5999 17.8 53.8999 7.90001Z" stroke="black" stroke-width="0.37" stroke-linecap="round" stroke-linejoin="round"/>
<path d="M51.1998 10.4998C42.8998 2.09983 29.3997 1.89985 20.8997 10.1998C12.4997 18.4998 12.2997 31.9998 20.5997 40.4998C28.8997 48.8998 42.3997 49.0998 50.8997 40.7998C59.3997 32.4998 59.4998 18.8998 51.1998 10.4998Z" stroke="black" stroke-width="0.35" stroke-linecap="round" stroke-linejoin="round"/>
<path d="M60.9998 27.2008L10.7998 23.8008" stroke="black" stroke-width="0.37" stroke-linecap="round" stroke-linejoin="round"/>
<path d="M37.5997 0.400391L34.1997 50.6004" stroke="black" stroke-width="0.37" stroke-linecap="round" stroke-linejoin="round"/>
<path d="M14.7998 27.6996L35.6998 28.9996L35.8998 25.4996L36.0998 21.9996L15.1998 20.5996L10.7998 23.7996L14.7998 27.6996Z" fill="black"/>
<path d="M7.3999 25.8008L7.49991 24.3008" stroke="black" stroke-width="0.7" stroke-linecap="round" stroke-linejoin="round"/>
<path d="M7.49991 25.0008L0.899902 24.8008" stroke="black" stroke-width="0.7" stroke-linecap="round" stroke-linejoin="round"/>
<path d="M0.899902 25.6004V24.4004" stroke="black" stroke-width="0.7" stroke-linecap="round" stroke-linejoin="round"/>
<path d="M0.899902 24.4996L7.59991 21.0996" stroke="black" stroke-width="0.7" stroke-linecap="round" stroke-linejoin="round"/>
<path d="M7.60001 21.1004L1 20.9004" stroke="black" stroke-width="0.7" stroke-linecap="round" stroke-linejoin="round"/>
<path d="M1 21.5996L1.10001 20.0996" stroke="black" stroke-width="0.7" stroke-linecap="round" stroke-linejoin="round"/>
<path d="M0.899902 24.3996L7.3999 21.0996" stroke="black" stroke-width="0.7" stroke-linecap="round" stroke-linejoin="round"/>
</svg>
