<?xml version="1.0" encoding="utf-8"?>
<!-- Generator: Adobe Illustrator 26.1.0, SVG Export Plug-In . SVG Version: 6.00 Build 0)  -->
<svg version="1.1" xmlns="http://www.w3.org/2000/svg" xmlns:xlink="http://www.w3.org/1999/xlink" x="0px" y="0px"
	 width="52.437px" height="52.152px" viewBox="0 0 52.437 52.152" style="enable-background:new 0 0 52.437 52.152;"
	 xml:space="preserve">
<style type="text/css">
	.st0{fill:none;stroke:#000000;stroke-width:0.37;stroke-linecap:round;stroke-linejoin:round;}
	.st1{fill:none;stroke:#000000;stroke-width:0.35;stroke-linecap:round;stroke-linejoin:round;}
	.st2{fill:none;stroke:#000000;stroke-width:0.7;stroke-linecap:round;stroke-linejoin:round;}
</style>
<g id="レイヤー_12">
</g>
<g id="収納">
</g>
<g id="フローリング">
</g>
<g id="タイル">
</g>
<g id="壁">
</g>
<g id="レイヤー">
</g>
<g id="文字out">
	<g>
		<path class="st0" d="M26.752,51.922c13.822-0.814,24.361-12.732,23.539-26.613C49.47,11.428,37.599,0.834,23.771,1.653
			C9.947,2.469-0.592,14.397,0.23,28.274C1.05,42.159,12.923,52.744,26.752,51.922z"/>
		<path class="st1" d="M26.529,48.159c11.748-0.697,20.705-10.826,20.01-22.629C45.839,13.733,35.744,4.725,23.996,5.422
			C12.246,6.118,3.283,16.254,3.984,28.053C4.681,39.852,14.777,48.854,26.529,48.159z"/>
		<line class="st0" x1="7.576" y1="44.629" x2="42.949" y2="8.951"/>
		<line class="st0" x1="43.039" y1="44.561" x2="7.484" y2="9.024"/>
		<polygon points="37.455,9.422 22.757,24.288 25.265,26.789 27.769,29.293 42.464,14.426 42.949,8.951 		"/>
		<line class="st2" x1="43.652" y1="5.131" x2="44.769" y2="6.174"/>
		<line class="st2" x1="44.209" y1="5.657" x2="48.634" y2="0.869"/>
		<line class="st2" x1="48.08" y1="0.35" x2="48.974" y2="1.182"/>
		<line class="st2" x1="48.859" y1="1.081" x2="47.105" y2="8.354"/>
		<line class="st2" x1="47.105" y1="8.354" x2="51.529" y2="3.567"/>
		<line class="st2" x1="50.972" y1="3.045" x2="52.087" y2="4.09"/>
		<line class="st2" x1="48.974" y1="1.182" x2="47.228" y2="8.215"/>
	</g>
</g>
</svg>
