<svg width="42" height="50" viewBox="0 0 42 50" fill="none" xmlns="http://www.w3.org/2000/svg">
<g clip-path="url(#clip0_284_449)">
<mask id="mask0_284_449" style="mask-type:luminance" maskUnits="userSpaceOnUse" x="0" y="0" width="42" height="50">
<path d="M42 0H0V49.4118H42V0Z" fill="white"/>
</mask>
<g mask="url(#mask0_284_449)">
<path d="M31.2021 46.2971C41.1385 40.7037 44.6374 28.0777 39.0183 18.0997C33.3998 8.12313 20.7887 4.56661 10.8489 10.1626C0.910191 15.7571 -2.58508 28.3905 3.03333 38.367C8.65316 48.3465 21.2629 51.8964 31.2021 46.2971Z" stroke="black" stroke-width="0.37" stroke-linecap="round" stroke-linejoin="round"/>
<path d="M29.6788 43.5904C38.1231 38.8338 41.0975 28.1045 36.3225 19.6188C31.5451 11.1396 20.8212 8.11415 12.3772 12.8715C3.93073 17.6275 0.955156 28.3656 5.73319 36.8461C10.509 45.3296 21.2294 48.3478 29.6788 43.5904Z" stroke="black" stroke-width="0.35" stroke-linecap="round" stroke-linejoin="round"/>
<path d="M14.375 47.8205L27.6774 8.64286" stroke="black" stroke-width="0.37" stroke-linecap="round" stroke-linejoin="round"/>
<path d="M40.6016 34.969L1.45508 21.4974" stroke="black" stroke-width="0.37" stroke-linecap="round" stroke-linejoin="round"/>
<path d="M23.7842 10.9747L18.2695 27.2848L21.0284 28.2301L23.7872 29.1789L29.2967 12.8713L27.679 8.64286L23.7842 10.9747Z" fill="black"/>
<path d="M26.8203 5.56227L28.0229 5.9296" stroke="black" stroke-width="0.7" stroke-linecap="round" stroke-linejoin="round"/>
<path d="M27.4238 5.74871L28.9727 0.609165" stroke="black" stroke-width="0.7" stroke-linecap="round" stroke-linejoin="round"/>
<path d="M28.3711 0.423477L29.3331 0.716621" stroke="black" stroke-width="0.7" stroke-linecap="round" stroke-linejoin="round"/>
<path d="M29.2129 0.684135L30.5393 6.69925" stroke="black" stroke-width="0.7" stroke-linecap="round" stroke-linejoin="round"/>
<path d="M30.541 6.69926L32.0869 1.5612" stroke="black" stroke-width="0.7" stroke-linecap="round" stroke-linejoin="round"/>
<path d="M31.4883 1.37514L32.6908 1.74615" stroke="black" stroke-width="0.7" stroke-linecap="round" stroke-linejoin="round"/>
<path d="M29.334 0.716618L30.5825 6.55347" stroke="black" stroke-width="0.7" stroke-linecap="round" stroke-linejoin="round"/>
</g>
</g>
<defs>
<clipPath id="clip0_284_449">
<rect width="42" height="49.4118" fill="white"/>
</clipPath>
</defs>
</svg>
