<?xml version="1.0" encoding="utf-8"?>
<!-- Generator: Adobe Illustrator 26.1.0, SVG Export Plug-In . SVG Version: 6.00 Build 0)  -->
<svg version="1.1" xmlns="http://www.w3.org/2000/svg" xmlns:xlink="http://www.w3.org/1999/xlink" x="0px" y="0px"
	 width="52.154px" height="52.439px" viewBox="0 0 52.154 52.439" style="enable-background:new 0 0 52.154 52.439;"
	 xml:space="preserve">
<style type="text/css">
	.st0{fill:none;stroke:#000000;stroke-width:0.37;stroke-linecap:round;stroke-linejoin:round;}
	.st1{fill:none;stroke:#000000;stroke-width:0.35;stroke-linecap:round;stroke-linejoin:round;}
	.st2{fill:none;stroke:#000000;stroke-width:0.7;stroke-linecap:round;stroke-linejoin:round;}
</style>
<g id="レイヤー_12">
</g>
<g id="収納">
</g>
<g id="フローリング">
</g>
<g id="タイル">
</g>
<g id="壁">
</g>
<g id="レイヤー">
</g>
<g id="梁">
</g>
<g id="文字out">
	<g>
		<path class="st0" d="M0.23,26.753c0.816,13.822,12.734,24.361,26.615,23.539c13.879-0.822,24.473-12.693,23.656-26.52
			C49.685,9.947,37.757-0.592,23.878,0.23C9.995,1.052-0.591,12.925,0.23,26.753z"/>
		<path class="st1" d="M3.995,26.531c0.697,11.748,10.824,20.705,22.627,20.01c11.797-0.701,20.807-10.795,20.109-22.543
			C46.036,12.248,35.9,3.285,24.101,3.986C12.3,4.683,3.3,14.777,3.995,26.531z"/>
		<line class="st0" x1="7.523" y1="7.578" x2="43.202" y2="42.949"/>
		<line class="st0" x1="7.591" y1="43.041" x2="43.13" y2="7.486"/>
		<polygon points="42.73,37.457 27.864,22.757 25.364,25.265 22.86,27.771 37.726,42.464 43.202,42.949 		"/>
		<line class="st2" x1="47.021" y1="43.652" x2="45.98" y2="44.769"/>
		<line class="st2" x1="46.497" y1="44.21" x2="51.282" y2="48.636"/>
		<line class="st2" x1="51.804" y1="48.08" x2="50.972" y2="48.974"/>
		<line class="st2" x1="51.071" y1="48.861" x2="43.8" y2="47.107"/>
		<line class="st2" x1="43.8" y1="47.107" x2="48.585" y2="51.529"/>
		<line class="st2" x1="49.107" y1="50.974" x2="48.062" y2="52.089"/>
		<line class="st2" x1="50.972" y1="48.974" x2="43.937" y2="47.23"/>
	</g>
</g>
</svg>
