<?xml version="1.0" encoding="utf-8"?>
<!-- Generator: Adobe Illustrator 26.1.0, SVG Export Plug-In . SVG Version: 6.00 Build 0)  -->
<svg version="1.1" xmlns="http://www.w3.org/2000/svg" xmlns:xlink="http://www.w3.org/1999/xlink" x="0px" y="0px"
	 width="52.152px" height="52.438px" viewBox="0 0 52.152 52.438" style="enable-background:new 0 0 52.152 52.438;"
	 xml:space="preserve">
<style type="text/css">
	.st0{fill:none;stroke:#000000;stroke-width:0.37;stroke-linecap:round;stroke-linejoin:round;}
	.st1{fill:none;stroke:#000000;stroke-width:0.35;stroke-linecap:round;stroke-linejoin:round;}
	.st2{fill:none;stroke:#000000;stroke-width:0.7;stroke-linecap:round;stroke-linejoin:round;}
</style>
<g id="レイヤー_12">
</g>
<g id="収納">
</g>
<g id="フローリング">
</g>
<g id="タイル">
</g>
<g id="壁">
</g>
<g id="レイヤー">
</g>
<g id="文字out">
	<path class="st0" d="M51.922,25.687C51.108,11.864,39.19,1.325,25.309,2.147C11.428,2.969,0.834,14.84,1.653,28.667
		c0.816,13.824,12.744,24.363,26.621,23.541C42.159,51.388,52.744,39.515,51.922,25.687z"/>
	<path class="st1" d="M48.159,25.91C47.461,14.16,37.332,5.203,25.53,5.899C13.733,6.6,4.725,16.694,5.422,28.443
		c0.695,11.75,10.832,20.713,22.631,20.012C39.852,47.757,48.854,37.661,48.159,25.91z"/>
	<line class="st0" x1="44.629" y1="44.863" x2="8.952" y2="9.491"/>
	<line class="st0" x1="44.561" y1="9.399" x2="9.024" y2="44.954"/>
	<polygon points="9.189,14.891 24.054,29.589 26.556,27.081 29.06,24.577 14.192,9.883 8.718,9.399 	"/>
	<line class="st2" x1="5.131" y1="8.788" x2="6.174" y2="7.67"/>
	<line class="st2" x1="5.657" y1="8.229" x2="0.869" y2="3.803"/>
	<line class="st2" x1="0.35" y1="4.36" x2="1.182" y2="3.465"/>
	<line class="st2" x1="1.081" y1="3.579" x2="8.354" y2="5.332"/>
	<line class="st2" x1="8.354" y1="5.332" x2="3.567" y2="0.91"/>
	<line class="st2" x1="3.045" y1="1.465" x2="4.09" y2="0.35"/>
	<line class="st2" x1="1.182" y1="3.465" x2="8.215" y2="5.209"/>
</g>
</svg>
