<svg width="49" height="42" viewBox="0 0 49 42" fill="none" xmlns="http://www.w3.org/2000/svg">
<g clip-path="url(#clip0_287_403)">
<path d="M45.802 10.7551C40.1607 0.964466 27.6023 -2.37847 17.7631 3.28456C7.9202 8.94027 4.51582 21.4555 10.1572 31.2461C15.8059 41.033 28.3606 44.3687 38.2035 38.713C48.0537 33.0536 51.4471 20.5347 45.802 10.7551Z" stroke="black" stroke-width="0.37" stroke-linecap="round" stroke-linejoin="round"/>
<path d="M43.1295 12.2793C38.3279 3.96545 27.6544 1.12243 19.2875 5.93266C10.9207 10.743 8.0283 21.3807 12.8225 29.6982C17.6241 38.012 28.2976 40.855 36.6644 36.0447C45.0312 31.2344 47.9237 20.5966 43.1295 12.2793Z" stroke="black" stroke-width="0.35" stroke-linecap="round" stroke-linejoin="round"/>
<path d="M47.472 27.3878L8.48633 14.595" stroke="black" stroke-width="0.37" stroke-linecap="round" stroke-linejoin="round"/>
<path d="M34.4722 1.55095L21.4824 40.4267" stroke="black" stroke-width="0.37" stroke-linecap="round" stroke-linejoin="round"/>
<path d="M10.8342 18.4282L27.067 23.73L27.9774 20.9886L28.8914 18.2545L12.6586 12.9527L8.48633 14.5959L10.8342 18.4282Z" fill="black"/>
<path d="M5.44141 15.4771L5.79243 14.2814" stroke="black" stroke-width="0.7" stroke-linecap="round" stroke-linejoin="round"/>
<path d="M5.6161 14.8816L0.505859 13.3928" stroke="black" stroke-width="0.7" stroke-linecap="round" stroke-linejoin="round"/>
<path d="M0.328125 13.9879L0.606018 13.0291" stroke="black" stroke-width="0.7" stroke-linecap="round" stroke-linejoin="round"/>
<path d="M0.578125 13.15L6.52935 11.7772" stroke="black" stroke-width="0.7" stroke-linecap="round" stroke-linejoin="round"/>
<path d="M6.52992 11.782L1.41602 10.304" stroke="black" stroke-width="0.7" stroke-linecap="round" stroke-linejoin="round"/>
<path d="M1.24023 10.9004L1.59856 9.70103" stroke="black" stroke-width="0.7" stroke-linecap="round" stroke-linejoin="round"/>
<path d="M0.605469 13.0281L6.38131 11.7426" stroke="black" stroke-width="0.7" stroke-linecap="round" stroke-linejoin="round"/>
</g>
<defs>
<clipPath id="clip0_287_403">
<rect width="49" height="42" fill="white"/>
</clipPath>
</defs>
</svg>
