<svg width="60" height="52" viewBox="0 0 60 52" fill="none" xmlns="http://www.w3.org/2000/svg">
<g clip-path="url(#clip0_269_481)">
<path d="M3.98079 38.5364C10.9197 50.5706 26.2952 54.6384 38.3097 47.6269C50.3286 40.6243 54.4448 25.2 47.5059 13.1658C40.5581 1.13608 25.1871 -2.92278 13.1681 4.07981C1.14027 11.0868 -2.96251 26.5157 3.98079 38.5364Z" stroke="black" stroke-width="0.37" stroke-linecap="round" stroke-linejoin="round"/>
<path d="M7.23807 36.6492C13.144 46.8682 26.2118 50.3277 36.4283 44.3719C46.6449 38.4162 50.142 25.3056 44.2451 15.0821C38.3393 4.86321 25.2714 1.40373 15.0549 7.35951C4.83837 13.3152 1.34115 26.4257 7.23807 36.6492Z" stroke="black" stroke-width="0.35" stroke-linecap="round" stroke-linejoin="round"/>
<path d="M1.87109 18.0614L49.6117 33.6633" stroke="black" stroke-width="0.37" stroke-linecap="round" stroke-linejoin="round"/>
<path d="M17.873 49.8263L33.6132 1.90469" stroke="black" stroke-width="0.37" stroke-linecap="round" stroke-linejoin="round"/>
<path d="M46.7214 28.9521L26.8434 22.4865L25.7403 25.8658L24.6328 29.2361L44.5109 35.7018L49.6084 33.6622L46.7214 28.9521Z" fill="black"/>
<path d="M53.333 32.5653L52.9082 34.0391" stroke="black" stroke-width="0.7" stroke-linecap="round" stroke-linejoin="round"/>
<path d="M53.1211 33.2993L59.3783 35.1129" stroke="black" stroke-width="0.7" stroke-linecap="round" stroke-linejoin="round"/>
<path d="M59.5941 34.3792L59.2578 35.5609" stroke="black" stroke-width="0.7" stroke-linecap="round" stroke-linejoin="round"/>
<path d="M59.2904 35.4119L52.0156 37.1256" stroke="black" stroke-width="0.7" stroke-linecap="round" stroke-linejoin="round"/>
<path d="M52.0137 37.1196L58.2753 38.9197" stroke="black" stroke-width="0.7" stroke-linecap="round" stroke-linejoin="round"/>
<path d="M58.4884 38.1847L58.0547 39.663" stroke="black" stroke-width="0.7" stroke-linecap="round" stroke-linejoin="round"/>
<path d="M59.2541 35.5622L52.1934 37.1675" stroke="black" stroke-width="0.7" stroke-linecap="round" stroke-linejoin="round"/>
</g>
<defs>
<clipPath id="clip0_269_481">
<rect width="60" height="52" fill="white"/>
</clipPath>
</defs>
</svg>
