<svg width="53" height="53" viewBox="0 0 53 53" fill="none" xmlns="http://www.w3.org/2000/svg">
<path d="M25.6952 0.230167C11.8652 1.04017 1.32522 12.9602 2.15522 26.8402C2.97522 40.7202 14.8452 51.3102 28.6752 50.5002C42.5052 49.6802 53.0352 37.7602 52.2152 23.8802C51.3952 9.99017 39.5152 -0.589833 25.6952 0.230167Z" stroke="#231815" stroke-width="0.37" stroke-linecap="round" stroke-linejoin="round"/>
<path d="M25.9078 3.99029C14.1578 4.69029 5.19775 14.8203 5.89775 26.6203C6.59775 38.4203 16.6878 47.4203 28.4378 46.7303C40.1878 46.0303 49.1478 35.9003 48.4478 24.1003C47.7478 12.3003 37.6578 3.30029 25.9078 3.99029V3.99029Z" stroke="#231815" stroke-width="0.35" stroke-linecap="round" stroke-linejoin="round"/>
<path d="M44.8622 7.52002L9.49219 43.2" stroke="#231815" stroke-width="0.37" stroke-linecap="round" stroke-linejoin="round"/>
<path d="M9.39844 7.59033L44.9484 43.1303" stroke="#231815" stroke-width="0.37" stroke-linecap="round" stroke-linejoin="round"/>
<path d="M14.9822 42.7304L29.6822 27.8604L27.1722 25.3604L24.6722 22.8604L9.97219 37.7304L9.49219 43.2004L14.9822 42.7304Z" fill="#231815"/>
<path d="M8.79187 47.02L7.67188 45.98" stroke="#231815" stroke-width="0.7" stroke-linecap="round" stroke-linejoin="round"/>
<path d="M8.23469 46.5L3.80469 51.28" stroke="#231815" stroke-width="0.7" stroke-linecap="round" stroke-linejoin="round"/>
<path d="M4.36094 51.8002L3.46094 50.9702" stroke="#231815" stroke-width="0.7" stroke-linecap="round" stroke-linejoin="round"/>
<path d="M3.57812 51.0703L5.32812 43.8003" stroke="#231815" stroke-width="0.7" stroke-linecap="round" stroke-linejoin="round"/>
<path d="M5.33406 43.8003L0.914062 48.5903" stroke="#231815" stroke-width="0.7" stroke-linecap="round" stroke-linejoin="round"/>
<path d="M1.47156 49.1101L0.351562 48.0601" stroke="#231815" stroke-width="0.7" stroke-linecap="round" stroke-linejoin="round"/>
<path d="M3.46094 50.9699L5.21094 43.9399" stroke="#231815" stroke-width="0.7" stroke-linecap="round" stroke-linejoin="round"/>
</svg>
