<svg version="1.1" id="レイヤー_1" xmlns="http://www.w3.org/2000/svg" x="0" y="0" viewBox="0 0 620 890.8" style="enable-background:new 0 0 620 890.8" xml:space="preserve"><style>.st0{fill:#ecf4d9}.st2{fill:#fff}.st4{fill:#bfc0c0}.st5{fill:#6b7b6e}.st6,.st7{stroke-width:.4}.st6{fill:none;stroke:#000;stroke-dasharray:1.3,1.3,0,0,0,0}.st7{stroke-miterlimit:10}.st10,.st7,.st8,.st9{fill:none;stroke:#000}.st8{stroke-width:.2;stroke-linecap:round;stroke-linejoin:round;stroke-miterlimit:10;stroke-dasharray:1.3,1.3,0,0,0,0}.st10,.st9{stroke-width:.4}.st10{stroke-width:.6}.st11{fill:#dfeaf8}.st12{fill:#fadce9}.st13{fill:#fffcdb}.st14{fill:#f9f4e4}.st18{fill:none;stroke:#cfb5a7;stroke-width:.4}.st19{fill:none;stroke:#b5b5b6;stroke-miterlimit:10}.st19,.st20,.st21{stroke-width:.4}.st20{fill:none;stroke:#aaabab;stroke-linecap:round;stroke-linejoin:round;stroke-miterlimit:10;stroke-dasharray:4.5,2.5}.st21{stroke-linejoin:bevel;stroke-dasharray:15,1.3,1.3,1.3}.st21,.st22,.st23,.st24{fill:none;stroke:#000}.st22{stroke-width:.3;stroke-linejoin:bevel;stroke-dasharray:1.3,1.3,0,0,0,0}.st23,.st24{stroke-width:.4}.st23{stroke-linejoin:bevel;stroke-dasharray:10,1.3,1.3,1.3}.st24{stroke-dasharray:1.3,1.3}</style><path class="st0" d="M474 12.5v88.3h-75.3v-.7h-72.5v.7h-53.5v-.7h-77.2v.7h-32.1V12.5z"/><path style="fill:#cae5cd" d="M413.8 696.6v-1H173.9v1h-9.1v-1.2h-1.6v184.8h261.3V695.4h-1.6v1.2z"/><path class="st0" d="M423.6 628.9v23.5h3.9v2.3h.6v29.8h-.6v2.3h-13.7v8.8H173.9v-8.8h-13.7v-2.3h-.6v-29.8h.6v-2.3h3.9v-23.5h18.2v.7h58.6v-.7h2.5v11.6h56.7v-11.6h4.8v.7H382v-.7z"/><path class="st2" d="M424.4 835.7H420v-.4h-3.5v-.5h-19.7v-1h19.7v-.5h3.5v-.4h4.4zM424.4 742.7H420v-.4h-3.5v-.4h-19.7v-1.1h19.7v-.5h3.5v-.4h4.4z"/><path d="M272 641.1h18.6c.5 0 .9.4.9.9v15.8c0 1-.8 1.9-1.9 1.9H273c-1 0-1.9-.8-1.9-1.9V642c0-.5.4-.9.9-.9z" style="fill:#dff2fc"/><path class="st4" d="M173.9 686.8v9.8h-9.1v-1.2h-11.6v1.2h-9v-9.8zM443.5 686.8v9.8h-9v-1.2h-11.6v1.2h-9.1v-9.8zM136 2.3v10.2h18.6v88.3h8.8V12.5H474v88.3h-75.3v2.1h.9v4h-.7v8.3h20.7v4.7h3.3v-4.7h61.3V2.3z"/><path class="st5" d="m197.9 850.4 12.7 1.5.1-.5-10.5-1.2 10.4-1.3-.1-.5L198 850l1.5-1.6 4.6-2 5.8-.6-.1-.5-4.1.4 3.2-1.4-.2-.5-4.8 2-2.4.2 5.5-6-.4-.4-5.9 6.4-6 .6.2-.5 9.9-9-.4-.4-8.6 7.9 6.6-8.5-.4-.3-6 7.9 3.6-9.4-.5-.2-4.2 11.1-1.3 1.7h-.1l.3-6.5 2.8-7.3-.5-.2-2.2 5.7.1-1.7h-.5l-.1 3.4-1.3 3.3-1.8-10.8-.5.1 2 11.7-.9 2.2-.2-.4-3.6-13.7-.5.1 3.1 11.7-5.5-9.4-.5.3 6.4 11.1-.5-.4-8.2-9.7-.4.3 6.8 8-8.8-6.4-.3.4 10.6 7.7 1 1.1-1.7.9-11.3-4.9-.2.5 10.7 4.6-5.1-.9-7.3-4.2-.3.5 6 3.4-6.8-1.2-.1.5 8.3 1.4 2 1.1-10.7.4v.5l11.6-.5.1.1-3.4 1.9-8.2 1 .1.5 6.8-.9-6.3 3.5.3.5 7.5-4.2 6.1-.8.7.4-.1.2-13.4 5.4.2.5 12.6-5-4.2 5.6-6.7 3.1.2.5 5.8-2.7-3.9 5.1.4.3 4.5-5.9 2.2-1-4.7 7.7.5.3 5.1-8.4 2-.9-.2 1.7-4.4 9.2.5.2 3.7-7.7-1.1 8.7.5.1 1.3-10.3 1.3-2.6 1.2-.5-1.6 9.5.5.1 1.7-9.8h.1l.8 2.3.7 11.6h.5l-.6-9.6 3.4 9.8.5-.2-4-11.7-.2-2.5.6.1 5.9 11.8.5-.2-5.7-11.4.8.2 7.3 10.3.4-.3-6.9-9.8 1.6.3 7.3 7.8.4-.4-6.7-7.2 6.3 1.4 1.8.9.2-.4 1.7.4.1-.5-3.7-.8L196 852l.5-.6 13.7 4 .2-.5L197 851l.5-.5.4-.1zm-3 1.9-1 .9-1-1.9 1.5.5.5.5zm-8.5-2.4 3.4-.1h.1l-.1.5-.5.6-1.4.2-1.9-1.1.4-.1zm4.8 3.7-1 2-.5.2.4-2.9 1.1.7zm9-7-1.1 1.1-4.1 1.8-1.4-.2.8-2.2 5.8-.5zm-7.3-4.8-.2 5-.4.1-.4-2.4 1-2.7zm-1.2 5.1-.8.1.6-1.5.2 1.4zm-1.7 1 .1.2-.1 1-.5-.1-.8-.4 1.3-.7zm-6.5.6 3.2.5-.5.3H185l-1.5-.8zm-.5 3.2 2.5-1.4 1.5.9-4 .5zm1.6 6.4 4.1-5.5.5-.2.2.1-2.8 4.7-2 .9zm2.9-1.3 1.9-3.1-.3 2.4-1.6.7zm7.1-2.4-.3-.6.2-.3.7 1-.6-.1zm1.4.4-1.1-1.6.4-.4 2.2 2.3-1.5-.3zm2.4.5-2.5-2.7 7.5 3.8-5-1.1zM241.2 857l10.6 1.3.1-.5-8.7-1 8.7-1.1-.1-.4-10.4 1.3 1.2-1.3 3.8-1.6 4.8-.5-.1-.4-3.4.3 2.6-1.1-.2-.4-4 1.7-2 .2 4.6-5-.3-.3-4.9 5.4-5 .5.2-.4 8.2-7.5-.3-.3-7.2 6.6 5.5-7.1-.4-.3-5 6.5 3-7.8-.4-.2-3.5 9.3-1.1 1.4h-.1l.2-5.5 2.3-6-.4-.2-1.8 4.8.1-1.4h-.5l-.1 2.8-1.1 2.8-1.5-9-.4.1 1.6 9.7-.7 1.9-.2-.4-3-11.4-.4.1 2.6 9.8-4.6-7.9-.4.2 5.3 9.2-.4-.3-6.8-8.1-.4.3 5.6 6.7-7.4-5.3-.3.4 8.9 6.4.8.9-1.4.8-9.4-4.1-.2.4 8.9 3.9-4.2-.7-6.1-3.5-.2.4 5 2.8-5.7-1-.1.4 6.9 1.2 1.7 1-8.9.4v.5l9.6-.4.1.1-2.9 1.6-6.8.9.1.5 5.7-.7-5.3 2.9.2.4 6.3-3.5 5.1-.7.6.3-.1.1-11.2 4.5.2.4 10.5-4.2-3.5 4.6-5.6 2.6.2.4 4.8-2.2-3.2 4.3.4.3 3.7-5 1.8-.8-3.9 6.4.4.2 4.2-7 1.7-.8-.2 1.4-3.7 7.6.4.2 3.1-6.4-.9 7.3.5.1 1.1-8.6 1.1-2.1 1-.5-1.3 7.9.5.1 1.4-8.2h.1l.6 1.9.6 9.6h.5l-.5-8 2.8 8.2.4-.1-3.3-9.8-.1-2.1.5.1 4.9 9.9.4-.2-4.8-9.5.7.1 6.1 8.6.4-.3-5.8-8.1 1.4.3 6.1 6.5.3-.3-5.6-6 5.2 1.1 1.5.7.2-.4 1.4.3.1-.5-3-.7-8-4 .4-.5 11.4 3.3.1-.4-11.2-3.3.4-.4.2-.4zm-2.5 1.7-.8.8-.8-1.6 1.2.5.4.3zm-7.1-2.1 2.9-.1h.1l-.1.4-.4.5-1.2.2-1.6-.9.3-.1zm4 3.1-.8 1.7-.4.2.3-2.4.9.5zm7.5-5.8-.9 1-3.4 1.5-1.1-.1.7-1.8 4.7-.6zm-6-4-.2 4.2h-.4l-.3-2 .9-2.2zm-1 4.2-.7.1.5-1.2.2 1.1zm-1.5.8.1.2-.1.8-.4-.1-.7-.3 1.1-.6zm-5.4.6 2.7.4-.4.2h-1l-1.3-.6zm-.4 2.6 2.1-1.2 1.3.7-3.4.5zm1.3 5.4 3.4-4.6.4-.2.2.1-2.4 3.9-1.6.8zm2.5-1.1 1.6-2.6-.3 2-1.3.6zm5.8-2-.3-.5.2-.2.6.9-.5-.2zm1.2.3-1-1.3.3-.3 1.8 2-1.1-.4zm2 .4-2.1-2.3 6.3 3.2-4.2-.9zM319.7 862.6l5.8.7v-.3l-4.8-.6 4.8-.6v-.2l-5.8.7.7-.7 2.1-.9 2.7-.3v-.2l-1.9.2 1.5-.6-.1-.2-2.2.9-1.1.1 2.5-2.8-.2-.2-2.7 3-2.8.3.1-.2 4.6-4.2-.2-.2-4 3.6 3-3.9-.2-.2-2.8 3.6 1.7-4.3-.2-.1-2 5.1-.6.8h-.1l.1-3 1.3-3.3-.2-.1-1 2.6v-.8h-.3l-.1 1.5-.6 1.5-.8-5h-.2l.9 5.4-.4 1-.1-.2-1.7-6.3-.2.1 1.4 5.4-2.5-4.4-.2.1 2.9 5.1-.2-.2-3.8-4.5-.2.2 3.1 3.7-4.1-3-.2.2 4.9 3.6.5.5-.8.4-5.2-2.3-.1.2 5 2.1-2.3-.4-3.4-1.9-.1.2 2.8 1.6-3.2-.5v.2l3.8.7.9.5-4.9.2v.3l5.3-.2h.1l-1.6.9-3.8.5v.3l3.2-.4-2.9 1.6.1.2 3.5-1.9 2.8-.4.3.2-.1.1-6.2 2.5.1.2 5.8-2.3-1.9 2.6-3.1 1.4.1.2 2.7-1.2-1.8 2.4.2.1 2.1-2.7 1-.5-2.2 3.5.2.1 2.3-3.9.9-.4-.1.8-2.1 4.2.2.1 1.7-3.5-.5 4h.3l.6-4.8.6-1.2.5-.3-.7 4.4h.2l.8-4.5.4 1.1.3 5.3h.3l-.3-4.4 1.6 4.5.2-.1-1.9-5.4-.1-1.2.3.1 2.7 5.5.2-.1-2.6-5.3.4.1 3.4 4.7.2-.1-3.2-4.5.8.2 3.4 3.6.2-.2-3.1-3.3 2.9.6.8.4.1-.2.8.2.1-.3-1.7-.4-4.4-2.2.2-.3 6.3 1.8.1-.2-6.2-1.8.2-.2.4.3zm-1.3.9-.4.4-.4-.9.7.3.1.2zm-4-1.2 1.6-.1h.1v.2l-.2.3-.7.1-.9-.5h.1zm2.3 1.7-.5.9-.2.1.2-1.3.5.3zm4.1-3.2-.5.5-1.9.8-.6-.1.4-1 2.6-.2zm-3.3-2.2-.1 2.3h-.2l-.2-1.1.5-1.2zm-.6 2.3h-.4l.3-.7.1.7zm-.8.5v.1l-.1.5h-.2l-.4-.2.7-.4zm-3 .3 1.5.2-.2.1h-.6l-.7-.3zm-.2 1.5 1.2-.6.7.4-1.9.2zm.7 2.9 1.9-2.5.2-.1.1.1-1.3 2.2-.9.3zm1.4-.6.9-1.4-.1 1.1-.8.3zm3.2-1.1-.1-.3.1-.1.3.5-.3-.1zm.7.2-.5-.7.2-.2 1 1.1-.7-.2zm1.1.2-1.2-1.3 3.5 1.8-2.3-.5zM399.4 857.7l11.3 1.3.1-.5-9.4-1.1 9.3-1.2-.1-.5-11.2 1.4 1.3-1.4 4.1-1.8 5.2-.5-.1-.5-3.6.4 2.8-1.2-.2-.5-4.3 1.8-2.1.2 4.9-5.3-.4-.3-5.3 5.8-5.4.5.2-.4 8.8-8.1-.3-.4-7.7 7.1 5.9-7.6-.4-.3-5.4 7 3.2-8.4-.5-.2-3.8 9.9-1.2 1.5h-.1l.2-5.9 2.5-6.5-.5-.2-2 5.1.1-1.5h-.5l-.1 3-1.2 3-1.6-9.6-.5.1 1.8 10.4-.8 2-.2-.4-3.3-12.3-.5.1 2.8 10.5-4.9-8.4-.4.2 5.7 9.9-.5-.3-7.3-8.7-.4.3 6.1 7.1-7.9-5.7-.3.4 9.5 6.9.9 1-1.5.8-10.1-4.4-.2.4 9.6 4.2-4.6-.8-6.5-3.7-.2.4 5.3 3-6.1-1-.1.5 7.4 1.3 1.8 1-9.6.4v.5l10.4-.4.1.1-3.1 1.7-7.4.9.1.5 6.1-.8-5.7 3.1.2.4 6.8-3.7 5.5-.7.6.4-.1.2-12 4.8.2.5 11.3-4.5-3.7 5-6 2.8.2.4 5.2-2.4-3.5 4.6.4.3 4-5.3 2-.9-4.2 6.9.4.3 4.5-7.5 1.8-.8-.2 1.5-4 8.2.5.2 3.3-6.9-1 7.8.5.1 1.2-9.3 1.1-2.3 1-.5-1.4 8.5.5.1 1.5-8.8h.1l.7 2 .6 10.4h.5l-.5-8.6 3 8.8.5-.2-3.6-10.5-.1-2.3.5.1 5.3 10.6.4-.2-5.1-10.2.7.2 6.5 9.2.4-.3-6.2-8.7 1.5.3 6.5 7 .4-.3-6-6.4 5.6 1.2 1.6.8.2-.4 1.5.3.1-.5-3.3-.7-8.6-4.3.5-.5 12.2 3.6.1-.5-12-3.5.4-.5 1-.2zm-2.6 1.8-.9.8-.9-1.7 1.3.5.5.4zm-7.7-2.3 3.1-.1h.1l-.1.5-.4.5-1.3.2-1.7-.9.3-.2zm4.3 3.4-.9 1.8-.4.2.3-2.6 1 .6zm8.1-6.3-.9 1-3.6 1.6-1.2-.1.7-2 5-.5zM395 850l-.2 4.5h-.4l-.4-2.1 1-2.4zm-1.1 4.6-.7.1.5-1.3.2 1.2zm-1.5.8.1.2-.1.9-.5-.1-.8-.3 1.3-.7zm-5.9.7 2.9.5-.4.2h-1.1l-1.4-.7zm-.4 2.8 2.2-1.2 1.4.8-3.6.4zm1.5 5.8 3.7-4.9.5-.2.2.1-2.5 4.2-1.9.8zm2.6-1.2 1.7-2.8-.3 2.1-1.4.7zm6.3-2.2-.3-.6.2-.2.6.9-.5-.1zm1.3.3-1-1.4.3-.4 2 2.1-1.3-.3zm2.1.5-2.3-2.4 6.8 3.4-4.5-1zM359 856.8l9.2 1.1v-.4l-7.6-.9 7.6-1v-.4l-9.1 1.1 1.1-1.2 3.4-1.4 4.2-.4v-.4l-3 .3 2.3-1-.1-.4-3.5 1.5-1.7.2 4-4.4-.3-.3-4.3 4.7-4.4.4.1-.3 7.2-6.6-.3-.3-6.3 5.8 4.8-6.2-.3-.2-4.4 5.7 2.6-6.9-.4-.1-3.1 8.1-.9 1.2h-.1l.2-4.8 2-5.3-.4-.1-1.6 4.2.1-1.3h-.4l-.1 2.4-.9 2.4-1.3-7.8-.4.1 1.4 8.5-.6 1.6-.2-.3-2.6-10-.4.1 2.3 8.6-4-6.9-.4.2 4.7 8.1-.4-.3-6-7.1-.3.3 4.9 5.8-6.4-4.7-.2.3 7.8 5.6.7.8-1.2.7-8.2-3.6-.2.4 7.8 3.4-3.7-.6-5.3-3-.2.4 4.3 2.5-5-.8-.1.4 6.1 1 1.5.8-7.8.3v.4l8.4-.3.1.1-2.5 1.4-6 .8.1.4 5-.6-4.6 2.5.2.4 5.5-3 4.5-.6.5.3-.1.1-9.8 3.9.2.4 9.2-3.7-3.1 4.1-4.9 2.2.2.4 4.2-1.9-2.8 3.7.3.2 3.3-4.3 1.6-.7-3.7 5.4.3.2 3.7-6.1 1.5-.7-.2 1.2-3.2 6.7.4.2 2.7-5.6-.8 6.4h.4l1-7.5.9-1.9.8-.4-1.2 6.9.4.1 1.2-7.2h.1l.6 1.7.5 8.4h.4l-.4-7 2.5 7.2.4-.1-2.9-8.6-.1-1.8.4.1 4.3 8.6.4-.2-4.2-8.3.6.1 5.3 7.5.3-.2-5-7.1 1.2.3 5.3 5.7.3-.3-4.9-5.2 4.6 1 1.3.6.2-.3 1.3.3.1-.4-2.7-.6-7-3.5.4-.4 10 2.9.1-.4-9.8-2.8.4-.4.1-.3zm-2.2 1.4-.7.7-.7-1.4 1.1.4.3.3zm-6.2-1.8 2.5-.1h.1l-.1.4-.3.4-1 .1-1.4-.8h.2zm3.5 2.7-.7 1.5-.4.2.3-2.1.8.4zm6.5-5.1-.8.8-3 1.3-1-.1.6-1.6 4.2-.4zm-5.2-3.5-.2 3.6h-.3l-.3-1.7.8-1.9zm-.9 3.7-.6.1.4-1.1.2 1zm-1.3.7.1.2-.1.7-.4-.1-.6-.3 1-.5zm-4.7.5 2.3.4-.3.2h-.9l-1.1-.6zm-.4 2.3 1.8-1 1.1.6-2.9.4zm1.2 4.7 3-4 .4-.2.1.1-2.1 3.4-1.4.7zm2.1-.9 1.4-2.3-.2 1.7-1.2.6zm5.1-1.8-.2-.5.2-.2.5.7h-.5zm1.1.3-.8-1.2.3-.3 1.6 1.7-1.1-.2zm1.7.3-1.9-2 5.5 2.8-3.6-.8z"/><path transform="rotate(-180 258.225 645.713)" class="st6" d="M246.6 641.1h23.2v9.3h-23.2z"/><path class="st6" d="m269.8 650.4-23.2-9.3"/><path class="st7" d="M272 641.8h18.6c.1 0 .2.1.2.2v15.8c0 .6-.5 1.2-1.2 1.2H273c-.6 0-1.2-.5-1.2-1.2V642c0-.1.1-.2.2-.2z"/><path class="st7" d="M272 641.1h18.6c.5 0 .9.4.9.9v15.8c0 1-.8 1.9-1.9 1.9H273c-1 0-1.9-.8-1.9-1.9V642c0-.5.4-.9.9-.9z"/><circle class="st7" cx="281.3" cy="644" r="1.2"/><path class="st8" d="M474 12.5 163.4 57.4h270.4v43.4z"/><path class="st8" d="m474 100.8-40.2-43.4-270.4-44.9"/><path class="st9" d="M428.1 654.7h1.2v29.8h-1.2zM427.5 684.5h2.3v2.3h-2.3zM158.5 654.7h1.2v29.8h-1.2zM157.9 684.5h2.3v2.3h-2.3zM427.5 652.4h2.3v2.3h-2.3zM157.9 652.4h2.3v2.3h-2.3z"/><circle class="st9" cx="149.8" cy="682.1" r="1.6"/><path class="st9" d="M154.3 686.8v-8.3H145v8.3"/><circle class="st9" cx="419.4" cy="682.1" r="1.6"/><path class="st9" d="M424 686.8v-8.3h-9.3v8.3M163.4 24.1h250.9v50.4h9.3V24.1H474"/><circle class="st9" cx="169.2" cy="18.6" r="1.6"/><circle class="st9" cx="419" cy="70.9" r="1.6"/><circle class="st9" cx="467.1" cy="18.4" r="1.6"/><path class="st9" d="M163.2 695.4v184.8M424.5 695.4v184.8M432.8 695.4v184.8M154.9 695.4v184.8M450.1 880.2H135.8M450.1 888.6H135.8M420 832.9h4.4v2.8H420zM416.5 834.8h1v-1h-1v-.5h3.4v2h-3.4z"/><path class="st9" d="M396.8 833.8h20.8v1.1h-20.8zM420 739.9h4.4v2.8H420zM416.5 741.9h1v-1.1h-1v-.5h3.4v2h-3.4z"/><path class="st9" d="M396.8 740.8h20.8v1.1h-20.8zM413.8 695.6H173.9M144.2 695.6h-8.4M450.1 695.6h-6.6"/><path class="st10" d="M163.4 57.4V12.5H474v88.3h-75.3"/><path class="st10" d="M484.2 115.2V2.3H136v10.2h18.6v44.9M173.9 686.8v9.8h-9.1v-1.2h-11.6v1.2h-9v-9.8zM443.5 686.8v9.8h-9v-1.2h-11.6v1.2h-9.1v-9.8z"/><path d="M280.4 771v-1.1h.9v1.1h4.9v.7h-4.9v1h3.9v4.1h-1.6v1h3v.8h-3v2.1c0 .3-.2.5-.5.7-.3.2-.8.2-1.5.2 0-.3-.1-.7-.4-1h1.1c.2 0 .2-.1.2-.2v-1.8h-7.6v-.8h7.6v-1h-6.1v-4.1h3.8v-1h-5v-.7h5.2zm-.9 9.2-.7.6c-.3-.5-.8-1.1-1.4-1.6l.6-.5c.6.5 1.1 1 1.5 1.5zm-2-5.8h3v-1h-3v1zm2.9.7h-3v1h3v-1zm.9-.7h3.1v-1h-3.1v1zm0 .7v1h3.1v-1h-3.1zM298.7 770.7v9.8c0 .4-.1.7-.4.9s-.7.2-1.4.3c0-.3-.1-.7-.3-1h1.1c.1 0 .2-.1.2-.3v-3h-3.4v4.2h-.9v-4.2h-3.1c-.2 1.7-.7 3.2-1.6 4.4-.3-.4-.5-.7-.8-.8 1-1.2 1.5-2.8 1.5-4.9v-5.3h9.1zm-5.2 5.9v-2.1h-3v2.1h3zm0-3v-2.1h-3v2.1h3zm.9 0h3.4v-2.1h-3.4v2.1zm0 3h3.4v-2.1h-3.4v2.1zM307.8 769.8v1.2h4.8v.8h-9.4v3.4c0 1.5-.1 2.7-.2 3.5-.2 1-.5 1.9-1 2.9-.2-.3-.5-.5-.8-.6.5-.8.8-1.7 1-2.6.1-.7.2-1.7.2-3.2v-4.3h4.6v-1.2h.8zm-1.3 3.5c-.4.8-.8 1.6-1.2 2.3h1.6c-.1 1.6-.3 2.8-.8 3.7 0 .1-.1.1-.1.2.2.2.4.3.6.4.8.4 1.8.7 2.8.7h3.7c-.2.2-.3.5-.3.8h-3.2c-1.2 0-2.3-.3-3.4-.8-.2-.1-.4-.2-.6-.4-.5.5-1.1 1-1.9 1.4-.2-.3-.4-.5-.6-.7.8-.4 1.5-.8 1.9-1.3-.5-.6-.9-1.3-1.1-2.3l.8-.3c.2.8.5 1.4.9 1.9.4-.7.6-1.5.6-2.5H305c-.1.1-.1.2-.2.3l-.8-.4c.6-1 1.1-1.9 1.4-2.7h-1.6v-.8h1.9l.2-.1.6.6zm5.9 0c-.6.2-1.2.3-1.8.5v1.8h2.3v.8h-2.3v2h1.9v.8h-4.6v-.8h1.9v-2h-2.3v-.8h2.3v-1.7c-.7.1-1.4.2-2 .3 0-.2-.2-.5-.4-.8 1.5-.1 3-.4 4.5-.9l.5.8zM276 653.1c-.1.2-.3.3-.4.4h1.4l.2.3c-.6.6-1.1 1-1.5 1.3-.5.3-1.2.7-2.1 1 0-.1-.1-.2-.2-.4.6-.2 1.1-.4 1.8-.8l-.6-.6.3-.2c.3.2.4.4.6.6.5-.3.9-.6 1.2-1h-1.5c-.1.1-.2.2-.3.2-.4.3-.9.5-1.3.7-.1-.1-.1-.2-.2-.3.4-.1.8-.3 1.2-.6.4-.2.8-.6 1.1-.9l.3.3zm.9 2c-.2.2-.5.4-.7.6h1.5l.2.3c-.4.6-1 1.1-1.6 1.4-.7.4-1.6.7-2.7.9-.1-.1-.1-.3-.2-.4.8-.1 1.6-.2 2.3-.6-.2-.2-.4-.4-.6-.7l.3-.2.7.7c.5-.3.9-.6 1.3-1.1h-1.7l-.1.1c-.4.3-1 .5-1.7.8l-.3-.3c.6-.2 1.2-.4 1.7-.7.4-.2.8-.6 1.2-1l.4.2zM282.9 658h-.4v-.3H280v.4h-.4v-4.6h3.2v4.5zm-.4-3.3v-.9H280v.9h2.5zm0 1.3v-1H280v.9h2.5zm0 1.3v-.9H280v.9h2.5zM286 653.1l-.2.8h.7v3.8h-.4v-.3h-1v.4h-.4v-3.9h.7l.1-.9.5.1zm.2 2.4v-1.2h-1v1.2h1zm0 1.6v-1.3h-1v1.3h1zm1.7-4c-.1.3-.2.6-.2.9h1.7v1.7c0 1.1 0 1.7-.1 2 0 .2-.1.3-.2.3-.2.1-.4.1-.8.1 0-.1-.1-.3-.2-.4h.6c.1 0 .2-.1.2-.2 0-.2.1-.8.1-1.8v-1.4h-1.4v.1c-.1.4-.3.7-.5 1.1-.1-.1-.2-.2-.3-.2.2-.4.4-.8.5-1.2.1-.4.2-.7.3-1.1l.3.1zm.5 2.9-.3.3c-.2-.2-.4-.5-.7-.8l.2-.3c.4.3.6.6.8.8zM268.8 664.6c-.5-.6-1-1.3-1.7-1.9-.6.7-1.4 1.3-2.3 1.9-.1-.2-.2-.3-.3-.4.8-.4 1.5-.8 2-1.3.4-.4.9-1.1 1.5-2h-3v-.4h3.2l.3.3c-.4.6-.7 1.2-1 1.6.7.6 1.3 1.2 1.8 1.9l-.5.3zM273.3 664.4v-.4h-2.9v.4h-.4v-3.8h3.8v3.8h-.5zm0-3.3h-2.9v2.6h2.9v-2.6zM275.1 662.9c-.1-.3-.3-.6-.6-1l.3-.2c.2.3.4.7.6 1l-.3.2zm2.5.2c-.3.5-.6.9-1 1.2-.3.3-.8.5-1.3.7-.1-.1-.1-.3-.2-.4.5-.1.9-.3 1.2-.6.3-.2.6-.6.9-1 .2-.3.4-.8.5-1.4l.4.1c-.1.6-.3 1-.5 1.4zm-1.5-.5c-.1-.3-.3-.7-.5-1l.3-.1c.2.4.4.7.5 1l-.3.1zM281.6 663.4c-.5.6-1.2 1-2.2 1.4 0-.1-.1-.3-.2-.4.8-.3 1.5-.6 2-1.2.5-.5.9-1.2 1.2-2.1h-3.6v-.4h3.8l.3.3c-.4 1.1-.9 1.9-1.3 2.4zm1.9-2.8c-.1.1-.2.2-.4.2s-.3-.1-.4-.2c-.1-.1-.2-.2-.2-.4s.1-.3.2-.4c.1-.1.2-.2.4-.2.1 0 .3.1.4.2.1.1.2.2.2.4 0 .1-.1.3-.2.4zm-.2-.6c-.1-.1-.1-.1-.2-.1-.2 0-.3.1-.3.3 0 .1 0 .2.1.2.1.1.1.1.2.1s.2 0 .2-.1c.1-.1.1-.1.1-.2s0-.2-.1-.2zM285.1 662.6c-.3-.2-.7-.4-1-.5l.2-.4c.4.1.8.3 1.1.5l-.3.4zm1.6 1c-.6.4-1.3.8-2.2 1.1l-.2-.5c1.6-.5 2.9-1.4 3.9-2.7l.3.3c-.6.8-1.2 1.3-1.8 1.8zm-1.1-2.4c-.4-.2-.7-.4-1-.6l.2-.4c.4.2.8.4 1.1.6l-.3.4zM291.6 663.4c-.6.4-1.3.9-2.2 1.3l-.3-.5c1.5-.5 2.9-1.5 4-2.9l.3.3c-.6.8-1.2 1.4-1.8 1.8zm-1.2-1.7c-.4-.4-.8-.7-1.2-1l.3-.4c.5.3.9.6 1.3.9l-.4.5zM296.9 663.5c-.6.6-1.3 1-2.2 1.3-.1-.1-.1-.3-.2-.4.8-.2 1.5-.6 2-1 .4-.4.8-1.1 1.2-1.9h-1.8c-.4.6-.8 1.2-1.3 1.6-.1-.1-.2-.2-.4-.3l1.1-1.1c.2-.3.5-.8.8-1.4l.5.2c-.1.2-.2.4-.4.7H298.1l.3.3c-.6.7-1 1.4-1.5 2zM283.6 674.3c-.2 1.8-.5 3.1-1 3.9-.5.7-1.5 1.5-3.1 2.2-.1-.3-.3-.6-.6-.9 1.4-.5 2.4-1.1 2.9-1.8s.8-1.8.9-3.4h-5v-.9h10.5v.9h-4.6zm-4.1-2.8v-.9h7v.9h-7zM295.7 678c-1.1.9-2.6 1.7-4.6 2.3-.1-.3-.2-.6-.4-.9 1.7-.3 3-.9 4-1.6 1-.8 1.9-2 2.7-3.6h-7.9v-.9l8.6-.1.6.6c-1 1.9-2 3.3-3 4.2zm-5.1-6.7v-.9h6.5v.9h-6.5zM309.2 679.6c-1-1.4-2.2-2.7-3.5-4-1.3 1.5-3 2.8-5 4-.2-.4-.4-.7-.7-.9 1.7-.8 3.1-1.7 4.2-2.7.9-.9 1.9-2.3 3.1-4.3h-6.2v-.9h6.6l.1-.1.7.7c-.8 1.3-1.5 2.5-2.2 3.4 1.5 1.3 2.8 2.6 3.9 4l-1 .8zM308.3 77.6c-.2 1.8-.5 3.1-1 3.9-.5.7-1.5 1.5-3.1 2.2-.1-.3-.3-.6-.6-.9 1.4-.5 2.4-1.1 2.9-1.8s.8-1.8.9-3.4h-5v-.9H313v.9h-4.7zm-4.1-2.8v-.9h7v.9h-7zM320.4 81.3c-1.1.9-2.6 1.7-4.6 2.3-.1-.3-.2-.6-.4-.9 1.7-.3 3-.9 4-1.6 1-.8 1.9-2 2.7-3.6h-7.9v-.9l8.6-.1.6.6c-1 1.9-1.9 3.3-3 4.2zm-5-6.7v-.9h6.5v.9h-6.5zM334 82.9c-1-1.4-2.2-2.7-3.5-4-1.3 1.5-3 2.8-5 4-.2-.4-.4-.7-.7-.9 1.7-.8 3.1-1.7 4.2-2.7.9-.9 1.9-2.3 3.1-4.3h-6.2v-.9h6.6l.1-.1.7.7c-.8 1.3-1.5 2.5-2.2 3.4 1.5 1.3 2.8 2.6 3.9 4l-1 .8zM411.4 779.1c0 .3 0 .5-.1.7h.5v-1.3h.4v1.3h.6v.3h-.6v1.2c.2-.1.4-.1.6-.2v.4c-.2.1-.4.1-.6.2v2.1h-.4v-2c-.3.1-.7.2-1 .3l-.1-.4c.3-.1.7-.2 1.1-.3v-1.3h-.5c-.1.3-.1.6-.2.8h-.3c.2-.6.3-1.2.4-1.9l.2.1zm2.6-.4c-.1.4-.2.7-.4 1h2.1l-.1 3.1c0 .3-.1.6-.1.7-.1.1-.2.2-.5.3h-.5c0-.2 0-.3-.1-.4h.6c.1 0 .2 0 .2-.1s0-.2.1-.4l.1-2.7h-.4c0 .8-.2 1.5-.5 2.1-.4.6-.8 1.1-1.4 1.5l-.3-.3c.6-.4 1-.8 1.3-1.4.3-.5.5-1.1.5-1.9h-.4c-.1.4-.2.9-.4 1.3-.3.5-.6.8-.9 1.1-.1-.1-.1-.2-.2-.3.3-.2.6-.5.8-.9.2-.3.3-.7.4-1.2h-.3c-.2.4-.4.7-.6 1-.1-.1-.2-.2-.3-.2.3-.4.5-.8.6-1.2.2-.3.3-.7.4-1.1h.3zM415.4 784.8v.4h-2v1.5h2.3v.4h-2.3v2.6h-.4V787h-2.3v-.4h2.3v-1.5h-1.9v-.4h4.3zM413.6 790.2c0 .1-.1.1-.1.1.4.4.8.8 1.2 1.1.4.3.8.6 1.2.7-.1.1-.2.3-.2.4-.4-.2-.7-.4-1-.6v.3h-1.2v.6h2v.4h-2v1.4h2.3v.4h-4.9v-.4h2.2v-1.4h-2v-.2h2v-.6h-1.2v-.3c-.4.3-.7.5-.9.6-.1-.1-.2-.3-.3-.3.5-.3.9-.6 1.3-1s.8-.8 1.2-1.4l.4.2zm-1.2 4.1-.4.2c-.1-.2-.3-.5-.4-.7l.4-.2c.1.2.3.5.4.7zm2.2-2.3c-.1-.1-.3-.2-.4-.3-.4-.3-.7-.7-1-1-.3.4-.7.7-1 1.1-.1.1-.2.2-.3.2h2.7zm.4 1.7-.5.9-.3-.2.4-.9.4.2zM411.4 796.4c0 .3 0 .5-.1.7h.5v-1.3h.4v1.3h.6v.3h-.6v1.2c.2-.1.4-.1.6-.2v.4c-.2.1-.4.1-.6.2v2.1h-.4v-2c-.3.1-.7.2-1 .3l-.1-.4c.3-.1.7-.2 1.1-.3v-1.3h-.5c-.1.3-.1.6-.2.8h-.3c.2-.6.3-1.2.4-1.9l.2.1zm2.6-.5c-.1.4-.2.7-.4 1h2.1l-.1 3.1c0 .3-.1.6-.1.7-.1.1-.2.2-.5.3h-.5c0-.2 0-.3-.1-.4h.6c.1 0 .2 0 .2-.1s0-.2.1-.4l.1-2.7h-.4c0 .8-.2 1.5-.5 2.1-.4.6-.8 1.1-1.4 1.5l-.3-.3c.6-.4 1-.8 1.3-1.4.3-.5.5-1.1.5-1.9h-.4c-.1.4-.2.9-.4 1.3-.3.5-.6.8-.9 1.1-.1-.1-.1-.2-.2-.3.3-.2.6-.5.8-.9.2-.3.3-.7.4-1.2h-.3c-.2.4-.4.7-.6 1-.1-.1-.2-.2-.3-.2.3-.4.5-.8.6-1.2.2-.3.3-.7.4-1.1h.3zM248.2 646.3c-.2.7-.4 1.3-.6 1.8l-.2-.2c.2-.5.4-1.1.6-1.8l.2.2zm-.1-1.4-.1.3c-.1-.1-.3-.3-.5-.4l.1-.3c.1.1.3.3.5.4zm.2-1.3-.2.3-.5-.5.2-.3c.2.2.4.3.5.5zm2.5 4h.3v.4h-3v-.4h.4v-1.7h2.2v1.7zm-2.1-2.2v-2.2h1.8v2.2h-1.8zm.5 2.2v-1.3h-.4v1.3h.4zm-.2-3.5h1.3v-.5H249v.5zm0 .3v.6h1.3v-.6H249zm.9 3.2v-1.3h-.4v1.3h.4zm.6 0v-1.3h-.4v1.3h.4zM252.8 644.7c-.1.8-.2 1.3-.4 1.7-.2.5-.4.9-.7 1.3-.1-.1-.1-.3-.2-.3.3-.3.5-.7.7-1.1.1-.4.3-.9.3-1.4h-.9v-.4h1l.2.2zm.6-1.7v.9c.1.5.2.9.3 1.3.3-.3.6-.6.9-1l.2.3c-.3.4-.6.8-.9 1.1.1.1.1.3.2.4.3.6.6 1 1 1.3-.1.1-.1.2-.2.4-.4-.3-.8-.8-1-1.4-.2-.4-.3-.8-.4-1.2v2.7c0 .1-.1.2-.1.3-.1.1-.3.1-.4.1 0-.1 0-.3-.1-.4h.3s.1 0 .1-.1V643h.1zM255.7 647.3l-.3-.3c.3-.5.5-1 .8-1.7l.3.2c-.2.7-.5 1.3-.8 1.8zm1.5-2.6v3.2h-.3v-3.2h-1.5v-.4h1.5v-1.2h.3v1.2h1.6v.4h-1.6zm1.4 2.5c-.3-.5-.6-1-.9-1.7l.3-.3c.3.7.6 1.2.9 1.7-.2.1-.2.2-.3.3zm-.3-3.1c-.1-.2-.2-.4-.4-.6l.1-.2c.2.2.3.4.5.5l-.2.3zm.3-.4c-.1-.2-.2-.4-.4-.6l.1-.2c.2.2.3.4.5.5l-.2.3zM261.1 644.8v3.2h-.3v-2.8c-.5.6-1 1-1.5 1.3 0-.2-.1-.3-.2-.4.5-.3 1-.7 1.4-1.2.4-.5.8-1.1 1.2-1.7l.3.3c-.3.5-.6.9-.9 1.3zM264.6 646.9c-.3.4-.9.8-1.5 1.1 0-.1-.1-.3-.1-.4.6-.2 1-.4 1.3-.8.3-.4.6-.9.9-1.7h-2.6v-.4h2.8l.2.3c-.3.9-.6 1.5-1 1.9zm-1.6-3.1v-.4h2.1v.4H263zM265.9 645.7v-.4h3.1v.4h-3.1zM298.7 39.4c-.5-.5-.9-1-1.2-1.4-.3-.6-.5-1.2-.5-1.9s.2-1.3.5-1.9c.3-.4.6-.9 1.2-1.4l.4.3c-.5.5-.9.9-1.1 1.3-.3.5-.4 1.1-.4 1.7 0 .6.1 1.2.4 1.7.2.4.6.8 1.1 1.3l-.4.3zM304.7 32.7V35h2.4v.5h-2.4v3h3v.5h-6.4v-.5h2.9v-5.8h.5zM313.3 34.1l-.4 1.2h1v.5H310v-.5h2.4l.4-1.4.5.2zm-1.1-1.5v.8h1.5v.5h-3.5v-.5h1.5v-.8h.5zm1.3 6.2h-.5v-.3h-2v.5h-.5v-2.7h2.9v2.5zm-2-3.8-.5.1c-.1-.3-.2-.6-.3-1l.4-.1c.1.3.2.7.4 1zm1.5 3.1v-1.3h-2v1.3h2zm3.1-5.2.5.3c-.3.6-.6 1.2-.9 1.9.4.5.6 1 .7 1.2.1.3.2.6.2.9 0 .2 0 .4-.1.5-.1.2-.2.3-.4.4-.2.1-.5.1-.7.1 0-.2-.1-.4-.2-.5h.6c.2 0 .3 0 .3-.1s.1-.1.1-.3c0-.3 0-.5-.1-.8-.1-.3-.4-.7-.8-1.3.3-.6.5-1.2.8-1.8h-1.3v5.7h-.5v-6.2h1.8zM321 33.4v3.5h-1.4v.8h-.5v-4.3h1.9zm-.4 3v-2.5h-.9v2.5h.9zm2.2-3.8c-.1.5-.3 1-.4 1.4h2.5l.4.3c-.3.5-.6 1.1-.9 1.6l-.4-.2c.3-.5.5-.9.7-1.2h-1.3v1.3c.2.7.5 1.2.8 1.7.4.5.8.9 1.4 1.2-.1.1-.2.3-.3.4-.6-.3-1.1-.7-1.5-1.2-.3-.4-.5-.8-.7-1.2-.1.3-.2.5-.3.7-.3.6-1 1.2-1.9 1.8-.1-.2-.2-.3-.3-.4.8-.4 1.4-.9 1.7-1.4.4-.6.5-1.2.5-1.9v-.9h-.6c-.2.5-.4.9-.6 1.2-.1-.1-.2-.2-.4-.3.3-.5.5-1 .7-1.5.2-.5.3-.9.4-1.4h.5zM328.7 34.1v-1.5h.5v1.5h.8v.5h-.8v1.2c.3-.1.5-.2.8-.3v.5c-.3.1-.6.2-.8.3v2.5c0 .2-.1.3-.3.4-.2.1-.4.1-.8.1 0-.2-.1-.4-.2-.6h.6c.1 0 .1 0 .1-.1v-2.1c-.3.1-.7.3-1 .4l-.1-.5c.3-.1.7-.2 1.1-.3v-1.4h-1v-.5h1.1zm2.6-.3c0-.4.1-.8.1-1.2h.5c0 .4 0 .9-.1 1.2h2.5v.5h-2.6c0 .4-.1.7-.2 1.1H333.4l.3.3c-.3.9-.7 1.6-1.1 2 .4.4 1 .7 1.6.9-.1.1-.3.3-.3.5-.7-.3-1.2-.6-1.7-1-.4.4-1 .8-1.7 1.2-.1-.2-.2-.3-.3-.5.7-.3 1.2-.7 1.7-1.1-.3-.4-.6-.7-.8-1.2-.3.9-.8 1.7-1.5 2.3-.1-.2-.2-.3-.3-.4.7-.6 1.2-1.4 1.5-2.4.1-.5.2-1.1.3-1.7H330v-.5h1.3zm1.1 3.5c.4-.4.6-.9.8-1.5h-1.7c.2.6.5 1.1.9 1.5zM337.9 38c-.3.5-.6.9-1.2 1.4l-.4-.3c.5-.5.9-.9 1.1-1.3.3-.5.4-1.1.4-1.7 0-.6-.1-1.2-.4-1.7-.2-.4-.6-.8-1.1-1.3l.4-.3c.5.5.9 1 1.2 1.4.3.6.5 1.2.5 1.9s-.1 1.3-.5 1.9z"/><path class="st11" d="M176.3 363.3h83.9v65.2h-83.9zM420.9 421.4v-30.2H308v40h78v-6h-7.4v-3.8zM362.9 316.2v2.2h-51.8v-.8h.4v-1.2h-1.2v-.7h-1v-32.5h1v-.7h1.2v-1.2h51.8v34.9z"/><path transform="rotate(-180 170.744 302.44)" class="st12" d="M167.2 281.4h7.1v42h-7.1z"/><path transform="rotate(-180 369.392 298.768)" class="st12" d="M363.3 281.3h12.1v34.9h-12.1z"/><path transform="rotate(-180 399.238 308.53)" class="st12" d="M378.6 300.9h41.2v15.3h-41.2z"/><path class="st12" d="M175.7 244.2v-1.8h42.8v1.8h8.5v24.7h-59.8v-24.7zM470 115.2h-47.1v4.7H421v30.2h49zM257.7 245.2h-26.5v33h24.6v-2.8h1.9zM166.8 444.8h89.6v24.7h-2.1v1.8h-85.5v-1.8h-2z"/><path transform="rotate(-180 348.482 343.458)" class="st12" d="M311.1 332.9h74.8v21h-74.8z"/><path transform="rotate(-180 336.976 323.661)" class="st12" d="M311.1 318.6h51.8v10.2h-51.8z"/><path class="st13" d="M419.1 237.2v1.9h11.4v38.4h-13.2v.6h-47.7v-40.9zM387.1 281.3v-1.8h30.2v1.8h2.5v19.6h-41.1v-19.6z"/><path transform="rotate(-180 169.75 395.847)" class="st14" d="M164.1 363.2h11.2v65.3h-11.2z"/><path transform="rotate(-180 395.824 429.392)" class="st14" d="M388.8 425.1h14v8.6h-14z"/><path transform="rotate(-180 374.39 324.104)" class="st14" d="M366.1 319.5h16.5v9.3h-16.5z"/><path transform="rotate(-180 271.747 622.884)" class="st14" d="M255.9 617.8h31.6V628h-31.6z"/><path transform="rotate(-180 413.277 430.802)" class="st12" d="M406.1 425.1h14.4v11.4h-14.4z"/><path style="fill:#feeab4" d="M474 164.3V211h-.9v-.7h-1.9v2.7h-34.9v-2.7h-1.8v.7h-.7v-46.7z"/><path style="fill:#d2cce6" d="M484.2 221.2h-11.1V215h-38.6v6.2h-.7v.9h.4v56.4h-.4v6.1h50.4z"/><path class="st12" d="M167.3 328.3h16.2v30.2h-16.2z"/><path class="st11" d="M262.7 356.1v-38.6H261v-34.9h-.2v-1.2h-86.5v42.1h-7v4.8h16.2v30.3h39.4v-.5h37.3v.5h1v-1.3h-.5v-1.2z"/><path style="fill:#feebbe" d="M295.2 460h96.5v112.7h-96.5z"/><path class="st4" d="M272.9 115.2v-8.3h.8v-4h-1v-2.1h53.5v2.1h-1v4h.8v8.3h-20.8v118.7h2.4v3.3H300V233h1.1V115.2zM348.5 233.9h71.1v-83.8H470v-34.9h14.2v106h-11.1V211h.9v-46.7h-40.2V211h.7v10.2h-.7v.9h-1.9v16h-1.4v1h-11.4v-1.9h-70.6zM241.1 614.5v8.4h.7v4h-.9v2.1h2.5v11.6h56.7V629h4.8v-2.1h-.9v-4h.7v-8.4h-63.6zm14.8 3.3h31.6V628h-31.6v-10.2zM375.4 281.3v34.9h-12.6v12.6H311v-11.2h-3.3v36.8h3.3v-21.5h75.3v-13.5h34.6v101.9h-42.3v3.7h7.3v12H406v-11.9h14.4v189.4h-38.2v8.4h.7v4h-.9v2.1h41.5v23.5h10.2V629H450v-14.4h-13.2l-.5-319.7h8.6v-10.2h-11.3v-6.1h-3.3v-1h-13.2v3.8h2.6v34.9h-41.2v-34.9h8.4v-3.3h-79.2v3.3h67.7zm27.4 152.4h-14v-8.6h14v8.6zm-20.2-114.2v9.3h-16.5v-9.3h16.5zM150.9 363.2v251.3h-15.1v14.4h18.1v23.5h10.2v-23.5h18.1v-2.1h-.9v-3.9h.7v-8.4h-14.9V472.7h1.6v-3.3h-2.1v-24.6h89.7v24.6h-2.1v3.3h2.1v5.5h3.3v-34.8h6.3V332.9h.9v-4.2h-.8v-11.3h-3.3v38.7h.3v1.2h-1.8v1.3h-1.1v4.8h.1v65.2h-83.9v-65.3h46.6v-4.7h-55.7v-77.1H266v-3.3h-6.9v-2.8h-3.3v2.8h-24.6v-33h27.9V233h-4.2v8h-36.4v3.3h8.5v24.6h-59.8v-24.4h8.5V241h-8.5V115.2h28.1v-8.4h-.7v-4h.9v-2.1h-59.7v14.4h15.1v248.1zm13.2 0h11.2v65.3h-11.2v-65.3z"/><path class="st18" d="M470 119.9h-47.1M470 124.5h-49M470 129.2h-49M470 133.8h-49M470 138.5h-49M470 143.1h-49M470 147.8h-49M419.5 119.9H305.2M419.5 124.5H305.2M419.5 129.2H305.2M419.5 133.8H305.2M419.5 138.5H305.2M419.5 143.1H305.2M419.5 147.8H305.2M301.1 119.9H167.2M301.1 124.5H167.2M301.1 129.2H167.2M301.1 133.8H167.2M301.1 138.5H167.2M301.1 143.1H167.2M301.1 147.8H167.2M419.6 152.4H305.2M419.6 157.1H305.2M419.6 161.7H305.2M419.6 166.4H305.2M419.6 171H305.2M419.6 175.7H305.2M419.6 180.3H305.2M419.6 185H305.2M419.6 189.6H305.2M419.6 194.3H305.2M419.6 198.9H305.2M419.6 203.6H305.2M419.6 208.2H305.2M419.6 212.9H305.2M419.6 217.5H305.2M419.6 222.2H305.2M419.6 226.8H305.2M419.6 231.5H305.2M301.1 152.4H167.2M301.1 157.1H167.2M301.1 161.7H167.2M301.1 166.4H167.2M301.1 171H167.2M301.1 175.7H167.2M301.1 180.3H167.2M301.1 185H167.2M301.1 189.6H167.2M301.1 194.3H167.2M301.1 198.9H167.2M301.1 203.6H167.2M301.1 208.2H167.2M301.1 212.9H167.2M301.1 217.5H167.2M301.1 222.2H167.2M301.1 226.8H167.2M301.1 231.5H167.2M347.4 236.1h-38.7M298.8 236.1h-38.6M254.9 236.1h-87.7M369.6 240.8H259.1M254.9 240.8h-87.7M369.6 245.4H259.1M369.6 250H259.1M369.6 254.7H259.1M369.6 259.3H259.1M369.6 264H259.1M227 245.4h-59.7M227 250h-59.7M227 254.7h-59.7M227 259.3h-59.7M227 264h-59.7M369.6 268.6H259.1M227 268.6h-59.8M369.6 273.3H259.1M369.6 277.9H259.1M307.3 282.6h-45M307.3 287.2h-45M307.3 291.9h-45M307.3 296.5h-45M307.3 301.2h-45M307.3 305.8h-45M307.3 310.5h-45M307.3 315.1h-45M307.8 319.8H266M307.8 324.4H266M306.7 329.1h-40.3M307.8 333.7H266M307.8 338.4H266M307.8 343H266M307.8 347.7H266M307.8 352.3H266M420.9 338.4h-35M420.9 333.7h-35M420.9 329.1h-35M420.9 324.4h-35M420.9 319.8h-35M420.9 343h-35M420.9 347.7h-35M420.9 352.3h-35M420.9 357H266M420.9 361.6H266M420.9 366.3H266M420.9 370.9H266M420.9 375.6H266M420.9 380.2H266M420.9 384.9H266M420.9 389.5H266M308 394.2h-42M308 398.8h-42M308 403.5h-42M308 408.1h-42M308 412.8h-42M308 417.4h-42M308 422.1h-42M308 426.7h-42M386 431.4H266M385.9 436H266M420.3 440.6H266M420.3 445.3H259.6M420.3 449.9H259.6M420.3 454.6H259.6M420.3 459.2H259.6M420.3 463.9H259.6M420.3 468.5H259.6M420.3 473.2H259.6M420.3 477.8H259.6M420.3 482.5H261.4M420.3 487.1H261.4M420.3 491.8H261.4M420.3 496.4H261.4M420.3 501.1H261.4M420.3 505.7H261.4M420.3 510.4H261.4M420.3 515H262.9M420.3 519.7H262.9M420.3 524.3H262.9M420.3 529H262.9M420.3 533.6H262.9M420.3 538.3H262.9M420.3 542.9H262.9M420.3 547.6H264.4M420.3 552.2H264.4M420.3 556.9H264.4M420.3 561.5H264.4M420.3 566.2H264.4M420.3 570.8H264.4M420.3 575.5H264.4M420.3 580.1H266M420.3 584.8H266M420.3 589.4H266M420.3 594.1H266M420.3 598.7H266M420.3 603.4H266M420.3 608H266M420.3 612.7H266M256.4 445.3h-89.6M256.4 449.9h-89.6M256.4 454.6h-89.6M256.4 459.2h-89.6M256.4 463.9h-89.6M256.4 468.5h-89.6M256.4 473.2h-89.2M256.4 477.8h-89.2M259.8 482.5h-92.6M259.8 487.1h-92.6M259.8 491.8h-92.6M259.8 496.4h-92.6M259.8 501.1h-92.6M259.8 505.7h-92.6M259.8 510.4h-92.6M261.4 515h-94.2M261.4 519.7h-94.2M261.4 524.3h-94.2M261.4 529h-94.2M261.4 533.6h-94.2M261.4 538.3h-94.2M261.4 542.9h-94.2M262.9 547.6h-95.7M262.9 552.2h-95.7M262.9 556.9h-95.7M262.9 561.5h-95.7M262.9 566.2h-95.7M262.9 570.8h-95.7M262.9 575.5h-95.7M262.9 580.1h-95.7M264.5 584.8h-97.3M264.5 589.4h-97.3M264.5 594.1h-97.3M264.5 598.7h-97.3M264.5 603.4h-97.3M264.5 608h-97.3M264.5 612.7h-97.3"/><path class="st19" d="M393.3 237.2v40.9M411.9 237.2v40.9M393.3 279.5v21.4M411.9 279.5v21.4M430.5 249h-55.8M430.5 267.6h-55.8M419.8 286.2h-45.1"/><path class="st20" d="M263.7 240.9h155.9v26.4H263.7zM309.4 354.4v70.2H266M266.4 444.6v168.8M255.9 479.4v134"/><path class="st21" d="M406.4 117.7h-87.9M406.4 120.1h-87.9M280.8 117.7h-92.6M280.8 120.1h-92.6M248.3 612.1h-71.2M248.3 609.6h-71.2M389.4 612.1h-92.6M389.4 609.6h-92.6"/><path class="st6" d="M390.3 614.5v-7.4h-94.4v7.4M249.2 614.5v-7.4h-73v7.4"/><path class="st22" d="M256.4 457.4h-89.6M256.4 458.8h-89.6M419.8 288.8h-41.1M419.8 290.2h-41.1M227 254.9h-59.8M227 256.3h-59.8M455.2 115.2v34.9M453.8 115.2v34.9"/><path class="st23" d="m166.8 444.8 89.6 21h-89.6M231.2 278.2l18.6-33v33M167.2 268.9 227 248h-59.8M470 115.2l-20.9 34.9v-34.9M474 164.3l-40.2 20.9H474M378.7 316.2l41.1-15.3h-41.1M375.4 281.3l-12.1 34.9v-34.9M420.5 425.1l-14.4 11.4M167.3 328.3h16.2v30.3M167.2 358.6l16.3-30.3"/><path class="st7" d="M311.1 354h74.8v-21.1M420.5 436.5h-14.4M369.6 237.2v40.9M374.7 237.2v40.9"/><path class="st6" d="M378.6 421.4V393h42.3"/><path transform="rotate(-180 404.065 337.977)" class="st6" d="M387.8 321.7h32.5v32.5h-32.5z"/><path transform="rotate(-180 182.428 343.217)" class="st6" d="M167.6 328.3h29.8v29.8h-29.8z"/><path class="st6" d="M173.6 281.4v42.1"/><path class="st7" d="M195.2 281.4v7.1s.7 7 .7 14.4-.7 13.6-.7 13.6v6.9h-27.9M174.2 317v6.4M174.3 288.1v-6.7"/><path class="st7" d="m173.6 317 1.6-4.3c.4-1.1 2-1.2 2-1.2 2-.2 3.9 0 6.4.3 2.5.2 4.4 1.2 6.3 3.3s4.6 1.9 4.6 1.9h-24.2c-.8 0-.9-.8-.9-.8l-.1-1s-.6-5.3-.6-12.6.7-13.6.7-13.6c.1-.8.9-.8.9-.8h24.2s-2.7-.3-4.6 1.9c-2 2.2-4 3.2-7.7 3.5-3.7.3-5.5.1-5.5.1s-1.2-.2-1.6-1.2-1.5-4.3-1.5-4.3"/><path class="st7" d="M173.2 288.2s.8 8.2.8 14.4-.8 14.4-.8 14.4"/><circle class="st7" cx="178.9" cy="302.5" r="1.2"/><path class="st7" d="M331.8 327.8h-14.4c-.1 0-.2-.1-.2-.2v-6.5c0-.1.1-.2.2-.2h14.4c.1 0 .2.1.2.2v6.5c0 .1-.1.2-.2.2z"/><path class="st7" d="M321.8 320.9c-.1 0-.2.1-.2.2v6.5c0 .1.1.2.2.2"/><circle class="st7" cx="326.9" cy="325.5" r="1"/><path class="st7" d="M316.6 328.5h15.8c.1 0 .2-.1.2-.2v-7.9c0-.1-.1-.2-.2-.2h-15.8c-.1 0-.2.1-.2.2v7.9c0 .1.1.2.2.2zM312.4 318.6h.9v7.4h-.9z"/><path class="st7" d="M311.1 321.7h1.3v1.1h-1.3zM179 282.8h7.4v.9H179zM182.2 281.4h1.1v1.4h-1.1zM337.7 300.6c0-9 13.5-9.1 13.5-9.1s6.4-.2 9-.2c2.6 0 2.2 1.5 2.2 1.5s.2 5.2.2 7.7-.2 8-.2 8 .3 1.5-2.2 1.5c-2.6 0-9-.2-9-.2s-13.5-.2-13.5-9.1M373.4 307.8c0 2.2-1.7 1.9-1.7 1.9h-5.8c-2.2 0-2.3-1.9-2.3-1.9s-.5-1.9-.5-7.6c0-5.7.5-7 .5-7s.1-1.9 2.3-1.9h5.8s1.7-.2 1.7 1.9v14.6zM362.3 308.9h1.7M362.4 292.6h1M354.9 291.2v18.5"/><path class="st7" d="m358.7 291.1.4 2.7h-1.9v12.8h1.9l-.5 3.1M334.1 281.4v4c0 .3-.3.6-.7.7h-.2c-.3 0-.6-.3-.7-.7v-4M359 281.4v3.2h-24.8"/><path class="st7" d="M333.3 286h26.5s.8 0 .8-.9v-3.7M415.9 415.3c0 .6-.5 1-1 1H389c-.6 0-1-.5-1-1V394c0-.6.5-1 1-1h25.9c.6 0 1 .5 1 1v21.3z"/><path class="st7" d="M389.1 394.6h25.6v18.2h-25.6zM328 406.5c0 2 1.6 3.7 3.7 3.7 2 0 3.7-1.6 3.7-3.7s-1.6-3.7-3.7-3.7c-2 0-3.7 1.6-3.7 3.7z"/><path class="st7" d="M420.9 391.2H308v40h78"/><path class="st7" d="M350.4 416.4c0 1.3-1 2.3-2.3 2.3h-32.6c-1.3 0-2.3-1-2.3-2.3v-19.6c0-1.3 1-2.3 2.3-2.3H348c1.3 0 2.3 1 2.3 2.3v19.6z"/><circle class="st7" cx="408.5" cy="400.8" r="4.6"/><path class="st7" d="M390.6 400.8c0 2.5 2.1 4.6 4.6 4.6 2.5 0 4.6-2.1 4.6-4.6 0-2.5-2.1-4.6-4.6-4.6-2.5 0-4.6 2.1-4.6 4.6zM398.6 408.9c0 1.8 1.5 3.3 3.3 3.3 1.8 0 3.3-1.5 3.3-3.3 0-1.8-1.5-3.3-3.3-3.3-1.8.1-3.3 1.5-3.3 3.3zM398.9 412.9c.8.6 1.8.9 2.9.9 1.1 0 2.1-.3 2.9-.9h9.8v2.3h-25.6v-2.3h10zM330 395.2c-2.8 0-9.9 0-11.5.2-1.6.2-4.5 1.8-4.5 4.9 0 3.1-.2 9.8.1 10.6.3.8 1 3.8 5.3 3.8s3.6-.1 3.6-.1 2 .6 3.2 1.4c1.2.8 2.7 1.8 5.5 1.8h.2c2.8 0 4.3-1 5.5-1.8 1.2-.8 3.2-1.4 3.2-1.4s-.7.1 3.6.1 5-3 5.3-3.8c.3-.8.1-7.4.1-10.6 0-3.1-2.9-4.7-4.5-4.9-1.6-.2-8.7-.2-11.5-.2H330zM362.9 318.4h-51.8M259.9 419.1c-2.9-.1-8.9 2.1-9.1 9.1"/><path class="st7" d="M255.4 420.3v-4.6h-37.1v12.8M218.3 421.6h35.4M218.3 422.7h34.3M218.3 427.5h32.5M211.9 428.5v-65.3M258 377.8v17.6M257.5 377.8v17.6M257.2 377.8h2.9v-.9h-2.7s-.2 0-.2.2v.7zM257.2 395.4h2.9v.9h-2.7s-.2 0-.2-.2v-.7z"/><circle class="st7" cx="203.4" cy="395.9" r="1.6"/><path class="st7" d="M178.7 410.4v1.8c0 3 2 7.2 4.3 9.4 2.2 2.2 6.1 5 10.9 5 4.8 0 9-1.5 12.7-5.6 3.7-4.1 3.7-9.2 3.7-9.2v-32.2c0-3.2-2.5-7.9-4.6-9.9-2.1-2-6.3-4.5-10.4-4.5s-7.5.6-11.9 4.5-4.7 9.9-4.7 9.9v1.8"/><path class="st7" d="M176.4 380.5s1.8.4 3.2 1.3c0 0 .1.1.1.2v2h-.9s-.2 0-.4-.1c-.1-.1-1.3-.6-2.1-.8M176.4 411.2s1.8-.4 3.2-1.3c0 0 .1-.1.1-.2v-2h-.9s-.2 0-.4.1c-.1.1-1.3.6-2.1.8M179.7 384v23.7M178.3 408v-24.2M179.8 382.1l.1-2.9s0-4 3.1-6.9c0 0 1.1-1.3 3.8-1.6 2.7-.3 5.6-.5 7.2-.5s5.4.2 7.6.7c2.2.5 2.9 1.1 3.9 2.3 1 1.3 2 3.8 2 6.4v32.6s.2 3.3-2 6.4c0 0-1.1 1.9-3.9 2.3-2.8.4-5.8.7-7.8.7s-6.5-.2-7.8-.6c-1.3-.4-2.1-.6-3-1.5-.9-.9-2.9-2.9-3.1-7.3l-.1-2.5"/><path class="st7" d="M207.5 398.2s-.1 1.5-.6 2.5-1.3 1.9-1.3 3.7-.3 12.3-.3 12.3.1 3.2-3.7 4.2M188.2 421.3s-5.1.1-5.7-4.7-.9-12.5-.9-12.5.1-.8-.6-2.2c-.6-1.4-1.2-2.7-1.3-4.8M207.5 393.6s-.1-1.5-.6-2.5-1.3-1.9-1.3-3.7-.3-12.3-.3-12.3.1-3.2-3.7-4.2M188.2 370.4s-5.1-.1-5.7 4.7-.9 12.5-.9 12.5.1.8-.6 2.2-1.2 2.7-1.3 4.8"/><path class="st7" d="m204.7 387.8-.4-12.2s-.1-3.3-3.5-3.9c-3.5-.6-6.6-.6-6.6-.6s-5.8.1-7.5.5c-1.7.4-3.3 1.6-3.5 3.7s-.9 12.4-.9 12.4.1.9-.6 2.2c-.6 1.4-1.1 2.1-1.1 3.5v4.9s0 1.1.4 2.2c.5 1 1.1 2 1.2 3.6l.9 12.4s.1 2 2.1 3.2 8.7 1 8.7 1 5.3-.1 6.9-.6 3.3-1.3 3.5-3.9l.4-12.2s0-.9.4-2.1c.5-1.2.9-2.1.9-3.4v-5.4s0-.8-.3-1.7c-.3-.9-.6-1.7-.6-1.7s-.3-.6-.4-1.9z"/><path class="st24" d="M261.7 317.5v38.6M263.7 444.6v100.6M265.2 444.6v133.9M262.1 444.6v67.1M260.6 444.6v33.7"/><path class="st9" d="M398 102.9h1.6v4h-.7v8.8h-.9zM326.8 102.9h-1.6v4h.8v8.8h.8zM398.7 102.9v-2.8h-72.5v2.8M362.4 117.4v-7.1M326.8 115.7H398"/><path class="st9" d="M326.8 113.1h37v1.2h-37z"/><path class="st9" d="M361 111.9h37v1.2h-37zM361 106.5h2.9v2.6H361z"/><path class="st9" d="M326.8 105.4h37v1.2h-37zM361 104.2h37v1.2h-37zM362.4 101.1v5.5M272.1 102.9h1.6v4h-.8v8.8h-.8zM196.2 102.9h-1.6v4h.7v8.8h.9zM272.7 102.9v-2.8h-77.2v2.8M234.1 117.4v-7.1M196.2 115.7h75.9"/><path class="st9" d="M196.2 113.1h39.4v1.2h-39.4z"/><path class="st9" d="M232.8 111.9h39.3v1.2h-39.3zM232.7 106.5h2.9v2.6h-2.9z"/><path class="st9" d="M196.2 105.4h39.4v1.2h-39.4zM232.8 104.2h39.3v1.2h-39.3zM234.1 101.1v5.5M182.9 626.8h-1.5v-3.9h.7V614h.8zM240.2 626.8h1.6v-3.9h-.7V614h-.9zM182.3 626.8v2.8h58.6v-2.8M211.6 612.4v7.1M240.2 614h-57.3"/><path transform="rotate(-180 225.198 616.107)" class="st9" d="M210.2 615.5h30.1v1.2h-30.1z"/><path transform="rotate(-180 197.939 617.27)" class="st9" d="M182.9 616.7h30v1.2h-30z"/><path transform="rotate(-180 211.604 621.949)" class="st9" d="M210.2 620.7h2.9v2.6h-2.9z"/><path transform="rotate(-180 225.198 623.815)" class="st9" d="M210.2 623.2h30.1v1.2h-30.1z"/><path transform="rotate(-180 197.939 624.977)" class="st9" d="M182.9 624.4h30v1.2h-30z"/><path class="st9" d="M211.6 628.7v-5.6M305.5 626.8h-1.6v-3.9h.8V614h.8zM381.4 626.8h1.6v-3.9h-.8V614h-.8zM304.9 626.8v2.8H382v-2.8M343.5 612.4v7.1M381.4 614h-75.9"/><path transform="rotate(-180 361.725 616.105)" class="st9" d="M342 615.5h39.4v1.2H342z"/><path transform="rotate(-180 325.167 617.267)" class="st9" d="M305.5 616.7h39.3v1.2h-39.3z"/><path transform="rotate(-180 343.48 621.947)" class="st9" d="M342 620.7h2.9v2.6H342z"/><path transform="rotate(-180 361.725 623.814)" class="st9" d="M342 623.2h39.4v1.2H342z"/><path transform="rotate(-180 325.167 624.976)" class="st9" d="M305.5 624.4h39.3v1.2h-39.3z"/><path class="st9" d="M343.5 628.7v-5.6M434.5 215h1.1v-2h.7v-2.7h-1.8zM471.2 213h.7v2h1.2v-4.7h-1.9z"/><path class="st9" d="M435.6 213h36.3v1.9h-36.3zM471.6 214.9c0 19.7-16 35.7-35.7 35.7v-35.7M430.5 276.9h1.9v.7h1.8v.9h-3.7zM430.5 239.7h1.9v-.7h1.8v-.9h-3.7zM430.5 239.7v37.2M432.4 239.7v37.2M434.2 239v38.6"/><path class="st9" d="M432.4 239c21.3 0 38.6 17.3 38.6 38.6h-36.7M431.9 222.1h2.3v16h-2.3zM222.9 358.1h1v5.2h-1zM259.2 358.1h1v5.2h-1zM223.8 358.1h35.4M223.9 360.2h35.2M223.8 361.7h35.3M223.8 363.3h35.4"/><path class="st9" d="M223.8 361.7c0 18 13.8 32.8 31.4 34.4l3.9-34.4"/><path transform="rotate(-180 264.384 316.875)" class="st9" d="M262.3 316.3h4.1v1.2h-4.1z"/><path transform="rotate(-180 263.597 281.94)" class="st9" d="M260.8 281.4h5.6v1.2h-5.6z"/><path transform="rotate(-180 261.68 300.023)" class="st9" d="M261 282.6h1.3v34.9H261z"/><path transform="rotate(-180 261.89 356.712)" class="st9" d="M260.8 356.1h2.2v1.2h-2.2z"/><path class="st9" d="M266.3 299.4h-8M266.9 333.4v-5.1h1.2v3.1h.7v.7h-.7v1.3zM307.8 333.4v-5.1h-1.1v3.1h-.7v.7h.7v1.3z"/><path transform="rotate(-90 287.358 332.738)" class="st9" d="M286.7 313.4h1.3V352h-1.3z"/><path transform="rotate(-90 268.763 352.694)" class="st9" d="M249.5 352h38.6v1.4h-38.6z"/><path class="st9" d="M306.7 333.4c0 21.3-17.3 38.6-38.6 38.6M307.3 317.6h4.2v-1.2h-1.2v-.7h-1v.7h-2zM307.3 281.3h4.2v1.2h-1.2v.7h-1v-.7h-2z"/><path class="st9" d="M274.1 282.5h33.3v1.7h-33.3z"/><path transform="rotate(-180 308.348 299.465)" class="st9" d="M307.3 282.5h2v33.9h-2z"/><path class="st9" d="M307.3 316.3c-18.7-.5-33.2-15.5-33.3-33.8M308.7 233.5v1.3h.7v.7h-.7v2.1h-1.1v-4.1zM348.5 233.5v4.1h-1.2v-2.1h-.7v-.7h.7v-1.3z"/><path transform="rotate(90 328.018 234.116)" class="st9" d="M327.4 214.8h1.3v38.6h-1.3z"/><path transform="rotate(90 309.423 214.163)" class="st9" d="M290.1 213.5h38.6v1.4h-38.6z"/><path class="st9" d="M308.7 194.9c21.3 0 38.6 17.3 38.6 38.6M298.8 232.5v1.4h-.7v.6h.7v3.1h1.2v-5.1zM259.1 232.5v5.1h1.1v-3.1h.7v-.6h-.7v-1.4z"/><path transform="rotate(90 279.51 233.186)" class="st9" d="M278.8 213.9h1.3v38.6h-1.3z"/><path transform="rotate(90 298.105 213.233)" class="st9" d="M278.8 212.5h38.6v1.4h-38.6z"/><path class="st9" d="M298.8 193.9c-21.3 0-38.6 17.3-38.6 38.6"/><path transform="rotate(-180 197.097 241.68)" class="st9" d="M175.7 241h42.8v1.4h-42.8z"/><path class="st9" d="m175.7 241 3.6-21.1 3.6 21.1"/><path transform="rotate(-180 420.297 134.99)" class="st9" d="M419.6 119.9h1.4v30.2h-1.4z"/><path class="st9" d="m419.6 125-14.9-2.6 14.9-2.5"/><path transform="rotate(-180 211.573 472.03)" class="st9" d="M168.8 471.3h85.5v1.4h-85.5z"/><path class="st9" d="m176 472.7-3.6 21.1-3.6-21.1M254.3 472.7l-3.6 21.1-3.5-21.1"/><path transform="rotate(-180 257.83 478.847)" class="st9" d="M255.9 478.3h3.8v1.2h-3.8z"/><path transform="rotate(-180 260.603 495.699)" class="st9" d="M259.8 478.3h1.5v34.9h-1.5z"/><path transform="rotate(-180 262.137 529.17)" class="st9" d="M261.4 511.7h1.5v34.9h-1.5z"/><path transform="rotate(-180 263.67 562.642)" class="st9" d="M262.9 545.2h1.5v34.9h-1.5z"/><path transform="rotate(-180 265.205 595.96)" class="st9" d="M264.4 578.5h1.5v34.9h-1.5z"/><path transform="rotate(-180 261.176 613.954)" class="st9" d="M255.9 613.4h10.5v1.1h-10.5z"/><path class="st9" d="M271.2 579.3h-12.8M269 545.9h-10.6M269.6 512.4h-12.8"/><path transform="rotate(-180 263.017 444)" class="st9" d="M259.6 443.4h6.8v1.1h-6.8z"/><path transform="rotate(-180 402.271 278.778)" class="st9" d="M387.3 278.1h30v1.4h-30z"/><path class="st9" d="m387.1 278.1 2.5-14.9 2.5 14.9"/><path transform="rotate(-180 258.358 260.276)" class="st9" d="M257.7 245.2h1.4v30.2h-1.4z"/><path class="st9" d="m259.1 270.3 14.8 2.6-14.8 2.5"/><path class="st10" d="M272.7 100.8h53.5M300 233h1.1V115.2h-28.2M307.6 237.2H300M326 115.2h-20.8v118.7h2.4M348.5 233.9h71.1v-83.8H470v-34.9h-47.1v4.7h-3.3v-4.7h-20.7M430.5 239.1h-11.4v-1.9h-70.6M434.5 215v6.2h-.7v.9"/><path class="st10" d="M473.1 211h.9v-46.7h-40.2V211h.7"/><path class="st10" d="M473.1 215v6.2h11.1v-106M241.1 614.5h63.4M304.9 628.9h-4.8v11.6h-56.7v-11.6H241M255.9 617.8h31.6V628h-31.6zM430.5 277.5h-13.2v3.8h2.6v34.9h-41.2v-34.9h8.4V278h-79.2v3.3M382 628.9h41.5v23.5h10.2v-23.5H450v-14.4h-13.2l-.5-319.7h8.6v-10.2h-11.3v-6.1m-122.1 2.8h63.9v34.9h-12.6v12.6H311v-11.2m-3.2 0v36.8h3.3v-21.5h75.3v-13.5H421v101.9h-42.3v3.7h7.3v12h20.1v-11.9h14.4v189.4h-38.2m20.5-180.8h-14v-8.6h14v8.6zm-20.2-114.2v9.3h-16.5v-9.3h16.5zM154.6 57.4v43.5h-18.8v14.4h15.1v499.3h-15.1V629h18.1v23.5h10.2V629h18.1m13.3-528.2h-32.1V57.4m18.7 557.1h-14.9V472.7h1.6v-3.3h-2.1v-24.6h89.7v24.6h-2.1v3.3h2.1v5.5m3.3.1v-33.7m6.3-1.2V332.9h.9m0-4.1h-.9v-11.3m-3.3 0v38.7m-1.5 1.1v1.3h-1m-.1 4.7.1 65.2h-83.9v-65.3h46.6m0-4.6h-55.7v-77.1h93.6m5.2-.1v-3.3h-6.9v-2.8h-3.3v2.8h-24.6v-33h28v-7.5m-.1-4.6h-4.2v8h-36.4v3.3h8.5v24.6h-59.8v-24.4h8.5V241h-8.5V115.2h28.1m-31.2 248h11.2v65.3h-11.2v-65.3z"/><path d="M200.1 311.7v-.7h5.5l.4-4.2h-4.8v-.8h5.5l-.4 5h2.3v.7h-8.5zM209.6 309.2v-.7h7.6v.7h-7.6zM222.6 308.3c-.1 1.5-.4 2.5-.8 3.1-.4.6-1.2 1.2-2.5 1.8-.1-.2-.3-.5-.5-.7 1.2-.4 1.9-.9 2.3-1.4.4-.5.6-1.4.7-2.7h-4v-.7h8.4v.7h-3.6zm-3.3-2.3v-.7h5.6v.7h-5.6zM231.2 309v4.3h-.6v-3.8c-.8.7-1.8 1.3-2.9 1.8-.1-.2-.2-.4-.4-.6.9-.4 1.8-.9 2.8-1.7.9-.7 1.7-1.4 2.3-2.3l.6.5c-.6.7-1.3 1.3-1.8 1.8zM234.6 309.9v-4.6h.7v4.6h-.7zm5-2.6c0 1.2-.1 2.1-.3 2.7-.2.7-.5 1.3-1 1.8s-1.3.8-2.4 1.2c-.1-.3-.2-.5-.4-.7 1.4-.4 2.3-.9 2.8-1.6.4-.6.6-1.7.6-3.3v-2.5h.7v2.4zM245.7 308.3c-.1 1.5-.4 2.5-.8 3.1-.4.6-1.2 1.2-2.5 1.8-.1-.2-.3-.5-.5-.7 1.2-.4 1.9-.9 2.3-1.4.4-.5.6-1.4.7-2.7h-4v-.7h8.4v.7h-3.6zm-3.2-2.3v-.7h5.6v.7h-5.6zM254.3 309v4.3h-.6v-3.8c-.8.7-1.8 1.3-2.9 1.8-.1-.2-.2-.4-.4-.6.9-.4 1.8-.9 2.8-1.7.9-.7 1.7-1.4 2.3-2.3l.6.5c-.6.7-1.2 1.3-1.8 1.8zM251.1 251.1c-.1-.1-.3-.2-.5-.3.5-.5 1-1.1 1.4-1.7l.5.2c-.4.6-.9 1.2-1.4 1.8zm2.8-2.7v3.3h-.5v-3.3h-2.7v-.4h2.7v-1.3h.5v1.3h2.9v.4h-2.9zm2.4 2.5c-.6-.5-1.1-1.1-1.6-1.8l.5-.3c.5.7 1 1.3 1.6 1.7-.2.2-.3.3-.5.4zM253.5 256.9v-4.6h.5v4.6h-.5zM252.3 260.1c-.3.7-.8 1.4-1.6 1.9-.1-.1-.2-.3-.4-.4.6-.3 1-.7 1.3-1.2.2-.4.3-.9.4-1.6v-1.1h.5c.1 1.2 0 1.9-.2 2.4zm1.9 1.8-.4-.3.1-.1v-4.1h.5v3.8c.8-.4 1.5-1.1 2.3-1.8.1.1.3.2.4.3-1 .9-1.9 1.7-2.9 2.2zM251.3 263.4v2.7c.3-.1.6-.2 1-.3v-3.1h.5v5.2h-.5v-1.7c-.7.2-1.3.4-1.9.6l-.1-.4c.2 0 .4-.1.5-.1v-2.8h.5zm5.5-.1c-.4 1.1-.8 2-1.2 2.6-.1.1-.2.2-.3.4.4.5 1 .9 1.7 1.3-.1.1-.3.2-.4.3-.7-.4-1.3-.8-1.7-1.3-.5.4-1 .9-1.7 1.3-.1-.2-.2-.3-.3-.4.7-.4 1.3-.8 1.8-1.3-.1-.1-.1-.2-.2-.3-.4-.7-.6-1.5-.7-2.4h-.6v-.5H256.5l.3.3zm-1.8 2.5.1-.1c.5-.6.8-1.4 1.1-2.3h-1.9c0 1 .3 1.8.7 2.4zM251.9 268.7l-.7 1.1c.2.1.3.2.4.3l.7-1 .5.2-1.3 1.8c.3 0 .6 0 .9-.1-.1-.1-.1-.2-.2-.3l.4-.1c.2.3.3.6.5.9l-.5.1c0-.1-.1-.2-.1-.3-.2 0-.4.1-.6.1v2.4h-.5v-2.3c-.4.1-.8.1-1.2.1l-.1-.4h.7l.5-.7c-.4-.3-.8-.5-1.2-.7l.3-.3c.1.1.2.1.3.2l.6-1.2.6.2zm-.8 3.4c0 .5-.2.9-.3 1.4l-.5-.1c.2-.4.3-.8.3-1.3h.5zm1.9.9c-.1 0-.3 0-.5.1-.1-.3-.2-.7-.2-1.1h.5c0 .3.1.7.2 1zm1.6-3.3v-1.2h.5v1.2h1.6v3.6c0 .2-.1.3-.2.4-.1.1-.4.1-.7.1 0-.2-.1-.3-.2-.5h.5c.1 0 .1 0 .1-.1v-3.1h-1.1c0 .3 0 .5-.1.8.4.4.8.8 1.1 1.2l-.4.3c-.2-.3-.5-.6-.8-1-.1.4-.4.8-.8 1.2-.1-.1-.3-.2-.4-.3v1.5h-.5v-4.1h1.4zm-.1 1.5c.1-.2.2-.6.2-1.1h-.9v2.2c.3-.4.5-.7.7-1.1zM395 429.3c-.3.2-.6.3-1 .3h-1.3v2h-.5V427h1.6c.5 0 .9.1 1.2.3.4.2.5.6.5 1 0 .5-.2.8-.5 1zm-1.1-1.8h-1.2v1.7h1.2c.7 0 1.1-.3 1.1-.8-.1-.6-.4-.9-1.1-.9zM399 431.4c-.3.2-.7.3-1.1.3-.5 0-.8-.1-1.2-.3-.3-.2-.5-.6-.6-1h.6c.1.3.2.6.4.7.2.1.4.2.8.2.3 0 .5-.1.7-.2.2-.2.4-.4.4-.6 0-.3-.4-.6-1.1-.9-1-.4-1.5-.9-1.5-1.4 0-.4.2-.7.5-.9.3-.2.6-.3 1-.3.7 0 1.2.4 1.5 1.2h-.6c-.2-.5-.5-.7-.9-.7-.3 0-.5.1-.6.2-.2.1-.3.3-.3.6 0 .2.2.5.7.7.4.2.8.5 1.3.7.5.3.7.6.7 1-.1.2-.3.5-.7.7zM269.7 623.3c-.3.2-.6.3-1 .3h-1.3v2h-.5V621h1.6c.5 0 .9.1 1.2.3.4.2.5.6.5 1 0 .5-.2.8-.5 1zm-1.1-1.8h-1.2v1.7h1.2c.7 0 1.1-.3 1.1-.8-.1-.6-.4-.9-1.1-.9zM276.2 625.4c-.3.2-.7.3-1.1.3-.5 0-.8-.1-1.2-.3-.3-.2-.5-.6-.6-1h.6c.1.3.2.6.4.7.2.1.4.2.8.2.3 0 .5-.1.7-.2.2-.2.4-.4.4-.6 0-.3-.4-.6-1.1-.9-1-.4-1.5-.9-1.5-1.4 0-.4.2-.7.5-.9.3-.2.6-.3 1-.3.7 0 1.2.4 1.5 1.2h-.6c-.2-.5-.5-.7-.9-.7-.3 0-.5.1-.6.2-.2.1-.3.3-.3.6 0 .2.2.5.7.7.4.2.8.5 1.3.7.5.3.7.6.7 1-.2.2-.3.5-.7.7zM372.7 324.3c-.3.2-.6.3-1 .3h-1.3v2h-.5V322h1.6c.5 0 .9.1 1.2.3.4.2.5.6.5 1s-.2.7-.5 1zm-1.1-1.9h-1.2v1.7h1.2c.7 0 1.1-.3 1.1-.8-.1-.6-.4-.9-1.1-.9zM379.2 326.4c-.3.2-.7.3-1.1.3-.5 0-.8-.1-1.2-.3-.3-.2-.5-.6-.6-1h.6c.1.3.2.6.4.7.2.1.4.2.8.2.3 0 .5-.1.7-.2.2-.2.4-.4.4-.6 0-.3-.4-.6-1.1-.9-1-.4-1.5-.9-1.5-1.4 0-.4.2-.7.5-.9.3-.2.6-.3 1-.3.7 0 1.2.4 1.5 1.2h-.6c-.2-.5-.5-.7-.9-.7-.3 0-.5.1-.6.2-.2.1-.3.3-.3.6 0 .2.2.5.7.7.4.2.8.5 1.3.7.5.3.7.6.7 1-.1.1-.3.4-.7.7zM307 604.6c0 .6-.1 1.1-.1 1.4 0 .2-.1.3-.2.4-.1.1-.4.1-.9.2 0-.1-.1-.3-.1-.4h.5c.2 0 .3-.1.4-.2.1-.2.1-.5.1-1v-1.3h-1.3c-.1.8-.3 1.4-.6 1.9s-.8.9-1.4 1.3c-.1-.1-.2-.3-.3-.4.6-.3 1-.7 1.3-1.1.3-.4.5-1 .6-1.6h-1.5v-.4h1.5v-1.2h.5v1.2h1.8l-.3 1.2zM307.6 604.5v-.4h4.5v.4h-4.5zM315.2 604c-.1.9-.2 1.5-.5 1.8-.2.3-.7.7-1.4 1-.1-.1-.1-.3-.3-.4.7-.2 1.1-.5 1.4-.8.2-.3.4-.8.4-1.6h-2.3v-.4h4.9v.4h-2.2zm-1.9-1.3v-.4h3.3v.4h-3.3zM320.4 605.3c-.6.4-1.3.9-2.2 1.3l-.3-.5c1.5-.5 2.9-1.5 4-2.9l.3.3c-.6.8-1.2 1.4-1.8 1.8zm-1.2-1.7c-.4-.4-.8-.7-1.2-1l.3-.4c.5.3.9.6 1.3.9l-.4.5zM323.2 606.1c-.1-.1-.3-.2-.4-.3.4-.5.8-1 1.1-1.7l.4.2c-.4.7-.7 1.3-1.1 1.8zm2.1-2.6v3.2h-.4v-3.2h-2.1v-.4h2.1v-1.2h.4v1.2h2.3v.4h-2.3zm2 2.5c-.5-.5-.9-1-1.3-1.7l.4-.3c.4.7.8 1.2 1.3 1.7-.2.1-.3.2-.4.3zm-.4-3.1c-.1-.2-.4-.4-.6-.6l.2-.2c.3.2.5.4.6.5l-.2.3zm.4-.4c-.1-.2-.4-.4-.6-.6l.2-.2c.3.2.5.4.6.5l-.2.3zM328.6 604.8c-.1-.3-.3-.6-.6-1l.3-.2c.2.3.4.7.6 1l-.3.2zm2.6.2c-.3.5-.6.9-1 1.2-.3.3-.8.5-1.4.7-.1-.1-.1-.3-.2-.4.5-.1.9-.3 1.2-.6.3-.2.6-.6.9-1 .2-.3.4-.8.5-1.4l.4.1c-.1.6-.3 1-.4 1.4zm-1.5-.5c-.1-.3-.3-.7-.5-1l.3-.1c.2.4.4.7.5 1l-.3.1zM335.1 605.4c-.6.6-1.3 1-2.2 1.3-.1-.1-.1-.3-.2-.4.8-.2 1.5-.6 2-1 .4-.4.8-1.1 1.2-1.9H334c-.4.6-.8 1.2-1.4 1.6-.1-.1-.2-.2-.4-.3l1.1-1.1c.2-.3.5-.8.8-1.4l.5.2c-.1.2-.2.4-.4.7H336.1l.3.3c-.4.7-.8 1.4-1.3 2zM341.3 606.5c-.5-.6-1-1.3-1.7-1.9-.6.7-1.4 1.3-2.3 1.9-.1-.2-.2-.3-.3-.4.8-.4 1.5-.8 2-1.3.4-.4.9-1.1 1.5-2h-2.9v-.4h3.2l.3.3c-.4.6-.7 1.2-1 1.6.7.6 1.3 1.2 1.8 1.9l-.6.3zM343.7 604.7h-.6l-.1-.1v-.6l.1-.1h.6l.1.1v.6l-.1.1zM349.3 604.6c0 .6-.1 1.1-.1 1.4 0 .2-.1.3-.2.4-.1.1-.4.1-.9.2 0-.1-.1-.3-.1-.4h.5c.2 0 .3-.1.4-.2.1-.2.1-.5.1-1v-1.3h-1.3c-.1.8-.3 1.4-.6 1.9s-.8.9-1.4 1.3c-.1-.1-.2-.3-.3-.4.6-.3 1-.7 1.3-1.1.3-.4.5-1 .6-1.6h-1.5v-.4h1.5v-1.2h.5v1.2h1.8l-.3 1.2zM349.9 604.5v-.4h4.5v.4h-4.5zM357.5 604c-.1.9-.2 1.5-.5 1.8-.2.3-.7.7-1.4 1-.1-.1-.1-.3-.3-.4.7-.2 1.1-.5 1.4-.8.2-.3.3-.8.4-1.6h-2.3v-.4h4.9v.4h-2.2zm-1.9-1.3v-.4h3.3v.4h-3.3zM362.7 605.3c-.6.4-1.3.9-2.2 1.3l-.3-.5c1.5-.5 2.9-1.5 4-2.9l.3.3c-.6.8-1.2 1.4-1.8 1.8zm-1.2-1.7c-.4-.4-.8-.7-1.2-1l.3-.4c.5.3.9.6 1.3.9l-.4.5zM368.1 605c-.5.4-1 .7-1.5 1-.4.2-.7.4-.9.5l-.4-.3v-4h.4v3.7c.8-.3 1.4-.7 1.8-1 .4-.3.9-.8 1.4-1.4l.3.3c-.3.4-.7.9-1.1 1.2zM369.7 604.5v-.4h4.5v.4h-4.5zM376.1 604.8c-.2.7-.6 1.3-1.2 1.9-.1-.1-.2-.3-.3-.4.5-.3.8-.7 1-1.2.2-.4.3-.9.3-1.5v-1h.4c0 1-.1 1.7-.2 2.2zm1.5 1.7-.3-.3.1-.1v-4h.4v3.7c.6-.4 1.2-1 1.8-1.8l.3.3c-.8 1-1.6 1.7-2.3 2.2zM383.4 606.3h-.4l-.7-2.9-.8 2.9h-.5l-.9-3.6h.4l.7 2.9.8-2.9h.4l.7 2.9.7-2.9h.4l-.8 3.6zM180.9 604.6c0 .6-.1 1.1-.1 1.4 0 .2-.1.3-.2.4-.1.1-.4.1-.8.2 0-.1-.1-.3-.1-.4h.4c.2 0 .3-.1.3-.2.1-.2.1-.5.1-1v-1.3h-1.2c-.1.8-.3 1.4-.6 1.9s-.7.9-1.3 1.3c-.1-.1-.2-.3-.3-.4.5-.3.9-.7 1.2-1.1.3-.4.4-1 .5-1.6h-1.3v-.4h1.3v-1.2h.4v1.2h1.7v1.2zM181.3 604.5v-.4h4v.4h-4zM188 604c-.1.9-.2 1.5-.4 1.8-.2.3-.6.7-1.3 1-.1-.1-.1-.3-.2-.4.6-.2 1-.5 1.2-.8.2-.3.3-.8.4-1.6h-2.1v-.4h4.4v.4h-2zm-1.7-1.3v-.4h2.9v.4h-2.9zM192.6 605.3c-.5.4-1.2.9-2 1.3l-.2-.5c1.4-.5 2.6-1.5 3.6-2.9l.3.3c-.7.8-1.2 1.4-1.7 1.8zm-1.1-1.7c-.4-.4-.8-.7-1.1-1l.2-.4 1.2.9-.3.5zM194.9 606.1c-.1-.1-.2-.2-.4-.3.4-.5.7-1 1-1.7l.4.2c-.3.7-.6 1.3-1 1.8zm2-2.6v3.2h-.4v-3.2h-1.9v-.4h1.9v-1.2h.4v1.2h2v.4h-2zm1.7 2.5c-.4-.5-.8-1-1.1-1.7l.4-.3c.3.7.7 1.2 1.1 1.7-.2.1-.3.2-.4.3zm-.4-3.1c-.1-.2-.3-.4-.6-.6l.2-.2c.2.2.4.4.6.5l-.2.3zm.4-.4c-.1-.2-.3-.4-.6-.6l.2-.2c.2.2.4.4.6.5l-.2.3zM199.7 604.8c-.1-.3-.3-.6-.5-1l.3-.2c.2.3.4.7.5 1l-.3.2zm2.3.2c-.2.5-.5.9-.9 1.2-.3.3-.7.5-1.2.7-.1-.1-.1-.3-.2-.4.5-.1.8-.3 1.1-.6.3-.2.6-.6.8-1 .2-.3.3-.8.5-1.4l.4.1c-.2.6-.4 1-.5 1.4zm-1.3-.5c-.1-.3-.2-.7-.4-1l.3-.1c.2.4.3.7.4 1l-.3.1zM205.4 605.4c-.5.6-1.2 1-2 1.3-.1-.1-.1-.3-.2-.4.7-.2 1.3-.6 1.8-1 .4-.4.7-1.1 1.1-1.9h-1.6c-.4.6-.8 1.2-1.2 1.6-.1-.1-.2-.2-.4-.3.4-.4.7-.8 1-1.1.2-.3.4-.8.7-1.4l.4.2c-.1.2-.2.4-.3.7h1.8l.3.3c-.6.7-1 1.4-1.4 2zM210.8 606.5c-.4-.6-.9-1.3-1.5-1.9-.5.7-1.2 1.3-2.1 1.9-.1-.2-.2-.3-.3-.4.7-.4 1.3-.8 1.8-1.3.4-.4.8-1.1 1.3-2h-2.6v-.4h2.9l.3.3c-.3.6-.6 1.2-.9 1.6.6.6 1.2 1.2 1.6 1.9l-.5.3zM212.9 604.7h-.6l-.1-.1v-.6l.1-.1h.6l.1.1v.6l-.1.1zM217.8 604.6c0 .6-.1 1.1-.1 1.4 0 .2-.1.3-.2.4-.1.1-.4.1-.8.2 0-.1-.1-.3-.1-.4h.4c.2 0 .3-.1.3-.2.1-.2.1-.5.1-1v-1.3h-1.2c-.1.8-.3 1.4-.6 1.9s-.7.9-1.3 1.3c-.1-.1-.2-.3-.3-.4.5-.3.9-.7 1.2-1.1.3-.4.4-1 .5-1.6h-1.3v-.4h1.3v-1.2h.4v1.2h1.7v1.2zM218.2 604.5v-.4h4v.4h-4zM224.9 604c-.1.9-.2 1.5-.4 1.8-.2.3-.6.7-1.3 1-.1-.1-.1-.3-.2-.4.6-.2 1-.5 1.2-.8.2-.3.3-.8.4-1.6h-2.1v-.4h4.4v.4h-2zm-1.7-1.3v-.4h2.9v.4h-2.9zM229.5 605.3c-.5.4-1.2.9-2 1.3l-.2-.5c1.4-.5 2.6-1.5 3.6-2.9l.3.3c-.7.8-1.2 1.4-1.7 1.8zm-1.1-1.7c-.4-.4-.8-.7-1.1-1l.2-.4 1.2.9-.3.5zM234.2 605c-.4.4-.9.7-1.4 1-.4.2-.6.4-.8.5l-.3-.3v-4h.4v3.7c.7-.3 1.2-.7 1.6-1 .4-.3.8-.8 1.3-1.4l.3.3c-.4.4-.8.9-1.1 1.2zM235.5 604.5v-.4h4v.4h-4zM241.1 604.8c-.2.7-.5 1.3-1.1 1.9-.1-.1-.2-.3-.3-.4.4-.3.7-.7.9-1.2.1-.4.2-.9.3-1.5v-1h.4c0 1-.1 1.7-.2 2.2zm1.3 1.7-.3-.3v-4.1h.4v3.7c.5-.4 1.1-1 1.6-1.8l.3.3c-.6 1-1.3 1.7-2 2.2zM247.6 606.3h-.4l-.7-2.9-.7 2.9h-.4l-.8-3.6h.4l.6 2.9.7-2.9h.4l.7 2.9.7-2.9h.4l-.9 3.6zM276.6 262.1V261h.4v1.2h.6v.4h-.6v1c.2-.1.4-.1.7-.2v.4c-.2.1-.5.1-.7.2v1.7c0 .1-.1.2-.2.3-.1.1-.4.1-.6.1 0-.1 0-.3-.1-.4h.5c.1 0 .1 0 .1-.1V264c-.3.1-.6.2-.8.2l-.1-.4c.3-.1.6-.1.9-.2v-1.1h-.9v-.4h.8zm4-.7c-.8.3-1.5.4-2.1.5v.9h2.3v.4h-.7v2.9h-.4v-2.9h-1.2v.2c0 .5-.1.9-.2 1.3-.1.5-.3.9-.6 1.3-.1-.1-.2-.2-.3-.2.3-.4.4-.7.6-1.1.1-.4.2-.8.2-1.2v-1.9l.3.1c.7-.1 1.4-.2 2-.5l.1.2zM284.2 261v1.8h1.8v.4h-1.8v2.3h2.3v.4h-5v-.4h2.2V261h.5zM292.1 261.3v.4h-2.2v1.2h2v.3H290c.1.5.4.9.7 1.3.4.5 1 .8 1.6 1-.1.1-.2.2-.3.4-.7-.3-1.2-.7-1.6-1.2-.3-.3-.5-.6-.6-1-.1.4-.2.7-.4 1-.4.5-1 1-1.9 1.3-.1-.2-.1-.3-.2-.4 1-.4 1.6-.8 1.9-1.4.1-.3.2-.6.3-1h-1.8v-.3h1.8v-1.2h-2.1v-.4h4.7zM294.3 262.1V261h.4v1.1h1.5v-1.2h.4v1.2h1.1v.4h-1.1v1.3h1.5v.4h-1.5v1.9h-.4v-1.9h-1.5c-.1.3-.1.6-.3.9-.2.4-.6.7-1.1 1l-.3-.3c.5-.2.9-.5 1.1-.9.1-.2.2-.4.2-.7h-1.4v-.4h1.4v-1.3h-1.1v-.4h1.1zm1.9.3h-1.5v1.3h1.5v-1.3zM313.5 298.4c-.4.7-1.1 1.2-2.1 1.6-.1-.2-.1-.4-.2-.5.8-.2 1.4-.6 1.8-1.2.4-.6.6-1.4.7-2.4H311v1.6h-.4v-2.1h1.6v-1.2h.4v1.2h1.6c-.1 1.4-.4 2.4-.7 3zM317.1 297.2v2.3c0 .2 0 .4-.1.5-.1.1-.3.1-.6.2 0-.2-.1-.4-.1-.5h.3c.1 0 .2-.1.2-.2v-1.7c-.5.8-1.1 1.4-1.8 1.9-.1-.1-.2-.3-.2-.4.8-.5 1.5-1.2 1.9-2H315v-.4h1.9v-1h.3v1h1.2v.4h-1.3zM319.7 297.4l-.9-.6.2-.4c.4.2.7.3 1 .5l-.3.5zm1.5 1.1c-.5.5-1.2.9-2 1.3l-.2-.5c1.5-.6 2.7-1.6 3.6-3 .1.1.2.3.3.4-.6.7-1.1 1.3-1.7 1.8zm-.9-2.7c-.3-.3-.6-.5-.9-.7l.2-.4c.4.3.7.5 1 .7l-.3.4zM323.4 299.7v-.4h2.3l.2-2.2h-2v-.4h2.3l-.2 2.6h1v.4h-3.6zM315.7 305.8c-.4.4-.9.8-1.4 1.1-.4.2-.6.4-.8.6l-.3-.4v-4.6h.4v4.2c.7-.4 1.2-.8 1.7-1.2.4-.4.8-.9 1.3-1.6.1.1.2.3.3.4-.5.7-.9 1.2-1.2 1.5zM317.8 305.7c-.1-.3-.3-.7-.5-1.1l.3-.2c.2.4.4.7.5 1.2l-.3.1zm2.4.1c-.2.6-.5 1-.9 1.4-.3.3-.7.6-1.2.8-.1-.2-.1-.3-.2-.4.5-.2.8-.4 1.1-.6.3-.3.6-.7.8-1.2.2-.4.3-1 .5-1.7l.4.1c-.2.7-.4 1.2-.5 1.6zm-1.4-.5c-.1-.4-.2-.8-.4-1.1l.3-.2c.2.4.3.8.4 1.1l-.3.2zM324.2 305.8c-.6-.4-1.3-.8-2.1-1.2v3.3h-.4v-5.6h.4v1.8c.8.3 1.6.7 2.4 1.2l-.3.5zM324.7 311.8c-.5.1-1.1.2-1.9.3v.8h2v.4h-2v.9h2.3v.4h-2.3v1.4c0 .1-.1.2-.3.3-.2.1-.4.1-.8.1 0-.1 0-.3-.2-.4h.6c.1 0 .1 0 .1-.1v-1.3H320v-.4h2.2v-.9h-2v-.4h2v-.8c-.6.1-1.2.1-1.8.1-.1-.2-.1-.3-.2-.4.8 0 1.6-.1 2.2-.1.6-.1 1.2-.2 1.9-.3l.4.4zM327 314.6l-.9 1.8-.4-.2 1-1.8c.1.2.2.2.3.2zm-.2-1.2-.2.3c-.2-.2-.5-.4-.8-.5l.2-.3c.3.1.6.3.8.5zm.3-1.3-.2.3c-.2-.3-.5-.5-.7-.6l.2-.3c.2.1.4.3.7.6zm1.1-.4c-.1.3-.2.5-.3.7h.8v-1h.4v1h1.4v.3h-1.4v1h1.7v.3h-1.2v1.8c0 .1 0 .1.1.1h.6c.1 0 .2-.1.2-.1.1-.1.1-.2.1-.4.1.1.2.1.4.1 0 .2-.1.4-.2.6-.1.2-.2.2-.4.2h-.7c-.3 0-.4-.2-.4-.5V314h-.8c0 .7-.1 1.2-.3 1.5-.2.3-.6.6-1.1.8-.1-.1-.1-.3-.2-.4.5-.2.9-.5 1-.8.1-.3.2-.6.2-1.1H327v-.3h1.7v-1h-1c-.1.3-.3.5-.4.7-.1-.1-.2-.2-.3-.2.2-.3.4-.5.5-.8.1-.3.2-.5.3-.8l.4.1zM335.7 314.2c0 .6-.1 1.1-.1 1.4 0 .2-.1.3-.2.4-.1.1-.4.1-.9.2 0-.1-.1-.3-.1-.4h.5c.2 0 .3-.1.4-.2.1-.2.1-.5.1-1v-1.3h-1.3c-.1.8-.3 1.4-.6 1.9s-.8.9-1.4 1.3c-.1-.1-.2-.3-.3-.4.6-.3 1-.7 1.3-1.1.3-.4.5-1 .6-1.6H332v-.4h1.5v-1.2h.5v1.2h1.8l-.1 1.2zM339.7 314.9c-.4.6-1.2 1.1-2.3 1.4-.1-.2-.2-.3-.2-.4.9-.2 1.5-.6 2-1 .5-.5.7-1.2.7-2.1h-3v1.4h-.4v-1.8h1.7v-1h.4v1h1.8c0 1.1-.3 1.9-.7 2.5zM343.6 314.9c-.6.4-1.3.9-2.2 1.3l-.3-.5c1.5-.5 2.9-1.5 4-2.9l.3.3-1.8 1.8zm-1.2-1.8c-.4-.4-.8-.7-1.2-1l.3-.4c.5.3.9.6 1.3.9l-.4.5zM348.9 314.8c-.6.6-1.3 1.1-2.3 1.5-.1-.1-.1-.2-.3-.4.9-.3 1.6-.8 2.2-1.4-.3-.3-.7-.6-1-.8l.2-.3c.4.3.8.5 1.1.8.3-.4.6-.9.9-1.5h-1.8c-.5.7-1 1.2-1.7 1.6-.1-.1-.2-.3-.3-.4.6-.4 1-.7 1.2-1 .3-.3.5-.8.8-1.4l.5.2-.3.6h1.8l.3.3c-.4 1-.9 1.7-1.3 2.2zM350.8 314.1v-.4h4.5v.4h-4.5zM474.6 235.3l-.4-.4c.5-.4 1.1-1 1.8-1.7h-5.2v-.6h5.8l.5.5c-1.1 1.1-2 1.8-2.5 2.2zm-.9 1.9c-.3.7-1 1.3-2.1 1.8-.1-.2-.2-.4-.4-.6.9-.2 1.6-.6 1.9-1.2.3-.5.4-1.2.4-2.2v-.6h.6c0 1.3-.1 2.2-.4 2.8zM472.5 243.6c-.3 1-.9 1.9-1.7 2.6-.1-.2-.3-.4-.4-.5.6-.5 1.1-1 1.4-1.7.2-.5.4-1.3.4-2.2v-1.5h.6c-.1 1.5-.2 2.6-.3 3.3zm2 2.4-.5-.5.1-.1v-5.7h.6v5.3c.9-.6 1.7-1.5 2.5-2.5.1.1.3.3.5.4-1 1.4-2.1 2.4-3.2 3.1zM475.8 252.3v-.4h-4.5v-.6h4.5v-3.4h-4.5v-.6h5.2v5.1h-.7zM473.7 259.5v-6.4h.6v6.4h-.6zM475.1 265.3c-.7.8-1.7 1.5-3.2 2.1l-.3-.6c1.2-.4 2.2-.9 2.9-1.7.7-.7 1.2-1.7 1.7-3h-5.1v-.6h5.4l.5.5c-.7 1.4-1.3 2.6-1.9 3.3zm2-3.7c-.2-.2-.5-.5-.9-.8l.3-.3c.4.3.7.5.9.8l-.3.3zm.6-.6c-.2-.2-.5-.5-.9-.8l.3-.3c.4.3.7.5.9.8l-.3.3zM437.5 242.1v1.1h.4l.2.2c-.2.4-.4.9-.7 1.2l.2.2c.2-.1.3-.3.5-.5l.2.3-.5.5c.1.1.3.2.4.3-.1.1-.2.2-.2.3-.2-.1-.4-.3-.5-.5l-.1-.1v2.1h-.4V245l-.6.6c0-.1-.1-.3-.2-.4.6-.6 1.1-1.1 1.4-1.8h-1.3v-.3h.7V242h.5zm3.7 5h-.4v-.4H439v.4h-.4v-3.7h1.1v-1.3h.4v1.3h1.1v3.7zm-1.5-2.2v-1.1h-.7v1.1h.7zm0 1.5v-1.2h-.7v1.2h.7zm.4-1.5h.8v-1.1h-.8v1.1zm0 1.5h.8v-1.2h-.8v1.2zM438 248c-.1.4-.3.8-.5 1.2v3.9h-.4v-3.2c-.2.3-.4.6-.7.9 0-.1-.1-.3-.2-.4.5-.7 1-1.5 1.4-2.6l.4.2zm2.1 1.2v-1.3h.4v1.3h1v.4h-1v2.9c0 .1-.1.2-.2.3-.2.1-.4.1-.7.1 0-.1 0-.3-.1-.4h.6c.1 0 .1 0 .1-.1v-2.8h-2.3v-.4h2.2zm-.8 1.9-.3.2c-.2-.3-.5-.6-.8-1l.3-.2c.4.5.7.8.8 1zM439.1 253.6v.9h2.2v.4H439l-.8 1.6c.3.2.5.4.7.6l1.1-1.5.4.2-1.9 2.4c.6 0 1.3-.1 2-.2-.2-.2-.4-.5-.6-.7l.3-.2c.5.6.9 1.1 1.2 1.5l-.3.2c-.1-.2-.2-.3-.3-.4-1.6.2-3 .3-4.1.4l-.1-.4c.4 0 .9 0 1.4-.1l.7-.9c-.5-.4-1.1-.9-1.8-1.2l.2-.4c.3.2.6.3.8.5l.6-1.3h-2v-.4h2.3v-.9h.3zM438.7 259.5v1.7h-1.6v3.2h-.4v-4.9h2zm-.5.7v-.4H437v.4h1.2zm0 .7v-.4H437v.4h1.2zm3-1.4v4.4c0 .2-.1.3-.2.4-.1.1-.3.1-.7.1 0-.1-.1-.3-.2-.4h.5c.1 0 .1 0 .1-.1v-2.6h-1.3l.3.1-.3.5h.8v.3H439v.5h1.5v.3h-1.3c.1.2.2.3.3.4.1.1.4.3.7.4l-.3.3c-.3-.2-.6-.3-.7-.5-.1-.1-.3-.3-.4-.5-.1.1-.1.2-.2.3-.2.3-.6.5-1.1.8l-.3-.3c.5-.1.8-.4 1.1-.6.1-.1.1-.1.1-.2h-1.1v-.3h1.2v-.5h-1.1v-.3h.6c-.1-.1-.2-.3-.4-.5l.3-.2.5.5-.2.2h.7l.3-.7h-.2v-1.7h2.2zm-.4.3h-1.2v.4h1.2v-.4zm0 .7h-1.2v.4h1.2v-.4zM440.8 268c-.6-.4-1.4-.7-2.3-1v2.9h-.5V265h.4v1.6c.9.3 1.8.6 2.6 1.1l-.2.3zm-.6-1.6c-.1-.2-.3-.4-.6-.6l.2-.2c.3.2.5.4.6.5l-.2.3zm.4-.4c-.1-.2-.3-.4-.6-.6l.2-.2c.3.2.5.4.6.5l-.2.3zM439.4 272.5l-.3-.3c.4-.3.8-.7 1.3-1.2h-3.6v-.4h4.1l.3.4c-.9.7-1.5 1.2-1.8 1.5zm-.7 1.3c-.2.5-.7.9-1.5 1.2-.1-.1-.2-.3-.3-.4.6-.2 1.1-.4 1.3-.9.2-.3.3-.8.3-1.5v-.4h.4c.1.9 0 1.6-.2 2zM348.5 168.2l-2.1 4.3-1-.6 2.3-4.2c.3.3.5.4.8.5zm-.4-3.4-.4.8c-.6-.4-1.2-.7-2-1.1l.4-.8c.7.3 1.4.7 2 1.1zm.7-3.1-.6.8c-.6-.5-1.2-1-1.9-1.4l.6-.7c.7.3 1.3.7 1.9 1.3zm7.5-1.2-1.1 2h2.8v.9h-4v1.9h3.1v.9H354v2.2h4v.9h-4v3.5h-.9v-3.5H349v-.9h4.1v-2.2h-3.3v-.9h3.3v-1.9h-3.8v-.9h4.9l1.3-2.5.8.5zm-3.9 1.3-.8.6c-.3-.6-.7-1.2-1.2-1.7l.8-.6c.5.7.9 1.2 1.2 1.7zM365.7 168.8v-1.2h1v1.2h4.4v.8h-4.4v1.5h5.7v.8h-12.5v-.8h5.8v-1.5h-4.3v-.8h4.3zm1-8.9v1.4h5.1v2.7h-1v.4h-5.3l-1.1 2.1c1.5-.1 2.9-.2 4.5-.3-.3-.3-.6-.5-1-.8l.7-.7c1.3 1 2.2 1.7 2.7 2.3l-.7.7-.8-.8c-3.3.3-6.1.5-8.5.6l-.2-.9c.7 0 1.4 0 2.2-.1l1.2-2.1h-3v-.4h-.9v-2.7h5.1v-1.4h1zm4.1 3.7v-1.3h-9.3v1.3h9.3zM374.3 171.1c.1-1.5.8-2.8 2.3-3.9 1.5-1.2 2.2-2.1 2.2-2.7 0-.5-.1-.9-.4-1.2-.3-.3-.7-.5-1.2-.5-.7 0-1.1.2-1.5.6-.3.3-.5.8-.5 1.5h-1c.2-1.9 1.3-2.8 3.1-2.8.8 0 1.4.2 1.9.7.5.5.7 1.1.7 1.8 0 .9-.7 1.9-2.2 3.1-1.2 1-1.9 1.9-2.2 2.7h4.5v.9h-5.7zM344.4 191.2c-.7-.7-1.2-1.3-1.6-1.9-.4-.8-.6-1.6-.6-2.5 0-.9.2-1.7.6-2.5.3-.6.9-1.2 1.6-1.9l.5.5c-.7.6-1.1 1.2-1.5 1.8-.4.7-.6 1.4-.6 2.2 0 .8.2 1.5.6 2.2.3.5.8 1.1 1.5 1.8l-.5.3zM348.5 182.5l-1 1.9c.2.2.4.3.6.5l.9-1.6.6.4-1.7 2.7c.4 0 .9 0 1.4-.1-.1-.3-.3-.5-.4-.8l.5-.3c.4.6.6 1.1.8 1.5l-.5.4c0-.1-.1-.2-.1-.3-.4 0-.8.1-1.1.1v4h-.7V187c-.5 0-1 .1-1.5.1l-.2-.6h1l.6-1c-.5-.4-1-.8-1.6-1.1l.4-.5c.1.1.3.2.4.3l.9-1.9.7.2zm-1.1 5.2c-.2.9-.4 1.7-.6 2.4-.2-.1-.4-.2-.6-.2.2-.7.4-1.5.6-2.3l.6.1zm2.6 1.7-.6.2c-.1-.6-.2-1.2-.4-1.8l.6-.2c.1.6.2 1.2.4 1.8zm1.8-7.1c-.2.7-.3 1.3-.4 1.7h3.1v3.8c0 1-.1 1.7-.2 2-.1.6-.8.9-2 .9 0-.3-.1-.6-.3-.8h1.1c.3 0 .5-.2.6-.5.1-.3.1-.9.2-1.9v-3h-2.6c-.2.6-.4 1.1-.6 1.5-.2-.2-.4-.3-.6-.4.3-.6.5-1.2.7-1.9.2-.6.3-1.2.4-1.8l.6.4zm1 5.3-.5.5c-.3-.5-.8-1.1-1.3-1.7l.5-.4c.4.6.9 1.1 1.3 1.6zM359.8 188.4v1.4h-.6v-1.4h-3v-.6l3-4.1h.5v4.2h.8v.6h-.7zm-.6-3.7-2.3 3.1h2.3v-3.1zM362.8 190h-.7l-.1-.1v-.6l.1-.1h.7l.1.1v.6l-.1.1zM367.9 189.4c-.4.4-.9.6-1.4.6-1.1 0-1.8-.5-2.1-1.6h.8c.2.7.7 1.1 1.3 1.1.4 0 .7-.1.9-.5.3-.3.4-.6.4-1s-.1-.7-.4-1c-.3-.3-.6-.5-1-.5-.5 0-.9.2-1.2.6l-.7-.2.3-3.2h3.2v.6h-2.6l-.2 2.1c.4-.3.9-.4 1.4-.4s1 .2 1.3.6c.3.4.5.9.5 1.4.1.6-.1 1-.5 1.4zM371.5 183.8v-1.7h.7v1.7h1.4v4.5c0 .2 0 .3-.1.4-.1.1-.4.2-.8.2 0-.3-.1-.5-.2-.7h.3c.1 0 .2 0 .2-.1v-3.7h-.7v6.5h-.7v-6.5h-.7v4.5h-.6v-5.1h1.2zm5-1.6v1.8h2.1v.6h-2.1v2h1.7v4.2h-.6v-.5h-2.7v.6h-.6v-4.3h1.6v-4.4h.6zm1 7.5v-2.5h-2.7v2.5h2.7zM382.1 189.3c-.3.6-.9 1.2-1.6 1.9l-.5-.4c.7-.6 1.1-1.2 1.5-1.8.4-.7.6-1.4.6-2.2 0-.8-.2-1.5-.6-2.2-.3-.5-.8-1.1-1.5-1.8l.5-.5c.7.7 1.2 1.3 1.6 1.9.4.8.6 1.6.6 2.5 0 1-.2 1.9-.6 2.6zM200.2 536.6l-2.1 4.3-1-.6 2.3-4.2c.3.2.6.4.8.5zm-.4-3.4-.4.8c-.6-.4-1.2-.7-2-1.1l.4-.8c.7.3 1.4.7 2 1.1zm.7-3.2-.6.8c-.6-.5-1.2-1-1.9-1.4l.6-.7c.7.3 1.4.8 1.9 1.3zm7.5-1.2-1.1 2h2.8v.9h-4v1.9h3.1v.9h-3.1v2.2h4v.9h-4v3.5h-.9v-3.5h-4.1v-.9h4.1v-2.2h-3.3v-.9h3.3v-1.9H201v-.9h4.9l1.3-2.5.8.5zm-3.9 1.3-.8.6c-.3-.6-.7-1.2-1.2-1.7l.8-.6c.6.7 1 1.3 1.2 1.7zM217.5 537.2V536h1v1.2h4.4v.8h-4.4v1.5h5.7v.8h-12.5v-.8h5.8V538h-4.3v-.8h4.3zm1-9v1.4h5.1v2.7h-1v.4h-5.3l-1.1 2.1c1.5-.1 2.9-.2 4.5-.3-.3-.3-.6-.5-1-.8l.7-.7c1.3 1 2.2 1.7 2.7 2.3l-.7.7-.8-.8c-3.3.3-6.1.5-8.5.6l-.2-.9c.7 0 1.4 0 2.2-.1l1.2-2.1h-3v-.4h-.9v-2.7h5.1v-1.4h1zm4.1 3.7v-1.3h-9.3v1.3h9.3zM230.8 538.9c-.6.5-1.3.8-2 .8-1.6 0-2.6-.8-3-2.5h1.2c.2 1.1.8 1.7 1.8 1.7.5 0 .9-.2 1.3-.5s.6-.7.6-1.2c0-1.3-.7-2-2.2-2-.3 0-.6 0-1.1.1v-.8h.7c1.5 0 2.2-.6 2.2-1.7 0-.4-.2-.8-.5-1.1-.3-.3-.7-.5-1.1-.5-.9 0-1.4.5-1.6 1.5h-1c.2-1.5 1.1-2.3 2.6-2.3.7 0 1.3.2 1.9.7.5.4.8 1 .8 1.7 0 .9-.5 1.5-1.3 2 1.1.6 1.6 1.4 1.6 2.5 0 .5-.3 1.1-.9 1.6zM196.1 559.6c-.7-.7-1.2-1.3-1.6-1.9-.4-.8-.6-1.6-.6-2.5 0-.9.2-1.7.6-2.5.3-.6.9-1.2 1.6-1.9l.5.5c-.7.6-1.2 1.2-1.5 1.8-.4.7-.6 1.4-.6 2.2 0 .8.2 1.5.6 2.2.3.5.8 1.1 1.5 1.8l-.5.3zM200.2 550.8l-1 1.9c.2.2.4.3.6.5l.9-1.6.6.4-1.7 2.7c.4 0 .9 0 1.4-.1-.1-.3-.3-.5-.4-.8l.5-.3c.4.6.6 1.1.8 1.5l-.5.4c0-.1-.1-.2-.1-.3-.4 0-.8.1-1.1.1v4h-.7v-3.9c-.5 0-1 .1-1.5.1l-.2-.6h1l.6-1c-.5-.4-1-.8-1.6-1.1l.4-.5c.1.1.3.2.4.3l.9-1.9.7.2zm-1.1 5.3c-.2.9-.4 1.7-.6 2.4-.2-.1-.4-.2-.6-.2.2-.7.4-1.5.6-2.3l.6.1zm2.6 1.7-.6.2c-.1-.6-.2-1.2-.4-1.8l.6-.2c.1.5.3 1.1.4 1.8zm1.8-7.1c-.2.7-.3 1.3-.4 1.7h3.1v3.8c0 1-.1 1.7-.2 2-.1.6-.8.9-2 .9 0-.3-.1-.6-.3-.8h1.1c.3 0 .5-.2.6-.5.1-.3.1-.9.2-1.9v-3H203c-.2.6-.4 1.1-.6 1.5-.2-.2-.4-.3-.6-.4.3-.6.5-1.2.7-1.9.2-.6.3-1.2.4-1.8l.6.4zm1 5.3-.5.5c-.3-.5-.8-1.1-1.3-1.7l.5-.4c.4.5.9 1 1.3 1.6zM211.5 556.8v1.4h-.5v-1.4h-3v-.6l3-4.1h.5v4.2h.8v.6h-.8zm-.5-3.7-2.3 3.1h2.3v-3.1zM214.5 558.3h-.7l-.1-.1v-.6l.1-.1h.7l.1.1v.6l-.1.1zM219.6 557.8c-.4.4-.9.6-1.4.6-1.1 0-1.8-.5-2.1-1.6h.8c.2.7.7 1.1 1.3 1.1.4 0 .7-.1.9-.5.3-.3.4-.6.4-1s-.1-.7-.4-1c-.3-.3-.6-.5-1-.5-.5 0-.9.2-1.2.6l-.7-.2.3-3.2h3.2v.6h-2.6l-.2 2.1c.4-.3.9-.4 1.4-.4.5 0 1 .2 1.3.6.3.4.5.9.5 1.4.1.5-.1 1-.5 1.4zM223.3 552.1v-1.7h.7v1.7h1.4v4.5c0 .2 0 .3-.1.4-.1.1-.4.2-.8.2 0-.3-.1-.5-.2-.7h.3c.1 0 .2 0 .2-.1v-3.7h-.7v6.5h-.7v-6.5h-.7v4.5h-.6v-5.1h1.2zm4.9-1.6v1.8h2.1v.6h-2.1v2h1.7v4.2h-.6v-.5h-2.7v.6h-.6v-4.3h1.6v-4.4h.6zm1 7.5v-2.5h-2.7v2.5h2.7zM233.8 557.7c-.3.6-.9 1.2-1.6 1.9l-.5-.4c.7-.6 1.1-1.2 1.5-1.8.4-.7.6-1.4.6-2.2 0-.8-.2-1.5-.6-2.2-.3-.5-.8-1.1-1.5-1.8l.5-.5c.7.7 1.2 1.3 1.6 1.9.4.8.6 1.6.6 2.5 0 1-.2 1.8-.6 2.6zM220 168.2l-2.1 4.3-1-.6 2.3-4.2c.3.3.6.4.8.5zm-.4-3.4-.4.8c-.6-.4-1.2-.7-2-1.1l.4-.8c.8.3 1.4.7 2 1.1zm.8-3.1-.6.8c-.6-.5-1.2-1-1.9-1.4l.6-.7c.7.3 1.3.7 1.9 1.3zm7.5-1.2-1.1 2h2.8v.9h-4v1.9h3.1v.9h-3.1v2.2h4v.9h-4v3.5h-.9v-3.5h-4.1v-.9h4.1v-2.2h-3.3v-.9h3.3v-1.9h-3.8v-.9h4.9l1.3-2.5.8.5zm-3.9 1.3-.8.6c-.3-.6-.7-1.2-1.2-1.7l.8-.6c.5.7.9 1.2 1.2 1.7zM237.3 168.8v-1.2h1v1.2h4.4v.8h-4.4v1.5h5.7v.8h-12.5v-.8h5.8v-1.5H233v-.8h4.3zm1-8.9v1.4h5.1v2.7h-1v.4h-5.3l-1.1 2.1c1.5-.1 2.9-.2 4.5-.3-.3-.3-.6-.5-1-.8l.7-.7c1.3 1 2.2 1.7 2.7 2.3l-.7.7-.8-.8c-3.3.3-6.1.5-8.5.6l-.2-.9c.7 0 1.4 0 2.2-.1l1.2-2.1h-3v-.4h-.9v-2.7h5.1v-1.4h1zm4.1 3.7v-1.3h-9.3v1.3h9.3zM249.1 171.1v-7.9c-.7.4-1.3.6-1.9.8v-1c.7-.1 1.4-.4 1.9-.8h1v9h-1zM215.9 191.2c-.7-.7-1.2-1.3-1.6-1.9-.4-.8-.6-1.6-.6-2.5s.2-1.7.6-2.5c.3-.6.9-1.2 1.6-1.9l.5.5c-.7.6-1.2 1.2-1.5 1.8-.4.7-.6 1.4-.6 2.2 0 .8.2 1.5.6 2.2.3.5.8 1.1 1.5 1.8l-.5.3zM220.1 182.5l-1 1.9c.2.2.4.3.6.5l.9-1.6.6.4-1.7 2.7c.4 0 .9 0 1.4-.1-.1-.3-.3-.5-.4-.8l.5-.3c.4.6.6 1.1.8 1.5l-.5.4c0-.1-.1-.2-.1-.3-.4 0-.8.1-1.1.1v4h-.7V187c-.5 0-1 .1-1.5.1l-.2-.6h1l.6-1c-.5-.4-1-.8-1.6-1.1l.4-.5c.1.1.3.2.4.3l.9-1.9.7.2zm-1.2 5.2c-.2.9-.4 1.7-.6 2.4-.2-.1-.4-.2-.6-.2.2-.7.4-1.5.6-2.3l.6.1zm2.6 1.7-.6.2c-.1-.6-.2-1.2-.4-1.8l.6-.2c.2.6.3 1.2.4 1.8zm1.9-7.1c-.2.7-.3 1.3-.4 1.7h3.1v3.8c0 1-.1 1.7-.2 2-.1.6-.8.9-2 .9 0-.3-.1-.6-.3-.8h1.1c.3 0 .5-.2.6-.5.1-.3.1-.9.2-1.9v-3h-2.6c-.2.6-.4 1.1-.6 1.5-.2-.2-.4-.3-.6-.4.3-.6.5-1.2.7-1.9.2-.6.3-1.2.4-1.8l.6.4zm.9 5.3-.5.5c-.3-.5-.8-1.1-1.3-1.7l.5-.4c.5.6 1 1.1 1.3 1.6zM231.5 189.4c-.4.4-.9.6-1.4.6-1.1 0-1.8-.5-2.1-1.6h.8c.2.7.7 1.1 1.3 1.1.4 0 .7-.1.9-.5.3-.3.4-.6.4-1s-.1-.7-.4-1c-.3-.3-.6-.5-1-.5-.5 0-.9.2-1.2.6l-.7-.2.3-3.2h3.2v.6H229l-.2 2.1c.4-.3.9-.4 1.4-.4.5 0 1 .2 1.3.6.3.4.5.9.5 1.4.1.6-.1 1-.5 1.4zM234.4 190h-.7l-.1-.1v-.6l.1-.1h.7l.1.1v.6l-.1.1zM239.5 189.4c-.4.4-.9.6-1.4.6-1.1 0-1.8-.5-2.1-1.6h.8c.2.7.7 1.1 1.3 1.1.4 0 .7-.1.9-.5.3-.3.4-.6.4-1s-.1-.7-.4-1c-.3-.3-.6-.5-1-.5-.5 0-.9.2-1.2.6l-.7-.2.3-3.2h3.2v.6H237l-.2 2.1c.4-.3.9-.4 1.4-.4.5 0 1 .2 1.3.6.3.4.5.9.5 1.4.1.6-.1 1-.5 1.4zM243.1 183.8v-1.7h.7v1.7h1.4v4.5c0 .2 0 .3-.1.4-.1.1-.4.2-.8.2 0-.3-.1-.5-.2-.7h.3c.1 0 .2 0 .2-.1v-3.7h-.7v6.5h-.7v-6.5h-.7v4.5h-.6v-5.1h1.2zm4.9-1.6v1.8h2.1v.6H248v2h1.7v4.2h-.6v-.5h-2.7v.6h-.6v-4.3h1.6v-4.4h.6zm1.1 7.5v-2.5h-2.7v2.5h2.7zM253.6 189.3c-.3.6-.9 1.2-1.6 1.9l-.5-.4c.7-.6 1.1-1.2 1.5-1.8.4-.7.6-1.4.6-2.2 0-.8-.2-1.5-.6-2.2-.3-.5-.8-1.1-1.5-1.8l.5-.5c.7.7 1.2 1.3 1.6 1.9.4.8.6 1.6.6 2.5s-.1 1.9-.6 2.6zM329.8 521.4v-10.5h1.2v9.5h6.5v1h-7.7zM346.5 520.1c-1.1.9-2.5 1.3-4.3 1.3h-3v-10.5h3.5c1.6 0 2.9.5 4 1.4 1 1 1.6 2.2 1.6 3.8-.1 1.7-.7 3-1.8 4zm-.8-7.2c-.8-.7-1.9-1-3.3-1h-2.1v8.5h2.3c1.3 0 2.3-.4 3.1-1.2.8-.8 1.2-1.8 1.2-3.1 0-1.4-.4-2.4-1.2-3.2zM357.2 521.4l-4-5.9-2.3 1.9v4h-1.1v-10.5h1.1v5.2l6-5.2h1.6l-4.5 3.9 4.8 6.6h-1.6zM322.9 543.4c-.7-.7-1.2-1.3-1.6-1.9-.4-.8-.6-1.6-.6-2.5 0-.9.2-1.7.6-2.5.3-.6.9-1.2 1.6-1.9l.5.5c-.7.6-1.1 1.2-1.5 1.8-.4.7-.6 1.4-.6 2.2 0 .8.2 1.5.6 2.2.3.5.8 1.1 1.5 1.8l-.5.3zM327 534.6l-1 1.9c.2.2.4.3.6.5l.9-1.6.6.4-1.7 2.7c.4 0 .9 0 1.4-.1-.1-.3-.3-.5-.4-.8l.5-.3c.4.6.6 1.1.8 1.5l-.5.4c0-.1-.1-.2-.1-.3-.4 0-.8.1-1.1.1v4h-.7v-3.9c-.5 0-1 .1-1.5.1l-.2-.6h1l.6-1c-.5-.4-1-.8-1.6-1.1l.4-.5c.1.1.3.2.4.3l.9-1.9.7.2zm-1.1 5.3c-.2.9-.4 1.7-.6 2.4-.2-.1-.4-.2-.6-.2.2-.7.4-1.5.6-2.3l.6.1zm2.6 1.6-.6.2c-.1-.6-.2-1.2-.4-1.8l.6-.2c.1.6.3 1.2.4 1.8zm1.8-7.1c-.2.7-.3 1.3-.4 1.7h3.1v3.8c0 1-.1 1.7-.2 2-.1.6-.8.9-2 .9 0-.3-.1-.6-.3-.8h1.1c.3 0 .5-.2.6-.5.1-.3.1-.9.2-1.9v-3h-2.6c-.2.6-.4 1.1-.6 1.5-.2-.2-.4-.3-.6-.4.3-.6.5-1.2.7-1.9.2-.6.3-1.2.4-1.8l.6.4zm1 5.4-.5.5c-.3-.5-.8-1.1-1.3-1.7l.5-.4c.4.5.9 1 1.3 1.6zM337.3 542v-5.4c-.5.3-.9.4-1.3.5v-.7c.5-.1.9-.2 1.3-.5h.7v6.1h-.7zM343.8 541.6c-.4.4-.9.5-1.4.5-1.1 0-1.8-.6-2.1-1.7h.8c.2.8.6 1.2 1.2 1.2.3 0 .6-.1.9-.3.3-.2.4-.5.4-.8 0-.9-.5-1.4-1.5-1.4h-.7v-.6h.5c1 0 1.5-.4 1.5-1.2 0-.3-.1-.6-.3-.8-.2-.2-.5-.3-.8-.3-.6 0-1 .4-1.1 1.1h-.7c.2-1 .8-1.6 1.8-1.6.5 0 .9.2 1.3.5s.5.7.5 1.2c0 .6-.3 1.1-.9 1.4.7.4 1.1 1 1.1 1.7.1.3-.1.8-.5 1.1zM346.8 542.1h-.8l-.1-.1v-.6l.1-.1h.7l.1.1v.7zM351.9 541.7c-.4.3-.9.4-1.5.4s-1.1-.1-1.5-.4c-.5-.3-.7-.7-.7-1.2 0-.4.1-.8.3-1.1.2-.2.5-.5 1-.8-.4-.2-.7-.4-.9-.6-.2-.2-.3-.5-.3-.8 0-.5.2-.9.6-1.2.4-.2.8-.4 1.4-.4.5 0 .9.1 1.3.4.3.3.5.7.5 1.2 0 .4-.1.6-.2.8-.2.2-.4.4-.8.6.5.2.9.5 1.1.7.2.3.4.6.4 1.1 0 .6-.2 1-.7 1.3zm-.6-2.2c-.2-.1-.5-.3-1-.6-.5.2-.8.4-.9.6-.3.3-.4.6-.4 1s.2.7.5.9c.3.1.6.2 1 .2s.7-.1 1-.3c.3-.2.5-.5.5-.8-.1-.3-.3-.7-.7-1zm-.1-3c-.2-.2-.5-.3-.8-.3-.3 0-.6.1-.9.3-.3.2-.4.5-.4.8 0 .3.1.5.4.7.2.1.4.3.8.4l.8-.4c.3-.2.4-.5.4-.7 0-.3-.1-.6-.3-.8zM355.5 535.9v-1.7h.7v1.7h1.4v4.5c0 .2 0 .3-.1.4-.1.1-.4.2-.8.2 0-.3-.1-.5-.2-.7h.3c.1 0 .2 0 .2-.1v-3.7h-.7v6.5h-.7v-6.5h-.7v4.5h-.6v-5.1h1.2zm4.9-1.6v1.8h2.1v.6h-2.1v2h1.7v4.2h-.6v-.5h-2.7v.6h-.6v-4.3h1.6v-4.4h.6zm1.1 7.5v-2.5h-2.7v2.5h2.7zM366 541.5c-.3.6-.9 1.2-1.6 1.9l-.5-.4c.7-.6 1.1-1.2 1.5-1.8.4-.7.6-1.4.6-2.2 0-.8-.2-1.5-.6-2.2-.3-.5-.8-1.1-1.5-1.8l.5-.5c.7.7 1.2 1.3 1.6 1.9.4.8.6 1.6.6 2.5.1 1-.1 1.8-.6 2.6zM340.6 344.6l-.1.1c.5.5 1 .8 1.6 1.1.6.3 1.2.6 1.9.8-.1.1-.2.2-.4.5-.6-.2-1.3-.5-1.8-.9-.5-.3-1.1-.7-1.6-1.2-.4.4-.9.8-1.4 1.1-.7.5-1.3.8-1.7 1-.1-.2-.3-.3-.4-.4.7-.3 1.3-.6 1.8-1 .6-.4 1.1-.9 1.6-1.4l.5.3zm-.1 1.3v.8h1.9v2.8h-2.1c.2.3.5.6.9.9.7-.3 1.3-.7 1.7-1l.4.5c-.5.3-1.1.6-1.6.8.6.3 1.3.5 2.1.6-.1.2-.2.4-.3.5-1-.2-1.9-.5-2.5-1-.6-.4-1-.8-1.3-1.4h-1.1v1.4c.5-.1 1.1-.1 1.7-.2v.5c-1.2.2-2.3.3-3.4.5l-.1-.6c.4 0 .9-.1 1.3-.2v-4.3h1.9v-.8h.5zm1.3 1.9v-.6h-3.3v.6h3.3zm0 1.2v-.7h-3.3v.7h3.3zM347.7 347.3c.2-.2.4-.5.6-.7l.6.2c-.1.2-.3.4-.4.5h3.6v.5h-2.3c.3.2.5.5.8.7.4.3 1 .5 1.7.7-.2.2-.4.4-.4.5-.2-.1-.3-.1-.5-.2v2.2h-.5v-.4h-1.3v.4h-.6v-2.4h1.8c-.3-.1-.5-.3-.7-.4-.4-.3-.8-.6-1-1H348c-.3.3-.5.5-.8.7-.3.3-.7.5-1.1.7h1.8v2.5h-.5v-.4h-1.3v.4h-.5v-2.2c-.2.1-.4.2-.5.3-.1-.2-.2-.3-.4-.5.8-.3 1.5-.7 2.1-1.1.2-.1.3-.3.5-.4H345v-.5h2.7zm-2.2-.7v-2h2.3v2h-2.3zm.6-.5h1.2v-1h-1.2v1zm1.3 4.7v-1.1h-1.3v1.1h1.3zm1.6-4.2v-2h2.4v2H349zm.6-.5h1.3v-1h-1.3v1zm1.2 4.7v-1.1h-1.3v1.1h1.3zM354 346.2v-1.8h.5v1.8h.9v.5h-.9v.7l.4.4c.1.1.3.2.5.4-.1.2-.2.3-.3.5-.2-.2-.4-.3-.5-.4 0 0-.1 0-.1-.1v3.7h-.5v-3.7c-.1.3-.2.5-.3.8-.2.4-.4.7-.5.8-.1-.2-.2-.4-.3-.5.3-.4.5-.7.7-1.1.2-.3.3-.7.5-1.3h-.9v-.5h.8zm3.4-1.4v6.1c0 .2 0 .3-.1.4-.1.1-.4.2-.8.2 0-.2-.1-.4-.2-.5h.4c.1 0 .2 0 .2-.1V349h-.8c0 .3-.1.5-.1.8-.1.7-.3 1.3-.6 1.8-.1-.2-.2-.4-.4-.5.3-.5.5-1 .6-1.6.1-.5.1-1.2.1-1.9v-2.8h1.7zm-.5 3.7v-1.3h-.8v1.4h.8zm0-1.8v-1.4h-.8v1.4h.8zm3.1-1.9v6.3c0 .2 0 .3-.1.4-.1.1-.4.1-.9.2 0-.2-.1-.4-.2-.5h.4c.2 0 .2 0 .2-.1v-2h-.9c0 .4-.1.7-.1 1-.1.7-.3 1.2-.5 1.7-.1-.2-.2-.4-.4-.5.2-.4.3-1 .4-1.5 0-.5.1-1.1.1-1.8v-3.1h2zm-.5 3.7v-1.3h-.9v1.4h.9zm0-1.8v-1.4h-.9v1.4h.9zM393.9 339.3l-1.1 2.6-.5-.3 1.2-2.6c.1.2.3.3.4.3zm0-2.9-.4.5c-.3-.3-.6-.5-1.1-.7l.3-.5c.5.2.9.5 1.2.7zm3-1c0 .1-.1.1-.1.1.4.6.8 1 1.2 1.4.4.4.9.8 1.5 1.1-.2.2-.3.3-.4.5-.4-.2-.8-.5-1.2-.9-.5-.4-.9-.9-1.4-1.6-.3.5-.6.9-1 1.3-.5.5-1 1-1.5 1.3-.1-.2-.2-.3-.3-.5.5-.3.9-.6 1.4-1.1.5-.5.9-1.1 1.3-1.8l.5.2zm1.8 3.8v2c0 .3-.1.4-.2.5-.1.1-.4.1-.9.2 0-.2-.1-.4-.2-.6h.7c.1 0 .1 0 .1-.2v-1.5h-1.8v2.9h-.6v-2.9h-1.5v-.5h4.4zm-.9-1.3v.5h-2.5v-.5h2.5zM402.5 335.7v-.5h.5v.5h1.9v-.5h.5v.5h2v.4h-2v.6h.3v.6h1.8v.5h-1.8c0 .8 0 1.4.1 1.7 0 .3.1.6.1.8.3-.4.6-1 .9-1.7l.5.2c-.4.8-.8 1.5-1.2 2.1.1.2.1.3.2.4.2.3.3.4.4.4.1 0 .3-.2.5-.7.1.1.3.2.4.2-.2.5-.3.9-.5 1-.1.1-.2.2-.3.2-.3 0-.5-.1-.7-.4-.2-.2-.4-.4-.5-.7-.5.5-1.1.9-1.6 1.1-.1-.2-.2-.3-.4-.4.3-.1.6-.3.8-.5.3-.2.6-.5.9-.7l-.3-1.2c-.1-.4-.1-1-.1-1.8h-3.6v1c0 .8-.1 1.5-.2 1.9-.1.5-.4 1.1-.7 1.6-.1-.1-.3-.3-.5-.3.3-.4.5-.9.7-1.4.1-.4.2-.9.2-1.7v-1.4h4.1v-.6h.1v-.6h-1.9v.6h-.5v-.6h-2v-.4h1.9zm2.3 3.1h-1v.5h1v1.3h-1v.6h1v.4h-2.1v.4h-.5v-3.6h2.6v.4zm-1.4.5v-.5h-.7v.5h.7zm.9.9v-.6h-1.7v.6h1.7zm-.9 1v-.6h-.7v.6h.7zm3.8-4.1-.3.3c-.2-.2-.5-.5-.8-.7l.3-.3c.4.3.7.5.8.7zM412.7 335.1v.7h3v.5h-5.9v2.7c0 .8 0 1.5-.1 1.9-.1.5-.3 1-.6 1.6-.1-.2-.3-.3-.5-.4.3-.4.5-.9.6-1.4.1-.3.1-.9.1-1.7v-3.2h2.9v-.7h.5zm-.1 2.1v-.6h.5v.6h2.3v.5h-2.3v.5h1.9v2.4h-1.9v.6h2.8v.5h-2.8v1h-.5v-1h-2.7v-.5h2.7v-.6h-1.9v-2.4h1.9v-.5h-2.2v-.5h2.2zm-1.3 1.9h1.3v-.5h-1.3v.5zm1.3.4h-1.3v.5h1.3v-.5zm.6-.4h1.4v-.5h-1.4v.5zm0 .4v.5h1.4v-.5h-1.4zM400.3 346.9v.6h3.3v.4h-3.3v.5h2.1v2.7h-4.2v-2.7h1.5v-.5h-3.5v-.4h3.5v-.6h-2.8v-1.7h6v1.7h-2.6zm-3 1.7v3h6.2v.5h-6.2v.4h-.5v-3.8h.5zm.1-2.1h1.3v-.8h-1.3v.8zm1.3 2.7h3.1v-.4h-3.1v.4zm0 .4v.4h3.1v-.4h-3.1zm0 .7v.4h3.1v-.4h-3.1zm.5-3.8h1.4v-.8h-1.4v.8zm1.9 0h1.3v-.8h-1.3v.8zM405.3 347.2v-2h.5v2h.8v.5h-.8v2.4l.9-.3v.4c.3-.2.5-.4.7-.6.2-.2.4-.5.5-.8h-1.2v-.5h5.2v.5h-3.3c-.1.2-.2.4-.4.6h3.3c0 1 0 1.7-.1 2.1-.1.4-.2.6-.3.7-.1.1-.5.2-1 .2 0-.2-.1-.4-.2-.5h.7c.1 0 .2-.1.3-.4.1-.3.1-.8.1-1.5h-.5c-.3.7-.6 1.2-1 1.6-.4.4-.8.7-1.2.9-.1-.1-.2-.3-.4-.4.5-.2.9-.5 1.2-.9.3-.3.5-.7.8-1.2h-.7c-.2.5-.5.8-.8 1.1-.4.3-.7.5-1.1.7-.1-.1-.2-.3-.4-.4.4-.2.7-.4 1-.7.2-.2.4-.4.6-.8h-.7c-.3.3-.6.6-1.1.9-.1-.1-.2-.3-.3-.4-.7.2-1.3.4-1.9.6l-.1-.6c.3-.1.6-.2 1-.3v-2.6h-.8v-.5h.7zm2.3.6v-2.6h3.5v2.6h-3.5zm.6-1.5h2.4v-.5h-2.4v.5zm0 .4v.5h2.4v-.5h-2.4zM175.3 341.9l-.9 1.8-.4-.2 1-1.8c.1.1.2.2.3.2zm-.2-1.3-.2.3c-.2-.2-.5-.4-.8-.5l.2-.3c.3.2.5.3.8.5zm.2-1.3-.2.3c-.2-.3-.5-.5-.7-.6l.2-.3c.3.2.5.4.7.6zm1.1-.3c-.1.3-.2.5-.3.7h.8v-1h.4v1h1.4v.3h-1.4v1h1.7v.3h-1.2v1.8c0 .1 0 .1.1.1h.6c.1 0 .2-.1.2-.1.1-.1.1-.2.1-.4.1.1.2.1.4.1 0 .2-.1.4-.2.6-.1.2-.2.2-.4.2h-.7c-.3 0-.4-.2-.4-.5v-1.8h-.8c0 .7-.1 1.2-.3 1.5-.2.3-.6.6-1.1.8-.1-.1-.1-.3-.2-.4.5-.2.9-.5 1-.8.1-.3.2-.6.2-1.1h-1.1v-.3h1.7v-1h-1c-.1.3-.3.5-.4.7-.1-.1-.2-.2-.3-.2.2-.3.4-.5.5-.8.1-.3.2-.5.3-.8l.4.1zM180.7 340.4l-.2.3c-.2-.1-.5-.2-.7-.3l.1-.3c.3.1.6.2.8.3zm.2 1.5-.8 1.8-.3-.2.8-1.8c.2.1.3.2.3.2zm.1-2.6-.2.3c-.2-.2-.4-.4-.6-.5l.2-.3c.2.1.4.3.6.5zm1.3 1.4c-.1.1-.1.2-.2.3h1c.1-.1.2-.3.3-.5l.3.1c-.1.1-.1.3-.2.4h1.3v.3h-1.4v.4h1.3v.3h-1.3v.4h1.3v.3h-1.3v.5h1.5v.3H182v.2h-.4v-2.1l-.4.4c-.1-.1-.1-.2-.2-.3.2-.1.4-.3.6-.5.2-.2.3-.4.5-.7l.2.2zm.5-1.9v1.8h-.4v-.1h-1.1v-.3h1.1v-.4h-1.1v-.3h1.1v-.4h-1.1v-.3h1.5zm.2 2.5h-1v.4h1.1v-.4zm0 .7h-1v.4h1.1v-.4zm0 1.2v-.5h-1v.5h1zm1.6-4.4v1.8h-.4v-.1H183v-.3h1.2v-.4H183v-.3h1.2v-.4H183v-.3h1.6zM186.2 339.8v-1.2h.4v1.2h.5v.4h-.5v.6c.1.1.1.2.2.2l.3.3c-.1.1-.2.2-.2.3l-.3-.3v2.5h-.4v-2.4c-.1.4-.3.7-.5 1-.1-.1-.1-.2-.2-.3.2-.3.3-.6.4-.9.1-.2.2-.5.2-.9h-.6v-.4h.7zm2-1-.5.9.2.2.3-.5.3.2-.7 1.1h.4c0-.1-.1-.2-.1-.3l.3-.1c.1.2.3.5.4.7-.1-.5-.1-1.3-.1-2.4h.4v1l.2-.2c.1 0 .1.1.2.1l.3-.8.3.2-.4.8.2.2.3-.5.3.2-.7 1.1h.4c0-.1-.1-.2-.1-.2l.3-.1c.1.2.2.5.3.8l-.4.1c0-.1 0-.1-.1-.2-.4.1-.8.1-1.1.1l-.1-.4h.2l.3-.5c-.2-.2-.4-.4-.7-.5 0 .7.1 1.2.1 1.6v.2h.6c0-.1-.1-.2-.1-.3l.3-.1c.1.1.2.3.2.4h.5v.4H189c0 .2.1.4.2.5 0 .1.1.2.2.3.2-.2.4-.4.5-.6l.3.2c-.1.2-.3.4-.6.6.2.2.3.3.4.3 0 0 .1-.1.2-.5.1.1.2.1.4.2-.1.4-.2.6-.3.6 0 .1-.1.1-.2.1-.2 0-.5-.1-.7-.3l-.2-.2c-.4.3-.8.4-1.2.6 0-.1-.1-.2-.2-.4.4-.1.7-.3 1.1-.5h.1c-.1-.1-.1-.2-.2-.4s-.2-.5-.2-.7h-.7c0 .2-.1.3-.1.4.3.1.5.3.7.5l-.2.3c-.2-.2-.4-.3-.6-.4 0 .1-.1.2-.1.3-.1.3-.3.6-.6.9l-.3-.3c.2-.2.4-.5.5-.8.1-.2.2-.5.3-.8h-.6v-.4h1.7V341.2l-.4.1c0-.1 0-.1-.1-.2-.4.1-.8.1-1.1.1l-.1-.4h.2l.3-.5c-.2-.2-.5-.4-.7-.6l.2-.3c.1.1.2.1.2.2l.4-.9.7.1zM179.8 346.8v.4h2.3v.3h-2.3v.4h1.5v1.9h-2.9v-1.9h1.1v-.4h-2.4v-.3h2.4v-.4h-2v-1.2h4.2v1.2h-1.9zm-2.1 1.2v2.1h4.4v.3h-4.4v.3h-.4V348h.4zm.1-1.5h.9v-.6h-.9v.6zm.9 1.9h2.2v-.3h-2.2v.3zm0 .3v.3h2.2v-.3h-2.2zm0 .5v.3h2.2v-.3h-2.2zm.3-2.7h1v-.6h-1v.6zm1.4 0h.9v-.6h-.9v.6zM183.3 347v-1.4h.4v1.4h.6v.4h-.6v1.7c.2-.1.4-.1.6-.2v.3c.2-.1.4-.3.5-.4.1-.2.3-.3.4-.6h-.9v-.4h3.6v.4h-2.3c-.1.2-.2.3-.2.4h2.3c0 .7 0 1.2-.1 1.5-.1.2-.1.4-.2.5-.1.1-.3.1-.7.1 0-.1 0-.3-.1-.4h.5c.1 0 .1-.1.2-.3 0-.2.1-.6.1-1.1h-.4c-.2.5-.4.8-.7 1.1-.3.3-.6.5-.9.6 0-.1-.1-.2-.2-.3l.9-.6c.2-.2.4-.5.5-.9h-.6c-.2.3-.4.6-.6.8-.3.2-.5.4-.7.5 0-.1-.1-.2-.2-.3.3-.1.5-.3.7-.5.1-.1.3-.3.4-.5h-.6c-.2.2-.4.4-.8.6-.1-.1-.1-.2-.2-.3-.5.2-.9.3-1.4.4l-.1-.4c.2 0 .4-.1.7-.2v-1.8h-.6v-.1h.7zm1.6.4v-1.8h2.4v1.8h-2.4zm.4-1.1h1.7v-.3h-1.7v.3zm0 .4v.4h1.7v-.4h-1.7zM225.5 372.3l-2.1 4.4-.9-.5 2.2-4.4c.3.2.5.4.8.5zm-.6-3-.5.8c-.5-.5-1.1-.9-1.8-1.3l.4-.8c.7.4 1.4.8 1.9 1.3zm.7-3.3-.5.8c-.6-.6-1.2-1-1.8-1.4l.5-.7c.6.3 1.2.8 1.8 1.3zm5 1.2c-.1.1-.1.2-.2.3.7.8 1.4 1.5 2.1 2 .8.6 1.7 1.1 2.7 1.6-.3.3-.5.6-.7.9-.7-.3-1.4-.8-2.2-1.4-.8-.6-1.6-1.4-2.5-2.3-.5.7-1.1 1.3-1.6 1.9-.9.8-1.6 1.4-2.2 1.8-.2-.3-.4-.6-.6-.8.8-.5 1.6-1.1 2.3-1.9.7-.7 1.4-1.5 2-2.6l.9.5zm-1.4-2.2c-.8 1.1-1.7 1.9-2.8 2.6-.1-.3-.4-.6-.7-.8 1.1-.6 2-1.4 2.7-2.5l.8.7zm3.9 11.4h-.9v-.7h-3.8v.9h-.9v-5.4h5.7v5.2zm-.9-1.5v-2.8h-3.8v2.8h3.8zm.8-9.4c.4.3.9.6 1.4.7-.2.2-.4.5-.6.8-.6-.3-1.1-.6-1.6-1s-.9-.7-1.2-1l.5-.7c.5.6 1 .9 1.5 1.2zM242.4 373v-1.2h1v1.2h4.3v.8h-4.3v1.5h5.5v.8h-12.1v-.8h5.7v-1.5h-4.1v-.8h4zm1-8.7v1.4h4.9v2.7h-1v.4h-5.1l-1.1 2c1.4-.1 2.9-.2 4.3-.3-.3-.3-.6-.5-.9-.7l.7-.7c1.2.9 2.1 1.7 2.7 2.2l-.7.7-.8-.8c-3.2.3-6 .5-8.3.6l-.2-.9c.7 0 1.4 0 2.1-.1l1.2-2h-2.9v-.4h-.9v-2.7h4.9v-1.4h1.1zm4 3.5v-1.3h-9v1.3h9zM225.2 386.2c-.8-.7-1.3-1.4-1.7-2.1-.5-.8-.7-1.7-.7-2.7 0-1 .2-1.9.7-2.7.4-.6.9-1.3 1.7-2.1l.5.5c-.7.7-1.2 1.3-1.6 1.9-.4.7-.6 1.6-.6 2.4 0 .9.2 1.7.6 2.4.3.6.9 1.2 1.6 1.9l-.5.5zM228.7 384.7v-5.9c-.5.3-1 .5-1.4.6v-.8c.5-.1 1-.3 1.4-.6h.8v6.7h-.8zM235 383.1v1.5h-.6v-1.5h-3.2v-.6l3.3-4.5h.5v4.5h.9v.6h-.9zm-.6-4-2.5 3.4h2.5v-3.4zM238.9 384.7v-5.9c-.5.3-1 .5-1.4.6v-.8c.5-.1 1-.3 1.4-.6h.8v6.7h-.8zM245.3 384.4c-.4.3-1 .4-1.6.4-.6 0-1.2-.1-1.6-.4-.5-.3-.8-.8-.8-1.3s.1-.9.3-1.2c.2-.3.6-.5 1.1-.8-.5-.2-.8-.4-.9-.7-.2-.2-.3-.5-.3-.9 0-.6.2-1 .7-1.3.4-.3.9-.4 1.5-.4s1 .2 1.4.5c.4.3.6.7.6 1.2 0 .4-.1.7-.2.9-.2.2-.5.4-.9.7.6.3 1 .5 1.2.8.3.3.4.7.4 1.2-.1.5-.3 1-.9 1.3zm-.6-2.4c-.2-.1-.6-.4-1.1-.6-.5.2-.8.4-1 .6-.3.3-.5.6-.5 1s.2.7.5.9c.3.2.6.2 1.1.2.4 0 .7-.1 1.1-.3.4-.2.5-.5.5-.9s-.2-.6-.6-.9zm-.1-3.3c-.2-.2-.5-.3-.8-.3-.4 0-.7.1-.9.3-.3.2-.4.5-.4.9 0 .3.1.6.4.8.2.1.5.3.9.4.2-.1.5-.2.8-.4.3-.2.4-.5.4-.8-.1-.4-.2-.7-.4-.9zM248.7 384.1c-.4.7-.9 1.3-1.7 2.1l-.5-.5c.7-.7 1.2-1.3 1.6-1.9.4-.7.6-1.5.6-2.4 0-.9-.2-1.7-.6-2.4-.3-.6-.9-1.2-1.6-1.9l.5-.5c.8.7 1.3 1.4 1.7 2.1.5.8.7 1.7.7 2.7 0 .9-.3 1.9-.7 2.7zM183 252.5c-.2.5-.5 1-.9 1.4l-.3-.3c.6-.7 1-1.6 1.3-2.8l.4.2c-.1.6-.3 1.1-.5 1.5zm2.7 1.3c-.3-1-.8-1.9-1.3-2.8l.3-.2c.6.9 1.1 1.9 1.5 2.8l-.5.2zM188.8 253.1c-.5.4-1.1.8-1.9 1.1l-.2-.4c1.3-.4 2.5-1.3 3.4-2.5l.3.3c-.6.6-1.1 1.2-1.6 1.5zm-1-1.5c-.4-.3-.7-.6-1.1-.8l.2-.3c.4.2.8.5 1.1.8l-.2.3zM194.5 252.5c0 .5-.1.9-.1 1.2 0 .1-.1.2-.2.3-.1.1-.4.1-.8.2 0-.1-.1-.2-.1-.4h.4c.1 0 .3-.1.3-.2.1-.1.1-.4.1-.8v-1.1h-1.2c-.1.6-.3 1.2-.5 1.6-.3.4-.7.8-1.2 1.1l-.3-.3c.5-.3.9-.6 1.1-.9.3-.4.4-.8.5-1.4h-1.2v-.4h1.3v-1h.4v1h1.6l-.1 1.1zm0-1.4-.5-.5.2-.2c.2.2.4.3.6.5l-.3.2zm.3-.4-.5-.5.2-.2c.2.2.4.3.6.5l-.3.2zM195.2 252.4v-.3h3.8v.3h-3.8zM200.6 252.5c-.2.5-.5 1-.9 1.4l-.3-.3c.6-.7 1-1.6 1.3-2.8l.4.2c-.2.6-.3 1.1-.5 1.5zm2.7 1.3c-.3-1-.8-1.9-1.3-2.8l.3-.2c.6.9 1.1 1.9 1.5 2.8l-.5.2zm.3-2.7c-.1.1-.2.2-.3.2-.1 0-.3 0-.3-.1-.1-.1-.1-.2-.1-.3 0-.1 0-.3.1-.3.1-.1.2-.1.3-.1.1 0 .2 0 .3.1.1.1.1.2.1.3s0 .1-.1.2zm-.2-.5s-.1-.1-.2-.1c-.2 0-.3.1-.3.3 0 .1 0 .1.1.2 0 .1.1.1.2.1s.1 0 .2-.1c0 0 .1-.1.1-.2s0-.2-.1-.2zM206.5 251.6v2.7h-.4v-2.4c-.6.5-1.2.9-1.8 1.1-.1-.1-.1-.3-.2-.4.6-.2 1.2-.6 1.8-1.1.5-.4 1-.9 1.5-1.4l.4.3c-.5.6-.9.9-1.3 1.2zM210.8 253.1c-.4.5-1 .9-1.9 1.2 0-.1-.1-.2-.2-.4.7-.2 1.3-.6 1.7-1 .4-.4.7-1 1-1.8h-3v-.4h3.2l.3.3c-.4 1-.8 1.7-1.1 2.1zm1.6-2.4c-.1.1-.2.2-.3.2-.1 0-.3 0-.3-.1-.1-.1-.1-.2-.1-.3 0-.1 0-.3.1-.3.1-.1.2-.1.3-.1.1 0 .2 0 .3.1.1.1.1.2.1.3 0 0 0 .1-.1.2zm-.2-.5s-.1-.1-.2-.1c-.2 0-.3.1-.3.3 0 .1 0 .1.1.2 0 .1.1.1.2.1s.1 0 .2-.1c0 0 .1-.1.1-.2s0-.2-.1-.2zM396.5 285.4c-.1.5-.3 1-.5 1.4-.1-.1-.1-.2-.2-.3.3-.7.6-1.6.8-2.8l.2.2c-.1.6-.2 1.1-.3 1.5zm1.6 1.2c-.2-1-.5-1.9-.8-2.8l.2-.2c.4.9.7 1.9.9 2.8l-.3.2zM399.9 286c-.3.4-.7.8-1.1 1.1l-.1-.4c.8-.4 1.5-1.3 2.1-2.5 0 .1.1.2.2.3-.4.6-.8 1.1-1.1 1.5zm-.6-1.5c-.2-.3-.4-.6-.6-.8l.1-.3c.2.2.5.5.7.8l-.2.3zM403.3 285.4c0 .5 0 .9-.1 1.2 0 .1-.1.2-.1.3-.1.1-.2.1-.5.2 0-.1 0-.2-.1-.4h.2c.1 0 .2-.1.2-.2s.1-.4.1-.8v-1.1h-.7c-.1.6-.2 1.2-.3 1.6-.2.4-.4.8-.7 1.1 0-.1-.1-.2-.2-.3.3-.3.5-.6.7-.9.2-.4.2-.8.3-1.4h-.7v-.4h.8v-1h.2v1h.9v1.1zm0-1.5c-.1-.1-.2-.3-.3-.5l.1-.2c.1.2.3.3.3.5l-.1.2zm.2-.3c-.1-.1-.2-.3-.3-.5l.1-.2c.1.2.3.3.3.5l-.1.2zM403.8 285.3v-.3h2.3v.3h-2.3zM407 285.4c-.1.5-.3 1-.5 1.4-.1-.1-.1-.2-.2-.3.3-.7.6-1.6.8-2.8l.2.2c-.1.6-.2 1.1-.3 1.5zm1.6 1.2c-.2-1-.5-1.9-.8-2.8l.2-.2c.4.9.7 1.9.9 2.8l-.3.2zm.2-2.7c-.1.1-.1.2-.2.2s-.2 0-.2-.1c-.1-.1-.1-.2-.1-.3 0-.1 0-.3.1-.3.1-.1.1-.1.2-.1s.1 0 .2.1.1.2.1.3c0 0 0 .1-.1.2zm-.1-.5-.1-.1c-.1 0-.2.1-.2.3 0 .1 0 .1.1.2 0 .1.1.1.1.1s.1 0 .1-.1v-.2c.1-.1.1-.1 0-.2zM410.6 284.5v2.7h-.2v-2.4c-.4.5-.7.9-1.1 1.1 0-.1-.1-.3-.1-.4.3-.2.7-.6 1.1-1.1.3-.4.6-.9.9-1.4l.2.3c-.4.5-.6.9-.8 1.2zM413.1 285.9c-.2.5-.6.9-1.1 1.2 0-.1-.1-.2-.1-.4.4-.2.8-.6 1-1 .2-.4.4-1 .6-1.8h-1.8v-.4h1.9l.2.3c-.2 1-.5 1.7-.7 2.1zm1-2.4c-.1.1-.1.2-.2.2s-.2 0-.2-.1c-.1-.1-.1-.2-.1-.3 0-.1 0-.3.1-.3.1-.1.1-.1.2-.1s.1 0 .2.1.1.2.1.3c0 0-.1.1-.1.2zm-.1-.5-.1-.1c-.1 0-.2.1-.2.3v.2c0 .1.1.1.1.1s.1 0 .1-.1v-.2c.1-.1.1-.1.1-.2zM197.5 453.5c-.2.5-.5 1-.9 1.4l-.3-.3c.6-.7 1-1.6 1.3-2.8l.4.2c-.1.6-.3 1.1-.5 1.5zm2.7 1.2c-.3-1-.8-1.9-1.3-2.8l.3-.2c.6.9 1.1 1.9 1.5 2.8l-.5.2zM203.3 454.1c-.5.4-1.1.8-1.9 1.1l-.2-.4c1.3-.4 2.5-1.3 3.4-2.5l.3.3c-.6.6-1.1 1.1-1.6 1.5zm-1-1.6c-.4-.3-.7-.6-1.1-.8l.2-.3c.4.2.8.5 1.1.8l-.2.3zM209 453.4c0 .5-.1.9-.1 1.2 0 .1-.1.2-.2.3-.1.1-.4.1-.8.2 0-.1-.1-.2-.1-.4h.4c.1 0 .3-.1.3-.2.1-.1.1-.4.1-.8v-1.1h-1.2c-.1.6-.3 1.2-.5 1.6-.3.4-.7.8-1.2 1.1l-.3-.3c.5-.3.9-.6 1.1-.9.3-.4.4-.8.5-1.4h-1.2v-.4h1.3v-1h.4v1h1.6l-.1 1.1zm0-1.4-.5-.5.2-.2c.2.2.4.3.6.5l-.3.2zm.3-.4-.5-.5.2-.2c.2.2.4.3.6.5l-.3.2zM209.7 453.4v-.4h3.8v.3h-3.8zM215.1 453.5c-.2.5-.5 1-.9 1.4l-.3-.3c.6-.7 1-1.6 1.3-2.8l.4.2c-.2.6-.4 1.1-.5 1.5zm2.7 1.2c-.3-1-.8-1.9-1.3-2.8l.3-.2c.6.9 1.1 1.9 1.5 2.8l-.5.2zm.3-2.7c-.1.1-.2.2-.3.2-.1 0-.3 0-.3-.1-.1-.1-.1-.2-.1-.3 0-.1 0-.3.1-.3.1-.1.2-.1.3-.1.1 0 .2 0 .3.1.1.1.1.2.1.3 0 0 0 .1-.1.2zm-.2-.5s-.1-.1-.2-.1c-.2 0-.3.1-.3.3 0 .1 0 .1.1.2 0 .1.1.1.2.1s.1 0 .2-.1c0 0 .1-.1.1-.2s0-.1-.1-.2zM221 452.6v2.7h-.4v-2.4c-.6.5-1.2.9-1.8 1.1-.1-.1-.1-.3-.2-.4.6-.2 1.2-.6 1.8-1.1.5-.4 1-.9 1.5-1.4l.4.3c-.5.5-.9.9-1.3 1.2zM225.2 454c-.4.5-1 .9-1.9 1.2 0-.1-.1-.2-.2-.4.7-.2 1.3-.6 1.7-1 .4-.4.7-1 1-1.8h-3v-.4h3.2l.3.3c-.3 1-.7 1.7-1.1 2.1zm1.7-2.4c-.1.1-.2.2-.3.2-.1 0-.3 0-.3-.1-.1-.1-.1-.2-.1-.3 0-.1 0-.3.1-.3.1-.1.2-.1.3-.1.1 0 .2 0 .3.1.1.1.1.2.1.3 0 0-.1.1-.1.2zm-.2-.5s-.1-.1-.2-.1c-.2 0-.3.1-.3.3 0 .1 0 .1.1.2 0 .1.1.1.2.1s.1 0 .2-.1c0 0 .1-.1.1-.2s0-.1-.1-.2zM184.7 263.7c-.6.7-1.5 1.2-2.5 1.5-.1-.1-.2-.3-.3-.5.9-.2 1.7-.6 2.2-1.2.5-.5 1-1.2 1.4-2.2h-2.1c-.4.7-1 1.3-1.5 1.9-.1-.1-.3-.2-.4-.3.5-.4.9-.9 1.2-1.3.2-.4.5-.9.9-1.6l.5.2c-.1.2-.2.5-.4.8h2.1l.1-.1.3.3c-.5 1.1-1 1.9-1.5 2.5zM190.8 264.9v-.4h-3.3v.4h-.5v-4.3h4.3v4.3h-.5zm0-3.9h-3.3v2.9h3.3V261zM192 262.8v-.5h5.1v.5H192zM201.1 263.4l-.3-.4c.5-.5 1-.9 1.4-1.4l-2.4.4v2.1c0 .3.2.4.6.5h1c.6 0 1.1 0 1.5-.1v.5c-.6 0-1.2.1-1.6.1-.6 0-1 0-1.3-.1-.5-.1-.7-.4-.7-.9V262l-1.5.2-.1-.5 1.6-.2v-1.7h.5v1.6l2.6-.4.1-.1.4.4c-.7 1-1.3 1.6-1.8 2.1zm1.5-2.5c-.2-.2-.4-.4-.7-.6l.2-.3c.3.2.6.4.7.6l-.2.3zm.5-.5c-.2-.2-.4-.4-.7-.6l.2-.3c.3.2.6.4.7.6l-.2.3zM204.4 263.1c-.2-.3-.4-.7-.7-1.1l.4-.2c.2.4.5.7.7 1.2l-.4.1zm3 .2c-.3.6-.7 1-1.1 1.4-.4.3-.9.6-1.5.8-.1-.2-.2-.3-.3-.4.6-.2 1-.4 1.4-.6.4-.3.7-.7 1-1.2.2-.4.4-1 .6-1.7l.5.1c-.2.7-.4 1.2-.6 1.6zm-1.7-.6c-.1-.4-.3-.8-.5-1.1l.4-.2c.2.4.4.8.6 1.1l-.5.2zM212.4 263.3c-.7-.4-1.6-.8-2.7-1.2v3.3h-.5v-5.6h.5v1.8c1 .3 2 .7 3 1.2l-.3.5zM199.1 463.4c-.6.7-1.5 1.2-2.5 1.5-.1-.1-.2-.3-.3-.5.9-.2 1.7-.6 2.2-1.2.5-.5 1-1.2 1.4-2.2h-2.1c-.4.7-1 1.3-1.5 1.9-.1-.1-.3-.2-.4-.3.5-.4.9-.9 1.2-1.3.2-.4.5-.9.9-1.6l.5.2c-.1.2-.2.5-.4.8h2.1l.1-.1.3.3c-.4 1-.9 1.9-1.5 2.5zM205.3 464.5v-.5H202v.4h-.5v-4.3h4.3v4.3h-.5zm0-3.9H202v2.9h3.3v-2.9zM206.5 462.4v-.4h5.1v.5h-5.1zM215.6 463l-.3-.4c.5-.5 1-.9 1.4-1.4l-2.4.4v2.1c0 .3.2.4.6.5h1c.6 0 1.1 0 1.5-.1v.5c-.6 0-1.2.1-1.6.1-.6 0-1 0-1.3-.1-.5-.1-.7-.4-.7-.9v-2.1l-1.5.2-.1-.5 1.6-.2v-1.7h.5v1.6l2.6-.4.1-.1.4.4c-.7 1-1.3 1.6-1.8 2.1zm1.5-2.5c-.2-.2-.4-.4-.7-.6l.2-.3c.3.2.6.4.7.6l-.2.3zm.5-.5c-.2-.2-.4-.4-.7-.6l.2-.3c.3.2.6.4.7.6l-.2.3zM218.9 462.8c-.2-.3-.4-.7-.7-1.1l.4-.2c.2.4.5.7.7 1.2l-.4.1zm2.9.2c-.3.6-.7 1-1.1 1.4-.4.3-.9.6-1.5.8-.1-.2-.2-.3-.3-.4.6-.2 1-.4 1.4-.6.4-.3.7-.7 1-1.2.2-.4.4-1 .6-1.7l.5.1c-.2.6-.4 1.1-.6 1.6zm-1.6-.6c-.1-.4-.3-.8-.5-1.1l.4-.2c.2.4.4.8.6 1.1l-.5.2zM226.9 462.9c-.7-.4-1.6-.8-2.7-1.2v3.3h-.5v-5.6h.5v1.8c1 .3 2 .7 3 1.2l-.3.5zM450.5 192.6v-.5h.4v.5h2.5v.4h-2.5v.5h2v2.1h-.8v.5h1.5v.4h-1.5v1c0 .2-.1.3-.2.3-.2.1-.4.1-.7.1 0-.2-.1-.3-.2-.5h.6c.1 0 .1 0 .1-.1v-.9h-3.8v-.4h3.8v-.5h-3v-2.1h1.9v-.4H448v-.4h2.5zm-.5 4.7-.4.3c-.2-.3-.4-.5-.7-.8l.3-.3c.4.2.6.5.8.8zm-1-2.9h1.5v-.5H449v.5zm1.5.3H449v.5h1.5v-.5zm.4-.3h1.5v-.5h-1.5v.5zm0 .3v.5h1.5v-.5h-1.5zM459.6 192.5v4.9c0 .2-.1.4-.2.4-.1.1-.4.1-.7.1 0-.2-.1-.3-.2-.5h.5c.1 0 .1 0 .1-.1v-1.5h-1.7v2.1h-.4v-2.1h-1.5c-.1.9-.3 1.6-.8 2.2-.1-.2-.3-.3-.4-.4.5-.6.8-1.4.8-2.5v-2.7h4.5zm-2.5 2.9v-1h-1.5v1.1h1.5zm0-1.4v-1.1h-1.5v1.1h1.5zm.4 0h1.7v-1.1h-1.7v1.1zm0 1.4h1.7v-1h-1.7v1zM438.4 203.6c-.7-.4-1.6-.8-2.7-1.2v3.3h-.5v-5.6h.5v1.8c1 .3 2 .7 3 1.2l-.3.5zM442.8 204.5c-.6.5-1.4.9-2.5 1.2 0-.2-.1-.3-.2-.5.9-.2 1.6-.5 2.1-.9.6-.4 1-1.1 1.5-1.9h-4.2v-.4h4.6l.3.3c-.5 1-1.1 1.7-1.6 2.2zm-2.7-3.6v-.5h3.5v.5h-3.5zM448 204c-.7.5-1.5 1-2.5 1.5l-.3-.6c1.8-.6 3.3-1.7 4.6-3.3.1.2.2.3.4.4-.9.9-1.6 1.6-2.2 2zm-1.4-2c-.5-.4-1-.8-1.4-1.1l.3-.4c.5.3 1 .7 1.5 1.1l-.4.4zM454 204.1c-.6.7-1.5 1.2-2.5 1.5-.1-.1-.2-.3-.3-.5.9-.2 1.7-.6 2.2-1.2.5-.5 1-1.2 1.4-2.2h-2.1c-.4.7-1 1.3-1.5 1.9-.1-.1-.3-.2-.4-.3.5-.4.9-.9 1.2-1.3.2-.4.5-.9.9-1.6l.5.2c-.1.2-.2.5-.4.8h2.1l.1-.1.3.3c-.5 1-1 1.9-1.5 2.5zM457.8 203.4c-.2.8-.7 1.5-1.4 2.1-.1-.2-.2-.3-.3-.4.5-.4.9-.8 1.1-1.4.2-.4.3-1 .3-1.7v-1.2h.5c0 1.2-.1 2.1-.2 2.6zm1.6 2-.4-.4.1-.1v-4.5h.5v4.2c.7-.5 1.4-1.2 2-2 .1.1.2.2.4.3-.8 1.1-1.7 1.9-2.6 2.5zM462.5 203.1v-.5h5.1v.5h-5.1zM472.9 205.4c-.1-.2-.2-.4-.4-.7-2 .3-3.4.5-4.3.6l-.1-.6h.7c.6-1.2 1.2-2.6 1.7-4.3l.6.2c-.8 1.9-1.4 3.2-1.8 4 .9-.1 1.9-.2 3-.3-.3-.5-.7-1.1-1.1-1.6l.4-.3c.8 1 1.4 1.9 1.8 2.7l-.5.3zM326.7 261.2c-.2-.2-.5-.4-.8-.6.8-.9 1.5-2.1 2.2-3.4l.8.4c-.8 1.4-1.5 2.6-2.2 3.6zm4.2-5.1v6.5h-.8v-6.5h-4.2v-.8h4.2v-2.5h.8v2.5h4.5v.8h-4.5zm3.9 4.9c-.9-.9-1.8-2.1-2.5-3.4l.8-.5c.8 1.3 1.6 2.4 2.5 3.3-.3.2-.6.4-.8.6zM336.4 258.1v-.8h8.9v.8h-8.9zM349.1 258.6c-.4 1.4-1.2 2.7-2.4 3.7-.2-.3-.4-.5-.6-.8.9-.7 1.6-1.4 2-2.4.3-.8.5-1.8.6-3V254h.9c-.1 2.1-.2 3.6-.5 4.6zm2.9 3.4-.6-.7.1-.1v-7.9h.8v7.4c1.2-.9 2.4-2 3.5-3.5.2.2.4.4.7.6-1.5 1.8-3 3.2-4.5 4.2zM300.3 363.3v-1.2h.4v1.2h.6v.4h-.6v1c.2-.1.4-.1.7-.2v.4c-.2.1-.5.1-.7.2v1.7c0 .1-.1.2-.2.3-.1.1-.3.1-.6.1 0-.1 0-.3-.1-.4h.5c.1 0 .1 0 .1-.1v-1.5c-.3.1-.6.2-.8.2l-.1-.4c.3-.1.6-.1.9-.2v-1.1h-.9v-.4h.8zm4-.8c-.8.3-1.5.4-2.1.5v.9h2.3v.4h-.7v2.9h-.4v-2.9h-1.2v.2c0 .5-.1.9-.2 1.3-.1.5-.3.9-.6 1.3-.1-.1-.2-.2-.3-.2.3-.4.4-.7.6-1.1.1-.4.2-.8.2-1.2v-1.9l.3.1c.7-.1 1.4-.2 2-.5l.1.2zM302.1 367.9v1.8h1.8v.4h-1.8v2.3h2.3v.4h-5v-.4h2.2v-4.5h.5zM304.4 373.9v.4h-2.2v1.2h2v.3h-1.9c.1.5.4.9.7 1.3.4.5 1 .8 1.6 1-.1.1-.2.2-.3.4-.7-.3-1.2-.7-1.6-1.2-.3-.3-.5-.6-.6-1-.1.4-.2.7-.4 1-.4.5-1 1-1.9 1.3-.1-.2-.1-.3-.2-.4 1-.4 1.6-.8 1.9-1.4.1-.3.2-.6.3-1H300v-.3h1.8v-1.2h-2.1v-.4h4.7zM300.8 380.4v-1.1h.4v1.1h1.5v-1.2h.4v1.2h1.1v.4h-1.1v1.3h1.5v.4h-1.5v1.9h-.4v-1.9h-1.5c-.1.3-.1.6-.3.9-.2.4-.6.7-1.1 1l-.3-.3c.5-.2.9-.5 1.1-.9.1-.2.2-.4.2-.7h-1.4v-.4h1.4v-1.3h-1.1v-.4h1.1zm1.9.4h-1.5v1.3h1.5v-1.3zM410.1 429.1v-1.8h.5v1.8h.9v.5h-.9v.7l.4.4c.1.1.3.2.5.4-.1.2-.2.3-.3.5-.2-.2-.4-.3-.5-.4 0 0-.1 0-.1-.1v3.7h-.5v-3.7c-.1.3-.2.5-.3.8-.2.4-.4.7-.5.8-.1-.2-.2-.4-.3-.5.3-.4.5-.7.7-1.1.2-.3.3-.7.5-1.3h-.9v-.5h.8zm3.5-1.4v6.1c0 .2 0 .3-.1.4-.1.1-.4.2-.8.2 0-.2-.1-.4-.2-.5h.4c.1 0 .2 0 .2-.1V432h-.8c0 .3-.1.5-.1.8-.1.7-.3 1.3-.6 1.8-.1-.2-.2-.4-.4-.5.3-.5.5-1 .6-1.6.1-.5.1-1.2.1-1.9v-2.8h1.7zm-.5 3.7V430h-.8v1.4h.8zm0-1.8v-1.4h-.8v1.4h.8zm3-1.9v6.3c0 .2 0 .3-.1.4-.1.1-.4.1-.9.2 0-.2-.1-.4-.2-.5h.4c.2 0 .2 0 .2-.1v-2h-.9c0 .4-.1.7-.1 1-.1.7-.3 1.2-.5 1.7-.1-.2-.2-.4-.4-.5.2-.4.3-1 .4-1.5 0-.5.1-1.1.1-1.8v-3.1h2zm-.5 3.7V430h-.9v1.4h.9zm0-1.8v-1.4h-.9v1.4h.9zM238.1 259.5v-1.8h.5v1.8h.9v.5h-.9v.7l.4.4c.1.1.3.2.5.4-.1.2-.2.3-.3.5-.2-.2-.4-.3-.5-.4 0 0-.1 0-.1-.1v3.7h-.5v-3.7c-.1.3-.2.5-.3.8-.2.4-.4.7-.5.8-.1-.2-.2-.4-.3-.5.3-.4.5-.7.7-1.1.2-.3.3-.7.5-1.3h-.9v-.5h.8zm3.4-1.4v6.1c0 .2 0 .3-.1.4-.1.1-.4.2-.8.2 0-.2-.1-.4-.2-.5h.4c.1 0 .2 0 .2-.1v-1.8h-.8c0 .3-.1.5-.1.8-.1.7-.3 1.3-.6 1.8-.1-.2-.2-.4-.4-.5.3-.5.5-1 .6-1.6.1-.5.1-1.2.1-1.9v-2.8h1.7zm-.5 3.7v-1.3h-.8v1.4h.8zm0-1.8v-1.4h-.8v1.4h.8zm3-1.9v6.3c0 .2 0 .3-.1.4-.1.1-.4.1-.9.2 0-.2-.1-.4-.2-.5h.4c.2 0 .2 0 .2-.1v-2h-.9c0 .4-.1.7-.1 1-.1.7-.3 1.2-.5 1.7-.1-.2-.2-.4-.4-.5.2-.4.3-1 .4-1.5 0-.5.1-1.1.1-1.8v-3.1h2zm-.5 3.7v-1.3h-.9v1.4h.9zm0-1.8v-1.4h-.9v1.4h.9zM385.4 305.5v1h2.6v.4h-2.7l-1 1.8c.3.2.6.4.8.6l1.3-1.7.5.3-2.2 2.7c.7-.1 1.5-.1 2.3-.2-.2-.3-.5-.5-.7-.8l.4-.3c.6.7 1.1 1.2 1.4 1.7l-.4.3c-.1-.2-.2-.3-.4-.5-1.8.2-3.4.4-4.7.4l-.1-.5c.5 0 1 0 1.6-.1l.8-1c-.6-.5-1.3-1-2.1-1.4l.2-.4.9.6.7-1.5h-2.3v-.4h2.6v-1h.5zM391.4 305.7v2h-1.8v3.6h-.5v-5.6h2.3zm-.5.9v-.4h-1.4v.4h1.4zm0 .7v-.4h-1.4v.4h1.4zm3.4-1.6v5.1c0 .2-.1.4-.2.4-.1.1-.4.1-.8.1 0-.2-.1-.3-.2-.5h.6c.1 0 .1 0 .1-.1v-3h-1.5l.4.2-.4.6h.9v.4h-1.5v.5h1.7v.4H392c.1.2.3.4.4.5.2.2.4.3.8.5-.1.1-.2.2-.3.4-.4-.2-.6-.4-.8-.6-.2-.2-.3-.4-.4-.6-.1.1-.1.3-.2.4-.2.3-.7.6-1.2.9-.1-.2-.2-.3-.3-.4.6-.2 1-.4 1.2-.7.1-.1.1-.2.2-.3h-1.3v-.4h1.4v-.5h-1.2v-.4h.7c-.1-.2-.2-.3-.4-.5l.3-.3c.2.2.4.4.5.6l-.2.2h.8l.4-.8h-.4v-2h2.3zm-.4.4h-1.4v.4h1.4v-.4zm0 .8h-1.4v.4h1.4v-.4zM398.6 309.6c-.6.7-1.5 1.2-2.5 1.5-.1-.1-.2-.3-.3-.5.9-.2 1.7-.6 2.2-1.2.5-.5 1-1.2 1.4-2.2h-2.1c-.4.7-1 1.3-1.5 1.9-.1-.1-.3-.2-.4-.3.5-.4.9-.9 1.2-1.3.2-.4.5-.9.9-1.6l.5.2c-.1.2-.2.5-.4.8h2.1l.1-.1.3.3c-.5 1.1-1 1.9-1.5 2.5zM404.7 310.8v-.4h-3.3v.4h-.5v-4.3h4.3v4.3h-.5zm0-3.9h-3.3v2.9h3.3v-2.9zM405.9 308.7v-.5h5.1v.5h-5.1zM414.8 309.6c-.6.7-1.5 1.2-2.5 1.5-.1-.1-.2-.3-.3-.5.9-.2 1.7-.6 2.2-1.2.5-.5 1-1.2 1.4-2.2h-2.1c-.4.7-1 1.3-1.5 1.9-.1-.1-.3-.2-.4-.3.5-.4.9-.9 1.2-1.3.2-.4.5-.9.9-1.6l.5.2c-.1.2-.2.5-.4.8h2.1l.1-.1.3.3c-.5 1.1-1 1.9-1.5 2.5zM218.7 125c0 .6-.1 1.1-.1 1.4 0 .2-.1.3-.2.4-.1.1-.4.1-.9.2 0-.1-.1-.3-.1-.4h.5c.2 0 .3-.1.4-.2.1-.2.1-.5.1-1v-1.3h-1.3c-.1.8-.3 1.4-.6 1.9s-.8.9-1.4 1.3c-.1-.1-.2-.3-.3-.4.6-.3 1-.7 1.3-1.1.3-.4.5-1 .6-1.6h-1.5v-.4h1.5v-1.2h.5v1.2h1.8l-.3 1.2zM219.3 124.9v-.4h4.5v.4h-4.5zM226.9 124.4c-.1.9-.2 1.5-.5 1.8-.2.3-.7.7-1.4 1-.1-.1-.1-.3-.3-.4.7-.2 1.1-.5 1.4-.8.2-.3.3-.8.4-1.6h-2.3v-.4h4.9v.4h-2.2zm-2-1.3v-.4h3.3v.4h-3.3zM232.1 125.7c-.6.4-1.3.9-2.2 1.3l-.3-.5c1.5-.5 2.9-1.5 4-2.9l.3.3c-.6.8-1.2 1.4-1.8 1.8zm-1.2-1.7c-.4-.4-.8-.7-1.2-1l.3-.4c.5.3.9.6 1.3.9l-.4.5zM237.4 125.4c-.5.4-1 .7-1.5 1-.4.2-.7.4-.9.5l-.4-.3v-4h.4v3.7c.8-.3 1.4-.7 1.8-1 .4-.3.9-.8 1.4-1.4l.3.3c-.2.4-.7.9-1.1 1.2zM239.1 124.9v-.4h4.5v.4h-4.5zM245.5 125.2c-.2.7-.6 1.3-1.2 1.9-.1-.1-.2-.3-.3-.4.5-.3.8-.7 1-1.2.2-.4.3-.9.3-1.5v-1h.4c0 1-.1 1.7-.2 2.2zm1.4 1.7-.3-.3.1-.1v-4h.4v3.7c.6-.4 1.2-1 1.8-1.8l.3.3c-.8 1-1.5 1.7-2.3 2.2zM252.7 126.7h-.4l-.7-2.9-.8 2.9h-.4l-.9-3.6h.4l.7 2.9.8-2.9h.4l.7 2.9.7-2.9h.4l-.9 3.6zM346.9 125c0 .6-.1 1.1-.1 1.4 0 .2-.1.3-.2.4-.1.1-.4.1-.9.2 0-.1-.1-.3-.1-.4h.5c.2 0 .3-.1.4-.2.1-.2.1-.5.1-1v-1.3h-1.3c-.1.8-.3 1.4-.6 1.9s-.8.9-1.4 1.3c-.1-.1-.2-.3-.3-.4.6-.3 1-.7 1.3-1.1.3-.4.5-1 .6-1.6h-1.5v-.4h1.5v-1.2h.5v1.2h1.8l-.3 1.2zM347.5 124.9v-.4h4.5v.4h-4.5zM355.1 124.4c-.1.9-.2 1.5-.5 1.8-.2.3-.7.7-1.4 1-.1-.1-.1-.3-.3-.4.7-.2 1.1-.5 1.4-.8.2-.3.3-.8.4-1.6h-2.3v-.4h4.9v.4h-2.2zm-1.9-1.3v-.4h3.3v.4h-3.3zM360.3 125.7c-.6.4-1.3.9-2.2 1.3l-.3-.5c1.5-.5 2.9-1.5 4-2.9l.3.3c-.6.8-1.2 1.4-1.8 1.8zm-1.2-1.7c-.4-.4-.8-.7-1.2-1l.3-.4c.5.3.9.6 1.3.9l-.4.5zM365.7 125.4c-.5.4-1 .7-1.5 1-.4.2-.7.4-.9.5l-.4-.3v-4h.4v3.7c.8-.3 1.4-.7 1.8-1 .4-.3.9-.8 1.4-1.4l.3.3c-.3.4-.7.9-1.1 1.2zM367.4 124.9v-.4h4.5v.4h-4.5zM373.7 125.2c-.2.7-.6 1.3-1.2 1.9-.1-.1-.2-.3-.3-.4.5-.3.8-.7 1-1.2.2-.4.3-.9.3-1.5v-1h.4c0 1-.1 1.7-.2 2.2zm1.5 1.7-.3-.3.1-.1v-4h.4v3.7c.6-.4 1.2-1 1.8-1.8l.3.3c-.8 1-1.6 1.7-2.3 2.2zM381 126.7h-.4l-.7-2.9-.8 2.9h-.4l-.9-3.6h.4l.7 2.9.8-2.9h.4l.7 2.9.7-2.9h.4l-.9 3.6zM430.7 123.5c-.5.6-1.4 1.1-2.6 1.4-.1-.2-.2-.3-.3-.4 1-.2 1.8-.6 2.2-1 .5-.5.8-1.2.8-2.1h-3.4v1.5h-.5v-1.8h2v-1h.5v1h2c.1.9-.2 1.8-.7 2.4zM430.9 126.5v2.1c0 .2 0 .3-.1.4-.1.1-.3.1-.7.2 0-.2-.1-.3-.1-.4h.3c.2 0 .2-.1.2-.2V127c-.6.7-1.4 1.2-2.3 1.7-.1-.1-.2-.2-.3-.4 1-.5 1.8-1.1 2.4-1.8h-2.2v-.4h2.3v-.9h.4v.9h1.5v.4h-1.4zM429.1 134v-4.6h.5v4.6h-.5zM430.1 137.7c-.6.6-1.5 1-2.5 1.3-.1-.1-.2-.3-.3-.4.9-.2 1.7-.6 2.2-1.1.5-.4 1-1.1 1.4-2h-2.1c-.4.6-1 1.2-1.5 1.7-.1-.1-.3-.2-.4-.3.5-.4.9-.8 1.2-1.2.2-.3.5-.8.9-1.4l.5.2c-.1.2-.2.4-.4.7h2.2l.3.3c-.4.9-.9 1.7-1.5 2.2zM429.8 141.1v3.2h-.5v-2.9c-.8.6-1.7 1-2.4 1.4-.1-.2-.2-.3-.3-.4.8-.3 1.6-.7 2.4-1.3.7-.5 1.4-1.1 2-1.7l.5.4c-.7.4-1.2.9-1.7 1.3zM429.9 147.8c-.7.5-1.5.9-2.5 1.3l-.3-.5c1.8-.5 3.3-1.5 4.6-3 .1.1.2.3.4.3-.8.9-1.5 1.5-2.2 1.9zm-1.3-1.8c-.5-.4-1-.7-1.4-1l.3-.4c.5.3 1 .6 1.5 1l-.4.4zM425.2 123.7c-.6.6-1.5 1-2.5 1.3-.1-.1-.2-.3-.3-.4.9-.2 1.7-.6 2.2-1.1.5-.4 1-1.1 1.4-2h-2c-.4.6-1 1.2-1.5 1.7-.1-.1-.3-.2-.4-.3.5-.4.9-.8 1.2-1.2.2-.3.5-.8.9-1.4l.5.2c-.1.2-.2.4-.4.7h2.2l.3.3c-.5.9-1 1.7-1.6 2.2zM426 129.4v-.4h-3.3v.4h-.5v-3.9h4.3v3.9h-.5zm0-3.5h-3.3v2.6h3.3v-2.6zM424.2 134.4v-4.6h.5v4.6h-.5z"/><path d="m425.1 137.9-.3-.3c.5-.4 1-.8 1.4-1.2l-2.4.3v1.9c0 .2.2.4.6.5h2.5v.4h-1.6c-.6 0-1 0-1.3-.1-.5-.1-.7-.4-.7-.8v-1.9l-1.5.2-.1-.4 1.6-.2v-1.5h.5v1.4l2.6-.3.1-.1.4.4c-.7.7-1.3 1.3-1.8 1.7zm1.6-2.2c-.2-.2-.4-.4-.7-.6l.2-.2c.3.2.6.4.7.6l-.2.2zm.4-.4c-.2-.2-.4-.4-.7-.6l.2-.2c.3.2.6.4.7.6l-.2.2zM423.9 141.4c-.2-.3-.4-.6-.7-1l.4-.2c.2.3.5.7.7 1l-.4.2zm2.9.2c-.3.5-.7.9-1.1 1.2-.4.3-.9.5-1.5.8-.1-.1-.2-.3-.3-.4.6-.2 1-.3 1.4-.6.4-.2.7-.6 1-1.1.2-.4.4-.9.6-1.5l.5.1c-.2.7-.4 1.1-.6 1.5zm-1.7-.5c-.1-.3-.3-.7-.5-1l.4-.1c.2.4.4.7.6 1l-.5.1zM426.5 147c-.7-.4-1.6-.7-2.7-1.1v3h-.5v-5h.5v1.6c1 .3 2 .6 3 1.1l-.3.4zM457.2 120.5c-.2.5-.5 1-.9 1.4l-.3-.3c.6-.7 1-1.6 1.3-2.8l.4.2c-.2.6-.4 1.1-.5 1.5zm2.7 1.2c-.3-1-.8-1.9-1.3-2.8l.3-.2c.6.9 1.1 1.9 1.5 2.8l-.5.2zM458.7 124.8c-.5.4-1.1.8-1.9 1.1l-.2-.4c1.3-.4 2.5-1.3 3.4-2.5l.3.3c-.6.6-1.1 1.1-1.6 1.5zm-1-1.5c-.4-.3-.7-.6-1.1-.8l.2-.3c.4.2.8.5 1.1.8l-.2.3zM459.7 128.5c0 .5-.1.9-.1 1.2 0 .1-.1.2-.2.3-.1.1-.4.1-.8.2 0-.1-.1-.2-.1-.4h.4c.1 0 .3-.1.3-.2.1-.1.1-.4.1-.8v-1.1h-1.2c-.1.6-.3 1.2-.5 1.6-.3.4-.7.8-1.2 1.1l-.3-.3c.5-.3.9-.6 1.1-.9.3-.4.4-.8.5-1.4h-1.2v-.4h1.3v-1h.4v1h1.6l-.1 1.1zm0-1.4-.5-.5.2-.2c.2.2.4.3.6.5l-.3.2zm.3-.4-.5-.5.2-.2c.2.2.4.3.6.5l-.3.2zM458 134.4v-3.8h.3v3.8h-.3zM457.2 136.6c-.2.5-.5 1-.9 1.4l-.3-.3c.6-.7 1-1.6 1.3-2.8l.4.2c-.2.6-.4 1.1-.5 1.5zm2.7 1.3c-.3-1-.8-1.9-1.3-2.8l.3-.2c.6.9 1.1 1.9 1.5 2.8l-.5.2zm.3-2.7c-.1.1-.2.2-.3.2-.1 0-.3 0-.3-.1-.1-.1-.1-.2-.1-.3 0-.1 0-.3.1-.3.1-.1.2-.1.3-.1.1 0 .2 0 .3.1.1.1.1.2.1.3s0 .1-.1.2zm-.2-.5s-.1-.1-.2-.1c-.2 0-.3.1-.3.3 0 .1 0 .1.1.2 0 .1.1.1.2.1s.1 0 .2-.1c0 0 .1-.1.1-.2s0-.2-.1-.2zM458.6 139.7v2.7h-.4V140c-.6.5-1.2.9-1.8 1.1-.1-.1-.1-.3-.2-.4.6-.2 1.2-.6 1.8-1.1.5-.4 1-.9 1.5-1.4l.4.3c-.6.5-1 .8-1.3 1.2zM458.9 145.6c-.4.5-1 .9-1.9 1.2 0-.1-.1-.2-.2-.4.7-.2 1.3-.6 1.7-1 .4-.4.7-1 1-1.8h-3v-.4h3.2l.3.3c-.4 1-.8 1.7-1.1 2.1zm1.6-2.4c-.1.1-.2.2-.3.2-.1 0-.3 0-.3-.1-.1-.1-.1-.2-.1-.3 0-.1 0-.3.1-.3.1-.1.2-.1.3-.1.1 0 .2 0 .3.1.1.1.1.2.1.3 0 0 0 .1-.1.2zm-.2-.5s-.1-.1-.2-.1c-.2 0-.3.1-.3.3 0 .1 0 .1.1.2 0 .1.1.1.2.1s.1 0 .2-.1c0 0 .1-.1.1-.2s0-.1-.1-.2zM451.3 172.8V171h.5v1.8h.9v.5h-.9v.7l.4.4c.1.1.3.2.5.4-.1.2-.2.3-.3.5-.2-.2-.4-.3-.5-.4 0 0-.1 0-.1-.1v3.7h-.5v-3.7c-.1.3-.2.5-.3.8-.2.4-.4.7-.5.8-.1-.2-.2-.4-.3-.5.3-.4.5-.7.7-1.1.2-.3.3-.7.5-1.3h-.9v-.5h.8zm3.4-1.4v6.1c0 .2 0 .3-.1.4-.1.1-.4.2-.8.2 0-.2-.1-.4-.2-.5h.4c.1 0 .2 0 .2-.1v-1.8h-.8c0 .3-.1.5-.1.8-.1.7-.3 1.3-.6 1.8-.1-.2-.2-.4-.4-.5.3-.5.5-1 .6-1.6.1-.5.1-1.2.1-1.9v-2.8h1.7zm-.5 3.7v-1.3h-.8v1.4h.8zm0-1.8v-1.4h-.8v1.4h.8zm3.1-1.9v6.3c0 .2 0 .3-.1.4-.1.1-.4.1-.9.2 0-.2-.1-.4-.2-.5h.4c.2 0 .2 0 .2-.1v-2h-.9c0 .4-.1.7-.1 1-.1.7-.3 1.2-.5 1.7-.1-.2-.2-.4-.4-.5.2-.4.3-1 .4-1.5 0-.5.1-1.1.1-1.8v-3.1h2zm-.5 3.7v-1.3h-.9v1.4h.9zm0-1.8v-1.4h-.9v1.4h.9zM171 392.1c-.3.2-.6.3-1 .3h-1.3v2h-.5v-4.6h1.6c.5 0 .9.1 1.2.3.4.2.5.6.5 1-.1.4-.2.7-.5 1zm-1.2-1.9h-1.2v1.7h1.2c.7 0 1.1-.3 1.1-.8 0-.6-.4-.9-1.1-.9zM170.9 401.6c-.3.2-.7.3-1.1.3-.5 0-.8-.1-1.2-.3-.3-.2-.5-.6-.6-1h.6c.1.3.2.6.4.7.2.1.4.2.8.2.3 0 .5-.1.7-.2.2-.2.4-.4.4-.6 0-.3-.4-.6-1.1-.9-1-.4-1.5-.9-1.5-1.4 0-.4.2-.7.5-.9.3-.2.6-.3 1-.3.7 0 1.2.4 1.5 1.2h-.6c-.2-.5-.5-.7-.9-.7-.3 0-.5.1-.6.2-.2.1-.3.3-.3.6 0 .2.2.5.7.7.4.2.8.5 1.3.7.5.3.7.6.7 1-.1.1-.3.4-.7.7zM396.9 241.3v1.7h4.5v.8h-4.8l-1.7 3.1c.5.4 1 .7 1.5 1.1l2.2-3 .8.5-3.8 4.8c1.2-.1 2.6-.2 4-.4-.4-.5-.8-.9-1.2-1.4l.7-.5c1.1 1.2 1.9 2.2 2.4 2.9l-.7.5-.6-.9c-3.2.4-6 .7-8.2.8l-.2-.8c.8 0 1.8-.1 2.8-.1l1.3-1.7c-1-.9-2.2-1.7-3.6-2.5l.4-.7c.6.3 1.1.6 1.6 1l1.3-2.7h-4v-.8h4.5v-1.7h.8zM407.4 241.7v3.5h-3.2v6.4h-.8v-9.9h4zm-.8 1.4v-.7h-2.4v.7h2.4zm0 1.4v-.7h-2.4v.7h2.4zm6-2.8v8.9c0 .4-.1.6-.3.7-.2.1-.7.2-1.4.2 0-.3-.1-.6-.3-.9h1c.1 0 .2-.1.2-.2v-5.2h-2.7l.7.3-.7 1.1h1.6v.6h-2.6v.9h3v.7h-2.6c.2.4.4.7.7.9.3.3.7.6 1.4.8-.2.1-.4.3-.5.6-.6-.3-1.1-.7-1.5-1-.3-.3-.5-.6-.7-1.1-.1.2-.2.5-.3.7-.4.6-1.2 1.1-2.2 1.5-.1-.3-.3-.5-.6-.7 1-.3 1.7-.7 2.1-1.3.1-.1.2-.3.3-.5h-2.3v-.7h2.4v-.9h-2.1v-.6h1.3c-.2-.3-.4-.6-.7-.9l.5-.4c.3.3.7.7.9 1l-.4.3h1.4l.7-1.4h-.4v-3.5h4.1zm-.8.7h-2.4v.7h2.4v-.7zm0 1.3h-2.4v.7h2.4v-.7zM382.7 269.5c-.4-.4-.7-.8-.9-1.1-.3-.4-.4-.9-.4-1.5 0-.5.1-1 .4-1.5.2-.3.5-.7.9-1.1l.3.3c-.4.4-.7.7-.8 1-.2.4-.3.8-.3 1.3s.1.9.3 1.3c.2.3.5.7.8 1l-.3.3zM385.6 265.8v-1.5h.4v1.5h2.4v.4h-2.2c.1.6.4 1.1.7 1.6.4.6.9 1 1.5 1.3-.1.1-.2.2-.3.4-.6-.4-1.2-.9-1.6-1.5-.3-.4-.5-.9-.6-1.4-.1.4-.2.7-.3 1-.3.6-.9 1.3-1.9 2-.1-.2-.2-.3-.3-.4.8-.4 1.4-1 1.8-1.6.2-.4.4-.9.5-1.4h-2.1v-.4h2zM391 264.8v.4h-.7v1.1h.6v.4h-.6v1.3c.2-.1.5-.1.7-.2v.4c-.6.2-1.2.4-1.8.5l-.1-.4c.2-.1.5-.1.8-.2v-1.4h-.7v-.4h.7v-1.1h-.7v-.4h1.8zm1.7 2.3v.7h1.3v.4h-1.3v.8h1.5v.4h-3.5v-.4h1.6v-.8h-1.2v-.4h1.2v-.7h-1.1v-2.6h2.7v2.6h-1.2zm-1.2-1.5h.8v-.7h-.8v.7zm.8.4h-.8v.7h.8v-.7zm.4-.4h.8v-.7h-.8v.7zm0 .4v.7h.8v-.7h-.8zM399.8 264.6v.4h-2.6c-.3.7-.5 1.2-.8 1.6h2.9v2.8h-.4v-.4h-2.5v.4h-.4v-2.3c-.3.3-.6.7-1 1l-.3-.3c.6-.4 1-.8 1.3-1.4.3-.4.5-.9.7-1.5H395v-.4h4.8zm-.9 4.1V267h-2.5v1.7h2.5zM402.6 265.4v.3h-2v-.3h2zm-.3-.8v.3h-1.5v-.3h1.5zm0 1.5v.3h-1.5v-.3h1.5zm0 .7v.3h-1.5v-.3h1.5zm0 .8v1.5h-1.2v.3h-.4v-1.8h1.6zm-.3 1.2v-.8h-.8v.8h.8zm3.5-4.3v4.4c0 .2 0 .3-.1.3s-.3.1-.5.1c0-.1-.1-.3-.1-.4h.4s.1 0 .1-.1v-4.1h-1.9v2.2c0 .9-.2 1.7-.5 2.3-.1-.1-.2-.3-.3-.3.3-.5.4-1.2.4-2v-2.5h2.5zm-1.6 1.1v-.6h.3v.6h.5v.3h-.5v.6h.6v.3h-1.6v-.3h.6v-.5h-.5v-.3h.6zm.9 1.7v1.3h-.9v.4h-.4v-1.7h1.3zm-.4.9v-.7h-.6v.7h.6zM409.2 267.8c-.6.6-1.3 1.1-2.3 1.5-.1-.1-.1-.2-.3-.4.9-.3 1.6-.8 2.2-1.4-.3-.3-.7-.6-1-.8l.2-.3c.4.3.8.5 1.1.8.3-.4.6-.9.9-1.5h-1.8c-.5.7-1 1.2-1.7 1.6-.1-.1-.2-.3-.3-.4.6-.4 1-.7 1.2-1 .3-.3.5-.8.8-1.4l.5.2-.3.6h1.8l.3.3c-.4 1-.9 1.7-1.3 2.2zM414.1 266.1v3.2h-.4v-2.8c-.7.6-1.5 1-2.1 1.3-.1-.2-.1-.3-.2-.4.7-.3 1.4-.7 2.1-1.2.6-.5 1.2-1.1 1.7-1.7l.4.3c-.6.5-1.1 1-1.5 1.3zM417.6 267.3c-.2.7-.6 1.3-1.2 1.9-.1-.1-.2-.3-.3-.4.5-.3.8-.7 1-1.2.2-.4.3-.9.3-1.5v-1h.4c-.1 1-.1 1.7-.2 2.2zm1.4 1.7-.3-.3.1-.1v-4h.4v3.7c.6-.4 1.2-1 1.8-1.8l.3.3c-.8 1-1.5 1.7-2.3 2.2zM422.8 268.4c-.2.4-.5.7-.9 1.1l-.3-.3c.4-.4.7-.7.8-1 .2-.4.3-.8.3-1.3s-.1-.9-.3-1.3c-.2-.3-.5-.7-.8-1l.3-.3c.4.4.7.8.9 1.1.3.4.4.9.4 1.5 0 .5-.1 1-.4 1.5zM337.8 290.7v-3.8h.4v3.5h2.4v.4h-2.8zM343.6 286.6v.3h-.5v.6h.6v.3h-.6v1h-.3v-1h-.6c0 .2-.1.4-.2.6-.1.3-.4.5-.7.7-.1-.1-.1-.2-.2-.3.3-.1.5-.3.6-.6.1-.1.1-.2.1-.4h-.6v-.3h.7v-.6h-.5v-.3h2.2zm-.4 2.8v-.4h.3v.4h1.5v.3h-1.5v.6h2v.3h-4.3v-.3h2v-.6h-1.4v-.3h1.4zm-.4-2.5h-.6v.6h.6v-.6zm1.5-.2v1.8h-.3v-1.8h.3zm1-.2v2.3c0 .1-.1.2-.2.2-.1.1-.3.1-.5.1 0-.1 0-.2-.1-.4h.4s.1 0 .1-.1v-2.2h.3zM350.1 286.9c-.4.1-.9.2-1.6.2v.7h1.7v.3h-1.7v.8h2v.3h-2v1.2c0 .1-.1.2-.2.3-.1.1-.4.1-.6.1 0-.1 0-.3-.1-.4h.5c.1 0 .1 0 .1-.1v-1.1h-1.9v-.3h1.9v-.8h-1.7v-.3h1.7v-.7c-.5 0-1.1.1-1.5.1 0-.2-.1-.3-.2-.3.7 0 1.3 0 1.9-.1.5-.1 1.1-.1 1.6-.2l.1.3zM351.6 287.4v-1h.3v1h.4v.3h-.4v.7c.1 0 .3-.1.4-.2v.3c-.1.1-.3.1-.4.2v1.7c0 .1-.1.2-.2.2s-.3.1-.6.1c0-.1 0-.2-.1-.3h.5c.1 0 .1 0 .1-.1v-1.5c-.2.1-.4.2-.6.2l-.1-.3c.2-.1.4-.1.7-.2v-.9h-.6v-.3h.6zm2.1-.8v1.8l.3.1-.1.4h1.1v2h-.3v-.2H353v.2h-.3v-2h.9l.1-.4c-.1 0-.2.1-.5.1 0-.1 0-.3-.1-.3h.2c.1 0 .1 0 .1-.1v-1.3h-1v-.3h1.3zm-.4 1.4c-.3.1-.6.2-.8.3l-.1-.3c.2-.1.5-.2.9-.3v.3zm-.2-.6-.2.2-.4-.4.1-.2c.2.2.3.3.5.4zm1.6 2.2v-.4H353v.4h1.7zm0 .7v-.5H353v.5h1.7zm.5-3.7v1.7c0 .1 0 .2-.1.2s-.2.1-.5.1c0-.1 0-.3-.1-.3H354.8V287h-1v-.3h1.4zm-.6.8-.2.2c-.1-.1-.3-.2-.5-.3l.1-.2.6.3zm.1.5c-.3.1-.5.2-.7.3l-.1-.3c.2-.1.5-.2.8-.3v.3zM337.3 566.4v.9h2.4v.4h-4.6v1.5c0 1.3-.3 2.3-.9 3.2-.1-.2-.2-.3-.4-.4.6-.7.8-1.6.8-2.8v-1.9h2.1v-.9h.6zm-.1 2.5v-1h.4v1h2v.4h-1.8c.2.4.4.7.7 1 .3.4.7.7 1.3 1-.2.1-.3.3-.3.4-.5-.3-.9-.7-1.3-1.1l-.6-.9v2.6h-.4v-2.5c-.2.3-.5.7-.7.9-.4.4-.8.8-1.2 1.1-.1-.1-.2-.3-.3-.4.4-.2.7-.5 1.1-.9.3-.3.6-.7.9-1.2h-1.5v-.4h1.7zM342.2 567v4h-1v.7h-.4V567h1.4zm-.4 1.8v-1.4h-.6v1.4h.6zm0 1.8v-1.4h-.6v1.4h.6zm4.2-3.3-.5 1h.7v.4h-2c0 .2-.1.4-.1.5h2.3v.4H344c-.1.2-.1.3-.2.5H345.5l.2.3c-.2.4-.5.8-.8 1.1.4.2.9.4 1.5.5-.1.2-.2.3-.3.4-.6-.1-1.1-.3-1.6-.6-.4.3-.9.5-1.6.6 0-.2-.1-.3-.2-.4.6-.1 1.1-.3 1.4-.5-.3-.2-.5-.5-.7-.7-.3.5-.7.9-1.2 1.3l-.3-.3c.6-.4 1-.8 1.3-1.3.1-.2.2-.4.3-.7h-1.1v-.4h1.2c0-.2.1-.4.1-.5h-1.2v-.4h2.5l.5-1.1.5-.1zm0-.5c-1.2.2-2.3.4-3.3.4 0-.1-.1-.2-.2-.4 1.1-.1 2.2-.2 3.2-.4l.3.4zm-2.4 1.2-.4.1-.3-.6.3-.1c.2.2.3.4.4.6zm.9 3.1c.3-.2.5-.5.6-.8h-1.4c.3.3.5.6.8.8zm.1-3.2-.4.1c-.1-.2-.1-.4-.2-.7l.3-.1c.2.3.2.5.3.7zM348 570.6c-.1.6-.3 1.1-.6 1.6-.1-.2-.2-.3-.3-.4.3-.4.4-.9.5-1.4.1-.5.1-1.1.1-1.8v-1.2h4.6v1.3h-1.8v.7h2.3v.4h-2.6c0 .2-.1.4-.1.6h2.2l-.1 1.1c0 .3-.1.5-.3.6-.2.1-.5.1-.9.1 0-.2 0-.3-.1-.4h.8s.1-.1.1-.2l.1-.7H350c-.1.1-.1.3-.2.4-.3.4-.8.8-1.5 1-.1-.1-.2-.3-.3-.4.7-.2 1.2-.5 1.5-.9.2-.3.3-.7.4-1.1h-1.4v-.4h1.7v-.7h-2c-.1.6-.1 1.3-.2 1.8zm4.8-4v.4h-5.7v-.4h5.7zm-4.7 1.8h3.7v-.6h-3.7v.6zM333.4 445.2V444h.4v1.2h.6v.4h-.6v1c.2-.1.4-.1.7-.2v.4c-.2.1-.5.1-.7.2v1.7c0 .1-.1.2-.2.3-.1.1-.4.1-.6.1 0-.1 0-.3-.1-.4h.5c.1 0 .1 0 .1-.1v-1.5c-.3.1-.6.2-.8.2l-.1-.4c.3-.1.6-.1.9-.2v-1.1h-.9v-.4h.8zm4-.8c-.8.3-1.5.4-2.1.5v.9h2.3v.4h-.7v2.9h-.4v-2.9h-1.2v.2c0 .5-.1.9-.2 1.3-.1.5-.3.9-.6 1.3-.1-.1-.2-.2-.3-.2.3-.4.4-.7.6-1.1.1-.4.2-.8.2-1.2v-1.9l.3.1c.7-.1 1.4-.2 2-.5l.1.2zM341 444.1v1.8h1.8v.4H341v2.3h2.3v.4h-5v-.4h2.2v-4.5h.5zM348.9 444.4v.4h-2.2v1.2h2v.3h-1.9c.1.5.4.9.7 1.3.4.5 1 .8 1.6 1-.1.1-.2.2-.3.4-.7-.3-1.2-.7-1.6-1.2-.3-.3-.5-.6-.6-1-.1.4-.2.7-.4 1-.4.5-1 1-1.9 1.3-.1-.2-.1-.3-.2-.4 1-.4 1.6-.8 1.9-1.4.1-.3.2-.6.3-1h-1.8v-.3h1.8v-1.2h-2.1v-.4h4.7zM351.1 445.2V444h.4v1.1h1.5V444h.4v1.2h1.1v.4h-1.1v1.3h1.5v.4h-1.5v1.9h-.4v-1.9h-1.5c-.1.3-.1.6-.3.9-.2.4-.6.7-1.1 1l-.3-.3c.5-.2.9-.5 1.1-.9.1-.2.2-.4.2-.7h-1.4v-.4h1.4v-1.3H350v-.4h1.1zm1.9.3h-1.5v1.3h1.5v-1.3z"/><path class="st20" d="M420.5 443.4H266M399.4 443.7v170.8"/></svg>