<svg version="1.1" id="レイヤー_1" xmlns="http://www.w3.org/2000/svg" x="0" y="0" viewBox="0 0 620 642.8" style="enable-background:new 0 0 620 642.8" xml:space="preserve"><style>.st0{fill:#ecf4d9}.st2{fill:none;stroke:#000;stroke-width:.4}.st3{fill:#bfc0c0}.st4{stroke-width:.4;stroke-dasharray:1.3,1.3,0,0,0,0}.st4,.st5,.st6{fill:none;stroke:#000}.st5{stroke-width:.4;stroke-miterlimit:10}.st6{stroke-width:.6}.st8{fill:#dfeaf8}.st9{fill:#fadce9}.st10{fill:#fffcdb}.st11{fill:#f9f4e4}.st15{fill:none;stroke:#cfb5a7;stroke-width:.4}.st16{stroke:#b5b5b6;stroke-miterlimit:10}.st16,.st17,.st18,.st19{fill:none;stroke-width:.4}.st17{stroke:#aaabab;stroke-linecap:round;stroke-linejoin:round;stroke-miterlimit:10;stroke-dasharray:4.5,2.5}.st18,.st19{stroke:#000;stroke-linejoin:bevel;stroke-dasharray:15,1.3,1.3,1.3}.st19{stroke-width:.3;stroke-dasharray:1.3,1.3,0,0,0,0}.st20,.st21,.st22{fill:none;stroke:#000;stroke-width:.4}.st20{stroke-linejoin:bevel;stroke-dasharray:10,1.3,1.3,1.3}.st21,.st22{stroke-dasharray:1.3,1.3}.st22{stroke-width:.2;stroke-linecap:round;stroke-linejoin:round;stroke-miterlimit:10;stroke-dasharray:1.2706,1.2706,0,0,0,0}.st23{fill:#fff}</style><path class="st0" d="M423.6 573.4v23.5h3.9v2.3h.6v29.7h-.6v2.4H160.2v-2.4h-.6v-29.7h.6v-2.3h3.9v-23.5h18.2v.7h58.6v-.7h2.5V585h56.7v-11.6h4.8v.7H382v-.7zM423.6 10.6v34.7h-24.9v-.7h-72.5v.7h-53.5v-.7h-77.2v.7h-32.1V10.6z"/><path d="M272 585.5h18.6c.5 0 .9.4.9.9v15.8c0 1-.8 1.9-1.9 1.9H273c-1 0-1.9-.8-1.9-1.9v-15.8c0-.5.4-.9.9-.9z" style="fill:#dff2fc"/><path class="st2" d="M158.5 599.2h1.2V629h-1.2zM157.9 596.9h2.3v2.3h-2.3z"/><path class="st2" d="M157.9 628.9h2.3v2.3h-2.3zM159.6 626.6h255.1V623h9.3v3.6h4.1"/><circle class="st2" cx="419.3" cy="626.6" r="1.6"/><path class="st2" d="M413.8 640.1H173.9M413.8 631.3H173.9M413.8 634.5H173.9M413.8 636.8H173.9M450.1 640.1h-6.6M450.1 631.3h-6.6M450.1 634.5h-6.6M450.1 636.8h-6.6M144.2 640.1h-8.4M135.8 631.3h8.4M144.2 634.5h-8.4M144.2 636.8h-8.4M428.1 599.2h1.2V629h-1.2zM427.5 596.9h2.3v2.3h-2.3z"/><path class="st2" d="M427.5 628.9h2.3v2.3h-2.3z"/><circle class="st2" cx="149.6" cy="626.6" r="1.6"/><path class="st2" d="M429.3 626.6h20.8M135.8 626.6h9.3V623h9.3v3.6h4.1M423.6 2.3H163.4M423.6 5.1H163.4M423.6 7.4H163.4M423.6 10.6H163.4M163.4 15.3h250.9v3.6h9.3"/><circle class="st2" cx="419" cy="15.3" r="1.6"/><path class="st3" d="M443.5 631.3v9.7h-9v-1.1h-11.6v1.1h-9.1v-9.7zM173.9 631.3v9.7h-9.1v-1.1h-11.6v1.1h-9v-9.7zM154.6 1.8h8.8v43.5h-8.8zM398.7 45.3v2.1h.9v3.9h-.7v8.4h20.7v4.6h3.3v-4.6h61.3V45.3h-50.4V1.8h-10.2v43.5z"/><path class="st4" d="m269.8 594.8-23.2-9.3"/><path transform="rotate(-180 258.225 590.162)" class="st4" d="M246.6 585.5h23.2v9.3h-23.2z"/><path class="st5" d="M272 586.2h18.6c.1 0 .2.1.2.2v15.8c0 .6-.5 1.2-1.2 1.2H273c-.6 0-1.2-.5-1.2-1.2v-15.8c0-.1.1-.2.2-.2z"/><path class="st5" d="M272 585.5h18.6c.5 0 .9.4.9.9v15.8c0 1-.8 1.9-1.9 1.9H273c-1 0-1.9-.8-1.9-1.9v-15.8c0-.5.4-.9.9-.9z"/><circle class="st5" cx="281.3" cy="588.4" r="1.2"/><path class="st6" d="M443.5 631.3v9.7h-9v-1.1h-11.6v1.1h-9.1v-9.7zM173.9 631.3v9.7h-9.1v-1.1h-11.6v1.1h-9v-9.7z"/><path style="fill:none;stroke:#000;stroke-width:.6;stroke-linecap:square" d="M154.6 1.8h8.8"/><path class="st6" d="M398.7 45.3h24.9V1.8h10.2v43.5h50.4v14.4"/><path d="M311.3 595.6c-.7 1.5-1.5 2.8-2.5 4-.3-.3-.6-.6-.9-.8 1.7-2 3-4.6 3.9-8.1l1.1.4c-.6 1.9-1.1 3.4-1.6 4.5zm7.9 3.6c-.9-2.8-2.2-5.5-3.9-8.2l.9-.6c1.8 2.7 3.2 5.5 4.2 8.3l-1.2.5zm-.5-7.1c-.3-.5-.8-1-1.4-1.6l.6-.5c.6.5 1.1 1 1.5 1.5l-.7.6zm1.2-.9c-.3-.5-.8-1-1.4-1.6l.6-.5c.6.5 1.1 1 1.5 1.5l-.7.6zM325 596c-.5 1.8-1.5 3.3-3 4.6-.2-.3-.5-.6-.7-.9 1.1-.8 2-1.8 2.4-3 .4-1 .6-2.2.7-3.8v-2.6h1.1c0 2.6-.2 4.5-.5 5.7zm3.6 4.3-.8-.8.1-.2v-9.9h1.1v9.3c1.5-1.1 3-2.6 4.4-4.4.2.3.5.5.8.7-1.8 2.2-3.7 4-5.6 5.3zM343.5 600.4v-.8h-7.9v-1h7.9v-6h-7.9v-1.1h9.1v8.9h-1.2zM346.6 599v-1h12.1v1.1h-12.1zm1.7-6.9V591h8.6v1.1h-8.6zM360 595.4v-1h11.1v1H360zM265.4 30.9c-.7 1.5-1.5 2.8-2.5 4-.3-.3-.6-.6-.9-.8 1.7-2 3-4.6 3.9-8.1l1.1.4c-.5 1.9-1.1 3.4-1.6 4.5zm7.9 3.6c-.9-2.8-2.2-5.5-3.9-8.2l.9-.6c1.8 2.7 3.2 5.5 4.2 8.3l-1.2.5zm-.4-7.1c-.3-.5-.8-1-1.4-1.6l.6-.5c.6.5 1.1 1 1.5 1.5l-.7.6zm1.1-.9c-.3-.5-.8-1-1.4-1.6l.6-.5c.6.5 1.1 1 1.5 1.5l-.7.6zM279.2 31.3c-.5 1.8-1.5 3.3-3 4.6-.2-.3-.5-.6-.7-.9 1.1-.8 2-1.8 2.4-3 .4-1 .6-2.2.7-3.8v-2.6h1.1c-.1 2.6-.2 4.5-.5 5.7zm3.6 4.3-.8-.8.1-.2v-9.9h1.1V34c1.5-1.1 3-2.6 4.4-4.4.2.3.5.5.8.7-1.9 2.2-3.7 4-5.6 5.3zM297.6 35.7v-.8h-7.9v-1h7.9v-6h-7.9v-1.1h9.1v8.9h-1.2zM300.8 34.3v-1.1h12.1v1.1h-12.1zm1.7-6.9v-1.1h8.6v1.1h-8.6zM314.1 30.7v-1h11.1v1h-11.1zM248.4 590.9c-.2.7-.4 1.3-.6 1.8l-.2-.2c.2-.5.4-1.1.6-1.8l.2.2zm-.2-1.4-.1.3c-.1-.1-.3-.3-.5-.4l.1-.3c.2.1.4.2.5.4zm.3-1.3-.2.3-.5-.5.2-.3c.2.1.3.3.5.5zm2.4 3.9h.3v.4h-3v-.4h.4v-1.7h2.2v1.7zm-2-2.2v-2.2h1.8v2.2h-1.8zm.4 2.2v-1.3h-.3v1.3h.3zm-.2-3.4h1.3v-.5h-1.3v.5zm0 .3v.6h1.3v-.6h-1.3zm.9 3.1v-1.3h-.4v1.3h.4zm.7 0v-1.3h-.4v1.3h.4zM252.9 589.2c-.1.8-.2 1.3-.4 1.7-.2.5-.4.9-.7 1.3-.1-.1-.1-.3-.2-.3.3-.3.5-.7.7-1.1.1-.4.3-.9.3-1.4h-.9v-.4h1l.2.2zm.7-1.7v.9c.1.5.2.9.3 1.3.3-.3.6-.6.9-1l.2.3c-.3.4-.6.8-.9 1.1.1.1.1.3.2.4.3.6.6 1 1 1.3-.1.1-.1.2-.2.4-.4-.3-.8-.8-1-1.4-.2-.4-.3-.8-.4-1.2v2.7c0 .1-.1.2-.1.3-.1.1-.3.1-.4.1 0-.1 0-.3-.1-.4h.3s.1 0 .1-.1v-4.6h.1zM255.9 591.9l-.3-.3c.3-.5.5-1 .8-1.7l.3.2c-.3.7-.5 1.2-.8 1.8zm1.5-2.6v3.2h-.3v-3.2h-1.5v-.4h1.5v-1.2h.3v1.2h1.6v.4h-1.6zm1.3 2.4c-.3-.5-.6-1-.9-1.7l.3-.3c.3.7.6 1.2.9 1.7l-.3.3zm-.2-3c-.1-.2-.2-.4-.4-.6l.1-.2c.2.2.3.4.5.5l-.2.3zm.2-.5c-.1-.2-.2-.4-.4-.6l.1-.2c.2.2.3.4.5.5l-.2.3zM261.3 589.4v3.2h-.3v-2.8c-.5.6-1 1-1.5 1.3 0-.2-.1-.3-.2-.4.5-.3 1-.7 1.4-1.2.4-.5.8-1.1 1.2-1.7l.3.3c-.3.5-.6.9-.9 1.3zM264.8 591.5c-.3.4-.9.8-1.5 1.1 0-.1-.1-.3-.1-.4.6-.2 1-.4 1.3-.8.3-.4.6-.9.9-1.7h-2.6v-.4h2.8l.2.3c-.4.8-.7 1.5-1 1.9zm-1.7-3.1v-.4h2.1v.4h-2.1zM266.1 590.3v-.4h3.1v.4h-3.1zM275.9 597.6c-.1.2-.3.3-.4.4h1.4l.2.3c-.6.6-1.1 1-1.5 1.3-.5.3-1.2.7-2.1 1 0-.1-.1-.2-.2-.4.6-.2 1.1-.4 1.8-.8l-.6-.6.3-.2c.3.2.4.4.6.6.5-.3.9-.6 1.2-1h-1.5c-.1.1-.2.2-.3.2-.4.3-.9.5-1.3.7-.1-.1-.1-.2-.2-.3.4-.1.8-.3 1.2-.6.4-.2.8-.6 1.1-.9l.3.3zm1 2.1c-.2.2-.5.4-.7.6h1.5l.2.3c-.4.6-1 1.1-1.6 1.4-.7.4-1.6.7-2.7.9-.1-.1-.1-.3-.2-.4.8-.1 1.6-.2 2.3-.6-.2-.2-.4-.4-.6-.7l.3-.2.7.7c.5-.3.9-.6 1.3-1.1h-1.7l-.1.1c-.4.3-1 .5-1.7.8l-.3-.3c.6-.2 1.2-.4 1.7-.7.4-.2.8-.6 1.2-1l.4.2zM282.9 602.5h-.4v-.3H280v.4h-.4V598h3.2v4.5zm-.4-3.3v-.9H280v.9h2.5zm0 1.3v-.9H280v.9h2.5zm0 1.3v-.9H280v.9h2.5zM286 597.7l-.2.8h.7v3.8h-.4v-.3h-1v.4h-.4v-3.9h.7l.1-.9.5.1zm.2 2.3v-1.2h-1v1.2h1zm0 1.6v-1.3h-1v1.3h1zm1.7-3.9c-.1.3-.2.6-.2.9h1.7v1.7c0 1.1 0 1.7-.1 2 0 .2-.1.3-.2.3-.2.1-.4.1-.8.1 0-.1-.1-.3-.2-.4h.6c.1 0 .2-.1.2-.2 0-.2.1-.8.1-1.8v-1.4h-1.4v.1c-.1.4-.3.7-.5 1.1-.1-.1-.2-.2-.3-.2.2-.4.4-.8.5-1.2.1-.4.2-.7.3-1.1l.3.1zm.5 2.9-.3.3c-.2-.2-.4-.5-.7-.8l.2-.3c.4.3.6.6.8.8zM268.8 609.2c-.5-.6-1-1.3-1.7-1.9-.6.7-1.4 1.3-2.3 1.9-.1-.2-.2-.3-.3-.4.8-.4 1.5-.8 2-1.3.4-.4.9-1.1 1.5-2h-3v-.4h3.2l.3.3c-.4.6-.7 1.2-1 1.6.7.6 1.3 1.2 1.8 1.9l-.5.3zM273.3 609v-.4h-2.9v.4h-.4v-3.8h3.8v3.8h-.5zm0-3.4h-2.9v2.6h2.9v-2.6zM275.1 607.5c-.1-.3-.3-.6-.6-1l.3-.2c.2.3.4.7.6 1l-.3.2zm2.5.2c-.3.5-.6.9-1 1.2-.3.3-.8.5-1.3.7-.1-.1-.1-.3-.2-.4.5-.1.9-.3 1.2-.6.3-.2.6-.6.9-1 .2-.3.4-.8.5-1.4l.4.1c-.1.6-.3 1-.5 1.4zm-1.5-.5c-.1-.3-.3-.7-.5-1l.3-.1c.2.4.4.7.5 1l-.3.1zM281.6 608c-.5.6-1.2 1-2.2 1.4 0-.1-.1-.3-.2-.4.8-.3 1.5-.6 2-1.2.5-.5.9-1.2 1.2-2.1h-3.6v-.4h3.8l.3.3c-.4 1.1-.9 1.9-1.3 2.4zm1.9-2.8c-.1.1-.2.2-.4.2s-.3-.1-.4-.2c-.1-.1-.2-.2-.2-.4s.1-.3.2-.4c.1-.1.2-.2.4-.2.1 0 .3.1.4.2.1.1.2.2.2.4 0 .1-.1.2-.2.4zm-.2-.6c-.1-.1-.1-.1-.2-.1-.2 0-.3.1-.3.3 0 .1 0 .2.1.2.1.1.1.1.2.1s.2 0 .2-.1c.1-.1.1-.1.1-.2s0-.2-.1-.2zM285.1 607.1c-.3-.2-.7-.4-1-.5l.2-.4c.4.1.8.3 1.1.5l-.3.4zm1.6 1c-.6.4-1.3.8-2.2 1.1l-.2-.5c1.6-.5 2.9-1.4 3.9-2.7l.3.3c-.6.9-1.2 1.4-1.8 1.8zm-1.1-2.4c-.4-.2-.7-.4-1-.6l.2-.4c.4.2.8.4 1.1.6l-.3.4zM291.6 608c-.6.4-1.3.9-2.2 1.3l-.3-.5c1.5-.5 2.9-1.5 4-2.9l.3.3c-.6.8-1.2 1.4-1.8 1.8zm-1.2-1.8c-.4-.4-.8-.7-1.2-1l.3-.4c.5.3.9.6 1.3.9l-.4.5zM296.9 608c-.6.6-1.3 1-2.2 1.3-.1-.1-.1-.3-.2-.4.8-.2 1.5-.6 2-1 .4-.4.8-1.1 1.2-1.9h-1.8c-.4.6-.8 1.2-1.3 1.6-.1-.1-.2-.2-.4-.3l1.1-1.1c.2-.3.5-.8.8-1.4l.5.2c-.1.2-.2.4-.4.7H298.1l.3.3c-.6.8-1 1.5-1.5 2z"/><path class="st8" d="M176.3 307.8h83.9V373h-83.9zM420.9 365.8v-30.2H308v40h78v-6h-7.4v-3.8zM362.9 260.7v2.2h-51.8v-.9h.4v-1.1h-1.2v-.7h-1v-32.6h1v-.7h1.2v-1.1h51.8v34.9z"/><path transform="rotate(-180 170.744 246.89)" class="st9" d="M167.2 225.9h7.1v42h-7.1z"/><path transform="rotate(-180 369.392 243.217)" class="st9" d="M363.3 225.8h12.1v34.9h-12.1z"/><path transform="rotate(-180 399.238 252.98)" class="st9" d="M378.6 245.3h41.2v15.3h-41.2z"/><path class="st9" d="M175.7 188.7v-1.9h42.8v1.9h8.5v24.6h-59.8v-24.6zM470 59.7h-47.1v4.6H421v30.2h49zM257.7 189.6h-26.5v33h24.6v-2.8h1.9zM166.8 389.3h89.6v24.6h-2.1v1.9h-85.5v-1.9h-2z"/><path transform="rotate(-180 348.482 287.907)" class="st9" d="M311.1 277.4h74.8v21h-74.8z"/><path transform="rotate(-180 336.976 268.11)" class="st9" d="M311.1 263h51.8v10.2h-51.8z"/><path class="st10" d="M419.1 181.6v2h11.4V222h-13.2v.5h-47.7v-40.9zM387.1 225.8v-1.9h30.2v1.9h2.5v19.5h-41.1v-19.5z"/><path transform="rotate(-180 169.75 340.296)" class="st11" d="M164.1 307.6h11.2v65.3h-11.2z"/><path transform="rotate(-180 395.824 373.84)" class="st11" d="M388.8 369.6h14v8.6h-14z"/><path transform="rotate(-180 374.39 268.553)" class="st11" d="M366.1 263.9h16.5v9.3h-16.5z"/><path transform="rotate(-180 271.747 567.333)" class="st11" d="M255.9 562.2h31.6v10.2h-31.6z"/><path transform="rotate(-180 413.277 375.25)" class="st9" d="M406.1 369.6h14.4V381h-14.4z"/><path style="fill:#feeab4" d="M474 108.7v46.7h-.9v-.6h-1.9v2.7h-34.9v-2.7h-1.8v.6h-.7v-46.7z"/><path style="fill:#d2cce6" d="M484.2 165.7h-11.1v-6.3h-38.6v6.3h-.7v.8h.4V223h-.4v6.1h50.4z"/><path class="st9" d="M167.3 272.8h16.2V303h-16.2z"/><path class="st8" d="M262.7 300.6v-38.7H261V227h-.2v-1.1h-86.5v42h-7v4.9h16.2V303h39.4v-.5h37.3v.5h1v-1.3h-.5v-1.1z"/><path style="fill:#feebbe" d="M295.2 404.4h96.5v112.7h-96.5z"/><path class="st3" d="M272.9 59.7v-8.4h.8v-3.9h-1v-2.1h53.5v2.1h-1v3.9h.8v8.4h-20.8v118.7h2.4v3.2H300v-4.2h1.1V59.7zM348.5 178.4h71.1V94.5H470V59.7h14.2v106h-11.1v-10.3h.9v-46.7h-40.2v46.7h.7v10.3h-.7v.8h-1.9v16h-1.4v1.1h-11.4v-2h-70.6zM241.1 559v8.4h.7v4h-.9v2.1h2.5V585h56.7v-11.6h4.8v-2.1h-.9v-4h.7V559h-63.6zm14.8 3.2h31.6v10.2h-31.6v-10.2zM375.4 225.8v34.9h-12.6v12.6H311V262h-3.3v36.8h3.3v-21.5h75.3v-13.5h34.6v101.9h-42.3v3.7h7.3v11.9H406v-11.9h14.4V559h-38.2v8.4h.7v4h-.9v2.1h41.5V597h10.2v-23.5H450V559h-13.2l-.5-319.7h8.6v-10.2h-11.3V223h-3.3v-1h-13.2v3.8h2.6v34.9h-41.2v-34.9h8.4v-3.3h-79.2v3.3h67.7zm27.4 152.3h-14v-8.6h14v8.6zm-20.2-114.2v9.3h-16.5v-9.3h16.5zM150.9 307.7V559h-15.1v14.4h18.1v23.5h10.2v-23.5h18.1v-2.1h-.9v-3.9h.7V559h-14.9V417.2h1.6v-3.3h-2.1v-24.6h89.7v24.6h-2.1v3.3h2.1v5.5h3.3v-34.8h6.3V277.4h.9v-4.2h-.8v-11.3h-3.3v38.7h.3v1.2h-1.8v1.3h-1.1v4.8h.1V373h-83.9v-65.3h46.6V303h-55.7v-77.1H266v-3.3h-6.9v-2.8h-3.3v2.8h-24.6v-33h27.9v-12.2h-4.2v8h-36.4v3.3h8.5v24.6h-59.8v-24.4h8.5v-3.5h-8.5V59.7h28.1v-8.4h-.7v-4h.9v-2.1h-59.7v14.4h15.1v248.1zm13.2-.1h11.2V373h-11.2v-65.4z"/><path class="st15" d="M470 64.3h-47.1M470 69h-49M470 73.6h-49M470 78.3h-49M470 82.9h-49M470 87.6h-49M470 92.2h-49M419.5 64.3H305.2M419.5 69H305.2M419.5 73.6H305.2M419.5 78.3H305.2M419.5 82.9H305.2M419.5 87.6H305.2M419.5 92.2H305.2M301.1 64.3H167.2M301.1 69H167.2M301.1 73.6H167.2M301.1 78.3H167.2M301.1 82.9H167.2M301.1 87.6H167.2M301.1 92.2H167.2M419.6 96.9H305.2M419.6 101.5H305.2M419.6 106.2H305.2M419.6 110.8H305.2M419.6 115.5H305.2M419.6 120.1H305.2M419.6 124.8H305.2M419.6 129.4H305.2M419.6 134.1H305.2M419.6 138.7H305.2M419.6 143.4H305.2M419.6 148H305.2M419.6 152.7H305.2M419.6 157.3H305.2M419.6 162H305.2M419.6 166.6H305.2M419.6 171.3H305.2M419.6 175.9H305.2M301.1 96.9H167.2M301.1 101.5H167.2M301.1 106.2H167.2M301.1 110.8H167.2M301.1 115.5H167.2M301.1 120.1H167.2M301.1 124.8H167.2M301.1 129.4H167.2M301.1 134.1H167.2M301.1 138.7H167.2M301.1 143.4H167.2M301.1 148H167.2M301.1 152.7H167.2M301.1 157.3H167.2M301.1 162H167.2M301.1 166.6H167.2M301.1 171.3H167.2M301.1 175.9H167.2M347.4 180.6h-38.7M298.8 180.6h-38.6M254.9 180.6h-87.7M369.6 185.2H259.1M254.9 185.2h-87.7M369.6 189.8H259.1M369.6 194.5H259.1M369.6 199.1H259.1M369.6 203.8H259.1M369.6 208.4H259.1M227 189.8h-59.7M227 194.5h-59.7M227 199.1h-59.7M227 203.8h-59.7M227 208.4h-59.7M369.6 213.1H259.1M227 213.1h-59.8M369.6 217.7H259.1M369.6 222.4H259.1M307.3 227h-45M307.3 231.7h-45M307.3 236.3h-45M307.3 241h-45M307.3 245.6h-45M307.3 250.3h-45M307.3 254.9h-45M307.3 259.6h-45M307.8 264.2H266M307.8 268.9H266M306.7 273.5h-40.3M307.8 278.2H266M307.8 282.8H266M307.8 287.5H266M307.8 292.1H266M307.8 296.8H266M420.9 282.8h-35M420.9 278.2h-35M420.9 273.5h-35M420.9 268.9h-35M420.9 264.2h-35M420.9 287.5h-35M420.9 292.1h-35M420.9 296.8h-35M420.9 301.4H266M420.9 306.1H266M420.9 310.7H266M420.9 315.4H266M420.9 320H266M420.9 324.7H266M420.9 329.3H266M420.9 334H266M308 338.6h-42M308 343.3h-42M308 347.9h-42M308 352.6h-42M308 357.2h-42M308 361.9h-42M308 366.5h-42M308 371.2h-42M386 375.8H266M385.9 380.5H266M420.3 385.1H266M420.3 389.7H259.6M420.3 394.4H259.6M420.3 399H259.6M420.3 403.7H259.6M420.3 408.3H259.6M420.3 413H259.6M420.3 417.6H259.6M420.3 422.3H259.6M420.3 426.9H261.4M420.3 431.6H261.4M420.3 436.2H261.4M420.3 440.9H261.4M420.3 445.5H261.4M420.3 450.2H261.4M420.3 454.8H261.4M420.3 459.5H262.9M420.3 464.1H262.9M420.3 468.8H262.9M420.3 473.4H262.9M420.3 478.1H262.9M420.3 482.7H262.9M420.3 487.4H262.9M420.3 492H264.4M420.3 496.7H264.4M420.3 501.3H264.4M420.3 506H264.4M420.3 510.6H264.4M420.3 515.3H264.4M420.3 519.9H264.4M420.3 524.6H266M420.3 529.2H266M420.3 533.9H266M420.3 538.5H266M420.3 543.2H266M420.3 547.8H266M420.3 552.5H266M420.3 557.1H266M256.4 389.7h-89.6M256.4 394.4h-89.6M256.4 399h-89.6M256.4 403.7h-89.6M256.4 408.3h-89.6M256.4 413h-89.6M256.4 417.6h-89.2M256.4 422.3h-89.2M259.8 426.9h-92.6M259.8 431.6h-92.6M259.8 436.2h-92.6M259.8 440.9h-92.6M259.8 445.5h-92.6M259.8 450.2h-92.6M259.8 454.8h-92.6M261.4 459.5h-94.2M261.4 464.1h-94.2M261.4 468.8h-94.2M261.4 473.4h-94.2M261.4 478.1h-94.2M261.4 482.7h-94.2M261.4 487.4h-94.2M262.9 492h-95.7M262.9 496.7h-95.7M262.9 501.3h-95.7M262.9 506h-95.7M262.9 510.6h-95.7M262.9 515.3h-95.7M262.9 519.9h-95.7M262.9 524.6h-95.7M264.5 529.2h-97.3M264.5 533.9h-97.3M264.5 538.5h-97.3M264.5 543.2h-97.3M264.5 547.8h-97.3M264.5 552.5h-97.3M264.5 557.1h-97.3"/><path class="st16" d="M393.3 181.6v40.9M411.9 181.6v40.9M393.3 223.9v21.4M411.9 223.9v21.4M430.5 193.5h-55.8M430.5 212.1h-55.8M419.8 230.7h-45.1"/><path class="st17" d="M263.7 185.3h155.9v26.4H263.7zM309.4 298.9v70.2H266M266.4 389v168.8M255.9 423.9v133.9"/><path class="st18" d="M406.4 62.1h-87.9M406.4 64.6h-87.9M280.8 62.1h-92.6M280.8 64.6h-92.6M248.3 556.5h-71.2M248.3 554.1h-71.2M389.4 556.5h-92.6M389.4 554.1h-92.6"/><path class="st4" d="M390.3 559v-7.5h-94.4v7.5M249.2 559v-7.5h-73v7.5"/><path class="st19" d="M256.4 401.8h-89.6M256.4 403.2h-89.6M419.8 233.3h-41.1M419.8 234.7h-41.1M227 199.4h-59.8M227 200.8h-59.8M455.2 59.7v34.8M453.8 59.7v34.8"/><path class="st20" d="m166.8 389.3 89.6 20.9h-89.6M231.2 222.6l18.6-33v33M167.2 213.3l59.8-20.9h-59.8M470 59.7l-20.9 34.8V59.7M474 108.7l-40.2 20.9H474M378.7 260.7l41.1-15.4h-41.1M375.4 225.8l-12.1 34.9v-34.9M420.5 369.6l-14.4 11.3M167.3 272.8h16.2V303M167.2 303l16.3-30.2"/><path class="st5" d="M311.1 298.4h74.8v-21M420.5 380.9h-14.4M369.6 181.6v40.9M374.7 181.6v40.9"/><path class="st4" d="M378.6 365.8v-28.3h42.3"/><path transform="rotate(-180 404.065 282.426)" class="st4" d="M387.8 266.2h32.5v32.5h-32.5z"/><path transform="rotate(-180 182.428 287.666)" class="st4" d="M167.6 272.8h29.8v29.8h-29.8z"/><path class="st4" d="M173.6 225.9v42"/><path class="st5" d="M195.2 225.9v7.1s.7 7 .7 14.4-.7 13.6-.7 13.6v6.9h-27.9M174.2 261.4v6.4M174.3 232.6v-6.7"/><path class="st5" d="m173.6 261.4 1.6-4.3c.4-1.1 2-1.2 2-1.2 2-.2 3.9 0 6.4.3 2.5.2 4.4 1.2 6.3 3.3s4.6 1.9 4.6 1.9h-24.2c-.8 0-.9-.8-.9-.8l-.1-1s-.6-5.3-.6-12.6.7-13.6.7-13.6c.1-.8.9-.8.9-.8h24.2s-2.7-.3-4.6 1.9c-2 2.2-4 3.2-7.7 3.5-3.7.3-5.5.1-5.5.1s-1.2-.2-1.6-1.2-1.5-4.3-1.5-4.3"/><path class="st5" d="M173.2 232.6s.8 8.2.8 14.4c0 6.2-.8 14.4-.8 14.4"/><circle class="st5" cx="178.9" cy="247" r="1.2"/><path class="st5" d="M331.8 272.3h-14.4c-.1 0-.2-.1-.2-.2v-6.5c0-.1.1-.2.2-.2h14.4c.1 0 .2.1.2.2v6.5c0 .1-.1.2-.2.2z"/><path class="st5" d="M321.8 265.3c-.1 0-.2.1-.2.2v6.5c0 .1.1.2.2.2"/><circle class="st5" cx="326.9" cy="270" r="1"/><path class="st5" d="M316.6 273h15.8c.1 0 .2-.1.2-.2v-7.9c0-.1-.1-.2-.2-.2h-15.8c-.1 0-.2.1-.2.2v7.9c0 .1.1.2.2.2zM312.4 263h.9v7.4h-.9z"/><path class="st5" d="M311.1 266.2h1.3v1.1h-1.3zM179 227.3h7.4v.9H179zM182.2 225.9h1.1v1.4h-1.1zM337.7 245c0-9 13.5-9.1 13.5-9.1s6.4-.2 9-.2c2.6 0 2.2 1.5 2.2 1.5s.2 5.2.2 7.7-.2 8-.2 8 .3 1.5-2.2 1.5c-2.6 0-9-.2-9-.2s-13.5-.2-13.5-9.1M373.4 252.2c0 2.2-1.7 1.9-1.7 1.9h-5.8c-2.2 0-2.3-1.9-2.3-1.9s-.5-1.9-.5-7.6c0-5.7.5-7 .5-7s.1-1.9 2.3-1.9h5.8s1.7-.2 1.7 1.9v14.6zM362.3 253.4h1.7M362.4 237.1h1M354.9 235.6v18.6"/><path class="st5" d="m358.7 235.5.4 2.7h-1.9v12.9h1.9l-.5 3M334.1 225.8v4c0 .3-.3.6-.7.7h-.2c-.3 0-.6-.3-.7-.7v-4M359 225.8v3.2h-24.8"/><path class="st5" d="M333.3 230.5h26.5s.8 0 .8-.9v-3.7M415.9 359.8c0 .6-.5 1-1 1H389c-.6 0-1-.5-1-1v-21.3c0-.6.5-1 1-1h25.9c.6 0 1 .5 1 1v21.3z"/><path class="st5" d="M389.1 339h25.6v18.2h-25.6zM328 350.9c0 2 1.6 3.7 3.7 3.7 2 0 3.7-1.6 3.7-3.7s-1.6-3.7-3.7-3.7c-2 0-3.7 1.7-3.7 3.7z"/><path class="st5" d="M420.9 335.6H308v40h78"/><path class="st5" d="M350.4 360.8c0 1.3-1 2.3-2.3 2.3h-32.6c-1.3 0-2.3-1-2.3-2.3v-19.6c0-1.3 1-2.3 2.3-2.3H348c1.3 0 2.3 1 2.3 2.3v19.6z"/><circle class="st5" cx="408.5" cy="345.3" r="4.6"/><circle class="st5" cx="395.2" cy="345.3" r="4.6"/><path class="st5" d="M398.6 353.4c0 1.8 1.5 3.3 3.3 3.3 1.8 0 3.3-1.5 3.3-3.3 0-1.8-1.5-3.3-3.3-3.3-1.8 0-3.3 1.5-3.3 3.3zM398.9 357.4c.8.6 1.8.9 2.9.9 1.1 0 2.1-.3 2.9-.9h9.8v2.3h-25.6v-2.3h10zM330 339.6c-2.8 0-9.9 0-11.5.2-1.6.2-4.5 1.8-4.5 4.9 0 3.1-.2 9.8.1 10.6.3.8 1 3.8 5.3 3.8s3.6-.1 3.6-.1 2 .6 3.2 1.4c1.2.8 2.7 1.8 5.5 1.8h.2c2.8 0 4.3-1 5.5-1.8 1.2-.8 3.2-1.4 3.2-1.4s-.7.1 3.6.1 5-3 5.3-3.8c.3-.8.1-7.4.1-10.6 0-3.1-2.9-4.7-4.5-4.9-1.6-.2-8.7-.2-11.5-.2H330zM362.9 262.9h-51.8M259.9 363.6c-2.9-.1-8.9 2.1-9.1 9.1"/><path class="st5" d="M255.4 364.8v-4.7h-37.1V373M218.3 366h35.4M218.3 367.2h34.3M218.3 371.9h32.5M211.9 373v-65.3M258 322.2v17.7M257.5 322.2v17.7M257.2 322.2h2.9v-.9h-2.7s-.2 0-.2.2v.7zM257.2 339.9h2.9v.9h-2.7s-.2 0-.2-.2v-.7z"/><circle class="st5" cx="203.4" cy="340.3" r="1.6"/><path class="st5" d="M178.7 354.8v1.8c0 3 2 7.2 4.3 9.4 2.2 2.2 6.1 5 10.9 5 4.8 0 9-1.5 12.7-5.6 3.7-4.1 3.7-9.2 3.7-9.2V324c0-3.2-2.5-7.9-4.6-9.9-2.1-2-6.3-4.5-10.4-4.5s-7.5.6-11.9 4.5-4.7 9.9-4.7 9.9v1.8"/><path class="st5" d="M176.4 325s1.8.4 3.2 1.3c0 0 .1.1.1.2v2h-.9s-.2 0-.4-.1c-.1-.1-1.3-.6-2.1-.8M176.4 355.7s1.8-.4 3.2-1.3c0 0 .1-.1.1-.2v-2h-.9s-.2 0-.4.1c-.1.1-1.3.6-2.1.8M179.7 328.5v23.7M178.3 352.4v-24.2M179.8 326.5l.1-2.9s0-4 3.1-6.9c0 0 1.1-1.3 3.8-1.6 2.7-.3 5.6-.5 7.2-.5s5.4.2 7.6.7c2.2.5 2.9 1.1 3.9 2.3 1 1.3 2 3.8 2 6.4v32.6s.2 3.3-2 6.4c0 0-1.1 1.9-3.9 2.3-2.8.4-5.8.7-7.8.7s-6.5-.2-7.8-.6c-1.3-.4-2.1-.6-3-1.5-.9-.9-2.9-2.9-3.1-7.3l-.1-2.5"/><path class="st5" d="M207.5 342.7s-.1 1.5-.6 2.5-1.3 1.9-1.3 3.7-.3 12.3-.3 12.3.1 3.2-3.7 4.2M188.2 365.8s-5.1.1-5.7-4.7-.9-12.5-.9-12.5.1-.8-.6-2.2c-.6-1.4-1.2-2.7-1.3-4.8M207.5 338s-.1-1.5-.6-2.5-1.3-1.9-1.3-3.7-.3-12.3-.3-12.3.1-3.2-3.7-4.2M188.2 314.9s-5.1-.1-5.7 4.7c-.6 4.8-.9 12.5-.9 12.5s.1.8-.6 2.2-1.2 2.7-1.3 4.8"/><path class="st5" d="m204.7 332.2-.4-12.2s-.1-3.3-3.5-3.9c-3.5-.6-6.6-.6-6.6-.6s-5.8.1-7.5.5c-1.7.4-3.3 1.6-3.5 3.7s-.9 12.4-.9 12.4.1.9-.6 2.2c-.6 1.4-1.1 2.1-1.1 3.5v4.9s0 1.1.4 2.2 1.1 2 1.2 3.6l.9 12.4s.1 2 2.1 3.2 8.7 1 8.7 1 5.3-.1 6.9-.6 3.3-1.3 3.5-3.9l.4-12.2s0-.9.4-2.1c.5-1.2.9-2.1.9-3.4v-5.4s0-.8-.3-1.7c-.3-.9-.6-1.7-.6-1.7s-.3-.5-.4-1.9z"/><path class="st21" d="M261.7 261.9v38.7M263.7 389v100.7M265.2 389v134M262.1 389v67.2M260.6 389v33.7"/><path class="st2" d="M398 47.4h1.6v3.9h-.7v8.9h-.9zM326.8 47.4h-1.6v3.9h.8v8.9h.8zM398.7 47.4v-2.8h-72.5v2.8M362.4 61.8v-7.1M326.8 60.2H398"/><path class="st2" d="M326.8 57.5h37v1.2h-37zM361 56.3h37v1.2h-37zM361 51h2.9v2.6H361zM326.8 49.8h37V51h-37z"/><path class="st2" d="M361 48.6h37v1.2h-37zM362.4 45.5v5.6M272.1 47.4h1.6v3.9h-.8v8.9h-.8zM196.2 47.4h-1.6v3.9h.7v8.9h.9zM272.7 47.4v-2.8h-77.2v2.8M234.1 61.8v-7.1M196.2 60.2h75.9"/><path class="st2" d="M196.2 57.5h39.4v1.2h-39.4zM232.8 56.3h39.3v1.2h-39.3zM232.7 51h2.9v2.6h-2.9zM196.2 49.8h39.4V51h-39.4z"/><path class="st2" d="M232.8 48.6h39.3v1.2h-39.3zM234.1 45.5v5.6M182.9 571.3h-1.5v-4h.7v-8.8h.8zM240.2 571.3h1.6v-4h-.7v-8.8h-.9zM182.3 571.3v2.8h58.6v-2.8M211.6 556.8v7.1M240.2 558.5h-57.3"/><path transform="rotate(-180 225.198 560.556)" class="st2" d="M210.2 560h30.1v1.2h-30.1z"/><path transform="rotate(-180 197.939 561.718)" class="st2" d="M182.9 561.1h30v1.2h-30z"/><path transform="rotate(-180 211.604 566.398)" class="st2" d="M210.2 565.1h2.9v2.6h-2.9z"/><path transform="rotate(-180 225.198 568.264)" class="st2" d="M210.2 567.7h30.1v1.2h-30.1z"/><path transform="rotate(-180 197.939 569.427)" class="st2" d="M182.9 568.8h30v1.2h-30z"/><path class="st2" d="M211.6 573.1v-5.5M305.5 571.3h-1.6v-4h.8v-8.8h.8zM381.4 571.3h1.6v-4h-.8v-8.8h-.8zM304.9 571.3v2.8H382v-2.8M343.5 556.8v7.1M381.4 558.5h-75.9"/><path transform="rotate(-180 361.725 560.554)" class="st2" d="M342 560h39.4v1.2H342z"/><path transform="rotate(-180 325.167 561.717)" class="st2" d="M305.5 561.1h39.3v1.2h-39.3z"/><path transform="rotate(-180 343.48 566.396)" class="st2" d="M342 565.1h2.9v2.6H342z"/><path transform="rotate(-180 361.725 568.263)" class="st2" d="M342 567.7h39.4v1.2H342z"/><path transform="rotate(-180 325.167 569.425)" class="st2" d="M305.5 568.8h39.3v1.2h-39.3z"/><path class="st2" d="M343.5 573.1v-5.5M434.5 159.4h1.1v-1.9h.7v-2.7h-1.8zM471.2 157.5h.7v1.9h1.2v-4.6h-1.9z"/><path class="st2" d="M435.6 157.5h36.3v1.9h-36.3zM471.6 159.4c0 19.7-16 35.7-35.7 35.7v-35.7M430.5 221.4h1.9v.7h1.8v.9h-3.7zM430.5 184.2h1.9v-.7h1.8v-.9h-3.7zM430.5 184.2v37.2M432.4 184.2v37.2M434.2 183.5v38.6"/><path class="st2" d="M432.4 183.5c21.3 0 38.6 17.3 38.6 38.6h-36.7M431.9 166.5h2.3v16h-2.3zM222.9 302.5h1v5.2h-1zM259.2 302.5h1v5.2h-1zM223.8 302.5h35.4M223.9 304.7h35.2M223.8 306.1h35.3M223.8 307.7h35.4"/><path class="st2" d="M223.8 306.1c0 18 13.8 32.8 31.4 34.4l3.9-34.4"/><path transform="rotate(-180 264.384 261.324)" class="st2" d="M262.3 260.7h4.1v1.2h-4.1z"/><path transform="rotate(-180 263.597 226.388)" class="st2" d="M260.8 225.8h5.6v1.2h-5.6z"/><path transform="rotate(-180 261.68 244.472)" class="st2" d="M261 227h1.3v34.9H261z"/><path transform="rotate(-180 261.89 301.162)" class="st2" d="M260.8 300.6h2.2v1.2h-2.2z"/><path class="st2" d="M266.3 243.9h-8M266.9 277.9v-5.2h1.2v3.1h.7v.7h-.7v1.4zM307.8 277.9v-5.2h-1.1v3.1h-.7v.7h.7v1.4z"/><path transform="rotate(-90 287.358 277.187)" class="st2" d="M286.7 257.9h1.3v38.6h-1.3z"/><path transform="rotate(-90 268.763 297.143)" class="st2" d="M249.5 296.4h38.6v1.4h-38.6z"/><path class="st2" d="M306.7 277.9c0 21.3-17.3 38.6-38.6 38.6M307.3 262h4.2v-1.1h-1.2v-.7h-1v.7h-2zM307.3 225.7h4.2v1.2h-1.2v.7h-1v-.7h-2z"/><path class="st2" d="M274.1 226.9h33.3v1.7h-33.3z"/><path transform="rotate(-180 308.348 243.914)" class="st2" d="M307.3 226.9h2v33.9h-2z"/><path class="st2" d="M307.3 260.7c-18.7-.5-33.2-15.5-33.3-33.8M308.7 177.9v1.3h.7v.7h-.7v2.2h-1.1v-4.2zM348.5 177.9v4.2h-1.2v-2.2h-.7v-.7h.7v-1.3z"/><path transform="rotate(90 328.018 178.565)" class="st2" d="M327.4 159.3h1.3v38.6h-1.3z"/><path transform="rotate(90 309.423 158.612)" class="st2" d="M290.1 157.9h38.6v1.4h-38.6z"/><path class="st2" d="M308.7 139.3c21.3 0 38.6 17.3 38.6 38.6M298.8 177v1.3h-.7v.7h.7v3.1h1.2V177zM259.1 177v5.1h1.1V179h.7v-.7h-.7V177z"/><path transform="rotate(90 279.51 177.636)" class="st2" d="M278.8 158.3h1.3v38.6h-1.3z"/><path transform="rotate(90 298.105 157.682)" class="st2" d="M278.8 157h38.6v1.4h-38.6z"/><path class="st2" d="M298.8 138.4c-21.3 0-38.6 17.3-38.6 38.6"/><path transform="rotate(-180 197.097 186.13)" class="st2" d="M175.7 185.4h42.8v1.4h-42.8z"/><path class="st2" d="m175.7 185.4 3.6-21.1 3.6 21.1"/><path transform="rotate(-180 420.297 79.44)" class="st2" d="M419.6 64.3h1.4v30.2h-1.4z"/><path class="st2" d="m419.6 69.4-14.9-2.5 14.9-2.6"/><path transform="rotate(-180 211.573 416.479)" class="st2" d="M168.8 415.8h85.5v1.4h-85.5z"/><path class="st2" d="m176 417.2-3.6 21.1-3.6-21.1M254.3 417.2l-3.6 21.1-3.5-21.1"/><path transform="rotate(-180 257.83 423.296)" class="st2" d="M255.9 422.7h3.8v1.2h-3.8z"/><path transform="rotate(-180 260.603 440.148)" class="st2" d="M259.8 422.7h1.5v34.9h-1.5z"/><path transform="rotate(-180 262.137 473.62)" class="st2" d="M261.4 456.2h1.5v34.9h-1.5z"/><path transform="rotate(-180 263.67 507.091)" class="st2" d="M262.9 489.7h1.5v34.9h-1.5z"/><path transform="rotate(-180 265.205 540.409)" class="st2" d="M264.4 523h1.5v34.9h-1.5z"/><path transform="rotate(-180 261.176 558.403)" class="st2" d="M255.9 557.8h10.5v1.1h-10.5z"/><path class="st2" d="M271.2 523.8h-12.8M269 490.4h-10.6M269.6 456.9h-12.8"/><path transform="rotate(-180 263.017 388.45)" class="st2" d="M259.6 387.9h6.8v1.1h-6.8z"/><path transform="rotate(-180 402.271 223.227)" class="st2" d="M387.3 222.5h30v1.4h-30z"/><path class="st2" d="m387.1 222.5 2.5-14.9 2.5 14.9"/><path transform="rotate(-180 258.358 204.725)" class="st2" d="M257.7 189.6h1.4v30.2h-1.4z"/><path class="st2" d="m259.1 214.8 14.8 2.5-14.8 2.5"/><path class="st6" d="M272.7 45.3h53.5M300 177.4h1.1V59.7h-28.2M307.6 181.6H300M326 59.7h-20.8v118.7h2.4M348.5 178.4h71.1V94.5H470V59.7h-47.1v4.6h-3.3v-4.6h-20.7M430.5 183.6h-11.4v-2h-70.6M434.5 159.4v6.3h-.7v.8"/><path class="st6" d="M473.1 155.4h.9v-46.7h-40.2v46.7h.7"/><path class="st6" d="M473.1 159.4v6.3h11.1v-106M241.1 559h63.4M304.9 573.4h-4.8V585h-56.7v-11.6H241M255.9 562.2h31.6v10.2h-31.6zM430.5 222h-13.2v3.8h2.6v34.9h-41.2v-34.9h8.4v-3.3h-79.2v3.3M382 573.4h41.5v23.5h10.2v-23.5H450V559h-13.2l-.5-319.7h8.6v-10.2h-11.3V223m-122.1 2.8h63.9v34.9h-12.6v12.6H311V262m-3.2 0v36.8h3.3v-21.5h75.3v-13.5H421v101.9h-42.3v3.7h7.3v11.9h20.1v-11.9h14.4V559h-38.2m20.5-180.9h-14v-8.6h14v8.6zm-20.2-114.2v9.3h-16.5v-9.3h16.5zM154.6 1.8v43.5h-18.8v14.4h15.1V559h-15.1v14.4h18.1v23.5h10.2v-23.5h18.1m13.3-528.1h-32.1V1.8M182.1 559h-14.9V417.2h1.6v-3.3h-2.1v-24.6h89.7v24.6h-2.1v3.3h2.1v5.5m3.3 0V389m6.3-1.1V277.4h.9m0-4.2h-.9v-11.3m-3.3 0v38.7m-1.5 1.1v1.3h-1m-.1 4.8.1 65.2h-83.9v-65.3h46.6m0-4.7h-55.7v-77.1h93.6m5.2 0v-3.3h-6.9v-2.8h-3.3v2.8h-24.6v-33h28v-7.5m-.1-4.7h-4.2v8h-36.4v3.3h8.5v24.6h-59.8v-24.4h8.5v-3.5h-8.5V59.7h28.1m-31.2 247.9h11.2V373h-11.2v-65.4z"/><path d="M200.1 256.2v-.7h5.5l.4-4.2h-4.8v-.7h5.5l-.4 5h2.3v.7h-8.5zM209.6 253.6v-.7h7.6v.7h-7.6zM222.6 252.7c-.1 1.5-.4 2.5-.8 3.1-.4.6-1.2 1.2-2.5 1.8-.1-.2-.3-.5-.5-.7 1.2-.4 1.9-.9 2.3-1.4.4-.5.6-1.4.7-2.7h-4v-.8h8.4v.7h-3.6zm-3.3-2.2v-.7h5.6v.7h-5.6zM231.2 253.4v4.3h-.6v-3.8c-.8.7-1.8 1.3-2.9 1.8-.1-.2-.2-.4-.4-.6.9-.4 1.8-.9 2.8-1.7.9-.7 1.7-1.4 2.3-2.3l.6.5c-.6.7-1.3 1.3-1.8 1.8zM234.6 254.4v-4.6h.7v4.6h-.7zm5-2.6c0 1.2-.1 2.1-.3 2.7-.2.7-.5 1.3-1 1.8s-1.3.8-2.4 1.2c-.1-.3-.2-.5-.4-.7 1.4-.4 2.3-.9 2.8-1.6.4-.6.6-1.7.6-3.3v-2.5h.7v2.4zM245.7 252.7c-.1 1.5-.4 2.5-.8 3.1-.4.6-1.2 1.2-2.5 1.8-.1-.2-.3-.5-.5-.7 1.2-.4 1.9-.9 2.3-1.4.4-.5.6-1.4.7-2.7h-4v-.8h8.4v.7h-3.6zm-3.2-2.2v-.7h5.6v.7h-5.6zM254.3 253.4v4.3h-.6v-3.8c-.8.7-1.8 1.3-2.9 1.8-.1-.2-.2-.4-.4-.6.9-.4 1.8-.9 2.8-1.7.9-.7 1.7-1.4 2.3-2.3l.6.5c-.6.7-1.2 1.3-1.8 1.8zM251.1 195.5c-.1-.1-.3-.2-.5-.3.5-.5 1-1.1 1.4-1.7l.5.2c-.4.7-.9 1.3-1.4 1.8zm2.8-2.6v3.3h-.5v-3.3h-2.7v-.4h2.7v-1.3h.5v1.3h2.9v.4h-2.9zm2.4 2.5c-.6-.5-1.1-1.1-1.6-1.8l.5-.3c.5.7 1 1.3 1.6 1.7-.2.2-.3.3-.5.4zM253.5 201.3v-4.6h.5v4.6h-.5zM252.3 204.6c-.3.7-.8 1.4-1.6 1.9-.1-.1-.2-.3-.4-.4.6-.3 1-.7 1.3-1.2.2-.4.3-.9.4-1.6v-1.1h.5c.1 1.1 0 1.9-.2 2.4zm1.9 1.7-.4-.3.1-.1v-4.1h.5v3.8c.8-.4 1.5-1.1 2.3-1.8.1.1.3.2.4.3-1 1-1.9 1.7-2.9 2.2zM251.3 207.8v2.7c.3-.1.6-.2 1-.3v-3.1h.5v5.2h-.5v-1.7c-.7.2-1.3.4-1.9.6l-.1-.4c.2 0 .4-.1.5-.1v-2.8h.5zm5.5-.1c-.4 1.1-.8 2-1.2 2.6-.1.1-.2.2-.3.4.4.5 1 .9 1.7 1.3-.1.1-.3.2-.4.3-.7-.4-1.3-.8-1.7-1.3-.5.4-1 .9-1.7 1.3-.1-.2-.2-.3-.3-.4.7-.4 1.3-.8 1.8-1.3-.1-.1-.1-.2-.2-.3-.4-.7-.6-1.5-.7-2.4h-.6v-.4H256.5l.3.2zm-1.8 2.6.1-.1c.5-.6.8-1.4 1.1-2.3h-1.9c0 .9.3 1.7.7 2.4zM251.9 213.1l-.7 1.1c.2.1.3.2.4.3l.7-1 .5.2-1.3 1.8c.3 0 .6 0 .9-.1-.1-.1-.1-.2-.2-.3l.4-.1c.2.3.3.6.5.9l-.5.1c0-.1-.1-.2-.1-.3-.2 0-.4.1-.6.1v2.4h-.5V216c-.4.1-.8.1-1.2.1l-.1-.4h.7l.5-.7c-.4-.3-.8-.5-1.2-.7l.3-.3c.1.1.2.1.3.2l.6-1.2.6.1zm-.8 3.4c0 .5-.2.9-.3 1.4l-.5-.1c.2-.4.3-.8.3-1.3h.5zm1.9 1c-.1 0-.3 0-.5.1-.1-.3-.2-.7-.2-1.1h.5c0 .3.1.6.2 1zm1.6-3.3V213h.5v1.2h1.6v3.6c0 .2-.1.3-.2.4-.1.1-.4.1-.7.1 0-.2-.1-.3-.2-.5h.5c.1 0 .1 0 .1-.1v-3.1h-1.1c0 .3 0 .5-.1.8.4.4.8.8 1.1 1.2l-.4.3c-.2-.3-.5-.6-.8-1-.1.4-.4.8-.8 1.2-.1-.1-.3-.2-.4-.3v1.5h-.5v-4.1h1.4zm-.1 1.4c.1-.2.2-.6.2-1.1h-.9v2.2c.3-.3.5-.7.7-1.1zM395 373.8c-.3.2-.6.3-1 .3h-1.3v2h-.5v-4.6h1.6c.5 0 .9.1 1.2.3.4.2.5.6.5 1s-.2.7-.5 1zm-1.1-1.9h-1.2v1.7h1.2c.7 0 1.1-.3 1.1-.8-.1-.6-.4-.9-1.1-.9zM399 375.9c-.3.2-.7.3-1.1.3-.5 0-.8-.1-1.2-.3-.3-.2-.5-.6-.6-1h.6c.1.3.2.6.4.7.2.1.4.2.8.2.3 0 .5-.1.7-.2.2-.2.4-.4.4-.6 0-.3-.4-.6-1.1-.9-1-.4-1.5-.9-1.5-1.4 0-.4.2-.7.5-.9.3-.2.6-.3 1-.3.7 0 1.2.4 1.5 1.2h-.6c-.2-.5-.5-.7-.9-.7-.3 0-.5.1-.6.2-.2.1-.3.3-.3.6 0 .2.2.5.7.7.4.2.8.5 1.3.7.5.3.7.6.7 1-.1.1-.3.4-.7.7zM269.7 567.8c-.3.2-.6.3-1 .3h-1.3v2h-.5v-4.6h1.6c.5 0 .9.1 1.2.3.4.2.5.6.5 1s-.2.7-.5 1zm-1.1-1.9h-1.2v1.7h1.2c.7 0 1.1-.3 1.1-.8-.1-.6-.4-.9-1.1-.9zM276.2 569.9c-.3.2-.7.3-1.1.3-.5 0-.8-.1-1.2-.3-.3-.2-.5-.6-.6-1h.6c.1.3.2.6.4.7.2.1.4.2.8.2.3 0 .5-.1.7-.2.2-.2.4-.4.4-.6 0-.3-.4-.6-1.1-.9-1-.4-1.5-.9-1.5-1.4 0-.4.2-.7.5-.9.3-.2.6-.3 1-.3.7 0 1.2.4 1.5 1.2h-.6c-.2-.5-.5-.7-.9-.7-.3 0-.5.1-.6.2-.2.1-.3.3-.3.6 0 .2.2.5.7.7.4.2.8.5 1.3.7.5.3.7.6.7 1-.2.1-.3.5-.7.7zM372.7 268.7c-.3.2-.6.3-1 .3h-1.3v2h-.5v-4.6h1.6c.5 0 .9.1 1.2.3.4.2.5.6.5 1s-.2.8-.5 1zm-1.1-1.8h-1.2v1.7h1.2c.7 0 1.1-.3 1.1-.8-.1-.6-.4-.9-1.1-.9zM379.2 270.8c-.3.2-.7.3-1.1.3-.5 0-.8-.1-1.2-.3-.3-.2-.5-.6-.6-1h.6c.1.3.2.6.4.7.2.1.4.2.8.2.3 0 .5-.1.7-.2.2-.2.4-.4.4-.6 0-.3-.4-.6-1.1-.9-1-.4-1.5-.9-1.5-1.4 0-.4.2-.7.5-.9.3-.2.6-.3 1-.3.7 0 1.2.4 1.5 1.2h-.6c-.2-.5-.5-.7-.9-.7-.3 0-.5.1-.6.2-.2.1-.3.3-.3.6 0 .2.2.5.7.7.4.2.8.5 1.3.7.5.3.7.6.7 1-.1.2-.3.5-.7.7zM307 549.1c0 .6-.1 1.1-.1 1.4 0 .2-.1.3-.2.4-.1.1-.4.1-.9.2 0-.1-.1-.3-.1-.4h.5c.2 0 .3-.1.4-.2.1-.2.1-.5.1-1v-1.3h-1.3c-.1.8-.3 1.4-.6 1.9s-.8.9-1.4 1.3c-.1-.1-.2-.3-.3-.4.6-.3 1-.7 1.3-1.1.3-.4.5-1 .6-1.6h-1.5v-.4h1.5v-1.2h.5v1.2h1.8l-.3 1.2zM307.6 549v-.4h4.5v.4h-4.5zM315.2 548.5c-.1.9-.2 1.5-.5 1.8-.2.3-.7.7-1.4 1-.1-.1-.1-.3-.3-.4.7-.2 1.1-.5 1.4-.8.2-.3.4-.8.4-1.6h-2.3v-.5h4.9v.4h-2.2zm-1.9-1.3v-.4h3.3v.4h-3.3zM320.4 549.8c-.6.4-1.3.9-2.2 1.3l-.3-.5c1.5-.5 2.9-1.5 4-2.9l.3.3c-.6.8-1.2 1.4-1.8 1.8zm-1.2-1.8c-.4-.4-.8-.7-1.2-1l.3-.4c.5.3.9.6 1.3.9l-.4.5zM323.2 550.6c-.1-.1-.3-.2-.4-.3.4-.5.8-1 1.1-1.7l.4.2c-.4.6-.7 1.2-1.1 1.8zm2.1-2.6v3.2h-.4V548h-2.1v-.4h2.1v-1.2h.4v1.2h2.3v.4h-2.3zm2 2.4c-.5-.5-.9-1-1.3-1.7l.4-.3c.4.7.8 1.2 1.3 1.7-.2.1-.3.2-.4.3zm-.4-3c-.1-.2-.4-.4-.6-.6l.2-.2c.3.2.5.4.6.5l-.2.3zm.4-.5c-.1-.2-.4-.4-.6-.6l.2-.2c.3.2.5.4.6.5l-.2.3zM328.6 549.3c-.1-.3-.3-.6-.6-1l.3-.2c.2.3.4.7.6 1l-.3.2zm2.6.2c-.3.5-.6.9-1 1.2-.3.3-.8.5-1.4.7-.1-.1-.1-.3-.2-.4.5-.1.9-.3 1.2-.6.3-.2.6-.6.9-1 .2-.3.4-.8.5-1.4l.4.1c-.1.5-.3 1-.4 1.4zm-1.5-.6c-.1-.3-.3-.7-.5-1l.3-.1c.2.4.4.7.5 1l-.3.1zM335.1 549.8c-.6.6-1.3 1-2.2 1.3-.1-.1-.1-.3-.2-.4.8-.2 1.5-.6 2-1 .4-.4.8-1.1 1.2-1.9H334c-.4.6-.8 1.2-1.4 1.6-.1-.1-.2-.2-.4-.3l1.1-1.1c.2-.3.5-.8.8-1.4l.5.2c-.1.2-.2.4-.4.7H336.1l.3.3c-.4.8-.8 1.5-1.3 2zM341.3 550.9c-.5-.6-1-1.3-1.7-1.9-.6.7-1.4 1.3-2.3 1.9-.1-.2-.2-.3-.3-.4.8-.4 1.5-.8 2-1.3.4-.4.9-1.1 1.5-2h-2.9v-.4h3.2l.3.3c-.4.6-.7 1.2-1 1.6.7.6 1.3 1.2 1.8 1.9l-.6.3zM343.7 549.2h-.6l-.1-.1v-.6l.1-.1h.6l.1.1v.6l-.1.1zM349.3 549.1c0 .6-.1 1.1-.1 1.4 0 .2-.1.3-.2.4-.1.1-.4.1-.9.2 0-.1-.1-.3-.1-.4h.5c.2 0 .3-.1.4-.2.1-.2.1-.5.1-1v-1.3h-1.3c-.1.8-.3 1.4-.6 1.9s-.8.9-1.4 1.3c-.1-.1-.2-.3-.3-.4.6-.3 1-.7 1.3-1.1.3-.4.5-1 .6-1.6h-1.5v-.4h1.5v-1.2h.5v1.2h1.8l-.3 1.2zM349.9 549v-.4h4.5v.4h-4.5zM357.5 548.5c-.1.9-.2 1.5-.5 1.8-.2.3-.7.7-1.4 1-.1-.1-.1-.3-.3-.4.7-.2 1.1-.5 1.4-.8.2-.3.3-.8.4-1.6h-2.3v-.5h4.9v.4h-2.2zm-1.9-1.3v-.4h3.3v.4h-3.3zM362.7 549.8c-.6.4-1.3.9-2.2 1.3l-.3-.5c1.5-.5 2.9-1.5 4-2.9l.3.3c-.6.8-1.2 1.4-1.8 1.8zm-1.2-1.8c-.4-.4-.8-.7-1.2-1l.3-.4c.5.3.9.6 1.3.9l-.4.5zM368.1 549.4c-.5.4-1 .7-1.5 1-.4.2-.7.4-.9.5l-.4-.3v-4h.4v3.7c.8-.3 1.4-.7 1.8-1 .4-.3.9-.8 1.4-1.4l.3.3c-.3.5-.7.9-1.1 1.2zM369.7 549v-.4h4.5v.4h-4.5zM376.1 549.2c-.2.7-.6 1.3-1.2 1.9-.1-.1-.2-.3-.3-.4.5-.3.8-.7 1-1.2.2-.4.3-.9.3-1.5v-1h.4c0 1-.1 1.8-.2 2.2zm1.5 1.8-.3-.3.1-.1v-4h.4v3.7c.6-.4 1.2-1 1.8-1.8l.3.3c-.8.9-1.6 1.6-2.3 2.2zM383.4 550.8h-.4l-.7-2.9-.8 2.9h-.5l-.9-3.6h.4l.7 2.9.8-2.9h.4l.7 2.9.7-2.9h.4l-.8 3.6zM180.9 549.1c0 .6-.1 1.1-.1 1.4 0 .2-.1.3-.2.4-.1.1-.4.1-.8.2 0-.1-.1-.3-.1-.4h.4c.2 0 .3-.1.3-.2.1-.2.1-.5.1-1v-1.3h-1.2c-.1.8-.3 1.4-.6 1.9s-.7.9-1.3 1.3c-.1-.1-.2-.3-.3-.4.5-.3.9-.7 1.2-1.1.3-.4.4-1 .5-1.6h-1.3v-.4h1.3v-1.2h.4v1.2h1.7v1.2zM181.3 549v-.4h4v.4h-4zM188 548.5c-.1.9-.2 1.5-.4 1.8-.2.3-.6.7-1.3 1-.1-.1-.1-.3-.2-.4.6-.2 1-.5 1.2-.8.2-.3.3-.8.4-1.6h-2.1v-.5h4.4v.4h-2zm-1.7-1.3v-.4h2.9v.4h-2.9zM192.6 549.8c-.5.4-1.2.9-2 1.3l-.2-.5c1.4-.5 2.6-1.5 3.6-2.9l.3.3c-.7.8-1.2 1.4-1.7 1.8zm-1.1-1.8c-.4-.4-.8-.7-1.1-1l.2-.4 1.2.9-.3.5zM194.9 550.6c-.1-.1-.2-.2-.4-.3.4-.5.7-1 1-1.7l.4.2c-.3.6-.6 1.2-1 1.8zm2-2.6v3.2h-.4V548h-1.9v-.4h1.9v-1.2h.4v1.2h2v.4h-2zm1.7 2.4c-.4-.5-.8-1-1.1-1.7l.4-.3c.3.7.7 1.2 1.1 1.7-.2.1-.3.2-.4.3zm-.4-3c-.1-.2-.3-.4-.6-.6l.2-.2c.2.2.4.4.6.5l-.2.3zm.4-.5c-.1-.2-.3-.4-.6-.6l.2-.2c.2.2.4.4.6.5l-.2.3zM199.7 549.3c-.1-.3-.3-.6-.5-1l.3-.2c.2.3.4.7.5 1l-.3.2zm2.3.2c-.2.5-.5.9-.9 1.2-.3.3-.7.5-1.2.7-.1-.1-.1-.3-.2-.4.5-.1.8-.3 1.1-.6.3-.2.6-.6.8-1 .2-.3.3-.8.5-1.4l.4.1c-.2.5-.4 1-.5 1.4zm-1.3-.6c-.1-.3-.2-.7-.4-1l.3-.1c.2.4.3.7.4 1l-.3.1zM205.4 549.8c-.5.6-1.2 1-2 1.3-.1-.1-.1-.3-.2-.4.7-.2 1.3-.6 1.8-1 .4-.4.7-1.1 1.1-1.9h-1.6c-.4.6-.8 1.2-1.2 1.6-.1-.1-.2-.2-.4-.3.4-.4.7-.8 1-1.1.2-.3.4-.8.7-1.4l.4.2c-.1.2-.2.4-.3.7h1.8l.3.3c-.6.8-1 1.5-1.4 2zM210.8 550.9c-.4-.6-.9-1.3-1.5-1.9-.5.7-1.2 1.3-2.1 1.9-.1-.2-.2-.3-.3-.4.7-.4 1.3-.8 1.8-1.3.4-.4.8-1.1 1.3-2h-2.6v-.4h2.9l.3.3c-.3.6-.6 1.2-.9 1.6.6.6 1.2 1.2 1.6 1.9l-.5.3zM212.9 549.2h-.6l-.1-.1v-.6l.1-.1h.6l.1.1v.6l-.1.1zM217.8 549.1c0 .6-.1 1.1-.1 1.4 0 .2-.1.3-.2.4-.1.1-.4.1-.8.2 0-.1-.1-.3-.1-.4h.4c.2 0 .3-.1.3-.2.1-.2.1-.5.1-1v-1.3h-1.2c-.1.8-.3 1.4-.6 1.9s-.7.9-1.3 1.3c-.1-.1-.2-.3-.3-.4.5-.3.9-.7 1.2-1.1.3-.4.4-1 .5-1.6h-1.3v-.4h1.3v-1.2h.4v1.2h1.7v1.2zM218.2 549v-.4h4v.4h-4zM224.9 548.5c-.1.9-.2 1.5-.4 1.8-.2.3-.6.7-1.3 1-.1-.1-.1-.3-.2-.4.6-.2 1-.5 1.2-.8.2-.3.3-.8.4-1.6h-2.1v-.5h4.4v.4h-2zm-1.7-1.3v-.4h2.9v.4h-2.9zM229.5 549.8c-.5.4-1.2.9-2 1.3l-.2-.5c1.4-.5 2.6-1.5 3.6-2.9l.3.3c-.7.8-1.2 1.4-1.7 1.8zm-1.1-1.8c-.4-.4-.8-.7-1.1-1l.2-.4 1.2.9-.3.5zM234.2 549.4c-.4.4-.9.7-1.4 1-.4.2-.6.4-.8.5l-.3-.3v-4h.4v3.7c.7-.3 1.2-.7 1.6-1 .4-.3.8-.8 1.3-1.4l.3.3c-.4.5-.8.9-1.1 1.2zM235.5 549v-.4h4v.4h-4zM241.1 549.2c-.2.7-.5 1.3-1.1 1.9-.1-.1-.2-.3-.3-.4.4-.3.7-.7.9-1.2.1-.4.2-.9.3-1.5v-1h.4c0 1-.1 1.8-.2 2.2zm1.3 1.8-.3-.3v-4.1h.4v3.7c.5-.4 1.1-1 1.6-1.8l.3.3c-.6.9-1.3 1.6-2 2.2zM247.6 550.8h-.4l-.7-2.9-.7 2.9h-.4l-.8-3.6h.4l.6 2.9.7-2.9h.4l.7 2.9.7-2.9h.4l-.9 3.6zM276.6 206.6v-1.2h.4v1.2h.6v.4h-.6v1c.2-.1.4-.1.7-.2v.4c-.2.1-.5.1-.7.2v1.7c0 .1-.1.2-.2.3-.1.1-.4.1-.6.1 0-.1 0-.3-.1-.4h.5c.1 0 .1 0 .1-.1v-1.5c-.3.1-.6.2-.8.2l-.1-.4c.3-.1.6-.1.9-.2V207h-.9v-.4h.8zm4-.8c-.8.3-1.5.4-2.1.5v.9h2.3v.4h-.7v2.9h-.4v-2.9h-1.2v.2c0 .5-.1.9-.2 1.3-.1.5-.3.9-.6 1.3-.1-.1-.2-.2-.3-.2.3-.4.4-.7.6-1.1.1-.4.2-.8.2-1.2V206l.3.1c.7-.1 1.4-.2 2-.5l.1.2zM284.2 205.5v1.8h1.8v.4h-1.8v2.3h2.3v.4h-5v-.4h2.2v-4.5h.5zM292.1 205.7v.4h-2.2v1.2h2v.3H290c.1.5.4.9.7 1.3.4.5 1 .8 1.6 1-.1.1-.2.2-.3.4-.7-.3-1.2-.7-1.6-1.2-.3-.3-.5-.6-.6-1-.1.4-.2.7-.4 1-.4.5-1 1-1.9 1.3-.1-.2-.1-.3-.2-.4 1-.4 1.6-.8 1.9-1.4.1-.3.2-.6.3-1h-1.8v-.3h1.8v-1.2h-2.1v-.4h4.7zM294.3 206.5v-1.1h.4v1.1h1.5v-1.2h.4v1.2h1.1v.4h-1.1v1.3h1.5v.4h-1.5v1.9h-.4v-1.9h-1.5c-.1.3-.1.6-.3.9-.2.4-.6.7-1.1 1l-.3-.3c.5-.2.9-.5 1.1-.9.1-.2.2-.4.2-.7h-1.4v-.4h1.4v-1.3h-1.1v-.4h1.1zm1.9.4h-1.5v1.3h1.5v-1.3zM313.5 242.9c-.4.7-1.1 1.2-2.1 1.6-.1-.2-.1-.4-.2-.5.8-.2 1.4-.6 1.8-1.2.4-.6.6-1.4.7-2.4H311v1.6h-.4v-2h1.6v-1.2h.4v1.2h1.6c-.1 1.3-.4 2.2-.7 2.9zM317.1 241.6v2.3c0 .2 0 .4-.1.5-.1.1-.3.1-.6.2 0-.2-.1-.4-.1-.5h.3c.1 0 .2-.1.2-.2v-1.7c-.5.8-1.1 1.4-1.8 1.9-.1-.1-.2-.3-.2-.4.8-.5 1.5-1.2 1.9-2H315v-.4h1.9v-1h.3v1h1.2v.4h-1.3zM319.7 241.8l-.9-.6.2-.4c.4.2.7.3 1 .5l-.3.5zm1.5 1.2c-.5.5-1.2.9-2 1.3l-.2-.5c1.5-.6 2.7-1.6 3.6-3 .1.1.2.3.3.4-.6.6-1.1 1.3-1.7 1.8zm-.9-2.8c-.3-.3-.6-.5-.9-.7l.2-.4c.4.3.7.5 1 .7l-.3.4zM323.4 244.1v-.4h2.3l.2-2.2h-2v-.4h2.3l-.2 2.6h1v.4h-3.6zM315.7 250.3c-.4.4-.9.8-1.4 1.1-.4.2-.6.4-.8.6l-.3-.4V247h.4v4.2c.7-.4 1.2-.8 1.7-1.2.4-.4.8-.9 1.3-1.6.1.1.2.3.3.4-.5.6-.9 1.1-1.2 1.5zM317.8 250.1c-.1-.3-.3-.7-.5-1.1l.3-.2c.2.4.4.7.5 1.2l-.3.1zm2.4.2c-.2.6-.5 1-.9 1.4-.3.3-.7.6-1.2.8-.1-.2-.1-.3-.2-.4.5-.2.8-.4 1.1-.6.3-.3.6-.7.8-1.2.2-.4.3-1 .5-1.7l.4.1c-.2.7-.4 1.2-.5 1.6zm-1.4-.6c-.1-.4-.2-.8-.4-1.1l.3-.2c.2.4.3.8.4 1.1l-.3.2zM324.2 250.3c-.6-.4-1.3-.8-2.1-1.2v3.3h-.4v-5.6h.4v1.8c.8.3 1.6.7 2.4 1.2l-.3.5zM324.7 256.3c-.5.1-1.1.2-1.9.3v.8h2v.4h-2v.9h2.3v.4h-2.3v1.4c0 .1-.1.2-.3.3-.2.1-.4.1-.8.1 0-.1 0-.3-.2-.4h.6c.1 0 .1 0 .1-.1v-1.3H320v-.4h2.2v-.9h-2v-.4h2v-.8c-.6.1-1.2.1-1.8.1-.1-.2-.1-.3-.2-.4.8 0 1.6-.1 2.2-.1.6-.1 1.2-.2 1.9-.3l.4.4zM327 259.1l-.9 1.8-.4-.2 1-1.8c.1.1.2.2.3.2zm-.2-1.3-.2.3c-.2-.2-.5-.4-.8-.5l.2-.3c.3.2.6.3.8.5zm.3-1.3-.2.3c-.2-.3-.5-.5-.7-.6l.2-.3c.2.2.4.4.7.6zm1.1-.3c-.1.3-.2.5-.3.7h.8v-1h.4v1h1.4v.3h-1.4v1h1.7v.3h-1.2v1.8c0 .1 0 .1.1.1h.6c.1 0 .2-.1.2-.1.1-.1.1-.2.1-.4.1.1.2.1.4.1 0 .2-.1.4-.2.6-.1.2-.2.2-.4.2h-.7c-.3 0-.4-.2-.4-.5v-1.8h-.8c0 .7-.1 1.2-.3 1.5-.2.3-.6.6-1.1.8-.1-.1-.1-.3-.2-.4.5-.2.9-.5 1-.8.1-.3.2-.6.2-1.1H327v-.3h1.7v-1h-1c-.1.3-.3.5-.4.7-.1-.1-.2-.2-.3-.2.2-.3.4-.5.5-.8.1-.3.2-.5.3-.8l.4.1zM335.7 258.6c0 .6-.1 1.1-.1 1.4 0 .2-.1.3-.2.4-.1.1-.4.1-.9.2 0-.1-.1-.3-.1-.4h.5c.2 0 .3-.1.4-.2.1-.2.1-.5.1-1v-1.3h-1.3c-.1.8-.3 1.4-.6 1.9s-.8.9-1.4 1.3c-.1-.1-.2-.3-.3-.4.6-.3 1-.7 1.3-1.1.3-.4.5-1 .6-1.6H332v-.4h1.5v-1.2h.5v1.2h1.8l-.1 1.2zM339.7 259.4c-.4.6-1.2 1.1-2.3 1.4-.1-.2-.2-.3-.2-.4.9-.2 1.5-.6 2-1 .5-.5.7-1.2.7-2.1h-3v1.4h-.4v-1.8h1.7v-1h.4v1h1.8c0 1.1-.3 1.9-.7 2.5zM343.6 259.3c-.6.4-1.3.9-2.2 1.3l-.3-.5c1.5-.5 2.9-1.5 4-2.9l.3.3c-.7.8-1.3 1.4-1.8 1.8zm-1.2-1.8c-.4-.4-.8-.7-1.2-1l.3-.4c.5.3.9.6 1.3.9l-.4.5zM348.9 259.3c-.6.6-1.3 1.1-2.3 1.5-.1-.1-.1-.2-.3-.4.9-.3 1.6-.8 2.2-1.4-.3-.3-.7-.6-1-.8l.2-.3c.4.3.8.5 1.1.8.3-.4.6-.9.9-1.5h-1.8c-.5.7-1 1.2-1.7 1.6-.1-.1-.2-.3-.3-.4.6-.4 1-.7 1.2-1 .3-.3.5-.8.8-1.4l.5.2-.3.6h1.8l.3.3c-.4.9-.9 1.7-1.3 2.2zM350.8 258.5v-.4h4.5v.4h-4.5zM474.6 179.8l-.4-.4c.5-.4 1.1-1 1.8-1.7h-5.2v-.6h5.8l.5.5c-1.1 1-2 1.8-2.5 2.2zm-.9 1.8c-.3.7-1 1.3-2.1 1.8-.1-.2-.2-.4-.4-.6.9-.2 1.6-.6 1.9-1.2.3-.5.4-1.2.4-2.2v-.6h.6c0 1.4-.1 2.3-.4 2.8zM472.5 188c-.3 1-.9 1.9-1.7 2.6-.1-.2-.3-.4-.4-.5.6-.5 1.1-1 1.4-1.7.2-.5.4-1.3.4-2.2v-1.5h.6c-.1 1.6-.2 2.7-.3 3.3zm2 2.5-.5-.5.1-.1v-5.7h.6v5.3c.9-.6 1.7-1.5 2.5-2.5.1.1.3.3.5.4-1 1.3-2.1 2.4-3.2 3.1zM475.8 196.7v-.4h-4.5v-.6h4.5v-3.4h-4.5v-.6h5.2v5.1h-.7zM473.7 203.9v-6.4h.6v6.4h-.6zM475.1 209.7c-.7.8-1.7 1.5-3.2 2.1l-.3-.6c1.2-.4 2.2-.9 2.9-1.7.7-.7 1.2-1.7 1.7-3h-5.1v-.6h5.4l.5.5c-.7 1.5-1.3 2.6-1.9 3.3zm2-3.6c-.2-.2-.5-.5-.9-.8l.3-.3c.4.3.7.5.9.8l-.3.3zm.6-.6c-.2-.2-.5-.5-.9-.8l.3-.3c.4.3.7.5.9.8l-.3.3zM437.5 186.5v1.1h.4l.2.2c-.2.4-.4.9-.7 1.2l.2.2c.2-.1.3-.3.5-.5l.2.3-.5.5c.1.1.3.2.4.3-.1.1-.2.2-.2.3-.2-.1-.4-.3-.5-.5l-.1-.1v2.1h-.4v-2.1l-.6.6c0-.1-.1-.3-.2-.4.6-.6 1.1-1.1 1.4-1.8h-1.3v-.3h.7v-1.1h.5zm3.7 5.1h-.4v-.4H439v.4h-.4v-3.7h1.1v-1.3h.4v1.3h1.1v3.7zm-1.5-2.2v-1.1h-.7v1.1h.7zm0 1.5v-1.2h-.7v1.2h.7zm.4-1.5h.8v-1.1h-.8v1.1zm0 1.5h.8v-1.2h-.8v1.2zM438 192.4c-.1.4-.3.8-.5 1.2v3.9h-.4v-3.2c-.2.3-.4.6-.7.9 0-.1-.1-.3-.2-.4.5-.7 1-1.5 1.4-2.6l.4.2zm2.1 1.3v-1.3h.4v1.3h1v.4h-1v2.9c0 .1-.1.2-.2.3-.2.1-.4.1-.7.1 0-.1 0-.3-.1-.4h.6c.1 0 .1 0 .1-.1v-2.8h-2.3v-.4h2.2zm-.8 1.9-.3.2c-.2-.3-.5-.6-.8-1l.3-.2c.4.4.7.7.8 1zM439.1 198v.9h2.2v.4H439l-.8 1.6c.3.2.5.4.7.6l1.1-1.5.4.2-1.9 2.4c.6 0 1.3-.1 2-.2-.2-.2-.4-.5-.6-.7l.3-.2c.5.6.9 1.1 1.2 1.5l-.3.2c-.1-.2-.2-.3-.3-.4-1.6.2-3 .3-4.1.4l-.1-.4c.4 0 .9 0 1.4-.1l.7-.9c-.5-.4-1.1-.9-1.8-1.2l.2-.4c.3.2.6.3.8.5l.6-1.3h-2v-.4h2.3v-1h.3zM438.7 203.9v1.7h-1.6v3.2h-.4v-4.9h2zm-.5.7v-.4H437v.4h1.2zm0 .7v-.3H437v.4h1.2zm3-1.4v4.4c0 .2-.1.3-.2.4-.1.1-.3.1-.7.1 0-.1-.1-.3-.2-.4h.5c.1 0 .1 0 .1-.1v-2.6h-1.3l.3.1-.3.5h.8v.3H439v.5h1.5v.3h-1.3c.1.2.2.3.3.4.1.1.4.3.7.4l-.3.3c-.3-.2-.6-.3-.7-.5-.1-.1-.3-.3-.4-.5-.1.1-.1.2-.2.3-.2.3-.6.5-1.1.8l-.3-.3c.5-.1.8-.4 1.1-.6.1-.1.1-.1.1-.2h-1.1v-.3h1.2v-.5h-1.1v-.3h.6c-.1-.1-.2-.3-.4-.5l.3-.2.5.5-.2.2h.7l.3-.7h-.2V204h2.2zm-.4.4h-1.2v.4h1.2v-.4zm0 .7h-1.2v.4h1.2v-.4zM440.8 212.5c-.6-.4-1.4-.7-2.3-1v2.9h-.5v-4.9h.4v1.6c.9.3 1.8.6 2.6 1.1l-.2.3zm-.6-1.6c-.1-.2-.3-.4-.6-.6l.2-.2c.3.2.5.4.6.5l-.2.3zm.4-.5c-.1-.2-.3-.4-.6-.6l.2-.2c.3.2.5.4.6.5l-.2.3zM439.4 216.9l-.3-.3c.4-.3.8-.7 1.3-1.2h-3.6v-.4h4.1l.3.4c-.9.7-1.5 1.2-1.8 1.5zm-.7 1.3c-.2.5-.7.9-1.5 1.2-.1-.1-.2-.3-.3-.4.6-.2 1.1-.4 1.3-.9.2-.3.3-.8.3-1.5v-.4h.4c.1 1 0 1.6-.2 2zM348.5 112.7l-2.1 4.3-1-.6 2.3-4.2c.3.2.5.4.8.5zm-.4-3.4-.4.8c-.6-.4-1.2-.7-2-1.1l.4-.8c.7.3 1.4.7 2 1.1zm.7-3.2-.6.8c-.6-.5-1.2-1-1.9-1.4l.6-.7c.7.3 1.3.8 1.9 1.3zm7.5-1.2-1.1 2h2.8v.9h-4v1.9h3.1v.9H354v2.2h4v.9h-4v3.5h-.9v-3.5H349v-.9h4.1v-2.2h-3.3v-.9h3.3v-1.9h-3.8v-.9h4.9l1.3-2.5.8.5zm-3.9 1.3-.8.6c-.3-.6-.7-1.2-1.2-1.7l.8-.6c.5.7.9 1.3 1.2 1.7zM365.7 113.3v-1.2h1v1.2h4.4v.8h-4.4v1.5h5.7v.8h-12.5v-.8h5.8v-1.5h-4.3v-.8h4.3zm1-9v1.4h5.1v2.7h-1v.4h-5.3l-1.1 2.1c1.5-.1 2.9-.2 4.5-.3-.3-.3-.6-.5-1-.8l.7-.7c1.3 1 2.2 1.7 2.7 2.3l-.7.7-.8-.8c-3.3.3-6.1.5-8.5.6l-.2-.9c.7 0 1.4 0 2.2-.1l1.2-2.1h-3v-.4h-.9v-2.7h5.1v-1.4h1zm4.1 3.7v-1.3h-9.3v1.3h9.3zM374.3 115.6c.1-1.5.8-2.8 2.3-3.9 1.5-1.2 2.2-2.1 2.2-2.7 0-.5-.1-.9-.4-1.2-.3-.3-.7-.5-1.2-.5-.7 0-1.1.2-1.5.6-.3.3-.5.8-.5 1.5h-1c.2-1.9 1.3-2.8 3.1-2.8.8 0 1.4.2 1.9.7.5.5.7 1.1.7 1.8 0 .9-.7 1.9-2.2 3.1-1.2 1-1.9 1.9-2.2 2.7h4.5v.9h-5.7zM344.4 135.7c-.7-.7-1.2-1.3-1.6-1.9-.4-.8-.6-1.6-.6-2.5 0-.9.2-1.7.6-2.5.3-.6.9-1.2 1.6-1.9l.5.5c-.7.6-1.1 1.2-1.5 1.8-.4.7-.6 1.4-.6 2.2 0 .8.2 1.5.6 2.2.3.5.8 1.1 1.5 1.8l-.5.3zM348.5 126.9l-1 1.9c.2.2.4.3.6.5l.9-1.6.6.4-1.7 2.7c.4 0 .9 0 1.4-.1-.1-.3-.3-.5-.4-.8l.5-.3c.4.6.6 1.1.8 1.5l-.5.4c0-.1-.1-.2-.1-.3-.4 0-.8.1-1.1.1v4h-.7v-3.9c-.5 0-1 .1-1.5.1l-.2-.6h1l.6-1c-.5-.4-1-.8-1.6-1.1l.4-.5c.1.1.3.2.4.3l.9-1.9.7.2zm-1.1 5.3c-.2.9-.4 1.7-.6 2.4-.2-.1-.4-.2-.6-.2.2-.7.4-1.5.6-2.3l.6.1zm2.6 1.7-.6.2c-.1-.6-.2-1.2-.4-1.8l.6-.2c.1.5.2 1.1.4 1.8zm1.8-7.1c-.2.7-.3 1.3-.4 1.7h3.1v3.8c0 1-.1 1.7-.2 2-.1.6-.8.9-2 .9 0-.3-.1-.6-.3-.8h1.1c.3 0 .5-.2.6-.5.1-.3.1-.9.2-1.9v-3h-2.6c-.2.6-.4 1.1-.6 1.5-.2-.2-.4-.3-.6-.4.3-.6.5-1.2.7-1.9.2-.6.3-1.2.4-1.8l.6.4zm1 5.3-.5.5c-.3-.5-.8-1.1-1.3-1.7l.5-.4c.4.5.9 1 1.3 1.6zM359.8 132.9v1.4h-.6v-1.4h-3v-.6l3-4.1h.5v4.2h.8v.6h-.7zm-.6-3.7-2.3 3.1h2.3v-3.1zM362.8 134.4h-.7l-.1-.1v-.6l.1-.1h.7l.1.1v.6l-.1.1zM367.9 133.9c-.4.4-.9.6-1.4.6-1.1 0-1.8-.5-2.1-1.6h.8c.2.7.7 1.1 1.3 1.1.4 0 .7-.1.9-.5.3-.3.4-.6.4-1s-.1-.7-.4-1c-.3-.3-.6-.5-1-.5-.5 0-.9.2-1.2.6l-.7-.2.3-3.2h3.2v.6h-2.6l-.2 2.1c.4-.3.9-.4 1.4-.4s1 .2 1.3.6c.3.4.5.9.5 1.4.1.5-.1 1-.5 1.4zM371.5 128.2v-1.7h.7v1.7h1.4v4.5c0 .2 0 .3-.1.4-.1.1-.4.2-.8.2 0-.3-.1-.5-.2-.7h.3c.1 0 .2 0 .2-.1v-3.7h-.7v6.5h-.7v-6.5h-.7v4.5h-.6v-5.1h1.2zm5-1.6v1.8h2.1v.6h-2.1v2h1.7v4.2h-.6v-.5h-2.7v.6h-.6V131h1.6v-4.4h.6zm1 7.5v-2.5h-2.7v2.5h2.7zM382.1 133.8c-.3.6-.9 1.2-1.6 1.9l-.5-.4c.7-.6 1.1-1.2 1.5-1.8.4-.7.6-1.4.6-2.2 0-.8-.2-1.5-.6-2.2-.3-.5-.8-1.1-1.5-1.8l.5-.5c.7.7 1.2 1.3 1.6 1.9.4.8.6 1.6.6 2.5 0 1-.2 1.8-.6 2.6zM200.2 481l-2.1 4.3-1-.6 2.3-4.2c.3.3.6.4.8.5zm-.4-3.4-.4.8c-.6-.4-1.2-.7-2-1.1l.4-.8c.7.3 1.4.7 2 1.1zm.7-3.1-.6.8c-.6-.5-1.2-1-1.9-1.4l.6-.7c.7.3 1.4.7 1.9 1.3zm7.5-1.2-1.1 2h2.8v.9h-4v1.9h3.1v.9h-3.1v2.2h4v.9h-4v3.5h-.9v-3.5h-4.1v-.9h4.1V479h-3.3v-1h3.3v-1.9H201v-.9h4.9l1.3-2.5.8.6zm-3.9 1.3-.8.6c-.3-.6-.7-1.2-1.2-1.7l.8-.6c.6.7 1 1.2 1.2 1.7zM217.5 481.6v-1.2h1v1.2h4.4v.8h-4.4v1.5h5.7v.8h-12.5v-.7h5.8v-1.5h-4.3v-.8h4.3zm1-8.9v1.4h5.1v2.7h-1v.4h-5.3l-1.1 2.1c1.5-.1 2.9-.2 4.5-.3-.3-.3-.6-.5-1-.8l.7-.7c1.3 1 2.2 1.7 2.7 2.3l-.7.7-.8-.8c-3.3.3-6.1.5-8.5.6l-.2-.9c.7 0 1.4 0 2.2-.1l1.2-2.1h-3v-.4h-.9v-2.7h5.1v-1.4h1zm4.1 3.7V475h-9.3v1.3h9.3zM230.8 483.3c-.6.5-1.3.8-2 .8-1.6 0-2.6-.8-3-2.5h1.2c.2 1.1.8 1.7 1.8 1.7.5 0 .9-.2 1.3-.5s.6-.7.6-1.2c0-1.3-.7-2-2.2-2-.3 0-.6 0-1.1.1v-.8h.7c1.5 0 2.2-.6 2.2-1.7 0-.4-.2-.8-.5-1.1-.3-.3-.7-.5-1.1-.5-.9 0-1.4.5-1.6 1.5h-1c.2-1.5 1.1-2.3 2.6-2.3.7 0 1.3.2 1.9.7.5.4.8 1 .8 1.7 0 .9-.5 1.5-1.3 2 1.1.6 1.6 1.4 1.6 2.5 0 .5-.3 1.1-.9 1.6zM196.1 504c-.7-.7-1.2-1.3-1.6-1.9-.4-.8-.6-1.6-.6-2.5 0-.9.2-1.7.6-2.5.3-.6.9-1.2 1.6-1.9l.5.5c-.7.6-1.2 1.2-1.5 1.8-.4.7-.6 1.4-.6 2.2 0 .8.2 1.5.6 2.2.3.5.8 1.1 1.5 1.8l-.5.3zM200.2 495.3l-1 1.9c.2.2.4.3.6.5l.9-1.6.6.4-1.7 2.7c.4 0 .9 0 1.4-.1-.1-.3-.3-.5-.4-.8l.5-.3c.4.6.6 1.1.8 1.5l-.5.4c0-.1-.1-.2-.1-.3-.4 0-.8.1-1.1.1v4h-.7v-3.9c-.5 0-1 .1-1.5.1l-.2-.6h1l.6-1c-.5-.4-1-.8-1.6-1.1l.4-.5c.1.1.3.2.4.3l.9-1.9.7.2zm-1.1 5.2c-.2.9-.4 1.7-.6 2.4-.2-.1-.4-.2-.6-.2.2-.7.4-1.5.6-2.3l.6.1zm2.6 1.7-.6.2c-.1-.6-.2-1.2-.4-1.8l.6-.2c.1.6.3 1.2.4 1.8zm1.8-7.1c-.2.7-.3 1.3-.4 1.7h3.1v3.8c0 1-.1 1.7-.2 2-.1.6-.8.9-2 .9 0-.3-.1-.6-.3-.8h1.1c.3 0 .5-.2.6-.5.1-.3.1-.9.2-1.9v-3H203c-.2.6-.4 1.1-.6 1.5-.2-.2-.4-.3-.6-.4.3-.6.5-1.2.7-1.9.2-.6.3-1.2.4-1.8l.6.4zm1 5.3-.5.5c-.3-.5-.8-1.1-1.3-1.7l.5-.4c.4.6.9 1.1 1.3 1.6zM211.5 501.2v1.4h-.5v-1.4h-3v-.6l3-4.1h.5v4.2h.8v.6h-.8zm-.5-3.7-2.3 3.1h2.3v-3.1zM214.5 502.8h-.7l-.1-.1v-.7l.1-.1h.7l.1.1v.6l-.1.2zM219.6 502.2c-.4.4-.9.6-1.4.6-1.1 0-1.8-.5-2.1-1.6h.8c.2.7.7 1.1 1.3 1.1.4 0 .7-.1.9-.5.3-.3.4-.6.4-1s-.1-.7-.4-1c-.3-.3-.6-.5-1-.5-.5 0-.9.2-1.2.6l-.7-.2.3-3.2h3.2v.6h-2.6l-.2 2.1c.4-.3.9-.4 1.4-.4.5 0 1 .2 1.3.6.3.4.5.9.5 1.4.1.6-.1 1-.5 1.4zM223.3 496.6v-1.7h.7v1.7h1.4v4.5c0 .2 0 .3-.1.4-.1.1-.4.2-.8.2 0-.3-.1-.5-.2-.7h.3c.1 0 .2 0 .2-.1v-3.7h-.7v6.5h-.7v-6.5h-.7v4.5h-.6v-5.1h1.2zm4.9-1.6v1.8h2.1v.6h-2.1v2h1.7v4.2h-.6v-.5h-2.7v.6h-.6v-4.3h1.6V495h.6zm1 7.5V500h-2.7v2.5h2.7zM233.8 502.1c-.3.6-.9 1.2-1.6 1.9l-.5-.4c.7-.6 1.1-1.2 1.5-1.8.4-.7.6-1.4.6-2.2 0-.8-.2-1.5-.6-2.2-.3-.5-.8-1.1-1.5-1.8l.5-.5c.7.7 1.2 1.3 1.6 1.9.4.8.6 1.6.6 2.5 0 1-.2 1.9-.6 2.6zM220 112.7l-2.1 4.3-1-.6 2.3-4.2c.3.2.6.4.8.5zm-.4-3.4-.4.8c-.6-.4-1.2-.7-2-1.1l.4-.8c.8.3 1.4.7 2 1.1zm.8-3.2-.6.8c-.6-.5-1.2-1-1.9-1.4l.6-.7c.7.3 1.3.8 1.9 1.3zm7.5-1.2-1.1 2h2.8v.9h-4v1.9h3.1v.9h-3.1v2.2h4v.9h-4v3.5h-.9v-3.5h-4.1v-.9h4.1v-2.2h-3.3v-.9h3.3v-1.9h-3.8v-.9h4.9l1.3-2.5.8.5zm-3.9 1.3-.8.6c-.3-.6-.7-1.2-1.2-1.7l.8-.6c.5.7.9 1.3 1.2 1.7zM237.3 113.3v-1.2h1v1.2h4.4v.8h-4.4v1.5h5.7v.8h-12.5v-.8h5.8v-1.5H233v-.8h4.3zm1-9v1.4h5.1v2.7h-1v.4h-5.3L236 111c1.5-.1 2.9-.2 4.5-.3-.3-.3-.6-.5-1-.8l.7-.7c1.3 1 2.2 1.7 2.7 2.3l-.7.7-.8-.8c-3.3.3-6.1.5-8.5.6l-.2-.9c.7 0 1.4 0 2.2-.1l1.2-2.1h-3v-.4h-.9v-2.7h5.1v-1.4h1zm4.1 3.7v-1.3h-9.3v1.3h9.3zM249.1 115.6v-7.9c-.7.4-1.3.6-1.9.8v-1c.7-.1 1.4-.4 1.9-.8h1v9h-1zM215.9 135.7c-.7-.7-1.2-1.3-1.6-1.9-.4-.8-.6-1.6-.6-2.5 0-.9.2-1.7.6-2.5.3-.6.9-1.2 1.6-1.9l.5.5c-.7.6-1.2 1.2-1.5 1.8-.4.7-.6 1.4-.6 2.2 0 .8.2 1.5.6 2.2.3.5.8 1.1 1.5 1.8l-.5.3zM220.1 126.9l-1 1.9c.2.2.4.3.6.5l.9-1.6.6.4-1.7 2.7c.4 0 .9 0 1.4-.1-.1-.3-.3-.5-.4-.8l.5-.3c.4.6.6 1.1.8 1.5l-.5.4c0-.1-.1-.2-.1-.3-.4 0-.8.1-1.1.1v4h-.7v-3.9c-.5 0-1 .1-1.5.1l-.2-.6h1l.6-1c-.5-.4-1-.8-1.6-1.1l.4-.5c.1.1.3.2.4.3l.9-1.9.7.2zm-1.2 5.3c-.2.9-.4 1.7-.6 2.4-.2-.1-.4-.2-.6-.2.2-.7.4-1.5.6-2.3l.6.1zm2.6 1.7-.6.2c-.1-.6-.2-1.2-.4-1.8l.6-.2c.2.5.3 1.1.4 1.8zm1.9-7.1c-.2.7-.3 1.3-.4 1.7h3.1v3.8c0 1-.1 1.7-.2 2-.1.6-.8.9-2 .9 0-.3-.1-.6-.3-.8h1.1c.3 0 .5-.2.6-.5.1-.3.1-.9.2-1.9v-3h-2.6c-.2.6-.4 1.1-.6 1.5-.2-.2-.4-.3-.6-.4.3-.6.5-1.2.7-1.9.2-.6.3-1.2.4-1.8l.6.4zm.9 5.3-.5.5c-.3-.5-.8-1.1-1.3-1.7l.5-.4c.5.5 1 1 1.3 1.6zM231.5 133.9c-.4.4-.9.6-1.4.6-1.1 0-1.8-.5-2.1-1.6h.8c.2.7.7 1.1 1.3 1.1.4 0 .7-.1.9-.5.3-.3.4-.6.4-1s-.1-.7-.4-1c-.3-.3-.6-.5-1-.5-.5 0-.9.2-1.2.6l-.7-.2.3-3.2h3.2v.6H229l-.2 2.1c.4-.3.9-.4 1.4-.4.5 0 1 .2 1.3.6.3.4.5.9.5 1.4.1.5-.1 1-.5 1.4zM234.4 134.4h-.7l-.1-.1v-.6l.1-.1h.7l.1.1v.6l-.1.1zM239.5 133.9c-.4.4-.9.6-1.4.6-1.1 0-1.8-.5-2.1-1.6h.8c.2.7.7 1.1 1.3 1.1.4 0 .7-.1.9-.5.3-.3.4-.6.4-1s-.1-.7-.4-1c-.3-.3-.6-.5-1-.5-.5 0-.9.2-1.2.6l-.7-.2.3-3.2h3.2v.6H237l-.2 2.1c.4-.3.9-.4 1.4-.4.5 0 1 .2 1.3.6.3.4.5.9.5 1.4.1.5-.1 1-.5 1.4zM243.1 128.2v-1.7h.7v1.7h1.4v4.5c0 .2 0 .3-.1.4-.1.1-.4.2-.8.2 0-.3-.1-.5-.2-.7h.3c.1 0 .2 0 .2-.1v-3.7h-.7v6.5h-.7v-6.5h-.7v4.5h-.6v-5.1h1.2zm4.9-1.6v1.8h2.1v.6H248v2h1.7v4.2h-.6v-.5h-2.7v.6h-.6V131h1.6v-4.4h.6zm1.1 7.5v-2.5h-2.7v2.5h2.7zM253.6 133.8c-.3.6-.9 1.2-1.6 1.9l-.5-.4c.7-.6 1.1-1.2 1.5-1.8.4-.7.6-1.4.6-2.2 0-.8-.2-1.5-.6-2.2-.3-.5-.8-1.1-1.5-1.8l.5-.5c.7.7 1.2 1.3 1.6 1.9.4.8.6 1.6.6 2.5.1 1-.1 1.8-.6 2.6zM329.8 465.8v-10.5h1.2v9.5h6.5v1h-7.7zM346.5 464.5c-1.1.9-2.5 1.3-4.3 1.3h-3v-10.5h3.5c1.6 0 2.9.5 4 1.4 1 1 1.6 2.2 1.6 3.8-.1 1.7-.7 3.1-1.8 4zm-.8-7.1c-.8-.7-1.9-1-3.3-1h-2.1v8.5h2.3c1.3 0 2.3-.4 3.1-1.2.8-.8 1.2-1.8 1.2-3.1 0-1.4-.4-2.5-1.2-3.2zM357.2 465.8l-4-5.9-2.3 1.9v4h-1.1v-10.5h1.1v5.2l6-5.2h1.6l-4.5 3.9 4.8 6.6h-1.6zM322.9 487.8c-.7-.7-1.2-1.3-1.6-1.9-.4-.8-.6-1.6-.6-2.5s.2-1.7.6-2.5c.3-.6.9-1.2 1.6-1.9l.5.5c-.7.6-1.1 1.2-1.5 1.8-.4.7-.6 1.4-.6 2.2 0 .8.2 1.5.6 2.2.3.5.8 1.1 1.5 1.8l-.5.3zM327 479.1l-1 1.9c.2.2.4.3.6.5l.9-1.6.6.4-1.7 2.7c.4 0 .9 0 1.4-.1-.1-.3-.3-.5-.4-.8l.5-.3c.4.6.6 1.1.8 1.5l-.5.4c0-.1-.1-.2-.1-.3-.4 0-.8.1-1.1.1v4h-.7v-3.9c-.5 0-1 .1-1.5.1l-.2-.6h1l.6-1c-.5-.4-1-.8-1.6-1.1l.4-.5c.1.1.3.2.4.3l.9-1.9.7.2zm-1.1 5.2c-.2.9-.4 1.7-.6 2.4-.2-.1-.4-.2-.6-.2.2-.7.4-1.5.6-2.3l.6.1zm2.6 1.7-.6.2c-.1-.6-.2-1.2-.4-1.8l.6-.2c.1.6.3 1.2.4 1.8zm1.8-7.1c-.2.7-.3 1.3-.4 1.7h3.1v3.8c0 1-.1 1.7-.2 2-.1.6-.8.9-2 .9 0-.3-.1-.6-.3-.8h1.1c.3 0 .5-.2.6-.5.1-.3.1-.9.2-1.9v-3h-2.6c-.2.6-.4 1.1-.6 1.5-.2-.2-.4-.3-.6-.4.3-.6.5-1.2.7-1.9.2-.6.3-1.2.4-1.8l.6.4zm1 5.3-.5.5c-.3-.5-.8-1.1-1.3-1.7l.5-.4c.4.6.9 1.1 1.3 1.6zM337.3 486.4V481c-.5.3-.9.4-1.3.5v-.7c.5-.1.9-.2 1.3-.5h.7v6.1h-.7zM343.8 486.1c-.4.4-.9.5-1.4.5-1.1 0-1.8-.6-2.1-1.7h.8c.2.8.6 1.2 1.2 1.2.3 0 .6-.1.9-.3.3-.2.4-.5.4-.8 0-.9-.5-1.4-1.5-1.4h-.7v-.6h.5c1 0 1.5-.4 1.5-1.2 0-.3-.1-.6-.3-.8-.2-.2-.5-.3-.8-.3-.6 0-1 .4-1.1 1.1h-.7c.2-1 .8-1.6 1.8-1.6.5 0 .9.2 1.3.5s.5.7.5 1.2c0 .6-.3 1.1-.9 1.4.7.4 1.1 1 1.1 1.7.1.3-.1.7-.5 1.1zM346.8 486.6h-.8l-.1-.1v-.6l.1-.1h.7l.1.1v.7zM351.9 486.2c-.4.3-.9.4-1.5.4s-1.1-.1-1.5-.4c-.5-.3-.7-.7-.7-1.2 0-.4.1-.8.3-1.1.2-.2.5-.5 1-.8-.4-.2-.7-.4-.9-.6-.2-.2-.3-.5-.3-.8 0-.5.2-.9.6-1.2.4-.2.8-.4 1.4-.4.5 0 .9.1 1.3.4.3.3.5.7.5 1.2 0 .4-.1.6-.2.8-.2.2-.4.4-.8.6.5.2.9.5 1.1.7.2.3.4.6.4 1.1 0 .6-.2 1-.7 1.3zm-.6-2.2c-.2-.1-.5-.3-1-.6-.5.2-.8.4-.9.6-.3.3-.4.6-.4 1s.2.7.5.9c.3.1.6.2 1 .2s.7-.1 1-.3c.3-.2.5-.5.5-.8-.1-.4-.3-.7-.7-1zm-.1-3c-.2-.2-.5-.3-.8-.3-.3 0-.6.1-.9.3-.3.2-.4.5-.4.8 0 .3.1.5.4.7.2.1.4.3.8.4l.8-.4c.3-.2.4-.5.4-.7 0-.4-.1-.6-.3-.8zM355.5 480.4v-1.7h.7v1.7h1.4v4.5c0 .2 0 .3-.1.4-.1.1-.4.2-.8.2 0-.3-.1-.5-.2-.7h.3c.1 0 .2 0 .2-.1V481h-.7v6.5h-.7V481h-.7v4.5h-.6v-5.1h1.2zm4.9-1.6v1.8h2.1v.6h-2.1v2h1.7v4.2h-.6v-.5h-2.7v.6h-.6v-4.3h1.6v-4.4h.6zm1.1 7.5v-2.5h-2.7v2.5h2.7zM366 485.9c-.3.6-.9 1.2-1.6 1.9l-.5-.4c.7-.6 1.1-1.2 1.5-1.8.4-.7.6-1.4.6-2.2 0-.8-.2-1.5-.6-2.2-.3-.5-.8-1.1-1.5-1.8l.5-.5c.7.7 1.2 1.3 1.6 1.9.4.8.6 1.6.6 2.5s-.1 1.8-.6 2.6zM340.6 289l-.1.1c.5.5 1 .8 1.6 1.1.6.3 1.2.6 1.9.8-.1.1-.2.2-.4.5-.6-.2-1.3-.5-1.8-.9-.5-.3-1.1-.7-1.6-1.2-.4.4-.9.8-1.4 1.1-.7.5-1.3.8-1.7 1-.1-.2-.3-.3-.4-.4.7-.3 1.3-.6 1.8-1 .6-.4 1.1-.9 1.6-1.4l.5.3zm-.1 1.3v.8h1.9v2.8h-2.1c.2.3.5.6.9.9.7-.3 1.3-.7 1.7-1l.4.5c-.5.3-1.1.6-1.6.8.6.3 1.3.5 2.1.6-.1.2-.2.4-.3.5-1-.2-1.9-.5-2.5-1-.6-.4-1-.8-1.3-1.4h-1.1v1.4c.5-.1 1.1-.1 1.7-.2v.5c-1.2.2-2.3.3-3.4.5l-.1-.6c.4 0 .9-.1 1.3-.2v-4.3h1.9v-.8h.5zm1.3 2v-.6h-3.3v.6h3.3zm0 1.1v-.7h-3.3v.7h3.3zM347.7 291.7c.2-.2.4-.5.6-.7l.6.2c-.1.2-.3.4-.4.5h3.6v.5h-2.3c.3.2.5.5.8.7.4.3 1 .5 1.7.7-.2.2-.4.4-.4.5-.2-.1-.3-.1-.5-.2v2.2h-.5v-.4h-1.3v.4h-.6v-2.4h1.8c-.3-.1-.5-.3-.7-.4-.4-.3-.8-.6-1-1H348c-.3.3-.5.5-.8.7-.3.3-.7.5-1.1.7h1.8v2.5h-.5v-.4h-1.3v.4h-.5V294c-.2.1-.4.2-.5.3-.1-.2-.2-.3-.4-.5.8-.3 1.5-.7 2.1-1.1.2-.1.3-.3.5-.4H345v-.5h2.7zm-2.2-.6v-2h2.3v2h-2.3zm.6-.5h1.2v-1h-1.2v1zm1.3 4.7v-1.1h-1.3v1.1h1.3zm1.6-4.2v-2h2.4v2H349zm.6-.5h1.3v-1h-1.3v1zm1.2 4.7v-1.1h-1.3v1.1h1.3zM354 290.7v-1.8h.5v1.8h.9v.5h-.9v.7l.4.4c.1.1.3.2.5.4-.1.2-.2.3-.3.5-.2-.2-.4-.3-.5-.4 0 0-.1 0-.1-.1v3.7h-.5v-3.7c-.1.3-.2.5-.3.8-.2.4-.4.7-.5.8-.1-.2-.2-.4-.3-.5.3-.4.5-.7.7-1.1.2-.3.3-.7.5-1.3h-.9v-.5h.8zm3.4-1.5v6.1c0 .2 0 .3-.1.4-.1.1-.4.2-.8.2 0-.2-.1-.4-.2-.5h.4c.1 0 .2 0 .2-.1v-1.8h-.8c0 .3-.1.5-.1.8-.1.7-.3 1.3-.6 1.8-.1-.2-.2-.4-.4-.5.3-.5.5-1 .6-1.6.1-.5.1-1.2.1-1.9v-2.8h1.7zm-.5 3.8v-1.3h-.8v1.4h.8zm0-1.9v-1.4h-.8v1.4h.8zm3.1-1.9v6.3c0 .2 0 .3-.1.4-.1.1-.4.1-.9.2 0-.2-.1-.4-.2-.5h.4c.2 0 .2 0 .2-.1v-2h-.9c0 .4-.1.7-.1 1-.1.7-.3 1.2-.5 1.7-.1-.2-.2-.4-.4-.5.2-.4.3-1 .4-1.5 0-.5.1-1.1.1-1.8v-3.1h2zm-.5 3.8v-1.3h-.9v1.4h.9zm0-1.9v-1.4h-.9v1.4h.9zM393.9 283.8l-1.1 2.6-.5-.3 1.2-2.6c.1.1.3.2.4.3zm0-2.9-.4.5c-.3-.3-.6-.5-1.1-.7l.3-.5c.5.2.9.4 1.2.7zm3-1.1c0 .1-.1.1-.1.1.4.6.8 1 1.2 1.4.4.4.9.8 1.5 1.1-.2.2-.3.3-.4.5-.4-.2-.8-.5-1.2-.9-.5-.4-.9-.9-1.4-1.6-.3.5-.6.9-1 1.3-.5.5-1 1-1.5 1.3-.1-.2-.2-.3-.3-.5.5-.3.9-.6 1.4-1.1.5-.5.9-1.1 1.3-1.8l.5.2zm1.8 3.9v2c0 .3-.1.4-.2.5-.1.1-.4.1-.9.2 0-.2-.1-.4-.2-.6h.7c.1 0 .1 0 .1-.2v-1.5h-1.8v2.9h-.6v-2.9h-1.5v-.5h4.4zm-.9-1.4v.5h-2.5v-.5h2.5zM402.5 280.1v-.5h.5v.5h1.9v-.5h.5v.5h2v.4h-2v.6h.3v.6h1.8v.5h-1.8c0 .8 0 1.4.1 1.7 0 .3.1.6.1.8.3-.4.6-1 .9-1.7l.5.2c-.4.8-.8 1.5-1.2 2.1.1.2.1.3.2.4.2.3.3.4.4.4.1 0 .3-.2.5-.7.1.1.3.2.4.2-.2.5-.3.9-.5 1-.1.1-.2.2-.3.2-.3 0-.5-.1-.7-.4-.2-.2-.4-.4-.5-.7-.5.5-1.1.9-1.6 1.1-.1-.2-.2-.3-.4-.4.3-.1.6-.3.8-.5.3-.2.6-.5.9-.7l-.3-1.2c-.1-.4-.1-1-.1-1.8h-3.6v1c0 .8-.1 1.5-.2 1.9-.1.5-.4 1.1-.7 1.6-.1-.1-.3-.3-.5-.3.3-.4.5-.9.7-1.4.1-.4.2-.9.2-1.7v-1.4h4.1v-.6h.1v-.6h-1.9v.6h-.5v-.6h-2v-.4h1.9zm2.3 3.1h-1v.5h1v1.3h-1v.6h1v.4h-2.1v.4h-.5v-3.6h2.6v.4zm-1.4.6v-.5h-.7v.5h.7zm.9.9v-.6h-1.7v.6h1.7zm-.9.9v-.6h-.7v.6h.7zm3.8-4.1-.3.3c-.2-.2-.5-.5-.8-.7l.3-.3c.4.3.7.6.8.7zM412.7 279.6v.7h3v.5h-5.9v2.7c0 .8 0 1.5-.1 1.9-.1.5-.3 1-.6 1.6-.1-.2-.3-.3-.5-.4.3-.4.5-.9.6-1.4.1-.3.1-.9.1-1.7v-3.2h2.9v-.7h.5zm-.1 2v-.6h.5v.6h2.3v.5h-2.3v.5h1.9v2.4h-1.9v.6h2.8v.5h-2.8v1h-.5v-1h-2.7v-.5h2.7v-.6h-1.9v-2.4h1.9v-.5h-2.2v-.5h2.2zm-1.3 2h1.3v-.6h-1.3v.6zm1.3.4h-1.3v.5h1.3v-.5zm.6-.4h1.4v-.6h-1.4v.6zm0 .4v.5h1.4v-.5h-1.4zM400.3 291.4v.6h3.3v.4h-3.3v.5h2.1v2.7h-4.2v-2.7h1.5v-.5h-3.5v-.4h3.5v-.6h-2.8v-1.7h6v1.7h-2.6zm-3 1.7v3h6.2v.5h-6.2v.4h-.5v-3.8h.5zm.1-2.1h1.3v-.8h-1.3v.8zm1.3 2.7h3.1v-.4h-3.1v.4zm0 .3v.4h3.1v-.4h-3.1zm0 .8v.4h3.1v-.4h-3.1zm.5-3.8h1.4v-.8h-1.4v.8zm1.9 0h1.3v-.8h-1.3v.8zM405.3 291.6v-2h.5v2h.8v.5h-.8v2.4l.9-.3v.4c.3-.2.5-.4.7-.6.2-.2.4-.5.5-.8h-1.2v-.5h5.2v.5h-3.3c-.1.2-.2.4-.4.6h3.3c0 1 0 1.7-.1 2.1-.1.4-.2.6-.3.7-.1.1-.5.2-1 .2 0-.2-.1-.4-.2-.5h.7c.1 0 .2-.1.3-.4.1-.3.1-.8.1-1.5h-.5c-.3.7-.6 1.2-1 1.6-.4.4-.8.7-1.2.9-.1-.1-.2-.3-.4-.4.5-.2.9-.5 1.2-.9.3-.3.5-.7.8-1.2h-.7c-.2.5-.5.8-.8 1.1-.4.3-.7.5-1.1.7-.1-.1-.2-.3-.4-.4.4-.2.7-.4 1-.7.2-.2.4-.4.6-.8h-.7c-.3.3-.6.6-1.1.9-.1-.1-.2-.3-.3-.4-.7.2-1.3.4-1.9.6l-.1-.6c.3-.1.6-.2 1-.3v-2.6h-.8v-.5h.7zm2.3.6v-2.6h3.5v2.6h-3.5zm.6-1.5h2.4v-.5h-2.4v.5zm0 .5v.5h2.4v-.5h-2.4zM175.3 286.3l-.9 1.8-.4-.1 1-1.8c.1 0 .2.1.3.1zm-.2-1.2-.2.3c-.2-.2-.5-.4-.8-.5l.2-.3c.3.1.5.3.8.5zm.2-1.3-.2.3c-.2-.3-.5-.5-.7-.6l.2-.3c.3.1.5.3.7.6zm1.1-.4c-.1.3-.2.5-.3.7h.8v-1h.4v1h1.4v.3h-1.4v1h1.7v.3h-1.2v1.8c0 .1 0 .1.1.1h.6c.1 0 .2-.1.2-.1.1-.1.1-.2.1-.4.1.1.2.1.4.1 0 .2-.1.4-.2.6-.1.2-.2.2-.4.2h-.7c-.3 0-.4-.2-.4-.5v-1.8h-.8c0 .7-.1 1.2-.3 1.5-.2.3-.6.6-1.1.8-.1-.1-.1-.3-.2-.4.5-.2.9-.5 1-.8.1-.3.2-.6.2-1.1h-1.1v-.3h1.7v-1h-1c-.1.3-.3.5-.4.7-.1-.1-.2-.2-.3-.2.2-.3.4-.5.5-.8.1-.3.2-.5.3-.8l.4.1zM180.7 284.9l-.2.3c-.2-.1-.5-.2-.7-.3l.1-.3c.3.1.6.2.8.3zm.2 1.5-.8 1.8-.3-.2.8-1.8c.2.1.3.1.3.2zm.1-2.7-.2.3c-.2-.2-.4-.4-.6-.5l.2-.3c.2.2.4.3.6.5zm1.3 1.5c-.1.1-.1.2-.2.3h1c.1-.1.2-.3.3-.5l.3.1c-.1.1-.1.3-.2.4h1.3v.3h-1.4v.4h1.3v.3h-1.3v.4h1.3v.3h-1.3v.5h1.5v.3H182v.2h-.4v-2.1l-.4.4c-.1-.1-.1-.2-.2-.3.2-.1.4-.3.6-.5.2-.2.3-.4.5-.7l.2.2zm.5-1.9v1.8h-.4v-.1h-1.1v-.3h1.1v-.4h-1.1v-.3h1.1v-.4h-1.1v-.3h1.5zm.2 2.5h-1v.4h1.1v-.4zm0 .7h-1v.4h1.1v-.4zm0 1.2v-.5h-1v.5h1zm1.6-4.4v1.8h-.4v-.1H183v-.3h1.2v-.4H183v-.3h1.2v-.4H183v-.3h1.6zM186.2 284.2V283h.4v1.2h.5v.4h-.5v.6c.1.1.1.2.2.2l.3.3c-.1.1-.2.2-.2.3l-.3-.3v2.5h-.4v-2.4c-.1.4-.3.7-.5 1-.1-.1-.1-.2-.2-.3.2-.3.3-.6.4-.9.1-.2.2-.5.2-.9h-.6v-.4h.7zm2-.9-.5.9.2.2.3-.5.3.2-.7 1.1h.4c0-.1-.1-.2-.1-.3l.3-.1c.1.2.3.5.4.7-.1-.5-.1-1.3-.1-2.4h.4v1l.2-.2c.1 0 .1.1.2.1l.3-.8.3.2-.4.8.2.2.3-.5.3.2-.7 1.1h.4c0-.1-.1-.2-.1-.2l.3-.1c.1.2.2.5.3.8l-.4.1c0-.1 0-.1-.1-.2-.4.1-.8.1-1.1.1l-.1-.4h.2l.3-.5c-.2-.2-.4-.4-.7-.5 0 .7.1 1.2.1 1.6v.2h.6c0-.1-.1-.2-.1-.3l.3-.1c.1.1.2.3.2.4h.5v.4H189c0 .2.1.4.2.5 0 .1.1.2.2.3.2-.2.4-.4.5-.6l.3.2c-.1.2-.3.4-.6.6.2.2.3.3.4.3 0 0 .1-.1.2-.5.1.1.2.1.4.2-.1.4-.2.6-.3.6 0 .1-.1.1-.2.1-.2 0-.5-.1-.7-.3l-.2-.2c-.4.3-.8.4-1.2.6 0-.1-.1-.2-.2-.4.4-.1.7-.3 1.1-.5h.1c-.1-.1-.1-.2-.2-.4s-.2-.5-.2-.7h-.7c0 .2-.1.3-.1.4.3.1.5.3.7.5l-.2.3c-.2-.2-.4-.3-.6-.4 0 .1-.1.2-.1.3-.1.3-.3.6-.6.9l-.3-.3c.2-.2.4-.5.5-.8.1-.2.2-.5.3-.8h-.6v-.4h1.7V285.7l-.4.1c0-.1 0-.1-.1-.2-.4.1-.8.1-1.1.1l-.1-.4h.2l.3-.5c-.2-.2-.5-.4-.7-.6l.2-.3c.1.1.2.1.2.2l.4-.9.7.1zM179.8 291.3v.4h2.3v.3h-2.3v.4h1.5v1.9h-2.9v-1.9h1.1v-.4h-2.4v-.3h2.4v-.4h-2v-1.2h4.2v1.2h-1.9zm-2.1 1.1v2.1h4.4v.3h-4.4v.3h-.4v-2.7h.4zm.1-1.4h.9v-.6h-.9v.6zm.9 1.9h2.2v-.3h-2.2v.3zm0 .2v.3h2.2v-.3h-2.2zm0 .5v.3h2.2v-.3h-2.2zm.3-2.6h1v-.6h-1v.6zm1.4 0h.9v-.6h-.9v.6zM183.3 291.4V290h.4v1.4h.6v.4h-.6v1.7c.2-.1.4-.1.6-.2v.3c.2-.1.4-.3.5-.4.1-.2.3-.3.4-.6h-.9v-.4h3.6v.4h-2.3c-.1.2-.2.3-.2.4h2.3c0 .7 0 1.2-.1 1.5-.1.2-.1.4-.2.5-.1.1-.3.1-.7.1 0-.1 0-.3-.1-.4h.5c.1 0 .1-.1.2-.3 0-.2.1-.6.1-1.1h-.4c-.2.5-.4.8-.7 1.1-.3.3-.6.5-.9.6 0-.1-.1-.2-.2-.3l.9-.6c.2-.2.4-.5.5-.9h-.6c-.2.3-.4.6-.6.8-.3.2-.5.4-.7.5 0-.1-.1-.2-.2-.3.3-.1.5-.3.7-.5.1-.1.3-.3.4-.5h-.6c-.2.2-.4.4-.8.6-.1-.1-.1-.2-.2-.3-.5.2-.9.3-1.4.4l-.1-.4c.2 0 .4-.1.7-.2v-1.8h-.6v-.4h.7zm1.6.5v-1.8h2.4v1.8h-2.4zm.4-1.1h1.7v-.4h-1.7v.4zm0 .3v.4h1.7v-.4h-1.7zM225.5 316.7l-2.1 4.4-.9-.5 2.2-4.4c.3.3.5.4.8.5zm-.6-3-.5.8c-.5-.5-1.1-.9-1.8-1.3l.4-.8c.7.4 1.4.8 1.9 1.3zm.7-3.3-.5.8c-.6-.6-1.2-1-1.8-1.4l.5-.7c.6.4 1.2.8 1.8 1.3zm5 1.2c-.1.1-.1.2-.2.3.7.8 1.4 1.5 2.1 2 .8.6 1.7 1.1 2.7 1.6-.3.3-.5.6-.7.9-.7-.3-1.4-.8-2.2-1.4-.8-.6-1.6-1.4-2.5-2.3-.5.7-1.1 1.3-1.6 1.9-.9.8-1.6 1.4-2.2 1.8-.2-.3-.4-.6-.6-.8.8-.5 1.6-1.1 2.3-1.9.7-.7 1.4-1.5 2-2.6l.9.5zm-1.4-2.2c-.8 1.1-1.7 1.9-2.8 2.6-.1-.3-.4-.6-.7-.8 1.1-.6 2-1.4 2.7-2.5l.8.7zm3.9 11.5h-.9v-.7h-3.8v.9h-.9v-5.4h5.7v5.2zm-.9-1.6v-2.8h-3.8v2.8h3.8zm.8-9.3c.4.3.9.6 1.4.7-.2.2-.4.5-.6.8-.6-.3-1.1-.6-1.6-1s-.9-.7-1.2-1l.5-.7c.5.5 1 .9 1.5 1.2zM242.4 317.4v-1.2h1v1.2h4.3v.8h-4.3v1.5h5.5v.8h-12.1v-.8h5.7v-1.5h-4.1v-.8h4zm1-8.7v1.4h4.9v2.7h-1v.4h-5.1l-1.1 2c1.4-.1 2.9-.2 4.3-.3-.3-.3-.6-.5-.9-.7l.7-.7c1.2.9 2.1 1.7 2.7 2.2l-.7.7-.8-.8c-3.2.3-6 .5-8.3.6l-.2-.9c.7 0 1.4 0 2.1-.1l1.2-2h-2.9v-.4h-.9v-2.7h4.9v-1.4h1.1zm4 3.6V311h-9v1.3h9zM225.2 330.6c-.8-.7-1.3-1.4-1.7-2.1-.5-.8-.7-1.7-.7-2.7 0-1 .2-1.9.7-2.7.4-.6.9-1.3 1.7-2.1l.5.5c-.7.7-1.2 1.3-1.6 1.9-.4.7-.6 1.6-.6 2.4 0 .9.2 1.7.6 2.4.3.6.9 1.2 1.6 1.9l-.5.5zM228.7 329.1v-5.9c-.5.3-1 .5-1.4.6v-.8c.5-.1 1-.3 1.4-.6h.8v6.7h-.8zM235 327.6v1.5h-.6v-1.5h-3.2v-.6l3.3-4.5h.5v4.5h.9v.6h-.9zm-.6-4-2.5 3.4h2.5v-3.4zM238.9 329.1v-5.9c-.5.3-1 .5-1.4.6v-.8c.5-.1 1-.3 1.4-.6h.8v6.7h-.8zM245.3 328.8c-.4.3-1 .4-1.6.4-.6 0-1.2-.1-1.6-.4-.5-.3-.8-.8-.8-1.3s.1-.9.3-1.2c.2-.3.6-.5 1.1-.8-.5-.2-.8-.4-.9-.7-.2-.2-.3-.5-.3-.9 0-.6.2-1 .7-1.3.4-.3.9-.4 1.5-.4s1 .2 1.4.5c.4.3.6.7.6 1.2 0 .4-.1.7-.2.9-.2.2-.5.4-.9.7.6.3 1 .5 1.2.8.3.3.4.7.4 1.2-.1.6-.3 1-.9 1.3zm-.6-2.3c-.2-.1-.6-.4-1.1-.6-.5.2-.8.4-1 .6-.3.3-.5.6-.5 1s.2.7.5.9c.3.2.6.2 1.1.2.4 0 .7-.1 1.1-.3.4-.2.5-.5.5-.9s-.2-.6-.6-.9zm-.1-3.3c-.2-.2-.5-.3-.8-.3-.4 0-.7.1-.9.3-.3.2-.4.5-.4.9 0 .3.1.6.4.8.2.1.5.3.9.4.2-.1.5-.2.8-.4.3-.2.4-.5.4-.8-.1-.4-.2-.7-.4-.9zM248.7 328.5c-.4.7-.9 1.3-1.7 2.1l-.5-.5c.7-.7 1.2-1.3 1.6-1.9.4-.7.6-1.5.6-2.4 0-.9-.2-1.7-.6-2.4-.3-.6-.9-1.2-1.6-1.9l.5-.5c.8.7 1.3 1.4 1.7 2.1.5.8.7 1.7.7 2.7 0 1-.3 1.9-.7 2.7zM183 197c-.2.5-.5 1-.9 1.4l-.3-.3c.6-.7 1-1.6 1.3-2.8l.4.2c-.1.6-.3 1.1-.5 1.5zm2.7 1.2c-.3-1-.8-1.9-1.3-2.8l.3-.2c.6.9 1.1 1.9 1.5 2.8l-.5.2zM188.8 197.6c-.5.4-1.1.8-1.9 1.1l-.2-.4c1.3-.4 2.5-1.3 3.4-2.5l.3.3c-.6.6-1.1 1.1-1.6 1.5zm-1-1.5c-.4-.3-.7-.6-1.1-.8l.2-.3c.4.2.8.5 1.1.8l-.2.3zM194.5 197c0 .5-.1.9-.1 1.2 0 .1-.1.2-.2.3-.1.1-.4.1-.8.2 0-.1-.1-.2-.1-.4h.4c.1 0 .3-.1.3-.2.1-.1.1-.4.1-.8v-1.1h-1.2c-.1.6-.3 1.2-.5 1.6-.3.4-.7.8-1.2 1.1l-.3-.3c.5-.3.9-.6 1.1-.9.3-.4.4-.8.5-1.4h-1.2v-.4h1.3v-1h.4v1h1.6l-.1 1.1zm0-1.5-.5-.5.2-.2c.2.2.4.3.6.5l-.3.2zm.3-.3-.5-.5.2-.2c.2.2.4.3.6.5l-.3.2zM195.2 196.9v-.3h3.8v.3h-3.8zM200.6 197c-.2.5-.5 1-.9 1.4l-.3-.3c.6-.7 1-1.6 1.3-2.8l.4.2c-.2.6-.3 1.1-.5 1.5zm2.7 1.2c-.3-1-.8-1.9-1.3-2.8l.3-.2c.6.9 1.1 1.9 1.5 2.8l-.5.2zm.3-2.7c-.1.1-.2.2-.3.2-.1 0-.3 0-.3-.1-.1-.1-.1-.2-.1-.3 0-.1 0-.3.1-.3.1-.1.2-.1.3-.1.1 0 .2 0 .3.1.1.1.1.2.1.3s0 .1-.1.2zm-.2-.5s-.1-.1-.2-.1c-.2 0-.3.1-.3.3 0 .1 0 .1.1.2 0 .1.1.1.2.1s.1 0 .2-.1c0 0 .1-.1.1-.2s0-.1-.1-.2zM206.5 196.1v2.7h-.4v-2.4c-.6.5-1.2.9-1.8 1.1-.1-.1-.1-.3-.2-.4.6-.2 1.2-.6 1.8-1.1.5-.4 1-.9 1.5-1.4l.4.3c-.5.5-.9.9-1.3 1.2zM210.8 197.5c-.4.5-1 .9-1.9 1.2 0-.1-.1-.2-.2-.4.7-.2 1.3-.6 1.7-1 .4-.4.7-1 1-1.8h-3v-.4h3.2l.3.3c-.4 1-.8 1.7-1.1 2.1zm1.6-2.4c-.1.1-.2.2-.3.2-.1 0-.3 0-.3-.1-.1-.1-.1-.2-.1-.3 0-.1 0-.3.1-.3.1-.1.2-.1.3-.1.1 0 .2 0 .3.1.1.1.1.2.1.3 0 0 0 .1-.1.2zm-.2-.5s-.1-.1-.2-.1c-.2 0-.3.1-.3.3 0 .1 0 .1.1.2 0 .1.1.1.2.1s.1 0 .2-.1c0 0 .1-.1.1-.2s0-.1-.1-.2zM396.5 229.8c-.1.5-.3 1-.5 1.4-.1-.1-.1-.2-.2-.3.3-.7.6-1.6.8-2.8l.2.2c-.1.6-.2 1.1-.3 1.5zm1.6 1.2c-.2-1-.5-1.9-.8-2.8l.2-.2c.4.9.7 1.9.9 2.8l-.3.2zM399.9 230.4c-.3.4-.7.8-1.1 1.1l-.1-.4c.8-.4 1.5-1.3 2.1-2.5 0 .1.1.2.2.3-.4.6-.8 1.2-1.1 1.5zm-.6-1.5c-.2-.3-.4-.6-.6-.8l.1-.3c.2.2.5.5.7.8l-.2.3zM403.3 229.8c0 .5 0 .9-.1 1.2 0 .1-.1.2-.1.3-.1.1-.2.1-.5.2 0-.1 0-.2-.1-.4h.2c.1 0 .2-.1.2-.2s.1-.4.1-.8V229h-.7c-.1.6-.2 1.2-.3 1.6-.2.4-.4.8-.7 1.1 0-.1-.1-.2-.2-.3.3-.3.5-.6.7-.9.2-.4.2-.8.3-1.4h-.7v-.4h.8v-1h.2v1h.9v1.1zm0-1.4c-.1-.1-.2-.3-.3-.5l.1-.2c.1.2.3.3.3.5l-.1.2zm.2-.4c-.1-.1-.2-.3-.3-.5l.1-.2c.1.2.3.3.3.5l-.1.2zM403.8 229.7v-.3h2.3v.3h-2.3zM407 229.8c-.1.5-.3 1-.5 1.4-.1-.1-.1-.2-.2-.3.3-.7.6-1.6.8-2.8l.2.2c-.1.6-.2 1.1-.3 1.5zm1.6 1.2c-.2-1-.5-1.9-.8-2.8l.2-.2c.4.9.7 1.9.9 2.8l-.3.2zm.2-2.6c-.1.1-.1.2-.2.2s-.2 0-.2-.1c-.1-.1-.1-.2-.1-.3 0-.1 0-.3.1-.3.1-.1.1-.1.2-.1s.1 0 .2.1.1.2.1.3 0 .1-.1.2zm-.1-.5-.1-.1c-.1 0-.2.1-.2.3 0 .1 0 .1.1.2 0 .1.1.1.1.1s.1 0 .1-.1v-.2c.1-.1.1-.2 0-.2zM410.6 228.9v2.7h-.2v-2.4c-.4.5-.7.9-1.1 1.1 0-.1-.1-.3-.1-.4.3-.2.7-.6 1.1-1.1.3-.4.6-.9.9-1.4l.2.3c-.4.5-.6.9-.8 1.2zM413.1 230.4c-.2.5-.6.9-1.1 1.2 0-.1-.1-.2-.1-.4.4-.2.8-.6 1-1 .2-.4.4-1 .6-1.8h-1.8v-.4h1.9l.2.3c-.2 1-.5 1.7-.7 2.1zm1-2.4c-.1.1-.1.2-.2.2s-.2 0-.2-.1c-.1-.1-.1-.2-.1-.3 0-.1 0-.3.1-.3.1-.1.1-.1.2-.1s.1 0 .2.1.1.2.1.3c0 0-.1.1-.1.2zm-.1-.5-.1-.1c-.1 0-.2.1-.2.3v.2c0 .1.1.1.1.1s.1 0 .1-.1v-.2c.1-.1.1-.2.1-.2zM197.5 397.9c-.2.5-.5 1-.9 1.4l-.3-.3c.6-.7 1-1.6 1.3-2.8l.4.2c-.1.6-.3 1.1-.5 1.5zm2.7 1.2c-.3-1-.8-1.9-1.3-2.8l.3-.2c.6.9 1.1 1.9 1.5 2.8l-.5.2zM203.3 398.5c-.5.4-1.1.8-1.9 1.1l-.2-.4c1.3-.4 2.5-1.3 3.4-2.5l.3.3c-.6.6-1.1 1.1-1.6 1.5zm-1-1.5c-.4-.3-.7-.6-1.1-.8l.2-.3c.4.2.8.5 1.1.8l-.2.3zM209 397.9c0 .5-.1.9-.1 1.2 0 .1-.1.2-.2.3-.1.1-.4.1-.8.2 0-.1-.1-.2-.1-.4h.4c.1 0 .3-.1.3-.2.1-.1.1-.4.1-.8v-1.1h-1.2c-.1.6-.3 1.2-.5 1.6-.3.4-.7.8-1.2 1.1l-.3-.3c.5-.3.9-.6 1.1-.9.3-.4.4-.8.5-1.4h-1.2v-.4h1.3v-1h.4v1h1.6l-.1 1.1zm0-1.4-.5-.5.2-.2c.2.2.4.3.6.5l-.3.2zm.3-.4-.5-.5.2-.2c.2.2.4.3.6.5l-.3.2zM209.7 397.8v-.3h3.8v.3h-3.8zM215.1 397.9c-.2.5-.5 1-.9 1.4l-.3-.3c.6-.7 1-1.6 1.3-2.8l.4.2c-.2.6-.4 1.1-.5 1.5zm2.7 1.2c-.3-1-.8-1.9-1.3-2.8l.3-.2c.6.9 1.1 1.9 1.5 2.8l-.5.2zm.3-2.6c-.1.1-.2.2-.3.2-.1 0-.3 0-.3-.1-.1-.1-.1-.2-.1-.3 0-.1 0-.3.1-.3.1-.1.2-.1.3-.1.1 0 .2 0 .3.1.1.1.1.2.1.3 0 0 0 .1-.1.2zm-.2-.5s-.1-.1-.2-.1c-.2 0-.3.1-.3.3 0 .1 0 .1.1.2 0 .1.1.1.2.1s.1 0 .2-.1c0 0 .1-.1.1-.2s0-.2-.1-.2zM221 397v2.7h-.4v-2.4c-.6.5-1.2.9-1.8 1.1-.1-.1-.1-.3-.2-.4.6-.2 1.2-.6 1.8-1.1.5-.4 1-.9 1.5-1.4l.4.3c-.5.5-.9.9-1.3 1.2zM225.2 398.5c-.4.5-1 .9-1.9 1.2 0-.1-.1-.2-.2-.4.7-.2 1.3-.6 1.7-1 .4-.4.7-1 1-1.8h-3v-.4h3.2l.3.3c-.3 1-.7 1.6-1.1 2.1zm1.7-2.4c-.1.1-.2.2-.3.2-.1 0-.3 0-.3-.1-.1-.1-.1-.2-.1-.3 0-.1 0-.3.1-.3.1-.1.2-.1.3-.1.1 0 .2 0 .3.1.1.1.1.2.1.3 0 0-.1.1-.1.2zm-.2-.5s-.1-.1-.2-.1c-.2 0-.3.1-.3.3 0 .1 0 .1.1.2 0 .1.1.1.2.1s.1 0 .2-.1c0 0 .1-.1.1-.2s0-.2-.1-.2zM184.7 208.2c-.6.7-1.5 1.2-2.5 1.5-.1-.1-.2-.3-.3-.5.9-.2 1.7-.6 2.2-1.2.5-.5 1-1.2 1.4-2.2h-2.1c-.4.7-1 1.3-1.5 1.9-.1-.1-.3-.2-.4-.3.5-.4.9-.9 1.2-1.3.2-.4.5-.9.9-1.6l.5.2c-.1.2-.2.5-.4.8h2.1l.1-.1.3.3c-.5 1-1 1.9-1.5 2.5zM190.8 209.3v-.4h-3.3v.4h-.5V205h4.3v4.3h-.5zm0-3.9h-3.3v2.9h3.3v-2.9zM192 207.2v-.5h5.1v.5H192zM201.1 207.8l-.3-.4c.5-.5 1-.9 1.4-1.4l-2.4.4v2.1c0 .3.2.4.6.5h1c.6 0 1.1 0 1.5-.1v.5c-.6 0-1.2.1-1.6.1-.6 0-1 0-1.3-.1-.5-.1-.7-.4-.7-.9v-2.1l-1.5.2-.1-.5 1.6-.2v-1.7h.5v1.6l2.6-.4.1-.1.4.4c-.7 1-1.3 1.7-1.8 2.1zm1.5-2.4c-.2-.2-.4-.4-.7-.6l.2-.3c.3.2.6.4.7.6l-.2.3zm.5-.5c-.2-.2-.4-.4-.7-.6l.2-.3c.3.2.6.4.7.6l-.2.3zM204.4 207.6c-.2-.3-.4-.7-.7-1.1l.4-.2c.2.4.5.7.7 1.2l-.4.1zm3 .2c-.3.6-.7 1-1.1 1.4-.4.3-.9.6-1.5.8-.1-.2-.2-.3-.3-.4.6-.2 1-.4 1.4-.6.4-.3.7-.7 1-1.2.2-.4.4-1 .6-1.7l.5.1c-.2.6-.4 1.2-.6 1.6zm-1.7-.6c-.1-.4-.3-.8-.5-1.1l.4-.2c.2.4.4.8.6 1.1l-.5.2zM212.4 207.7c-.7-.4-1.6-.8-2.7-1.2v3.3h-.5v-5.6h.5v1.8c1 .3 2 .7 3 1.2l-.3.5zM199.1 407.8c-.6.7-1.5 1.2-2.5 1.5-.1-.1-.2-.3-.3-.5.9-.2 1.7-.6 2.2-1.2.5-.5 1-1.2 1.4-2.2h-2.1c-.4.7-1 1.3-1.5 1.9-.1-.1-.3-.2-.4-.3.5-.4.9-.9 1.2-1.3.2-.4.5-.9.9-1.6l.5.2c-.1.2-.2.5-.4.8h2.1l.1-.1.3.3c-.4 1.1-.9 1.9-1.5 2.5zM205.3 408.9v-.4H202v.4h-.5v-4.3h4.3v4.3h-.5zm0-3.8H202v2.9h3.3v-2.9zM206.5 406.9v-.5h5.1v.5h-5.1zM215.6 407.5l-.3-.4c.5-.5 1-.9 1.4-1.4l-2.4.4v2.1c0 .3.2.4.6.5h1c.6 0 1.1 0 1.5-.1v.5c-.6 0-1.2.1-1.6.1-.6 0-1 0-1.3-.1-.5-.1-.7-.4-.7-.9v-2.1l-1.5.2-.1-.5 1.6-.2V404h.5v1.6l2.6-.4.1-.1.4.4c-.7.9-1.3 1.5-1.8 2zm1.5-2.5c-.2-.2-.4-.4-.7-.6l.2-.3c.3.2.6.4.7.6l-.2.3zm.5-.5c-.2-.2-.4-.4-.7-.6l.2-.3c.3.2.6.4.7.6l-.2.3zM218.9 407.2c-.2-.3-.4-.7-.7-1.1l.4-.2c.2.4.5.7.7 1.2l-.4.1zm2.9.2c-.3.6-.7 1-1.1 1.4-.4.3-.9.6-1.5.8-.1-.2-.2-.3-.3-.4.6-.2 1-.4 1.4-.6.4-.3.7-.7 1-1.2.2-.4.4-1 .6-1.7l.5.1c-.2.7-.4 1.2-.6 1.6zm-1.6-.6c-.1-.4-.3-.8-.5-1.1l.4-.2c.2.4.4.8.6 1.1l-.5.2zM226.9 407.4c-.7-.4-1.6-.8-2.7-1.2v3.3h-.5v-5.6h.5v1.8c1 .3 2 .7 3 1.2l-.3.5zM450.5 137.1v-.5h.4v.5h2.5v.4h-2.5v.5h2v2.1h-.8v.5h1.5v.4h-1.5v1c0 .2-.1.3-.2.3-.2.1-.4.1-.7.1 0-.2-.1-.3-.2-.5h.6c.1 0 .1 0 .1-.1v-.9h-3.8v-.4h3.8v-.5h-3v-2h1.9v-.5H448v-.4h2.5zm-.5 4.6-.4.3c-.2-.3-.4-.5-.7-.8l.3-.3c.4.3.6.5.8.8zm-1-2.9h1.5v-.5H449v.5zm1.5.3H449v.5h1.5v-.5zm.4-.3h1.5v-.5h-1.5v.5zm0 .3v.5h1.5v-.5h-1.5zM459.6 137v4.9c0 .2-.1.4-.2.4-.1.1-.4.1-.7.1 0-.2-.1-.3-.2-.5h.5c.1 0 .1 0 .1-.1v-1.5h-1.7v2.1h-.4v-2.1h-1.5c-.1.9-.3 1.6-.8 2.2-.1-.2-.3-.3-.4-.4.5-.6.8-1.4.8-2.5V137h4.5zm-2.5 2.9v-1h-1.5v1.1h1.5zm0-1.5v-1.1h-1.5v1.1h1.5zm.4 0h1.7v-1.1h-1.7v1.1zm0 1.5h1.7v-1h-1.7v1zM438.4 148.1c-.7-.4-1.6-.8-2.7-1.2v3.3h-.5v-5.6h.5v1.8c1 .3 2 .7 3 1.2l-.3.5zM442.8 149c-.6.5-1.4.9-2.5 1.2 0-.2-.1-.3-.2-.5.9-.2 1.6-.5 2.1-.9.6-.4 1-1.1 1.5-1.9h-4.2v-.5h4.6l.3.3c-.5 1-1.1 1.8-1.6 2.3zm-2.7-3.6v-.5h3.5v.5h-3.5zM448 148.5c-.7.5-1.5 1-2.5 1.5l-.3-.6c1.8-.6 3.3-1.7 4.6-3.3.1.2.2.3.4.4-.9.8-1.6 1.5-2.2 2zm-1.4-2c-.5-.4-1-.8-1.4-1.1l.3-.4c.5.3 1 .7 1.5 1.1l-.4.4zM454 148.5c-.6.7-1.5 1.2-2.5 1.5-.1-.1-.2-.3-.3-.5.9-.2 1.7-.6 2.2-1.2.5-.5 1-1.2 1.4-2.2h-2.1c-.4.7-1 1.3-1.5 1.9-.1-.1-.3-.2-.4-.3.5-.4.9-.9 1.2-1.3.2-.4.5-.9.9-1.6l.5.2c-.1.2-.2.5-.4.8h2.1l.1-.1.3.3c-.5 1.1-1 1.9-1.5 2.5zM457.8 147.9c-.2.8-.7 1.5-1.4 2.1-.1-.2-.2-.3-.3-.4.5-.4.9-.8 1.1-1.4.2-.4.3-1 .3-1.7v-1.2h.5c0 1.2-.1 2-.2 2.6zm1.6 1.9-.4-.4.1-.1v-4.5h.5v4.2c.7-.5 1.4-1.2 2-2 .1.1.2.2.4.3-.8 1.1-1.7 1.9-2.6 2.5zM462.5 147.6v-.5h5.1v.5h-5.1zM472.9 149.8c-.1-.2-.2-.4-.4-.7-2 .3-3.4.5-4.3.6l-.1-.6h.7c.6-1.2 1.2-2.6 1.7-4.3l.6.2c-.8 1.9-1.4 3.2-1.8 4 .9-.1 1.9-.2 3-.3-.3-.5-.7-1.1-1.1-1.6l.4-.3c.8 1 1.4 1.9 1.8 2.7l-.5.3zM326.7 205.7c-.2-.2-.5-.4-.8-.6.8-.9 1.5-2.1 2.2-3.4l.8.4c-.8 1.3-1.5 2.5-2.2 3.6zm4.2-5.2v6.5h-.8v-6.5h-4.2v-.8h4.2v-2.5h.8v2.5h4.5v.8h-4.5zm3.9 4.9c-.9-.9-1.8-2.1-2.5-3.4l.8-.5c.8 1.3 1.6 2.4 2.5 3.3-.3.2-.6.4-.8.6zM336.4 202.5v-.8h8.9v.8h-8.9zM349.1 203c-.4 1.4-1.2 2.7-2.4 3.7-.2-.3-.4-.5-.6-.8.9-.7 1.6-1.4 2-2.4.3-.8.5-1.8.6-3v-2.1h.9c-.1 2.2-.2 3.7-.5 4.6zm2.9 3.5-.6-.7.1-.1v-7.9h.8v7.4c1.2-.9 2.4-2 3.5-3.5.2.2.4.4.7.6-1.5 1.7-3 3.1-4.5 4.2zM300.3 307.7v-1.2h.4v1.2h.6v.4h-.6v1c.2-.1.4-.1.7-.2v.4c-.2.1-.5.1-.7.2v1.7c0 .1-.1.2-.2.3-.1.1-.3.1-.6.1 0-.1 0-.3-.1-.4h.5c.1 0 .1 0 .1-.1v-1.5c-.3.1-.6.2-.8.2l-.1-.4c.3-.1.6-.1.9-.2v-1.1h-.9v-.4h.8zm4-.7c-.8.3-1.5.4-2.1.5v.9h2.3v.4h-.7v2.9h-.4v-2.9h-1.2v.2c0 .5-.1.9-.2 1.3-.1.5-.3.9-.6 1.3-.1-.1-.2-.2-.3-.2.3-.4.4-.7.6-1.1.1-.4.2-.8.2-1.2V307l.3.1c.7-.1 1.4-.2 2-.5l.1.4zM302.1 312.3v1.8h1.8v.4h-1.8v2.3h2.3v.4h-5v-.4h2.2v-4.5h.5zM304.4 318.3v.4h-2.2v1.2h2v.3h-1.9c.1.5.4.9.7 1.3.4.5 1 .8 1.6 1-.1.1-.2.2-.3.4-.7-.3-1.2-.7-1.6-1.2-.3-.3-.5-.6-.6-1-.1.4-.2.7-.4 1-.4.5-1 1-1.9 1.3-.1-.2-.1-.3-.2-.4 1-.4 1.6-.8 1.9-1.4.1-.3.2-.6.3-1H300v-.3h1.8v-1.2h-2.1v-.4h4.7zM300.8 324.9v-1.1h.4v1.1h1.5v-1.2h.4v1.2h1.1v.4h-1.1v1.3h1.5v.4h-1.5v1.9h-.4V327h-1.5c-.1.3-.1.6-.3.9-.2.4-.6.7-1.1 1l-.3-.3c.5-.2.9-.5 1.1-.9.1-.2.2-.4.2-.7h-1.4v-.4h1.4v-1.3h-1.1v-.4h1.1zm1.9.4h-1.5v1.3h1.5v-1.3zM410.1 373.5v-1.8h.5v1.8h.9v.5h-.9v.7l.4.4c.1.1.3.2.5.4-.1.2-.2.3-.3.5-.2-.2-.4-.3-.5-.4 0 0-.1 0-.1-.1v3.7h-.5v-3.7c-.1.3-.2.5-.3.8-.2.4-.4.7-.5.8-.1-.2-.2-.4-.3-.5.3-.4.5-.7.7-1.1.2-.3.3-.7.5-1.3h-.9v-.5h.8zm3.5-1.4v6.1c0 .2 0 .3-.1.4-.1.1-.4.2-.8.2 0-.2-.1-.4-.2-.5h.4c.1 0 .2 0 .2-.1v-1.8h-.8c0 .3-.1.5-.1.8-.1.7-.3 1.3-.6 1.8-.1-.2-.2-.4-.4-.5.3-.5.5-1 .6-1.6.1-.5.1-1.2.1-1.9v-2.8h1.7zm-.5 3.7v-1.3h-.8v1.4h.8zm0-1.8v-1.4h-.8v1.4h.8zm3-1.9v6.3c0 .2 0 .3-.1.4-.1.1-.4.1-.9.2 0-.2-.1-.4-.2-.5h.4c.2 0 .2 0 .2-.1v-2h-.9c0 .4-.1.7-.1 1-.1.7-.3 1.2-.5 1.7-.1-.2-.2-.4-.4-.5.2-.4.3-1 .4-1.5 0-.5.1-1.1.1-1.8v-3.1h2zm-.5 3.7v-1.3h-.9v1.4h.9zm0-1.8v-1.4h-.9v1.4h.9zM238.1 204v-1.8h.5v1.8h.9v.5h-.9v.7l.4.4c.1.1.3.2.5.4-.1.2-.2.3-.3.5-.2-.2-.4-.3-.5-.4 0 0-.1 0-.1-.1v3.7h-.5V206c-.1.3-.2.5-.3.8-.2.4-.4.7-.5.8-.1-.2-.2-.4-.3-.5.3-.4.5-.7.7-1.1.2-.3.3-.7.5-1.3h-.9v-.7h.8zm3.4-1.4v6.1c0 .2 0 .3-.1.4-.1.1-.4.2-.8.2 0-.2-.1-.4-.2-.5h.4c.1 0 .2 0 .2-.1v-1.8h-.8c0 .3-.1.5-.1.8-.1.7-.3 1.3-.6 1.8-.1-.2-.2-.4-.4-.5.3-.5.5-1 .6-1.6.1-.5.1-1.2.1-1.9v-2.8h1.7zm-.5 3.7V205h-.8v1.4h.8zm0-1.9V203h-.8v1.4h.8zm3-1.8v6.3c0 .2 0 .3-.1.4-.1.1-.4.1-.9.2 0-.2-.1-.4-.2-.5h.4c.2 0 .2 0 .2-.1v-2h-.9c0 .4-.1.7-.1 1-.1.7-.3 1.2-.5 1.7-.1-.2-.2-.4-.4-.5.2-.4.3-1 .4-1.5 0-.5.1-1.1.1-1.8v-3.1h2zm-.5 3.7V205h-.9v1.4h.9zm0-1.9V203h-.9v1.4h.9zM385.4 250v1h2.6v.4h-2.7l-1 1.8c.3.2.6.4.8.6l1.3-1.7.5.3-2.2 2.7c.7-.1 1.5-.1 2.3-.2-.2-.3-.5-.5-.7-.8l.4-.3c.6.7 1.1 1.2 1.4 1.7l-.4.3c-.1-.2-.2-.3-.4-.5-1.8.2-3.4.4-4.7.4l-.1-.5c.5 0 1 0 1.6-.1l.8-1c-.6-.5-1.3-1-2.1-1.4l.2-.4.9.6.7-1.5h-2.3v-.4h2.6v-1h.5zM391.4 250.2v2h-1.8v3.6h-.5v-5.6h2.3zm-.5.8v-.4h-1.4v.4h1.4zm0 .8v-.4h-1.4v.4h1.4zm3.4-1.6v5.1c0 .2-.1.4-.2.4-.1.1-.4.1-.8.1 0-.2-.1-.3-.2-.5h.6c.1 0 .1 0 .1-.1v-3h-1.5l.4.2-.4.6h.9v.4h-1.5v.5h1.7v.4H392c.1.2.3.4.4.5.2.2.4.3.8.5-.1.1-.2.2-.3.4-.4-.2-.6-.4-.8-.6-.2-.2-.3-.4-.4-.6-.1.1-.1.3-.2.4-.2.3-.7.6-1.2.9-.1-.2-.2-.3-.3-.4.6-.2 1-.4 1.2-.7.1-.1.1-.2.2-.3h-1.3v-.4h1.4v-.5h-1.2v-.4h.7c-.1-.2-.2-.3-.4-.5l.3-.3c.2.2.4.4.5.6l-.2.2h.8l.4-.8h-.4v-2h2.3zm-.4.4h-1.4v.4h1.4v-.4zm0 .8h-1.4v.4h1.4v-.4zM398.6 254.1c-.6.7-1.5 1.2-2.5 1.5-.1-.1-.2-.3-.3-.5.9-.2 1.7-.6 2.2-1.2.5-.5 1-1.2 1.4-2.2h-2.1c-.4.7-1 1.3-1.5 1.9-.1-.1-.3-.2-.4-.3.5-.4.9-.9 1.2-1.3.2-.4.5-.9.9-1.6l.5.2c-.1.2-.2.5-.4.8h2.1l.1-.1.3.3c-.5 1-1 1.9-1.5 2.5zM404.7 255.2v-.4h-3.3v.4h-.5v-4.3h4.3v4.3h-.5zm0-3.9h-3.3v2.9h3.3v-2.9zM405.9 253.1v-.5h5.1v.5h-5.1zM414.8 254.1c-.6.7-1.5 1.2-2.5 1.5-.1-.1-.2-.3-.3-.5.9-.2 1.7-.6 2.2-1.2.5-.5 1-1.2 1.4-2.2h-2.1c-.4.7-1 1.3-1.5 1.9-.1-.1-.3-.2-.4-.3.5-.4.9-.9 1.2-1.3.2-.4.5-.9.9-1.6l.5.2c-.1.2-.2.5-.4.8h2.1l.1-.1.3.3c-.5 1-1 1.9-1.5 2.5zM218.7 69.5c0 .6-.1 1.1-.1 1.4 0 .2-.1.3-.2.4-.1.1-.4.1-.9.2 0-.1-.1-.3-.1-.4h.5c.2 0 .3-.1.4-.2.1-.2.1-.5.1-1v-1.3h-1.3c-.1.8-.3 1.4-.6 1.9s-.8.9-1.4 1.3c-.1-.1-.2-.3-.3-.4.6-.3 1-.7 1.3-1.1.3-.4.5-1 .6-1.6h-1.5V68h1.5v-1.2h.5V68h1.8l-.3 1.5zM219.3 69.4V69h4.5v.4h-4.5zM226.9 68.9c-.1.9-.2 1.5-.5 1.8-.2.3-.7.7-1.4 1-.1-.1-.1-.3-.3-.4.7-.2 1.1-.5 1.4-.8.2-.3.3-.8.4-1.6h-2.3v-.4h4.9v.4h-2.2zm-2-1.3v-.4h3.3v.4h-3.3zM232.1 70.2c-.6.4-1.3.9-2.2 1.3l-.3-.5c1.5-.5 2.9-1.5 4-2.9l.3.3c-.6.8-1.2 1.4-1.8 1.8zm-1.2-1.8c-.4-.4-.8-.7-1.2-1l.3-.4c.5.3.9.6 1.3.9l-.4.5zM237.4 69.9c-.5.4-1 .7-1.5 1-.4.2-.7.4-.9.5l-.4-.3V67h.4v3.7c.8-.3 1.4-.7 1.8-1 .4-.3.9-.8 1.4-1.4l.3.3c-.2.5-.7.9-1.1 1.3zM239.1 69.4V69h4.5v.4h-4.5zM245.5 69.6c-.2.7-.6 1.3-1.2 1.9-.1-.1-.2-.3-.3-.4.5-.3.8-.7 1-1.2.2-.4.3-.9.3-1.5v-1h.4c0 1-.1 1.8-.2 2.2zm1.4 1.8-.3-.3.1-.1v-4h.4v3.7c.6-.4 1.2-1 1.8-1.8l.3.3c-.8.9-1.5 1.6-2.3 2.2zM252.7 71.2h-.4l-.7-2.9-.8 2.9h-.4l-.9-3.6h.4l.7 2.9.8-2.9h.4l.7 2.9.7-2.9h.4l-.9 3.6zM346.9 69.5c0 .6-.1 1.1-.1 1.4 0 .2-.1.3-.2.4-.1.1-.4.1-.9.2 0-.1-.1-.3-.1-.4h.5c.2 0 .3-.1.4-.2.1-.2.1-.5.1-1v-1.3h-1.3c-.1.8-.3 1.4-.6 1.9s-.8.9-1.4 1.3c-.1-.1-.2-.3-.3-.4.6-.3 1-.7 1.3-1.1.3-.4.5-1 .6-1.6h-1.5V68h1.5v-1.2h.5V68h1.8l-.3 1.5zM347.5 69.4V69h4.5v.4h-4.5zM355.1 68.9c-.1.9-.2 1.5-.5 1.8-.2.3-.7.7-1.4 1-.1-.1-.1-.3-.3-.4.7-.2 1.1-.5 1.4-.8.2-.3.3-.8.4-1.6h-2.3v-.4h4.9v.4h-2.2zm-1.9-1.3v-.4h3.3v.4h-3.3zM360.3 70.2c-.6.4-1.3.9-2.2 1.3l-.3-.5c1.5-.5 2.9-1.5 4-2.9l.3.3c-.6.8-1.2 1.4-1.8 1.8zm-1.2-1.8c-.4-.4-.8-.7-1.2-1l.3-.4c.5.3.9.6 1.3.9l-.4.5zM365.7 69.9c-.5.4-1 .7-1.5 1-.4.2-.7.4-.9.5l-.4-.3V67h.4v3.7c.8-.3 1.4-.7 1.8-1 .4-.3.9-.8 1.4-1.4l.3.3c-.3.5-.7.9-1.1 1.3zM367.4 69.4V69h4.5v.4h-4.5zM373.7 69.6c-.2.7-.6 1.3-1.2 1.9-.1-.1-.2-.3-.3-.4.5-.3.8-.7 1-1.2.2-.4.3-.9.3-1.5v-1h.4c0 1-.1 1.8-.2 2.2zm1.5 1.8-.3-.3.1-.1v-4h.4v3.7c.6-.4 1.2-1 1.8-1.8l.3.3c-.8.9-1.6 1.6-2.3 2.2zM381 71.2h-.4l-.7-2.9-.8 2.9h-.4l-.9-3.6h.4l.7 2.9.8-2.9h.4l.7 2.9.7-2.9h.4l-.9 3.6zM430.7 67.9c-.5.6-1.4 1.1-2.6 1.4-.1-.2-.2-.3-.3-.4 1-.2 1.8-.6 2.2-1 .5-.5.8-1.2.8-2.1h-3.4v1.5h-.5v-1.8h2v-1h.5v1h2c.1 1-.2 1.8-.7 2.4zM430.9 71v2.1c0 .2 0 .3-.1.4-.1.1-.3.1-.7.2 0-.2-.1-.3-.1-.4h.3c.2 0 .2-.1.2-.2v-1.6c-.6.7-1.4 1.2-2.3 1.7-.1-.1-.2-.2-.3-.4 1-.5 1.8-1.1 2.4-1.8h-2.2v-.4h2.3v-.9h.4v.9h1.5v.4h-1.4zM429.1 78.5v-4.6h.5v4.6h-.5zM430.1 82.2c-.6.6-1.5 1-2.5 1.3-.1-.1-.2-.3-.3-.4.9-.2 1.7-.6 2.2-1.1.5-.4 1-1.1 1.4-2h-2.1c-.4.6-1 1.2-1.5 1.7-.1-.1-.3-.2-.4-.3.5-.4.9-.8 1.2-1.2.2-.3.5-.8.9-1.4l.5.2c-.1.2-.2.4-.4.7h2.2l.3.3c-.4.9-.9 1.7-1.5 2.2zM429.8 85.5v3.2h-.5v-2.9c-.8.6-1.7 1-2.4 1.4-.1-.2-.2-.3-.3-.4.8-.3 1.6-.7 2.4-1.3.7-.5 1.4-1.1 2-1.7l.5.4c-.7.5-1.2.9-1.7 1.3zM429.9 92.3c-.7.5-1.5.9-2.5 1.3l-.3-.5c1.8-.5 3.3-1.5 4.6-3 .1.1.2.3.4.3-.8.8-1.5 1.4-2.2 1.9zm-1.3-1.9c-.5-.4-1-.7-1.4-1l.3-.4c.5.3 1 .6 1.5 1l-.4.4zM425.2 68.2c-.6.6-1.5 1-2.5 1.3-.1-.1-.2-.3-.3-.4.9-.2 1.7-.6 2.2-1.1.5-.4 1-1.1 1.4-2h-2c-.4.6-1 1.2-1.5 1.7-.1-.1-.3-.2-.4-.3.5-.4.9-.8 1.2-1.2.2-.3.5-.8.9-1.4l.5.2c-.1.2-.2.4-.4.7h2.2l.3.3c-.5.9-1 1.6-1.6 2.2zM426 73.9v-.4h-3.3v.4h-.5V70h4.3v3.9h-.5zm0-3.5h-3.3V73h3.3v-2.6zM424.2 78.9v-4.6h.5v4.6h-.5z"/><path d="m425.1 82.4-.3-.3c.5-.4 1-.8 1.4-1.2l-2.4.3V83c0 .2.2.4.6.5h2.5v.4h-1.6c-.6 0-1 0-1.3-.1-.5-.1-.7-.4-.7-.8v-1.9l-1.5.2-.1-.4 1.6-.2v-1.5h.5v1.4l2.6-.3.1-.1.4.4c-.7.8-1.3 1.4-1.8 1.8zm1.6-2.3c-.2-.2-.4-.4-.7-.6l.2-.2c.3.2.6.4.7.6l-.2.2zm.4-.4c-.2-.2-.4-.4-.7-.6l.2-.2c.3.2.6.4.7.6l-.2.2zM423.9 85.9c-.2-.3-.4-.6-.7-1l.4-.2c.2.3.5.7.7 1l-.4.2zm2.9.2c-.3.5-.7.9-1.1 1.2-.4.3-.9.5-1.5.8-.1-.1-.2-.3-.3-.4.6-.2 1-.3 1.4-.6.4-.2.7-.6 1-1.1.2-.4.4-.9.6-1.5l.5.1c-.2.6-.4 1.1-.6 1.5zm-1.7-.6c-.1-.3-.3-.7-.5-1l.4-.1c.2.4.4.7.6 1l-.5.1zM426.5 91.5c-.7-.4-1.6-.7-2.7-1.1v3h-.5v-5h.5V90c1 .3 2 .6 3 1.1l-.3.4zM457.2 64.9c-.2.5-.5 1-.9 1.4l-.3-.3c.6-.7 1-1.6 1.3-2.8l.4.2c-.2.6-.4 1.1-.5 1.5zm2.7 1.3c-.3-1-.8-1.9-1.3-2.8l.3-.2c.6.9 1.1 1.9 1.5 2.8l-.5.2zM458.7 69.2c-.5.4-1.1.8-1.9 1.1l-.2-.4c1.3-.4 2.5-1.3 3.4-2.5l.3.3c-.6.7-1.1 1.2-1.6 1.5zm-1-1.5c-.4-.3-.7-.6-1.1-.8l.2-.3c.4.2.8.5 1.1.8l-.2.3zM459.7 73c0 .5-.1.9-.1 1.2 0 .1-.1.2-.2.3-.1.1-.4.1-.8.2 0-.1-.1-.2-.1-.4h.4c.1 0 .3-.1.3-.2.1-.1.1-.4.1-.8v-1.1h-1.2c-.1.6-.3 1.2-.5 1.6-.3.4-.7.8-1.2 1.1l-.3-.3c.5-.3.9-.6 1.1-.9.3-.4.4-.8.5-1.4h-1.2v-.4h1.3v-1h.4v1h1.6l-.1 1.1zm0-1.5-.5-.5.2-.2c.2.2.4.3.6.5l-.3.2zm.3-.3-.5-.5.2-.2c.2.2.4.3.6.5l-.3.2zM458 78.8V75h.3v3.8h-.3zM457.2 81.1c-.2.5-.5 1-.9 1.4l-.3-.3c.6-.7 1-1.6 1.3-2.8l.4.2c-.2.6-.4 1.1-.5 1.5zm2.7 1.2c-.3-1-.8-1.9-1.3-2.8l.3-.2c.6.9 1.1 1.9 1.5 2.8l-.5.2zm.3-2.6c-.1.1-.2.2-.3.2-.1 0-.3 0-.3-.1-.1-.1-.1-.2-.1-.3 0-.1 0-.3.1-.3.1-.1.2-.1.3-.1.1 0 .2 0 .3.1.1.1.1.2.1.3s0 .1-.1.2zm-.2-.6s-.1-.1-.2-.1c-.2 0-.3.1-.3.3 0 .1 0 .1.1.2 0 .1.1.1.2.1s.1 0 .2-.1c0 0 .1-.1.1-.2s0-.1-.1-.2zM458.6 84.1v2.7h-.4v-2.4c-.6.5-1.2.9-1.8 1.1-.1-.1-.1-.3-.2-.4.6-.2 1.2-.6 1.8-1.1.5-.4 1-.9 1.5-1.4l.4.3c-.6.5-1 .9-1.3 1.2zM458.9 90.1c-.4.5-1 .9-1.9 1.2 0-.1-.1-.2-.2-.4.7-.2 1.3-.6 1.7-1 .4-.4.7-1 1-1.8h-3v-.4h3.2l.3.3c-.4 1-.8 1.7-1.1 2.1zm1.6-2.4c-.1.1-.2.2-.3.2-.1 0-.3 0-.3-.1-.1-.1-.1-.2-.1-.3 0-.1 0-.3.1-.3.1-.1.2-.1.3-.1.1 0 .2 0 .3.1.1.1.1.2.1.3 0 0 0 .1-.1.2zm-.2-.5s-.1-.1-.2-.1c-.2 0-.3.1-.3.3 0 .1 0 .1.1.2 0 .1.1.1.2.1s.1 0 .2-.1c0 0 .1-.1.1-.2s0-.2-.1-.2zM451.3 117.2v-1.8h.5v1.8h.9v.5h-.9v.7l.4.4c.1.1.3.2.5.4-.1.2-.2.3-.3.5-.2-.2-.4-.3-.5-.4 0 0-.1 0-.1-.1v3.7h-.5v-3.7c-.1.3-.2.5-.3.8-.2.4-.4.7-.5.8-.1-.2-.2-.4-.3-.5.3-.4.5-.7.7-1.1.2-.3.3-.7.5-1.3h-.9v-.5h.8zm3.4-1.4v6.1c0 .2 0 .3-.1.4-.1.1-.4.2-.8.2 0-.2-.1-.4-.2-.5h.4c.1 0 .2 0 .2-.1V120h-.8c0 .3-.1.5-.1.8-.1.7-.3 1.3-.6 1.8-.1-.2-.2-.4-.4-.5.3-.5.5-1 .6-1.6.1-.5.1-1.2.1-1.9v-2.8h1.7zm-.5 3.7v-1.3h-.8v1.4h.8zm0-1.8v-1.4h-.8v1.4h.8zm3.1-1.9v6.3c0 .2 0 .3-.1.4-.1.1-.4.1-.9.2 0-.2-.1-.4-.2-.5h.4c.2 0 .2 0 .2-.1v-2h-.9c0 .4-.1.7-.1 1-.1.7-.3 1.2-.5 1.7-.1-.2-.2-.4-.4-.5.2-.4.3-1 .4-1.5 0-.5.1-1.1.1-1.8v-3.1h2zm-.5 3.7v-1.3h-.9v1.4h.9zm0-1.8v-1.4h-.9v1.4h.9zM171 336.5c-.3.2-.6.3-1 .3h-1.3v2h-.5v-4.6h1.6c.5 0 .9.1 1.2.3.4.2.5.6.5 1-.1.5-.2.8-.5 1zm-1.2-1.8h-1.2v1.7h1.2c.7 0 1.1-.3 1.1-.8 0-.6-.4-.9-1.1-.9zM170.9 346c-.3.2-.7.3-1.1.3-.5 0-.8-.1-1.2-.3-.3-.2-.5-.6-.6-1h.6c.1.3.2.6.4.7.2.1.4.2.8.2.3 0 .5-.1.7-.2.2-.2.4-.4.4-.6 0-.3-.4-.6-1.1-.9-1-.4-1.5-.9-1.5-1.4 0-.4.2-.7.5-.9.3-.2.6-.3 1-.3.7 0 1.2.4 1.5 1.2h-.6c-.2-.5-.5-.7-.9-.7-.3 0-.5.1-.6.2-.2.1-.3.3-.3.6 0 .2.2.5.7.7.4.2.8.5 1.3.7.5.3.7.6.7 1-.1.1-.3.5-.7.7zM396.9 185.8v1.7h4.5v.8h-4.8l-1.7 3.1c.5.4 1 .7 1.5 1.1l2.2-3 .8.5-3.8 4.8c1.2-.1 2.6-.2 4-.4-.4-.5-.8-.9-1.2-1.4l.7-.5c1.1 1.2 1.9 2.2 2.4 2.9l-.7.5-.6-.9c-3.2.4-6 .7-8.2.8l-.2-.8c.8 0 1.8-.1 2.8-.1l1.3-1.7c-1-.9-2.2-1.7-3.6-2.5l.4-.7c.6.3 1.1.6 1.6 1l1.3-2.7h-4v-.8h4.5v-1.7h.8zM407.4 186.1v3.5h-3.2v6.4h-.8v-9.9h4zm-.8 1.5v-.7h-2.4v.7h2.4zm0 1.3v-.7h-2.4v.7h2.4zm6-2.8v8.9c0 .4-.1.6-.3.7-.2.1-.7.2-1.4.2 0-.3-.1-.6-.3-.9h1c.1 0 .2-.1.2-.2v-5.2h-2.7l.7.3-.7 1.1h1.6v.6h-2.6v.9h3v.7h-2.6c.2.4.4.7.7.9.3.3.7.6 1.4.8-.2.1-.4.3-.5.6-.6-.3-1.1-.7-1.5-1-.3-.3-.5-.6-.7-1.1-.1.2-.2.5-.3.7-.4.6-1.2 1.1-2.2 1.5-.1-.3-.3-.5-.6-.7 1-.3 1.7-.7 2.1-1.3.1-.1.2-.3.3-.5h-2.3v-.7h2.4v-.9h-2.1v-.5h1.3c-.2-.3-.4-.6-.7-.9l.5-.4c.3.3.7.7.9 1l-.4.3h1.4l.7-1.4h-.4v-3.5h4.1zm-.8.7h-2.4v.7h2.4v-.7zm0 1.4h-2.4v.7h2.4v-.7zM382.7 213.9c-.4-.4-.7-.8-.9-1.1-.3-.4-.4-.9-.4-1.5s.1-1 .4-1.5c.2-.3.5-.7.9-1.1l.3.3c-.4.4-.7.7-.8 1-.2.4-.3.8-.3 1.3s.1.9.3 1.3c.2.3.5.7.8 1l-.3.3zM385.6 210.2v-1.5h.4v1.5h2.4v.4h-2.2c.1.6.4 1.1.7 1.6.4.6.9 1 1.5 1.3-.1.1-.2.2-.3.4-.6-.4-1.2-.9-1.6-1.5-.3-.4-.5-.9-.6-1.4-.1.4-.2.7-.3 1-.3.6-.9 1.3-1.9 2-.1-.2-.2-.3-.3-.4.8-.4 1.4-1 1.8-1.6.2-.4.4-.9.5-1.4h-2.1v-.4h2zM391 209.3v.4h-.7v1.1h.6v.4h-.6v1.3c.2-.1.5-.1.7-.2v.4c-.6.2-1.2.4-1.8.5l-.1-.4c.2-.1.5-.1.8-.2V211h-.7v-.4h.7v-1.1h-.7v-.4h1.8zm1.7 2.2v.7h1.3v.4h-1.3v.8h1.5v.4h-3.5v-.4h1.6v-.8h-1.2v-.4h1.2v-.7h-1.1V209h2.7v2.6h-1.2zm-1.2-1.4h.8v-.7h-.8v.7zm.8.3h-.8v.7h.8v-.7zm.4-.3h.8v-.7h-.8v.7zm0 .3v.7h.8v-.7h-.8zM399.8 209.1v.4h-2.6c-.3.7-.5 1.2-.8 1.6h2.9v2.8h-.4v-.4h-2.5v.4h-.4v-2.3c-.3.3-.6.7-1 1l-.3-.3c.6-.4 1-.8 1.3-1.4.3-.4.5-.9.7-1.5H395v-.4h4.8zm-.9 4v-1.7h-2.5v1.7h2.5zM402.6 209.8v.3h-2v-.3h2zm-.3-.7v.3h-1.5v-.3h1.5zm0 1.4v.3h-1.5v-.3h1.5zm0 .8v.3h-1.5v-.3h1.5zm0 .8v1.5h-1.2v.3h-.4v-1.8h1.6zm-.3 1.1v-.8h-.8v.8h.8zm3.5-4.2v4.4c0 .2 0 .3-.1.3s-.3.1-.5.1c0-.1-.1-.3-.1-.4h.4s.1 0 .1-.1v-4.1h-1.9v2.2c0 .9-.2 1.7-.5 2.3-.1-.1-.2-.3-.3-.3.3-.5.4-1.2.4-2V209h2.5zm-1.6 1.1v-.6h.3v.6h.5v.3h-.5v.6h.6v.3h-1.6v-.3h.6v-.6h-.5v-.3h.6zm.9 1.6v1.3h-.9v.4h-.4v-1.7h1.3zm-.4 1v-.7h-.6v.7h.6zM409.2 212.3c-.6.6-1.3 1.1-2.3 1.5-.1-.1-.1-.2-.3-.4.9-.3 1.6-.8 2.2-1.4-.3-.3-.7-.6-1-.8l.2-.3c.4.3.8.5 1.1.8.3-.4.6-.9.9-1.5h-1.8c-.5.7-1 1.2-1.7 1.6-.1-.1-.2-.3-.3-.4.6-.4 1-.7 1.2-1 .3-.3.5-.8.8-1.4l.5.2-.3.6h1.8l.3.3c-.4.9-.9 1.7-1.3 2.2zM414.1 210.6v3.2h-.4V211c-.7.6-1.5 1-2.1 1.3-.1-.2-.1-.3-.2-.4.7-.3 1.4-.7 2.1-1.2.6-.5 1.2-1.1 1.7-1.7l.4.3c-.6.5-1.1.9-1.5 1.3zM417.6 211.8c-.2.7-.6 1.3-1.2 1.9-.1-.1-.2-.3-.3-.4.5-.3.8-.7 1-1.2.2-.4.3-.9.3-1.5v-1h.4c-.1.9-.1 1.7-.2 2.2zm1.4 1.7-.3-.3.1-.1v-4h.4v3.7c.6-.4 1.2-1 1.8-1.8l.3.3c-.8 1-1.5 1.7-2.3 2.2zM422.8 212.8c-.2.4-.5.7-.9 1.1l-.3-.3c.4-.4.7-.7.8-1 .2-.4.3-.8.3-1.3s-.1-.9-.3-1.3c-.2-.3-.5-.7-.8-1l.3-.3c.4.4.7.8.9 1.1.3.4.4.9.4 1.5s-.1 1.1-.4 1.5zM337.8 235.1v-3.8h.4v3.5h2.4v.4h-2.8zM343.6 231.1v.3h-.5v.6h.6v.3h-.6v1h-.3v-1h-.6c0 .2-.1.4-.2.6-.1.3-.4.5-.7.7-.1-.1-.1-.2-.2-.3.3-.1.5-.3.6-.6.1-.1.1-.2.1-.4h-.6v-.3h.7v-.6h-.5v-.3h2.2zm-.4 2.8v-.4h.3v.4h1.5v.3h-1.5v.6h2v.3h-4.3v-.3h2v-.6h-1.4v-.3h1.4zm-.4-2.5h-.6v.6h.6v-.6zm1.5-.2v1.8h-.3v-1.8h.3zm1-.3v2.3c0 .1-.1.2-.2.2-.1.1-.3.1-.5.1 0-.1 0-.2-.1-.4h.4s.1 0 .1-.1v-2.2h.3zM350.1 231.3c-.4.1-.9.2-1.6.2v.7h1.7v.3h-1.7v.8h2v.3h-2v1.2c0 .1-.1.2-.2.3-.1.1-.4.1-.6.1 0-.1 0-.3-.1-.4h.5c.1 0 .1 0 .1-.1v-1.1h-1.9v-.3h1.9v-.8h-1.7v-.3h1.7v-.7c-.5 0-1.1.1-1.5.1 0-.2-.1-.3-.2-.3.7 0 1.3 0 1.9-.1.5-.1 1.1-.1 1.6-.2l.1.3zM351.6 231.9v-1h.3v1h.4v.3h-.4v.7c.1 0 .3-.1.4-.2v.3c-.1.1-.3.1-.4.2v1.7c0 .1-.1.2-.2.2s-.3.1-.6.1c0-.1 0-.2-.1-.3h.5c.1 0 .1 0 .1-.1v-1.5c-.2.1-.4.2-.6.2l-.1-.3c.2-.1.4-.1.7-.2v-.9h-.6v-.3h.6zm2.1-.9v1.8l.3.1-.1.4h1.1v2h-.3v-.2H353v.2h-.3v-2h.9l.1-.4c-.1 0-.2.1-.5.1 0-.1 0-.3-.1-.3h.2c.1 0 .1 0 .1-.1v-1.3h-1v-.3h1.3zm-.4 1.4c-.3.1-.6.2-.8.3l-.1-.3c.2-.1.5-.2.9-.3v.3zm-.2-.5-.2.2-.4-.4.1-.2c.2.1.3.2.5.4zm1.6 2.1v-.4H353v.4h1.7zm0 .8v-.5H353v.5h1.7zm.5-3.7v1.7c0 .1 0 .2-.1.2s-.2.1-.5.1c0-.1 0-.3-.1-.3H354.8v-1.3h-1v-.3h1.4zm-.6.8-.2.2c-.1-.1-.3-.2-.5-.3l.1-.2.6.3zm.1.5c-.3.1-.5.2-.7.3l-.1-.3c.2-.1.5-.2.8-.3v.3zM337.3 510.8v.9h2.4v.4h-4.6v1.5c0 1.3-.3 2.3-.9 3.2-.1-.2-.2-.3-.4-.4.6-.7.8-1.6.8-2.8v-1.9h2.1v-.9h.6zm-.1 2.5v-1h.4v1h2v.4h-1.8c.2.4.4.7.7 1 .3.4.7.7 1.3 1-.2.1-.3.3-.3.4-.5-.3-.9-.7-1.3-1.1l-.6-.9v2.6h-.4v-2.5c-.2.3-.5.7-.7.9-.4.4-.8.8-1.2 1.1-.1-.1-.2-.3-.3-.4.4-.2.7-.5 1.1-.9.3-.3.6-.7.9-1.2h-1.5v-.4h1.7zM342.2 511.4v4h-1v.7h-.4v-4.6h1.4zm-.4 1.8v-1.4h-.6v1.4h.6zm0 1.8v-1.4h-.6v1.4h.6zm4.2-3.3-.5 1h.7v.4h-2c0 .2-.1.4-.1.5h2.3v.4H344c-.1.2-.1.3-.2.5H345.5l.2.3c-.2.4-.5.8-.8 1.1.4.2.9.4 1.5.5-.1.2-.2.3-.3.4-.6-.1-1.1-.3-1.6-.6-.4.3-.9.5-1.6.6 0-.2-.1-.3-.2-.4.6-.1 1.1-.3 1.4-.5-.3-.2-.5-.5-.7-.7-.3.5-.7.9-1.2 1.3l-.3-.3c.6-.4 1-.8 1.3-1.3.1-.2.2-.4.3-.7h-1.1v-.4h1.2c0-.2.1-.4.1-.5h-1.2v-.4h2.5l.5-1.1.5-.1zm0-.4c-1.2.2-2.3.4-3.3.4 0-.1-.1-.2-.2-.4 1.1-.1 2.2-.2 3.2-.4l.3.4zm-2.4 1.1-.4.1-.3-.6.3-.1c.2.2.3.4.4.6zm.9 3.1c.3-.2.5-.5.6-.8h-1.4c.3.4.5.6.8.8zm.1-3.1-.4.1c-.1-.2-.1-.4-.2-.7l.3-.1c.2.2.2.5.3.7zM348 515c-.1.6-.3 1.1-.6 1.6-.1-.2-.2-.3-.3-.4.3-.4.4-.9.5-1.4.1-.5.1-1.1.1-1.8v-1.2h4.6v1.3h-1.8v.7h2.3v.4h-2.6c0 .2-.1.4-.1.6h2.2l-.1 1.1c0 .3-.1.5-.3.6-.2.1-.5.1-.9.1 0-.2 0-.3-.1-.4h.8s.1-.1.1-.2l.1-.7H350c-.1.1-.1.3-.2.4-.3.4-.8.8-1.5 1-.1-.1-.2-.3-.3-.4.7-.2 1.2-.5 1.5-.9.2-.3.3-.7.4-1.1h-1.4v-.4h1.7v-.7h-2c-.1.7-.1 1.3-.2 1.8zm4.8-3.9v.4h-5.7v-.4h5.7zm-4.7 1.7h3.7v-.6h-3.7v.6zM412.9 457h-2v3.5h-.4v-5.8h2.4v2.3zm-.4-1.9H411v.6h1.5v-.6zm-1.6 1.6h1.5v-.7h-1.5v.7zm3.5 3.2h-2.1v.3h-.3v-2.7h2.5v2.4zm-.4-2h-1.6v.7h1.6v-.7zm-1.6 1.7h1.6v-.7h-1.6v.7zm3.5-4.9v5.2c0 .6-.3.6-1.4.6 0-.1-.1-.3-.2-.5h.6c.5 0 .5 0 .5-.2V457h-2v-2.3h2.5zm-.4.4h-1.6v.6h1.6v-.6zm-1.6 1.6h1.6v-.7h-1.6v.7zM412.4 464.4l-.8.2v2c0 .5-.3.6-1.1.6 0-.1-.1-.3-.1-.4h.4c.5 0 .5 0 .5-.1v-1.8c-.3.1-.5.2-.8.2 0 .1 0 .1-.1.1l-.2-.5c.3-.1.6-.2 1-.2V463h-.9v-.4h.9V461h.6c0 .1 0 .1-.1.1v1.2h.8v.4h-.8v1.4c.3-.1.5-.1.8-.2l-.1.5zm3.9-.6h-2.1l-.1.1-.3.6h2.4v.4h-.8c-.1.5-.4.9-.7 1.2.5.2 1 .5 1.3.7l-.3.3c-.3-.2-.8-.5-1.4-.7-.5.3-1.2.6-2.2.7 0-.1-.1-.3-.2-.4.8-.1 1.4-.3 1.9-.5-.3-.1-.6-.2-.8-.3l-.1.2-.4-.1c.2-.3.3-.7.5-1.1h-.9v-.4h1.1c.1-.2.2-.5.3-.7H412v-.4h4.2v.4zm-.3-2v.4h-3.6v-.4h1.5v-.8h.6s0 .1-.1.1v.6h1.6zm-2.6.4c.1.4.2.8.3 1.1l-.4.1c0-.3-.1-.7-.2-1.1l.3-.1zm.2 2.7c-.1.2-.2.5-.3.7.3.1.7.2 1 .3.3-.3.5-.6.7-1h-1.4zm1.9-2.6-.1.1c-.1.3-.3.8-.4 1.1l-.4-.1c.1-.3.3-.8.4-1.2l.5.1zM411.4 472.3c-.2.5-.5 1-.8 1.3l-.4-.2c.3-.3.6-.8.8-1.3l.4.2zm-.4-.8v.4h-.4v-4h1.9v3.6H411zm1-3.2h-1v1.2h1.1v-1.2zm-1 2.8h1.1v-1.2H411v1.2zm1.3 2.5c0-.3-.1-.8-.1-1.2h.4c.1.4.2.9.2 1.2h-.5zm3.7-5.7v.1c-.1 1.7-.2 1.7-.9 1.7h-.5c0-.1-.1-.3-.1-.4h.7c.1 0 .2 0 .2-.1.1-.1.1-.4.2-1h-1.2c-.1.8-.5 1.4-1.5 1.7 0-.1-.2-.3-.2-.3.9-.2 1.2-.7 1.4-1.3H413v-.4h3zm-.2 2.2v1.8H413v-1.8h2.8zm-.4 1.4v-1.1h-2v1.1h2zm-1.4 2.1c-.1-.3-.2-.8-.4-1.2l.4-.1c.2.4.4.9.4 1.2l-.4.1zm1.8.1c-.2-.4-.6-.9-.9-1.3l.4-.1c.3.4.7 1 .9 1.3l-.4.1zM412.6 478.5h-1.7v.6h-.4v-4.6h2.2v4zm-.4-3.6h-1.3v1.3h1.3v-1.3zm-1.4 3.2h1.3v-1.4h-1.3v1.4zm5.2-3.7v5.2c0 .3-.1.4-.3.5-.2.1-.6.1-1.1.1 0-.1-.1-.3-.2-.4h.6c.5 0 .5 0 .5-.2v-1.5h-2c-.2.8-.5 1.6-1.2 2.2l-.3-.3c1.1-.9 1.2-2.1 1.2-3.2v-2.4h2.8zm-2.3 2.4v.9h2v-1.2h-1.9v.3zm1.9-2h-1.9v1.2h1.9v-1.2zM305.6 493.2h-2.9v4.8c0 1-.6 1-2.5 1 0-.2-.1-.5-.2-.6h1.6c.2 0 .4-.2.3-.4v-4.2c-1 1.5-2.6 3-4.2 4-.1-.2-.3-.4-.5-.5 1.6-.9 3.3-2.4 4.3-3.9h-3.9v-.7h4.3v-2.1h.9c0 .1-.1.2-.2.2v1.9h3v.5zM306.9 494.2h8.2v.7h-7.8c-.1.1-.2.2-.3.2l-.1-.9zM316.6 491.6H323l.7.5-.1.1c-.8 3.7-2.5 5.6-5.5 6.8-.1-.2-.3-.4-.4-.6 2.9-1.1 4.5-2.9 5.2-6.1h-6.1v-.7zm7.5-1.8c.6 0 1.1.5 1.1 1.1 0 .6-.5 1.1-1.1 1.1-.6 0-1.1-.5-1.1-1.1 0-.6.5-1.1 1.1-1.1zm.7 1.1c0-.4-.3-.8-.7-.8s-.8.3-.8.8c0 .4.3.8.8.8.4 0 .7-.4.7-.8zM326.2 491.2c1 .3 2.2.8 2.9 1.3l-.4.6c-.7-.5-1.9-1-2.9-1.4l.4-.5zm0 6.8c3.5-1.1 5.8-3 7-5.8.2.2.4.3.6.4-1.2 2.7-3.6 4.8-7 5.9 0 .1-.1.2-.1.2l-.5-.7zM334.6 495.3c.7-.8 2.3-2.5 2.9-3.1.3-.3.5-.4.8-.4.3 0 .5.1.8.4 1.3 1.2 3.3 3.4 4.8 5.4l-.6.5c-1.4-1.9-3.5-4.3-4.6-5.3-.2-.2-.3-.2-.4-.2-.1 0-.2.1-.4.2-.5.5-1.9 2.2-2.6 2.9v.1c0 .1 0 .2-.1.2l-.6-.7zm7.5-5c.6 0 1.1.5 1.1 1.1 0 .6-.5 1.1-1.1 1.1-.6 0-1.1-.5-1.1-1.1 0-.6.5-1.1 1.1-1.1zm.8 1.1c0-.4-.3-.8-.8-.8-.4 0-.8.4-.8.8s.4.8.8.8.8-.4.8-.8zM345.2 491.2c1 .3 2.2.8 2.9 1.3l-.4.6c-.7-.5-1.9-1-2.9-1.4l.4-.5zm-.1 6.8c3.5-1.1 5.8-3 7-5.8.2.2.4.3.6.4-1.2 2.7-3.6 4.8-7 5.9 0 .1-.1.2-.1.2l-.5-.7zM359.6 495.6c-1-.5-2.4-1.2-3.5-1.6v4.9h-.7v-8.5l1 .1c0 .1-.1.2-.3.2v2.9l.1-.2c1.2.4 2.7 1.1 3.7 1.6l-.3.6zM364.7 491.9c0 .1-.1.1-.3.2-.4 2.3-1.2 4.8-2.4 6.3-.2-.1-.5-.2-.7-.3 1.2-1.4 1.9-3.8 2.3-6.4l1.1.2zm3.1-.3c1.1 1.8 2.3 4.7 2.7 6.5l-.7.3c-.4-1.7-1.6-4.7-2.6-6.5l.6-.3zM375 490.4l1 .1c0 .1-.1.2-.3.2v1.5h2.6l.1-.1.6.3-.1.1c-.5 3.4-1.9 5.4-5 6.5-.1-.2-.3-.4-.5-.6 2.9-1 4.3-2.8 4.6-5.6h-5.6v2.4h-.7v-3.1h3.1v-1.7zM386.9 491.4l-.1.1c-.5 1.2-1.2 2.3-2 3.4 1.1.9 2.7 2.3 3.6 3.3l-.6.5c-.9-1-2.4-2.5-3.5-3.3-.9 1.1-2.4 2.5-3.8 3.3-.1-.1-.3-.4-.5-.5 2.7-1.5 4.9-4.3 5.8-6.4H381v-.7h5.3l.6.3zM317.4 509.6c-.7-.9-1.5-2.3-1.5-4.5s.7-3.6 1.5-4.6h.7c-.8 1.1-1.4 2.5-1.4 4.6 0 2 .6 3.4 1.4 4.5h-.7zM325.2 508h4.5v.7h-8.9v-.7h3.8v-7.8l.9.1c0 .1-.1.1-.2.1v2.9h3.8v.7h-3.8v4zM335.6 503.8c.2-.5.5-1.3.6-1.9l.8.2c0 .1-.1.1-.2.1-.1.5-.4 1.2-.6 1.7h1.5v.6h-5.2v-.6h3.5l-.4-.1zm1.9-2.7v.6h-4.8v-.6h2V500h.8c0 .1-.1.1-.2.1v1h2.2zm-4.4 8v-3.7h3.9v3.7h-.6v-.5h-2.6v.6h-.7zm.8-7.1c.2.5.4 1.2.5 1.6l-.6.1c0-.4-.2-1.1-.4-1.6l.5-.1zm2.5 4h-2.6v2h2.6v-2zm4.8-5.5.4.2s0 .1-.1.1c-.4.8-.9 1.9-1.4 2.9 1.1 1 1.5 1.7 1.5 2.4 0 1.5-1.1 1.5-1.7 1.5h-.5c0-.2-.1-.5-.2-.6h.6c.7 0 1.1 0 1.1-.9 0-.6-.5-1.3-1.6-2.3.5-1 .9-1.9 1.2-2.7h-2v7.9h-.5v-8.5h3.2zM350.6 502.4v1.7c0 .8.4 3.4 2.9 4.5-.1.2-.3.4-.4.6-1.9-1-2.6-2.9-2.8-3.8-.1.9-1 2.8-3.2 3.8-.1-.1-.3-.4-.4-.6 2.8-1.2 3.3-3.7 3.3-4.5v-1.7h-1.2c-.3.9-.6 1.7-1 2.3-.1-.1-.3-.2-.5-.3v1.9h-2.1v1h-.6v-6.4h2.7v3.3c.6-1 1.1-2.6 1.3-4.2l.8.2c0 .1-.1.1-.2.1-.1.5-.2 1-.3 1.4h4.5c-.3 1.1-.5 2-.8 2.8l-.6-.2c.2-.5.4-1.3.6-2h-2zm-3.9 3.3v-4.2h-1.5v4.2h1.5zM364.1 503.9l.4.1s0 .1-.1.1c-.2 1.4-.7 2.4-1.3 3.3.6.5 1.3.9 2.2 1.1-.1.1-.3.4-.4.6-.8-.3-1.6-.7-2.2-1.2-.5.6-1.2 1-1.9 1.3-.1-.2-.2-.4-.4-.6.7-.2 1.3-.6 1.8-1.2-.5-.6-.9-1.2-1.2-2-.3 1.5-.9 2.7-1.7 3.6-.1-.1-.3-.4-.5-.5 1.2-1.3 1.7-3.5 2-6.2h-1.4v.2h-1.1v2.1l1.1-.3.1.6-1.2.4v3c0 .7-.3.8-1.6.8 0-.2-.1-.4-.2-.6h1c.1 0 .2 0 .2-.2v-2.7c-.5.2-.9.3-1.2.4 0 .1 0 .1-.1.2l-.3-.8c.4-.1 1-.3 1.6-.5v-2.3h-1.5v-.6h1.5v-2h.8c0 .1-.1.1-.2.1v1.8h1v-.2h1.6c0-.6.1-1.2.1-1.8l.8.1c0 .1-.1.1-.2.1 0 .5-.1 1.1-.1 1.6h3.7v.6h-3.7c0 .5-.1 1-.2 1.5h2.7l.1.1zm-3 1 .2-.1c.3.8.7 1.5 1.3 2.1.5-.6.9-1.5 1.1-2.4h-2.6v.4zM368.4 500.6c.7.9 1.4 2.3 1.4 4.5s-.7 3.6-1.4 4.5h-.7c.8-1.1 1.4-2.5 1.4-4.5s-.6-3.4-1.4-4.5h.7zM274.9 457h-2v3.5h-.4v-5.8h2.4v2.3zm-.4-1.9H273v.6h1.5v-.6zm-1.5 1.6h1.5v-.7H273v.7zm3.5 3.2h-2.1v.3h-.4v-2.7h2.5v2.4zm-.4-2h-1.6v.7h1.6v-.7zm-1.7 1.7h1.6v-.7h-1.6v.7zm3.6-4.9v5.2c0 .6-.3.6-1.4.6 0-.1-.1-.3-.2-.5h.6c.5 0 .5 0 .5-.2V457h-2v-2.3h2.5zm-.4.4H276v.6h1.6v-.6zm-1.6 1.6h1.6v-.7H276v.7zM274.4 464.4l-.8.2v2c0 .5-.3.6-1.1.6 0-.1-.1-.3-.1-.4h.4c.5 0 .5 0 .5-.1v-1.8c-.3.1-.5.2-.8.2 0 .1 0 .1-.1.1l-.2-.5c.3-.1.6-.2 1-.2V463h-.9v-.4h.9V461h.6c0 .1 0 .1-.1.1v1.2h.8v.4h-.8v1.4c.3-.1.5-.1.8-.2l-.1.5zm3.9-.6h-2.1l-.1.1-.3.6h2.4v.4h-.8c-.1.5-.4.9-.7 1.2.5.2 1 .5 1.3.7l-.3.3c-.3-.2-.8-.5-1.4-.7-.5.3-1.2.6-2.2.7 0-.1-.1-.3-.2-.4.8-.1 1.4-.3 1.9-.5-.3-.1-.6-.2-.8-.3l-.1.2-.4-.1c.2-.3.3-.7.5-1.1h-.9v-.4h1.1c.1-.2.2-.5.3-.7H274v-.4h4.2v.4zm-.3-2v.4h-3.6v-.4h1.5v-.8h.6s0 .1-.1.1v.6h1.6zm-2.6.4c.1.4.2.8.3 1.1l-.4.1c0-.3-.1-.7-.2-1.1l.3-.1zm.2 2.7c-.1.2-.2.5-.3.7.3.1.7.2 1 .3.3-.3.5-.6.7-1h-1.4zm1.9-2.6-.1.1c-.1.3-.3.8-.4 1.1l-.4-.1c.1-.3.3-.8.4-1.2l.5.1zM273.5 472.3c-.2.5-.5 1-.8 1.3l-.4-.2c.3-.3.6-.8.8-1.3l.4.2zm-.5-.8v.4h-.4v-4h1.9v3.6H273zm1.1-3.2H273v1.2h1.1v-1.2zm-1.1 2.8h1.1v-1.2H273v1.2zm1.4 2.5c0-.3-.1-.8-.1-1.2h.4c.1.4.2.9.2 1.2h-.5zm3.7-5.7v.1c-.1 1.7-.2 1.7-.9 1.7h-.5c0-.1-.1-.3-.1-.4h.7c.1 0 .2 0 .2-.1.1-.1.1-.4.2-1h-1.2c-.1.8-.5 1.4-1.5 1.7 0-.1-.2-.3-.2-.3.9-.2 1.2-.7 1.4-1.3h-1.1v-.4h3zm-.2 2.2v1.8H275v-1.8h2.9zm-.5 1.4v-1.1h-2v1.1h2zm-1.4 2.1c-.1-.3-.2-.8-.4-1.2l.4-.1c.2.4.4.9.4 1.2l-.4.1zm1.9.1c-.2-.4-.6-.9-.9-1.3l.4-.1c.3.4.7 1 .9 1.3l-.4.1zM274.6 478.5h-1.7v.6h-.4v-4.6h2.2v4zm-.4-3.6h-1.3v1.3h1.3v-1.3zm-1.3 3.2h1.3v-1.4h-1.3v1.4zm5.2-3.7v5.2c0 .3-.1.4-.3.5-.2.1-.6.1-1.1.1 0-.1-.1-.3-.2-.4h.6c.5 0 .5 0 .5-.2v-1.5h-2c-.2.8-.5 1.6-1.2 2.2l-.3-.3c1.1-.9 1.2-2.1 1.2-3.2v-2.4h2.8zm-2.4 2.4v.9h2v-1.2h-1.9v.3zm1.9-2h-1.9v1.2h1.9v-1.2z"/><path class="st22" d="m418.4 551.5-148.7-159M269.7 551.5l148.7-159M295.9 551.5h-26.2v-159h148.7v159h-27.5"/><path class="st23" d="M194.6 634.3v-4.4h.4v-3.6h.4v-19.7h1.1v19.7h.5v3.6h.4v4.4zM321.2 634.3v-4.4h.4v-3.6h.4v-19.7h1.1v19.7h.5v3.6h.4v4.4z"/><path class="st2" d="M194.6 629.9h2.8v4.4h-2.8zM195.4 626.3v1.1h1.1v-1.1h.5v3.4h-2v-3.4z"/><path class="st2" d="M195.4 606.6h1.1v20.8h-1.1zM321.2 629.9h2.8v4.4h-2.8zM322 626.3v1.1h1.1v-1.1h.5v3.4h-2v-3.4z"/><path class="st2" d="M322 606.6h1.1v20.8H322z"/><path d="M249.2 621c0 .3 0 .5-.1.7h.5v-1.3h.4v1.3h.6v.3h-.6v1.2c.2-.1.4-.1.6-.2v.4c-.2.1-.4.1-.6.2v2.1h-.4v-2c-.3.1-.7.2-1 .3l-.1-.4c.3-.1.7-.2 1.1-.3V622h-.6c-.1.3-.1.6-.2.8h-.3c.2-.6.3-1.2.4-1.9l.3.1zm2.6-.5c-.1.4-.2.7-.4 1h2.1l-.1 3.1c0 .3-.1.6-.1.7-.1.1-.2.2-.5.3h-.5c0-.2 0-.3-.1-.4h.6c.1 0 .2 0 .2-.1s0-.2.1-.4l.1-2.7h-.4c0 .8-.2 1.5-.5 2.1-.4.6-.8 1.1-1.4 1.5l-.3-.3c.6-.4 1-.8 1.3-1.4.3-.5.5-1.1.5-1.9h-.4c-.1.4-.2.9-.4 1.3-.3.5-.6.8-.9 1.1-.1-.1-.1-.2-.2-.3.3-.2.6-.5.8-.9.2-.3.3-.7.4-1.2h-.3c-.2.4-.4.7-.6 1-.1-.1-.2-.2-.3-.2.3-.4.5-.8.6-1.2.2-.3.3-.7.4-1.1h.3zM259 620.9v.4h-2v1.5h2.3v.4H257v2.6h-.4v-2.6h-2.3v-.4h2.3v-1.5h-1.9v-.4h4.3zM262.8 620.6c0 .1-.1.1-.1.1.4.4.8.8 1.2 1.1.4.3.8.6 1.2.7-.1.1-.2.3-.2.4-.4-.2-.7-.4-1-.6v.3h-1.2v.6h2v.4h-2v1.4h2.3v.4h-4.9v-.4h2.2v-1.4h-2v-.4h2v-.6h-1.2v-.3c-.4.3-.7.5-.9.6-.1-.1-.2-.3-.3-.3.5-.3.9-.6 1.3-1s.8-.8 1.2-1.4l.4.4zm-1.1 4.1-.4.2c-.1-.2-.3-.5-.4-.7l.4-.2c.1.2.2.4.4.7zm2.2-2.4c-.1-.1-.3-.2-.4-.3-.4-.3-.7-.7-1-1-.3.4-.7.7-1 1.1-.1.1-.2.2-.3.2h2.7zm.3 1.8-.5.9-.3-.2.4-.9.4.2zM266.4 621c0 .3 0 .5-.1.7h.5v-1.3h.4v1.3h.6v.3h-.6v1.2c.2-.1.4-.1.6-.2v.4c-.2.1-.4.1-.6.2v2.1h-.4v-2c-.3.1-.7.2-1 .3l-.1-.4c.3-.1.7-.2 1.1-.3V622h-.5c-.1.3-.1.6-.2.8h-.3c.2-.6.3-1.2.4-1.9l.2.1zm2.6-.5c-.1.4-.2.7-.4 1h2.1l-.1 3.1c0 .3-.1.6-.1.7-.1.1-.2.2-.5.3h-.5c0-.2 0-.3-.1-.4h.6c.1 0 .2 0 .2-.1s0-.2.1-.4l.1-2.7h-.4c0 .8-.2 1.5-.5 2.1-.4.6-.8 1.1-1.4 1.5l-.3-.3c.6-.4 1-.8 1.3-1.4.3-.5.5-1.1.5-1.9h-.4c-.1.4-.2.9-.4 1.3-.3.5-.6.8-.9 1.1-.1-.1-.1-.2-.2-.3.3-.2.6-.5.8-.9.2-.3.3-.7.4-1.2h-.3c-.2.4-.4.7-.6 1-.1-.1-.2-.2-.3-.2.3-.4.5-.8.6-1.2.2-.3.3-.7.4-1.1h.3z"/></svg>