<svg version="1.1" id="レイヤー_1" xmlns="http://www.w3.org/2000/svg" x="0" y="0" viewBox="0 0 620 641.8" style="enable-background:new 0 0 620 641.8" xml:space="preserve"><style>.st2{fill:#fff}.st4{fill:#bfc0c0}.st5{stroke-miterlimit:10}.st5,.st6,.st7,.st8{fill:none;stroke:#000;stroke-width:.4}.st7,.st8{stroke-width:.6}.st8{stroke-width:.4;stroke-dasharray:1.3,1.3,0,0,0,0}.st9{fill:#6b7b6e}.st10{fill:#fadce9}.st11{fill:#f9f4e4}.st14{fill:#dfeaf8}.st17{fill:none;stroke:#cfb5a7;stroke-width:.4}.st18{stroke:#b5b5b6;stroke-miterlimit:10}.st18,.st19,.st20,.st21{fill:none;stroke-width:.4}.st19{stroke:#aaabab;stroke-linecap:round;stroke-linejoin:round;stroke-miterlimit:10;stroke-dasharray:4.5,2.5}.st20,.st21{stroke:#000;stroke-linejoin:bevel;stroke-dasharray:15,1.3,1.3,1.3}.st21{stroke-width:.3;stroke-dasharray:1.3,1.3,0,0,0,0}.st22,.st24,.st25,.st26,.st27,.st28{fill:none;stroke:#000;stroke-width:.4}.st22{stroke-linejoin:bevel;stroke-dasharray:10,1.3,1.3,1.3}.st24,.st25,.st26,.st27,.st28{stroke-dasharray:1.005940e-02,0,0,0}.st25,.st26,.st27,.st28{stroke-dasharray:1.3077,1.2977,1.005940e-02,0,0,0}.st26,.st27,.st28{stroke-dasharray:9.911315e-03,0,0,0}.st27,.st28{stroke-dasharray:1.2885,1.2786,9.911315e-03,0,0,0}.st28{stroke-dasharray:1.3,1.3}</style><path style="fill:#cae5cd" d="M127 447.7h366.1v184.6H127z"/><path style="fill:#ecf4d9" d="M124 438.9v-2.4h-.6v-29h.6v-2.4h3.9V381h35.9v.7H241v-.7h2.7v11.6h56.8V381h2.5v.7h63.2v-.7h34.2v.7h72.2v-.7h19.6v24.1h3.9v2.4h.6v29h-.6v2.4l-13.7-.1v8.9H137.5v-8.8z"/><path class="st2" d="M493.1 583.4h-4.4v-.4h-3.6v-.4h-19.7v-1.1h19.7v-.5h3.6v-.4h4.4zM493.1 490.5h-4.4v-.4h-3.6v-.5h-19.7v-1.1h19.7v-.4h3.6v-.5h4.4z"/><path d="M271.7 393.1h-18.6c-.5 0-.9.4-.9.9v15.8c0 1 .8 1.9 1.9 1.9h16.7c1 0 1.9-.8 1.9-1.9V394c-.1-.5-.5-.9-1-.9z" style="fill:#dff2fc"/><path class="st4" d="M482.3 438.8v9.8h9.1v-1.2H503v1.2h9.1v-9.8zM107.8 438.8v9.8h9v-1.2h11.7v1.2h9v-9.8z"/><path class="st5" d="M271.7 393.8h-18.6c-.1 0-.2.1-.2.2v15.8c0 .6.5 1.2 1.2 1.2h16.7c.6 0 1.2-.5 1.2-1.2V394c-.1-.1-.2-.2-.3-.2z"/><path class="st5" d="M271.7 393.1h-18.6c-.5 0-.9.4-.9.9v15.8c0 1 .8 1.9 1.9 1.9h16.7c1 0 1.9-.8 1.9-1.9V394c-.1-.5-.5-.9-1-.9z"/><circle class="st5" cx="262.5" cy="396" r="1.2"/><path class="st6" d="M122.2 407.5h1.2v29.1h-1.2zM121.6 405.1h2.3v2.3h-2.3z"/><path class="st6" d="M121.6 436.5h2.3v2.3h-2.3zM496.6 407.5h1.2v29.1h-1.2zM496.1 405.2h2.3v2.3h-2.3z"/><path class="st6" d="M496.1 436.5h2.3v2.3h-2.3z"/><circle class="st6" cx="487.8" cy="434.2" r="1.6"/><path class="st6" d="M118.6 447.4h8.4v184.8h-8.4zM493.1 447.5h8.4v184.7h-8.4zM511.7 640.6H107.8M107.8 632.2h403.9M483.2 438.8v-8.2h9.3v8.2"/><circle class="st6" cx="113.3" cy="434.2" r="1.6"/><path class="st6" d="M108.8 438.8v-8.2h9.3v8.2M137.7 447.7h344.7M488.7 580.6h4.4v2.8h-4.4zM485.1 582.6h1v-1.1h-1v-.5h3.4v2h-3.4z"/><path class="st6" d="M465.4 581.5h20.8v1.1h-20.8zM488.7 487.6h4.4v2.8h-4.4zM485.1 489.6h1v-1.1h-1v-.4h3.4v2h-3.4z"/><path class="st6" d="M465.4 488.5h20.8v1.1h-20.8z"/><path class="st7" d="M482.4 438.8v9.8h9v-1.2h11.7v1.2h9v-9.8zM107.8 438.8v9.8h9v-1.2h11.7v1.2h9v-9.8z"/><path class="st8" d="M273.9 393.1h23.2v9.3h-23.2zM273.9 402.4l23.2-9.3"/><path d="M286 521v-1.1h.9v1.1h4.9v.7h-4.9v1h3.9v4.1h-1.6v1h3v.8h-3v2.1c0 .3-.2.5-.5.7-.3.2-.8.2-1.5.2 0-.3-.1-.7-.4-1h1.1c.2 0 .2-.1.2-.2v-1.8h-7.6v-.8h7.6v-1H282v-4.1h3.8v-1h-5v-.7h5.2zm-.9 9.3-.7.6c-.3-.5-.8-1.1-1.4-1.6l.6-.5c.6.4 1.1.9 1.5 1.5zm-2-5.8h3v-1h-3v1zm2.9.6h-3v1h3v-1zm.9-.6h3.1v-1h-3.1v1zm0 .6v1h3.1v-1h-3.1zM304.3 520.8v9.8c0 .4-.1.7-.4.9-.2.1-.7.2-1.4.3 0-.3-.1-.7-.3-1h1.1c.1 0 .2-.1.2-.3v-3H300v4.2h-.9v-4.2H296c-.2 1.7-.7 3.2-1.6 4.4-.3-.4-.5-.7-.8-.8 1-1.2 1.5-2.8 1.5-4.9v-5.3h9.2zm-5.2 5.8v-2.1h-3v2.1h3zm0-2.9v-2.1h-3v2.1h3zm.9 0h3.4v-2.1H300v2.1zm0 2.9h3.4v-2.1H300v2.1zM313.4 519.9v1.2h4.8v.8h-9.4v3.4c0 1.5-.1 2.7-.2 3.5-.2 1-.5 1.9-1 2.9-.2-.3-.5-.5-.8-.6.5-.8.8-1.7 1-2.6.1-.7.2-1.7.2-3.2V521h4.6v-1.2h.8zm-1.3 3.4c-.4.8-.8 1.6-1.2 2.3h1.6c-.1 1.6-.3 2.8-.8 3.7 0 .1-.1.1-.1.2.2.2.4.3.6.4.8.4 1.8.7 2.8.7h3.7c-.2.2-.3.5-.3.8h-3.2c-1.2 0-2.3-.3-3.4-.8-.2-.1-.4-.2-.6-.4-.5.5-1.1 1-1.9 1.4-.2-.3-.4-.5-.6-.7.8-.4 1.5-.8 1.9-1.3-.5-.6-.9-1.3-1.1-2.3l.8-.3c.2.8.5 1.4.9 1.9.4-.7.6-1.5.6-2.5h-1.2c-.1.1-.1.2-.2.3l-.8-.4c.6-1 1.1-1.9 1.4-2.7h-1.6v-.8h1.9l.2-.1.6.6zm5.9 0c-.6.2-1.2.3-1.8.5v1.8h2.3v.8h-2.3v2h1.9v.8h-4.6v-.8h1.9v-2H313v-.8h2.3V524c-.7.1-1.4.2-2 .3 0-.2-.2-.5-.4-.8 1.5-.1 3-.4 4.5-.9l.6.7zM257 405.1c-.1.2-.3.3-.4.4h1.4l.2.3c-.6.6-1.1 1-1.5 1.3-.5.3-1.2.7-2.1 1 0-.1-.1-.2-.2-.4.6-.2 1.1-.4 1.8-.8l-.6-.6.3-.2c.3.2.4.4.6.6.5-.3.9-.6 1.2-1h-1.5c-.1.1-.2.2-.3.2-.4.3-.9.5-1.3.7-.1-.1-.1-.2-.2-.3.4-.1.8-.3 1.2-.6.4-.2.8-.6 1.1-.9l.3.3zm.9 2.1c-.2.2-.5.4-.7.6h1.5l.2.3c-.4.6-1 1.1-1.6 1.4-.7.4-1.6.7-2.7.9-.1-.1-.1-.3-.2-.4.8-.1 1.6-.2 2.3-.6-.2-.2-.4-.4-.6-.7l.3-.2.7.7c.5-.3.9-.6 1.3-1.1h-1.7l-.1.1c-.4.3-1 .5-1.7.8l-.3-.3c.6-.2 1.2-.4 1.7-.7.4-.2.8-.6 1.2-1l.4.2zM264 410h-.4v-.3h-2.5v.4h-.4v-4.6h3.2v4.5zm-.4-3.3v-.9h-2.5v.9h2.5zm0 1.3v-.9h-2.5v.9h2.5zm0 1.3v-.9h-2.5v.9h2.5zM267.1 405.1l-.2.8h.7v3.8h-.4v-.3h-1v.4h-.4V406h.7l.1-.9h.5zm.1 2.4v-1.2h-1v1.2h1zm0 1.6v-1.3h-1v1.3h1zm1.8-4c-.1.3-.2.6-.2.9h1.7v1.7c0 1.1 0 1.7-.1 2 0 .2-.1.3-.2.3-.2.1-.4.1-.8.1 0-.1-.1-.3-.2-.4h.6c.1 0 .2-.1.2-.2 0-.2.1-.8.1-1.8v-1.4h-1.4v.1c-.1.4-.3.7-.5 1.1-.1-.1-.2-.2-.3-.2.2-.4.4-.8.5-1.2.1-.4.2-.7.3-1.1l.3.1zm.5 3-.3.3c-.2-.2-.4-.5-.7-.8l.2-.3c.3.3.6.5.8.8zM249.9 416.6c-.5-.6-1-1.3-1.7-1.9-.6.7-1.4 1.3-2.3 1.9-.1-.2-.2-.3-.3-.4.8-.4 1.5-.8 2-1.3.4-.4.9-1.1 1.5-2h-2.9v-.4h3.2l.3.3c-.4.6-.7 1.2-1 1.6.7.6 1.3 1.2 1.8 1.9l-.6.3zM254.4 416.5v-.4h-2.9v.4h-.5v-3.8h3.8v3.8h-.4zm0-3.4h-2.9v2.6h2.9v-2.6zM256.1 415c-.1-.3-.3-.6-.6-1l.3-.2c.2.3.4.7.6 1l-.3.2zm2.6.1c-.3.5-.6.9-1 1.2-.3.3-.8.5-1.3.7-.1-.1-.1-.3-.2-.4.5-.1.9-.3 1.2-.6.3-.2.6-.6.9-1 .2-.3.4-.8.5-1.4l.4.1c-.2.6-.3 1.1-.5 1.4zm-1.5-.5c-.1-.3-.3-.7-.5-1l.3-.1c.2.4.4.7.5 1l-.3.1zM262.7 415.4c-.5.6-1.2 1-2.2 1.4 0-.1-.1-.3-.2-.4.8-.3 1.5-.6 2-1.2.5-.5.9-1.2 1.2-2.1h-3.6v-.4h3.8l.3.3c-.5 1.1-.9 1.9-1.3 2.4zm1.9-2.8c-.1.1-.2.2-.4.2s-.3-.1-.4-.2c-.1-.1-.2-.2-.2-.4s.1-.3.2-.4c.1-.1.2-.2.4-.2.1 0 .3.1.4.2.1.1.2.2.2.4-.1.2-.1.3-.2.4zm-.2-.6c-.1-.1-.1-.1-.2-.1-.2 0-.3.1-.3.3 0 .1 0 .2.1.2.1.1.1.1.2.1s.2 0 .2-.1c.1-.1.1-.1.1-.2 0 0-.1-.1-.1-.2zM266.1 414.6c-.3-.2-.7-.4-1-.5l.2-.4c.4.1.8.3 1.1.5l-.3.4zm1.7 1c-.6.4-1.3.8-2.2 1.1l-.2-.5c1.6-.5 2.9-1.4 3.9-2.7l.3.3c-.6.8-1.2 1.4-1.8 1.8zm-1.1-2.4c-.4-.2-.7-.4-1-.6l.2-.4c.4.2.8.4 1.1.6l-.3.4zM272.7 415.5c-.6.4-1.3.9-2.2 1.3l-.3-.5c1.5-.5 2.9-1.5 4-2.9l.3.3c-.6.8-1.3 1.4-1.8 1.8zm-1.2-1.8c-.4-.4-.8-.7-1.2-1l.3-.4c.5.3.9.6 1.3.9l-.4.5zM277.9 415.5c-.6.6-1.3 1-2.2 1.3-.1-.1-.1-.3-.2-.4.8-.2 1.5-.6 2-1 .4-.4.8-1.1 1.2-1.9h-1.8c-.4.6-.8 1.2-1.3 1.6-.1-.1-.2-.2-.4-.3l1.1-1.1c.2-.3.5-.8.8-1.4l.5.2c-.1.2-.2.4-.4.7H279.1l.3.3c-.5.7-1 1.5-1.5 2zM177.6 424.3c-.2 1.8-.5 3.1-1 3.9-.5.7-1.5 1.5-3.1 2.2-.1-.3-.3-.6-.6-.9 1.4-.5 2.4-1.1 2.9-1.8s.8-1.8.9-3.4h-5v-.9h10.5v.9h-4.6zm-4.1-2.8v-.9h7v.9h-7zM189.7 428.1c-1.1.9-2.6 1.7-4.6 2.3-.1-.3-.2-.6-.4-.9 1.7-.3 3-.9 4-1.6 1-.8 1.9-2 2.7-3.6h-7.9v-.9l8.6-.1.6.6c-1 1.8-2 3.3-3 4.2zm-5.1-6.8v-.9h6.5v.9h-6.5zM203.2 429.7c-1-1.4-2.2-2.7-3.5-4-1.3 1.5-3 2.8-5 4-.2-.4-.4-.7-.7-.9 1.7-.8 3.1-1.7 4.2-2.7.9-.9 1.9-2.3 3.1-4.3h-6.2v-.9h6.6l.1-.1.7.7c-.8 1.3-1.5 2.5-2.2 3.4 1.5 1.3 2.8 2.6 3.9 4l-1 .8zM384.3 424.3c-.2 1.8-.5 3.1-1 3.9-.5.7-1.5 1.5-3.1 2.2-.1-.3-.3-.6-.6-.9 1.4-.5 2.4-1.1 2.9-1.8s.8-1.8.9-3.4h-5v-.9H389v.9h-4.7zm-4.1-2.8v-.9h7v.9h-7zM396.4 428.1c-1.1.9-2.6 1.7-4.6 2.3-.1-.3-.2-.6-.4-.9 1.7-.3 3-.9 4-1.6 1-.8 1.9-2 2.7-3.6h-7.9v-.9l8.6-.1.6.6c-1 1.8-1.9 3.3-3 4.2zm-5-6.8v-.9h6.5v.9h-6.5zM410 429.7c-1-1.4-2.2-2.7-3.5-4-1.3 1.5-3 2.8-5 4-.2-.4-.4-.7-.7-.9 1.7-.8 3.1-1.7 4.2-2.7.9-.9 1.9-2.3 3.1-4.3h-6.2v-.9h6.6l.1-.1.7.7c-.8 1.3-1.5 2.5-2.2 3.4 1.5 1.3 2.8 2.6 3.9 4l-1 .8zM473.9 526.9c0 .3 0 .5-.1.7h.5v-1.3h.4v1.3h.6v.3h-.6v1.2c.2-.1.4-.1.6-.2v.4c-.2.1-.4.1-.6.2v2.1h-.4v-2c-.3.1-.7.2-1 .3l-.1-.4c.3-.1.7-.2 1.1-.3v-1.3h-.5c-.1.3-.1.6-.2.8h-.3c.2-.6.3-1.2.4-1.9l.2.1zm2.6-.4c-.1.4-.2.7-.4 1h2.1l-.1 3.1c0 .3-.1.6-.1.7-.1.1-.2.2-.5.3h-.5c0-.2 0-.3-.1-.4h.6c.1 0 .2 0 .2-.1s0-.2.1-.4l.1-2.7h-.4c0 .8-.2 1.5-.5 2.1-.4.6-.8 1.1-1.4 1.5l-.3-.3c.6-.4 1-.8 1.3-1.4.3-.5.5-1.1.5-1.9h-.4c-.1.4-.2.9-.4 1.3-.3.5-.6.8-.9 1.1-.1-.1-.1-.2-.2-.3.3-.2.6-.5.8-.9.2-.3.3-.7.4-1.2h-.4c-.2.4-.4.7-.6 1-.1-.1-.2-.2-.3-.2.3-.4.5-.8.6-1.2.2-.3.3-.7.4-1.1h.4zM477.9 532.5v.4h-2v1.5h2.3v.4h-2.3v2.6h-.4v-2.6h-2.3v-.4h2.3v-1.5h-1.9v-.4h4.3zM476.1 538c0 .1-.1.1-.1.1.4.4.8.8 1.2 1.1.4.3.8.6 1.2.7-.1.1-.2.3-.2.4-.4-.2-.7-.4-1-.6v.3H476v.6h2v.4h-2v1.4h2.3v.4h-4.9v-.4h2.2V541h-2v-.4h2v-.6h-1.2v-.3c-.4.3-.7.5-.9.6-.1-.1-.2-.3-.3-.3.5-.3.9-.6 1.3-1s.8-.8 1.2-1.4l.4.4zm-1.2 4.1-.4.2c-.1-.2-.3-.5-.4-.7l.4-.2c.1.2.2.4.4.7zm2.2-2.4c-.1-.1-.3-.2-.4-.3-.4-.3-.7-.7-1-1-.3.4-.7.7-1 1.1-.1.1-.2.2-.3.2h2.7zm.3 1.8-.5.9-.3-.2.4-.9.4.2zM473.9 544.1c0 .3 0 .5-.1.7h.5v-1.3h.4v1.3h.6v.3h-.6v1.2c.2-.1.4-.1.6-.2v.4c-.2.1-.4.1-.6.2v2.1h-.4v-2c-.3.1-.7.2-1 .3l-.1-.4c.3-.1.7-.2 1.1-.3v-1.3h-.5c-.1.3-.1.6-.2.8h-.3c.2-.6.3-1.2.4-1.9l.2.1zm2.6-.4c-.1.4-.2.7-.4 1h2.1l-.1 3.1c0 .3-.1.6-.1.7-.1.1-.2.2-.5.3h-.5c0-.2 0-.3-.1-.4h.6c.1 0 .2 0 .2-.1s0-.2.1-.4l.1-2.7h-.4c0 .8-.2 1.5-.5 2.1-.4.6-.8 1.1-1.4 1.5l-.3-.3c.6-.4 1-.8 1.3-1.4.3-.5.5-1.1.5-1.9h-.4c-.1.4-.2.9-.4 1.3-.3.5-.6.8-.9 1.1-.1-.1-.1-.2-.2-.3.3-.2.6-.5.8-.9.2-.3.3-.7.4-1.2h-.4c-.2.4-.4.7-.6 1-.1-.1-.2-.2-.3-.2.3-.4.5-.8.6-1.2.2-.3.3-.7.4-1.1h.4zM275.5 398.3c-.2.7-.4 1.3-.6 1.8l-.2-.2c.2-.5.4-1.1.6-1.8l.2.2zm-.1-1.3-.1.3c-.1-.1-.3-.3-.5-.4l.1-.3c.1.1.3.2.5.4zm.2-1.4-.2.3-.5-.5.2-.3.5.5zm2.5 4h.3v.4h-3v-.4h.4v-1.7h2.2v1.7zm-2.1-2.2v-2.2h1.8v2.2H276zm.5 2.2v-1.3h-.4v1.3h.4zm-.2-3.5h1.3v-.5h-1.3v.5zm0 .4v.6h1.3v-.6h-1.3zm.8 3.1v-1.3h-.4v1.3h.4zm.7 0v-1.3h-.4v1.3h.4zM280.1 396.7c-.1.8-.2 1.3-.4 1.7-.2.5-.4.9-.7 1.3-.1-.1-.1-.3-.2-.3.3-.3.5-.7.7-1.1.1-.4.3-.9.3-1.4h-.9v-.4h1l.2.2zm.6-1.7v.9c.1.5.2.9.3 1.3.3-.3.6-.6.9-1l.2.3c-.3.4-.6.8-.9 1.1.1.1.1.3.2.4.3.6.6 1 1 1.3-.1.1-.1.2-.2.4-.4-.3-.8-.8-1-1.4-.2-.4-.3-.8-.4-1.2v2.7c0 .1-.1.2-.1.3-.1.1-.3.1-.4.1 0-.1 0-.3-.1-.4h.3s.1 0 .1-.1V395h.1zM283 399.3l-.3-.3c.3-.5.5-1 .8-1.7l.3.2c-.3.7-.5 1.3-.8 1.8zm1.5-2.5v3.2h-.3v-3.2h-1.5v-.4h1.5v-1.2h.3v1.2h1.6v.4h-1.6zm1.4 2.4c-.3-.5-.6-1-.9-1.7l.3-.3c.3.7.6 1.2.9 1.7-.2.1-.3.2-.3.3zm-.3-3c-.1-.2-.2-.4-.4-.6l.1-.2c.2.2.3.4.5.5l-.2.3zm.3-.5c-.1-.2-.2-.4-.4-.6l.1-.2c.2.2.3.4.5.5l-.2.3zM288.4 396.8v3.2h-.3v-2.8c-.5.6-1 1-1.5 1.3 0-.2-.1-.3-.2-.4.5-.3 1-.7 1.4-1.2.4-.5.8-1.1 1.2-1.7l.3.3c-.3.5-.6 1-.9 1.3zM291.9 399c-.3.4-.9.8-1.5 1.1 0-.1-.1-.3-.1-.4.6-.2 1-.4 1.3-.8.3-.4.6-.9.9-1.7h-2.6v-.4h2.8l.2.3c-.3.8-.6 1.5-1 1.9zm-1.6-3.1v-.4h2.1v.4h-2.1zM293.2 397.8v-.4h3.1v.4h-3.1z"/><path class="st9" d="m166.3 599.2 12.7 1.5.1-.5-10.5-1.2 10.4-1.3-.1-.5-12.5 1.6 1.5-1.6 4.6-2 5.8-.6-.1-.5-4.1.4 3.2-1.4-.2-.5-4.8 2-2.4.2 5.5-6-.4-.4-5.9 6.4-6 .6.2-.5 9.9-9-.4-.4-8.6 7.9 6.6-8.5-.4-.3-6 7.9 3.6-9.4-.5-.2-4.2 11.1-1.3 1.7h-.1l.3-6.5 2.8-7.3-.5-.2-2.2 5.7.1-1.7h-.5l-.1 3.4-1.3 3.3-1.8-10.8-.5.1 2 11.7-.9 2.2-.2-.4-3.6-13.7-.5.1 3.1 11.7-5.5-9.4-.5.3 6.4 11.1-.5-.4-8.2-9.7-.4.3 6.8 8-8.8-6.4-.3.4 10.6 7.7 1 1.1-1.7.9-11.3-4.9-.2.5 10.7 4.6-5.1-.9-7.3-4.2-.3.5 6 3.4-6.8-1.2-.1.5 8.3 1.4 2 1.1-10.7.4v.5l11.6-.5.1.1-3.4 1.9-8.2 1 .1.5 6.8-.9-6.3 3.5.3.5 7.5-4.2 6.1-.8.7.4-.1.2L144 606l.2.5 12.6-5-4.2 5.6-6.7 3.1.2.5 5.8-2.7-3.9 5.1.4.3 4.5-5.9 2.2-1-4.7 7.7.5.3 5.1-8.4 2-.9-.2 1.7-4.4 9.2.5.2 3.7-7.7-1.1 8.7.5.1 1.3-10.3 1.3-2.6 1.2-.5-1.6 9.5.5.1 1.7-9.8h.1l.8 2.3.7 11.6h.5l-.6-9.6 3.4 9.8.5-.2-4-11.7-.2-2.5.6.1 5.9 11.8.5-.2-5.7-11.4.8.2 7.3 10.3.4-.3-6.9-9.8 1.6.3 7.3 7.8.4-.4-6.7-7.2 6.3 1.4 1.8.9.2-.4 1.7.4.1-.5-3.7-.8-9.6-4.8.5-.6 13.7 4 .2-.5-13.4-3.9.5-.5-.1-.2zm-3 2-1 .9-1-1.9 1.5.5.5.5zm-8.5-2.5 3.4-.1h.1l-.1.5-.5.6-1.4.2-1.9-1.1.4-.1zm4.8 3.7-1 2-.5.2.4-2.9 1.1.7zm9-6.9-1.1 1.1-4.1 1.8-1.4-.2.8-2.2 5.8-.5zm-7.2-4.9-.2 5-.4.1-.4-2.4 1-2.7zm-1.2 5.1-.8.1.6-1.5.2 1.4zm-1.7 1 .1.2-.1 1-.5-.1-.8-.4 1.3-.7zm-6.6.7 3.2.5-.5.3h-1.2l-1.5-.8zm-.4 3.2 2.5-1.4 1.5.9-4 .5zm1.6 6.4 4.1-5.5.5-.2.2.1-2.8 4.7-2 .9zm2.9-1.3 1.9-3.1-.3 2.4-1.6.7zm7-2.4-.3-.6.2-.3.7 1-.6-.1zm1.5.3-1.1-1.6.4-.4 2.2 2.3-1.5-.3zm2.3.5-2.5-2.7 7.5 3.8-5-1.1zM220.6 608.8l10.6 1.3.1-.5-8.7-1 8.7-1.1-.3-.5-10.4 1.3 1.2-1.3 3.8-1.6 4.8-.5-.1-.4-3.4.3 2.6-1.1-.2-.4-4 1.7-2 .2 4.6-5-.3-.3-4.9 5.4-5 .5.2-.4 8.2-7.5-.3-.3-7.2 6.6 5.5-7.1-.4-.3-5 6.5 3-7.8-.4-.2-3.5 9.3-1.1 1.4h-.1l.2-5.5 2.3-6-.4-.2-1.8 4.8.1-1.4h-.5l-.1 2.8-1.1 2.8-1.5-9-.4.1 1.6 9.7-.7 1.9-.2-.4-3-11.4-.4.1 2.6 9.8-4.6-7.9-.4.2 5.3 9.2-.4-.3-6.8-8.1-.4.3 5.6 6.7-7.4-5.3-.3.4 8.9 6.4.8.9-1.4.8-9.4-4.1-.2.4 8.9 3.9-4.2-.7-6.1-3.5-.2.4 5 2.8-5.7-1-.1.4 6.9 1.2 1.7 1-8.9.4v.5l9.6-.4.1.1-2.9 1.6-6.8.9.1.5 5.7-.7-5.3 2.9.2.4 6.3-3.5 5.1-.7.6.3-.1.1-11.2 4.5.2.4 10.5-4.2-3.5 4.6-5.6 2.6.2.4 4.8-2.2-3.2 4.3.4.3 3.7-5 1.8-.8-3.9 6.4.4.2 4.2-7 1.7-.8-.2 1.4-3.7 7.6.4.2 3.1-6.4-.9 7.3.5.1 1.1-8.6 1.1-2.1 1-.5-1.3 7.9.5.1 1.4-8.2h.1l.6 1.9.6 9.6h.5l-.5-8 2.8 8.2.4-.1-3.3-9.8-.1-2.1.5.1 4.9 9.9.4-.2-4.8-9.5.7.1 6.1 8.6.4-.3-5.8-8.1 1.4.3 6.1 6.5.3-.3-5.6-6 5.2 1.1 1.5.7.2-.4 1.4.3.1-.5-3-.7-8-4 .4-.5 11.4 3.3.1-.4-11.2-3.3.4-.4.4-.3zm-2.5 1.6-.8.8-.8-1.6 1.2.5.4.3zm-7.1-2.1 2.9-.1h.1l-.1.4-.4.5-1.2.2-1.6-.9.3-.1zm4 3.1-.8 1.7-.4.2.3-2.4.9.5zm7.5-5.8-.9 1-3.4 1.5-1.1-.1.7-1.8 4.7-.6zm-6.1-4-.2 4.2h-.4l-.3-2 .9-2.2zm-1 4.2-.7.1.5-1.2.2 1.1zm-1.4.9.1.2-.1.8-.4-.1-.7-.3 1.1-.6zm-5.4.5 2.7.4-.4.2h-1l-1.3-.6zm-.4 2.7 2.1-1.2 1.3.7-3.4.5zm1.3 5.3 3.4-4.6.4-.2.2.1-2.4 3.9-1.6.8zm2.4-1.1 1.6-2.6-.3 2-1.3.6zm5.9-2-.3-.5.2-.2.6.9-.5-.2zm1.2.3-1-1.3.3-.3 1.8 2-1.1-.4zm2 .5-2.1-2.3 6.3 3.2-4.2-.9zM321.2 609.7l5.8.7v-.3l-4.8-.6 4.8-.6v-.2l-5.8.7.7-.7 2.1-.9 2.7-.3v-.2l-1.9.2 1.5-.6-.1-.2-2.2.9-1.1.1 2.5-2.8-.2-.2-2.7 3-2.8.3.1-.2 4.6-4.2-.2-.2-4 3.6 3-3.9-.2-.2-2.8 3.6 1.7-4.3-.2-.1-2 5.1-.6.8h-.1l.1-3 1.3-3.3-.2-.1-1 2.6v-.8h-.3l-.1 1.5-.6 1.5-.8-5h-.2l.9 5.4-.4 1-.1-.2-1.7-6.3-.2.1 1.4 5.4-2.5-4.4-.2.1 2.9 5.1-.2-.2-3.8-4.5-.2.2 3.1 3.7-4.1-3-.2.2 4.9 3.6.5.5-.8.4-5.2-2.3-.1.2 5 2.1-2.3-.4-3.4-1.9-.1.2 2.8 1.6-3.2-.5v.2l3.8.7.9.5-4.9.2v.3l5.3-.2h.1l-1.6.9-3.8.5v.3l3.2-.4-2.9 1.6.1.2 3.5-1.9 2.8-.4.3.2-.1.1-6.2 2.5.1.2 5.8-2.3-1.9 2.6-3.1 1.4.1.2 2.7-1.2-1.8 2.4.2.1 2.1-2.7 1-.5-2.2 3.5.2.1 2.3-3.9.9-.4-.1.8-2.1 4.2.2.1 1.7-3.5-.5 4h.3l.6-4.8.6-1.2.5-.3-.7 4.4h.2l.8-4.5.4 1.1.3 5.3h.3l-.3-4.4 1.6 4.5.2-.1-1.9-5.4-.1-1.2.3.1 2.7 5.5.2-.1-2.6-5.3.4.1 3.4 4.7.2-.1-3.2-4.5.8.2 3.4 3.6.2-.2-3.1-3.3 2.9.6.8.4.1-.2.8.2.1-.3-1.7-.4-4.4-2.2.2-.3 6.3 1.8.1-.2-6.2-1.8.2-.2.4.3zm-1.3.9-.4.4-.4-.9.7.3.1.2zm-4-1.1 1.6-.1h.1v.2l-.2.3-.7.1-.9-.5h.1zm2.2 1.7-.5.9-.2.1.2-1.3.5.3zm4.2-3.3-.5.5-1.9.8-.6-.1.4-1 2.6-.2zm-3.4-2.2-.1 2.3h-.2l-.2-1.1.5-1.2zm-.5 2.4h-.4l.3-.7.1.7zm-.8.4v.1l-.1.5h-.2l-.4-.2.7-.4zm-3 .3 1.5.2-.2.1h-.6l-.7-.3zm-.2 1.5 1.2-.6.7.4-1.9.2zm.7 3 1.9-2.5.2-.1.1.1-1.3 2.2-.9.3zm1.3-.6.9-1.4-.1 1.1-.8.3zm3.3-1.1-.1-.3.1-.1.3.5-.3-.1zm.7.1-.5-.7.2-.2 1 1.1-.7-.2zm1.1.3-1.2-1.3 3.5 1.8-2.3-.5zM451.3 607.3l11.3 1.3.1-.5-9.4-1.1 9.3-1.2-.1-.5-11.2 1.4 1.3-1.4 4.1-1.8 5.2-.5-.1-.5-3.6.4 2.8-1.2-.2-.5-4.3 1.8-2.1.2 4.9-5.3-.4-.3-5.3 5.8-5.4.5.2-.4 8.8-8.1-.3-.4-7.7 7.1 5.9-7.6-.4-.3-5.4 7 3.2-8.4-.5-.2-3.8 9.9-1.2 1.5h-.1l.2-5.9 2.5-6.5-.5-.2-2 5.1.1-1.5h-.5l-.1 3-1.2 3-1.6-9.6-.5.1 1.8 10.4-.8 2-.2-.4-3.3-12.3-.5.1 2.8 10.5-4.9-8.4-.4.2 5.7 9.9-.5-.3-7.3-8.7-.4.3 6.1 7.1-7.9-5.7-.3.4 9.5 6.9.9 1-1.5.8-10.1-4.4-.2.4 9.6 4.2-4.6-.8-6.5-3.7-.2.4 5.3 3-6.1-1-.1.5 7.4 1.3 1.8 1-9.6.4v.5l10.4-.4.1.1-3.1 1.7-7.4.9.1.5 6.1-.8-5.7 3.1.2.4 6.8-3.7 5.5-.7.6.4-.1.2-12 4.8.2.5 11.3-4.5-3.7 5-6 2.8.2.4 5.2-2.4-3.5 4.6.4.3 4-5.3 2-.9-4.2 6.9.4.3 4.5-7.5 1.8-.8-.2 1.5-4 8.2.5.2 3.3-6.9-1 7.8.5.1 1.2-9.3 1.1-2.3 1-.5-1.4 8.5.5.1 1.5-8.8h.1l.7 2 .6 10.4h.5l-.5-8.6 3 8.8.5-.2-3.6-10.5-.1-2.3.5.1 5.3 10.6.4-.2-5.1-10.2.7.2 6.5 9.2.4-.3-6.2-8.7 1.5.3 6.5 7 .4-.3-6-6.4 5.6 1.2 1.6.8.2-.4 1.5.3.1-.5-3.3-.7-8.6-4.3.5-.5 12.2 3.6.1-.5-12-3.5.4-.5 1-.2zm-2.7 1.7-.9.8-.9-1.7 1.3.5.5.4zm-7.6-2.2 3.1-.1h.1l-.1.5-.4.5-1.3.2-1.7-.9.3-.2zm4.3 3.3-.9 1.8-.4.2.3-2.6 1 .6zm8.1-6.2-.9 1-3.6 1.6-1.2-.1.7-2 5-.5zm-6.5-4.3-.2 4.5h-.4l-.4-2.1 1-2.4zm-1.1 4.5-.7.1.5-1.3.2 1.2zm-1.5.9.1.2-.1.9-.5-.1-.8-.3 1.3-.7zm-5.9.6 2.9.5-.4.2h-1.1l-1.4-.7zm-.4 2.9 2.2-1.2 1.4.8-3.6.4zm1.4 5.7 3.7-4.9.5-.2.2.1-2.5 4.2-1.9.8zm2.6-1.2 1.7-2.8-.3 2.1-1.4.7zm6.3-2.1-.3-.6.2-.2.6.9-.5-.1zm1.4.3-1-1.4.3-.4 2 2.1-1.3-.3zm2.1.5-2.3-2.4 6.8 3.4-4.5-1zM378.9 604.2l9.2 1.1v-.4l-7.6-.9 7.6-1v-.4l-9.1 1.1 1.1-1.2 3.4-1.4 4.2-.4v-.4l-3 .3 2.3-1-.1-.4-3.5 1.5-1.7.2 4-4.4-.3-.3-4.4 4.8-4.4.4.1-.3 7.2-6.6-.3-.3-6.3 5.8 4.8-6.2-.3-.2-4.4 5.7 2.6-6.9-.4-.1-3.1 8.1-.9 1.2h-.1l.2-4.8 2-5.3-.4-.1-1.6 4.2.1-1.3h-.4l-.1 2.4-.9 2.4-1.3-7.8-.4.1 1.4 8.5-.6 1.6-.2-.3-2.6-10-.4.1 2.3 8.6-4-6.9-.4.2 4.7 8.1-.4-.3-6-7.1-.3.3 4.9 5.8-6.4-4.7-.2.3 7.8 5.6.7.8-1.2.7-8.2-3.6-.2.4 7.8 3.4-3.7-.6-5.3-3-.2.4 4.3 2.5-5-.8-.1.4 6.1 1 1.5.8-7.8.3v.4l8.4-.3.1.1-2.5 1.4-6 .8.1.4 5-.6-4.6 2.5.2.4 5.5-3 4.5-.6.5.3-.1.1-9.8 3.9.2.4 9.2-3.7-3.1 4.1-4.9 2.2.2.4 4.2-1.9-2.8 3.7.3.2 3.3-4.3 1.6-.7-3.4 5.6.3.2 3.7-6.1 1.5-.7-.2 1.2-3.2 6.7.4.2 2.7-5.6-.8 6.4h.4l1-7.5.9-1.9.8-.4-1.2 6.9.4.1 1.2-7.2h.1l.6 1.7.5 8.4h.4l-.4-7 2.5 7.2.4-.1-2.9-8.6-.1-1.8.4.1 4.3 8.6.4-.2-4.2-8.3.6.1 5.3 7.5.3-.2-5-7.1 1.2.3 5.3 5.7.3-.3-4.9-5.2 4.6 1 1.3.6.2-.3 1.3.3.1-.4-2.7-.6-7-3.5.4-.4 10 2.9.1-.4-9.8-2.8.4-.4-.1-.6zm-2.2 1.5-.7.7-.7-1.4 1.1.4.3.3zm-6.2-1.8 2.5-.1h.1l-.1.4-.3.4-1 .1-1.4-.8h.2zm3.5 2.7-.7 1.5-.4.2.3-2.1.8.4zm6.6-5.1-.8.8-3 1.3-1-.1.6-1.6 4.2-.4zm-5.3-3.5-.2 3.6h-.3l-.3-1.7.8-1.9zm-.9 3.7-.6.1.4-1.1.2 1zm-1.2.7.1.2-.1.7-.4-.1-.6-.3 1-.5zm-4.8.5 2.3.4-.3.2h-.9l-1.1-.6zm-.3 2.3 1.8-1 1.1.6-2.9.4zm1.1 4.7 3-4 .4-.2.1.1-2.1 3.4-1.4.7zm2.2-1 1.4-2.3-.2 1.7-1.2.6zm5.1-1.7-.2-.5.2-.2.5.7h-.5zm1.1.2-.8-1.2.3-.3 1.6 1.7-1.1-.2zm1.7.4-1.9-2 5.5 2.8-3.6-.8z"/><path class="st10" d="M489.5 181.3h-21.4v1.9h-30.2v-1.9h-2.7l-7.9-7.9v-30.7h62.2z"/><path class="st11" d="M256.3 370.6h31.6v10.2h-31.6zM151.5 200.9h12.4v9.1h-12.4zM325.7 75.1h15.1v8.1h-15.1z"/><path style="fill:#fffcdb" d="M276.2 126.7h46.2V77.9h-7.5V65.8h-38.7z"/><path style="fill:#feeab4" d="M222.1 41.1V96h40.2V41.1h-.9v.4h-1.9v-2.7h-34.8v2.7h-1.9v-.4z"/><path class="st11" d="M312.7 225.9h8.4v8.8h-8.4z"/><path class="st10" d="M281.1 212.9h27.4v24.6h-27.4zM324.3 224.5H379v10.2h-54.7zM276.3 185.5h32.1v23.9h-32.1zM131 201.9h17.2v10.9H131zM165.6 110.4h69.7v20.9h-69.7zM238.5 110.4H273v18.1h-.4v1.9h-27.9v-1.9h-6.2zM322.4 86.5h17.8v55.8h-17.8z"/><path class="st14" d="M379 224.5h-54.7v-37.1h18.4v.4h1.1v-1.2h.7v-1h32.7v1h.6v1.2h1.2zM426.9 48.4h60.5v79.2h-65.2v1.6h-8.9v-.5h-1.1v1.4h-32.6v-1.4h-36V77.6h3.3V49.3H391v16.2h31.2V90h4.7z"/><path style="fill:#d2cce6" d="M332.9 33.5h-60.3v29h3.1v-.4h56.5v.4h.7z"/><path class="st10" d="M346.9 49.3h42.9v7h-42.9z"/><path class="st14" d="M130.5 167.4h101.3v39.9h-64.7v-5.9h6.2v-3.7h-42.8z"/><path class="st10" d="M391 49.3h31.1v16.2H391zM312.7 187.4h11.6v35.3h-11.6z"/><path class="st4" d="M505.4 367.3V33.5H332.9v29.1h-.7v1.9h-16v1.4h-1.3V78h7.5v8.6h17.9v56.7h3.3V77.6h3.3V49.3h75.3V90h4.7V48.4h60.5v79.2h-65.3v1.5h-8.8v1.5h-1.2v-.5h-32.5v3.9h-.7v9.1h4.2v-.5H424v32.1l9.9 9.7h4v-3.3h-2.7l-8-8v-30.6h62.2v38.6H468v3.3h20.9v182.7h-16.3v8.4h.7v4h-.9v2.1H492l.1 23.5h10.2v-23.5h9.9v-14.4h-6.8zM340.8 83.2h-15.1v-8.1h15.1v8.1zM302 379.6v-4h.7v-8.4h-61.6v8.4h.7v4h-.8v2.1h2.8v11.6h56.6v-11.6h2.5v-2.1h-.9zm-14 1.1h-31.6v-10.2H288v10.2z"/><path class="st4" d="M399.5 379.6v-4h.7v-8.4h-17.1V184h-4.2v50.7h-54.5v-12.1h-11.7v-35.3h30V184h-34.2v25.5h-32.1v-22.2h5.2V184h-5.2v-5H273v36.7h4.8V254h3.4v-15.1h.3v-3.3h-.3v-22.8h27.3v26h70.4v128.3h-12.5v8.4h.7v4h-.9v2.1h34.2v-2.1h-.9zm-78.3-144.8h-8.4V226h8.4v8.8zM275.7 65.8v-3.3h-3.2v-29h-11.2v7.7h.9V96H222V41.1h.7v-3.7h-10.9V96h-33V85.5h-64.3v281.7h-5.9v14.4h9v23.5h10.2v-23.6h35.8v-2h-.9v-4h.7V367H131V201.9h17.2v11.4h19v-11.9h6.2v-3.7h-42.8l-.1-97.8h34.6v10.5h70.1v21.4h9.4v-3.3h-6.1v-18.1H273v18.1h-.5v3.3h.5v6.3h3.3V65.8h-.6zM164 200.9v9.1h-12.3v-9.1H164z"/><path transform="rotate(90 202.332 277.167)" style="fill:#feebbe" d="M154.1 220.8h96.5v112.7h-96.5z"/><path class="st17" d="M383.1 223.1h106M383.1 227.8h106M383.1 232.4h106M383.1 237.1h106M383.1 241.7h106M383.1 246.4h106M383.1 251h106M383.1 255.7h106M383.1 260.3h106M383.1 265h106M383.1 269.6h106M383.1 274.3h106M383.1 278.9h106M383.1 283.6h106M383.1 288.2h106M383.1 292.9h106M383.1 297.5h106M383.1 302.2h106M383.1 306.8h106M383.1 311.5h106M383.1 316.1h106M383.1 320.8h106M383.1 325.4h106M383.1 330.1h106M383.1 334.7h106M383.1 339.4h106M383.1 344h106M383.1 348.7h106M383.1 353.3h106M383.1 358h106M383.1 362.6h106M383.1 218.5h106M383.1 213.8h106M383.1 209.2h106M383.1 204.6h106M383.1 199.9h106M383.1 195.3h106M383.1 190.6h106M383.1 186h106M383.6 181.3h47M383.6 176.7h42.1M383.6 172H424M383.6 167.4H424M383.6 162.7H424M383.6 158.1H424M383.6 153.4H424M383.6 148.8H424M383.6 144.1H424M281 223.3h27.5M281 227.9h27.5M281 232.6h27.5M281 237.2h27.5M281.1 241.9h97.8M281.1 246.5h97.8M281.1 251.2h97.8M277.6 255.8h101.3M277.6 260.5h101.3M277.6 265.1h101.3M277.6 269.8h101.3M277.6 274.4h101.3M277.6 279.1h101.3M277.6 283.7h101.3M277.6 288.4h101.3M276.1 293h102.8M276.1 297.7h102.8M276.1 302.3h102.8M276.1 307h102.8M276.1 311.6h102.8M276.1 316.3h102.8M276.1 320.9h102.8M276.1 325.6h102.8M274.6 330.2h104.3M274.6 334.9h104.3M274.6 339.5h104.3M274.6 344.2h104.3M274.6 348.8h104.3M274.6 353.5h104.3M274.6 358.1h104.3M274.6 362.8h104.3M130.9 241.9h146.9M130.9 246.5h146.9M130.9 237.2h146.9M130.9 232.6h146.9M130.9 227.9h146.9M130.9 223.3h146.9M130.9 218.6h146.9M130.9 214H273M167.1 209.3H273M231.8 204.7H273M231.8 200H273M231.8 195.4H273M231.8 190.7H273M231.8 186.1H273M231.8 181.5H273M231.8 176.8h43.6M231.8 172.2h43.6M231.8 167.5h43.6M130.5 162.9h144.9M130.5 158.2h144.9M130.5 153.6h144.9M130.5 148.9h144.9M130.5 144.3h144.9M130.5 139.6h144.2M130.5 135H273M130.5 130.3h35M130.5 125.7h35.1M130.5 121h35.1M130.5 116.4h35.1M130.5 111.7h35.1M130.5 107.1h34.4M130.5 102.4h34.4M130.9 251.2h146.9M130.9 255.8h145.2M130.9 260.5h145.2M130.9 265.1h145.2M130.9 269.8h145.2M130.9 274.4h145.2M130.9 279.1h145.2M130.9 283.7h145.2M130.9 288.4h145.2M130.9 293h143.7M130.9 297.7h143.7M130.9 302.3h143.7M130.9 307h143.7M130.9 311.6h143.7M130.9 316.3h143.7M130.9 320.9h143.7M130.9 325.6h143.7M130.9 330.2H273M130.9 334.9H273M130.9 339.5H273M130.9 344.2H273M130.9 348.8H273M130.9 353.5H273M130.9 358.1H273M130.9 362.8H273M281 218.6h27.5M281 214h27.5M276.3 209.3h32.2M276.3 204.7h32.2M276.3 200h32.2M276.3 195.4h32.2M276.3 190.7h32.2M281.5 186.1h27M276.3 181.5h106M276.7 176.8h105.6M276.7 172.2h105.6M276.7 167.5h105.6M276.7 162.9h105.6M276.7 158.2h105.6M276.7 153.6h105.6M276.7 148.9h105.6M276.7 144.3h101.8M276.7 139.6h45.7M276.3 135h46.1M276.3 130.3h46.1M343.6 139.6h35.3M343.6 135h35.3M344.8 130.3h33.7M437.9 181.3h30.2M430.6 176.7h58.9M427.3 172h62.2M427.3 167.4h62.2M427.3 162.7h62.2M427.3 158.1h62.2M427.3 153.4h62.2M427.3 148.8h62.2M427.3 144.1h62.2"/><path class="st18" d="M286.7 121.6V65.8M305.2 121.6V65.8M276.3 84.4h46.1M276.3 103h46.1"/><path class="st19" d="M280.9 77.2h36.8v50.2h-36.8zM281.5 255.2v110.9M272.6 216.8v149.3"/><path class="st20" d="M156.1 362.4h91.8M156.1 364.8h91.8M293.5 362.4h80M293.5 364.8h80M394.7 362.4h83.2M394.7 364.8h83.2"/><path class="st8" d="M249.2 367.3v-7.5h-94.4v7.1M374.6 367.3v-7.5h-82.2v7.1"/><path class="st21" d="M427.3 154.8h62.2M427.3 156.2h62.2M477.4 156.1v25.2M476 156.1v25.2M276.3 196.1h32.2M276.3 197.5h32.2M281.1 225h27.4M281.1 226.4h27.4"/><path class="st22" d="m489.5 142.7-62.2 20.9h62.2l-20.9 17.7v-17.6M276.3 191.1h32.2l-32.2 18.6M281 231.5h27.5L281 212.9M262.3 75.1h-40.1L262.3 96M273 126.5h-34.4l34.4-16.1M131 201.9l17.2 10.9M324.3 222.7v-35.3l-11.6 35.3M391 49.3v16.2h31.2M422.2 49.3 391 65.5"/><path class="st5" d="M322.4 86.5v55.8h17.9M165.6 110.4v20.9h69.7"/><path style="fill:none;stroke:#000;stroke-width:.4;stroke-linejoin:bevel" d="M131 212.8h17.2"/><path class="st5" d="M276.3 121.6h46.1M276.3 126.7h46.1"/><path class="st8" d="M391 49.6h29.8v29.8H391zM131.2 100.7h32.5v31.4h-32.5zM346.9 56.2h42.9"/><path class="st5" d="M478.3 127.6c-.1-2.9 2.1-8.9 9.1-9.1M480.7 120.5h-5.9V92.7h12.6M480.7 92.7v28.6M481.9 92.7v27.6M486.6 92.7v25.8M434.6 66.8l.6-8.1s.7-3.3 4.2-3.5c3.6-.2 8.5-.9 8.5-.9s1 .1 2.6-.6l1.8-.7s1-.3 2.2-.3h5.6s1.2-.1 2.5.4 2.4 1.1 3.7 1.2c1.3.1 9.2 1 9.2 1s3.1.5 3.8 3.5l.6 6-.6 8.1s-.3 2.7-3.7 3.4l-8.8.5s-1.1 0-2.2.4-2.4 1-4 1h-6.1s-.9.1-1.9-.3c-1-.3-1.9-.6-1.9-.6s-1.3-.4-2.4-.4c-1.1 0-8.2-.4-8.2-.4s-3.7 0-4.5-3.5l-1-6.2z"/><path class="st5" d="m443.2 51.8 1.9.1s-3.9-.2-6.6 1.4c-.1.1-4 1.9-4.3 5"/><path class="st5" d="M460 51.9c2.4.2 3.2.7 4 1 .8.3 2.5.6 2.5.6l8.9 1c4 .7 4.6 4.3 4.6 4.3l.6 7.1-.8 7.7c-1 3.7-4.8 3.7-4.8 3.7l-8.1.3c-1.7 0-2.9.7-2.9.7l-1.3.6c-1.3.6-2.9.6-2.9.6h-5.1c-1.5 0-2.9-.6-2.9-.6s-1.3-.6-2.1-1c-.8-.3-2.2-.4-2.2-.4l-9-.4c-3.8-.7-4.1-3.6-4.1-3.6l-.8-7.5.7-7.8s1.1-3.6 5.1-3.8l8.5-.9s1.3-.1 2.2-.4c.9-.3 2.6-1.2 4.4-1.2h5.5z"/><path class="st5" d="M480 58.8c-.3-1.1-.4-3.1-3.5-5.1-3.1-2-5.6-1.7-5.6-1.7M460.1 79.5h9.8s4 0 6.8-1.5 2.5-2.5 3.2-4.4M454.1 79.5h-10.9c-.3 0-1.5 0-4.3-1 0 0-3.9-1.3-4.6-4.9"/><path class="st5" d="M471.7 50.8s13.9 1.6 13.9 15.9c0 13.7-13.4 15.7-13.4 15.7h-29.3s-14.1-2.1-14.1-15.7c0-14 14-15.8 14-15.8"/><path class="st5" d="m470.1 48.4-.1.4s-.9 1.9-.9 2v1.1h2s.2 0 .2-.1l1-1.8.6-1.5M441.6 48.4l.8 2 .8 1.3s.1.1.2.1h2v-1.1l-.2-.4-.9-2M469.2 50.3h-24.1M469 51.7h-23.6M487.4 84h-60.5"/><circle class="st5" cx="457.2" cy="75.4" r="1.6"/><path class="st5" d="M346.9 77.2h7.6s7 .7 14.4.7 14.4-.7 14.4-.7h6.5V49.3M383.3 56.3h6.5M354.5 56.3h-7.6"/><path class="st5" d="m383.3 55.6-4.3 1.6c-1.1.4-1.2 2-1.2 2-.2 2 0 3.9.3 6.4.2 2.5 1.2 4.4 3.3 6.3 2.1 2 1.9 4.6 1.9 4.6V52.3c0-.8-.8-.9-.8-.9l-1-.1s-5.3-.6-12.6-.6-13.6.7-13.6.7c-.8.1-.8.9-.8.9v24.2s-.3-2.7 1.9-4.6c2.2-2 3.2-4 3.5-7.7s.1-5.5.1-5.5-.2-1.2-1.2-1.6-4.3-1.5-4.3-1.5"/><path class="st5" d="M354.5 55.2s8.2.8 14.4.8c6.2 0 14.4-.8 14.4-.8"/><circle class="st5" cx="368.9" cy="60.9" r="1.2"/><path class="st5" d="M348.5 61h.9v7.4h-.9zM346.9 64.2h1.6v1.1h-1.6zM352.3 208.2c0-9-13.5-9.1-13.5-9.1s-6.4-.2-9-.2c-2.6 0-2.2 1.5-2.2 1.5s-.2 5.2-.2 7.7.2 8 .2 8-.3 1.5 2.2 1.5c2.6 0 9-.2 9-.2s13.5-.2 13.5-9.1M316.7 215.4c0 2.2 1.7 1.9 1.7 1.9h5.8c2.2 0 2.3-1.9 2.3-1.9s.5-1.9.5-7.6c0-5.7-.5-7-.5-7s-.1-1.9-2.3-1.9h-5.8s-1.7-.2-1.7 1.9v14.6zM327.7 216.5h-1.6M327.7 200.3h-1M335.2 198.8v18.6"/><path class="st5" d="m331.3 198.7-.3 2.7h1.9v12.9H331l.4 3M341.2 187.4v4c0 .3.3.6.7.7h.2c.3 0 .6-.3.7-.7v-4M316.3 187.4v3.1h24.8"/><path class="st5" d="M342 192h-26.5s-.8 0-.8-.9v-3.7M324.3 224.5h54.6M360.1 233.9h14.4c.1 0 .2-.1.2-.2v-6.5c0-.1-.1-.2-.2-.2h-14.4c-.1 0-.2.1-.2.2v6.5c0 .1.1.2.2.2z"/><path class="st5" d="M370.1 226.9c.1 0 .2.1.2.2v6.5c0 .1-.1.2-.2.2"/><circle class="st5" cx="365" cy="231.6" r="1"/><path class="st5" d="M375.2 234.6h-15.8c-.1 0-.2-.1-.2-.2v-7.9c0-.1.1-.2.2-.2h15.8c.1 0 .2.1.2.2v7.9c0 .1-.1.2-.2.2zM376.7 224.7h.9v7.4h-.9zM377.6 227.8h1.3v1.1h-1.3zM135.4 191.7c0 .6.5 1 1 1h25.9c.6 0 1-.5 1-1v-21.3c0-.6-.5-1-1-1h-25.9c-.6 0-1 .5-1 1v21.3z"/><path class="st5" d="M136.6 171h25.6v18.2h-25.6zM211.9 182.6c0 2-1.6 3.7-3.7 3.7-2 0-3.7-1.6-3.7-3.7 0-2 1.6-3.7 3.7-3.7 2 0 3.7 1.7 3.7 3.7z"/><path class="st5" d="M167.1 207.3h64.7v-39.9H130.5"/><path class="st5" d="M189.5 192.5c0 1.3 1 2.3 2.3 2.3h32.6c1.3 0 2.3-1 2.3-2.3v-19.6c0-1.3-1-2.3-2.3-2.3h-32.6c-1.3 0-2.3 1-2.3 2.3v19.6z"/><circle class="st5" cx="142.7" cy="177.2" r="4.6"/><circle class="st5" cx="156" cy="177.2" r="4.6"/><circle class="st5" cx="149.4" cy="185.3" r="3.3"/><path class="st5" d="M152.3 189.3c-.8.6-1.8.9-2.9.9-1.1 0-2.1-.3-2.9-.9h-9.8v2.3h25.6v-2.3h-10zM209.9 171.3c2.8 0 9.9 0 11.5.2 1.6.2 4.5 1.8 4.5 4.9 0 3.1.2 9.8-.1 10.6-.3.8-1 3.8-5.3 3.8s-3.6-.1-3.6-.1-2 .6-3.2 1.4c-1.2.8-2.7 1.8-5.5 1.8h-.2c-2.8 0-4.3-1-5.5-1.8-1.2-.8-3.2-1.4-3.2-1.4s.7.1-3.6.1-5-3-5.3-3.8c-.3-.8-.1-7.4-.1-10.6 0-3.1 2.9-4.7 4.5-4.9s8.7-.2 11.5-.2h3.6z"/><path class="st6" d="M172.8 197.1v.6h-.6"/><path class="st24" d="M170.9 197.7h-.1"/><path class="st25" d="M170.8 197.7h-39.2"/><path class="st6" d="M131.6 197.7h-.6v-.6"/><path class="st26" d="M131 195.8"/><path class="st27" d="M131 195.8V170"/><path class="st6" d="M131 170v-.6h.6"/><path class="st24" d="M132.9 169.4"/><path class="st25" d="M132.9 169.4h39.3"/><path class="st6" d="M172.2 169.4h.6v.6"/><path class="st26" d="M172.8 171.3"/><path class="st27" d="M172.8 171.3v25.8"/><path class="st28" d="M412.2 129.4h-32.6M273.8 216.8v111"/><path class="st6" d="M275.3 291v-.7"/><path style="fill:none;stroke:#000;stroke-width:.4;stroke-dasharray:1.2791,1.2791" d="M275.3 289v-70.9"/><path class="st6" d="M275.3 217.4v-.6"/><path class="st28" d="M276.9 254v-37.2"/><path class="st6" d="M383.6 143.2h-5.1v1.1h3.1v.7h.7v-.7h1.3zM383.6 184.1h-5.1v-1.2h3.1v-.7h.7v.7h1.3z"/><path transform="rotate(-180 382.914 163.642)" class="st6" d="M382.3 144.3h1.3v38.6h-1.3z"/><path transform="rotate(-180 402.871 145.047)" class="st6" d="M383.6 144.3h38.6v1.4h-38.6z"/><path class="st6" d="M383.6 182.9c21.3 0 38.6-17.3 38.6-38.6M276.7 179h-4.1v-1.2h2.1v-.7h.7v.7h1.3zM276.7 138.1h-4.1v1.1h2.1v.7h.7v-.7h1.3z"/><path transform="rotate(-180 276.084 158.528)" class="st6" d="M275.4 139.2h1.3v38.6h-1.3z"/><path transform="rotate(-180 296.041 177.124)" class="st6" d="M276.7 176.4h38.6v1.4h-38.6z"/><path class="st6" d="M276.7 139.2c21.3 0 38.6 17.3 38.6 38.6M272.6 215.7h5.2v1.1h-5.2zM277.6 254h3.9v1.2h-3.9zM272.6 366.1h9v1.1h-9z"/><path class="st6" d="M273 327.8h1.5v38.4H273zM274.6 291h1.5v38.4h-1.5zM276.1 254h1.5v38.4h-1.5zM471.9 379.6h1.6v-4h-.7v-8.9h-.9zM401 379.6h-1.5v-4h.7v-8.9h.8zM472.5 379.6v2.8h-72.1v-2.8M436.3 365.1v7.1M401 366.7h70.9"/><path class="st6" d="M401 368.2h37v1.2h-37zM435.3 369.4h36.6v1.2h-36.6zM434.9 373.4h2.9v2.6h-2.9zM401 376h37v1.2h-37z"/><path class="st6" d="M435.3 377.1h36.6v1.2h-36.6zM436.3 381.4v-5.5M365.6 379.6h1.5v-4h-.7v-8.8h-.8zM303.6 379.6H302v-4h.8v-8.8h.8zM366.2 379.6v2.8H303v-2.8M334.6 365.1v7.1M303.6 366.8h62"/><path class="st6" d="M303.6 368.3H336v1.2h-32.4z"/><path class="st6" d="M333.2 369.4h32.4v1.2h-32.4zM333.1 373.4h2.9v2.6h-2.9zM303.6 376H336v1.2h-32.4zM333.2 377.2h32.4v1.2h-32.4zM334.6 381.5v-5.6M240.3 379.6h1.6v-4h-.8v-8.8h-.8zM164.4 379.6h-1.6v-4h.8v-8.8h.8zM163.8 379.6v2.8h77.1v-2.8M202.4 365.1v7.1M164.4 366.8h75.9"/><path class="st6" d="M164.4 368.3h39.4v1.2h-39.4z"/><path class="st6" d="M201 369.4h39.3v1.2H201zM200.9 373.4h2.9v2.6h-2.9zM164.4 376h39.4v1.2h-39.4zM201 377.2h39.3v1.2H201zM202.4 381.5v-5.6M277.4 65.8v-1.9h-.7v-1.8h-1v3.7zM314.5 65.8v-1.9h.7v-1.8h1v3.7zM314.5 65.8h-37.1M314.5 63.9h-37.1M315.2 62.1h-38.5"/><path class="st6" d="M315.2 63.9c0-21.3-15.6-40-38.6-40V62"/><path transform="rotate(-90 324.19 63.228)" class="st6" d="M323 55.2h2.3v16H323z"/><path class="st6" d="M222.8 36.9h1.2v1.9h.7v2.7h-1.9zM259.5 38.8h.7v-1.9h1.2v4.6h-1.9z"/><path class="st6" d="M224 37h36.3v1.9H224zM260.2 37C259.6 16.9 244 1.2 224 1.2V37M281.5 184.1h27v1.4h-27zM281.5 184.1l2.3-13.8 2.4 13.8"/><path transform="rotate(-180 258.618 131.1)" class="st6" d="M244.7 130.4h27.9v1.4h-27.9z"/><path class="st6" d="m272.6 131.8-2.4 13.7-2.3-13.7M281.5 237.6h27v1.4h-27zM281.5 239l2.3 13.7 2.4-13.7"/><path transform="rotate(-180 453.032 183.864)" class="st6" d="M437.9 183.2h30.2v1.4h-30.2z"/><path class="st6" d="m468.1 184.6-2.5 14.9-2.5-14.9M379 183.6v4.2h-1.2v-1.2h-.6v-1h.6v-2zM342.7 183.6v4.2h1.1v-1.2h.7v-1h-.7v-2z"/><path transform="rotate(90 377.152 166.99)" class="st6" d="M360.5 166.3h33.3v1.4h-33.3z"/><path transform="rotate(-90 360.84 184.632)" class="st6" d="M359.8 167.6h2v34h-2z"/><path class="st6" d="M343.8 183.6c0-18.8 15.2-33.3 34-33.3"/><path transform="rotate(-90 424.29 127.168)" class="st6" d="M423.8 124.6h1v5.2h-1z"/><path transform="rotate(-90 424.291 90.496)" class="st6" d="M423.8 87.9h1v5.2h-1z"/><path class="st6" d="M421.7 126.7V91M423.9 126.6V91M425.3 126.7V91M426.9 126.7V91M425.3 91c18 0 32.8 14.1 34.4 31.7l-34.4 3.9"/><path transform="rotate(-90 379.046 132.06)" class="st6" d="M377 131.5h4.1v1.2H377z"/><path transform="rotate(-90 344.18 131.396)" class="st6" d="M341.5 130.8h5.4v1.2h-5.4z"/><path transform="rotate(-90 362.194 129.359)" class="st6" d="M361.5 111.9h1.3v34.9h-1.3z"/><path class="st6" d="M412.2 128.7h1.2v2h-1.2zM271.1 328.6h7.7M272.8 291.7h7.8M361.6 126.9v5.7"/><path class="st7" d="M261.4 41.1h.9V96h-40.2V41.1h.7M275.7 62.5h-3.1v-29h-11.2v3.6M276.3 138.1V65.8M303 381.7h-2.6v11.6h-56.7v-11.6H241M241.1 367.3h61.7M400.2 367.3h-17.1V184.1M366.2 381.7h34.2M308.5 239h70.4v128.3h-12.5M281.5 237.6v-1.9h-.4v-22.8h27.4v24.7M281.1 254v-15h.4M277.8 216.8V254M273 179v36.7M281.5 184.1h-5.2V179M308.5 185.5v24h-32.2v-22.1h5.2v-1.9M342.7 184.1h-34.2M378.9 187.8v47h-54.6v-12.1h-11.6v-35.3h30M472.7 381.7h19.4v23.4h10.3v-23.4h9.8v-14.4h-6.8V33.5H332.9v29h-.7"/><path class="st7" d="M468.1 184.6h21v182.7h-16.5M437.9 183.2v-1.9h-2.7l-7.9-7.9v-30.7h62.2v38.6h-21.4v1.9"/><path class="st7" d="M383.1 143.2v-.5H424v32.1l9.9 9.8h4M378.9 134.1v9.1M412.2 130.2h-32.6M422.2 127.6v1.6h-8.9M426.9 90V48.4h60.5v79.2h-60.5M343.6 128.7V77.6h3.3V49.3h75.3V90M314.9 65.8v12.1h7.5v8.6h17.9v56.7h3.3v-9.1"/><path class="st7" d="M325.7 75.1h15.1v8.1h-15.1zM256.3 370.5h31.6v10.2h-31.6zM151.5 201h12.4v9.1h-12.4zM312.7 225.9h8.4v8.8h-8.4z"/><path class="st7" d="M222.8 37.4h-10.9V96h-33V85.5h-64.3v281.8h-5.9v14.4h9v23.4h10.2v-23.4h35.9"/><path class="st7" d="M163.6 367.3H131V201.9h17.2v11.4h18.9v-11.9h6.2v-3.7h-42.8V100h34.6v10.4h70.2v21.4h9.4v-3.3h-6.1v-18.1H273v18.1h-.4v3.3h.4v6.3"/><path d="M294.3 85.5v1.7h4.5v.8H294l-1.7 3.1c.5.4 1 .7 1.5 1.1l2.2-3 .8.5-3.8 4.8c1.2-.1 2.6-.2 4-.4-.4-.5-.8-.9-1.2-1.4l.7-.5c1.1 1.2 1.9 2.2 2.4 2.9l-.7.5-.6-.9c-3.2.4-6 .7-8.2.8l-.2-.8c.9 0 1.8-.1 2.8-.1l1.3-1.7c-1-.9-2.2-1.7-3.6-2.5l.4-.7c.6.3 1.1.6 1.6 1L293 88h-4v-.8h4.5v-1.7h.8zM304.8 85.9v3.5h-3.2v6.4h-.8v-9.9h4zm-.8 1.4v-.7h-2.4v.7h2.4zm0 1.3v-.7h-2.4v.7h2.4zm6-2.7v8.9c0 .4-.1.6-.3.7-.2.1-.7.2-1.4.2 0-.3-.1-.6-.3-.9h1c.1 0 .2-.1.2-.2v-5.2h-2.7l.7.3-.7 1.1h1.6v.6h-2.6v.9h3v.7h-2.6c.2.4.4.7.7.9.3.3.7.6 1.4.8-.2.1-.4.3-.5.6-.6-.3-1.1-.7-1.5-1-.3-.3-.5-.6-.7-1.1-.1.2-.2.5-.3.7-.4.6-1.2 1.1-2.2 1.5-.1-.3-.3-.5-.6-.7 1-.3 1.7-.7 2.1-1.3.1-.1.2-.3.3-.5h-2.3v-.7h2.4v-.9h-2.1v-.6h1.3c-.2-.3-.4-.6-.7-.9l.5-.4c.3.3.7.7.9 1l-.4.3h1.4l.7-1.4h-.4v-3.5h4.1zm-.8.7h-2.4v.7h2.4v-.7zm0 1.3h-2.4v.7h2.4v-.7zM355.6 112.5v-.7h5.5l.4-4.2h-4.8v-.7h5.5l-.4 5h2.3v.7h-8.5zM365 110v-.7h7.6v.7H365zM378.1 109c-.1 1.5-.4 2.5-.8 3.1-.4.6-1.2 1.2-2.5 1.8-.1-.2-.3-.5-.5-.7 1.2-.4 1.9-.9 2.3-1.4.4-.5.6-1.4.7-2.7h-4v-.7h8.4v.7h-3.6zm-3.3-2.2v-.7h5.6v.7h-5.6zM386.6 109.7v4.3h-.6v-3.8c-.8.7-1.8 1.3-2.9 1.8-.1-.2-.2-.4-.4-.6.9-.4 1.8-.9 2.8-1.7.9-.7 1.7-1.4 2.3-2.3l.6.5c-.6.8-1.2 1.3-1.8 1.8zM390.1 110.7v-4.6h.7v4.6h-.7zm5-2.6c0 1.2-.1 2.1-.3 2.7-.2.7-.5 1.3-1 1.8s-1.3.8-2.4 1.2c-.1-.3-.2-.5-.4-.7 1.4-.4 2.3-.9 2.8-1.6.4-.6.6-1.7.6-3.3v-2.5h.7v2.4zM401.2 109c-.1 1.5-.4 2.5-.8 3.1-.4.6-1.2 1.2-2.5 1.8-.1-.2-.3-.5-.5-.7 1.2-.4 1.9-.9 2.3-1.4.4-.5.6-1.4.7-2.7h-4v-.7h8.4v.7h-3.6zm-3.3-2.2v-.7h5.6v.7h-5.6zM409.8 109.7v4.3h-.6v-3.8c-.8.7-1.8 1.3-2.9 1.8-.1-.2-.2-.4-.4-.6.9-.4 1.8-.9 2.8-1.7.9-.7 1.7-1.4 2.3-2.3l.6.5c-.6.8-1.3 1.3-1.8 1.8zM332.2 90.2v1.2h3.2v.5H332l-1.2 2.2c.4.3.7.5 1 .8l1.6-2.1.6.3-2.7 3.4c.9-.1 1.8-.1 2.9-.3-.3-.3-.6-.7-.9-1l.5-.4c.8.8 1.3 1.5 1.7 2.1l-.5.4c-.1-.2-.3-.4-.5-.6-2.3.3-4.3.5-5.9.5l-.1-.6c.6 0 1.3 0 2-.1l.9-1.2c-.7-.6-1.6-1.2-2.6-1.8l.3-.5c.4.2.8.5 1.2.7l.9-1.9h-2.9v-.5h3.2v-1.2h.7zM331.5 98.6v2.5h-2.3v4.5h-.6v-7h2.9zm-.6 1.1v-.5h-1.7v.5h1.7zm0 .9v-.5h-1.7v.5h1.7zm4.3-2v6.3c0 .3-.1.5-.2.5-.2.1-.5.1-1 .2 0-.2-.1-.4-.2-.6h.7c.1 0 .1 0 .1-.2v-3.7h-1.9l.5.2-.5.8h1.1v.4H332v.7h2.1v.5h-1.8c.2.3.3.5.5.6.2.2.5.4 1 .6-.1.1-.3.2-.4.5-.4-.2-.8-.5-1-.7-.2-.2-.4-.5-.5-.8-.1.2-.2.3-.2.5-.3.4-.8.8-1.5 1.1-.1-.2-.2-.4-.4-.5.7-.2 1.2-.5 1.5-.9.1-.1.1-.2.2-.3h-1.6v-.5h1.7v-.7H330v-.4h.9c-.1-.2-.3-.4-.5-.6l.4-.3.7.7-.3.2h1l.5-1h-.3v-2.5h2.8zm-.6.5h-1.7v.5h1.7v-.5zm0 1h-1.7v.5h1.7v-.5zM329.3 107.6v3.7c.3-.1.7-.2 1.1-.4v-4.3h.5v7.2h-.5v-2.4c-.7.3-1.4.5-2.1.8l-.1-.6c.2 0 .4-.1.6-.2v-3.9h.5zm6.1-.1c-.4 1.6-.9 2.8-1.4 3.6-.1.2-.2.3-.3.5.5.6 1.1 1.2 1.9 1.7-.2.1-.3.2-.4.4-.8-.5-1.4-1.1-1.9-1.7-.5.6-1.2 1.2-1.9 1.8-.1-.2-.2-.4-.4-.5.8-.5 1.4-1.1 2-1.8-.1-.1-.2-.3-.2-.4-.4-.9-.7-2.1-.7-3.4h-.7v-.5h3.6l.4.3zm-2 3.5c0-.1.1-.1.1-.2.5-.9.9-1.9 1.2-3.2h-2.1c0 1.4.3 2.6.8 3.4zM330 115l-.8 1.6c.2.1.3.3.5.4l.8-1.4.5.3-1.5 2.5c.3 0 .7-.1 1-.1-.1-.1-.1-.3-.2-.5l.5-.2c.2.4.4.8.5 1.3l-.5.2c0-.1-.1-.3-.1-.4-.2 0-.5.1-.7.1v3.3h-.5V119c-.5.1-.9.1-1.3.1l-.1-.5h.8l.5-1c-.4-.4-.8-.7-1.3-1l.3-.5c.1.1.2.1.4.2l.7-1.6.5.3zm-.9 4.7c0 .6-.2 1.3-.4 1.9l-.5-.1c.2-.5.3-1.2.4-1.9l.5.1zm2.1 1.3c-.1 0-.3 0-.5.1-.2-.4-.2-.9-.3-1.5l.5-.1c0 .6.1 1.1.3 1.5zm1.8-4.6v-1.6h.5v1.6h1.7v5c0 .3-.1.5-.2.5-.1.1-.4.1-.8.2 0-.2-.1-.4-.2-.6h.6c.1 0 .1 0 .1-.2v-4.4h-1.2c0 .4 0 .8-.1 1 .4.6.8 1.1 1.2 1.7l-.5.4c-.2-.4-.5-.9-.9-1.4-.2.6-.4 1.1-.8 1.7-.1-.1-.3-.3-.5-.4v2.1h-.5v-5.7h1.6zm-.2 2.1c.1-.3.2-.8.2-1.5h-1v3c.4-.5.6-1 .8-1.5zM335.2 126.5c-.5-.6-1-1-1.5-1.2-.6-.3-1.2-.5-1.8-.5-.7 0-1.3.2-1.8.5s-.9.6-1.5 1.2l-.4-.4c.6-.6 1.1-1 1.6-1.3.6-.4 1.3-.5 2.1-.5s1.5.2 2.1.5c.5.3 1 .7 1.6 1.3l-.4.4zM332.2 128.7v4.6h-.6v-4.6h-2v-.5h4.6v.5h-2zM334 136.8c-.6.4-1.3.5-2.1.5s-1.5-.2-2.1-.5c-.5-.3-1-.7-1.6-1.3l.4-.4c.5.6 1 1 1.5 1.2.6.3 1.2.5 1.8.5.7 0 1.3-.2 1.8-.5.4-.2.9-.6 1.5-1.2l.4.4c-.5.5-1.1 1-1.6 1.3zM156.8 205.8c-.3.2-.6.3-1 .3h-1.3v2h-.5v-4.6h1.6c.5 0 .9.1 1.2.3.4.2.5.6.5 1s-.2.7-.5 1zm-1.1-1.9h-1.2v1.7h1.2c.7 0 1.1-.3 1.1-.8-.1-.6-.4-.9-1.1-.9zM160.9 207.9c-.3.2-.7.3-1.1.3-.5 0-.8-.1-1.2-.3-.3-.2-.5-.6-.6-1h.6c.1.3.2.6.4.7.2.1.4.2.8.2.3 0 .5-.1.7-.2.2-.2.4-.4.4-.6 0-.3-.4-.6-1.1-.9-1-.4-1.5-.9-1.5-1.4 0-.4.2-.7.5-.9.3-.2.6-.3 1-.3.7 0 1.2.4 1.5 1.2h-.6c-.2-.5-.5-.7-.9-.7-.3 0-.5.1-.6.2-.2.1-.3.3-.3.6 0 .2.2.5.7.7.4.2.8.5 1.3.7.5.3.7.6.7 1-.2.1-.4.5-.7.7zM137.2 205.6V204h.4v1.6h.8v.5h-.8v.6c.1.2.3.3.4.3.1.1.3.2.5.3-.1.1-.2.3-.3.4-.2-.1-.4-.3-.5-.4 0 0-.1 0-.1-.1v3.3h-.4v-3.4c-.1.2-.2.5-.3.7-.2.4-.3.6-.5.7-.1-.2-.2-.3-.3-.4.2-.3.4-.7.6-1 .1-.3.3-.7.4-1.1h-.8v-.5h.9zm3.1-1.3v5.5c0 .2 0 .3-.1.3-.1.1-.3.1-.8.2 0-.2-.1-.4-.1-.5h.3c.1 0 .2 0 .2-.1v-1.6h-.7c0 .3-.1.5-.1.7-.1.6-.3 1.2-.6 1.7-.1-.2-.2-.3-.4-.5.2-.4.4-.9.5-1.5.1-.5.1-1 .1-1.7v-2.5h1.7zm-.5 3.4v-1.2h-.7v1.2h.7zm0-1.7v-1.2h-.7v1.2h.7zm2.8-1.7v5.7c0 .1 0 .3-.1.3-.1.1-.4.1-.8.2 0-.2-.1-.4-.1-.5h.4c.1 0 .2 0 .2-.1v-1.8h-.8c0 .4-.1.7-.1.9-.1.6-.2 1.1-.4 1.6-.1-.2-.2-.3-.4-.5.2-.4.3-.9.4-1.4 0-.4.1-1 .1-1.6v-2.8h1.6zm-.5 3.4v-1.2h-.8v1.2h.8zm0-1.7v-1.2h-.8v1.2h.8zM316.1 230.4c-.3.2-.6.3-1 .3h-1.3v2h-.5v-4.6h1.6c.5 0 .9.1 1.2.3.4.2.5.6.5 1-.1.5-.2.8-.5 1zm-1.2-1.8h-1.2v1.7h1.2c.7 0 1.1-.3 1.1-.8 0-.6-.4-.9-1.1-.9zM320.1 232.5c-.3.2-.7.3-1.1.3-.5 0-.8-.1-1.2-.3-.3-.2-.5-.6-.6-1h.6c.1.3.2.6.4.7.2.1.4.2.8.2.3 0 .5-.1.7-.2.2-.2.4-.4.4-.6 0-.3-.4-.6-1.1-.9-1-.4-1.5-.9-1.5-1.4 0-.4.2-.7.5-.9.3-.2.6-.3 1-.3.7 0 1.2.4 1.5 1.2h-.6c-.2-.5-.5-.7-.9-.7-.3 0-.5.1-.6.2-.2.1-.3.3-.3.6 0 .2.2.5.7.7.4.2.8.5 1.3.7.5.3.7.6.7 1-.2.2-.4.5-.7.7zM332.4 79.3c-.3.2-.6.3-1 .3h-1.3v2h-.5V77h1.6c.5 0 .9.1 1.2.3.4.2.5.6.5 1s-.1.8-.5 1zm-1.1-1.8h-1.2v1.7h1.2c.7 0 1.1-.3 1.1-.8-.1-.6-.4-.9-1.1-.9zM336.5 81.4c-.3.2-.7.3-1.1.3-.5 0-.8-.1-1.2-.3-.3-.2-.5-.6-.6-1h.6c.1.3.2.6.4.7.2.1.4.2.8.2.3 0 .5-.1.7-.2.2-.2.4-.4.4-.6 0-.3-.4-.6-1.1-.9-1-.4-1.5-.9-1.5-1.4 0-.4.2-.7.5-.9.3-.2.6-.3 1-.3.7 0 1.2.4 1.5 1.2h-.6c-.2-.5-.5-.7-.9-.7-.3 0-.5.1-.7.2-.2.1-.3.3-.3.6 0 .2.2.5.7.7.4.2.8.5 1.3.7.5.3.7.6.7 1-.1.1-.3.5-.6.7zM270.2 375.2c-.3.2-.6.3-1 .3h-1.3v2h-.5v-4.6h1.6c.5 0 .9.1 1.2.3.4.2.5.6.5 1 0 .5-.2.8-.5 1zm-1.1-1.8h-1.2v1.7h1.2c.7 0 1.1-.3 1.1-.8-.1-.6-.4-.9-1.1-.9zM276.7 377.3c-.3.2-.7.3-1.1.3-.5 0-.8-.1-1.2-.3-.3-.2-.5-.6-.6-1h.6c.1.3.2.6.4.7.2.1.4.2.8.2.3 0 .5-.1.7-.2.2-.2.4-.4.4-.6 0-.3-.4-.6-1.1-.9-1-.4-1.5-.9-1.5-1.4 0-.4.2-.7.5-.9.3-.2.6-.3 1-.3.7 0 1.2.4 1.5 1.2h-.6c-.2-.5-.5-.7-.9-.7-.3 0-.5.1-.6.2-.2.1-.3.3-.3.6 0 .2.2.5.7.7.4.2.8.5 1.3.7.5.3.7.6.7 1-.2.2-.3.5-.7.7zM421 355.8c0 .6-.1 1.1-.1 1.4 0 .2-.1.3-.2.4-.1.1-.4.1-.9.2 0-.1-.1-.3-.1-.4h.5c.2 0 .3-.1.4-.2.1-.2.1-.5.1-1v-1.3h-1.3c-.1.8-.3 1.4-.6 1.9s-.8.9-1.4 1.3c-.1-.1-.2-.3-.3-.4.6-.3 1-.7 1.3-1.1.3-.4.5-1 .6-1.6h-1.5v-.4h1.5v-1.2h.5v1.2h1.8l-.3 1.2zM421.6 355.8v-.4h4.5v.4h-4.5zM429.2 355.2c-.1.9-.2 1.5-.5 1.8-.2.3-.7.7-1.4 1-.1-.1-.1-.3-.3-.4.7-.2 1.1-.5 1.4-.8.2-.3.3-.8.4-1.6h-2.3v-.4h4.9v.4h-2.2zm-2-1.3v-.4h3.3v.4h-3.3zM434.4 356.6c-.6.4-1.3.9-2.2 1.3l-.3-.5c1.5-.5 2.9-1.5 4-2.9l.3.3c-.6.7-1.2 1.3-1.8 1.8zm-1.2-1.8c-.4-.4-.8-.7-1.2-1l.3-.4c.5.3.9.6 1.3.9l-.4.5zM439.7 356.2c-.5.4-1 .7-1.5 1-.4.2-.7.4-.9.5l-.4-.3v-4h.4v3.7c.8-.3 1.4-.7 1.8-1 .4-.3.9-.8 1.4-1.4l.3.3c-.2.5-.7.9-1.1 1.2zM441.4 355.8v-.4h4.5v.4h-4.5zM447.8 356c-.2.7-.6 1.3-1.2 1.9-.1-.1-.2-.3-.3-.4.5-.3.8-.7 1-1.2.2-.4.3-.9.3-1.5v-1h.4c0 1-.1 1.7-.2 2.2zm1.4 1.7-.3-.3.1-.1v-4h.4v3.7c.6-.4 1.2-1 1.8-1.8l.3.3c-.8 1-1.5 1.7-2.3 2.2zM455 357.5h-.4l-.7-2.9-.8 2.9h-.4l-.9-3.6h.4l.7 2.9.8-2.9h.4l.7 2.9.7-2.9h.4l-.9 3.6zM166.9 355.8c0 .6-.1 1.1-.1 1.4 0 .2-.1.3-.2.4-.1.1-.4.1-.9.2 0-.1-.1-.3-.1-.4h.5c.2 0 .3-.1.4-.2.1-.2.1-.5.1-1v-1.3h-1.3c-.1.8-.3 1.4-.6 1.9s-.8.9-1.4 1.3c-.1-.1-.2-.3-.3-.4.6-.3 1-.7 1.3-1.1.3-.4.5-1 .6-1.6h-1.5v-.4h1.5v-1.2h.5v1.2h1.8l-.3 1.2zM167.5 355.8v-.4h4.5v.4h-4.5zM175.1 355.2c-.1.9-.2 1.5-.5 1.8-.2.3-.7.7-1.4 1-.1-.1-.1-.3-.3-.4.7-.2 1.1-.5 1.4-.8.2-.3.4-.8.4-1.6h-2.3v-.4h4.9v.4h-2.2zm-1.9-1.3v-.4h3.3v.4h-3.3zM180.3 356.6c-.6.4-1.3.9-2.2 1.3l-.3-.5c1.5-.5 2.9-1.5 4-2.9l.3.3c-.6.7-1.2 1.3-1.8 1.8zm-1.2-1.8c-.4-.4-.8-.7-1.2-1l.3-.4c.5.3.9.6 1.3.9l-.4.5zM183.1 357.3c-.1-.1-.3-.2-.4-.3.4-.5.8-1 1.1-1.7l.4.2c-.4.7-.7 1.3-1.1 1.8zm2.1-2.5v3.2h-.4v-3.2h-2.1v-.4h2.1v-1.2h.4v1.2h2.3v.4h-2.3zm1.9 2.4c-.5-.5-.9-1-1.3-1.7l.4-.3c.4.7.8 1.2 1.3 1.7-.1.1-.3.2-.4.3zm-.3-3.1c-.1-.2-.4-.4-.6-.6l.2-.2c.3.2.5.4.6.5l-.2.3zm.4-.4c-.1-.2-.4-.4-.6-.6l.2-.2c.3.2.5.4.6.5l-.2.3zM188.5 356c-.1-.3-.3-.6-.6-1l.3-.2c.2.3.4.7.6 1l-.3.2zm2.5.2c-.3.5-.6.9-1 1.2-.3.3-.8.5-1.3.7-.1-.1-.1-.3-.2-.4.5-.1.9-.3 1.2-.6.3-.2.6-.6.9-1 .2-.3.4-.8.5-1.4l.4.1c-.1.6-.3 1.1-.5 1.4zm-1.4-.5c-.1-.3-.3-.7-.5-1l.3-.1c.2.4.4.7.5 1l-.3.1zM195 356.6c-.6.6-1.3 1-2.2 1.3-.1-.1-.1-.3-.2-.4.8-.2 1.5-.6 2-1 .4-.4.8-1.1 1.2-1.9H194c-.4.6-.8 1.2-1.3 1.6-.1-.1-.2-.2-.4-.3l1.1-1.1c.2-.3.5-.8.8-1.4l.5.2c-.1.2-.2.4-.4.7H196.2l.3.3c-.6.7-1.1 1.5-1.5 2zM201.2 357.7c-.5-.6-1-1.3-1.7-1.9-.6.7-1.4 1.3-2.3 1.9-.1-.2-.2-.3-.3-.4.8-.4 1.5-.8 2-1.3.4-.4.9-1.1 1.5-2h-2.9v-.4h3.2l.3.3c-.4.6-.7 1.2-1 1.6.7.6 1.3 1.2 1.8 1.9l-.6.3zM203.6 355.9h-.6l-.1-.1v-.6l.1-.1h.6l.1.1v.6l-.1.1zM209.2 355.8c0 .6-.1 1.1-.1 1.4 0 .2-.1.3-.2.4-.1.1-.4.1-.9.2 0-.1-.1-.3-.1-.4h.5c.2 0 .3-.1.4-.2.1-.2.1-.5.1-1v-1.3h-1.3c-.1.8-.3 1.4-.6 1.9s-.8.9-1.4 1.3c-.1-.1-.2-.3-.3-.4.6-.3 1-.7 1.3-1.1.3-.4.5-1 .6-1.6h-1.5v-.4h1.5v-1.2h.5v1.2h1.8l-.3 1.2zM209.8 355.8v-.4h4.5v.4h-4.5zM217.4 355.2c-.1.9-.2 1.5-.5 1.8-.2.3-.7.7-1.4 1-.1-.1-.1-.3-.3-.4.7-.2 1.1-.5 1.4-.8.2-.3.4-.8.4-1.6h-2.3v-.4h4.9v.4h-2.2zm-1.9-1.3v-.4h3.3v.4h-3.3zM222.6 356.6c-.6.4-1.3.9-2.2 1.3l-.3-.5c1.5-.5 2.9-1.5 4-2.9l.3.3c-.6.7-1.2 1.3-1.8 1.8zm-1.2-1.8c-.4-.4-.8-.7-1.2-1l.3-.4c.5.3.9.6 1.3.9l-.4.5zM228 356.2c-.5.4-1 .7-1.5 1-.4.2-.7.4-.9.5l-.4-.3v-4h.4v3.7c.8-.3 1.4-.7 1.8-1 .4-.3.9-.8 1.4-1.4l.3.3c-.3.5-.7.9-1.1 1.2zM229.6 355.8v-.4h4.5v.4h-4.5zM236 356c-.2.7-.6 1.3-1.2 1.9-.1-.1-.2-.3-.3-.4.5-.3.8-.7 1-1.2.2-.4.3-.9.3-1.5v-1h.4c0 1-.1 1.7-.2 2.2zm1.4 1.7-.3-.3.1-.1v-4h.4v3.7c.6-.4 1.2-1 1.8-1.8l.3.3c-.8 1-1.5 1.7-2.3 2.2zM243.3 357.5h-.4l-.7-2.9-.8 2.9h-.4l-1-3.5h.4l.7 2.9.8-2.9h.4l.7 2.9.7-2.9h.4l-.8 3.5zM298.9 355.8c0 .6-.1 1.1-.1 1.4 0 .2-.1.3-.2.4-.1.1-.4.1-.8.2 0-.1-.1-.3-.1-.4h.4c.2 0 .3-.1.3-.2.1-.2.1-.5.1-1v-1.3h-1.2c-.1.8-.3 1.4-.6 1.9s-.7.9-1.3 1.3c-.1-.1-.2-.3-.3-.4.5-.3.9-.7 1.2-1.1.3-.4.4-1 .5-1.6h-1.3v-.4h1.3v-1.2h.4v1.2h1.7v1.2zM299.5 355.8v-.4h4v.4h-4zM306.3 355.2c-.1.9-.2 1.5-.4 1.8-.2.3-.6.7-1.3 1-.1-.1-.1-.3-.2-.4.6-.2 1-.5 1.2-.8.2-.3.3-.8.4-1.6h-2.1v-.4h4.4v.4h-2zm-1.7-1.3v-.4h2.9v.4h-2.9zM311 356.6c-.5.4-1.2.9-2 1.3l-.2-.5c1.4-.5 2.6-1.5 3.6-2.9l.3.3c-.6.7-1.2 1.3-1.7 1.8zm-1.1-1.8c-.4-.4-.8-.7-1.1-1l.2-.4 1.2.9-.3.5zM313.5 357.3c-.1-.1-.2-.2-.4-.3.4-.5.7-1 1-1.7l.4.2c-.3.7-.6 1.3-1 1.8zm1.9-2.5v3.2h-.4v-3.2h-1.9v-.4h1.9v-1.2h.4v1.2h2v.4h-2zm1.8 2.4c-.4-.5-.8-1-1.1-1.7l.4-.3c.3.7.7 1.2 1.1 1.7-.2.1-.3.2-.4.3zm-.4-3.1c-.1-.2-.3-.4-.6-.6l.2-.2c.2.2.4.4.6.5l-.2.3zm.4-.4c-.1-.2-.3-.4-.6-.6l.2-.2c.2.2.4.4.6.5l-.2.3zM318.4 356c-.1-.3-.3-.6-.5-1l.3-.2c.2.3.4.7.5 1l-.3.2zm2.3.2c-.2.5-.5.9-.9 1.2-.3.3-.7.5-1.2.7-.1-.1-.1-.3-.2-.4.5-.1.8-.3 1.1-.6.3-.2.6-.6.8-1 .2-.3.3-.8.5-1.4l.4.1c-.2.6-.4 1.1-.5 1.4zm-1.3-.5c-.1-.3-.2-.7-.4-1l.3-.1c.2.4.3.7.4 1l-.3.1zM324.2 356.6c-.5.6-1.2 1-2 1.3-.1-.1-.1-.3-.2-.4.7-.2 1.3-.6 1.8-1 .4-.4.7-1.1 1.1-1.9h-1.6c-.4.6-.8 1.2-1.2 1.6-.1-.1-.2-.2-.4-.3.4-.4.7-.8 1-1.1.2-.3.4-.8.7-1.4l.4.2c-.1.2-.2.4-.3.7h1.8l.3.3c-.6.7-1 1.5-1.4 2zM329.8 357.7c-.4-.6-.9-1.3-1.5-1.9-.5.7-1.2 1.3-2.1 1.9-.1-.2-.2-.3-.3-.4.7-.4 1.3-.8 1.8-1.3.4-.4.8-1.1 1.3-2h-2.6v-.4h2.9l.3.3c-.3.6-.6 1.2-.9 1.6.6.6 1.2 1.2 1.6 1.9l-.5.3zM332 355.9h-.6l-.1-.1v-.6l.1-.1h.6l.1.1v.6l-.1.1zM337 355.8c0 .6-.1 1.1-.1 1.4 0 .2-.1.3-.2.4-.1.1-.4.1-.8.2 0-.1-.1-.3-.1-.4h.4c.2 0 .3-.1.3-.2.1-.2.1-.5.1-1v-1.3h-1.2c-.1.8-.3 1.4-.6 1.9s-.7.9-1.3 1.3c-.1-.1-.2-.3-.3-.4.5-.3.9-.7 1.2-1.1.3-.4.4-1 .5-1.6h-1.3v-.4h1.3v-1.2h.4v1.2h1.7v1.2zM337.5 355.8v-.4h4v.4h-4zM344.4 355.2c-.1.9-.2 1.5-.4 1.8-.2.3-.6.7-1.3 1-.1-.1-.1-.3-.2-.4.6-.2 1-.5 1.2-.8.2-.3.3-.8.4-1.6H342v-.4h4.4v.4h-2zm-1.7-1.3v-.4h2.9v.4h-2.9zM349.1 356.6c-.5.4-1.2.9-2 1.3l-.2-.5c1.4-.5 2.6-1.5 3.6-2.9l.3.3c-.7.7-1.2 1.3-1.7 1.8zm-1.1-1.8c-.4-.4-.8-.7-1.1-1l.2-.4 1.2.9-.3.5zM353.9 356.2c-.4.4-.9.7-1.4 1-.4.2-.6.4-.8.5l-.3-.3v-4h.4v3.7c.7-.3 1.2-.7 1.6-1 .4-.3.8-.8 1.3-1.4l.3.3c-.4.5-.7.9-1.1 1.2zM355.4 355.8v-.4h4v.4h-4zM361.1 356c-.2.7-.5 1.3-1.1 1.9-.1-.1-.2-.3-.3-.4.4-.3.7-.7.9-1.2.1-.4.2-.9.3-1.5v-1h.4c0 1-.1 1.7-.2 2.2zm1.3 1.7-.3-.3v-4.1h.4v3.7c.5-.4 1.1-1 1.6-1.8l.3.3c-.6 1-1.3 1.7-2 2.2zM367.7 357.5h-.4l-.7-2.9-.7 2.9h-.4l-.8-3.6h.4l.6 2.9.7-2.9h.4l.7 2.9.7-2.9h.4l-.9 3.6zM352.5 192.6c-.5.7-1.4 1.2-2.6 1.6-.1-.2-.2-.4-.3-.5 1-.2 1.8-.6 2.2-1.2.5-.6.8-1.4.8-2.4h-3.4v1.6h-.5v-2.1h2v-1.2h.5v1.2h2c.1 1.4-.2 2.4-.7 3zM357 191.4v2.3c0 .2 0 .4-.1.5-.1.1-.3.1-.7.2 0-.2-.1-.4-.1-.5h.3c.2 0 .2-.1.2-.2V192c-.6.8-1.4 1.4-2.3 1.9-.1-.1-.2-.3-.3-.4 1-.5 1.8-1.2 2.4-2h-2.2v-.5h2.3v-1h.4v1h1.5v.4H357zM360.4 191.6l-1.2-.6.2-.4c.5.2.9.3 1.2.5l-.2.5zm1.8 1.1c-.7.5-1.5.9-2.5 1.3l-.3-.5c1.8-.6 3.3-1.6 4.5-3 .1.1.2.3.3.4-.6.7-1.3 1.4-2 1.8zM361 190c-.4-.3-.8-.5-1.2-.7l.2-.4c.5.3.9.5 1.2.7l-.2.4zM365 193.9v-.4h2.9l.2-2.2h-2.5v-.4h2.9l-.2 2.6h1.3v.4H365zM355.3 200.1c-.5.4-1.1.8-1.7 1.1-.5.2-.8.4-1 .6l-.4-.4v-4.6h.5v4.2c.9-.4 1.6-.8 2.1-1.2.5-.4 1-.9 1.6-1.6.1.1.2.3.4.4-.5.6-1 1.1-1.5 1.5zM358 199.9c-.2-.3-.4-.7-.7-1.1l.4-.2c.2.4.5.7.7 1.2l-.4.1zm2.9.2c-.3.6-.7 1-1.1 1.4-.4.3-.9.6-1.5.8-.1-.2-.2-.3-.3-.4.6-.2 1-.4 1.4-.6.4-.3.7-.7 1-1.2.2-.4.4-1 .6-1.7l.5.1c-.2.6-.4 1.2-.6 1.6zm-1.6-.6c-.1-.4-.3-.8-.5-1.1l.4-.2c.2.4.4.8.6 1.1l-.5.2zM366 200c-.7-.4-1.6-.8-2.7-1.2v3.3h-.5v-5.6h.5v1.8c1 .3 2 .7 3 1.2l-.3.5zM339.7 218.3c-.5.1-1.1.2-1.9.3v.8h2v.4h-2v.9h2.3v.4h-2.3v1.4c0 .1-.1.2-.3.3-.2.1-.4.1-.8.1 0-.1 0-.3-.2-.4h.6c.1 0 .1 0 .1-.1v-1.3H335v-.4h2.2v-.9h-2v-.4h2v-.8c-.6.1-1.2.1-1.8.1-.1-.2-.1-.3-.2-.4.8 0 1.6-.1 2.2-.1.6-.1 1.2-.2 1.9-.3l.4.4zM341.9 221.1l-.9 1.8-.4-.2 1-1.8c.2.1.3.2.3.2zm-.2-1.3-.2.3c-.2-.2-.5-.4-.8-.5l.2-.3c.3.2.6.3.8.5zm.3-1.3-.2.3c-.2-.3-.5-.5-.7-.6l.2-.3c.2.2.5.4.7.6zm1.1-.3c-.1.3-.2.5-.3.7h.8v-1h.4v1h1.4v.3H344v1h1.7v.3h-1.2v1.8c0 .1 0 .1.1.1h.6c.1 0 .2-.1.2-.1.1-.1.1-.2.1-.4.1.1.2.1.4.1 0 .2-.1.4-.2.6-.1.2-.2.2-.4.2h-.7c-.3 0-.4-.2-.4-.5v-1.8h-.8c0 .7-.1 1.2-.3 1.5-.2.3-.6.6-1.1.8-.1-.1-.1-.3-.2-.4.5-.2.9-.5 1-.8.1-.3.2-.6.2-1.1h-1v-.3h1.7v-1h-1c-.1.3-.3.5-.4.7-.1-.1-.2-.2-.3-.2.2-.3.4-.5.5-.8.1-.3.2-.5.3-.8l.3.1zM350.7 220.6c0 .6-.1 1.1-.1 1.4 0 .2-.1.3-.2.4-.1.1-.4.1-.9.2 0-.1-.1-.3-.1-.4h.5c.2 0 .3-.1.4-.2.1-.2.1-.5.1-1v-1.3h-1.3c-.1.8-.3 1.4-.6 1.9s-.8.9-1.4 1.3c-.1-.1-.2-.3-.3-.4.6-.3 1-.7 1.3-1.1.3-.4.5-1 .6-1.6h-1.5v-.4h1.5v-1.2h.5v1.2h1.8l-.3 1.2zM354.6 221.4c-.4.6-1.2 1.1-2.3 1.4-.1-.2-.2-.3-.2-.4.9-.2 1.5-.6 2-1 .5-.5.7-1.2.7-2.1h-3v1.4h-.4v-1.8h1.7v-1h.4v1h1.8c0 1.1-.2 1.9-.7 2.5zM358.5 221.3c-.6.4-1.3.9-2.2 1.3l-.3-.5c1.5-.5 2.9-1.5 4-2.9l.3.3c-.6.8-1.2 1.4-1.8 1.8zm-1.2-1.7c-.4-.4-.8-.7-1.2-1l.3-.4c.5.3.9.6 1.3.9l-.4.5zM363.8 221.3c-.6.6-1.3 1.1-2.3 1.5-.1-.1-.1-.2-.3-.4.9-.3 1.6-.8 2.2-1.4-.3-.3-.7-.6-1-.8l.2-.3c.4.3.8.5 1.1.8.3-.4.6-.9.9-1.5h-1.8c-.5.7-1 1.2-1.7 1.6-.1-.1-.2-.3-.3-.4.6-.4 1-.7 1.2-1 .3-.3.5-.8.8-1.4l.5.2-.3.6h1.8l.3.3c-.3.9-.8 1.7-1.3 2.2zM365.7 220.5v-.4h4.5v.4h-4.5zM291.4 49.1l-.4-.4c.5-.4 1.1-1 1.8-1.7h-5.2v-.6h5.8l.5.5c-1.1 1-1.9 1.7-2.5 2.2zm-.8 1.8c-.3.7-1 1.3-2.1 1.8-.1-.2-.2-.4-.4-.6.9-.2 1.6-.6 1.9-1.2.3-.5.4-1.2.4-2.2v-.6h.6c0 1.3-.2 2.3-.4 2.8zM296.9 49.9c-.3 1-.9 1.9-1.7 2.6-.1-.2-.3-.4-.4-.5.6-.5 1.1-1 1.4-1.7.2-.5.4-1.3.4-2.2v-1.5h.6c0 1.5-.1 2.6-.3 3.3zm2.1 2.4-.5-.5.1-.1V46h.6v5.3c.9-.6 1.7-1.5 2.5-2.5.1.1.3.3.5.4-1.1 1.4-2.1 2.4-3.2 3.1zM307.5 52.4V52H303v-.6h4.5V48H303v-.6h5.2v5.1h-.7zM309.1 49.5V49h6.4v.6h-6.4zM320.3 50.6c-.7.8-1.7 1.5-3.2 2.1l-.3-.6c1.2-.4 2.2-.9 2.9-1.7.7-.7 1.2-1.7 1.7-3h-5.1v-.6h5.4l.5.5c-.7 1.5-1.3 2.6-1.9 3.3zm2-3.6c-.2-.2-.5-.5-.9-.8l.3-.3c.4.3.7.5.9.8l-.3.3zm.6-.6c-.2-.2-.5-.5-.9-.8l.3-.3c.4.3.7.5.9.8l-.3.3zM281.3 55.8v1.1h.4l.3.1c-.2.4-.4.9-.7 1.2l.2.2c.2-.1.3-.3.5-.5l.2.3-.5.5c.1.1.3.2.4.3-.1.1-.2.2-.2.3-.2-.1-.4-.3-.5-.5l-.1-.1v2.1h-.4v-2.1l-.6.6c0-.1-.1-.3-.2-.4.6-.6 1.1-1.1 1.4-1.8h-1.3v-.3h.7v-1.1h.4zm3.7 5.1h-.4v-.4h-1.9v.4h-.4v-3.7h1.1v-1.3h.4v1.3h1.1v3.7zm-1.5-2.2v-1.1h-.8v1.1h.8zm0 1.5V59h-.8v1.2h.8zm.4-1.5h.8v-1.1h-.8v1.1zm0 1.5h.8V59h-.8v1.2zM287.5 56c-.1.4-.3.8-.5 1.2V61h-.4v-3.2c-.2.3-.4.6-.7.9 0-.1-.1-.3-.2-.4.5-.7 1-1.5 1.4-2.6l.4.3zm2.2 1.3V56h.4v1.3h1v.4h-1v2.9c0 .1-.1.2-.2.3-.2.1-.4.1-.7.1 0-.1 0-.3-.1-.4h.6c.1 0 .1 0 .1-.1v-2.8h-2.3v-.4h2.2zm-.8 1.8-.3.2c-.2-.3-.5-.6-.8-1l.3-.2c.3.5.6.8.8 1zM294.4 55.8v.9h2.2v.4h-2.4l-.8 1.6c.3.2.5.4.7.6l1.1-1.5.4.2-1.9 2.4c.6 0 1.3-.1 2-.2-.2-.2-.4-.5-.6-.7l.3-.2c.5.6.9 1.1 1.2 1.5l-.3.2c-.1-.2-.2-.3-.3-.4-1.6.2-3 .3-4.1.4l-.1-.4c.4 0 .9 0 1.4-.1l.7-.9c-.5-.4-1.1-.9-1.8-1.2l.2-.4c.3.2.6.3.8.5l.6-1.3h-2v-.4h2.3v-.9h.4zM299.7 56v1.7h-1.6v3.2h-.4V56h2zm-.4.7v-.4h-1.2v.4h1.2zm0 .7V57h-1.2v.4h1.2zm2.9-1.4v4.4c0 .2-.1.3-.2.4-.1.1-.3.1-.7.1 0-.1-.1-.3-.2-.4h.5c.1 0 .1 0 .1-.1v-2.6h-1.3l.3.1-.3.5h.8v.3H300v.5h1.5v.3h-1.3c.1.2.2.3.3.4.1.1.4.3.7.4l-.3.3c-.3-.2-.6-.3-.7-.5-.1-.1-.3-.3-.4-.5-.1.1-.1.2-.2.3-.2.3-.6.5-1.1.8l-.3-.3c.5-.1.8-.4 1.1-.6.1-.1.1-.1.1-.2h-1.1v-.3h1.2v-.5h-1.1v-.3h.6c-.1-.1-.2-.3-.4-.5l.3-.2.5.5-.2.2h.7l.3-.7h-.2V56h2.2zm-.4.4h-1.2v.4h1.2v-.4zm0 .6h-1.2v.4h1.2V57zM306.5 59c-.6-.4-1.4-.7-2.3-1v2.9h-.4V56h.4v1.6c.9.3 1.8.6 2.6 1.1l-.3.3zm-.6-1.6c-.1-.2-.3-.4-.6-.6l.2-.2c.3.2.5.4.6.5l-.2.3zm.4-.4c-.1-.2-.3-.4-.6-.6l.2-.2c.3.2.5.4.6.5l-.2.3zM309.8 58.3l-.3-.3c.4-.3.8-.7 1.3-1.2h-3.6v-.4h4.1l.3.4c-.9.7-1.4 1.2-1.8 1.5zm-.6 1.3c-.2.5-.7.9-1.5 1.2-.1-.1-.2-.3-.3-.4.6-.2 1.1-.4 1.3-.9.2-.3.3-.8.3-1.5v-.4h.4c0 .9-.1 1.6-.2 2zM440.4 159.7c-.2.5-.5 1-.9 1.4l-.3-.3c.6-.7 1-1.6 1.3-2.8l.4.2c-.2.6-.3 1.1-.5 1.5zm2.7 1.2c-.3-1-.8-1.9-1.3-2.8l.3-.2c.6.9 1.1 1.9 1.5 2.8l-.5.2zM446.2 160.3c-.5.4-1.1.8-1.9 1.1l-.2-.4c1.3-.4 2.5-1.3 3.4-2.5l.3.3c-.6.6-1.1 1.1-1.6 1.5zm-1-1.5c-.4-.3-.7-.6-1.1-.8l.2-.3c.4.2.8.5 1.1.8l-.2.3zM451.8 159.7c0 .5-.1.9-.1 1.2 0 .1-.1.2-.2.3-.1.1-.4.1-.8.2 0-.1-.1-.2-.1-.4h.4c.1 0 .3-.1.3-.2.1-.1.1-.4.1-.8v-1.1h-1.1c-.1.6-.3 1.2-.5 1.6-.3.4-.7.8-1.2 1.1l-.3-.3c.5-.3.9-.6 1.1-.9.3-.4.4-.8.5-1.4h-1.2v-.4h1.3v-1h.4v1h1.6l-.2 1.1zm0-1.4-.5-.5.2-.2c.2.2.4.3.6.5l-.3.2zm.4-.4-.5-.5.2-.2c.2.2.4.3.6.5l-.3.2zM452.6 159.6v-.3h3.8v.3h-3.8zM457.9 159.7c-.2.5-.5 1-.9 1.4l-.3-.3c.6-.7 1-1.6 1.3-2.8l.4.2c-.1.6-.3 1.1-.5 1.5zm2.8 1.2c-.3-1-.8-1.9-1.3-2.8l.3-.2c.6.9 1.1 1.9 1.5 2.8l-.5.2zm.3-2.6c-.1.1-.2.2-.3.2-.1 0-.3 0-.3-.1-.1-.1-.1-.2-.1-.3 0-.1 0-.3.1-.3.1-.1.2-.1.3-.1.1 0 .2 0 .3.1.1.1.1.2.1.3s0 .1-.1.2zm-.2-.5s-.1-.1-.2-.1c-.2 0-.3.1-.3.3 0 .1 0 .1.1.2 0 .1.1.1.2.1s.1 0 .2-.1c0 0 .1-.1.1-.2s0-.2-.1-.2zM463.9 158.8v2.7h-.4v-2.4c-.6.5-1.2.9-1.8 1.1-.1-.1-.1-.3-.2-.4.6-.2 1.2-.6 1.8-1.1.5-.4 1-.9 1.5-1.4l.4.3c-.6.5-1 .9-1.3 1.2zM468.1 160.3c-.4.5-1 .9-1.9 1.2 0-.1-.1-.2-.2-.4.7-.2 1.3-.6 1.7-1 .4-.4.7-1 1-1.8h-3v-.4h3.2l.3.3c-.3 1-.7 1.7-1.1 2.1zm1.6-2.4c-.1.1-.2.2-.3.2-.1 0-.3 0-.3-.1-.1-.1-.1-.2-.1-.3 0-.1 0-.3.1-.3.1-.1.2-.1.3-.1.1 0 .2 0 .3.1.1.1.1.2.1.3.1 0 0 .1-.1.2zm-.1-.5s-.1-.1-.2-.1c-.2 0-.3.1-.3.3 0 .1 0 .1.1.2 0 .1.1.1.2.1s.1 0 .2-.1c0 0 .1-.1.1-.2s-.1-.2-.1-.2zM480.6 158.3c-.2.4-.5.8-.9 1.1-.1-.1-.2-.2-.3-.2.6-.5 1-1.3 1.3-2.2l.4.1c-.2.5-.4.9-.5 1.2zm2.7 1c-.3-.8-.8-1.5-1.3-2.3l.3-.2c.6.7 1.1 1.5 1.5 2.3l-.5.2zM482.1 162c-.5.3-1.1.6-1.9.9l-.2-.4c1.3-.4 2.5-1 3.4-2 .1.1.2.2.3.2-.6.6-1.1 1-1.6 1.3zm-1-1.3c-.4-.3-.7-.5-1.1-.7l.2-.2c.4.2.8.4 1.1.6l-.2.3zM483.1 165.1c0 .4-.1.7-.1.9 0 .1-.1.2-.2.3-.1.1-.4.1-.8.1 0-.1-.1-.2-.1-.3h.4c.1 0 .3-.1.3-.2.1-.1.1-.3.1-.7v-.9h-1.2c-.1.5-.3.9-.5 1.3-.3.3-.7.6-1.2.9l-.3-.3c.5-.2.9-.5 1.1-.8.3-.3.4-.7.5-1.1h-1.2v-.3h1.3v-.8h.4v.8h1.6l-.1 1.1zm0-1.1c-.1-.1-.3-.2-.5-.4l.2-.2c.2.1.4.3.6.4l-.3.2zm.3-.3c-.1-.1-.3-.2-.5-.4l.2-.2c.2.1.4.3.6.4l-.3.2zM481.4 170v-3h.3v3.1h-.3zM480.6 172c-.2.4-.5.8-.9 1.1-.1-.1-.2-.2-.3-.2.6-.5 1-1.3 1.3-2.2l.4.1c-.2.5-.4.9-.5 1.2zm2.7 1c-.3-.8-.8-1.5-1.3-2.3l.3-.2c.6.7 1.1 1.5 1.5 2.3l-.5.2zm.3-2.1c-.1.1-.2.1-.3.1-.1 0-.3 0-.3-.1-.1-.1-.1-.2-.1-.3 0-.1 0-.2.1-.3.1-.1.2-.1.3-.1.1 0 .2 0 .3.1.1.1.1.2.1.3 0 .1 0 .2-.1.3zm-.2-.4s-.1-.1-.2-.1c-.2 0-.3.1-.3.2s0 .1.1.2c0 0 .1.1.2.1s.1 0 .2-.1c0 0 .1-.1.1-.2 0 0 0-.1-.1-.1zM482 174.6v2.2h-.4v-1.9c-.6.4-1.2.7-1.8.9-.1-.1-.1-.2-.2-.3.6-.2 1.2-.5 1.8-.8.5-.3 1-.7 1.5-1.1l.4.2c-.6.3-1 .6-1.3.8zM482.3 179.6c-.4.4-1 .7-1.9 1 0-.1-.1-.2-.2-.3.7-.2 1.3-.4 1.7-.8.4-.3.7-.8 1-1.5h-3v-.3h3.2l.3.2c-.4.8-.8 1.4-1.1 1.7zm1.6-1.9c-.1.1-.2.1-.3.1-.1 0-.3 0-.3-.1-.1-.1-.1-.2-.1-.3 0-.1 0-.2.1-.3.1-.1.2-.1.3-.1.1 0 .2 0 .3.1.1.1.1.2.1.3 0 .1 0 .2-.1.3zm-.2-.4s-.1-.1-.2-.1c-.2 0-.3.1-.3.2s0 .1.1.2c0 0 .1.1.2.1s.1 0 .2-.1c0 0 .1-.1.1-.2 0 0 0-.1-.1-.1zM317.3 293.3l-2.1 4.3-1-.6 2.3-4.2c.3.2.6.4.8.5zm-.4-3.4-.4.8c-.6-.4-1.2-.7-2-1.1l.4-.8c.8.3 1.4.7 2 1.1zm.8-3.2-.6.8c-.6-.5-1.2-1-1.9-1.4l.6-.7c.6.3 1.3.8 1.9 1.3zm7.5-1.2-1.1 2h2.8v.9h-4v1.9h3.1v.9h-3.1v2.2h4v.9h-4v3.5h-.9v-3.5h-4.1v-.9h4.1v-2.2h-3.3v-.9h3.3v-1.9h-3.8v-.9h4.9l1.3-2.5.8.5zm-3.9 1.3-.8.6c-.3-.6-.7-1.2-1.2-1.7l.8-.6c.5.7.9 1.3 1.2 1.7zM334.6 293.9v-1.2h1v1.2h4.4v.8h-4.4v1.5h5.7v.8h-12.5v-.8h5.8v-1.5h-4.3v-.8h4.3zm1-9v1.4h5.1v2.7h-1v.4h-5.3l-1.1 2.1c1.5-.1 2.9-.2 4.5-.3-.3-.3-.6-.5-1-.8l.7-.7c1.3 1 2.2 1.7 2.7 2.3l-.7.7-.8-.8c-3.3.3-6.1.5-8.5.6l-.2-.9c.7 0 1.4 0 2.2-.1l1.2-2.1h-3v-.4h-.9v-2.7h5.1v-1.4h1zm4.1 3.7v-1.3h-9.3v1.3h9.3zM343.1 296.2c.1-1.5.8-2.8 2.3-3.9 1.5-1.2 2.2-2.1 2.2-2.7 0-.5-.1-.9-.4-1.2-.3-.3-.7-.5-1.2-.5-.7 0-1.1.2-1.5.6-.3.3-.5.8-.5 1.5h-1c.2-1.9 1.3-2.8 3.1-2.8.8 0 1.4.2 1.9.7.5.5.7 1.1.7 1.8 0 .9-.7 1.9-2.2 3.1-1.2 1-1.9 1.9-2.2 2.7h4.5v.9h-5.7zM313.2 316.3c-.7-.7-1.2-1.3-1.6-1.9-.4-.8-.6-1.6-.6-2.5s.2-1.7.6-2.5c.3-.6.9-1.2 1.6-1.9l.5.5c-.7.6-1.2 1.2-1.5 1.8-.4.7-.6 1.4-.6 2.2 0 .8.2 1.5.6 2.2.3.5.8 1.1 1.5 1.8l-.5.3zM317.4 307.5l-1 1.9c.2.2.4.3.6.5l.9-1.6.6.4-1.7 2.7c.4 0 .9 0 1.4-.1-.1-.3-.3-.5-.4-.8l.5-.3c.4.6.6 1.1.8 1.5l-.5.4c0-.1-.1-.2-.1-.3-.4 0-.8.1-1.1.1v4h-.7V312c-.5 0-1 .1-1.5.1l-.2-.6h1l.6-1c-.5-.4-1-.8-1.6-1.1l.4-.5c.1.1.3.2.4.3l.9-1.9.7.2zm-1.2 5.3c-.2.9-.4 1.7-.6 2.4-.2-.1-.4-.2-.6-.2.2-.7.4-1.5.6-2.3l.6.1zm2.6 1.7-.6.2c-.1-.6-.2-1.2-.4-1.8l.6-.2c.1.6.3 1.2.4 1.8zm1.9-7.1c-.2.7-.3 1.3-.4 1.7h3.1v3.8c0 1-.1 1.7-.2 2-.1.6-.8.9-2 .9 0-.3-.1-.6-.3-.8h1.1c.3 0 .5-.2.6-.5.1-.3.1-.9.2-1.9v-3H320c-.2.6-.4 1.1-.6 1.5-.2-.2-.4-.3-.6-.4.3-.6.5-1.2.7-1.9.2-.6.3-1.2.4-1.8l.8.4zm.9 5.3-.5.5c-.3-.5-.8-1.1-1.3-1.7l.5-.4c.5.5.9 1.1 1.3 1.6zM328.7 313.5v1.4h-.6v-1.4h-3v-.6l3-4.1h.5v4.2h.8v.6h-.7zm-.6-3.7-2.3 3.1h2.3v-3.1zM331.7 315h-.7l-.1-.1v-.6l.1-.1h.7l.1.1v.6l-.1.1zM333.4 314.9c.1-1 .6-1.9 1.5-2.7 1-.8 1.5-1.4 1.5-1.9 0-.3-.1-.6-.3-.8-.2-.2-.5-.4-.8-.4-.5 0-.8.1-1 .4-.2.2-.3.6-.4 1h-.7c.2-1.3.9-1.9 2.1-1.9.5 0 1 .2 1.3.5.3.3.5.7.5 1.2 0 .6-.5 1.3-1.5 2.1-.8.7-1.3 1.3-1.5 1.8h3.1v.6h-3.8zM340.4 308.9v-1.7h.7v1.7h1.4v4.5c0 .2 0 .3-.1.4-.1.1-.4.2-.8.2 0-.3-.1-.5-.2-.7h.3c.1 0 .2 0 .2-.1v-3.7h-.7v6.5h-.7v-6.5h-.7v4.5h-.8v-5.1h1.4zm4.9-1.7v1.8h2.1v.6h-2.1v2h1.7v4.2h-.6v-.5h-2.7v.6h-.6v-4.3h1.6v-4.4h.6zm1.1 7.5v-2.5h-2.7v2.5h2.7zM350.9 314.4c-.3.6-.9 1.2-1.6 1.9l-.5-.4c.7-.6 1.1-1.2 1.5-1.8.4-.7.6-1.4.6-2.2 0-.8-.2-1.5-.6-2.2-.3-.5-.8-1.1-1.5-1.8l.5-.5c.7.7 1.2 1.3 1.6 1.9.4.8.6 1.6.6 2.5s-.1 1.8-.6 2.6zM423 293.3l-2.1 4.3-1-.6 2.3-4.2c.3.2.6.4.8.5zm-.4-3.4-.4.8c-.6-.4-1.2-.7-2-1.1l.4-.8c.8.3 1.4.7 2 1.1zm.8-3.2-.6.8c-.6-.5-1.2-1-1.9-1.4l.6-.7c.7.3 1.3.8 1.9 1.3zm7.5-1.2-1.1 2h2.8v.9h-4v1.9h3.1v.9h-3.1v2.2h4v.9h-4v3.5h-.9v-3.5h-4.1v-.9h4.1v-2.2h-3.3v-.9h3.3v-1.9h-3.8v-.9h4.9l1.3-2.5.8.5zm-3.9 1.3-.8.6c-.3-.6-.7-1.2-1.2-1.7l.8-.6c.5.7.9 1.3 1.2 1.7zM440.3 293.9v-1.2h1v1.2h4.4v.8h-4.4v1.5h5.7v.8h-12.5v-.8h5.8v-1.5H436v-.8h4.3zm1-9v1.4h5.1v2.7h-1v.4h-5.3l-1.1 2.1c1.5-.1 2.9-.2 4.5-.3-.3-.3-.6-.5-1-.8l.7-.7c1.3 1 2.2 1.7 2.7 2.3l-.7.7-.8-.8c-3.3.3-6.1.5-8.5.6l-.2-.9c.7 0 1.4 0 2.2-.1l1.2-2.1h-3v-.4h-.9v-2.7h5.1v-1.4h1zm4.1 3.7v-1.3h-9.3v1.3h9.3zM452 296.2v-7.9c-.7.4-1.3.6-1.9.8v-1c.7-.1 1.4-.4 1.9-.8h1v9h-1zM418.9 316.3c-.7-.7-1.2-1.3-1.6-1.9-.4-.8-.6-1.6-.6-2.5 0-.9.2-1.7.6-2.5.3-.6.9-1.2 1.6-1.9l.5.5c-.7.6-1.2 1.2-1.5 1.8-.4.7-.6 1.4-.6 2.2 0 .8.2 1.5.6 2.2.3.5.8 1.1 1.5 1.8l-.5.3zM423.1 307.5l-1 1.9c.2.2.4.3.6.5l.9-1.6.6.4-1.7 2.7c.4 0 .9 0 1.4-.1-.1-.3-.3-.5-.4-.8l.5-.3c.4.6.6 1.1.8 1.5l-.5.4c0-.1-.1-.2-.1-.3-.4 0-.8.1-1.1.1v4h-.7V312c-.5 0-1 .1-1.5.1l-.2-.6h1l.6-1c-.5-.4-1-.8-1.6-1.1l.4-.5c.1.1.3.2.4.3l.9-1.9.7.2zm-1.2 5.3c-.2.9-.4 1.7-.6 2.4-.2-.1-.4-.2-.6-.2.2-.7.4-1.5.6-2.3l.6.1zm2.6 1.7-.6.2c-.1-.6-.2-1.2-.4-1.8l.6-.2c.1.6.3 1.2.4 1.8zm1.9-7.1c-.2.7-.3 1.3-.4 1.7h3.1v3.8c0 1-.1 1.7-.2 2-.1.6-.8.9-2 .9 0-.3-.1-.6-.3-.8h1.1c.3 0 .5-.2.6-.5.1-.3.1-.9.2-1.9v-3h-2.6c-.2.6-.4 1.1-.6 1.5-.2-.2-.4-.3-.6-.4.3-.6.5-1.2.7-1.9.2-.6.3-1.2.4-1.8l.6.4zm.9 5.3-.5.5c-.3-.5-.8-1.1-1.3-1.7l.5-.4c.5.5.9 1.1 1.3 1.6zM433.4 312c-.3.8-.5 1.8-.5 2.9h-.7c0-1.1.1-2.1.4-2.8.3-.8.8-1.7 1.6-2.7H431v-.6h3.9v.8c-.7.8-1.2 1.6-1.5 2.4zM437.4 315h-.7l-.1-.1v-.6l.1-.1h.7l.1.1v.6l-.1.1zM442.8 314c-.4.7-1 1.1-1.7 1.1-.8 0-1.4-.3-1.8-1-.3-.5-.5-1.3-.5-2.2 0-2.2.8-3.3 2.3-3.3.8 0 1.4.4 1.7 1.1.3.6.4 1.3.4 2.2 0 .8-.1 1.5-.4 2.1zm-.6-3.8c-.2-.7-.6-1-1.2-1-1 0-1.5.9-1.5 2.7 0 1.7.5 2.6 1.5 2.6.5 0 .9-.3 1.2-.9.2-.5.3-1 .3-1.6 0-.8-.1-1.4-.3-1.8zM446.1 308.9v-1.7h.7v1.7h1.4v4.5c0 .2 0 .3-.1.4-.1.1-.4.2-.8.2 0-.3-.1-.5-.2-.7h.3c.1 0 .2 0 .2-.1v-3.7h-.7v6.5h-.7v-6.5h-.7v4.5h-.6v-5.1h1.2zm4.9-1.7v1.8h2.1v.6H451v2h1.7v4.2h-.6v-.5h-2.7v.6h-.6v-4.3h1.6v-4.4h.6zm1.1 7.5v-2.5h-2.7v2.5h2.7zM456.6 314.4c-.3.6-.9 1.2-1.6 1.9l-.5-.4c.7-.6 1.1-1.2 1.5-1.8.4-.7.6-1.4.6-2.2 0-.8-.2-1.5-.6-2.2-.3-.5-.8-1.1-1.5-1.8l.5-.5c.7.7 1.2 1.3 1.6 1.9.4.8.6 1.6.6 2.5.1 1-.1 1.8-.6 2.6zM188 274.9v-10.5h1.2v9.5h6.5v1H188zM204.6 273.6c-1.1.9-2.5 1.3-4.3 1.3h-3v-10.5h3.5c1.6 0 2.9.5 4 1.4 1 1 1.6 2.2 1.6 3.8 0 1.7-.6 3-1.8 4zm-.8-7.1c-.8-.7-1.9-1-3.3-1h-2.1v8.5h2.3c1.3 0 2.3-.4 3.1-1.2.8-.8 1.2-1.8 1.2-3.1.1-1.5-.3-2.5-1.2-3.2zM215.3 274.9l-4-5.9-2.3 1.9v4h-1.1v-10.5h1.1v5.2l6-5.2h1.6l-4.5 3.9 4.8 6.6h-1.6zM181.3 295.1c-.7-.7-1.2-1.3-1.6-1.9-.4-.8-.6-1.6-.6-2.5s.2-1.7.6-2.5c.3-.6.9-1.2 1.6-1.9l.5.5c-.7.6-1.2 1.2-1.5 1.8-.4.7-.6 1.4-.6 2.2 0 .8.2 1.5.6 2.2.3.5.8 1.1 1.5 1.8l-.5.3zM185.4 286.4l-1 1.9c.2.2.4.3.6.5l.9-1.6.6.4-1.7 2.7c.4 0 .9 0 1.4-.1-.1-.3-.3-.5-.4-.8l.5-.3c.4.6.6 1.1.8 1.5l-.5.4c0-.1-.1-.2-.1-.3-.4 0-.8.1-1.1.1v4h-.7v-3.9c-.5 0-1 .1-1.5.1l-.2-.6h1l.6-1c-.5-.4-1-.8-1.6-1.1l.4-.5c.1.1.3.2.4.3l.9-1.9.7.2zm-1.1 5.2c-.2.9-.4 1.7-.6 2.4-.2-.1-.4-.2-.6-.2.2-.7.4-1.5.6-2.3l.6.1zm2.6 1.7-.6.2c-.1-.6-.2-1.2-.4-1.8l.6-.2c.1.6.3 1.2.4 1.8zm1.8-7.1c-.2.7-.3 1.3-.4 1.7h3.1v3.8c0 1-.1 1.7-.2 2-.1.6-.8.9-2 .9 0-.3-.1-.6-.3-.8h1.1c.3 0 .5-.2.6-.5.1-.3.1-.9.2-1.9v-3h-2.6c-.2.6-.4 1.1-.6 1.5-.2-.2-.4-.3-.6-.4.3-.6.5-1.2.7-1.9.2-.6.3-1.2.4-1.8l.6.4zm1 5.3-.5.5c-.3-.5-.8-1.1-1.3-1.7l.5-.4c.4.5.9 1.1 1.3 1.6zM195.7 293.7v-5.4c-.5.3-.9.4-1.3.5v-.7c.5-.1.9-.2 1.3-.5h.7v6.1h-.7zM201.1 293.7v-5.4c-.5.3-.9.4-1.3.5v-.7c.5-.1.9-.2 1.3-.5h.7v6.1h-.7zM205.2 293.9h-.7l-.1-.1v-.6l.1-.1h.7l.1.1v.6l-.1.1zM209.2 290.8c-.3.8-.5 1.8-.5 2.9h-.7c0-1.1.1-2.1.4-2.8.3-.8.8-1.7 1.6-2.7h-3.1v-.6h3.9v.8c-.8.8-1.3 1.6-1.6 2.4zM213.9 287.7V286h.7v1.7h1.4v4.5c0 .2 0 .3-.1.4-.1.1-.4.2-.8.2 0-.3-.1-.5-.2-.7h.3c.1 0 .2 0 .2-.1v-3.7h-.7v6.5h-.7v-6.5h-.7v4.5h-.6v-5.1h1.2zm4.9-1.6v1.8h2.1v.6h-2.1v2h1.7v4.2h-.6v-.5h-2.7v.6h-.6v-4.3h1.6v-4.4h.6zm1.1 7.5v-2.5h-2.7v2.5h2.7zM224.4 293.2c-.3.6-.9 1.2-1.6 1.9l-.5-.4c.7-.6 1.1-1.2 1.5-1.8.4-.7.6-1.4.6-2.2 0-.8-.2-1.5-.6-2.2-.3-.5-.8-1.1-1.5-1.8l.5-.5c.7.7 1.2 1.3 1.6 1.9.4.8.6 1.6.6 2.5s-.1 1.8-.6 2.6zM191.6 122.2l-.1.1c.5.5 1 .8 1.6 1.1.6.3 1.2.6 1.9.8-.1.1-.2.2-.4.5-.6-.2-1.3-.5-1.8-.9-.5-.3-1.1-.7-1.6-1.2-.4.4-.9.8-1.4 1.1-.7.5-1.3.8-1.7 1-.1-.2-.3-.3-.4-.4.7-.3 1.3-.6 1.8-1 .6-.4 1.1-.9 1.6-1.4l.5.3zm-.2 1.3v.8h1.9v2.8h-2.1c.2.3.5.6.9.9.7-.3 1.3-.7 1.7-1l.4.5c-.5.3-1.1.6-1.6.8.6.3 1.3.5 2.1.6-.1.2-.2.4-.3.5-1-.2-1.9-.5-2.5-1-.6-.4-1-.8-1.3-1.4h-1.1v1.4c.5-.1 1.1-.1 1.7-.2v.5c-1.2.2-2.3.3-3.4.5l-.1-.6c.4 0 .9-.1 1.3-.2v-4.3h1.9v-.8h.5zm1.4 1.9v-.6h-3.3v.6h3.3zm0 1.2v-.7h-3.3v.7h3.3zM198.6 124.9c.2-.2.4-.5.6-.7l.6.2c-.1.2-.3.4-.4.5h3.6v.5h-2.3c.3.2.5.5.8.7.4.3 1 .5 1.7.7-.2.2-.4.4-.4.5-.2-.1-.3-.1-.5-.2v2.2h-.5v-.4h-1.3v.4h-.5v-2.4h1.8c-.3-.1-.5-.3-.7-.4-.4-.3-.8-.6-1-1H199c-.3.3-.5.5-.8.7-.3.3-.7.5-1.1.7h1.8v2.5h-.5v-.4h-1.3v.4h-.5v-2.2c-.2.1-.4.2-.5.3-.1-.2-.2-.3-.4-.5.8-.3 1.5-.7 2.1-1.1.2-.1.3-.3.5-.4H196v-.5h2.6zm-2.1-.7v-2h2.3v2h-2.3zm.5-.5h1.2v-1H197v1zm1.3 4.7v-1.1H197v1.1h1.3zm1.7-4.2v-2h2.4v2H200zm.5-.5h1.3v-1h-1.3v1zm1.3 4.7v-1.1h-1.3v1.1h1.3zM205 123.8V122h.5v1.8h.9v.5h-.9v.7l.4.4c.1.1.3.2.5.4-.1.2-.2.3-.3.5-.2-.2-.4-.3-.5-.4 0 0-.1 0-.1-.1v3.7h-.5v-3.7c-.1.3-.2.5-.3.8-.2.4-.4.7-.5.8-.1-.2-.2-.4-.3-.5.3-.4.5-.7.7-1.1.2-.3.3-.7.5-1.3h-.9v-.5h.8zm3.4-1.4v6.1c0 .2 0 .3-.1.4-.1.1-.4.2-.8.2 0-.2-.1-.4-.2-.5h.4c.1 0 .2 0 .2-.1v-1.8h-.9c0 .3-.1.5-.1.8-.1.7-.3 1.3-.6 1.8-.1-.2-.2-.4-.4-.5.3-.5.5-1 .6-1.6.1-.5.1-1.2.1-1.9v-2.8h1.8zm-.5 3.7v-1.3h-.8v1.4h.8zm0-1.8v-1.4h-.8v1.4h.8zm3-1.9v6.3c0 .2 0 .3-.1.4-.1.1-.4.1-.9.2 0-.2-.1-.4-.2-.5h.4c.2 0 .2 0 .2-.1v-2h-.9c0 .4-.1.7-.1 1-.1.7-.3 1.2-.5 1.7-.1-.2-.2-.4-.4-.5.2-.4.3-1 .4-1.5 0-.5.1-1.1.1-1.8v-3.1h2zm-.5 3.7v-1.3h-.9v1.4h.9zm0-1.8v-1.4h-.9v1.4h.9zM137.4 115.7l-1.1 2.6-.5-.3 1.2-2.6c.2.1.3.2.4.3zm0-2.9-.4.5c-.3-.3-.6-.5-1.1-.7l.3-.5c.5.2.9.4 1.2.7zm3.1-1.1c0 .1-.1.1-.1.1.4.6.8 1 1.2 1.4.4.4.9.8 1.5 1.1-.2.2-.3.3-.4.5-.4-.2-.8-.5-1.2-.9-.5-.4-.9-.9-1.4-1.6-.3.5-.6.9-1 1.3-.5.5-1 1-1.5 1.3-.1-.2-.2-.3-.3-.5.5-.3.9-.6 1.4-1.1.5-.5.9-1.1 1.3-1.8l.5.2zm1.7 3.9v2c0 .3-.1.4-.2.5-.1.1-.4.1-.9.2 0-.2-.1-.4-.2-.6h.7c.1 0 .1 0 .1-.2V116h-1.8v2.9h-.6V116h-1.5v-.5h4.4zm-.9-1.4v.5h-2.5v-.5h2.5zM146.1 112v-.5h.5v.5h1.9v-.5h.5v.5h2v.4h-2v.6h.3v.6h1.8v.5h-1.8c0 .8 0 1.4.1 1.7 0 .3.1.6.1.8.3-.4.6-1 .9-1.7l.5.2c-.4.8-.8 1.5-1.2 2.1.1.2.1.3.2.4.2.3.3.4.4.4.1 0 .3-.2.5-.7.1.1.3.2.4.2-.2.5-.3.9-.5 1-.1.1-.2.2-.3.2-.3 0-.5-.1-.7-.4-.2-.2-.4-.4-.5-.7-.5.5-1.1.9-1.6 1.1-.1-.2-.2-.3-.4-.4.3-.1.6-.3.8-.5.3-.2.6-.5.9-.7l-.3-1.2c-.1-.4-.1-1-.1-1.8h-3.6v1c0 .8-.1 1.5-.2 1.9-.1.5-.4 1.1-.7 1.6-.1-.1-.3-.3-.5-.3.3-.4.5-.9.7-1.4.1-.4.2-.9.2-1.7v-1.4h4.1v-.6h-.3v-.6h-1.9v.6h-.5v-.6h-2v-.6h2.3zm2.2 3.1h-1v.5h1v1.3h-1v.6h1v.4h-2.1v.4h-.5v-3.6h2.6v.4zm-1.4.6v-.5h-.7v.5h.7zm1 .9v-.6h-1.7v.6h1.7zm-1 .9v-.6h-.7v.6h.7zm3.9-4.1-.3.3c-.2-.2-.5-.5-.8-.7l.3-.3c.3.3.6.6.8.7zM156.2 111.5v.7h3v.5h-6v2.7c0 .8 0 1.5-.1 1.9-.1.5-.3 1-.6 1.6-.1-.2-.3-.3-.5-.4.3-.4.5-.9.6-1.4.1-.3.1-.9.1-1.7v-3.2h2.9v-.7h.6zm-.1 2v-.6h.5v.6h2.3v.5h-2.3v.5h1.9v2.4h-1.9v.6h2.8v.5h-2.8v1h-.5v-1h-2.7v-.5h2.7v-.6h-1.9v-2.4h1.9v-.5h-2.2v-.5h2.2zm-1.3 2h1.3v-.5h-1.3v.5zm1.3.4h-1.3v.5h1.3v-.5zm.6-.4h1.4v-.5h-1.4v.5zm0 .4v.5h1.4v-.5h-1.4zM143.8 123.3v.6h3.3v.4h-3.3v.5h2.1v2.7h-4.2v-2.7h1.5v-.5h-3.5v-.4h3.5v-.6h-2.8v-1.7h6v1.7h-2.6zm-3 1.7v3h6.2v.5h-6.2v.4h-.5V125h.5zm.2-2.1h1.3v-.9H141v.9zm1.2 2.7h3.1v-.4h-3.1v.4zm0 .3v.4h3.1v-.4h-3.1zm0 .8v.4h3.1v-.4h-3.1zm.6-3.8h1.4v-.9h-1.4v.9zm1.8 0h1.3v-.9h-1.3v.9zM148.8 123.5v-2h.5v2h.8v.5h-.8v2.4l.9-.3v.4c.3-.2.5-.4.7-.6.2-.2.4-.5.5-.8h-1.2v-.5h5.2v.5h-3.3c-.1.2-.2.4-.4.6h3.3c0 1 0 1.7-.1 2.1-.1.4-.2.6-.3.7-.1.1-.5.2-1 .2 0-.2-.1-.4-.2-.5h.7c.1 0 .2-.1.3-.4.1-.3.1-.8.1-1.5h-.5c-.3.7-.6 1.2-1 1.6-.4.4-.8.7-1.2.9-.1-.1-.2-.3-.4-.4.5-.2.9-.5 1.2-.9.3-.3.5-.7.8-1.2h-.7c-.2.5-.5.8-.8 1.1-.4.3-.7.5-1.1.7-.1-.1-.2-.3-.4-.4.4-.2.7-.4 1-.7.2-.2.4-.4.6-.8h-.7c-.3.3-.6.6-1.1.9-.1-.1-.2-.3-.3-.4-.7.2-1.3.4-1.9.6l-.1-.6c.3-.1.6-.2 1-.3V124h-.9v-.5h.8zm2.4.6v-2.6h3.5v2.6h-3.5zm.5-1.5h2.4v-.5h-2.4v.5zm0 .5v.5h2.4v-.5h-2.4zM398.8 69.6l-.9 1.8-.4-.2 1-1.8c.1.1.2.2.3.2zm-.3-1.2-.2.3c-.2-.2-.5-.4-.8-.5l.2-.3c.4.1.6.3.8.5zm.3-1.4-.2.3c-.2-.3-.5-.5-.7-.6l.2-.3c.2.2.5.4.7.6zm1.1-.3c-.1.3-.2.5-.3.7h.8v-1h.4v1h1.4v.3h-1.4v1h1.7v.3h-1.2v1.8c0 .1 0 .1.1.1h.6c.1 0 .2-.1.2-.1.1-.1.1-.2.1-.4.1.1.2.1.4.1 0 .2-.1.4-.2.6-.1.2-.2.2-.4.2h-.7c-.3 0-.4-.2-.4-.5V69h-.8c0 .7-.1 1.2-.3 1.5-.2.3-.6.6-1.1.8-.1-.1-.1-.3-.2-.4.5-.2.9-.5 1-.8.1-.3.2-.6.2-1.1h-1.1v-.3h1.7v-1h-1c-.1.3-.3.5-.4.7-.1-.1-.2-.2-.3-.2.2-.3.4-.5.5-.8.1-.3.2-.5.3-.8l.4.1zM404.2 68.2l-.2.3c-.2-.1-.5-.2-.7-.3l.1-.3c.3.1.6.2.8.3zm.2 1.4-.8 1.8-.3-.2.8-1.8c.1.1.2.2.3.2zm.1-2.6-.2.3c-.2-.2-.4-.4-.6-.5l.2-.3c.1.1.4.3.6.5zm1.3 1.5c-.1.1-.1.2-.2.3h1c.1-.1.2-.3.3-.5l.3.1c-.1.1-.1.3-.2.4h1.3v.2h-1.4v.4h1.3v.3h-1.3v.4h1.3v.3h-1.3v.5h1.5v.3h-2.9v.2h-.4v-2.1l-.4.4c-.1-.1-.1-.2-.2-.3.2-.1.4-.3.6-.5.2-.2.3-.4.5-.7l.2.3zm.4-2v1.8h-.4v-.1h-1.1v-.3h1.1v-.4h-1.1v-.3h1.1v-.4h-1.1v-.3h1.5zm.3 2.5h-1.1v.4h1.1V69zm0 .7h-1.1v.4h1.1v-.4zm0 1.2v-.5h-1.1v.5h1.1zm1.6-4.4v1.8h-.4v-.1h-1.2v-.3h1.2v-.4h-1.2v-.3h1.2v-.4h-1.2v-.3h1.6zM409.7 67.5v-1.2h.4v1.2h.5v.4h-.5v.6c.1.1.1.2.2.2l.3.3c-.1.1-.2.2-.2.3l-.3-.3v2.5h-.4V69c-.1.4-.3.7-.5 1-.1-.1-.1-.2-.2-.3.2-.3.3-.6.4-.9.1-.2.2-.5.2-.9h-.6v-.4h.7zm2-.9-.5.9.2.2.3-.5.3.2-.7 1.1h.4c0-.1-.1-.2-.1-.3l.3-.1c.1.2.3.5.4.7-.1-.5-.1-1.3-.1-2.4h.4v1l.2-.2c.1 0 .1.1.2.1l.3-.8.3.2-.4.8.2.2.3-.5.3.2-.7 1.1h.4c0-.1-.1-.2-.1-.2l.3-.1c.1.2.2.5.3.8l-.4.1c0-.1 0-.1-.1-.2-.4.1-.8.1-1.1.1l-.1-.4h.2l.3-.5c-.2-.2-.4-.4-.7-.5 0 .7.1 1.2.1 1.6v.2h.6c0-.1-.1-.2-.1-.3l.3-.1c.1.1.2.3.2.4h.5v.4h-1.4c0 .2.1.4.2.5 0 .1.1.2.2.3.2-.2.4-.4.5-.6l.3.2c-.1.2-.3.4-.6.6.2.2.3.3.4.3 0 0 .1-.1.2-.5.1.1.2.1.4.2-.1.4-.2.6-.3.6 0 .1-.1.1-.2.1-.2 0-.5-.1-.7-.3l-.2-.2c-.4.3-.8.4-1.2.6 0-.1-.1-.2-.2-.4.4-.1.7-.3 1.1-.5h.1c-.1-.1-.1-.2-.2-.4s-.2-.5-.2-.7h-.7c0 .2-.1.3-.1.4.3.1.5.3.7.5l-.2.3c-.2-.2-.4-.3-.6-.4 0 .1-.1.2-.1.3-.1.3-.3.6-.6.9l-.3-.3c.2-.2.4-.5.5-.8.1-.2.2-.5.3-.8h-.6v-.4h1.7V69l-.4.1c0-.1 0-.1-.1-.2-.4.1-.8.1-1.1.1l-.1-.4h.2l.3-.5c-.2-.2-.5-.4-.7-.6l.2-.3c.1.1.2.1.2.2l.4-.9.7.1zM403.2 74.5v.4h2.3v.3h-2.3v.4h1.5v1.9h-2.9v-1.9h1.1v-.4h-2.4v-.3h2.4v-.4h-2v-1.2h4.2v1.2h-1.9zm-2 1.2v2.1h4.4v.3h-4.4v.3h-.4v-2.7h.4zm.1-1.5h.9v-.6h-.9v.6zm.9 1.9h2.2v-.3h-2.2v.3zm0 .3v.3h2.2v-.3h-2.2zm0 .5v.3h2.2v-.3h-2.2zm.3-2.7h1v-.6h-1v.6zm1.3 0h.9v-.6h-.9v.6zM406.8 74.7v-1.4h.4v1.4h.6v.4h-.6v1.7c.2-.1.4-.1.6-.2v.3c.2-.1.3-.3.5-.4.1-.2.3-.3.4-.6h-.9v-.4h3.6v.4H409c-.1.2-.2.3-.2.4h2.3c0 .7 0 1.2-.1 1.5-.1.2-.1.4-.2.5-.1.1-.3.1-.7.1 0-.1 0-.3-.1-.4h.5c.1 0 .1-.1.2-.3 0-.2.1-.6.1-1.1h-.4c-.2.5-.4.8-.7 1.1-.3.3-.6.5-.9.6 0-.1-.1-.2-.2-.3l.9-.6c.2-.2.4-.5.5-.9h-.5c-.2.3-.4.6-.6.8-.3.2-.5.4-.7.5 0-.1-.1-.2-.2-.3.3-.1.5-.3.7-.5.1-.1.3-.3.4-.5h-.5c-.2.2-.4.4-.8.6-.1-.1-.1-.2-.2-.3-.5.2-.9.3-1.4.4l-.1-.4c.2 0 .4-.1.7-.2v-1.8h-.6v-.4h.6zm1.6.4v-1.8h2.4v1.8h-2.4zm.4-1h1.7v-.4h-1.7v.4zm0 .3v.4h1.7v-.4h-1.7zM443.6 111.8l-2.1 4.4-.9-.5 2.2-4.4c.3.3.6.5.8.5zm-.6-3-.5.8c-.5-.5-1.1-.9-1.8-1.3l.4-.8c.8.5 1.4.9 1.9 1.3zm.7-3.2-.5.8c-.6-.6-1.2-1-1.8-1.4l.5-.7c.6.3 1.2.7 1.8 1.3zm5.1 1.2c-.1.1-.1.2-.2.3.7.8 1.4 1.5 2.1 2 .8.6 1.7 1.1 2.7 1.6-.3.3-.5.6-.7.9-.7-.3-1.4-.8-2.2-1.4-.8-.6-1.6-1.4-2.5-2.3-.5.7-1.1 1.3-1.6 1.9-.9.8-1.6 1.4-2.2 1.8-.2-.3-.4-.6-.6-.8.8-.5 1.6-1.1 2.3-1.9.7-.7 1.4-1.5 2-2.6l.9.5zm-1.5-2.3c-.8 1.1-1.7 1.9-2.8 2.6-.1-.3-.4-.6-.7-.8 1.1-.6 2-1.4 2.7-2.5l.8.7zm3.9 11.5h-.9v-.7h-3.8v.9h-.9v-5.4h5.7v5.2zm-.9-1.6v-2.8h-3.8v2.8h3.8zm.8-9.3c.4.3.9.6 1.4.7-.2.2-.4.5-.6.8-.6-.3-1.1-.6-1.6-1s-.9-.7-1.2-1l.5-.7c.5.5 1 .9 1.5 1.2zM460.5 112.5v-1.2h1v1.2h4.3v.8h-4.3v1.5h5.5v.8h-12.1v-.8h5.7v-1.5h-4.1v-.8h4zm1-8.7v1.4h4.9v2.7h-1v.4h-5.1l-1.1 2c1.4-.1 2.9-.2 4.3-.3-.3-.3-.6-.5-.9-.7l.7-.7c1.2.9 2.1 1.7 2.7 2.2l-.7.7-.8-.8c-3.2.3-6 .5-8.3.6l-.2-.9c.7 0 1.4 0 2.1-.1l1.2-2h-2.9v-.4h-.9v-2.7h4.9v-1.4h1.1zm4 3.6v-1.3h-9v1.3h9zM443.3 126.8c-.8-.7-1.3-1.4-1.7-2.1-.5-.8-.7-1.7-.7-2.7 0-1 .2-1.9.7-2.7.4-.6.9-1.3 1.7-2.1l.5.5c-.7.7-1.2 1.3-1.6 1.9-.4.7-.6 1.6-.6 2.4 0 .9.2 1.7.6 2.4.3.6.9 1.2 1.6 1.9l-.5.5zM446.9 125.3v-5.9c-.5.3-1 .5-1.4.6v-.8c.5-.1 1-.3 1.4-.6h.8v6.7h-.8zM453.1 124.9c-.5.4-.9.6-1.5.6-1.2 0-2-.6-2.2-1.9h.9c.2.8.6 1.2 1.4 1.2.4 0 .7-.1 1-.4.3-.2.4-.5.4-.9 0-1-.5-1.5-1.6-1.5h-.8v-.6h.5c1.1 0 1.6-.4 1.6-1.3 0-.3-.1-.6-.3-.9-.2-.2-.5-.4-.8-.4-.7 0-1.1.4-1.2 1.1h-.8c.2-1.1.8-1.7 2-1.7.5 0 1 .2 1.4.5.4.3.6.7.6 1.3 0 .6-.3 1.1-1 1.5.8.4 1.2 1.1 1.2 1.8-.1.8-.3 1.2-.8 1.6zM457.1 125.3v-5.9c-.5.3-1 .5-1.4.6v-.8c.5-.1 1-.3 1.4-.6h.8v6.7h-.8zM462.3 122.2c-.4.9-.5 2-.5 3.1h-.8c0-1.2.1-2.2.4-3.1.3-.9.9-1.8 1.7-2.9h-3.4v-.7h4.2v.8c-.7 1-1.3 1.9-1.6 2.8zM466.8 124.7c-.4.7-.9 1.3-1.7 2.1l-.5-.5c.7-.7 1.2-1.3 1.6-1.9.4-.7.6-1.5.6-2.4 0-.9-.2-1.7-.6-2.4-.3-.6-.9-1.2-1.6-1.9l.5-.5c.8.7 1.3 1.4 1.7 2.1.5.8.7 1.7.7 2.7 0 1-.2 1.9-.7 2.7zM432 150.2c-.5.7-1.3 1.2-2.5 1.6-.1-.2-.2-.4-.2-.5 1-.2 1.7-.6 2.1-1.2.5-.6.8-1.4.8-2.4H429v1.6h-.5v-2.1h1.9V146h.5v1.2h1.9c-.1 1.4-.4 2.3-.8 3zM436.2 148.9v2.3c0 .2 0 .4-.1.5-.1.1-.3.1-.7.2 0-.2-.1-.4-.1-.5h.3c.2 0 .2-.1.2-.2v-1.7c-.6.8-1.3 1.4-2.2 1.9-.1-.1-.2-.3-.3-.4 1-.5 1.7-1.2 2.3-2h-2.1v-.4h2.2v-1h.4v1h1.4v.4h-1.3zM438 149.2v-.5h4.8v.5H438zM446.4 150.2c-.6.7-1.4 1.2-2.4 1.5-.1-.1-.1-.3-.3-.5.9-.2 1.6-.6 2.1-1.2.5-.5.9-1.2 1.3-2.2h-1.9c-.4.7-.9 1.3-1.5 1.9-.1-.1-.3-.2-.4-.3.5-.4.9-.9 1.2-1.3.2-.4.5-.9.8-1.6l.5.2c-.1.2-.2.5-.4.8h2l.1-.1.3.3c-.4 1-.9 1.9-1.4 2.5zM451.4 148.1v3.6h-.4v-3.2c-.8.6-1.6 1.1-2.3 1.5-.1-.2-.2-.3-.3-.5.7-.3 1.5-.8 2.2-1.4.7-.6 1.3-1.2 1.9-1.9l.4.4c-.5.6-1 1.1-1.5 1.5zM456.3 150.1c-.6.5-1.4 1-2.4 1.5l-.3-.6c1.7-.6 3.1-1.7 4.4-3.3.1.2.2.3.4.4-.8.9-1.4 1.5-2.1 2zm-1.2-2c-.5-.4-.9-.8-1.4-1.1l.3-.4c.5.3 1 .7 1.4 1.1l-.3.4zM462 150.2c-.6.7-1.4 1.2-2.4 1.5-.1-.1-.1-.3-.3-.5.9-.2 1.6-.6 2.1-1.2.5-.5.9-1.2 1.3-2.2h-2c-.4.7-.9 1.3-1.5 1.9-.1-.1-.3-.2-.4-.3.5-.4.9-.9 1.2-1.3.2-.4.5-.9.8-1.6l.5.2c-.1.2-.2.5-.4.8h2l.1-.1.3.3c-.3 1-.8 1.9-1.3 2.5zM467.8 151.3v-.4h-3.1v.4h-.5V147h4.1v4.3h-.5zm0-3.9h-3.1v2.9h3.1v-2.9zM468.9 149.2v-.5h4.8v.5h-4.8zM477.4 149.8l-.3-.4c.5-.5 1-.9 1.3-1.4l-2.3.4v2.1c0 .3.2.4.6.5h.9c.5 0 1 0 1.4-.1v.5c-.6 0-1.1.1-1.6.1s-.9 0-1.2-.1c-.5-.1-.7-.4-.7-.9v-2.1l-1.5.2-.1-.5 1.5-.2v-1.7h.5v1.6l2.5-.4.1-.1.4.4c-.4 1-1 1.6-1.5 2.1zm1.5-2.5c-.2-.2-.4-.4-.7-.6l.2-.3c.3.2.5.4.7.6l-.2.3zm.4-.5c-.2-.2-.4-.4-.7-.6l.2-.3c.3.2.5.4.7.6l-.2.3zM480.5 149.6c-.1-.3-.4-.7-.6-1.1l.4-.2c.2.4.4.7.6 1.2l-.4.1zm2.8.2c-.3.6-.6 1-1 1.4-.4.3-.8.6-1.5.8-.1-.2-.1-.3-.3-.4.5-.2 1-.4 1.3-.6.4-.3.7-.7 1-1.2.2-.4.4-1 .6-1.7l.5.1c-.2.6-.4 1.1-.6 1.6zm-1.6-.6c-.1-.4-.3-.8-.5-1.1l.4-.2c.2.4.4.8.5 1.1l-.4.2zM488.1 149.7c-.7-.4-1.5-.8-2.5-1.2v3.3h-.6v-5.6h.5v1.8c1 .3 1.9.7 2.8 1.2l-.2.5zM278.3 194.1c-.2.5-.4 1-.7 1.4l-.3-.3c.5-.7.9-1.6 1.1-2.8l.3.2c-.1.6-.3 1.1-.4 1.5zm2.3 1.2c-.3-1-.7-1.9-1.1-2.8l.3-.2c.5.9.9 1.9 1.2 2.8l-.4.2zM283.2 194.7c-.4.4-1 .8-1.6 1.1l-.2-.4c1.1-.4 2.1-1.3 2.9-2.5.1.1.1.2.2.3-.4.6-.9 1.1-1.3 1.5zm-.9-1.6c-.3-.3-.6-.6-.9-.8l.2-.3c.3.2.7.5.9.8l-.2.3zM288 194.1c0 .5-.1.9-.1 1.2 0 .1-.1.2-.2.3-.1.1-.3.1-.7.2 0-.1-.1-.2-.1-.4h.3c.1 0 .2-.1.3-.2.1-.1.1-.4.1-.8v-1.1h-1c-.1.6-.2 1.2-.5 1.6-.2.4-.6.8-1 1.1-.1-.1-.1-.2-.2-.3.4-.3.7-.6.9-.9.2-.4.4-.8.4-1.4h-1.1v-.4h1.1v-1h.3v1h1.3l.2 1.1zm0-1.5-.5-.5.1-.2c.2.2.4.3.5.5l-.1.2zm.3-.3-.5-.5.1-.2c.2.2.4.3.5.5l-.1.2zM288.6 194v-.3h3.2v.3h-3.2zM293.2 194.1c-.2.5-.4 1-.7 1.4l-.3-.3c.5-.7.9-1.6 1.1-2.8l.3.2c-.1.6-.3 1.1-.4 1.5zm2.3 1.2c-.3-1-.7-1.9-1.1-2.8l.3-.2c.5.9.9 1.9 1.2 2.8l-.4.2zm.3-2.7c-.1.1-.2.2-.3.2-.1 0-.2 0-.3-.1-.1-.1-.1-.2-.1-.3 0-.1 0-.3.1-.3.1-.1.2-.1.3-.1.1 0 .2 0 .3.1.1.1.1.2.1.3s-.1.1-.1.2zm-.2-.5s-.1-.1-.2-.1c-.2 0-.2.1-.2.3 0 .1 0 .1.1.2 0 .1.1.1.2.1s.1 0 .2-.1c0 0 .1-.1.1-.2l-.2-.2zM298.2 193.2v2.7h-.3v-2.4c-.5.5-1.1.9-1.6 1.1 0-.1-.1-.3-.2-.4.5-.2 1-.6 1.5-1.1.5-.4.9-.9 1.3-1.4l.3.3c-.3.5-.7.9-1 1.2zM301.8 194.6c-.4.5-.9.9-1.6 1.2 0-.1-.1-.2-.2-.4.6-.2 1.1-.6 1.5-1 .3-.4.6-1 .8-1.8h-2.6v-.4h2.7l.2.3c-.1 1-.4 1.7-.8 2.1zm1.4-2.4c-.1.1-.2.2-.3.2-.1 0-.2 0-.3-.1-.1-.1-.1-.2-.1-.3 0-.1 0-.3.1-.3.1-.1.2-.1.3-.1.1 0 .2 0 .3.1.1.1.1.2.1.3 0 0 0 .1-.1.2zm-.1-.5s-.1-.1-.2-.1c-.2 0-.2.1-.2.3 0 .1 0 .1.1.2 0 .1.1.1.2.1s.1 0 .2-.1c0 0 .1-.1.1-.2-.2-.1-.2-.1-.2-.2zM282.8 229.1c-.2.5-.4 1-.7 1.4l-.3-.3c.5-.7.9-1.6 1.1-2.8l.3.2c-.1.6-.2 1.1-.4 1.5zm2.3 1.3c-.3-1-.7-1.9-1.1-2.8l.3-.2c.5.9.9 1.9 1.2 2.8l-.4.2zM287.7 229.7c-.4.4-1 .8-1.6 1.1l-.2-.4c1.1-.4 2.1-1.3 2.9-2.5.1.1.1.2.2.3-.4.7-.8 1.2-1.3 1.5zm-.8-1.5c-.3-.3-.6-.6-.9-.8l.2-.3c.3.2.7.5.9.8l-.2.3zM292.6 229.1c0 .5-.1.9-.1 1.2 0 .1-.1.2-.2.3-.1.1-.3.1-.7.2 0-.1-.1-.2-.1-.4h.3c.1 0 .2-.1.3-.2.1-.1.1-.4.1-.8v-1.1h-1c-.1.6-.2 1.2-.5 1.6-.2.4-.6.8-1 1.1-.1-.1-.1-.2-.2-.3.4-.3.7-.6.9-.9.2-.4.4-.8.4-1.4h-1.1v-.4h1.1v-1h.3v1h1.3l.2 1.1zm-.1-1.4-.5-.5.1-.2c.2.2.4.3.5.5l-.1.2zm.3-.4-.5-.5.1-.2c.2.2.4.3.5.5l-.1.2zM293.2 229.1v-.3h3.2v.3h-3.2zM297.7 229.1c-.2.5-.4 1-.7 1.4l-.3-.3c.5-.7.9-1.6 1.1-2.8l.3.2c0 .6-.2 1.1-.4 1.5zm2.4 1.3c-.3-1-.7-1.9-1.1-2.8l.3-.2c.5.9.9 1.9 1.2 2.8l-.4.2zm.2-2.7c-.1.1-.2.2-.3.2-.1 0-.2 0-.3-.1-.1-.1-.1-.2-.1-.3 0-.1 0-.3.1-.3.1-.1.2-.1.3-.1.1 0 .2 0 .3.1.1.1.1.2.1.3s0 .1-.1.2zm-.1-.5s-.1-.1-.2-.1c-.2 0-.2.1-.2.3 0 .1 0 .1.1.2 0 .1.1.1.2.1s.1 0 .2-.1c0 0 .1-.1.1-.2-.2-.1-.2-.2-.2-.2zM302.8 228.2v2.7h-.3v-2.4c-.5.5-1.1.9-1.6 1.1 0-.1-.1-.3-.2-.4.5-.2 1-.6 1.5-1.1.5-.4.9-.9 1.3-1.4l.3.3c-.4.6-.7.9-1 1.2zM306.4 229.7c-.4.5-.9.9-1.6 1.2 0-.1-.1-.2-.2-.4.6-.2 1.1-.6 1.5-1 .3-.4.6-1 .8-1.8h-2.6v-.4h2.7l.2.3c-.2 1-.5 1.7-.8 2.1zm1.4-2.4c-.1.1-.2.2-.3.2-.1 0-.2 0-.3-.1-.1-.1-.1-.2-.1-.3 0-.1 0-.3.1-.3.1-.1.2-.1.3-.1.1 0 .2 0 .3.1.1.1.1.2.1.3 0 0-.1.1-.1.2zm-.2-.5s-.1-.1-.2-.1c-.2 0-.2.1-.2.3 0 .1 0 .1.1.2 0 .1.1.1.2.1s.1 0 .2-.1c0 0 .1-.1.1-.2-.1-.1-.1-.2-.2-.2zM283.2 202.5c-.1-.1-.2-.2-.4-.3.4-.5.7-1.2 1-1.9l.4.2c-.3.8-.7 1.4-1 2zm2-2.9v3.7h-.4v-3.7h-2v-.5h2v-1.4h.4v1.4h2.2v.5h-2.2zm1.9 2.8c-.5-.5-.9-1.2-1.2-1.9l.4-.3c.4.8.8 1.4 1.2 1.9-.2.1-.3.2-.4.3zM287.9 200.7v-.5h4.3v.5h-4.3zM294.1 201c-.2.8-.6 1.5-1.2 2.1-.1-.2-.2-.3-.3-.4.4-.4.8-.8.9-1.4.2-.4.3-1 .3-1.7v-1.2h.4c0 1.2 0 2.1-.1 2.6zm1.4 2-.3-.4.1-.1V198h.4v4.2c.6-.5 1.2-1.2 1.7-2l.3.3c-.8 1.1-1.5 1.9-2.2 2.5zM279.6 207.4c-.5.7-1.3 1.2-2.1 1.5-.1-.1-.1-.3-.2-.5.8-.2 1.4-.6 1.9-1.2.4-.5.8-1.2 1.2-2.2h-1.7c-.4.7-.8 1.3-1.3 1.9-.1-.1-.2-.2-.4-.3.4-.4.8-.9 1-1.3.2-.4.5-.9.7-1.6l.5.2c-.1.2-.2.5-.3.8h1.8l.1-.1.3.3c-.5 1.1-1 1.9-1.5 2.5zM284.9 208.6v-.4h-2.8v.4h-.4v-4.3h3.6v4.3h-.4zm0-3.9h-2.8v2.9h2.8v-2.9zM285.9 206.5v-.5h4.3v.5h-4.3zM293.6 207.1l-.3-.4c.5-.5.9-.9 1.2-1.4l-2.1.4v2.1c0 .3.2.4.6.5h.8c.5 0 .9 0 1.3-.1v.5c-.5 0-1 .1-1.4.1-.5 0-.8 0-1.1-.1-.4-.1-.6-.4-.6-.9v-2.1l-1.3.2-.1-.5 1.4-.2v-1.7h.4v1.6l2.2-.4.1-.1.4.4c-.5 1-1.1 1.6-1.5 2.1zm1.3-2.5c-.1-.2-.3-.4-.6-.6l.2-.3c.3.2.5.4.6.6l-.2.3zm.4-.5c-.1-.2-.3-.4-.6-.6l.2-.3c.3.2.5.4.6.6l-.2.3zM296.5 206.8c-.1-.3-.3-.7-.6-1.1l.3-.2c.2.4.4.7.6 1.2l-.3.1zm2.4.2c-.2.6-.6 1-.9 1.4-.3.3-.8.6-1.3.8-.1-.2-.1-.3-.2-.4.5-.2.9-.4 1.2-.6.3-.3.6-.7.9-1.2.2-.4.4-1 .5-1.7l.4.1c-.2.7-.4 1.2-.6 1.6zm-1.4-.6c-.1-.4-.3-.8-.4-1.1l.3-.2c.2.4.4.8.5 1.1l-.4.2zM303.3 207c-.6-.4-1.4-.8-2.3-1.2v3.3h-.4v-5.6h.4v1.8c.9.3 1.7.7 2.5 1.2l-.2.5zM284.2 220c-.5.7-1.3 1.2-2.1 1.5-.1-.1-.1-.3-.2-.5.8-.2 1.4-.6 1.9-1.2.4-.5.8-1.2 1.2-2.2h-1.7c-.4.7-.8 1.3-1.3 1.9-.1-.1-.2-.2-.4-.3.4-.4.8-.9 1-1.3.2-.4.5-.9.7-1.6l.5.2c-.1.2-.2.5-.3.8h1.8l.1-.1.3.3c-.6 1-1 1.9-1.5 2.5zM289.4 221.1v-.4h-2.8v.4h-.4v-4.3h3.6v4.3h-.4zm0-3.9h-2.8v2.9h2.8v-2.9zM290.5 219v-.5h4.3v.5h-4.3zM298.2 219.6l-.3-.4c.5-.5.9-.9 1.2-1.4l-2.1.4v2.1c0 .3.2.4.6.5h.8c.5 0 .9 0 1.3-.1v.5c-.5 0-1 .1-1.4.1-.5 0-.8 0-1.1-.1-.4-.1-.6-.4-.6-.9v-2.1l-1.3.2-.1-.5 1.4-.2V216h.4v1.6l2.2-.4.1-.1.4.4c-.6 1-1.1 1.7-1.5 2.1zm1.3-2.4c-.1-.2-.3-.4-.6-.6l.2-.3c.3.2.5.4.6.6l-.2.3zm.4-.5c-.1-.2-.3-.4-.6-.6l.2-.3c.3.2.5.4.6.6l-.2.3zM301 219.4c-.1-.3-.3-.7-.6-1.1l.3-.2c.2.4.4.7.6 1.2l-.3.1zm2.5.2c-.2.6-.6 1-.9 1.4-.3.3-.8.6-1.3.8-.1-.2-.1-.3-.2-.4.5-.2.9-.4 1.2-.6.3-.3.6-.7.9-1.2.2-.4.4-1 .5-1.7l.4.1c-.3.6-.4 1.2-.6 1.6zm-1.4-.6c-.1-.4-.3-.8-.4-1.1l.3-.2c.2.4.4.8.5 1.1l-.4.2zM307.8 219.5c-.6-.4-1.4-.8-2.3-1.2v3.3h-.4V216h.4v1.8c.9.3 1.7.7 2.5 1.2l-.2.5zM238.7 50.2v-.5h.4v.5h2.5v.4h-2.5v.4h2v2.1h-.8v.5h1.5v.4h-1.5v1c0 .2-.1.3-.2.3-.2.1-.4.1-.7.1 0-.2-.1-.3-.2-.5h.6c.1 0 .1 0 .1-.1V54H236v-.4h3.8v-.5h-3V51h1.9v-.5h-2.5v-.4h2.5zm-.5 4.6-.4.3c-.2-.3-.4-.5-.7-.8l.3-.3c.4.3.6.5.8.8zm-1-2.9h1.5v-.5h-1.5v.5zm1.5.3h-1.5v.5h1.5v-.5zm.4-.3h1.5v-.5h-1.5v.5zm0 .3v.5h1.5v-.5h-1.5zM247.8 50v5c0 .2-.1.4-.2.4-.1.1-.4.1-.7.1 0-.2-.1-.3-.2-.5h.5c.1 0 .1 0 .1-.1v-1.5h-1.7v2.1h-.4v-2.1h-1.5c-.1.9-.3 1.6-.8 2.2-.1-.2-.3-.3-.4-.4.5-.6.8-1.4.8-2.5V50h4.5zm-2.6 3v-1h-1.5v1.1h1.5zm0-1.5v-1.1h-1.5v1.1h1.5zm.5 0h1.7v-1.1h-1.7v1.1zm0 1.5h1.7v-1h-1.7v1zM226.6 61.2c-.7-.4-1.6-.8-2.7-1.2v3.3h-.5v-5.6h.5v1.8c1 .3 2 .7 3 1.2l-.3.5zM231 62c-.6.5-1.4.9-2.5 1.2 0-.2-.1-.3-.2-.5.9-.2 1.6-.5 2.1-.9.6-.4 1-1.1 1.5-1.9h-4.2v-.5h4.6l.3.3c-.6 1.1-1.1 1.9-1.6 2.3zm-2.7-3.5V58h3.5v.5h-3.5zM236.2 61.6c-.7.5-1.5 1-2.5 1.5l-.3-.6c1.8-.6 3.3-1.7 4.6-3.3.1.2.2.3.4.4-.9.8-1.6 1.5-2.2 2zm-1.4-2.1c-.5-.4-1-.8-1.4-1.1l.3-.4c.5.3 1 .7 1.5 1.1l-.4.4zM242.2 61.6c-.6.7-1.5 1.2-2.5 1.5-.1-.1-.2-.3-.3-.5.9-.2 1.7-.6 2.2-1.2.5-.5 1-1.2 1.4-2.2h-2.1c-.4.7-1 1.3-1.5 1.9-.1-.1-.3-.2-.4-.3.5-.4.9-.9 1.2-1.3.2-.4.5-.9.9-1.6l.5.2c-.1.2-.2.5-.4.8h2.1l.1-.1.3.3c-.5 1.1-1 1.9-1.5 2.5zM246 60.9c-.2.8-.7 1.5-1.4 2.1-.1-.2-.2-.3-.3-.4.5-.4.9-.8 1.1-1.4.2-.4.3-1 .3-1.7v-1.2h.5c0 1.2-.1 2.1-.2 2.6zm1.6 2-.4-.4.1-.1v-4.5h.5v4.2c.7-.5 1.4-1.2 2-2 .1.1.2.2.4.3-.9 1.1-1.7 1.9-2.6 2.5zM250.7 60.7v-.5h5.1v.5h-5.1zM261.1 62.9c-.1-.2-.2-.4-.4-.7-2 .3-3.4.5-4.3.6l-.1-.6h.7c.6-1.2 1.2-2.6 1.7-4.3l.6.2c-.8 1.9-1.4 3.2-1.8 4 .9-.1 1.9-.2 3-.3-.3-.5-.7-1.1-1.1-1.6l.4-.3c.8 1 1.4 1.9 1.8 2.7l-.5.3zM313.4 156.8c-.2-.2-.5-.4-.8-.6.8-.9 1.5-2.1 2.2-3.4l.8.4c-.7 1.4-1.4 2.6-2.2 3.6zm4.3-5.1v6.5h-.8v-6.5h-4.2v-.8h4.2v-2.5h.8v2.5h4.5v.8h-4.5zm3.8 4.9c-.9-.9-1.8-2.1-2.5-3.4l.8-.5c.8 1.3 1.6 2.4 2.5 3.3-.3.2-.6.4-.8.6zM323.2 153.7v-.8h8.9v.8h-8.9zM335.9 154.2c-.4 1.4-1.2 2.7-2.4 3.7-.2-.3-.4-.5-.6-.8.9-.7 1.6-1.4 2-2.4.3-.8.5-1.8.6-3v-2.1h.9c-.2 2.1-.3 3.7-.5 4.6zm2.9 3.4-.6-.7.1-.1v-7.9h.8v7.4c1.2-.9 2.4-2 3.5-3.5.2.2.4.4.7.6-1.5 1.8-3 3.2-4.5 4.2zM289.1 79.1V78h.4v1.2h.6v.4h-.6v1c.2-.1.4-.1.7-.2v.4c-.2.1-.5.1-.7.2v1.7c0 .1-.1.2-.2.3-.1.1-.3.1-.6.1 0-.1 0-.3-.1-.4h.5c.1 0 .1 0 .1-.1V81c-.3.1-.6.2-.8.2l-.1-.4c.3-.1.6-.1.9-.2v-1.1h-.9v-.4h.8zm4-.8c-.8.3-1.5.4-2.1.5v.9h2.3v.4h-.7V83h-.4v-2.9H291v.2c0 .5-.1.9-.2 1.3-.1.5-.3.9-.6 1.3-.1-.1-.2-.2-.3-.2.3-.4.4-.7.6-1.1.1-.4.2-.8.2-1.2v-1.9l.3.1c.7-.1 1.4-.2 2-.5l.1.2zM296.6 78v1.8h1.8v.4h-1.8v2.3h2.3v.4h-5v-.4h2.2V78h.5zM304.6 78.3v.4h-2.2v1.2h2v.3h-1.9c.1.5.4.9.7 1.3.4.5 1 .8 1.6 1-.1.1-.2.2-.3.4-.7-.3-1.2-.7-1.6-1.2-.3-.3-.5-.6-.6-1-.1.4-.2.7-.4 1-.4.5-1 1-1.9 1.3-.1-.2-.1-.3-.2-.4 1-.4 1.6-.8 1.9-1.4.1-.3.2-.6.3-1h-1.8v-.3h1.8v-1.2h-2.1v-.4h4.7zM306.8 79.1V78h.4v1.1h1.5v-1.2h.4v1.2h1.1v.4H309v1.3h1.5v.4H309V83h-.4v-1.9h-1.5c-.1.3-.1.6-.3.9-.2.4-.6.7-1.1 1l-.3-.3c.5-.2.9-.5 1.1-.9.1-.2.2-.4.2-.7h-1.4v-.4h1.4v-1.3h-1.1V79h1.2zm1.9.3h-1.5v1.3h1.5v-1.3zM239.5 83.2v-1.8h.5v1.8h.9v.5h-.9v.7l.4.4c.1.1.3.2.5.4-.1.2-.2.3-.3.5-.2-.2-.4-.3-.5-.4 0 0-.1 0-.1-.1v3.7h-.5V85c-.1.3-.2.5-.3.8-.2.4-.4.7-.5.8-.1-.2-.2-.4-.3-.5.3-.4.5-.7.7-1.1.2-.3.3-.7.5-1.3h-.9v-.5h.8zm3.4-1.5v6.1c0 .2 0 .3-.1.4-.1.1-.4.2-.8.2 0-.2-.1-.4-.2-.5h.4c.1 0 .2 0 .2-.1V86h-.8c0 .3-.1.5-.1.8-.1.7-.3 1.3-.6 1.8-.1-.2-.2-.4-.4-.5.3-.5.5-1 .6-1.6.1-.5.1-1.2.1-1.9v-2.8h1.7zm-.5 3.8v-1.3h-.8v1.4h.8zm0-1.9v-1.4h-.8v1.4h.8zm3.1-1.9V88c0 .2 0 .3-.1.4-.1.1-.4.1-.9.2 0-.2-.1-.4-.2-.5h.4c.2 0 .2 0 .2-.1v-2h-.9c0 .4-.1.7-.1 1-.1.7-.3 1.2-.5 1.7-.1-.2-.2-.4-.4-.5.2-.4.3-1 .4-1.5 0-.5.1-1.1.1-1.8v-3.1h2zm-.6 3.8v-1.3h-.9v1.4h.9zm0-1.9v-1.4h-.9v1.4h.9zM247.8 114.5l.2 2.1h-.5l-.2-2.1-2.4.2-.1-.5 2.4-.2-.1-1.2-1.8.2v-.5l1.8-.2-.1-1.3h.5l.1 1.3 1.8-.2v.5l-1.8.2.1 1.2 2.4-.2.1.5-2.4.2zM251.5 114.4c-.2-.3-.4-.7-.7-1.1l.4-.2c.2.4.5.7.7 1.2l-.4.1zm2.9.2c-.3.6-.7 1-1.1 1.4-.4.3-.9.6-1.5.8-.1-.2-.2-.3-.3-.4.6-.2 1-.4 1.4-.6.4-.3.7-.7 1-1.2.2-.4.4-1 .6-1.7l.5.1c-.2.7-.4 1.2-.6 1.6zm-1.7-.6c-.1-.4-.3-.8-.5-1.1l.4-.2c.2.4.4.8.6 1.1l-.5.2zM258.7 113.6c-.1.9-.2 1.5-.5 1.9-.3.4-.9.8-1.7 1.1-.1-.1-.2-.3-.3-.5.7-.2 1.2-.5 1.5-.8.3-.4.5-1 .5-1.8h-2.6v-.5h2.6v-1.2c-.8.1-1.4.2-1.9.3 0-.2-.1-.3-.2-.4 1.4-.1 2.7-.4 3.9-.7l.2.4-1.5.3v1.2h2.5v.5h-2.5zM264.7 115c-.7.5-1.5 1-2.5 1.5l-.3-.6c1.8-.6 3.3-1.7 4.6-3.3.1.2.2.3.4.4-.9.8-1.6 1.5-2.2 2zm-1.4-2.1c-.5-.4-1-.8-1.4-1.1l.3-.4c.5.3 1 .7 1.5 1.1l-.4.4zM244.2 120.7c-.3.7-.7 1.3-1.1 1.8-.1-.2-.3-.3-.4-.4.8-.9 1.4-2.1 1.8-3.7l.5.2c-.3.9-.5 1.6-.8 2.1zm3.7 1.7c-.4-1.3-1-2.5-1.8-3.8l.4-.3c.8 1.2 1.4 2.5 1.9 3.8l-.5.3zm.4-3.6c-.1.1-.3.2-.4.2-.2 0-.3-.1-.5-.2-.1-.1-.2-.3-.2-.5s.1-.3.2-.5c.1-.1.3-.2.5-.2s.3.1.4.2c.1.1.2.3.2.4 0 .3-.1.5-.2.6zm-.2-.7c-.1-.1-.2-.1-.2-.1-.2 0-.4.1-.4.3 0 .1 0 .2.1.3.1.1.2.1.3.1.1 0 .2 0 .2-.1.1-.1.1-.2.1-.3 0 0-.1-.1-.1-.2zM251.8 121.5c-.7.5-1.5 1-2.5 1.5l-.3-.6c1.8-.6 3.3-1.7 4.6-3.3.1.2.2.3.4.4-.9.9-1.6 1.5-2.2 2zm-1.4-2c-.5-.4-1-.8-1.4-1.1l.3-.4c.5.3 1 .7 1.5 1.1l-.4.4zM258.4 121.1c-.7-.4-1.6-.8-2.7-1.2v3.3h-.5v-5.6h.5v1.8c1 .3 2 .7 3 1.2l-.3.5zM259.7 121.1V118h.5v3.1h-.5zm3.3-1.7c0 .8-.1 1.4-.2 1.8-.1.5-.4.9-.7 1.2-.3.3-.9.6-1.6.8-.1-.2-.2-.3-.3-.5.9-.2 1.6-.6 1.8-1.1.3-.4.4-1.1.4-2.2v-1.7h.5l.1 1.7zM263.9 120.6v-.5h5.1v.5h-5.1zM252.1 129.9c-.5-.5-.8-.9-1-1.3-.3-.5-.4-1.1-.4-1.7 0-.6.1-1.2.4-1.7.2-.4.6-.8 1-1.3l.3.3c-.4.4-.8.8-1 1.2-.3.4-.4.9-.4 1.5 0 .5.1 1 .4 1.5.2.4.5.7 1 1.2l-.3.3zM253.7 125.4V124h.4v1.4h.7v.4h-.7v.5l.3.3c.1.1.2.2.4.3-.1.1-.2.3-.3.4-.2-.1-.3-.2-.4-.3 0 0-.1 0-.1-.1v2.9h-.4v-3l-.3.6c-.2.3-.3.5-.4.6-.1-.2-.1-.3-.3-.4.2-.3.4-.6.5-.9.1-.3.3-.6.4-1h-.5v-.4h.7zm2.7-1.1v4.9c0 .1 0 .2-.1.3-.1.1-.3.1-.7.2 0-.2-.1-.3-.1-.4h.3c.1 0 .2 0 .2-.1v-1.4h-.7c0 .2-.1.4-.1.6-.1.6-.3 1-.5 1.5-.1-.2-.2-.3-.3-.4.2-.4.4-.8.5-1.3.1-.4.1-.9.1-1.5v-2.2h1.4zm-.4 3v-1.1h-.6v1.1h.6zm0-1.5v-1.1h-.6v1.1h.6zm2.4-1.5v5c0 .1 0 .2-.1.3-.1.1-.3.1-.7.1 0-.2-.1-.3-.1-.4h.3c.1 0 .2 0 .2-.1v-1.6h-.7c0 .3 0 .6-.1.8-.1.5-.2 1-.4 1.4-.1-.2-.2-.3-.3-.4l.3-1.2c0-.4.1-.9.1-1.4v-2.5h1.5zm-.4 3v-1.1h-.7v1.1h.7zm0-1.5v-1.1h-.7v1.1h.7zM260.6 128.7c-.2.4-.6.8-1 1.3l-.3-.3c.4-.4.8-.8 1-1.2.2-.4.4-.9.4-1.5 0-.5-.1-1-.4-1.5-.2-.4-.5-.7-1-1.2l.3-.3c.5.5.8.9 1 1.3.3.5.4 1.1.4 1.7 0 .6-.1 1.2-.4 1.7zM279.7 113.7c-.4-.4-.7-.8-.9-1.1-.3-.4-.4-.9-.4-1.5s.1-1 .4-1.5c.2-.3.5-.7.9-1.1l.3.3c-.4.4-.7.7-.8 1-.2.4-.3.8-.3 1.3s.1.9.3 1.3c.2.3.5.7.8 1l-.3.3zM282.7 110v-1.5h.4v1.5h2.4v.4h-2.2c.1.6.4 1.1.7 1.6.4.6.9 1 1.5 1.3-.1.1-.2.2-.3.4-.6-.4-1.2-.9-1.6-1.5-.3-.4-.5-.9-.6-1.4-.1.4-.2.7-.3 1-.3.6-.9 1.3-1.9 2-.1-.2-.2-.3-.3-.4.8-.4 1.4-1 1.8-1.6.2-.4.4-.9.5-1.4h-2.1v-.4h2zM288.1 109v.4h-.7v1.1h.6v.4h-.6v1.3c.2-.1.5-.1.7-.2v.4c-.6.2-1.2.4-1.8.5l-.1-.4c.2-.1.5-.1.8-.2v-1.4h-.7v-.4h.7v-1.1h-.7v-.4h1.8zm1.7 2.3v.7h1.3v.4h-1.3v.8h1.5v.4h-3.5v-.4h1.6v-.8h-1.2v-.4h1.2v-.7h-1.1v-2.6h2.7v2.6h-1.2zm-1.2-1.4h.8v-.7h-.8v.7zm.8.3h-.8v.7h.8v-.7zm.4-.3h.8v-.7h-.8v.7zm0 .3v.7h.8v-.7h-.8zM296.9 108.9v.4h-2.6c-.3.7-.5 1.2-.8 1.6h2.9v2.8h-.4v-.4h-2.5v.4h-.4v-2.3c-.3.3-.6.7-1 1l-.3-.3c.6-.4 1-.8 1.3-1.4.3-.4.5-.9.7-1.5h-1.7v-.4h4.8zm-.9 4v-1.7h-2.5v1.7h2.5zM299.6 109.6v.3h-2v-.3h2zm-.2-.8v.3h-1.5v-.3h1.5zm0 1.5v.3h-1.5v-.3h1.5zm0 .8v.3h-1.5v-.3h1.5zm0 .8v1.5h-1.2v.3h-.4v-1.8h1.6zm-.4 1.1v-.8h-.8v.8h.8zm3.5-4.2v4.4c0 .2 0 .3-.1.3s-.3.1-.5.1c0-.1-.1-.3-.1-.4h.4s.1 0 .1-.1V109h-1.9v2.2c0 .9-.2 1.7-.5 2.3-.1-.1-.2-.3-.3-.3.3-.5.4-1.2.4-2v-2.5h2.5zm-1.5 1.1v-.6h.3v.6h.5v.3h-.5v.6h.6v.3h-1.6v-.3h.6v-.6h-.5v-.3h.6zm.8 1.6v1.3h-.9v.4h-.4v-1.7h1.3zm-.3 1v-.7h-.6v.7h.6zM306.3 112.1c-.6.6-1.3 1.1-2.3 1.5-.1-.1-.1-.2-.3-.4.9-.3 1.6-.8 2.2-1.4-.3-.3-.7-.6-1-.8l.2-.3c.4.3.8.5 1.1.8.3-.4.6-.9.9-1.5h-1.8c-.5.7-1 1.2-1.7 1.6-.1-.1-.2-.3-.3-.4.6-.4 1-.7 1.2-1 .3-.3.5-.8.8-1.4l.5.2-.3.6h1.8l.3.3c-.4.9-.9 1.7-1.3 2.2zM311.2 110.4v3.2h-.4v-2.8c-.7.6-1.5 1-2.1 1.3-.1-.2-.1-.3-.2-.4.7-.3 1.4-.7 2.1-1.2.6-.5 1.2-1.1 1.7-1.7l.4.3c-.7.5-1.1.9-1.5 1.3zM314.6 111.5c-.2.7-.6 1.3-1.2 1.9-.1-.1-.2-.3-.3-.4.5-.3.8-.7 1-1.2.2-.4.3-.9.3-1.5v-1h.4c0 1 0 1.8-.2 2.2zm1.5 1.8-.3-.3.1-.1v-4h.4v3.7c.6-.4 1.2-1 1.8-1.8l.3.3c-.8.9-1.6 1.7-2.3 2.2zM319.9 112.6c-.2.4-.5.7-.9 1.1l-.3-.3c.4-.4.7-.7.8-1 .2-.4.3-.8.3-1.3s-.1-.9-.3-1.3c-.2-.3-.5-.7-.8-1l.3-.3c.4.4.7.8.9 1.1.3.4.4.9.4 1.5s-.2 1.1-.4 1.5zM325.3 197v-3.8h.4v3.5h2.4v.4h-2.8zM331.1 192.9v.3h-.5v.6h.6v.3h-.6v1h-.3v-1h-.6c0 .2-.1.4-.2.6-.1.3-.4.5-.7.7-.1-.1-.1-.2-.2-.3.3-.1.5-.3.6-.6.1-.1.1-.2.1-.4h-.6v-.3h.7v-.6h-.5v-.3h2.2zm-.4 2.8v-.4h.3v.4h1.5v.3H331v.6h2v.3h-4.3v-.3h2v-.6h-1.4v-.3h1.4zm-.4-2.4h-.6v.6h.6v-.6zm1.5-.3v1.8h-.3V193h.3zm1-.2v2.3c0 .1-.1.2-.2.2-.1.1-.3.1-.5.1 0-.1 0-.2-.1-.4h.4s.1 0 .1-.1v-2.2h.3zM337.6 193.2c-.4.1-.9.2-1.6.2v.7h1.7v.3H336v.8h2v.3h-2v1.2c0 .1-.1.2-.2.3-.1.1-.4.1-.6.1 0-.1 0-.3-.1-.4h.5c.1 0 .1 0 .1-.1v-1.1h-1.9v-.3h1.9v-.8H334v-.3h1.7v-.7c-.5 0-1.1.1-1.5.1 0-.2-.1-.3-.2-.3.7 0 1.3 0 1.9-.1.5-.1 1.1-.1 1.6-.2l.1.3zM339.1 193.7v-1h.3v1h.4v.3h-.4v.7c.1 0 .3-.1.4-.2v.3c-.1.1-.3.1-.4.2v1.7c0 .1-.1.2-.2.2s-.3.1-.6.1c0-.1 0-.2-.1-.3h.5c.1 0 .1 0 .1-.1v-1.5c-.2.1-.4.2-.6.2l-.1-.3c.2-.1.4-.1.7-.2v-.8h-.6v-.3h.6zm2.1-.8v1.8l.3.1-.1.4h1.1v2h-.3v-.2h-1.6v.2h-.3v-2h.9l.1-.4c-.1 0-.2.1-.5.1 0-.1 0-.3-.1-.3h.2c.1 0 .1 0 .1-.1v-1.3h-1v-.3h1.2zm-.5 1.4c-.3.1-.6.2-.8.3l-.1-.3c.2-.1.5-.2.9-.3v.3zm-.1-.6-.2.2-.4-.4.1-.2c.2.2.3.3.5.4zm1.5 2.2v-.4h-1.6v.4h1.6zm0 .8v-.5h-1.6v.5h1.6zm.6-3.8v1.7c0 .1 0 .2-.1.2s-.2.1-.5.1c0-.1 0-.3-.1-.3H342.3v-1.3h-1v-.3h1.4zm-.7.8-.2.2c-.1-.1-.3-.2-.5-.3l.1-.2c.3.1.5.2.6.3zm.2.6c-.3.1-.5.2-.7.3l-.1-.3c.2-.1.5-.2.8-.3v.3zM196.2 319.1v.9h2.4v.4H194v1.5c0 1.3-.3 2.3-.9 3.2-.1-.2-.2-.3-.4-.4.6-.7.8-1.6.8-2.8V320h2.1v-.9h.6zm-.2 2.5v-1h.4v1h2v.4h-1.8c.2.4.4.7.7 1 .3.4.7.7 1.3 1-.2.1-.3.3-.3.4-.5-.3-.9-.7-1.3-1.1l-.6-.9v2.6h-.4v-2.5c-.2.3-.5.7-.7.9-.4.4-.8.8-1.2 1.1-.1-.1-.2-.3-.3-.4.4-.2.7-.5 1.1-.9.3-.3.6-.7.9-1.2h-1.5v-.4h1.7zM201 319.7v4h-1v.7h-.4v-4.6h1.4zm-.3 1.8v-1.4h-.7v1.4h.7zm0 1.8v-1.4h-.7v1.4h.7zm4.2-3.3-.5 1h.7v.4h-2c0 .2-.1.4-.1.5h2.3v.4H203c-.1.2-.1.3-.2.5H204.5l.2.3c-.2.4-.5.8-.8 1.1.4.2.9.4 1.5.5-.1.2-.2.3-.3.4-.6-.1-1.1-.3-1.6-.6-.4.3-.9.5-1.6.6 0-.2-.1-.3-.2-.4.6-.1 1.1-.3 1.4-.5-.3-.2-.5-.5-.7-.7-.3.5-.7.9-1.2 1.3l-.3-.3c.6-.4 1-.8 1.3-1.3.1-.2.2-.4.3-.7h-1.1v-.4h1.2c0-.2.1-.4.1-.5h-1.2v-.6h2.5l.5-1.1.4.1zm0-.4c-1.2.2-2.3.4-3.3.4 0-.1-.1-.2-.2-.4 1.1-.1 2.2-.2 3.2-.4l.3.4zm-2.4 1.1-.4.1-.3-.6.3-.1c.2.2.3.4.4.6zm.9 3.1c.3-.2.5-.5.6-.8h-1.4c.2.4.5.6.8.8zm.1-3.1-.4.1c-.1-.2-.1-.4-.2-.7l.3-.1c.1.2.2.5.3.7zM206.9 323.3c-.1.6-.3 1.1-.6 1.6-.1-.2-.2-.3-.3-.4.3-.4.4-.9.5-1.4.1-.5.1-1.1.1-1.8v-1.2h4.6v1.3h-1.8v.7h2.3v.4h-2.6c0 .2-.1.4-.1.6h2.2l-.1 1.1c0 .3-.1.5-.3.6-.2.1-.5.1-.9.1 0-.2 0-.3-.1-.4h.8s.1-.1.1-.2l.1-.7h-1.9c-.1.1-.1.3-.2.4-.3.4-.8.8-1.5 1-.1-.1-.2-.3-.3-.4.7-.2 1.2-.5 1.5-.9.2-.3.3-.7.4-1.1h-1.4v-.4h1.7v-.7h-2c-.1.7-.2 1.3-.2 1.8zm4.8-3.9v.4H206v-.4h5.7zm-4.7 1.7h3.7v-.6H207v.6zM203 210.3v-1.2h.4v1.2h.6v.4h-.6v1c.2-.1.4-.1.7-.2v.4c-.2.1-.5.1-.7.2v1.7c0 .1-.1.2-.2.3-.1.1-.3.1-.6.1 0-.1 0-.3-.1-.4h.5c.1 0 .1 0 .1-.1v-1.5c-.3.1-.6.2-.8.2l-.1-.4c.3-.1.6-.1.9-.2v-1.1h-.9v-.4h.8zm4-.8c-.8.3-1.5.4-2.1.5v.9h2.3v.4h-.7v2.9h-.4v-2.9h-1.2v.2c0 .5-.1.9-.2 1.3-.1.5-.3.9-.6 1.3-.1-.1-.2-.2-.3-.2.3-.4.4-.7.6-1.1.1-.4.2-.8.2-1.2v-1.9l.3.1c.7-.1 1.4-.2 2-.5l.1.2zM210.6 209.1v1.8h1.8v.4h-1.8v2.3h2.3v.4h-5v-.4h2.2v-4.5h.5zM218.5 209.4v.4h-2.2v1.2h2v.3h-1.9c.1.5.4.9.7 1.3.4.5 1 .8 1.6 1-.1.1-.2.2-.3.4-.7-.3-1.2-.7-1.6-1.2-.3-.3-.5-.6-.6-1-.1.4-.2.7-.4 1-.4.5-1 1-1.9 1.3-.1-.2-.1-.3-.2-.4 1-.4 1.6-.8 1.9-1.4.1-.3.2-.6.3-1H214v-.3h1.8v-1.2h-2.1v-.4h4.8zM220.7 210.2v-1.1h.4v1.1h1.5V209h.4v1.2h1.1v.4H223v1.3h1.5v.4H223v1.9h-.4v-1.9h-1.5c-.1.3-.1.6-.3.9-.2.4-.6.7-1.1 1l-.3-.3c.5-.2.9-.5 1.1-.9.1-.2.2-.4.2-.7h-1.4v-.4h1.4v-1.3h-1.1v-.4h1.1zm1.9.4h-1.5v1.3h1.5v-1.3z"/><path class="st19" d="M167.1 207.3H273M153.9 213.3v154"/></svg>