<svg version="1.1" id="レイヤー_1" xmlns="http://www.w3.org/2000/svg" x="0" y="0" viewBox="0 0 620 452.1" style="enable-background:new 0 0 620 452.1" xml:space="preserve"><style>.st2{fill:#bfc0c0}.st3{fill:none;stroke:#000;stroke-width:.4;stroke-dasharray:1.3,1.3,0,0,0,0}.st4{stroke-miterlimit:10}.st4,.st5,.st6{fill:none;stroke:#000;stroke-width:.4}.st6{stroke-width:.6}.st7{fill:#fff}.st8{fill:#fadce9}.st9{fill:#f9f4e4}.st12{fill:#dfeaf8}.st15{fill:none;stroke:#cfb5a7;stroke-width:.4}.st16{stroke:#b5b5b6;stroke-miterlimit:10}.st16,.st17,.st18,.st19,.st20{fill:none;stroke-width:.4}.st17{stroke:#aaabab;stroke-linecap:round;stroke-linejoin:round;stroke-miterlimit:10;stroke-dasharray:4.5,2.5}.st18,.st19,.st20{stroke:#000;stroke-linejoin:bevel;stroke-dasharray:15,1.3,1.3,1.3}.st19,.st20{stroke-width:.3;stroke-dasharray:1.3,1.3,0,0,0,0}.st20{stroke-width:.4;stroke-dasharray:10,1.3,1.3,1.3}.st22,.st23,.st24,.st25,.st26,.st28{fill:none;stroke:#000;stroke-width:.4;stroke-dasharray:1.005940e-02,0,0,0}.st23,.st24,.st25,.st26,.st28{stroke-dasharray:1.3077,1.2977,1.005940e-02,0,0,0}.st24,.st25,.st26,.st28{stroke-dasharray:9.911315e-03,0,0,0}.st25,.st26,.st28{stroke-dasharray:1.2885,1.2786,9.911315e-03,0,0,0}.st26,.st28{stroke-dasharray:1.3,1.3}.st28{stroke-width:.2;stroke-linecap:round;stroke-linejoin:round;stroke-miterlimit:10;stroke-dasharray:1.3,1.3,0,0,0,0}</style><path style="fill:#ecf4d9" d="M123.9 440.2v-2.3h-.6v-29.7h.6v-2.4h3.9v-23.4h36v.7H241v-.7h2.8V394h56.6v-11.5h2.5v.7h63.2v-.7h34.2v.6h72.2v-.7h19.6v23.4h3.9v2.4h.6V438h-.6v2.2z"/><path d="M271.7 394.3h-18.6c-.5 0-.9.4-.9.9V411c0 1 .8 1.9 1.9 1.9h16.7c1 0 1.9-.8 1.9-1.9v-15.8c0-.4-.5-.9-1-.9z" style="fill:#dff2fc"/><path class="st2" d="M482.3 440.3v9.8h9.1v-1.2H503v1.2h9.1v-9.8zM107.8 440.3v9.8h9.1v-1.2h11.6v1.2h9.1v-9.8z"/><path class="st3" d="M273.9 394.3h23.2v9.3h-23.2zM273.9 403.6l23.3-9.3"/><path class="st4" d="M271.7 395h-18.6c-.1 0-.2.1-.2.2V411c0 .6.5 1.2 1.2 1.2h16.7c.6 0 1.2-.5 1.2-1.2v-15.8c0-.1-.2-.2-.3-.2z"/><path class="st4" d="M271.7 394.3h-18.6c-.5 0-.9.4-.9.9V411c0 1 .8 1.9 1.9 1.9h16.7c1 0 1.9-.8 1.9-1.9v-15.8c0-.5-.5-.9-1-.9z"/><circle class="st4" cx="262.4" cy="397.2" r="1.2"/><path class="st5" d="M122.1 408.3h1.2v29.8h-1.2zM121.6 405.9h2.3v2.3h-2.3z"/><path class="st5" d="M121.6 438h2.3v2.3h-2.3zM496.6 408.3h1.2v29.8h-1.2zM496 405.9h2.3v2.3H496z"/><path class="st5" d="M496 438h2.3v2.3H496zM123.3 435.7h359.8v-3.6h9.3v3.6h4.2M505 440.3h-11.8M505 440.3h-11.8M482.3 440.3H137.6M482.3 443.6H137.6M482.3 445.9H137.6M482.3 449.2H137.6"/><circle class="st5" cx="487.7" cy="435.7" r="1.6"/><path class="st5" d="M107.8 435.7h.9v-3.6h9.3v3.6h4.1"/><circle class="st5" cx="113.3" cy="435.7" r="1.6"/><path class="st5" d="M497.7 435.7h14.4"/><path class="st6" d="M482.3 440.3v9.8h9.1v-1.2H503v1.2h9.1v-9.8zM107.8 440.3v9.8h9.1v-1.2h11.6v1.2h9.1v-9.8z"/><path d="M366.2 412.1c-.7 1.5-1.5 2.8-2.5 4-.3-.3-.6-.6-.9-.8 1.7-2 3-4.6 3.9-8.1l1.1.4c-.6 1.9-1.1 3.3-1.6 4.5zm7.9 3.6c-.9-2.8-2.2-5.5-3.9-8.2l.9-.6c1.8 2.7 3.2 5.5 4.2 8.3l-1.2.5zm-.4-7.1c-.3-.5-.8-1-1.4-1.6l.6-.5c.6.5 1.1 1 1.5 1.5l-.7.6zm1.1-1c-.3-.5-.8-1-1.4-1.6l.6-.5c.6.5 1.1 1 1.5 1.5l-.7.6zM379.9 412.4c-.5 1.8-1.5 3.3-3 4.6-.2-.3-.5-.6-.7-.9 1.1-.8 2-1.8 2.4-3 .4-1 .6-2.2.7-3.8v-2.6h1.1c0 2.7-.1 4.6-.5 5.7zm3.7 4.4-.8-.8.1-.2v-9.9h1.1v9.3c1.5-1.1 3-2.6 4.4-4.4.2.3.5.5.8.7-1.9 2.2-3.8 4-5.6 5.3zM398.4 416.8v-.8h-7.9v-1h7.9v-6h-7.9v-1.1h9.1v8.9h-1.2zM401.5 415.5v-1.1h12.1v1.1h-12.1zm1.8-6.9v-1.1h8.6v1.1h-8.6zM414.9 411.9v-1H426v1h-11.1zM256.6 406.7c-.1.2-.3.3-.4.4h1.4l.2.3c-.6.6-1.1 1-1.5 1.3-.5.3-1.2.7-2.1 1 0-.1-.1-.2-.2-.4.6-.2 1.1-.4 1.8-.8l-.6-.6.3-.2c.3.2.4.4.6.6.5-.3.9-.6 1.2-1h-1.5c-.1.1-.2.2-.3.2-.4.3-.9.5-1.3.7-.1-.1-.1-.2-.2-.3.4-.1.8-.3 1.2-.6.4-.2.8-.6 1.1-.9l.3.3zm.9 2.1c-.2.2-.5.4-.7.6h1.5l.2.3c-.4.6-1 1.1-1.6 1.4-.7.4-1.6.7-2.7.9-.1-.1-.1-.3-.2-.4.8-.1 1.6-.2 2.3-.6-.2-.2-.4-.4-.6-.7l.3-.2.7.7c.5-.3.9-.6 1.3-1.1h-1.7l-.1.1c-.4.3-1 .5-1.7.8l-.3-.3c.6-.2 1.2-.4 1.7-.7.4-.2.8-.6 1.2-1l.4.2zM263.5 411.6h-.4v-.3h-2.5v.4h-.4v-4.6h3.2v4.5zm-.3-3.3v-.9h-2.5v.9h2.5zm0 1.3v-.9h-2.5v.9h2.5zm0 1.3v-.9h-2.5v.9h2.5zM266.6 406.7l-.2.8h.7v3.8h-.4v-.3h-1v.4h-.4v-3.9h.7l.1-.9.5.1zm.2 2.4V408h-1v1.2h1zm0 1.6v-1.3h-1v1.3h1zm1.8-4c-.1.3-.2.6-.2.9h1.7v1.7c0 1.1 0 1.7-.1 2 0 .2-.1.3-.2.3-.2.1-.4.1-.8.1 0-.1-.1-.3-.2-.4h.6c.1 0 .2-.1.2-.2 0-.2.1-.8.1-1.8V408h-1.4v.1c-.1.4-.3.7-.5 1.1-.1-.1-.2-.2-.3-.2.2-.4.4-.8.5-1.2.1-.4.2-.7.3-1.1h.3zm.4 3-.3.3c-.2-.2-.4-.5-.7-.8l.2-.3c.4.3.6.5.8.8zM249.4 418.3c-.5-.6-1-1.3-1.7-1.9-.6.7-1.4 1.3-2.3 1.9-.1-.2-.2-.3-.3-.4.8-.4 1.5-.8 2-1.3.4-.4.9-1.1 1.5-2h-2.9v-.4h3.2l.3.3c-.4.6-.7 1.2-1 1.6.7.6 1.3 1.2 1.8 1.9l-.6.3zM253.9 418.1v-.4H251v.4h-.4v-3.8h3.8v3.8h-.5zm0-3.4H251v2.6h2.9v-2.6zM255.7 416.6c-.1-.3-.3-.6-.6-1l.3-.2c.2.3.4.7.6 1l-.3.2zm2.5.2c-.3.5-.6.9-1 1.2-.3.3-.8.5-1.3.7-.1-.1-.1-.3-.2-.4.5-.1.9-.3 1.2-.6.3-.2.6-.6.9-1 .2-.3.4-.8.5-1.4l.4.1c-.1.5-.3 1-.5 1.4zm-1.5-.5c-.1-.3-.3-.7-.5-1l.3-.1c.2.4.4.7.5 1l-.3.1zM262.2 417c-.5.6-1.2 1-2.2 1.4 0-.1-.1-.3-.2-.4.8-.3 1.5-.6 2-1.2.5-.5.9-1.2 1.2-2.1h-3.6v-.4h3.8l.3.3c-.4 1.1-.9 2-1.3 2.4zm1.9-2.7c-.1.1-.2.2-.4.2s-.3-.1-.4-.2c-.1-.1-.2-.2-.2-.4s.1-.3.2-.4c.1-.1.2-.2.4-.2.1 0 .3.1.4.2.1.1.2.2.2.4 0 .1-.1.2-.2.4zm-.2-.6c-.1-.1-.1-.1-.2-.1-.2 0-.3.1-.3.3 0 .1 0 .2.1.2.1.1.1.1.2.1s.2 0 .2-.1c.1-.1.1-.1.1-.2s0-.2-.1-.2zM265.7 416.2c-.3-.2-.7-.4-1-.5l.2-.4c.4.1.8.3 1.1.5l-.3.4zm1.6 1c-.6.4-1.3.8-2.2 1.1l-.2-.5c1.6-.5 2.9-1.4 3.9-2.7l.3.3c-.6.8-1.2 1.4-1.8 1.8zm-1-2.4c-.4-.2-.7-.4-1-.6l.2-.4c.4.2.8.4 1.1.6l-.3.4zM272.2 417.1c-.6.4-1.3.9-2.2 1.3l-.3-.5c1.5-.5 2.9-1.5 4-2.9l.3.3c-.6.8-1.2 1.4-1.8 1.8zm-1.2-1.8c-.4-.4-.8-.7-1.2-1l.3-.4c.5.3.9.6 1.3.9l-.4.5zM277.5 417.1c-.6.6-1.3 1-2.2 1.3-.1-.1-.1-.3-.2-.4.8-.2 1.5-.6 2-1 .4-.4.8-1.1 1.2-1.9h-1.8c-.4.6-.8 1.2-1.3 1.6-.1-.1-.2-.2-.4-.3l1.1-1.1c.2-.3.5-.8.8-1.4l.5.2c-.1.2-.2.4-.4.7H278.7l.3.3c-.6.8-1 1.5-1.5 2zM275.5 399.8c-.2.7-.4 1.3-.6 1.8l-.2-.2c.2-.5.4-1.1.6-1.8l.2.2zm-.1-1.4-.1.3c-.1-.1-.3-.3-.5-.4l.1-.3c.2.2.3.3.5.4zm.2-1.3-.2.3-.5-.5.2-.3.5.5zm2.5 4h.3v.4h-3v-.4h.4v-1.7h2.2v1.7zm-2.1-2.2v-2.2h1.8v2.2H276zm.5 2.2v-1.3h-.4v1.3h.4zm-.2-3.5h1.3v-.5h-1.3v.5zm0 .4v.6h1.3v-.6h-1.3zm.9 3.1v-1.3h-.4v1.3h.4zm.6 0v-1.3h-.4v1.3h.4zM280.1 398.2c-.1.8-.2 1.3-.4 1.7-.2.5-.4.9-.7 1.3-.1-.1-.1-.3-.2-.3.3-.3.5-.7.7-1.1.1-.4.3-.9.3-1.4h-.9v-.4h1l.2.2zm.6-1.7v.9c.1.5.2.9.3 1.3.3-.3.6-.6.9-1l.2.3c-.3.4-.6.8-.9 1.1.1.1.1.3.2.4.3.6.6 1 1 1.3-.1.1-.1.2-.2.4-.4-.3-.8-.8-1-1.4-.2-.4-.3-.8-.4-1.2v2.7c0 .1-.1.2-.1.3-.1.1-.3.1-.4.1 0-.1 0-.3-.1-.4h.3s.1 0 .1-.1v-4.6h.1zM283 400.8l-.3-.3c.3-.5.5-1 .8-1.7l.3.2c-.2.7-.5 1.3-.8 1.8zm1.5-2.5v3.2h-.3v-3.2h-1.5v-.4h1.5v-1.2h.3v1.2h1.6v.4h-1.6zm1.4 2.4c-.3-.5-.6-1-.9-1.7l.3-.3c.3.7.6 1.2.9 1.7l-.3.3zm-.3-3.1c-.1-.2-.2-.4-.4-.6l.1-.2c.2.2.3.4.5.5l-.2.3zm.3-.4c-.1-.2-.2-.4-.4-.6l.1-.2c.2.2.3.4.5.5l-.2.3zM288.4 398.3v3.2h-.3v-2.8c-.5.6-1 1-1.5 1.3 0-.2-.1-.3-.2-.4.5-.3 1-.7 1.4-1.2.4-.5.8-1.1 1.2-1.7l.3.3c-.2.5-.6 1-.9 1.3zM291.9 400.5c-.3.4-.9.8-1.5 1.1 0-.1-.1-.3-.1-.4.6-.2 1-.4 1.3-.8.3-.4.6-.9.9-1.7h-2.6v-.4h2.8l.2.3c-.3.8-.6 1.5-1 1.9zm-1.6-3.2v-.4h2.1v.4h-2.1zM293.3 399.3v-.4h3.1v.4h-3.1zM158.7 411.1c-.7 1.5-1.5 2.8-2.5 4-.3-.3-.6-.6-.9-.8 1.7-2 3-4.6 3.9-8.1l1.1.4c-.5 1.9-1.1 3.4-1.6 4.5zm7.9 3.6c-.9-2.8-2.2-5.5-3.9-8.2l.9-.6c1.8 2.7 3.2 5.5 4.2 8.3l-1.2.5zm-.4-7.1c-.3-.5-.8-1-1.4-1.6l.6-.5c.6.5 1.1 1 1.5 1.5l-.7.6zm1.1-1c-.3-.5-.8-1-1.4-1.6l.6-.5c.6.5 1.1 1 1.5 1.5l-.7.6zM172.4 411.5c-.5 1.8-1.5 3.3-3 4.6-.2-.3-.5-.6-.7-.9 1.1-.8 2-1.8 2.4-3 .4-1 .6-2.2.7-3.8v-2.6h1.1c0 2.6-.1 4.5-.5 5.7zm3.7 4.3-.8-.8.1-.2v-9.9h1.1v9.3c1.5-1.1 3-2.6 4.4-4.4.2.3.5.5.8.7-1.9 2.2-3.8 4-5.6 5.3zM190.9 415.8v-.8H183v-1h7.9v-6H183v-1.1h9.1v8.9h-1.2zM194.1 414.5v-1.1h12.1v1.1h-12.1zm1.7-6.9v-1.1h8.6v1.1h-8.6zM207.4 410.9v-1h11.1v1h-11.1z"/><path class="st7" d="M304.9 444v-4.4h.4V436h.4v-19.7h1.1V436h.5v3.6h.4v4.4zM431.4 444v-4.4h.5V436h.4v-19.7h1.1V436h.5v3.6h.4v4.4z"/><path class="st5" d="M304.9 439.6h2.8v4.4h-2.8zM305.7 436v1h1.1v-1h.5v3.4h-2V436z"/><path class="st5" d="M305.7 416.3h1.1v20.8h-1.1zM431.4 439.6h2.8v4.4h-2.8zM432.3 436v1h1.1v-1h.5v3.4h-2V436z"/><path class="st5" d="M432.3 416.3h1.1v20.8h-1.1z"/><path d="M359.4 430.6c0 .3 0 .5-.1.7h.5V430h.4v1.3h.6v.3h-.6v1.2c.2-.1.4-.1.6-.2v.4c-.2.1-.4.1-.6.2v2.1h-.4v-2c-.3.1-.7.2-1 .3l-.1-.4c.3-.1.7-.2 1.1-.3v-1.3h-.5c-.1.3-.1.6-.2.8h-.3c.2-.6.3-1.2.4-1.9l.2.1zm2.7-.4c-.1.4-.2.7-.4 1h2.1l-.1 3.1c0 .3-.1.6-.1.7-.1.1-.2.2-.5.3h-.5c0-.2 0-.3-.1-.4h.6c.1 0 .2 0 .2-.1s0-.2.1-.4l.1-2.7h-.5c0 .8-.2 1.5-.5 2.1-.4.6-.8 1.1-1.4 1.5l-.3-.3c.6-.4 1-.8 1.3-1.4.3-.5.5-1.1.5-1.9h-.4c-.1.4-.2.9-.4 1.3-.3.5-.6.8-.9 1.1-.1-.1-.1-.2-.2-.3.3-.2.6-.5.8-.9.2-.3.3-.7.4-1.2h-.3c-.2.4-.4.7-.6 1-.1-.1-.2-.2-.3-.2.3-.4.5-.8.6-1.2.2-.3.3-.7.4-1.1h.4zM369.3 430.5v.4h-2v1.5h2.3v.4h-2.3v2.6h-.4v-2.6h-2.3v-.4h2.3v-1.5H365v-.4h4.3zM373.1 430.3c0 .1-.1.1-.1.1.4.4.8.8 1.2 1.1.4.3.8.6 1.2.7-.1.1-.2.3-.2.4-.4-.2-.7-.4-1-.6v.3H373v.6h2v.4h-2v1.4h2.3v.4h-4.9v-.4h2.2v-1.4h-2v-.3h2v-.6h-1.2v-.3c-.4.3-.7.5-.9.6-.1-.1-.2-.3-.3-.3.5-.3.9-.6 1.3-1s.8-.8 1.2-1.4l.4.3zm-1.2 4.1-.4.2c-.1-.2-.3-.5-.4-.7l.4-.2c.2.2.3.4.4.7zm2.3-2.4c-.1-.1-.3-.2-.4-.3-.4-.3-.7-.7-1-1-.3.4-.7.7-1 1.1-.1.1-.2.2-.3.2h2.7zm.3 1.8-.5.9-.3-.2.4-.9.4.2zM376.7 430.6c0 .3 0 .5-.1.7h.5V430h.4v1.3h.6v.3h-.6v1.2c.2-.1.4-.1.6-.2v.4c-.2.1-.4.1-.6.2v2.1h-.4v-2c-.3.1-.7.2-1 .3l-.1-.4c.3-.1.7-.2 1.1-.3v-1.3h-.5c-.1.3-.1.6-.2.8h-.3c.2-.6.3-1.2.4-1.9l.2.1zm2.6-.4c-.1.4-.2.7-.4 1h2.1l-.1 3.1c0 .3-.1.6-.1.7-.1.1-.2.2-.5.3h-.5c0-.2 0-.3-.1-.4h.6c.1 0 .2 0 .2-.1s0-.2.1-.4l.1-2.7h-.4c0 .8-.2 1.5-.5 2.1-.4.6-.8 1.1-1.4 1.5l-.3-.3c.6-.4 1-.8 1.3-1.4.3-.5.5-1.1.5-1.9h-.4c-.1.4-.2.9-.4 1.3-.3.5-.6.8-.9 1.1-.1-.1-.1-.2-.2-.3.3-.2.6-.5.8-.9.2-.3.3-.7.4-1.2h-.3c-.2.4-.4.7-.6 1-.1-.1-.2-.2-.3-.2.3-.4.5-.8.6-1.2.2-.3.3-.7.4-1.1h.3z"/><path class="st8" d="M489.5 182.1h-21.4v1.9h-30.2v-1.9h-2.7l-8-8v-30.6h62.3z"/><path class="st9" d="M256.2 371.4h31.6v10.2h-31.6zM151.4 201.7h12.4v9.1h-12.4zM325.6 75.9h15.1V84h-15.1z"/><path style="fill:#fffcdb" d="M276.1 127.5h46.3V78.7h-7.6V66.6h-38.7z"/><path style="fill:#feeab4" d="M222.1 41.9v54.9h40.2V41.9h-1v.4h-1.8v-2.7h-34.9v2.7h-1.8v-.4z"/><path class="st9" d="M312.6 226.7h8.4v8.8h-8.4z"/><path class="st8" d="M281 213.7h27.4v24.6H281zM324.2 225.3h54.7v10.2h-54.7zM276.3 186.3h32.1v23.9h-32.1zM130.9 202.7h17.2v10.9h-17.2zM165.5 111.2h69.7v20.9h-69.7zM238.5 111.2H273v18.1h-.5v1.9h-27.9v-1.9h-6.1zM322.4 87.3h17.8v55.8h-17.8z"/><path class="st12" d="M378.9 225.3h-54.7v-37.2h18.4v.5h1.2v-1.2h.7v-1h32.6v1h.7v1.2h1.1zM426.8 49.2h60.6v79.2h-65.3v1.6h-8.8v-.5h-1.2v1.4h-32.5v-1.4h-36.1V78.4h3.3V50.1H391v16.2h31.1v24.5h4.7z"/><path style="fill:#d2cce6" d="M332.8 34.3h-60.3v29h3.2v-.4h56.4v.4h.7z"/><path class="st8" d="M346.8 50.1h42.9v7h-42.9z"/><path class="st12" d="M130.4 168.2h101.4v39.9H167v-5.9h6.2v-3.7h-42.8z"/><path class="st8" d="M391 50.1h31.1v16.2H391zM312.6 188.1h11.6v35.3h-11.6z"/><path class="st2" d="M505.4 368.1V34.3H332.9v29.1h-.7v1.9h-16v1.4h-1.3v12.1h7.5v8.6h17.9V144h3.3V78.4h3.3V50.1h75.3v40.7h4.7V49.2h60.5v79.2h-65.3v1.5h-8.8v1.5h-1.2v-.4h-32.5v3.9h-.7v9.1h4.2v-.5H424v32.1l9.9 9.7h4V182h-2.7l-8-8v-30.6h62.2V182H468v3.3h21V368h-16.3v8.4h.7v4h-.9v2.1H492l.1 23.5h10.2v-23.5h9.9v-14.4h-6.8zM340.7 84h-15.1v-8.1h15.1V84zM302 380.4v-4h.7V368h-61.6v8.4h.7v4h-.8v2.1h2.8v11.6h56.6v-11.6h2.5v-2.1h-.9zm-14.1 1.1h-31.6v-10.2h31.6v10.2z"/><path class="st2" d="M399.4 380.4v-4h.7V368H383V184.8h-4.2v50.7h-54.5v-12.1h-11.7v-35.3h30v-3.3h-34.2v25.5h-32.1v-22.2h5.2v-3.3h-5.2v-5.1H273v36.7h4.8v38.4h3.4v-15.1h.3v-3.3h-.3v-22.8h27.3v26h70.4v128.3h-12.5v8.4h.7v4h-.9v2.1h34.2v-2.1h-1zm-78.3-144.9h-8.4v-8.8h8.4v8.8zM275.7 66.6v-3.3h-3.2v-29h-11.2V42h.9v54.8H222V41.9h.7v-3.7h-10.9v58.6h-33V86.3h-64.3V368h-5.9v14.4h9v23.5h10.2v-23.6h35.8v-2h-.9v-4h.7v-8.5h-32.6V202.7H148v11.4h19v-11.9h6.2v-3.7h-42.8l-.1-97.8h34.6v10.5H235v21.4h9.4v-3.3h-6.1v-18.1H273v18.1h-.5v3.3h.5v6.3h3.3V66.6h-.6zM163.9 201.7v9.1h-12.3v-9.1h12.3z"/><path transform="rotate(90 202.27 277.962)" style="fill:#feebbe" d="M154 221.6h96.5v112.7H154z"/><path class="st15" d="M383.1 223.9H489M383.1 228.6H489M383.1 233.2H489M383.1 237.9H489M383.1 242.5H489M383.1 247.2H489M383.1 251.8H489M383.1 256.5H489M383.1 261.1H489M383.1 265.8H489M383.1 270.4H489M383.1 275.1H489M383.1 279.7H489M383.1 284.4H489M383.1 289H489M383.1 293.7H489M383.1 298.3H489M383.1 303H489M383.1 307.6H489M383.1 312.3H489M383.1 316.9H489M383.1 321.6H489M383.1 326.2H489M383.1 330.9H489M383.1 335.5H489M383.1 340.2H489M383.1 344.8H489M383.1 349.5H489M383.1 354.1H489M383.1 358.8H489M383.1 363.4H489M383.1 219.3H489M383.1 214.6H489M383.1 210H489M383.1 205.3H489M383.1 200.7H489M383.1 196H489M383.1 191.4H489M383.1 186.8H489M383.5 182.1h47M383.5 177.5h42.1M383.5 172.8H424M383.5 168.2H424M383.5 163.5H424M383.5 158.9H424M383.5 154.2H424M383.5 149.6H424M383.6 144.9H424M281 224.1h27.4M281 228.7h27.4M281 233.4h27.4M281 238h27.4M281 242.7h97.9M281 247.3h97.9M281 252h97.9M277.6 256.6h101.3M277.6 261.3h101.3M277.6 265.9h101.3M277.6 270.6h101.3M277.6 275.2h101.3M277.6 279.9h101.3M277.6 284.5h101.3M277.6 289.2h101.3M276 293.8h102.9M276 298.5h102.9M276 303.1h102.9M276 307.8h102.9M276 312.4h102.9M276 317.1h102.9M276 321.7h102.9M276 326.4h102.9M274.6 331h104.3M274.6 335.7h104.3M274.6 340.3h104.3M274.6 345h104.3M274.6 349.6h104.3M274.6 354.3h104.3M274.6 358.9h104.3M274.6 363.5h104.3M130.9 242.7h146.9M130.9 247.3h146.9M130.9 238h146.9M130.9 233.4h146.9M130.9 228.7h146.9M130.9 224.1h146.9M130.9 219.4h146.9M130.9 214.8H273M167 210.1h106M231.8 205.5H273M231.8 200.8H273M231.8 196.2H273M231.8 191.5H273M231.8 186.9H273M231.8 182.2H273M231.8 177.6h43.6M231.8 172.9h43.6M231.8 168.3h43.6M130.4 163.7h145M130.4 159h145M130.4 154.4h145M130.4 149.7h145M130.4 145.1h145M130.4 140.4h144.3M130.4 135.8H273M130.4 131.1h35M130.4 126.5h35.1M130.4 121.8h35.1M130.4 117.2h35.1M130.4 112.5h35.1M130.4 107.9h34.4M130.4 103.2h34.4M130.9 252h146.9M130.9 256.6H276M130.9 261.3H276M130.9 265.9H276M130.9 270.6H276M130.9 275.2H276M130.9 279.9H276M130.9 284.5H276M130.9 289.2H276M130.9 293.8h143.6M130.9 298.5h143.6M130.9 303.1h143.6M130.9 307.8h143.6M130.9 312.4h143.6M130.9 317.1h143.6M130.9 321.7h143.6M130.9 326.4h143.6M130.9 331H273M130.9 335.7H273M130.9 340.3H273M130.9 345H273M130.9 349.6H273M130.9 354.3H273M130.9 358.9H273M130.9 363.5H273M281 219.4h27.4M281 214.8h27.4M276.2 210.1h32.2M276.2 205.5h32.2M276.2 200.8h32.2M276.2 196.2h32.2M276.2 191.5h32.2M281.4 186.9h27M276.2 182.2h106M276.7 177.6h105.5M276.7 172.9h105.5M276.7 168.3h105.5M276.7 163.7h105.5M276.7 159h105.5M276.7 154.4h105.5M276.7 149.7h105.5M276.7 145.1h101.7M276.7 140.4h45.7M276.2 135.8h46.2M276.2 131.1h46.2M343.5 140.4h35.4M343.5 135.8h35.4M344.7 131.1h33.7M437.9 182.1h30.2M430.5 177.5h59M427.2 172.8h62.3M427.2 168.2h62.3M427.2 163.5h62.3M427.2 158.9h62.3M427.2 154.2h62.3M427.2 149.6h62.3M427.2 144.9h62.3"/><path class="st16" d="M286.6 122.4V66.6M305.2 122.4V66.6M276.2 85.2h46.2M276.2 103.8h46.2"/><path class="st17" d="M280.9 78h36.8v50.2h-36.8zM272.6 217.6l-.1 149.3M281.5 366.9V256"/><path class="st18" d="M156 363.2h91.8M156 365.6h91.8M293.4 363.2h80.1M293.4 365.6h80.1M394.7 363.2h83.2M394.7 365.6h83.2"/><path class="st3" d="M249.1 368.1v-7.5h-94.4v7.1M374.5 368.1v-7.5h-82.1v7.1"/><path class="st19" d="M427.2 155.6h62.3M427.2 157h62.3M477.4 156.9v25.2M476 156.9v25.2M276.2 196.9h32.2M276.2 198.3h32.2M281 225.8h27.4M281 227.2h27.4"/><path class="st20" d="m489.5 143.5-62.3 20.9h62.3l-21 17.7v-17.6M276.2 191.9h32.2l-32.2 18.6M281 232.3h27.4L281 213.7M262.3 75.9h-40.2l40.2 20.9M273 127.2h-34.5l34.5-16M130.9 202.7l17.2 10.9M324.2 223.5v-35.4l-11.6 35.4M391 50.1v16.2h31.1M422.1 50.1 391 66.3"/><path class="st4" d="M322.4 87.3v55.8h17.9M165.5 111.2v20.9h69.7"/><path style="fill:none;stroke:#000;stroke-width:.4;stroke-linejoin:bevel" d="M130.9 213.6h17.2"/><path class="st4" d="M276.2 122.4h46.2M276.2 127.5h46.2"/><path class="st3" d="M391 50.4h29.8v29.8H391zM131.1 101.5h32.5v31.4h-32.5zM346.8 57h42.9"/><path class="st4" d="M478.2 128.4c-.1-2.9 2.1-8.9 9.1-9.1M480.7 121.3h-6V93.4h12.7M480.7 93.4v28.7M481.8 93.4v27.7M486.5 93.4v25.9M434.5 67.6l.6-8.1s.7-3.3 4.2-3.5c3.6-.2 8.5-.9 8.5-.9s1 .1 2.6-.6l1.8-.7s1-.3 2.2-.3h5.6s1.2-.1 2.5.4 2.4 1.1 3.7 1.2c1.3.1 9.2 1 9.2 1s3.1.5 3.8 3.5l.6 6-.6 8.1s-.3 2.7-3.7 3.4l-8.8.5s-1.1 0-2.2.4-2.4 1-4 1h-6.1s-.9.1-1.9-.3-1.9-.6-1.9-.6-1.3-.4-2.4-.4c-1.1 0-8.2-.4-8.2-.4s-3.7 0-4.5-3.5l-1-6.2z"/><path class="st4" d="m443.1 52.6 1.9.1s-3.9-.2-6.6 1.4c-.1.1-4 1.9-4.3 5"/><path class="st4" d="M459.9 52.7c2.4.2 3.2.7 4 1 .8.3 2.5.6 2.5.6l8.9 1c4 .7 4.6 4.3 4.6 4.3l.6 7.1-.8 7.7c-1 3.7-4.8 3.7-4.8 3.7l-8.1.3c-1.7 0-2.9.7-2.9.7l-1.3.6c-1.3.6-2.9.6-2.9.6h-5.1c-1.5 0-2.9-.6-2.9-.6s-1.3-.6-2.1-1c-.8-.3-2.2-.4-2.2-.4l-9-.4c-3.8-.7-4.1-3.6-4.1-3.6l-.8-7.5.7-7.8s1.1-3.6 5.1-3.8l8.5-.9s1.3-.1 2.2-.4c.9-.3 2.6-1.2 4.4-1.2h5.5z"/><path class="st4" d="M480 59.6c-.3-1.1-.4-3.1-3.5-5.1s-5.6-1.7-5.6-1.7M460 80.3h9.8s4 0 6.8-1.5 2.5-2.5 3.2-4.4M454.1 80.3h-10.9c-.3-.1-1.5 0-4.3-1 0 0-3.9-1.3-4.6-4.9"/><path class="st4" d="M471.6 51.6s13.9 1.6 13.9 15.9c0 13.7-13.4 15.7-13.4 15.7h-29.3s-14.1-2.1-14.1-15.7c0-14 14-15.8 14-15.8"/><path class="st4" d="m470 49.1-.1.4s-.9 1.9-.9 2v1.1h2s.2 0 .2-.1l1-1.8.6-1.5M441.6 49.1l.8 2 .8 1.3s.1.1.2.1h2v-1.1l-.2-.4-.9-2M469.2 51.1h-24.1M468.9 52.5h-23.6M487.3 84.8h-60.5"/><circle class="st4" cx="457.1" cy="76.2" r="1.6"/><path class="st4" d="M346.8 78h7.6s7 .7 14.4.7 14.4-.7 14.4-.7h6.5V50.1M383.3 57.1h6.4M354.5 57.1h-7.7"/><path class="st4" d="M383.3 56.4 379 58c-1.1.4-1.2 2-1.2 2-.2 2 0 3.9.3 6.4s1.2 4.4 3.3 6.3 1.9 4.6 1.9 4.6V53.1c0-.8-.8-.9-.8-.9l-1-.1s-5.3-.6-12.6-.6-13.6.7-13.6.7c-.8.1-.8.9-.8.9v24.2s-.3-2.7 1.9-4.6c2.2-2 3.2-4 3.5-7.7.3-3.7.1-5.5.1-5.5s-.2-1.2-1.2-1.6-4.3-1.5-4.3-1.5"/><path class="st4" d="M354.5 56s8.2.8 14.4.8c6.2 0 14.4-.8 14.4-.8"/><circle class="st4" cx="368.8" cy="61.7" r="1.2"/><path class="st4" d="M348.4 61.8h.9v7.4h-.9z"/><path class="st4" d="M346.8 65h1.6v1.1h-1.6zM352.3 209c0-9-13.5-9.1-13.5-9.1s-6.4-.2-9-.2c-2.6 0-2.2 1.5-2.2 1.5s-.2 5.2-.2 7.7.2 8 .2 8-.3 1.5 2.2 1.5c2.6 0 9-.2 9-.2s13.5-.2 13.5-9.1M316.6 216.2c0 2.2 1.7 1.9 1.7 1.9h5.8c2.2 0 2.3-1.9 2.3-1.9s.5-1.9.5-7.6c0-5.7-.5-7-.5-7s-.1-1.9-2.3-1.9h-5.8s-1.7-.2-1.7 1.9v14.6zM327.7 217.3H326M327.6 201.1h-1M335.1 199.6v18.5"/><path class="st4" d="m331.3 199.5-.4 2.7h1.9v12.9h-1.9l.5 3M341.1 188.1v4c0 .3.3.6.7.7h.2c.3 0 .6-.3.7-.7v-4M316.2 188.1v3.2H341"/><path class="st4" d="M342 192.8h-26.5s-.8 0-.8-.9v-3.7M324.2 225.3h54.7M360 234.7h14.4c.1 0 .2-.1.2-.2V228c0-.1-.1-.2-.2-.2H360c-.1 0-.2.1-.2.2v6.5c0 .1.1.2.2.2z"/><path class="st4" d="M370 227.7c.1 0 .2.1.2.2v6.5c0 .1-.1.2-.2.2"/><circle class="st4" cx="364.9" cy="232.4" r="1"/><path class="st4" d="M375.1 235.4h-15.8c-.1 0-.2-.1-.2-.2v-7.9c0-.1.1-.2.2-.2h15.8c.1 0 .2.1.2.2v7.9c.1.1 0 .2-.2.2zM376.6 225.5h.9v7.4h-.9zM377.5 228.6h1.3v1.1h-1.3zM135.3 192.5c0 .6.5 1 1 1h25.9c.6 0 1-.5 1-1v-21.3c0-.6-.5-1-1-1h-25.9c-.6 0-1 .5-1 1v21.3z"/><path class="st4" d="M136.5 171.8h25.6V190h-25.6zM211.8 183.4c0 2-1.6 3.7-3.7 3.7-2 0-3.7-1.6-3.7-3.7 0-2 1.6-3.7 3.7-3.7s3.7 1.7 3.7 3.7z"/><path class="st4" d="M167.1 208.1h64.7v-39.9H130.4"/><path class="st4" d="M189.5 193.3c0 1.3 1 2.3 2.3 2.3h32.6c1.3 0 2.3-1 2.3-2.3v-19.6c0-1.3-1-2.3-2.3-2.3h-32.6c-1.3 0-2.3 1-2.3 2.3v19.6z"/><circle class="st4" cx="142.6" cy="178" r="4.6"/><circle class="st4" cx="156" cy="178" r="4.6"/><circle class="st4" cx="149.3" cy="186.1" r="3.3"/><path class="st4" d="M152.2 190.1c-.8.6-1.8.9-2.9.9-1.1 0-2.1-.3-2.9-.9h-9.8v2.3h25.6v-2.3h-10zM209.8 172.1c2.8 0 9.9 0 11.5.2 1.6.2 4.5 1.8 4.5 4.9 0 3.1.2 9.8-.1 10.6-.3.8-1 3.8-5.3 3.8s-3.6-.1-3.6-.1-2 .6-3.2 1.4c-1.2.8-2.7 1.8-5.5 1.8h-.1c-2.8 0-4.3-1-5.5-1.8-1.2-.8-3.2-1.4-3.2-1.4s.7.1-3.6.1-5-3-5.3-3.8c-.3-.8-.1-7.4-.1-10.6 0-3.1 2.9-4.7 4.5-4.9 1.6-.2 8.7-.2 11.5-.2h3.5z"/><path class="st5" d="M172.7 197.9v.6h-.6"/><path class="st22" d="M170.8 198.5"/><path class="st23" d="M170.8 198.5h-39.3"/><path class="st5" d="M131.5 198.5h-.6v-.6"/><path class="st24" d="M130.9 196.6"/><path class="st25" d="M130.9 196.6v-25.8"/><path class="st5" d="M130.9 170.8v-.6h.6"/><path class="st22" d="M132.8 170.2h.1"/><path class="st23" d="M132.9 170.2h39.2"/><path class="st5" d="M172.1 170.2h.6v.6"/><path class="st24" d="M172.7 172.1"/><path class="st25" d="M172.7 172.1v25.8"/><path class="st26" d="M412.1 130.1h-32.5M273.7 217.6v111"/><path class="st5" d="M275.3 291.8v-.7"/><path style="fill:none;stroke:#000;stroke-width:.4;stroke-dasharray:1.2791,1.2791" d="M275.3 289.8v-70.9"/><path class="st5" d="M275.3 218.2v-.6"/><path class="st26" d="M276.8 254.8v-37.2"/><path class="st5" d="M383.5 144h-5.1v1.1h3.1v.7h.7v-.7h1.3zM383.5 184.9h-5.1v-1.2h3.1v-.7h.7v.7h1.3z"/><path transform="rotate(-180 382.852 164.437)" class="st5" d="M382.2 145.1h1.3v38.6h-1.3z"/><path transform="rotate(-180 402.809 145.842)" class="st5" d="M383.5 145.1h38.6v1.4h-38.6z"/><path class="st5" d="M383.5 183.7c21.3 0 38.6-17.3 38.6-38.6M276.7 179.8h-4.2v-1.2h2.2v-.7h.7v.7h1.3zM276.7 138.9h-4.2v1.1h2.2v.7h.7v-.7h1.3z"/><path transform="rotate(-180 276.022 159.324)" class="st5" d="M275.4 140h1.3v38.6h-1.3z"/><path transform="rotate(-180 295.979 177.919)" class="st5" d="M276.7 177.2h38.6v1.4h-38.6z"/><path class="st5" d="M276.7 140c21.3 0 38.6 17.3 38.6 38.6M272.6 216.5h5.2v1.1h-5.2zM277.6 254.8h3.9v1.2h-3.9zM272.5 366.9h9v1.1h-9z"/><path class="st5" d="M273 328.6h1.5V367H273zM274.5 291.8h1.5v38.4h-1.5zM276 254.8h1.5v38.4H276zM471.9 380.4h1.5v-4h-.7v-8.9h-.8zM401 380.4h-1.6v-4h.7v-8.9h.9zM472.5 380.4v2.7h-72.2v-2.7M436.3 365.9v7.1M401 367.5h70.9M401 369h37v1.2h-37z"/><path class="st5" d="M435.2 370.2h36.6v1.2h-36.6zM434.8 374.2h2.9v2.6h-2.9zM401 376.8h37v1.2h-37z"/><path class="st5" d="M435.2 377.9h36.6v1.2h-36.6zM436.3 382.2v-5.6M365.5 380.4h1.6v-4h-.8v-8.8h-.8zM303.5 380.4H302v-4h.7v-8.8h.8zM366.1 380.4v2.8h-63.2v-2.8M334.5 365.9v7.1M303.5 367.6h62"/><path class="st5" d="M303.5 369.1h32.4v1.2h-32.4z"/><path class="st5" d="M333.1 370.2h32.4v1.2h-32.4zM333.1 374.2h2.9v2.6h-2.9zM303.5 376.8h32.4v1.2h-32.4zM333.1 378h32.4v1.2h-32.4zM334.5 382.3v-5.6M240.2 380.4h1.6v-4h-.7v-8.8h-.9zM164.3 380.4h-1.5v-4h.7v-8.8h.8zM163.7 380.4v2.8h77.2v-2.8M202.3 365.9v7.1M164.3 367.6h75.9"/><path class="st5" d="M164.3 369.1h39.4v1.2h-39.4z"/><path class="st5" d="M200.9 370.2h39.3v1.2h-39.3zM200.8 374.2h2.9v2.6h-2.9zM164.3 376.8h39.4v1.2h-39.4zM200.9 378h39.3v1.2h-39.3zM202.3 382.3v-5.6M277.3 66.6v-1.9h-.7v-1.8h-.9v3.7zM314.5 66.6v-1.9h.7v-1.8h.9v3.7zM314.5 66.6h-37.2M314.5 64.7h-37.2M315.2 62.9h-38.6"/><path class="st5" d="M315.2 64.7c0-21.3-15.6-40-38.6-40v38.1"/><path transform="rotate(-90 324.128 64.023)" class="st5" d="M323 56h2.3v16H323z"/><path class="st5" d="M222.8 37.7h1.1v1.9h.7v2.7h-1.8zM259.5 39.6h.7v-1.9h1.1v4.6h-1.8z"/><path class="st5" d="M223.9 37.8h36.3v1.9h-36.3zM260.2 37.8C259.6 17.7 243.9 2 223.9 2v35.7M281.4 184.9h27v1.4h-27zM281.4 184.9l2.4-13.8 2.3 13.8"/><path transform="rotate(-180 258.556 131.896)" class="st5" d="M244.6 131.2h27.9v1.4h-27.9z"/><path class="st5" d="m272.5 132.6-2.3 13.7-2.4-13.7M281.4 238.4h27v1.4h-27z"/><path class="st5" d="m281.4 239.7 2.4 13.8 2.3-13.8"/><path transform="rotate(-180 452.97 184.66)" class="st5" d="M437.9 184h30.2v1.4h-30.2z"/><path class="st5" d="m468.1 185.4-2.5 14.8-2.6-14.8M378.9 184.4v4.2h-1.1v-1.2h-.7v-1h.7v-2zM342.6 184.4v4.2h1.2v-1.2h.7v-1h-.7v-2z"/><path transform="rotate(90 377.09 167.785)" class="st5" d="M360.4 167.1h33.3v1.4h-33.3z"/><path transform="rotate(-90 360.778 185.427)" class="st5" d="M359.8 168.4h2v34h-2z"/><path class="st5" d="M343.8 184.4c0-18.8 15.2-33.3 34-33.3"/><path transform="rotate(-90 424.229 127.963)" class="st5" d="M423.7 125.4h1v5.2h-1z"/><path transform="rotate(-90 424.229 91.292)" class="st5" d="M423.7 88.7h1v5.2h-1z"/><path class="st5" d="M421.6 127.5V91.8M423.8 127.4V91.8M425.2 127.5V91.8M426.8 127.5V91.8M425.2 91.8c18 0 32.8 14.1 34.4 31.7l-34.4 3.9"/><path transform="rotate(-90 378.984 132.855)" class="st5" d="M376.9 132.3h4.1v1.2h-4.1z"/><path transform="rotate(-90 344.118 132.19)" class="st5" d="M341.4 131.6h5.4v1.2h-5.4z"/><path transform="rotate(-90 362.132 130.154)" class="st5" d="M361.5 112.7h1.3v34.9h-1.3z"/><path class="st5" d="M412.1 129.5h1.2v2h-1.2zM271.1 329.3h7.7M272.7 292.5h7.9M361.6 127.7v5.7"/><path class="st6" d="M261.3 41.9h1v54.9h-40.2V41.9h.7M275.7 63.3h-3.2v-29h-11.2v3.6M276.2 138.9V66.6M302.9 382.5h-2.5v11.6h-56.8v-11.6H241M241.1 368h61.6M400.1 368.1h-17l-.1-183.2M366.1 382.5h34.3M308.4 239.7h70.5v128.4h-12.6M281.4 238.4v-1.9h-.4v-22.8h27.4v24.7M281 254.8v-15.1h.4M277.8 217.6v37.2M273 179.8v36.7M281.4 184.9h-5.2v-5.1M308.4 186.3v24h-32.2v-22.2h5.2v-1.8M342.6 184.9h-34.2M378.9 188.6v47h-54.7v-12.1h-11.6v-35.4h30M472.6 382.5h19.5v23.4h10.2v-23.4h9.9v-14.4h-6.8V34.3H332.8v29h-.7"/><path class="st6" d="M468.1 185.4H489v182.7h-16.5M437.9 184v-1.9h-2.7l-8-8v-30.6h62.3v38.6h-21.4v1.9"/><path class="st6" d="M383.1 144v-.5H424v32.1l9.8 9.8h4.1M378.9 134.9v9.1M412.1 131h-32.5M422.1 128.4v1.6h-8.8M426.8 90.8V49.2h60.6v79.2h-60.6M343.5 129.5V78.4h3.3V50.1h75.3v40.7M314.9 66.6v12.1h7.5v8.6h17.9V144h3.2v-9.1"/><path class="st6" d="M325.6 75.9h15.1V84h-15.1zM256.2 371.3h31.6v10.2h-31.6zM151.4 201.8h12.4v9.1h-12.4zM312.6 226.7h8.4v8.8h-8.4z"/><path class="st6" d="M222.8 38.2h-11v58.6h-33V86.3h-64.3v281.8h-5.8v14.4h8.9v23.4h10.2v-23.4h35.9"/><path class="st6" d="M163.5 368.1h-32.6V202.7h17.2v11.4h19v-11.9h6.1v-3.7h-42.8v-97.8h34.7v10.5h70.1v21.4h9.4v-3.3h-6.1v-18.1H273v18.1h-.5v3.3h.5v6.3"/><path d="M294.2 86.3V88h4.5v.8h-4.8l-1.7 3.1c.5.4 1 .7 1.5 1.1l2.2-3 .8.5-3.8 4.8c1.2-.1 2.6-.2 4-.4-.4-.5-.8-.9-1.2-1.4l.7-.5c1.1 1.2 1.9 2.2 2.4 2.9l-.7.5-.6-.9c-3.2.4-6 .7-8.2.8l-.2-.8c.9 0 1.8-.1 2.8-.1l1.3-1.7c-1-.9-2.2-1.7-3.6-2.5l.4-.7c.6.3 1.1.6 1.6 1l1.3-2.7h-4V88h4.5v-1.7h.8zM304.7 86.7v3.5h-3.2v6.4h-.8v-9.9h4zm-.8 1.4v-.7h-2.4v.7h2.4zm0 1.3v-.7h-2.4v.7h2.4zm6-2.7v8.9c0 .4-.1.6-.3.7-.2.1-.7.2-1.4.2 0-.3-.1-.6-.3-.9h1c.1 0 .2-.1.2-.2v-5.2h-2.7l.7.3-.7 1.1h1.6v.6h-2.6v.9h3v.7h-2.6c.2.4.4.7.7.9.3.3.7.6 1.4.8-.2.1-.4.3-.5.6-.6-.3-1.1-.7-1.5-1-.3-.3-.5-.6-.7-1.1-.1.2-.2.5-.3.7-.4.6-1.2 1.1-2.2 1.5-.1-.3-.3-.5-.6-.7 1-.3 1.7-.7 2.1-1.3.1-.1.2-.3.3-.5h-2.3V93h2.4v-.9h-2.1v-.6h1.3c-.2-.3-.4-.6-.7-.9l.5-.4c.3.3.7.7.9 1l-.4.3h1.4l.7-1.4h-.4v-3.5h4.1zm-.8.7h-2.4v.7h2.4v-.7zm0 1.3h-2.4v.7h2.4v-.7zM355.5 113.3v-.7h5.5l.4-4.2h-4.8v-.7h5.5l-.4 5h2.3v.7h-8.5zM365 110.7v-.7h7.6v.7H365zM378 109.8c-.1 1.5-.4 2.5-.8 3.1-.4.6-1.2 1.2-2.5 1.8-.1-.2-.3-.5-.5-.7 1.2-.4 1.9-.9 2.3-1.4.4-.5.6-1.4.7-2.7h-4v-.7h8.4v.7H378zm-3.3-2.2v-.7h5.6v.7h-5.6zM386.6 110.5v4.3h-.6V111c-.8.7-1.8 1.3-2.9 1.8-.1-.2-.2-.4-.4-.6.9-.4 1.8-.9 2.8-1.7.9-.7 1.7-1.4 2.3-2.3l.6.5c-.6.7-1.3 1.3-1.8 1.8zM390 111.5v-4.6h.7v4.6h-.7zm5-2.6c0 1.2-.1 2.1-.3 2.7-.2.7-.5 1.3-1 1.8s-1.3.8-2.4 1.2c-.1-.3-.2-.5-.4-.7 1.4-.4 2.3-.9 2.8-1.6.4-.6.6-1.7.6-3.3v-2.5h.7v2.4zM401.2 109.8c-.1 1.5-.4 2.5-.8 3.1-.4.6-1.2 1.2-2.5 1.8-.1-.2-.3-.5-.5-.7 1.2-.4 1.9-.9 2.3-1.4.4-.5.6-1.4.7-2.7h-4v-.7h8.4v.7h-3.6zm-3.3-2.2v-.7h5.6v.7h-5.6zM409.7 110.5v4.3h-.6V111c-.8.7-1.8 1.3-2.9 1.8-.1-.2-.2-.4-.4-.6.9-.4 1.8-.9 2.8-1.7.9-.7 1.7-1.4 2.3-2.3l.6.5c-.6.7-1.2 1.3-1.8 1.8zM332.1 91v1.2h3.2v.5h-3.4l-1.2 2.2c.4.3.7.5 1 .8l1.6-2.1.6.3-2.7 3.4c.9-.1 1.8-.1 2.9-.3-.3-.3-.6-.7-.9-1l.5-.4c.8.8 1.3 1.5 1.7 2.1l-.5.4c-.1-.2-.3-.4-.5-.6-2.3.3-4.3.5-5.9.5l-.1-.6c.6 0 1.3 0 2-.1l.9-1.2c-.7-.6-1.6-1.2-2.6-1.8l.3-.5c.4.2.8.5 1.2.7l.9-1.9h-2.9v-.5h3.2V91h.7zM331.5 99.4v2.5h-2.3v4.5h-.6v-7h2.9zm-.6 1.1v-.5h-1.7v.5h1.7zm0 .9v-.5h-1.7v.5h1.7zm4.2-2v6.3c0 .3-.1.5-.2.5-.2.1-.5.1-1 .2 0-.2-.1-.4-.2-.6h.7c.1 0 .1 0 .1-.2v-3.7h-1.9l.5.2-.5.8h1.1v.4h-1.8v.7h2.1v.5h-1.8c.2.3.3.5.5.6.2.2.5.4 1 .6-.1.1-.3.2-.4.5-.4-.2-.8-.5-1-.7-.2-.2-.4-.5-.5-.8-.1.2-.2.3-.2.5-.3.4-.8.8-1.5 1.1-.1-.2-.2-.4-.4-.5.7-.2 1.2-.5 1.5-.9.1-.1.1-.2.2-.3h-1.6v-.6h1.7v-.7H330v-.4h.9c-.1-.2-.3-.4-.5-.6l.4-.3.7.7-.3.2h1l.5-1h-.3v-2.5h2.7zm-.5.5h-1.7v.5h1.7v-.5zm0 1h-1.7v.5h1.7v-.5zM329.3 108.4v3.7c.3-.1.7-.2 1.1-.4v-4.3h.5v7.2h-.5v-2.4c-.7.3-1.4.5-2.1.8l-.1-.6c.2 0 .4-.1.6-.2v-3.9h.5zm6-.1c-.4 1.6-.9 2.8-1.4 3.6-.1.2-.2.3-.3.5.5.6 1.1 1.2 1.9 1.7-.2.1-.3.2-.4.4-.8-.5-1.4-1.1-1.9-1.7-.5.6-1.2 1.2-1.9 1.8-.1-.2-.2-.4-.4-.5.8-.5 1.4-1.1 2-1.8-.1-.1-.2-.3-.2-.4-.4-.9-.7-2.1-.7-3.4h-.7v-.5h3.6l.4.3zm-2 3.5c0-.1.1-.1.1-.2.5-.9.9-1.9 1.2-3.2h-2.1c.1 1.4.3 2.5.8 3.4zM329.9 115.8l-.8 1.6c.2.1.3.3.5.4l.8-1.4.5.3-1.5 2.5c.3 0 .7-.1 1-.1-.1-.1-.1-.3-.2-.5l.5-.2c.2.4.4.8.5 1.3l-.5.2c0-.1-.1-.3-.1-.4-.2 0-.5.1-.7.1v3.3h-.5v-3.2c-.5.1-.9.1-1.3.1l-.1-.5h.8l.5-1c-.4-.4-.8-.7-1.3-1l.3-.5c.1.1.2.1.4.2l.7-1.6.5.4zm-.9 4.7c0 .6-.2 1.3-.4 1.9l-.5-.1c.2-.5.3-1.2.4-1.9l.5.1zm2.1 1.3c-.1 0-.3 0-.5.1-.2-.4-.2-.9-.3-1.5l.5-.1c.1.6.2 1.1.3 1.5zm1.8-4.6v-1.6h.5v1.6h1.7v5c0 .3-.1.5-.2.5-.1.1-.4.1-.8.2 0-.2-.1-.4-.2-.6h.6c.1 0 .1 0 .1-.2v-4.4h-1.2c0 .4 0 .8-.1 1 .4.6.8 1.1 1.2 1.7l-.5.4c-.2-.4-.5-.9-.9-1.4-.2.6-.4 1.1-.8 1.7-.1-.1-.3-.3-.5-.4v2.1h-.5v-5.7h1.6zm-.2 2.1c.1-.3.2-.8.2-1.5h-1v3c.4-.5.7-1 .8-1.5zM335.2 127.3c-.5-.6-1-1-1.5-1.2-.6-.3-1.2-.5-1.8-.5-.7 0-1.3.2-1.8.5s-.9.6-1.5 1.2l-.4-.4c.6-.6 1.1-1 1.6-1.3.6-.4 1.3-.5 2.1-.5s1.5.2 2.1.5c.5.3 1 .7 1.6 1.3l-.4.4zM332.2 129.4v4.6h-.6v-4.6h-2v-.5h4.6v.5h-2zM334 137.6c-.6.4-1.3.5-2.1.5s-1.5-.2-2.1-.5c-.5-.3-1-.7-1.6-1.3l.4-.4c.5.6 1 1 1.5 1.2.6.3 1.2.5 1.8.5.7 0 1.3-.2 1.8-.5.4-.2.9-.6 1.5-1.2l.4.4c-.6.5-1.1 1-1.6 1.3zM156.8 206.6c-.3.2-.6.3-1 .3h-1.3v2h-.5v-4.6h1.6c.5 0 .9.1 1.2.3.4.2.5.6.5 1-.1.4-.2.7-.5 1zm-1.1-1.9h-1.2v1.7h1.2c.7 0 1.1-.3 1.1-.8-.1-.6-.5-.9-1.1-.9zM160.8 208.7c-.3.2-.7.3-1.1.3-.5 0-.8-.1-1.2-.3-.3-.2-.5-.6-.6-1h.6c.1.3.2.6.4.7.2.1.4.2.8.2.3 0 .5-.1.7-.2.2-.2.4-.4.4-.6 0-.3-.4-.6-1.1-.9-1-.4-1.5-.9-1.5-1.4 0-.4.2-.7.5-.9.3-.2.6-.3 1-.3.7 0 1.2.4 1.5 1.2h-.6c-.2-.5-.5-.7-.9-.7-.3 0-.5.1-.6.2-.2.1-.3.3-.3.6 0 .2.2.5.7.7.4.2.8.5 1.3.7.5.3.7.6.7 1-.1.1-.3.4-.7.7zM137.1 206.4v-1.6h.4v1.6h.8v.5h-.8v.6c.1.2.3.3.4.3.1.1.3.2.5.3-.1.1-.2.3-.3.4-.2-.1-.4-.3-.5-.4 0 0-.1 0-.1-.1v3.3h-.4v-3.4c-.1.2-.2.5-.3.7-.2.4-.3.6-.5.7-.1-.2-.2-.3-.3-.4.2-.3.4-.7.6-1 .1-.3.3-.7.4-1.1h-.8v-.5h.9zm3.1-1.3v5.5c0 .2 0 .3-.1.3-.1.1-.3.1-.8.2 0-.2-.1-.4-.1-.5h.3c.1 0 .2 0 .2-.1v-1.6h-.7c0 .3-.1.5-.1.7-.1.6-.3 1.2-.6 1.7-.1-.2-.2-.3-.4-.5.2-.4.4-.9.5-1.5.1-.5.1-1 .1-1.7v-2.5h1.7zm-.4 3.4v-1.2h-.7v1.2h.7zm0-1.7v-1.2h-.7v1.2h.7zm2.7-1.7v5.7c0 .1 0 .3-.1.3-.1.1-.4.1-.8.2 0-.2-.1-.4-.1-.5h.4c.1 0 .2 0 .2-.1v-1.8h-.8c0 .4-.1.7-.1.9-.1.6-.2 1.1-.4 1.6-.1-.2-.2-.3-.4-.5.2-.4.3-.9.4-1.4 0-.4.1-1 .1-1.6v-2.8h1.6zm-.5 3.4v-1.2h-.8v1.2h.8zm0-1.7v-1.2h-.8v1.2h.8zM316 231.2c-.3.2-.6.3-1 .3h-1.3v2h-.5v-4.6h1.6c.5 0 .9.1 1.2.3.4.2.5.6.5 1s-.2.8-.5 1zm-1.1-1.8h-1.2v1.7h1.2c.7 0 1.1-.3 1.1-.8-.1-.6-.5-.9-1.1-.9zM320 233.3c-.3.2-.7.3-1.1.3-.5 0-.8-.1-1.2-.3-.3-.2-.5-.6-.6-1h.6c.1.3.2.6.4.7.2.1.4.2.8.2.3 0 .5-.1.7-.2.2-.2.4-.4.4-.6 0-.3-.4-.6-1.1-.9-1-.4-1.5-.9-1.5-1.4 0-.4.2-.7.5-.9.3-.2.6-.3 1-.3.7 0 1.2.4 1.5 1.2h-.6c-.2-.5-.5-.7-.9-.7-.3 0-.5.1-.6.2-.2.1-.3.3-.3.6 0 .2.2.5.7.7.4.2.8.5 1.3.7.5.3.7.6.7 1-.1.2-.3.5-.7.7zM332.4 80.1c-.3.2-.6.3-1 .3H330v2h-.5v-4.6h1.6c.5 0 .9.1 1.2.3.4.2.5.6.5 1s-.1.8-.4 1zm-1.1-1.8H330V80h1.2c.7 0 1.1-.3 1.1-.8 0-.6-.4-.9-1-.9zM336.4 82.2c-.3.2-.7.3-1.1.3-.5 0-.8-.1-1.2-.3-.3-.2-.5-.6-.6-1h.6c.1.3.2.6.4.7.2.1.4.2.8.2.3 0 .5-.1.7-.2.2-.2.4-.4.4-.6 0-.3-.4-.6-1.1-.9-1-.4-1.5-.9-1.5-1.4 0-.4.2-.7.5-.9.3-.2.6-.3 1-.3.7 0 1.2.4 1.5 1.2h-.6c-.2-.5-.5-.7-.9-.7-.3 0-.5.1-.7.2-.2.1-.3.3-.3.6 0 .2.2.5.7.7.4.2.8.5 1.3.7.5.3.7.6.7 1 0 .1-.2.5-.6.7zM270.1 376c-.3.2-.6.3-1 .3h-1.3v2h-.5v-4.6h1.6c.5 0 .9.1 1.2.3.4.2.5.6.5 1 0 .5-.1.8-.5 1zm-1.1-1.8h-1.2v1.7h1.2c.7 0 1.1-.3 1.1-.8-.1-.6-.4-.9-1.1-.9zM276.6 378.1c-.3.2-.7.3-1.1.3-.5 0-.8-.1-1.2-.3-.3-.2-.5-.6-.6-1h.6c.1.3.2.6.4.7.2.1.4.2.8.2.3 0 .5-.1.7-.2.2-.2.4-.4.4-.6 0-.3-.4-.6-1.1-.9-1-.4-1.5-.9-1.5-1.4 0-.4.2-.7.5-.9.3-.2.6-.3 1-.3.7 0 1.2.4 1.5 1.2h-.6c-.2-.5-.5-.7-.9-.7-.3 0-.5.1-.6.2-.2.1-.3.3-.3.6 0 .2.2.5.7.7.4.2.8.5 1.3.7.5.3.7.6.7 1-.1.2-.3.5-.7.7zM420.9 356.6c0 .6-.1 1.1-.1 1.4 0 .2-.1.3-.2.4-.1.1-.4.1-.9.2 0-.1-.1-.3-.1-.4h.5c.2 0 .3-.1.4-.2.1-.2.1-.5.1-1v-1.3h-1.3c-.1.8-.3 1.4-.6 1.9s-.8.9-1.4 1.3c-.1-.1-.2-.3-.3-.4.6-.3 1-.7 1.3-1.1.3-.4.5-1 .6-1.6h-1.5v-.4h1.5v-1.2h.5v1.2h1.8l-.3 1.2zM421.5 356.6v-.4h4.5v.4h-4.5zM429.1 356c-.1.9-.2 1.5-.5 1.8-.2.3-.7.7-1.4 1-.1-.1-.1-.3-.3-.4.7-.2 1.1-.5 1.4-.8.2-.3.3-.8.4-1.6h-2.3v-.4h4.9v.4h-2.2zm-1.9-1.3v-.4h3.3v.4h-3.3zM434.3 357.3c-.6.4-1.3.9-2.2 1.3l-.3-.5c1.5-.5 2.9-1.5 4-2.9l.3.3c-.6.8-1.2 1.4-1.8 1.8zm-1.2-1.7c-.4-.4-.8-.7-1.2-1l.3-.4c.5.3.9.6 1.3.9l-.4.5zM439.7 357c-.5.4-1 .7-1.5 1-.4.2-.7.4-.9.5l-.4-.3v-4h.4v3.7c.8-.3 1.4-.7 1.8-1 .4-.3.9-.8 1.4-1.4l.3.3c-.3.5-.7.9-1.1 1.2zM441.3 356.6v-.4h4.5v.4h-4.5zM447.7 356.8c-.2.7-.6 1.3-1.2 1.9-.1-.1-.2-.3-.3-.4.5-.3.8-.7 1-1.2.2-.4.3-.9.3-1.5v-1h.4c0 1-.1 1.7-.2 2.2zm1.5 1.7-.3-.3.1-.1v-4h.4v3.7c.6-.4 1.2-1 1.8-1.8l.3.3c-.8 1-1.6 1.7-2.3 2.2zM455 358.3h-.4l-.7-2.9-.8 2.9h-.4l-.9-3.6h.4l.7 2.9.8-2.9h.4l.7 2.9.7-2.9h.4l-.9 3.6zM166.8 356.6c0 .6-.1 1.1-.1 1.4 0 .2-.1.3-.2.4-.1.1-.4.1-.9.2 0-.1-.1-.3-.1-.4h.5c.2 0 .3-.1.4-.2.1-.2.1-.5.1-1v-1.3H165c-.1.8-.3 1.4-.6 1.9s-.8.9-1.4 1.3c-.1-.1-.2-.3-.3-.4.6-.3 1-.7 1.3-1.1.3-.4.5-1 .6-1.6h-1.5v-.4h1.5v-1.2h.5v1.2h1.8l-.1 1.2zM167.4 356.6v-.4h4.5v.4h-4.5zM175 356c-.1.9-.2 1.5-.5 1.8-.2.3-.7.7-1.4 1-.1-.1-.1-.3-.3-.4.7-.2 1.1-.5 1.4-.8.2-.3.4-.8.4-1.6h-2.3v-.4h4.9v.4H175zm-1.9-1.3v-.4h3.3v.4h-3.3zM180.2 357.3c-.6.4-1.3.9-2.2 1.3l-.3-.5c1.5-.5 2.9-1.5 4-2.9l.3.3c-.6.8-1.2 1.4-1.8 1.8zm-1.1-1.7c-.4-.4-.8-.7-1.2-1l.3-.4c.5.3.9.6 1.3.9l-.4.5zM183 358.1c-.1-.1-.3-.2-.4-.3.4-.5.8-1 1.1-1.7l.4.2c-.3.7-.7 1.3-1.1 1.8zm2.2-2.6v3.2h-.4v-3.2h-2.1v-.4h2.1v-1.2h.4v1.2h2.3v.4h-2.3zm1.9 2.5c-.5-.5-.9-1-1.3-1.7l.4-.3c.4.7.8 1.2 1.3 1.7-.2.1-.3.2-.4.3zm-.4-3.1c-.1-.2-.4-.4-.6-.6l.2-.2c.3.2.5.4.6.5l-.2.3zm.4-.4c-.1-.2-.4-.4-.6-.6l.2-.2c.3.2.5.4.6.5l-.2.3zM188.4 356.8c-.1-.3-.3-.6-.6-1l.3-.2c.2.3.4.7.6 1l-.3.2zm2.6.2c-.3.5-.6.9-1 1.2-.3.3-.8.5-1.3.7-.1-.1-.1-.3-.2-.4.5-.1.9-.3 1.2-.6.3-.2.6-.6.9-1 .2-.3.4-.8.5-1.4l.4.1c-.2.6-.3 1.1-.5 1.4zm-1.5-.5c-.1-.3-.3-.7-.5-1l.3-.1c.2.4.4.7.5 1l-.3.1zM194.9 357.4c-.6.6-1.3 1-2.2 1.3-.1-.1-.1-.3-.2-.4.8-.2 1.5-.6 2-1 .4-.4.8-1.1 1.2-1.9h-1.8c-.4.6-.8 1.2-1.3 1.6-.1-.1-.2-.2-.4-.3l1.1-1.1c.2-.3.5-.8.8-1.4l.5.2c-.1.2-.2.4-.4.7H196.1l.3.3c-.6.7-1 1.5-1.5 2zM201.1 358.5c-.5-.6-1-1.3-1.7-1.9-.6.7-1.4 1.3-2.3 1.9-.1-.2-.2-.3-.3-.4.8-.4 1.5-.8 2-1.3.4-.4.9-1.1 1.5-2h-2.9v-.4h3.2l.3.3c-.4.6-.7 1.2-1 1.6.7.6 1.3 1.2 1.8 1.9l-.6.3zM203.5 356.7h-.6l-.1-.1v-.6l.1-.1h.6l.1.1v.6l-.1.1zM209.1 356.6c0 .6-.1 1.1-.1 1.4 0 .2-.1.3-.2.4-.1.1-.4.1-.9.2 0-.1-.1-.3-.1-.4h.5c.2 0 .3-.1.4-.2.1-.2.1-.5.1-1v-1.3h-1.3c-.1.8-.3 1.4-.6 1.9s-.8.9-1.4 1.3c-.1-.1-.2-.3-.3-.4.6-.3 1-.7 1.3-1.1.3-.4.5-1 .6-1.6h-1.5v-.4h1.5v-1.2h.5v1.2h1.8l-.3 1.2zM209.7 356.6v-.4h4.5v.4h-4.5zM217.3 356c-.1.9-.2 1.5-.5 1.8-.2.3-.7.7-1.4 1-.1-.1-.1-.3-.3-.4.7-.2 1.1-.5 1.4-.8.2-.3.4-.8.4-1.6h-2.3v-.4h4.9v.4h-2.2zm-1.9-1.3v-.4h3.3v.4h-3.3zM222.5 357.3c-.6.4-1.3.9-2.2 1.3l-.3-.5c1.5-.5 2.9-1.5 4-2.9l.3.3c-.6.8-1.2 1.4-1.8 1.8zm-1.1-1.7c-.4-.4-.8-.7-1.2-1l.3-.4c.5.3.9.6 1.3.9l-.4.5zM227.9 357c-.5.4-1 .7-1.5 1-.4.2-.7.4-.9.5l-.4-.3v-4h.4v3.7c.8-.3 1.4-.7 1.8-1 .4-.3.9-.8 1.4-1.4l.3.3c-.3.5-.7.9-1.1 1.2zM229.6 356.6v-.4h4.5v.4h-4.5zM235.9 356.8c-.2.7-.6 1.3-1.2 1.9-.1-.1-.2-.3-.3-.4.5-.3.8-.7 1-1.2.2-.4.3-.9.3-1.5v-1h.4c0 1-.1 1.7-.2 2.2zm1.5 1.7-.3-.3.1-.1v-4h.4v3.7c.6-.4 1.2-1 1.8-1.8l.3.3c-.8 1-1.6 1.7-2.3 2.2zM243.2 358.3h-.4l-.7-2.9-.8 2.9h-.4l-.9-3.6h.4l.7 2.9.8-2.9h.4l.7 2.9.7-2.9h.4l-.9 3.6zM298.9 356.6c0 .6-.1 1.1-.1 1.4 0 .2-.1.3-.2.4-.1.1-.4.1-.8.2 0-.1-.1-.3-.1-.4h.4c.2 0 .3-.1.3-.2.1-.2.1-.5.1-1v-1.3h-1.2c-.1.8-.3 1.4-.6 1.9s-.7.9-1.3 1.3c-.1-.1-.2-.3-.3-.4.5-.3.9-.7 1.2-1.1.3-.4.4-1 .5-1.6h-1.3v-.4h1.3v-1.2h.4v1.2h1.7v1.2zM299.4 356.6v-.4h4v.4h-4zM306.2 356c-.1.9-.2 1.5-.4 1.8-.2.3-.6.7-1.3 1-.1-.1-.1-.3-.2-.4.6-.2 1-.5 1.2-.8.2-.3.3-.8.4-1.6h-2.1v-.4h4.4v.4h-2zm-1.7-1.3v-.4h2.9v.4h-2.9zM310.9 357.3c-.5.4-1.2.9-2 1.3l-.2-.5c1.4-.5 2.6-1.5 3.6-2.9l.3.3c-.6.8-1.1 1.4-1.7 1.8zm-1-1.7c-.4-.4-.8-.7-1.1-1l.2-.4 1.2.9-.3.5zM313.4 358.1c-.1-.1-.2-.2-.4-.3.4-.5.7-1 1-1.7l.4.2c-.3.7-.6 1.3-1 1.8zm2-2.6v3.2h-.4v-3.2h-1.9v-.4h1.9v-1.2h.4v1.2h2v.4h-2zm1.7 2.5c-.4-.5-.8-1-1.1-1.7l.4-.3c.3.7.7 1.2 1.1 1.7-.2.1-.3.2-.4.3zm-.3-3.1c-.1-.2-.3-.4-.6-.6l.2-.2c.2.2.4.4.6.5l-.2.3zm.3-.4c-.1-.2-.3-.4-.6-.6l.2-.2c.2.2.4.4.6.5l-.2.3zM318.3 356.8c-.1-.3-.3-.6-.5-1l.3-.2c.2.3.4.7.5 1l-.3.2zm2.3.2c-.2.5-.5.9-.9 1.2-.3.3-.7.5-1.2.7-.1-.1-.1-.3-.2-.4.5-.1.8-.3 1.1-.6.3-.2.6-.6.8-1 .2-.3.3-.8.5-1.4l.4.1c-.2.6-.3 1.1-.5 1.4zm-1.3-.5c-.1-.3-.2-.7-.4-1l.3-.1c.2.4.3.7.4 1l-.3.1zM324.1 357.4c-.5.6-1.2 1-2 1.3-.1-.1-.1-.3-.2-.4.7-.2 1.3-.6 1.8-1 .4-.4.7-1.1 1.1-1.9h-1.6c-.4.6-.8 1.2-1.2 1.6-.1-.1-.2-.2-.4-.3.4-.4.7-.8 1-1.1.2-.3.4-.8.7-1.4l.4.2c-.1.2-.2.4-.3.7h1.8l.3.3c-.5.7-.9 1.5-1.4 2zM329.7 358.5c-.4-.6-.9-1.3-1.5-1.9-.5.7-1.2 1.3-2.1 1.9-.1-.2-.2-.3-.3-.4.7-.4 1.3-.8 1.8-1.3.4-.4.8-1.1 1.3-2h-2.6v-.4h2.9l.3.3c-.3.6-.6 1.2-.9 1.6.6.6 1.2 1.2 1.6 1.9l-.5.3zM331.9 356.7h-.6l-.1-.1v-.6l.1-.1h.6l.1.1v.6l-.1.1zM336.9 356.6c0 .6-.1 1.1-.1 1.4 0 .2-.1.3-.2.4-.1.1-.4.1-.8.2 0-.1-.1-.3-.1-.4h.4c.2 0 .3-.1.3-.2.1-.2.1-.5.1-1v-1.3h-1.2c-.1.8-.3 1.4-.6 1.9s-.7.9-1.3 1.3c-.1-.1-.2-.3-.3-.4.5-.3.9-.7 1.2-1.1.3-.4.4-1 .5-1.6h-1.3v-.4h1.3v-1.2h.4v1.2h1.7v1.2zM337.5 356.6v-.4h4v.4h-4zM344.3 356c-.1.9-.2 1.5-.4 1.8-.2.3-.6.7-1.3 1-.1-.1-.1-.3-.2-.4.6-.2 1-.5 1.2-.8.2-.3.3-.8.4-1.6h-2.1v-.4h4.4v.4h-2zm-1.7-1.3v-.4h2.9v.4h-2.9zM349 357.3c-.5.4-1.2.9-2 1.3l-.2-.5c1.4-.5 2.6-1.5 3.6-2.9l.3.3c-.6.8-1.2 1.4-1.7 1.8zm-1-1.7c-.4-.4-.8-.7-1.1-1l.2-.4 1.2.9-.3.5zM353.8 357c-.4.4-.9.7-1.4 1-.4.2-.6.4-.8.5l-.3-.3v-4h.4v3.7c.7-.3 1.2-.7 1.6-1 .4-.3.8-.8 1.3-1.4l.3.3c-.3.5-.7.9-1.1 1.2zM355.3 356.6v-.4h4v.4h-4zM361.1 356.8c-.2.7-.5 1.3-1.1 1.9-.1-.1-.2-.3-.3-.4.4-.3.7-.7.9-1.2.1-.4.2-.9.3-1.5v-1h.4c-.1 1-.1 1.7-.2 2.2zm1.3 1.7-.3-.3v-4.1h.4v3.7c.5-.4 1.1-1 1.6-1.8l.3.3c-.7 1-1.4 1.7-2 2.2zM367.6 358.3h-.4l-.7-2.9-.7 2.9h-.4l-.8-3.6h.4l.6 2.9.7-2.9h.4l.7 2.9.7-2.9h.4l-.9 3.6zM352.5 193.4c-.5.7-1.4 1.2-2.6 1.6-.1-.2-.2-.4-.3-.5 1-.2 1.8-.6 2.2-1.2.5-.6.8-1.4.8-2.4h-3.4v1.6h-.5v-2.1h2v-1.2h.5v1.2h2c0 1.4-.2 2.4-.7 3zM357 192.2v2.3c0 .2 0 .4-.1.5-.1.1-.3.1-.7.2 0-.2-.1-.4-.1-.5h.3c.2 0 .2-.1.2-.2v-1.7c-.6.8-1.4 1.4-2.3 1.9-.1-.1-.2-.3-.3-.4 1-.5 1.8-1.2 2.4-2h-2.2v-.4h2.3v-1h.4v1h1.5v.4H357zM360.3 192.4l-1.2-.6.2-.4c.5.2.9.3 1.2.5l-.2.5zm1.9 1.1c-.7.5-1.5.9-2.5 1.3l-.3-.5c1.8-.6 3.3-1.6 4.5-3 .1.1.2.3.3.4-.6.7-1.3 1.3-2 1.8zm-1.2-2.7c-.4-.3-.8-.5-1.2-.7l.2-.4c.5.3.9.5 1.2.7l-.2.4zM364.9 194.7v-.4h2.9l.2-2.2h-2.5v-.4h2.9l-.2 2.6h1.3v.4h-4.6zM355.3 200.9c-.5.4-1.1.8-1.7 1.1-.5.2-.8.4-1 .6l-.4-.4v-4.6h.5v4.2c.9-.4 1.6-.8 2.1-1.2.5-.4 1-.9 1.6-1.6.1.1.2.3.4.4l-1.5 1.5zM358 200.7c-.2-.3-.4-.7-.7-1.1l.4-.2c.2.4.5.7.7 1.2l-.4.1zm2.9.2c-.3.6-.7 1-1.1 1.4-.4.3-.9.6-1.5.8-.1-.2-.2-.3-.3-.4.6-.2 1-.4 1.4-.6.4-.3.7-.7 1-1.2.2-.4.4-1 .6-1.7l.5.1c-.2.6-.4 1.2-.6 1.6zm-1.7-.6c-.1-.4-.3-.8-.5-1.1l.4-.2c.2.4.4.8.6 1.1l-.5.2zM365.9 200.8c-.7-.4-1.6-.8-2.7-1.2v3.3h-.5v-5.6h.5v1.8c1 .3 2 .7 3 1.2l-.3.5zM339.6 219.1c-.5.1-1.1.2-1.9.3v.8h2v.4h-2v.9h2.3v.4h-2.3v1.4c0 .1-.1.2-.3.3-.2.1-.4.1-.8.1 0-.1 0-.3-.2-.4h.6c.1 0 .1 0 .1-.1v-1.3h-2.2v-.4h2.2v-.9h-2v-.4h2v-.8c-.6.1-1.2.1-1.8.1-.1-.2-.1-.3-.2-.4.8 0 1.6-.1 2.2-.1.6-.1 1.2-.2 1.9-.3l.4.4zM341.9 221.9l-.9 1.8-.4-.2 1-1.8c.1.1.2.2.3.2zm-.2-1.3-.2.3c-.2-.2-.5-.4-.8-.5l.2-.3c.3.2.5.3.8.5zm.2-1.3-.2.3c-.2-.3-.5-.5-.7-.6l.2-.3c.3.2.5.4.7.6zm1.1-.3c-.1.3-.2.5-.3.7h.8v-1h.4v1h1.4v.3H344v1h1.7v.3h-1.2v1.8c0 .1 0 .1.1.1h.6c.1 0 .2-.1.2-.1.1-.1.1-.2.1-.4.1.1.2.1.4.1 0 .2-.1.4-.2.6-.1.2-.2.2-.4.2h-.7c-.3 0-.4-.2-.4-.5v-1.8h-.8c0 .7-.1 1.2-.3 1.5-.2.3-.6.6-1.1.8-.1-.1-.1-.3-.2-.4.5-.2.9-.5 1-.8.1-.3.2-.6.2-1.1h-1.1v-.3h1.7v-1h-1c-.1.3-.3.5-.4.7-.1-.1-.2-.2-.3-.2.2-.3.4-.5.5-.8.1-.3.2-.5.3-.8l.3.1zM350.6 221.4c0 .6-.1 1.1-.1 1.4 0 .2-.1.3-.2.4-.1.1-.4.1-.9.2 0-.1-.1-.3-.1-.4h.5c.2 0 .3-.1.4-.2.1-.2.1-.5.1-1v-1.3H349c-.1.8-.3 1.4-.6 1.9s-.8.9-1.4 1.3c-.1-.1-.2-.3-.3-.4.6-.3 1-.7 1.3-1.1.3-.4.5-1 .6-1.6h-1.5v-.6h1.5v-1.2h.5v1.2h1.8l-.3 1.4zM354.6 222.2c-.4.6-1.2 1.1-2.3 1.4-.1-.2-.2-.3-.2-.4.9-.2 1.5-.6 2-1 .5-.5.7-1.2.7-2.1h-3v1.4h-.4v-1.8h1.7v-1h.4v1h1.8c-.1 1.1-.3 1.9-.7 2.5zM358.4 222.1c-.6.4-1.3.9-2.2 1.3l-.3-.5c1.5-.5 2.9-1.5 4-2.9l.3.3c-.6.8-1.2 1.4-1.8 1.8zm-1.2-1.8c-.4-.4-.8-.7-1.2-1l.3-.4c.5.3.9.6 1.3.9l-.4.5zM363.7 222.1c-.6.6-1.3 1.1-2.3 1.5-.1-.1-.1-.2-.3-.4.9-.3 1.6-.8 2.2-1.4-.3-.3-.7-.6-1-.8l.2-.3c.4.3.8.5 1.1.8.3-.4.6-.9.9-1.5h-1.8c-.5.7-1 1.2-1.7 1.6-.1-.1-.2-.3-.3-.4.6-.4 1-.7 1.2-1 .3-.3.5-.8.8-1.4l.5.2-.3.6h1.8l.3.3c-.3.9-.8 1.7-1.3 2.2zM365.7 221.3v-.4h4.5v.4h-4.5zM291.4 49.9l-.4-.4c.5-.4 1.1-1 1.8-1.7h-5.2v-.6h5.8l.5.5c-1.1 1-2 1.7-2.5 2.2zm-.9 1.8c-.3.7-1 1.3-2.1 1.8-.1-.2-.2-.4-.4-.6.9-.2 1.6-.6 1.9-1.2.3-.5.4-1.2.4-2.2v-.6h.6c0 1.3-.1 2.3-.4 2.8zM296.9 50.7c-.3 1-.9 1.9-1.7 2.6-.1-.2-.3-.4-.4-.5.6-.5 1.1-1 1.4-1.7.2-.5.4-1.3.4-2.2v-1.5h.6c-.1 1.5-.2 2.6-.3 3.3zm2 2.4-.5-.5.1-.1v-5.7h.6v5.3c.9-.6 1.7-1.5 2.5-2.5.1.1.3.3.5.4-1 1.4-2.1 2.4-3.2 3.1zM307.4 53.2v-.4h-4.5v-.6h4.5v-3.4h-4.5v-.6h5.2v5.1h-.7zM309 50.3v-.6h6.4v.6H309zM320.2 51.4c-.7.8-1.7 1.5-3.2 2.1l-.3-.6c1.2-.4 2.2-.9 2.9-1.7.7-.7 1.2-1.7 1.7-3h-5.1v-.6h5.4l.5.5c-.7 1.5-1.3 2.6-1.9 3.3zm2-3.6c-.2-.2-.5-.5-.9-.8l.3-.3c.4.3.7.5.9.8l-.3.3zm.6-.6c-.2-.2-.5-.5-.9-.8l.3-.3c.4.3.7.5.9.8l-.3.3zM281.2 56.6v1.1h.4l.2.2c-.2.4-.4.9-.7 1.2l.2.2c.2-.1.3-.3.5-.5l.2.3-.5.5c.1.1.3.2.4.3-.1.1-.2.2-.2.3-.2-.1-.4-.3-.5-.5l-.1-.1v2.1h-.4v-2.1l-.6.6c0-.1-.1-.3-.2-.4.6-.6 1.1-1.1 1.4-1.8H280v-.3h.7v-1.1h.5zm3.8 5.1h-.4v-.4h-1.9v.4h-.4V58h1.1v-1.3h.4V58h1.1v3.7zm-1.5-2.3v-1.1h-.8v1.1h.8zm0 1.5v-1.2h-.8v1.2h.8zm.3-1.5h.8v-1.1h-.8v1.1zm0 1.5h.8v-1.2h-.8v1.2zM287.5 56.8c-.1.4-.3.8-.5 1.2v3.9h-.4v-3.2c-.2.3-.4.6-.7.9 0-.1-.1-.3-.2-.4.5-.7 1-1.5 1.4-2.6l.4.2zm2.1 1.3v-1.3h.4v1.3h1v.4h-1v2.9c0 .1-.1.2-.2.3-.2.1-.4.1-.7.1 0-.1 0-.3-.1-.4h.6c.1 0 .1 0 .1-.1v-2.8h-2.3v-.4h2.2zm-.8 1.8-.3.2c-.2-.3-.5-.6-.8-1l.3-.1c.4.4.6.7.8.9zM294.3 56.6v.9h2.2v.4h-2.4l-.8 1.6c.3.2.5.4.7.6l1.1-1.5.4.2-1.9 2.4c.6 0 1.3-.1 2-.2-.2-.2-.4-.5-.6-.7l.3-.2c.5.6.9 1.1 1.2 1.5l-.3.2c-.1-.2-.2-.3-.3-.4-1.6.2-3 .3-4.1.4l-.1-.4c.4 0 .9 0 1.4-.1l.7-.9c-.5-.4-1.1-.9-1.8-1.2l.2-.4c.3.2.6.3.8.5l.6-1.3h-2v-.4h2.3v-.9h.4zM299.6 56.8v1.7H298v3.2h-.4v-4.9h2zm-.4.7v-.4H298v.4h1.2zm0 .7v-.4H298v.4h1.2zm3-1.4v4.4c0 .2-.1.3-.2.4-.1.1-.3.1-.7.1 0-.1-.1-.3-.2-.4h.5c.1 0 .1 0 .1-.1v-2.6h-1.3l.3.1-.3.5h.8v.3h-1.3v.5h1.5v.3h-1.3c.1.2.2.3.3.4.1.1.4.3.7.4l-.3.3c-.3-.2-.6-.3-.7-.5-.1-.1-.3-.3-.4-.5-.1.1-.1.2-.2.3-.2.3-.6.5-1.1.8l-.3-.3c.5-.1.8-.4 1.1-.6.1-.1.1-.1.1-.2h-1.1V60h1.2v-.5h-1.1v-.3h.6c-.1-.1-.2-.3-.4-.5l.3-.2.5.5-.2.2h.7l.3-.7h-.2v-1.7h2.3zm-.4.4h-1.2v.4h1.2v-.4zm0 .6h-1.2v.4h1.2v-.4zM306.4 59.8c-.6-.4-1.4-.7-2.3-1v2.9h-.4v-4.9h.4v1.6c.9.3 1.8.6 2.6 1.1l-.3.3zm-.5-1.6c-.1-.2-.3-.4-.6-.6l.2-.2c.3.2.5.4.6.5l-.2.3zm.4-.4c-.1-.2-.3-.4-.6-.6l.2-.2c.3.2.5.4.6.5l-.2.3zM309.7 59.1l-.3-.3c.4-.3.8-.7 1.3-1.2h-3.6v-.4h4.1l.3.4c-.8.6-1.4 1.2-1.8 1.5zm-.6 1.3c-.2.5-.7.9-1.5 1.2-.1-.1-.2-.3-.3-.4.6-.2 1.1-.4 1.3-.9.2-.3.3-.8.3-1.5v-.4h.4c.1.9 0 1.6-.2 2zM440.3 160.5c-.2.5-.5 1-.9 1.4l-.3-.3c.6-.7 1-1.6 1.3-2.8l.4.2c-.1.6-.3 1.1-.5 1.5zm2.7 1.2c-.3-1-.8-1.9-1.3-2.8l.3-.2c.6.9 1.1 1.9 1.5 2.8l-.5.2zM446.1 161.1c-.5.4-1.1.8-1.9 1.1l-.2-.4c1.3-.4 2.5-1.3 3.4-2.5l.3.3c-.6.6-1.1 1.1-1.6 1.5zm-1-1.5c-.4-.3-.7-.6-1.1-.8l.2-.3c.4.2.8.5 1.1.8l-.2.3zM451.8 160.5c0 .5-.1.9-.1 1.2 0 .1-.1.2-.2.3-.1.1-.4.1-.8.2 0-.1-.1-.2-.1-.4h.4c.1 0 .3-.1.3-.2.1-.1.1-.4.1-.8v-1.1h-1.1c-.1.6-.3 1.2-.5 1.6-.3.4-.7.8-1.2 1.1l-.3-.3c.5-.3.9-.6 1.1-.9.3-.4.4-.8.5-1.4h-1.2v-.4h1.3v-1h.4v1h1.6l-.2 1.1zm0-1.4-.5-.5.2-.2c.2.2.4.3.6.5l-.3.2zm.3-.4-.5-.5.2-.2c.2.2.4.3.6.5l-.3.2zM452.5 160.4v-.3h3.8v.3h-3.8zM457.9 160.5c-.2.5-.5 1-.9 1.4l-.3-.3c.6-.7 1-1.6 1.3-2.8l.4.2c-.1.6-.3 1.1-.5 1.5zm2.7 1.2c-.3-1-.8-1.9-1.3-2.8l.3-.2c.6.9 1.1 1.9 1.5 2.8l-.5.2zm.3-2.6c-.1.1-.2.2-.3.2-.1 0-.3 0-.3-.1-.1-.1-.1-.2-.1-.3 0-.1 0-.3.1-.3.1-.1.2-.1.3-.1.1 0 .2 0 .3.1.1.1.1.2.1.3 0 0 0 .1-.1.2zm-.1-.5s-.1-.1-.2-.1c-.2 0-.3.1-.3.3 0 .1 0 .1.1.2 0 .1.1.1.2.1s.1 0 .2-.1c0 0 .1-.1.1-.2-.1-.1-.1-.2-.1-.2zM463.8 159.6v2.7h-.4v-2.4c-.6.5-1.2.9-1.8 1.1-.1-.1-.1-.3-.2-.4.6-.2 1.2-.6 1.8-1.1.5-.4 1-.9 1.5-1.4l.4.3c-.5.5-.9.9-1.3 1.2zM468.1 161.1c-.4.5-1 .9-1.9 1.2 0-.1-.1-.2-.2-.4.7-.2 1.3-.6 1.7-1 .4-.4.7-1 1-1.8h-3v-.4h3.2l.3.3c-.4 1-.8 1.6-1.1 2.1zm1.6-2.4c-.1.1-.2.2-.3.2-.1 0-.3 0-.3-.1-.1-.1-.1-.2-.1-.3 0-.1 0-.3.1-.3.1-.1.2-.1.3-.1.1 0 .2 0 .3.1.1.1.1.2.1.3 0 0 0 .1-.1.2zm-.2-.5s-.1-.1-.2-.1c-.2 0-.3.1-.3.3 0 .1 0 .1.1.2 0 .1.1.1.2.1s.1 0 .2-.1c0 0 .1-.1.1-.2s0-.2-.1-.2zM480.5 159.1c-.2.4-.5.8-.9 1.1-.1-.1-.2-.2-.3-.2.6-.5 1-1.3 1.3-2.2l.4.1c-.1.5-.3.9-.5 1.2zm2.7 1c-.3-.8-.8-1.5-1.3-2.3l.3-.2c.6.7 1.1 1.5 1.5 2.3l-.5.2zM482 162.8c-.5.3-1.1.6-1.9.9l-.2-.4c1.3-.4 2.5-1 3.4-2 .1.1.2.2.3.2-.6.5-1.1 1-1.6 1.3zm-1-1.3c-.4-.3-.7-.5-1.1-.7l.2-.2c.4.2.8.4 1.1.6l-.2.3zM483 165.9c0 .4-.1.7-.1.9 0 .1-.1.2-.2.3-.1.1-.4.1-.8.1 0-.1-.1-.2-.1-.3h.4c.1 0 .3-.1.3-.2.1-.1.1-.3.1-.7v-.9h-1.2c-.1.5-.3.9-.5 1.3-.3.3-.7.6-1.2.9l-.3-.3c.5-.2.9-.5 1.1-.8.3-.3.4-.7.5-1.1h-1.2v-.3h1.3v-.8h.4v.8h1.6l-.1 1.1zm0-1.1c-.1-.1-.3-.2-.5-.4l.2-.2c.2.1.4.3.6.4l-.3.2zm.4-.3c-.1-.1-.3-.2-.5-.4l.2-.2c.2.1.4.3.6.4l-.3.2zM481.4 170.8v-3.1h.3v3.1h-.3zM480.5 172.8c-.2.4-.5.8-.9 1.1-.1-.1-.2-.2-.3-.2.6-.5 1-1.3 1.3-2.2l.4.1c-.1.5-.3.9-.5 1.2zm2.7 1c-.3-.8-.8-1.5-1.3-2.3l.3-.2c.6.7 1.1 1.5 1.5 2.3l-.5.2zm.3-2.1c-.1.1-.2.1-.3.1-.1 0-.3 0-.3-.1-.1-.1-.1-.2-.1-.3 0-.1 0-.2.1-.3.1-.1.2-.1.3-.1.1 0 .2 0 .3.1.1.1.1.2.1.3.1.1 0 .2-.1.3zm-.1-.4s-.1-.1-.2-.1c-.2 0-.3.1-.3.2s0 .1.1.2c0 0 .1.1.2.1s.1 0 .2-.1c0 0 .1-.1.1-.2l-.1-.1zM481.9 175.4v2.2h-.4v-1.9c-.6.4-1.2.7-1.8.9-.1-.1-.1-.2-.2-.3.6-.2 1.2-.5 1.8-.8.5-.3 1-.7 1.5-1.1l.4.2c-.5.3-.9.6-1.3.8zM482.2 180.4c-.4.4-1 .7-1.9 1 0-.1-.1-.2-.2-.3.7-.2 1.3-.4 1.7-.8.4-.3.7-.8 1-1.5h-3v-.3h3.2l.3.2c-.4.8-.7 1.4-1.1 1.7zm1.6-1.9c-.1.1-.2.1-.3.1-.1 0-.3 0-.3-.1-.1-.1-.1-.2-.1-.3 0-.1 0-.2.1-.3.1-.1.2-.1.3-.1.1 0 .2 0 .3.1.1.1.1.2.1.3.1.1 0 .2-.1.3zm-.1-.4s-.1-.1-.2-.1c-.2 0-.3.1-.3.2s0 .1.1.2c0 0 .1.1.2.1s.1 0 .2-.1c0 0 .1-.1.1-.2-.1 0-.1-.1-.1-.1zM317.3 294.1l-2.1 4.3-1-.6 2.3-4.2c.3.2.5.4.8.5zm-.4-3.4-.4.8c-.6-.4-1.2-.7-2-1.1l.4-.8c.7.3 1.4.7 2 1.1zm.7-3.2-.6.8c-.6-.5-1.2-1-1.9-1.4l.6-.7c.7.3 1.3.8 1.9 1.3zm7.5-1.2-1.1 2h2.8v.9h-4v1.9h3.1v.9h-3.1v2.2h4v.9h-4v3.5h-.9v-3.5h-4.1v-.9h4.1V292h-3.3v-.9h3.3v-1.9H318v-.9h4.9l1.3-2.5.9.5zm-3.9 1.3-.8.6c-.3-.6-.7-1.2-1.2-1.7l.8-.6c.5.7.9 1.3 1.2 1.7zM334.5 294.7v-1.2h1v1.2h4.4v.8h-4.4v1.5h5.7v.8h-12.5v-.8h5.8v-1.5h-4.3v-.8h4.3zm1-9v1.4h5.1v2.7h-1v.4h-5.3l-1.1 2.1c1.5-.1 2.9-.2 4.5-.3-.3-.3-.6-.5-1-.8l.7-.7c1.3 1 2.2 1.7 2.7 2.3l-.7.7-.8-.8c-3.3.3-6.1.5-8.5.6l-.2-.9c.7 0 1.4 0 2.2-.1l1.2-2.1h-3v-.4h-.9v-2.7h5.1v-1.4h1zm4.1 3.7v-1.3h-9.3v1.3h9.3zM343.1 297c.1-1.5.8-2.8 2.3-3.9 1.5-1.2 2.2-2.1 2.2-2.7 0-.5-.1-.9-.4-1.2-.3-.3-.7-.5-1.2-.5-.7 0-1.1.2-1.5.6-.3.3-.5.8-.5 1.5h-1c.2-1.9 1.3-2.8 3.1-2.8.8 0 1.4.2 1.9.7.5.5.7 1.1.7 1.8 0 .9-.7 1.9-2.2 3.1-1.2 1-1.9 1.9-2.2 2.7h4.5v.9h-5.7zM313.2 317.1c-.7-.7-1.2-1.3-1.6-1.9-.4-.8-.6-1.6-.6-2.5s.2-1.7.6-2.5c.3-.6.9-1.2 1.6-1.9l.5.5c-.7.6-1.2 1.2-1.5 1.8-.4.7-.6 1.4-.6 2.2 0 .8.2 1.5.6 2.2.3.5.8 1.1 1.5 1.8l-.5.3zM317.3 308.3l-1 1.9c.2.2.4.3.6.5l.9-1.6.6.4-1.7 2.7c.4 0 .9 0 1.4-.1-.1-.3-.3-.5-.4-.8l.5-.3c.4.6.6 1.1.8 1.5l-.5.4c0-.1-.1-.2-.1-.3-.4 0-.8.1-1.1.1v4h-.7v-3.9c-.5 0-1 .1-1.5.1l-.2-.6h1l.6-1c-.5-.4-1-.8-1.6-1.1l.4-.5c.1.1.3.2.4.3l.9-1.9.7.2zm-1.2 5.3c-.2.9-.4 1.7-.6 2.4-.2-.1-.4-.2-.6-.2.2-.7.4-1.5.6-2.3l.6.1zm2.7 1.7-.6.2c-.1-.6-.2-1.2-.4-1.8l.6-.2c.1.5.2 1.1.4 1.8zm1.8-7.1c-.2.7-.3 1.3-.4 1.7h3.1v3.8c0 1-.1 1.7-.2 2-.1.6-.8.9-2 .9 0-.3-.1-.6-.3-.8h1.1c.3 0 .5-.2.6-.5.1-.3.1-.9.2-1.9v-3H320c-.2.6-.4 1.1-.6 1.5-.2-.2-.4-.3-.6-.4.3-.6.5-1.2.7-1.9.2-.6.3-1.2.4-1.8l.7.4zm1 5.3-.6.5c-.3-.5-.8-1.1-1.3-1.7l.5-.4c.5.5 1 1.1 1.4 1.6zM328.6 314.3v1.4h-.6v-1.4h-3v-.6l3-4.1h.5v4.2h.8v.6h-.7zm-.6-3.7-2.3 3.1h2.3v-3.1zM331.6 315.8h-.7l-.1-.1v-.6l.1-.1h.7l.1.1v.6l-.1.1zM333.3 315.7c.1-1 .6-1.9 1.5-2.7 1-.8 1.5-1.4 1.5-1.9 0-.3-.1-.6-.3-.8-.2-.2-.5-.4-.8-.4-.5 0-.8.1-1 .4-.2.2-.3.6-.4 1h-.7c.2-1.3.9-1.9 2.1-1.9.5 0 1 .2 1.3.5.3.3.5.7.5 1.2 0 .6-.5 1.3-1.5 2.1-.8.7-1.3 1.3-1.5 1.8h3.1v.6h-3.8zM340.3 309.7V308h.7v1.7h1.4v4.5c0 .2 0 .3-.1.4-.1.1-.4.2-.8.2 0-.3-.1-.5-.2-.7h.3c.1 0 .2 0 .2-.1v-3.7h-.8v6.5h-.7v-6.5h-.7v4.5h-.6v-5.1h1.3zm5-1.7v1.8h2.1v.6h-2.1v2h1.7v4.2h-.6v-.5h-2.7v.6h-.7v-4.3h1.6V308h.7zm1 7.5V313h-2.7v2.5h2.7zM350.9 315.2c-.3.6-.9 1.2-1.6 1.9l-.5-.4c.7-.6 1.1-1.2 1.5-1.8.4-.7.6-1.4.6-2.2 0-.8-.2-1.5-.6-2.2-.3-.5-.8-1.1-1.5-1.8l.5-.5c.7.7 1.2 1.3 1.6 1.9.4.8.6 1.6.6 2.5s-.2 1.8-.6 2.6zM423 294.1l-2.1 4.3-1-.6 2.3-4.2c.3.2.5.4.8.5zm-.4-3.4-.4.8c-.6-.4-1.2-.7-2-1.1l.4-.8c.7.3 1.4.7 2 1.1zm.7-3.2-.6.8c-.6-.5-1.2-1-1.9-1.4l.6-.7c.7.3 1.3.8 1.9 1.3zm7.5-1.2-1.1 2h2.8v.9h-4v1.9h3.1v.9h-3.1v2.2h4v.9h-4v3.5h-.9v-3.5h-4.1v-.9h4.1V292h-3.3v-.9h3.3v-1.9h-3.8v-.9h4.9l1.3-2.5.8.5zm-3.9 1.3-.8.6c-.3-.6-.7-1.2-1.2-1.7l.8-.6c.5.7.9 1.3 1.2 1.7zM440.2 294.7v-1.2h1v1.2h4.4v.8h-4.4v1.5h5.7v.8h-12.5v-.8h5.8v-1.5H436v-.8h4.2zm1-9v1.4h5.1v2.7h-1v.4H440l-1.1 2.1c1.5-.1 2.9-.2 4.5-.3-.3-.3-.6-.5-1-.8l.7-.7c1.3 1 2.2 1.7 2.7 2.3l-.7.7-.8-.8c-3.3.3-6.1.5-8.5.6l-.2-.9c.7 0 1.4 0 2.2-.1l1.2-2.1h-3v-.4h-.9v-2.7h5.1v-1.4h1zm4.1 3.7v-1.3H436v1.3h9.3zM452 297v-8c-.7.4-1.3.6-1.9.8v-1c.7-.1 1.4-.4 1.9-.8h1v9h-1zM418.9 317.1c-.7-.7-1.2-1.3-1.6-1.9-.4-.8-.6-1.6-.6-2.5s.2-1.7.6-2.5c.3-.6.9-1.2 1.6-1.9l.5.5c-.7.6-1.2 1.2-1.5 1.8-.4.7-.6 1.4-.6 2.2 0 .8.2 1.5.6 2.2.3.5.8 1.1 1.5 1.8l-.5.3zM423 308.3l-1 1.9c.2.2.4.3.6.5l.9-1.6.6.4-1.7 2.7c.4 0 .9 0 1.4-.1-.1-.3-.3-.5-.4-.8l.5-.3c.4.6.6 1.1.8 1.5l-.5.4c0-.1-.1-.2-.1-.3-.4 0-.8.1-1.1.1v4h-.7v-3.9c-.5 0-1 .1-1.5.1l-.2-.6h1l.6-1c-.5-.4-1-.8-1.6-1.1l.4-.5c.1.1.3.2.4.3l.9-1.9.7.2zm-1.1 5.3c-.2.9-.4 1.7-.6 2.4-.2-.1-.4-.2-.6-.2.2-.7.4-1.5.6-2.3l.6.1zm2.6 1.7-.6.2c-.1-.6-.2-1.2-.4-1.8l.6-.2c.1.5.2 1.1.4 1.8zm1.8-7.1c-.2.7-.3 1.3-.4 1.7h3.1v3.8c0 1-.1 1.7-.2 2-.1.6-.8.9-2 .9 0-.3-.1-.6-.3-.8h1.1c.3 0 .5-.2.6-.5.1-.3.1-.9.2-1.9v-3h-2.6c-.2.6-.4 1.1-.6 1.5-.2-.2-.4-.3-.6-.4.3-.6.5-1.2.7-1.9.2-.6.3-1.2.4-1.8l.6.4zm1 5.3-.5.5c-.3-.5-.8-1.1-1.3-1.7l.5-.4c.4.5.9 1.1 1.3 1.6zM433.3 312.8c-.3.8-.5 1.8-.5 2.9h-.7c0-1.1.1-2.1.4-2.8.3-.8.8-1.7 1.6-2.7H431v-.6h3.9v.8c-.7.8-1.3 1.6-1.6 2.4zM437.3 315.8h-.7l-.1-.1v-.6l.1-.1h.7l.1.1v.6l-.1.1zM442.7 314.8c-.4.7-1 1.1-1.7 1.1-.8 0-1.4-.3-1.8-1-.3-.5-.5-1.3-.5-2.2 0-2.2.8-3.3 2.3-3.3.8 0 1.4.4 1.7 1.1.3.6.4 1.3.4 2.2.1.8-.1 1.5-.4 2.1zm-.5-3.8c-.2-.7-.6-1-1.2-1-1 0-1.5.9-1.5 2.7 0 1.7.5 2.6 1.5 2.6.5 0 .9-.3 1.2-.9.2-.5.3-1 .3-1.6-.1-.8-.2-1.4-.3-1.8zM446.1 309.7V308h.7v1.7h1.4v4.5c0 .2 0 .3-.1.4-.1.1-.4.2-.8.2 0-.3-.1-.5-.2-.7h.3c.1 0 .2 0 .2-.1v-3.7h-.7v6.5h-.7v-6.5h-.7v4.5h-.6v-5.1h1.2zm4.9-1.7v1.8h2.1v.6H451v2h1.7v4.2h-.7v-.5h-2.7v.6h-.6v-4.3h1.6V308h.7zm1 7.5V313h-2.7v2.5h2.7zM456.6 315.2c-.3.6-.9 1.2-1.6 1.9l-.5-.4c.7-.6 1.1-1.2 1.5-1.8.4-.7.6-1.4.6-2.2 0-.8-.2-1.5-.6-2.2-.3-.5-.8-1.1-1.5-1.8l.5-.5c.7.7 1.2 1.3 1.6 1.9.4.8.6 1.6.6 2.5s-.2 1.8-.6 2.6zM187.9 275.7v-10.5h1.2v9.5h6.5v1h-7.7zM204.6 274.4c-1.1.9-2.5 1.3-4.3 1.3h-3v-10.5h3.5c1.6 0 2.9.5 4 1.4 1 1 1.6 2.2 1.6 3.8-.1 1.7-.7 3-1.8 4zm-.8-7.1c-.8-.7-1.9-1-3.3-1h-2.1v8.5h2.3c1.3 0 2.3-.4 3.1-1.2.8-.8 1.2-1.8 1.2-3.1 0-1.5-.4-2.5-1.2-3.2zM215.3 275.7l-4-5.9-2.3 1.9v4h-1.1v-10.5h1.1v5.2l6-5.2h1.6l-4.5 3.9 4.8 6.6h-1.6zM181.2 299.2c-.7-.7-1.2-1.3-1.6-1.9-.4-.8-.6-1.6-.6-2.5s.2-1.7.6-2.5c.3-.6.9-1.2 1.6-1.9l.5.5c-.7.6-1.2 1.2-1.5 1.8-.4.7-.6 1.4-.6 2.2 0 .8.2 1.5.6 2.2.3.5.8 1.1 1.5 1.8l-.5.3zM185.4 290.4l-1 1.9c.2.2.4.3.6.5l.9-1.6.6.4-1.7 2.7c.4 0 .9 0 1.4-.1-.1-.3-.3-.5-.4-.8l.5-.3c.4.6.6 1.1.8 1.5l-.5.4c0-.1-.1-.2-.1-.3-.4 0-.8.1-1.1.1v4h-.7v-3.9c-.5 0-1 .1-1.5.1l-.2-.6h1l.6-1c-.5-.4-1-.8-1.6-1.1l.4-.5c.1.1.3.2.4.3l.9-1.9.7.2zm-1.2 5.3c-.2.9-.4 1.7-.6 2.4-.2-.1-.4-.2-.6-.2.2-.7.4-1.5.6-2.3l.6.1zm2.6 1.7-.6.2c-.1-.6-.2-1.2-.4-1.8l.6-.2c.1.5.3 1.1.4 1.8zm1.9-7.1c-.2.7-.3 1.3-.4 1.7h3.1v3.8c0 1-.1 1.7-.2 2-.1.6-.8.9-2 .9 0-.3-.1-.6-.3-.8h1.1c.3 0 .5-.2.6-.5.1-.3.1-.9.2-1.9v-3H188c-.2.6-.4 1.1-.6 1.5-.2-.2-.4-.3-.6-.4.3-.6.5-1.2.7-1.9.2-.6.3-1.2.4-1.8l.8.4zm.9 5.3-.5.5c-.3-.5-.8-1.1-1.3-1.7l.5-.4c.5.5.9 1.1 1.3 1.6zM195.6 297.8v-5.4c-.5.3-.9.4-1.3.5v-.7c.5-.1.9-.2 1.3-.5h.7v6.1h-.7zM201.1 297.8v-5.4c-.5.3-.9.4-1.3.5v-.7c.5-.1.9-.2 1.3-.5h.7v6.1h-.7zM205.1 297.9h-.7l-.1-.1v-.6l.1-.1h.7l.1.1v.6l-.1.1zM209.1 294.9c-.3.8-.5 1.8-.5 2.9h-.7c0-1.1.1-2.1.4-2.8.3-.8.8-1.7 1.6-2.7h-3.1v-.6h3.9v.8c-.7.8-1.3 1.6-1.6 2.4zM213.9 291.8v-1.7h.7v1.7h1.4v4.5c0 .2 0 .3-.1.4-.1.1-.4.2-.8.2 0-.3-.1-.5-.2-.7h.3c.1 0 .2 0 .2-.1v-3.7h-.7v6.5h-.7v-6.5h-.7v4.5h-.6v-5.1h1.2zm4.9-1.7v1.8h2.1v.6h-2.1v2h1.7v4.2h-.6v-.5h-2.7v.6h-.6v-4.3h1.6v-4.4h.6zm1 7.5v-2.5h-2.7v2.5h2.7zM224.4 297.3c-.3.6-.9 1.2-1.6 1.9l-.5-.4c.7-.6 1.1-1.2 1.5-1.8.4-.7.6-1.4.6-2.2 0-.8-.2-1.5-.6-2.2-.3-.5-.8-1.1-1.5-1.8l.5-.5c.7.7 1.2 1.3 1.6 1.9.4.8.6 1.6.6 2.5s-.2 1.8-.6 2.6zM191.5 123l-.1.1c.5.5 1 .8 1.6 1.1.6.3 1.2.6 1.9.8-.1.1-.2.2-.4.5-.6-.2-1.3-.5-1.8-.9-.5-.3-1.1-.7-1.6-1.2-.4.4-.9.8-1.4 1.1-.7.5-1.3.8-1.7 1-.1-.2-.3-.3-.4-.4.7-.3 1.3-.6 1.8-1 .6-.4 1.1-.9 1.6-1.4l.5.3zm-.2 1.3v.8h1.9v2.8h-2.1c.2.3.5.6.9.9.7-.3 1.3-.7 1.7-1l.4.5c-.5.3-1.1.6-1.6.8.6.3 1.3.5 2.1.6-.1.2-.2.4-.3.5-1-.2-1.9-.5-2.5-1-.6-.4-1-.8-1.3-1.4h-1.1v1.4c.5-.1 1.1-.1 1.7-.2v.5c-1.2.2-2.3.3-3.4.5l-.1-.6c.4 0 .9-.1 1.3-.2v-4.3h1.9v-.8h.5zm1.4 1.9v-.6h-3.3v.6h3.3zm0 1.2v-.7h-3.3v.7h3.3zM198.5 125.7c.2-.2.4-.5.6-.7l.6.2c-.1.2-.3.4-.4.5h3.6v.5h-2.3c.3.2.5.5.8.7.4.3 1 .5 1.7.7-.2.2-.4.4-.4.5-.2-.1-.3-.1-.5-.2v2.2h-.5v-.4h-1.3v.4h-.5v-2.4h1.8c-.3-.1-.5-.3-.7-.4-.4-.3-.8-.6-1-1h-1.1c-.3.3-.5.5-.8.7-.3.3-.7.5-1.1.7h1.8v2.5h-.5v-.4H197v.4h-.5V128c-.2.1-.4.2-.5.3-.1-.2-.2-.3-.4-.5.8-.3 1.5-.7 2.1-1.1.2-.1.3-.3.5-.4h-2.3v-.5h2.6zm-2.1-.7v-2h2.3v2h-2.3zm.6-.5h1.2v-1H197v1zm1.3 4.7v-1.1H197v1.1h1.3zm1.6-4.2v-2h2.4v2h-2.4zm.5-.5h1.3v-1h-1.3v1zm1.3 4.7v-1.1h-1.3v1.1h1.3zM204.9 124.6v-1.8h.5v1.8h.9v.5h-.9v.7l.4.4c.1.1.3.2.5.4-.1.2-.2.3-.3.5-.2-.2-.4-.3-.5-.4 0 0-.1 0-.1-.1v3.7h-.5v-3.7c-.1.3-.2.5-.3.8-.2.4-.4.7-.5.8-.1-.2-.2-.4-.3-.5.3-.4.5-.7.7-1.1.2-.3.3-.7.5-1.3h-1v-.5h.9zm3.4-1.4v6.1c0 .2 0 .3-.1.4-.1.1-.4.2-.8.2 0-.2-.1-.4-.2-.5h.4c.1 0 .2 0 .2-.1v-1.8h-.8c0 .3-.1.5-.1.8-.1.7-.3 1.3-.6 1.8-.1-.2-.2-.4-.4-.5.3-.5.5-1 .6-1.6.1-.5.1-1.2.1-1.9v-2.8h1.7zm-.5 3.7v-1.3h-.8v1.4h.8zm0-1.8v-1.4h-.8v1.4h.8zm3.1-1.9v6.3c0 .2 0 .3-.1.4-.1.1-.4.1-.9.2 0-.2-.1-.4-.2-.5h.4c.2 0 .2 0 .2-.1v-2h-.9c0 .4-.1.7-.1 1-.1.7-.3 1.2-.5 1.7-.1-.2-.2-.4-.4-.5.2-.4.3-1 .4-1.5 0-.5.1-1.1.1-1.8v-3.1h2zm-.6 3.7v-1.3h-.9v1.4h.9zm0-1.8v-1.4h-.9v1.4h.9zM137.4 116.4l-1.1 2.6-.5-.3 1.2-2.6c.1.2.2.3.4.3zm-.1-2.8-.3.4c-.3-.3-.6-.5-1.1-.7l.3-.5c.4.3.8.5 1.1.8zm3.1-1.1c0 .1-.1.1-.1.1.4.6.8 1 1.2 1.4.4.4.9.8 1.5 1.1-.2.2-.3.3-.4.5-.4-.2-.8-.5-1.2-.9-.5-.4-.9-.9-1.4-1.6-.3.5-.6.9-1 1.3-.5.5-1 1-1.5 1.3-.1-.2-.2-.3-.3-.5.5-.3.9-.6 1.4-1.1.5-.5.9-1.1 1.3-1.8l.5.2zm1.8 3.9v2c0 .3-.1.4-.2.5-.1.1-.4.1-.9.2 0-.2-.1-.4-.2-.6h.7c.1 0 .1 0 .1-.2v-1.5h-1.8v2.9h-.6v-2.9h-1.5v-.5h4.4zm-.9-1.4v.5h-2.5v-.5h2.5zM146 112.8v-.5h.5v.5h1.9v-.5h.5v.5h2v.4h-2v.6h.3v.6h1.8v.5h-1.8c0 .8 0 1.4.1 1.7 0 .3.1.6.1.8.3-.4.6-1 .9-1.7l.5.2c-.4.8-.8 1.5-1.2 2.1.1.2.1.3.2.4.2.3.3.4.4.4.1 0 .3-.2.5-.7.1.1.3.2.4.2-.2.5-.3.9-.5 1-.1.1-.2.2-.3.2-.3 0-.5-.1-.7-.4-.2-.2-.4-.4-.5-.7-.5.5-1.1.9-1.6 1.1-.1-.2-.2-.3-.4-.4.3-.1.6-.3.8-.5.3-.2.6-.5.9-.7l-.3-1.2c-.1-.4-.1-1-.1-1.8h-3.6v1c0 .8-.1 1.5-.2 1.9-.1.5-.4 1.1-.7 1.6-.1-.1-.3-.3-.5-.3.3-.4.5-.9.7-1.4.1-.4.2-.9.2-1.7v-1.4h4.1v-.6h-.3v-.6h-1.9v.6h-.2v-.6h-2v-.4h2zm2.2 3.1h-1v.5h1v1.3h-1v.6h1v.4h-2.1v.4h-.5v-3.6h2.6v.4zm-1.4.5v-.5h-.7v.5h.7zm1 1v-.6h-1.7v.6h1.7zm-1 .9v-.6h-.7v.6h.7zm3.9-4.1-.3.3c-.2-.2-.5-.5-.8-.7l.3-.3c.4.3.6.5.8.7zM156.1 112.3v.7h3v.5h-6v2.7c0 .8 0 1.5-.1 1.9-.1.5-.3 1-.6 1.6-.1-.2-.3-.3-.5-.4.3-.4.5-.9.6-1.4.1-.3.1-.9.1-1.7V113h2.9v-.7h.6zm0 2v-.6h.5v.6h2.3v.5h-2.3v.5h1.9v2.4h-1.9v.6h2.8v.5h-2.8v1h-.5v-1h-2.7v-.5h2.7v-.6h-1.9v-2.4h1.9v-.5h-2.2v-.5h2.2zm-1.4 2h1.3v-.5h-1.3v.5zm1.4.4h-1.3v.5h1.3v-.5zm.5-.4h1.4v-.5h-1.4v.5zm0 .4v.5h1.4v-.5h-1.4zM143.7 124.1v.6h3.3v.4h-3.3v.5h2.1v2.7h-4.2v-2.7h1.5v-.5h-3.5v-.4h3.5v-.6h-2.8v-1.7h6v1.7h-2.6zm-2.9 1.7v3h6.2v.5h-6.2v.4h-.5v-3.8h.5zm.1-2.1h1.3v-.8h-1.3v.8zm1.3 2.7h3.1v-.4h-3.1v.4zm0 .3v.4h3.1v-.4h-3.1zm0 .8v.4h3.1v-.4h-3.1zm.5-3.8h1.4v-.8h-1.4v.8zm1.9 0h1.3v-.8h-1.3v.8zM148.8 124.3v-2h.5v2h.8v.5h-.8v2.4l.9-.3v.4c.3-.2.5-.4.7-.6.2-.2.4-.5.5-.8h-1.2v-.5h5.2v.5H152c-.1.2-.2.4-.4.6h3.3c0 1 0 1.7-.1 2.1-.1.4-.2.6-.3.7-.1.1-.5.2-1 .2 0-.2-.1-.4-.2-.5h.7c.1 0 .2-.1.3-.4.1-.3.1-.8.1-1.5h-.5c-.3.7-.6 1.2-1 1.6-.4.4-.8.7-1.2.9-.1-.1-.2-.3-.4-.4.5-.2.9-.5 1.2-.9.3-.3.5-.7.8-1.2h-.7c-.2.5-.5.8-.8 1.1-.4.3-.7.5-1.1.7-.1-.1-.2-.3-.4-.4.4-.2.7-.4 1-.7.2-.2.4-.4.6-.8h-.7c-.3.3-.6.6-1.1.9-.1-.1-.2-.3-.3-.4-.7.2-1.3.4-1.9.6l-.1-.6c.3-.1.6-.2 1-.3v-2.6h-.8v-.5h.8zm2.3.6v-2.6h3.5v2.6h-3.5zm.6-1.5h2.4v-.5h-2.4v.5zm0 .5v.5h2.4v-.5h-2.4zM398.7 70.4l-.9 1.8-.4-.2 1-1.8c.1.1.2.2.3.2zm-.2-1.3-.2.3c-.2-.2-.5-.4-.8-.5l.2-.3c.3.2.6.3.8.5zm.3-1.3-.2.3c-.2-.3-.5-.5-.7-.6l.2-.3c.2.2.4.4.7.6zm1.1-.3c-.1.3-.2.5-.3.7h.8v-1h.4v1h1.4v.3h-1.4v1h1.7v.3h-1.2v1.8c0 .1 0 .1.1.1h.6c.1 0 .2-.1.2-.1.1-.1.1-.2.1-.4.1.1.2.1.4.1 0 .2-.1.4-.2.6-.1.2-.2.2-.4.2h-.7c-.3 0-.4-.2-.4-.5v-1.8h-.8c0 .7-.1 1.2-.3 1.5-.2.3-.6.6-1.1.8-.1-.1-.1-.3-.2-.4.5-.2.9-.5 1-.8.1-.3.2-.6.2-1.1h-1.1v-.3h1.7v-1h-1c-.1.3-.3.5-.4.7-.1-.1-.2-.2-.3-.2.2-.3.4-.5.5-.8.1-.3.2-.5.3-.8l.4.1zM404.1 69l-.2.3c-.2-.1-.5-.2-.7-.3l.1-.3c.3.1.6.2.8.3zm.3 1.4-.8 1.8-.3-.2.8-1.8c.1.1.2.2.3.2zm0-2.6-.2.3c-.2-.2-.4-.4-.6-.5l.2-.3c.2.1.4.3.6.5zm1.3 1.5c-.1.1-.1.2-.2.3h1c.1-.1.2-.3.3-.5l.3.1c-.1.1-.1.3-.2.4h1.3v.3h-1.4v.4h1.3v.3h-1.3v.4h1.3v.3h-1.3v.5h1.5v.2h-2.9v.2h-.4v-2.1l-.4.4c-.1-.1-.1-.2-.2-.3.2-.1.4-.3.6-.5.2-.2.3-.4.5-.7l.2.3zm.5-2v1.8h-.4V69h-1.1v-.3h1.1v-.4h-1.1V68h1.1v-.4h-1.1v-.3h1.5zm.2 2.5h-1.1v.4h1.1v-.4zm0 .7h-1.1v.5h1.1v-.5zm0 1.2v-.5h-1.1v.5h1.1zm1.7-4.4v1.8h-.4V69h-1.2v-.3h1.2v-.4h-1.2V68h1.2v-.4h-1.2v-.3h1.6zM409.7 68.3v-1.2h.4v1.2h.5v.4h-.6v.6c.1.1.1.2.2.2l.3.3c-.1.1-.2.2-.2.3l-.3-.3v2.5h-.4v-2.4c-.1.4-.3.7-.5 1-.1-.1-.1-.2-.2-.3.2-.3.3-.6.4-.9.1-.2.2-.5.2-.9h-.6v-.4h.8zm1.9-1-.5.9.2.2.3-.5.3.2-.7 1.1h.4c0-.1-.1-.2-.1-.3l.3-.1c.1.2.3.5.4.7-.1-.5-.1-1.3-.1-2.4h.4v1l.2-.2c.1 0 .1.1.2.1l.3-.8.3.2-.4.8.2.2.3-.5.4.1-.7 1.1h.4c0-.1-.1-.2-.1-.2l.3-.1c.1.2.2.5.3.8l-.4.1c0-.1 0-.1-.1-.2-.4.1-.8.1-1.1.1l-.1-.4h.2l.3-.5c-.2-.2-.4-.4-.7-.5 0 .7.1 1.2.1 1.6v.2h.6c0-.1-.1-.2-.1-.3l.3-.1c.1.1.2.3.2.4h.5v.4h-1.4c0 .2.1.4.2.5 0 .1.1.2.2.3.2-.2.4-.4.5-.6l.3.2c-.1.2-.3.4-.6.6.2.2.3.3.4.3 0 0 .1-.1.2-.5.1.1.2.1.4.2-.1.4-.2.6-.3.6 0 .1-.1.1-.2.1-.2 0-.5-.1-.7-.3l-.2-.2c-.4.3-.8.4-1.2.6 0-.1-.1-.2-.2-.4.4-.1.7-.3 1.1-.5h.1c-.1-.1-.1-.2-.2-.4s-.2-.5-.2-.7h-.7c0 .2-.1.3-.1.4.3.1.5.3.7.5l-.2.3c-.2-.2-.4-.3-.6-.4 0 .1-.1.2-.1.3-.1.3-.3.6-.6.9l-.3-.3c.2-.2.4-.5.5-.8.1-.2.2-.5.3-.8h-.6v-.4h1.7V69.6l-.4.1c0-.1 0-.1-.1-.2-.4.1-.8.1-1.1.1l-.1-.4h.2l.3-.5c-.2-.2-.5-.4-.7-.6l.2-.3c.1.1.2.1.2.2l.4-.9.6.2zM403.2 75.3v.4h2.3v.3h-2.3v.4h1.5v1.9h-2.9v-1.9h1.1V76h-2.4v-.3h2.4v-.4h-2v-1.2h4.2v1.2h-1.9zm-2.1 1.2v2.1h4.4v.3h-4.4v.3h-.4v-2.7h.4zm.1-1.5h.9v-.6h-.9v.6zm.9 1.9h2.2v-.3h-2.2v.3zm0 .3v.3h2.2v-.3h-2.2zm0 .5v.3h2.2v-.3h-2.2zm.4-2.7h1v-.6h-1v.6zm1.3 0h.9v-.6h-.9v.6zM406.7 75.5v-1.4h.4v1.4h.6v.4h-.6v1.7c.2-.1.4-.1.6-.2v.3c.2-.1.3-.3.5-.4.1-.2.3-.3.4-.6h-.9v-.4h3.6v.4H409c-.1.2-.2.3-.2.4h2.3c0 .7 0 1.2-.1 1.5-.1.2-.1.4-.2.5-.1.1-.3.1-.7.1 0-.1 0-.3-.1-.4h.5c.1 0 .1-.1.2-.3 0-.2.1-.6.1-1.1h-.4c-.2.5-.4.8-.7 1.1-.3.3-.6.5-.9.6 0-.1-.1-.2-.2-.3l.9-.6c.2-.2.4-.5.5-.9h-.5c-.2.3-.4.6-.6.8-.3.2-.5.4-.7.5 0-.1-.1-.2-.2-.3.3-.1.5-.3.7-.5.1-.1.3-.3.4-.5h-.5c-.2.2-.4.4-.8.6-.1-.1-.1-.2-.2-.3-.5.2-.9.3-1.4.4l-.1-.4c.2 0 .4-.1.7-.2v-1.8h-.6v-.4h.5zm1.7.4v-1.8h2.4v1.8h-2.4zm.3-1.1h1.7v-.4h-1.7v.4zm0 .4v.4h1.7v-.4h-1.7zM443.5 112.6l-2.1 4.4-.9-.5 2.2-4.4c.3.3.6.5.8.5zm-.5-3-.5.8c-.5-.5-1.1-.9-1.8-1.3l.4-.8c.7.4 1.3.9 1.9 1.3zm.6-3.2-.5.8c-.6-.6-1.2-1-1.8-1.4l.5-.7c.7.3 1.3.7 1.8 1.3zm5.1 1.2c-.1.1-.1.2-.2.3.7.8 1.4 1.5 2.1 2 .8.6 1.7 1.1 2.7 1.6-.3.3-.5.6-.7.9-.7-.3-1.4-.8-2.2-1.4-.8-.6-1.6-1.4-2.5-2.3-.5.7-1.1 1.3-1.6 1.9-.9.8-1.6 1.4-2.2 1.8-.2-.3-.4-.6-.6-.8.8-.5 1.6-1.1 2.3-1.9.7-.7 1.4-1.5 2-2.6l.9.5zm-1.4-2.3c-.8 1.1-1.7 1.9-2.8 2.6-.1-.3-.4-.6-.7-.8 1.1-.6 2-1.4 2.7-2.5l.8.7zm3.8 11.5h-.9v-.7h-3.8v.9h-.9v-5.4h5.7v5.2zm-.9-1.6v-2.8h-3.8v2.8h3.8zm.8-9.3c.4.3.9.6 1.4.7-.2.2-.4.5-.6.8-.6-.3-1.1-.6-1.6-1s-.9-.7-1.2-1l.5-.7c.6.5 1 .9 1.5 1.2zM460.5 113.3v-1.2h1v1.2h4.3v.8h-4.3v1.5h5.5v.8h-12.1v-.8h5.7v-1.5h-4.1v-.8h4zm.9-8.7v1.4h4.9v2.7h-1v.4h-5.1l-1.1 2c1.4-.1 2.9-.2 4.3-.3-.3-.3-.6-.5-.9-.7l.7-.7c1.2.9 2.1 1.7 2.7 2.2l-.7.7-.8-.8c-3.2.3-6 .5-8.3.6l-.2-.9c.7 0 1.4 0 2.1-.1l1.2-2h-2.9v-.4h-.9V106h4.9v-1.4h1.1zm4 3.6v-1.3h-9v1.3h9zM443.2 127.6c-.8-.7-1.3-1.4-1.7-2.1-.5-.8-.7-1.7-.7-2.7 0-1 .2-1.9.7-2.7.4-.6.9-1.3 1.7-2.1l.5.5c-.7.7-1.2 1.3-1.6 1.9-.4.7-.6 1.6-.6 2.4 0 .9.2 1.7.6 2.4.3.6.9 1.2 1.6 1.9l-.5.5zM446.8 126.1v-5.9c-.5.3-1 .5-1.4.6v-.8c.5-.1 1-.3 1.4-.6h.8v6.7h-.8zM453.1 125.7c-.5.4-.9.6-1.5.6-1.2 0-2-.6-2.2-1.9h.9c.2.8.6 1.2 1.4 1.2.4 0 .7-.1 1-.4.3-.2.4-.5.4-.9 0-1-.5-1.5-1.6-1.5h-.8v-.6h.5c1.1 0 1.6-.4 1.6-1.3 0-.3-.1-.6-.3-.9-.2-.2-.5-.4-.8-.4-.7 0-1.1.4-1.2 1.1h-.8c.2-1.1.8-1.7 2-1.7.5 0 1 .2 1.4.5.4.3.6.7.6 1.3 0 .6-.3 1.1-1 1.5.8.4 1.2 1.1 1.2 1.8-.1.7-.4 1.2-.8 1.6zM457 126.1v-5.9c-.5.3-1 .5-1.4.6v-.8c.5-.1 1-.3 1.4-.6h.8v6.7h-.8zM462.2 123c-.4.9-.5 2-.5 3.1h-.8c0-1.2.1-2.2.4-3.1.3-.9.9-1.8 1.7-2.9h-3.4v-.7h4.2v.8c-.7 1-1.3 1.9-1.6 2.8zM466.7 125.5c-.4.7-.9 1.3-1.7 2.1l-.5-.5c.7-.7 1.2-1.3 1.6-1.9.4-.7.6-1.5.6-2.4 0-.9-.2-1.7-.6-2.4-.3-.6-.9-1.2-1.6-1.9l.5-.5c.8.7 1.3 1.4 1.7 2.1.5.8.7 1.7.7 2.7 0 1-.2 1.9-.7 2.7zM431.9 151c-.5.7-1.3 1.2-2.5 1.6-.1-.2-.2-.4-.2-.5 1-.2 1.7-.6 2.1-1.2.5-.6.8-1.4.8-2.4h-3.2v1.6h-.5V148h1.9v-1h.5v1.2h1.9c-.1 1.2-.3 2.1-.8 2.8zM436.1 149.7v2.3c0 .2 0 .4-.1.5-.1.1-.3.1-.7.2 0-.2-.1-.4-.1-.5h.3c.2 0 .2-.1.2-.2v-1.7c-.6.8-1.3 1.4-2.2 1.9-.1-.1-.2-.3-.3-.4 1-.5 1.7-1.2 2.3-2h-2.1v-.4h2.2v-1h.4v1h1.4v.4h-1.3zM438 150v-.5h4.8v.5H438zM446.3 151c-.6.7-1.4 1.2-2.4 1.5-.1-.1-.1-.3-.3-.5.9-.2 1.6-.6 2.1-1.2.5-.5.9-1.2 1.3-2.2h-1.9c-.4.7-.9 1.3-1.5 1.9-.1-.1-.3-.2-.4-.3.5-.4.9-.9 1.2-1.3.2-.4.5-.9.8-1.6l.5.2c-.1.2-.2.5-.4.8h2l.1-.1.3.3c-.4 1-.9 1.9-1.4 2.5zM451.4 148.9v3.6h-.5v-3.2c-.8.6-1.6 1.1-2.3 1.5-.1-.2-.2-.3-.3-.5.7-.3 1.5-.8 2.2-1.4.7-.6 1.3-1.2 1.9-1.9l.4.4c-.5.6-1 1.1-1.4 1.5zM456.3 150.9c-.6.5-1.4 1-2.4 1.5l-.3-.6c1.7-.6 3.1-1.7 4.4-3.3.1.2.2.3.4.4-.8.9-1.5 1.5-2.1 2zm-1.3-2c-.5-.4-.9-.8-1.4-1.1l.3-.4c.5.3 1 .7 1.4 1.1l-.3.4zM461.9 151c-.6.7-1.4 1.2-2.4 1.5-.1-.1-.1-.3-.3-.5.9-.2 1.6-.6 2.1-1.2.5-.5.9-1.2 1.3-2.2h-2c-.4.7-.9 1.3-1.5 1.9-.1-.1-.3-.2-.4-.3.5-.4.9-.9 1.2-1.3.2-.4.5-.9.8-1.6l.5.2c-.1.2-.2.5-.4.8h2l.1-.1.3.3c-.3 1-.7 1.9-1.3 2.5zM467.7 152.1v-.4h-3.1v.4h-.5v-4.3h4.1v4.3h-.5zm0-3.9h-3.1v2.9h3.1v-2.9zM468.8 150v-.5h4.8v.5h-4.8zM477.4 150.6l-.3-.4c.5-.5 1-.9 1.3-1.4l-2.3.4v2.1c0 .3.2.4.6.5h.9c.5 0 1 0 1.4-.1v.5c-.6 0-1.1.1-1.6.1s-.9 0-1.2-.1c-.5-.1-.7-.4-.7-.9v-2.1l-1.5.2-.1-.5 1.5-.2V147h.5v1.6l2.5-.4.1-.1.4.4c-.5 1-1.1 1.6-1.5 2.1zm1.4-2.5c-.2-.2-.4-.4-.7-.6l.2-.3c.3.2.5.4.7.6l-.2.3zm.5-.5c-.2-.2-.4-.4-.7-.6l.2-.3c.3.2.5.4.7.6l-.2.3zM480.5 150.4c-.1-.3-.4-.7-.6-1.1l.4-.2c.2.4.4.7.6 1.2l-.4.1zm2.7.1c-.3.6-.6 1-1 1.4-.4.3-.8.6-1.5.8-.1-.2-.1-.3-.3-.4.5-.2 1-.4 1.3-.6.4-.3.7-.7 1-1.2.2-.4.4-1 .6-1.7l.5.1c-.2.7-.4 1.2-.6 1.6zm-1.5-.5c-.1-.4-.3-.8-.5-1.1l.4-.2c.2.4.4.8.5 1.1l-.4.2zM488 150.5c-.7-.4-1.5-.8-2.5-1.2v3.3h-.5V147h.5v1.8c1 .3 1.9.7 2.8 1.2l-.3.5zM278.2 194.9c-.2.5-.4 1-.7 1.4l-.3-.3c.5-.7.9-1.6 1.1-2.8l.3.2c-.1.6-.3 1.1-.4 1.5zm2.3 1.2c-.3-1-.7-1.9-1.1-2.8l.3-.2c.5.9.9 1.9 1.2 2.8l-.4.2zM283.1 195.5c-.4.4-1 .8-1.6 1.1l-.2-.4c1.1-.4 2.1-1.3 2.9-2.5.1.1.1.2.2.3-.4.6-.9 1.1-1.3 1.5zm-.8-1.6c-.3-.3-.6-.6-.9-.8l.2-.3c.3.2.7.5.9.8l-.2.3zM287.9 194.9c0 .5-.1.9-.1 1.2 0 .1-.1.2-.2.3-.1.1-.3.1-.7.2 0-.1-.1-.2-.1-.4h.3c.1 0 .2-.1.3-.2.1-.1.1-.4.1-.8v-1.1h-1c-.1.6-.2 1.2-.5 1.6-.2.4-.6.8-1 1.1-.1-.1-.1-.2-.2-.3.4-.3.7-.6.9-.9.2-.4.4-.8.4-1.4H285v-.4h1.1v-1h.3v1h1.3l.2 1.1zm0-1.5-.5-.5.1-.2c.2.2.4.3.5.5l-.1.2zm.3-.3-.5-.5.1-.2c.2.2.4.3.5.5l-.1.2zM288.6 194.8v-.3h3.2v.3h-3.2zM293.1 194.9c-.2.5-.4 1-.7 1.4l-.3-.3c.5-.7.9-1.6 1.1-2.8l.3.2c-.1.6-.2 1.1-.4 1.5zm2.3 1.2c-.3-1-.7-1.9-1.1-2.8l.3-.2c.5.9.9 1.9 1.2 2.8l-.4.2zm.3-2.7c-.1.1-.2.2-.3.2-.1 0-.2 0-.3-.1-.1-.1-.1-.2-.1-.3 0-.1 0-.3.1-.3.1-.1.2-.1.3-.1.1 0 .2 0 .3.1.1.1.1.2.1.3 0 0 0 .1-.1.2zm-.1-.5s-.1-.1-.2-.1c-.2 0-.2.1-.2.3 0 .1 0 .1.1.2 0 .1.1.1.2.1s.1 0 .2-.1c0 0 .1-.1.1-.2-.2-.1-.2-.1-.2-.2zM298.2 194v2.7h-.3v-2.4c-.5.5-1.1.9-1.6 1.1 0-.1-.1-.3-.2-.4.5-.2 1-.6 1.5-1.1.5-.4.9-.9 1.3-1.4l.3.3c-.4.5-.7.9-1 1.2zM301.8 195.4c-.4.5-.9.9-1.6 1.2 0-.1-.1-.2-.2-.4.6-.2 1.1-.6 1.5-1 .3-.4.6-1 .8-1.8h-2.6v-.4h2.7l.2.3c-.2 1-.5 1.7-.8 2.1zm1.3-2.4c-.1.1-.2.2-.3.2-.1 0-.2 0-.3-.1-.1-.1-.1-.2-.1-.3 0-.1 0-.3.1-.3.1-.1.2-.1.3-.1.1 0 .2 0 .3.1.1.1.1.2.1.3.1 0 0 .1-.1.2zm-.1-.5s-.1-.1-.2-.1c-.2 0-.2.1-.2.3 0 .1 0 .1.1.2 0 .1.1.1.2.1s.1 0 .2-.1c0 0 .1-.1.1-.2l-.2-.2zM282.7 229.9c-.2.5-.4 1-.7 1.4l-.3-.3c.5-.7.9-1.6 1.1-2.8l.3.2c0 .6-.2 1.1-.4 1.5zm2.4 1.3c-.3-1-.7-1.9-1.1-2.8l.3-.2c.5.9.9 1.9 1.2 2.8l-.4.2zM287.7 230.5c-.4.4-1 .8-1.6 1.1l-.2-.4c1.1-.4 2.1-1.3 2.9-2.5.1.1.1.2.2.3-.5.7-.9 1.2-1.3 1.5zm-.9-1.5c-.3-.3-.6-.6-.9-.8l.2-.3c.3.2.7.5.9.8l-.2.3zM292.5 229.9c0 .5-.1.9-.1 1.2 0 .1-.1.2-.2.3-.1.1-.3.1-.7.2 0-.1-.1-.2-.1-.4h.3c.1 0 .2-.1.3-.2.1-.1.1-.4.1-.8v-1.1h-1c-.1.6-.2 1.2-.5 1.6-.2.4-.6.8-1 1.1-.1-.1-.1-.2-.2-.3.4-.3.7-.6.9-.9.2-.4.4-.8.4-1.4h-1.1v-.4h1.1v-1h.3v1h1.3l.2 1.1zm0-1.4-.5-.5.1-.2c.2.2.4.3.5.5l-.1.2zm.3-.4-.5-.5.1-.2c.2.2.4.3.5.5l-.1.2zM293.1 229.8v-.3h3.2v.3h-3.2zM297.7 229.9c-.2.5-.4 1-.7 1.4l-.3-.3c.5-.7.9-1.6 1.1-2.8l.3.2c-.1.6-.3 1.1-.4 1.5zm2.3 1.3c-.3-1-.7-1.9-1.1-2.8l.3-.2c.5.9.9 1.9 1.2 2.8l-.4.2zm.2-2.7c-.1.1-.2.2-.3.2-.1 0-.2 0-.3-.1-.1-.1-.1-.2-.1-.3 0-.1 0-.3.1-.3.1-.1.2-.1.3-.1.1 0 .2 0 .3.1.1.1.1.2.1.3.1 0 0 .1-.1.2zm-.1-.5s-.1-.1-.2-.1c-.2 0-.2.1-.2.3 0 .1 0 .1.1.2 0 .1.1.1.2.1s.1 0 .2-.1c0 0 .1-.1.1-.2-.1-.1-.1-.2-.2-.2zM302.7 229v2.7h-.3v-2.4c-.5.5-1.1.9-1.6 1.1 0-.1-.1-.3-.2-.4.5-.2 1-.6 1.5-1.1.5-.4.9-.9 1.3-1.4l.3.3c-.3.6-.7.9-1 1.2zM306.3 230.5c-.4.5-.9.9-1.6 1.2 0-.1-.1-.2-.2-.4.6-.2 1.1-.6 1.5-1 .3-.4.6-1 .8-1.8h-2.6v-.4h2.7l.2.3c-.1 1-.5 1.7-.8 2.1zm1.4-2.4c-.1.1-.2.2-.3.2-.1 0-.2 0-.3-.1-.1-.1-.1-.2-.1-.3 0-.1 0-.3.1-.3.1-.1.2-.1.3-.1.1 0 .2 0 .3.1.1.1.1.2.1.3 0 0 0 .1-.1.2zm-.1-.5s-.1-.1-.2-.1c-.2 0-.2.1-.2.3 0 .1 0 .1.1.2 0 .1.1.1.2.1s.1 0 .2-.1c0 0 .1-.1.1-.2-.2-.1-.2-.2-.2-.2zM283.1 203.3c-.1-.1-.2-.2-.4-.3.4-.5.7-1.2 1-1.9l.4.2c-.3.8-.6 1.4-1 2zm2.1-2.9v3.7h-.4v-3.7h-2v-.5h2v-1.4h.4v1.4h2.2v.5h-2.2zm1.8 2.8c-.5-.5-.9-1.2-1.2-1.9l.4-.3c.4.8.8 1.4 1.2 1.9-.1 0-.3.2-.4.3zM287.8 201.5v-.5h4.3v.5h-4.3zM294 201.8c-.2.8-.6 1.5-1.2 2.1-.1-.2-.2-.3-.3-.4.4-.4.8-.8.9-1.4.2-.4.3-1 .3-1.7v-1.2h.4c.1 1.2 0 2.1-.1 2.6zm1.4 2-.3-.4.1-.1v-4.5h.4v4.2c.6-.5 1.2-1.2 1.7-2l.3.3c-.7 1.1-1.5 1.9-2.2 2.5zM279.6 208.2c-.5.7-1.3 1.2-2.1 1.5-.1-.1-.1-.3-.2-.5.8-.2 1.4-.6 1.9-1.2.4-.5.8-1.2 1.2-2.2h-1.7c-.4.7-.8 1.3-1.3 1.9-.1-.1-.2-.2-.4-.3.4-.4.8-.9 1-1.3.2-.4.5-.9.7-1.6l.5.2c-.1.2-.2.5-.3.8h1.8l.1-.1.3.3c-.6 1.1-1 1.9-1.5 2.5zM284.8 209.3v-.4H282v.4h-.4V205h3.6v4.3h-.4zm0-3.8H282v2.9h2.8v-2.9zM285.8 207.3v-.5h4.3v.5h-4.3zM293.6 207.9l-.3-.4c.5-.5.9-.9 1.2-1.4l-2.1.4v2.1c0 .3.2.4.6.5h.8c.5 0 .9 0 1.3-.1v.5c-.5 0-1 .1-1.4.1-.5 0-.8 0-1.1-.1-.4-.1-.6-.4-.6-.9v-2.1l-1.3.2-.1-.5 1.4-.2v-1.7h.4v1.6l2.2-.4.1-.1.4.4c-.6 1-1.1 1.6-1.5 2.1zm1.3-2.5c-.1-.2-.3-.4-.6-.6l.2-.3c.3.2.5.4.6.6l-.2.3zm.4-.5c-.1-.2-.3-.4-.6-.6l.2-.3c.3.2.5.4.6.6l-.2.3zM296.4 207.6c-.1-.3-.3-.7-.6-1.1l.3-.2c.2.4.4.7.6 1.2l-.3.1zm2.5.2c-.2.6-.6 1-.9 1.4-.3.3-.8.6-1.3.8-.1-.2-.1-.3-.2-.4.5-.2.9-.4 1.2-.6.3-.3.6-.7.9-1.2.2-.4.4-1 .5-1.7l.4.1c-.3.7-.4 1.2-.6 1.6zm-1.4-.6c-.1-.4-.3-.8-.4-1.1l.3-.2c.2.4.4.8.5 1.1l-.4.2zM303.2 207.8c-.6-.4-1.4-.8-2.3-1.2v3.3h-.4v-5.6h.4v1.8c.9.3 1.7.7 2.5 1.2l-.2.5zM284.1 220.8c-.5.7-1.3 1.2-2.1 1.5-.1-.1-.1-.3-.2-.5.8-.2 1.4-.6 1.9-1.2.4-.5.8-1.2 1.2-2.2h-1.7c-.4.7-.8 1.3-1.3 1.9-.1-.1-.2-.2-.4-.3.4-.4.8-.9 1-1.3.2-.4.5-.9.7-1.6l.5.2c-.1.2-.2.5-.3.8h1.8l.1-.1.3.3c-.5 1-1 1.9-1.5 2.5zM289.4 221.9v-.4h-2.8v.4h-.4v-4.3h3.6v4.3h-.4zm0-3.9h-2.8v2.9h2.8V218zM290.4 219.8v-.5h4.3v.5h-4.3zM298.1 220.4l-.3-.4c.5-.5.9-.9 1.2-1.4l-2 .4v2.1c0 .3.2.4.6.5h.8c.5 0 .9 0 1.3-.1v.5c-.5 0-1 .1-1.4.1-.5 0-.8 0-1.1-.1-.4-.1-.6-.4-.6-.9V219l-1.3.2-.1-.5 1.4-.2v-1.7h.4v1.6l2.2-.4.1-.1.4.4c-.6 1-1.2 1.7-1.6 2.1zm1.3-2.5c-.1-.2-.3-.4-.6-.6l.2-.3c.3.2.5.4.6.6l-.2.3zm.4-.4c-.1-.2-.3-.4-.6-.6l.2-.3c.3.2.5.4.6.6l-.2.3zM301 220.2c-.1-.3-.3-.7-.6-1.1l.3-.2c.2.4.4.7.6 1.2l-.3.1zm2.4.2c-.2.6-.6 1-.9 1.4-.3.3-.8.6-1.3.8-.1-.2-.1-.3-.2-.4.5-.2.9-.4 1.2-.6.3-.3.6-.7.9-1.2.2-.4.4-1 .5-1.7l.4.1c-.2.6-.4 1.2-.6 1.6zm-1.4-.6c-.1-.4-.3-.8-.4-1.1l.3-.2c.2.4.4.8.5 1.1l-.4.2zM307.8 220.3c-.6-.4-1.4-.8-2.3-1.2v3.3h-.4v-5.6h.4v1.8c.9.3 1.7.7 2.5 1.2l-.2.5zM238.6 51v-.5h.4v.5h2.5v.4H239v.5h2V54h-.8v.5h1.5v.4h-1.5v1c0 .2-.1.3-.2.3-.2.1-.4.1-.7.1 0-.2-.1-.3-.2-.5h.6c.1 0 .1 0 .1-.1v-.9H236v-.4h3.8v-.5h-3v-2.1h1.9v-.5h-2.5V51h2.4zm-.4 4.6-.4.3c-.2-.3-.4-.5-.7-.8l.3-.3.8.8zm-1.1-2.9h1.5v-.5h-1.5v.5zm1.5.3h-1.5v.5h1.5V53zm.5-.3h1.5v-.5h-1.5v.5zm0 .3v.5h1.5V53h-1.5zM247.7 50.8v4.9c0 .2-.1.4-.2.4-.1.1-.4.1-.7.1 0-.2-.1-.3-.2-.5h.5c.1 0 .1 0 .1-.1v-1.5h-1.7v2.1h-.4v-2.1h-1.5c-.1.9-.3 1.6-.8 2.2-.1-.2-.3-.3-.4-.4.5-.6.8-1.4.8-2.5v-2.7h4.5zm-2.5 3v-1h-1.5v1.1h1.5zm0-1.5v-1.1h-1.5v1.1h1.5zm.4 0h1.7v-1.1h-1.7v1.1zm0 1.5h1.7v-1h-1.7v1zM226.5 62c-.7-.4-1.6-.8-2.7-1.2v3.3h-.5v-5.6h.5v1.8c1 .3 2 .7 3 1.2l-.3.5zM230.9 62.8c-.6.5-1.4.9-2.5 1.2 0-.2-.1-.3-.2-.5.9-.2 1.6-.5 2.1-.9.6-.4 1-1.1 1.5-1.9h-4.2v-.5h4.6l.3.3c-.5 1.1-1 1.9-1.6 2.3zm-2.7-3.5v-.5h3.5v.5h-3.5zM236.1 62.4c-.7.5-1.5 1-2.5 1.5l-.3-.6c1.8-.6 3.3-1.7 4.6-3.3.1.2.2.3.4.4-.9.8-1.6 1.5-2.2 2zm-1.4-2.1c-.5-.4-1-.8-1.4-1.1l.3-.4c.5.3 1 .7 1.5 1.1l-.4.4zM242.1 62.4c-.6.7-1.5 1.2-2.5 1.5-.1-.1-.2-.3-.3-.5.9-.2 1.7-.6 2.2-1.2.5-.5 1-1.2 1.4-2.2h-2.1c-.4.7-1 1.3-1.5 1.9-.1-.1-.3-.2-.4-.3.5-.4.9-.9 1.2-1.3.2-.4.5-.9.9-1.6l.5.2c-.1.2-.2.5-.4.8h2.1l.1-.1.3.3c-.4 1.1-.9 1.9-1.5 2.5zM245.9 61.7c-.2.8-.7 1.5-1.4 2.1-.1-.2-.2-.3-.3-.4.5-.4.9-.8 1.1-1.4.2-.4.3-1 .3-1.7v-1.2h.5c0 1.2-.1 2.1-.2 2.6zm1.7 2-.4-.4.1-.1v-4.5h.5v4.2c.7-.5 1.4-1.2 2-2 .1.1.2.2.4.3-.9 1.1-1.8 1.9-2.6 2.5zM250.6 61.5V61h5.1v.5h-5.1zM261 63.7c-.1-.2-.2-.4-.4-.7-2 .3-3.4.5-4.3.6l-.1-.6h.7c.6-1.2 1.2-2.6 1.7-4.3l.6.2c-.8 1.9-1.4 3.2-1.8 4 .9-.1 1.9-.2 3-.3-.3-.5-.7-1.1-1.1-1.6l.4-.3c.8 1 1.4 1.9 1.8 2.7l-.5.3zM313.4 157.6c-.2-.2-.5-.4-.8-.6.8-.9 1.5-2.1 2.2-3.4l.8.4c-.8 1.4-1.5 2.6-2.2 3.6zm4.2-5.1v6.5h-.8v-6.5h-4.2v-.8h4.2v-2.5h.8v2.5h4.5v.8h-4.5zm3.9 4.9c-.9-.9-1.8-2.1-2.5-3.4l.8-.5c.8 1.3 1.6 2.4 2.5 3.3-.3.2-.6.4-.8.6zM323.1 154.5v-.8h8.9v.8h-8.9zM335.8 155c-.4 1.4-1.2 2.7-2.4 3.7-.2-.3-.4-.5-.6-.8.9-.7 1.6-1.4 2-2.4.3-.8.5-1.8.6-3v-2.1h.9c-.1 2.1-.2 3.6-.5 4.6zm2.9 3.4-.6-.7.1-.1v-7.9h.8v7.4c1.2-.9 2.4-2 3.5-3.5.2.2.4.4.7.6-1.5 1.8-3 3.2-4.5 4.2zM289 79.9v-1.2h.4v1.2h.6v.4h-.6v1c.2-.1.4-.1.7-.2v.4c-.2.1-.5.1-.7.2v1.7c0 .1-.1.2-.2.3-.1.1-.3.1-.6.1 0-.1 0-.3-.1-.4h.5c.1 0 .1 0 .1-.1v-1.5c-.3.1-.6.2-.8.2l-.1-.4c.3-.1.6-.1.9-.2v-1.1h-.9v-.4h.8zm4-.8c-.8.3-1.5.4-2.1.5v.9h2.3v.4h-.7v2.9h-.4v-2.9h-1.2v.2c0 .5-.1.9-.2 1.3-.1.5-.3.9-.6 1.3-.1-.1-.2-.2-.3-.2.3-.4.4-.7.6-1.1.1-.4.2-.8.2-1.2v-1.9l.3.1c.7-.1 1.4-.2 2-.5l.1.2zM296.6 78.8v1.8h1.8v.4h-1.8v2.3h2.3v.4h-5v-.4h2.2v-4.5h.5zM304.5 79.1v.4h-2.2v1.1h2v.4h-1.9c.1.5.4.9.7 1.3.4.5 1 .8 1.6 1-.1.1-.2.2-.3.4-.7-.3-1.2-.7-1.6-1.2-.3-.3-.5-.6-.6-1-.1.4-.2.7-.4 1-.4.5-1 1-1.9 1.3-.1-.2-.1-.3-.2-.4 1-.4 1.6-.8 1.9-1.4.1-.3.2-.6.3-1H300v-.3h1.8v-1.2h-2.1v-.4h4.8zM306.7 79.9v-1.1h.4v1.1h1.5v-1.2h.4v1.2h1.1v.4H309v1.3h1.5v.4H309v1.9h-.4V82h-1.5c-.1.3-.1.6-.3.9-.2.4-.6.7-1.1 1l-.3-.3c.5-.2.9-.5 1.1-.9.1-.2.2-.4.2-.7h-1.4v-.4h1.4v-1.3h-1.1v-.4h1.1zm1.9.3h-1.5v1.3h1.5v-1.3zM239.4 83.9v-1.8h.5v1.8h.9v.5h-.9v.7l.4.4c.1.1.3.2.5.4-.1.2-.2.3-.3.5-.2-.2-.4-.3-.5-.4 0 0-.1 0-.1-.1v3.7h-.5v-3.7c-.1.3-.2.5-.3.8-.2.4-.4.7-.5.8-.1-.2-.2-.4-.3-.5.3-.4.5-.7.7-1.1.2-.3.3-.7.5-1.3h-.9v-.5h.8zm3.5-1.4v6.1c0 .2 0 .3-.1.4-.1.1-.4.2-.8.2 0-.2-.1-.4-.2-.5h.4c.1 0 .2 0 .2-.1v-1.8h-.8c0 .3-.1.5-.1.8-.1.7-.3 1.3-.6 1.8-.1-.2-.2-.4-.4-.5.3-.5.5-1 .6-1.6.1-.5.1-1.2.1-1.9v-2.8h1.7zm-.5 3.8V85h-.8v1.4h.8zm0-1.9V83h-.8v1.4h.8zm3-1.9v6.3c0 .2 0 .3-.1.4-.1.1-.4.1-.9.2 0-.2-.1-.4-.2-.5h.4c.2 0 .2 0 .2-.1v-2h-.8c0 .4-.1.7-.1 1-.1.7-.3 1.2-.5 1.7-.1-.2-.2-.4-.4-.5.2-.4.3-1 .4-1.5 0-.5.1-1.1.1-1.8v-3.1h1.9zm-.5 3.8V85h-.9v1.4h.9zm0-1.9V83h-.9v1.4h.9zM247.7 115.3l.2 2.1h-.5l-.2-2.1-2.4.2-.1-.5 2.4-.2-.1-1.2-1.8.2v-.5l1.8-.2-.1-1.3h.5l.1 1.3 1.8-.2v.5l-1.8.2.1 1.2 2.4-.2.1.5-2.4.2zM251.4 115.2c-.2-.3-.4-.7-.7-1.1l.4-.2c.2.4.5.7.7 1.2l-.4.1zm2.9.2c-.3.6-.7 1-1.1 1.4-.4.3-.9.6-1.5.8-.1-.2-.2-.3-.3-.4.6-.2 1-.4 1.4-.6.4-.3.7-.7 1-1.2.2-.4.4-1 .6-1.7l.5.1c-.2.7-.4 1.2-.6 1.6zm-1.7-.6c-.1-.4-.3-.8-.5-1.1l.4-.2c.2.4.4.8.6 1.1l-.5.2zM258.6 114.4c-.1.9-.2 1.5-.5 1.9-.3.4-.9.8-1.7 1.1-.1-.1-.2-.3-.3-.5.7-.2 1.2-.5 1.5-.8.3-.4.5-1 .5-1.8h-2.6v-.5h2.6v-1.2c-.8.1-1.4.2-1.9.3 0-.2-.1-.3-.2-.4 1.4-.1 2.7-.4 3.9-.7l.2.4-1.5.3v1.2h2.5v.5h-2.5zM264.6 115.8c-.7.5-1.5 1-2.5 1.5l-.3-.6c1.8-.6 3.3-1.7 4.6-3.3.1.2.2.3.4.4-.8.8-1.5 1.5-2.2 2zm-1.3-2.1c-.5-.4-1-.8-1.4-1.1l.3-.4c.5.3 1 .7 1.5 1.1l-.4.4zM244.2 121.5c-.3.7-.7 1.3-1.1 1.8-.1-.2-.3-.3-.4-.4.8-.9 1.4-2.1 1.8-3.7l.5.2c-.3.9-.6 1.6-.8 2.1zm3.6 1.7c-.4-1.3-1-2.5-1.8-3.8l.4-.3c.8 1.2 1.4 2.5 1.9 3.8l-.5.3zm.4-3.6c-.1.1-.3.2-.4.2-.2 0-.3-.1-.5-.2-.1-.1-.2-.3-.2-.5s.1-.3.2-.5c.1-.1.3-.2.5-.2s.3.1.4.2c.1.1.2.3.2.4 0 .3-.1.5-.2.6zm-.2-.7c-.1-.1-.2-.1-.2-.1-.2 0-.4.1-.4.3 0 .1 0 .2.1.3.1.1.2.1.3.1.1 0 .2 0 .2-.1.1-.1.1-.2.1-.3 0 0 0-.1-.1-.2zM251.7 122.3c-.7.5-1.5 1-2.5 1.5l-.3-.6c1.8-.6 3.3-1.7 4.6-3.3.1.2.2.3.4.4-.8.8-1.5 1.5-2.2 2zm-1.3-2c-.5-.4-1-.8-1.4-1.1l.3-.4c.5.3 1 .7 1.5 1.1l-.4.4zM258.3 121.9c-.7-.4-1.6-.8-2.7-1.2v3.3h-.5v-5.6h.5v1.8c1 .3 2 .7 3 1.2l-.3.5zM259.7 121.9v-3.1h.5v3.1h-.5zm3.3-1.7c0 .8-.1 1.4-.2 1.8-.1.5-.4.9-.7 1.2-.3.3-.9.6-1.6.8-.1-.2-.2-.3-.3-.5.9-.2 1.6-.6 1.8-1.1.3-.4.4-1.1.4-2.2v-1.7h.5l.1 1.7zM263.9 121.4v-.5h5.1v.5h-5.1zM252 130.7c-.5-.5-.8-.9-1-1.3-.3-.5-.4-1.1-.4-1.7 0-.6.1-1.2.4-1.7.2-.4.6-.8 1-1.3l.3.3c-.4.4-.8.8-1 1.2-.3.4-.4.9-.4 1.5 0 .5.1 1 .4 1.5.2.4.5.7 1 1.2l-.3.3zM253.6 126.2v-1.4h.4v1.4h.7v.4h-.7v.5l.3.3c.1.1.2.2.4.3-.1.1-.2.3-.3.4-.2-.1-.3-.2-.4-.3 0 0-.1 0-.1-.1v2.9h-.4v-3l-.3.6c-.2.3-.3.5-.4.6-.1-.2-.1-.3-.3-.4.2-.3.4-.6.5-.9.1-.3.3-.6.4-1h-.7v-.4h.9zm2.7-1.1v4.9c0 .1 0 .2-.1.3-.1.1-.3.1-.7.2 0-.2-.1-.3-.1-.4h.3c.1 0 .2 0 .2-.1v-1.4h-.7c0 .2-.1.4-.1.6-.1.6-.3 1-.5 1.5-.1-.2-.2-.3-.3-.4.2-.4.4-.8.5-1.3.1-.4.1-.9.1-1.5v-2.2h1.4zm-.4 3V127h-.6v1.1h.6zm0-1.5v-1.1h-.6v1.1h.6zm2.5-1.5v5c0 .1 0 .2-.1.3-.1.1-.3.1-.7.1 0-.2-.1-.3-.1-.4h.3c.1 0 .2 0 .2-.1v-1.6h-.7c0 .3 0 .6-.1.8-.1.5-.2 1-.4 1.4-.1-.2-.2-.3-.3-.4l.3-1.2c0-.4.1-.9.1-1.4v-2.5h1.5zm-.4 3V127h-.7v1.1h.7zm0-1.5v-1.1h-.7v1.1h.7zM260.5 129.5c-.2.4-.6.8-1 1.3l-.3-.3c.4-.4.8-.8 1-1.2.2-.4.4-.9.4-1.5 0-.5-.1-1-.4-1.5-.2-.4-.5-.7-1-1.2l.3-.3c.5.5.8.9 1 1.3.3.5.4 1.1.4 1.7 0 .6-.1 1.1-.4 1.7zM279.7 114.5c-.4-.4-.7-.8-.9-1.1-.3-.4-.4-.9-.4-1.5 0-.5.1-1 .4-1.5.2-.3.5-.7.9-1.1l.3.3c-.4.4-.7.7-.8 1-.2.4-.3.8-.3 1.3s.1.9.3 1.3c.2.3.5.7.8 1l-.3.3zM282.6 110.8v-1.5h.4v1.5h2.4v.4h-2.2c.1.6.4 1.1.7 1.6.4.6.9 1 1.5 1.3-.1.1-.2.2-.3.4-.6-.4-1.2-.9-1.6-1.5-.3-.4-.5-.9-.6-1.4-.1.4-.2.7-.3 1-.3.6-.9 1.3-1.9 2-.1-.2-.2-.3-.3-.4.8-.4 1.4-1 1.8-1.6.2-.4.4-.9.5-1.4h-2.1v-.4h2zM288 109.8v.4h-.7v1.1h.6v.4h-.6v1.3c.2-.1.5-.1.7-.2v.4c-.6.2-1.2.4-1.8.5l-.1-.4c.2-.1.5-.1.8-.2v-1.4h-.7v-.4h.7v-1.1h-.7v-.4h1.8zm1.7 2.3v.7h1.3v.4h-1.3v.8h1.5v.4h-3.5v-.4h1.6v-.8h-1.2v-.4h1.2v-.7h-1.1v-2.6h2.7v2.6h-1.2zm-1.1-1.4h.8v-.7h-.8v.7zm.7.3h-.8v.7h.8v-.7zm.4-.3h.8v-.7h-.8v.7zm0 .3v.7h.8v-.7h-.8zM296.8 109.7v.4h-2.6c-.3.7-.5 1.2-.8 1.6h2.9v2.8h-.3v-.4h-2.5v.4h-.4v-2.3c-.3.3-.6.7-1 1l-.3-.3c.6-.4 1-.8 1.3-1.4.3-.4.5-.9.7-1.5h-1.7v-.4h4.7zm-.8 4V112h-2.5v1.7h2.5zM299.6 110.4v.3h-2v-.3h2zm-.3-.8v.3h-1.5v-.3h1.5zm0 1.5v.3h-1.5v-.3h1.5zm0 .8v.3h-1.5v-.3h1.5zm0 .8v1.5h-1.2v.3h-.4v-1.8h1.6zm-.3 1.1v-.8h-.8v.8h.8zm3.5-4.2v4.4c0 .2 0 .3-.1.3s-.3.1-.5.1c0-.1-.1-.3-.1-.4h.4s.1 0 .1-.1v-4.1h-1.9v2.2c0 .9-.2 1.7-.5 2.3-.1-.1-.2-.3-.3-.3.3-.5.4-1.2.4-2v-2.5h2.5zm-1.5 1.1v-.6h.3v.6h.5v.3h-.5v.6h.6v.3h-1.6v-.3h.6v-.6h-.5v-.3h.6zm.8 1.6v1.3h-.9v.4h-.4v-1.7h1.3zm-.4 1v-.7h-.6v.7h.6zM306.2 112.9c-.6.6-1.3 1.1-2.3 1.5-.1-.1-.1-.2-.3-.4.9-.3 1.6-.8 2.2-1.4-.3-.3-.7-.6-1-.8l.2-.3c.4.3.8.5 1.1.8.3-.4.6-.9.9-1.5h-1.8c-.5.7-1 1.2-1.7 1.6-.1-.1-.2-.3-.3-.4.6-.4 1-.7 1.2-1 .3-.3.5-.8.8-1.4l.5.2-.3.6h1.8l.3.3c-.3.9-.8 1.7-1.3 2.2zM311.1 111.2v3.2h-.4v-2.8c-.7.6-1.5 1-2.1 1.3-.1-.2-.1-.3-.2-.4.7-.3 1.4-.7 2.1-1.2.6-.5 1.2-1.1 1.7-1.7l.4.3c-.6.5-1.1.9-1.5 1.3zM314.6 112.3c-.2.7-.6 1.3-1.2 1.9-.1-.1-.2-.3-.3-.4.5-.3.8-.7 1-1.2.2-.4.3-.9.3-1.5v-1h.4c0 1-.1 1.8-.2 2.2zm1.4 1.8-.3-.3.1-.1v-4h.4v3.7c.6-.4 1.2-1 1.8-1.8l.3.3c-.8.9-1.5 1.7-2.3 2.2zM319.8 113.4c-.2.4-.5.7-.9 1.1l-.3-.3c.4-.4.7-.7.8-1 .2-.4.3-.8.3-1.3s-.1-.9-.3-1.3c-.2-.3-.5-.7-.8-1l.3-.3c.4.4.7.8.9 1.1.3.4.4.9.4 1.5s-.1 1.1-.4 1.5zM325.2 197.8V194h.4v3.5h2.4v.4h-2.8zM331 193.7v.3h-.5v.6h.6v.3h-.6v1h-.3v-1h-.6c0 .2-.1.4-.2.6-.1.3-.4.5-.7.7-.1-.1-.1-.2-.2-.3.3-.1.5-.3.6-.6.1-.1.1-.2.1-.4h-.6v-.3h.7v-.6h-.5v-.3h2.2zm-.4 2.8v-.4h.3v.4h1.5v.3H331v.6h2v.3h-4.3v-.3h2v-.6h-1.4v-.3h1.3zm-.4-2.4h-.6v.6h.6v-.6zm1.6-.3v1.8h-.3v-1.8h.3zm.9-.2v2.3c0 .1-.1.2-.2.2-.1.1-.3.1-.5.1 0-.1 0-.2-.1-.4h.4s.1 0 .1-.1v-2.2h.3zM337.5 194c-.4.1-.9.2-1.6.2v.7h1.7v.3h-1.7v.8h2v.3h-2v1.2c0 .1-.1.2-.2.3-.1.1-.4.1-.6.1 0-.1 0-.3-.1-.4h.5c.1 0 .1 0 .1-.1v-1.1h-1.9v-.3h1.9v-.8h-1.7v-.3h1.7v-.7c-.5 0-1.1.1-1.5.1 0-.2-.1-.3-.2-.3.7 0 1.3 0 1.9-.1.5-.1 1.1-.1 1.6-.2l.1.3zM339 194.5v-1h.3v1h.4v.3h-.4v.7c.1 0 .3-.1.4-.2v.3c-.1.1-.3.1-.4.2v1.7c0 .1-.1.2-.2.2s-.3.1-.6.1c0-.1 0-.2-.1-.3h.5c.1 0 .1 0 .1-.1V196c-.2.1-.4.2-.6.2l-.1-.3c.2-.1.4-.1.7-.2v-.9h-.6v-.3h.6zm2.1-.8v1.8l.3.1-.1.4h1.1v2h-.3v-.2h-1.6v.2h-.3v-2h.9l.1-.4c-.1 0-.2.1-.5.1 0-.1 0-.3-.1-.3h.2c.1 0 .1 0 .1-.1V194h-1v-.3h1.2zm-.4 1.4c-.3.1-.6.2-.8.3l-.1-.3c.2-.1.5-.2.9-.3v.3zm-.2-.6-.2.2-.4-.4.1-.2c.2.2.4.3.5.4zm1.6 2.2v-.4h-1.6v.4h1.6zm0 .8v-.5h-1.6v.5h1.6zm.5-3.8v1.7c0 .1 0 .2-.1.2s-.2.1-.5.1c0-.1 0-.3-.1-.3H342.2V194h-1v-.3h1.4zm-.6.8-.2.2c-.1-.1-.3-.2-.5-.3l.1-.2c.3.1.4.2.6.3zm.1.6c-.3.1-.5.2-.7.3l-.1-.3c.2-.1.5-.2.8-.3v.3zM196.1 319.9v.9h2.4v.4h-4.6v1.5c0 1.3-.3 2.3-.9 3.2-.1-.2-.2-.3-.4-.4.6-.7.8-1.6.8-2.8v-1.9h2.1v-.9h.6zm-.1 2.5v-1h.4v1h2v.4h-1.8c.2.4.4.7.7 1 .3.4.7.7 1.3 1-.2.1-.3.3-.3.4-.5-.3-.9-.7-1.3-1.1l-.6-.9v2.6h-.4v-2.5c-.2.3-.5.7-.7.9-.4.4-.8.8-1.2 1.1-.1-.1-.2-.3-.3-.4.4-.2.7-.5 1.1-.9.3-.3.6-.7.9-1.2h-1.5v-.4h1.7zM201 320.5v4h-1v.7h-.4v-4.6h1.4zm-.4 1.8v-1.4h-.6v1.4h.6zm0 1.8v-1.4h-.6v1.4h.6zm4.2-3.3-.5 1h.7v.4h-2c0 .2-.1.4-.1.5h2.3v.4h-2.3c-.1.2-.1.3-.2.5H204.4l.2.3c-.2.4-.5.8-.8 1.1.4.2.9.4 1.5.5-.1.2-.2.3-.3.4-.6-.1-1.1-.3-1.6-.6-.4.3-.9.5-1.6.6 0-.2-.1-.3-.2-.4.6-.1 1.1-.3 1.4-.5-.3-.2-.5-.5-.7-.7-.3.5-.7.9-1.2 1.3l-.3-.3c.6-.4 1-.8 1.3-1.3.1-.2.2-.4.3-.7h-1.1v-.4h1.2c0-.2.1-.4.1-.5h-1.2v-.4h2.5l.5-1.1.4-.1zm.1-.4c-1.2.2-2.3.4-3.3.4 0-.1-.1-.2-.2-.4 1.1-.1 2.2-.2 3.2-.4l.3.4zm-2.5 1.1-.4.1-.3-.6.3-.1c.2.2.3.4.4.6zm.9 3.1c.3-.2.5-.5.6-.8h-1.4c.3.4.5.6.8.8zm.1-3.1-.4.1c-.1-.2-.1-.4-.2-.7l.3-.1c.2.2.3.4.3.7zM206.8 324.1c-.1.6-.3 1.1-.6 1.6-.1-.2-.2-.3-.3-.4.3-.4.4-.9.5-1.4.1-.5.1-1.1.1-1.8V321h4.6v1.3h-1.8v.7h2.3v.4H209c0 .2-.1.4-.1.6h2.2l-.1 1.1c0 .3-.1.5-.3.6-.2.1-.5.1-.9.1 0-.2 0-.3-.1-.4h.8s.1-.1.1-.2l.1-.7h-1.9c-.1.1-.1.3-.2.4-.3.4-.8.8-1.5 1-.1-.1-.2-.3-.3-.4.7-.2 1.2-.5 1.5-.9.2-.3.3-.7.4-1.1h-1.4v-.5h1.7v-.7h-2c-.1.7-.1 1.3-.2 1.8zm4.8-3.9v.4H206v-.4h5.6zm-4.7 1.7h3.7v-.6h-3.7v.6zM266.9 276.6h-2v3.5h-.4v-5.8h2.4v2.3zm-.4-1.9H265v.6h1.5v-.6zm-1.5 1.6h1.5v-.6H265v.6zm3.5 3.3h-2.1v.3h-.4v-2.7h2.5v2.4zm-.4-2.1h-1.6v.7h1.6v-.7zm-1.7 1.7h1.6v-.7h-1.6v.7zm3.6-4.8v5.2c0 .6-.3.6-1.4.6 0-.1-.1-.3-.2-.5h.6c.5 0 .5 0 .5-.2v-2.9h-2v-2.3h2.5zm-.4.3H268v.6h1.6v-.6zm-1.6 1.6h1.6v-.6H268v.6zM266.4 284l-.8.2v2c0 .5-.3.6-1.1.6 0-.1-.1-.3-.1-.4h.4c.5 0 .5 0 .5-.1v-1.8c-.3.1-.5.2-.8.2 0 .1 0 .1-.1.1l-.2-.5c.3-.1.6-.2 1-.2v-1.5h-.9v-.6h.9v-1.4h.6c0 .1 0 .1-.1.1v1.2h.8v.4h-.8v1.4c.3-.1.5-.1.8-.2l-.1.5zm3.9-.5h-2.1l-.1.1-.3.6h2.4v.4h-.8c-.1.5-.4.9-.7 1.2.5.2 1 .5 1.3.7l-.3.3c-.3-.2-.8-.5-1.4-.7-.5.3-1.2.6-2.2.7 0-.1-.1-.3-.2-.4.8-.1 1.4-.3 1.9-.5-.3-.1-.6-.2-.8-.3l-.1.2-.4-.1c.2-.3.3-.7.5-1.1h-.9v-.4h1.1c.1-.2.2-.5.3-.7H266v-.4h4.2v.4zm-.3-2.1v.4h-3.6v-.4h1.5v-.7h.6s0 .1-.1.1v.6h1.6zm-2.5.5c.1.4.2.8.3 1.1l-.4.1c0-.3-.1-.7-.2-1.1l.3-.1zm.1 2.7c-.1.2-.2.5-.3.7.3.1.7.2 1 .3.3-.3.5-.6.7-1h-1.4zm2-2.7-.1.1c-.1.3-.3.8-.4 1.1l-.4-.1c.1-.3.3-.8.4-1.2l.5.1zM265.5 292c-.2.5-.5 1-.8 1.3l-.4-.2c.3-.3.6-.8.8-1.3l.4.2zm-.5-.9v.4h-.4v-4h1.9v3.6H265zm1.1-3.2H265v1.2h1.1v-1.2zm-1.1 2.8h1.1v-1.2H265v1.2zm1.4 2.6c0-.3-.1-.8-.1-1.2h.4c.1.4.2.9.2 1.2h-.5zm3.7-5.8v.1c-.1 1.7-.2 1.7-.9 1.7h-.5c0-.1-.1-.3-.1-.4h.7c.1 0 .2 0 .2-.1.1-.1.1-.4.2-1h-1.2c-.1.8-.5 1.4-1.5 1.7 0-.1-.2-.3-.2-.3.9-.2 1.2-.7 1.4-1.3h-1.1v-.4h3zm-.2 2.2v1.8h-2.8v-1.8h2.8zm-.5 1.4V290h-2v1.1h2zm-1.4 2.2c-.1-.3-.2-.8-.4-1.2l.4-.1c.2.4.4.9.4 1.2l-.4.1zm1.9 0c-.2-.4-.6-.9-.9-1.3l.4-.1c.3.4.7 1 .9 1.3l-.4.1zM266.6 298.1h-1.7v.6h-.4v-4.6h2.2v4zm-.4-3.5h-1.3v1.3h1.3v-1.3zm-1.3 3.1h1.3v-1.4h-1.3v1.4zm5.2-3.6v5.2c0 .3-.1.4-.3.5-.2.1-.6.1-1.1.1 0-.1-.1-.3-.2-.4h.6c.5 0 .5 0 .5-.2v-1.5h-2c-.2.8-.5 1.6-1.2 2.2l-.3-.3c1.1-.9 1.2-2.1 1.2-3.2v-2.4h2.8zm-2.4 2.3v.9h2v-1.2h-1.9v.3zm2-1.9h-1.9v1.2h1.9v-1.2zM164.7 303.1h-2.9v4.8c0 1-.6 1-2.5 1 0-.2-.1-.5-.2-.6h1.6c.2 0 .4-.2.3-.4v-4.2c-1 1.5-2.6 3-4.2 4-.1-.2-.3-.4-.5-.5 1.6-.9 3.3-2.4 4.3-3.9h-3.9v-.7h4.3v-2.1h.9c0 .1-.1.2-.2.2v1.9h3v.5zM166 304.1h8.2v.7h-7.8c-.1.1-.2.2-.3.2l-.1-.9zM175.7 301.5H182.1l.7.5-.1.1c-.8 3.7-2.5 5.6-5.5 6.8-.1-.2-.3-.4-.4-.6 2.9-1.1 4.5-2.9 5.2-6.1h-6.1v-.7zm7.5-1.8c.6 0 1.1.5 1.1 1.1 0 .6-.5 1.1-1.1 1.1-.6 0-1.1-.5-1.1-1.1 0-.6.5-1.1 1.1-1.1zm.7 1.1c0-.4-.3-.8-.7-.8-.4 0-.8.3-.8.8 0 .4.3.8.8.8.4 0 .7-.4.7-.8zM185.3 301.1c1 .3 2.2.8 2.9 1.3l-.4.6c-.7-.5-1.9-1-2.9-1.4l.4-.5zm0 6.8c3.5-1.1 5.8-3 7-5.8.2.2.4.3.6.4-1.2 2.7-3.6 4.8-7 5.9 0 .1-.1.2-.1.2l-.5-.7zM193.7 305.2c.7-.8 2.3-2.5 2.9-3.1.3-.3.5-.4.8-.4.3 0 .5.1.8.4 1.3 1.2 3.3 3.4 4.8 5.4l-.6.5c-1.4-1.9-3.5-4.3-4.6-5.3-.2-.2-.3-.2-.4-.2-.1 0-.2.1-.4.2-.5.5-1.9 2.2-2.6 2.9v.1c0 .1 0 .2-.1.2l-.6-.7zm7.5-5c.6 0 1.1.5 1.1 1.1 0 .6-.5 1.1-1.1 1.1-.6 0-1.1-.5-1.1-1.1 0-.6.5-1.1 1.1-1.1zm.7 1.1c0-.4-.3-.8-.8-.8-.4 0-.8.4-.8.8s.4.8.8.8c.5 0 .8-.4.8-.8zM204.3 301.1c1 .3 2.2.8 2.9 1.3l-.4.6c-.7-.5-1.9-1-2.9-1.4l.4-.5zm-.1 6.8c3.5-1.1 5.8-3 7-5.8.2.2.4.3.6.4-1.2 2.7-3.6 4.8-7 5.9 0 .1-.1.2-.1.2l-.5-.7zM218.7 305.5c-1-.5-2.4-1.2-3.5-1.6v4.9h-.7v-8.5l1 .1c0 .1-.1.2-.3.2v2.9l.1-.2c1.2.4 2.7 1.1 3.7 1.6l-.3.6zM223.8 301.8c0 .1-.1.1-.3.2-.4 2.3-1.2 4.8-2.4 6.3-.2-.1-.5-.2-.7-.3 1.2-1.4 1.9-3.8 2.3-6.4l1.1.2zm3.1-.3c1.1 1.8 2.3 4.7 2.7 6.5l-.7.3c-.4-1.7-1.6-4.7-2.6-6.5l.6-.3zM234.1 300.3l1 .1c0 .1-.1.2-.3.2v1.5h2.6l.1-.1.6.3-.1.1c-.5 3.4-1.9 5.4-5 6.5-.1-.2-.3-.4-.5-.6 2.9-1 4.3-2.8 4.6-5.6h-5.6v2.4h-.5V302h3.1v-1.7zM246 301.3l-.1.1c-.5 1.2-1.2 2.3-2 3.4 1.1.9 2.7 2.3 3.6 3.3l-.6.5c-.9-1-2.4-2.5-3.5-3.3-.9 1.1-2.4 2.5-3.8 3.3-.1-.1-.3-.4-.5-.5 2.7-1.5 4.9-4.3 5.8-6.4H240v-.7h5.3l.7.3zM176.5 319.5c-.7-.9-1.5-2.3-1.5-4.5s.7-3.6 1.5-4.6h.7c-.8 1.1-1.4 2.5-1.4 4.6 0 2 .6 3.4 1.4 4.5h-.7zM184.3 317.9h4.5v.7h-8.9v-.7h3.8V310l.9.1c0 .1-.1.1-.2.1v2.9h3.8v.7h-3.8v4.1zM194.7 313.7c.2-.5.5-1.3.6-1.9l.8.2c0 .1-.1.1-.2.1-.1.5-.4 1.2-.6 1.7h1.5v.6h-5.2v-.6h3.5l-.4-.1zm1.9-2.7v.6h-4.8v-.6h2v-1.2h.8c0 .1-.1.1-.2.1v1h2.2zm-4.4 8v-3.7h3.9v3.7h-.6v-.5h-2.6v.6h-.7zm.8-7.1c.2.5.4 1.2.5 1.6l-.6.1c0-.4-.2-1.1-.4-1.6l.5-.1zm2.5 4h-2.6v2h2.6v-2zm4.8-5.5.4.2s0 .1-.1.1c-.4.8-.9 1.9-1.4 2.9 1.1 1 1.5 1.7 1.5 2.4 0 1.5-1.1 1.5-1.7 1.5h-.5c0-.2-.1-.5-.2-.6h.6c.7 0 1.1 0 1.1-.9 0-.6-.5-1.3-1.6-2.3.5-1 .9-1.9 1.2-2.7h-2v7.9h-.6v-8.5h3.3zM209.7 312.3v1.7c0 .8.4 3.4 2.9 4.5-.1.2-.3.4-.4.6-1.9-1-2.6-2.9-2.8-3.8-.1.9-1 2.8-3.2 3.8-.1-.1-.3-.4-.4-.6 2.8-1.2 3.3-3.7 3.3-4.5v-1.7h-1.2c-.3.9-.6 1.7-1 2.3-.1-.1-.3-.2-.5-.3v1.9h-2.1v1h-.6v-6.4h2.7v3.3c.6-1 1.1-2.6 1.3-4.2l.8.2c0 .1-.1.1-.2.1-.1.5-.2 1-.3 1.4h4.5c-.3 1.1-.5 2-.8 2.8l-.6-.2c.2-.5.4-1.3.6-2h-2zm-3.9 3.3v-4.2h-1.5v4.2h1.5zM223.2 313.8l.4.1s0 .1-.1.1c-.2 1.4-.7 2.4-1.3 3.3.6.5 1.3.9 2.2 1.1-.1.1-.3.4-.4.6-.8-.3-1.6-.7-2.2-1.2-.5.6-1.2 1-1.9 1.3-.1-.2-.2-.4-.4-.6.7-.2 1.3-.6 1.8-1.2-.5-.6-.9-1.2-1.2-2-.3 1.5-.9 2.7-1.7 3.6-.1-.1-.3-.4-.5-.5 1.2-1.3 1.7-3.5 2-6.2h-1.4v.2h-1.1v2.1l1.1-.3.1.6-1.2.4v3c0 .7-.3.8-1.6.8 0-.2-.1-.4-.2-.6h1c.1 0 .2 0 .2-.2v-2.7c-.5.2-.9.3-1.2.4 0 .1 0 .1-.1.2l-.3-.8c.4-.1 1-.3 1.6-.5v-2.3h-1.5v-.6h1.5v-2h.8c0 .1-.1.1-.2.1v1.8h1v-.2h1.6c0-.6.1-1.2.1-1.8l.8.1c0 .1-.1.1-.2.1 0 .5-.1 1.1-.1 1.6h3.7v.6h-3.7c0 .5-.1 1-.2 1.5h2.7l.1.1zm-3 1 .2-.1c.3.8.7 1.5 1.3 2.1.5-.6.9-1.5 1.1-2.4h-2.6v.4zM227.5 310.5c.7.9 1.4 2.3 1.4 4.5s-.7 3.6-1.4 4.5h-.7c.8-1.1 1.4-2.5 1.4-4.5s-.6-3.4-1.4-4.5h.7zM136.9 276.6h-2v3.5h-.4v-5.8h2.4v2.3zm-.4-1.9H135v.6h1.5v-.6zm-1.5 1.6h1.5v-.6H135v.6zm3.5 3.3h-2.1v.3h-.4v-2.7h2.5v2.4zm-.5-2.1h-1.6v.7h1.6v-.7zm-1.6 1.7h1.6v-.7h-1.6v.7zm3.6-4.8v5.2c0 .6-.3.6-1.4.6 0-.1-.1-.3-.2-.5h.6c.5 0 .5 0 .5-.2v-2.9h-2v-2.3h2.5zm-.5.3H138v.6h1.6v-.6zm-1.5 1.6h1.6v-.6H138v.6zM136.4 284l-.8.2v2c0 .5-.3.6-1.1.6 0-.1-.1-.3-.1-.4h.4c.5 0 .5 0 .5-.1v-1.8c-.3.1-.5.2-.8.2 0 .1 0 .1-.1.1l-.2-.5c.3-.1.6-.2 1-.2v-1.5h-.9v-.6h.9v-1.4h.6c0 .1 0 .1-.1.1v1.2h.8v.4h-.8v1.4c.3-.1.5-.1.8-.2l-.1.5zm3.9-.5h-2.1l-.1.1-.3.6h2.4v.4h-.8c-.1.5-.4.9-.7 1.2.5.2 1 .5 1.3.7l-.3.3c-.3-.2-.8-.5-1.4-.7-.5.3-1.2.6-2.2.7 0-.1-.1-.3-.2-.4.8-.1 1.4-.3 1.9-.5-.3-.1-.6-.2-.8-.3l-.1.2-.4-.1c.2-.3.3-.7.5-1.1h-.9v-.4h1.1c.1-.2.2-.5.3-.7H136v-.4h4.2v.4zm-.3-2.1v.4h-3.6v-.4h1.5v-.7h.6s0 .1-.1.1v.6h1.6zm-2.6.5c.1.4.2.8.3 1.1l-.4.1c0-.3-.1-.7-.2-1.1l.3-.1zm.2 2.7c-.1.2-.2.5-.3.7.3.1.7.2 1 .3.3-.3.5-.6.7-1h-1.4zm1.9-2.7-.1.1c-.1.3-.3.8-.4 1.1l-.4-.1c.1-.3.3-.8.4-1.2l.5.1zM135.5 292c-.2.5-.5 1-.8 1.3l-.4-.2c.3-.3.6-.8.8-1.3l.4.2zm-.5-.9v.4h-.4v-4h1.9v3.6H135zm1.1-3.2H135v1.2h1.1v-1.2zm-1.1 2.8h1.1v-1.2H135v1.2zm1.4 2.6c0-.3-.1-.8-.1-1.2h.4c.1.4.2.9.2 1.2h-.5zm3.6-5.8v.1c-.1 1.7-.2 1.7-.9 1.7h-.5c0-.1-.1-.3-.1-.4h.7c.1 0 .2 0 .2-.1.1-.1.1-.4.2-1h-1.2c-.1.8-.5 1.4-1.5 1.7 0-.1-.2-.3-.2-.3.9-.2 1.2-.7 1.4-1.3H137v-.4h3zm-.2 2.2v1.8H137v-1.8h2.8zm-.4 1.4V290h-2v1.1h2zm-1.4 2.2c-.1-.3-.2-.8-.4-1.2l.4-.1c.2.4.4.9.4 1.2l-.4.1zm1.8 0c-.2-.4-.6-.9-.9-1.3l.4-.1c.3.4.7 1 .9 1.3l-.4.1zM136.6 298.1h-1.7v.6h-.4v-4.6h2.2v4zm-.4-3.5h-1.3v1.3h1.3v-1.3zm-1.3 3.1h1.3v-1.4h-1.3v1.4zm5.2-3.6v5.2c0 .3-.1.4-.3.5-.2.1-.6.1-1.1.1 0-.1-.1-.3-.2-.4h.6c.5 0 .5 0 .5-.2v-1.5h-2c-.2.8-.5 1.6-1.2 2.2l-.3-.3c1.1-.9 1.2-2.1 1.2-3.2v-2.4h2.8zm-2.4 2.3v.9h2v-1.2h-1.9v.3zm1.9-1.9h-1.9v1.2h1.9v-1.2z"/><path class="st28" d="M273 214.1H132.9v146.4h21.8M273 217.6v111M273 360.5 132.9 214.1M249.1 360.6H273M273 214.1 132.9 360.5"/></svg>