<svg version="1.1" id="レイヤー_1" xmlns="http://www.w3.org/2000/svg" x="0" y="0" viewBox="0 0 620 521" style="enable-background:new 0 0 620 521" xml:space="preserve"><style>.st0{fill:#dfeaf8}.st1{fill:#fadce9}.st4{fill:#f9f4e4}.st6{fill:#ecf4d9}.st9{fill:#bfc0c0}.st10{fill:none;stroke:#cfb5a7;stroke-width:.4}.st11,.st12{fill:none;stroke-miterlimit:10}.st11{stroke:#b5b5b6;stroke-width:.4}.st12{stroke:#aaabab;stroke-linecap:round;stroke-linejoin:round;stroke-dasharray:4.5,2.5}.st12,.st13,.st14{stroke-width:.4}.st13{fill:none;stroke:#000;stroke-linejoin:bevel;stroke-dasharray:15,1.3,1.3,1.3}.st14{stroke-dasharray:1.3,1.3,0,0,0,0}.st14,.st15,.st16,.st17{fill:none;stroke:#000}.st15{stroke-width:.3;stroke-linejoin:bevel;stroke-dasharray:1.3,1.3,0,0,0,0}.st16,.st17{stroke-width:.4}.st16{stroke-linejoin:bevel;stroke-dasharray:10,1.3,1.3,1.3}.st17{stroke-miterlimit:10}.st20{stroke-dasharray:1.3,1.3}.st20,.st21{fill:none;stroke:#000;stroke-width:.4}.st22{fill:#fff}.st23{fill:none;stroke:#000;stroke-width:.6}</style><path transform="rotate(90 58.817 188.71)" class="st0" d="M26.2 146.8h65.2v83.8H26.2z"/><path class="st0" d="M208.7 221.4v-34.1h-9.3V161h-46.9v-6.3h-9v12.5h-30.8v16.4h-6.5v37.8l24.3.1v-.5h1.2v1.6h33.7V221h37.2v.4zM235.3 234.9v-39.4h62.5v39h-1.1v1.2h-.7v1h-32.6v-1h-.7v-1.2h-1.2v.4zM428.4 311.5v-40H534v30.2h-41.9v9.8z"/><path class="st1" d="M376.1 142.8V77.1h24.7v12h1.8v41.8h-1.8v11.9zM348.2 85.9v3.2h-2.8v41.8h2.8v11.9h24.7V85.9z"/><path transform="rotate(90 266.812 190.36)" class="st1" d="M261.6 159.3h10.3v62.1h-10.3z"/><path transform="rotate(90 229.739 215.395)" class="st1" d="M210.2 209.8h39.1V221h-39.1z"/><path class="st1" d="M250.4 307v-24.6h-.5v-1.9h-24.2V307zM253.6 282.4V307h5.8v1.8h41.9V307h5.8v-24.6z"/><path transform="rotate(90 213.072 306.856)" class="st1" d="M187.1 297.9H239v17.9h-51.9z"/><path style="fill:#d2cce6" d="M79.5 336.5v-60.2h9.6v-4.8h38.5v4.8h17v.6h-.4v56.4h.4v3.2z"/><path style="fill:#fffcdb" d="M147.9 332.8v-39.2h11.4v-13.5H222v.8h-17.9v51.9z"/><path transform="rotate(90 206.394 167.792)" class="st4" d="M189.7 163.6h33.4v8.4h-33.4z"/><path transform="rotate(90 227.182 188.445)" class="st4" d="M223 182.6h8.4v11.6H223z"/><path transform="rotate(90 105.836 165.925)" class="st4" d="M90.9 161.9h29.8v8.1H90.9z"/><path transform="rotate(90 360.556 79.198)" class="st4" d="M356.6 66.9h7.9v24.6h-7.9z"/><path transform="rotate(90 515.855 309.659)" class="st4" d="M511.2 289.2h9.4v40.9h-9.4z"/><path transform="rotate(90 346.145 446.92)" class="st4" d="M338 440.4h16.3v13H338z"/><path transform="rotate(90 175.952 157.876)" class="st1" d="M172.8 134.4h6.3v47h-6.3z"/><path style="fill:#feeab4" d="M88.4 267.5V237h56.2v30.5h-17v-.7h-1.8v2.7H90.9v-2.7h-1.8v.7z"/><path class="st6" d="M221.1 62.7V11.1h264v51.6h-2.5V62h-72.5v.7h-82.8V62h-72.5v.7zM548.8 368.6v-102h.7v-27.1h-.7v-71.2h.7V95.8h-.7V72.9H609v295.7zM466.1 451.3h-19.7v.7h-77.2v-.7h-4v16.3h-38.1v-16.3h-28.4v.7h-53.9v-.7h-23.7v58.6h245v-58.6zm-128.3 35.2c-1 0-1.9-.8-1.9-1.9v-15.8c0-.5.4-.9.9-.9h18.6c.5 0 .9.4.9.9v15.8c0 1-.8 1.9-1.9 1.9h-16.6z"/><path class="st1" d="M393.5 226.8v-.7h-1.8V202h1.8v-.5h20v25.3z"/><path transform="rotate(90 458.855 212.258)" class="st1" d="M448.2 170.2h21.4v84.2h-21.4z"/><path transform="rotate(90 128.07 160.968)" class="st1" d="M121.8 145.6h12.5v30.8h-12.5z"/><path d="M355.4 467.9h-18.6c-.5 0-.9.4-.9.9v15.8c0 1 .8 1.9 1.9 1.9h16.7c1 0 1.9-.8 1.9-1.9v-15.8c0-.4-.4-.9-1-.9z" style="fill:#dff2fc"/><path transform="rotate(90 422.293 360.917)" style="fill:#feebbe" d="M388.1 304.6h68.3v112.7h-68.3z"/><path class="st9" d="M548.8 95.8V72.9h69.1V62.7H495.4V2.3h-10.3v60.4h-2.5v2.1h.9v3.9h-.7v8.4h51.6v18.5h8.4v-.8h3.9v1zM548.8 424h-2.1v1.4h-3.9v-.9h-8.4v12.4H522v8.4h.9v3.9h-1.4v2.1h4.1v7h30.2v-30.2h-7zM494 436.9h-47.4v8.4h.7v3.9h-.9v2.1h19.7v67.4h10.2v-60.4h14.4v-7h3.7v-2.1H493v-4h1zM244.8 451.3h-23.7v67.4h-10.2v-97.9h2.1v.7h3.9v-.5h8.4v15.9h19.3v8.4h-.5v3.9h.7zM225.3 366.7v-56.5h34.1V307h-5.8v-24.6h53.5V307h-5.8v3.2h5.8v16.1h10.2v.9h3.3V290h4.7v-7.6h2.4v-3.3h-77.8v3.3h.5V307h-24.7v-27.9H222v53.7h-74.1v.5h-3.3v3.2h-11.1v10.2h77.4v20.1h2.1v-.6h3.9v.5zM393.5 230.1h23.3v-28.5l117.6-.1V239h8.3v-.9h4v1.4h2.1v-71.2h-2.1v.9h-3.9v-.7h-8.4V187H390.3v15h3.2v-.5h20v25.3h-20v-.7h-3.2v53h-21.7v3.3h24.9zM546.7 396.9h2.1v-3.6h7v-14.4h62.1v-10.2h-69v-102h-2.1v1.3h-4v-1H534v34.7h-41.8v25.1h42.3v69.7h8.3v-.9h4v1.3zm-51.3-82.5V305h40.9v9.4h-40.9zM365.2 467.6v-16.3h4v-2.1h-.9v-4h.7v-8.4h-70.1v8.4h.5v4h-.7v2.1h28.4v16.3h38.1zm-25.6-12.5v-16.3h13v16.3h-13zM348.2 190.7h1.1V187h-1.1v-40.9H404v-15.2h-3.3v11.9H376V77.1h24.6V89h3.3V77.1h5.9v-8.4h-.7v-4h.8v-2.1h-82.7v2.1h.9v4h-.7v8.4h16.5V89h4.2v-3.1h24.6v56.9h-24.6v-11.9h-4.2v104h-1.1v3.3h5.3v-47.5zm0-107.6v-7.9h24.6v7.9h-24.6zM159.3 225.9h6.1v-3.3h-33.7v.9h-1.1v-2.1h-24.4v-.3h-5.6v.1H16.9V156h83.8v27.7h5v-.3h6.9v-28.9h86.8V187h9.3v34.1h-6.1v4.5h6.1v12.3h52.8v-3.3h-37.3v-39.1h11.6v-10.7h62.1v53h4.2V181h-76.8V77.1h29.3v-8.4h-.7v-4h.9v-2.1h-33.7V2.3h-10.2v136.2H2.1V237h77.4v39.3H89v-8.8h-.7V237h56.3v30.4h-17v8.8h17v.6h1.9v16h1.4v.7h11.4v-67.6zm73.7-41.6v8.4h-11.6v-8.4H233zM210.6 151v33.5h-8.4V151h8.4zm-100.7 0v29.8h-8.1V151h8.1z"/><path class="st10" d="M327.5 77.4h16.6M225.3 77.4h29.3M225.3 82.1h118.8M225.3 86.7h118.8M225.3 91.4h118.8M225.3 96h118.8M225.3 100.7h118.8M225.3 105.3h118.8M225.3 110h118.8M225.3 114.6h118.8M225.3 119.3h118.8M225.3 123.9h118.8M225.3 128.6h118.8M225.3 133.2h118.8M225.3 137.9h118.8M225.3 142.5h118.8M225.3 147.2h118.8M225.3 151.8h118.8M225.3 156.5h118.8M225.3 161.1h118.8M225.3 165.7h118.8M225.3 170.4h118.8M225.3 175h118.8M225.3 179.7h118.8M302 184.3h42.1M302 189h42.1M302 193.6h42.1M341.8 198.3h2.3M302 198.3h38.4M341.8 202.9h2.3M302 202.9h38.4M341.8 207.6h2.3M302 207.6h38.4M341.8 212.2h2.3M302 212.2h38.4M341.8 216.9h2.3M302 216.9h38.4M341.8 221.5h2.3M302 221.5h38.4M341.8 226.2h2.3M302 226.2h38.4M341.8 230.8h2.3M302 230.8h38.4M225.7 282h24.2M253.6 286.6h53.5M225.7 286.6h24.7M253.6 291.3h53.5M225.7 291.3h24.7M253.6 295.9h53.5M225.7 295.9h24.7M253.6 300.6h53.5M225.7 300.6h24.7M253.6 305.2h53.5M225.7 305.2h24.7M225.3 314.5h81.8M225.3 319.2h81.8M225.3 323.8h81.8M225.3 328.5h95.5M225.3 333.1h95.5M225.3 337.8h95.5M225.3 342.4h95.5M225.3 347.1h95.5M225.3 351.7h95.5M225.3 356.3h95.5M225.3 361h95.5M225.3 365.6h97M225.8 370.3h96.5M225.8 374.9h96.5M225.8 379.6h96.5M225.8 384.2h96.5M225.8 388.9h96.5M225.8 393.5h96.5M225.8 398.2h96.5M225.8 402.8h98M225.8 407.5h98M225.8 412.1h98M225.8 416.8h98M225.3 421.4h98.5M225.3 426.1h98.5M225.3 430.7h98.5M225.3 435.4h98.5M482.8 77.4h51.6M404 77.4h5.9M376.1 77.4h24.7M404 82.1h130.4M376.1 82.1h24.7M404 86.7h130.4M376.1 86.7h24.7M348.2 86.7h24.7M404 91.4h130.4M376.1 91.4h26.5M345.4 91.4h27.5M404 96h130M376.1 96h26.5M345.4 96h27.5M404 100.7h130M376.1 100.7h26.5M345.4 100.7h27.5M404 105.3h130M376.1 105.3h26.5M345.4 105.3h27.5M404 110h130M376.1 110h26.5M345.4 110h27.5M404 114.6h130M376.1 114.6h26.5M345.4 114.6h27.5M404 119.3h130M376.1 119.3h26.5M345.4 119.3h27.5M404 123.9h130M376.1 123.9h26.5M345.4 123.9h27.5M404 128.6h130M376.1 128.6h26.5M345.4 128.6h27.5M404 133.2h130M376.1 133.2h24.7M348.2 133.2h24.7M404 137.9h130M376.1 137.9h24.7M348.2 137.9h24.7M404 142.5h130M376.1 142.5h24.7M348.2 142.5h24.7M348.2 147.2H534M351.9 151.8H534M348.2 151.8h2.3M351.9 156.5H534M348.2 156.5h2.3M351.9 161.1H534M348.2 161.1h2.3M351.9 165.7H534M348.2 165.7h2.3M351.9 170.4h182.5M348.2 170.4h2.3M351.9 175h182.5M348.2 175h2.3M351.9 179.7h182.5M348.2 179.7h2.3M351.9 184.3h182.5M348.2 184.3h2.3M351.2 189h37.2M348.1 193.6h42.2M348.1 198.3h42.2M348.1 202.9h42.2M348.1 207.6h42.2M348.1 212.2h42.2M348.1 216.9h42.2M348.1 221.5h42.2M348.2 226.2h42.1M202.6 226.2h6.1M166.6 226.2h34.8M159.3 226.2h6.1M348.2 230.8h42.1M159.3 230.8h49.4M348.2 235.5h42.1M159.3 235.5h49.4M296.7 240.1h93.6M159.3 240.1h136M296.7 244.8h93.6M159.3 244.8h136M296.7 249.4h93.6M159.3 249.4h136M296.7 254.1h93.6M159.3 254.1h136M296.7 258.7h93.6M159.3 258.7h136M296.7 263.4h93.6M159.3 263.4h136M296.7 268h93.6M159.3 268h136M159.3 272.7h231M159.3 277.3h231M500.9 202.9h33.5M500.9 207.6h33.5M500.9 212.2h33.5M500.9 216.9h33.5M500.9 221.5h33.5M416.8 226.2h117.6M393.5 230.8h140.9M393.5 235.5h140.9M393.5 240.1H534M393.5 244.8H534M393.5 249.4H534M393.5 254.1H534M393.5 258.7H534M393.5 263.4H534M393.5 268H534M393.5 272.7h35M393.5 277.3h35M393.5 282h35M330.2 286.6h98.3M325.3 286.6h3.5M330.2 291.3h98.3M320.6 291.3h8.2M330.2 295.9h98.3M320.6 295.9h8.2M330.2 300.6h98.3M320.6 300.6h8.2M330.2 305.2h98.3M320.6 305.2h8.2M330.2 309.9h98.3M320.6 309.9h8.2M330.2 314.5h161.9M320.5 314.5h8.3M330.2 319.2h161.9M320.5 319.2h8.3M320.5 323.8h171.6M322.3 328.5h212.1M322.3 333.1h212.1M322.3 337.8h212.1M322.3 342.4h212.1M322.3 347.1h212.1M322.3 351.7h212.1M322.3 356.3h212.1M322.3 361h212.1M323.8 365.6h210.6M323.8 370.3h210.6M323.8 374.9h210.6M323.8 379.6h210.6M323.8 384.2h210.6M323.8 388.9h210.6M323.8 393.5h210.6M323.8 398.2H534M325.4 402.8H534M325.4 407.5H534M325.4 412.1H534M325.4 416.8H534M325.4 421.4H534M325.4 426.1h209M325.4 430.7h209M325.4 435.4h209"/><path class="st11" d="M185.4 285v47.8M166.9 285v47.8M204.1 322.4h-56.2M204.1 303.8h-56.2M148.3 293.6v39.2"/><path transform="rotate(-90 183.413 285.017)" class="st12" d="M147.7 267h71.4v36h-71.4z"/><path class="st12" d="M307.1 326.3v110.6M317.3 328.3v107.5M325.8 291.1v145.8M492.1 326.8H325.8M484.9 436.9V326.8M302 181h42.1M482.8 77.1V187"/><path class="st13" d="M361.7 432h92.6M361.7 434.5h92.6M238.7 432h66.6M238.7 434.5h66.6M230.2 360.8v66.6M227.7 360.8v66.6M489 434h42.5v-45.4"/><path class="st13" d="M489 431.6h40.1v-43M532 173.9V86.4M529.5 173.9V86.4M488.2 79.6H404M488.2 82H404M333.1 79.6H249M333.1 82H249"/><path class="st14" d="M455.2 436.9v-7.4h-94.4v7M306.2 436.9v-7.4h-68.5v7M225.3 428.3h7.4v-68.5h-7M534.4 387.7h-7.9V429h-38.4v7.9"/><path class="st15" d="M360.1 85.9v56.9M358.7 85.9v56.9M390.3 77.1v65.7M388.9 77.1v65.7M307.1 296.5h-53.5M307.1 295.1h-53.5M250.4 294.9h-24.7M250.4 293.5h-24.7"/><path class="st16" d="M144.6 267.5 128.3 237v30.5M253.6 282.4l53.5 20.9h-53.5M225.7 307l24.7-20.9h-24.7M372.9 142.8 352 85.9v56.9M376.1 142.8 397 77.1v65.7M224.2 195.9l11.1 39v-39M413.5 226.8l-16.3-25.3v25.3M112.7 167.2l30.8-12.5M143.5 154.7v12.5h-30.8"/><path class="st17" d="M500.9 201.5V223h-84M222 280.9h-17.9v51.9"/><path transform="rotate(180 360.164 57.393)" class="st14" d="M348.5 52.7h23.2V62h-23.2z"/><path class="st14" d="M371.8 52.7 348.5 62"/><path class="st17" d="M222 280.1h-62.7M159.3 285.2h44.8"/><path style="fill:none;stroke:#000;stroke-width:.3;stroke-linejoin:bevel;stroke-miterlimit:10" d="m569.4 340.4 29.3-14.7-29.3-14.6"/><path transform="rotate(-90 584.058 325.74)" style="fill:none;stroke:#000;stroke-width:.3;stroke-miterlimit:10" d="M569.4 311.1h29.3v29.3h-29.3z"/><path class="st14" d="M492.1 301.8v-28.4h42.3"/><path transform="rotate(90 518.007 218.302)" class="st14" d="M501.7 202h32.5v32.5h-32.5z"/><path class="st14" d="M199.4 161h-46.9"/><path transform="rotate(90 128.496 170.164)" class="st14" d="M113.6 155.3h29.8v29.8h-29.8z"/><path class="st17" d="M448.4 286.8c0 2 1.6 3.7 3.7 3.7 2 0 3.7-1.6 3.7-3.7s-1.6-3.7-3.7-3.7c-2 0-3.7 1.6-3.7 3.7z"/><path class="st17" d="M470.7 296.1c0 1.7-1.3 2.7-2.8 2.8h-31.6c-1.7 0-2.8-1.4-2.8-2.8v-18.6c0-1.5 1.2-2.8 2.8-2.8h31.8c1.3 0 2.6 1.3 2.6 2.8v18.6z"/><path class="st17" d="M450.4 275.5c-2.8 0-9.8.1-11.5.2-1.8.1-4.2 1.3-4.5 4.4-.3 3.1-.3 10.4 0 11.2.3.8 1 3.8 5.3 3.8 2.3 0 3 0 3.3.1s1.6-.1 3.5 1.3c1.2.8 2.7 1.8 5.5 1.8h.2c2.8 0 4.3-1 5.5-1.8 1.3-.8 1.7-1.1 3.6-1.3 1.1-.1 2.5 0 4.1-.1 3-.1 4.3-2.6 4.5-4.4.2-2.3 0-9.3 0-9.9 0-3.5-2.7-4.9-4.5-5-2.1-.1-8.7-.2-11.6-.2h-3.4zM501.5 295.8c0 .6.5 1 1 1h25.9c.6 0 1-.5 1-1v-21.3c0-.6-.5-1-1-1h-25.9c-.6 0-1 .5-1 1v21.3z"/><path class="st17" d="M502.7 275.3h25.6v18.2h-25.6z"/><circle class="st17" cx="508.9" cy="281.6" r="4.6"/><circle class="st17" cx="522.2" cy="281.6" r="4.6"/><circle class="st17" cx="515.5" cy="289.7" r="3.3"/><path class="st17" d="M518.5 293.7c-.8.6-1.8.9-2.9.9-1.1 0-2.1-.3-2.9-.9h-9.8v2.3h25.6v-2.3h-10zM261.7 216.2c0-9-13.5-9.1-13.5-9.1s-6.4-.2-9-.2c-2.6 0-2.2 1.5-2.2 1.5s-.2 5.2-.2 7.7.2 8 .2 8-.3 1.5 2.2 1.5c2.6 0 9-.2 9-.2s13.5-.2 13.5-9.1M226 223.4c0 2.2 1.7 1.9 1.7 1.9h5.8c2.2 0 2.3-1.9 2.3-1.9s.5-1.9.5-7.6c0-5.7-.5-7-.5-7s-.1-1.9-2.3-1.9h-5.8s-1.7-.2-1.7 1.9v14.6zM237.1 224.5h-1.7M237 208.2h-1M244.5 206.8v18.5"/><path class="st17" d="m240.7 206.6-.4 2.8h1.9v12.8h-1.9l.5 3.1M259.5 234.9v-4.5c0-.3.3-.6.7-.7h.2c.3 0 .6.3.7.7v4.5M234.6 234.9v-3.6h24.8"/><path class="st17" d="M260.3 229.8h-26.5s-.8 0-.8.9v4.2M276.9 186.1h14.4c.1 0 .2.1.2.2v6.5c0 .1-.1.2-.2.2h-14.4c-.1 0-.2-.1-.2-.2v-6.5c-.1-.1 0-.2.2-.2z"/><path class="st17" d="M286.9 193.1c.1 0 .2-.1.2-.2v-6.5c0-.1-.1-.2-.2-.2"/><circle class="st17" cx="281.8" cy="188.4" r="1"/><path class="st17" d="M292 185.4h-15.8c-.1 0-.2.1-.2.2v7.9c0 .1.1.2.2.2H292c.1 0 .2-.1.2-.2v-7.9c0-.1-.1-.2-.2-.2zM296 187.9h.9v7.4h-.9zM297 191.1h.9v1.1h-.9zM235.8 195.5h62M534 271.5H428.4v40h63.7M199.4 182.6h-9.3s-7 .7-14.4.7-14.4-.7-14.4-.7h-8.8v-27.9M161.3 161.7h-8.8M190.1 161.7h9.3"/><path class="st17" d="m161.3 161 4.3 1.6c1.1.4 1.2 2 1.2 2 .2 2 0 3.9-.3 6.4s-1.2 4.4-3.3 6.3-1.9 4.6-1.9 4.6v-24.2c0-.8.8-.9.8-.9l1-.1s5.3-.6 12.6-.6 13.6.7 13.6.7c.8.1.8.9.8.9V182s.3-2.7-1.9-4.6c-2.2-2-3.2-4-3.5-7.7-.3-3.7-.1-5.5-.1-5.5s.2-1.2 1.2-1.6 4.3-1.5 4.3-1.5"/><path class="st17" d="M190.1 160.7s-8.2.8-14.4.8c-6.2 0-14.4-.8-14.4-.8"/><circle class="st17" cx="175.7" cy="166.4" r="1.2"/><path class="st17" d="M196.9 166.5h.9v7.4h-.9zM197.8 169.6h1.6v1.1h-1.6zM36.4 213.1l-8.6-.5s-3.5-.6-3.8-3.6c-.2-3.1-.9-12.2-.9-12.2s.1-.9-.6-2.2l-.8-1.6s-.4-.9-.4-1.9v-4.8s-.1-1 .5-2.1c.5-1.1 1.2-2.1 1.2-3.2.1-1.1 1-13 1-13s.5-2.7 3.7-3.2l6.4-.5 8.5.6s2.8.3 3.6 3.2l.5 12.7s0 1 .4 1.9 1 2 1 3.5v5.3s.1.8-.3 1.7c-.4.9-.7 1.6-.7 1.6s-.4 1.1-.5 2c0 1-.4 12-.4 12s0 3.2-3.7 3.9l-6.1.4z"/><path class="st17" d="m20.6 203.7.1 1s-.2 2.7 1.5 5c.1.1 2 3.4 5.3 3.7"/><path class="st17" d="M20.7 186.2c.3-2.1.8-2.8 1.1-3.5.3-.7.6-2.2.6-2.2l1-12.8c.7-3.4 4.5-4 4.5-4l7.5-.5 8.2.7c3.9.9 3.9 4.1 3.9 4.1l.3 12.1c0 1.4.7 2.5.7 2.5l.7 1.2c.7 1.2.7 2.5.7 2.5v4.4c0 1.3-.7 2.5-.7 2.5s-.7 1.1-1 1.8c-.4.7-.4 1.9-.4 1.9l-.4 12.7c-.7 3.3-3.8 3.5-3.8 3.5l-7.9.7-8.3-.6s-3.8-1-4.1-4.4l-.9-12.3s-.1-1.1-.4-1.9c-.4-.8-1.3-2.3-1.3-3.8v-4.6z"/><path class="st17" d="M28 163.8c-1.1.2-3.1.3-5.2 2.9s-2 5.9-2 5.9l-.2 1.3M49.9 186.4v-13.8s0-3.1-1.6-5.5-2.7-2.6-4.7-3.1M49.9 190.8v14.8c-.1.3 0 1.3-1.1 3.7 0 0-1.4 3.4-5.1 4"/><path class="st17" d="M19.5 173.2v-.8s1.7-14.3 16.8-14.3c14.5 0 16.6 14.3 16.6 14.3v32.4s-2.2 14.3-16.6 14.3c-14.8 0-16.8-14.3-16.8-14.3v-.6"/><path class="st17" d="m16.9 175 .4.1s2 .8 2.1.8h1.1v-2s0-.2-.1-.2l-1.9-.9-1.6-.5M16.9 205.2l2.1-.7 1.4-.7s.1-.1.1-.2v-2h-1.2l-.4.2-2.1.8M19 175.7v26.2M20.5 175.9v25.7M54.6 156.1v65.2"/><circle class="st17" cx="45.4" cy="188.7" r="1.6"/><path class="st17" d="M100.7 166.2c-3.1.1-9.7-2.3-9.9-10.1"/><path class="st17" d="M93.3 162.9v7H63.7v-13.8M63.7 163.5h29.6M63.7 162.3h29.1M63.7 157.2h27.2M355.4 468.6h-18.6c-.1 0-.2.1-.2.2v15.8c0 .6.5 1.2 1.2 1.2h16.7c.6 0 1.2-.5 1.2-1.2v-15.8c0-.1-.1-.2-.3-.2z"/><path class="st17" d="M355.4 467.9h-18.6c-.5 0-.9.4-.9.9v15.8c0 1 .8 1.9 1.9 1.9h16.7c1 0 1.9-.8 1.9-1.9v-15.8c0-.4-.4-.9-1-.9z"/><circle class="st17" cx="346.1" cy="470.8" r="1.2"/><path class="st20" d="M165.4 221.9h-33.7M324.6 291.1v107.5M323.1 363v-71.9M321.5 327.2v-36.1"/><path class="st21" d="M146.5 292v-13.5M534 267v-.8h12.8v1.8h-4.1v-1zM534 239v.9h12.7v-1.8h-4v.9z"/><path transform="rotate(-90 535.899 253.028)" class="st21" d="M522.7 252.4H549v1.2h-26.3z"/><path transform="rotate(-90 545.053 253.032)" class="st21" d="M531.9 252.5h26.3v1.2h-26.3z"/><path class="st21" d="M545.6 239.9h25.5c0 14.6-11.4 26.3-25.5 26.3M535.3 239.9h-26.7c0 14.6 11.9 26.3 26.7 26.3"/><path class="st21" d="M546.7 239.5h2.8v27.1h-2.8M534 424.5v-.9h12.8v1.8h-4.1v-.9zM534 396.5v.8h12.7v-1.8h-4v1z"/><path transform="rotate(-90 535.899 410.461)" class="st21" d="M522.7 409.9H549v1.2h-26.3z"/><path transform="rotate(-90 545.053 410.465)" class="st21" d="M531.9 409.9h26.3v1.2h-26.3z"/><path class="st21" d="M545.6 423.6h25.5c0-14.6-11.4-26.3-25.5-26.3M535.3 397.3h-26.7c0 14.6 11.9 26.3 26.7 26.3"/><path class="st21" d="M546.7 396.9h3.1v27.2h-3.1M534 266.2v-26.3M522 436.5h-.9v12.8h1.8v-4.1h-.9zM494 436.5h.8v12.7H493v-4h1z"/><path transform="rotate(-180 507.96 438.401)" class="st21" d="M494.8 437.8h26.3v1.2h-26.3z"/><path transform="rotate(-180 507.963 447.555)" class="st21" d="M494.8 447h26.3v1.2h-26.3z"/><path class="st21" d="M521.1 448.1v25.5c-14.6 0-26.3-11.4-26.3-25.5M494.8 437.8v-26.7c14.6 0 26.3 11.9 26.3 26.7"/><path class="st21" d="M494.4 449.2v3.1h27.2v-3.1M298 449.2h1.4v-3.9h-.5v-8.9h-.9zM245.4 449.2h-1.3v-3.9h.5v-8.9h.8zM298.7 449.2v2.8h-53.9v-2.8M271.8 434.8v7.1M245.4 436.4h52.7"/><path class="st21" d="M245.4 437.9h27.8v1.2h-27.8zM270.4 439.1H298v1.2h-27.6zM270.4 443.1h2.9v2.6h-2.9z"/><path class="st21" d="M245.4 445.6h27.8v1.2h-27.8zM270.4 446.8H298v1.2h-27.6zM271.8 451.1v-5.6M213 420.1v1.4h3.9v-.5h8.9v-.9zM213 367.5v-1.3h3.9v.5h8.9v.8zM213 420.8h-2.8v-53.9h2.8M227.4 393.9h-7.1M225.8 367.5v52.7"/><path transform="rotate(90 223.686 381.42)" class="st21" d="M209.8 380.8h27.8v1.2h-27.8z"/><path transform="rotate(90 222.524 406.328)" class="st21" d="M208.7 405.7h27.6v1.2h-27.6z"/><path transform="rotate(90 217.844 393.894)" class="st21" d="M216.4 392.6h2.9v2.6h-2.9z"/><path transform="rotate(90 215.978 381.42)" class="st21" d="M202.1 380.8h27.8v1.2h-27.8z"/><path transform="rotate(90 214.816 406.321)" class="st21" d="M201 405.7h27.6v1.2H201z"/><path class="st21" d="M211.1 393.9h5.6M445.7 449.2h1.6v-3.9h-.7v-8.8h-.9zM370 449.2h-1.7v-3.9h.7v-8.8h1zM446.4 449.2v2.8h-77.2v-2.8M407.8 434.8v7.1M370 436.5h75.7"/><path class="st21" d="M370 437.9h39.3v1.2H370zM406.4 439.1h39.3v1.2h-39.3zM406.4 443.1h2.9v2.6h-2.9z"/><path class="st21" d="M370 445.6h39.3v1.2H370zM406.4 446.8h39.2v1.2h-39.2zM407.8 451.1v-5.6M546.7 96.5v-1.7h-3.9v.8H534v.9zM546.7 167.6v1.6h-3.9v-.7H534v-.9zM546.7 95.8h2.8v72.5h-2.8M532.3 132h7.1M534 167.6V96.5"/><path transform="rotate(-90 536.011 149.11)" class="st21" d="M517.5 148.5h37v1.2h-37z"/><path transform="rotate(-90 537.174 114.94)" class="st21" d="M518.7 114.4h36.9v1.2h-36.9z"/><path transform="rotate(-90 541.853 132.06)" class="st21" d="M540.4 130.8h2.9v2.6h-2.9z"/><path transform="rotate(-90 543.72 149.11)" class="st21" d="M525.2 148.5h37v1.2h-37z"/><path transform="rotate(-90 544.882 114.94)" class="st21" d="M526.4 114.4h36.9v1.2h-36.9z"/><path class="st21" d="M548.6 132H543M410.8 64.8h-1.6v3.9h.7v8.9h.9zM481.9 64.8h1.6v3.9h-.7v8.9h-.9zM410.1 64.8V62h72.5v2.8M446.3 79.2v-7.1M481.9 77.6h-71.1"/><path transform="rotate(-180 463.424 75.516)" class="st21" d="M444.9 74.9h37v1.2h-37z"/><path transform="rotate(180 429.255 74.354)" class="st21" d="M410.8 73.8h36.9V75h-36.9z"/><path transform="rotate(-180 446.374 69.674)" class="st21" d="M444.9 68.4h2.9V71h-2.9z"/><path transform="rotate(-180 463.424 67.808)" class="st21" d="M444.9 67.2h37v1.2h-37z"/><path transform="rotate(180 429.255 66.645)" class="st21" d="M410.8 66.1h36.9v1.2h-36.9z"/><path class="st21" d="M446.3 62.9v5.6M255.5 64.8h-1.6v3.9h.7v8.9h.9zM326.6 64.8h1.6v3.9h-.7v8.9h-.9zM254.8 64.8V62h72.5v2.8M291.1 79.2v-7.1M326.6 77.6h-71.1"/><path transform="rotate(-180 308.135 75.516)" class="st21" d="M289.7 74.9h37v1.2h-37z"/><path transform="rotate(180 273.966 74.354)" class="st21" d="M255.5 73.8h36.9V75h-36.9z"/><path transform="rotate(-180 291.085 69.674)" class="st21" d="M289.7 68.4h2.9V71h-2.9z"/><path transform="rotate(-180 308.135 67.808)" class="st21" d="M289.7 67.2h37v1.2h-37z"/><path transform="rotate(180 273.966 66.645)" class="st21" d="M255.5 66.1h36.9v1.2h-36.9z"/><path class="st21" d="M291.1 62.9v5.6"/><path transform="rotate(-90 165.98 224.423)" class="st21" d="M164.1 223.8h3.7v1.2h-3.7z"/><path transform="rotate(-90 202.008 223.636)" class="st21" d="M199.4 223.1h5.3v1.2h-5.3z"/><path transform="rotate(-90 183.413 221.774)" class="st21" d="M182.6 203.8h1.6v36h-1.6z"/><path transform="rotate(-90 131.085 222.257)" class="st21" d="M129.8 221.7h2.5v1.2h-2.5z"/><path class="st21" d="M184 226.6V217M297.8 238.7v-4.2h-1.1v1.2h-.7v1h.7v2zM261.5 238.7v-4.2h1.2v1.2h.7v1h-.7v2z"/><path transform="rotate(-90 295.984 255.295)" class="st21" d="M279.3 254.6h33.3v1.4h-33.3z"/><path transform="rotate(90 279.672 237.653)" class="st21" d="M278.7 220.6h2v34h-2z"/><path class="st21" d="M262.7 238.7c0 18.4 15.2 33.3 34 33.3M342.9 234.5v4.2h-1.1v-2.2h-.7v-.7h.7v-1.3zM302 234.5v4.2h1.2v-2.2h.7v-.7h-.7v-1.3z"/><path transform="rotate(90 341.078 215.176)" class="st21" d="M321.8 214.5h38.6v1.4h-38.6z"/><path transform="rotate(-90 322.482 235.132)" class="st21" d="M321.8 215.8h1.3v38.6h-1.3z"/><path class="st21" d="M303.2 234.5c0-21.3 17.3-38.6 38.6-38.6M327.7 282.8v-4.2h1.1v1.8h.7v.7h-.7v1.7zM368.6 282.8v-4.2h-1.2v1.8h-.7v.7h.7v1.7z"/><path transform="rotate(-90 329.533 302.107)" class="st21" d="M310.2 301.4h38.6v1.4h-38.6z"/><path transform="rotate(90 348.128 281.979)" class="st21" d="M347.3 262.7h1.7v38.6h-1.7z"/><path class="st21" d="M367.4 282.8c0 21.3-17.3 38.6-38.6 38.6M390.3 186.5v4.7h-1.2V189h-.7v-.7h.7v-1.8zM349.4 186.5v4.7h1.1V189h.7v-.7h-.7v-1.8z"/><path transform="rotate(90 351.212 167.247)" class="st21" d="M331.9 166.5h38.6v1.4h-38.6z"/><path transform="rotate(-90 369.807 187.435)" class="st21" d="M368.9 168.1h1.8v38.6h-1.8z"/><path class="st21" d="M389.1 186.5c0-21.3-17.3-38.6-38.6-38.6M127.6 271.5h-1.1v-2h-.7v-2.7h1.8zM90.9 269.5h-.7v2h-1.1v-4.7h1.8z"/><path transform="rotate(-180 108.357 270.473)" class="st21" d="M90.2 269.5h36.3v1.9H90.2z"/><path class="st21" d="M90.2 271.4c0 20 16.2 36.3 36.3 36.3v-36.3M147.9 331.7H146v.7h-1.8v.9h3.7zM147.9 294.5H146v-.7h-1.8v-.9h3.7zM147.9 294.5v37.2M146 294.5v37.2M144.2 293.8v38.6"/><path class="st21" d="M146 293.8c-22.1 0-40 17.3-40 38.6h38.1"/><path transform="rotate(-180 145.315 284.885)" class="st21" d="M144.2 276.9h2.3v16h-2.3z"/><path transform="rotate(-180 237.827 279.794)" class="st21" d="M225.7 279.1h24.2v1.4h-24.2z"/><path class="st21" d="m249.9 279.1-2.2-13.3-2.3 13.3"/><path transform="rotate(180 280.364 309.546)" class="st21" d="M259.4 308.8h41.8v1.4h-41.8z"/><path class="st21" d="m301.3 310.2-3.5 20.7-3.5-20.7"/><path transform="rotate(-180 323.195 290.583)" class="st21" d="M320.6 290h5.2v1.1h-5.2z"/><path transform="rotate(-180 318.81 327.754)" class="st21" d="M316.9 327.2h3.9v1.2h-3.9z"/><path transform="rotate(-180 321.336 436.363)" class="st21" d="M316.9 435.8h9v1.1h-9z"/><path transform="rotate(-180 324.598 417.206)" class="st21" d="M323.8 398.6h1.5v37.2h-1.5z"/><path transform="rotate(-180 323.064 381.564)" class="st21" d="M322.3 363h1.5v37.2h-1.5z"/><path transform="rotate(-180 321.53 345.768)" class="st21" d="M320.8 327.2h1.5v37.2h-1.5z"/><path class="st21" d="M326.5 363.7h-8.4M327 399.4h-6.5"/><path transform="rotate(90 390.96 214.06)" class="st21" d="M378.9 213.4h24.2v1.4h-24.2z"/><path class="st21" d="m390.3 202-13.3 2.2 13.3 2.3"/><path transform="rotate(90 344.75 109.973)" class="st21" d="M323.8 109.3h41.8v1.4h-41.8z"/><path class="st21" d="m344.1 89.1-21.5 3.5 21.5 3.5"/><path transform="rotate(90 403.325 109.973)" class="st21" d="M382.4 109.3h41.8v1.4h-41.8z"/><path class="st21" d="m404 89.1 21.4 3.5-21.4 3.5"/><path transform="rotate(90 103.438 184.368)" class="st21" d="M102.9 181.6h1v5.6h-1z"/><path transform="rotate(90 103.437 220.7)" class="st21" d="M102.9 217.9h1v5.6h-1z"/><path class="st21" d="M105.9 184.9v35.3M103.7 184.9v35.2M102.3 184.9v35.2M100.7 184.9v35.3M102.3 184.9c-18 0-32.8 13.8-34.4 31.4l34.4 3.9M534 423.6v-26.3M494.8 436.5h26.3M221.1 19.4h9.3v-3.7h254.7"/><circle class="st21" cx="225.7" cy="15.8" r="1.6"/><path class="st21" d="M221.1 11.1h264M221.1 2.3h264M609 72.9v295.7M617.9 72.9v295.7M604.4 368.6V82.2h-3.6v-9.3"/><circle class="st21" cx="604.4" cy="77.5" r="1.6"/><path class="st21" d="M466.1 509.9h-245M466.1 518.7h-245M221.1 501.6h9.3v3.7h235.7"/><circle class="st21" cx="225.8" cy="505.2" r="1.6"/><path class="st22" d="M295.7 11.1v4.4h.4v3.6h.5v19.7h1V19.1h.5v-3.6h.4v-4.4z"/><path class="st21" d="M295.7 11.1h2.8v4.4h-2.8zM296.6 19.1V18h1v1.1h.5v-3.4h-2v3.4z"/><path class="st21" d="M296.6 18h1.1v20.8h-1.1z"/><path class="st22" d="M388.7 11.1v4.4h.4v3.6h.4v19.7h1.1V19.1h.5v-3.6h.4v-4.4z"/><path class="st21" d="M388.7 11.1h2.8v4.4h-2.8zM389.5 19.1V18h1.1v1.1h.5v-3.4h-2v3.4z"/><path class="st21" d="M389.5 18h1.1v20.8h-1.1z"/><path class="st23" d="M482.8 77.1h51.6v18.5"/><path class="st23" d="M548.8 95.8V72.9h69.1V62.7H495.4V2.3h-10.3v60.4h-2.5M548.8 168.3v71.2M534.4 239v-37.5l-117.6.1v28.5h-23.3v52.3h-24.9"/><path class="st23" d="M368.6 279.1h21.7v-53M391.7 226.1h1.8v.7h20v-25.3h-20v.5h-1.8M390.3 202l-.1-10.8M390.3 187h144.1v-18.5M349.4 190.7h-1.2v47.5h-5.3M409.9 77.1H404v12h-3.2v-12h-24.7v65.7h24.7v-11.9h3.2v15.2h-55.8V187h1.2"/><path class="st23" d="M342.9 234.9h1.2v-104h4.1v11.9h24.7V85.9h-24.7v3.2h-4.1v-12h-16.6M254.6 77.1h-29.3V181H302v53.5M302 238.2h-4.2"/><path class="st23" d="M297.8 234.5v-49.3h-62v10.7h-11.6v39h37.3"/><path class="st23" d="M261.5 238.2h-52.8v-12.3h-6.1M202.6 221.4h6.1v-34.1h-9.3v-32.6h-86.7v28.9h-6.5v.3M100.7 183.9v-27.8H16.9v65.2h83.8v-.1M106.2 221.2v.3h24.4M131.7 222.6h33.7M165.4 225.9h-6.1v67.7h-11.4M144.6 276.9v-.6h-17v-4.8M127.6 267.5h17V237H88.4v30.5h.7"/><path class="st23" d="M89.1 271.5v4.8h-9.5V237H2.1v-98.5h208.8V2.3h10.2v60.4h33.7M410 62.7h-82.7M548.8 266.6v102h69.1v10.2h-62.1v14.4h-7v3.7M548.8 424v4.1h7v30.2h-30.2v-7h-4.1M522 436.9h12.4v-12.4M534.4 396.5v-69.7h-42.3v-25.1H534V267M494 436.9h-47.4M446.4 451.3h19.7v67.4h10.2v-60.4h14.4v-7h3.7M369.2 451.3h-4v16.3h-38.1v-16.3h-28.4M298.9 436.9H369M244.8 451.3h-23.7v67.4h-10.2v-97.9"/><path class="st23" d="M225.3 421v15.9h19.3M210.9 366.8v-20.1h-77.4v-10.2h11.1v-3.2M147.9 332.8H222v-53.7h3.7V307h24.7v-24.6h-.5v-3.3h77.8M327.7 282.4h-2.4v7.6M320.6 291.1v36.1"/><path class="st23" d="M317.3 327.2v-.9h-10.2v-16.1h-5.8V307h5.8v-24.6h-53.5V307h5.8v3.2h-34.1v56.5"/><path transform="rotate(90 515.827 309.674)" class="st23" d="M511.1 289.2h9.4v40.9h-9.4z"/><path transform="rotate(90 360.556 79.198)" class="st23" d="M356.6 66.9h7.9v24.6h-7.9z"/><path transform="rotate(90 346.145 446.92)" class="st23" d="M338 440.4h16.3v13H338z"/><path transform="rotate(90 206.401 167.758)" class="st23" d="M189.7 163.6h33.5v8.4h-33.5z"/><path transform="rotate(90 227.182 188.445)" class="st23" d="M223 182.6h8.4v11.6H223z"/><path transform="rotate(90 105.836 165.925)" class="st23" d="M90.9 161.9h29.8v8.1H90.9z"/><path d="M316.9 38.8c-.7 1.5-1.5 2.8-2.5 4-.3-.3-.6-.6-.9-.8 1.7-2 3-4.6 3.9-8.1l1.1.4c-.6 1.9-1.1 3.4-1.6 4.5zm7.9 3.6c-.9-2.8-2.2-5.5-3.9-8.2l.9-.6c1.8 2.7 3.2 5.5 4.2 8.3l-1.2.5zm-.5-7c-.3-.5-.8-1-1.4-1.6l.6-.5c.6.5 1.1 1 1.5 1.5l-.7.6zm1.2-1c-.3-.5-.8-1-1.4-1.6l.6-.5c.6.5 1.1 1 1.5 1.5l-.7.6zM330.6 39.2c-.5 1.8-1.5 3.3-3 4.6-.2-.3-.5-.6-.7-.9 1.1-.8 2-1.8 2.4-3 .4-1 .6-2.2.7-3.8v-2.6h1.1c0 2.7-.2 4.5-.5 5.7zm3.6 4.3-.8-.8.1-.2v-9.9h1.1v9.3c1.5-1.1 3-2.6 4.4-4.4.2.3.5.5.8.7-1.8 2.3-3.7 4-5.6 5.3zM349.1 43.6v-.8h-7.9v-1h7.9v-6h-7.9v-1.1h9.1v8.9h-1.2zM352.2 42.2v-1.1h12.1v1.1h-12.1zm1.7-6.9v-1.1h8.6v1.1h-8.6zM365.6 38.6v-1h11.1v1h-11.1zM575.8 203.7c-.7 1.5-1.5 2.8-2.5 4-.3-.3-.6-.6-.9-.8 1.7-2 3-4.6 3.9-8.1l1.1.4c-.5 1.9-1 3.4-1.6 4.5zm8 3.6c-.9-2.8-2.2-5.5-3.9-8.2l.9-.6c1.8 2.7 3.2 5.5 4.2 8.3l-1.2.5zm-.5-7.1c-.3-.5-.8-1-1.4-1.6l.6-.5c.6.5 1.1 1 1.5 1.5l-.7.6zm1.2-.9c-.3-.5-.8-1-1.4-1.6l.6-.5c.6.5 1.1 1 1.5 1.5l-.7.6zM576.3 215.8c-.5 1.8-1.5 3.3-3 4.6-.2-.3-.5-.6-.7-.9 1.1-.8 2-1.8 2.4-3 .4-1 .6-2.2.7-3.8v-2.6h1.1c-.1 2.6-.2 4.5-.5 5.7zm3.6 4.3-.8-.8.1-.2v-9.9h1.1v9.3c1.5-1.1 3-2.6 4.4-4.4.2.3.5.5.8.7-1.9 2.2-3.7 4-5.6 5.3zM582 231v-.8h-7.9v-1h7.9v-6h-7.9v-1.1h9.1v8.9H582zM572.7 241.1V240h12.1v1.1h-12.1zm1.8-6.9v-1.1h8.6v1.1h-8.6zM578.4 254.1V243h1v11.1h-1zM379.7 476.1c-.7 1.5-1.5 2.8-2.5 4-.3-.3-.6-.6-.9-.8 1.7-2 3-4.6 3.9-8.1l1.1.4c-.5 1.9-1.1 3.4-1.6 4.5zm7.9 3.6c-.9-2.8-2.2-5.5-3.9-8.2l.9-.6c1.8 2.7 3.2 5.5 4.2 8.3l-1.2.5zm-.4-7.1c-.3-.5-.8-1-1.4-1.6l.6-.5c.6.5 1.1 1 1.5 1.5l-.7.6zm1.1-.9c-.3-.5-.8-1-1.4-1.6l.6-.5c.6.5 1.1 1 1.5 1.5l-.7.6zM393.5 476.5c-.5 1.8-1.5 3.3-3 4.6-.2-.3-.5-.6-.7-.9 1.1-.8 2-1.8 2.4-3 .4-1 .6-2.2.7-3.8v-2.6h1.1c-.1 2.6-.2 4.5-.5 5.7zm3.6 4.3-.8-.8.1-.2v-9.9h1.1v9.3c1.5-1.1 3-2.6 4.4-4.4.2.3.5.5.8.7-1.8 2.2-3.7 4-5.6 5.3zM411.9 480.8v-.8H404v-1h7.9v-6H404v-1h9.1v8.9h-1.2zM415.1 479.5v-1.1h12.1v1.1h-12.1zm1.7-6.9v-1.1h8.6v1.1h-8.6zM428.4 475.9v-1h11.1v1h-11.1zM340 253.1v1h4.3v.7h-8.4v3.4c0 1.3-.1 2.3-.2 2.9-.2.8-.5 1.6-1 2.5-.2-.2-.4-.4-.7-.5.4-.7.7-1.4.9-2.2.1-.6.2-1.4.2-2.7v-4.1h4.1v-1h.8zm-1.2 2.2v.9h1.3v3.7h-2.7v2c.6-.1 1.1-.2 1.8-.3-.1-.3-.3-.6-.4-.9l.7-.2c.4.7.7 1.5.9 2.3l-.8.2c-.1-.2-.1-.4-.2-.6-1.2.3-2.3.5-3.4.7l-.2-.8c.3 0 .6-.1.9-.1v-5.9h1.4v-.9h.7zm.6 2.4v-.8h-2v.8h2zm0 1.6v-.9h-2v.9h2zm4.2-3.6.7.4c-.3.8-.7 1.6-1.1 2.4.4.7.7 1.2.8 1.5.1.4.2.7.2 1.1 0 .3-.1.6-.1.7-.1.2-.3.4-.6.5-.3.1-.7.1-1.1.1-.1-.2-.2-.5-.3-.8.7 0 1.1 0 1.2-.1.1-.1.1-.2.1-.5s-.1-.6-.1-.9c-.1-.3-.4-.8-.9-1.5.4-.8.7-1.5 1-2.2h-1.8v7.1h-.7v-7.8h2.7zM355.8 254v.7H351v1.7c1.3.7 2.4 1.5 3.4 2.4l-.5.6c-.8-.8-1.8-1.5-2.8-2.1v6.1h-.8v-8.7h-4.5v-.7h10zM129.4 214.9v-.7h5.5l.4-4.2h-4.8v-.7h5.5l-.4 5h2.3v.7h-8.5zM138.9 212.4v-.7h7.6v.7h-7.6zM151.9 211.5c-.1 1.5-.4 2.5-.8 3.1-.4.6-1.2 1.2-2.5 1.8-.1-.2-.3-.5-.5-.7 1.2-.4 1.9-.9 2.3-1.4.4-.5.6-1.4.7-2.7h-4v-.7h8.4v.7h-3.6zm-3.3-2.3v-.7h5.6v.7h-5.6zM160.5 212.2v4.3h-.6v-3.8c-.8.7-1.8 1.3-2.9 1.8-.1-.2-.2-.4-.4-.6.9-.4 1.8-.9 2.8-1.7.9-.7 1.7-1.4 2.3-2.3l.6.5c-.6.7-1.3 1.3-1.8 1.8zM164 213.1v-4.6h.7v4.6h-.7zm4.9-2.6c0 1.2-.1 2.1-.3 2.7-.2.7-.5 1.3-1 1.8s-1.3.8-2.4 1.2c-.1-.3-.2-.5-.4-.7 1.4-.4 2.3-.9 2.8-1.6.4-.6.6-1.7.6-3.3v-2.5h.7v2.4zM175.1 211.5c-.1 1.5-.4 2.5-.8 3.1-.4.6-1.2 1.2-2.5 1.8-.1-.2-.3-.5-.5-.7 1.2-.4 1.9-.9 2.3-1.4.4-.5.6-1.4.7-2.7h-4v-.7h8.4v.7h-3.6zm-3.3-2.3v-.7h5.6v.7h-5.6zM183.6 212.2v4.3h-.6v-3.8c-.8.7-1.8 1.3-2.9 1.8-.1-.2-.2-.4-.4-.6.9-.4 1.8-.9 2.8-1.7.9-.7 1.7-1.4 2.3-2.3l.6.5c-.6.7-1.2 1.3-1.8 1.8zM513.8 309.8c-.3.2-.6.3-1 .3h-1.3v2h-.5v-4.6h1.6c.5 0 .9.1 1.2.3.4.2.5.6.5 1 0 .5-.2.8-.5 1zm-1.1-1.8h-1.2v1.7h1.2c.7 0 1.1-.3 1.1-.8-.1-.6-.4-.9-1.1-.9zM520.3 311.9c-.3.2-.7.3-1.1.3-.5 0-.8-.1-1.2-.3-.3-.2-.5-.6-.6-1h.6c.1.3.2.6.4.7.2.1.4.2.8.2.3 0 .5-.1.7-.2.2-.2.4-.4.4-.6 0-.3-.4-.6-1.1-.9-1-.4-1.5-.9-1.5-1.4 0-.4.2-.7.5-.9.3-.2.6-.3 1-.3.7 0 1.2.4 1.5 1.2h-.6c-.2-.5-.5-.7-.9-.7-.3 0-.5.1-.7.2-.2.1-.3.3-.3.6 0 .2.2.5.7.7.4.2.8.5 1.3.7.5.3.7.6.7 1-.1.2-.2.5-.6.7zM358.5 79.4c-.3.2-.6.3-1 .3h-1.3v2h-.5v-4.6h1.6c.5 0 .9.1 1.2.3.4.2.5.6.5 1s-.2.7-.5 1zm-1.1-1.9h-1.2v1.7h1.2c.7 0 1.1-.3 1.1-.8-.1-.6-.4-.9-1.1-.9zM365 81.5c-.3.2-.7.3-1.1.3-.5 0-.8-.1-1.2-.3-.3-.2-.5-.6-.6-1h.6c.1.3.2.6.4.7.2.1.4.2.8.2.3 0 .5-.1.7-.2.2-.2.4-.4.4-.6 0-.3-.4-.6-1.1-.9-1-.4-1.5-.9-1.5-1.4 0-.4.2-.7.5-.9.3-.2.6-.3 1-.3.7 0 1.2.4 1.5 1.2h-.6c-.2-.5-.5-.7-.9-.7-.3 0-.5.1-.7.2-.2.1-.3.3-.3.6 0 .2.2.5.7.7.4.2.8.5 1.3.7.5.3.7.6.7 1-.1.1-.2.4-.6.7zM345.3 447.1c-.3.2-.6.3-1 .3H343v2h-.5v-4.6h1.6c.5 0 .9.1 1.2.3.4.2.5.6.5 1s-.2.7-.5 1zm-1.1-1.9H343v1.7h1.2c.7 0 1.1-.3 1.1-.8-.1-.6-.4-.9-1.1-.9zM349.4 449.2c-.3.2-.7.3-1.1.3-.5 0-.8-.1-1.2-.3-.3-.2-.5-.6-.6-1h.6c.1.3.2.6.4.7.2.1.4.2.8.2.3 0 .5-.1.7-.2.2-.2.4-.4.4-.6 0-.3-.4-.6-1.1-.9-1-.4-1.5-.9-1.5-1.4 0-.4.2-.7.5-.9.3-.2.6-.3 1-.3.7 0 1.2.4 1.5 1.2h-.6c-.2-.5-.5-.7-.9-.7-.3 0-.5.1-.6.2-.2.1-.3.3-.3.6 0 .2.2.5.7.7.4.2.8.5 1.3.7.5.3.7.6.7 1-.2.1-.4.4-.7.7zM226.4 188.6c-.3.2-.6.3-1 .3H224v2h-.5v-4.6h1.6c.5 0 .9.1 1.2.3.4.2.5.6.5 1s-.1.8-.4 1zm-1.2-1.8H224v1.7h1.2c.7 0 1.1-.3 1.1-.8 0-.6-.4-.9-1.1-.9zM230.4 190.7c-.3.2-.7.3-1.1.3-.5 0-.8-.1-1.2-.3-.3-.2-.5-.6-.6-1h.6c.1.3.2.6.4.7.2.1.4.2.8.2.3 0 .5-.1.7-.2.2-.2.4-.4.4-.6 0-.3-.4-.6-1.1-.9-1-.4-1.5-.9-1.5-1.4 0-.4.2-.7.5-.9.3-.2.6-.3 1-.3.7 0 1.2.4 1.5 1.2h-.6c-.2-.5-.5-.7-.9-.7-.3 0-.5.1-.6.2-.2.1-.3.3-.3.6 0 .2.2.5.7.7.4.2.8.5 1.3.7.5.3.7.6.7 1-.2.1-.3.5-.7.7zM207.6 164c-.3.2-.6.3-1 .3h-1.3v2h-.5v-4.6h1.6c.5 0 .9.1 1.2.3.4.2.5.6.5 1 0 .5-.2.8-.5 1zm-1.1-1.8h-1.2v1.7h1.2c.7 0 1.1-.3 1.1-.8-.1-.6-.4-.9-1.1-.9zM207.6 173.5c-.3.2-.7.3-1.1.3-.5 0-.8-.1-1.2-.3-.3-.2-.5-.6-.6-1h.6c.1.3.2.6.4.7.2.1.4.2.8.2.3 0 .5-.1.7-.2.2-.2.4-.4.4-.6 0-.3-.4-.6-1.1-.9-1-.4-1.5-.9-1.5-1.4 0-.4.2-.7.5-.9.3-.2.6-.3 1-.3.7 0 1.2.4 1.5 1.2h-.6c-.2-.5-.5-.7-.9-.7-.3 0-.5.1-.6.2-.2.1-.3.3-.3.6 0 .2.2.5.7.7.4.2.8.5 1.3.7.5.3.7.6.7 1-.2.1-.4.5-.7.7zM107 162.1c-.3.2-.6.3-1 .3h-1.3v2h-.5v-4.6h1.6c.5 0 .9.1 1.2.3.4.2.5.6.5 1 0 .5-.1.8-.5 1zm-1.1-1.8h-1.2v1.7h1.2c.7 0 1.1-.3 1.1-.8-.1-.6-.4-.9-1.1-.9zM107 171.6c-.3.2-.7.3-1.1.3-.5 0-.8-.1-1.2-.3-.3-.2-.5-.6-.6-1h.6c.1.3.2.6.4.7.2.1.4.2.8.2.3 0 .5-.1.7-.2.2-.2.4-.4.4-.6 0-.3-.4-.6-1.1-.9-1-.4-1.5-.9-1.5-1.4 0-.4.2-.7.5-.9.3-.2.6-.3 1-.3.7 0 1.2.4 1.5 1.2h-.6c-.2-.5-.5-.7-.9-.7-.3 0-.5.1-.6.2-.2.1-.3.3-.3.6 0 .2.2.5.7.7.4.2.8.5 1.3.7.5.3.7.6.7 1-.1.2-.3.5-.7.7zM239.1 361.7c0 .5-.1.8-.1 1 0 .1-.1.2-.2.3-.1.1-.4.1-.9.1 0-.1-.1-.2-.1-.3h.5c.2 0 .3-.1.4-.2.1-.1.1-.4.1-.7v-1h-1.3c-.1.6-.3 1-.6 1.4-.3.4-.8.7-1.4.9l-.3-.3c.6-.2 1-.5 1.3-.8.3-.3.5-.7.6-1.2h-1.5v-.3h1.5v-.9h.5v.9h1.8l-.3 1.1zM237.1 367v-3.3h.4v3.3h-.4zM237.6 368.8c-.1.6-.2 1.1-.5 1.4-.2.3-.7.5-1.4.8-.1-.1-.1-.2-.3-.3.7-.2 1.1-.4 1.4-.6.2-.2.4-.6.4-1.2h-2.3v-.3h4.9v.3h-2.2zm-1.9-.9v-.3h3.3v.3h-3.3zM237.9 373.8c-.6.3-1.3.7-2.2 1l-.3-.4c1.5-.4 2.9-1.1 4-2.2.1.1.2.2.3.2-.6.6-1.3 1.1-1.8 1.4zm-1.2-1.3c-.4-.3-.8-.5-1.2-.7l.3-.3c.5.2.9.4 1.3.7l-.4.3zM235.3 378.4c-.1-.1-.3-.1-.4-.2.4-.4.8-.8 1.1-1.3l.4.2c-.3.5-.7.9-1.1 1.3zm2.2-1.9v2.4h-.4v-2.4H235v-.3h2.1v-.9h.4v.9h2.3v.3h-2.3zm1.9 1.8c-.5-.3-.9-.8-1.3-1.3l.4-.2c.4.5.8.9 1.3 1.2-.2.2-.3.2-.4.3zm-.4-2.3c-.1-.1-.4-.3-.6-.4l.2-.2c.3.1.5.3.6.4l-.2.2zm.4-.3c-.1-.1-.4-.3-.6-.4l.2-.2c.3.1.5.3.6.4l-.2.2zM236.9 380.5c-.1-.2-.3-.5-.6-.7l.3-.1c.2.2.4.5.6.8h-.3zm2.6.1c-.3.4-.6.7-1 .9-.3.2-.8.4-1.3.6-.1-.1-.1-.2-.2-.3.5-.1.9-.2 1.2-.4.3-.2.6-.4.9-.8.2-.3.4-.6.5-1.1l.4.1-.5 1zm-1.5-.4c-.1-.2-.3-.5-.5-.8l.3-.1c.2.3.4.5.5.8l-.3.1zM238.1 385.1c-.6.4-1.3.8-2.2 1-.1-.1-.1-.2-.2-.3.8-.2 1.5-.4 2-.8.4-.3.8-.8 1.2-1.5H237c-.4.5-.8.9-1.3 1.2-.1-.1-.2-.2-.4-.2.4-.3.8-.6 1.1-.9.2-.2.5-.6.8-1.1l.5.1c-.1.1-.2.3-.4.5H239.2l.3.2c-.5.8-.9 1.4-1.4 1.8zM239.3 389.6c-.5-.5-1-1-1.7-1.4-.6.5-1.4 1-2.3 1.4l-.3-.3c.8-.3 1.5-.6 2-1 .4-.3.9-.8 1.5-1.5h-2.9v-.3h3.2l.3.2c-.4.5-.7.9-1 1.2.7.5 1.3.9 1.8 1.4l-.6.3zM237.7 391.2h-.7l-.1-.1v-.4l.1-.1h.6l.1.1v.5zM239.1 394.2c0 .5-.1.8-.1 1 0 .1-.1.2-.2.3-.1.1-.4.1-.9.1 0-.1-.1-.2-.1-.3h.5c.2 0 .3-.1.4-.2.1-.1.1-.4.1-.7v-1h-1.3c-.1.6-.3 1-.6 1.4-.3.4-.8.7-1.4.9l-.3-.3c.6-.2 1-.5 1.3-.8.3-.3.5-.7.6-1.2h-1.5v-.3h1.5v-.9h.5v.9h1.8l-.3 1.1zM237.1 399.5v-3.3h.4v3.3h-.4zM237.6 401.4c-.1.6-.2 1.1-.5 1.4-.2.3-.7.5-1.4.8-.1-.1-.1-.2-.3-.3.7-.2 1.1-.4 1.4-.6.2-.2.4-.6.4-1.2h-2.3v-.5h4.9v.3h-2.2zm-1.9-1v-.3h3.3v.3h-3.3zM237.9 406.3c-.6.3-1.3.7-2.2 1l-.3-.4c1.5-.4 2.9-1.1 4-2.2.1.1.2.2.3.2-.6.7-1.3 1.1-1.8 1.4zm-1.2-1.3c-.4-.3-.8-.5-1.2-.7l.3-.3c.5.2.9.4 1.3.7l-.4.3zM238.5 409.9c-.5.3-1 .5-1.5.7-.4.2-.7.3-.9.4l-.4-.2v-3.1h.4v2.8c.8-.3 1.4-.5 1.8-.8.4-.2.9-.6 1.4-1.1.1.1.2.2.3.2-.3.6-.7.9-1.1 1.1zM237.1 414.8v-3.3h.4v3.3h-.4zM236.3 417.1c-.2.5-.6 1-1.2 1.4l-.3-.3c.5-.2.8-.5 1-.9.2-.3.3-.7.3-1.1v-.8h.4c0 .8-.1 1.4-.2 1.7zm1.4 1.3-.3-.2.1-.1v-3h.4v2.8c.6-.3 1.2-.8 1.8-1.3.1.1.2.1.3.2-.8.7-1.5 1.3-2.3 1.6zM238.2 423.4h-.3l-.6-2.9-.6 2.9h-.3l-.7-3.6h.3l.5 2.9.6-2.9h.3l.6 2.9.6-2.9h.3l-.7 3.6zM293.2 210.5c-.5.7-1.4 1.2-2.6 1.6-.1-.2-.2-.4-.3-.5 1-.2 1.8-.6 2.2-1.2.5-.6.8-1.4.8-2.4H290v1.6h-.5v-2.1h2v-1.2h.5v1.2h2c0 1.4-.3 2.4-.8 3zM293.4 214.2v2.3c0 .2 0 .4-.1.5-.1.1-.3.1-.7.2 0-.2-.1-.4-.1-.5h.3c.2 0 .2-.1.2-.2v-1.7c-.6.8-1.4 1.4-2.3 1.9-.1-.1-.2-.3-.3-.4 1-.5 1.8-1.2 2.4-2h-2.2v-.4h2.3v-1h.4v1h1.5v.4h-1.4zM290.6 220.6l-1.2-.6.2-.4c.5.2.9.3 1.2.5l-.2.5zm1.9 1.2c-.7.5-1.5.9-2.5 1.3l-.3-.5c1.8-.6 3.3-1.6 4.5-3 .1.1.2.3.3.4-.7.7-1.3 1.3-2 1.8zm-1.2-2.7c-.4-.3-.8-.5-1.2-.7l.2-.4c.5.3.9.5 1.2.7l-.2.4zM290.3 227.1v-.4h2.9l.2-2.2h-2.5v-.5h2.9l-.2 2.6h1.3v.4h-4.6zM285.2 212.2c-.5.4-1.1.8-1.7 1.1-.5.2-.8.4-1 .6l-.4-.4v-4.6h.5v4.2c.9-.4 1.6-.8 2.1-1.2.5-.4 1-.9 1.6-1.6.1.1.2.3.4.4l-1.5 1.5zM283.4 216.3c-.2-.3-.4-.7-.7-1.1l.4-.2c.2.4.5.7.7 1.2l-.4.1zm2.9.2c-.3.6-.7 1-1.1 1.4-.4.3-.9.6-1.5.9-.1-.2-.2-.3-.3-.4.6-.2 1-.4 1.4-.6.4-.3.7-.7 1-1.2.2-.4.4-1 .6-1.6l.5.1c-.2.5-.4 1-.6 1.4zm-1.6-.6c-.1-.4-.3-.8-.5-1.1l.4-.2c.2.4.4.8.6 1.1l-.5.2zM286 222.8c-.7-.4-1.6-.8-2.7-1.2v3.3h-.5v-5.6h.5v1.8c1 .3 2 .7 3 1.2l-.3.5zM254 196.7c-.5.1-1.1.2-1.9.3v.8h2v.4h-2v.9h2.3v.4h-2.3v1.4c0 .1-.1.2-.3.3-.2.1-.4.1-.8.1 0-.1 0-.3-.2-.4h.6c.1 0 .1 0 .1-.1v-1.3h-2.2v-.4h2.2v-.9h-2v-.4h2v-.8c-.6.1-1.2.1-1.8.1-.1-.2-.1-.3-.2-.4.8 0 1.6-.1 2.2-.1.6-.1 1.2-.2 1.9-.3l.4.4zM256.2 199.5l-.9 1.8-.4-.2 1-1.8c.1.1.2.2.3.2zm-.2-1.2-.2.3c-.2-.2-.5-.4-.8-.5l.2-.3c.3.1.6.3.8.5zm.3-1.3-.2.3c-.2-.3-.5-.5-.7-.6l.2-.3c.2.1.4.3.7.6zm1.1-.4c-.1.3-.2.5-.3.7h.8v-1h.4v1h1.4v.3h-1.4v1h1.7v.3h-1.2v1.8c0 .1 0 .1.1.1h.6c.1 0 .2-.1.2-.1.1-.1.1-.2.1-.4.1.1.2.1.4.1 0 .2-.1.4-.2.6-.1.2-.2.2-.4.2h-.7c-.3 0-.4-.2-.4-.5V199h-.8c0 .7-.1 1.2-.3 1.5-.2.3-.6.6-1.1.8-.1-.1-.1-.3-.2-.4.5-.2.9-.5 1-.8.1-.3.2-.6.2-1.1h-1.1v-.3h1.7v-1h-1c-.1.3-.3.5-.4.7-.1-.1-.2-.2-.3-.2.2-.3.4-.5.5-.8.1-.3.2-.5.3-.8h.4zM264.9 199c0 .6-.1 1.1-.1 1.4 0 .2-.1.3-.2.4-.1.1-.4.1-.9.2 0-.1-.1-.3-.1-.4h.5c.2 0 .3-.1.4-.2.1-.2.1-.5.1-1v-1.3h-1.3c-.1.8-.3 1.4-.6 1.9s-.8.9-1.4 1.3c-.1-.1-.2-.3-.3-.4.6-.3 1-.7 1.3-1.1.3-.4.5-1 .6-1.6h-1.5v-.4h1.5v-1.2h.5v1.2h1.8l-.3 1.2zM268.9 199.8c-.4.6-1.2 1.1-2.3 1.4-.1-.2-.2-.3-.2-.4.9-.2 1.5-.6 2-1 .5-.5.7-1.2.7-2.1h-3v1.4h-.4v-1.8h1.7v-1h.4v1h1.8c0 1.1-.3 1.9-.7 2.5zM272.8 199.7c-.6.4-1.3.9-2.2 1.3l-.3-.5c1.5-.5 2.9-1.5 4-2.9l.3.3c-.7.8-1.3 1.4-1.8 1.8zm-1.2-1.7c-.4-.4-.8-.7-1.2-1l.3-.4c.5.3.9.6 1.3.9l-.4.5zM278.1 199.7c-.6.6-1.3 1.1-2.3 1.5-.1-.1-.1-.2-.3-.4.9-.3 1.6-.8 2.2-1.4-.3-.3-.7-.6-1-.8l.2-.3c.4.3.8.5 1.1.8.3-.4.6-.9.9-1.5h-1.8c-.5.7-1 1.2-1.7 1.6-.1-.1-.2-.3-.3-.4.6-.4 1-.7 1.2-1 .3-.3.5-.8.8-1.4l.5.2-.3.6h1.8l.3.3c-.4.9-.9 1.7-1.3 2.2zM280 198.9v-.4h4.5v.4H280zM252.9 229.1v-3.8h.4v3.5h2.4v.4h-2.8zM258.7 225v.3h-.5v.6h.6v.3h-.6v1h-.3v-1h-.6c0 .2-.1.4-.2.6-.1.3-.4.5-.7.7-.1-.1-.1-.2-.2-.3.3-.1.5-.3.6-.6.1-.1.1-.2.1-.4h-.6v-.3h.7v-.6h-.5v-.3h2.2zm-.4 2.8v-.4h.3v.4h1.5v.3h-1.5v.6h2v.3h-4.3v-.3h2v-.6h-1.4v-.3h1.4zm-.4-2.5h-.6v.6h.6v-.6zm1.5-.2v1.8h-.3v-1.8h.3zm1-.3v2.3c0 .1-.1.2-.2.2-.1.1-.3.1-.5.1 0-.1 0-.2-.1-.4h.4s.1 0 .1-.1v-2.2h.3zM265.2 225.2c-.4.1-.9.2-1.6.2v.7h1.7v.3h-1.7v.8h2v.3h-2v1.2c0 .1-.1.2-.2.3-.1.1-.4.1-.6.1 0-.1 0-.3-.1-.4h.5c.1 0 .1 0 .1-.1v-1.1h-1.9v-.3h1.9v-.8h-1.7v-.3h1.7v-.7c-.5 0-1.1.1-1.5.1 0-.2-.1-.3-.2-.3.7 0 1.3 0 1.9-.1.5-.1 1.1-.1 1.6-.2l.1.3zM266.7 225.8v-1h.3v1h.4v.3h-.4v.7c.1 0 .3-.1.4-.2v.3c-.1.1-.3.1-.4.2v1.7c0 .1-.1.2-.2.2s-.3.1-.6.1c0-.1 0-.2-.1-.3h.5c.1 0 .1 0 .1-.1v-1.5c-.2.1-.4.2-.6.2l-.1-.3c.2-.1.4-.1.7-.2v-.9h-.6v-.3h.6zm2.1-.8v1.8l.3.1-.1.4h1.1v2h-.3v-.3h-1.6v.2h-.3v-2h.9l.1-.4c-.1 0-.2.1-.5.1 0-.1 0-.3-.1-.3h.2c.1 0 .1 0 .1-.1v-1.3h-1v-.2h1.2zm-.5 1.3c-.3.1-.6.2-.8.3l-.1-.3c.2-.1.5-.2.9-.3v.3zm-.1-.5-.2.2-.4-.4.1-.2c.2.1.3.2.5.4zm1.5 2.2v-.4h-1.6v.4h1.6zm0 .7v-.5h-1.6v.5h1.6zm.6-3.7v1.7c0 .1 0 .2-.1.2s-.2.1-.5.1c0-.1 0-.3-.1-.3H269.9v-1.3h-1v-.4h1.4zm-.7.8-.2.2c-.1-.1-.3-.2-.5-.3l.1-.2c.3.1.5.2.6.3zm.2.5c-.3.1-.5.2-.7.3l-.1-.3c.2-.1.5-.2.8-.3v.3zM430.8 86.9c0 .6-.1 1.1-.1 1.4 0 .2-.1.3-.2.4-.1.1-.4.1-.9.2 0-.1-.1-.3-.1-.4h.5c.2 0 .3-.1.4-.2.1-.2.1-.5.1-1V86H429c-.1.8-.3 1.4-.6 1.9s-.8.9-1.4 1.3c-.1-.1-.2-.3-.3-.4.6-.3 1-.7 1.3-1.1.3-.4.5-1 .6-1.6h-1.5v-.4h1.5v-1.2h.5v1.2h1.8l-.1 1.2zM431.4 86.8v-.4h4.5v.4h-4.5zM439 86.3c-.1.9-.2 1.5-.5 1.8-.2.3-.7.7-1.4 1-.1-.1-.1-.3-.3-.4.7-.2 1.1-.5 1.4-.8.2-.3.4-.8.4-1.6h-2.3v-.4h4.9v.4H439zm-1.9-1.4v-.4h3.3v.4h-3.3zM444.2 87.6c-.6.4-1.3.9-2.2 1.3l-.3-.5c1.5-.5 2.9-1.5 4-2.9l.3.3c-.6.8-1.2 1.4-1.8 1.8zm-1.2-1.8c-.4-.4-.8-.7-1.2-1l.3-.4c.5.3.9.6 1.3.9l-.4.5zM449.6 87.2c-.5.4-1 .7-1.5 1-.4.2-.7.4-.9.5l-.4-.3v-4h.4v3.7c.8-.3 1.4-.7 1.8-1 .4-.3.9-.8 1.4-1.4l.3.3c-.3.5-.7.9-1.1 1.2zM451.2 86.8v-.4h4.5v.4h-4.5zM457.6 87c-.2.7-.6 1.3-1.2 1.9-.1-.1-.2-.3-.3-.4.5-.3.8-.7 1-1.2.2-.4.3-.9.3-1.5v-1h.4c0 1-.1 1.8-.2 2.2zm1.4 1.7-.3-.3.1-.1v-4h.4V88c.6-.4 1.2-1 1.8-1.8l.3.3c-.8 1-1.5 1.7-2.3 2.2zM464.9 88.6h-.4l-.7-2.9-.8 2.9h-.4l-.9-3.6h.4l.7 2.9.8-2.9h.4l.7 2.9.7-2.9h.4l-.9 3.6zM275.7 87c0 .6-.1 1.1-.1 1.4 0 .2-.1.3-.2.4-.1.1-.4.1-.9.2 0-.1-.1-.3-.1-.4h.5c.2 0 .3-.1.4-.2.1-.2.1-.5.1-1v-1.3h-1.3c-.1.8-.3 1.4-.6 1.9s-.8.9-1.4 1.3c-.1-.1-.2-.3-.3-.4.6-.3 1-.7 1.3-1.1.3-.4.5-1 .6-1.6H272v-.4h1.5v-1.2h.5v1.2h1.8l-.1 1.2zM276.3 86.9v-.4h4.5v.4h-4.5zM283.9 86.3c-.1.9-.2 1.5-.5 1.8-.2.3-.7.7-1.4 1-.1-.1-.1-.3-.3-.4.7-.2 1.1-.5 1.4-.8.2-.3.4-.8.4-1.6h-2.3v-.4h4.9v.4h-2.2zM282 85v-.4h3.3v.4H282zM289.2 87.7c-.6.4-1.3.9-2.2 1.3l-.3-.5c1.5-.5 2.9-1.5 4-2.9l.3.3-1.8 1.8zm-1.2-1.8c-.4-.4-.8-.7-1.2-1l.3-.4c.5.3.9.6 1.3.9l-.4.5zM294.5 87.3c-.5.4-1 .7-1.5 1-.4.2-.7.4-.9.5l-.4-.3v-4h.4v3.7c.8-.3 1.4-.7 1.8-1 .4-.3.9-.8 1.4-1.4l.3.3c-.3.5-.7.9-1.1 1.2zM296.2 86.9v-.4h4.5v.4h-4.5zM302.5 87.1c-.2.7-.6 1.3-1.2 1.9-.1-.1-.2-.3-.3-.4.5-.3.8-.7 1-1.2.2-.4.3-.9.3-1.5v-1h.4c0 1 0 1.7-.2 2.2zm1.5 1.7-.3-.3.1-.1v-4h.4v3.7c.6-.4 1.2-1 1.8-1.8l.3.3c-.8 1-1.6 1.7-2.3 2.2zM309.8 88.7h-.4l-.7-2.9-.8 2.9h-.4l-.9-3.6h.4l.7 2.9.8-2.9h.4l.7 2.9.7-2.9h.4l-.9 3.6zM526.3 112.4c0 .6-.1 1.1-.1 1.4 0 .2-.1.3-.2.4-.1.1-.4.1-.9.2 0-.1-.1-.3-.1-.4h.5c.2 0 .3-.1.4-.2.1-.2.1-.5.1-1v-1.3h-1.3c-.1.8-.3 1.4-.6 1.9s-.8.9-1.4 1.3c-.1-.1-.2-.3-.3-.4.6-.3 1-.7 1.3-1.1.3-.4.5-1 .6-1.6h-1.5v-.4h1.5V110h.5v1.2h1.8l-.3 1.2zM524.4 119.5V115h.4v4.5h-.4zM524.9 121.9c-.1.9-.2 1.5-.5 1.8-.2.3-.7.7-1.4 1-.1-.1-.1-.3-.3-.4.7-.2 1.1-.5 1.4-.8.2-.3.4-.8.4-1.6h-2.3v-.4h4.9v.4h-2.2zm-2-1.3v-.4h3.3v.4h-3.3zM525.1 128.6c-.6.4-1.3.9-2.2 1.3l-.3-.5c1.5-.5 2.9-1.5 4-2.9l.3.3c-.6.7-1.2 1.3-1.8 1.8zm-1.2-1.8c-.4-.4-.8-.7-1.2-1l.3-.4c.5.3.9.6 1.3.9l-.4.5zM525.7 133.3c-.5.4-1 .7-1.5 1-.4.2-.7.4-.9.5l-.4-.3v-4h.4v3.7c.8-.3 1.4-.7 1.8-1 .4-.3.9-.8 1.4-1.4l.3.3c-.3.5-.7.9-1.1 1.2zM524.4 139.8v-4.5h.4v4.5h-.4zM523.5 143c-.2.7-.6 1.3-1.2 1.9-.1-.1-.2-.3-.3-.4.5-.3.8-.7 1-1.2.2-.4.3-.9.3-1.5v-1h.4c0 1-.1 1.7-.2 2.2zm1.5 1.7-.3-.3.1-.1v-4h.4v3.7c.6-.4 1.2-1 1.8-1.8l.3.3c-.8 1-1.6 1.7-2.3 2.2zM525.7 149.7h-.4l-.7-2.9-.8 2.9h-.4l-.9-3.6h.4l.7 2.9.8-2.9h.4l.7 2.9.7-2.9h.4l-.9 3.6zM371.5 425.3c0 .6-.1 1.1-.1 1.4 0 .2-.1.3-.2.4-.1.1-.4.1-.9.2 0-.1-.1-.3-.1-.4h.5c.2 0 .3-.1.4-.2.1-.2.1-.5.1-1v-1.3h-1.3c-.1.8-.3 1.4-.6 1.9s-.8.9-1.4 1.3c-.1-.1-.2-.3-.3-.4.6-.3 1-.7 1.3-1.1.3-.4.5-1 .6-1.6H368v-.4h1.5v-1.2h.5v1.2h1.8l-.3 1.2zM372.1 425.3v-.4h4.5v.4h-4.5zM379.7 424.7c-.1.9-.2 1.5-.5 1.8-.2.3-.7.7-1.4 1-.1-.1-.1-.3-.3-.4.7-.2 1.1-.5 1.4-.8.2-.3.4-.8.4-1.6H377v-.4h4.9v.4h-2.2zm-1.9-1.3v-.4h3.3v.4h-3.3zM384.9 426.1c-.6.4-1.3.9-2.2 1.3l-.3-.5c1.5-.5 2.9-1.5 4-2.9l.3.3c-.6.7-1.2 1.3-1.8 1.8zm-1.1-1.8c-.4-.4-.8-.7-1.2-1l.3-.4c.5.3.9.6 1.3.9l-.4.5zM387.7 426.8c-.1-.1-.3-.2-.4-.3.4-.5.8-1 1.1-1.7l.4.2c-.3.7-.7 1.3-1.1 1.8zm2.2-2.5v3.2h-.4v-3.2h-2.1v-.4h2.1v-1.2h.4v1.2h2.3v.4h-2.3zm1.9 2.4c-.5-.5-.9-1-1.3-1.7l.4-.3c.4.7.8 1.2 1.3 1.7-.2.1-.3.2-.4.3zm-.4-3.1c-.1-.2-.3-.4-.6-.6l.2-.2c.3.2.5.4.6.5l-.2.3zm.4-.4c-.1-.2-.3-.4-.6-.6l.2-.2c.3.2.5.4.6.5l-.2.3zM393.1 425.6c-.1-.3-.3-.6-.6-1l.3-.2c.2.3.4.7.6 1l-.3.2zm2.6.1c-.3.5-.6.9-1 1.2-.3.3-.8.5-1.3.7-.1-.1-.1-.3-.2-.4.5-.1.9-.3 1.2-.6.3-.2.6-.6.9-1 .2-.3.4-.8.5-1.4l.4.1c-.2.6-.3 1.1-.5 1.4zm-1.5-.5c-.1-.3-.3-.7-.5-1l.3-.1c.2.4.4.7.5 1l-.3.1zM399.6 426.1c-.6.6-1.3 1-2.2 1.3-.1-.1-.1-.3-.2-.4.8-.2 1.5-.6 2-1 .4-.4.8-1.1 1.2-1.9h-1.8c-.4.6-.8 1.2-1.3 1.6-.1-.1-.2-.2-.4-.3l1.1-1.1c.2-.3.5-.8.8-1.4l.5.2c-.1.2-.2.4-.4.7H400.8l.3.3c-.6.7-1 1.5-1.5 2zM405.8 427.2c-.5-.6-1-1.3-1.7-1.9-.6.7-1.4 1.3-2.3 1.9-.1-.2-.2-.3-.3-.4.8-.4 1.5-.8 2-1.3.4-.4.9-1.1 1.5-2h-3v-.4h3.2l.3.3c-.4.6-.7 1.2-1 1.6.7.6 1.3 1.2 1.8 1.9l-.5.3zM408.2 425.5h-.6l-.1-.1v-.6l.1-.1h.6l.1.1v.6l-.1.1zM413.8 425.3c0 .6-.1 1.1-.1 1.4 0 .2-.1.3-.2.4-.1.1-.4.1-.9.2 0-.1-.1-.3-.1-.4h.5c.2 0 .3-.1.4-.2.1-.2.1-.5.1-1v-1.3H412c-.1.8-.3 1.4-.6 1.9s-.8.9-1.4 1.3c-.1-.1-.2-.3-.3-.4.6-.3 1-.7 1.3-1.1.3-.4.5-1 .6-1.6h-1.5v-.4h1.5v-1.2h.5v1.2h1.8l-.1 1.2zM414.4 425.3v-.4h4.5v.4h-4.5zM422 424.7c-.1.9-.2 1.5-.5 1.8-.2.3-.7.7-1.4 1-.1-.1-.1-.3-.3-.4.7-.2 1.1-.5 1.4-.8.2-.3.4-.8.4-1.6h-2.3v-.4h4.9v.4H422zm-1.9-1.3v-.4h3.3v.4h-3.3zM427.3 426.1c-.6.4-1.3.9-2.2 1.3l-.3-.5c1.5-.5 2.9-1.5 4-2.9l.3.3-1.8 1.8zm-1.2-1.8c-.4-.4-.8-.7-1.2-1l.3-.4c.5.3.9.6 1.3.9l-.4.5zM432.6 425.7c-.5.4-1 .7-1.5 1-.4.2-.7.4-.9.5l-.4-.3v-4h.4v3.7c.8-.3 1.4-.7 1.8-1 .4-.3.9-.8 1.4-1.4l.3.3c-.3.5-.7.9-1.1 1.2zM434.3 425.3v-.4h4.5v.4h-4.5zM440.6 425.5c-.2.7-.6 1.3-1.2 1.9-.1-.1-.2-.3-.3-.4.5-.3.8-.7 1-1.2.2-.4.3-.9.3-1.5v-1h.4c0 1 0 1.7-.2 2.2zm1.5 1.7-.3-.3.1-.1v-4h.4v3.7c.6-.4 1.2-1 1.8-1.8l.3.3c-.8 1-1.6 1.7-2.3 2.2zM447.9 427.1h-.4l-.7-2.9-.8 2.9h-.4l-.9-3.6h.4l.7 2.9.8-2.9h.4l.7 2.9.7-2.9h.4l-.9 3.6zM244 425.3c0 .6-.1 1.1-.1 1.4 0 .2-.1.3-.2.4-.1.1-.3.1-.8.2 0-.1-.1-.3-.1-.4h.4c.1 0 .2-.1.3-.2.1-.2.1-.5.1-1v-1.3h-1.1c-.1.8-.2 1.4-.5 1.9-.2.5-.6.9-1.1 1.3-.1-.1-.1-.3-.2-.4.5-.3.8-.7 1-1.1.2-.4.4-1 .4-1.6h-1.2v-.4h1.2v-1.2h.4v1.2h1.5v1.2zM244.5 425.3v-.4h3.6v.4h-3.6zM250.6 424.7c-.1.9-.2 1.5-.4 1.8-.2.3-.6.7-1.2 1-.1-.1-.1-.3-.2-.4.5-.2.9-.5 1.1-.8.2-.3.3-.8.3-1.6h-1.9v-.4h3.9v.4h-1.6zm-1.5-1.3v-.4h2.6v.4h-2.6zM254.8 426.1c-.5.4-1.1.9-1.8 1.3l-.2-.5c1.2-.5 2.3-1.5 3.2-2.9l.3.3c-.6.7-1.1 1.3-1.5 1.8zm-1-1.8c-.3-.4-.7-.7-1-1l.2-.4c.4.3.7.6 1 .9l-.2.5zM257 426.8l-.3-.3c.3-.5.6-1 .9-1.7l.3.2c-.3.7-.6 1.3-.9 1.8zm1.7-2.5v3.2h-.3v-3.2h-1.7v-.4h1.7v-1.2h.3v1.2h1.8v.4h-1.8zm1.6 2.4c-.4-.5-.7-1-1-1.7l.3-.3c.3.7.6 1.2 1 1.7-.2.1-.3.2-.3.3zm-.4-3.1c-.1-.2-.3-.4-.5-.6l.2-.2.5.5-.2.3zm.4-.4c-.1-.2-.3-.4-.5-.6l.2-.2.5.5-.2.3zM261.3 425.6c-.1-.3-.3-.6-.5-1l.3-.2c.2.3.3.7.5 1l-.3.2zm2.1.1c-.2.5-.5.9-.8 1.2-.3.3-.6.5-1.1.7 0-.1-.1-.3-.2-.4.4-.1.7-.3 1-.6.3-.2.5-.6.7-1 .2-.3.3-.8.4-1.4l.3.1c0 .6-.2 1.1-.3 1.4zm-1.2-.5c-.1-.3-.2-.7-.4-1l.3-.1c.2.4.3.7.4 1l-.3.1zM266.5 426.1c-.4.6-1 1-1.8 1.3 0-.1-.1-.3-.2-.4.7-.2 1.2-.6 1.6-1 .3-.4.7-1.1 1-1.9h-1.4c-.3.6-.7 1.2-1.1 1.6l-.3-.3c.4-.4.6-.8.9-1.1.2-.3.4-.8.6-1.4l.4.2c-.1.2-.2.4-.3.7h1.6l.2.3c-.5.7-.8 1.5-1.2 2zM271.5 427.2c-.4-.6-.8-1.3-1.3-1.9-.5.7-1.1 1.3-1.9 1.9-.1-.2-.2-.3-.3-.4.7-.4 1.2-.8 1.6-1.3.3-.4.7-1.1 1.2-2h-2.3v-.4h2.5l.2.3-.8 1.6c.6.6 1 1.2 1.4 1.9l-.3.3zM273.4 425.5h-.5l-.1-.1v-.6l.1-.1h.5l.1.1v.6l-.1.1zM277.9 425.3c0 .6-.1 1.1-.1 1.4 0 .2-.1.3-.2.4-.1.1-.3.1-.8.2 0-.1-.1-.3-.1-.4h.4c.1 0 .2-.1.3-.2.1-.2.1-.5.1-1v-1.3h-1.1c-.1.8-.2 1.4-.5 1.9-.2.5-.6.9-1.1 1.3-.1-.1-.1-.3-.2-.4.5-.3.8-.7 1-1.1.2-.4.4-1 .4-1.6h-1.2v-.4h1.2v-1.2h.4v1.2h1.5v1.2zM278.4 425.3v-.4h3.6v.4h-3.6zM284.4 424.7c-.1.9-.2 1.5-.4 1.8-.2.3-.6.7-1.2 1-.1-.1-.1-.3-.2-.4.5-.2.9-.5 1.1-.8.2-.3.3-.8.3-1.6h-1.9v-.4h3.9v.4h-1.6zm-1.5-1.3v-.4h2.6v.4h-2.6zM288.6 426.1c-.5.4-1.1.9-1.8 1.3l-.2-.5c1.2-.5 2.3-1.5 3.2-2.9l.3.3c-.5.7-1 1.3-1.5 1.8zm-.9-1.8c-.3-.4-.7-.7-1-1l.2-.4c.4.3.7.6 1 .9l-.2.5zM292.9 425.7c-.4.4-.8.7-1.2 1-.3.2-.6.4-.7.5l-.3-.3v-4h.3v3.7c.6-.3 1.1-.7 1.4-1 .3-.3.7-.8 1.1-1.4l.3.3c-.2.5-.6.9-.9 1.2zM294.2 425.3v-.4h3.6v.4h-3.6zM299.3 425.5c-.2.7-.5 1.3-1 1.9-.1-.1-.2-.3-.2-.4.4-.3.6-.7.8-1.2.1-.4.2-.9.2-1.5v-1h.3c.1 1 0 1.7-.1 2.2zm1.2 1.7-.3-.3v-4.1h.3v3.7c.5-.4 1-1 1.4-1.8l.3.3c-.5 1-1.1 1.7-1.7 2.2zM305.1 427.1h-.3l-.6-2.9-.6 2.9h-.3l-.7-3.6h.3l.6 2.9.6-2.9h.3l.6 2.9.6-2.9h.3l-.8 3.6zM524.6 390.1c0 .5-.1 1-.1 1.2 0 .1-.1.3-.2.3-.1.1-.4.1-.9.2 0-.1-.1-.2-.1-.4h.5c.2 0 .3-.1.4-.2.1-.2.1-.4.1-.9v-1.2H523c-.1.7-.3 1.2-.6 1.7-.3.4-.8.8-1.4 1.1l-.3-.3c.6-.3 1-.6 1.3-1 .3-.4.5-.9.6-1.5h-1.5v-.4h1.5v-1.1h.5v1h1.8l-.3 1.5zM522.7 396.5v-4h.4v4h-.4zM523.2 398.6c-.1.8-.2 1.3-.5 1.6-.2.3-.7.6-1.4.9-.1-.1-.1-.3-.3-.4.7-.2 1.1-.5 1.4-.8.2-.3.4-.8.4-1.4h-2.3v-.4h4.9v.4h-2.2zm-2-1.1v-.4h3.3v.4h-3.3zM523.4 404.6c-.6.4-1.3.8-2.2 1.2l-.3-.5c1.5-.5 2.9-1.3 4-2.6l.3.3c-.6.7-1.2 1.2-1.8 1.6zm-1.2-1.6-1.2-.9.3-.3c.5.3.9.5 1.3.8l-.4.4zM520.9 410.1c-.1-.1-.3-.2-.4-.2.4-.4.8-.9 1.1-1.5l.4.2c-.4.5-.7 1.1-1.1 1.5zm2.1-2.3v2.9h-.4v-2.9h-2.1v-.4h2.1v-1.1h.4v1.1h2.3v.4H523zm1.9 2.2c-.5-.4-.9-.9-1.3-1.5l.4-.2c.4.6.8 1.1 1.3 1.5-.1 0-.3.1-.4.2zm-.4-2.7c-.1-.2-.3-.3-.6-.5l.2-.2c.3.2.5.3.6.5l-.2.2zm.4-.4c-.1-.2-.3-.3-.6-.5l.2-.2c.3.2.5.3.6.5l-.2.2zM522.5 412.6c-.1-.2-.3-.5-.6-.9l.3-.2.6.9-.3.2zm2.5.2c-.3.4-.6.8-1 1.1-.3.2-.8.5-1.3.7-.1-.1-.1-.2-.2-.3.5-.1.9-.3 1.2-.5.3-.2.6-.5.9-.9.2-.3.4-.7.5-1.3l.4.1c-.1.4-.3.8-.5 1.1zm-1.5-.5c-.1-.3-.3-.6-.5-.9l.3-.1c.2.4.4.7.5.9l-.3.1zM523.6 418.1c-.6.5-1.3.9-2.2 1.2-.1-.1-.1-.2-.2-.4.8-.2 1.5-.5 2-.9.4-.4.8-1 1.2-1.8h-1.8c-.4.6-.8 1-1.3 1.5-.1-.1-.2-.2-.4-.3.4-.3.8-.7 1.1-1 .2-.3.5-.7.8-1.3l.5.1c-.1.1-.2.4-.4.6H524.8l.3.3c-.6.9-1 1.6-1.5 2zM524.9 423.6c-.5-.6-1-1.1-1.7-1.7-.6.6-1.4 1.2-2.3 1.7-.1-.1-.2-.3-.3-.4.8-.3 1.5-.7 2-1.1.4-.4.9-1 1.5-1.8h-2.9v-.4h3.2l.3.3c-.4.6-.7 1-1 1.4.7.5 1.3 1.1 1.8 1.7l-.6.3zM523.2 425.5h-.6l-.1-.1v-.5l.1-.1h.6l.1.1v.5l-.1.1zM517.7 390.1c0 .5-.1 1-.1 1.2 0 .1-.1.3-.2.3-.1.1-.4.1-.9.2 0-.1-.1-.2-.1-.4h.5c.2 0 .3-.1.4-.2.1-.2.1-.4.1-.9v-1.2h-1.3c-.1.7-.3 1.2-.6 1.7-.3.4-.8.8-1.4 1.1l-.3-.3c.6-.3 1-.6 1.3-1 .3-.4.5-.9.6-1.5H514v-.4h1.5v-1.1h.5v1h1.8l-.1 1.5zM515.8 396.5v-4h.4v4h-.4zM516.3 398.6c-.1.8-.2 1.3-.5 1.6-.2.3-.7.6-1.4.9-.1-.1-.1-.3-.3-.4.7-.2 1.1-.5 1.4-.8.2-.3.4-.8.4-1.4h-2.3v-.4h4.9v.4h-2.2zm-1.9-1.1v-.4h3.3v.4h-3.3zM516.5 404.6c-.6.4-1.3.8-2.2 1.2l-.3-.5c1.5-.5 2.9-1.3 4-2.6l.3.3c-.6.7-1.2 1.2-1.8 1.6zm-1.1-1.6-1.2-.9.3-.3c.5.3.9.5 1.3.8l-.4.4zM517.1 408.9l-1.5.9c-.4.2-.7.3-.9.5l-.4-.3v-3.6h.4v3.3c.8-.3 1.4-.6 1.8-.9.4-.3.9-.7 1.4-1.3l.3.3c-.3.4-.7.8-1.1 1.1zM515.8 414.7v-4h.4v4h-.4zM514.9 417.6c-.2.6-.6 1.2-1.2 1.7l-.3-.3c.5-.3.8-.7 1-1.1.2-.3.3-.8.3-1.4v-.9h.4c0 .9 0 1.6-.2 2zm1.5 1.5-.3-.3.1-.1v-3.6h.4v3.3c.6-.4 1.2-.9 1.8-1.6l.3.3c-.8.9-1.6 1.6-2.3 2zM517 424.1h-.4l-.7-2.9-.7 2.9h-.4l-.8-3.6h.4l.6 2.9.7-2.9h.4l.7 2.9.7-2.9h.4l-.9 3.6zM235 299.9l-.3-.3c.3-.5.6-1.2.8-1.9l.3.2c-.2.7-.5 1.4-.8 2zm1.6-2.9v3.7h-.3V297h-1.6v-.5h1.6v-1.4h.3v1.4h1.7v.5h-1.7zm1.5 2.8c-.3-.5-.7-1.2-.9-1.9l.3-.3c.3.8.6 1.4.9 1.9-.2 0-.3.1-.3.3zM238.4 298.1v-.5h3.3v.5h-3.3zM243 298.4c-.1.8-.4 1.5-.9 2.1-.1-.2-.1-.3-.2-.4.3-.4.6-.8.7-1.4.1-.4.2-1 .2-1.7v-1.2h.3c0 1.2-.1 2.1-.1 2.6zm1 2-.2-.4v-4.6h.3v4.2c.4-.5.9-1.2 1.3-2 .1.1.1.2.2.3-.4 1.1-1 1.9-1.6 2.5zM232.7 304.8c-.4.7-1 1.2-1.6 1.5 0-.1-.1-.3-.2-.5.6-.2 1.1-.6 1.5-1.2.3-.5.6-1.2.9-2.2H232c-.3.7-.6 1.3-1 1.9l-.3-.3c.3-.4.6-.9.8-1.3.2-.4.3-.9.6-1.6l.3.2c-.1.2-.1.5-.3.8h1.4l.1-.1.2.3c-.4 1.1-.8 1.9-1.1 2.5zM236.5 305.9v-.4h-2.2v.4h-.3v-4.3h2.8v4.3h-.3zm0-3.8h-2.2v2.9h2.2v-2.9zM237 303.9v-.5h3.3v.5H237zM242.7 304.4l-.2-.4c.3-.5.7-.9.9-1.4l-1.6.4v2.1c0 .3.1.4.4.5h.6c.4 0 .7 0 1-.1v.5c-.4 0-.8.1-1.1.1-.4 0-.6 0-.8-.1-.3-.1-.5-.4-.5-.9V303l-1 .2-.1-.5 1-.2V301h.3v1.6l1.7-.4.1-.1.3.4c-.3.8-.7 1.5-1 1.9zm1-2.4c-.1-.2-.3-.4-.5-.6l.1-.3c.2.2.4.4.5.6l-.1.3zm.3-.5c-.1-.2-.3-.4-.5-.6l.1-.3c.2.2.4.4.5.6l-.1.3zM244.7 304.2c-.1-.3-.2-.7-.4-1.1l.2-.2c.2.4.3.7.4 1.2l-.2.1zm1.9.2c-.2.6-.4 1-.7 1.4-.2.3-.6.6-1 .8 0-.2-.1-.3-.2-.4.4-.2.7-.4.9-.6.3-.3.5-.7.7-1.2.1-.4.3-1 .4-1.7l.3.1c-.2.7-.3 1.2-.4 1.6zm-1.1-.6c-.1-.4-.2-.8-.3-1.1l.3-.2c.2.4.3.8.4 1.1l-.4.2zM249.7 304.4c-.5-.4-1-.8-1.7-1.2v3.3h-.3v-5.6h.3v1.8c.7.3 1.3.7 1.9 1.2l-.2.5zM268.7 289.9c-.6.7-1.5 1.2-2.5 1.5-.1-.1-.2-.3-.3-.5.9-.2 1.7-.6 2.2-1.2.5-.5 1-1.2 1.4-2.2h-2.1c-.4.7-1 1.3-1.5 1.9-.1-.1-.3-.2-.4-.3.5-.4.9-.9 1.2-1.3.2-.4.5-.9.9-1.6l.5.2c-.1.2-.2.5-.4.8h2.1l.1-.1.3.3c-.4 1.1-.9 1.9-1.5 2.5zM274.6 291v-.4h-3.3v.4h-.5v-4.3h4.3v4.3h-.5zm0-3.8h-3.3v2.9h3.3v-2.9zM275.4 289v-.5h5.1v.5h-5.1zM284.2 289.6l-.3-.4c.5-.5 1-.9 1.4-1.4l-2.4.4v2.1c0 .3.2.4.6.5h1c.6 0 1.1 0 1.5-.1v.5c-.6 0-1.2.1-1.6.1-.6 0-1 0-1.3-.1-.5-.1-.7-.4-.7-.9v-2.1l-1.5.2-.1-.5 1.6-.2V286h.5v1.6l2.6-.4.1-.1.4.4c-.7 1-1.3 1.6-1.8 2.1zm1.5-2.5c-.2-.2-.4-.4-.7-.6l.2-.3c.3.2.6.4.7.6l-.2.3zm.5-.5c-.2-.2-.4-.4-.7-.6l.2-.3c.3.2.6.4.7.6l-.2.3zM287.2 289.3c-.2-.3-.4-.7-.7-1.1l.4-.2c.2.4.5.7.7 1.2l-.4.1zm2.9.2c-.3.6-.7 1-1.1 1.4-.4.3-.9.6-1.5.8-.1-.2-.2-.3-.3-.4.6-.2 1-.4 1.4-.6.4-.3.7-.7 1-1.2.2-.4.4-1 .6-1.7l.5.1c-.2.7-.4 1.2-.6 1.6zm-1.6-.6c-.1-.4-.3-.8-.5-1.1l.4-.2c.2.4.4.8.6 1.1l-.5.2zM294.9 289.5c-.7-.4-1.6-.8-2.7-1.2v3.3h-.5V286h.5v1.8c1 .3 2 .7 3 1.2l-.3.5zM231.5 289.9c-.2.5-.3 1-.6 1.4-.1-.1-.1-.2-.2-.3.4-.7.7-1.6.9-2.8l.2.2c0 .6-.1 1.1-.3 1.5zm1.8 1.2c-.2-1-.5-1.9-.9-2.8l.2-.2c.4.9.7 1.9.9 2.8l-.2.2zM235.2 290.5c-.3.4-.7.8-1.2 1.1l-.1-.4c.9-.4 1.6-1.3 2.2-2.5.1.1.1.2.2.3-.5.6-.8 1.1-1.1 1.5zm-.7-1.5c-.2-.3-.5-.6-.7-.8l.2-.3c.3.2.5.5.7.8l-.2.3zM238.7 289.9c0 .5 0 .9-.1 1.2 0 .1-.1.2-.1.3-.1.1-.2.1-.5.2 0-.1 0-.2-.1-.4h.3c.1 0 .2-.1.2-.2s.1-.4.1-.8v-1.1h-.7c-.1.6-.2 1.2-.3 1.6-.2.4-.4.8-.8 1.1 0-.1-.1-.2-.2-.3.3-.3.6-.6.7-.9.2-.4.3-.8.3-1.4h-.8v-.4h.8v-1h.3v1h1l-.1 1.1zm0-1.4c-.1-.1-.2-.3-.3-.5l.1-.2c.2.2.3.3.4.5l-.2.2zm.2-.4c-.1-.1-.2-.3-.3-.5l.1-.2c.2.2.3.3.4.5l-.2.2zM239 289.8v-.3h2.5v.3H239zM242.3 289.9c-.2.5-.3 1-.6 1.4-.1-.1-.1-.2-.2-.3.4-.7.7-1.6.9-2.8l.2.2c0 .6-.2 1.1-.3 1.5zm1.8 1.2c-.2-1-.5-1.9-.9-2.8l.2-.2c.4.9.7 1.9.9 2.8l-.2.2zm.2-2.6c-.1.1-.1.2-.2.2s-.2 0-.2-.1c-.1-.1-.1-.2-.1-.3 0-.1 0-.3.1-.3.1-.1.1-.1.2-.1s.2 0 .2.1c.1.1.1.2.1.3 0-.1 0 .1-.1.2zm-.1-.6-.1-.1c-.1 0-.2.1-.2.3 0 .1 0 .1.1.2 0 .1.1.1.1.1s.1 0 .1-.1v-.4zM246 289v2.7h-.2v-2.4c-.4.5-.8.9-1.2 1.1 0-.1-.1-.3-.1-.4.4-.2.8-.6 1.1-1.1.4-.4.7-.9 1-1.4l.2.3c-.3.5-.5.9-.8 1.2zM248.6 290.5c-.3.5-.7.9-1.2 1.2 0-.1-.1-.2-.1-.4.5-.2.8-.6 1.1-1 .3-.4.5-1 .6-1.8h-2v-.4h2.1l.2.3c-.2.9-.4 1.6-.7 2.1zm1.1-2.4c-.1.1-.1.2-.2.2s-.2 0-.2-.1c-.1-.1-.1-.2-.1-.3 0-.1 0-.3.1-.3.1-.1.1-.1.2-.1s.2 0 .2.1c.1.1.1.2.1.3 0 0-.1.1-.1.2zm-.1-.5-.1-.1c-.1 0-.2.1-.2.3 0 .1 0 .1.1.2 0 .1.1.1.1.1s.1 0 .1-.1v-.4zM267 299.8c-.2.5-.5 1-.9 1.4l-.3-.3c.6-.7 1-1.6 1.3-2.8l.4.2c-.1.6-.3 1.1-.5 1.5zm2.7 1.2c-.3-1-.8-1.9-1.3-2.8l.3-.2c.6.9 1.1 1.9 1.5 2.8l-.5.2zM272.6 300.4c-.5.4-1.1.8-1.9 1.1l-.2-.4c1.3-.4 2.5-1.3 3.4-2.5l.3.3c-.6.6-1.1 1.1-1.6 1.5zm-1-1.5c-.4-.3-.7-.6-1.1-.8l.2-.3c.4.2.8.5 1.1.8l-.2.3zM278 299.8c0 .5-.1.9-.1 1.2 0 .1-.1.2-.2.3-.1.1-.4.1-.8.2 0-.1-.1-.2-.1-.4h.4c.1 0 .3-.1.3-.2.1-.1.1-.4.1-.8V299h-1.2c-.1.6-.3 1.2-.5 1.6-.3.4-.7.8-1.2 1.1l-.3-.3c.5-.3.9-.6 1.1-.9.3-.4.4-.8.5-1.4h-1.2v-.4h1.3v-1h.4v1h1.6l-.1 1.1zm0-1.4-.5-.5.2-.2c.2.2.4.3.6.5l-.3.2zm.3-.4-.5-.5.2-.2c.2.2.4.3.6.5l-.3.2zM278.5 299.7v-.3h3.8v.3h-3.8zM283.6 299.8c-.2.5-.5 1-.9 1.4l-.3-.3c.6-.7 1-1.6 1.3-2.8l.4.2c-.1.6-.3 1.1-.5 1.5zm2.7 1.2c-.3-1-.8-1.9-1.3-2.8l.3-.2c.6.9 1.1 1.9 1.5 2.8l-.5.2zm.3-2.6c-.1.1-.2.2-.3.2-.1 0-.3 0-.3-.1-.1-.1-.1-.2-.1-.3 0-.1 0-.3.1-.3.1-.1.2-.1.3-.1.1 0 .2 0 .3.1.1.1.1.2.1.3.1 0 0 .1-.1.2zm-.1-.6s-.1-.1-.2-.1c-.2 0-.3.1-.3.3 0 .1 0 .1.1.2 0 .1.1.1.2.1s.1 0 .2-.1c0 0 .1-.1.1-.2-.1 0-.1-.1-.1-.2zM289.3 298.9v2.7h-.4v-2.4c-.6.5-1.2.9-1.8 1.1-.1-.1-.1-.3-.2-.4.6-.2 1.2-.6 1.8-1.1.5-.4 1-.9 1.5-1.4l.4.3c-.6.5-1 .9-1.3 1.2zM293.3 300.4c-.4.5-1 .9-1.9 1.2 0-.1-.1-.2-.2-.4.7-.2 1.3-.6 1.7-1 .4-.4.7-1 1-1.8h-3v-.4h3.2l.3.3c-.4 1-.8 1.6-1.1 2.1zm1.6-2.4c-.1.1-.2.2-.3.2-.1 0-.3 0-.3-.1-.1-.1-.1-.2-.1-.3 0-.1 0-.3.1-.3.1-.1.2-.1.3-.1.1 0 .2 0 .3.1.1.1.1.2.1.3 0 0 0 .1-.1.2zm-.2-.5s-.1-.1-.2-.1c-.2 0-.3.1-.3.3 0 .1 0 .1.1.2 0 .1.1.1.2.1s.1 0 .2-.1c0 0 .1-.1.1-.2s0-.2-.1-.2zM257.9 362.6l-2.1 4.3-1-.6 2.3-4.2c.3.3.5.4.8.5zm-.4-3.4-.5.8c-.6-.4-1.2-.7-2-1.1l.4-.8c.8.3 1.5.7 2.1 1.1zm.7-3.1-.6.8c-.6-.5-1.2-1-1.9-1.4l.6-.7c.7.3 1.3.7 1.9 1.3zm7.5-1.2-1.1 2h2.8v.9h-4v1.9h3.1v.9h-3.1v2.2h4v.9h-4v3.5h-.9v-3.5h-4.1v-.9h4.1v-2.2h-3.3v-.9h3.3v-1.9h-3.8v-.9h4.9l1.3-2.5.8.5zm-3.9 1.3-.8.6c-.3-.6-.7-1.2-1.2-1.7l.8-.6c.5.6.9 1.2 1.2 1.7zM275.1 363.2V362h1v1.2h4.4v.8h-4.4v1.5h5.7v.8h-12.5v-.8h5.8V364h-4.3v-.8h4.3zm1.1-8.9v1.4h5.1v2.7h-1v.4H275l-1.1 2.1c1.5-.1 2.9-.2 4.5-.3-.3-.3-.6-.5-1-.8l.7-.7c1.3 1 2.2 1.7 2.7 2.3l-.7.7-.8-.8c-3.3.3-6.1.5-8.5.6l-.2-.9c.7 0 1.4 0 2.2-.1l1.2-2.1h-3v-.4h-1v-2.7h5.1v-1.4h1.1zm4 3.7v-1.3H271v1.3h9.2zM288.5 364.9c-.6.5-1.3.8-2 .8-1.6 0-2.6-.8-3-2.5h1.2c.2 1.1.8 1.7 1.8 1.7.5 0 .9-.2 1.3-.5s.6-.7.6-1.2c0-1.3-.7-2-2.2-2-.3 0-.6 0-1.1.1v-.8h.7c1.5 0 2.2-.6 2.2-1.7 0-.4-.2-.8-.5-1.1-.3-.3-.7-.5-1.1-.5-.9 0-1.4.5-1.6 1.5h-1c.2-1.5 1.1-2.3 2.6-2.3.7 0 1.3.2 1.9.7.5.4.8 1 .8 1.7 0 .9-.5 1.5-1.3 2 1.1.6 1.6 1.4 1.6 2.5 0 .5-.3 1.1-.9 1.6zM253.8 385.6c-.7-.7-1.2-1.3-1.6-1.9-.4-.8-.6-1.6-.6-2.5s.2-1.7.6-2.5c.3-.6.9-1.2 1.6-1.9l.5.5c-.7.6-1.2 1.2-1.5 1.8-.4.7-.6 1.4-.6 2.2 0 .8.2 1.5.6 2.2.3.5.8 1.1 1.5 1.8l-.5.3zM257.9 376.9l-1 1.9c.2.2.4.3.6.5l.9-1.6.6.4-1.7 2.7c.4 0 .9 0 1.4-.1-.1-.3-.3-.5-.4-.8l.5-.3c.4.6.6 1.1.8 1.5l-.5.4c0-.1-.1-.2-.1-.3-.4 0-.8.1-1.1.1v4h-.7v-3.9c-.5 0-1 .1-1.5.1l-.2-.6h1l.6-1c-.5-.4-1-.8-1.6-1.1l.4-.5c.1.1.3.2.4.3l.9-1.9.7.2zm-1.1 5.2c-.2.9-.4 1.7-.6 2.4-.2-.1-.4-.2-.6-.2.2-.7.4-1.5.6-2.3l.6.1zm2.6 1.7-.6.2c-.1-.6-.2-1.2-.4-1.8l.6-.2c.1.6.2 1.2.4 1.8zm1.8-7.1c-.2.7-.3 1.3-.4 1.7h3.1v3.8c0 1-.1 1.7-.2 2-.1.6-.8.9-2 .9 0-.3-.1-.6-.3-.8h1.1c.3 0 .5-.2.6-.5.1-.3.1-.9.2-1.9v-3h-2.6c-.2.6-.4 1.1-.6 1.5-.2-.2-.4-.3-.6-.4.3-.6.5-1.2.7-1.9.2-.6.3-1.2.4-1.8l.6.4zm1 5.3-.5.5c-.3-.5-.8-1.1-1.3-1.7l.5-.4c.4.6.9 1.1 1.3 1.6zM269.2 382.8v1.4h-.6v-1.4h-3v-.6l3-4.1h.5v4.2h.8v.6h-.7zm-.6-3.7-2.3 3.1h2.3v-3.1zM272.2 384.4h-.7l-.1-.1v-.6l.1-.1h.7l.1.1v.6l-.1.1zM276.1 384.2v-5.4c-.5.3-.9.4-1.3.5v-.7c.5-.1.9-.2 1.3-.5h.7v6.1h-.7zM281 378.2v-1.7h.7v1.7h1.4v4.5c0 .2 0 .3-.1.4-.1.1-.4.2-.8.2 0-.3-.1-.5-.2-.7h.3c.1 0 .2 0 .2-.1v-3.7h-.7v6.5h-.8v-6.5h-.7v4.5h-.6v-5.1h1.3zm4.9-1.6v1.8h2.1v.6h-2.1v2h1.7v4.2h-.6v-.5h-2.7v.6h-.6V381h1.6v-4.4h.6zm1 7.5v-2.5h-2.7v2.5h2.7zM291.5 383.7c-.3.6-.9 1.2-1.6 1.9l-.5-.4c.7-.6 1.1-1.2 1.5-1.8.4-.7.6-1.4.6-2.2 0-.8-.2-1.5-.6-2.2-.3-.5-.8-1.1-1.5-1.8l.5-.5c.7.7 1.2 1.3 1.6 1.9.4.8.6 1.6.6 2.5s-.2 1.8-.6 2.6zM271.7 123.5l-2.1 4.3-1-.6 2.3-4.2c.4.3.6.4.8.5zm-.3-3.4-.4.8c-.6-.4-1.2-.7-2-1.1l.4-.8c.7.3 1.3.7 2 1.1zm.7-3.2-.6.8c-.6-.5-1.2-1-1.9-1.4l.6-.7c.7.4 1.3.8 1.9 1.3zm7.5-1.1-1.1 2h2.8v.9h-4v1.9h3.1v.9h-3.1v2.2h4v.9h-4v3.5h-.9v-3.5h-4.1v-.9h4.1v-2.2h-3.3v-.9h3.3v-1.9h-3.8v-.9h4.9l1.3-2.5.8.5zm-3.9 1.3-.8.6c-.3-.6-.7-1.2-1.2-1.7l.8-.6c.5.6.9 1.2 1.2 1.7zM289 124.1v-1.2h1v1.2h4.4v.8H290v1.5h5.7v.8h-12.5v-.8h5.8V125h-4.3v-.8h4.3zm1-8.9v1.4h5.1v2.7h-1v.4h-5.3l-1.1 2.1c1.5-.1 2.9-.2 4.5-.3-.3-.3-.6-.5-1-.8l.7-.7c1.3 1 2.2 1.7 2.7 2.3l-.7.7-.8-.8c-3.3.3-6.1.5-8.5.6l-.2-.9c.7 0 1.4 0 2.2-.1l1.2-2.1h-3v-.4h-.9v-2.7h5.1v-1.4h1zm4.1 3.7v-1.3h-9.3v1.3h9.3zM297.5 126.4c.1-1.5.8-2.8 2.3-3.9 1.5-1.2 2.2-2.1 2.2-2.7 0-.5-.1-.9-.4-1.2-.3-.3-.7-.5-1.2-.5-.7 0-1.1.2-1.5.6-.3.3-.5.8-.5 1.5h-1c.2-1.9 1.3-2.8 3.1-2.8.8 0 1.4.2 1.9.7.5.5.7 1.1.7 1.8 0 .9-.7 1.9-2.2 3.1-1.2 1-1.9 1.9-2.2 2.7h4.5v.9h-5.7zM267.6 146.5c-.7-.7-1.2-1.3-1.6-1.9-.4-.8-.6-1.6-.6-2.5s.2-1.7.6-2.5c.3-.6.9-1.2 1.6-1.9l.5.5c-.7.6-1.2 1.2-1.5 1.8-.4.7-.6 1.4-.6 2.2 0 .8.2 1.5.6 2.2.3.5.8 1.1 1.5 1.8l-.5.3zM271.8 137.8l-1 1.9c.2.2.4.3.6.5l.9-1.6.6.4-1.7 2.7c.4 0 .9 0 1.4-.1-.1-.3-.3-.5-.4-.8l.5-.3c.4.6.6 1.1.8 1.5l-.5.4c0-.1-.1-.2-.1-.3-.4 0-.8.1-1.1.1v4h-.7v-3.9c-.5 0-1 .1-1.5.1l-.2-.6h1l.6-1c-.5-.4-1-.8-1.6-1.1l.4-.5c.1.1.3.2.4.3l.9-1.9.7.2zm-1.2 5.2c-.2.9-.4 1.7-.6 2.4-.2-.1-.4-.2-.6-.2.2-.7.4-1.5.6-2.3l.6.1zm2.6 1.7-.6.2c-.1-.6-.2-1.2-.4-1.8l.6-.2c.2.6.3 1.2.4 1.8zm1.9-7.1c-.2.7-.3 1.3-.4 1.7h3.1v3.8c0 1-.1 1.7-.2 2-.1.6-.8.9-2 .9 0-.3-.1-.6-.3-.8h1.1c.3 0 .5-.2.6-.5.1-.3.1-.9.2-1.9v-3h-2.6c-.2.6-.4 1.1-.6 1.5-.2-.2-.4-.3-.6-.4.3-.6.5-1.2.7-1.9.2-.6.3-1.2.4-1.8l.6.4zm.9 5.3-.5.5c-.3-.5-.8-1.1-1.3-1.7l.5-.4c.5.5 1 1.1 1.3 1.6zM283.1 143.7v1.4h-.6v-1.4h-3v-.6l3-4.1h.5v4.2h.8v.6h-.7zm-.6-3.7-2.3 3.1h2.3V140zM286.1 145.3h-.7l-.1-.1v-.6l.1-.1h.7l.1.1v.6l-.1.1zM291.3 144.2c-.4.7-.9 1.1-1.7 1.1-.9 0-1.5-.4-1.8-1.3h.9c.2.6.6.8 1 .8.8 0 1.3-.9 1.4-2.6-.5.5-1 .7-1.5.7s-1-.2-1.3-.6c-.3-.4-.5-.8-.5-1.3 0-.7.2-1.2.5-1.6.4-.4.9-.6 1.5-.6 1.3 0 2 1 2 3.1-.1 1-.2 1.7-.5 2.3zm-1.6-4.8c-.5 0-.8.2-1 .5-.2.3-.3.7-.3 1.2 0 .9.4 1.3 1.2 1.3.5 0 1-.3 1.3-.9-.1-1.4-.5-2.1-1.2-2.1zM294.8 139.1v-1.7h.7v1.7h1.4v4.5c0 .2 0 .3-.1.4-.1.1-.4.2-.8.2 0-.3-.1-.5-.2-.7h.3c.1 0 .2 0 .2-.1v-3.7h-.7v6.5h-.7v-6.5h-.7v4.5h-.6v-5.1h1.2zm4.9-1.6v1.8h2.1v.6h-2.1v2h1.7v4.2h-.6v-.5h-2.7v.6h-.6v-4.3h1.6v-4.4h.6zm1.1 7.5v-2.5h-2.7v2.5h2.7zM305.3 144.6c-.3.6-.9 1.2-1.6 1.9l-.5-.4c.7-.6 1.1-1.2 1.5-1.8.4-.7.6-1.4.6-2.2 0-.8-.2-1.5-.6-2.2-.3-.5-.8-1.1-1.5-1.8l.5-.5c.7.7 1.2 1.3 1.6 1.9.4.8.6 1.6.6 2.5s-.1 1.8-.6 2.6zM455.6 123.5l-2.1 4.3-1-.6 2.3-4.2c.3.3.6.4.8.5zm-.4-3.4-.4.8c-.6-.4-1.2-.7-2-1.1l.4-.8c.7.4 1.4.7 2 1.1zm.8-3.1-.6.8c-.6-.5-1.2-1-1.9-1.4l.6-.7c.6.3 1.3.8 1.9 1.3zm7.5-1.2-1.1 2h2.8v.9h-4v1.9h3.1v.9h-3.1v2.2h4v.9h-4v3.5h-.9v-3.5h-4.1v-.9h4.1v-2.2H457v-.9h3.3v-1.9h-3.8v-.9h4.9l1.3-2.5.8.5zm-4 1.3-.8.6c-.3-.6-.7-1.2-1.2-1.7l.8-.6c.6.7 1 1.2 1.2 1.7zM472.9 124.1v-1.2h1v1.2h4.4v.8h-4.4v1.5h5.7v.8H467v-.8h5.8V125h-4.3v-.8h4.4zm1-8.9v1.4h5.1v2.7h-1v.4h-5.3l-1.1 2.1c1.5-.1 2.9-.2 4.5-.3-.3-.3-.6-.5-1-.8l.7-.7c1.3 1 2.2 1.7 2.7 2.3l-.7.7-.8-.8c-3.3.3-6.1.5-8.5.6l-.2-.9c.7 0 1.4 0 2.2-.1l1.2-2.1h-3v-.4h-.9v-2.7h5.1v-1.4h1zm4.1 3.7v-1.3h-9.3v1.3h9.3zM484.6 126.4v-7.9c-.7.4-1.3.6-1.9.8v-1c.7-.1 1.4-.4 1.9-.8h1v9h-1zM451.5 146.5c-.7-.7-1.2-1.3-1.6-1.9-.4-.8-.6-1.6-.6-2.5 0-.9.2-1.7.6-2.5.3-.6.9-1.2 1.6-1.9l.5.5c-.7.6-1.1 1.2-1.5 1.8-.4.7-.6 1.4-.6 2.2 0 .8.2 1.5.6 2.2.3.5.8 1.1 1.5 1.8l-.5.3zM455.7 137.8l-1 1.9c.2.2.4.3.6.5l.9-1.6.6.4-1.7 2.7c.4 0 .9 0 1.4-.1-.1-.3-.3-.5-.4-.8l.5-.3c.4.6.6 1.1.8 1.5l-.5.4c0-.1-.1-.2-.1-.3-.4 0-.8.1-1.1.1v4h-.7v-3.9c-.5 0-1 .1-1.5.1l-.2-.6h1l.6-1c-.5-.4-1-.8-1.6-1.1l.4-.5c.1.1.3.2.4.3l.9-1.9.7.2zm-1.2 5.2c-.2.9-.4 1.7-.6 2.4-.2-.1-.4-.2-.6-.2.2-.7.4-1.5.6-2.3l.6.1zm2.6 1.7-.6.2c-.1-.6-.2-1.2-.4-1.8l.6-.2c.1.6.3 1.2.4 1.8zm1.9-7.1c-.2.7-.3 1.3-.4 1.7h3.1v3.8c0 1-.1 1.7-.2 2-.1.6-.8.9-2 .9 0-.3-.1-.6-.3-.8h1.1c.3 0 .5-.2.6-.5.1-.3.1-.9.2-1.9v-3h-2.6c-.2.6-.4 1.1-.6 1.5-.2-.2-.4-.3-.6-.4.3-.6.5-1.2.7-1.9.2-.6.3-1.2.4-1.8l.6.4zm.9 5.4-.5.5c-.3-.5-.8-1.1-1.3-1.7l.5-.4c.5.5.9 1 1.3 1.6zM467.1 144.7c-.4.4-.9.6-1.4.6-1.1 0-1.8-.5-2.1-1.6h.8c.2.7.7 1.1 1.3 1.1.4 0 .7-.1.9-.5.3-.3.4-.6.4-1s-.1-.7-.4-1c-.3-.3-.6-.5-1-.5-.5 0-.9.2-1.2.6l-.7-.2.3-3.2h3.2v.6h-2.6l-.2 2.1c.4-.3.9-.4 1.4-.4.5 0 1 .2 1.3.6.3.4.5.9.5 1.4.1.6-.1 1.1-.5 1.4zM470 145.3h-.7l-.1-.1v-.6l.1-.1h.7l.1.1v.6l-.1.1zM475.1 144.9c-.4.3-.9.4-1.5.4s-1.1-.1-1.5-.4c-.5-.3-.7-.7-.7-1.2 0-.4.1-.8.3-1.1.2-.2.5-.5 1-.8-.4-.2-.7-.4-.9-.6-.2-.2-.3-.5-.3-.8 0-.5.2-.9.6-1.2.4-.2.8-.4 1.4-.4.5 0 .9.1 1.3.4.3.3.5.7.5 1.2 0 .4-.1.6-.2.8-.2.2-.4.4-.8.6.5.2.9.5 1.1.7.2.3.4.6.4 1.1 0 .6-.3 1-.7 1.3zm-.6-2.2c-.2-.1-.5-.3-1-.6-.5.2-.8.4-.9.6-.3.3-.4.6-.4 1s.2.7.5.9c.3.1.6.2 1 .2s.7-.1 1-.3c.3-.2.5-.5.5-.8-.1-.4-.3-.7-.7-1zm-.1-3c-.2-.2-.5-.3-.8-.3-.3 0-.6.1-.9.3-.3.2-.4.5-.4.8 0 .3.1.5.4.7.2.1.4.3.8.4l.8-.4c.3-.2.4-.5.4-.7 0-.4-.1-.6-.3-.8zM478.7 139.1v-1.7h.7v1.7h1.4v4.5c0 .2 0 .3-.1.4-.1.1-.4.2-.8.2 0-.3-.1-.5-.2-.7h.3c.1 0 .2 0 .2-.1v-3.7h-.7v6.5h-.7v-6.5h-.8v4.5h-.6v-5.1h1.3zm4.9-1.6v1.8h2.1v.6h-2.1v2h1.7v4.2h-.6v-.5H482v.6h-.6v-4.3h1.6v-4.4h.6zm1.1 7.5v-2.5H482v2.5h2.7zM489.2 144.6c-.3.6-.9 1.2-1.6 1.9l-.5-.4c.7-.6 1.1-1.2 1.5-1.8.4-.7.6-1.4.6-2.2 0-.8-.2-1.5-.6-2.2-.3-.5-.8-1.1-1.5-1.8l.5-.5c.7.7 1.2 1.3 1.6 1.9.4.8.6 1.6.6 2.5.1 1-.2 1.9-.6 2.6zM419.1 362.9v-10.5h1.2v9.5h6.5v1h-7.7zM435.8 361.6c-1.1.9-2.5 1.3-4.3 1.3h-3v-10.5h3.5c1.6 0 2.9.5 4 1.4 1 1 1.6 2.2 1.6 3.8-.1 1.7-.7 3-1.8 4zm-.8-7.1c-.8-.7-1.9-1-3.3-1h-2.1v8.5h2.3c1.3 0 2.3-.4 3.1-1.2.8-.8 1.2-1.8 1.2-3.1 0-1.5-.4-2.5-1.2-3.2zM446.5 362.9l-4-5.9-2.3 1.9v4H439v-10.5h1.1v5.2l6-5.2h1.6l-4.5 3.9 4.8 6.6h-1.5zM412.4 375.7c-.7-.7-1.2-1.3-1.6-1.9-.4-.8-.6-1.6-.6-2.5s.2-1.7.6-2.5c.3-.6.9-1.2 1.6-1.9l.5.5c-.7.6-1.2 1.2-1.5 1.8-.4.7-.6 1.4-.6 2.2 0 .8.2 1.5.6 2.2.3.5.8 1.1 1.5 1.8l-.5.3zM416.6 367l-1 1.9c.2.2.4.3.6.5l.9-1.6.6.4-1.7 2.7c.4 0 .9 0 1.4-.1-.1-.3-.3-.5-.4-.8l.5-.3c.4.6.6 1.1.8 1.5l-.5.4c0-.1-.1-.2-.1-.3-.4 0-.8.1-1.1.1v4h-.7v-3.9c-.5 0-1 .1-1.5.1l-.2-.6h1l.6-1c-.5-.4-1-.8-1.6-1.1l.4-.5c.1.1.3.2.4.3l.9-1.9.7.2zm-1.2 5.2c-.2.9-.4 1.7-.6 2.4-.2-.1-.4-.2-.6-.2.2-.7.4-1.5.6-2.3l.6.1zm2.6 1.7-.6.2c-.1-.6-.2-1.2-.4-1.8l.6-.2c.1.6.3 1.2.4 1.8zm1.9-7.1c-.2.7-.3 1.3-.4 1.7h3.1v3.8c0 1-.1 1.7-.2 2-.1.6-.8.9-2 .9 0-.3-.1-.6-.3-.8h1.1c.3 0 .5-.2.6-.5.1-.3.1-.9.2-1.9v-3h-2.6c-.2.6-.4 1.1-.6 1.5-.2-.2-.4-.3-.6-.4.3-.6.5-1.2.7-1.9.2-.6.3-1.2.4-1.8l.6.4zm.9 5.3-.5.5c-.3-.5-.8-1.1-1.3-1.7l.5-.4c.5.5.9 1.1 1.3 1.6zM426.8 374.3v-5.4c-.5.3-.9.4-1.3.5v-.7c.5-.1.9-.2 1.3-.5h.7v6.1h-.7zM433.3 373.9c-.4.4-.9.5-1.4.5-1.1 0-1.8-.6-2.1-1.7h.8c.2.8.6 1.2 1.2 1.2.3 0 .6-.1.9-.3.3-.2.4-.5.4-.8 0-.9-.5-1.4-1.5-1.4h-.7v-.6h.5c1 0 1.5-.4 1.5-1.2 0-.3-.1-.6-.3-.8-.2-.2-.5-.3-.8-.3-.6 0-1 .4-1.1 1.1h-.7c.2-1 .8-1.6 1.8-1.6.5 0 .9.2 1.3.5s.5.7.5 1.2c0 .6-.3 1.1-.9 1.4.7.4 1.1 1 1.1 1.7.2.4 0 .8-.5 1.1zM436.3 374.5h-.7l-.1-.1v-.6l.1-.1h.7l.1.1v.6l-.1.1zM441.4 374.1c-.4.3-.9.4-1.5.4s-1.1-.1-1.5-.4c-.5-.3-.7-.7-.7-1.2 0-.4.1-.8.3-1.1.2-.2.5-.5 1-.8-.4-.2-.7-.4-.9-.6-.2-.2-.3-.5-.3-.8 0-.5.2-.9.6-1.2.4-.2.8-.4 1.4-.4.5 0 .9.1 1.3.4.3.3.5.7.5 1.2 0 .4-.1.6-.2.8-.2.2-.4.4-.8.6.5.2.9.5 1.1.7.2.3.4.6.4 1.1 0 .6-.2 1-.7 1.3zm-.5-2.2c-.2-.1-.5-.3-1-.6-.5.2-.8.4-.9.6-.3.3-.4.6-.4 1s.2.7.5.9c.3.1.6.2 1 .2s.7-.1 1-.3c.3-.2.5-.5.5-.8-.2-.4-.4-.7-.7-1zm-.2-3.1c-.2-.2-.5-.3-.8-.3-.3 0-.6.1-.9.3-.3.2-.4.5-.4.8 0 .3.1.5.4.7.2.1.4.3.8.4l.8-.4c.3-.2.4-.5.4-.7 0-.3-.1-.5-.3-.8zM445.1 368.3v-1.7h.7v1.7h1.4v4.5c0 .2 0 .3-.1.4-.1.1-.4.2-.8.2 0-.3-.1-.5-.2-.7h.3c.1 0 .2 0 .2-.1v-3.7h-.7v6.5h-.7v-6.5h-.7v4.5h-.6v-5.1h1.2zm4.9-1.6v1.8h2.1v.6H450v2h1.7v4.2h-.7v-.5h-2.7v.6h-.6v-4.3h1.6v-4.4h.7zm1 7.5v-2.5h-2.7v2.5h2.7zM455.6 373.8c-.3.6-.9 1.2-1.6 1.9l-.5-.4c.7-.6 1.1-1.2 1.5-1.8.4-.7.6-1.4.6-2.2 0-.8-.2-1.5-.6-2.2-.3-.5-.8-1.1-1.5-1.8l.5-.5c.7.7 1.2 1.3 1.6 1.9.4.8.6 1.6.6 2.5s-.2 1.8-.6 2.6zM449.4 213.4l-.1.1c.5.5 1 .8 1.6 1.1.6.3 1.2.6 1.9.8-.1.1-.2.2-.4.5-.6-.2-1.3-.5-1.8-.9-.5-.3-1.1-.7-1.6-1.2-.4.4-.9.8-1.4 1.1-.7.5-1.3.8-1.7 1-.1-.2-.3-.3-.4-.4.7-.3 1.3-.6 1.8-1 .6-.4 1.1-.9 1.6-1.4l.5.3zm-.2 1.3v.8h1.9v2.8H449c.2.3.5.6.9.9.7-.3 1.3-.7 1.7-1l.4.5c-.5.3-1.1.6-1.6.8.6.3 1.3.5 2.1.6-.1.2-.2.4-.3.5-1-.2-1.9-.5-2.5-1-.6-.4-1-.8-1.3-1.4h-1.1v1.4c.5-.1 1.1-.1 1.7-.2v.5c-1.2.2-2.3.3-3.4.5l-.1-.6c.4 0 .9-.1 1.3-.2v-4.3h1.9v-.8h.5zm1.4 2v-.6h-3.3v.6h3.3zm0 1.2v-.7h-3.3v.7h3.3zM456.4 216.2c.2-.2.4-.5.6-.7l.6.2c-.1.2-.3.4-.4.5h3.6v.5h-2.3c.3.2.5.5.8.7.4.3 1 .5 1.7.7-.2.2-.4.4-.4.5-.2-.1-.3-.1-.5-.2v2.2h-.5v-.4h-1.3v.4h-.5v-2.4h1.8c-.3-.1-.5-.3-.7-.4-.4-.3-.8-.6-1-1h-1.1c-.3.3-.5.5-.8.7-.3.3-.7.5-1.1.7h1.8v2.5h-.5v-.4h-1.3v.4h-.5v-2.2c-.2.1-.4.2-.5.3-.1-.2-.2-.3-.4-.5.8-.3 1.5-.7 2.1-1.1.2-.1.3-.3.5-.4h-2.3v-.5h2.6zm-2.1-.7v-2h2.3v2h-2.3zm.6-.5h1.2v-1h-1.2v1zm1.3 4.7v-1.1h-1.3v1.1h1.3zm1.6-4.2v-2h2.4v2h-2.4zm.5-.5h1.3v-1h-1.3v1zm1.3 4.7v-1.1h-1.3v1.1h1.3zM462.8 215.1v-1.8h.5v1.8h.9v.5h-.9v.7l.4.4c.1.1.3.2.5.4-.1.2-.2.3-.3.5-.2-.2-.4-.3-.5-.4 0 0-.1 0-.1-.1v3.7h-.5v-3.7c-.1.3-.2.5-.3.8-.2.4-.4.7-.5.8-.1-.2-.2-.4-.3-.5.3-.4.5-.7.7-1.1.2-.3.3-.7.5-1.3h-.9v-.5h.8zm3.4-1.4v6.1c0 .2 0 .3-.1.4-.1.1-.4.2-.8.2 0-.2-.1-.4-.2-.5h.4c.1 0 .2 0 .2-.1V218h-.8c0 .3-.1.5-.1.8-.1.7-.3 1.3-.6 1.8-.1-.2-.2-.4-.4-.5.3-.5.5-1 .6-1.6.1-.5.1-1.2.1-1.9v-2.8h1.7zm-.5 3.7V216h-.8v1.4h.8zm0-1.8v-1.4h-.8v1.4h.8zm3-1.9v6.3c0 .2 0 .3-.1.4-.1.1-.4.1-.9.2 0-.2-.1-.4-.2-.5h.4c.2 0 .2 0 .2-.1v-2h-.9c0 .4-.1.7-.1 1-.1.7-.3 1.2-.5 1.7-.1-.2-.2-.4-.4-.5.2-.4.3-1 .4-1.5 0-.5.1-1.1.1-1.8v-3.1h2zm-.5 3.7V216h-.9v1.4h.9zm0-1.8v-1.4h-.9v1.4h.9zM402.7 212.2v-1.8h.5v1.8h.9v.5h-.9v.7l.4.4c.1.1.3.2.5.4-.1.2-.2.3-.3.5-.2-.2-.4-.3-.5-.4 0 0-.1 0-.1-.1v3.7h-.5V214c-.1.3-.2.5-.3.8-.2.4-.4.7-.5.8-.1-.2-.2-.4-.3-.5.3-.4.5-.7.7-1.1.2-.3.3-.7.5-1.3h-.9v-.5h.8zm3.4-1.4v6.1c0 .2 0 .3-.1.4-.1.1-.4.2-.8.2 0-.2-.1-.4-.2-.5h.4c.1 0 .2 0 .2-.1V215h-.8c0 .3-.1.5-.1.8-.1.7-.3 1.3-.6 1.8-.1-.2-.2-.4-.4-.5.3-.5.5-1 .6-1.6.1-.5.1-1.2.1-1.9v-2.8h1.7zm-.5 3.7v-1.3h-.8v1.4h.8zm0-1.8v-1.4h-.8v1.4h.8zm3.1-1.9v6.3c0 .2 0 .3-.1.4-.1.1-.4.1-.9.2 0-.2-.1-.4-.2-.5h.4c.2 0 .2 0 .2-.1v-2h-.9c0 .4-.1.7-.1 1-.1.7-.3 1.2-.5 1.7-.1-.2-.2-.4-.4-.5.2-.4.3-1 .4-1.5 0-.5.1-1.1.1-1.8v-3.1h2zm-.6 3.7v-1.3h-.9v1.4h.9zm0-1.8v-1.4h-.9v1.4h.9zM133.8 250.3v-1.8h.5v1.8h.9v.5h-.9v.7l.4.4c.1.1.3.2.5.4-.1.2-.2.3-.3.5-.2-.2-.4-.3-.5-.4 0 0-.1 0-.1-.1v3.7h-.5v-3.7c-.1.3-.2.5-.3.8-.2.4-.4.7-.5.8-.1-.2-.2-.4-.3-.5.3-.4.5-.7.7-1.1.2-.3.3-.7.5-1.3h-.9v-.5h.8zm3.4-1.4v6.1c0 .2 0 .3-.1.4-.1.1-.4.2-.8.2 0-.2-.1-.4-.2-.5h.4c.1 0 .2 0 .2-.1v-1.8h-.8c0 .3-.1.5-.1.8-.1.7-.3 1.3-.6 1.8-.1-.2-.2-.4-.4-.5.3-.5.5-1 .6-1.6.1-.5.1-1.2.1-1.9V249h1.7zm-.5 3.7v-1.3h-.7v1.4h.7zm0-1.8v-1.4h-.7v1.4h.7zm3.1-1.9v6.3c0 .2 0 .3-.1.4-.1.1-.4.1-.9.2 0-.2-.1-.4-.2-.5h.4c.2 0 .2 0 .2-.1v-2h-.9c0 .4-.1.7-.1 1-.1.7-.3 1.2-.5 1.7-.1-.2-.2-.4-.4-.5.2-.4.3-1 .4-1.5 0-.5.1-1.1.1-1.8V249h2zm-.5 3.7v-1.3h-.9v1.4h.9zm0-1.8v-1.4h-.9v1.4h.9zM507.8 218.2l-1.1 2.6-.5-.3 1.2-2.6c.2.2.3.3.4.3zm0-2.8-.4.5c-.3-.3-.6-.5-1.1-.7l.3-.5c.5.2.9.4 1.2.7zm3.1-1.1c0 .1-.1.1-.1.1.4.6.8 1 1.2 1.4.4.4.9.8 1.5 1.1-.2.2-.3.3-.4.5-.4-.2-.8-.5-1.2-.9-.5-.4-.9-.9-1.4-1.6-.3.5-.6.9-1 1.3-.5.5-1 1-1.5 1.3-.1-.2-.2-.3-.3-.5.5-.3.9-.6 1.4-1.1.5-.5.9-1.1 1.3-1.8l.5.2zm1.7 3.9v2c0 .3-.1.4-.2.5-.1.1-.4.1-.9.2 0-.2-.1-.4-.2-.6h.7c.1 0 .1 0 .1-.2v-1.5h-1.8v2.9h-.6v-2.9h-1.5v-.5h4.4zm-.9-1.4v.5h-2.5v-.5h2.5zM516.5 214.6v-.5h.5v.5h1.9v-.5h.5v.5h2v.4h-2v.6h.3v.6h1.8v.5h-1.8c0 .8 0 1.4.1 1.7 0 .3.1.6.1.8.3-.4.6-1 .9-1.7l.5.2c-.4.8-.8 1.5-1.2 2.1.1.2.1.3.2.4.2.3.3.4.4.4.1 0 .3-.2.5-.7.1.1.3.2.4.2-.2.5-.3.9-.5 1-.1.1-.2.2-.3.2-.3 0-.5-.1-.7-.4-.2-.2-.4-.4-.5-.7-.5.5-1.1.9-1.6 1.1-.1-.2-.2-.3-.4-.4.3-.1.6-.3.8-.5.3-.2.6-.5.9-.7l-.3-1.2c-.1-.4-.1-1-.1-1.8h-3.6v1c0 .8-.1 1.5-.2 1.9-.1.5-.4 1.1-.7 1.6-.1-.1-.3-.3-.5-.3.3-.4.5-.9.7-1.4.1-.4.2-.9.2-1.7v-1.4h4.1v-.6h-.3v-.6H517v.6h-.5v-.6h-2v-.4h2zm2.2 3.1h-1v.5h1v1.3h-1v.6h1v.4h-2.1v.4h-.5v-3.6h2.6v.4zm-1.4.5v-.5h-.7v.5h.7zm1 1v-.6h-1.7v.6h1.7zm-1 .9v-.6h-.7v.6h.7zm3.9-4.1-.3.3c-.2-.2-.5-.5-.8-.7l.3-.3c.3.3.6.5.8.7zM526.6 214.1v.7h3v.5h-5.9v2.7c0 .8 0 1.5-.1 1.9-.1.5-.3 1-.6 1.6-.1-.2-.3-.3-.5-.4.3-.4.5-.9.6-1.4.1-.3.1-.9.1-1.7v-3.2h2.9v-.7h.5zm-.1 2v-.6h.5v.6h2.3v.5H527v.5h1.9v2.4H527v.6h2.8v.5H527v1h-.5v-1h-2.7v-.6h2.7v-.6h-1.9V217h1.9v-.5h-2.2v-.5h2.2zm-1.3 2h1.3v-.5h-1.3v.5zm1.3.4h-1.3v.5h1.3v-.5zm.6-.4h1.4v-.5h-1.4v.5zm0 .4v.5h1.4v-.5h-1.4zM514.2 225.9v.6h3.3v.4h-3.3v.5h2.1v2.7h-4.2v-2.7h1.5v-.5h-3.5v-.4h3.5v-.6h-2.8v-1.7h6v1.7h-2.6zm-3 1.7v3h6.2v.5h-6.2v.4h-.5v-3.8h.5zm.2-2.1h1.3v-.8h-1.3v.8zm1.3 2.7h3.1v-.4h-3.1v.4zm0 .3v.4h3.1v-.4h-3.1zm0 .8v.4h3.1v-.4h-3.1zm.5-3.8h1.4v-.8h-1.4v.8zm1.9 0h1.3v-.8h-1.3v.8zM519.3 226.1v-2h.5v2h.8v.5h-.8v2.4l.9-.3v.4c.3-.2.5-.4.7-.6.2-.2.4-.5.5-.8h-1.2v-.5h5.2v.5h-3.3c-.1.2-.2.4-.4.6h3.3c0 1 0 1.7-.1 2.1-.1.4-.2.6-.3.7-.1.1-.5.2-1 .2 0-.2-.1-.4-.2-.5h.7c.1 0 .2-.1.3-.4.1-.3.1-.8.1-1.5h-.5c-.3.7-.6 1.2-1 1.6-.4.4-.8.7-1.2.9-.1-.1-.2-.3-.4-.4.5-.2.9-.5 1.2-.9.3-.3.5-.7.8-1.2h-.7c-.2.5-.5.8-.8 1.1-.4.3-.7.5-1.1.7-.1-.1-.2-.3-.4-.4.4-.2.7-.4 1-.7.2-.2.4-.4.6-.8h-.7c-.3.3-.6.6-1.1.9-.1-.1-.2-.3-.3-.4-.7.2-1.3.4-1.9.6l-.1-.6c.3-.1.6-.2 1-.3v-2.6h-.8v-.5h.7zm2.3.6v-2.6h3.5v2.6h-3.5zm.5-1.5h2.4v-.5h-2.4v.5zm0 .5v.5h2.4v-.5h-2.4zM120.9 170.8l-.9 1.8-.4-.2 1-1.8c.2.1.2.2.3.2zm-.2-1.2-.2.3c-.2-.2-.5-.4-.8-.5l.2-.3c.3.1.6.3.8.5zm.3-1.3-.2.3c-.2-.3-.5-.5-.7-.6l.2-.3c.2.1.5.3.7.6zm1.1-.4c-.1.3-.2.5-.3.7h.8v-1h.4v1h1.4v.3H123v1h1.7v.3h-1.2v1.8c0 .1 0 .1.1.1h.6c.1 0 .2-.1.2-.1.1-.1.1-.2.1-.4.1.1.2.1.4.1 0 .2-.1.4-.2.6-.1.2-.2.2-.4.2h-.7c-.3 0-.4-.2-.4-.5v-1.8h-.8c0 .7-.1 1.2-.3 1.5-.2.3-.6.6-1.1.8-.1-.1-.1-.3-.2-.4.5-.2.9-.5 1-.8.1-.3.2-.6.2-1.1h-1v-.3h1.7v-1h-1c-.1.3-.3.5-.4.7-.1-.1-.2-.2-.3-.2.2-.3.4-.5.5-.8.1-.3.2-.5.3-.8l.3.1zM126.4 169.4l-.2.3c-.2-.1-.5-.2-.7-.3l.1-.3c.3.1.5.2.8.3zm.2 1.4-.8 1.8-.3-.2.8-1.8c.1.1.2.2.3.2zm0-2.6-.2.3c-.2-.2-.4-.4-.6-.5l.2-.3c.2.1.4.3.6.5zm1.3 1.5c-.1.1-.1.2-.2.3h1c.1-.1.2-.3.3-.5l.3.1c-.1.1-.1.3-.2.4h1.3v.3H129v.4h1.3v.3H129v.4h1.3v.3H129v.5h1.5v.3h-2.9v.2h-.4v-2.1l-.4.4c-.1-.1-.1-.2-.2-.3.2-.1.4-.3.6-.5.2-.2.3-.4.5-.7l.2.2zm.5-2v1.8h-.4v-.1h-1.1v-.3h1.1v-.4h-1.1v-.3h1.1v-.4h-1.1v-.3h1.5zm.3 2.6h-1.1v.4h1.1v-.4zm0 .6h-1.1v.4h1.1v-.4zm0 1.2v-.5h-1.1v.5h1.1zm1.6-4.4v1.8h-.4v-.1h-1.2v-.3h1.2v-.4h-1.2v-.3h1.2v-.4h-1.2v-.3h1.6zM131.9 168.7v-1.2h.4v1.2h.5v.4h-.5v.6c.1.1.1.2.2.2l.3.3c-.1.1-.2.2-.2.3l-.3-.3v2.5h-.4v-2.4c-.1.4-.3.7-.5 1-.1-.1-.1-.2-.2-.3.2-.3.3-.6.4-.9.1-.2.2-.5.2-.9h-.6v-.4h.7zm2-.9-.5.9.2.2.3-.5.3.2-.7 1.1h.4c0-.1-.1-.2-.1-.3l.3-.1c.1.2.3.5.4.7-.1-.5-.1-1.3-.1-2.4h.4v1l.2-.2c.1 0 .1.1.2.1l.3-.8.3.2-.4.8.2.2.3-.5.3.2-.7 1.1h.4c0-.1-.1-.2-.1-.2l.3-.1c.1.2.2.5.3.8l-.4.1c0-.1 0-.1-.1-.2-.4.1-.8.1-1.1.1l-.1-.4h.2l.3-.5c-.2-.2-.4-.4-.7-.5 0 .7.1 1.2.1 1.6v.2h.6c0-.1-.1-.2-.1-.3l.3-.1c.1.1.2.3.2.4h.5v.4h-1.4c0 .2.1.4.2.5 0 .1.1.2.2.3.2-.2.4-.4.5-.6l.3.2c-.1.2-.3.4-.6.6.2.2.3.3.4.3 0 0 .1-.1.2-.5.1.1.2.1.4.2-.1.4-.2.6-.3.6 0 .1-.1.1-.2.1-.2 0-.5-.1-.7-.3l-.2-.2c-.4.3-.8.4-1.2.6 0-.1-.1-.2-.2-.4.4-.1.7-.3 1.1-.5h.1c-.1-.1-.1-.2-.2-.4s-.2-.5-.2-.7h-.7c0 .2-.1.3-.1.4.3.1.5.3.7.5l-.2.3c-.2-.2-.4-.3-.6-.4 0 .1-.1.2-.1.3-.1.3-.3.6-.6.9l-.3-.3c.2-.2.4-.5.5-.8.1-.2.2-.5.3-.8h-.6v-.4h1.7V170.2l-.4.1c0-.1 0-.1-.1-.2-.4.1-.8.1-1.1.1l-.1-.4h.2l.3-.5c-.2-.2-.5-.4-.7-.6l.2-.3c.1.1.2.1.2.2l.4-.9.7.1zM125.4 174.6v.4h2.3v.3h-2.3v.4h1.5v1.9H124v-1.9h1.1v-.4h-2.4v-.3h2.4v-.4h-2v-1.2h4.2v1.2h-1.9zm-2.1 1.2v2.1h4.4v.3h-4.4v.3h-.3v-2.7h.3zm.1-1.5h.9v-.6h-.9v.6zm.9 1.9h2.2v-.3h-2.2v.3zm0 .2v.3h2.2v-.3h-2.2zm0 .6v.3h2.2v-.3h-2.2zm.4-2.7h1v-.6h-1v.6zm1.3 0h.9v-.6h-.9v.6zM128.9 174.8v-1.4h.4v1.4h.6v.4h-.6v1.7c.2-.1.4-.1.6-.2v.3c.2-.1.4-.3.5-.4.1-.2.3-.3.4-.6h-.9v-.4h3.6v.4h-2.3c-.1.2-.2.3-.2.4h2.3c0 .7 0 1.2-.1 1.5-.1.2-.1.4-.2.5-.1.1-.3.1-.7.1 0-.1 0-.3-.1-.4h.5c.1 0 .1-.1.2-.3 0-.2.1-.6.1-1.1h-.4c-.2.5-.4.8-.7 1.1-.3.3-.6.5-.9.6 0-.1-.1-.2-.2-.3l.9-.6c.2-.2.4-.5.5-.9h-.5c-.2.3-.4.6-.6.8-.3.2-.5.4-.7.5 0-.1-.1-.2-.2-.3.3-.1.5-.3.7-.5.1-.1.3-.3.4-.5h-.5c-.2.2-.4.4-.8.6-.1-.1-.1-.2-.2-.3-.5.2-.9.3-1.4.4l-.1-.4c.2 0 .4-.1.7-.2v-1.8h-.6v-.4h.5zm1.7.4v-1.8h2.4v1.8h-2.4zm.4-1.1h1.7v-.4H131v.4zm0 .3v.4h1.7v-.4H131zM77.4 187.5l-2.1 4.4-.9-.5 2.2-4.4c.3.3.5.5.8.5zm-.6-3-.5.8c-.5-.5-1.1-.9-1.8-1.3l.4-.8c.8.4 1.4.9 1.9 1.3zm.7-3.2-.5.8c-.6-.6-1.2-1-1.8-1.4l.5-.7c.6.3 1.2.7 1.8 1.3zm5.1 1.2c-.1.1-.1.2-.2.3.7.8 1.4 1.5 2.1 2 .8.6 1.7 1.1 2.7 1.6-.3.3-.5.6-.7.9-.7-.3-1.4-.8-2.2-1.4-.8-.6-1.6-1.4-2.5-2.3-.5.7-1.1 1.3-1.6 1.9-.9.8-1.6 1.4-2.2 1.8-.2-.3-.4-.6-.6-.8.8-.5 1.6-1.1 2.3-1.9.7-.7 1.4-1.5 2-2.6l.9.5zm-1.5-2.3c-.8 1.1-1.7 1.9-2.8 2.6-.1-.3-.4-.6-.7-.8 1.1-.6 2-1.4 2.7-2.5l.8.7zm3.9 11.5h-.9v-.7h-3.8v.9h-.9v-5.4H85v5.2zm-.9-1.6v-2.8h-3.8v2.8h3.8zm.8-9.3c.4.3.9.6 1.4.7-.2.2-.4.5-.6.8-.6-.3-1.1-.6-1.6-1s-.9-.7-1.2-1l.5-.7c.5.5 1 .9 1.5 1.2zM93.3 188.2V187h1v1.2h4.3v.8h-4.3v1.5h5.5v.8H87.6v-.8h5.7V189h-4.1v-.8h4.1zm1-8.7v1.4h4.9v2.7h-1v.4h-5.1l-1.1 2c1.4-.1 2.9-.2 4.3-.3-.3-.3-.6-.5-.9-.7l.7-.7c1.2.9 2.1 1.7 2.7 2.2l-.7.7-.8-.8c-3.2.3-6 .5-8.3.6l-.2-.9c.7 0 1.4 0 2.1-.1l1.2-2h-2.9v-.4h-.9v-2.7h4.9v-1.4h1.1zm3.9 3.6v-1.3h-9v1.3h9zM77.9 201.3c-.8-.7-1.3-1.4-1.7-2.1-.5-.8-.7-1.7-.7-2.7 0-1 .2-1.9.7-2.7.4-.6.9-1.3 1.7-2.1l.5.5c-.7.7-1.2 1.3-1.6 1.9-.4.7-.6 1.6-.6 2.4 0 .9.2 1.7.6 2.4.3.6.9 1.2 1.6 1.9l-.5.5zM80.9 199.8v-5.9c-.5.3-1 .5-1.4.6v-.8c.5-.1 1-.3 1.4-.6h.8v6.7h-.8zM86.6 198.2v1.5H86v-1.5h-3.2v-.6l3.3-4.5h.5v4.5h.9v.6h-.9zm-.6-4-2.5 3.4H86v-3.4zM90.1 199.8v-5.9c-.5.3-1 .5-1.4.6v-.8c.5-.1 1-.3 1.4-.6h.8v6.7h-.8zM95.9 199.5c-.4.3-1 .4-1.6.4-.6 0-1.2-.1-1.6-.4-.5-.3-.8-.8-.8-1.3s.1-.9.3-1.2c.2-.3.6-.5 1.1-.8-.5-.2-.8-.4-.9-.7-.2-.2-.3-.5-.3-.9 0-.6.2-1 .7-1.3.4-.3.9-.4 1.5-.4s1 .2 1.4.5c.4.3.6.7.6 1.2 0 .4-.1.7-.2.9-.2.2-.5.4-.9.7.6.3 1 .5 1.2.8.3.3.4.7.4 1.2-.1.5-.4 1-.9 1.3zm-.6-2.4c-.2-.1-.6-.4-1.1-.6-.5.2-.8.4-1 .6-.3.3-.5.6-.5 1s.2.7.5.9c.3.2.6.2 1.1.2.4 0 .7-.1 1.1-.3.4-.2.5-.5.5-.9s-.2-.6-.6-.9zm-.1-3.3c-.2-.2-.5-.3-.8-.3-.4 0-.7.1-.9.3-.3.2-.4.5-.4.9 0 .3.1.6.4.8.2.1.5.3.9.4.2-.1.5-.2.8-.4.3-.2.4-.5.4-.8-.1-.4-.2-.7-.4-.9z"/><path d="M98.7 199.2c-.4.7-.9 1.3-1.7 2.1l-.5-.5c.7-.7 1.2-1.3 1.6-1.9.4-.7.6-1.5.6-2.4 0-.9-.2-1.7-.6-2.4-.3-.6-.9-1.2-1.6-1.9l.5-.5c.8.7 1.3 1.4 1.7 2.1.5.8.7 1.7.7 2.7 0 .9-.2 1.9-.7 2.7zM354.4 103.1c-.2.5-.5 1-.9 1.4l-.3-.3c.6-.7 1-1.6 1.3-2.8l.4.2c-.1.6-.3 1.1-.5 1.5zm2.7 1.2c-.3-1-.8-1.9-1.3-2.8l.3-.2c.6.9 1.1 1.9 1.5 2.8l-.5.2zM355.9 107.6c-.5.4-1.1.8-1.9 1.1l-.2-.4c1.3-.4 2.5-1.3 3.4-2.5l.3.3c-.6.7-1.1 1.2-1.6 1.5zm-1-1.5c-.4-.3-.7-.6-1.1-.8l.2-.3c.4.2.8.5 1.1.8l-.2.3zM356.9 111.6c0 .5-.1.9-.1 1.2 0 .1-.1.2-.2.3-.1.1-.4.1-.8.2 0-.1-.1-.2-.1-.4h.4c.1 0 .3-.1.3-.2.1-.1.1-.4.1-.8v-1.1h-1.2c-.1.6-.3 1.2-.5 1.6-.3.4-.7.8-1.2 1.1l-.3-.3c.5-.3.9-.6 1.1-.9.3-.4.4-.8.5-1.4h-1.2v-.4h1.3v-1h.4v1h1.6l-.1 1.1zm0-1.4-.5-.5.2-.2c.2.2.4.3.6.5l-.3.2zm.4-.4-.5-.5.2-.2c.2.2.4.3.6.5l-.3.2zM355.3 117.7v-3.8h.3v3.8h-.3zM354.4 120.2c-.2.5-.5 1-.9 1.4l-.3-.3c.6-.7 1-1.6 1.3-2.8l.4.2c-.1.6-.3 1.1-.5 1.5zm2.7 1.3c-.3-1-.8-1.9-1.3-2.8l.3-.2c.6.9 1.1 1.9 1.5 2.8l-.5.2zm.3-2.7c-.1.1-.2.2-.3.2-.1 0-.3 0-.3-.1-.1-.1-.1-.2-.1-.3 0-.1 0-.3.1-.3.1-.1.2-.1.3-.1.1 0 .2 0 .3.1.1.1.1.2.1.3 0 0 0 .1-.1.2zm-.1-.5s-.1-.1-.2-.1c-.2 0-.3.1-.3.3 0 .1 0 .1.1.2 0 .1.1.1.2.1s.1 0 .2-.1c0 0 .1-.1.1-.2-.1-.1-.1-.2-.1-.2zM355.8 123.5v2.7h-.4v-2.4c-.6.5-1.2.9-1.8 1.1-.1-.1-.1-.3-.2-.4.6-.2 1.2-.6 1.8-1.1.5-.4 1-.9 1.5-1.4l.4.3c-.5.5-.9.9-1.3 1.2zM356.1 129.7c-.4.5-1 .9-1.9 1.2 0-.1-.1-.2-.2-.4.7-.2 1.3-.6 1.7-1 .4-.4.7-1 1-1.8h-3v-.4h3.2l.3.3c-.4 1-.7 1.7-1.1 2.1zm1.6-2.4c-.1.1-.2.2-.3.2-.1 0-.3 0-.3-.1-.1-.1-.1-.2-.1-.3 0-.1 0-.3.1-.3.1-.1.2-.1.3-.1.1 0 .2 0 .3.1.1.1.1.2.1.3 0 0 0 .1-.1.2zm-.1-.5s-.1-.1-.2-.1c-.2 0-.3.1-.3.3 0 .1 0 .1.1.2 0 .1.1.1.2.1s.1 0 .2-.1c0 0 .1-.1.1-.2-.1-.1-.1-.1-.1-.2zM392.8 98.7c-.2.5-.5 1-.9 1.4l-.3-.3c.6-.7 1-1.6 1.3-2.8l.4.2c-.2.6-.3 1.1-.5 1.5zm2.7 1.2c-.3-1-.8-1.9-1.3-2.8l.3-.2c.6.9 1.1 1.9 1.5 2.8l-.5.2zM394.3 103.2c-.5.4-1.1.8-1.9 1.1l-.2-.4c1.3-.4 2.5-1.3 3.4-2.5l.3.3c-.6.6-1.1 1.2-1.6 1.5zm-1-1.5c-.4-.3-.7-.6-1.1-.8l.2-.3c.4.2.8.5 1.1.8l-.2.3zM395.3 107.2c0 .5-.1.9-.1 1.2 0 .1-.1.2-.2.3-.1.1-.4.1-.8.2 0-.1-.1-.2-.1-.4h.4c.1 0 .3-.1.3-.2.1-.1.1-.4.1-.8v-1.1h-1.2c-.1.6-.3 1.2-.5 1.6-.3.4-.7.8-1.2 1.1l-.3-.3c.5-.3.9-.6 1.1-.9.3-.4.4-.8.5-1.4h-1.2v-.5h1.3v-1h.4v1h1.6l-.1 1.2zm0-1.4-.5-.5.2-.2c.2.2.4.3.6.5l-.3.2zm.4-.4-.5-.5.2-.2c.2.2.4.3.6.5l-.3.2zM393.7 113.3v-3.8h.3v3.8h-.3zM392.8 115.8c-.2.5-.5 1-.9 1.4l-.3-.3c.6-.7 1-1.6 1.3-2.8l.4.2c-.2.6-.3 1.1-.5 1.5zm2.7 1.2c-.3-1-.8-1.9-1.3-2.8l.3-.2c.6.9 1.1 1.9 1.5 2.8l-.5.2zm.3-2.6c-.1.1-.2.2-.3.2-.1 0-.3 0-.3-.1-.1-.1-.1-.2-.1-.3 0-.1 0-.3.1-.3.1-.1.2-.1.3-.1.1 0 .2 0 .3.1.1.1.1.2.1.3 0 0 0 .1-.1.2zm-.2-.5s-.1-.1-.2-.1c-.2 0-.3.1-.3.3 0 .1 0 .1.1.2 0 .1.1.1.2.1s.1 0 .2-.1c0 0 .1-.1.1-.2s0-.2-.1-.2zM394.2 119.1v2.7h-.4v-2.4c-.6.5-1.2.9-1.8 1.1-.1-.1-.1-.3-.2-.4.6-.2 1.2-.6 1.8-1.1.5-.4 1-.9 1.5-1.4l.4.3c-.6.5-1 .9-1.3 1.2zM394.5 125.3c-.4.5-1 .9-1.9 1.2 0-.1-.1-.2-.2-.4.7-.2 1.3-.6 1.7-1 .4-.4.7-1 1-1.8h-3v-.3h3.2l.3.3c-.4.9-.7 1.6-1.1 2zm1.6-2.4c-.1.1-.2.2-.3.2-.1 0-.3 0-.3-.1-.1-.1-.1-.2-.1-.3 0-.1 0-.3.1-.3.1-.1.2-.1.3-.1.1 0 .2 0 .3.1.1.1.1.2.1.3 0 0 0 .1-.1.2zm-.2-.5s-.1-.1-.2-.1c-.2 0-.3.1-.3.3 0 .1 0 .1.1.2 0 .1.1.1.2.1s.1 0 .2-.1c0 0 .1-.1.1-.2s0-.2-.1-.2zM367.5 104.3c-.6.7-1.5 1.2-2.5 1.5-.1-.1-.2-.3-.3-.5.9-.2 1.7-.6 2.2-1.2.5-.5 1-1.2 1.4-2.2h-2.1c-.4.7-1 1.3-1.5 1.9-.1-.1-.3-.2-.4-.3.5-.4.9-.9 1.2-1.3.2-.4.5-.9.9-1.6l.5.2c-.1.2-.2.5-.4.8h2.1l.1-.1.3.3c-.4 1-.9 1.9-1.5 2.5zM368.3 110.9v-.4H365v.4h-.5v-4.3h4.3v4.3h-.5zm0-3.8H365v2.9h3.3v-2.9zM366.5 116.8v-5.1h.5v5.1h-.5zM367.4 121l-.3-.4c.5-.5 1-.9 1.4-1.4l-2.4.4v2.1c0 .3.2.4.6.5h1c.6 0 1.1 0 1.5-.1v.5c-.6 0-1.2.1-1.6.1-.6 0-1 0-1.3-.1-.5-.1-.7-.4-.7-.9v-2.1l-1.5.2-.1-.5 1.6-.2v-1.7h.5v1.6l2.6-.4.1-.1.4.4c-.7 1-1.3 1.7-1.8 2.1zm1.6-2.4c-.2-.2-.4-.4-.7-.6l.2-.3c.3.2.6.4.7.6l-.2.3zm.4-.5c-.2-.2-.4-.4-.7-.6l.2-.3c.3.2.6.4.7.6l-.2.3zM366.2 125.3c-.2-.3-.4-.7-.7-1.1l.4-.2c.2.4.5.7.7 1.2l-.4.1zm2.9.1c-.3.6-.7 1-1.1 1.4-.4.3-.9.6-1.5.9-.1-.2-.2-.3-.3-.4.6-.2 1-.4 1.4-.6.4-.3.7-.7 1-1.2.2-.4.4-1 .6-1.6l.5.1c-.2.5-.4 1-.6 1.4zm-1.7-.5c-.1-.4-.3-.8-.5-1.1l.4-.2c.2.4.4.8.6 1.1l-.5.2zM368.8 131.8c-.7-.4-1.6-.8-2.7-1.2v3.3h-.5v-5.6h.5v1.8c1 .3 2 .7 3 1.2l-.3.5zM383.7 99.4c-.6.7-1.5 1.2-2.5 1.5-.1-.1-.2-.3-.3-.5.9-.2 1.7-.6 2.2-1.2.5-.5 1-1.2 1.4-2.2h-2.1c-.4.7-1 1.3-1.5 1.9-.1-.1-.3-.2-.4-.3.5-.4.9-.9 1.2-1.3.2-.4.5-.9.9-1.6l.5.2c-.1.2-.2.5-.4.8h2.1l.1-.1.3.3c-.4 1.1-.9 1.9-1.5 2.5zM384.5 106.1v-.4h-3.3v.4h-.5v-4.3h4.3v4.3h-.5zm0-3.9h-3.3v2.9h3.3v-2.9zM382.6 112v-5.1h.5v5.1h-.5zM383.6 116.2l-.3-.4c.5-.5 1-.9 1.4-1.4l-2.4.4v2.1c0 .3.2.4.6.5h1c.6 0 1.1 0 1.5-.1v.5c-.6 0-1.2.1-1.6.1-.6 0-1 0-1.3-.1-.5-.1-.7-.4-.7-.9v-2.1l-1.5.2-.1-.5 1.6-.2v-1.7h.5v1.6l2.6-.4.1-.1.4.4c-.7 1-1.3 1.6-1.8 2.1zm1.5-2.5c-.2-.2-.4-.4-.7-.6l.2-.3c.3.2.6.4.7.6l-.2.3zm.5-.5c-.2-.2-.4-.4-.7-.6l.2-.3c.3.2.6.4.7.6l-.2.3zM382.4 120.4c-.2-.3-.4-.7-.7-1.1l.4-.2c.2.4.5.7.7 1.2l-.4.1zm2.9.2c-.3.6-.7 1-1.1 1.4-.4.3-.9.6-1.5.9-.1-.2-.2-.3-.3-.4.6-.2 1-.4 1.4-.6.4-.3.7-.7 1-1.2.2-.4.4-1 .6-1.6l.5.1c-.2.5-.4 1-.6 1.4zm-1.7-.5c-.1-.4-.3-.8-.5-1.1l.4-.2c.2.4.4.8.6 1.1l-.5.2zM384.9 127c-.7-.4-1.6-.8-2.7-1.2v3.3h-.5v-5.6h.5v1.8c1 .3 2 .7 3 1.2l-.3.5zM104.9 246.9v-.5h.4v.5h2.5v.4h-2.5v.5h2v2.1h-.8v.5h1.5v.4h-1.5v1c0 .2-.1.3-.2.3-.2.1-.4.1-.7.1 0-.2-.1-.3-.2-.5h.6c.1 0 .1 0 .1-.1v-.9h-3.8v-.4h3.8v-.5h-3v-2.1h1.9v-.5h-2.5v-.4h2.4zm-.5 4.6-.4.3c-.2-.3-.4-.5-.7-.8l.3-.3c.3.3.6.5.8.8zm-1-2.9h1.5v-.5h-1.5v.5zm1.5.3h-1.5v.5h1.5v-.5zm.4-.3h1.5v-.5h-1.5v.5zm0 .3v.5h1.5v-.5h-1.5zM114 246.7v4.9c0 .2-.1.4-.2.4-.1.1-.4.1-.7.1 0-.2-.1-.3-.2-.5h.5c.1 0 .1 0 .1-.1V250h-1.7v2.1h-.4V250h-1.5c-.1.9-.3 1.6-.8 2.2-.1-.2-.3-.3-.4-.4.5-.6.8-1.4.8-2.5v-2.7h4.5zm-2.6 3v-1h-1.5v1.1h1.5zm0-1.5v-1.1h-1.5v1.1h1.5zm.5 0h1.7v-1.1h-1.7v1.1zm0 1.5h1.7v-1h-1.7v1zM92.8 257.9c-.7-.4-1.6-.8-2.7-1.2v3.3h-.5v-5.6h.5v1.8c1 .3 2 .7 3 1.2l-.3.5zM97.2 258.8c-.6.5-1.4.9-2.5 1.2 0-.2-.1-.3-.2-.5.9-.2 1.6-.5 2.1-.9.6-.4 1-1.1 1.5-1.9h-4.2v-.5h4.6l.3.3c-.6 1-1.1 1.8-1.6 2.3zm-2.7-3.6v-.5H98v.5h-3.5zM102.3 258.3c-.7.5-1.5 1-2.5 1.5l-.3-.6c1.8-.6 3.3-1.7 4.6-3.3.1.2.2.3.4.4-.8.8-1.5 1.5-2.2 2zm-1.3-2c-.5-.4-1-.8-1.4-1.1l.3-.4c.5.3 1 .7 1.5 1.1l-.4.4zM108.3 258.3c-.6.7-1.5 1.2-2.5 1.5-.1-.1-.2-.3-.3-.5.9-.2 1.7-.6 2.2-1.2.5-.5 1-1.2 1.4-2.2H107c-.4.7-1 1.3-1.5 1.9-.1-.1-.3-.2-.4-.3.5-.4.9-.9 1.2-1.3.2-.4.5-.9.9-1.6l.5.2c-.1.2-.2.5-.4.8h2.1l.1-.1.3.3c-.4 1.1-.9 1.9-1.5 2.5zM112.1 257.6c-.2.8-.7 1.5-1.4 2.1-.1-.2-.2-.3-.3-.4.5-.4.9-.8 1.1-1.4.2-.4.3-1 .3-1.7V255h.5c.1 1.2 0 2.1-.2 2.6zm1.7 2-.4-.4.1-.1v-4.5h.5v4.2c.7-.5 1.4-1.2 2-2 .1.1.2.2.4.3-.9 1.1-1.7 1.9-2.6 2.5zM116.9 257.4v-.5h5.1v.5h-5.1zM127.2 259.6c-.1-.2-.2-.4-.4-.7-2 .3-3.4.5-4.3.6l-.1-.6h.7c.6-1.2 1.2-2.6 1.7-4.3l.6.2c-.8 1.9-1.4 3.2-1.8 4 .9-.1 1.9-.2 3-.3-.3-.5-.7-1.1-1.1-1.6l.4-.3c.8 1 1.4 1.9 1.8 2.7l-.5.3zM213.3 282.6v1.2h3.2v.5h-3.4l-1.2 2.2c.4.3.7.5 1 .8l1.6-2.1.6.3-2.7 3.4c.9-.1 1.8-.1 2.9-.3-.3-.3-.6-.7-.9-1l.5-.4c.8.8 1.3 1.5 1.7 2.1l-.5.4c-.1-.2-.3-.4-.5-.6-2.3.3-4.3.5-5.9.5l-.1-.6c.6 0 1.3 0 2-.1l.9-1.2c-.7-.6-1.6-1.2-2.6-1.8l.3-.5c.4.2.8.5 1.2.7l.9-1.9h-2.9v-.5h3.2v-1.2h.7zM212.7 291.1v2.5h-2.3v4.5h-.6v-7h2.9zm-.6 1v-.5h-1.7v.5h1.7zm0 1v-.5h-1.7v.5h1.7zm4.2-2v6.3c0 .3-.1.5-.2.5-.2.1-.5.1-1 .2 0-.2-.1-.4-.2-.6h.7c.1 0 .1 0 .1-.2v-3.7h-1.9l.5.2-.5.8h1.1v.4h-1.8v.7h2.1v.5h-1.8c.2.3.3.5.5.6.2.2.5.4 1 .6-.1.1-.3.2-.4.5-.4-.2-.8-.5-1-.7-.2-.2-.4-.5-.5-.8-.1.2-.2.3-.2.5-.3.4-.8.8-1.5 1.1-.1-.2-.2-.4-.4-.5.7-.2 1.2-.5 1.5-.9.1-.1.1-.2.2-.3H211v-.5h1.7v-.8h-1.5v-.4h.9c-.1-.2-.3-.4-.5-.6l.4-.3.7.7-.3.2h1l.5-1h-.3v-2.5h2.7zm-.5.5H214v.5h1.7v-.5zm0 1H214v.5h1.7v-.5zM210.4 300.1v3.7c.3-.1.7-.2 1.1-.4v-4.3h.5v7.2h-.5V304c-.7.3-1.4.5-2.1.8l-.1-.6c.2 0 .4-.1.6-.2v-3.9h.5zm6.1-.1c-.4 1.6-.9 2.8-1.4 3.6-.1.2-.2.3-.3.5.5.6 1.1 1.2 1.9 1.7-.2.1-.3.2-.4.4-.8-.5-1.4-1.1-1.9-1.7-.5.6-1.2 1.2-1.9 1.8-.1-.2-.2-.4-.4-.5.8-.5 1.4-1.1 2-1.8-.1-.1-.2-.3-.2-.4-.4-.9-.7-2.1-.7-3.4h-.7v-.5h3.6l.4.3zm-2 3.5c0-.1.1-.1.1-.2.5-.9.9-1.9 1.2-3.2h-2.1c.1 1.4.3 2.5.8 3.4zM211.1 307.5l-.8 1.6c.2.1.3.3.5.4l.8-1.4.5.3-1.5 2.5c.3 0 .7-.1 1-.1-.1-.1-.1-.3-.2-.5l.5-.2c.2.4.4.8.5 1.3l-.5.2c0-.1-.1-.3-.1-.4-.2 0-.5.1-.7.1v3.3h-.5v-3.2c-.5.1-.9.1-1.3.1l-.1-.5h.8l.5-1c-.4-.4-.8-.7-1.3-1l.3-.5c.1.1.2.1.4.2l.7-1.6.5.4zm-.9 4.7c0 .6-.2 1.3-.4 1.9l-.5-.1c.2-.5.3-1.2.4-1.9l.5.1zm2.1 1.3c-.1 0-.3 0-.5.1-.2-.4-.2-.9-.3-1.5l.5-.1c.1.6.1 1.1.3 1.5zm1.8-4.6v-1.6h.5v1.6h1.7v5c0 .3-.1.5-.2.5-.1.1-.4.1-.8.2 0-.2-.1-.4-.2-.6h.6c.1 0 .1 0 .1-.2v-4.4h-1.2c0 .4 0 .8-.1 1 .4.6.8 1.1 1.2 1.7l-.5.4c-.2-.4-.5-.9-.9-1.4-.2.6-.4 1.1-.8 1.7-.1-.1-.3-.3-.5-.4v2.1h-.5v-5.7h1.6zm-.2 2c.1-.3.2-.8.2-1.5h-1v3c.4-.4.7-.9.8-1.5zM216.4 319c-.5-.6-1-1-1.5-1.2-.6-.3-1.2-.5-1.8-.5-.7 0-1.3.2-1.8.5s-.9.6-1.5 1.2l-.4-.4c.6-.6 1.1-1 1.6-1.3.6-.4 1.3-.5 2.1-.5s1.5.2 2.1.5c.5.3 1 .7 1.6 1.3l-.4.4zM213.4 321.1v4.6h-.6v-4.6h-2v-.5h4.6v.5h-2zM215.2 329.2c-.6.4-1.3.5-2.1.5s-1.5-.2-2.1-.5c-.5-.3-1-.7-1.6-1.3l.4-.4c.5.6 1 1 1.5 1.2.6.3 1.2.5 1.8.5.7 0 1.3-.2 1.8-.5.4-.2.9-.6 1.5-1.2l.4.4c-.6.6-1.1 1-1.6 1.3zM169.5 266.8c-.2-.2-.5-.4-.8-.6.8-.9 1.5-2.1 2.2-3.4l.8.4c-.8 1.4-1.5 2.6-2.2 3.6zm4.2-5.1v6.5h-.8v-6.5h-4.2v-.8h4.2v-2.5h.8v2.5h4.5v.8h-4.5zm3.9 4.9c-.9-.9-1.8-2.1-2.5-3.4l.8-.5c.8 1.3 1.6 2.4 2.5 3.3-.3.1-.6.3-.8.6zM179.2 263.7v-.8h8.9v.8h-8.9zM191.9 264.1c-.4 1.4-1.2 2.7-2.4 3.7-.2-.3-.4-.5-.6-.8.9-.7 1.6-1.4 2-2.4.3-.8.5-1.8.6-3v-2.1h.9c-.1 2.2-.2 3.7-.5 4.6zm2.9 3.5-.6-.7.1-.1v-7.9h.8v7.4c1.2-.9 2.4-2 3.5-3.5.2.2.4.4.7.6-1.5 1.7-3 3.2-4.5 4.2zM170.6 299.2v1.7h4.5v.8h-4.8l-1.7 3.1c.5.4 1 .7 1.5 1.1l2.2-3 .8.5-3.8 4.8c1.2-.1 2.6-.2 4-.4-.4-.5-.8-.9-1.2-1.4l.7-.5c1.1 1.2 1.9 2.2 2.4 2.9l-.7.5-.6-.9c-3.2.4-6 .7-8.2.8l-.2-.8c.9 0 1.8-.1 2.8-.1l1.3-1.7c-1-.9-2.2-1.7-3.6-2.5l.4-.7c.6.3 1.1.6 1.6 1l1.3-2.7h-4v-.7h4.5v-1.7h.8zM181.2 299.6v3.5H178v6.4h-.8v-9.9h4zm-.9 1.4v-.7H178v.7h2.3zm0 1.4v-.7H178v.7h2.3zm6-2.8v8.9c0 .4-.1.6-.3.7-.2.1-.7.2-1.4.2 0-.3-.1-.6-.3-.9h1c.1 0 .2-.1.2-.2v-5.2h-2.7l.7.3-.7 1.1h1.6v.6h-2.6v.9h3v.7h-2.6c.2.4.4.7.7.9.3.3.7.6 1.4.8-.2.1-.4.3-.5.6-.6-.3-1.1-.7-1.5-1-.3-.3-.5-.6-.7-1.1-.1.2-.2.5-.3.7-.4.6-1.2 1.1-2.2 1.5-.1-.3-.3-.5-.6-.7 1-.3 1.7-.7 2.1-1.3.1-.1.2-.3.3-.5h-2.3v-.6h2.4v-.9h-2v-.6h1.3c-.2-.3-.4-.6-.7-.9l.5-.4c.3.3.7.7.9 1l-.4.3h1.4l.7-1.4h-.4v-3.5h4zm-.8.7h-2.4v.7h2.4v-.7zm0 1.4h-2.4v.7h2.4v-.7zM156.4 318.8c-.4-.4-.7-.8-.9-1.1-.3-.4-.4-.9-.4-1.5 0-.5.1-1 .4-1.5.2-.3.5-.7.9-1.1l.3.3c-.4.4-.7.7-.8 1-.2.4-.3.8-.3 1.3s.1.9.3 1.3c.2.3.5.7.8 1l-.3.3zM159.3 315v-1.5h.4v1.5h2.4v.4h-2.2c.1.6.4 1.1.7 1.6.4.6.9 1 1.5 1.3-.1.1-.2.2-.3.4-.6-.4-1.2-.9-1.6-1.5-.3-.4-.5-.9-.6-1.4-.1.4-.2.7-.3 1-.3.6-.9 1.3-1.9 2-.1-.2-.2-.3-.3-.4.8-.4 1.4-1 1.8-1.6.2-.4.4-.9.5-1.4h-2.1v-.4h2zM164.7 314.1v.4h-.7v1.1h.6v.4h-.6v1.3c.2-.1.5-.1.7-.2v.4c-.6.2-1.2.4-1.8.5l-.1-.4c.2-.1.5-.1.8-.2V316h-.7v-.4h.7v-1.1h-.7v-.4h1.8zm1.7 2.2v.7h1.3v.4h-1.3v.8h1.5v.4h-3.5v-.4h1.6v-.8h-1.2v-.4h1.2v-.7h-1.1v-2.6h2.7v2.6h-1.2zm-1.1-1.4h.8v-.7h-.8v.7zm.7.3h-.8v.7h.8v-.7zm.4-.3h.8v-.7h-.8v.7zm0 .3v.7h.8v-.7h-.8zM173.5 313.9v.4h-2.6c-.3.7-.5 1.2-.8 1.6h2.9v2.8h-.4v-.4h-2.5v.4h-.4v-2.3c-.3.3-.6.7-1 1l-.3-.3c.6-.4 1-.8 1.3-1.4.3-.4.5-.9.7-1.5h-1.7v-.4h4.8zm-.8 4v-1.7h-2.5v1.7h2.5zM176.3 314.6v.3h-2v-.3h2zm-.3-.7v.3h-1.5v-.3h1.5zm0 1.5v.3h-1.5v-.3h1.5zm0 .7v.3h-1.5v-.3h1.5zm.1.8v1.5h-1.2v.3h-.4v-1.8h1.6zm-.4 1.1v-.8h-.8v.8h.8zm3.5-4.2v4.4c0 .2 0 .3-.1.3s-.3.1-.5.1c0-.1-.1-.3-.1-.4h.4s.1 0 .1-.1V314h-1.9v2.2c0 .9-.2 1.7-.5 2.3-.1-.1-.2-.3-.3-.3.3-.5.4-1.2.4-2v-2.5h2.5zm-1.5 1.1v-.6h.3v.6h.5v.3h-.5v.6h.6v.3H177v-.3h.6v-.6h-.5v-.3h.6zm.8 1.6v1.3h-.9v.4h-.4v-1.7h1.3zm-.4 1v-.7h-.6v.7h.6zM182.9 317.1c-.6.6-1.3 1.1-2.3 1.5-.1-.1-.1-.2-.3-.4.9-.3 1.6-.8 2.2-1.4-.3-.3-.7-.6-1-.8l.2-.3c.4.3.8.5 1.1.8.3-.4.6-.9.9-1.5H182c-.5.7-1 1.2-1.7 1.6-.1-.1-.2-.3-.3-.4.6-.4 1-.7 1.2-1 .3-.3.5-.8.8-1.4l.5.2-.3.6h1.8l.3.3c-.4.9-.9 1.7-1.4 2.2zM187.8 315.4v3.2h-.4v-2.8c-.7.6-1.5 1-2.1 1.3-.1-.2-.1-.3-.2-.4.7-.3 1.4-.7 2.1-1.2.6-.5 1.2-1.1 1.7-1.7l.4.3c-.6.5-1.1.9-1.5 1.3zM191.3 316.6c-.2.7-.6 1.3-1.2 1.9-.1-.1-.2-.3-.3-.4.5-.3.8-.7 1-1.2.2-.4.3-.9.3-1.5v-1h.4c0 1-.1 1.7-.2 2.2zm1.4 1.7-.3-.3.1-.1v-4h.4v3.7c.6-.4 1.2-1 1.8-1.8l.3.3c-.8 1-1.5 1.7-2.3 2.2zM196.5 317.6c-.2.4-.5.7-.9 1.1l-.3-.3c.4-.4.7-.7.8-1 .2-.4.3-.8.3-1.3s-.1-.9-.3-1.3c-.2-.3-.5-.7-.8-1l.3-.3c.4.4.7.8.9 1.1.3.4.4.9.4 1.5s-.1 1.1-.4 1.5zM340.8 480.1c-.1.2-.3.3-.4.4h1.4l.2.3c-.6.6-1.1 1-1.5 1.3-.5.3-1.2.7-2.1 1 0-.1-.1-.2-.2-.4.6-.2 1.1-.4 1.8-.8-.2-.2-.3-.4-.6-.6l.3-.2c.3.2.4.4.6.6.5-.3.9-.6 1.2-1H340c-.1.1-.2.2-.3.2-.4.3-.9.5-1.3.7-.1-.1-.1-.2-.2-.3.4-.1.8-.3 1.2-.6.4-.2.8-.6 1.1-.9l.3.3zm.9 2.1c-.2.2-.5.4-.7.6h1.5l.2.3c-.4.6-1 1.1-1.6 1.4-.7.4-1.6.7-2.7.9-.1-.1-.1-.3-.2-.4.8-.1 1.6-.2 2.3-.6-.2-.2-.4-.4-.6-.7l.3-.2.7.7c.5-.3.9-.6 1.3-1.1h-1.7l-.1.1c-.4.3-1 .5-1.7.8l-.3-.3c.6-.2 1.2-.4 1.7-.7.4-.2.8-.6 1.2-1l.4.2zM347.7 485h-.4v-.3h-2.5v.4h-.4v-4.6h3.2v4.5zm-.3-3.3v-.9h-2.5v.9h2.5zm0 1.3v-.9h-2.5v.9h2.5zm0 1.3v-.9h-2.5v.9h2.5zM350.8 480.1l-.2.8h.7v3.8h-.3v-.3h-1v.4h-.4V481h.7l.1-.9h.4zm.2 2.4v-1.2h-1v1.2h1zm0 1.6v-1.3h-1v1.3h1zm1.8-4c-.1.3-.2.6-.2.9h1.7v1.7c0 1.1 0 1.7-.1 2 0 .2-.1.3-.2.3-.2.1-.4.1-.8.1 0-.1-.1-.3-.2-.4h.6c.1 0 .2-.1.2-.2 0-.2.1-.8.1-1.8v-1.4h-1.4v.1c-.1.4-.3.7-.5 1.1-.1-.1-.2-.2-.3-.2.2-.4.4-.8.5-1.2.1-.4.2-.7.3-1.1l.3.1zm.4 3-.3.3c-.2-.2-.4-.5-.7-.8l.2-.3c.4.3.6.5.8.8zM333.6 491.7c-.5-.6-1-1.3-1.7-1.9-.6.7-1.4 1.3-2.3 1.9-.1-.2-.2-.3-.3-.4.8-.4 1.5-.8 2-1.3.4-.4.9-1.1 1.5-2h-2.9v-.4h3.2l.3.3c-.4.6-.7 1.2-1 1.6.7.6 1.3 1.2 1.8 1.9l-.6.3zM338.1 491.5v-.4h-2.9v.4h-.4v-3.8h3.8v3.8h-.5zm0-3.4h-2.9v2.6h2.9v-2.6zM339.9 490c-.1-.3-.3-.6-.6-1l.3-.2c.2.3.4.7.6 1l-.3.2zm2.5.2c-.3.5-.6.9-1 1.2-.3.3-.8.5-1.3.7-.1-.1-.1-.3-.2-.4.5-.1.9-.3 1.2-.6.3-.2.6-.6.9-1 .2-.3.4-.8.5-1.4l.4.1c-.1.6-.3 1-.5 1.4zm-1.5-.5c-.1-.3-.3-.7-.5-1l.3-.1c.2.4.4.7.5 1l-.3.1zM346.4 490.4c-.5.6-1.2 1-2.2 1.4 0-.1-.1-.3-.2-.4.8-.3 1.5-.6 2-1.2.5-.5.9-1.2 1.2-2.1h-3.6v-.4h3.8l.3.3c-.4 1.1-.9 2-1.3 2.4zm1.9-2.7c-.1.1-.2.2-.4.2s-.3-.1-.4-.2c-.1-.1-.2-.2-.2-.4s.1-.3.2-.4c.1-.1.2-.2.4-.2.1 0 .3.1.4.2.1.1.2.2.2.4 0 .1-.1.2-.2.4zm-.2-.6c-.1-.1-.1-.1-.2-.1-.2 0-.3.1-.3.3 0 .1 0 .2.1.2.1.1.1.1.2.1s.2 0 .2-.1c.1-.1.1-.1.1-.2s0-.2-.1-.2zM349.9 489.6c-.3-.2-.7-.4-1-.5l.2-.4c.4.1.8.3 1.1.5l-.3.4zm1.6 1c-.6.4-1.3.8-2.2 1.1l-.2-.5c1.6-.5 2.9-1.4 3.9-2.7l.3.3c-.6.8-1.2 1.4-1.8 1.8zm-1-2.4c-.4-.2-.7-.4-1-.6l.2-.4c.4.2.8.4 1.1.6l-.3.4zM356.4 490.5c-.6.4-1.3.9-2.2 1.3l-.3-.5c1.5-.5 2.9-1.5 4-2.9l.3.3c-.6.8-1.2 1.4-1.8 1.8zm-1.2-1.8c-.4-.4-.8-.7-1.2-1l.3-.4c.5.3.9.6 1.3.9l-.4.5zM361.7 490.5c-.6.6-1.3 1-2.2 1.3-.1-.1-.1-.3-.2-.4.8-.2 1.5-.6 2-1 .4-.4.8-1.1 1.2-1.9h-1.8c-.4.6-.8 1.2-1.4 1.6-.1-.1-.2-.2-.4-.3l1.1-1.1c.2-.3.5-.8.8-1.4l.5.2c-.1.2-.2.4-.4.7H362.8l.3.3c-.5.8-.9 1.5-1.4 2zM350.2 58.1c-.2.7-.4 1.3-.6 1.8l-.2-.2c.2-.5.4-1.1.6-1.8l.2.2zm-.2-1.4-.1.3c-.1-.1-.3-.3-.5-.4l.1-.3c.2.1.4.2.5.4zm.3-1.3-.2.3-.5-.5.2-.3c.2.1.3.3.5.5zm2.4 3.9h.3v.4h-3v-.4h.4v-1.7h2.2v1.7zm-2-2.2V55h1.8v2.2h-1.8zm.4 2.2V58h-.4v1.3h.4zm-.2-3.4h1.3v-.5h-1.3v.5zm0 .3v.6h1.3v-.6h-1.3zm.9 3.1V58h-.4v1.3h.4zm.7 0V58h-.5v1.3h.5zM354.7 56.4c-.1.8-.2 1.3-.4 1.7-.2.5-.4.9-.7 1.3-.1-.1-.1-.3-.2-.3.3-.3.5-.7.7-1.1.1-.4.3-.9.3-1.4h-.9v-.4h1l.2.2zm.7-1.6v.9c.1.5.2.9.3 1.3.3-.3.6-.6.9-1l.2.3c-.3.4-.6.8-.9 1.1.1.1.1.3.2.4.3.6.6 1 1 1.3-.1.1-.1.2-.2.4-.4-.3-.8-.8-1-1.4-.2-.4-.3-.8-.4-1.2v2.7c0 .1-.1.2-.1.3-.1.1-.3.1-.5.1 0-.1 0-.3-.1-.4h.3s.1 0 .1-.1v-4.6h.2zM357.7 59.1l-.3-.3c.3-.5.5-1 .8-1.7l.3.2c-.3.7-.5 1.2-.8 1.8zm1.5-2.6v3.2h-.3v-3.2h-1.5v-.4h1.5v-1.2h.3v1.2h1.6v.4h-1.6zm1.3 2.4c-.3-.5-.6-1-.9-1.7l.3-.3c.3.7.6 1.2.9 1.7l-.3.3zm-.3-3c-.1-.2-.2-.4-.4-.6l.1-.2c.2.2.3.4.5.5l-.2.3zm.3-.4c-.1-.2-.2-.4-.4-.6l.1-.2c.2.2.3.4.5.5l-.2.3zM363.1 56.6v3.2h-.3V57c-.5.6-1 1-1.5 1.3 0-.2-.1-.3-.2-.4.5-.3 1-.7 1.4-1.2.4-.5.8-1.1 1.2-1.7l.3.3c-.3.5-.6.9-.9 1.3zM366.6 58.7c-.3.4-.9.8-1.5 1.1 0-.1-.1-.3-.1-.4.6-.2 1-.4 1.3-.8.3-.4.6-.9.9-1.7h-2.6v-.4h2.8l.2.3c-.4.8-.7 1.5-1 1.9zm-1.7-3.1v-.4h2.1v.4h-2.1zM367.9 57.5v-.4h3.1v.4h-3.1zM334.4 18.9c0 .3 0 .5-.1.7h.5v-1.3h.4v1.3h.6v.4h-.6v1.2c.2-.1.4-.1.6-.2v.4c-.2.1-.4.1-.6.2v2.1h-.4v-2c-.3.1-.7.2-1 .3l-.1-.4c.3-.1.7-.2 1.1-.3V20h-.5c-.1.3-.1.6-.2.8h-.3c.2-.6.3-1.2.4-1.9h.2zm2.7-.4c-.1.4-.2.7-.4 1h2.1l-.1 3.1c0 .3-.1.6-.1.7-.1.1-.2.2-.5.3h-.5c0-.2 0-.3-.1-.4h.6c.1 0 .2 0 .2-.1s0-.2.1-.4l.1-2.7h-.5c0 .8-.2 1.5-.5 2.1-.4.6-.8 1.1-1.4 1.5l-.3-.3c.6-.4 1-.8 1.3-1.4.3-.5.5-1.1.5-1.9h-.4c-.1.4-.2.9-.4 1.3-.3.5-.6.8-.9 1.1-.1-.1-.1-.2-.2-.3.3-.2.6-.5.8-.9.2-.3.3-.7.4-1.2h-.3c-.2.4-.4.7-.6 1-.1-.1-.2-.2-.3-.2.3-.4.5-.8.6-1.2.2-.3.3-.7.4-1.1h.4zM344.2 18.8v.4h-2v1.5h2.3v.3h-2.3v2.6h-.4V21h-2.3v-.4h2.3v-1.5H340v-.4h4.2zM348.1 18.5c0 .1-.1.1-.1.1.4.4.8.8 1.2 1.1.4.3.8.6 1.2.7-.1.1-.2.3-.2.4-.3-.2-.7-.4-1-.6v.3H348v.6h2v.4h-2V23h2.3v.4h-4.9V23h2.2v-1.4h-2v-.4h2v-.6h-1.2v-.3c-.4.3-.7.5-.9.6-.1-.1-.2-.3-.3-.3.5-.3.9-.6 1.3-1s.8-.8 1.2-1.4l.4.3zm-1.2 4.1-.4.2c-.1-.2-.3-.5-.4-.7l.4-.2c.1.2.3.4.4.7zm2.3-2.3c-.1-.1-.3-.2-.4-.3-.4-.3-.7-.7-1-1-.3.4-.7.7-1 1.1-.1.1-.2.2-.3.2h2.7zm.3 1.7-.5.9-.3-.2.4-.9.4.2zM351.7 18.9c0 .3 0 .5-.1.7h.5v-1.3h.4v1.3h.6v.4h-.6v1.2c.2-.1.4-.1.6-.2v.4c-.2.1-.4.1-.6.2v2.1h-.4v-2c-.3.1-.7.2-1 .3l-.1-.4c.3-.1.7-.2 1.1-.3V20h-.5c-.1.3-.1.6-.2.8h-.3c.2-.6.3-1.2.4-1.9h.2zm2.6-.4c-.1.4-.2.7-.4 1h2.1l-.1 3.1c0 .3-.1.6-.1.7-.1.1-.2.2-.5.3h-.5c0-.2 0-.3-.1-.4h.6c.1 0 .2 0 .2-.1s0-.2.1-.4l.1-2.7h-.4c0 .8-.2 1.5-.5 2.1-.4.6-.8 1.1-1.4 1.5l-.3-.3c.6-.4 1-.8 1.3-1.4.3-.5.5-1.1.5-1.9h-.4c-.1.4-.2.9-.4 1.3-.3.5-.6.8-.9 1.1-.1-.1-.1-.2-.2-.3.3-.2.6-.5.8-.9.2-.3.3-.7.4-1.2h-.3c-.2.4-.4.7-.6 1-.1-.1-.2-.2-.3-.2.3-.4.5-.8.6-1.2.2-.3.3-.7.4-1.1h.3zM572.1 325.3v2c.2.2.5.3.8.4.4.1.7.2 1.1.2h2c0 .1-.1.2-.1.4H574c-.3 0-.7-.1-1.1-.1-.4-.1-.6-.2-.9-.4-.3.3-.6.5-.8.6l-.2-.4c.3-.2.6-.3.8-.5v-1.7h-.8v-.4h1.1zm.2-1.6-.2.3c-.2-.2-.5-.3-.7-.4l.2-.3c.3.2.5.3.7.4zm.6 1.7h1.1v1.8h-.4v-.2h-.5v.3h-.4V326c-.1.3-.2.6-.4.8-.1-.1-.1-.2-.2-.3.2-.3.3-.6.4-.9.1-.3.1-.7.1-1.1v-1.2h1.4v1.6h-1c-.1.2-.1.4-.1.5zm0-.9h.7v-.9h-.7v.9zm.8 2.2v-1h-.5v1h.5zm2.1-2.5-.3.8h.6v.3h-.9v.7h.7v.3h-.7v1.2h-.4v-1.2h-.6v-.3h.6v-.7h-.8v-.3h1.1l.2-.9.5.1zm-.5-1.1v.6h.8v.3h-1.8v-.3h.7v-.6h.3zm-.4 1.7-.3.1c0-.2-.1-.4-.2-.6l.3-.1c.1.2.1.4.2.6zM579.3 324.8c.3-.5.6-1 .8-1.7l.4.2c-.1.4-.2.7-.4 1h.6l.4-1.1.4.2-.4 1h.7v.3h-.7v.7h.6v.3h-.6v.7h.6v.3h-.6v.9h.8v.3h-1.8v.3h-.4V325c-.1.1-.2.3-.3.4 0-.1-.1-.2-.1-.3v.6h-1v.4h1v.3h-1c0 .1 0 .2-.1.4h1.2v.3h-1.3c.2.2.3.3.5.4.2.1.4.3.6.3-.1.1-.2.2-.2.3-.3-.1-.5-.3-.7-.4-.1-.1-.3-.2-.4-.3-.2.3-.6.6-1 .9l-.3-.3c.5-.2.8-.4 1-.8 0 0 0-.1.1-.1h-1v-.3h1.1c0-.1 0-.2.1-.4h-1v-.4h1v-.4h-.9v-1.1h2.3v.3zm-1.8-1.2v-.4h.4v.4h.6v-.4h.4v.4h.6v.3h-.6v.4h-.4v-.4h-.6v.4h-.4v-.4h-.7v-.3h.7zm-.1 1.7h.6v-.5h-.6v.5zm.9 0h.7v-.5h-.7v.5zm2.4-.7h-.6v.7h.6v-.7zm0 1.1h-.6v.7h.6v-.7zm0 1.9v-.9h-.6v.9h.6zM583.8 326c-.3.6-.6 1.1-1 1.6l-.3-.3c.7-.8 1.2-1.9 1.6-3.2l.4.2c-.2.6-.5 1.2-.7 1.7zm3.2 1.4c-.4-1.1-.9-2.2-1.6-3.3l.4-.2c.7 1.1 1.3 2.2 1.7 3.3l-.5.2zM588.6 326.2c-.1-.3-.3-.6-.6-1l.3-.2c.2.3.4.7.6 1l-.3.2zm2.6.1c-.3.5-.6.9-1 1.2-.3.3-.8.5-1.4.7-.1-.1-.1-.3-.2-.4.5-.1.9-.3 1.2-.6.3-.2.6-.6.9-1 .2-.3.4-.8.5-1.4l.4.1c-.1.6-.2 1.1-.4 1.4zm-1.5-.5c-.1-.3-.3-.7-.5-1l.3-.1c.2.4.4.7.5 1l-.3.1zM595 325.5c0 .8-.2 1.3-.5 1.7-.3.4-.8.7-1.5 1-.1-.1-.2-.3-.3-.4.6-.2 1.1-.4 1.3-.7.3-.3.4-.8.4-1.5h-2.3v-.6h2.3v-1c-.7.1-1.2.2-1.7.2 0-.1-.1-.3-.1-.4 1.3-.1 2.4-.3 3.4-.6l.2.4c-.4.1-.9.2-1.4.3v1.1h2.2v.4h-2zM96 298.6l-.4-.4c.5-.4 1.1-1 1.8-1.7h-5.2v-.6H98l.5.5c-1.1 1.1-2 1.8-2.5 2.2zm-.9 1.9c-.3.7-1 1.3-2.1 1.8-.1-.2-.2-.4-.4-.6.9-.2 1.6-.6 1.9-1.2.3-.5.4-1.2.4-2.2v-.6h.6c0 1.3-.1 2.2-.4 2.8zM93.8 306.9c-.3 1-.9 1.9-1.7 2.6-.1-.2-.3-.4-.4-.5.6-.5 1.1-1 1.4-1.7.2-.5.4-1.3.4-2.2v-1.5h.6c0 1.5-.1 2.6-.3 3.3zm2.1 2.4-.5-.5.1-.1V303h.6v5.3c.9-.6 1.7-1.5 2.5-2.5.1.1.3.3.5.4-1 1.4-2.1 2.4-3.2 3.1zM97.1 315.6v-.4h-4.5v-.6h4.5v-3.4h-4.5v-.6h5.2v5.1h-.7zM95.1 322.7v-6.4h.6v6.4h-.6zM96.5 328.5c-.7.8-1.7 1.5-3.2 2.1l-.3-.6c1.2-.4 2.2-.9 2.9-1.7.7-.7 1.2-1.7 1.7-3h-5.1v-.6h5.4l.5.5c-.7 1.5-1.3 2.6-1.9 3.3zm2-3.6c-.2-.2-.5-.5-.9-.8l.3-.3c.4.3.7.5.9.8l-.3.3zm.6-.6c-.2-.2-.5-.5-.9-.8l.3-.3c.4.3.7.5.9.8l-.3.3zM138 296.6v1.1h.4l.2.2c-.2.4-.4.9-.7 1.2l.2.2c.2-.1.3-.3.5-.5l.2.3-.5.5c.1.1.3.2.4.3-.1.1-.2.2-.2.3-.2-.1-.4-.3-.5-.5l-.1-.1v2.1h-.4v-2.1l-.6.6c0-.1-.1-.3-.2-.4.6-.6 1.1-1.1 1.4-1.8h-1.3v-.3h.7v-1.1h.5zm3.7 5.1h-.4v-.4h-1.9v.4h-.4V298h1.1v-1.3h.4v1.3h1.1v3.7zm-1.5-2.2v-1.1h-.8v1.1h.8zm0 1.5v-1.2h-.8v1.2h.8zm.4-1.5h.8v-1.1h-.8v1.1zm0 1.5h.8v-1.2h-.8v1.2zM138.5 302.5c-.1.4-.3.8-.5 1.2v3.9h-.4v-3.2c-.2.3-.4.6-.7.9 0-.1-.1-.3-.2-.4.5-.7 1-1.5 1.4-2.6l.4.2zm2.1 1.3v-1.3h.4v1.3h1v.4h-1v2.9c0 .1-.1.2-.2.3-.2.1-.4.1-.7.1 0-.1 0-.3-.1-.4h.6c.1 0 .1 0 .1-.1v-2.8h-2.3v-.4h2.2zm-.8 1.9-.3.2c-.2-.3-.5-.6-.8-1l.3-.2c.4.4.6.8.8 1zM139.6 308.1v.9h2.2v.4h-2.4l-.8 1.6c.3.2.5.4.7.6l1.1-1.5.4.2-1.9 2.4c.6 0 1.3-.1 2-.2-.2-.2-.4-.5-.6-.7l.3-.2c.5.6.9 1.1 1.2 1.5l-.3.2c-.1-.2-.2-.3-.3-.4-1.6.2-3 .3-4.1.4l-.1-.4c.4 0 .9 0 1.4-.1l.7-.9c-.5-.4-1.1-.8-1.8-1.2l.2-.4c.3.2.6.3.8.5l.6-1.3h-2v-.5h2.3v-.9h.4zM139.1 314v1.7h-1.6v3.2h-.4V314h2zm-.4.8v-.4h-1.2v.4h1.2zm0 .6v-.4h-1.2v.4h1.2zm3-1.4v4.4c0 .2-.1.3-.2.4-.1.1-.3.1-.7.1 0-.1-.1-.3-.2-.4h.5c.1 0 .1 0 .1-.1v-2.6H140l.3.1-.3.5h.8v.3h-1.3v.5h1.5v.3h-1.3c.1.2.2.3.3.4.1.1.4.3.7.4l-.3.3c-.3-.2-.6-.3-.7-.5-.1-.1-.3-.3-.4-.5-.1.1-.1.2-.2.3-.2.3-.6.5-1.1.8l-.3-.3c.5-.1.8-.4 1.1-.6.1-.1.1-.1.1-.2h-1.1v-.3h1.2v-.5h-1v-.3h.6c-.1-.1-.2-.3-.4-.5l.3-.2.5.5-.2.2h.7l.3-.7h-.2V314h2.1zm-.4.4h-1.2v.4h1.2v-.4zm0 .7h-1.2v.4h1.2v-.4zM141.2 322.6c-.6-.4-1.4-.7-2.3-1v2.9h-.4v-4.9h.4v1.6c.9.3 1.8.6 2.6 1.1l-.3.3zm-.5-1.6c-.1-.2-.3-.4-.6-.6l.2-.2c.3.2.5.4.6.5l-.2.3zm.4-.5c-.1-.2-.3-.4-.6-.6l.2-.2c.3.2.5.4.6.5l-.2.3zM139.8 327l-.3-.3c.4-.3.8-.7 1.3-1.2h-3.6v-.4h4.1l.3.4c-.8.7-1.4 1.2-1.8 1.5zm-.6 1.3c-.2.5-.7.9-1.5 1.2-.1-.1-.2-.3-.3-.4.6-.2 1.1-.4 1.3-.8.2-.3.3-.8.3-1.5v-.4h.4c.1.9 0 1.6-.2 1.9zM392.7 206.6c-.1-.1-.2-.2-.3-.2.3-.4.7-.9.9-1.5l.3.2c-.2.5-.6 1-.9 1.5zm1.9-2.2v2.8h-.4v-2.8h-1.8v-.4h1.8v-1.1h.4v1.1h1.9v.4h-1.9zm1.6 2.1c-.4-.4-.8-.9-1.1-1.5l.3-.2c.3.6.7 1 1.1 1.4l-.3.3zM394.3 211.2v-3.8h.3v3.8h-.3zM393.5 213.6c-.2.6-.5 1.1-1 1.6-.1-.1-.2-.2-.2-.3.4-.3.7-.6.8-1 .1-.3.2-.8.2-1.3v-.9h.4c0 .9-.1 1.5-.2 1.9zm1.3 1.5-.3-.3v-3.5h.4v3.2c.5-.4 1-.9 1.5-1.5.1.1.2.2.3.2-.6.9-1.3 1.5-1.9 1.9zM392.9 216.1v2.2c.2-.1.4-.1.7-.2v-2.6h.3v4.3h-.3v-1.4c-.4.2-.9.3-1.3.5l-.1-.3c.1 0 .2-.1.4-.1v-2.4h.3zm3.6-.1c-.3 1-.5 1.7-.8 2.1-.1.1-.1.2-.2.3.3.4.7.7 1.2 1-.1 0-.2.1-.3.3-.5-.3-.8-.6-1.1-1-.3.4-.7.7-1.1 1.1-.1-.1-.1-.2-.2-.3.5-.3.9-.7 1.2-1.1-.1-.1-.1-.2-.1-.3-.3-.6-.4-1.2-.4-2h-.4v-.3h2.1l.1.2zm-1.2 2.1.1-.1c.3-.5.6-1.2.7-1.9h-1.2c0 .8.1 1.5.4 2zM393.2 220.3l-.5 1c.1.1.2.2.3.2l.5-.8.3.2-.9 1.5c.2 0 .4 0 .6-.1 0-.1-.1-.2-.1-.3l.3-.1c.1.3.2.5.3.8l-.3.1c0-.1 0-.2-.1-.2s-.3 0-.4.1v2h-.3v-1.9c-.3 0-.6.1-.8.1l-.1-.3h.5l.3-.6c-.2-.2-.5-.4-.8-.6l.2-.3c.1 0 .1.1.2.1l.4-1 .4.1zm-.5 2.8c0 .4-.1.8-.2 1.1l-.3-.1c.1-.3.2-.7.2-1.1l.3.1zm1.3.8c-.1 0-.2 0-.3.1-.1-.2-.1-.5-.2-.9h.3c0 .2.1.5.2.8zm1.1-2.8v-1h.3v1h1v3c0 .2 0 .3-.1.3s-.2.1-.5.1c0-.1 0-.3-.1-.4h.3s.1 0 .1-.1v-2.6h-.7v.6c.3.3.5.7.7 1l-.3.2c-.1-.3-.3-.5-.5-.8-.1.3-.3.7-.5 1-.1-.1-.2-.2-.3-.2v1.3h-.3v-3.4h.9zm-.2 1.2c.1-.2.1-.5.1-.9h-.6v1.8c.3-.2.5-.5.5-.9zM416.1 388.8v.9h2.4v.4H414v1.5c0 1.3-.3 2.3-.9 3.2-.1-.2-.2-.3-.4-.4.6-.7.8-1.6.8-2.8v-1.9h2.1v-.9h.5zm-.1 2.5v-1h.4v1h2v.4h-1.8c.2.4.4.7.7 1 .3.4.7.7 1.3 1-.2.1-.3.3-.3.4-.5-.3-.9-.7-1.3-1.1l-.6-.9v2.6h-.4v-2.5c-.2.3-.5.7-.7.9-.4.4-.8.8-1.2 1.1-.1-.1-.2-.3-.3-.4.4-.2.7-.5 1.1-.9.3-.3.6-.7.9-1.2h-1.5v-.4h1.7zM421 389.4v4h-1v.7h-.4v-4.6h1.4zm-.4 1.8v-1.4h-.6v1.4h.6zm0 1.8v-1.4h-.6v1.4h.6zm4.2-3.3-.5 1h.7v.4h-2c0 .2-.1.4-.1.5h2.3v.4h-2.3c-.1.2-.1.3-.2.5H424.4l.2.3c-.2.4-.5.8-.8 1.1.4.2.9.4 1.5.5-.1.2-.2.3-.3.4-.6-.1-1.1-.3-1.6-.6-.4.3-.9.5-1.6.6 0-.2-.1-.3-.2-.4.6-.1 1.1-.3 1.4-.5-.3-.2-.5-.5-.7-.7-.3.5-.7.9-1.2 1.3l-.3-.3c.6-.4 1-.8 1.3-1.3.1-.2.2-.4.3-.7h-1.1v-.4h1.2c0-.2.1-.4.1-.5h-1.2v-.4h2.5l.5-1.1.4-.1zm.1-.4c-1.2.2-2.3.4-3.3.4 0-.1-.1-.2-.2-.4 1.1-.1 2.2-.2 3.2-.4l.3.4zm-2.5 1.1-.4.1-.3-.6.3-.1c.3.2.4.4.4.6zm1 3.1c.3-.2.5-.5.6-.8h-1.4c.2.4.4.6.8.8zm0-3.1-.4.1c-.1-.2-.1-.4-.2-.7l.3-.1c.2.2.3.5.3.7zM426.8 393c-.1.6-.3 1.1-.6 1.6-.1-.2-.2-.3-.3-.4.3-.4.4-.9.5-1.4.1-.5.1-1.1.1-1.8v-1.2h4.6v1.3h-1.8v.7h2.3v.4H429c0 .2-.1.4-.1.6h2.2l-.1 1.2c0 .3-.1.5-.3.6-.2.1-.5.1-.9.1 0-.2 0-.3-.1-.4h.8s.1-.1.1-.2l.1-.7h-1.9c-.1.1-.1.3-.2.4-.3.4-.8.8-1.5 1-.1-.1-.2-.3-.3-.4.7-.2 1.2-.5 1.5-.9.2-.3.3-.7.4-1.1h-1.4v-.4h1.7v-.7h-2c-.1.6-.1 1.2-.2 1.7zm4.8-3.9v.4H426v-.4h5.6zm-4.7 1.7h3.7v-.6h-3.7v.6zM173.2 251.4v-1.2h.4v1.2h.6v.4h-.6v1c.2-.1.4-.1.7-.2v.4c-.2.1-.5.1-.7.2v1.7c0 .1-.1.2-.2.3-.1.1-.4.1-.6.1 0-.1 0-.3-.1-.4h.5c.1 0 .1 0 .1-.1v-1.5c-.3.1-.6.2-.8.2l-.1-.4c.3-.1.6-.1.9-.2v-1.1h-.9v-.4h.8zm4-.8c-.8.3-1.5.4-2.1.5v.9h2.3v.4h-.7v2.9h-.4v-2.9H175v.2c0 .5-.1.9-.2 1.3-.1.5-.3.9-.6 1.3-.1-.1-.2-.2-.3-.2.3-.4.4-.7.6-1.1.1-.4.2-.8.2-1.2v-1.9l.3.1c.7-.1 1.4-.2 2-.5l.2.2zM180.7 250.2v1.8h1.8v.4h-1.8v2.3h2.3v.4h-5v-.4h2.2v-4.5h.5zM188.7 250.5v.4h-2.2v1.2h2v.3h-1.9c.1.5.4.9.7 1.3.4.5 1 .8 1.6 1-.1.1-.2.2-.3.4-.7-.3-1.2-.7-1.6-1.2-.3-.3-.5-.6-.6-1-.1.4-.2.7-.4 1-.4.5-1 1-1.9 1.3-.1-.2-.1-.3-.2-.4 1-.4 1.6-.8 1.9-1.4.1-.3.2-.6.3-1h-1.8v-.3h1.8v-1.2H184v-.4h4.7zM190.9 251.3v-1.1h.4v1.1h1.5v-1.2h.4v1.2h1.1v.4h-1.1v1.3h1.5v.4h-1.5v1.9h-.4v-1.9h-1.5c-.1.3-.1.6-.3.9-.2.4-.6.7-1.1 1l-.3-.3c.5-.2.9-.5 1.1-.9.1-.2.2-.4.2-.7h-1.4v-.4h1.4v-1.3h-1.1v-.4h1.1zm1.8.4h-1.5v1.3h1.5v-1.3z"/></svg>