<svg version="1.1" id="レイヤー_1" xmlns="http://www.w3.org/2000/svg" x="0" y="0" viewBox="0 0 620 519.7" style="enable-background:new 0 0 620 519.7" xml:space="preserve"><style>.st0{fill:#dfeaf8}.st1{fill:#fadce9}.st4{fill:#f9f4e4}.st6{fill:#ecf4d9}.st9{fill:#bfc0c0}.st10{fill:none;stroke:#cfb5a7;stroke-width:.4}.st11{stroke:#b5b5b6;stroke-miterlimit:10}.st11,.st12,.st13,.st14{fill:none;stroke-width:.4}.st12{stroke:#aaabab;stroke-linecap:round;stroke-linejoin:round;stroke-miterlimit:10;stroke-dasharray:4.5,2.5}.st13,.st14{stroke:#000}.st13{stroke-linejoin:bevel;stroke-dasharray:15,1.3,1.3,1.3}.st14{stroke-dasharray:1.3,1.3,0,0,0,0}.st15,.st16{stroke-linejoin:bevel}.st15{fill:none;stroke:#000;stroke-width:.3;stroke-dasharray:1.3,1.3,0,0,0,0}.st16{stroke-width:.4;stroke-dasharray:10,1.3,1.3,1.3}.st16,.st17,.st18{fill:none;stroke:#000}.st17{stroke-width:.4;stroke-miterlimit:10}.st18{stroke-width:.3;stroke-dasharray:1.3,1.3,0,0,0,0}.st19{stroke-dasharray:1.3,1.3}.st19,.st20{fill:none;stroke:#000;stroke-width:.4}.st21{fill:#fff}.st22{fill:none;stroke:#000;stroke-width:.6}</style><path transform="rotate(90 58.817 188.058)" class="st0" d="M26.2 146.2h65.2V230H26.2z"/><path class="st0" d="M236 233.4v-41.2h.4v-11.6H275v52.8h-2.1v-.5h-1.2v2.2h-.7v.9h-32.6v-.9h-.7v-2.2h-1.2v.5zM375 298.9V259h105.5v30h-41.8v3.9h6v6z"/><path transform="rotate(90 255.725 175.009)" class="st1" d="M250.1 155.7h11.2v38.6h-11.2z"/><path transform="rotate(90 230.853 212.78)" class="st1" d="M210.3 207.7h41.1v10.2h-41.1z"/><path class="st1" d="M250.4 306.3v-24.6h-.5v-1.9h-24.2v26.5zM253.6 281.7v24.6h5.8v1.9h41.9v-1.8l5.8-.1v-24.6z"/><path transform="rotate(90 213.072 306.205)" class="st1" d="M187.1 297.3H239v17.9h-51.9z"/><path style="fill:#d2cce6" d="M79.5 335.9v-60.2h9.6v-4.9h38.5v4.9h17v.5h-.4v56.5h.4v3.2z"/><path style="fill:#fffcdb" d="M147.9 332.1v-39.2h11.4v-13.4H222v.8h-17.9v51.8z"/><path transform="rotate(90 206.394 167.14)" class="st4" d="M189.7 163h33.4v8.4h-33.4z"/><path transform="rotate(90 227.275 179.425)" class="st4" d="M217.3 173.5h20v11.8h-20z"/><path transform="rotate(90 105.836 165.274)" class="st4" d="M90.9 161.2h29.8v8.1H90.9z"/><path class="st4" d="M470.5 301.5v-9.1h12.3v-.7h19.1v20h-19.1v-10.2z"/><path transform="rotate(90 346.145 446.268)" class="st4" d="M338 439.8h16.3v13H338z"/><path transform="rotate(90 175.952 157.225)" class="st1" d="M172.8 133.7h6.3v47h-6.3z"/><path style="fill:#feeab4" d="M88.4 266.8v-30.4h56.2v30.4h-17v-.6h-1.8v2.7H90.9v-2.7h-1.8v.6z"/><path class="st6" d="M221.1 63.1V11.5h264v51.6H464v-.7h-53.9v.7h-70.7v-.7h-53.9v.7zM547 369.3v79.5h-51.6v-25.1h.7v-72.5h-.7v-27h19v-45.1h-19v-25.2h.7v-27.2h-.7v-54.4h.7V95.1h-.7V70.9H609v298.4zM466.1 450.7h-19.7v.7h-77.2v-.7h-4V467h-38.1v-16.3h-28.4v.7h-53.9v-.7h-23.7v58.6h245v-58.6zm-128.3 35.2c-1 0-1.9-.8-1.9-1.9v-15.8c0-.5.4-.9.9-.9h18.6c.5 0 .9.4.9.9V484c0 1-.8 1.9-1.9 1.9h-16.6z"/><path class="st1" d="M356.8 222.1h-1.4v1.9h-30.2v-33.5h31.6z"/><path transform="rotate(90 438.933 211.316)" class="st1" d="M428.5 169.3h20.9v84.1h-20.9z"/><path class="st1" d="M225.3 165.2V76.5h50.6v23h1.9v42.7h-1.9v23z"/><path transform="rotate(90 457.81 298.598)" class="st1" d="M452.1 289.2h11.4v18.9h-11.4z"/><path class="st0" d="M208.7 220.8v-34.2h-9.3v-26.2h-46.9v-6.3h-9v12.4h-30.8V183h-6.5v37.8h24.3v-.5h1.2v1.7l33.7-.1v-1.6h37.2v.5z"/><path transform="rotate(90 128.067 160.315)" class="st1" d="M121.8 144.9h12.5v30.8h-12.5z"/><path d="M355.4 467.3h-18.6c-.5 0-.9.4-.9.9V484c0 1 .8 1.9 1.9 1.9h16.7c1 0 1.9-.8 1.9-1.9v-15.8c0-.5-.4-.9-1-.9z" style="fill:#dff2fc"/><path transform="rotate(90 397.91 352.176)" style="fill:#feebbe" d="M355.7 311h84.5v82.4h-84.5z"/><path class="st9" d="M495.4 95.1V70.9h122.5V62H495.4V1.6h-10.3V62H464v2.1h.7v4h-.5v8.4H481v18.4h8.3v-.7h4v.9zM481 423.9v12.4h-34.4v8.3h.7v4h-.9v2.1h19.7v67.4h10.2v-67.4h19.1v-27h-2.1v.9h-4v-.7zM244.8 450.7h-23.7v67.4h-10.2v-97.9h2.1v.7h3.9v-.5h8.4v15.9h19.3v8.3h-.5v4h.7zM225.3 366v-56.4h34.1v-3.3h-5.8v-24.6h53.5v24.6l-5.8.1v3.2h5.8v16h10.2v.9h3.3v-37.1h4.6v-21.1H322v10.1h-72.1v3.3h.5v24.6h-24.7v-27.9H222v53.7h-74.1v.6h-3.3v3.2h-11.1v10.2h77.4v20h2.1v-.6h3.9v.5zM360.1 225.4v-34.9h36.3v10.4H481v25.4h8.2v-.9h4.1v1.3h2.1v-54.4h-2.1v.9h-4v-.7H481v13.9H321.7v4.1h.3v36.9h3.2v-36.9h31.6v31.6h-1.4v3.3zM493.3 351.2h2.1v-26.9h19.1v-45.1h-19.1V254h-2.1v1.3h-4v-.9h-8.7V289h-41.8v3.9h6v11.9h3.7v-11.9h18.9v11.9H481V351h8.4v-.7h4v.9zm-10.5-39.5v-10.2h-12.3v-9.1h12.3v-.7h19.1v20h-19.1zM365.2 467v-16.3h4v-2.1h-.9v-4h.7v-8.4h-70.1v8.4h.5v4h-.7v2.1h28.4V467h38.1zm-25.6-12.6v-16.3h13v16.3h-13zM409.9 76.5v-8.4h-.7v-4h.9V62h-70.7v2.1h.7v4h-.5v8.4h70.3zM159.3 225.2h6.1V222h-33.7v.9h-1.1v-2.1h-24.4v-.3h-5.6v.1H16.9v-65.2h83.8v27.7h5v-.1h6.9v-28.9h86.8v32.5h9.3v34.1h-6.1v4.5h6.1v12.3h27.8v-4.2h-10.8v-41.1h10.7v-22.8H275v63.9h-2.2v4.2h6.3v-47h1.6v-4.2h-1.6v-44.1h-3.3v23h-50.7V76.4h50.7v23h3.3v-23h6.1V68h-.7v-4h.9v-2H221V1.6h-10.2v136.2H2.1v98.5h77.4v39.3H89v-8.8h-.7v-30.5h56.3v30.4h-17v8.8h17v.6h1.9v16h1.4v.7h11.4v-67.6zm73.9-55.8v20h-11.8v-20h11.8zm-22.6-19v33.5h-8.4v-33.5h8.4zm-100.7 0v29.8h-8.1v-29.8h8.1z"/><path class="st10" d="M225.7 281.3h24.2M253.6 286h53.5M225.7 286h24.7M253.6 290.6h53.5M225.7 290.6h24.7M253.6 295.3h53.5M225.7 295.3h24.7M253.6 299.9h53.5M225.7 299.9h24.7M253.6 304.6h53.5M225.7 304.6h24.7M225.3 313.9h81.8M225.3 318.5h81.8M225.3 323.2h81.8M225.3 327.8h95.5M225.3 332.5h95.5M225.3 337.1h95.5M225.3 341.7h95.5M225.3 346.4h95.5M225.3 351h95.5M225.3 355.7h95.5M225.3 360.3h95.5M225.3 365h97M225.8 369.6h96.5M225.8 374.3h96.5M225.8 378.9h96.5M225.8 383.6h96.5M225.8 388.2h96.5M225.8 392.9h96.5M225.8 397.5h96.5M225.8 402.2h98M225.8 406.8h98M225.8 411.5h98M225.8 416.1h98M225.3 420.8h98.5M225.3 425.4h98.5M225.3 430.1h98.5M225.3 434.7h98.5M166.6 225.5h34.8M159.3 225.5h6.1M159.3 230.2h49.4M159.3 234.8h49.4M159.3 239.5h111M159.3 244.1h111M159.3 248.8h111M159.3 253.4h111M159.3 258.1h111M159.3 262.7h111M159.3 267.4h111M159.3 272H322M159.3 276.7H322M464.2 76.8H481M339.6 76.8h70.3M279.2 76.8h6.1M225.3 76.8h50.6M279.2 81.4H481M225.3 81.4h50.6M279.2 86.1H481M225.3 86.1h50.6M279.2 90.7H481M225.3 90.7h50.6M279.2 95.4h201.3M225.3 95.4h50.6M279.2 100h201.3M225.3 100h52.5M279.2 104.7h201.3M225.3 104.7h52.5M279.2 109.3h201.3M225.3 109.3h52.5M279.2 114h201.3M225.3 114h52.5M279.2 118.6h201.3M225.3 118.6h52.5M279.2 123.3h201.3M225.3 123.3h52.5M279.2 127.9h201.3M225.3 127.9h52.5M279.2 132.6h201.3M225.3 132.6h52.5M279.2 137.2h201.3M225.3 137.2h52.5M279.2 141.9h201.3M225.3 141.9h52.5M279.2 146.5h201.3M225.3 146.5h50.6M283.4 151.1h197.1M279.2 151.1h2.8M225.3 151.1h50.6M283.4 155.8h197.1M279.2 155.8h2.8M225.3 155.8h50.6M283.4 160.4h197.1M279.2 160.4h2.8M225.3 160.4h50.6M283.4 165.1h197.1M279.2 165.1h2.8M225.3 165.1h50.6M283.4 169.7h197.1M279.2 169.7h2.8M283.4 174.4H481M279.2 174.4h2.8M283.4 179H481M279.2 179h2.8M283.4 183.7H481M279.2 183.7h2.8M360.1 193h36.3M360.1 197.6h36.3M360.1 202.3h36.7M360.1 206.9h36.7M360.1 211.6h36.7M360.1 216.2h36.7M360.1 220.9h36.7M325.2 225.5h155.3M325.7 230.2h154.8M325.7 234.8h154.8M325.7 239.5h154.8M325.7 244.1h154.8M325.7 248.8h154.8M325.7 253.4h154.8M325.7 258.1h154.8M325.7 262.7H375M325.7 267.4H375M325.2 272H375M325.2 276.7H375M325.2 281.3H375M325.2 286H375M320.5 290.6H375M320.5 295.3H375M320.5 299.9h124.2M448.4 304.6h18.8M320.5 304.6h124.2M320.5 309.2H481M320.5 313.9H481M320.5 318.5H481M320.5 323.2H481M322.3 327.8H481M322.3 332.5H481M322.3 337.1H481M322.3 341.7H481M322.3 346.4H481M322.3 351h158.2M322.3 355.7h158.2M322.3 360.3h158.2M323.8 365h156.7M323.8 369.6h156.7M323.8 374.3h156.7M323.8 378.9h156.7M323.8 383.6h156.7M323.8 388.2h156.7M323.8 392.9h156.7M323.8 397.5h156.7M325.4 402.2h155.1M325.4 406.8h155.1M325.4 411.5h155.1M325.4 416.1h155.1M325.4 420.8h155.1M325.4 425.4H481M325.4 430.1H481M325.4 434.7H481M282 188.3h38.6M279.2 193H322M279.2 197.6H322M279.2 202.3H322M279.2 206.9H322M279.2 211.6H322M279.2 216.2H322M279.2 220.9H322M279.2 225.5H322M279.2 230.2H324M279.2 234.8H324M271.7 239.5H324M271.7 244.1H324M271.7 248.8H324M271.7 253.4H324M271.7 258.1H324M271.7 262.7H324M271.7 267.4h49.8"/><path class="st11" d="M185.4 284.4v47.7M166.9 284.4v47.7M204.1 321.8h-56.2M204.1 303.2h-56.2M148.3 292.9v39.2"/><path class="st12" d="M165.4 247.9h33.3v71.6h-33.3zM307.1 325.6v110.7M316.9 325.6v109.5M325.2 290.5V398M360.1 225.4h14.2v37.5c0 15.9 10.2 36.7 25.9 36.7h44.4"/><path class="st13" d="M361.7 431.4h92.6M361.7 433.8h92.6M238.7 431.4h66.6M238.7 433.8h66.6M230.2 360.1v66.6M227.7 360.1v66.6M470.4 79H404M470.4 81.4H404M478.5 180.3V87.8M476.1 180.3V87.8M478.5 431.4v-87.9M476.1 431.4v-87.9M345.8 78.9h-66.6M345.8 81.3h-66.6"/><path class="st14" d="M455.2 436.3v-7.5h-94.4v7.1M306.2 436.3v-7.5h-68.5v7.1M225.3 427.7h7.4v-68.5h-7M481 342.6h-7.5v89.7h7.1"/><path class="st15" d="M237.8 76.5v88.7M236.4 76.5v88.7M275.9 89h-38.1M275.9 87.6h-38.1M275.9 154.1h-38.1M275.9 152.7h-38.1M307.1 295.9h-53.5M307.1 294.5h-53.5M250.4 294.3h-24.7M250.4 292.9h-24.7"/><path class="st16" d="m144.6 266.8-16.3-30.4v30.4M253.6 281.7l53.5 20.9h-53.5M225.7 306.3l24.7-20.9h-24.7M275.9 144.3h-29.7V97.4h29.7M236.4 169.4l38.6 11.2h-38.6M325.2 190.5l31.6 21h-31.6M275.9 97.4l-50.6-20.9M225.3 76.5l20.9 67.8M275.9 144.3l-50.6 20.9M448.4 292.9l18.8 11.4M112.7 166.5l30.8-12.4M143.5 154.1v12.4h-30.8"/><path class="st17" d="M396.8 200.9v20.9h84M222 280.3h-17.9v51.8M467.2 304.3h-18.8"/><path transform="rotate(-90 519.595 301.737)" class="st14" d="M508 297.1h23.2v9.3H508z"/><path class="st14" d="m514.9 313.4 9.3-23.3"/><path transform="rotate(-90 574.866 257.7)" class="st18" d="M560.2 243h29.3v29.3h-29.3z"/><path class="st18" d="m560.2 272.3 29.3-14.6-29.3-14.6"/><path class="st17" d="M222 279.5h-62.7M159.3 284.6h44.8"/><path class="st14" d="M438.7 289v-28.2h41.8"/><path transform="rotate(90 379.195 206.921)" class="st14" d="M362.9 190.7h32.5v32.5h-32.5z"/><path class="st14" d="M199.4 160.4h-46.9"/><path transform="rotate(90 128.496 169.512)" class="st14" d="M113.6 154.6h29.8v29.8h-29.8z"/><path class="st17" d="M395 274.2c0 2 1.6 3.7 3.7 3.7 2 0 3.7-1.6 3.7-3.7s-1.6-3.7-3.7-3.7c-2.1.1-3.7 1.7-3.7 3.7z"/><path class="st17" d="M417.3 283.6c0 1.7-1.3 2.7-2.8 2.8h-31.6c-1.7 0-2.8-1.4-2.8-2.8V265c0-1.5 1.2-2.8 2.8-2.8h31.8c1.3 0 2.6 1.3 2.6 2.8v18.6z"/><path class="st17" d="M396.9 262.9c-2.8 0-9.8.1-11.5.2-1.8.1-4.2 1.3-4.5 4.4-.3 3.1-.3 10.4 0 11.2.3.8 1 3.8 5.3 3.8 2.3 0 3 0 3.3.1.3 0 1.6-.1 3.5 1.3 1.2.8 2.7 1.8 5.5 1.8h.2c2.8 0 4.3-1 5.5-1.8 1.3-.8 1.7-1.1 3.6-1.3 1.1-.1 2.5 0 4.1-.1 3-.1 4.3-2.6 4.5-4.4.2-2.3 0-9.3 0-9.9 0-3.5-2.7-4.9-4.5-5-2.1-.1-8.7-.2-11.6-.2h-3.4zM448 283.3c0 .6.5 1 1 1h26c.6 0 1-.5 1-1V262c0-.6-.5-1-1-1h-25.9c-.6 0-1 .5-1 1v21.3z"/><path class="st17" d="M449.3 262.8h25.6V281h-25.6z"/><circle class="st17" cx="455.4" cy="269" r="4.6"/><circle class="st17" cx="468.7" cy="269" r="4.6"/><circle class="st17" cx="462.1" cy="277.1" r="3.3"/><path class="st17" d="M465 281.2c-.8.6-1.8.9-2.9.9-1.1 0-2.1-.3-2.9-.9h-9.8v2.3H475v-2.3h-10zM256.6 206.9c-9 0-9.1-13.5-9.1-13.5s-.2-6.4-.2-9c0-2.6 1.5-2.2 1.5-2.2s5.2-.2 7.7-.2 8 .2 8 .2 1.5-.3 1.5 2.2c0 2.6-.2 9-.2 9s-.2 13.5-9.1 13.5M263.8 171.3c2.2 0 1.9 1.7 1.9 1.7v5.8c0 2.2-1.9 2.3-1.9 2.3s-1.9.5-7.6.5c-5.7 0-7-.5-7-.5s-1.9-.1-1.9-2.3V173s-.2-1.7 1.9-1.7h14.6zM264.9 182.3v-1.6M248.7 182.3v-1M247.2 189.8h18.6"/><path class="st17" d="m247.1 185.9 2.7-.3v1.9h12.9v-1.9l3 .4M275 204.7h-4c-.3 0-.6.3-.7.7v.2c0 .3.3.6.7.7h4"/><path class="st17" d="M275 179.8h-3.1v24.9"/><path class="st17" d="M270.4 205.6v-26.5s0-.8.9-.8h3.7M226.7 212.8v14.4c0 .1.1.2.2.2h6.5c.1 0 .2-.1.2-.2v-14.4c0-.1-.1-.2-.2-.2h-6.5c-.1 0-.2.1-.2.2z"/><path class="st17" d="M233.6 222.8c0 .1-.1.2-.2.2h-6.5c-.1 0-.2-.1-.2-.2"/><circle class="st17" cx="228.9" cy="217.7" r="1"/><path class="st17" d="M226 228v-15.8c0-.1.1-.2.2-.2h7.9c.1 0 .2.1.2.2V228c0 .1-.1.2-.2.2h-7.9c-.1 0-.2-.1-.2-.2zM228.4 232.4l7.3.1v-1h-7.3zM231.6 232.5h1.1v.9h-1.1zM236 192.2v41.2M480.5 259H375v39.9h69.7M199.4 182h-9.3s-7 .7-14.4.7-14.4-.7-14.4-.7h-8.8v-27.9M161.3 161h-8.8M190.1 161.1h9.3"/><path class="st17" d="m161.3 160.4 4.3 1.6c1.1.4 1.2 2 1.2 2 .2 2 0 3.9-.3 6.4-.2 2.5-1.2 4.4-3.3 6.3s-1.9 4.6-1.9 4.6v-24.2c0-.8.8-.9.8-.9l1-.1s5.3-.6 12.6-.6 13.6.7 13.6.7c.8.1.8.9.8.9v24.2s.3-2.7-1.9-4.6c-2.2-2-3.2-4-3.5-7.7-.3-3.7-.1-5.5-.1-5.5s.2-1.2 1.2-1.6c1-.3 4.3-1.5 4.3-1.5"/><path class="st17" d="M190.1 160s-8.2.8-14.4.8-14.4-.8-14.4-.8"/><circle class="st17" cx="175.7" cy="165.7" r="1.2"/><path class="st17" d="M196.9 165.8h.9v7.4h-.9zM197.8 169h1.6v1.1h-1.6zM36.4 212.4l-8.6-.5s-3.5-.6-3.8-3.6-.9-12.2-.9-12.2.1-.9-.6-2.2l-.8-1.6s-.4-.9-.4-1.9v-4.8s-.1-1 .5-2.1c.5-1.1 1.2-2.1 1.2-3.2.1-1.1 1-13 1-13s.5-2.7 3.7-3.2l6.4-.5 8.5.6s2.8.3 3.6 3.2L47 180s0 1 .4 1.9c.4.9 1 2 1 3.5v5.3s.1.8-.3 1.7-.7 1.6-.7 1.6-.4 1-.4 2-.4 12-.4 12 0 3.2-3.7 3.9l-6.5.5z"/><path class="st17" d="m20.6 203 .1 1s-.2 2.7 1.5 5c.1.1 2 3.4 5.3 3.7"/><path class="st17" d="M20.7 185.6c.3-2.1.8-2.8 1.1-3.5.3-.7.6-2.2.6-2.2l1-12.8c.7-3.4 4.5-4 4.5-4l7.5-.5 8.2.7c3.9.9 3.9 4.1 3.9 4.1l.3 12.1c0 1.4.7 2.5.7 2.5l.7 1.2c.7 1.2.7 2.5.7 2.5v4.4c0 1.3-.7 2.5-.7 2.5s-.7 1.1-1 1.8-.4 1.9-.4 1.9l-.4 12.7c-.7 3.3-3.8 3.5-3.8 3.5l-7.9.7-8.3-.6s-3.8-1-4.1-4.4l-.9-12.2s-.1-1.1-.4-1.9c-.4-.8-1.3-2.3-1.3-3.8v-4.7z"/><path class="st17" d="M28 163.2c-1.1.2-3.1.3-5.2 2.9s-2 5.9-2 5.9l-.2 1.3M49.9 185.8V172s0-3.1-1.6-5.5c-1.5-2.4-2.7-2.6-4.7-3.1M49.9 190.2V205c0 .3 0 1.3-1.1 3.7 0 0-1.4 3.4-5.1 4"/><path class="st17" d="M19.5 172.6v-.8s1.7-14.3 16.8-14.3c14.5 0 16.6 14.3 16.6 14.3v32.4s-2.2 14.3-16.6 14.3c-14.8 0-16.8-14.3-16.8-14.3v-.6"/><path class="st17" d="m16.9 174.3.4.1s2 .8 2.1.8h1.1v-2s0-.2-.1-.2l-1.9-.9-1.6-.5M16.9 204.6l2.1-.7 1.4-.7s.1-.1.1-.2v-2h-1.2l-.4.2-2.1.8M19 175.1v26.1M20.5 175.3V201M54.6 155.5v65.1"/><circle class="st17" cx="45.4" cy="188.1" r="1.6"/><path class="st17" d="M100.7 165.5c-3.1.1-9.7-2.3-9.9-10.1"/><path class="st17" d="M93.3 162.2v7.1H63.7v-13.8M63.7 162.9h29.6M63.7 161.6h29.1M63.7 156.5h27.2M355.4 468h-18.6c-.1 0-.2.1-.2.2V484c0 .6.5 1.2 1.2 1.2h16.7c.6 0 1.2-.5 1.2-1.2v-15.8c0-.1-.1-.2-.3-.2z"/><path class="st17" d="M355.4 467.3h-18.6c-.5 0-.9.4-.9.9V484c0 1 .8 1.9 1.9 1.9h16.7c1 0 1.9-.8 1.9-1.9v-15.8c0-.5-.4-.9-1-.9z"/><circle class="st17" cx="346.1" cy="470.2" r="1.2"/><path class="st19" d="M165.4 221.2h-33.7M324.6 290.5V398M323.1 362.3v-71.8M321.5 326.5v-36"/><path class="st20" d="M146.5 291.3v-13.5M480.5 254.3v-.8h12.8v1.7h-4.1v-.9zM480.5 226.3v.8h12.8v-1.7h-4.1v.9z"/><path transform="rotate(-90 482.437 240.31)" class="st20" d="M469.3 239.7h26.3v1.2h-26.3z"/><path transform="rotate(-90 491.591 240.314)" class="st20" d="M478.4 239.7h26.3v1.2h-26.3z"/><path class="st20" d="M492.2 227.1h25.5c0 14.6-11.4 26.3-25.5 26.3M481.9 227.1h-26.7c0 14.6 11.9 26.3 26.7 26.3"/><path class="st20" d="M493.3 226.7h2.8v27.2h-2.8M480.5 253.5v-26.4M298 448.6h1.4v-4h-.5v-8.8h-.9zM245.4 448.6h-1.3v-4h.5v-8.8h.8zM298.7 448.6v2.8h-53.9v-2.8M271.8 434.1v7.1M245.4 435.8h52.7"/><path class="st20" d="M245.4 437.3h27.8v1.2h-27.8z"/><path class="st20" d="M270.4 438.4H298v1.2h-27.6zM270.4 442.4h2.9v2.6h-2.9zM245.4 445h27.8v1.2h-27.8zM270.4 446.2H298v1.2h-27.6zM271.8 450.5v-5.6M213 419.5v1.4h3.9v-.5h8.9v-.9zM213 366.9v-1.4h3.9v.5h8.9v.9zM213 420.2h-2.8v-54h2.8M227.4 393.3h-7.1M225.8 366.9v52.6"/><path transform="rotate(90 223.686 380.77)" class="st20" d="M209.8 380.2h27.8v1.2h-27.8z"/><path transform="rotate(90 222.524 405.677)" class="st20" d="M208.7 405.1h27.6v1.2h-27.6z"/><path transform="rotate(90 217.844 393.243)" class="st20" d="M216.4 392h2.9v2.6h-2.9z"/><path transform="rotate(90 215.978 380.77)" class="st20" d="M202.1 380.2h27.8v1.2h-27.8z"/><path transform="rotate(90 214.816 405.67)" class="st20" d="M201 405.1h27.6v1.2H201z"/><path class="st20" d="M211.1 393.3h5.6M445.7 448.6h1.6v-4h-.7v-8.8h-.9zM370 448.6h-1.7v-4h.7v-8.8h1zM446.4 448.6v2.8h-77.2v-2.8M407.8 434.1v7.1M370 435.8h75.7"/><path class="st20" d="M370 437.3h39.3v1.2H370z"/><path class="st20" d="M406.4 438.4h39.3v1.2h-39.3zM406.4 442.4h2.9v2.6h-2.9zM370 445h39.3v1.2H370zM406.4 446.2h39.2v1.2h-39.2zM407.8 450.5v-5.6M493.3 95.8v-1.6h-4v.7h-8.8v.9zM493.3 171.6v1.6h-4v-.7h-8.8v-.9zM493.3 95.1h2.8v77.2h-2.8M478.8 133.7h7.1M480.5 171.6V95.8"/><path transform="rotate(-90 482.55 151.945)" class="st20" d="M462.9 151.4h39.3v1.2h-39.3z"/><path transform="rotate(-90 483.711 115.452)" class="st20" d="M464.1 114.9h39.3v1.2h-39.3z"/><path transform="rotate(-90 488.391 133.732)" class="st20" d="M487 132.4h2.9v2.6H487z"/><path transform="rotate(-90 490.258 151.945)" class="st20" d="M470.6 151.4h39.3v1.2h-39.3z"/><path transform="rotate(-90 491.42 115.452)" class="st20" d="M471.8 114.9h39.3v1.2h-39.3z"/><path class="st20" d="M495.1 133.7h-5.5M410.8 64.1h-1.6v4h.7v8.8h.9zM463.3 64.1h1.4v4h-.5v8.8h-.9zM410.1 64.1v-2.8H464v2.8M437 78.6v-7.1M463.3 76.9h-52.5"/><path transform="rotate(-180 449.442 74.865)" class="st20" d="M435.6 74.3h27.7v1.2h-27.7z"/><path transform="rotate(180 424.57 73.703)" class="st20" d="M410.8 73.1h27.6v1.2h-27.6z"/><path transform="rotate(-180 437.005 69.023)" class="st20" d="M435.6 67.7h2.9v2.6h-2.9z"/><path transform="rotate(-180 449.442 67.156)" class="st20" d="M435.6 66.6h27.7v1.2h-27.7z"/><path transform="rotate(180 424.57 65.994)" class="st20" d="M410.8 65.4h27.6v1.2h-27.6z"/><path class="st20" d="M437 62.3v5.5M286.2 64.1h-1.7v4h.8v8.8h.9zM338.7 64.1h1.4v4h-.5v8.8h-.9zM285.5 64.1v-2.8h53.9v2.8M312.4 78.6v-7.1M338.7 76.9h-52.5"/><path transform="rotate(-180 324.835 74.865)" class="st20" d="M311 74.3h27.7v1.2H311z"/><path transform="rotate(180 299.964 73.703)" class="st20" d="M286.2 73.1h27.6v1.2h-27.6z"/><path transform="rotate(-180 312.398 69.023)" class="st20" d="M311 67.7h2.9v2.6H311z"/><path transform="rotate(-180 324.834 67.156)" class="st20" d="M311 66.6h27.7v1.2H311z"/><path transform="rotate(180 299.964 65.994)" class="st20" d="M286.2 65.4h27.6v1.2h-27.6z"/><path class="st20" d="M312.4 62.3v5.5"/><path transform="rotate(-90 165.98 223.772)" class="st20" d="M164.1 223.2h3.7v1.2h-3.7z"/><path transform="rotate(-90 202.008 222.984)" class="st20" d="M199.4 222.4h5.3v1.2h-5.3z"/><path transform="rotate(-90 183.413 221.123)" class="st20" d="M182.6 203.1h1.6v36h-1.6z"/><path transform="rotate(-90 131.085 221.605)" class="st20" d="M129.8 221h2.5v1.2h-2.5z"/><path class="st20" d="M184 226v-9.7M272.9 238v-5.1h-1.2v2.2h-.7v.9h.7v2zM236.5 238v-5.1h1.2v2.2h.7v.9h-.7v2z"/><path transform="rotate(-90 271.006 254.643)" class="st20" d="M254.4 253.9h33.3v1.4h-33.3z"/><path transform="rotate(90 254.695 237.001)" class="st20" d="M253.7 220h2v34h-2z"/><path class="st20" d="M237.7 238c0 18.4 15.2 33.3 34 33.3M321.7 185.9v5.1h-1.1v-2.7h-.7v-.7h.7v-1.7zM280.8 185.9v5.1h1.2v-2.7h.7v-.7h-.7v-1.7z"/><path transform="rotate(90 282.689 166.596)" class="st20" d="M263.4 165.9H302v1.4h-38.6z"/><path transform="rotate(-90 301.284 186.724)" class="st20" d="M300.4 167.4h1.7V206h-1.7z"/><path class="st20" d="M320.6 185.9c0-21.3-17.3-38.6-38.6-38.6M127.6 270.8h-1.1v-1.9h-.7v-2.7h1.8zM90.9 268.9h-.7v1.9h-1.1v-4.6h1.8z"/><path transform="rotate(-180 108.357 269.822)" class="st20" d="M90.2 268.9h36.3v1.9H90.2z"/><path class="st20" d="M90.2 270.8c0 20 16.2 36.3 36.3 36.3v-36.3M147.9 331.1H146v.7h-1.8v.9h3.7zM147.9 293.9H146v-.7h-1.8v-.9h3.7zM147.9 293.9v37.2M146 293.9v37.2M144.2 293.2v38.6"/><path class="st20" d="M146 293.2c-22.1 0-40 17.3-40 38.6h38.1"/><path transform="rotate(-180 145.315 284.233)" class="st20" d="M144.2 276.2h2.3v16h-2.3z"/><path transform="rotate(-180 237.827 279.143)" class="st20" d="M225.7 278.4h24.2v1.4h-24.2z"/><path class="st20" d="m249.9 278.4-2.2-13.2-2.3 13.2"/><path transform="rotate(180 280.364 308.895)" class="st20" d="M259.4 308.2h41.8v1.4h-41.8z"/><path class="st20" d="m301.3 309.6-3.5 20.6-3.5-20.6"/><path transform="rotate(-180 323.195 289.932)" class="st20" d="M320.6 289.4h5.2v1.1h-5.2z"/><path transform="rotate(-180 318.81 327.103)" class="st20" d="M316.9 326.5h3.9v1.2h-3.9z"/><path transform="rotate(-180 321.336 435.711)" class="st20" d="M316.9 435.1h9v1.1h-9z"/><path transform="rotate(-180 324.598 416.555)" class="st20" d="M323.8 398h1.5v37.2h-1.5z"/><path transform="rotate(-180 323.064 380.913)" class="st20" d="M322.3 362.3h1.5v37.2h-1.5z"/><path transform="rotate(-180 321.53 345.117)" class="st20" d="M320.8 326.5h1.5v37.2h-1.5z"/><path class="st20" d="M326.5 363h-8.4M327 398.7h-6.5M325.2 224h30.2v1.4h-30.2zM325.2 225.4l2.5 14.9 2.6-14.9"/><path transform="rotate(90 278.505 120.85)" class="st20" d="M257.1 120.2h42.8v1.4h-42.8z"/><path class="st20" d="m279.2 99.5 21.1 3.6-21.1 3.6"/><path transform="rotate(90 103.437 183.717)" class="st20" d="M102.9 180.9h1v5.6h-1z"/><path transform="rotate(90 103.437 220.05)" class="st20" d="M102.9 217.3h1v5.6h-1z"/><path class="st20" d="M105.9 184.2v35.3M103.7 184.3v35.2M102.3 184.2v35.3M100.7 184.2v35.3M102.3 184.2c-18 0-32.8 13.8-34.4 31.4l34.4 3.9M493.3 351.9v-1.7h-4v.8h-8.8v.9zM493.3 423v1.6h-4v-.7h-8.8v-.9zM493.3 351.2h2.8v72.5h-2.8M478.8 387.4h7.1M480.5 423v-71.1"/><path transform="rotate(-90 482.55 404.51)" class="st20" d="M464.1 403.9h37v1.2h-37z"/><path transform="rotate(-90 483.712 370.342)" class="st20" d="M465.2 369.8h36.9v1.2h-36.9z"/><path transform="rotate(-90 488.392 387.46)" class="st20" d="M487 386.2h2.9v2.6H487z"/><path transform="rotate(-90 490.258 404.51)" class="st20" d="M471.8 403.9h37v1.2h-37z"/><path transform="rotate(-90 491.42 370.342)" class="st20" d="M472.9 369.8h36.9v1.2h-36.9z"/><path class="st20" d="M495.1 387.4h-5.5M325.7 268.3h-4.2v-1.2h1.8v-.7h.7v.7h1.7zM325.7 227.4h-4.2v1.1h1.8v.7h.7v-.7h1.7z"/><path transform="rotate(180 344.982 229.24)" class="st20" d="M325.7 228.5h38.6v1.4h-38.6z"/><path class="st20" d="M324 228.5h1.7v38.6H324zM325.7 267.1c21.3 0 38.6-17.3 38.6-38.6M485.1 18.7h-9.3v-3.6H221.1"/><circle class="st20" cx="480.6" cy="15.1" r="1.6"/><path class="st20" d="M221.1 10.4h264M221.1 7.2h264M221.1 4.9h264M221.1 1.6h264M609 70.9v298.4h-62v79.5h-51.6"/><path class="st20" d="M617.9 70.9v307.3h-62.1v79.5h-79.5"/><path class="st20" d="M600.8 70.9v10.7h3.6V364h-62.1v84.8"/><circle class="st20" cx="604.4" cy="76.8" r="1.6"/><path class="st20" d="M466.1 509.3h-245M466.1 518.1h-245M221.1 501h9.3v3.6h226.4V501h9.3"/><circle class="st20" cx="225.8" cy="504.6" r="1.6"/><circle class="st20" cx="461.5" cy="504.6" r="1.6"/><path class="st21" d="M460.9 7.4v4.4h-.4v3.5h-.5V35h-1.1V15.3h-.4v-3.5h-.4V7.4zM334.3 7.4v4.4h-.4v3.5h-.5V35h-1.1V15.3h-.4v-3.5h-.4V7.4z"/><path class="st20" d="M458.1 7.4h2.8v4.4h-2.8zM460 15.3v-1h-1.1v1h-.4v-3.4h2v3.4z"/><path class="st20" d="M458.9 14.3h1.1v20.8h-1.1zM331.5 7.4h2.8v4.4h-2.8zM333.4 15.3v-1h-1.1v1h-.4v-3.4h2v3.4z"/><path class="st20" d="M332.3 14.3h1.1v20.8h-1.1z"/><path class="st22" d="M495.4 95.1V70.9h122.5V62H495.4V1.6h-10.3V62H464M321.7 186.4H481v-13.9M280.8 186.4h-1.6v-44.2h-3.3v23h-50.6V76.5h50.6v23h3.3v-23h6.1M272.9 237.5h6.3v-47h1.6"/><path class="st22" d="M272.9 233.4h2.1v-64h-38.6v22.8h-10.7v41.2h10.8"/><path class="st22" d="M236.5 237.5h-27.8v-12.3h-6.1M202.6 220.8h6.1v-34.2h-9.3v-32.5h-86.7V183h-6.5v.2M100.7 183.2v-27.7H16.9v65.1h83.8v-.1M106.2 220.5v.3h24.4M131.7 222h33.7M165.4 225.2h-6.1v67.7h-11.4M144.6 276.2v-.5h-17v-4.9M127.6 266.8h17v-30.4H88.4v30.4h.7"/><path class="st22" d="M89.1 270.8v4.9h-9.5v-39.3H2.1v-98.6h208.8V1.6h10.2V62h64.4M410.1 62h-70.7M446.6 436.3H481v-12.4"/><path class="st22" d="M446.4 450.7h19.7v67.4h10.2v-67.4h19.1v-27M369.2 450.7h-4V467h-38.1v-16.3h-28.4M298.9 436.3H369M244.8 450.7h-23.7v67.4h-10.2v-97.9"/><path class="st22" d="M225.3 420.4v15.9h19.3M210.9 366.1v-20h-77.4v-10.2h11.1v-3.2M325.2 268.3v21.1M147.9 332.1H222v-53.7h3.7v27.9h24.7v-24.6h-.5v-3.3H322v-10.1M320.6 290.5v36"/><path class="st22" d="M317.3 326.5v-.9h-10.2v-16h-5.8v-3.2l5.8-.1v-24.6h-53.5v24.6h5.8v3.3h-34.1V366"/><path transform="rotate(90 346.145 446.268)" class="st22" d="M338 439.8h16.3v13H338z"/><path transform="rotate(90 206.401 167.106)" class="st22" d="M189.7 162.9h33.5v8.4h-33.5z"/><path transform="rotate(90 227.275 179.425)" class="st22" d="M217.3 173.5h20v11.8h-20z"/><path transform="rotate(90 105.836 165.274)" class="st22" d="M90.9 161.2h29.8v8.1H90.9z"/><path class="st22" d="M409.9 76.5h-70.3M464.2 76.5H481v18.4M321.7 190.5h.3v36.9M325.2 227.4v-36.9h31.6v31.6h-1.4v3.3h4.7v-34.9h36.3v10.4H481v25.4M495.4 172.3v54.4M480.5 254.3V289h-41.8v3.9h6v11.9h3.7v-11.9h18.8v11.9H481V351M495.4 351.2v-27h19v-45.1h-19v-25.2"/><path class="st22" d="M470.5 292.4v9.1h12.3v10.2h19.1v-20h-19.1v.7z"/><path d="M334.3 46.9c-.7 1.5-1.5 2.8-2.5 4-.3-.3-.6-.6-.9-.8 1.7-2 3-4.6 3.9-8.1l1.1.4c-.5 1.9-1.1 3.3-1.6 4.5zm7.9 3.6c-.9-2.8-2.2-5.5-3.9-8.2l.9-.6c1.8 2.7 3.2 5.5 4.2 8.3l-1.2.5zm-.4-7.1c-.3-.5-.8-1-1.4-1.6l.6-.5c.6.5 1.1 1 1.5 1.5l-.7.6zm1.1-1c-.3-.5-.8-1-1.4-1.6l.6-.5c.6.5 1.1 1 1.5 1.5l-.7.6zM348 47.2c-.5 1.8-1.5 3.3-3 4.6-.2-.3-.5-.6-.7-.9 1.1-.8 2-1.8 2.4-3 .4-1 .6-2.2.7-3.8v-2.6h1.1c0 2.7-.1 4.6-.5 5.7zm3.7 4.3-.8-.8.1-.2v-9.9h1.1v9.3c1.5-1.1 3-2.6 4.4-4.4.2.3.5.5.8.7-1.9 2.3-3.7 4.1-5.6 5.3zM366.5 51.6v-.8h-7.9v-1h7.9v-6h-7.9v-1.1h9.1v8.9h-1.2zM369.7 50.3v-1.1h12.1v1.1h-12.1zm1.7-7v-1.1h8.6v1.1h-8.6zM383 46.6v-1h11.1v1H383zM549.5 152.3c-.5 1.8-1.5 3.3-3 4.6-.2-.3-.5-.6-.7-.9 1.1-.8 2-1.8 2.4-3 .4-1 .6-2.2.7-3.8v-2.6h1.1c0 2.6-.2 4.5-.5 5.7zm3.7 4.3-.8-.8.1-.2v-9.9h1.1v9.3c1.5-1.1 3-2.6 4.4-4.4.2.3.5.5.8.7-1.9 2.2-3.8 4-5.6 5.3zM551.7 169.4v-11.1h1v11.1h-1zM554.1 177.8c-1.2 1.4-3.1 2.6-5.6 3.6-.1-.3-.3-.7-.5-1.1 2.1-.6 3.8-1.6 5.1-3 1.2-1.2 2.1-3 2.9-5.3h-8.9v-1l9.4-.1.8.8c-1 2.8-2.1 4.9-3.2 6.1zM549.1 188.9c-.7 1.5-1.5 2.8-2.5 4-.3-.3-.6-.6-.9-.8 1.7-2 3-4.6 3.9-8.1l1.1.4c-.5 1.8-1.1 3.3-1.6 4.5zm7.9 3.6c-.9-2.8-2.2-5.5-3.9-8.2l.9-.6c1.8 2.7 3.2 5.5 4.2 8.3l-1.2.5zm-.4-7.1c-.3-.5-.8-1-1.4-1.6l.6-.5c.6.5 1.1 1 1.5 1.5l-.7.6zm1.1-1c-.3-.5-.8-1-1.4-1.6l.6-.5c.6.5 1.1 1 1.5 1.5l-.7.6zM549.5 200.9c-.5 1.8-1.5 3.3-3 4.6-.2-.3-.5-.6-.7-.9 1.1-.8 2-1.8 2.4-3 .4-1 .6-2.2.7-3.8v-2.6h1.1c0 2.7-.2 4.5-.5 5.7zm3.7 4.3-.8-.8.1-.2v-9.9h1.1v9.3c1.5-1.1 3-2.6 4.4-4.4.2.3.5.5.8.7-1.9 2.2-3.8 4-5.6 5.3zM555.3 216.1v-.8h-7.9v-1h7.9v-6h-7.9v-1.1h9.1v8.9h-1.2zM546 226.3v-1.1h12.1v1.1H546zm1.7-6.9v-1.1h8.6v1.1h-8.6zM551.7 239.3v-11.1h1v11.1h-1zM226.5 179.6c-.3.2-.6.3-1 .3h-1.3v2h-.5v-4.6h1.6c.5 0 .9.1 1.2.3.4.2.5.6.5 1-.1.4-.2.7-.5 1zm-1.2-1.9h-1.2v1.7h1.2c.7 0 1.1-.3 1.1-.8 0-.6-.4-.9-1.1-.9zM230.5 181.7c-.3.2-.7.3-1.1.3-.5 0-.8-.1-1.2-.3-.3-.2-.5-.6-.6-1h.6c.1.3.2.6.4.7.2.1.4.2.8.2.3 0 .5-.1.7-.2.2-.2.4-.4.4-.6 0-.3-.4-.6-1.1-.9-1-.4-1.5-.9-1.5-1.4 0-.4.2-.7.5-.9.3-.2.6-.3 1-.3.7 0 1.2.4 1.5 1.2h-.6c-.2-.5-.5-.7-.9-.7-.3 0-.5.1-.6.2-.2.1-.3.3-.3.6 0 .2.2.5.7.7.4.2.8.5 1.3.7.5.3.7.6.7 1-.2.1-.3.4-.7.7zM490.2 301.8c-.3.2-.6.3-1 .3h-1.3v2h-.5v-4.6h1.6c.5 0 .9.1 1.2.3.4.2.5.6.5 1 0 .5-.2.8-.5 1zm-1.1-1.8h-1.2v1.7h1.2c.7 0 1.1-.3 1.1-.8-.1-.6-.4-.9-1.1-.9zM496.7 304c-.3.2-.7.3-1.1.3-.5 0-.8-.1-1.2-.3-.3-.2-.5-.6-.6-1h.6c.1.3.2.6.4.7.2.1.4.2.8.2.3 0 .5-.1.7-.2.2-.2.4-.4.4-.6 0-.3-.4-.6-1.1-.9-1-.4-1.5-.9-1.5-1.4 0-.4.2-.7.5-.9.3-.2.6-.3 1-.3.7 0 1.2.4 1.5 1.2h-.6c-.2-.5-.5-.7-.9-.7-.3 0-.5.1-.7.2-.2.1-.3.3-.3.6 0 .2.2.5.7.7.4.2.8.5 1.3.7.5.3.7.6.7 1 0 .1-.2.4-.6.7zM250.3 223.5c-.5.7-1.4 1.2-2.6 1.6-.1-.2-.2-.4-.3-.5 1-.2 1.8-.6 2.2-1.2.5-.6.8-1.4.8-2.4H247v1.6h-.5v-2.1h2v-1.2h.5v1.2h2c0 1.4-.3 2.4-.7 3zM254.8 222.3v2.3c0 .2 0 .4-.1.5-.1.1-.3.1-.7.2 0-.2-.1-.4-.1-.5h.3c.2 0 .2-.1.2-.2v-1.7c-.6.8-1.4 1.4-2.3 1.9-.1-.1-.2-.3-.3-.4 1-.5 1.8-1.2 2.4-2H252v-.4h2.3v-1h.4v1h1.5v.4h-1.4zM258.1 222.5l-1.2-.6.2-.4c.5.2.9.3 1.2.5l-.2.5zm1.8 1.1c-.7.5-1.5.9-2.5 1.3l-.3-.5c1.8-.6 3.3-1.6 4.5-3 .1.1.2.3.3.4-.6.7-1.3 1.3-2 1.8zm-1.1-2.7c-.4-.3-.8-.5-1.2-.7l.2-.4c.5.3.9.5 1.2.7l-.2.4zM262.7 224.8v-.4h2.9l.2-2.2h-2.5v-.4h2.9l-.2 2.6h1.3v.4h-4.6zM253.1 231c-.5.4-1.1.8-1.7 1.1-.5.2-.8.4-1 .6l-.4-.4v-4.6h.5v4.2c.9-.4 1.6-.8 2.1-1.2.5-.4 1-.9 1.6-1.6.1.1.2.3.4.4l-1.5 1.5zM255.7 230.8c-.2-.3-.4-.7-.7-1.1l.4-.2c.2.4.5.7.7 1.2l-.4.1zm3 .2c-.3.6-.7 1-1.1 1.4-.4.3-.9.6-1.5.8-.1-.2-.2-.3-.3-.4.6-.2 1-.4 1.4-.6.4-.3.7-.7 1-1.2.2-.4.4-1 .6-1.7l.5.1c-.2.6-.4 1.2-.6 1.6zm-1.7-.6c-.1-.4-.3-.8-.5-1.1l.4-.2c.2.4.4.8.6 1.1l-.5.2zM263.7 230.9c-.7-.4-1.6-.8-2.7-1.2v3.3h-.5v-5.6h.5v1.8c1 .3 2 .7 3 1.2l-.3.5zM243 194.8c-.5.1-1.1.2-1.9.3v.8h2v.4h-2v.9h2.3v.4h-2.3v1.4c0 .1-.1.2-.3.3-.2.1-.4.1-.8.1 0-.1 0-.3-.2-.4h.6c.1 0 .1 0 .1-.1v-1.3h-2.2v-.4h2.2v-.9h-2v-.4h2v-.8c-.6.1-1.2.1-1.8.1-.1-.2-.1-.3-.2-.4.8 0 1.6-.1 2.2-.1.6-.1 1.2-.2 1.9-.3l.4.4zM239.5 203.3l-.9 1.8-.4-.2 1-1.8c.2.1.3.2.3.2zm-.2-1.3-.2.3c-.2-.2-.5-.4-.8-.5l.2-.3c.3.2.6.3.8.5zm.3-1.3-.2.3c-.2-.3-.5-.5-.7-.6l.2-.3c.2.2.5.4.7.6zm1.1-.3c-.1.3-.2.5-.3.7h.8v-1h.4v1h1.4v.3h-1.4v1h1.7v.3h-1.2v1.8c0 .1 0 .1.1.1h.6c.1 0 .2-.1.2-.1.1-.1.1-.2.1-.4.1.1.2.1.4.1 0 .2-.1.4-.2.6-.1.2-.2.2-.4.2h-.7c-.3 0-.4-.2-.4-.5v-1.8h-.8c0 .7-.1 1.2-.3 1.5-.2.3-.6.6-1.1.8-.1-.1-.1-.3-.2-.4.5-.2.9-.5 1-.8.1-.3.2-.6.2-1.1h-1.1v-.3h1.7v-1h-1c-.1.3-.3.5-.4.7-.1-.1-.2-.2-.3-.2.2-.3.4-.5.5-.8.1-.3.2-.5.3-.8l.4.1zM242.7 208.4c0 .6-.1 1.1-.1 1.4 0 .2-.1.3-.2.4-.1.1-.4.1-.9.2 0-.1-.1-.3-.1-.4h.5c.2 0 .3-.1.4-.2.1-.2.1-.5.1-1v-1.3h-1.3c-.1.8-.3 1.4-.6 1.9s-.8.9-1.4 1.3c-.1-.1-.2-.3-.3-.4.6-.3 1-.7 1.3-1.1.3-.4.5-1 .6-1.6H239v-.4h1.5V206h.5v1.2h1.8l-.1 1.2zM242.2 214.6c-.4.6-1.2 1.1-2.3 1.4-.1-.2-.2-.3-.2-.4.9-.2 1.5-.6 2-1 .5-.5.7-1.2.7-2.1h-3v1.4h-.4v-1.8h1.7v-1h.4v1h1.8c-.1 1.1-.3 1.9-.7 2.5zM241.5 219.7c-.6.4-1.3.9-2.2 1.3l-.3-.5c1.5-.5 2.9-1.5 4-2.9l.3.3c-.6.8-1.3 1.4-1.8 1.8zm-1.2-1.8c-.4-.4-.8-.7-1.2-1l.3-.4c.5.3.9.6 1.3.9l-.4.5zM241.5 225c-.6.6-1.3 1.1-2.3 1.5-.1-.1-.1-.2-.3-.4.9-.3 1.6-.8 2.2-1.4-.3-.3-.7-.6-1-.8l.2-.3c.4.3.8.5 1.1.8.3-.4.6-.9.9-1.5h-1.8c-.5.7-1 1.2-1.7 1.6-.1-.1-.2-.3-.3-.4.6-.4 1-.7 1.2-1 .3-.3.5-.8.8-1.4l.5.2-.3.6h1.8l.3.3c-.4.9-.9 1.7-1.3 2.2zM240.7 231.4v-4.5h.4v4.5h-.4zM265.8 203.4v-3.8h.4v3.5h2.4v.4h-2.8zM267.5 205.1v.3h-.5v.6h.6v.3h-.6v1h-.3v-1h-.6c0 .2-.1.4-.2.6-.1.3-.4.5-.7.7-.1-.1-.1-.2-.2-.3.3-.1.5-.3.6-.6.1-.1.1-.2.1-.4h-.6v-.3h.7v-.6h-.5v-.3h2.2zm-.5 2.8v-.4h.3v.4h1.5v.3h-1.5v.6h2v.3H265v-.3h2v-.6h-1.4v-.3h1.4zm-.3-2.5h-.6v.6h.6v-.6zm1.5-.2v1.8h-.3v-1.8h.3zm1-.2v2.3c0 .1-.1.2-.2.2-.1.1-.3.1-.5.1 0-.1 0-.2-.1-.4h.4s.1 0 .1-.1V205h.3zM269 210.3c-.4.1-.9.2-1.6.2v.7h1.7v.3h-1.7v.8h2v.3h-2v1.2c0 .1-.1.2-.2.3-.1.1-.4.1-.6.1 0-.1 0-.3-.1-.4h.5c.1 0 .1 0 .1-.1v-1.1h-1.9v-.3h1.9v-.8h-1.7v-.3h1.7v-.7c-.5 0-1.1.1-1.5.1 0-.2-.1-.3-.2-.3.7 0 1.3 0 1.9-.1.5-.1 1.1-.1 1.6-.2l.1.3zM265.6 215.7v-1h.3v1h.4v.3h-.4v.7c.1 0 .3-.1.4-.2v.3c-.1.1-.3.1-.4.2v1.7c0 .1-.1.2-.2.2s-.3.1-.6.1c0-.1 0-.2-.1-.3h.5c.1 0 .1 0 .1-.1v-1.5c-.2.1-.4.2-.6.2l-.1-.3c.2-.1.4-.1.7-.2v-.9h-.6v-.3h.6zm2.1-.8v1.8l.3.1-.1.4h1.1v2h-.3v-.2H267v.2h-.3v-2h.9l.1-.4c-.1 0-.2.1-.5.1 0-.1 0-.3-.1-.3h.2c.1 0 .1 0 .1-.1v-1.3h-1v-.3h1.3zm-.4 1.4c-.3.1-.6.2-.8.3l-.1-.3c.2-.1.5-.2.9-.3v.3zm-.2-.6-.2.2-.4-.4.1-.2c.2.2.4.3.5.4zm1.6 2.2v-.4H267v.4h1.7zm0 .8v-.5H267v.5h1.7zm.5-3.8v1.7c0 .1 0 .2-.1.2s-.2.1-.5.1c0-.1 0-.3-.1-.3H268.8v-1.3h-1v-.3h1.4zm-.6.8-.2.2c-.1-.1-.3-.2-.5-.3l.1-.2c.3.1.4.2.6.3zm.1.6c-.3.1-.5.2-.7.3l-.1-.3c.2-.1.5-.2.8-.3v.3zM421.9 85c0 .6-.1 1.1-.1 1.4 0 .2-.1.3-.2.4-.1.1-.4.1-.9.2 0-.1-.1-.3-.1-.4h.5c.2 0 .3-.1.4-.2.1-.2.1-.5.1-1v-1.3h-1.3c-.1.8-.3 1.4-.6 1.9s-.8.9-1.4 1.3c-.1-.1-.2-.3-.3-.4.6-.3 1-.7 1.3-1.1.3-.4.5-1 .6-1.6h-1.5v-.4h1.5v-1.2h.5v1.2h1.8l-.3 1.2zM422.5 84.9v-.4h4.5v.4h-4.5zM430.1 84.4c-.1.9-.2 1.5-.5 1.8-.2.3-.7.7-1.4 1-.1-.1-.1-.3-.3-.4.7-.2 1.1-.5 1.4-.8.2-.3.4-.8.4-1.6h-2.3V84h4.9v.4h-2.2zm-1.9-1.3v-.4h3.3v.4h-3.3zM435.3 85.7c-.6.4-1.3.9-2.2 1.3l-.3-.5c1.5-.5 2.9-1.5 4-2.9l.3.3c-.6.8-1.2 1.4-1.8 1.8zm-1.2-1.7c-.4-.4-.8-.7-1.2-1l.3-.4c.5.3.9.6 1.3.9l-.4.5zM440.7 85.4c-.5.4-1 .7-1.5 1-.4.2-.7.4-.9.5l-.4-.3v-4h.4v3.7c.8-.3 1.4-.7 1.8-1 .4-.3.9-.8 1.4-1.4l.3.3c-.3.4-.7.9-1.1 1.2zM442.3 84.9v-.4h4.5v.4h-4.5zM448.7 85.2c-.2.7-.6 1.3-1.2 1.9-.1-.1-.2-.3-.3-.4.5-.3.8-.7 1-1.2.2-.4.3-.9.3-1.5v-1h.4c0 1-.1 1.7-.2 2.2zm1.5 1.7-.3-.3.1-.1v-4h.4v3.7c.6-.4 1.2-1 1.8-1.8l.3.3c-.8 1-1.6 1.7-2.3 2.2zM456 86.7h-.4l-.7-2.9-.8 2.9h-.4l-.9-3.6h.4l.7 2.9.8-2.9h.4l.7 2.9.7-2.9h.4l-.9 3.6zM297.2 85.1c0 .6-.1 1.1-.1 1.4 0 .2-.1.3-.2.4-.1.1-.4.1-.9.2 0-.1-.1-.3-.1-.4h.5c.2 0 .3-.1.4-.2.1-.2.1-.5.1-1v-1.3h-1.3c-.1.8-.3 1.4-.6 1.9s-.8.9-1.4 1.3c-.1-.1-.2-.3-.3-.4.6-.3 1-.7 1.3-1.1.3-.4.5-1 .6-1.6h-1.5v-.4h1.5v-1.2h.5v1.2h1.8l-.3 1.2zM297.8 85v-.4h4.5v.4h-4.5zM305.4 84.5c-.1.9-.2 1.5-.5 1.8-.2.3-.7.7-1.4 1-.1-.1-.1-.3-.3-.4.7-.2 1.1-.5 1.4-.8.2-.3.4-.8.4-1.6h-2.3v-.4h4.9v.4h-2.2zm-1.9-1.3v-.4h3.3v.4h-3.3zM310.6 85.8c-.6.4-1.3.9-2.2 1.3l-.3-.5c1.5-.5 2.9-1.5 4-2.9l.3.3c-.6.8-1.2 1.4-1.8 1.8zm-1.2-1.7c-.4-.4-.8-.7-1.2-1l.3-.4c.5.3.9.6 1.3.9l-.4.5zM316 85.5c-.5.4-1 .7-1.5 1-.4.2-.7.4-.9.5l-.4-.3v-4h.4v3.7c.8-.3 1.4-.7 1.8-1 .4-.3.9-.8 1.4-1.4l.3.3c-.3.4-.7.9-1.1 1.2zM317.6 85v-.4h4.5v.4h-4.5zM324 85.3c-.2.7-.6 1.3-1.2 1.9-.1-.1-.2-.3-.3-.4.5-.3.8-.7 1-1.2.2-.4.3-.9.3-1.5v-1h.4c0 1-.1 1.7-.2 2.2zm1.4 1.7-.3-.3.1-.1v-4h.4v3.7c.6-.4 1.2-1 1.8-1.8l.3.3c-.7 1-1.5 1.7-2.3 2.2zM331.3 86.8h-.4l-.7-2.9-.8 2.9h-.4l-.9-3.6h.4l.7 2.9.8-2.9h.4l.7 2.9.7-2.9h.4l-.9 3.6zM474.1 118.3c0 .6-.1 1.1-.1 1.4 0 .2-.1.3-.2.4-.1.1-.4.1-.9.2 0-.1-.1-.3-.1-.4h.5c.2 0 .3-.1.4-.2.1-.2.1-.5.1-1v-1.3h-1.3c-.1.8-.3 1.4-.6 1.9s-.8.9-1.4 1.3c-.1-.1-.2-.3-.3-.4.6-.3 1-.7 1.3-1.1.3-.4.5-1 .6-1.6h-1.5v-.4h1.5v-1.2h.5v1.2h1.8l-.3 1.2zM472.2 125.5V121h.4v4.5h-.4zM472.6 127.9c-.1.9-.2 1.5-.5 1.8-.2.3-.7.7-1.4 1-.1-.1-.1-.3-.3-.4.7-.2 1.1-.5 1.4-.8.2-.3.4-.8.4-1.6h-2.3v-.4h4.9v.4h-2.2zm-1.9-1.3v-.4h3.3v.4h-3.3zM472.9 134.5c-.6.4-1.3.9-2.2 1.3l-.3-.5c1.5-.5 2.9-1.5 4-2.9l.3.3c-.6.8-1.2 1.4-1.8 1.8zm-1.2-1.8c-.4-.4-.8-.7-1.2-1l.3-.4c.5.3.9.6 1.3.9l-.4.5zM473.5 139.3c-.5.4-1 .7-1.5 1-.4.2-.7.4-.9.5l-.4-.3v-4h.4v3.7c.8-.3 1.4-.7 1.8-1 .4-.3.9-.8 1.4-1.4l.3.3c-.3.4-.7.8-1.1 1.2zM472.2 145.8v-4.5h.4v4.5h-.4zM471.3 148.9c-.2.7-.6 1.3-1.2 1.9-.1-.1-.2-.3-.3-.4.5-.3.8-.7 1-1.2.2-.4.3-.9.3-1.5v-1h.4c0 1-.1 1.8-.2 2.2zm1.4 1.7-.3-.3.1-.1v-4h.4v3.7c.6-.4 1.2-1 1.8-1.8l.3.3c-.8 1-1.5 1.7-2.3 2.2zM473.5 155.7h-.4l-.7-2.9-.8 2.9h-.4l-.9-3.6h.4l.7 2.9.8-2.9h.4l.7 2.9.7-2.9h.4l-.9 3.6zM470.3 347.1c0 .6-.1 1.1-.1 1.4 0 .2-.1.3-.2.4-.1.1-.4.1-.9.2 0-.1-.1-.3-.1-.4h.5c.2 0 .3-.1.4-.2.1-.2.1-.5.1-1v-1.3h-1.3c-.1.8-.3 1.4-.6 1.9s-.8.9-1.4 1.3c-.1-.1-.2-.3-.3-.4.6-.3 1-.7 1.3-1.1.3-.4.5-1 .6-1.6h-1.5v-.4h1.5v-1.2h.5v1.2h1.8l-.3 1.2zM468.4 354.3v-4.5h.4v4.5h-.4zM468.8 356.7c-.1.9-.2 1.5-.5 1.8-.2.3-.7.7-1.4 1-.1-.1-.1-.3-.3-.4.7-.2 1.1-.5 1.4-.8.2-.3.4-.8.4-1.6h-2.3v-.4h4.9v.4h-2.2zm-1.9-1.3v-.4h3.3v.4h-3.3zM469.1 363.3c-.6.4-1.3.9-2.2 1.3l-.3-.5c1.5-.5 2.9-1.5 4-2.9l.3.3c-.6.8-1.2 1.4-1.8 1.8zm-1.2-1.8c-.4-.4-.8-.7-1.2-1l.3-.4c.5.3.9.6 1.3.9l-.4.5zM466.6 369.4c-.1-.1-.3-.2-.4-.3.4-.5.8-1 1.1-1.7l.4.2c-.4.7-.8 1.3-1.1 1.8zm2.1-2.5v3.2h-.4v-3.2h-2.1v-.4h2.1v-1.2h.4v1.2h2.3v.4h-2.3zm1.9 2.4c-.5-.5-.9-1-1.3-1.7l.4-.3c.4.7.8 1.2 1.3 1.7-.2.1-.3.2-.4.3zm-.4-3c-.1-.2-.3-.4-.6-.6l.2-.2c.3.2.5.4.6.5l-.2.3zm.4-.5c-.1-.2-.3-.4-.6-.6l.2-.2c.3.2.5.4.6.5l-.2.3zM468.1 372.2c-.1-.3-.3-.6-.6-1l.3-.2c.2.3.4.6.6 1l-.3.2zm2.6.2c-.3.5-.6.9-1 1.2-.3.3-.8.5-1.3.7-.1-.1-.1-.3-.2-.4.5-.1.9-.3 1.2-.6.3-.2.6-.6.9-1 .2-.3.4-.8.5-1.4l.4.1c-.2.6-.3 1-.5 1.4zm-1.5-.5c-.1-.3-.3-.7-.5-1l.3-.1c.2.4.4.7.5 1l-.3.1zM469.3 378.3c-.6.6-1.3 1-2.2 1.3-.1-.1-.1-.3-.2-.4.8-.2 1.5-.6 2-1 .4-.4.8-1.1 1.2-1.9h-1.8c-.4.6-.8 1.2-1.3 1.6-.1-.1-.2-.2-.4-.3l1.1-1.1c.2-.3.5-.8.8-1.4l.5.2c-.1.2-.2.4-.4.7H470.5l.3.3c-.6.8-1 1.5-1.5 2zM470.5 384.4c-.5-.6-1-1.3-1.7-1.9-.6.7-1.4 1.3-2.3 1.9-.1-.2-.2-.3-.3-.4.8-.4 1.5-.8 2-1.3.4-.4.9-1.1 1.5-2h-2.9v-.4h3.2l.3.3c-.4.6-.7 1.2-1 1.6.7.6 1.3 1.2 1.8 1.9l-.6.3zM468.9 386.6h-.6l-.1-.1v-.6l.1-.1h.6l.1.1v.6l-.1.1zM470.3 390.5c0 .6-.1 1.1-.1 1.4 0 .2-.1.3-.2.4-.1.1-.4.1-.9.2 0-.1-.1-.3-.1-.4h.5c.2 0 .3-.1.4-.2.1-.2.1-.5.1-1v-1.3h-1.3c-.1.8-.3 1.4-.6 1.9s-.8.9-1.4 1.3c-.1-.1-.2-.3-.3-.4.6-.3 1-.7 1.3-1.1.3-.4.5-1 .6-1.6h-1.5v-.4h1.5v-1.2h.5v1.2h1.8l-.3 1.2zM468.4 397.6v-4.5h.4v4.5h-.4zM468.8 400.1c-.1.9-.2 1.5-.5 1.8-.2.3-.7.7-1.4 1-.1-.1-.1-.3-.3-.4.7-.2 1.1-.5 1.4-.8.2-.3.4-.8.4-1.6h-2.3v-.4h4.9v.4h-2.2zm-1.9-1.4v-.4h3.3v.4h-3.3zM469.1 406.7c-.6.4-1.3.9-2.2 1.3l-.3-.5c1.5-.5 2.9-1.5 4-2.9l.3.3c-.6.7-1.2 1.4-1.8 1.8zm-1.2-1.8c-.4-.4-.8-.7-1.2-1l.3-.4c.5.3.9.6 1.3.9l-.4.5zM469.7 411.5c-.5.4-1 .7-1.5 1-.4.2-.7.4-.9.5l-.4-.3v-4h.4v3.7c.8-.3 1.4-.7 1.8-1 .4-.3.9-.8 1.4-1.4l.3.3c-.3.4-.7.8-1.1 1.2zM468.4 417.9v-4.5h.4v4.5h-.4zM467.5 421.1c-.2.7-.6 1.3-1.2 1.9-.1-.1-.2-.3-.3-.4.5-.3.8-.7 1-1.2.2-.4.3-.9.3-1.5v-1h.4c0 1-.1 1.7-.2 2.2zm1.4 1.7-.3-.3.1-.1v-4h.4v3.7c.6-.4 1.2-1 1.8-1.8l.3.3c-.7 1-1.5 1.7-2.3 2.2zM469.7 427.9h-.4l-.7-2.9-.8 2.9h-.4l-.9-3.6h.4l.7 2.9.8-2.9h.4l.7 2.9.7-2.9h.4l-.9 3.6zM367.1 122.9l-2.1 4.3-1-.6 2.3-4.2c.3.2.5.4.8.5zm-.4-3.4-.4.8c-.6-.4-1.2-.7-2-1.1l.4-.8c.7.3 1.4.7 2 1.1zm.7-3.2-.6.8c-.6-.5-1.2-1-1.9-1.4l.6-.7c.7.3 1.3.8 1.9 1.3zm7.5-1.2-1.1 2h2.8v.9h-4v1.9h3.1v.9h-3.1v2.2h4v.9h-4v3.5h-.9v-3.5h-4.1v-.9h4.1v-2.2h-3.3v-.9h3.3V118h-3.8v-.9h4.9l1.3-2.5.8.5zm-3.9 1.3-.8.6c-.3-.6-.7-1.2-1.2-1.7l.8-.6c.5.7.9 1.3 1.2 1.7zM384.3 123.5v-1.2h1v1.2h4.4v.8h-4.4v1.5h5.7v.8h-12.5v-.8h5.8v-1.5H380v-.8h4.3zm1-9v1.4h5.1v2.7h-1v.4h-5.3l-1.1 2.1c1.5-.1 2.9-.2 4.5-.3-.3-.3-.6-.5-1-.8l.7-.7c1.3 1 2.2 1.7 2.7 2.3l-.7.7-.8-.8c-3.3.3-6.1.5-8.5.6l-.2-.9c.7 0 1.4 0 2.2-.1l1.2-2.1h-3v-.4h-.9v-2.7h5.1v-1.4h1zm4.1 3.7v-1.3h-9.3v1.3h9.3zM396.1 125.8v-7.9c-.7.4-1.3.6-1.9.8v-1c.7-.1 1.4-.4 1.9-.8h1v9h-1zM363 145.9c-.7-.7-1.2-1.3-1.6-1.9-.4-.8-.6-1.6-.6-2.5 0-.9.2-1.7.6-2.5.3-.6.9-1.2 1.6-1.9l.5.5c-.7.6-1.2 1.2-1.5 1.8-.4.7-.6 1.4-.6 2.2 0 .8.2 1.5.6 2.2.3.5.8 1.1 1.5 1.8l-.5.3zM367.1 137.1l-1 1.9c.2.2.4.3.6.5l.9-1.6.6.4-1.7 2.7c.4 0 .9 0 1.4-.1-.1-.3-.3-.5-.4-.8l.5-.3c.4.6.6 1.1.8 1.5l-.5.4c0-.1-.1-.2-.1-.3-.4 0-.8.1-1.1.1v4h-.7v-3.9c-.5 0-1 .1-1.5.1l-.2-.6h1l.6-1c-.5-.4-1-.8-1.6-1.1l.4-.5c.1.1.3.2.4.3l.9-1.9.7.2zm-1.1 5.3c-.2.9-.4 1.7-.6 2.4-.2-.1-.4-.2-.6-.2.2-.7.4-1.5.6-2.3l.6.1zm2.6 1.7-.6.2c-.1-.6-.2-1.2-.4-1.8l.6-.2c.1.6.2 1.2.4 1.8zm1.8-7.1c-.2.7-.3 1.3-.4 1.7h3.1v3.8c0 1-.1 1.7-.2 2-.1.6-.8.9-2 .9 0-.3-.1-.6-.3-.8h1.1c.3 0 .5-.2.6-.5.1-.3.1-.9.2-1.9v-3h-2.6c-.2.6-.4 1.1-.6 1.5-.2-.2-.4-.3-.6-.4.3-.6.5-1.2.7-1.9.2-.6.3-1.2.4-1.8l.6.4zm1 5.3-.5.5c-.3-.5-.8-1.1-1.3-1.7l.5-.4c.4.5.9 1.1 1.3 1.6zM377.4 141.6c-.3.8-.5 1.8-.5 2.9h-.7c0-1.1.1-2.1.4-2.8.3-.8.8-1.7 1.6-2.7h-3.1v-.6h3.9v.8c-.7.8-1.3 1.6-1.6 2.4zM381.4 144.6h-.7l-.1-.1v-.6l.1-.1h.7l.1.1v.6l-.1.1zM386.5 144.1c-.4.4-.9.6-1.4.6-1.1 0-1.8-.5-2.1-1.6h.8c.2.7.7 1.1 1.3 1.1.4 0 .7-.1.9-.5.3-.3.4-.6.4-1s-.1-.7-.4-1c-.3-.3-.6-.5-1-.5-.5 0-.9.2-1.2.6l-.7-.2.3-3.2h3.2v.6H384l-.2 2.1c.4-.3.9-.4 1.4-.4.5 0 1 .2 1.3.6.3.4.5.9.5 1.4.1.5-.1 1-.5 1.4zM390.1 138.5v-1.7h.7v1.7h1.4v4.5c0 .2 0 .3-.1.4-.1.1-.4.2-.8.2 0-.3-.1-.5-.2-.7h.3c.1 0 .2 0 .2-.1v-3.7h-.7v6.5h-.7v-6.5h-.7v4.5h-.6v-5.1h1.2zm5-1.7v1.8h2.1v.6h-2.1v2h1.7v4.2h-.6v-.5h-2.7v.6h-.6v-4.3h1.6v-4.4h.6zm1 7.5v-2.5h-2.7v2.5h2.7zM400.7 144c-.3.6-.9 1.2-1.6 1.9l-.5-.4c.7-.6 1.1-1.2 1.5-1.8.4-.7.6-1.4.6-2.2 0-.8-.2-1.5-.6-2.2-.3-.5-.8-1.1-1.5-1.8l.5-.5c.7.7 1.2 1.3 1.6 1.9.4.8.6 1.6.6 2.5 0 1-.2 1.8-.6 2.6zM383.5 352.7v-10.5h1.2v9.5h6.5v1h-7.7zM400.1 351.4c-1.1.9-2.5 1.3-4.3 1.3h-3v-10.5h3.5c1.6 0 2.9.5 4 1.4 1 1 1.6 2.2 1.6 3.8 0 1.7-.6 3-1.8 4zm-.8-7.1c-.8-.7-1.9-1-3.3-1h-2v8.5h2.3c1.3 0 2.3-.4 3.1-1.2.8-.8 1.2-1.8 1.2-3.1 0-1.5-.4-2.5-1.3-3.2zM410.8 352.7l-4-5.9-2.3 1.9v4h-1.1v-10.5h1.1v5.2l6-5.2h1.6l-4.5 3.9 4.8 6.6h-1.6zM376.9 365.5c-.7-.7-1.2-1.3-1.6-1.9-.4-.8-.6-1.6-.6-2.5s.2-1.7.6-2.5c.3-.6.9-1.2 1.6-1.9l.5.5c-.7.6-1.1 1.2-1.5 1.8-.4.7-.6 1.4-.6 2.2 0 .8.2 1.5.6 2.2.3.5.8 1.1 1.5 1.8l-.5.3zM381 356.8l-1 1.9c.2.2.4.3.6.5l.9-1.6.6.4-1.7 2.7c.4 0 .9 0 1.4-.1-.1-.3-.3-.5-.4-.8l.5-.3c.4.6.6 1.1.8 1.5l-.5.4c0-.1-.1-.2-.1-.3-.4 0-.8.1-1.1.1v4h-.7v-3.9c-.5 0-1 .1-1.5.1l-.2-.6h1l.6-1c-.5-.4-1-.8-1.6-1.1l.4-.5c.1.1.3.2.4.3l.9-1.9.7.2zm-1.1 5.2c-.2.9-.4 1.7-.6 2.4-.2-.1-.4-.2-.6-.2.2-.7.4-1.5.6-2.3l.6.1zm2.6 1.7-.6.2c-.1-.6-.2-1.2-.4-1.8l.6-.2c.1.6.2 1.2.4 1.8zm1.8-7.1c-.2.7-.3 1.3-.4 1.7h3.1v3.8c0 1-.1 1.7-.2 2-.1.6-.8.9-2 .9 0-.3-.1-.6-.3-.8h1.1c.3 0 .5-.2.6-.5.1-.3.1-.9.2-1.9v-3h-2.6c-.2.6-.4 1.1-.6 1.5-.2-.2-.4-.3-.6-.4.3-.6.5-1.2.7-1.9.2-.6.3-1.2.4-1.8l.6.4zm1 5.3-.5.5c-.3-.5-.8-1.1-1.3-1.7l.5-.4c.4.5.9 1.1 1.3 1.6zM391.2 364.1v-5.4c-.5.3-.9.4-1.3.5v-.7c.5-.1.9-.2 1.3-.5h.7v6.1h-.7zM396.7 364.1v-5.4c-.5.3-.9.4-1.3.5v-.7c.5-.1.9-.2 1.3-.5h.7v6.1h-.7zM400.8 364.3h-.8l-.1-.1v-.6l.1-.1h.7l.1.1v.7zM404.8 361.2c-.3.8-.5 1.8-.5 2.9h-.7c0-1.1.1-2.1.4-2.8.3-.8.8-1.7 1.6-2.7h-3.1v-.6h3.9v.8c-.8.8-1.3 1.6-1.6 2.4zM409.5 358.1v-1.7h.7v1.7h1.4v4.5c0 .2 0 .3-.1.4-.1.1-.4.2-.8.2 0-.3-.1-.5-.2-.7h.3c.1 0 .2 0 .2-.1v-3.7h-.7v6.5h-.7v-6.5h-.7v4.5h-.6v-5.1h1.2zm4.9-1.6v1.8h2.1v.6h-2.1v2h1.7v4.2h-.6v-.5h-2.7v.6h-.6v-4.3h1.6v-4.4h.6zm1.1 7.5v-2.5h-2.7v2.5h2.7zM420 363.6c-.3.6-.9 1.2-1.6 1.9l-.5-.4c.7-.6 1.1-1.2 1.5-1.8.4-.7.6-1.4.6-2.2 0-.8-.2-1.5-.6-2.2-.3-.5-.8-1.1-1.5-1.8l.5-.5c.7.7 1.2 1.3 1.6 1.9.4.8.6 1.6.6 2.5s-.1 1.8-.6 2.6zM431 212.1l-.1.1c.5.5 1 .8 1.6 1.1.6.3 1.2.6 1.9.8-.1.1-.2.2-.4.5-.6-.2-1.3-.5-1.8-.9-.5-.3-1.1-.7-1.6-1.2-.4.4-.9.8-1.4 1.1-.7.5-1.3.8-1.7 1-.1-.2-.3-.3-.4-.4.7-.3 1.3-.6 1.8-1 .6-.4 1.1-.9 1.6-1.4l.5.3zm-.2 1.3v.8h1.9v2.8h-2.1c.2.3.5.6.9.9.7-.3 1.3-.7 1.7-1l.4.5c-.5.3-1.1.6-1.6.8.6.3 1.3.5 2.1.6-.1.2-.2.4-.3.5-1-.2-1.9-.5-2.5-1-.6-.4-1-.8-1.3-1.4h-1.1v1.4c.5-.1 1.1-.1 1.7-.2v.5c-1.2.2-2.3.3-3.4.5l-.1-.6c.4 0 .9-.1 1.3-.2V214h1.9v-.8h.5zm1.4 2v-.6h-3.3v.6h3.3zm0 1.1v-.7h-3.3v.7h3.3zM438 214.9c.2-.2.4-.5.6-.7l.6.2c-.1.2-.3.4-.4.5h3.6v.5H440c.3.2.5.5.8.7.4.3 1 .5 1.7.7-.2.2-.4.4-.4.5-.2-.1-.3-.1-.5-.2v2.2h-.5v-.4h-1.3v.4h-.5v-2.4h1.8c-.3-.1-.5-.3-.7-.4-.4-.3-.8-.6-1-1h-1.1c-.3.3-.5.5-.8.7-.3.3-.7.5-1.1.7h1.8v2.5h-.5v-.4h-1.3v.4h-.5v-2.2c-.2.1-.4.2-.5.3-.1-.2-.2-.3-.4-.5.8-.3 1.5-.7 2.1-1.1.2-.1.3-.3.5-.4h-2.3v-.5h2.7zm-2.1-.7v-2h2.3v2h-2.3zm.5-.5h1.2v-1h-1.2v1zm1.3 4.7v-1.1h-1.3v1.1h1.3zm1.7-4.2v-2h2.4v2h-2.4zm.5-.5h1.3v-1h-1.3v1zm1.3 4.7v-1.1h-1.3v1.1h1.3zM444.4 213.8V212h.5v1.8h.9v.5h-.9v.7l.4.4c.1.1.3.2.5.4-.1.2-.2.3-.3.5-.2-.2-.4-.3-.5-.4 0 0-.1 0-.1-.1v3.7h-.5v-3.7c-.1.3-.2.5-.3.8-.2.4-.4.7-.5.8-.1-.2-.2-.4-.3-.5.3-.4.5-.7.7-1.1.2-.3.3-.7.5-1.3h-.9v-.5h.8zm3.4-1.4v6.1c0 .2 0 .3-.1.4-.1.1-.4.2-.8.2 0-.2-.1-.4-.2-.5h.4c.1 0 .2 0 .2-.1v-1.8h-.8c0 .3-.1.5-.1.8-.1.7-.3 1.3-.6 1.8-.1-.2-.2-.4-.4-.5.3-.5.5-1 .6-1.6.1-.5.1-1.2.1-1.9v-2.8h1.7zm-.5 3.7v-1.3h-.8v1.4h.8zm0-1.9v-1.4h-.8v1.4h.8zm3-1.8v6.3c0 .2 0 .3-.1.4-.1.1-.4.1-.9.2 0-.2-.1-.4-.2-.5h.4c.2 0 .2 0 .2-.1v-2h-.9c0 .4-.1.7-.1 1-.1.7-.3 1.2-.5 1.7-.1-.2-.2-.4-.4-.5.2-.4.3-1 .4-1.5 0-.5.1-1.1.1-1.8v-3.1h2zm-.5 3.7v-1.3h-.9v1.4h.9zm0-1.9v-1.4h-.9v1.4h.9zM455.1 296.6v-1.8h.5v1.8h.9v.5h-.9v.7l.4.4c.1.1.3.2.5.4-.1.2-.2.3-.3.5-.2-.2-.4-.3-.5-.4 0 0-.1 0-.1-.1v3.7h-.5v-3.7c-.1.3-.2.5-.3.8-.2.4-.4.7-.5.8-.1-.2-.2-.4-.3-.5.3-.4.5-.7.7-1.1.2-.3.3-.7.5-1.3h-.9v-.5h.8zm3.5-1.4v6.1c0 .2 0 .3-.1.4-.1.1-.4.2-.8.2 0-.2-.1-.4-.2-.5h.4c.1 0 .2 0 .2-.1v-1.8h-.8c0 .3-.1.5-.1.8-.1.7-.3 1.3-.6 1.8-.1-.2-.2-.4-.4-.5.3-.5.5-1 .6-1.6.1-.5.1-1.2.1-1.9v-2.8h1.7zm-.5 3.7v-1.3h-.8v1.4h.8zm0-1.8v-1.4h-.8v1.4h.8zm3-1.9v6.3c0 .2 0 .3-.1.4-.1.1-.4.1-.9.2 0-.2-.1-.4-.2-.5h.4c.2 0 .2 0 .2-.1v-2h-.9c0 .4-.1.7-.1 1-.1.7-.3 1.2-.5 1.7-.1-.2-.2-.4-.4-.5.2-.4.3-1 .4-1.5 0-.5.1-1.1.1-1.8v-3.1h2zm-.5 3.7v-1.3h-.9v1.4h.9zm0-1.8v-1.4h-.9v1.4h.9zM369 206.4l-1.1 2.6-.5-.3 1.2-2.6c.2.1.3.2.4.3zm0-2.9-.4.5c-.3-.3-.6-.5-1.1-.7l.3-.5c.5.2.9.4 1.2.7zm3-1.1c0 .1-.1.1-.1.1.4.6.8 1 1.2 1.4.4.4.9.8 1.5 1.1-.2.2-.3.3-.4.5-.4-.2-.8-.5-1.2-.9-.5-.4-.9-.9-1.4-1.6-.3.5-.6.9-1 1.3-.5.5-1 1-1.5 1.3-.1-.2-.2-.3-.3-.5.5-.3.9-.6 1.4-1.1.5-.5.9-1.1 1.3-1.8l.5.2zm1.8 3.9v2c0 .3-.1.4-.2.5-.1.1-.4.1-.9.2 0-.2-.1-.4-.2-.6h.7c.1 0 .1 0 .1-.2v-1.5h-1.8v2.9h-.6v-2.9h-1.5v-.5h4.4zm-.9-1.4v.5h-2.5v-.5h2.5zM377.7 202.8v-.5h.5v.5h1.9v-.5h.5v.5h2v.4h-2v.6h.3v.6h1.8v.5h-1.8c0 .8 0 1.4.1 1.7 0 .3.1.6.1.8.3-.4.6-1 .9-1.7l.5.2c-.4.8-.8 1.5-1.2 2.1.1.2.1.3.2.4.2.3.3.4.4.4.1 0 .3-.2.5-.7.1.1.3.2.4.2-.2.5-.3.9-.5 1-.1.1-.2.2-.3.2-.3 0-.5-.1-.7-.4-.2-.2-.4-.4-.5-.7-.5.5-1.1.9-1.6 1.1-.1-.2-.2-.3-.4-.4.3-.1.6-.3.8-.5.3-.2.6-.5.9-.7l-.3-1.2c-.1-.4-.1-1-.1-1.8h-3.6v1c0 .8-.1 1.5-.2 1.9-.1.5-.4 1.1-.7 1.6-.1-.1-.3-.3-.5-.3.3-.4.5-.9.7-1.4.1-.4.2-.9.2-1.7v-1.4h4.1v-.6h-.3v-.6h-1.9v.6h-.5v-.6h-2v-.4h2.3zm2.2 3h-1v.5h1v1.3h-1v.6h1v.4h-2.1v.4h-.5v-3.6h2.6v.4zm-1.4.6v-.5h-.7v.5h.7zm.9.9v-.6h-1.7v.6h1.7zm-.9 1v-.6h-.7v.6h.7zm3.9-4.2-.3.3c-.2-.2-.5-.5-.8-.7l.3-.3c.3.4.6.6.8.7zM387.8 202.2v.7h3v.5h-6v2.7c0 .8 0 1.5-.1 1.9-.1.5-.3 1-.6 1.6-.1-.2-.3-.3-.5-.4.3-.4.5-.9.6-1.4.1-.3.1-.9.1-1.7v-3.2h2.9v-.7h.6zm-.1 2v-.6h.5v.6h2.3v.5h-2.3v.5h1.9v2.4h-1.9v.6h2.8v.5h-2.8v1h-.5v-1H385v-.5h2.7v-.6h-1.9v-2.4h1.9v-.5h-2.2v-.5h2.2zm-1.3 2h1.3v-.5h-1.3v.5zm1.3.4h-1.3v.5h1.3v-.5zm.6-.4h1.4v-.5h-1.4v.5zm0 .4v.5h1.4v-.5h-1.4zM375.4 214v.6h3.3v.4h-3.3v.5h2.1v2.7h-4.2v-2.7h1.5v-.5h-3.5v-.4h3.5v-.6H372v-1.7h6v1.7h-2.6zm-3 1.7v3h6.2v.5h-6.2v.4h-.5v-3.8h.5zm.2-2.1h1.3v-.8h-1.3v.8zm1.2 2.7h3.1v-.4h-3.1v.4zm0 .4v.4h3.1v-.4h-3.1zm0 .7v.4h3.1v-.4h-3.1zm.6-3.8h1.4v-.8h-1.4v.8zm1.8 0h1.3v-.8h-1.3v.8zM380.4 214.3v-2h.5v2h.8v.5h-.7v2.4l.9-.3v.4c.3-.2.5-.4.7-.6.2-.2.4-.5.5-.8h-1.2v-.5h5.2v.5h-3.3c-.1.2-.2.4-.4.6h3.3c0 1 0 1.7-.1 2.1-.1.4-.2.6-.3.7-.1.1-.5.2-1 .2 0-.2-.1-.4-.2-.5h.7c.1 0 .2-.1.3-.4.1-.3.1-.8.1-1.5h-.5c-.3.7-.6 1.2-1 1.6-.4.4-.8.7-1.2.9-.1-.1-.2-.3-.4-.4.5-.2.9-.5 1.2-.9.3-.3.5-.7.8-1.2h-.7c-.2.5-.5.8-.8 1.1-.4.3-.7.5-1.1.7-.1-.1-.2-.3-.4-.4.4-.2.7-.4 1-.7.2-.2.4-.4.6-.8h-.7c-.3.3-.6.6-1.1.9-.1-.1-.2-.3-.3-.4-.7.2-1.3.4-1.9.6l-.1-.6c.3-.1.6-.2 1-.3v-2.6h-.8v-.5h.6zm2.4.6v-2.6h3.5v2.6h-3.5zm.5-1.6h2.4v-.5h-2.4v.5zm0 .5v.5h2.4v-.5h-2.4zM231.8 107.8c-.2.5-.5 1-.9 1.4l-.3-.3c.6-.7 1-1.6 1.3-2.8l.4.2c-.2.6-.4 1.1-.5 1.5zm2.7 1.2c-.3-1-.8-1.9-1.3-2.8l.3-.2c.6.9 1.1 1.9 1.5 2.8l-.5.2zM233.3 112.4c-.5.4-1.1.8-1.9 1.1l-.2-.4c1.3-.4 2.5-1.3 3.4-2.5l.3.3c-.6.6-1.1 1.1-1.6 1.5zm-1-1.6c-.4-.3-.7-.6-1.1-.8l.2-.3c.4.2.8.5 1.1.8l-.2.3zM234.3 116.3c0 .5-.1.9-.1 1.2 0 .1-.1.2-.2.3-.1.1-.4.1-.8.2 0-.1-.1-.2-.1-.4h.4c.1 0 .3-.1.3-.2.1-.1.1-.4.1-.8v-1.1h-1.2c-.1.6-.3 1.2-.5 1.6-.3.4-.7.8-1.2 1.1l-.3-.3c.5-.3.9-.6 1.1-.9.3-.4.4-.8.5-1.4h-1.2v-.4h1.3v-1h.4v1h1.6l-.1 1.1zm0-1.4-.5-.5.2-.2c.2.2.4.3.6.5l-.3.2zm.3-.4-.5-.5.2-.2c.2.2.4.3.6.5l-.3.2zM232.6 122.4v-3.8h.3v3.8h-.3zM231.8 124.9c-.2.5-.5 1-.9 1.4l-.3-.3c.6-.7 1-1.6 1.3-2.8l.4.2-.5 1.5zm2.7 1.3c-.3-1-.8-1.9-1.3-2.8l.3-.2c.6.9 1.1 1.9 1.5 2.8l-.5.2zm.3-2.7c-.1.1-.2.2-.3.2-.1 0-.3 0-.3-.1-.1-.1-.1-.2-.1-.3 0-.1 0-.3.1-.3.1-.1.2-.1.3-.1.1 0 .2 0 .3.1.1.1.1.2.1.3 0 0 0 .1-.1.2zm-.2-.5s-.1-.1-.2-.1c-.2 0-.3.1-.3.3 0 .1 0 .1.1.2 0 .1.1.1.2.1s.1 0 .2-.1c0 0 .1-.1.1-.2s0-.2-.1-.2zM233.2 128.2v2.7h-.4v-2.4c-.6.5-1.2.9-1.8 1.1-.1-.1-.1-.3-.2-.4.6-.2 1.2-.6 1.8-1.1.5-.4 1-.9 1.5-1.4l.4.3c-.6.5-1 .9-1.3 1.2zM233.5 134.4c-.4.5-1 .9-1.9 1.2 0-.1-.1-.2-.2-.4.7-.2 1.3-.6 1.7-1 .4-.4.7-1 1-1.8h-3v-.4h3.2l.3.3c-.4 1-.8 1.7-1.1 2.1zm1.6-2.4c-.1.1-.2.2-.3.2-.1 0-.3 0-.3-.1-.1-.1-.1-.2-.1-.3 0-.1 0-.3.1-.3.1-.1.2-.1.3-.1.1 0 .2 0 .3.1.1.1.1.2.1.3 0 0 0 .1-.1.2zm-.2-.5s-.1-.1-.2-.1c-.2 0-.3.1-.3.3 0 .1 0 .1.1.2 0 .1.1.1.2.1s.1 0 .2-.1c0 0 .1-.1.1-.2s0-.1-.1-.2zM242.8 84.2c-.2.5-.5 1-.9 1.4l-.3-.3c.6-.7 1-1.6 1.3-2.8l.4.2c-.1.6-.3 1.1-.5 1.5zm2.7 1.2c-.3-1-.8-1.9-1.3-2.8l.3-.2c.6.9 1.1 1.9 1.5 2.8l-.5.2zM248.6 84.8c-.5.4-1.1.8-1.9 1.1l-.2-.4c1.3-.4 2.5-1.3 3.4-2.5l.3.3c-.6.6-1.1 1.1-1.6 1.5zm-1-1.6c-.4-.3-.7-.6-1.1-.8l.2-.3c.4.2.8.5 1.1.8l-.2.3zM254.3 84.2c0 .5-.1.9-.1 1.2 0 .1-.1.2-.2.3-.1.1-.4.1-.8.2 0-.1-.1-.2-.1-.4h.4c.1 0 .3-.1.3-.2.1-.1.1-.4.1-.8v-1.1h-1.2c-.1.6-.3 1.2-.5 1.6-.3.4-.7.8-1.2 1.1l-.3-.3c.5-.3.9-.6 1.1-.9.3-.4.4-.8.5-1.4h-1.2v-.4h1.3v-1h.4v1h1.6l-.1 1.1zm0-1.5-.5-.5.2-.2c.2.2.4.3.6.5l-.3.2zm.3-.3-.5-.5.2-.2c.2.2.4.3.6.5l-.3.2zM255 84.1v-.3h3.8v.3H255zM260.4 84.2c-.2.5-.5 1-.9 1.4l-.3-.3c.6-.7 1-1.6 1.3-2.8l.4.2c-.2.6-.4 1.1-.5 1.5zm2.7 1.2c-.3-1-.8-1.9-1.3-2.8l.3-.2c.6.9 1.1 1.9 1.5 2.8l-.5.2zm.3-2.7c-.1.1-.2.2-.3.2-.1 0-.3 0-.3-.1-.1-.1-.1-.2-.1-.3 0-.1 0-.3.1-.3.1-.1.2-.1.3-.1.1 0 .2 0 .3.1.1.1.1.2.1.3 0 0 0 .1-.1.2zm-.2-.5s-.1-.1-.2-.1c-.2 0-.3.1-.3.3 0 .1 0 .1.1.2 0 .1.1.1.2.1s.1 0 .2-.1c0 0 .1-.1.1-.2s0-.1-.1-.2zM266.3 83.3V86h-.4v-2.4c-.6.5-1.2.9-1.8 1.1-.1-.1-.1-.3-.2-.4.6-.2 1.2-.6 1.8-1.1.5-.4 1-.9 1.5-1.4l.4.3c-.5.5-.9.9-1.3 1.2zM270.5 84.7c-.4.5-1 .9-1.9 1.2 0-.1-.1-.2-.2-.4.7-.2 1.3-.6 1.7-1 .4-.4.7-1 1-1.8h-3v-.4h3.2l.3.3c-.3 1-.7 1.7-1.1 2.1zm1.7-2.4c-.1.1-.2.2-.3.2-.1 0-.3 0-.3-.1-.1-.1-.1-.2-.1-.3 0-.1 0-.3.1-.3.1-.1.2-.1.3-.1.1 0 .2 0 .3.1.1.1.1.2.1.3 0 0-.1.1-.1.2zm-.2-.5s-.1-.1-.2-.1c-.2 0-.3.1-.3.3 0 .1 0 .1.1.2 0 .1.1.1.2.1s.1 0 .2-.1c0 0 .1-.1.1-.2s0-.1-.1-.2zM242.8 157.9c-.2.5-.5 1-.9 1.4l-.3-.3c.6-.7 1-1.6 1.3-2.8l.4.2c-.1.6-.3 1.1-.5 1.5zm2.7 1.3c-.3-1-.8-1.9-1.3-2.8l.3-.2c.6.9 1.1 1.9 1.5 2.8l-.5.2zM248.6 158.5c-.5.4-1.1.8-1.9 1.1l-.2-.4c1.3-.4 2.5-1.3 3.4-2.5l.3.3c-.6.7-1.1 1.2-1.6 1.5zm-1-1.5c-.4-.3-.7-.6-1.1-.8l.2-.3c.4.2.8.5 1.1.8l-.2.3zM254.3 157.9c0 .5-.1.9-.1 1.2 0 .1-.1.2-.2.3-.1.1-.4.1-.8.2 0-.1-.1-.2-.1-.4h.4c.1 0 .3-.1.3-.2.1-.1.1-.4.1-.8v-1.1h-1.2c-.1.6-.3 1.2-.5 1.6-.3.4-.7.8-1.2 1.1l-.3-.3c.5-.3.9-.6 1.1-.9.3-.4.4-.8.5-1.4h-1.2v-.4h1.3v-1h.4v1h1.6l-.1 1.1zm0-1.4-.5-.5.2-.2c.2.2.4.3.6.5l-.3.2zm.3-.4-.5-.5.2-.2c.2.2.4.3.6.5l-.3.2zM255 157.9v-.3h3.8v.3H255zM260.4 157.9c-.2.5-.5 1-.9 1.4l-.3-.3c.6-.7 1-1.6 1.3-2.8l.4.2c-.2.6-.4 1.1-.5 1.5zm2.7 1.3c-.3-1-.8-1.9-1.3-2.8l.3-.2c.6.9 1.1 1.9 1.5 2.8l-.5.2zm.3-2.7c-.1.1-.2.2-.3.2-.1 0-.3 0-.3-.1-.1-.1-.1-.2-.1-.3 0-.1 0-.3.1-.3.1-.1.2-.1.3-.1.1 0 .2 0 .3.1.1.1.1.2.1.3 0 0 0 .1-.1.2zm-.2-.5s-.1-.1-.2-.1c-.2 0-.3.1-.3.3 0 .1 0 .1.1.2 0 .1.1.1.2.1s.1 0 .2-.1c0 0 .1-.1.1-.2s0-.2-.1-.2zM266.3 157v2.7h-.4v-2.4c-.6.5-1.2.9-1.8 1.1-.1-.1-.1-.3-.2-.4.6-.2 1.2-.6 1.8-1.1.5-.4 1-.9 1.5-1.4l.4.3c-.5.6-.9.9-1.3 1.2zM270.5 158.5c-.4.5-1 .9-1.9 1.2 0-.1-.1-.2-.2-.4.7-.2 1.3-.6 1.7-1 .4-.4.7-1 1-1.8h-3v-.4h3.2l.3.3c-.3 1-.7 1.7-1.1 2.1zm1.7-2.4c-.1.1-.2.2-.3.2-.1 0-.3 0-.3-.1-.1-.1-.1-.2-.1-.3 0-.1 0-.3.1-.3.1-.1.2-.1.3-.1.1 0 .2 0 .3.1.1.1.1.2.1.3 0 0-.1.1-.1.2zm-.2-.5s-.1-.1-.2-.1c-.2 0-.3.1-.3.3 0 .1 0 .1.1.2 0 .1.1.1.2.1s.1 0 .2-.1c0 0 .1-.1.1-.2s0-.2-.1-.2zM518.1 292.8c-.3.5-.6.9-.9 1.3l-.3-.2c.3-.4.6-.8.8-1.2l.4.1zm-.2-.9-.2.2c-.2-.1-.5-.2-.8-.3l.2-.2c.3.1.6.2.8.3zm.3-1-.2.2c-.2-.1-.5-.2-.7-.3l.2-.2c.3.1.5.2.7.3zm3.6 2.8h.4v.3h-4.3v-.3h.6v-1.2h3.2v1.2zm-3-1.5v-1.5h2.6v1.5h-2.6zm.7 1.5v-.9h-.5v.9h.5zm-.3-2.4h1.8v-.4h-1.8v.4zm0 .2v.4h1.8v-.4h-1.8zm1.2 2.2v-.9h-.6v.9h.6zm1 0v-.9h-.6v.9h.6zM518.9 295.7c-.2.5-.4.9-.6 1.2-.2.3-.6.6-1.1.9l-.2-.2c.4-.2.7-.5 1-.8.2-.3.4-.6.5-1h-1.3v-.3h1.4l.3.2zm.9-1.2v.6c.1.3.3.6.5.9.4-.2.8-.4 1.3-.7l.3.2c-.4.3-.9.5-1.3.8.1.1.2.2.2.3.4.4.9.7 1.5.9-.1.1-.2.2-.2.3-.6-.2-1.1-.6-1.5-1-.2-.2-.5-.5-.6-.8v1.9c0 .1-.1.2-.2.2s-.4.1-.6.1c0-.1 0-.2-.1-.3h.5c.1 0 .1 0 .1-.1v-3.2h.1zM517.6 301.5c-.1-.1-.3-.1-.4-.2.4-.3.8-.7 1.1-1.2l.4.2c-.4.4-.7.8-1.1 1.2zm2.1-1.8v2.3h-.4v-2.3h-2.1v-.3h2.1v-.9h.4v.9h2.3v.3h-2.3zm1.9 1.7c-.5-.3-.9-.7-1.3-1.2l.4-.2c.4.5.8.9 1.3 1.2-.1.1-.3.1-.4.2zm-.3-2.1c-.1-.1-.4-.2-.6-.4l.2-.2c.3.1.5.3.6.4l-.2.2zm.4-.3c-.1-.1-.4-.2-.6-.4l.2-.2c.3.1.5.3.6.4l-.2.2zM520 303.5v2.2h-.4v-2c-.7.4-1.5.7-2.1.9-.1-.1-.1-.2-.2-.3.7-.2 1.4-.5 2.1-.9.6-.3 1.2-.7 1.7-1.2l.4.2c-.6.6-1.1.9-1.5 1.1zM520.4 308.7c-.5.3-1.2.5-2.2.7 0-.1-.1-.2-.2-.3.8-.1 1.4-.3 1.9-.5s.9-.6 1.3-1.2h-3.7v-.3h4l.3.2c-.5.7-1 1.1-1.4 1.4zm-2.4-2.2v-.3h3v.3h-3zM519.4 313v-3.1h.4v3.1h-.4zM563 257.3v2c.2.2.5.3.8.4.4.1.7.2 1.1.2h2c0 .1-.1.2-.1.4h-1.9c-.3 0-.7-.1-1.1-.1-.4-.1-.6-.2-.9-.4-.3.3-.6.5-.8.6l-.2-.4c.3-.2.6-.3.8-.5v-1.7h-.7v-.4h1zm.1-1.6-.2.3c-.2-.2-.5-.3-.7-.4l.2-.3c.3.1.5.2.7.4zm.6 1.7h1.1v1.8h-.4v-.2h-.5v.3h-.4V258c-.1.3-.2.6-.4.8-.1-.1-.1-.2-.2-.3.2-.3.3-.6.4-.9.1-.3.1-.7.1-1.1v-1.2h1.4v1.6h-1c-.1.1-.1.3-.1.5zm.1-.9h.7v-.9h-.7v.9zm.7 2.2v-1h-.5v1h.5zm2.1-2.5-.3.8h.6v.3h-.9v.7h.7v.3h-.7v1.2h-.4v-1.2h-.6v-.3h.6v-.7h-.8v-.3h1.1l.2-.9.5.1zm-.5-1.1v.6h.8v.3H565v-.3h.7v-.6h.4zm-.4 1.7-.3.1c0-.2-.1-.4-.2-.6l.3-.1c.1.2.2.4.2.6zM570.2 256.8c.3-.5.6-1 .8-1.7l.4.2c-.1.4-.2.7-.4 1h.6l.4-1.1.4.2-.4 1h.7v.3h-.7v.7h.6v.3h-.6v.7h.6v.3h-.6v.9h.8v.3H571v.3h-.4v-3.3c-.1.1-.2.3-.3.4 0-.1-.1-.2-.1-.3v.6h-1v.4h1v.3h-1c0 .1 0 .2-.1.4h1.2v.3H569c.2.2.3.3.5.4.2.1.4.3.6.3-.1.1-.2.2-.2.3-.3-.1-.5-.3-.7-.4-.1-.1-.3-.2-.4-.3-.2.3-.6.6-1 .9l-.3-.3c.5-.2.8-.4 1-.8 0 0 0-.1.1-.1h-1v-.3h1.1c0-.1 0-.2.1-.4h-1v-.3h1v-.4h-.9v-1.1h2.3v.3zm-1.9-1.2v-.4h.4v.4h.6v-.4h.4v.4h.6v.3h-.6v.4h-.4v-.4h-.6v.4h-.4v-.4h-.7v-.3h.7zm-.1 1.7h.6v-.5h-.6v.5zm.9 0h.7v-.5h-.7v.5zm2.4-.7h-.6v.7h.6v-.7zm0 1h-.6v.7h.6v-.7zm0 2v-.9h-.6v.9h.6zM574.6 257.9c-.3.6-.6 1.1-1 1.6l-.3-.3c.7-.8 1.2-1.9 1.6-3.2l.4.2c-.2.7-.4 1.3-.7 1.7zm3.2 1.5c-.4-1.1-.9-2.2-1.6-3.3l.4-.2c.7 1.1 1.3 2.2 1.7 3.3l-.5.2zM579.5 258.1c-.1-.3-.3-.6-.6-1l.3-.2c.2.3.4.7.6 1l-.3.2zm2.5.2c-.3.5-.6.9-1 1.2-.3.3-.8.5-1.4.7-.1-.1-.1-.3-.2-.4.5-.1.9-.3 1.2-.6.3-.2.6-.6.9-1 .2-.3.4-.8.5-1.4l.4.1c0 .6-.2 1-.4 1.4zm-1.5-.5c-.1-.3-.3-.7-.5-1l.3-.1c.2.4.4.7.5 1l-.3.1zM585.8 257.4c0 .8-.2 1.3-.5 1.7-.3.4-.8.7-1.5 1-.1-.1-.2-.3-.3-.4.6-.2 1.1-.4 1.3-.7.3-.3.4-.8.4-1.5H583v-.5h2.3v-1c-.7.1-1.2.2-1.7.2 0-.1-.1-.3-.1-.4 1.3-.1 2.4-.3 3.4-.6l.2.4c-.4.1-.9.2-1.4.3v1.1h2.2v.4h-2.1zM332 197.7l.2 2.6-.6.1-.2-2.6-2.7.3-.1-.6 2.7-.3-.1-1.5-2.1.2v-.6l2.1-.2-.1-1.6.6-.1.1 1.6 2.1-.2v.6l-2 .2.1 1.5 2.7-.3.1.6-2.8.3zM336.1 197.6c-.2-.4-.4-.9-.7-1.4l.4-.3c.3.5.5.9.8 1.5l-.5.2zm3.3.2c-.3.7-.7 1.3-1.2 1.7-.4.4-1 .7-1.7 1.1-.1-.2-.2-.4-.3-.5.6-.2 1.2-.5 1.6-.8.4-.4.8-.8 1.2-1.5.3-.5.5-1.2.7-2.1l.5.2c-.3.8-.6 1.4-.8 1.9zm-1.9-.7c-.1-.5-.3-.9-.6-1.4l.4-.2c.3.6.5 1 .6 1.4l-.4.2zM344.3 196.6c-.1 1.1-.3 1.9-.6 2.4s-1 1-1.9 1.4c-.1-.2-.2-.4-.4-.6.8-.3 1.4-.6 1.7-1 .3-.5.5-1.2.6-2.2h-3v-.6h3v-1.5c-.8.2-1.6.3-2.2.3 0-.2-.1-.4-.2-.5 1.6-.2 3.1-.4 4.4-.8l.2.5c-.6.1-1.1.3-1.7.4v1.6h2.8v.6h-2.7zM351 198.3c-.8.6-1.7 1.3-2.9 1.9l-.3-.7c2-.7 3.7-2.1 5.2-4.2.1.2.3.4.4.5-.9 1-1.7 1.9-2.4 2.5zm-1.5-2.5c-.5-.5-1.1-1-1.6-1.4l.4-.5c.6.4 1.2.9 1.7 1.3l-.5.6zM328 207.1c-.4.9-.8 1.6-1.3 2.3-.2-.2-.3-.3-.4-.5.9-1.1 1.5-2.6 2-4.6l.6.3c-.3 1.1-.6 1.9-.9 2.5zm4.1 2.1c-.5-1.6-1.2-3.2-2-4.7l.5-.3c.9 1.5 1.6 3.1 2.2 4.7l-.7.3zm.5-4.4c-.1.2-.3.3-.5.3s-.4-.1-.5-.2c-.1-.1-.2-.3-.2-.6 0-.2.1-.4.2-.6.1-.1.3-.2.5-.2s.4.1.5.2c.1.2.2.3.2.5s-.1.4-.2.6zm-.3-.9c-.1-.1-.2-.1-.3-.1-.3 0-.4.1-.4.4 0 .1 0 .2.1.3.1.1.2.1.3.1.1 0 .2 0 .3-.1.1-.1.1-.2.1-.3 0-.1 0-.2-.1-.3zM336.5 208.2c-.8.6-1.7 1.3-2.9 1.9l-.3-.7c2-.7 3.7-2.1 5.2-4.2.1.2.3.4.4.5-.9 1-1.7 1.8-2.4 2.5zm-1.5-2.6c-.5-.5-1.1-1-1.6-1.4l.4-.5c.6.4 1.2.9 1.7 1.3l-.5.6zM344 207.6c-.8-.5-1.8-1-3-1.5v4.1h-.6v-7h.6v2.2c1.2.4 2.3.9 3.3 1.5l-.3.7zM345.4 207.6v-3.8h.6v3.8h-.6zm3.8-2.1c0 1-.1 1.8-.2 2.3-.1.6-.4 1.1-.8 1.5-.4.4-1 .7-1.8 1l-.3-.6c1.1-.3 1.7-.8 2.1-1.3.3-.5.4-1.4.4-2.7v-2.1h.6v1.9zM350.2 207v-.6h5.7v.6h-5.7zM336.8 220.3c-.5-.6-.9-1.1-1.2-1.6-.3-.6-.5-1.3-.5-2.1s.2-1.5.5-2.1c.3-.5.6-1 1.2-1.6l.4.4c-.5.5-.9 1-1.1 1.5-.3.6-.4 1.2-.4 1.8 0 .7.1 1.3.4 1.8.2.5.6.9 1.1 1.5l-.4.4zM338.6 214.7v-1.8h.4v1.8h.8v.5h-.8v.7c.1.2.3.3.4.4.1.1.3.2.5.4-.1.2-.2.3-.3.5-.2-.2-.4-.3-.5-.4 0 0-.1 0-.1-.1v3.7h-.4v-3.7c-.1.3-.2.5-.3.8-.2.4-.3.7-.5.8-.1-.2-.2-.4-.3-.5.2-.4.4-.7.6-1.1.1-.3.3-.7.4-1.3h-.8v-.5h.9zm3.1-1.4v6.1c0 .2 0 .3-.1.4-.1.1-.3.2-.8.2 0-.2-.1-.4-.1-.5h.3c.1 0 .2 0 .2-.1v-1.8h-.7c0 .3-.1.5-.1.8-.1.7-.3 1.3-.6 1.8-.1-.2-.2-.4-.4-.5.2-.5.4-1 .5-1.6.1-.5.1-1.2.1-1.9v-2.8h1.7zm-.4 3.7v-1.3h-.7v1.4h.7zm0-1.8v-1.4h-.7v1.4h.7zm2.7-1.9v6.3c0 .2 0 .3-.1.4-.1.1-.4.1-.8.2 0-.2-.1-.4-.1-.5h.4c.1 0 .2 0 .2-.1v-2h-.8c0 .4-.1.7-.1 1-.1.7-.2 1.2-.4 1.7-.1-.2-.2-.4-.4-.5.2-.4.3-1 .4-1.5 0-.5.1-1.1.1-1.8v-3.1h1.6zm-.5 3.7v-1.3h-.8v1.4h.8zm0-1.8v-1.4h-.8v1.4h.8zM346.4 218.7c-.3.5-.6 1-1.2 1.6l-.4-.4c.5-.5.9-1 1.1-1.5.3-.6.4-1.2.4-1.8 0-.7-.1-1.3-.4-1.8-.2-.4-.6-.9-1.1-1.5l.4-.4c.5.6.9 1.1 1.2 1.6.3.6.5 1.3.5 2.1s-.2 1.5-.5 2.1zM255.6 102.9h-1.3c-.3 0-.6-.1-.7-.3-.1-.2-.2-.5-.2-.9v-3.6h.5v1.8c1.1-.1 2.2-.4 3.1-.7l.2.4c-1.1.3-2.2.6-3.3.7v1.3c0 .3 0 .5.1.6.1.1.3.2.6.2h1.4c.5 0 1 0 1.5-.1v.5c-.8.1-1.4.1-1.9.1zm1.9-3.9c-.2-.2-.4-.4-.7-.6l.2-.2c.3.2.6.4.7.6l-.2.2zm.4-.4c-.2-.2-.4-.4-.7-.6l.2-.2c.3.2.6.4.7.6l-.2.2zM254.7 104.9c-.2-.3-.4-.7-.7-1.1l.4-.2c.2.3.5.7.7 1.1l-.4.2zm2.9.2c-.3.5-.7 1-1.1 1.3-.4.3-.9.5-1.5.8-.1-.1-.2-.3-.3-.4.6-.2 1-.4 1.4-.6.4-.3.7-.6 1-1.1.2-.4.4-.9.6-1.6l.5.1c-.2.7-.3 1.1-.6 1.5zm-1.6-.5c-.1-.4-.3-.7-.5-1.1l.4-.1c.2.4.4.8.6 1.1l-.5.1zM256.1 111.4c-.6.6-1.5 1.1-2.5 1.4-.1-.1-.2-.3-.3-.5.9-.2 1.7-.6 2.2-1.1.5-.5 1-1.2 1.4-2.1h-2.1c-.4.7-1 1.3-1.5 1.8-.1-.1-.3-.2-.4-.3.5-.4.9-.8 1.2-1.2.2-.3.5-.8.9-1.5l.5.2-.4.8h2.2l.3.3c-.5.8-1 1.6-1.5 2.2zm1.6-2.7c-.2-.2-.4-.4-.7-.6l.2-.2c.3.2.6.4.7.6l-.2.2zm.4-.5c-.2-.2-.4-.4-.7-.6l.2-.2c.3.2.6.4.7.6l-.2.2zM256.7 116.9c-.5.6-1.4 1.1-2.6 1.5-.1-.2-.2-.3-.3-.5 1-.2 1.8-.6 2.2-1.1.5-.5.8-1.3.8-2.3h-3.4v1.6h-.4v-2h2V113h.5v1.1h2c-.1 1.3-.4 2.2-.8 2.8zM256.8 120.1v2.2c0 .2 0 .4-.1.4-.1.1-.3.1-.7.2 0-.2-.1-.3-.1-.4h.3c.2 0 .2-.1.2-.2v-1.7c-.6.7-1.4 1.3-2.3 1.8-.1-.1-.2-.3-.3-.4 1-.5 1.8-1.1 2.4-1.9H254v-.4h2.3v-1h.4v1h1.5v.4h-1.4zM255 128.1v-4.8h.5v4.8h-.5zM256.1 131.9c-.6.6-1.5 1.1-2.5 1.4-.1-.1-.2-.3-.3-.5.9-.2 1.7-.6 2.2-1.1.5-.5 1-1.2 1.4-2.1h-2.1c-.4.7-1 1.3-1.5 1.8-.1-.1-.3-.2-.4-.3.5-.4.9-.8 1.2-1.2.2-.3.5-.8.9-1.5l.5.2-.4.8h2.2l.3.3c-.5.9-1 1.7-1.5 2.2zM255.7 135.4v3.4h-.5v-3c-.8.6-1.7 1.1-2.4 1.4-.1-.2-.2-.3-.3-.5.8-.3 1.6-.7 2.4-1.3.7-.5 1.4-1.1 2-1.8l.5.4c-.7.6-1.2 1-1.7 1.4zM255.9 142.6c-.7.5-1.5 1-2.5 1.4l-.3-.6c1.8-.6 3.3-1.6 4.6-3.2.1.1.2.3.4.4-.9.9-1.6 1.5-2.2 2zm-1.4-1.9c-.5-.4-1-.8-1.4-1l.3-.4c.5.3 1 .6 1.5 1l-.4.4zM250.3 109.6c-.6.6-1.5 1.1-2.5 1.4-.1-.1-.2-.3-.3-.5.9-.2 1.7-.6 2.2-1.1.5-.5 1-1.2 1.4-2.1H249c-.4.7-1 1.3-1.5 1.8-.1-.1-.3-.2-.4-.3.5-.4.9-.8 1.2-1.2.2-.3.5-.8.9-1.5l.5.2-.4.8h2.2l.3.3c-.4.8-.9 1.6-1.5 2.2zM251.1 115.6v-.4h-3.3v.4h-.5v-4.1h4.3v4.1h-.5zm0-3.7h-3.3v2.8h3.3v-2.8zM249.3 120.8V116h.5v4.8h-.5zM250.2 124.5l-.3-.3c.5-.4 1-.9 1.4-1.3l-2.4.3v2c0 .3.2.4.6.5h2.5v.5h-1.6c-.6 0-1 0-1.3-.1-.5-.1-.7-.4-.7-.8v-2l-1.5.2-.1-.5 1.6-.2v-1.6h.5v1.5l2.6-.4.1-.1.4.4c-.7.9-1.3 1.5-1.8 1.9zm1.6-2.3c-.2-.2-.4-.4-.7-.6l.2-.2c.3.2.6.4.7.6l-.2.2zm.4-.5c-.2-.2-.4-.4-.7-.6l.2-.2c.3.2.6.4.7.6l-.2.2zM249 128.3c-.2-.3-.4-.7-.7-1.1l.4-.2c.2.3.5.7.7 1.1l-.4.2zm2.9.1c-.3.5-.7 1-1.1 1.3-.4.3-.9.5-1.5.8-.1-.1-.2-.3-.3-.4.6-.2 1-.4 1.4-.6.4-.3.7-.6 1-1.1.2-.4.4-.9.6-1.6l.5.1c-.2.7-.4 1.2-.6 1.5zm-1.7-.5c-.1-.4-.3-.7-.5-1.1l.4-.1c.2.4.4.8.6 1.1l-.5.1zM251.6 134.1c-.7-.4-1.6-.8-2.7-1.1v3.1h-.5v-5.3h.5v1.7c1 .3 2 .7 3 1.1l-.3.5zM379.7 475.4c-.7 1.5-1.5 2.8-2.5 4-.3-.3-.6-.6-.9-.8 1.7-2 3-4.6 3.9-8.1l1.1.4c-.5 1.9-1.1 3.4-1.6 4.5zm7.9 3.7c-.9-2.8-2.2-5.5-3.9-8.2l.9-.6c1.8 2.7 3.2 5.5 4.2 8.3l-1.2.5zm-.4-7.1c-.3-.5-.8-1-1.4-1.6l.6-.5c.6.5 1.1 1 1.5 1.5l-.7.6zm1.1-1c-.3-.5-.8-1-1.4-1.6l.6-.5c.6.5 1.1 1 1.5 1.5l-.7.6zM393.5 475.8c-.5 1.8-1.5 3.3-3 4.6-.2-.3-.5-.6-.7-.9 1.1-.8 2-1.8 2.4-3 .4-1 .6-2.2.7-3.8v-2.6h1.1c-.1 2.7-.2 4.5-.5 5.7zm3.6 4.3-.8-.8.1-.2v-9.9h1.1v9.3c1.5-1.1 3-2.6 4.4-4.4.2.3.5.5.8.7-1.8 2.3-3.7 4.1-5.6 5.3zM411.9 480.2v-.8H404v-1h7.9v-6H404v-1.1h9.1v8.9h-1.2zM415.1 478.9v-1.1h12.1v1.1h-12.1zm1.7-7v-1.1h8.6v1.1h-8.6zM428.4 475.2v-1h11.1v1h-11.1zM285.4 252.4v1h4.3v.7h-8.4v3.4c0 1.3-.1 2.3-.2 2.9-.2.8-.5 1.6-1 2.5-.2-.2-.4-.4-.7-.5.4-.7.7-1.4.9-2.2.1-.6.2-1.4.2-2.7v-4.1h4.1v-1h.8zm-1.2 2.2v.9h1.3v3.7h-2.7v2c.6-.1 1.1-.2 1.8-.3-.1-.3-.3-.6-.4-.9l.7-.2c.4.7.7 1.5.9 2.3l-.8.2c-.1-.2-.1-.4-.2-.6-1.2.3-2.3.5-3.4.7l-.2-.8c.3 0 .6-.1.9-.1v-5.9h1.4v-.9h.7zm.6 2.5v-.8h-2v.8h2zm0 1.5v-.9h-2v.9h2zm4.2-3.6.7.4c-.3.8-.7 1.6-1.1 2.4.4.7.7 1.2.8 1.5.1.4.2.7.2 1.1 0 .3-.1.6-.1.7-.1.2-.3.4-.6.5-.3.1-.7.1-1.1.1-.1-.2-.2-.5-.3-.8.7 0 1.1 0 1.2-.1.1-.1.1-.2.1-.5s-.1-.6-.1-.9c-.1-.3-.4-.8-.9-1.5.4-.8.7-1.5 1-2.2H287v7.1h-.7V255h2.7zM301.2 253.3v.7h-4.8v1.7c1.3.7 2.4 1.5 3.4 2.4l-.5.6c-.8-.8-1.8-1.5-2.8-2.1v6.1h-.8V254h-4.5v-.7h10zM129.4 214.7v-.7h5.5l.4-4.2h-4.8v-.8h5.5l-.4 5h2.3v.7h-8.5zM138.9 212.2v-.7h7.6v.7h-7.6zM151.9 211.3c-.1 1.5-.4 2.5-.8 3.1-.4.6-1.2 1.2-2.5 1.8-.1-.2-.3-.5-.5-.7 1.2-.4 1.9-.9 2.3-1.4.4-.5.6-1.4.7-2.7h-4v-.7h8.4v.7h-3.6zm-3.3-2.3v-.7h5.6v.7h-5.6zM160.5 212v4.3h-.6v-3.8c-.8.7-1.8 1.3-2.9 1.8-.1-.2-.2-.4-.4-.6.9-.4 1.8-.9 2.8-1.7.9-.7 1.7-1.4 2.3-2.3l.6.5c-.6.7-1.3 1.3-1.8 1.8zM164 212.9v-4.6h.7v4.6h-.7zm4.9-2.6c0 1.2-.1 2.1-.3 2.7-.2.7-.5 1.3-1 1.8s-1.3.8-2.4 1.2c-.1-.3-.2-.5-.4-.7 1.4-.4 2.3-.9 2.8-1.6.4-.6.6-1.7.6-3.3v-2.5h.7v2.4zM175.1 211.3c-.1 1.5-.4 2.5-.8 3.1-.4.6-1.2 1.2-2.5 1.8-.1-.2-.3-.5-.5-.7 1.2-.4 1.9-.9 2.3-1.4.4-.5.6-1.4.7-2.7h-4v-.7h8.4v.7h-3.6zm-3.3-2.3v-.7h5.6v.7h-5.6zM183.6 212v4.3h-.6v-3.8c-.8.7-1.8 1.3-2.9 1.8-.1-.2-.2-.4-.4-.6.9-.4 1.8-.9 2.8-1.7.9-.7 1.7-1.4 2.3-2.3l.6.5c-.6.7-1.2 1.3-1.8 1.8zM345.3 446.4c-.3.2-.6.3-1 .3H343v2h-.5v-4.6h1.6c.5 0 .9.1 1.2.3.4.2.5.6.5 1 0 .5-.2.8-.5 1zm-1.1-1.8H343v1.7h1.2c.7 0 1.1-.3 1.1-.8-.1-.6-.4-.9-1.1-.9zM349.4 448.5c-.3.2-.7.3-1.1.3-.5 0-.8-.1-1.2-.3-.3-.2-.5-.6-.6-1h.6c.1.3.2.6.4.7.2.1.4.2.8.2.3 0 .5-.1.7-.2.2-.2.4-.4.4-.6 0-.3-.4-.6-1.1-.9-1-.4-1.5-.9-1.5-1.4 0-.4.2-.7.5-.9.3-.2.6-.3 1-.3.7 0 1.2.4 1.5 1.2h-.6c-.2-.5-.5-.7-.9-.7-.3 0-.5.1-.6.2-.2.1-.3.3-.3.6 0 .2.2.5.7.7.4.2.8.5 1.3.7.5.3.7.6.7 1-.2.2-.4.5-.7.7zM207.6 163.4c-.3.2-.6.3-1 .3h-1.3v2h-.5v-4.6h1.6c.5 0 .9.1 1.2.3.4.2.5.6.5 1s-.2.7-.5 1zm-1.1-1.9h-1.2v1.7h1.2c.7 0 1.1-.3 1.1-.8-.1-.6-.4-.9-1.1-.9zM207.6 172.9c-.3.2-.7.3-1.1.3-.5 0-.8-.1-1.2-.3-.3-.2-.5-.6-.6-1h.6c.1.3.2.6.4.7.2.1.4.2.8.2.3 0 .5-.1.7-.2.2-.2.4-.4.4-.6 0-.3-.4-.6-1.1-.9-1-.4-1.5-.9-1.5-1.4 0-.4.2-.7.5-.9.3-.2.6-.3 1-.3.7 0 1.2.4 1.5 1.2h-.6c-.2-.5-.5-.7-.9-.7-.3 0-.5.1-.6.2-.2.1-.3.3-.3.6 0 .2.2.5.7.7.4.2.8.5 1.3.7.5.3.7.6.7 1-.2.1-.4.4-.7.7zM107 161.5c-.3.2-.6.3-1 .3h-1.3v2h-.5v-4.6h1.6c.5 0 .9.1 1.2.3.4.2.5.6.5 1s-.2.7-.5 1zm-1.1-1.8h-1.2v1.7h1.2c.7 0 1.1-.3 1.1-.8-.1-.7-.4-.9-1.1-.9zM107 171c-.3.2-.7.3-1.1.3-.5 0-.8-.1-1.2-.3-.3-.2-.5-.6-.6-1h.6c.1.3.2.6.4.7.2.1.4.2.8.2.3 0 .5-.1.7-.2.2-.2.4-.4.4-.6 0-.3-.4-.6-1.1-.9-1-.4-1.5-.9-1.5-1.4 0-.4.2-.7.5-.9.3-.2.6-.3 1-.3.7 0 1.2.4 1.5 1.2h-.6c-.2-.5-.5-.7-.9-.7-.3 0-.5.1-.6.2-.2.1-.3.3-.3.6 0 .2.2.5.7.7.4.2.8.5 1.3.7.5.3.7.6.7 1-.1.1-.3.4-.7.7zM239.1 361c0 .5-.1.8-.1 1 0 .1-.1.2-.2.3-.1.1-.4.1-.9.1 0-.1-.1-.2-.1-.3h.5c.2 0 .3-.1.4-.2.1-.1.1-.4.1-.7v-1h-1.3c-.1.6-.3 1-.6 1.4-.3.4-.8.7-1.4.9l-.3-.3c.6-.2 1-.5 1.3-.8.3-.3.5-.7.6-1.2h-1.5v-.3h1.5v-.9h.5v.9h1.8l-.3 1.1zM237.1 366.4V363h.4v3.3h-.4zM237.6 368.2c-.1.6-.2 1.1-.5 1.4-.2.3-.7.5-1.4.8-.1-.1-.1-.2-.3-.3.7-.2 1.1-.4 1.4-.6.2-.2.4-.6.4-1.2h-2.3v-.3h4.9v.3h-2.2zm-1.9-1v-.3h3.3v.3h-3.3zM237.9 373.2c-.6.3-1.3.7-2.2 1l-.3-.4c1.5-.4 2.9-1.1 4-2.2.1.1.2.2.3.2-.6.6-1.3 1-1.8 1.4zm-1.2-1.4c-.4-.3-.8-.5-1.2-.7l.3-.3c.5.2.9.4 1.3.7l-.4.3zM235.3 377.8c-.1-.1-.3-.1-.4-.2.4-.4.8-.8 1.1-1.3l.4.2c-.3.4-.7.9-1.1 1.3zm2.2-2v2.4h-.4v-2.4H235v-.3h2.1v-.9h.4v.9h2.3v.3h-2.3zm1.9 1.9c-.5-.3-.9-.8-1.3-1.3l.4-.2c.4.5.8.9 1.3 1.2-.2.1-.3.2-.4.3zm-.4-2.3c-.1-.1-.4-.3-.6-.4l.2-.2c.3.1.5.3.6.4l-.2.2zm.4-.4c-.1-.1-.4-.3-.6-.4l.2-.2c.3.1.5.3.6.4l-.2.2zM236.9 379.8c-.1-.2-.3-.5-.6-.7l.3-.1c.2.2.4.5.6.8h-.3zm2.6.2c-.3.4-.6.7-1 .9-.3.2-.8.4-1.3.6-.1-.1-.1-.2-.2-.3.5-.1.9-.2 1.2-.4.3-.2.6-.4.9-.8.2-.3.4-.6.5-1.1l.4.1c-.2.4-.4.7-.5 1zm-1.5-.4c-.1-.2-.3-.5-.5-.8l.3-.1c.2.3.4.5.5.8l-.3.1zM238.1 384.4c-.6.4-1.3.8-2.2 1-.1-.1-.1-.2-.2-.3.8-.2 1.5-.4 2-.8.4-.3.8-.8 1.2-1.5H237c-.4.5-.8.9-1.3 1.2-.1-.1-.2-.2-.4-.2.4-.3.8-.6 1.1-.9.2-.2.5-.6.8-1.1l.5.1c-.1.1-.2.3-.4.5H239.2l.3.2c-.5.9-.9 1.4-1.4 1.8zM239.3 389c-.5-.5-1-1-1.7-1.4-.6.5-1.4 1-2.3 1.4l-.3-.3c.8-.3 1.5-.6 2-1 .4-.3.9-.8 1.5-1.5h-2.9v-.3h3.2l.3.2c-.4.5-.7.9-1 1.2.7.5 1.3.9 1.8 1.4l-.6.3zM237.7 390.6h-.7l-.1-.1v-.4l.1-.1h.6l.1.1v.5zM239.1 393.6c0 .5-.1.8-.1 1 0 .1-.1.2-.2.3-.1.1-.4.1-.9.1 0-.1-.1-.2-.1-.3h.5c.2 0 .3-.1.4-.2.1-.1.1-.4.1-.7v-1h-1.3c-.1.6-.3 1-.6 1.4-.3.4-.8.7-1.4.9l-.3-.3c.6-.2 1-.5 1.3-.8.3-.3.5-.7.6-1.2h-1.5v-.3h1.5v-.9h.5v.9h1.8l-.3 1.1zM237.1 398.9v-3.3h.4v3.3h-.4zM237.6 400.7c-.1.6-.2 1.1-.5 1.4-.2.3-.7.5-1.4.8-.1-.1-.1-.2-.3-.3.7-.2 1.1-.4 1.4-.6.2-.2.4-.6.4-1.2h-2.3v-.3h4.9v.3h-2.2zm-1.9-1v-.3h3.3v.3h-3.3zM237.9 405.7c-.6.3-1.3.7-2.2 1l-.3-.4c1.5-.4 2.9-1.1 4-2.2.1.1.2.2.3.2-.6.6-1.3 1.1-1.8 1.4zm-1.2-1.4c-.4-.3-.8-.5-1.2-.7l.3-.3c.5.2.9.4 1.3.7l-.4.3zM238.5 409.3c-.5.3-1 .5-1.5.7-.4.2-.7.3-.9.4l-.4-.2v-3.1h.4v2.8c.8-.3 1.4-.5 1.8-.8.4-.2.9-.6 1.4-1.1.1.1.2.2.3.2-.3.5-.7.8-1.1 1.1zM237.1 414.1v-3.3h.4v3.3h-.4zM236.3 416.5c-.2.5-.6 1-1.2 1.4l-.3-.3c.5-.2.8-.5 1-.9.2-.3.3-.7.3-1.1v-.8h.4c0 .8-.1 1.3-.2 1.7zm1.4 1.3-.3-.2.1-.1v-3h.4v2.8c.6-.3 1.2-.8 1.8-1.3.1.1.2.1.3.2-.8.7-1.5 1.2-2.3 1.6zM238.2 422.7h-.3l-.6-2.9-.6 2.9h-.3l-.7-3.6h.3l.5 2.9.6-2.9h.3l.6 2.9.6-2.9h.3l-.7 3.6zM371.5 424.3c0 .6-.1 1.1-.1 1.4 0 .2-.1.3-.2.4-.1.1-.4.1-.9.2 0-.1-.1-.3-.1-.4h.5c.2 0 .3-.1.4-.2.1-.2.1-.5.1-1v-1.3h-1.3c-.1.8-.3 1.4-.6 1.9s-.8.9-1.4 1.3c-.1-.1-.2-.3-.3-.4.6-.3 1-.7 1.3-1.1.3-.4.5-1 .6-1.6H368v-.4h1.5v-1.2h.5v1.2h1.8l-.3 1.2zM372.1 424.2v-.4h4.5v.4h-4.5zM379.7 423.7c-.1.9-.2 1.5-.5 1.8-.2.3-.7.7-1.4 1-.1-.1-.1-.3-.3-.4.7-.2 1.1-.5 1.4-.8.2-.3.4-.8.4-1.6H377v-.4h4.9v.4h-2.2zm-1.9-1.3v-.4h3.3v.4h-3.3zM384.9 425c-.6.4-1.3.9-2.2 1.3l-.3-.5c1.5-.5 2.9-1.5 4-2.9l.3.3c-.6.8-1.2 1.4-1.8 1.8zm-1.1-1.8c-.4-.4-.8-.7-1.2-1l.3-.4c.5.3.9.6 1.3.9l-.4.5zM387.7 425.8c-.1-.1-.3-.2-.4-.3.4-.5.8-1 1.1-1.7l.4.2c-.3.7-.7 1.3-1.1 1.8zm2.2-2.6v3.2h-.4v-3.2h-2.1v-.4h2.1v-1.2h.4v1.2h2.3v.4h-2.3zm1.9 2.5c-.5-.5-.9-1-1.3-1.7l.4-.3c.4.7.8 1.2 1.3 1.7-.2 0-.3.2-.4.3zm-.4-3.1c-.1-.2-.3-.4-.6-.6l.2-.2c.3.2.5.4.6.5l-.2.3zm.4-.4c-.1-.2-.3-.4-.6-.6l.2-.2c.3.2.5.4.6.5l-.2.3zM393.1 424.5c-.1-.3-.3-.6-.6-1l.3-.2c.2.3.4.7.6 1l-.3.2zm2.6.2c-.3.5-.6.9-1 1.2-.3.3-.8.5-1.3.7-.1-.1-.1-.3-.2-.4.5-.1.9-.3 1.2-.6.3-.2.6-.6.9-1 .2-.3.4-.8.5-1.4l.4.1c-.2.6-.3 1-.5 1.4zm-1.5-.5c-.1-.3-.3-.7-.5-1l.3-.1c.2.4.4.7.5 1l-.3.1zM399.6 425c-.6.6-1.3 1-2.2 1.3-.1-.1-.1-.3-.2-.4.8-.2 1.5-.6 2-1 .4-.4.8-1.1 1.2-1.9h-1.8c-.4.6-.8 1.2-1.3 1.6-.1-.1-.2-.2-.4-.3l1.1-1.1c.2-.3.5-.8.8-1.4l.5.2c-.1.2-.2.4-.4.7H400.8l.3.3c-.6.8-1 1.5-1.5 2zM405.8 426.2c-.5-.6-1-1.3-1.7-1.9-.6.7-1.4 1.3-2.3 1.9-.1-.2-.2-.3-.3-.4.8-.4 1.5-.8 2-1.3.4-.4.9-1.1 1.5-2h-3v-.4h3.2l.3.3c-.4.6-.7 1.2-1 1.6.7.6 1.3 1.2 1.8 1.9l-.5.3zM408.2 424.4h-.6l-.1-.1v-.6l.1-.1h.6l.1.1v.6l-.1.1zM413.8 424.3c0 .6-.1 1.1-.1 1.4 0 .2-.1.3-.2.4-.1.1-.4.1-.9.2 0-.1-.1-.3-.1-.4h.5c.2 0 .3-.1.4-.2.1-.2.1-.5.1-1v-1.3H412c-.1.8-.3 1.4-.6 1.9s-.8.9-1.4 1.3c-.1-.1-.2-.3-.3-.4.6-.3 1-.7 1.3-1.1.3-.4.5-1 .6-1.6h-1.5v-.4h1.5v-1.2h.5v1.2h1.8l-.1 1.2zM414.4 424.2v-.4h4.5v.4h-4.5zM422 423.7c-.1.9-.2 1.5-.5 1.8-.2.3-.7.7-1.4 1-.1-.1-.1-.3-.3-.4.7-.2 1.1-.5 1.4-.8.2-.3.4-.8.4-1.6h-2.3v-.4h4.9v.4H422zm-1.9-1.3v-.4h3.3v.4h-3.3zM427.3 425c-.6.4-1.3.9-2.2 1.3l-.3-.5c1.5-.5 2.9-1.5 4-2.9l.3.3c-.7.8-1.3 1.4-1.8 1.8zm-1.2-1.8c-.4-.4-.8-.7-1.2-1l.3-.4c.5.3.9.6 1.3.9l-.4.5zM432.6 424.7c-.5.4-1 .7-1.5 1-.4.2-.7.4-.9.5l-.4-.3v-4h.4v3.7c.8-.3 1.4-.7 1.8-1 .4-.3.9-.8 1.4-1.4l.3.3c-.3.4-.7.8-1.1 1.2zM434.3 424.2v-.4h4.5v.4h-4.5zM440.6 424.4c-.2.7-.6 1.3-1.2 1.9-.1-.1-.2-.3-.3-.4.5-.3.8-.7 1-1.2.2-.4.3-.9.3-1.5v-1h.4c0 1 0 1.8-.2 2.2zm1.5 1.8-.3-.3.1-.1v-4h.4v3.7c.6-.4 1.2-1 1.8-1.8l.3.3c-.8.9-1.6 1.7-2.3 2.2zM447.9 426h-.4l-.7-2.9-.8 2.9h-.4l-.9-3.6h.4l.7 2.9.8-2.9h.4l.7 2.9.7-2.9h.4l-.9 3.6zM244 424.3c0 .6-.1 1.1-.1 1.4 0 .2-.1.3-.2.4-.1.1-.3.1-.8.2 0-.1-.1-.3-.1-.4h.4c.1 0 .2-.1.3-.2.1-.2.1-.5.1-1v-1.3h-1.1c-.1.8-.2 1.4-.5 1.9-.2.5-.6.9-1.1 1.3-.1-.1-.1-.3-.2-.4.5-.3.8-.7 1-1.1.2-.4.4-1 .4-1.6h-1.2v-.4h1.2v-1.2h.4v1.2h1.5v1.2zM244.5 424.2v-.4h3.6v.4h-3.6zM250.6 423.7c-.1.9-.2 1.5-.4 1.8-.2.3-.6.7-1.2 1-.1-.1-.1-.3-.2-.4.5-.2.9-.5 1.1-.8.2-.3.3-.8.3-1.6h-1.9v-.4h3.9v.4h-1.6zm-1.5-1.3v-.4h2.6v.4h-2.6zM254.8 425c-.5.4-1.1.9-1.8 1.3l-.2-.5c1.2-.5 2.3-1.5 3.2-2.9l.3.3c-.6.8-1.1 1.4-1.5 1.8zm-1-1.8c-.3-.4-.7-.7-1-1l.2-.4c.4.3.7.6 1 .9l-.2.5zM257 425.8l-.3-.3c.3-.5.6-1 .9-1.7l.3.2c-.3.7-.6 1.3-.9 1.8zm1.7-2.6v3.2h-.3v-3.2h-1.7v-.4h1.7v-1.2h.3v1.2h1.8v.4h-1.8zm1.5 2.5c-.4-.5-.7-1-1-1.7l.3-.3c.3.7.6 1.2 1 1.7-.1 0-.2.2-.3.3zm-.3-3.1c-.1-.2-.3-.4-.5-.6l.2-.2.5.5-.2.3zm.4-.4c-.1-.2-.3-.4-.5-.6l.2-.2.5.5-.2.3zM261.3 424.5c-.1-.3-.3-.6-.5-1l.3-.2c.2.3.3.7.5 1l-.3.2zm2.1.2c-.2.5-.5.9-.8 1.2-.3.3-.6.5-1.1.7 0-.1-.1-.3-.2-.4.4-.1.7-.3 1-.6.3-.2.5-.6.7-1 .2-.3.3-.8.4-1.4l.3.1c0 .6-.2 1-.3 1.4zm-1.2-.5c-.1-.3-.2-.7-.4-1l.3-.1c.2.4.3.7.4 1l-.3.1zM266.5 425c-.4.6-1 1-1.8 1.3 0-.1-.1-.3-.2-.4.7-.2 1.2-.6 1.6-1 .3-.4.7-1.1 1-1.9h-1.4c-.3.6-.7 1.2-1.1 1.6l-.3-.3c.4-.4.6-.8.9-1.1.2-.3.4-.8.6-1.4l.4.2c-.1.2-.2.4-.3.7h1.6l.2.3c-.5.8-.8 1.5-1.2 2zM271.5 426.2c-.4-.6-.8-1.3-1.3-1.9-.5.7-1.1 1.3-1.9 1.9-.1-.2-.2-.3-.3-.4.7-.4 1.2-.8 1.6-1.3.3-.4.7-1.1 1.2-2h-2.3v-.4h2.5l.2.3-.8 1.6c.6.6 1 1.2 1.4 1.9l-.3.3zM273.4 424.4h-.5l-.1-.1v-.6l.1-.1h.5l.1.1v.6l-.1.1zM277.9 424.3c0 .6-.1 1.1-.1 1.4 0 .2-.1.3-.2.4-.1.1-.3.1-.8.2 0-.1-.1-.3-.1-.4h.4c.1 0 .2-.1.3-.2.1-.2.1-.5.1-1v-1.3h-1.1c-.1.8-.2 1.4-.5 1.9-.2.5-.6.9-1.1 1.3-.1-.1-.1-.3-.2-.4.5-.3.8-.7 1-1.1.2-.4.4-1 .4-1.6h-1.2v-.4h1.2v-1.2h.4v1.2h1.5v1.2zM278.4 424.2v-.4h3.6v.4h-3.6zM284.4 423.7c-.1.9-.2 1.5-.4 1.8-.2.3-.6.7-1.2 1-.1-.1-.1-.3-.2-.4.5-.2.9-.5 1.1-.8.2-.3.3-.8.3-1.6h-1.9v-.4h3.9v.4h-1.6zm-1.5-1.3v-.4h2.6v.4h-2.6zM288.6 425c-.5.4-1.1.9-1.8 1.3l-.2-.5c1.2-.5 2.3-1.5 3.2-2.9l.3.3c-.5.8-1 1.4-1.5 1.8zm-.9-1.8c-.3-.4-.7-.7-1-1l.2-.4c.4.3.7.6 1 .9l-.2.5zM292.9 424.7c-.4.4-.8.7-1.2 1-.3.2-.6.4-.7.5l-.3-.3v-4h.3v3.7c.6-.3 1.1-.7 1.4-1 .3-.3.7-.8 1.1-1.4l.3.3c-.2.4-.6.8-.9 1.2zM294.2 424.2v-.4h3.6v.4h-3.6zM299.3 424.4c-.2.7-.5 1.3-1 1.9-.1-.1-.2-.3-.2-.4.4-.3.6-.7.8-1.2.1-.4.2-.9.2-1.5v-1h.3c.1 1 0 1.8-.1 2.2zm1.2 1.8-.3-.3v-4.1h.3v3.7c.5-.4 1-1 1.4-1.8l.3.3c-.5.9-1.1 1.7-1.7 2.2zM305.1 426h-.3l-.6-2.9-.6 2.9h-.3l-.7-3.6h.3l.6 2.9.6-2.9h.3l.6 2.9.6-2.9h.3l-.8 3.6zM235 299.2l-.3-.3c.3-.5.6-1.2.8-1.9l.3.2c-.2.8-.5 1.5-.8 2zm1.6-2.9v3.7h-.3v-3.7h-1.6v-.5h1.6v-1.4h.3v1.4h1.7v.5h-1.7zm1.5 2.8c-.3-.5-.7-1.2-.9-1.9l.3-.3c.3.8.6 1.4.9 1.9-.2.1-.3.2-.3.3zM238.4 297.5v-.5h3.3v.5h-3.3zM243 297.7c-.1.8-.4 1.5-.9 2.1-.1-.2-.1-.3-.2-.4.3-.4.6-.8.7-1.4.1-.4.2-1 .2-1.7v-1.2h.3c0 1.2-.1 2.1-.1 2.6zm1 2-.2-.4v-4.6h.3v4.2c.4-.5.9-1.2 1.3-2 .1.1.1.2.2.3-.5 1.1-1 1.9-1.6 2.5zM232.7 304.1c-.4.7-1 1.2-1.6 1.5 0-.1-.1-.3-.2-.5.6-.2 1.1-.6 1.5-1.2.3-.5.6-1.2.9-2.2H232c-.3.7-.6 1.3-1 1.9l-.3-.3c.3-.4.6-.9.8-1.3.2-.4.3-.9.6-1.6l.3.2c-.1.2-.1.5-.3.8h1.4l.1-.1.2.3c-.4 1.1-.8 2-1.1 2.5zM236.5 305.3v-.4h-2.2v.4h-.3V301h2.8v4.3h-.3zm0-3.9h-2.2v2.9h2.2v-2.9zM237 303.2v-.5h3.3v.5H237zM242.7 303.8l-.2-.4c.3-.5.7-.9.9-1.4l-1.6.4v2.1c0 .3.1.4.4.5h.6c.4 0 .7 0 1-.1v.5c-.4 0-.8.1-1.1.1-.4 0-.6 0-.8-.1-.3-.1-.5-.4-.5-.9v-2.1l-1 .2-.1-.5 1-.2v-1.7h.3v1.6l1.7-.4.1-.1.3.4c-.3 1-.7 1.6-1 2.1zm1-2.5c-.1-.2-.3-.4-.5-.6l.1-.3c.2.2.4.4.5.6l-.1.3zm.3-.5c-.1-.2-.3-.4-.5-.6l.1-.3c.2.2.4.4.5.6l-.1.3zM244.7 303.5c-.1-.3-.2-.7-.4-1.1l.2-.2c.2.4.3.7.4 1.2l-.2.1zm1.9.2c-.2.6-.4 1-.7 1.4-.2.3-.6.6-1 .8 0-.2-.1-.3-.2-.4.4-.2.7-.4.9-.6.3-.3.5-.7.7-1.2.1-.4.3-1 .4-1.7l.3.1c-.2.7-.3 1.2-.4 1.6zm-1.1-.5c-.1-.4-.2-.8-.3-1.1l.3-.2c.2.4.3.8.4 1.1l-.4.2zM249.7 303.7c-.5-.4-1-.8-1.7-1.2v3.3h-.3v-5.6h.3v1.8c.7.3 1.3.7 1.9 1.2l-.2.5zM268.7 289.3c-.6.7-1.5 1.2-2.5 1.5-.1-.1-.2-.3-.3-.5.9-.2 1.7-.6 2.2-1.2.5-.5 1-1.2 1.4-2.2h-2.1c-.4.7-1 1.3-1.5 1.9-.1-.1-.3-.2-.4-.3.5-.4.9-.9 1.2-1.3.2-.4.5-.9.9-1.6l.5.2c-.1.2-.2.5-.4.8h2.1l.1-.1.3.3c-.4 1-.9 1.9-1.5 2.5zM274.6 290.4v-.4h-3.3v.4h-.5V286h4.3v4.3h-.5zm0-3.9h-3.3v2.9h3.3v-2.9zM275.4 288.3v-.5h5.1v.5h-5.1zM284.2 288.9l-.3-.4c.5-.5 1-.9 1.4-1.4l-2.4.4v2.1c0 .3.2.4.6.5h1c.6 0 1.1 0 1.5-.1v.5c-.6 0-1.2.1-1.6.1-.6 0-1 0-1.3-.1-.5-.1-.7-.4-.7-.9v-2.1l-1.5.2-.1-.5 1.6-.2v-1.7h.5v1.6l2.6-.4.1-.1.4.4c-.7 1-1.3 1.6-1.8 2.1zm1.5-2.5c-.2-.2-.4-.4-.7-.6l.2-.3c.3.2.6.4.7.6l-.2.3zm.5-.5c-.2-.2-.4-.4-.7-.6l.2-.3c.3.2.6.4.7.6l-.2.3zM287.2 288.7c-.2-.3-.4-.7-.7-1.1l.4-.2c.2.4.5.7.7 1.2l-.4.1zm2.9.2c-.3.6-.7 1-1.1 1.4-.4.3-.9.6-1.5.8-.1-.2-.2-.3-.3-.4.6-.2 1-.4 1.4-.6.4-.3.7-.7 1-1.2.2-.4.4-1 .6-1.7l.5.1c-.2.6-.4 1.1-.6 1.6zm-1.6-.6c-.1-.4-.3-.8-.5-1.1l.4-.2c.2.4.4.8.6 1.1l-.5.2zM294.9 288.8c-.7-.4-1.6-.8-2.7-1.2v3.3h-.5v-5.6h.5v1.8c1 .3 2 .7 3 1.2l-.3.5zM231.5 289.2c-.2.5-.3 1-.6 1.4-.1-.1-.1-.2-.2-.3.4-.7.7-1.6.9-2.8l.2.2c0 .6-.1 1.1-.3 1.5zm1.8 1.3c-.2-1-.5-1.9-.9-2.8l.2-.2c.4.9.7 1.9.9 2.8l-.2.2zM235.2 289.8c-.3.4-.7.8-1.2 1.1l-.1-.4c.9-.4 1.6-1.3 2.2-2.5.1.1.1.2.2.3-.5.7-.8 1.2-1.1 1.5zm-.7-1.5c-.2-.3-.5-.6-.7-.8l.2-.3c.3.2.5.5.7.8l-.2.3zM238.7 289.2c0 .5 0 .9-.1 1.2 0 .1-.1.2-.1.3-.1.1-.2.1-.5.2 0-.1 0-.2-.1-.4h.3c.1 0 .2-.1.2-.2s.1-.4.1-.8v-1.1h-.7c-.1.6-.2 1.2-.3 1.6-.2.4-.4.8-.8 1.1 0-.1-.1-.2-.2-.3.3-.3.6-.6.7-.9.2-.4.3-.8.3-1.4h-.8v-.5h.8v-1h.3v1h1l-.1 1.2zm0-1.4c-.1-.1-.2-.3-.3-.5l.1-.2c.2.2.3.3.4.5l-.2.2zm.2-.4c-.1-.1-.2-.3-.3-.5l.1-.2c.2.2.3.3.4.5l-.2.2zM239 289.2v-.3h2.5v.3H239zM242.3 289.2c-.2.5-.3 1-.6 1.4-.1-.1-.1-.2-.2-.3.4-.7.7-1.6.9-2.8l.2.2c0 .6-.2 1.1-.3 1.5zm1.8 1.3c-.2-1-.5-1.9-.9-2.8l.2-.2c.4.9.7 1.9.9 2.8l-.2.2zm.2-2.7c-.1.1-.1.2-.2.2s-.2 0-.2-.1c-.1-.1-.1-.2-.1-.3 0-.1 0-.3.1-.3.1-.1.1-.1.2-.1s.2 0 .2.1c.1.1.1.2.1.3 0 0 0 .1-.1.2zm-.1-.5-.1-.1c-.1 0-.2.1-.2.3 0 .1 0 .1.1.2 0 .1.1.1.1.1s.1 0 .1-.1v-.4zM246 288.4v2.7h-.2v-2.4c-.4.5-.8.9-1.2 1.1 0-.1-.1-.3-.1-.4.4-.2.8-.6 1.1-1.1.4-.4.7-.9 1-1.4l.2.3c-.3.5-.5.8-.8 1.2zM248.6 289.8c-.3.5-.7.9-1.2 1.2 0-.1-.1-.2-.1-.4.5-.2.8-.6 1.1-1 .3-.4.5-1 .6-1.8h-2v-.4h2.1l.2.3c-.2 1-.4 1.7-.7 2.1zm1.1-2.4c-.1.1-.1.2-.2.2s-.2 0-.2-.1c-.1-.1-.1-.2-.1-.3 0-.1 0-.3.1-.3.1-.1.1-.1.2-.1s.2 0 .2.1c.1.1.1.2.1.3 0 0-.1.1-.1.2zm-.1-.5-.1-.1c-.1 0-.2.1-.2.3 0 .1 0 .1.1.2 0 .1.1.1.1.1s.1 0 .1-.1v-.4zM267 299.1c-.2.5-.5 1-.9 1.4l-.3-.3c.6-.7 1-1.6 1.3-2.8l.4.2c-.1.6-.3 1.2-.5 1.5zm2.7 1.3c-.3-1-.8-1.9-1.3-2.8l.3-.2c.6.9 1.1 1.9 1.5 2.8l-.5.2zM272.6 299.7c-.5.4-1.1.8-1.9 1.1l-.2-.4c1.3-.4 2.5-1.3 3.4-2.5l.3.3c-.6.7-1.1 1.2-1.6 1.5zm-1-1.5c-.4-.3-.7-.6-1.1-.8l.2-.3c.4.2.8.5 1.1.8l-.2.3zM278 299.1c0 .5-.1.9-.1 1.2 0 .1-.1.2-.2.3-.1.1-.4.1-.8.2 0-.1-.1-.2-.1-.4h.4c.1 0 .3-.1.3-.2.1-.1.1-.4.1-.8v-1.1h-1.2c-.1.6-.3 1.2-.5 1.6-.3.4-.7.8-1.2 1.1l-.3-.3c.5-.3.9-.6 1.1-.9.3-.4.4-.8.5-1.4h-1.2v-.4h1.3v-1h.4v1h1.6l-.1 1.1zm0-1.4-.5-.5.2-.2c.2.2.4.3.6.5l-.3.2zm.3-.4-.5-.5.2-.2c.2.2.4.3.6.5l-.3.2zM278.5 299.1v-.3h3.8v.3h-3.8zM283.6 299.1c-.2.5-.5 1-.9 1.4l-.3-.3c.6-.7 1-1.6 1.3-2.8l.4.2c-.1.6-.3 1.2-.5 1.5zm2.7 1.3c-.3-1-.8-1.9-1.3-2.8l.3-.2c.6.9 1.1 1.9 1.5 2.8l-.5.2zm.3-2.7c-.1.1-.2.2-.3.2-.1 0-.3 0-.3-.1-.1-.1-.1-.2-.1-.3 0-.1 0-.3.1-.3.1-.1.2-.1.3-.1.1 0 .2 0 .3.1.1.1.1.2.1.3.1 0 0 .1-.1.2zm-.1-.5s-.1-.1-.2-.1c-.2 0-.3.1-.3.3 0 .1 0 .1.1.2 0 .1.1.1.2.1s.1 0 .2-.1c0 0 .1-.1.1-.2-.1-.1-.1-.2-.1-.2zM289.3 298.3v2.7h-.4v-2.4c-.6.5-1.2.9-1.8 1.1-.1-.1-.1-.3-.2-.4.6-.2 1.2-.6 1.8-1.1.5-.4 1-.9 1.5-1.4l.4.3c-.6.5-1 .8-1.3 1.2zM293.3 299.7c-.4.5-1 .9-1.9 1.2 0-.1-.1-.2-.2-.4.7-.2 1.3-.6 1.7-1 .4-.4.7-1 1-1.8h-3v-.4h3.2l.3.3c-.4 1-.8 1.7-1.1 2.1zm1.6-2.4c-.1.1-.2.2-.3.2-.1 0-.3 0-.3-.1-.1-.1-.1-.2-.1-.3 0-.1 0-.3.1-.3.1-.1.2-.1.3-.1.1 0 .2 0 .3.1.1.1.1.2.1.3 0 0 0 .1-.1.2zm-.2-.5s-.1-.1-.2-.1c-.2 0-.3.1-.3.3 0 .1 0 .1.1.2 0 .1.1.1.2.1s.1 0 .2-.1c0 0 .1-.1.1-.2s0-.1-.1-.2zM258.9 362l-2.1 4.3-1-.6 2.3-4.2c.3.2.6.4.8.5zm-.4-3.5-.4.8c-.6-.4-1.2-.7-2-1.1l.4-.8c.8.4 1.4.7 2 1.1zm.8-3.1-.6.8c-.6-.5-1.2-1-1.9-1.4l.6-.7c.6.3 1.3.8 1.9 1.3zm7.5-1.2-1.1 2h2.8v.9h-4v1.9h3.1v.9h-3.1v2.2h4v.9h-4v3.5h-.9V363h-4.1v-.9h4.1v-2.2h-3.3v-.9h3.3v-1.9h-3.8v-.9h4.9l1.3-2.5.8.5zm-3.9 1.3-.8.6c-.3-.6-.7-1.2-1.2-1.7l.8-.6c.5.7.9 1.3 1.2 1.7zM276.2 362.6v-1.2h1v1.2h4.4v.8h-4.4v1.5h5.7v.8h-12.5v-.8h5.8v-1.5h-4.3v-.8h4.3zm1-9v1.4h5.1v2.7h-1v.4H276l-1.1 2.1c1.5-.1 2.9-.2 4.5-.3-.3-.3-.6-.5-1-.8l.7-.7c1.3 1 2.2 1.7 2.7 2.3l-.7.7-.8-.8c-3.3.3-6.1.5-8.5.6l-.2-.9c.7 0 1.4 0 2.2-.1l1.2-2.1h-3v-.4h-1V355h5.1v-1.4h1.1zm4.1 3.7V356H272v1.3h9.3zM284.7 364.8c.1-1.5.8-2.8 2.3-3.9 1.5-1.2 2.2-2.1 2.2-2.7 0-.5-.1-.9-.4-1.2-.3-.3-.7-.5-1.2-.5-.7 0-1.1.2-1.5.6-.3.3-.5.8-.5 1.5h-1c.2-1.9 1.3-2.8 3.1-2.8.8 0 1.4.2 1.9.7.5.5.7 1.1.7 1.8 0 .9-.7 1.9-2.2 3.1-1.2 1-1.9 1.9-2.2 2.7h4.5v.9h-5.7zM254.8 385c-.7-.7-1.2-1.3-1.6-1.9-.4-.8-.6-1.6-.6-2.5s.2-1.7.6-2.5c.3-.6.9-1.2 1.6-1.9l.5.5c-.7.6-1.2 1.2-1.5 1.8-.4.7-.6 1.4-.6 2.2 0 .8.2 1.5.6 2.2.3.5.8 1.1 1.5 1.8l-.5.3zM259 376.2l-1 1.9c.2.2.4.3.6.5l.9-1.6.6.4-1.7 2.7c.4 0 .9 0 1.4-.1-.1-.3-.3-.5-.4-.8l.5-.3c.4.6.6 1.1.8 1.5l-.5.4c0-.1-.1-.2-.1-.3-.4 0-.8.1-1.1.1v4h-.7v-3.9c-.5 0-1 .1-1.5.1l-.2-.6h1l.6-1c-.5-.4-1-.8-1.6-1.1l.4-.5c.1.1.3.2.4.3l.9-1.9.7.2zm-1.2 5.3c-.2.9-.4 1.7-.6 2.4-.2-.1-.4-.2-.6-.2.2-.7.4-1.5.6-2.3l.6.1zm2.6 1.6-.6.2c-.1-.6-.2-1.2-.4-1.8l.6-.2c.1.6.3 1.2.4 1.8zm1.9-7.1c-.2.7-.3 1.3-.4 1.7h3.1v3.8c0 1-.1 1.7-.2 2-.1.6-.8.9-2 .9 0-.3-.1-.6-.3-.8h1.1c.3 0 .5-.2.6-.5.1-.3.1-.9.2-1.9v-3h-2.6c-.2.6-.4 1.1-.6 1.5-.2-.2-.4-.3-.6-.4.3-.6.5-1.2.7-1.9.2-.6.3-1.2.4-1.8l.6.4zm.9 5.4-.5.5c-.3-.5-.8-1.1-1.3-1.7l.5-.4c.5.5.9 1 1.3 1.6zM270.3 382.2v1.4h-.6v-1.4h-3v-.6l3-4.1h.5v4.2h.8v.6h-.7zm-.6-3.7-2.3 3.1h2.3v-3.1zM273.3 383.7h-.7l-.1-.1v-.6l.1-.1h.7l.1.1v.6l-.1.1zM277.2 383.6v-5.4c-.5.3-.9.4-1.3.5v-.7c.5-.1.9-.2 1.3-.5h.7v6.1h-.7zM282 377.5v-1.7h.7v1.7h1.4v4.5c0 .2 0 .3-.1.4-.1.1-.4.2-.8.2 0-.3-.1-.5-.2-.7h.3c.1 0 .2 0 .2-.1v-3.7h-.7v6.5h-.8v-6.5h-.7v4.5h-.6v-5.1h1.3zm4.9-1.6v1.8h2.1v.6h-2.1v2h1.7v4.2h-.6v-.5h-2.7v.6h-.6v-4.3h1.6v-4.4h.6zm1.1 7.5V381h-2.7v2.5h2.7zM292.5 383.1c-.3.6-.9 1.2-1.6 1.9l-.5-.4c.7-.6 1.1-1.2 1.5-1.8.4-.7.6-1.4.6-2.2 0-.8-.2-1.5-.6-2.2-.3-.5-.8-1.1-1.5-1.8l.5-.5c.7.7 1.2 1.3 1.6 1.9.4.8.6 1.6.6 2.5s-.1 1.8-.6 2.6zM133.8 249.6v-1.8h.5v1.8h.9v.5h-.9v.7l.4.4c.1.1.3.2.5.4-.1.2-.2.3-.3.5-.2-.2-.4-.3-.5-.4 0 0-.1 0-.1-.1v3.7h-.5v-3.7c-.1.3-.2.5-.3.8-.2.4-.4.7-.5.8-.1-.2-.2-.4-.3-.5.3-.4.5-.7.7-1.1.2-.3.3-.7.5-1.3h-.9v-.5h.8zm3.4-1.4v6.1c0 .2 0 .3-.1.4-.1.1-.4.2-.8.2 0-.2-.1-.4-.2-.5h.4c.1 0 .2 0 .2-.1v-1.8h-.8c0 .3-.1.5-.1.8-.1.7-.3 1.3-.6 1.8-.1-.2-.2-.4-.4-.5.3-.5.5-1 .6-1.6.1-.5.1-1.2.1-1.9v-2.8h1.7zm-.5 3.7v-1.3h-.7v1.4h.7zm0-1.8v-1.4h-.7v1.4h.7zm3.1-1.9v6.3c0 .2 0 .3-.1.4-.1.1-.4.1-.9.2 0-.2-.1-.4-.2-.5h.4c.2 0 .2 0 .2-.1v-2h-.9c0 .4-.1.7-.1 1-.1.7-.3 1.2-.5 1.7-.1-.2-.2-.4-.4-.5.2-.4.3-1 .4-1.5 0-.5.1-1.1.1-1.8v-3.1h2zm-.5 3.7v-1.3h-.9v1.4h.9zm0-1.8v-1.4h-.9v1.4h.9zM120.9 170.2l-.9 1.8-.4-.2 1-1.8c.1.1.2.1.3.2zm-.2-1.3-.2.3c-.2-.2-.5-.4-.8-.5l.2-.3c.3.1.6.3.8.5zm.3-1.3-.2.3c-.2-.3-.5-.5-.7-.6l.2-.3c.2.1.5.4.7.6zm1.1-.4c-.1.3-.2.5-.3.7h.8v-1h.4v1h1.4v.3H123v1h1.7v.3h-1.2v1.8c0 .1 0 .1.1.1h.6c.1 0 .2-.1.2-.1.1-.1.1-.2.1-.4.1.1.2.1.4.1 0 .2-.1.4-.2.6-.1.2-.2.2-.4.2h-.7c-.3 0-.4-.2-.4-.5v-1.8h-.8c0 .7-.1 1.2-.3 1.5-.2.3-.6.6-1.1.8-.1-.1-.1-.3-.2-.4.5-.2.9-.5 1-.8.1-.3.2-.6.2-1.1h-1v-.3h1.7v-1h-1c-.1.3-.3.5-.4.7-.1-.1-.2-.2-.3-.2.2-.3.4-.5.5-.8.1-.3.2-.5.3-.8l.3.1zM126.4 168.7l-.2.3c-.2-.1-.5-.2-.7-.3l.1-.3c.3.1.5.2.8.3zm.2 1.5-.8 1.8-.3-.2.8-1.8c.1.1.2.2.3.2zm0-2.7-.2.3c-.2-.2-.4-.4-.6-.5l.2-.3c.2.2.4.3.6.5zm1.3 1.5c-.1.1-.1.2-.2.3h1c.1-.1.2-.3.3-.5l.3.1c-.1.1-.1.3-.2.4h1.3v.3H129v.4h1.3v.3H129v.4h1.3v.3H129v.5h1.5v.3h-2.9v.2h-.4v-2.1l-.4.4c-.1-.1-.1-.2-.2-.3.2-.1.4-.3.6-.5.2-.2.3-.4.5-.7l.2.2zm.5-1.9v1.8h-.4v-.1h-1.1v-.3h1.1v-.5h-1.1v-.3h1.1v-.4h-1.1v-.3h1.5zm.2 2.5h-1.1v.4h1.1v-.4zm0 .7h-1.1v.4h1.1v-.4zm0 1.2v-.5h-1.1v.5h1.1zm1.7-4.4v1.8h-.4v-.1h-1.2v-.3h1.2v-.5h-1.2v-.3h1.2v-.4h-1.2v-.3h1.6zM131.9 168.1v-1.2h.4v1.2h.5v.4h-.5v.6c.1.1.1.2.2.2l.3.3c-.1.1-.2.2-.2.3l-.3-.3v2.5h-.4v-2.4c-.1.4-.3.7-.5 1-.1-.1-.1-.2-.2-.3.2-.3.3-.6.4-.9.1-.2.2-.5.2-.9h-.6v-.4h.7zm2-1-.5.9.2.2.3-.5.3.2-.7 1.1h.4c0-.1-.1-.2-.1-.3l.3-.1c.1.2.3.5.4.7-.1-.5-.1-1.3-.1-2.4h.4v1l.2-.2c.1 0 .1.1.2.1l.3-.8.3.2-.4.8.2.2.3-.5.3.2-.7 1.1h.4c0-.1-.1-.2-.1-.2l.3-.1c.1.2.2.5.3.8l-.4.1c0-.1 0-.1-.1-.2-.4.1-.8.1-1.1.1l-.1-.4h.2l.3-.5c-.2-.2-.4-.4-.7-.5 0 .7.1 1.2.1 1.6v.2h.6c0-.1-.1-.2-.1-.3l.3-.1c.1.1.2.3.2.4h.5v.4h-1.4c0 .2.1.4.2.5 0 .1.1.2.2.3.2-.2.4-.4.5-.6l.3.2c-.1.2-.3.4-.6.6.2.2.3.3.4.3 0 0 .1-.1.2-.5.1.1.2.1.4.2-.1.4-.2.6-.3.6 0 .1-.1.1-.2.1-.2 0-.5-.1-.7-.3l-.2-.2c-.4.3-.8.4-1.2.6 0-.1-.1-.2-.2-.4.4-.1.7-.3 1.1-.5h.1c-.1-.1-.1-.2-.2-.4s-.2-.5-.2-.7h-.7c0 .2-.1.3-.1.4.3.1.5.3.7.5l-.2.3c-.2-.2-.4-.3-.6-.4 0 .1-.1.2-.1.3-.1.3-.3.6-.6.9l-.3-.3c.2-.2.4-.5.5-.8.1-.2.2-.5.3-.8h-.6v-.4h1.7V169.5l-.4.1c0-.1 0-.1-.1-.2-.4.1-.8.1-1.1.1l-.1-.4h.2l.3-.5c-.2-.2-.5-.4-.7-.6l.2-.3c.1.1.2.1.2.2l.4-.9.7.1zM125.4 173.9v.4h2.3v.3h-2.3v.4h1.5v1.9H124V175h1.1v-.4h-2.4v-.3h2.4v-.4h-2v-1.2h4.2v1.2h-1.9zm-2.1 1.2v2.1h4.4v.3h-4.4v.3h-.3v-2.7h.3zm.1-1.5h.9v-.6h-.9v.6zm.9 1.9h2.2v-.3h-2.2v.3zm0 .3v.3h2.2v-.3h-2.2zm0 .5v.3h2.2v-.3h-2.2zm.4-2.7h1v-.6h-1v.6zm1.3 0h.9v-.6h-.9v.6zM128.9 174.1v-1.4h.4v1.4h.6v.4h-.6v1.7c.2-.1.4-.1.6-.2v.3c.2-.1.4-.3.5-.4.1-.2.3-.3.4-.6h-.9v-.4h3.6v.4h-2.3c-.1.2-.2.3-.2.4h2.3c0 .7 0 1.2-.1 1.5-.1.2-.1.4-.2.5-.1.1-.3.1-.7.1 0-.1 0-.3-.1-.4h.5c.1 0 .1-.1.2-.3 0-.2.1-.6.1-1.1h-.4c-.2.5-.4.8-.7 1.1-.3.3-.6.5-.9.6 0-.1-.1-.2-.2-.3l.9-.6c.2-.2.4-.5.5-.9h-.5c-.2.3-.4.6-.6.8-.3.2-.5.4-.7.5 0-.1-.1-.2-.2-.3.3-.1.5-.3.7-.5.1-.1.3-.3.4-.5h-.5c-.2.2-.4.4-.8.6-.1-.1-.1-.2-.2-.3-.5.2-.9.3-1.4.4l-.1-.4c.2 0 .4-.1.7-.2v-1.8h-.6v-.4h.5zm1.7.4v-1.8h2.4v1.8h-2.4zm.4-1h1.7v-.4H131v.4zm0 .3v.4h1.7v-.4H131zM76.5 186.3l-2.1 4.4-.9-.5 2.2-4.4c.3.3.6.5.8.5zm-.5-3-.5.8c-.5-.5-1.1-.9-1.8-1.3l.4-.8c.7.4 1.3.9 1.9 1.3zm.6-3.2-.5.8c-.6-.6-1.2-1-1.8-1.4l.5-.7c.7.3 1.3.7 1.8 1.3zm5.1 1.2c-.1.1-.1.2-.2.3.7.8 1.4 1.5 2.1 2 .8.6 1.7 1.1 2.7 1.6-.3.3-.5.6-.7.9-.7-.3-1.4-.8-2.2-1.4-.8-.6-1.6-1.4-2.5-2.3-.5.7-1.1 1.3-1.6 1.9-.9.8-1.6 1.4-2.2 1.8-.2-.3-.4-.6-.6-.8.8-.5 1.6-1.1 2.3-1.9.7-.7 1.4-1.5 2-2.6l.9.5zm-1.4-2.3c-.8 1.1-1.7 1.9-2.8 2.6-.1-.3-.4-.6-.7-.8 1.1-.6 2-1.4 2.7-2.5l.8.7zm3.8 11.5h-.9v-.7h-3.8v.9h-.9v-5.4h5.7v5.2zm-.9-1.6v-2.8h-3.8v2.8h3.8zm.8-9.3c.4.3.9.6 1.4.7-.2.2-.4.5-.6.8-.6-.3-1.1-.6-1.6-1s-.9-.7-1.2-1l.5-.7c.5.5 1 .9 1.5 1.2zM93.4 187v-1.2h1v1.2h4.3v.8h-4.3v1.5h5.5v.8H87.8v-.8h5.7v-1.5h-4.1v-.8h4zm1-8.7v1.4h4.9v2.7h-1v.4h-5.1l-1.1 2c1.4-.1 2.9-.2 4.3-.3-.3-.3-.6-.5-.9-.7l.7-.7c1.2.9 2.1 1.7 2.7 2.2l-.7.7-.8-.8c-3.2.3-6 .5-8.3.6l-.2-.9c.7 0 1.4 0 2.1-.1l1.2-2h-2.9v-.4h-.9v-2.7h4.9v-1.4h1.1zm4 3.6v-1.3h-9v1.3h9zM76.2 201.3c-.8-.7-1.3-1.4-1.7-2.1-.5-.8-.7-1.7-.7-2.7 0-1 .2-1.9.7-2.7.4-.6.9-1.3 1.7-2.1l.5.5c-.7.7-1.2 1.3-1.6 1.9-.4.7-.6 1.6-.6 2.4 0 .9.2 1.7.6 2.4.3.6.9 1.2 1.6 1.9l-.5.5zM79.8 199.8v-5.9c-.5.3-1 .5-1.4.6v-.8c.5-.1 1-.3 1.4-.6h.8v6.7h-.8zM86 198.3v1.5h-.6v-1.5h-3.2v-.6l3.3-4.5h.5v4.5h.9v.6H86zm-.6-4-2.5 3.4h2.5v-3.4zM90 199.8v-5.9c-.5.3-1 .5-1.4.6v-.8c.5-.1 1-.3 1.4-.6h.8v6.7H90zM96.4 199.5c-.4.3-1 .4-1.6.4-.6 0-1.2-.1-1.6-.4-.5-.3-.8-.8-.8-1.3s.1-.9.3-1.2c.2-.3.6-.5 1.1-.8-.5-.2-.8-.4-.9-.7-.2-.2-.3-.5-.3-.9 0-.6.2-1 .7-1.3.4-.3.9-.4 1.5-.4s1 .2 1.4.5c.4.3.6.7.6 1.2 0 .4-.1.7-.2.9-.2.2-.5.4-.9.7.6.3 1 .5 1.2.8.3.3.4.7.4 1.2-.2.6-.4 1-.9 1.3zm-.6-2.3c-.2-.1-.6-.4-1.1-.6-.5.2-.8.4-1 .6-.3.3-.5.6-.5 1s.2.7.5.9c.3.2.6.2 1.1.2.4 0 .7-.1 1.1-.3.4-.2.5-.5.5-.9s-.2-.6-.6-.9zm-.2-3.3c-.2-.2-.5-.3-.8-.3-.4 0-.7.1-.9.3-.3.2-.4.5-.4.9 0 .3.1.6.4.8.2.1.5.3.9.4.2-.1.5-.2.8-.4.3-.2.4-.5.4-.8-.1-.4-.2-.7-.4-.9zM99.7 199.2c-.4.7-.9 1.3-1.7 2.1l-.5-.5c.7-.7 1.2-1.3 1.6-1.9.4-.7.6-1.5.6-2.4 0-.9-.2-1.7-.6-2.4-.3-.6-.9-1.2-1.6-1.9l.5-.5c.8.7 1.3 1.4 1.7 2.1.5.8.7 1.7.7 2.7 0 1-.2 1.9-.7 2.7zM104.9 245.4v-.5h.4v.5h2.5v.4h-2.5v.5h2v2.1h-.8v.5h1.5v.4h-1.5v1c0 .2-.1.3-.2.3-.2.1-.4.1-.7.1 0-.2-.1-.3-.2-.5h.6c.1 0 .1 0 .1-.1v-.9h-3.8v-.4h3.8v-.5h-3v-2.1h1.9v-.5h-2.5v-.4h2.4zm-.4 4.6-.4.3c-.2-.3-.4-.5-.7-.8l.3-.3.8.8zm-1-2.9h1.5v-.5h-1.5v.5zm1.4.4h-1.5v.5h1.5v-.5zm.5-.4h1.5v-.5h-1.5v.5zm0 .4v.5h1.5v-.5h-1.5zM113.9 245.3v4.9c0 .2-.1.4-.2.4-.1.1-.4.1-.7.1 0-.2-.1-.3-.2-.5h.5c.1 0 .1 0 .1-.1v-1.5h-1.7v2.1h-.4v-2.1h-1.5c-.1.9-.3 1.6-.8 2.2-.1-.2-.3-.3-.4-.4.5-.6.8-1.4.8-2.5v-2.7h4.5zm-2.6 2.9v-1h-1.5v1.1h1.5zm0-1.4v-1.1h-1.5v1.1h1.5zm.5 0h1.7v-1.1h-1.7v1.1zm0 1.4h1.7v-1h-1.7v1zM93.3 256.4c-.7-.4-1.6-.8-2.7-1.2v3.3h-.5V253h.5v1.8c1 .3 2 .7 3 1.2l-.3.4zM97.5 257.3c-.6.5-1.4.9-2.5 1.2 0-.2-.1-.3-.2-.5.9-.2 1.6-.5 2.1-.9.6-.4 1-1.1 1.5-1.9h-4.2v-.5h4.6l.2.3c-.5 1.1-1 1.8-1.5 2.3zm-2.7-3.6v-.5h3.5v.5h-3.5zM102.5 256.8c-.7.5-1.5 1-2.5 1.5l-.3-.6c1.8-.6 3.3-1.7 4.6-3.3.1.2.2.3.4.4-.8.9-1.6 1.5-2.2 2zm-1.4-2c-.5-.4-1-.8-1.4-1.1l.3-.4c.5.3 1 .7 1.5 1.1l-.4.4zM108.3 256.9c-.6.7-1.5 1.2-2.5 1.5-.1-.1-.2-.3-.3-.5.9-.2 1.7-.6 2.2-1.2.5-.5 1-1.2 1.4-2.2H107c-.4.7-1 1.3-1.5 1.9-.1-.1-.3-.2-.4-.3.5-.4.9-.9 1.2-1.3.2-.4.5-.9.9-1.6l.5.2c-.1.2-.2.5-.4.8h2.1l.1-.1.3.3c-.4 1-.9 1.9-1.5 2.5zM112 256.2c-.2.8-.7 1.5-1.4 2.1-.1-.2-.2-.3-.3-.4.5-.4.9-.8 1.1-1.4.2-.4.3-1 .3-1.7v-1.2h.5c0 1.2-.1 2.1-.2 2.6zm1.6 2-.4-.4.1-.1v-4.5h.5v4.2c.7-.5 1.4-1.2 2-2 .1.1.2.2.4.3-.8 1.1-1.7 1.9-2.6 2.5zM116.5 255.9v-.5h5.1v.5h-5.1zM126.7 258.2c-.1-.2-.2-.4-.4-.7-2 .3-3.4.5-4.3.6l-.1-.6h.7c.6-1.2 1.2-2.6 1.7-4.3l.6.2c-.8 1.9-1.4 3.2-1.8 4 .9-.1 1.9-.2 3-.3-.3-.5-.7-1.1-1.1-1.6l.4-.3c.8 1 1.4 1.9 1.8 2.7l-.5.3zM213.3 282v1.2h3.2v.5h-3.4l-1.2 2.2c.4.3.7.5 1 .8l1.6-2.1.6.3-2.7 3.4c.9-.1 1.8-.1 2.9-.3-.3-.3-.6-.7-.9-1l.5-.4c.8.8 1.3 1.5 1.7 2.1l-.5.4c-.1-.2-.3-.4-.5-.6-2.3.3-4.3.5-5.9.5l-.1-.6c.6 0 1.3 0 2-.1l.9-1.2c-.7-.6-1.6-1.2-2.6-1.8l.3-.5c.4.2.8.5 1.2.7l.9-1.9h-2.9v-.5h3.2V282h.7zM212.7 290.4v2.5h-2.3v4.5h-.6v-7h2.9zm-.6 1.1v-.5h-1.7v.5h1.7zm0 .9v-.5h-1.7v.5h1.7zm4.2-2v6.3c0 .3-.1.5-.2.5-.2.1-.5.1-1 .2 0-.2-.1-.4-.2-.6h.7c.1 0 .1 0 .1-.2v-3.7h-1.9l.5.2-.5.8h1.1v.4h-1.8v.7h2.1v.5h-1.8c.2.3.3.5.5.6.2.2.5.4 1 .6-.1.1-.3.2-.4.5-.4-.2-.8-.5-1-.7-.2-.2-.4-.5-.5-.8-.1.2-.2.3-.2.5-.3.4-.8.8-1.5 1.1-.1-.2-.2-.4-.4-.5.7-.2 1.2-.5 1.5-.9.1-.1.1-.2.2-.3H211v-.6h1.7v-.7h-1.5v-.4h.9c-.1-.2-.3-.4-.5-.6l.4-.3.7.7-.3.2h1l.5-1h-.3v-2.5h2.7zm-.5.6H214v.5h1.7v-.5zm0 .9H214v.5h1.7v-.5zM210.4 299.4v3.7c.3-.1.7-.2 1.1-.4v-4.3h.5v7.2h-.5v-2.4c-.7.3-1.4.5-2.1.8l-.1-.6c.2 0 .4-.1.6-.2v-3.9h.5zm6.1-.1c-.4 1.6-.9 2.8-1.4 3.6-.1.2-.2.3-.3.5.5.6 1.1 1.2 1.9 1.7-.2.1-.3.2-.4.4-.8-.5-1.4-1.1-1.9-1.7-.5.6-1.2 1.2-1.9 1.8-.1-.2-.2-.4-.4-.5.8-.5 1.4-1.1 2-1.8-.1-.1-.2-.3-.2-.4-.4-.9-.7-2.1-.7-3.4h-.7v-.5h3.6l.4.3zm-2 3.6c0-.1.1-.1.1-.2.5-.9.9-1.9 1.2-3.2h-2.1c.1 1.4.3 2.5.8 3.4zM211.1 306.8l-.8 1.6c.2.1.3.3.5.4l.8-1.4.5.3-1.5 2.5c.3 0 .7-.1 1-.1-.1-.1-.1-.3-.2-.5l.5-.2c.2.4.4.8.5 1.3l-.5.2c0-.1-.1-.3-.1-.4-.2 0-.5.1-.7.1v3.3h-.5v-3.2c-.5.1-.9.1-1.3.1l-.1-.5h.8l.5-1c-.4-.4-.8-.7-1.3-1l.3-.5c.1.1.2.1.4.2l.7-1.6.5.4zm-.9 4.7c0 .6-.2 1.3-.4 1.9l-.5-.1c.2-.5.3-1.2.4-1.9l.5.1zm2.1 1.4c-.1 0-.3 0-.5.1-.2-.4-.2-.9-.3-1.5l.5-.1c.1.5.1 1 .3 1.5zm1.8-4.6v-1.6h.5v1.6h1.7v5c0 .3-.1.5-.2.5-.1.1-.4.1-.8.2 0-.2-.1-.4-.2-.6h.6c.1 0 .1 0 .1-.2v-4.4h-1.2c0 .4 0 .8-.1 1 .4.6.8 1.1 1.2 1.7l-.5.4c-.2-.4-.5-.9-.9-1.4-.2.6-.4 1.1-.8 1.7-.1-.1-.3-.3-.5-.4v2.1h-.5v-5.7h1.6zm-.2 2c.1-.3.2-.8.2-1.5h-1v3c.4-.5.6-1 .8-1.5zM216.4 318.3c-.5-.6-1-1-1.5-1.2-.6-.3-1.2-.5-1.8-.5-.7 0-1.3.2-1.8.5s-.9.6-1.5 1.2l-.4-.4c.6-.6 1.1-1 1.6-1.3.6-.4 1.3-.5 2.1-.5s1.5.2 2.1.5c.5.3 1 .7 1.6 1.3l-.4.4zM213.4 320.5v4.6h-.6v-4.6h-2v-.5h4.6v.5h-2zM215.2 328.6c-.6.4-1.3.5-2.1.5s-1.5-.2-2.1-.5c-.5-.3-1-.7-1.6-1.3l.4-.4c.5.6 1 1 1.5 1.2.6.3 1.2.5 1.8.5.7 0 1.3-.2 1.8-.5.4-.2.9-.6 1.5-1.2l.4.4c-.6.6-1.2 1-1.6 1.3zM202.2 261.2c-.2-.2-.5-.4-.8-.6.8-.9 1.5-2.1 2.2-3.4l.8.4c-.7 1.4-1.4 2.5-2.2 3.6zm4.3-5.2v6.5h-.8V256h-4.2v-.8h4.2v-2.5h.8v2.5h4.5v.8h-4.5zm3.8 4.9c-.9-.9-1.8-2.1-2.5-3.4l.8-.5c.8 1.3 1.6 2.4 2.5 3.3-.3.2-.6.4-.8.6zM212 258v-.8h8.9v.8H212zM224.7 258.5c-.4 1.4-1.2 2.7-2.4 3.7-.2-.3-.4-.5-.6-.8.9-.7 1.6-1.4 2-2.4.3-.8.5-1.8.6-3v-2.1h.9c-.2 2.2-.3 3.7-.5 4.6zm2.9 3.5-.6-.7.1-.1v-7.9h.8v7.4c1.2-.9 2.4-2 3.5-3.5.2.2.4.4.7.6-1.5 1.7-3 3.1-4.5 4.2zM170.6 298.6v1.7h4.5v.8h-4.8l-1.7 3.1c.5.4 1 .7 1.5 1.1l2.2-3 .8.5-3.8 4.8c1.2-.1 2.6-.2 4-.4-.4-.5-.8-.9-1.2-1.4l.7-.5c1.1 1.2 1.9 2.2 2.4 2.9l-.7.5-.6-.9c-3.2.4-6 .7-8.2.8l-.2-.8c.9 0 1.8-.1 2.8-.1l1.3-1.7c-1-.9-2.2-1.7-3.6-2.5l.4-.7c.6.3 1.1.6 1.6 1l1.3-2.7h-4v-.8h4.5v-1.7h.8zM181.2 299v3.5H178v6.4h-.8V299h4zm-.9 1.4v-.7H178v.7h2.3zm0 1.3v-.7H178v.7h2.3zm6-2.7v8.9c0 .4-.1.6-.3.7-.2.1-.7.2-1.4.2 0-.3-.1-.6-.3-.9h1c.1 0 .2-.1.2-.2v-5.2h-2.7l.7.3-.7 1.1h1.6v.6h-2.6v.9h3v.7h-2.6c.2.4.4.7.7.9.3.3.7.6 1.4.8-.2.1-.4.3-.5.6-.6-.3-1.1-.7-1.5-1-.3-.3-.5-.6-.7-1.1-.1.2-.2.5-.3.7-.4.6-1.2 1.1-2.2 1.5-.1-.3-.3-.5-.6-.7 1-.3 1.7-.7 2.1-1.3.1-.1.2-.3.3-.5h-2.3v-.7h2.4v-.9h-2.1v-.6h1.3c-.2-.3-.4-.6-.7-.9l.5-.4c.3.3.7.7.9 1l-.4.3h1.4l.7-1.4h-.4V299h4.1zm-.8.7h-2.4v.7h2.4v-.7zm0 1.3h-2.4v.7h2.4v-.7zM156.4 318.1c-.4-.4-.7-.8-.9-1.1-.3-.4-.4-.9-.4-1.5 0-.5.1-1 .4-1.5.2-.3.5-.7.9-1.1l.3.3c-.4.4-.7.7-.8 1-.2.4-.3.8-.3 1.3s.1.9.3 1.3c.2.3.5.7.8 1l-.3.3zM159.3 314.4v-1.5h.4v1.5h2.4v.4h-2.2c.1.6.4 1.1.7 1.6.4.6.9 1 1.5 1.3-.1.1-.2.2-.3.4-.6-.4-1.2-.9-1.6-1.5-.3-.4-.5-.9-.6-1.4-.1.4-.2.7-.3 1-.3.6-.9 1.3-1.9 2-.1-.2-.2-.3-.3-.4.8-.4 1.4-1 1.8-1.6.2-.4.4-.9.5-1.4h-2.1v-.4h2zM164.7 313.4v.4h-.7v1.1h.6v.4h-.6v1.3c.2-.1.5-.1.7-.2v.4c-.6.2-1.2.4-1.8.5l-.1-.4c.2-.1.5-.1.8-.2v-1.4h-.7v-.4h.7v-1.1h-.7v-.4h1.8zm1.7 2.3v.7h1.3v.4h-1.3v.8h1.5v.4h-3.5v-.4h1.6v-.8h-1.2v-.4h1.2v-.7h-1.1v-2.6h2.7v2.6h-1.2zm-1.1-1.5h.8v-.7h-.8v.7zm.7.4h-.8v.7h.8v-.7zm.4-.4h.8v-.7h-.8v.7zm0 .4v.7h.8v-.7h-.8zM173.5 313.2v.4h-2.6c-.3.7-.5 1.2-.8 1.6h2.9v2.8h-.4v-.4h-2.5v.4h-.4v-2.3c-.3.3-.6.7-1 1l-.3-.3c.6-.4 1-.8 1.3-1.4.3-.4.5-.9.7-1.5h-1.7v-.4h4.8zm-.8 4.1v-1.7h-2.5v1.7h2.5zM176.3 314v.3h-2v-.3h2zm-.3-.8v.3h-1.5v-.3h1.5zm0 1.5v.3h-1.5v-.3h1.5zm0 .7v.3h-1.5v-.3h1.5zm.1.9v1.5h-1.2v.3h-.4v-1.8h1.6zm-.4 1.1v-.8h-.8v.8h.8zm3.5-4.2v4.4c0 .2 0 .3-.1.3s-.3.1-.5.1c0-.1-.1-.3-.1-.4h.4s.1 0 .1-.1v-4.1h-1.9v2.2c0 .9-.2 1.7-.5 2.3-.1-.1-.2-.3-.3-.3.3-.5.4-1.2.4-2v-2.5h2.5zm-1.5 1.1v-.6h.3v.6h.5v.3h-.5v.6h.6v.3H177v-.3h.6v-.6h-.5v-.3h.6zm.8 1.6v1.3h-.9v.4h-.4v-1.7h1.3zm-.4 1v-.7h-.6v.7h.6zM182.9 316.4c-.6.6-1.3 1.1-2.3 1.5-.1-.1-.1-.2-.3-.4.9-.3 1.6-.8 2.2-1.4-.3-.3-.7-.6-1-.8l.2-.3c.4.3.8.5 1.1.8.3-.4.6-.9.9-1.5H182c-.5.7-1 1.2-1.7 1.6-.1-.1-.2-.3-.3-.4.6-.4 1-.7 1.2-1 .3-.3.5-.8.8-1.4l.5.2-.3.6h1.8l.3.3c-.4 1-.9 1.7-1.4 2.2zM187.8 314.7v3.2h-.4v-2.8c-.7.6-1.5 1-2.1 1.3-.1-.2-.1-.3-.2-.4.7-.3 1.4-.7 2.1-1.2.6-.5 1.2-1.1 1.7-1.7l.4.3c-.6.5-1.1 1-1.5 1.3zM191.3 315.9c-.2.7-.6 1.3-1.2 1.9-.1-.1-.2-.3-.3-.4.5-.3.8-.7 1-1.2.2-.4.3-.9.3-1.5v-1h.4c0 1-.1 1.8-.2 2.2zm1.4 1.7-.3-.3.1-.1v-4h.4v3.7c.6-.4 1.2-1 1.8-1.8l.3.3c-.8 1-1.5 1.7-2.3 2.2zM196.5 317c-.2.4-.5.7-.9 1.1l-.3-.3c.4-.4.7-.7.8-1 .2-.4.3-.8.3-1.3s-.1-.9-.3-1.3c-.2-.3-.5-.7-.8-1l.3-.3c.4.4.7.8.9 1.1.3.4.4.9.4 1.5 0 .5-.1 1-.4 1.5zM340.8 479.5c-.1.2-.3.3-.4.4h1.4l.2.3c-.6.6-1.1 1-1.5 1.3-.5.3-1.2.7-2.1 1 0-.1-.1-.2-.2-.4.6-.2 1.1-.4 1.8-.8-.2-.2-.3-.4-.6-.6l.3-.2c.3.2.4.4.6.6.5-.3.9-.6 1.2-1H340c-.1.1-.2.2-.3.2-.4.3-.9.5-1.3.7-.1-.1-.1-.2-.2-.3.4-.1.8-.3 1.2-.6.4-.2.8-.6 1.1-.9l.3.3zm.9 2c-.2.2-.5.4-.7.6h1.5l.2.3c-.4.6-1 1.1-1.6 1.4-.7.4-1.6.7-2.7.9-.1-.1-.1-.3-.2-.4.8-.1 1.6-.2 2.3-.6-.2-.2-.4-.4-.6-.7l.3-.2.7.7c.5-.3.9-.6 1.3-1.1h-1.7l-.1.1c-.4.3-1 .5-1.7.8l-.3-.3c.6-.2 1.2-.4 1.7-.7.4-.2.8-.6 1.2-1l.4.2zM347.7 484.4h-.4v-.4h-2.5v.4h-.4v-4.6h3.2v4.6zm-.4-3.3v-.9h-2.5v.9h2.5zm0 1.3v-.9h-2.5v.9h2.5zm0 1.3v-.9h-2.5v.9h2.5zM350.8 479.5l-.2.8h.7v3.8h-.3v-.3h-1v.4h-.4v-3.9h.7l.1-.9.4.1zm.2 2.4v-1.2h-1v1.2h1zm0 1.6v-1.3h-1v1.3h1zm1.8-4c-.1.3-.2.6-.2.9h1.7v1.7c0 1.1 0 1.7-.1 2 0 .2-.1.3-.2.3-.2.1-.4.1-.8.1 0-.1-.1-.3-.2-.4h.6c.1 0 .2-.1.2-.2 0-.2.1-.8.1-1.8v-1.4h-1.4v.1c-.1.4-.3.7-.5 1.1-.1-.1-.2-.2-.3-.2.2-.4.4-.8.5-1.2.1-.4.2-.7.3-1.1l.3.1zm.4 3-.3.3c-.2-.2-.4-.5-.7-.8l.2-.3c.4.2.6.5.8.8zM333.6 491c-.5-.6-1-1.3-1.7-1.9-.6.7-1.4 1.3-2.3 1.9-.1-.2-.2-.3-.3-.4.8-.4 1.5-.8 2-1.3.4-.4.9-1.1 1.5-2h-2.9v-.4h3.2l.3.3c-.4.6-.7 1.2-1 1.6.7.6 1.3 1.2 1.8 1.9l-.6.3zM338.1 490.9v-.4h-2.9v.4h-.4V487h3.8v3.8h-.5zm0-3.4h-2.9v2.6h2.9v-2.6zM339.9 489.3c-.1-.3-.3-.6-.6-1l.3-.2c.2.3.4.7.6 1l-.3.2zm2.5.2c-.3.5-.6.9-1 1.2-.3.3-.8.5-1.3.7-.1-.1-.1-.3-.2-.4.5-.1.9-.3 1.2-.6.3-.2.6-.6.9-1 .2-.3.4-.8.5-1.4l.4.1c-.1.6-.3 1.1-.5 1.4zm-1.5-.5c-.1-.3-.3-.7-.5-1l.3-.1c.2.4.4.7.5 1l-.3.1zM346.4 489.8c-.5.6-1.2 1-2.2 1.4 0-.1-.1-.3-.2-.4.8-.3 1.5-.6 2-1.2.5-.5.9-1.2 1.2-2.1h-3.6v-.4h3.8l.3.3c-.4 1.1-.9 1.9-1.3 2.4zm1.9-2.8c-.1.1-.2.2-.4.2s-.3-.1-.4-.2c-.1-.1-.2-.2-.2-.4s.1-.3.2-.4c.1-.1.2-.2.4-.2.1 0 .3.1.4.2.1.1.2.2.2.4s-.1.3-.2.4zm-.2-.6c-.1-.1-.1-.1-.2-.1-.2 0-.3.1-.3.3 0 .1 0 .2.1.2.1.1.1.1.2.1s.2 0 .2-.1c.1-.1.1-.1.1-.2s0-.1-.1-.2zM349.9 489c-.3-.2-.7-.4-1-.5l.2-.4c.4.1.8.3 1.1.5l-.3.4zm1.6 1c-.6.4-1.3.8-2.2 1.1l-.2-.5c1.6-.5 2.9-1.4 3.9-2.7l.3.3c-.6.8-1.2 1.4-1.8 1.8zm-1-2.4c-.4-.2-.7-.4-1-.6l.2-.4c.4.2.8.4 1.1.6l-.3.4zM356.4 489.8c-.6.4-1.3.9-2.2 1.3l-.3-.5c1.5-.5 2.9-1.5 4-2.9l.3.3c-.6.8-1.2 1.4-1.8 1.8zm-1.2-1.7c-.4-.4-.8-.7-1.2-1l.3-.4c.5.3.9.6 1.3.9l-.4.5zM361.7 489.9c-.6.6-1.3 1-2.2 1.3-.1-.1-.1-.3-.2-.4.8-.2 1.5-.6 2-1 .4-.4.8-1.1 1.2-1.9h-1.8c-.4.6-.8 1.2-1.4 1.6-.1-.1-.2-.2-.4-.3l1.1-1.1c.2-.3.5-.8.8-1.4l.5.2c-.1.2-.2.4-.4.7H362.8l.3.3c-.5.7-.9 1.5-1.4 2zM383.1 16.9c0 .3 0 .5-.1.7h.5v-1.3h.4v1.3h.6v.3h-.6v1.2c.2-.1.4-.1.6-.2v.4c-.2.1-.4.1-.6.2v2.1h-.4v-2c-.3.1-.7.2-1 .3l-.1-.4c.3-.1.7-.2 1.1-.3v-1.3h-.5c-.1.3-.1.6-.2.8h-.3c.2-.6.3-1.2.4-1.9l.2.1zm2.6-.5c-.1.4-.2.7-.4 1h2.1l-.1 3.1c0 .3-.1.6-.1.7-.1.1-.2.2-.5.3h-.5c0-.2 0-.3-.1-.4h.6c.1 0 .2 0 .2-.1s0-.2.1-.4l.1-2.7h-.4c0 .8-.2 1.5-.5 2.1-.4.6-.8 1.1-1.4 1.5l-.3-.3c.6-.4 1-.8 1.3-1.4.3-.5.5-1.1.5-1.9h-.4c-.1.4-.2.9-.4 1.3-.3.5-.6.8-.9 1.1-.1-.1-.1-.2-.2-.3.3-.2.6-.5.8-.9.2-.3.3-.7.4-1.2h-.3c-.2.4-.4.7-.6 1-.1-.1-.2-.2-.3-.2.3-.4.5-.8.6-1.2.2-.3.3-.7.4-1.1h.3zM392.9 16.8v.4h-2v1.5h2.3v.3h-2.3v2.6h-.4V19h-2.3v-.4h2.3v-1.5h-1.9v-.4h4.3zM396.8 16.5c0 .1-.1.1-.1.1.4.4.8.8 1.2 1.1.4.3.8.6 1.2.7-.1.1-.2.3-.2.4-.3-.2-.7-.4-1-.6v.3h-1.2v.6h2v.4h-2V21h2.3v.4h-5V21h2.2v-1.4h-2v-.4h2v-.6H395v-.3c-.4.3-.7.5-.9.6-.1-.1-.2-.3-.3-.3.5-.3.9-.6 1.3-1s.8-.8 1.2-1.4l.5.3zm-1.2 4.1-.4.2c-.1-.2-.3-.5-.4-.7l.4-.2c.1.2.2.4.4.7zm2.2-2.4c-.1-.1-.3-.2-.4-.3-.4-.3-.7-.7-1-1-.3.4-.7.7-1 1.1-.1.1-.2.2-.3.2h2.7zm.4 1.8-.5.9-.3-.2.4-.9.4.2zM400.3 16.9c0 .3 0 .5-.1.7h.5v-1.3h.4v1.3h.6v.3h-.6v1.2c.2-.1.4-.1.6-.2v.4c-.2.1-.4.1-.6.2v2.1h-.4v-2c-.3.1-.7.2-1 .3l-.1-.4c.3-.1.7-.2 1.1-.3v-1.3h-.5c-.1.3-.1.6-.2.8h-.3c.2-.6.3-1.2.4-1.9l.2.1zm2.6-.5c-.1.4-.2.7-.4 1h2.1l-.1 3.1c0 .3-.1.6-.1.7-.1.1-.2.2-.5.3h-.5c0-.2 0-.3-.1-.4h.6c.1 0 .2 0 .2-.1s0-.2.1-.4l.1-2.7h-.4c0 .8-.2 1.5-.5 2.1-.4.6-.8 1.1-1.4 1.5l-.3-.3c.6-.4 1-.8 1.3-1.4.3-.5.5-1.1.5-1.9h-.4c-.1.4-.2.9-.4 1.3-.3.5-.6.8-.9 1.1-.1-.1-.1-.2-.2-.3.3-.2.6-.5.8-.9.2-.3.3-.7.4-1.2h-.3c-.2.4-.4.7-.6 1-.1-.1-.2-.2-.3-.2.3-.4.5-.8.6-1.2.2-.3.3-.7.4-1.1h.3zM96 298l-.4-.4c.5-.4 1.1-1 1.8-1.7h-5.2v-.6H98l.5.5c-1.1 1-2 1.7-2.5 2.2zm-.9 1.8c-.3.7-1 1.3-2.1 1.8-.1-.2-.2-.4-.4-.6.9-.2 1.6-.6 1.9-1.2.3-.5.4-1.2.4-2.2v-.6h.6c0 1.3-.1 2.3-.4 2.8zM93.8 306.2c-.3 1-.9 1.9-1.7 2.6-.1-.2-.3-.4-.4-.5.6-.5 1.1-1 1.4-1.7.2-.5.4-1.3.4-2.2v-1.5h.6c0 1.6-.1 2.6-.3 3.3zm2.1 2.5-.5-.5.1-.1v-5.7h.6v5.3c.9-.6 1.7-1.5 2.5-2.5.1.1.3.3.5.4-1 1.3-2.1 2.3-3.2 3.1zM97.1 314.9v-.4h-4.5v-.6h4.5v-3.4h-4.5v-.6h5.2v5.1h-.7zM95.1 322.1v-6.4h.6v6.4h-.6zM96.5 327.9c-.7.8-1.7 1.5-3.2 2.1l-.3-.6c1.2-.4 2.2-.9 2.9-1.7.7-.7 1.2-1.7 1.7-3h-5.1v-.7h5.4l.5.5c-.7 1.5-1.3 2.7-1.9 3.4zm2-3.6c-.2-.2-.5-.5-.9-.8l.3-.3c.4.3.7.5.9.8l-.3.3zm.6-.6c-.2-.2-.5-.5-.9-.8l.3-.3c.4.3.7.5.9.8l-.3.3zM138 296v1.1h.4l.2.2c-.2.4-.4.9-.7 1.2l.2.2c.2-.1.3-.3.5-.5l.2.3-.5.5c.1.1.3.2.4.3-.1.1-.2.2-.2.3-.2-.1-.4-.3-.5-.5l-.1-.1v2.1h-.4V299l-.6.6c0-.1-.1-.3-.2-.4.6-.6 1.1-1.1 1.4-1.8h-1.3v-.4h.7v-1h.5zm3.7 5h-.4v-.4h-1.9v.4h-.4v-3.7h1.1V296h.4v1.3h1.1v3.7zm-1.5-2.2v-1.1h-.8v1.1h.8zm0 1.5v-1.2h-.8v1.2h.8zm.4-1.5h.8v-1.1h-.8v1.1zm0 1.5h.8v-1.2h-.8v1.2zM138.5 301.9c-.1.4-.3.8-.5 1.2v3.9h-.4v-3.2c-.2.3-.4.6-.7.9 0-.1-.1-.3-.2-.4.5-.7 1-1.5 1.4-2.6l.4.2zm2.1 1.3v-1.3h.4v1.3h1v.4h-1v2.9c0 .1-.1.2-.2.3-.2.1-.4.1-.7.1 0-.1 0-.3-.1-.4h.6c.1 0 .1 0 .1-.1v-2.8h-2.3v-.4h2.2zm-.8 1.9-.3.2c-.2-.3-.5-.6-.8-1l.3-.2c.4.4.6.7.8 1zM139.6 307.5v.9h2.2v.4h-2.4l-.8 1.6c.3.2.5.4.7.6l1.1-1.5.4.2-1.9 2.4c.6 0 1.3-.1 2-.2-.2-.2-.4-.5-.6-.7l.3-.2c.5.6.9 1.1 1.2 1.5l-.3.2c-.1-.2-.2-.3-.3-.4-1.6.2-3 .3-4.1.4l-.1-.4c.4 0 .9 0 1.4-.1l.7-.9c-.5-.4-1.1-.8-1.8-1.2l.2-.4c.3.2.6.3.8.5l.6-1.3h-2v-.4h2.3v-.9h.4zM139.1 313.4v1.7h-1.6v3.2h-.4v-4.9h2zm-.4.7v-.4h-1.2v.4h1.2zm0 .7v-.4h-1.2v.4h1.2zm3-1.4v4.4c0 .2-.1.3-.2.4-.1.1-.3.1-.7.1 0-.1-.1-.3-.2-.4h.5c.1 0 .1 0 .1-.1v-2.6H140l.3.1-.3.5h.8v.3h-1.3v.5h1.5v.3h-1.3c.1.2.2.3.3.4.1.1.4.3.7.4l-.3.3c-.3-.2-.6-.3-.7-.5-.1-.1-.3-.3-.4-.5-.1.1-.1.2-.2.3-.2.3-.6.5-1.1.8l-.3-.3c.5-.1.8-.4 1.1-.6.1-.1.1-.1.1-.2h-1.1v-.3h1.2v-.5h-1v-.3h.6c-.1-.1-.2-.3-.4-.5l.3-.2.5.5-.2.2h.7l.3-.7h-.2v-1.7h2.1zm-.4.4h-1.2v.4h1.2v-.4zm0 .6h-1.2v.4h1.2v-.4zM141.2 321.9c-.6-.4-1.4-.7-2.3-1v2.9h-.4v-4.9h.4v1.6c.9.3 1.8.6 2.6 1.1l-.3.3zm-.5-1.6c-.1-.2-.3-.4-.6-.6l.2-.2c.3.2.5.4.6.5l-.2.3zm.4-.4c-.1-.2-.3-.4-.6-.6l.2-.2c.3.2.5.4.6.5l-.2.3zM139.8 326.4l-.3-.3c.4-.3.8-.7 1.3-1.2h-3.6v-.4h4.1l.3.4c-.8.7-1.4 1.2-1.8 1.5zm-.6 1.3c-.2.5-.7.9-1.5 1.2-.1-.1-.2-.3-.3-.4.6-.2 1.1-.4 1.3-.8.2-.3.3-.8.3-1.5v-.4h.4c.1.9 0 1.5-.2 1.9zM391.7 386.2v.9h2.4v.4h-4.6v1.5c0 1.3-.3 2.3-.9 3.2-.1-.2-.2-.3-.4-.4.6-.7.8-1.6.8-2.8v-1.9h2.1v-.9h.6zm-.1 2.6v-1h.4v1h2v.4h-1.8c.2.4.4.7.7 1 .3.4.7.7 1.3 1-.2.1-.3.3-.3.4-.5-.3-.9-.7-1.3-1.1l-.6-.9v2.6h-.4v-2.5c-.2.3-.5.7-.7.9-.4.4-.8.8-1.2 1.1-.1-.1-.2-.3-.3-.4.4-.2.7-.5 1.1-.9.3-.3.6-.7.9-1.2h-1.5v-.4h1.7zM396.6 386.8v4h-1v.7h-.4v-4.6h1.4zm-.4 1.9v-1.4h-.6v1.4h.6zm0 1.7V389h-.6v1.4h.6zm4.2-3.3-.5 1h.7v.4h-2c0 .2-.1.4-.1.5h2.3v.4h-2.3c-.1.2-.1.3-.2.5H400l.2.3c-.2.4-.5.8-.8 1.1.4.2.9.4 1.5.5-.1.2-.2.3-.3.4-.6-.1-1.1-.3-1.6-.6-.4.3-.9.5-1.6.6 0-.2-.1-.3-.2-.4.6-.1 1.1-.3 1.4-.5-.3-.2-.5-.5-.7-.7-.3.5-.7.9-1.2 1.3l-.3-.3c.6-.4 1-.8 1.3-1.3.1-.2.2-.4.3-.7h-1.1v-.6h1.2c0-.2.1-.4.1-.5H397v-.4h2.5l.5-1.1.4.1zm.1-.4c-1.2.2-2.3.4-3.3.4 0-.1-.1-.2-.2-.4 1.1-.1 2.2-.2 3.2-.4l.3.4zm-2.4 1.2-.4.1-.3-.6.3-.1c.2.1.3.3.4.6zm.9 3c.3-.2.5-.5.6-.8h-1.4c.2.4.5.6.8.8zm.1-3.1-.4.1c-.1-.2-.1-.4-.2-.7l.3-.1c.1.2.2.5.3.7zM402.4 390.4c-.1.6-.3 1.1-.6 1.6-.1-.2-.2-.3-.3-.4.3-.4.4-.9.5-1.4.1-.5.1-1.1.1-1.8v-1.2h4.6v1.3H405v.7h2.3v.4h-2.6c0 .2-.1.4-.1.6h2.2l-.1 1.1c0 .3-.1.5-.3.6-.2.1-.5.1-.9.1 0-.2 0-.3-.1-.4h.8s.1-.1.1-.2l.1-.7h-1.9c-.1.1-.1.3-.2.4-.3.4-.8.8-1.5 1-.1-.1-.2-.3-.3-.4.7-.2 1.2-.5 1.5-.9.2-.3.3-.7.4-1.1H403v-.4h1.7v-.7h-2c-.1.7-.2 1.3-.3 1.8zm4.9-3.9v.4h-5.7v-.4h5.7zm-4.7 1.7h3.7v-.6h-3.7v.6zM171.4 250.5v-1.2h.4v1.2h.6v.4h-.6v1c.2-.1.4-.1.7-.2v.4c-.2.1-.5.1-.7.2v1.7c0 .1-.1.2-.2.3-.1.1-.4.1-.6.1 0-.1 0-.3-.1-.4h.5c.1 0 .1 0 .1-.1v-1.5c-.3.1-.6.2-.8.2l-.1-.4c.3-.1.6-.1.9-.2v-1.1h-.9v-.4h.8zm4-.8c-.8.3-1.5.4-2.1.5v.9h2.3v.4h-.7v2.9h-.4v-2.9h-1.2v.2c0 .5-.1.9-.2 1.3-.1.5-.3.9-.6 1.3-.1-.1-.2-.2-.3-.2.3-.4.4-.7.6-1.1.1-.4.2-.8.2-1.2v-1.9l.3.1c.7-.1 1.4-.2 2-.5l.1.2zM179 249.4v1.8h1.8v.4H179v2.3h2.3v.4h-5v-.4h2.2v-4.5h.5zM186.9 249.6v.4h-2.2v1.2h2v.3h-1.9c.1.5.4.9.7 1.3.4.5 1 .8 1.6 1-.1.1-.2.2-.3.4-.7-.3-1.2-.7-1.6-1.2-.3-.3-.5-.6-.6-1-.1.4-.2.7-.4 1-.4.5-1 1-1.9 1.3-.1-.2-.1-.3-.2-.4 1-.4 1.6-.8 1.9-1.4.1-.3.2-.6.3-1h-1.8v-.3h1.8V250h-2.1v-.4h4.7zM189.1 250.4v-1.1h.4v1.1h1.5v-1.2h.4v1.2h1.1v.4h-1.1v1.3h1.5v.4h-1.5v1.9h-.4v-1.9h-1.5c-.1.3-.1.6-.3.9-.2.4-.6.7-1.1 1l-.3-.3c.5-.2.9-.5 1.1-.9.1-.2.2-.4.2-.7h-1.4v-.4h1.4v-1.3H188v-.4h1.1zm1.9.4h-1.5v1.3h1.5v-1.3zM376.6 231.8v-1.2h.4v1.2h.6v.4h-.6v1c.2-.1.4-.1.7-.2v.4c-.2.1-.5.1-.7.2v1.7c0 .1-.1.2-.2.3-.1.1-.4.1-.6.1 0-.1 0-.3-.1-.4h.5c.1 0 .1 0 .1-.1v-1.5c-.3.1-.6.2-.8.2l-.1-.4c.3-.1.6-.1.9-.2v-1.1h-.9v-.4h.8zm4-.8c-.8.3-1.5.4-2.1.5v.9h2.3v.4h-.7v2.9h-.4v-2.9h-1.2v.2c0 .5-.1.9-.2 1.3-.1.5-.3.9-.6 1.3-.1-.1-.2-.2-.3-.2.3-.4.4-.7.6-1.1.1-.4.2-.8.2-1.2v-1.9l.3.1c.7-.1 1.4-.2 2-.5l.1.2zM378.4 236.4v1.8h1.8v.4h-1.8v2.3h2.3v.4h-5v-.4h2.2v-4.5h.5zM380.6 242.4v.4h-2.2v1.2h2v.3h-1.9c.1.5.4.9.7 1.3.4.5 1 .8 1.6 1-.1.1-.2.2-.3.4-.7-.3-1.2-.7-1.6-1.2-.3-.3-.5-.6-.6-1-.1.4-.2.7-.4 1-.4.5-1 1-1.9 1.3-.1-.2-.1-.3-.2-.4 1-.4 1.6-.8 1.9-1.4.1-.3.2-.6.3-1h-1.8v-.3h1.8v-1.2h-2.1v-.4h4.7zM377.1 249v-1.1h.4v1.1h1.5v-1.2h.4v1.2h1.1v.4h-1.1v1.3h1.5v.4h-1.5v1.9h-.4v-2h-1.5c-.1.3-.1.6-.3.9-.2.4-.6.7-1.1 1l-.3-.3c.5-.2.9-.5 1.1-.9.1-.2.2-.4.2-.7h-1.4v-.4h1.4v-1.3H376v-.3h1.1zm1.9.3h-1.5v1.3h1.5v-1.3z"/></svg>