<svg xmlns="http://www.w3.org/2000/svg" xml:space="preserve" id="レイヤー_1" x="0" y="0" style="enable-background:new 0 0 620 643" version="1.1" viewBox="0 0 620 643"><style>.st0{fill:#dfeaf8}.st1{fill:#fadce9}.st3{fill:#fffcdb}.st6{fill:#f9f4e4}.st8{fill:#fff}.st10{fill:#bfc0c0}.st12{fill:#6b7b6e}.st13,.st14,.st15{fill:none;stroke:#cfb5a7;stroke-width:.4}.st14,.st15{stroke:#b5b5b6;stroke-miterlimit:10}.st15{stroke:#aaabab;stroke-linecap:round;stroke-linejoin:round;stroke-dasharray:4.5,2.5}.st16{stroke-linejoin:bevel;stroke-dasharray:15.0012,1.3001,1.3001,1.3001}.st16,.st17,.st18,.st19,.st22,.st23,.st26{fill:none;stroke:#000;stroke-width:.4}.st18,.st19,.st22,.st23,.st26{stroke-dasharray:9.443248e-03,0,0,0}.st19,.st22,.st23,.st26{stroke-dasharray:1.2277,1.2183,9.443248e-03,0,0,0}.st22,.st23,.st26{stroke-dasharray:9.442526e-03,0,0,0}.st23,.st26{stroke-dasharray:1.2276,1.2182,9.442526e-03,0,0,0}.st26{stroke-width:.3;stroke-linejoin:bevel;stroke-dasharray:1.3001,1.3001,0,0,0,0}.st27,.st28{stroke-width:.4}.st27{fill:none;stroke:#000;stroke-linejoin:bevel;stroke-dasharray:10.0008,1.3001,1.3001,1.3001}.st28{stroke-miterlimit:10}.st28,.st29,.st31{fill:none;stroke:#000}.st29{stroke-width:.4;stroke-dasharray:1.3001,1.3001,0,0,0,0}.st31{stroke-width:.6}</style><path d="M116.5 47.3H177v79.1h-60.5z" class="st0"/><path d="M178.5 243.4h-3.6v1.8h-60.4v-1.8h-3.1v-24.7h67.1zM524.6 246.2h-9.7v1.8h-60.5v-1.8h-9.7v-24.7h79.9z" class="st1"/><path d="M182.7 229.9v-56h1.6v.4h1.1v-1.2h.7v-1h32.6v1h.7v1.2h1.1v-.9h.8v56.5z" class="st0"/><path d="M221.2 173.4h10.2v56.4h-10.2zM282.8 121.8h-9.3v1.8h-27v-19.9h36.3zM286.1 103.7H356v21h-69.9z" class="st1"/><path d="M332.8 89.2h-49.5V42.5h5.5v.7h1.9v-2.7h34.8v2.7h1.9v-.7h5.4z" style="fill:#feeab4"/><path d="M182.7 66.9h18.4v37.2h-18.4zM111.3 131.1h6.3v42.4h-6.3zM247.9 67.1h20.2v32.6h-20.2z" class="st1"/><path d="M352.9 200.1h-64.7v-39.5h101.3V191h-42.8v3.7h6.2z" class="st0"/><path d="M242.6 102.3h.6v5.1h-60.5v-3.3H201V67.2h1.4V55.3h37.2v11.9h3v2.5h.7v30h-.7zM247.9 99.7h-3.2v-30h2.5v-2.5h.7z" class="st3"/><path d="M273.1 52h-15.8v-.4h-56.5v.4H192V32.3h81.1z" style="fill:#d2cce6"/><path d="M477 394.7h-2.1v-14.2h-2.5v.7l-53.9.1v-.8h-69.6v.7h-77.2v-.7h-4v11.6H211v-11.6h-2.7v.7h-72.5v-.7h-27.4V404h-4v2.3h-.6V436h.6v2.3h13.7v8.8h265.5v-8.8h29.8v8.8H475v-10.2h2.1v-2.6h2.7v-37.2h-2.7v-2.4zm-214.5 14.7c0 1-.8 1.9-1.9 1.9h-16.7c-1 0-1.9-.8-1.9-1.9v-15.8c0-.5.4-.9.9-.9h18.6c.5 0 .9.4.9.9v15.8z" style="fill:#ecf4d9"/><path d="M371.8 195.1H389V206h-17.2z" class="st1"/><path d="M108.6 44.8h6.9v82.6h-6.9zM345.4 91.3h8.1v9.5h-8.1zM356.1 194.2h12.4v9.1h-12.4zM223.4 369.4H255v10.2h-31.6zM224.1 233.1h8.4v9.3h-8.4z" class="st6"/><path d="M474.9 447.2h-61.6v1h-9.1V447h-11.6v1.2h-9.1v-1H118.1l-.1 1h-9V447h-1.7l.1 184.8h367.5z" style="fill:#cae5cd"/><path d="M487.4 369.4h39.1v10.2h-39.1z" class="st6"/><path d="M179.9 203.2v-33.7H178v-36h-.2v-1.2h.5v-1.2h-1.4v.5h-37.2v-.5h-22.1v42.3h-6.3v1.9h16.3v30.6h50.7v-1.6h-.5v-1.1z" class="st0"/><path d="M111.3 175.3h16.3V206h-16.3zM182.7 229.9h38.1v12.6h-38.1z" class="st1"/><path d="M474.9 587.3h-4.4v-.4h-3.6v-.5h-19.7v-1h19.7v-.5h3.6v-.4h4.4zM474.9 494.3h-4.4v-.4h-3.6v-.5h-19.7v-1h19.7v-.5h3.6v-.4h4.4z" class="st8"/><path d="M261.5 392.7H243c-.5 0-.9.4-.9.9v15.8c0 1 .8 1.9 1.9 1.9h16.7c1 0 1.9-.8 1.9-1.9v-15.8c-.1-.5-.5-.9-1.1-.9z" style="fill:#dff2fc"/><path d="M383.5 438.4v9.8h9.1V447h11.6v1.2h9.1v-9.8zM88.3 438.4v9.8h9V447H109v1.2h9v-9.8zM270.7 378.4v-4h.7V366h-63v8.4h.7v4h-.9v2.1h2.7v11.6h56.7v-11.6h4v-2.1h-.9zm-15.7 1.2h-31.6v-10.2H255v10.2zM396.3 264.5v101.6H349v8.4h.7v3.9h-.9v2.1h69.6v-2.1h-.9v-3.9h.7v-8.4h-17.7V264.5zM220.5 170.6v2.8h11v56.4h-10.7v12.6h-38.1v-68.6h1.6v-3.3h-1.6v-1.1h-2.8v33.7h.4v1.1h-2.1v1.6h-66.9V131h28.4v-4.7h-23.2v-79H177v79.1h-.1v4.8h1.3v1.2h4.4V66.9H201v.3h1.4V55.3h-1.6V52H192V32.3H95v333.8H78.7v14.4H98V404h10.2v-23.5h27.4v-2.1h-.9v-4h.7V366h-24.1V246.6h3.1v-3.3h-3.1v-24.6h67.1v24.6h-3.6v3.3h60.8v-76h-15.1zM108.6 44.8h6.9v82.6h-6.9V44.8zm123.8 197.6H224v-9.3h8.4v9.3zM541.3 447.2h-66.4V437h2.1v-.7h3.9v.7h60.4z" class="st10"/><path d="M407.9 202.7V78.8h-69.5V32.3h-11v10.2h5.5v46.7h-49.5V42.5h5.5V32.3h-15.7V52h-15.8v1.9h-16v1.4h-1.6v11.9h2.9v2.6h4.6v-2.6h20.9v32.5h-25.6v2.6h.7v24.2h-10.8v3.3h14.1v-26h36.3v18.1h-9.3v3.3h12.6v-21.4h70.2V93.2h33.2V191h-42.8v3.7h6.1v11.9h18.9v-11.4H389v26.4h7.3v2.1h4.2v-2.1h40.9v27.9h13v-3.3h-9.8v-24.6h80v24.6h-9.8v3.3h9.8v116.7h-52.1v8.4h.7v4h-.9v2.1h2.5v14.2h2.1v.7h4v-.7h4.2v-2.6H539V202.6l-131.1.1zm-54.4-101.8h-8.1v-9.5h8.1v9.5zm15 102.4h-12.4v-9.1h12.4v9.1zm158 176.3h-39.1v-10.2h39.1v10.2z" class="st10"/><path d="M272.3 230h42.3v164.8h-42.3z" style="fill:#feebbe" transform="rotate(90 293.388 312.403)"/><path d="m148.5 603.6 12.7 1.5.1-.5-10.5-1.2 10.4-1.3-.1-.5-12.5 1.6 1.5-1.6 4.6-2 5.8-.6-.1-.5-4.1.4 3.2-1.4-.2-.5-4.8 2-2.4.2 5.5-6-.4-.4-5.9 6.4-6 .6.2-.5 9.9-9-.4-.4-8.6 7.9 6.6-8.5-.4-.3-6 7.9 3.6-9.4-.5-.2-4.2 11.1-1.3 1.7h-.1l.3-6.5 2.8-7.3-.5-.2-2.2 5.7.1-1.7h-.5l-.1 3.4-1.3 3.3-1.8-10.8-.5.1 2 11.7-.9 2.2-.2-.4-3.6-13.7-.5.1 3.1 11.7-5.5-9.4-.5.3 6.4 11.1-.5-.4-8.2-9.7-.4.3 6.8 8-8.8-6.4-.3.4 10.7 7.7 1 1.1-1.7.9-11.3-4.9-.2.5 10.7 4.6-5.1-.9-7.3-4.2-.3.5 6 3.4-6.8-1.2-.1.5 8.3 1.4 2 1.1-10.7.4v.5l11.6-.5.1.1-3.4 1.9-8.2 1 .1.5 6.8-.9-6.3 3.5.3.5 7.5-4.2 6.1-.8.7.4-.1.2-13.4 5.4.2.5 12.6-5-4.2 5.6-6.7 3.1.2.5 5.8-2.7-3.9 5.1.4.3 4.5-5.9 2.2-1-4.7 7.7.5.3 5.1-8.4 2-.9-.2 1.7-4.4 9.2.5.2 3.7-7.7-1.1 8.7.5.1 1.3-10.3 1.3-2.6 1.2-.5-1.6 9.5.5.1 1.7-9.8h.1l.8 2.3.7 11.6h.5l-.6-9.6 3.4 9.8.5-.2-4-11.7-.2-2.5.6.1 5.9 11.8.5-.2-5.7-11.4.8.2 7.3 10.3.4-.3-6.9-9.8 1.6.3 7.3 7.8.4-.4-6.7-7.2 6.3 1.4 1.8.9.2-.4 1.7.4.1-.5-3.7-.8-9.6-4.9.5-.6 13.7 4 .2-.5-13.4-3.9.5-.5-.2-.1zm-3 1.9-1 .9-1-1.9 1.5.5.5.5zm-8.5-2.4 3.4-.1h.1l-.1.5-.5.6-1.4.2-1.9-1.1.4-.1zm4.8 3.7-1 2-.5.2.4-2.9 1.1.7zm9-7-1.1 1.1-4.1 1.8-1.4-.2.8-2.2 5.8-.5zm-7.2-4.8-.2 5-.4.1-.4-2.4 1-2.7zm-1.2 5.1-.8.1.6-1.5.2 1.4zm-1.7 1 .1.2-.1 1-.5-.1-.8-.4 1.3-.7zm-6.6.6 3.2.5-.5.3h-1.2l-1.5-.8zm-.5 3.2 2.5-1.4 1.5.9-4 .5zm1.6 6.5 4.1-5.5.5-.2.2.1-2.8 4.7-2 .9zm2.9-1.4 1.9-3.1-.3 2.4-1.6.7zm7.1-2.4-.3-.6.2-.3.7 1-.6-.1zm1.5.4-1.1-1.6.4-.4 2.2 2.3-1.5-.3zm2.3.5-2.5-2.7 7.6 3.8-5.1-1.1zM204.1 607.7l10.6 1.3.1-.5-8.7-1 8.7-1.1-.1-.4-10.4 1.3 1.2-1.3 3.8-1.7 4.8-.5-.1-.4-3.4.3 2.6-1.1-.2-.4-4 1.7-2 .2 4.6-5-.3-.3-4.9 5.4-5 .5.2-.4 8.2-7.5-.3-.3-7.2 6.6 5.5-7.1-.4-.3-5 6.5 3-7.8-.4-.4-3.5 9.3-1.1 1.4h-.1l.2-5.5 2.3-6-.4-.2-1.8 4.8.1-1.4h-.5l-.1 2.8-1.1 2.8-1.5-9h-.5l1.6 9.7-.7 1.9-.2-.4-3-11.4-.4.1 2.6 9.8-4.6-7.9-.4.2 5.3 9.2-.4-.3-6.8-8.1-.4.3 5.6 6.7-7.4-5.3-.3.4 8.9 6.4.8.9-1.4.8-9.4-4.1-.2.4 8.9 3.9-4.2-.7-6.1-3.5-.2.4 5 2.8-5.7-1-.1.4 6.9 1.2 1.7 1-8.9.4v.5l9.6-.4.1.1-2.9 1.6-6.8.9.1.5 5.7-.7-5.3 2.9.2.4 6.3-3.5 5.1-.7.6.3-.1.1-11.2 4.5.2.4 10.5-4.2-3.5 4.6-5.6 2.6.2.4 4.8-2.2-3.2 4.3.4.3 3.7-5 1.8-.8-3.9 6.4.4.2 4.2-7 1.7-.8-.2 1.4-3.7 7.6.4.2 3.1-6.4-.9 7.3.5.1 1.1-8.6 1.1-2.1 1-.5-1.3 7.9.5.1 1.4-8.2h.1l.6 1.9.6 9.7h.5l-.5-8 2.8 8.2.4-.1-3.3-9.8-.1-2.1.5.1 4.9 9.9.4-.2-4.8-9.5.7.1 6.1 8.6.4-.3-5.8-8.1 1.4.3 6.1 6.5.3-.3-5.6-6 5.2 1.1 1.5.7.2-.4 1.4.3.1-.5-3-.7-8-4 .4-.5 11.4 3.3.1-.4-11.2-3.3.4-.4.3-.1zm-2.5 1.6-.8.8-.8-1.6 1.2.5.4.3zm-7.1-2 2.9-.1h.1l-.1.4-.4.5-1.2.2-1.6-.9.3-.1zm4 3.1-.8 1.7-.4.2.3-2.4.9.5zm7.5-5.8-.9 1-3.4 1.5-1.1-.1.7-1.8 4.7-.6zm-6-4.1-.2 4.2h-.4l-.3-2 .9-2.2zm-1 4.3-.7.1.5-1.2.2 1.1zm-1.5.8.1.2-.1.8-.4-.1-.7-.3 1.1-.6zm-5.4.6 2.7.4-.4.2h-1l-1.3-.6zm-.4 2.6 2.1-1.2 1.3.7-3.4.5zm1.3 5.4 3.4-4.6.4-.2.2.1-2.4 3.9-1.6.8zm2.4-1.1 1.6-2.6-.3 2-1.3.6zm5.9-2-.3-.5.2-.2.6.9-.5-.2zm1.2.3-1-1.3.3-.3 1.8 2-1.1-.4zm2 .4-2.1-2.3 6.3 3.2-4.2-.9zM323.8 612.5l5.8.7v-.3l-4.8-.6 4.8-.6v-.2l-5.8.7.7-.7 2.1-.9 2.7-.3v-.2l-1.9.2 1.5-.6-.1-.2-2.2.9-1.1.1 2.5-2.8-.2-.2-2.7 3-2.8.3.1-.2 4.6-4.2-.2-.2-4 3.6 3-3.9-.2-.2-2.8 3.6 1.7-4.3-.2-.1-2 5.1-.6.8h-.1l.1-3 1.3-3.3-.2-.1-1 2.6v-.8h-.3l-.1 1.5-.6 1.5-.8-5h-.2l.9 5.4-.4 1-.1-.2-1.7-6.3-.2.1 1.4 5.4-2.5-4.4-.2.1 2.9 5.1-.2-.2-3.8-4.5-.2.2 3.1 3.7-4.1-3-.2.2 4.9 3.6.5.5-.8.4-5.2-2.3-.1.2 5 2.1-2.3-.4-3.4-1.9-.1.2 2.8 1.6-3.2-.5v.2l3.8.7.9.5-4.9.2v.3l5.3-.2h.1l-1.6.9-3.8.5v.3l3.2-.4-2.9 1.6.1.2 3.5-1.9 2.8-.4.3.2-.1.1-6.2 2.5.1.2 5.8-2.3-1.9 2.6-3.1 1.4.1.2 2.7-1.2-1.8 2.4.2.1 2.1-2.7 1-.5-2.2 3.5.2.1 2.3-3.9.9-.4-.1.8-2.1 4.2.2.1 1.7-3.5-.5 4h.3l.6-4.8.6-1.2.5-.3-.7 4.4h.2l.8-4.5.4 1.1.3 5.3h.3l-.3-4.4 1.6 4.5.2-.1-1.9-5.4-.1-1.2.3.1 2.7 5.5.2-.1-2.6-5.3.4.1 3.4 4.7.2-.1-3.2-4.5.8.2 3.4 3.6.2-.2-3.1-3.3 2.9.6.8.4.1-.2.8.2.1-.3-1.7-.4-4.4-2.2.2-.3 6.3 1.8.1-.2-6.2-1.8.2-.2.4.3zm-1.4.9-.4.4-.4-.9.7.3.1.2zm-3.9-1.2 1.6-.1h.1v.2l-.2.3-.7.1-.9-.5h.1zm2.2 1.7-.5.9-.2.2.2-1.3.5.2zm4.1-3.2-.5.5-1.9.8-.6-.1.4-1 2.6-.2zm-3.3-2.2-.1 2.3h-.2l-.2-1.1.5-1.2zm-.6 2.3h-.4l.3-.7.1.7zm-.7.5v.1l-.1.5h-.2l-.4-.2.7-.4zm-3.1.3 1.5.2-.2.1h-.6l-.7-.3zm-.2 1.5 1.2-.6.7.4-1.9.2zm.8 2.9 1.9-2.5.2-.1.1.1-1.3 2.2-.9.3zm1.3-.6.9-1.4-.1 1.1-.8.3zm3.2-1.1-.1-.3.1-.1.3.5-.3-.1zm.7.2-.5-.7.2-.2 1 1.1-.7-.2zm1.1.2-1.2-1.3 3.5 1.8-2.3-.5zM430.5 607.8l11.3 1.3.1-.5-9.4-1.1 9.3-1.2-.1-.5-11.2 1.4 1.3-1.4 4.1-1.8 5.2-.5-.1-.5-3.6.4 2.8-1.2-.2-.5-4.3 1.8-2.1.2 4.9-5.3-.4-.3-5.3 5.8-5.4.5.2-.4 8.8-8.1-.3-.4-7.7 7.1 5.9-7.6-.4-.3-5.4 7 3.2-8.4-.5-.2-3.8 9.9-1.2 1.5h-.1l.2-5.9 2.5-6.5-.5-.2-2 5.1.1-1.5h-.5l-.1 3-1.2 3-1.6-9.6-.5.1 1.8 10.4-.8 2-.2-.4-3.3-12.3-.5.1 2.8 10.5-4.9-8.4-.4.2 5.7 9.9-.5-.3-7.4-8.7-.4.3 6.1 7.1-7.9-5.7-.3.4 9.5 6.9.9 1-1.5.8-10.1-4.4-.2.4 9.6 4.2-4.6-.8-6.5-3.7-.2.4 5.3 3-6.1-1-.1.5 7.4 1.3 1.8 1-9.6.4v.5l10.4-.4.1.1-3.1 1.7-7.4.9.1.5 6.1-.8-5.7 3.1.2.4 6.8-3.7 5.5-.7.6.4-.1.2-12 4.8.2.5 11.3-4.5-3.7 5-6 2.8.2.4 5.2-2.4-3.5 4.6.4.3 4-5.3 2-.9-4.2 6.9.4.3 4.5-7.5 1.8-.8-.2 1.5-4 8.2.5.2 3.3-6.9-1 7.8.5.1 1.2-9.3 1.1-2.3 1-.5-1.4 8.5.5.1 1.5-8.8h.1l.7 2 .6 10.4h.5l-.5-8.6 3 8.8.5-.2-3.6-10.5-.1-2.3.5.1 5.3 10.6.4-.2-5.1-10.2.7.2 6.5 9.2.4-.3-6.2-8.7 1.5.3 6.5 7 .4-.3-6-6.4 5.6 1.2 1.6.8.2-.4 1.5.3.1-.5-3.3-.7-8.6-4.3.5-.5 12.2 3.6.1-.5-12-3.5.4-.5 1.1-.2zm-2.6 1.8-.9.8-.9-1.7 1.3.5.5.4zm-7.7-2.3 3.1-.1h.1l-.1.5-.4.5-1.3.2-1.7-.9.3-.2zm4.3 3.4-.9 1.8-.4.2.3-2.6 1 .6zm8.1-6.3-.9 1-3.7 1.6-1.2-.1.7-2 5.1-.5zm-6.5-4.3-.2 4.5h-.4l-.4-2.1 1-2.4zm-1.1 4.6-.7.1.5-1.3.2 1.2zm-1.5.8.1.2-.1.9-.5-.1-.8-.3 1.3-.7zm-5.8.7 2.9.5-.4.2h-1.1l-1.4-.7zm-.5 2.8 2.2-1.2 1.4.8-3.6.4zm1.5 5.8 3.7-4.9.5-.2.2.1-2.5 4.2-1.9.8zm2.6-1.2 1.7-2.8-.3 2.1-1.4.7zm6.3-2.2-.3-.6.2-.2.6.9-.5-.1zm1.3.3-1-1.4.3-.4 2 2.1-1.3-.3zm2.1.5-2.3-2.4 6.8 3.4-4.5-1zM374.3 606.2l9.2 1.1v-.4l-7.7-.9 7.6-1v-.4l-9.1 1.1 1.1-1.2 3.4-1.4 4.2-.4v-.4l-3 .3 2.3-1-.1-.4-3.5 1.5-1.7.2 4-4.4-.3-.3-4.3 4.7-4.4.4.1-.3 7.2-6.6-.3-.3-6.3 5.8 4.8-6.2-.3-.2-4.4 5.7 2.6-6.9-.4-.1-3.1 8.1-.9 1.2h-.1l.2-4.8 2-5.3-.4-.1-1.6 4.2.1-1.3h-.4l-.1 2.4-.9 2.4-1.3-7.8-.4.1 1.4 8.5-.6 1.6-.2-.3-2.6-10-.4.1 2.3 8.6-4-6.9-.4.2 4.7 8.1-.4-.3-6-7.1-.3.3 4.9 5.8-6.4-4.7-.2.3 7.8 5.6.7.8-1.2.7-8.2-3.6-.2.4 7.8 3.4-3.7-.6-5.3-3-.2.4 4.3 2.5-5-.8-.1.4 6.1 1 1.5.8-7.8.3v.4l8.4-.3.1.1-2.5 1.4-6 .8.1.4 5-.6-4.6 2.5.2.4 5.5-3 4.5-.6.5.3-.1.1-9.8 3.9.2.4 9.2-3.7-3.1 4.1-4.9 2.2.2.4 4.2-1.9-2.8 3.7.3.2 3.3-4.3 1.6-.7-3.4 5.6.3.2 3.7-6.1 1.5-.7-.2 1.2-3.2 6.7.4.2 2.7-5.6-.8 6.4h.4l1-7.5.9-1.9.8-.4-1.2 6.9.4.1 1.2-7.2h.1l.6 1.7.5 8.4h.4l-.4-7 2.5 7.2.4-.1-2.9-8.6-.1-1.8.4.1 4.3 8.6.4-.2-4.2-8.3.6.1 5.3 7.5.3-.2-5-7.1 1.2.3 5.3 5.7.3-.3-4.9-5.2 4.6 1 1.3.6.2-.3 1.3.3.1-.4-2.7-.6-7-3.5.4-.4 10 2.9.1-.4-9.8-2.8.4-.4-.1-.5zm-2.2 1.4-.7.7-.7-1.4 1.1.4.3.3zm-6.2-1.8 2.5-.1h.1l-.1.4-.3.4-1 .1-1.4-.8h.2zm3.5 2.7-.7 1.5-.4.2.3-2.1.8.4zm6.5-5.1-.8.8-3 1.3-1-.1.6-1.6 4.2-.4zm-5.2-3.5-.2 3.6h-.3l-.3-1.7.8-1.9zm-.9 3.7-.6.1.4-1.1.2 1zm-1.3.8.1.2-.1.7-.4-.1-.6-.3 1-.5zm-4.7.5 2.3.4-.3.2h-.9l-1.1-.6zm-.4 2.3 1.8-1 1.1.6-2.9.4zm1.2 4.7 3-4 .4-.2.1.1-2.1 3.4-1.4.7zm2.1-1 1.4-2.3-.2 1.7-1.2.6zm5.1-1.7-.2-.5.2-.2.5.7h-.5zm1.1.2-.8-1.2.3-.3 1.6 1.7-1.1-.2zm1.7.4-1.9-2 5.5 2.8-3.6-.8z" class="st12"/><path d="M182.7 109h60.5M182.7 113.6h60.5M182.7 118.3h60.5M182.7 122.9h60.5M173.8 127.6H227M182.7 132.2h52M179.4 136.9h55.3M179.4 141.5h55.3M179.4 146.2h55.3M179.4 150.8h55.3M179.4 155.5h55.3M179.4 160.1h55.3M179.4 164.8h55.3M183.1 169.4l48.8.2M356.3 95h33.2M356.3 99.7h33.2M356 104.3h33.5M356 109h33.5M356 113.6h33.5M356 118.3h33.5M356 122.9h33.5M246.5 127.6h143M236.2 132.2h153.3M236.2 136.9h153.3M236.2 141.5h153.3M236.2 146.2h153.3M236.2 150.8h153.3M236.2 155.5h153.3M236.2 160.1h153.3M236.2 164.8h52M236.2 169.4h52M235.7 174.1h52.5M235.7 178.7h52.5M235.7 183.4h52.5M235.7 188h52.5M235.7 192.7h52.5M235.7 197.3h52.5M235.7 201.9h117.2M235.7 206.6h153.4M235.7 211.2h153.4M235.7 215.9h153.4M235.7 220.5h153.4M235.7 225.2h163.2M235.7 229.8h163.9M235.7 234.5h163.9M235.7 239.1h163.9M235.7 243.8h163.9M111.4 220.5h67.1M111.4 225.2h66.8M111.4 229.8h67.1M111.4 234.5h67.1M111.4 239.1h67.1M114.5 243.8h60.4M111.4 248.4h288.2M439.5 225.2h1.9M401 229.8h40.4M401 234.5h40.4M401 239.1h40.4M401 243.8h40.4M444.7 225.2h79.9M444.7 229.8h79.9M444.7 234.5h79.9M444.7 239.1h79.9M444.7 243.8h79.9M400.9 248.4h40.5M111.4 253.1h288.2M111.4 257.7h288.2M111.4 262.4h288.2M111.4 267h284.9M111.4 271.7h284.9M111.4 276.3h284.9M111.4 281h284.9M111.4 285.6h284.9M111.4 290.3h284.9M111.4 294.9h284.9M111.4 299.6h284.9M111.4 304.2h284.9M111.4 308.9h284.9M111.4 313.5h284.9M111.4 318.2h284.9M111.4 322.8h284.9M111.4 327.5h284.9M111.4 332.1h284.9M111.4 336.8h284.9M111.4 341.4h284.9M111.4 346.1h284.9M111.4 350.7h284.9M111.4 355.4h284.9M111.4 360h284.9M111.4 364.7h284.9M401 253.1h123.4M401 257.7h123.4M401 262.4h123.4M400.5 267h124.1M400.5 271.7h124.1M400.5 276.3h124.1M400.5 281h124.1M400.5 285.6h124.1M400.5 290.3h124.1M400.5 294.9h124.1M400.5 299.6h124.1M400.5 304.2h124.1M400.5 308.9h124.1M400.5 313.5h124.1M400.5 318.2h124.1M400.5 322.8h124.1M400.5 327.5h124.1M400.5 332.1h124.1M400.5 336.8h124.1M400.5 341.4h124.6M400.5 346.1h124.6M400.5 350.7h124.6M400.5 355.4h124.6M400.5 360h124.6M400.5 364.7h124.6" class="st13"/><path d="M211.5 55.3v47M230.1 55.3v47M239.6 65.1h-37.2M243.2 83.7H201M244.6 83.7h3.3" class="st14"/><path d="M240.5 123.6h-10.9v31.9h-33.9v-46.8h8.1V66.5h36.7zM235.7 221.5h153.4M389 221.5v144.6M366.1 221.5v144.6M413.8 221.5v144.6" class="st15"/><path d="M264.1 361.2h92.6M264.1 363.6h92.6M407.6 361.2h72.2M407.6 363.6h72.2M128 361.2h87.9M128 363.6h87.9" class="st16"/><path d="M263.2 366.1v-.6" class="st17"/><path d="M263.2 364.2" class="st18"/><path d="M263.2 364.2v-4.9" class="st19"/><path d="M263.2 359.3v-.6h.6" class="st17"/><path d="M265.1 358.7h.1" style="fill:none;stroke:#000;stroke-width:.4;stroke-dasharray:1.008596e-02,0,0,0"/><path d="M265.2 358.7h91.7" style="fill:none;stroke:#000;stroke-width:.4;stroke-dasharray:1.3113,1.3012,1.008596e-02,0,0,0"/><path d="M356.9 358.7h.7v.6" class="st17"/><path d="M357.6 360.5" class="st22"/><path d="M357.6 360.5v5" class="st23"/><path d="M357.6 365.5v.6M127.1 366.1v-.6" class="st17"/><path d="M127.1 364.2" class="st18"/><path d="M127.1 364.2v-4.9" class="st19"/><path d="M127.1 359.3v-.6h.6" class="st17"/><path d="M129 358.7" style="fill:none;stroke:#000;stroke-width:.4;stroke-dasharray:9.860042e-03,0,0,0"/><path d="M129 358.7h87.2" style="fill:none;stroke:#000;stroke-width:.4;stroke-dasharray:1.2819,1.272,9.860042e-03,0,0,0"/><path d="M216.2 358.7h.6v.6" class="st17"/><path d="M216.8 360.5" class="st22"/><path d="M216.8 360.5v5" class="st23"/><path d="M216.8 365.5v.6" class="st17"/><path d="M111.4 231.3h67.1M111.4 232.7h67.1M111.4 231.3h67.1M111.4 232.7h67.1M256.2 67.2v32.5M254.8 67.2v32.5M444.7 234.1h79.9M444.7 235.5h79.9M444.7 234.1h79.9M444.7 235.5h79.9" class="st26"/><path d="m111.4 218.7 67.1 20.9h-67.1M282.8 103.7l-36.3 16.2h36.3M268.1 67.2l-20.2 32.5V67.2M283.3 89.2l49.5-20.9h-49.5M182.7 104.1 201 66.9M371.8 206.1l17.2-11M524.6 221.5l-79.9 20.9h79.9M220.8 229.9h-38.1l38.1 12.5M127.6 205.9l-.1-30.5-16.2-.1z" class="st27"/><path d="M356 103.7v21h-69.9" class="st28"/><path d="M389 206.1h-17.2" class="st17"/><path d="M217.5 392.7h23.2v9.3h-23.2zM240.8 402l-23.3-9.3" class="st29"/><path d="M243.2 107.4h-60.5M242.6 102.3H201" class="st28"/><path d="M117.6 131.1v42.3M111.9 175.9h29.8v29.8h-29.8zM356.4 93.9h32.5v32.5h-32.5zM347.2 191v-28.4h42.3" class="st29"/><path d="M182.7 200.7h3.6c.3 0 .6-.3.6-.7v-.2c0-.3-.3-.6-.6-.7h-3.6M182.7 225.7h2.7v-24.9" class="st28"/><path d="M186.9 199.9v26.5s0 .8-.8.8h-3.4M203.3 204.2c-8.6 0-8.8 12.8-8.8 12.8s-.2 6.1-.2 8.5c0 2.5 1.4 2.1 1.4 2.1s5 .2 7.4.2c2.4 0 7.7-.2 7.7-.2s1.4.3 1.4-2.1c0-2.5-.2-8.5-.2-8.5s-.2-12.8-8.8-12.8M210.2 238.1c2.1 0 1.9-1.7 1.9-1.7v-5.5c0-2.1-1.9-2.2-1.9-2.2s-1.9-.5-7.3-.5-6.7.5-6.7.5-1.9.1-1.9 2.2v5.5s-.2 1.7 1.9 1.7h14zM211.3 227.6v1.6M195.6 227.7v1.1M194.2 220.5H212" class="st28"/><path d="m194.1 224.2 2.6.3v-1.8h12.4v1.8l2.9-.4M230.7 192.2v-14.4c0-.1-.1-.2-.2-.2H224c-.1 0-.2.1-.2.2v14.4c0 .1.1.2.2.2h6.5c.1.1.2-.1.2-.2z" class="st28"/><path d="M223.7 182.2c0-.1.1-.2.2-.2h6.5c.1 0 .2.1.2.2" class="st28"/><circle cx="228.4" cy="187.3" r="1" class="st28"/><path d="M231.4 177.1v15.8c0 .1-.1.2-.2.2h-7.9c-.1 0-.2-.1-.2-.2v-15.8c0-.1.1-.2.2-.2h7.9c.1 0 .2.1.2.2zM221.4 174.3h7.4v.9h-7.4zM224.5 173.4h1.1v.9h-1.1zM221.3 229.9v-56.5M139.2 131.1v7s.7 7 .7 14.4-.7 14.4-.7 14.4v6.5l-27.7.2M118.3 166.9v6.5M118.3 138.1v-7" class="st28"/><path d="m117.6 166.9 1.6-4.3c.4-1.1 2-1.2 2-1.2 2-.2 3.9 0 6.4.3 2.5.2 4.4 1.2 6.3 3.3s4.6 1.9 4.6 1.9h-24.2c-.8 0-.9-.8-.9-.8l-.1-1s-.6-5.3-.6-12.6.7-13.6.7-13.6c.1-.8.9-.8.9-.8h24.2s-2.7-.3-4.6 1.9c-2 2.2-4 3.2-7.7 3.5-3.7.3-5.5.1-5.5.1s-1.2-.2-1.6-1.2c-.3-1-1.5-4.3-1.5-4.3" class="st28"/><path d="M117.2 138.1s.8 8.2.8 14.4c0 6.2-.8 14.4-.8 14.4" class="st28"/><circle cx="122.9" cy="152.5" r="1.2" class="st28"/><path d="M123 132.8h7.4v.9H123zM126.2 131.1h1.1v1.6h-1.1zM124.6 57.6s.5-3.3 3.4-3.5c2.8-.2 11.3-.9 11.3-.9s.8.1 2-.6l1.5-.7s.8-.3 1.7-.3h4.4s.9-.1 2 .4c1 .5 1.9 1.1 2.9 1.2 1 .1 12 1 12 1s2.5.5 3 3.5c.6 4.6.6 9.3-.1 14.1 0 0-.2 2.7-2.9 3.4l-11.7.5s-.9 0-1.7.4c-.8.4-1.9 1-3.2 1h-4.9s-.7.1-1.5-.3c-.8-.3-1.5-.6-1.5-.6s-1-.4-1.9-.4c-.9 0-11.1-.4-11.1-.4s-2.9 0-3.6-3.5c-.4-5.1-.4-9.8-.1-14.3z" class="st28"/><path d="m134 50.7-2.1.1s-2.5-.2-4.6 1.4c-.1.1-3.2 1.9-3.4 5-.2 3.1 0 0 0 0" class="st28"/><path d="M149 50.8c1.9.2 2.6.7 3.2 1 .6.3 2 .6 2 .6l11.8 1c3.2.7 3.7 4.3 3.7 4.3.7 4.8.6 9.7-.2 14.8-.8 3.7-3.8 3.7-3.8 3.7l-11.2.3c-1.3 0-2.3.7-2.3.7l-1.1.6c-1.1.6-2.4.6-2.4.6h-4.1c-1.2 0-2.4-.6-2.4-.6s-1-.6-1.7-1c-.6-.3-1.7-.4-1.7-.4l-11.6-.4c-3-.7-3.3-3.6-3.3-3.6-.8-4.9-.8-10.1-.1-15.3 0 0 .9-3.6 4-3.8l11.4-.9s1-.1 1.7-.4c.7-.3 2.1-1.2 3.5-1.2h4.6z" class="st28"/><path d="M169.7 57.6c-.2-1.1-.3-2.9-2.7-4.9-2.4-2-5.4-1.9-5.4-1.9l-2.3-.1M148.8 78.4h12.8s2.9 0 5.1-1.5c2.2-1.5 2.4-2.5 2.9-4.4M144.7 78.4H131c-.3-.1-1.2 0-3.4-1 0 0-3.1-1.3-3.7-4.9" class="st28"/><path d="M161.1 49.6h.6S175 51.2 175 65.5c0 13.7-13.3 15.7-13.3 15.7h-30.1s-13.3-2.1-13.3-15.7c0-14 13.3-15.9 13.3-15.9h.6" class="st28"/><path d="m159.5 47.2-.1.4s-.8 1.9-.8 2v1.1h2s.2 0 .2-.1l.9-1.8.5-1.5M131.4 47.2l.7 2 .7 1.3s.1.1.2.1h2v-1.1l-.2-.4-.8-2M158.8 49.2h-24.2M158.6 50.6h-23.7" class="st28"/><circle cx="146.7" cy="74.3" r="1.6" class="st28"/><path d="M125.8 126.4c.1-3-2.2-9.2-9.3-9.3" class="st28"/><path d="M122.8 119.4h6.5V91.5h-12.9M123.4 91.5v27.9M122.2 91.5v27.4M117.5 91.5v25.6M116.5 82.8H177M384.6 184.9c0 .6-.5 1-1 1h-25.9c-.6 0-1-.5-1-1v-21.3c0-.6.5-1 1-1h25.9c.6 0 1 .5 1 1v21.3z" class="st28"/><path d="M357.8 164.2h25.6v18.2h-25.6zM308.2 175.9c0 2 1.6 3.7 3.7 3.7 2 0 3.7-1.6 3.7-3.7 0-2-1.6-3.7-3.7-3.7s-3.7 1.7-3.7 3.7z" class="st28"/><path d="M389.5 160.6H288.2v39.9h64.7" class="st28"/><path d="M330.5 185.8c0 1.3-1 2.3-2.3 2.3h-32.6c-1.3 0-2.3-1-2.3-2.3v-19.6c0-1.3 1-2.3 2.3-2.3h32.6c1.3 0 2.3 1 2.3 2.3v19.6z" class="st28"/><circle cx="377.3" cy="170.5" r="4.6" class="st28"/><path d="M359.3 170.5c0 2.5 2.1 4.6 4.6 4.6 2.5 0 4.6-2.1 4.6-4.6 0-2.5-2.1-4.6-4.6-4.6-2.5-.1-4.6 2-4.6 4.6z" class="st28"/><circle cx="370.6" cy="178.6" r="3.3" class="st28"/><path d="M367.7 182.6c.8.6 1.8.9 2.9.9 1.1 0 2.1-.3 2.9-.9h9.8v2.3h-25.6v-2.3h10zM310.2 164.6c-2.8 0-9.9 0-11.5.2s-4.5 1.8-4.5 4.9c0 3.1-.2 9.8.1 10.6s1 3.9 5.3 3.8c4.9-.1 5.3.3 6.8 1.4 1.2.8 2.7 1.8 5.5 1.8h.2c2.8 0 4.3-.9 5.5-1.8 1.8-1.3 2.1-1.4 6.8-1.4 4.3 0 5-3 5.3-3.8.3-.8.1-7.4.1-10.6 0-3.1-2.9-4.7-4.5-4.9-1.6-.2-8.7-.2-11.5-.2h-3.6zM261.5 393.3H243c-.1 0-.2.1-.2.2v15.8c0 .6.5 1.2 1.2 1.2h16.7c.6 0 1.2-.5 1.2-1.2v-15.8c-.1 0-.2-.2-.4-.2z" class="st28"/><circle cx="252.3" cy="395.5" r="1.2" class="st28"/><path d="M261.5 392.7H243c-.5 0-.9.4-.9.9v15.8c0 1 .8 1.9 1.9 1.9h16.7c1 0 1.9-.8 1.9-1.9v-15.8c-.1-.5-.5-.9-1.1-.9z" class="st28"/><path d="M178.7 169.5v33.7" style="fill:none;stroke:#000;stroke-width:.4;stroke-dasharray:1.3001,1.3001"/><path d="M202.4 55.3v-1.9h-.7v-1.8h-.9v3.7zM239.6 55.3v-1.9h.7v-1.8h1v3.7zM202.4 55.3h37.2M239.6 53.4h-37.2M240.3 51.6h-38.6" class="st17"/><path d="M240.3 53.4c0-21.2-17.3-38.4-38.6-38.4v36.5M241.229 53.918v-2.3h16v2.3zM176.888 131.636h-.9v-5.3h.9zM140.66 131.636h-.9v-5.3h.9zM175.9 131.6h-35.3M175.9 129.4h-35.2M176 128h-35.3M176 126.4h-35.4" class="st17"/><path d="M140.6 127.9c0-18 13.8-32.8 31.5-34.4l3.9 34.4M184.3 170.1v4.2h1.1v-1.2h.7v-1h-.7v-2zM220.5 170.1v4.2h-1.1v-1.2h-.7v-1h.7v-2zM186.782 136.856v33.2h-1.4v-33.2z" class="st17"/><path d="M185.425 172.127v-2h34v2zM219.4 170.1c0-18.4-15.2-33.2-33.9-33.2M231.9 129.7h4.2v1.2h-1.3v.6h-.8v-.6h-2.1z" class="st17"/><path d="M274.659 132.197h-38.6v-1.4h38.6z" class="st17"/><path d="M234.8 130.9h1.3v38.6h-1.3z" class="st17"/><path d="M236.1 169.4c21.3 0 38.6-17.3 38.6-38.6M231.9 170.6h4.2v-1.2h-1.3v-.7h-.7v.7h-2.2zM183.11 169.538h-3.7v-1.2h3.7zM183.083 133.476h-5.3v-1.2h5.3z" class="st17"/><path d="M179.405 169.47h-1.3v-36h1.3zM180.324 204.315h-2.5v-1.1h2.5zM183.4 150.3h-9.6M246.5 123.6h27v1.4h-27zM246.5 125l2.3 13.4L251 125M201 66.9v37.2h-18.3M244.658 69.758v30h-1.4v-30z" class="st17"/><path d="m242.6 69.1-14.9 1.7 15.6 3.5M207.6 378.4h1.5v-3.9h-.7v-8.9h-.8zM136.3 378.4h-1.6v-3.9h.8v-8.9h.8zM208.2 378.4v2.8h-72.5v-2.8M171.9 364v7.1M136.3 365.6h71.3" class="st17"/><path d="M136.3 367.1h37v1.2h-37zM170.5 368.3h37v1.2h-37zM170.5 372.2h2.9v2.6h-2.9zM136.3 374.8h37v1.2h-37zM170.5 376h37v1.2h-37zM171.9 380.3v-5.6M348.2 378.4h1.5v-3.9h-.7v-8.9h-.8zM272.3 378.4h-1.6v-3.9h.7v-8.9h.9zM348.8 378.4v2.8h-77.2v-2.8M310.2 364v7.1M272.3 365.6h75.9M272.3 367.1h39.4v1.2h-39.4z" class="st17"/><path d="M308.8 368.3h39.3v1.2h-39.3zM308.8 372.2h2.9v2.6h-2.9zM272.3 374.8h39.4v1.2h-39.4zM308.8 376h39.3v1.2h-39.3zM310.2 380.3v-5.6M471.7 378.4h1.6v-3.9h-.7v-8.9h-.9zM419 378.4h-1.5v-3.9h.7v-8.9h.8zM472.3 378.4v2.8h-53.9v-2.8M445.4 364v7.1M419 365.6h52.7" class="st17"/><path d="M419 367.1h27.7v1.2H419zM444 368.3h27.7v1.2H444zM443.9 372.2h2.9v2.6h-2.9zM419 374.8h27.7v1.2H419zM444 376h27.7v1.2H444zM445.4 380.3v-5.6M114.5 245.2h60.4v1.4h-60.4zM169.8 246.6l2.6 14.9 2.5-14.9M119.5 246.6l-2.5 14.9-2.5-14.9M327.4 38.5h-1.2v2h-.7v2.7h1.9zM290.7 40.5h-.7v-2h-1.2v4.7h1.9z" class="st17"/><path d="M326.17 40.39h-36.3v-1.9h36.3z" class="st17"/><path d="M290 38.5c0-19.7 16.2-35.7 36.3-35.7v35.7M395.8 223.6h5.2v1.2h-1.4v.7h-.7v-.7h-3.1z" class="st17"/><path d="M439.502 226.124h-38.6v-1.4h38.6zM399.6 224.8h1.3v38.6h-1.3z" class="st17"/><path d="M401 263.4c21.3 0 38.6-17.3 38.6-38.6M395.8 264.5h5.2v-1.1h-1.4v-.7h-.7v.7h-3.1zM454.4 248h60.4v1.4h-60.4zM509.8 249.4l2.5 14.9 2.6-14.9M459.5 249.4l-2.6 14.9-2.5-14.9M481.6 436.3v-1.2h-1.9v-.7H477v1.9zM479.7 397.2v-.6h1.9v-1.2H477v1.8z" class="st17"/><path d="M479.637 435.036v-38.5h1.9v38.5zM481.6 396.6c21 0 38 17.2 38 38.3h-38" class="st17"/><circle cx="389" cy="433.7" r="1.6" class="st17"/><path d="M102.6 406.3h1.2V436h-1.2zM102 404h2.3v2.3H102zM102 436.1h2.3v2.3H102z" class="st17"/><circle cx="93.7" cy="433.7" r="1.6" class="st17"/><path d="M413.3 447.2h61.6M78.7 447.2h9.6" class="st17"/><path d="M99 447h8.4v184.8H99zM474.9 447.2h8.4v184.6h-8.4zM539 631.8H78.7M78.7 640.2H539" class="st31"/><path d="M384.4 430.1h9.3v8.3h-9.3zM89.2 430.1h9.2v8.3h-9.2zM118 447.2h265.5M470.5 584.5h4.4v2.8h-4.4zM466.9 586.4h1v-1h-1v-.5h3.4v2h-3.4z" class="st17"/><path d="M447.2 585.4H468v1.1h-20.8zM470.5 491.5h4.4v2.8h-4.4zM466.9 493.4h1v-1h-1v-.5h3.4v2h-3.4z" class="st17"/><path d="M447.2 492.4H468v1.1h-20.8z" class="st17"/><path d="M480.9 436.3v.7h60.4v10.2h-66.4V437h2.1v-.7M200.8 52H192V32.3H95v333.8H78.7v14.4h19.4V404h10.2v-23.5h27.4" class="st31"/><path d="M135.5 366.1h-24.1V246.6h3.1v-3.2h-3.1v-24.7h67.1v24.7h-3.6v3.2h60.8v-76" class="st31"/><path d="M231.9 170.6h-11.4" style="fill:none;stroke:#000;stroke-width:.5259"/><path d="M220.5 173.4h11v56.5h-10.7v12.5h-38.1v-68.5h1.6M184.3 170.6h-1.6v-1.1M179.9 169.5v33.7M178.3 204.3v1.6h-67v-74.8h28.4M139.7 126.4h-23.2V47.3H177v79h-.1M176.9 131.1h1.4v1.2M182.7 132.3V66.9H201v.3h1.4V55.3M239.6 55.3v11.9h3v2.5h4.6v-2.5h20.9v32.5h-25.5v2.6h.6l.1 24.1h-10.9v3.3M396.3 264.5v101.6H349M327.4 42.5h5.4v46.7h-49.5V42.5h5.5M418.4 380.5h-69.6M400.5 264.5v101.6h17.7" class="st31"/><path d="M327.4 38.5v-6.2h11v46.5h69.5v123.9l131.1-.1v189.5h-53.9v2.6h-4.2v.7M257.3 52h15.8V32.3h15.7v6.2M208.2 380.5h2.7v11.6h56.7v-11.6h4M271.4 366.1h-63M383.5 438.4v9.8h9.1V447h11.6v1.2h9.1v-9.8zM88.3 438.4v9.8h9V447H109v1.2h9v-9.8z" class="st31"/><path d="M345.4 91.3h8.1v9.5h-8.1zM356.1 194.2h12.4v9.1h-12.4zM223.4 369.4H255v10.2h-31.6zM108.6 44.8h6.9v82.6h-6.9zM224.1 233.1h8.4v9.3h-8.4zM477 395.4v-.7h-2.1v-14.2h-2.6M472.6 366.1h52V249.4h-9.7v-3.2h9.7v-24.7h-79.9v24.7h9.7v3.2h-13v-27.9h-40.9v2.1" class="st31"/><path d="M396.3 223.6v-2.1H389v-26.4h-17.2v11.4h-18.9v-11.8h-6.2V191h42.8V93.2h-33.2v10.5h-70.2V125h-12.6v-3.2h9.3v-18.1h-36.3v26h-10.4M487.4 369.4h39.1v10.2h-39.1z" class="st31"/><path d="M219.1 398c-.2.7-.4 1.3-.6 1.8l-.2-.2c.2-.5.4-1.1.6-1.8l.2.2zm-.1-1.4-.1.3c-.1-.1-.3-.3-.5-.4l.1-.3c.2.1.3.3.5.4zm.2-1.3-.2.3-.5-.5.2-.3c.2.2.4.3.5.5zm2.5 4h.3v.4h-3v-.4h.4v-1.7h2.2v1.7zm-2.1-2.2v-2.2h1.8v2.2h-1.8zm.5 2.2V398h-.4v1.3h.4zm-.2-3.5h1.3v-.5h-1.3v.5zm0 .3v.6h1.3v-.6h-1.3zm.9 3.2V398h-.4v1.3h.4zm.6 0V398h-.4v1.3h.4zM223.7 396.4c-.1.8-.2 1.3-.4 1.7-.2.5-.4.9-.7 1.3-.1-.1-.1-.3-.2-.3.3-.3.5-.7.7-1.1.1-.4.3-.9.3-1.4h-.9v-.4h1l.2.2zm.6-1.7v.9c.1.5.2.9.3 1.3.3-.3.6-.6.9-1l.2.3c-.3.4-.6.8-.9 1.1.1.1.1.3.2.4.3.6.6 1 1 1.3-.1.1-.1.2-.2.4-.4-.3-.8-.8-1-1.4-.2-.4-.3-.8-.4-1.2v2.7c0 .1-.1.2-.1.3-.1.1-.3.1-.4.1 0-.1 0-.3-.1-.4h.3s.1 0 .1-.1v-4.6h.1zM226.6 399l-.3-.3c.3-.5.5-1 .8-1.7l.3.2c-.2.7-.5 1.3-.8 1.8zm1.5-2.6v3.2h-.3v-3.2h-1.5v-.4h1.5v-1.2h.3v1.2h1.6v.4h-1.6zm1.4 2.5c-.3-.5-.6-1-.9-1.7l.3-.3c.3.7.6 1.2.9 1.7-.2.1-.2.2-.3.3zm-.3-3.1c-.1-.2-.2-.4-.4-.6l.1-.2c.2.2.3.4.5.5l-.2.3zm.3-.4c-.1-.2-.2-.4-.4-.6l.1-.2c.2.2.3.4.5.5l-.2.3zM232 396.5v3.2h-.3v-2.8c-.5.6-1 1-1.5 1.3 0-.2-.1-.3-.2-.4.5-.3 1-.7 1.4-1.2.4-.5.8-1.1 1.2-1.7l.3.4-.9 1.2zM235.5 398.7c-.3.4-.8.8-1.5 1.1 0-.1-.1-.3-.1-.4.6-.2 1-.4 1.3-.8.3-.4.6-.9.9-1.7h-2.6v-.4h2.8l.2.3c-.3.8-.6 1.4-1 1.9zm-1.6-3.2v-.4h2.1v.4h-2.1zM236.9 397.4v-.4h3.1v.4h-3.1zM246.9 405.1c-.1.2-.3.3-.4.4h1.4l.2.3c-.6.6-1.1 1-1.5 1.3-.5.3-1.2.7-2.1 1 0-.1-.1-.2-.2-.4.6-.2 1.1-.4 1.8-.8l-.6-.6.3-.2c.3.2.4.4.6.6.5-.3.9-.6 1.2-1H246c-.1.1-.2.2-.3.2-.4.3-.9.5-1.3.7-.1-.1-.1-.2-.2-.3.4-.1.8-.3 1.2-.6.4-.2.8-.6 1.1-.9l.4.3zm.9 2c-.2.2-.5.4-.7.6h1.5l.2.3c-.4.6-1 1.1-1.6 1.4-.7.4-1.6.7-2.7.9-.1-.1-.1-.3-.2-.4.8-.1 1.6-.2 2.3-.6-.2-.2-.4-.4-.6-.7l.3-.2.7.7c.5-.3.9-.6 1.3-1.1h-1.7l-.1.1c-.4.3-1 .5-1.7.8l-.3-.3c.6-.2 1.2-.4 1.7-.7.4-.2.8-.6 1.2-1l.4.2zM253.8 410h-.4v-.3H251v.4h-.4v-4.6h3.2v4.5zm-.4-3.3v-.9H251v.9h2.4zm0 1.3v-.9H251v.9h2.4zm0 1.3v-.9H251v.9h2.4zM256.9 405.1l-.2.8h.7v3.8h-.4v-.3h-1v.4h-.4v-3.9h.7l.1-.9.5.1zm.2 2.4v-1.2h-1v1.2h1zm0 1.6v-1.3h-1v1.3h1zm1.8-4c-.1.3-.2.6-.2.9h1.7v1.7c0 1.1 0 1.7-.1 2 0 .2-.1.3-.2.3-.2.1-.4.1-.8.1 0-.1-.1-.3-.2-.4h.6c.1 0 .2-.1.2-.2 0-.2.1-.8.1-1.8v-1.3h-1.4v.1c-.1.4-.3.7-.5 1.1-.1-.1-.2-.2-.3-.2.2-.4.4-.8.5-1.2.1-.4.2-.7.3-1.1h.3zm.4 3-.3.3c-.2-.2-.4-.5-.7-.8l.2-.3c.4.2.6.5.8.8zM239.7 416.6c-.5-.6-1-1.3-1.7-1.9-.6.7-1.4 1.3-2.3 1.9-.1-.2-.2-.3-.3-.4.8-.4 1.5-.8 2-1.3.4-.4.9-1.1 1.5-2H236v-.4h3.2l.3.3c-.4.6-.7 1.2-1 1.6.7.6 1.3 1.2 1.8 1.9l-.6.3zM244.2 416.5v-.4h-2.9v.4h-.4v-3.8h3.8v3.8h-.5zm0-3.4h-2.9v2.6h2.9v-2.6zM246 414.9c-.1-.3-.3-.6-.6-1l.3-.2c.2.3.4.7.6 1l-.3.2zm2.5.2c-.3.5-.6.9-1 1.2-.3.3-.8.5-1.3.7-.1-.1-.1-.3-.2-.4.5-.1.9-.3 1.2-.6.3-.2.6-.6.9-1 .2-.4.4-.8.5-1.4l.4.1c-.1.6-.3 1.1-.5 1.4zm-1.5-.5c-.1-.3-.3-.7-.5-1l.3-.1c.2.4.4.7.5 1l-.3.1zM252.5 415.4c-.5.6-1.2 1-2.2 1.4 0-.1-.1-.3-.2-.4.8-.3 1.5-.6 2-1.2.5-.5.9-1.2 1.2-2.1h-3.6v-.4h3.8l.3.3c-.4 1.1-.9 1.9-1.3 2.4zm1.9-2.8c-.1.1-.2.2-.4.2s-.3-.1-.4-.2c-.1-.1-.2-.2-.2-.4s.1-.3.2-.4c.1-.1.2-.2.4-.2.1 0 .3.1.4.2.1.1.2.2.2.4s-.1.3-.2.4zm-.2-.6c-.1-.1-.1-.1-.2-.1-.2 0-.3.1-.3.3 0 .1 0 .2.1.2.1.1.1.1.2.1s.2 0 .2-.1c.1-.1.1-.1.1-.2s0-.1-.1-.2zM256 414.6c-.3-.2-.7-.4-1-.5l.2-.4c.4.1.8.3 1.1.5l-.3.4zm1.6 1c-.6.4-1.3.8-2.2 1.1l-.2-.5c1.6-.5 2.9-1.4 3.9-2.7l.3.3c-.6.8-1.2 1.4-1.8 1.8zm-1-2.4c-.4-.2-.7-.4-1-.6l.2-.4c.4.2.8.4 1.1.6l-.3.4zM262.5 415.4c-.6.4-1.3.9-2.2 1.3l-.3-.5c1.5-.5 2.9-1.5 4-2.9l.3.3c-.6.8-1.2 1.4-1.8 1.8zm-1.2-1.7c-.4-.4-.8-.7-1.2-1l.3-.4c.5.3.9.6 1.3.9l-.4.5zM267.8 415.5c-.6.6-1.3 1-2.2 1.3-.1-.1-.1-.3-.2-.4.8-.2 1.5-.6 2-1 .4-.4.8-1.1 1.2-1.9h-1.8c-.4.6-.8 1.2-1.3 1.6-.1-.1-.2-.2-.4-.3l1.1-1.1c.2-.3.5-.8.8-1.4l.5.2c-.1.2-.2.4-.4.7H269l.3.3c-.6.7-1 1.5-1.5 2zM276.3 520.3v-1.2h1v1.2h5.4v.8h-5.4v1.1h4.3v4.5h-1.8v1.1h3.3v.8h-3.3v2.3c0 .3-.2.6-.5.7-.4.2-.9.3-1.6.3 0-.4-.1-.7-.4-1.1h1.2c.2 0 .3-.1.3-.2v-2h-8.3v-.8h8.3v-1.1h-6.7v-4.5h4.2v-1.1h-5.5v-.8h5.5zm-1 10.1-.8.7c-.4-.6-.9-1.2-1.5-1.8l.7-.6c.6.6 1.1 1.2 1.6 1.7zm-2.3-6.3h3.2V523H273v1.1zm3.3.7H273v1.1h3.2v-1.1zm1-.7h3.4V523h-3.4v1.1zm0 .7v1.1h3.4v-1.1h-3.4zM296.2 520.1v10.8c0 .5-.1.8-.4.9-.3.1-.8.2-1.6.3 0-.4-.1-.7-.3-1.1h1.1c.1 0 .2-.1.2-.3v-3.3h-3.7v4.6h-1v-4.6h-3.4c-.2 1.9-.8 3.5-1.7 4.8-.3-.4-.6-.7-.8-.9 1.1-1.3 1.7-3.1 1.7-5.4v-5.8h9.9zm-5.6 6.4v-2.3h-3.3v2.3h3.3zm0-3.2V521h-3.3v2.3h3.3zm1 0h3.7V521h-3.7v2.3zm0 3.2h3.7v-2.3h-3.7v2.3zM306.3 519.1v1.3h5.2v.9h-10.3v3.7c0 1.7-.1 2.9-.2 3.8-.2 1.1-.6 2.1-1.1 3.2-.2-.3-.5-.5-.9-.7.5-.9.8-1.8 1-2.8.2-.7.2-1.9.2-3.5v-4.6h5.1v-1.3h1zm-1.5 3.8c-.4.9-.9 1.7-1.3 2.5h1.8c-.1 1.8-.3 3.1-.8 4 0 .1-.1.2-.1.2.2.2.4.3.6.4.9.5 1.9.7 3 .7h4c-.2.2-.3.5-.3.9h-3.5c-1.3 0-2.5-.3-3.7-.9-.3-.1-.5-.3-.7-.4-.5.6-1.2 1.1-2.1 1.6-.2-.3-.4-.6-.7-.8.9-.4 1.6-.9 2.1-1.4-.5-.6-.9-1.4-1.2-2.5l.8-.3c.2.9.5 1.5.9 2.1.4-.7.6-1.6.6-2.7H303c-.1.1-.1.2-.2.3l-.8-.4c.7-1.1 1.2-2.1 1.5-2.9h-1.8v-.9h2.1l.2-.1.8.6zm6.5 0c-.7.2-1.3.4-2 .5v2h2.5v.9h-2.5v2.2h2v.9h-5v-.9h2.1v-2.2h-2.5v-.9h2.5v-1.8c-.8.2-1.5.3-2.2.3 0-.2-.2-.5-.4-.9 1.7-.1 3.3-.5 4.9-1l.6.9zM198.4 128.3c-.2-.2-.5-.4-.8-.6.8-.9 1.5-2.1 2.2-3.4l.8.4c-.7 1.4-1.4 2.5-2.2 3.6zm4.3-5.2v6.5h-.8v-6.5h-4.2v-.8h4.2v-2.5h.8v2.5h4.5v.8h-4.5zm3.9 4.9c-.9-.9-1.8-2.1-2.5-3.4l.8-.5c.8 1.3 1.6 2.4 2.5 3.3-.4.2-.6.4-.8.6zM208.2 125.2v-.8h8.9v.8h-8.9zM220.9 125.6c-.4 1.4-1.2 2.7-2.4 3.7-.2-.3-.4-.5-.6-.8.9-.7 1.6-1.4 2-2.4.3-.8.5-1.8.6-3V121h.8c0 2.2-.2 3.7-.4 4.6zm2.9 3.5-.6-.7.1-.1v-7.9h.9v7.4c1.2-.9 2.4-2 3.5-3.5.2.2.4.4.7.6-1.6 1.7-3.1 3.2-4.6 4.2zM154.1 145.8v-.7h5.5l.4-4.2h-4.8v-.7h5.5l-.4 5h2.3v.7h-8.5zM158 154.7V147h.7v7.6h-.7zM158.8 158.8c-.1 1.5-.4 2.5-.8 3.1-.4.6-1.2 1.2-2.5 1.8-.1-.2-.3-.5-.5-.7 1.2-.4 1.9-.9 2.3-1.4.4-.5.6-1.4.7-2.7h-4v-.7h8.4v.7h-3.6zm-3.3-2.2v-.7h5.6v.7h-5.6zM160.7 167.1v4.3h-.6v-3.8c-.8.7-1.8 1.3-2.9 1.8l-.3-.6c.9-.4 1.8-.9 2.8-1.7.9-.7 1.7-1.4 2.3-2.3l.6.5c-.7.7-1.4 1.3-1.9 1.8zM155.8 177.4v-4.6h.7v4.6h-.7zm4.9-2.7c0 1.2-.1 2.1-.3 2.7-.2.7-.5 1.3-1 1.8s-1.3.8-2.4 1.2c-.1-.3-.2-.5-.4-.7 1.4-.4 2.3-.9 2.8-1.6.4-.6.6-1.7.6-3.3v-2.5h.7v2.4zM158.8 184.7c-.1 1.5-.4 2.5-.8 3.1-.4.6-1.2 1.2-2.5 1.8-.1-.2-.3-.5-.5-.7 1.2-.4 1.9-.9 2.3-1.4.4-.5.6-1.4.7-2.7h-4v-.7h8.4v.7h-3.6zm-3.3-2.3v-.7h5.6v.7h-5.6zM160.7 192.9v4.3h-.6v-3.8c-.8.7-1.8 1.3-2.9 1.8l-.3-.6c.9-.4 1.8-.9 2.8-1.7.9-.7 1.7-1.4 2.3-2.3l.6.5c-.7.7-1.4 1.3-1.9 1.8zM361.5 198.9c-.3.2-.6.3-1 .3h-1.3v2h-.5v-4.6h1.6c.5 0 .9.1 1.2.3.4.2.5.6.5 1s-.2.7-.5 1zm-1.1-1.8h-1.2v1.7h1.2c.7 0 1.1-.3 1.1-.8-.1-.7-.4-.9-1.1-.9zM365.5 201c-.3.2-.7.3-1.1.3-.5 0-.8-.1-1.2-.3-.3-.2-.5-.6-.6-1h.6c.1.3.2.6.4.7.2.1.4.2.8.2.3 0 .5-.1.7-.2.2-.2.4-.4.4-.6 0-.3-.4-.6-1.1-.9-1-.4-1.5-.9-1.5-1.4 0-.4.2-.7.5-.9.3-.2.6-.3 1-.3.7 0 1.2.4 1.5 1.2h-.6c-.2-.5-.5-.7-.9-.7-.3 0-.5.1-.7.2-.2.1-.3.3-.3.6 0 .2.2.5.7.7.4.2.8.5 1.3.7.5.3.7.6.7 1 0 .1-.2.5-.6.7zM348.8 96.2c-.2.2-.5.3-.8.3h-1.1v2h-.4V94h1.3c.4 0 .7.1 1 .3.3.2.4.6.4 1-.1.4-.2.7-.4.9zm-.9-1.8h-1v1.7h.9c.6 0 .9-.3.9-.8 0-.6-.3-.9-.8-.9zM352 98.4c-.3.2-.5.3-.9.3s-.7-.1-.9-.3c-.2-.2-.4-.6-.5-1h.5c.1.3.2.6.3.7.1.1.3.2.6.2.2 0 .4-.1.6-.2.2-.2.3-.4.3-.6 0-.3-.3-.6-.9-.9-.8-.4-1.2-.9-1.2-1.4 0-.4.1-.7.4-.9.2-.2.5-.3.8-.3.6 0 1 .4 1.2 1.2h-.5c-.2-.5-.4-.7-.7-.7-.2 0-.4.1-.5.2-.2.1-.2.3-.2.6 0 .2.2.5.6.7.3.2.7.5 1 .7.4.3.6.6.6 1-.2.1-.3.4-.6.7zM227.5 237.9c-.3.2-.6.3-.9.3h-1.2v2h-.5v-4.6h1.4c.4 0 .8.1 1.1.3.3.2.5.6.5 1 0 .5-.1.8-.4 1zm-1-1.8h-1.1v1.7h1c.7 0 1-.3 1-.8 0-.6-.3-.9-.9-.9zM231.1 240c-.3.2-.6.3-1 .3s-.8-.1-1-.3c-.3-.2-.5-.6-.6-1h.6c.1.3.2.6.3.7.2.1.4.2.7.2.2 0 .5-.1.6-.2.2-.2.3-.4.3-.6 0-.3-.3-.6-1-.9-.9-.4-1.4-.9-1.4-1.4 0-.4.1-.7.5-.9.3-.2.6-.3.9-.3.7 0 1.1.4 1.4 1.2h-.5c-.2-.5-.5-.7-.8-.7-.2 0-.4.1-.6.2-.2.1-.3.3-.3.6 0 .2.2.5.6.7.4.2.8.5 1.2.7.4.3.6.6.6 1 0 .2-.2.5-.5.7zM113.2 82.3c-.3.2-.6.3-1 .3h-1.3v2h-.5V80h1.6c.5 0 .9.1 1.2.3.4.2.5.6.5 1 0 .5-.2.8-.5 1zm-1.1-1.8h-1.2v1.7h1.2c.7 0 1.1-.3 1.1-.8-.1-.6-.4-.9-1.1-.9zM113.2 91.8c-.3.2-.7.3-1.1.3-.5 0-.8-.1-1.2-.3-.3-.2-.5-.6-.6-1h.6c.1.3.2.6.4.7.2.1.4.2.8.2.3 0 .5-.1.7-.2.2-.2.4-.4.4-.6 0-.3-.4-.6-1.1-.9-1-.4-1.5-.9-1.5-1.4 0-.4.2-.7.5-.9.3-.2.6-.3 1-.3.7 0 1.2.4 1.5 1.2h-.6c-.2-.5-.5-.7-.9-.7-.3 0-.5.1-.7.2-.2.1-.3.3-.3.6 0 .2.2.5.7.7.4.2.8.5 1.3.7.5.3.7.6.7 1-.1.2-.3.5-.6.7zM237.2 374.6c-.3.2-.6.3-1 .3h-1.3v2h-.5v-4.6h1.6c.5 0 .9.1 1.2.3.4.2.5.6.5 1-.1.4-.2.7-.5 1zm-1.1-1.8h-1.2v1.7h1.2c.7 0 1.1-.3 1.1-.8-.1-.7-.5-.9-1.1-.9zM243.7 376.7c-.3.2-.7.3-1.1.3-.5 0-.8-.1-1.2-.3-.3-.2-.5-.6-.6-1h.6c.1.3.2.6.4.7.2.1.4.2.8.2.3 0 .5-.1.7-.2.2-.2.4-.4.4-.6 0-.3-.4-.6-1.1-.9-1-.4-1.5-.9-1.5-1.4 0-.4.2-.7.5-.9.3-.2.6-.3 1-.3.7 0 1.2.4 1.5 1.2h-.6c-.2-.5-.5-.7-.9-.7-.3 0-.5.1-.7.2-.2.1-.3.3-.3.6 0 .2.2.5.7.7.4.2.9.5 1.3.7.5.3.7.6.7 1-.1.1-.3.5-.6.7zM504.9 374.6c-.3.2-.6.3-1 .3h-1.3v2h-.6v-4.6h1.6c.5 0 .9.1 1.2.3.4.2.5.6.5 1s-.1.7-.4 1zm-1.1-1.8h-1.2v1.7h1.2c.7 0 1.1-.3 1.1-.8-.1-.7-.5-.9-1.1-.9zM511.4 376.7c-.3.2-.7.3-1.1.3-.5 0-.8-.1-1.2-.3-.3-.2-.5-.6-.6-1h.6c.1.3.2.6.4.7.2.1.4.2.8.2.3 0 .5-.1.7-.2.2-.2.4-.4.4-.6 0-.3-.4-.6-1.1-.9-1-.4-1.5-.9-1.5-1.4 0-.4.2-.7.5-.9.3-.2.6-.3 1-.3.7 0 1.2.4 1.5 1.2h-.6c-.2-.5-.5-.7-.9-.7-.3 0-.5.1-.7.2-.2.1-.3.3-.3.6 0 .2.2.5.7.7.4.2.9.5 1.3.7.5.3.7.6.7 1-.1.1-.3.5-.6.7zM275.7 354.2c0 .6-.1 1.1-.1 1.4 0 .2-.1.3-.2.4-.1.1-.4.1-.9.2 0-.1-.1-.3-.1-.4h.4c.2 0 .3-.1.3-.2.1-.2.1-.5.1-1v-1.3H274c-.1.8-.3 1.4-.6 1.9s-.7.9-1.3 1.3c-.1-.1-.2-.3-.3-.4.5-.3 1-.7 1.2-1.1.3-.4.5-1 .5-1.6h-1.4v-.4h1.4v-1.2h.5v1.2h1.7v1.2zM276.3 354.1v-.4h4.2v.4h-4.2zM283.5 353.6c-.1.9-.2 1.5-.5 1.8-.2.3-.7.7-1.4 1-.1-.1-.1-.3-.3-.4.6-.2 1.1-.5 1.3-.8.2-.3.3-.8.4-1.6h-2.2v-.4h4.7v.4h-2zm-1.8-1.3v-.4h3.1v.4h-3.1zM288.5 354.9c-.6.4-1.3.9-2.1 1.3l-.2-.5c1.5-.5 2.7-1.5 3.8-2.9l.3.3c-.7.8-1.3 1.4-1.8 1.8zm-1.2-1.8c-.4-.4-.8-.7-1.2-1l.3-.4c.4.3.9.6 1.2.9l-.3.5zM291.1 355.7c-.1-.1-.2-.2-.4-.3.4-.5.7-1 1-1.7l.4.2c-.3.7-.6 1.3-1 1.8zm2-2.6v3.2h-.4v-3.2h-2v-.4h2v-1.2h.4v1.2h2.2v.4h-2.2zm1.9 2.5c-.4-.5-.8-1-1.2-1.7l.4-.3c.4.7.8 1.2 1.2 1.7-.2.1-.3.2-.4.3zm-.4-3.1c-.1-.2-.3-.4-.6-.6l.2-.2c.3.2.5.4.6.5l-.2.3zm.4-.4c-.1-.2-.3-.4-.6-.6l.2-.2c.3.2.5.4.6.5l-.2.3zM296.3 354.4c-.1-.3-.3-.6-.5-1l.3-.2c.2.3.4.7.6 1l-.4.2zm2.4.2c-.2.5-.5.9-.9 1.2-.3.3-.7.5-1.3.7-.1-.1-.1-.3-.2-.4.5-.1.9-.3 1.2-.6.3-.2.6-.6.9-1 .2-.4.4-.8.5-1.4l.4.1c-.3.6-.5 1-.6 1.4zm-1.4-.5c-.1-.3-.3-.7-.4-1l.3-.1c.2.4.4.7.5 1l-.4.1zM302.4 354.9c-.5.6-1.2 1-2.1 1.3-.1-.1-.1-.3-.2-.4.8-.2 1.4-.6 1.9-1 .4-.4.8-1.1 1.1-1.9h-1.7c-.4.6-.8 1.2-1.3 1.6-.1-.1-.2-.2-.4-.3.4-.4.8-.8 1-1.1.2-.3.4-.8.7-1.4l.4.2c-.1.2-.2.4-.3.7h1.8l.3.3c-.3.8-.7 1.5-1.2 2zM308.3 356.1c-.4-.6-1-1.3-1.6-1.9-.6.7-1.3 1.3-2.2 1.9-.1-.2-.2-.3-.3-.4.8-.4 1.4-.8 1.9-1.3.4-.4.9-1.1 1.4-2h-2.8v-.4h3l.3.3c-.3.6-.7 1.2-1 1.6.7.6 1.2 1.2 1.7 1.9l-.4.3zM310.6 354.3h-.6l-.1-.1v-.6l.1-.1h.6l.1.1v.6l-.1.1zM315.9 354.2c0 .6-.1 1.1-.1 1.4 0 .2-.1.3-.2.4-.1.1-.4.1-.9.2 0-.1-.1-.3-.1-.4h.4c.2 0 .3-.1.3-.2.1-.2.1-.5.1-1v-1.3h-1.3c-.1.8-.3 1.4-.6 1.9s-.7.9-1.3 1.3c-.1-.1-.2-.3-.3-.4.5-.3 1-.7 1.2-1.1.3-.4.5-1 .5-1.6h-1.4v-.4h1.4v-1.2h.5v1.2h1.7l.1 1.2zM316.5 354.1v-.4h4.2v.4h-4.2zM323.7 353.6c-.1.9-.2 1.5-.5 1.8-.2.3-.7.7-1.4 1-.1-.1-.1-.3-.3-.4.6-.2 1.1-.5 1.3-.8.2-.3.3-.8.4-1.6H321v-.4h4.7v.4h-2zm-1.8-1.3v-.4h3.1v.4h-3.1zM328.7 354.9c-.6.4-1.3.9-2.1 1.3l-.2-.5c1.5-.5 2.7-1.5 3.8-2.9l.3.3c-.7.8-1.3 1.4-1.8 1.8zm-1.2-1.8c-.4-.4-.8-.7-1.2-1l.3-.4c.4.3.9.6 1.2.9l-.3.5zM333.7 354.6c-.4.4-.9.7-1.4 1-.4.2-.7.4-.8.5l-.4-.3v-4h.4v3.7c.7-.4 1.3-.7 1.7-1 .4-.3.9-.8 1.3-1.4l.3.3c-.3.4-.7.8-1.1 1.2zM335.3 354.1v-.4h4.2v.4h-4.2zM341.4 354.4c-.2.7-.6 1.3-1.2 1.9-.1-.1-.2-.3-.3-.4.4-.3.7-.7.9-1.2.2-.4.2-.9.3-1.5v-1h.4c0 .9 0 1.7-.1 2.2zm1.3 1.7-.3-.3v-4.1h.4v3.7c.6-.4 1.1-1 1.7-1.8l.3.3c-.6 1-1.3 1.7-2.1 2.2zM348.3 355.9h-.4l-.7-2.9-.8 2.9h-.4l-.9-3.6h.4l.7 2.9.8-2.9h.4l.7 2.9.7-2.9h.4l-.9 3.6zM429.1 354.2c0 .6-.1 1.1-.1 1.4 0 .2-.1.3-.2.4-.1.1-.4.1-.9.2 0-.1-.1-.3-.1-.4h.4c.2 0 .3-.1.3-.2.1-.2.1-.5.1-1v-1.3h-1.3c-.1.8-.3 1.4-.6 1.9s-.7.9-1.3 1.3c-.1-.1-.2-.3-.3-.4.5-.3 1-.7 1.2-1.1.3-.4.5-1 .5-1.6h-1.4v-.4h1.4v-1.2h.5v1.2h1.7l.1 1.2zM429.7 354.1v-.4h4.2v.4h-4.2zM436.9 353.6c-.1.9-.2 1.5-.5 1.8-.2.3-.7.7-1.4 1-.1-.1-.1-.3-.3-.4.6-.2 1.1-.5 1.3-.8.2-.3.3-.8.4-1.6h-2.2v-.4h4.7v.4h-2zm-1.8-1.3v-.4h3.1v.4h-3.1zM441.8 354.9c-.6.4-1.3.9-2.1 1.3l-.2-.5c1.5-.5 2.7-1.5 3.8-2.9l.3.3c-.6.8-1.2 1.4-1.8 1.8zm-1.1-1.8c-.4-.4-.8-.7-1.2-1l.3-.4c.4.3.9.6 1.2.9l-.3.5zM446.9 354.6c-.4.4-.9.7-1.4 1-.4.2-.7.4-.8.5l-.4-.3v-4h.4v3.7c.7-.4 1.3-.7 1.7-1 .4-.3.9-.8 1.3-1.4l.3.3c-.3.4-.7.8-1.1 1.2zM448.5 354.1v-.4h4.2v.4h-4.2zM454.5 354.4c-.2.7-.6 1.3-1.2 1.9-.1-.1-.2-.3-.3-.4.4-.3.7-.7.9-1.2.2-.4.2-.9.3-1.5v-1h.4c.1.9.1 1.7-.1 2.2zm1.4 1.7-.3-.3v-4.1h.4v3.7c.6-.4 1.1-1 1.7-1.8l.3.3c-.6 1-1.4 1.7-2.1 2.2zM461.5 355.9h-.4l-.7-2.9-.8 2.9h-.4l-.9-3.6h.4l.7 2.9.8-2.9h.4l.7 2.9.7-2.9h.4l-.9 3.6zM137.3 354.2c0 .6-.1 1.1-.1 1.4 0 .2-.1.3-.2.4-.1.1-.4.1-.9.2 0-.1-.1-.3-.1-.4h.4c.2 0 .3-.1.3-.2.1-.2.1-.5.1-1v-1.3h-1.3c-.1.8-.3 1.4-.6 1.9s-.7.9-1.3 1.3c-.1-.1-.2-.3-.3-.4.5-.3 1-.7 1.2-1.1.3-.4.5-1 .5-1.6h-1.4v-.4h1.4v-1.2h.5v1.2h1.7l.1 1.2zM137.8 354.1v-.4h4.2v.4h-4.2zM145.1 353.6c-.1.9-.2 1.5-.5 1.8-.2.3-.7.7-1.4 1-.1-.1-.1-.3-.3-.4.6-.2 1.1-.5 1.3-.8.2-.3.3-.8.4-1.6h-2.2v-.4h4.7v.4h-2zm-1.9-1.3v-.4h3.1v.4h-3.1zM150 354.9c-.6.4-1.3.9-2.1 1.3l-.2-.5c1.5-.5 2.7-1.5 3.8-2.9l.3.3c-.7.8-1.2 1.4-1.8 1.8zm-1.1-1.8c-.4-.4-.8-.7-1.2-1l.3-.4c.4.3.9.6 1.2.9l-.3.5zM152.7 355.7c-.1-.1-.2-.2-.4-.3.4-.5.7-1 1-1.7l.4.2c-.3.7-.7 1.3-1 1.8zm2-2.6v3.2h-.4v-3.2h-2v-.4h2v-1.2h.4v1.2h2.2v.4h-2.2zm1.8 2.5c-.4-.5-.8-1-1.2-1.7l.4-.3c.4.7.8 1.2 1.2 1.7-.2.1-.3.2-.4.3zm-.4-3.1c-.1-.2-.3-.4-.6-.6l.2-.2c.3.2.5.4.6.5l-.2.3zm.4-.4c-.1-.2-.3-.4-.6-.6l.2-.2c.3.2.5.4.6.5l-.2.3zM157.8 354.4c-.1-.3-.3-.6-.5-1l.3-.2c.2.3.4.7.6 1l-.4.2zm2.4.2c-.2.5-.5.9-.9 1.2-.3.3-.7.5-1.3.7-.1-.1-.1-.3-.2-.4.5-.1.9-.3 1.2-.6.3-.2.6-.6.9-1 .2-.4.4-.8.5-1.4l.4.1c-.2.6-.4 1-.6 1.4zm-1.4-.5c-.1-.3-.3-.7-.4-1l.3-.1c.2.4.4.7.5 1l-.4.1zM163.9 354.9c-.5.6-1.2 1-2.1 1.3-.1-.1-.1-.3-.2-.4.8-.2 1.4-.6 1.9-1 .4-.4.8-1.1 1.1-1.9h-1.7c-.4.6-.8 1.2-1.3 1.6-.1-.1-.2-.2-.4-.3.4-.4.8-.8 1-1.1.2-.3.4-.8.7-1.4l.4.2c-.1.2-.2.4-.3.7h1.8l.3.3c-.3.8-.7 1.5-1.2 2zM169.8 356.1c-.4-.6-1-1.3-1.6-1.9-.6.7-1.3 1.3-2.2 1.9-.1-.2-.2-.3-.3-.4.8-.4 1.4-.8 1.9-1.3.4-.4.9-1.1 1.4-2h-2.8v-.4h3l.3.3c-.3.6-.7 1.2-1 1.6.7.6 1.2 1.2 1.7 1.9l-.4.3zM172.2 354.3h-.6l-.1-.1v-.6l.1-.1h.6l.1.1v.6l-.1.1zM177.5 354.2c0 .6-.1 1.1-.1 1.4 0 .2-.1.3-.2.4-.1.1-.4.1-.9.2 0-.1-.1-.3-.1-.4h.4c.2 0 .3-.1.3-.2.1-.2.1-.5.1-1v-1.3h-1.3c-.1.8-.3 1.4-.6 1.9s-.7.9-1.3 1.3c-.1-.1-.2-.3-.3-.4.5-.3 1-.7 1.2-1.1.3-.4.5-1 .5-1.6h-1.4v-.4h1.4v-1.2h.5v1.2h1.7l.1 1.2zM178 354.1v-.4h4.2v.4H178zM185.2 353.6c-.1.9-.2 1.5-.5 1.8-.2.3-.7.7-1.4 1-.1-.1-.1-.3-.3-.4.6-.2 1.1-.5 1.3-.8.2-.3.3-.8.4-1.6h-2.2v-.4h4.7v.4h-2zm-1.8-1.3v-.4h3.1v.4h-3.1zM190.2 354.9c-.6.4-1.3.9-2.1 1.3l-.2-.5c1.5-.5 2.7-1.5 3.8-2.9l.3.3c-.7.8-1.3 1.4-1.8 1.8zm-1.1-1.8c-.4-.4-.8-.7-1.2-1l.3-.4c.4.3.9.6 1.2.9l-.3.5zM195.3 354.6c-.4.4-.9.7-1.4 1-.4.2-.7.4-.8.5l-.4-.3v-4h.4v3.7c.7-.4 1.3-.7 1.7-1 .4-.3.9-.8 1.3-1.4l.3.3c-.3.4-.7.8-1.1 1.2zM196.9 354.1v-.4h4.2v.4h-4.2zM202.9 354.4c-.2.7-.6 1.3-1.2 1.9-.1-.1-.2-.3-.3-.4.4-.3.7-.7.9-1.2.2-.4.2-.9.3-1.5v-1h.4c.1.9 0 1.7-.1 2.2zm1.4 1.7-.3-.3v-4.1h.4v3.7c.6-.4 1.1-1 1.7-1.8l.3.3c-.7 1-1.4 1.7-2.1 2.2zM209.8 355.9h-.4l-.7-2.9-.8 2.9h-.4l-.9-3.6h.4l.7 2.9.8-2.9h.4l.7 2.9.7-2.9h.4l-.9 3.6zM192.5 185.5c-.5.7-1.4 1.2-2.6 1.6-.1-.2-.2-.4-.3-.5 1-.2 1.8-.6 2.2-1.2.5-.6.8-1.4.8-2.4h-3.4v1.6h-.5v-2.1h2v-1.2h.5v1.2h2c0 1.4-.2 2.4-.7 3zM197 184.3v2.3c0 .2 0 .4-.1.5-.1.1-.3.1-.7.2 0-.2-.1-.4-.1-.5h.3c.2 0 .2-.1.2-.2v-1.7c-.6.8-1.4 1.4-2.3 1.9-.1-.1-.2-.3-.3-.4 1-.5 1.8-1.2 2.4-2h-2.2v-.4h2.3v-1h.4v1h1.5v.4H197zM200.3 184.5l-1.2-.6.2-.4c.5.2.9.3 1.2.5l-.2.5zm1.9 1.1c-.7.5-1.5.9-2.5 1.3l-.3-.5c1.8-.6 3.3-1.6 4.5-3 .1.1.2.3.3.4-.7.7-1.3 1.3-2 1.8zm-1.2-2.7c-.4-.3-.8-.5-1.2-.7l.2-.4c.5.3.9.5 1.2.7l-.2.4zM204.9 186.8v-.4h2.9l.2-2.2h-2.5v-.4h2.9l-.2 2.6h1.3v.4h-4.6zM195.3 192.9c-.5.4-1.1.8-1.7 1.1-.5.2-.8.4-1 .6l-.4-.4v-4.6h.5v4.2c.9-.4 1.6-.8 2.1-1.2.5-.4 1-.9 1.6-1.6.1.1.2.3.4.4-.6.7-1.1 1.2-1.5 1.5zM198 192.7c-.2-.3-.4-.7-.7-1.1l.4-.2c.2.4.5.7.7 1.2l-.4.1zm2.9.2c-.3.6-.7 1-1.1 1.4-.4.3-.9.6-1.5.8-.1-.2-.2-.3-.3-.4.6-.2 1-.4 1.4-.6.4-.3.7-.7 1-1.2.2-.4.4-1 .6-1.7l.5.1c-.2.7-.4 1.2-.6 1.6zm-1.7-.5c-.1-.4-.3-.8-.5-1.1l.4-.2c.2.4.4.8.6 1.1l-.5.2zM205.9 192.9c-.7-.4-1.6-.8-2.7-1.2v3.3h-.5v-5.6h.5v1.8c1 .3 2 .7 3 1.2l-.3.5zM219.2 183.6c-.5.1-1.1.2-1.9.3v.8h2v.4h-2v.9h2.3v.4h-2.3v1.4c0 .1-.1.2-.3.3-.2.1-.4.1-.8.1 0-.1 0-.3-.2-.4h.6c.1 0 .1 0 .1-.1v-1.3h-2.2v-.4h2.2v-.9h-2v-.4h2v-.8c-.6.1-1.2.1-1.8.1-.1-.2-.1-.3-.2-.4.8 0 1.6-.1 2.2-.1.6-.1 1.2-.2 1.9-.3l.4.4zM215.7 192.2l-.9 1.8-.4-.2 1-1.8c.1.1.2.1.3.2zm-.3-1.3-.2.3c-.2-.2-.5-.4-.8-.5l.2-.3c.4.1.6.3.8.5zm.3-1.3-.2.3c-.2-.3-.5-.5-.7-.6l.2-.3c.2.1.5.4.7.6zm1.1-.4c-.1.3-.2.5-.3.7h.8v-1h.4v1h1.4v.3h-1.4v1h1.7v.3h-1.2v1.8c0 .1 0 .1.1.1h.6c.1 0 .2-.1.2-.1.1-.1.1-.2.1-.4.1.1.2.1.4.1 0 .2-.1.4-.2.6-.1.2-.2.2-.4.2h-.7c-.3 0-.4-.2-.4-.5v-1.8h-.8c0 .7-.1 1.2-.3 1.5-.2.3-.6.6-1.1.8-.1-.1-.1-.3-.2-.4.5-.2.9-.5 1-.8.1-.3.2-.6.2-1.1h-1.1v-.3h1.7v-1h-1c-.1.3-.3.5-.4.7-.1-.1-.2-.2-.3-.2.2-.3.4-.5.5-.8.1-.3.2-.5.3-.8l.4.1zM218.8 197.2c0 .6-.1 1.1-.1 1.4 0 .2-.1.3-.2.4-.1.1-.4.1-.9.2 0-.1-.1-.3-.1-.4h.5c.2 0 .3-.1.4-.2.1-.2.1-.5.1-1v-1.3H217c-.1.8-.3 1.4-.6 1.9s-.8.9-1.4 1.3c-.1-.1-.2-.3-.3-.4.6-.3 1-.7 1.3-1.1.3-.4.5-1 .6-1.6h-1.5v-.4h1.5v-1.2h.5v1.2h1.8l-.1 1.2zM218.3 203.4c-.4.6-1.2 1.1-2.3 1.4-.1-.2-.2-.3-.2-.4.9-.2 1.5-.6 2-1 .5-.5.7-1.2.7-2.1h-3v1.4h-.4V201h1.7v-1h.4v1h1.8c0 1-.3 1.9-.7 2.4zM217.6 208.6c-.6.4-1.3.9-2.2 1.3l-.3-.5c1.5-.5 2.9-1.5 4-2.9l.3.3c-.6.7-1.2 1.3-1.8 1.8zm-1.2-1.8c-.4-.4-.8-.7-1.2-1l.3-.4c.5.3.9.6 1.3.9l-.4.5zM217.6 213.8c-.6.6-1.3 1.1-2.3 1.5-.1-.1-.1-.2-.3-.4.9-.3 1.6-.8 2.2-1.4-.3-.3-.7-.6-1-.8l.2-.3c.4.3.8.5 1.1.8.3-.4.6-.9.9-1.5h-1.8c-.5.7-1 1.2-1.7 1.6-.1-.1-.2-.3-.3-.4.6-.4 1-.7 1.2-1 .3-.3.5-.8.8-1.4l.5.2-.3.6h1.8l.3.3c-.4.9-.8 1.7-1.3 2.2zM216.9 220.2v-4.5h.4v4.5h-.4zM218.7 41.9l-.4-.4c.5-.4 1.1-1 1.8-1.7H215v-.6h5.8l.5.5c-1.2 1-2 1.8-2.6 2.2zm-.8 1.8c-.3.7-1 1.3-2.1 1.8-.1-.2-.2-.4-.4-.6.9-.2 1.6-.6 1.9-1.2.3-.5.4-1.2.4-2.2v-.6h.6c0 1.4-.2 2.3-.4 2.8zM224.2 42.7c-.3 1-.9 1.9-1.7 2.6-.1-.2-.3-.4-.4-.5.6-.5 1.1-1 1.4-1.7.2-.5.4-1.3.4-2.2v-1.5h.6c0 1.6-.1 2.6-.3 3.3zm2.1 2.5-.5-.5.1-.1v-5.7h.6v5.3c.9-.6 1.7-1.5 2.5-2.5.1.1.3.3.5.4-1.1 1.3-2.1 2.3-3.2 3.1zM234.8 45.2v-.4h-4.5v-.6h4.5v-3.4h-4.5v-.6h5.2v5.1h-.7zM236.4 42.4v-.6h6.4v.6h-6.4zM247.6 43.4c-.7.8-1.7 1.5-3.2 2.1l-.3-.6c1.2-.4 2.2-.9 2.9-1.7.7-.7 1.2-1.7 1.7-3h-5.1v-.6h5.4l.5.5c-.7 1.5-1.3 2.6-1.9 3.3zm2-3.6c-.2-.2-.5-.5-.9-.8l.3-.3c.4.3.7.5.9.8l-.3.3zm.5-.6c-.2-.2-.5-.5-.9-.8l.3-.3c.4.3.7.5.9.8l-.3.3zM206.4 57.5v1.1h.4l.2.2c-.2.4-.4.8-.7 1.2l.2.2c.2-.1.3-.3.5-.5l.2.3-.5.5c.1.1.3.2.4.3-.1.1-.2.2-.2.3-.2-.1-.4-.3-.5-.5l-.1-.1v2.1h-.3v-2.1l-.6.6c0-.1-.1-.3-.2-.4.6-.6 1.1-1.1 1.4-1.8h-1.3v-.3h.7v-1.1h.4zm3.8 5.1h-.4v-.4h-1.9v.4h-.4v-3.7h1.1v-1.3h.4v1.3h1.1v3.7zm-1.5-2.2v-1.1h-.8v1.1h.8zm0 1.5v-1.2h-.8v1.2h.8zm.3-1.5h.8v-1.1h-.8v1.1zm0 1.5h.8v-1.2h-.8v1.2zM212.7 57.7c-.1.4-.3.8-.5 1.2v3.9h-.4v-3.2c-.2.3-.4.6-.7.9 0-.1-.1-.3-.2-.4.5-.7 1-1.5 1.4-2.6l.4.2zm2.1 1.3v-1.3h.4V59h1v.4h-1v2.9c0 .1-.1.2-.2.3-.2.1-.4.1-.7.1 0-.1 0-.3-.1-.4h.6c.1 0 .1 0 .1-.1v-2.8h-2.3V59h2.2zm-.8 1.9-.3.2c-.2-.3-.5-.6-.8-1l.3-.2c.4.4.6.7.8 1zM219.5 57.6v.9h2.2v.4h-2.4l-.8 1.6c.3.2.5.4.7.6l1.1-1.5.4.2-1.9 2.4c.6 0 1.3-.1 2-.2-.2-.2-.4-.5-.6-.7l.3-.2c.5.6.9 1.1 1.2 1.5l-.3.2c-.1-.2-.2-.3-.3-.4-1.6.2-3 .3-4.1.4l-.1-.4c.4 0 .9 0 1.4-.1l.7-.9c-.5-.4-1.1-.8-1.8-1.2l.2-.4c.3.2.6.3.8.5l.6-1.3h-2v-.4h2.3v-.9h.4zM224.8 57.7v1.7h-1.6v3.2h-.4v-4.9h2zm-.4.8v-.4h-1.2v.4h1.2zm0 .6v-.4h-1.2v.4h1.2zm3-1.4v4.4c0 .2-.1.3-.2.4-.1.1-.3.1-.7.1 0-.1-.1-.3-.2-.4h.5c.1 0 .1 0 .1-.1v-2.6h-1.3l.3.1-.4.5h.8v.3H225v.5h1.5v.3h-1.3c.1.2.2.3.4.4.1.1.4.3.7.4l-.3.3c-.3-.2-.6-.3-.7-.5-.1-.1-.3-.3-.4-.5-.1.1-.1.2-.2.3-.2.3-.6.5-1.1.8l-.3-.3c.5-.1.8-.4 1.1-.6.1-.1.1-.1.1-.2h-1.1V61h1.2v-.5h-1.1v-.3h.6c-.1-.1-.2-.3-.4-.5l.3-.2.5.5-.2.2h.7l.3-.7h-.2v-1.7h2.3zm-.4.4h-1.2v.4h1.2v-.4zm0 .7h-1.2v.4h1.2v-.4zM231.6 60.8c-.6-.4-1.4-.7-2.3-1v2.9h-.4v-4.9h.4v1.6c.9.3 1.8.6 2.6 1.1l-.3.3zm-.5-1.6c-.1-.2-.4-.4-.6-.6l.2-.2c.3.2.5.4.6.5l-.2.3zm.4-.5c-.1-.2-.4-.4-.6-.6l.2-.2c.3.2.5.4.6.5l-.2.3zM234.9 60l-.3-.3c.4-.3.8-.7 1.3-1.2h-3.6v-.4h4.1l.3.4c-.8.7-1.4 1.2-1.8 1.5zm-.6 1.3c-.2.5-.7.9-1.5 1.2-.1-.1-.2-.3-.3-.4.6-.2 1.1-.4 1.3-.9.2-.3.3-.8.3-1.5v-.4h.4c.1 1 0 1.6-.2 2zM130.8 236c-.2.5-.5 1-.9 1.4l-.3-.3c.6-.7 1-1.6 1.3-2.8l.4.2c-.1.6-.3 1.1-.5 1.5zm2.7 1.3c-.3-1-.8-1.9-1.3-2.8l.3-.2c.6.9 1.1 1.9 1.4 2.8l-.4.2zM136.6 236.6c-.5.4-1.1.8-1.9 1.1l-.2-.4c1.3-.4 2.5-1.3 3.4-2.5l.3.3c-.6.7-1.1 1.2-1.6 1.5zm-1-1.5c-.4-.3-.7-.6-1.1-.8l.2-.3c.4.2.8.5 1.1.8l-.2.3zM142.3 236c0 .5-.1.9-.1 1.2 0 .1-.1.2-.2.3-.1.1-.4.1-.8.2 0-.1-.1-.2-.1-.4h.4c.1 0 .2-.1.3-.2.1-.1.1-.4.1-.8v-1.1h-1.1c-.1.6-.3 1.2-.5 1.6-.3.4-.7.8-1.2 1.1l-.3-.3c.5-.3.9-.6 1.1-.9.3-.4.4-.8.5-1.4h-1.2v-.4h1.3v-1h.4v1h1.6l-.2 1.1zm0-1.4-.5-.5.2-.2c.2.2.4.3.6.5l-.3.2zm.3-.4-.5-.5.2-.2c.2.2.4.3.6.5l-.3.2zM143 235.9v-.3h3.8v.3H143zM148.4 236c-.2.5-.5 1-.8 1.4l-.3-.3c.6-.7 1-1.6 1.3-2.8l.4.2c-.2.6-.4 1.1-.6 1.5zm2.7 1.3c-.3-1-.8-1.9-1.3-2.8l.3-.2c.6.9 1.1 1.9 1.4 2.8l-.4.2zm.3-2.7c-.1.1-.2.2-.3.2-.1 0-.3 0-.3-.1-.1-.1-.1-.2-.1-.3 0-.1 0-.3.1-.3.1-.1.2-.1.3-.1.1 0 .2 0 .3.1.1.1.1.2.1.3 0 0 0 .1-.1.2zm-.1-.5s-.1-.1-.2-.1c-.2 0-.3.1-.3.3 0 .1 0 .1.1.2 0 .1.1.1.2.1s.1 0 .2-.1c0 0 .1-.1.1-.2-.1-.1-.1-.2-.1-.2zM154.3 235.1v2.7h-.3v-2.4c-.6.5-1.2.8-1.8 1.1-.1-.1-.1-.3-.2-.4.6-.2 1.2-.6 1.8-1.1.5-.4 1-.9 1.5-1.4l.4.3c-.6.6-1 .9-1.4 1.2zM158.6 236.6c-.4.5-1 .9-1.9 1.2 0-.1-.1-.2-.2-.4.7-.2 1.3-.6 1.7-1 .4-.4.7-1 1-1.8h-3v-.4h3.2l.3.3c-.4 1-.8 1.7-1.1 2.1zm1.6-2.4c-.1.1-.2.2-.3.2-.1 0-.3 0-.3-.1-.1-.1-.1-.2-.1-.3 0-.1 0-.3.1-.3.1-.1.2-.1.3-.1.1 0 .2 0 .3.1.1.1.1.2.1.3 0 0 0 .1-.1.2zm-.2-.5s-.1-.1-.2-.1c-.2 0-.3.1-.3.3 0 .1 0 .1.1.2 0 .1.1.1.2.1s.1 0 .2-.1c0 0 .1-.1.1-.2s0-.2-.1-.2zM133.5 226.3c-.6.7-1.5 1.2-2.5 1.5-.1-.1-.2-.3-.3-.5.9-.2 1.7-.6 2.2-1.2.5-.5.9-1.2 1.4-2.2h-2.1c-.4.7-1 1.3-1.5 1.9-.1-.1-.3-.2-.4-.3.5-.4.9-.9 1.2-1.3.2-.4.5-.9.9-1.6l.5.2c-.1.2-.2.5-.4.8h2.1l.1-.1.3.3c-.5 1-1 1.9-1.5 2.5zM139.3 227.4v-.4H136v.4h-.5V223h4.3v4.3h-.5zm0-3.9H136v2.9h3.3v-2.9zM140.2 225.3v-.5h5.1v.5h-5.1zM148.9 225.9l-.3-.4c.5-.5 1-.9 1.4-1.4l-2.4.4v2.1c0 .3.2.4.6.5h1c.6 0 1.1 0 1.5-.1v.5c-.6 0-1.2.1-1.6.1-.6 0-1 0-1.3-.1-.5-.1-.7-.4-.7-.9v-2.1l-1.5.2-.1-.5 1.6-.2v-1.7h.5v1.6l2.6-.4.1-.1.4.4c-.7 1-1.3 1.6-1.8 2.1zm1.6-2.5c-.2-.2-.4-.4-.7-.6l.2-.3c.3.2.6.4.7.6l-.2.3zm.4-.5c-.2-.2-.4-.4-.7-.6l.2-.3c.3.2.6.4.7.6l-.2.3zM151.9 225.7c-.2-.3-.4-.7-.7-1.1l.4-.2c.2.4.5.7.7 1.2l-.4.1zm2.9.2c-.3.6-.7 1-1.1 1.4-.4.3-.9.6-1.5.8-.1-.2-.2-.3-.3-.4.6-.2 1-.4 1.4-.6.4-.3.7-.7 1-1.2.2-.4.4-1 .6-1.7l.5.1c-.2.6-.4 1.1-.6 1.6zm-1.6-.6c-.1-.4-.3-.8-.5-1.1l.4-.2c.2.4.4.8.6 1.1l-.5.2zM159.6 225.8c-.7-.4-1.6-.8-2.7-1.2v3.3h-.5v-5.6h.5v1.8c1 .3 2 .7 2.9 1.2l-.2.5zM250.2 70.3c-.2.5-.5 1-.8 1.4l-.3-.3c.6-.7 1-1.6 1.3-2.8l.4.2c-.2.7-.4 1.2-.6 1.5zm2.8 1.3c-.3-1-.8-1.9-1.3-2.8l.3-.2c.6.9 1.1 1.9 1.4 2.8l-.4.2zM251.8 74.9c-.5.4-1.1.8-1.9 1.1l-.2-.4c1.3-.4 2.5-1.3 3.4-2.5l.3.3c-.6.6-1.2 1.1-1.6 1.5zm-1.1-1.5c-.4-.3-.7-.6-1.1-.8l.2-.3c.4.2.8.5 1.1.8l-.2.3zM252.8 78.9c0 .5-.1.9-.1 1.2 0 .1-.1.2-.2.3-.1.1-.4.1-.8.2 0-.1-.1-.2-.1-.4h.4c.1 0 .2-.1.3-.2.1-.1.1-.4.1-.8v-1.1h-1.1c-.1.6-.3 1.2-.5 1.6-.3.4-.7.8-1.2 1.1l-.3-.3c.5-.3.9-.6 1.1-.9.3-.4.4-.8.5-1.4h-1.2v-.4h1.3v-1h.4v1h1.6l-.2 1.1zm0-1.5-.5-.5.2-.2c.2.2.4.3.6.5l-.3.2zm.3-.3-.5-.5.2-.2c.2.2.4.3.6.5l-.3.2zM251.1 85v-3.8h.3V85h-.3zM250.2 87.5c-.2.5-.5 1-.8 1.4l-.3-.3c.6-.7 1-1.6 1.3-2.8l.4.2c-.2.6-.4 1.1-.6 1.5zm2.8 1.2c-.3-1-.8-1.9-1.3-2.8l.3-.2c.6.9 1.1 1.9 1.4 2.8l-.4.2zm.3-2.6c-.1.1-.2.2-.3.2-.1 0-.3 0-.3-.1-.1-.1-.1-.2-.1-.3 0-.1 0-.3.1-.3.1-.1.2-.1.3-.1.1 0 .2 0 .3.1.1.1.1.2.1.3 0-.1-.1.1-.1.2zm-.2-.6s-.1-.1-.2-.1c-.2 0-.3.1-.3.3 0 .1 0 .1.1.2 0 .1.1.1.2.1s.1 0 .2-.1c0 0 .1-.1.1-.2s0-.1-.1-.2zM251.7 90.8v2.7h-.4v-2.4c-.6.5-1.2.8-1.8 1.1-.1-.1-.1-.3-.2-.4.6-.2 1.2-.6 1.8-1.1.5-.4 1-.9 1.5-1.4l.4.3c-.6.5-1 .8-1.3 1.2zM252 97c-.4.5-1 .9-1.9 1.2 0-.1-.1-.2-.2-.4.7-.2 1.3-.6 1.7-1 .4-.4.7-1 1-1.8h-3v-.4h3.2l.3.3c-.4 1-.8 1.7-1.1 2.1zm1.6-2.4c-.1.1-.2.2-.3.2-.1 0-.3 0-.3-.1-.1-.1-.1-.2-.1-.3 0-.1 0-.3.1-.3.1-.1.2-.1.3-.1.1 0 .2 0 .3.1.1.1.1.2.1.3 0 0 0 .1-.1.2zm-.2-.5s-.1-.1-.2-.1c-.2 0-.3.1-.3.3 0 .1 0 .1.1.2 0 .1.1.1.2.1s.1 0 .2-.1c0 0 .1-.1.1-.2s0-.2-.1-.2zM448.3 299.3l-2.1 4.3-1-.6 2.3-4.2c.3.2.6.4.8.5zm-.4-3.4-.4.8c-.6-.4-1.2-.7-2-1.1l.4-.8c.7.3 1.4.7 2 1.1zm.7-3.2-.6.8c-.6-.5-1.2-1-1.9-1.4l.6-.7c.7.3 1.4.8 1.9 1.3zm7.6-1.2-1.1 2h2.8v.9h-4v1.9h3.1v.9h-3.1v2.2h4v.9h-4v3.5h-.9v-3.5h-4.1v-.9h4.1v-2.2h-3.3v-.9h3.3v-1.9h-3.8v-.9h4.9l1.3-2.5.8.5zm-4 1.3-.8.6c-.3-.6-.7-1.2-1.2-1.7l.8-.6c.6.7 1 1.3 1.2 1.7zM465.6 299.9v-1.2h1v1.2h4.4v.8h-4.4v1.5h5.7v.8h-12.5v-.8h5.8v-1.5h-4.3v-.8h4.3zm1-9v1.4h5.1v2.7h-1v.4h-5.3l-1.1 2.1c1.5-.1 2.9-.2 4.5-.3-.3-.3-.6-.5-1-.8l.7-.7c1.3 1 2.2 1.7 2.7 2.3l-.7.7-.8-.8c-3.3.3-6.1.5-8.5.6l-.2-.9c.7 0 1.4 0 2.2-.1l1.2-2.1h-3v-.4h-.9v-2.7h5.1v-1.4h1zm4.1 3.7v-1.3h-9.3v1.3h9.3zM477.3 302.2v-7.9c-.7.4-1.3.6-1.9.8v-1c.7-.1 1.4-.4 1.9-.8h1v9h-1zM444.2 322.3c-.7-.7-1.2-1.3-1.6-1.9-.4-.8-.7-1.6-.7-2.5 0-.9.2-1.7.7-2.5.3-.6.9-1.2 1.6-1.9l.5.5c-.7.6-1.2 1.2-1.5 1.8-.4.7-.6 1.4-.6 2.2 0 .8.2 1.5.6 2.2.3.5.8 1.1 1.5 1.8l-.5.3zM448.3 313.5l-1 1.9c.2.2.4.3.6.5l.9-1.6.6.4-1.7 2.7c.4 0 .9 0 1.4-.1-.1-.3-.3-.5-.4-.8l.5-.3c.4.6.6 1.1.8 1.5l-.5.4c0-.1-.1-.2-.1-.3-.4 0-.8.1-1.1.1v4h-.7V318c-.5 0-1 .1-1.5.1l-.2-.6h1l.6-1c-.5-.4-1-.8-1.6-1.1l.4-.5c.1.1.3.2.4.3l.9-1.9.7.2zm-1.1 5.3c-.2.9-.4 1.7-.6 2.4-.2-.1-.4-.2-.6-.2.2-.7.4-1.5.6-2.3l.6.1zm2.6 1.7-.7.2c-.1-.6-.2-1.2-.4-1.8l.6-.2c.2.6.4 1.2.5 1.8zm1.9-7.1c-.2.7-.3 1.3-.4 1.7h3.1v3.8c0 1-.1 1.7-.2 2-.1.6-.8.9-2 .9 0-.3-.1-.6-.3-.8h1.1c.3 0 .5-.2.6-.5.1-.3.1-.9.2-1.9v-3H451c-.2.6-.4 1.1-.6 1.5-.2-.2-.4-.3-.6-.4.3-.6.5-1.2.7-1.9.2-.6.3-1.2.4-1.8l.8.4zm.9 5.3-.5.5c-.3-.5-.8-1.1-1.3-1.7l.5-.4c.5.5.9 1.1 1.3 1.6zM459.7 320.5c-.4.4-.9.6-1.4.6-1.1 0-1.8-.5-2.1-1.6h.8c.2.7.7 1.1 1.3 1.1.4 0 .7-.1.9-.5.3-.3.4-.6.4-1s-.1-.7-.4-1c-.3-.3-.6-.5-1-.5-.5 0-.9.2-1.2.6l-.7-.2.3-3.2h3.2v.7h-2.6l-.2 2.1c.4-.3.9-.4 1.4-.4s1 .2 1.3.6c.3.4.5.9.5 1.4.2.4 0 .9-.5 1.3zM462.7 321h-.7l-.1-.1v-.7l.1-.1h.7l.1.1v.7l-.1.1zM464.4 320.9c.1-1 .6-1.9 1.5-2.7 1-.8 1.5-1.4 1.5-1.9 0-.3-.1-.6-.3-.8s-.5-.4-.8-.4c-.5 0-.8.1-1 .4-.2.2-.3.6-.4 1h-.7c.2-1.3.9-1.9 2.1-1.9.5 0 1 .2 1.3.5s.5.7.5 1.2c0 .6-.5 1.3-1.5 2.1-.8.7-1.3 1.3-1.5 1.8h3.1v.6h-3.8zM471.4 314.9v-1.7h.7v1.7h1.4v4.5c0 .2 0 .3-.1.4-.1.1-.4.2-.8.2 0-.3-.1-.5-.2-.7h.3c.1 0 .2 0 .2-.1v-3.7h-.9v6.5h-.7v-6.5h-.7v4.5h-.6v-5.1h1.4zm4.9-1.7v1.9h2.1v.6h-2.1v2h1.7v4.2h-.6v-.5h-2.7v.6h-.7v-4.3h1.6v-4.4h.7zm1.1 7.5v-2.5h-2.7v2.5h2.7zM481.9 320.4c-.3.6-.9 1.2-1.6 1.9l-.5-.4c.7-.6 1.1-1.2 1.5-1.8.4-.7.6-1.4.6-2.2 0-.8-.2-1.5-.6-2.2-.3-.5-.8-1.1-1.5-1.8l.5-.5c.7.7 1.2 1.3 1.6 1.9.4.8.6 1.6.6 2.5.1 1-.2 1.8-.6 2.6zM279 307.6v-10.5h1.2v9.5h6.5v1H279zM295.7 306.2c-1.1.9-2.5 1.3-4.3 1.3h-3V297h3.5c1.6 0 2.9.5 4 1.4 1 1 1.6 2.2 1.6 3.8-.1 1.8-.7 3.1-1.8 4zm-.8-7.1c-.8-.7-1.9-1-3.3-1h-2.1v8.5h2.3c1.3 0 2.3-.4 3.1-1.2.8-.8 1.2-1.8 1.2-3.1 0-1.4-.4-2.4-1.2-3.2zM306.4 307.6l-4-5.9-2.3 1.9v4H299v-10.5h1.1v5.2l6-5.2h1.6l-4.5 3.9 4.8 6.6h-1.6zM272.3 320.4c-.7-.7-1.2-1.3-1.6-1.9-.4-.8-.7-1.6-.7-2.5 0-.9.2-1.7.7-2.5.3-.6.9-1.2 1.6-1.9l.5.5c-.7.6-1.2 1.2-1.5 1.8-.4.7-.6 1.4-.6 2.2 0 .8.2 1.5.6 2.2.3.5.8 1.1 1.5 1.8l-.5.3zM276.5 311.6l-1 1.9c.2.2.4.3.6.5l.9-1.6.6.4-1.7 2.7c.4 0 .9 0 1.4-.1-.1-.3-.3-.5-.4-.8l.5-.3c.4.6.6 1.1.8 1.5l-.5.4c0-.1-.1-.2-.1-.3-.4 0-.8.1-1.1.1v4h-.7v-3.9c-.5 0-1 .1-1.5.1l-.2-.6h1l.6-1c-.5-.4-1-.8-1.6-1.1l.4-.5c.1.1.3.2.4.3l.9-1.9.7.2zm-1.2 5.3c-.2.9-.4 1.7-.6 2.4-.2-.1-.4-.2-.6-.2.2-.7.4-1.5.6-2.3l.6.1zm2.6 1.6-.7.2c-.1-.6-.2-1.2-.4-1.8l.6-.2c.3.6.4 1.2.5 1.8zm1.9-7.1c-.2.7-.3 1.3-.4 1.7h3.1v3.8c0 1-.1 1.7-.2 2-.1.6-.8.9-2 .9 0-.3-.1-.6-.3-.8h1.1c.3 0 .5-.2.6-.5.1-.3.1-.9.2-1.9v-3h-2.6c-.2.6-.4 1.1-.6 1.5-.2-.2-.4-.3-.6-.4.3-.6.5-1.2.7-1.9.2-.6.3-1.2.4-1.8l.6.4zm1 5.4-.5.5c-.3-.5-.8-1.1-1.3-1.7l.5-.4c.4.5.9 1 1.3 1.6zM286.7 319v-5.4c-.5.3-.9.4-1.3.5v-.7c.5-.1.9-.2 1.3-.5h.7v6.2h-.7zM292.3 316.1c-.3.8-.5 1.8-.5 2.9h-.8c0-1.1.1-2.1.4-2.8.3-.8.8-1.7 1.6-2.7h-3.1v-.7h3.9v.8c-.7.9-1.2 1.7-1.5 2.5zM296.2 319.1h-.7l-.1-.1v-.7l.1-.1h.7l.1.1v.7l-.1.1zM301.4 318.5c-.4.4-.8.6-1.5.6s-1.3-.3-1.7-1c-.3-.5-.4-1.2-.4-2 0-2.3.7-3.5 2.2-3.5.5 0 .8.1 1.1.4.2.2.5.6.6 1h-.7c-.2-.6-.5-.8-.9-.8-.9 0-1.4.8-1.5 2.5.6-.4 1.1-.6 1.6-.6s1 .2 1.3.6c.3.4.5.8.5 1.3-.1.6-.3 1.1-.6 1.5zm-.5-2.4c-.2-.3-.5-.4-.8-.4-.5 0-1 .3-1.4.7 0 1.5.5 2.2 1.3 2.2.4 0 .7-.2 1-.6.2-.3.3-.7.3-1.1-.1-.3-.2-.6-.4-.8zM305 312.9v-1.7h.7v1.7h1.4v4.5c0 .2 0 .3-.1.4-.1.1-.4.2-.8.2 0-.3-.1-.5-.2-.7h.3c.1 0 .2 0 .2-.1v-3.7h-.7v6.5h-.8v-6.5h-.7v4.5h-.6v-5.1h1.3zm4.9-1.6v1.9h2.1v.6h-2.1v2h1.7v4.2h-.6v-.5h-2.7v.6h-.7v-4.3h1.6v-4.4h.7zm1 7.5v-2.5h-2.7v2.5h2.7zM315.5 318.5c-.3.6-.9 1.2-1.6 1.9l-.5-.4c.7-.6 1.1-1.2 1.5-1.8.4-.7.6-1.4.6-2.2 0-.8-.2-1.5-.6-2.2-.3-.5-.8-1.1-1.5-1.8l.5-.5c.7.7 1.2 1.3 1.6 1.9.4.8.6 1.6.6 2.5 0 .9-.2 1.8-.6 2.6zM313.1 110.6l-.1.1c.5.5 1 .8 1.6 1.1.6.3 1.2.6 1.9.8-.1.1-.2.2-.4.5-.6-.2-1.3-.5-1.8-.9-.5-.3-1.1-.7-1.6-1.2-.4.4-.9.8-1.4 1.1-.7.5-1.3.8-1.7 1-.1-.2-.3-.3-.4-.4.7-.3 1.3-.6 1.8-1 .6-.4 1.1-.9 1.6-1.4l.5.3zm-.1 1.3v.8h1.9v2.8h-2.1c.2.3.5.6.9.9.7-.3 1.3-.7 1.7-1l.4.5c-.5.3-1.1.6-1.6.8.6.3 1.3.5 2.1.6-.1.2-.2.4-.3.5-1-.2-1.9-.5-2.5-1-.6-.4-1-.8-1.3-1.4h-1.1v1.4c.5-.1 1.1-.1 1.7-.2v.5c-1.2.2-2.3.3-3.4.5l-.1-.6c.4 0 .9-.1 1.3-.2v-4.3h1.9v-.8h.5zm1.4 1.9v-.6h-3.3v.6h3.3zm0 1.2v-.7h-3.3v.7h3.3zM320.2 113.3c.2-.2.4-.5.6-.7l.6.2c-.1.2-.3.4-.4.5h3.6v.5h-2.3c.3.2.5.5.8.7.4.3 1 .5 1.7.7-.2.2-.4.4-.4.5-.2-.1-.3-.1-.5-.2v2.2h-.5v-.4h-1.3v.4h-.5v-2.4h1.8c-.3-.1-.5-.3-.7-.4-.4-.3-.8-.6-1-1h-1.1c-.3.3-.5.5-.8.7-.3.3-.7.5-1.1.7h1.8v2.5h-.5v-.4h-1.3v.4h-.5v-2.2c-.2.1-.4.2-.5.3-.1-.2-.2-.3-.4-.5.8-.3 1.5-.7 2.1-1.1.2-.1.3-.3.5-.4h-2.3v-.5h2.6zm-2.1-.7v-2h2.3v2h-2.3zm.5-.5h1.2v-1h-1.2v1zm1.3 4.7v-1.1h-1.3v1.1h1.3zm1.6-4.2v-2h2.4v2h-2.4zm.6-.5h1.3v-1h-1.3v1zm1.3 4.7v-1.1h-1.3v1.1h1.3zM326.5 112.2v-1.8h.5v1.8h.9v.5h-.9v.7l.4.4c.1.1.3.2.5.4-.1.2-.2.3-.3.5-.2-.2-.4-.3-.5-.4 0 0-.1 0-.1-.1v3.7h-.5V114c-.1.3-.2.5-.3.8-.2.4-.4.7-.5.8-.1-.2-.2-.4-.3-.5.3-.4.5-.7.7-1.1.2-.3.3-.7.5-1.3h-.9v-.5h.8zm3.5-1.4v6.1c0 .2 0 .3-.1.4-.1.1-.4.2-.8.2 0-.2-.1-.4-.2-.5h.4c.1 0 .2 0 .2-.1V115h-.8c0 .3-.1.5-.1.8-.1.7-.3 1.3-.6 1.8-.1-.2-.2-.4-.4-.5.3-.5.5-1 .6-1.6.1-.5.1-1.2.1-1.9v-2.8h1.7zm-.5 3.7v-1.3h-.8v1.4h.8zm0-1.8v-1.4h-.8v1.4h.8zm3-1.9v6.3c0 .2 0 .3-.1.4-.1.1-.4.1-.9.2 0-.2-.1-.4-.2-.5h.4c.2 0 .2 0 .2-.1v-2h-.9c0 .4-.1.7-.1 1-.1.7-.3 1.2-.5 1.7-.1-.2-.2-.4-.4-.5.2-.4.3-1 .4-1.5 0-.5.1-1.1.1-1.8v-3.1h2zm-.5 3.7v-1.3h-.9v1.4h.9zm0-1.8v-1.4h-.9v1.4h.9zM377.7 198.6v-1.8h.5v1.8h.9v.5h-.9v.7l.4.4c.1.1.3.2.5.4-.1.2-.2.3-.3.5-.2-.2-.4-.3-.5-.4 0 0-.1 0-.1-.1v3.7h-.5v-3.7c-.1.3-.2.5-.3.8-.2.4-.4.7-.5.8-.1-.2-.2-.4-.3-.5.3-.4.5-.7.7-1.1.2-.3.3-.7.5-1.3h-.9v-.5h.8zm3.5-1.4v6.1c0 .2 0 .3-.1.4-.1.1-.4.2-.8.2 0-.2-.1-.4-.2-.5h.4c.1 0 .2 0 .2-.1v-1.8h-.8c0 .3-.1.5-.1.8-.1.7-.3 1.3-.6 1.8-.1-.2-.2-.4-.4-.5.3-.5.5-1 .6-1.6.1-.5.1-1.2.1-1.9v-2.8h1.7zm-.5 3.7v-1.3h-.8v1.4h.8zm0-1.8v-1.4h-.8v1.4h.8zm3-1.9v6.3c0 .2 0 .3-.1.4-.1.1-.4.1-.9.2 0-.2-.1-.4-.2-.5h.4c.2 0 .2 0 .2-.1v-2h-.9c0 .4-.1.7-.1 1-.1.7-.3 1.2-.5 1.7-.1-.2-.2-.4-.4-.5.2-.4.3-1 .4-1.5.1-.5.1-1.1.1-1.8v-3.1h2zm-.5 3.7v-1.3h-.9v1.4h.9zm0-1.8v-1.4h-.9v1.4h.9zM305.4 76.8V75h.5v1.8h.9v.5h-.9v.7l.4.4c.1.1.3.2.5.4-.1.2-.2.3-.3.5-.2-.2-.4-.3-.5-.4 0 0-.1 0-.1-.1v3.7h-.5v-3.7c-.1.3-.2.5-.3.8-.2.4-.4.7-.5.8-.1-.2-.2-.4-.3-.5.3-.4.5-.7.7-1.1.2-.3.3-.7.5-1.3h-.9V77h.8zm3.4-1.4v6.1c0 .2 0 .3-.1.4-.1.1-.4.2-.8.2 0-.2-.1-.4-.2-.5h.4c.1 0 .2 0 .2-.1v-1.8h-.8c0 .3-.1.5-.1.8-.1.7-.3 1.3-.6 1.8-.1-.2-.2-.4-.4-.5.3-.5.5-1 .6-1.6.1-.5.1-1.2.1-1.9v-2.8h1.7zm-.5 3.7v-1.3h-.8v1.4h.8zm0-1.8v-1.4h-.8v1.4h.8zm3.1-1.9v6.3c0 .2 0 .3-.1.4-.1.1-.4.1-.9.2 0-.2-.1-.4-.2-.5h.4c.2 0 .2 0 .2-.1v-2h-.8c0 .4-.1.7-.1 1-.1.7-.3 1.2-.5 1.7-.1-.2-.2-.4-.4-.5.2-.4.3-1 .4-1.5.1-.5.1-1.1.1-1.8v-3.1h1.9zm-.6 3.7v-1.3h-.8v1.4h.8zm0-1.8v-1.4h-.8v1.4h.8zM363.2 105.7l-1.1 2.6-.5-.3 1.2-2.6c.1.1.2.2.4.3zm-.1-2.9-.4.5c-.3-.3-.6-.5-1.1-.7l.3-.5c.5.2.9.4 1.2.7zm3.1-1.1c0 .1-.1.1-.1.1.4.6.8 1 1.2 1.4.4.4.9.8 1.5 1.1-.2.2-.3.3-.4.5-.4-.2-.8-.5-1.2-.9-.5-.4-.9-.9-1.4-1.6-.3.5-.6.9-1 1.3-.5.5-1 1-1.5 1.3-.1-.2-.2-.3-.3-.5.5-.3.9-.6 1.4-1.1.5-.5.9-1.1 1.3-1.8l.5.2zm1.7 3.9v2c0 .3-.1.4-.2.5-.1.1-.4.1-.9.2 0-.2-.1-.4-.2-.6h.7c.1 0 .1 0 .1-.2V106h-1.8v2.9h-.6V106h-1.5v-.5h4.4zm-.9-1.4v.5h-2.5v-.5h2.5zM371.8 102v-.5h.5v.5h1.9v-.5h.5v.5h2v.4h-2v.6h.3v.6h1.8v.5H375c0 .8 0 1.4.1 1.7 0 .3.1.6.1.8.3-.4.6-1 .9-1.7l.5.2c-.4.8-.8 1.5-1.2 2.1.1.2.1.3.2.4.2.3.3.4.4.4.1 0 .3-.2.5-.7.1.1.3.2.4.2-.2.5-.3.9-.5 1-.1.1-.2.2-.3.2-.3 0-.5-.1-.7-.4-.2-.2-.4-.4-.5-.7-.5.5-1.1.9-1.6 1.1-.1-.2-.2-.3-.4-.4.3-.1.6-.3.8-.5.3-.2.6-.5.9-.7l-.3-1.2c-.1-.4-.1-1-.1-1.8h-3.6v1c0 .8-.1 1.5-.2 1.9-.1.5-.4 1.1-.7 1.6-.1-.1-.3-.3-.5-.3.3-.4.5-.9.7-1.4.1-.4.2-.9.2-1.7v-1.4h4.1v-.6h-.3v-.6H372v.6h-.5v-.6h-2v-.6h2.3zm2.2 3.1h-1v.5h1v1.3h-1v.6h1v.4h-2.1v.4h-.4v-3.6h2.6v.4zm-1.4.6v-.5h-.7v.5h.7zm1 .9v-.6h-1.7v.6h1.7zm-1 1v-.6h-.7v.6h.7zm3.9-4.2-.3.3c-.2-.2-.5-.5-.8-.7l.3-.3c.4.3.6.6.8.7zM381.9 101.5v.7h3v.5h-6v2.7c0 .8 0 1.5-.1 1.9-.1.5-.3 1-.6 1.6-.1-.2-.3-.3-.5-.4.3-.4.5-.9.6-1.4.1-.3.1-.9.1-1.7v-3.2h2.9v-.7h.6zm0 2v-.6h.5v.6h2.3v.5h-2.3v.5h1.9v2.4h-1.9v.6h2.8v.5h-2.8v1h-.5v-1h-2.7v-.5h2.7v-.6H380v-2.4h1.9v-.5h-2.2v-.5h2.2zm-1.4 2h1.3v-.5h-1.3v.5zm1.4.4h-1.3v.5h1.3v-.5zm.5-.4h1.4v-.5h-1.4v.5zm0 .4v.5h1.4v-.5h-1.4zM369.5 113.3v.6h3.3v.4h-3.3v.5h2.1v2.7h-4.2v-2.7h1.5v-.5h-3.5v-.4h3.5v-.6h-2.8v-1.7h6v1.7h-2.6zm-2.9 1.7v3h6.2v.5h-6.2v.4h-.6V115h.6zm.1-2.1h1.3v-.9h-1.3v.9zm1.3 2.7h3.1v-.4H368v.4zm0 .4v.4h3.1v-.4H368zm0 .7v.4h3.1v-.4H368zm.5-3.8h1.4v-.9h-1.4v.9zm1.9 0h1.3v-.9h-1.3v.9zM374.6 113.5v-2h.5v2h.8v.5h-.8v2.4l.9-.3v.4c.3-.2.5-.4.7-.6.2-.2.4-.5.5-.8H376v-.5h5.2v.5h-3.3c-.1.2-.2.4-.4.6h3.3c0 1 0 1.7-.1 2.1-.1.4-.2.6-.3.7-.1.1-.5.2-1 .2 0-.2-.1-.4-.2-.5h.7c.1 0 .2-.1.3-.4.1-.3.1-.8.1-1.5h-.5c-.3.7-.6 1.2-1 1.6-.4.4-.8.7-1.2.9-.1-.1-.2-.3-.4-.4.5-.2.9-.5 1.2-.9.3-.3.5-.7.8-1.2h-.7c-.2.5-.5.8-.8 1.1-.4.3-.7.5-1.1.7-.1-.1-.2-.3-.4-.4.4-.2.7-.4 1-.7.2-.2.4-.4.6-.8h-.8c-.3.3-.6.6-1.1.9-.1-.1-.2-.3-.3-.4-.7.2-1.3.4-1.9.6l-.1-.6c.3-.1.6-.2 1-.3v-2.6h-.8v-.5h.8zm2.3.7v-2.6h3.5v2.6h-3.5zm.5-1.6h2.4v-.5h-2.4v.5zm0 .5v.5h2.4v-.5h-2.4zM136.3 102.2l-2.1 4.4-.9-.5 2.2-4.4c.3.2.5.4.8.5zm-.6-3-.5.8c-.5-.5-1.1-.9-1.8-1.3l.4-.8c.7.4 1.4.8 1.9 1.3zm.7-3.3-.5.8c-.6-.6-1.2-1-1.8-1.4l.5-.7c.6.3 1.2.8 1.8 1.3zm5 1.2c-.1.1-.1.2-.2.3.7.8 1.4 1.5 2.1 2 .8.6 1.7 1.1 2.7 1.6-.3.3-.5.6-.7.9-.7-.3-1.4-.8-2.2-1.4-.8-.6-1.6-1.4-2.5-2.3-.5.7-1.1 1.3-1.6 1.9-.9.9-1.6 1.5-2.2 1.8-.2-.3-.4-.6-.6-.8.8-.5 1.6-1.1 2.3-1.9.7-.7 1.4-1.5 2-2.6l.9.5zm-1.4-2.2c-.8 1.1-1.7 1.9-2.8 2.6-.1-.3-.4-.6-.7-.8 1.1-.6 2-1.4 2.7-2.5l.8.7zm3.9 11.5h-.9v-.7h-3.8v.9h-.9v-5.4h5.7v5.2zm-.9-1.6V102h-3.8v2.8h3.8zm.8-9.3c.4.3.9.6 1.4.7-.2.2-.4.5-.6.8-.6-.3-1.1-.6-1.6-1s-.9-.7-1.2-1l.5-.7c.5.5 1 .9 1.5 1.2zM153.2 102.9v-1.2h1v1.2h4.3v.8h-4.3v1.5h5.5v.8h-12.1v-.8h5.7v-1.5h-4.1v-.8h4zm1-8.7v1.4h4.9v2.7h-1v.4H153l-1.1 2c1.4-.1 2.9-.2 4.3-.3-.3-.3-.6-.5-.9-.7l.7-.7c1.2.9 2.1 1.7 2.7 2.2l-.7.7-.8-.8c-3.2.3-6 .5-8.3.6l-.2-.9c.7 0 1.4 0 2.1-.1l1.2-2h-2.9v-.4h-.9v-2.7h4.9v-1.4h1.1zm4 3.6v-1.3h-9v1.3h9zM136 117.2c-.8-.7-1.3-1.4-1.7-2.1-.5-.8-.7-1.7-.7-2.7s.2-1.9.7-2.7c.4-.6.9-1.3 1.7-2.1l.5.5c-.7.7-1.2 1.3-1.6 1.9-.4.7-.6 1.6-.6 2.4 0 .9.2 1.7.6 2.4.3.6.9 1.2 1.6 1.9l-.5.5zM139.5 115.7v-5.9c-.5.3-1 .5-1.4.6v-.8c.5-.1 1-.3 1.4-.6h.8v6.7h-.8zM145.8 115.2c-.5.4-.9.6-1.5.6-1.2 0-2-.6-2.2-1.9h.9c.2.8.6 1.2 1.4 1.2.4 0 .7-.1 1-.4.3-.2.4-.5.4-.9 0-1-.5-1.5-1.6-1.5h-.8v-.6h.5c1.1 0 1.6-.4 1.6-1.3 0-.3-.1-.6-.3-.9-.2-.2-.5-.4-.8-.4-.7 0-1.1.4-1.2 1.1h-.8c.2-1.1.8-1.7 2-1.7.5 0 1 .2 1.4.5.4.3.6.7.6 1.3 0 .6-.3 1.1-1 1.5.8.4 1.2 1.1 1.2 1.8-.1.8-.3 1.3-.8 1.6zM149.7 115.7v-5.9c-.5.3-1 .5-1.4.6v-.8c.5-.1 1-.3 1.4-.6h.8v6.7h-.8zM154.9 112.5c-.4.9-.5 1.9-.5 3.1h-.8c0-1.2.1-2.2.4-3.1.3-.9.9-1.8 1.7-2.9h-3.4v-.6h4.2v.8c-.7 1-1.2 1.9-1.6 2.7zM159.5 115.1c-.4.6-.9 1.3-1.7 2.1l-.5-.5c.7-.7 1.2-1.3 1.6-1.9.4-.7.6-1.5.6-2.4 0-.9-.2-1.7-.6-2.4-.3-.6-.9-1.2-1.6-1.9l.5-.5c.8.7 1.3 1.4 1.7 2.1.5.8.7 1.7.7 2.7s-.3 1.9-.7 2.7zM470.5 238.9c-.2.5-.5 1-.8 1.4l-.3-.3c.6-.7 1-1.6 1.3-2.8l.4.2c-.2.6-.4 1.1-.6 1.5zm2.7 1.3c-.3-1-.8-1.9-1.3-2.8l.3-.2c.6.9 1.1 1.9 1.4 2.8l-.4.2zM476.3 239.5c-.5.4-1.1.8-1.9 1.1l-.2-.4c1.3-.4 2.5-1.3 3.4-2.5l.3.3c-.6.7-1.1 1.2-1.6 1.5zm-1-1.5c-.4-.3-.7-.6-1.1-.8l.2-.3c.4.2.8.5 1.1.8l-.2.3zM482 238.9c0 .5-.1.9-.1 1.2 0 .1-.1.2-.2.3-.1.1-.4.1-.8.2 0-.1-.1-.2-.1-.4h.4c.1 0 .3-.1.3-.2.1-.1.1-.4.1-.8v-1.1h-1.1c-.1.6-.3 1.2-.5 1.6-.3.4-.7.8-1.2 1.1l-.3-.3c.5-.3.9-.6 1.1-.9.3-.4.4-.8.5-1.4h-1.2v-.4h1.3v-1h.4v1h1.6l-.2 1.1zm0-1.4-.5-.5.2-.2c.2.2.4.3.6.5l-.3.2zm.3-.4-.5-.5.2-.2c.2.2.4.3.6.5l-.3.2zM482.7 238.9v-.3h3.8v.3h-3.8zM488.1 238.9c-.2.5-.5 1-.9 1.4l-.3-.3c.6-.7 1-1.6 1.3-2.8l.4.2c-.1.6-.3 1.1-.5 1.5zm2.7 1.3c-.3-1-.8-1.9-1.3-2.8l.3-.2c.6.9 1.1 1.9 1.4 2.8l-.4.2zm.3-2.7c-.1.1-.2.2-.3.2-.1 0-.3 0-.3-.1-.1-.1-.1-.2-.1-.3 0-.1 0-.3.1-.3.1-.1.2-.1.3-.1.1 0 .2 0 .3.1.1.1.1.2.1.3 0 0 0 .1-.1.2zm-.2-.5s-.1-.1-.2-.1c-.2 0-.3.1-.3.3 0 .1 0 .1.1.2s.1.1.2.1.1 0 .2-.1c0 0 .1-.1.1-.2s0-.2-.1-.2zM494 238.1v2.7h-.4v-2.4c-.6.5-1.2.8-1.8 1.1-.1-.1-.1-.3-.2-.4.6-.2 1.2-.6 1.8-1.1.5-.4 1-.9 1.5-1.4l.4.3c-.5.5-.9.8-1.3 1.2zM498.3 239.5c-.4.5-1 .9-1.9 1.2 0-.1-.1-.2-.2-.4.7-.2 1.3-.6 1.7-1 .4-.4.7-1 1-1.8h-3v-.4h3.2l.3.3c-.4 1-.8 1.7-1.1 2.1zm1.6-2.4c-.1.1-.2.2-.3.2-.1 0-.3 0-.3-.1-.1-.1-.1-.2-.1-.3 0-.1 0-.3.1-.3.1-.1.2-.1.3-.1.1 0 .2 0 .3.1.1.1.1.2.1.3 0 0 0 .1-.1.2zm-.2-.5c-.1 0-.1-.1-.2-.1-.2 0-.3.1-.3.3 0 .1 0 .1.1.2 0 .1.1.1.2.1s.1 0 .2-.1c0 0 .1-.1.1-.2s0-.2-.1-.2zM473.1 229.2c-.6.7-1.5 1.2-2.5 1.5-.1-.1-.2-.3-.3-.5.9-.2 1.7-.6 2.2-1.2.5-.5.9-1.2 1.4-2.2h-2.1c-.4.7-1 1.3-1.5 1.9-.1-.1-.3-.2-.4-.3.5-.4.9-.9 1.2-1.3.2-.4.5-.9.9-1.6l.5.2c-.1.2-.2.5-.4.8h2.1l.1-.1.3.3c-.4 1-.9 1.9-1.5 2.5zM479 230.3v-.4h-3.3v.4h-.5V226h4.3v4.3h-.5zm0-3.9h-3.3v2.9h3.3v-2.9zM479.8 228.2v-.5h5.1v.5h-5.1zM488.6 228.8l-.3-.4c.5-.5 1-.9 1.4-1.4l-2.4.4v2.1c0 .3.2.4.6.5h1c.6 0 1.1 0 1.5-.1v.5c-.6 0-1.2.1-1.6.1-.6 0-1 0-1.3-.1-.5-.1-.7-.4-.7-.9v-2.1l-1.5.2-.1-.5 1.6-.2v-1.7h.5v1.6l2.6-.4.1-.1.4.4c-.7 1-1.3 1.7-1.8 2.1zm1.5-2.5c-.2-.2-.4-.4-.7-.6l.2-.3c.3.2.6.4.7.6l-.2.3zm.5-.4c-.2-.2-.4-.4-.7-.6l.2-.3c.3.2.6.4.7.6l-.2.3zM491.6 228.6c-.2-.3-.4-.7-.7-1.1l.4-.2c.2.4.5.7.7 1.2l-.4.1zm2.9.2c-.3.6-.7 1-1.1 1.4-.4.3-.9.6-1.5.8-.1-.2-.2-.3-.3-.4.6-.2 1-.4 1.4-.6.4-.3.7-.7 1-1.2.2-.4.4-.9.6-1.7l.5.1c-.2.6-.4 1.2-.6 1.6zm-1.6-.6c-.1-.4-.3-.8-.5-1.1l.4-.2c.2.4.4.8.6 1.1l-.5.2zM499.3 228.7c-.7-.4-1.6-.8-2.7-1.2v3.3h-.5v-5.6h.5v1.8c1 .3 2 .7 2.9 1.2l-.2.5zM216.7 74v1.7h4.5v.8h-4.8l-1.7 3.1c.5.4 1 .7 1.5 1.1l2.2-3 .8.5-3.8 4.8c1.2-.1 2.6-.2 4-.4-.4-.5-.8-.9-1.2-1.4l.7-.5c1.1 1.2 1.9 2.2 2.4 2.9l-.7.5-.6-.9c-3.2.4-6 .7-8.2.8l-.2-.8c.9 0 1.8-.1 2.8-.1l1.3-1.7c-1-.9-2.2-1.7-3.6-2.5l.4-.7c.6.3 1.1.6 1.6 1l1.3-2.7h-4v-.8h4.5V74h.8zM227.3 74.4v3.5h-3.2v6.4h-.8v-9.9h4zm-.8 1.4v-.7h-2.4v.7h2.4zm0 1.3v-.7h-2.4v.7h2.4zm5.9-2.7v8.9c0 .4-.1.6-.3.7-.2.1-.7.2-1.4.2 0-.3-.1-.6-.3-.9h1c.1 0 .2-.1.2-.2v-5.2H229l.7.3-.7 1.1h1.6v.6H228v.9h3v.7h-2.6c.2.4.4.7.7.9.3.3.7.6 1.4.8-.2.1-.4.3-.5.6-.6-.3-1.1-.7-1.5-1-.3-.3-.5-.6-.7-1.1-.1.2-.2.5-.3.7-.4.6-1.2 1.1-2.2 1.5-.1-.3-.3-.5-.6-.7 1-.3 1.7-.7 2.1-1.3.1-.1.2-.3.3-.5h-2.3v-.7h2.4v-.9h-2.1v-.6h1.3c-.2-.3-.4-.6-.7-.9l.5-.4c.3.3.7.7.9 1l-.4.3h1.4l.7-1.4h-.4v-3.5h4zm-.8.7h-2.4v.7h2.4v-.7zm0 1.3h-2.4v.7h2.4v-.7zM204.5 93.5c-.4-.4-.7-.8-.8-1.1-.2-.4-.3-.9-.3-1.5s.1-1 .3-1.5c.2-.3.4-.7.8-1.1l.2.3c-.4.4-.6.7-.8 1-.2.4-.3.8-.3 1.3s.1.9.3 1.3c.2.3.4.7.8 1l-.2.3zM207.1 89.8v-1.5h.4v1.5h2.2v.4h-2c.1.6.3 1.1.7 1.6.4.6.8 1 1.4 1.3-.1.1-.2.2-.3.4-.6-.4-1.1-.9-1.4-1.5-.3-.4-.5-.9-.6-1.4-.1.4-.2.7-.3 1-.3.6-.9 1.3-1.7 2-.1-.2-.2-.3-.3-.4.7-.4 1.3-1 1.6-1.6.2-.4.4-.9.4-1.4h-1.9v-.4h1.8zM212 88.8v.4h-.7v1.1h.5v.4h-.5V92c.2-.1.4-.1.7-.2v.4c-.6.2-1.1.4-1.6.5l-.1-.4c.2-.1.4-.1.7-.2v-1.4h-.6v-.4h.6v-1.1h-.7v-.4h1.7zm1.5 2.3v.7h1.1v.4h-1.1v.8h1.3v.4h-3.1V93h1.4v-.8h-1v-.4h1v-.7h-1v-2.6h2.4v2.6h-1zm-1-1.5h.7v-.7h-.7v.7zm.7.4h-.7v.7h.7V90zm.3-.4h.7v-.7h-.7v.7zm0 .4v.7h.7V90h-.7zM219.9 88.6v.4h-2.3c-.2.7-.5 1.2-.7 1.6h2.6v2.8h-.4V93h-2.2v.4h-.4v-2.3c-.2.4-.5.7-.9 1l-.3-.3c.5-.4.9-.8 1.2-1.4.2-.4.4-.9.6-1.5h-1.5v-.4h4.3zm-.8 4.1V91h-2.2v1.7h2.2zM222.4 89.4v.3h-1.8v-.3h1.8zm-.2-.8v.3h-1.4v-.3h1.4zm0 1.5v.3h-1.4v-.3h1.4zm0 .7v.3h-1.4v-.3h1.4zm0 .9v1.5h-1.1v.3h-.3v-1.8h1.4zm-.4 1.1V92h-.7v.8h.7zm3.2-4.2V93c0 .2 0 .3-.1.3s-.2.1-.5.1c0-.1-.1-.3-.1-.4h.3s.1 0 .1-.1v-4.1H223V91c0 .9-.1 1.7-.4 2.3-.1-.1-.2-.3-.3-.3.2-.5.4-1.2.4-2v-2.5h2.3zm-1.4 1.1v-.6h.3v.6h.4v.3h-.4v.6h.6v.3h-1.4v-.3h.5V90h-.5v-.3h.5zm.7 1.6v1.3h-.8v.4h-.3v-1.7h1.1zm-.3 1v-.7h-.5v.7h.5zM228.3 91.8c-.5.6-1.2 1.1-2.1 1.5 0-.1-.1-.2-.2-.4.8-.3 1.4-.8 2-1.4-.3-.3-.6-.6-.9-.8l.2-.3c.4.3.7.5 1 .8.3-.4.6-.9.8-1.5h-1.6c-.4.7-.9 1.2-1.5 1.6-.1-.1-.1-.3-.3-.4.5-.4.9-.7 1.1-1 .2-.3.5-.8.7-1.4l.4.2-.3.6h1.7l.2.3c-.3 1-.7 1.7-1.2 2.2zM232.7 90.1v3.2h-.4v-2.8c-.7.6-1.3 1-1.9 1.3-.1-.2-.1-.3-.2-.4.6-.3 1.2-.7 1.9-1.2.6-.5 1.1-1.1 1.6-1.7l.4.4c-.6.4-1 .9-1.4 1.2zM235.9 91.3c-.2.7-.5 1.3-1.1 1.9-.1-.1-.2-.3-.3-.4.4-.3.7-.7.9-1.2.1-.4.2-.9.3-1.5v-1h.4c-.1 1-.1 1.8-.2 2.2zm1.3 1.7-.3-.3v-4.1h.4v3.7c.5-.4 1.1-1 1.6-1.8l.3.3c-.7 1-1.3 1.7-2 2.2zM240.6 92.4c-.2.4-.4.7-.8 1.1l-.3-.3c.3-.4.6-.7.8-1 .2-.4.3-.8.3-1.3s-.1-.9-.3-1.3c-.2-.3-.4-.7-.8-1l.3-.3c.4.4.6.8.8 1.1.2.4.3.9.3 1.5s-.1 1-.3 1.5zM192.1 67.9v.9h3.2v.4h-3.4l-1.2 1.7c.4.2.7.4 1 .6l1.6-1.6.6.3-2.7 2.6c.9 0 1.8-.1 2.9-.2-.3-.2-.6-.5-.9-.7l.5-.3c.8.6 1.3 1.2 1.7 1.6l-.5.3c-.1-.2-.3-.3-.5-.5-2.3.2-4.3.4-5.9.4l-.1-.5c.6 0 1.3 0 2-.1l.9-.9c-.7-.5-1.6-.9-2.6-1.3l.3-.4c.4.2.8.3 1.2.5l.9-1.4h-2.9v-.4h3.2V68h.7zM191.4 74.3v1.9h-2.3v3.4h-.6v-5.3h2.9zm-.6.7v-.4h-1.7v.4h1.7zm0 .7v-.4h-1.7v.4h1.7zm4.3-1.4V79c0 .2-.1.3-.2.4-.2.1-.5.1-1 .1 0-.2-.1-.3-.2-.5h.7c.1 0 .1 0 .1-.1v-2.8h-1.9l.5.1-.5.6h1.1v.3h-1.8v.5h2.1v.4h-1.8c.2.2.3.4.5.5.2.2.5.3 1 .5-.1.1-.3.2-.4.3-.4-.2-.8-.4-1-.6-.2-.1-.4-.3-.5-.6-.1.1-.2.2-.2.4-.3.3-.8.6-1.5.8-.1-.1-.2-.3-.4-.4.7-.2 1.2-.4 1.5-.7l.2-.2h-1.6v-.4h1.7v-.5H190v-.3h.9c-.1-.2-.3-.3-.5-.5l.4-.2c.2.2.5.4.7.6l-.3.2h1l.5-.7h-.3v-1.9h2.7zm-.6.3h-1.7v.4h1.7v-.4zm0 .8h-1.7v.4h1.7v-.4zM189.2 81v2.8c.3-.1.7-.2 1.1-.3v-3.2h.5v5.4h-.5v-1.8l-2.1.6-.1-.4c.2 0 .4-.1.6-.1v-3h.5zm6.1-.1c-.4 1.2-.9 2.1-1.4 2.7-.1.1-.2.2-.3.4.5.5 1.1.9 1.9 1.3-.2.1-.3.2-.4.3-.8-.4-1.4-.8-1.9-1.3-.5.5-1.2.9-1.9 1.4-.1-.2-.2-.3-.4-.4.8-.4 1.4-.8 2-1.3-.1-.1-.2-.2-.2-.3-.4-.7-.7-1.6-.7-2.5h-.7v-.4h3.6l.4.1zm-2 2.7c.1 0 .1-.1.1-.1.5-.7.9-1.5 1.2-2.4h-2.1c.1 1 .3 1.8.8 2.5zM189.9 86.6l-.8 1.2c.2.1.3.2.5.3l.8-1 .5.2-1.5 1.8c.3 0 .7 0 1-.1-.1-.1-.1-.2-.2-.3l.5-.1c.2.3.4.6.5 1l-.5.1c0-.1-.1-.2-.1-.3-.2 0-.5.1-.7.1v2.4h-.5v-2.4c-.5.1-.9.1-1.3.1l-.1-.4h.8l.5-.7c-.4-.3-.8-.5-1.3-.7l.3-.3c.1.1.2.1.4.2l.7-1.2.5.1zm-.9 3.5c0 .5-.2 1-.4 1.4l-.5-.1c.2-.4.3-.9.4-1.4l.5.1zm2.1 1c-.1 0-.3 0-.5.1-.2-.3-.2-.7-.3-1.1h.5c0 .3.1.6.3 1zm1.8-3.5v-1.2h.5v1.2h1.7v3.7c0 .2-.1.3-.2.4-.1.1-.4.1-.8.1 0-.2-.1-.3-.2-.5h.6c.1 0 .1 0 .1-.1V88h-1.2c0 .3 0 .6-.1.8.4.4.8.8 1.2 1.3l-.5.3c-.2-.3-.5-.7-.9-1-.2.4-.4.9-.8 1.3-.1-.1-.3-.2-.5-.3V92h-.5v-4.3h1.6zm-.2 1.5c.1-.3.2-.6.2-1.1h-1v2.3c.4-.4.6-.8.8-1.2zM188.2 93.8c.6-.4 1.1-.8 1.6-1 .6-.3 1.3-.4 2.1-.4s1.5.1 2.1.4c.5.2 1 .5 1.6 1l-.4.3c-.5-.4-1-.7-1.5-.9-.6-.2-1.2-.4-1.9-.4s-1.3.1-1.9.4c-.4.2-.9.5-1.5.9l-.2-.3zM192.8 100c-.3.2-.6.4-.9.4-.4 0-.7-.1-1-.4-.3-.3-.4-.6-.5-1.1h.5c.1.4.2.6.3.8.1.1.4.2.6.2.2 0 .4-.1.6-.2.2-.2.3-.4.3-.7 0-.3-.3-.7-.9-1-.9-.5-1.3-1-1.3-1.6 0-.4.1-.8.4-1 .2-.2.5-.3.9-.3.6 0 1 .4 1.3 1.3h-.5c-.2-.5-.4-.8-.8-.8-.2 0-.4.1-.5.2-.2.1-.3.4-.3.6 0 .3.2.5.6.8.4.3.7.5 1.1.7.4.3.6.7.6 1.1 0 .4-.2.7-.5 1zM189.8 102.7c-.5-.2-1-.5-1.6-1l.4-.3c.5.4 1 .7 1.5.9.6.2 1.2.4 1.9.4s1.3-.1 1.9-.4c.4-.2.9-.5 1.5-.9l.4.3c-.6.4-1.1.8-1.6 1-.6.3-1.3.4-2.1.4-1 0-1.7-.1-2.3-.4zM189.1 207.7v-3.8h.4v3.5h2.4v.4h-2.8zM190.7 209.4v.3h-.5v.6h.6v.3h-.6v1h-.3v-1h-.6c0 .2-.1.4-.2.6-.1.3-.4.5-.7.7-.1-.1-.1-.2-.2-.3.3-.1.5-.3.6-.6.1-.1.1-.2.1-.4h-.6v-.3h.7v-.6h-.5v-.3h2.2zm-.4 2.8v-.4h.3v.4h1.5v.3h-1.5v.6h2v.3h-4.3v-.3h2v-.6h-1.4v-.3h1.4zm-.4-2.5h-.6v.6h.6v-.6zm1.6-.2v1.8h-.3v-1.8h.3zm.9-.3v2.3c0 .1-.1.2-.2.2-.1.1-.3.1-.5.1 0-.1 0-.2-.1-.4h.4s.1 0 .1-.1v-2.2h.3zM192.3 214.6c-.4.1-.9.2-1.6.2v.7h1.7v.3h-1.7v.8h2v.3h-2v1.2c0 .1-.1.2-.2.3-.1.1-.4.1-.6.1 0-.1 0-.3-.1-.4h.5c.1 0 .1 0 .1-.1v-1.1h-1.9v-.3h1.9v-.8h-1.7v-.3h1.7v-.7c-.5 0-1.1.1-1.5.1 0-.2-.1-.3-.2-.3.7 0 1.3 0 1.9-.1.5-.1 1.1-.1 1.6-.2l.1.3zM188.9 220v-1h.3v1h.4v.3h-.4v.7c.1 0 .3-.1.4-.2v.3c-.1.1-.3.1-.4.2v1.7c0 .1-.1.2-.2.2s-.3.1-.6.1c0-.1 0-.2-.1-.3h.5c.1 0 .1 0 .1-.1v-1.5c-.2.1-.4.2-.6.2l-.1-.3c.2-.1.4-.1.7-.2v-.9h-.6v-.2h.6zm2.1-.8v1.8l.3.1-.1.4h1.1v2h-.3v-.2h-1.6v.2h-.4v-2h.9l.1-.4c-.1 0-.2.1-.5.1 0-.1 0-.3-.1-.3h.2c.1 0 .1 0 .1-.1v-1.3h-1v-.3h1.3zm-.4 1.4c-.3.1-.6.2-.8.3l-.1-.3c.2-.1.5-.2.9-.3v.3zm-.2-.6-.2.2-.4-.4.1-.2c.2.2.3.3.5.4zm1.6 2.2v-.4h-1.6v.4h1.6zm0 .7v-.5h-1.6v.5h1.6zm.5-3.7v1.7c0 .1 0 .2-.1.2s-.2.1-.5.1c0-.1 0-.3-.1-.3H192.1v-1.3h-1v-.3h1.4zm-.6.8-.2.2c-.1-.1-.3-.2-.5-.3l.1-.2.6.3zm.1.5c-.3.1-.5.2-.7.3l-.1-.3c.2-.1.5-.2.8-.3v.3zM256.6 107.6l.2 2.1h-.5l-.2-2.1-2.4.2-.1-.5 2.4-.2-.1-1.2-1.8.2v-.5l1.8-.2-.1-1.3h.5l.1 1.3 1.8-.2v.5l-1.8.2.1 1.2 2.4-.2.1.5-2.4.2zM260.3 107.5c-.2-.3-.4-.7-.7-1.1l.4-.2c.2.4.5.7.7 1.2l-.4.1zm2.9.2c-.3.6-.7 1-1.1 1.4-.4.3-.9.6-1.5.8-.1-.2-.2-.3-.3-.4.6-.2 1-.4 1.4-.6.4-.3.7-.7 1-1.2.2-.4.4-.9.6-1.7l.5.1c-.2.7-.4 1.2-.6 1.6zm-1.7-.6c-.1-.4-.3-.8-.5-1.1l.4-.2c.2.4.4.8.6 1.1l-.5.2zM267.5 106.7c-.1.9-.2 1.5-.5 1.9-.3.4-.9.8-1.7 1.1-.1-.1-.2-.3-.3-.5.7-.2 1.2-.5 1.5-.8.3-.4.5-1 .5-1.7h-2.6v-.5h2.6V105c-.8.1-1.4.2-1.9.3 0-.2-.1-.3-.2-.4 1.4-.1 2.7-.4 3.9-.7l.2.4-1.5.3v1.2h2.5v.5h-2.5zM273.5 108.1c-.7.5-1.5 1-2.5 1.5l-.3-.6c1.8-.6 3.3-1.7 4.6-3.3.1.2.2.3.4.4-.8.8-1.5 1.5-2.2 2zm-1.3-2.1c-.5-.4-1-.8-1.4-1.1l.3-.4c.5.3 1 .7 1.5 1.1l-.4.4zM253.1 113.8c-.3.7-.7 1.3-1.1 1.8-.1-.2-.3-.3-.4-.4.8-.9 1.4-2.1 1.8-3.7l.5.2c-.3.9-.6 1.6-.8 2.1zm3.6 1.7c-.4-1.3-1-2.5-1.8-3.7l.4-.3c.8 1.2 1.4 2.5 1.9 3.8l-.5.2zm.4-3.6c-.1.1-.3.2-.4.2-.2 0-.3-.1-.5-.2-.1-.1-.2-.3-.2-.5s.1-.3.2-.5c.1-.1.3-.2.5-.2s.3.1.4.2c.1.1.2.3.2.4 0 .3-.1.5-.2.6zm-.2-.7c-.1-.1-.2-.1-.2-.1-.2 0-.4.1-.4.3 0 .1 0 .2.1.3.1.1.2.1.3.1.1 0 .2 0 .2-.1.1-.1.1-.2.1-.3 0 0 0-.1-.1-.2zM260.6 114.6c-.7.5-1.5 1-2.5 1.5l-.3-.6c1.8-.6 3.3-1.7 4.6-3.3.1.2.2.3.4.4-.8.8-1.5 1.5-2.2 2zm-1.3-2c-.5-.4-1-.8-1.4-1.1l.3-.4c.5.3 1 .7 1.5 1.1l-.4.4zM267.2 114.2c-.7-.4-1.6-.8-2.7-1.2v3.3h-.5v-5.6h.5v1.8c1 .3 2 .7 3 1.2l-.3.5zM268.6 114.2v-3.1h.5v3.1h-.5zm3.3-1.7c0 .8-.1 1.4-.2 1.8-.1.5-.4.9-.7 1.2-.3.3-.9.6-1.6.8-.1-.2-.2-.3-.3-.5.9-.2 1.6-.6 1.8-1.1.3-.4.4-1.1.4-2.2v-1.7h.5l.1 1.7zM272.8 113.7v-.5h5.1v.5h-5.1zM260.9 123c-.5-.5-.8-.9-1-1.3-.3-.5-.4-1.1-.4-1.7 0-.6.1-1.2.4-1.7.2-.4.6-.8 1-1.3l.3.3c-.4.4-.8.8-1 1.2-.3.4-.4.9-.4 1.5 0 .5.1 1 .4 1.5.2.4.5.7 1 1.2l-.3.3zM262.5 118.5v-1.4h.4v1.4h.7v.4h-.7v.5l.3.3c.1.1.2.2.4.3-.1.1-.2.3-.3.4-.2-.1-.3-.2-.4-.3 0 0-.1 0-.1-.1v2.9h-.4v-3l-.3.6c-.2.3-.3.5-.4.6-.1-.2-.1-.3-.3-.4.2-.3.4-.6.5-.9.1-.3.3-.6.4-1h-.7v-.4h.9zm2.8-1.1v4.9c0 .1 0 .2-.1.3-.1.1-.3.1-.7.2 0-.2-.1-.3-.1-.4h.3c.1 0 .2 0 .2-.1v-1.4h-.7c0 .2-.1.4-.1.6-.1.6-.3 1-.5 1.5-.1-.2-.2-.3-.3-.4.2-.4.4-.8.5-1.3.1-.4.1-.9.1-1.5v-2.2h1.4zm-.5 3v-1.1h-.6v1.1h.6zm0-1.5v-1.1h-.6v1.1h.6zm2.5-1.5v5c0 .1 0 .2-.1.3-.1.1-.3.1-.7.1 0-.2-.1-.3-.1-.4h.3c.1 0 .2 0 .2-.1v-1.6h-.7c0 .3 0 .6-.1.8-.1.5-.2 1-.4 1.4-.1-.2-.2-.3-.3-.4l.3-1.2c0-.4.1-.9.1-1.4v-2.5h1.5zm-.4 3v-1.1h-.7v1.1h.7zm0-1.5v-1.1h-.7v1.1h.7zM269.4 121.8c-.2.4-.6.8-1 1.3l-.3-.3c.4-.4.8-.8 1-1.2.2-.4.4-.9.4-1.5 0-.5-.1-1-.4-1.5-.2-.4-.5-.7-1-1.2l.3-.3c.5.5.8.9 1 1.3.3.5.4 1.1.4 1.7.1.6-.1 1.1-.4 1.7zM461.8 530.7c0 .3 0 .5-.1.7h.5v-1.3h.4v1.3h.6v.3h-.6v1.2c.2-.1.4-.1.6-.2v.4c-.2.1-.4.1-.6.2v2.1h-.4v-2c-.3.1-.7.2-1 .3l-.1-.4c.3-.1.7-.2 1.1-.3v-1.3h-.5c-.1.3-.1.6-.2.8h-.3c.2-.6.3-1.2.4-1.9l.2.1zm2.6-.4c-.1.4-.2.7-.4 1h2.1l-.1 3c0 .3-.1.6-.1.7-.1.1-.2.2-.5.3h-.5c0-.2 0-.3-.1-.4h.6c.1 0 .2 0 .2-.1s0-.2.1-.4l.1-2.7h-.4c0 .8-.2 1.5-.5 2.1-.4.6-.8 1.1-1.4 1.5l-.3-.3c.6-.4 1-.8 1.3-1.4.3-.5.5-1.1.5-1.9h-.4c-.1.4-.2.9-.4 1.3-.3.5-.6.8-.9 1.1-.1-.1-.1-.2-.2-.3.3-.2.6-.5.8-.8.2-.3.3-.7.4-1.2h-.3c-.2.4-.4.7-.6 1-.1-.1-.2-.2-.3-.2.3-.4.5-.8.6-1.2.2-.4.3-.7.4-1.1h.3zM465.8 536.3v.4h-2v1.5h2.3v.4h-2.3v2.6h-.4v-2.6h-2.3v-.4h2.3v-1.5h-1.9v-.4h4.3zM464 541.8c0 .1-.1.1-.1.1.4.4.8.8 1.2 1.1.4.3.8.6 1.2.7-.1.1-.2.3-.2.4-.4-.2-.7-.4-1-.6v.3h-1.2v.6h2v.4h-2v1.4h2.3v.4h-4.9v-.4h2.2v-1.4h-2v-.4h2v-.6h-1.2v-.3c-.4.3-.7.5-.9.6-.1-.1-.2-.3-.3-.3.5-.3.9-.6 1.3-1s.8-.8 1.2-1.3l.4.3zm-1.2 4.1-.4.2c-.1-.2-.3-.5-.4-.7l.4-.2c.1.2.3.4.4.7zm2.2-2.4c-.1-.1-.3-.2-.4-.3-.4-.3-.7-.7-1-1-.3.4-.7.7-1 1.1-.1.1-.2.2-.3.2h2.7zm.4 1.8-.5.9-.3-.2.4-.9.4.2zM461.8 547.9c0 .3 0 .5-.1.7h.5v-1.3h.4v1.3h.6v.3h-.6v1.2c.2-.1.4-.1.6-.2v.4c-.2.1-.4.1-.6.2v2.1h-.4v-2c-.3.1-.7.2-1 .3l-.1-.4c.3-.1.7-.2 1.1-.3V549h-.5c-.1.3-.1.6-.2.8h-.3c.2-.6.3-1.2.4-1.9h.2zm2.6-.4c-.1.4-.2.7-.4 1h2.1l-.1 3c0 .3-.1.6-.1.7-.1.1-.2.2-.5.3h-.5c0-.2 0-.3-.1-.4h.6c.1 0 .2 0 .2-.1s0-.2.1-.4l.1-2.7h-.4c0 .8-.2 1.5-.5 2.1-.4.6-.8 1.1-1.4 1.5l-.3-.3c.6-.4 1-.8 1.3-1.4.3-.5.5-1.1.5-1.9h-.4c-.1.4-.2.9-.4 1.3-.3.5-.6.8-.9 1.1-.1-.1-.1-.2-.2-.3.3-.2.6-.5.8-.8.2-.3.3-.7.4-1.2h-.3c-.2.4-.4.7-.6 1-.1-.1-.2-.2-.3-.2.3-.4.5-.8.6-1.2.2-.4.3-.7.4-1.1h.3zM121 188.1l-.9 1.8-.4-.2 1-1.8c.1.1.2.2.3.2zm-.2-1.2-.2.3c-.2-.2-.5-.4-.8-.5l.2-.3c.3.1.6.3.8.5zm.3-1.3-.2.3c-.2-.3-.5-.5-.7-.6l.2-.3c.2.1.4.3.7.6zm1.1-.4c-.1.3-.2.5-.3.7h.8v-1h.4v1h1.4v.3h-1.4v1h1.7v.3h-1.2v1.8c0 .1 0 .1.1.1h.6c.1 0 .2-.1.2-.1.1-.1.1-.2.1-.4.1.1.2.1.4.1 0 .2-.1.4-.2.6-.1.2-.2.2-.4.2h-.7c-.3 0-.4-.2-.4-.5v-1.8h-.8c0 .7-.1 1.2-.3 1.5-.2.3-.6.6-1.1.8-.1-.1-.1-.3-.2-.4.5-.2.9-.5 1-.8.1-.3.2-.6.2-1.1H121v-.3h1.7v-1h-1c-.1.3-.3.5-.4.7-.1-.1-.2-.2-.3-.2.2-.3.4-.5.5-.8.1-.3.2-.5.3-.8l.4.1zM126.4 186.7l-.2.3c-.2-.1-.5-.2-.7-.3l.1-.3c.4.1.6.2.8.3zm.3 1.4-.8 1.8-.3-.2.8-1.8c.1.2.2.2.3.2zm0-2.6-.2.3c-.2-.2-.4-.4-.6-.5l.2-.3c.2.1.4.3.6.5zm1.3 1.5c-.1.1-.1.2-.2.3h1c.1-.1.2-.3.3-.5l.3.1c-.1.1-.1.3-.2.4h1.3v.3h-1.4v.4h1.3v.3h-1.3v.4h1.3v.3h-1.3v.5h1.5v.3h-2.9v.2h-.4v-2.1l-.4.4c-.1-.1-.1-.2-.2-.3.2-.1.4-.3.6-.5.2-.2.3-.4.5-.7l.2.2zm.5-2v1.8h-.4v-.1H127v-.3h1.1v-.4H127v-.3h1.1v-.4H127v-.3h1.5zm.2 2.6h-1.1v.4h1.1v-.4zm0 .7h-1.1v.4h1.1v-.4zm0 1.1v-.4h-1.1v.5h1.1zm1.7-4.4v1.8h-.4v-.1h-1.2v-.3h1.2v-.4h-1.2v-.3h1.2v-.4h-1.2v-.3h1.6zM132 186v-1.2h.4v1.2h.5v.4h-.5v.6c.1.1.1.2.2.2l.3.3c-.1.1-.2.2-.2.3l-.3-.3v2.5h-.4v-2.4c-.1.4-.3.7-.5 1-.1-.1-.1-.2-.2-.3.2-.3.3-.6.4-.9.1-.2.2-.5.2-.9h-.6v-.5h.7zm2-.9-.5.9.2.2.3-.5.3.2-.7 1.1h.4c0-.1-.1-.2-.1-.3l.3-.1c.1.2.3.5.4.7-.1-.5-.1-1.3-.1-2.4h.4v1l.2-.2c.1 0 .1.1.2.1l.3-.8.3.2-.4.8.2.2.3-.5.3.2-.7 1.1h.4c0-.1-.1-.2-.1-.2l.3-.1c.1.2.2.5.3.8l-.4.1c0-.1 0-.1-.1-.2-.4.1-.8.1-1.1.1l-.1-.4h.2l.3-.5c-.2-.2-.4-.4-.7-.5 0 .7.1 1.2.1 1.6v.2h.6c0-.1-.1-.2-.1-.3l.3-.1c.1.1.2.3.2.4h.5v.4H135c0 .2.1.4.2.5 0 .1.1.2.2.3.2-.2.4-.4.5-.6l.3.2c-.1.2-.3.4-.6.6.2.2.3.3.4.3 0 0 .1-.1.2-.5.1.1.2.1.4.2-.1.4-.2.6-.3.6 0 .1-.1.1-.2.1-.2 0-.5-.1-.7-.3l-.2-.2c-.4.3-.8.4-1.2.6 0-.1-.1-.2-.2-.4.4-.1.7-.3 1.1-.5h.1c-.1-.1-.1-.2-.2-.4s-.2-.5-.2-.7h-.7c0 .2-.1.3-.1.4.3.1.5.3.7.5l-.2.3c-.2-.2-.4-.3-.6-.4 0 .1-.1.2-.1.3-.1.3-.3.6-.6.9l-.3-.3c.2-.2.4-.5.5-.8.1-.2.2-.5.3-.8h-.6v-.4h1.7V187.5l-.4.1c0-.1 0-.1-.1-.2-.4.1-.8.1-1.1.1l-.1-.4h.2l.3-.5c-.2-.2-.5-.4-.7-.6l.2-.3c.1.1.2.1.2.2l.4-.9.5.1zM125.5 193v.4h2.3v.3h-2.3v.4h1.5v1.9h-3v-1.9h1.1v-.4h-2.4v-.3h2.4v-.4h-2v-1.2h4.2v1.2h-1.8zm-2.1 1.2v2.1h4.4v.3h-4.4v.3h-.4v-2.7h.4zm.1-1.5h.9v-.6h-.9v.6zm.9 2h2.2v-.3h-2.2v.3zm0 .2v.3h2.2v-.3h-2.2zm0 .5v.3h2.2v-.3h-2.2zm.4-2.7h1v-.6h-1v.6zm1.3 0h.9v-.6h-.9v.6zM129 193.2v-1.4h.4v1.4h.6v.4h-.6v1.7c.2-.1.4-.1.6-.2v.3c.2-.1.4-.3.5-.4.1-.2.3-.3.4-.6h-.9v-.4h3.6v.4h-2.3c-.1.2-.2.3-.2.4h2.3c0 .7 0 1.2-.1 1.5-.1.2-.1.4-.2.5-.1.1-.3.1-.7.1 0-.1 0-.3-.1-.4h.5c.1 0 .1-.1.2-.3 0-.2.1-.6.1-1.1h-.4c-.2.5-.4.8-.7 1.1-.3.3-.6.5-.9.6 0-.1-.1-.2-.2-.3l.9-.6c.2-.2.4-.5.5-.9h-.5c-.2.3-.4.6-.6.8-.3.2-.5.4-.7.5 0-.1-.1-.2-.2-.3.3-.1.5-.3.7-.5.1-.1.3-.3.4-.5h-.5c-.2.2-.4.4-.8.6-.1-.1-.1-.2-.2-.3-.5.2-.9.3-1.4.4l-.1-.4c.2 0 .4-.1.7-.2v-1.8h-.6v-.4h.5zm1.7.4v-1.8h2.4v1.8h-2.4zm.3-1h1.7v-.4H131v.4zm0 .3v.4h1.7v-.4H131zM265.1 77.4v1h2.6v.4H265l-1 1.8c.3.2.6.4.8.6l1.3-1.7.5.3-2.2 2.7c.7-.1 1.5-.1 2.3-.2-.2-.3-.5-.5-.7-.8l.4-.3c.6.7 1.1 1.2 1.4 1.7l-.4.3c-.1-.2-.2-.3-.4-.5-1.8.2-3.4.4-4.7.4l-.1-.5c.5 0 1 0 1.6-.1l.8-1c-.6-.5-1.3-1-2.1-1.4l.2-.4.9.6.7-1.5H262v-.4h2.6v-1h.5zM264.6 83.7v2h-1.8v3.6h-.5v-5.6h2.3zm-.5.8v-.4h-1.4v.4h1.4zm0 .8v-.4h-1.4v.4h1.4zm3.4-1.6v5.1c0 .2-.1.4-.2.4-.1.1-.4.1-.8.1 0-.2-.1-.3-.2-.5h.6c.1 0 .1 0 .1-.1v-3h-1.5l.4.2-.4.6h.9v.4h-1.5v.4h1.7v.4h-1.5c.1.2.3.4.4.5.2.2.4.3.8.5-.1.1-.2.2-.3.4-.4-.2-.6-.4-.8-.6-.2-.2-.3-.4-.4-.6-.1.1-.1.3-.2.4-.2.3-.7.6-1.2.9-.1-.2-.2-.3-.3-.4.6-.2 1-.4 1.2-.7.1-.1.1-.2.2-.3h-1.3v-.4h1.4v-.5h-1.2v-.4h.7c-.1-.2-.2-.3-.4-.5l.3-.3c.2.2.4.4.5.6l-.2.2h.8l.4-.8h-.2v-2h2.2zm-.4.4h-1.4v.4h1.4v-.4zm0 .8h-1.4v.4h1.4v-.4zM260 71.8c-.6.7-1.5 1.2-2.5 1.5-.1-.1-.2-.3-.3-.5.9-.2 1.7-.6 2.2-1.2.5-.5 1-1.2 1.4-2.2h-2.1c-.4.7-1 1.3-1.5 1.9-.1-.1-.3-.2-.4-.3.5-.4.9-.9 1.2-1.3.2-.4.5-.9.9-1.6l.5.2c-.1.2-.2.5-.4.8h2.1l.1-.1.3.3c-.4 1.1-.9 1.9-1.5 2.5zM260.8 78v-.4h-3.3v.4h-.5v-4.3h4.3V78h-.5zm0-3.9h-3.3V77h3.3v-2.9zM258.9 83.4v-5.1h.5v5.1h-.5zM259.9 87.1l-.3-.4c.5-.5 1-.9 1.4-1.4l-2.4.4v2.1c0 .3.2.4.6.5h1c.6 0 1.1 0 1.5-.1v.5c-.6 0-1.2.1-1.6.1-.6 0-1 0-1.3-.1-.5-.1-.7-.4-.7-.9v-2.1l-1.5.2-.1-.5 1.6-.2v-1.7h.5v1.6l2.6-.4.1-.1.4.4c-.7 1-1.3 1.6-1.8 2.1zm1.5-2.5c-.2-.2-.4-.4-.7-.6l.2-.3c.3.2.6.4.7.6l-.2.3zm.5-.5c-.2-.2-.4-.4-.7-.6l.2-.3c.3.2.6.4.7.6l-.2.3zM258.7 90.8c-.2-.3-.4-.7-.7-1.1l.4-.2c.2.4.5.7.7 1.2l-.4.1zm2.9.2c-.3.6-.7 1-1.1 1.4-.4.3-.9.6-1.5.9-.1-.2-.2-.3-.3-.4.6-.2 1-.4 1.4-.6.4-.3.7-.7 1-1.2.2-.4.4-.9.6-1.6l.5.1c-.2.5-.4 1-.6 1.4zm-1.7-.5c-.1-.4-.3-.8-.5-1.1l.4-.2c.2.4.4.8.6 1.1l-.5.2zM261.2 96.9c-.7-.4-1.6-.8-2.7-1.2V99h-.5v-5.6h.5v1.8c1 .3 2 .7 3 1.2l-.3.5zM304.6 49v-.5h.4v.5h2.5v.4H305v.5h2V52h-.8v.5h1.5v.4h-1.5v1c0 .2-.1.3-.2.3-.2.1-.4.1-.7.1 0-.2-.1-.3-.2-.5h.6c.1 0 .1 0 .1-.1v-.9H302v-.4h3.8v-.5h-3v-2.1h1.9v-.5h-2.5V49h2.4zm-.5 4.6-.4.3c-.2-.3-.4-.5-.7-.8l.3-.3c.4.3.6.6.8.8zm-1-2.9h1.5v-.5h-1.5v.5zm1.5.4h-1.5v.5h1.5v-.5zm.4-.4h1.5v-.5H305v.5zm0 .4v.5h1.5v-.5H305zM313.7 48.9v4.9c0 .2-.1.4-.2.4-.1.1-.4.1-.7.1 0-.2-.1-.3-.1-.5h.5c.1 0 .1 0 .1-.1v-1.5h-1.7v2.1h-.4v-2.1h-1.5c-.1.9-.3 1.6-.8 2.2-.1-.2-.3-.3-.4-.4.5-.6.8-1.4.8-2.5v-2.7h4.4zm-2.6 2.9v-1h-1.5v1.1h1.5zm0-1.5v-1.1h-1.5v1.1h1.5zm.5 0h1.7v-1.1h-1.7v1.1zm0 1.5h1.7v-1h-1.7v1zM292.5 60c-.7-.4-1.6-.8-2.7-1.2v3.3h-.5v-5.6h.5v1.8c1 .3 2 .7 2.9 1.2l-.2.5zM296.9 60.9c-.6.5-1.4.9-2.5 1.2 0-.2-.1-.3-.2-.5.9-.2 1.6-.5 2.1-.9.6-.4 1-1.1 1.5-1.9h-4.2v-.5h4.6l.3.3c-.6 1-1.1 1.8-1.6 2.3zm-2.7-3.6v-.5h3.5v.5h-3.5zM302.1 60.4c-.7.5-1.5 1-2.5 1.5l-.3-.6c1.8-.6 3.3-1.7 4.6-3.3.1.2.2.3.4.4-.9.8-1.6 1.5-2.2 2zm-1.4-2c-.5-.4-1-.8-1.4-1.1l.3-.4c.5.3 1 .7 1.5 1.1l-.4.4zM308.1 60.5c-.6.7-1.5 1.2-2.5 1.5-.1-.1-.2-.3-.3-.5.9-.2 1.7-.6 2.2-1.2.5-.5.9-1.2 1.4-2.2h-2.1c-.4.7-1 1.3-1.5 1.9-.1-.1-.3-.2-.4-.3.5-.4.9-.9 1.2-1.3.2-.4.5-.9.9-1.6l.5.2c-.1.2-.2.5-.4.8h2.1l.1-.1.3.3c-.5 1-1 1.9-1.5 2.5zM311.9 59.8c-.2.8-.7 1.5-1.4 2.1-.1-.2-.2-.3-.3-.4.5-.4.9-.8 1.1-1.4.2-.4.3-1 .3-1.7v-1.2h.5c0 1.2-.1 2-.2 2.6zm1.6 2-.4-.4.1-.1v-4.5h.5V61c.7-.5 1.4-1.2 2-2 .1.1.2.2.4.3-.9 1.1-1.7 1.9-2.6 2.5zM316.6 59.5V59h5.1v.5h-5.1zM326.9 61.8c-.1-.2-.2-.4-.4-.7-2 .3-3.4.5-4.3.6l-.1-.6h.7c.6-1.2 1.2-2.6 1.7-4.3l.6.2c-.8 1.9-1.4 3.2-1.8 4 .9-.1 1.9-.2 2.9-.3-.3-.5-.7-1.1-1.1-1.6l.4-.3c.8 1 1.4 1.9 1.8 2.7l-.4.3zM287.2 327.2v.9h2.4v.4H285v1.5c0 1.3-.3 2.3-.9 3.2-.1-.2-.2-.3-.4-.4.6-.7.8-1.6.8-2.8v-1.9h2.1v-.9h.6zm-.1 2.5v-1h.4v1h2v.4h-1.8c.2.4.4.7.7 1 .3.4.7.7 1.3 1-.2.1-.3.3-.3.4-.5-.3-.9-.7-1.3-1.1l-.6-.9v2.6h-.4v-2.5c-.2.3-.5.7-.7.9-.4.4-.8.8-1.2 1.1-.1-.1-.1-.3-.3-.4.4-.2.7-.5 1.1-.9.3-.3.6-.7.9-1.2h-1.5v-.4h1.7zM292.1 327.8v4h-1v.7h-.4v-4.6h1.4zm-.4 1.8v-1.4h-.6v1.4h.6zm0 1.8V330h-.6v1.4h.6zm4.2-3.3-.5 1h.7v.4h-2c0 .2-.1.4-.1.5h2.3v.4H294c-.1.2-.1.3-.2.5H295.5l.2.3c-.2.4-.5.8-.8 1.1.4.2.9.4 1.5.5-.1.2-.2.3-.3.4-.6-.1-1.1-.3-1.6-.6-.4.3-.9.5-1.6.6 0-.1-.1-.3-.2-.4.6-.1 1.1-.3 1.4-.5-.3-.2-.5-.5-.7-.7-.3.5-.7.9-1.2 1.3l-.3-.3c.6-.4 1-.8 1.3-1.3.1-.2.2-.4.3-.7h-1.1v-.6h1.2c0-.2.1-.4.1-.5h-1.2v-.4h2.5l.5-1.1.4.1zm.1-.4c-1.2.2-2.3.4-3.3.4 0-.1-.1-.2-.2-.4 1.1-.1 2.2-.2 3.2-.4l.3.4zm-2.5 1.2-.4.1-.3-.6.3-.1c.2.1.3.3.4.6zm1 3c.3-.2.5-.5.6-.8h-1.4c.2.4.4.6.8.8zm0-3.1-.4.1c-.1-.2-.1-.4-.2-.7l.3-.1c.2.2.3.5.3.7zM297.9 331.4c-.1.6-.3 1.1-.6 1.6-.1-.2-.2-.3-.3-.4.3-.4.4-.9.5-1.4.1-.5.1-1.1.1-1.8v-1.2h4.6v1.3h-1.8v.7h2.3v.4h-2.6c0 .2-.1.4-.1.6h2.2l-.1 1.1c0 .3-.1.5-.3.6-.2.1-.5.1-.9.1 0-.1 0-.3-.1-.4h.8s.1-.1.1-.2l.1-.7h-1.9c-.1.1-.1.3-.2.4-.3.4-.8.8-1.5 1-.1-.1-.2-.3-.3-.4.7-.2 1.2-.5 1.5-.9.2-.3.3-.7.4-1.1h-1.4v-.4h1.7v-.7h-2c-.1.7-.1 1.3-.2 1.8zm4.8-3.9v.4H297v-.4h5.7zm-4.7 1.7h3.7v-.6H298v.6zM359.7 412.9c-.2 2.2-.6 3.7-1.2 4.6-.6.8-1.8 1.7-3.6 2.6-.2-.4-.4-.7-.7-1 1.7-.6 2.8-1.3 3.4-2.1.5-.8.9-2.1 1-4h-5.8v-1.1h12.3v1.1h-5.4zm-4.8-3.3v-1h8.1v1h-8.1zM373.8 417.2c-1.2 1.1-3 2-5.4 2.6-.1-.4-.3-.7-.5-1.1 2-.4 3.5-1 4.7-1.9 1.2-.9 2.3-2.3 3.2-4.2h-9.2v-1.1l10-.1.7.7c-1.2 2.4-2.3 4.1-3.5 5.1zm-5.9-7.8v-1.1h7.6v1.1h-7.6zM389.6 419.1c-1.1-1.6-2.5-3.2-4.1-4.6-1.5 1.7-3.4 3.3-5.9 4.6-.2-.4-.5-.8-.8-1.1 2-.9 3.7-2 4.9-3.2 1-1 2.2-2.7 3.7-5h-7.2v-1.1h7.7l.1-.1.8.8c-.9 1.5-1.7 2.9-2.6 4 1.8 1.5 3.3 3.1 4.5 4.7l-1.1 1zM146.8 412.9c-.2 2.2-.6 3.7-1.2 4.6-.6.8-1.8 1.7-3.6 2.6-.2-.4-.4-.7-.7-1 1.7-.6 2.8-1.3 3.4-2.1.5-.8.9-2.1 1-4h-5.8v-1.1h12.3v1.1h-5.4zm-4.8-3.3v-1h8.1v1H142zM160.9 417.2c-1.2 1.1-3 2-5.4 2.6-.1-.4-.3-.7-.5-1.1 2-.4 3.5-1 4.7-1.9 1.2-.9 2.3-2.3 3.2-4.2h-9.2v-1.1l10-.1.7.7c-1.2 2.4-2.3 4.1-3.5 5.1zm-5.9-7.8v-1.1h7.6v1.1H155zM176.7 419.1c-1.1-1.6-2.5-3.2-4.1-4.6-1.5 1.7-3.4 3.3-5.9 4.6-.2-.4-.5-.8-.8-1.1 2-.9 3.7-2 4.9-3.2 1-1 2.2-2.7 3.7-5h-7.2v-1.1h7.7l.1-.1.8.8c-.9 1.5-1.7 2.9-2.6 4 1.8 1.5 3.3 3.1 4.5 4.7l-1.1 1zM223.3 132.9v-1.2h.4v1.2h.7v.4h-.7v1c.2-.1.4-.1.7-.2v.4c-.2.1-.5.1-.7.2v1.7c0 .1-.1.2-.2.3-.1.1-.4.1-.6.1 0-.1 0-.3-.1-.4h.5c.1 0 .1 0 .1-.1v-1.5c-.3.1-.6.2-.8.2l-.1-.4c.3-.1.6-.1.9-.2v-1.1h-.9v-.4h.8zm4-.8c-.8.3-1.5.4-2.1.5v.9h2.3v.4h-.7v2.9h-.4v-2.9h-1.2v.2c0 .5-.1.9-.2 1.3-.1.5-.3.9-.6 1.3-.1-.1-.2-.2-.3-.2.3-.4.4-.7.6-1.1.1-.4.2-.8.2-1.2v-1.9l.3.1c.7-.1 1.4-.2 2-.5l.1.2zM225.1 137.5v1.8h1.8v.4h-1.8v2.3h2.3v.4h-5v-.4h2.2v-4.5h.5zM227.3 143.5v.4h-2.2v1.2h2v.3h-1.9c.1.5.4.9.7 1.3.4.5 1 .8 1.6 1-.1.1-.2.2-.3.4-.7-.3-1.2-.7-1.6-1.2-.3-.3-.5-.6-.6-1-.1.4-.2.7-.4 1-.4.5-1 1-1.9 1.3-.1-.2-.1-.3-.2-.4 1-.4 1.6-.8 1.9-1.4.1-.3.2-.6.3-1h-1.8v-.3h1.8v-1.2h-2.1v-.4h4.7zM223.8 150v-1.1h.4v1.1h1.5v-1.2h.4v1.2h1.1v.4H226v1.3h1.5v.4H226v1.9h-.4v-2h-1.5c-.1.3-.1.6-.3.9-.2.4-.6.7-1.1 1l-.3-.3c.5-.2.9-.5 1.1-.9.1-.2.2-.4.2-.7h-1.4v-.4h1.4v-1.3h-1.1v-.3h1.2zm1.9.4h-1.5v1.3h1.5v-1.3zM304.1 215.6v-1.2h.4v1.2h.6v.4h-.6v1c.2-.1.4-.1.7-.2v.4c-.2.1-.5.1-.7.2v1.7c0 .1-.1.2-.2.3-.1.1-.4.1-.6.1 0-.1 0-.3-.1-.4h.5c.1 0 .1 0 .1-.1v-1.5c-.3.1-.6.2-.8.2l-.1-.4c.3-.1.6-.1.9-.2V216h-.9v-.4h.8zm4-.8c-.8.3-1.5.4-2.1.5v.9h2.3v.4h-.7v2.9h-.4v-2.9H306v.2c0 .5-.1.9-.2 1.3-.1.5-.3.9-.6 1.3-.1-.1-.2-.2-.3-.2.3-.4.4-.7.6-1.1.1-.4.2-.8.2-1.2V215l.3.1c.7-.1 1.4-.2 2-.5l.1.2zM311.6 214.5v1.8h1.8v.4h-1.8v2.3h2.3v.4h-5v-.4h2.2v-4.5h.5zM319.6 214.7v.4h-2.2v1.2h2v.3h-1.9c.1.5.4.9.7 1.3.4.5 1 .8 1.5 1-.1.1-.2.2-.3.4-.7-.3-1.2-.7-1.6-1.2-.3-.3-.5-.6-.6-1-.1.4-.2.7-.4 1-.4.5-1 1-1.9 1.3-.1-.2-.1-.3-.2-.4 1-.4 1.6-.8 1.9-1.4.1-.3.2-.6.3-1h-1.8v-.3h1.8v-1.2h-2.1v-.4h4.8zM321.8 215.5v-1.1h.4v1.1h1.5v-1.2h.4v1.2h1.1v.4H324v1.3h1.5v.4H324v1.9h-.4v-1.9h-1.5c-.1.3-.1.6-.3.9-.2.4-.6.7-1.1 1l-.3-.3c.5-.2.9-.5 1.1-.9.1-.2.2-.4.2-.7h-1.4v-.4h1.4v-1.3h-1.1v-.4h1.2zm1.8.4h-1.5v1.3h1.5v-1.3z"/></svg>