<svg version="1.1" id="レイヤー_1" xmlns="http://www.w3.org/2000/svg" x="0" y="0" viewBox="0 0 620 643" style="enable-background:new 0 0 620 643" xml:space="preserve"><style>.st0{fill:#dfeaf8}.st1{fill:#fadce9}.st3{fill:#fffcdb}.st6{fill:#f9f4e4}.st8{fill:#fff}.st10{fill:#bfc0c0}.st12{fill:#6b7b6e}.st13{fill:none;stroke:#cfb5a7;stroke-width:.4}.st14{fill:none;stroke:#b5b5b6;stroke-miterlimit:10}.st14,.st15,.st16{stroke-width:.4}.st15{fill:none;stroke:#aaabab;stroke-linecap:round;stroke-linejoin:round;stroke-miterlimit:10;stroke-dasharray:4.5,2.5}.st16{stroke-linejoin:bevel;stroke-dasharray:15,1.3,1.3,1.3}.st16,.st17,.st18{fill:none;stroke:#000}.st17{stroke-width:.4}.st18{stroke-dasharray:9.443247e-03,0,0,0}.st18,.st19,.st22{stroke-width:.4}.st19{fill:none;stroke:#000;stroke-dasharray:1.2276,1.2182,9.443247e-03,0,0,0}.st22{stroke-dasharray:9.442525e-03,0,0,0}.st22,.st23,.st26,.st27{fill:none;stroke:#000}.st23{stroke-width:.4;stroke-dasharray:1.2275,1.2181,9.442525e-03,0,0,0}.st26,.st27{stroke-linejoin:bevel}.st26{stroke-width:.3;stroke-dasharray:1.3,1.3,0,0,0,0}.st27{stroke-dasharray:10,1.3,1.3,1.3}.st27,.st28,.st29{stroke-width:.4}.st28{fill:none;stroke:#000;stroke-miterlimit:10}.st29{stroke-dasharray:1.3,1.3,0,0,0,0}.st29,.st30,.st31{fill:none;stroke:#000}.st30{stroke-width:.4;stroke-dasharray:1.3,1.3}.st31{stroke-width:.6}</style><path class="st0" d="M116.5 47.3H177v79.1h-60.5z"/><path class="st1" d="M178.5 243.4h-3.6v1.8h-60.4v-1.8h-3.1v-24.7h67.1zM524.6 246.2h-9.8v1.8h-60.4v-1.8h-9.8v-24.7h80z"/><path class="st0" d="M182.7 229.9v-56h1.6v.4h1.1v-1.2h.7v-1h32.6v1h.7v1.2h1.1v-.9h.8v56.5z"/><path class="st1" d="M221.2 173.4h10.2v56.4h-10.2zM282.8 121.8h-9.3v1.9h-27v-20h36.3zM286.1 103.7H356v21h-69.9z"/><path style="fill:#feeab4" d="M332.8 89.3h-49.5V42.5h5.5v.7h1.9v-2.7h34.8v2.7h1.9v-.7h5.4z"/><path class="st1" d="M182.7 66.9h18.4v37.2h-18.4zM111.3 131.1h6.3v42.4h-6.3zM247.9 67.1h20.2v32.6h-20.2z"/><path class="st0" d="M352.9 200.2h-64.7v-39.6h101.3V191h-42.8v3.7h6.2z"/><path class="st3" d="M242.6 102.3h.6v5.1h-60.5v-3.3H201V67.2h1.4V55.3h37.2v11.9h3v2.5h.7v30h-.7zM247.9 99.7h-3.2v-30h2.5v-2.5h.7z"/><path style="fill:#d2cce6" d="M273.1 52.1h-15.8v-.5h-56.5v.5H192V32.3h81.1z"/><path d="M477 394.7h-2.1v-14.2h-2.5v.7l-53.9.1v-.8h-69.6v.7h-77.2v-.7h-4v11.6H211v-11.6h-2.7v.7h-72.5v-.7h-27.4V404h-4v2.3h-.6V436h.6v2.3h13.7v8.8h265.5v-8.8h29.8v8.8H475v-10.2h2.1v-2.6h2.7v-37.2h-2.7v-2.4zm-214.5 14.7c0 1-.8 1.9-1.9 1.9h-16.7c-1 0-1.9-.8-1.9-1.9v-15.8c0-.5.4-.9.9-.9h18.6c.5 0 .9.4.9.9v15.8z" style="fill:#ecf4d9"/><path class="st1" d="M371.8 195.2H389v10.9h-17.2z"/><path class="st6" d="M108.6 44.9h6.9v82.6h-6.9zM345.4 91.4h8.1v9.5h-8.1zM356.1 194.2h12.4v9.1h-12.4zM223.4 369.4H255v10.2h-31.6zM224.1 233.1h8.4v9.3h-8.4z"/><path style="fill:#cae5cd" d="M474.9 447.2h-61.6v.9h-9.1V447h-11.6v1.1h-9.1v-.9H118.1l-.1.9h-9V447h-1.7l.1 184.8h367.5z"/><path class="st6" d="M487.4 369.4h39.1v10.2h-39.1z"/><path class="st0" d="M179.9 203.2v-33.7H178v-36h-.2v-1.2h.5v-1.2h-1.4v.5h-37.2v-.5h-22.1v42.3h-6.3v1.9h16.3v30.6h50.7v-1.6h-.5v-1.1z"/><path class="st1" d="M111.3 175.3h16.3v30.6h-16.3zM182.7 229.9h38.1v12.6h-38.1z"/><path class="st8" d="M474.9 587.3h-4.5v-.4h-3.5v-.5h-19.7v-1.1h19.7v-.4h3.5v-.4h4.5zM474.9 494.3h-4.5v-.4h-3.5v-.5h-19.7v-1h19.7v-.5h3.5v-.4h4.5z"/><path d="M261.6 392.6H243c-.5 0-.9.4-.9.9v15.8c0 1 .8 1.9 1.9 1.9h16.7c1 0 1.9-.8 1.9-1.9v-15.8c-.1-.4-.5-.9-1-.9z" style="fill:#dff2fc"/><path class="st10" d="M383.5 438.4v9.7h9.1V447h11.6v1.1h9.1v-9.7zM88.3 438.4v9.7h9.1V447H109v1.1h9v-9.7zM270.7 378.4v-4h.7V366h-63v8.4h.7v4h-.9v2.1h2.7v11.6h56.7v-11.6h4v-2.1h-.9zm-15.7 1.2h-31.6v-10.2H255v10.2zM396.3 264.5v101.6H349v8.4h.7v3.9h-.9v2.1h69.6v-2.1h-.9v-3.9h.7v-8.4h-17.7V264.5zM220.5 170.6v2.8h11v56.4h-10.7v12.6h-38.1v-68.6h1.6v-3.3h-1.6v-1.1h-2.8v33.7h.4v1.1h-2.1v1.6h-66.9V131h28.4v-4.7h-23.2v-79H177v79.1h-.1v4.8h1.3v1.2h4.4V66.9H201v.3h1.4V55.3h-1.6V52H192V32.3H95v333.8H78.7v14.4H98V404h10.2v-23.5h27.4v-2.1h-.9v-4h.7V366h-24.1V246.6h3.1v-3.3h-3.1v-24.6h67.1v24.6h-3.6v3.3h59.4v-40.4h4.8v-35.6h-18.5zM108.6 44.9h6.9v82.6h-6.9V44.9zm123.8 197.5H224v-9.3h8.4v9.3zM541.3 447.2h-66.4V437h2.1v-.7h3.9v.7h60.4z"/><path class="st10" d="M407.9 202.7V78.8h-69.5V32.3h-11v10.2h5.5v46.7h-49.5V42.5h5.5V32.3h-15.7v19.8h-15.8V54h-16v1.4h-1.6v11.9h2.9v2.6h4.6v-2.6h20.9v32.5h-25.6v2.6h.7v24.2h-7.5v3.3h10.7v-26h36.3V122h-9.3v3.3h12.6v-21.4h70.2V93.2h33.2V191h-42.8v3.7h6.1v11.9h18.9v-11.4H389v26.4h7.3v2.1h4.2v-2.1h40.9v27.9h13v-3.3h-9.8v-24.6h80v24.6h-9.8v3.3h9.8v116.7h-52.1v8.4h.7v4h-.9v2.1h2.5v14.2h2.1v.7h4v-.7h4.2v-2.6H539V202.6l-131.1.1zm-54.4-101.8h-8.1v-9.5h8.1v9.5zm15 102.4h-12.4v-9.1h12.4v9.1zm158 176.3h-39.1v-10.2h39.1v10.2z"/><path transform="rotate(90 319.486 285.3)" style="fill:#feebbe" d="M271.2 229h96.5v112.7h-96.5z"/><path class="st12" d="m148.5 603.6 12.7 1.5.1-.5-10.5-1.2 10.4-1.3-.1-.5-12.5 1.6 1.5-1.6 4.6-2 5.8-.6-.1-.5-4.1.4 3.2-1.4-.2-.5-4.8 2-2.4.2 5.5-6-.4-.4-5.9 6.4-6 .6.2-.5 9.9-9-.4-.4-8.6 7.9 6.6-8.5-.4-.3-6 7.9 3.6-9.4-.5-.2-4.2 11.1-1.3 1.7h-.1l.3-6.5 2.8-7.3-.5-.2-2.2 5.7.1-1.7h-.5l-.1 3.4-1.3 3.3-1.8-10.8-.5.1 2 11.7-.9 2.2-.2-.4-3.6-13.7-.5.1 3.1 11.7-5.5-9.4-.5.3 6.4 11.1-.5-.4-8.2-9.7-.4.3 6.8 8-8.8-6.4-.3.4 10.6 7.7 1 1.1-1.7.9-11.3-4.9-.2.5 10.7 4.6-5.1-.9-7.3-4.2-.3.5 6 3.4-6.8-1.2-.1.5 8.3 1.4 2 1.1-10.7.4v.5l11.6-.5.1.1-3.4 1.9-8.2 1 .1.5 6.8-.9-6.3 3.5.3.5 7.5-4.2 6.1-.8.7.4-.1.2-13.4 5.4.2.5 12.6-5-4.2 5.6-6.7 3.1.2.5 5.8-2.7-3.9 5.1.4.3 4.5-5.9 2.2-1-4.7 7.7.5.3 5.1-8.4 2-.9-.2 1.7-4.4 9.2.5.2 3.7-7.7-1.1 8.7.5.1 1.3-10.3 1.3-2.6 1.2-.5-1.6 9.5.5.1 1.7-9.8h.1l.8 2.3.7 11.6h.5l-.6-9.6 3.4 9.8.5-.2-4-11.7-.2-2.5.6.1 5.9 11.8.5-.2-5.7-11.4.8.2 7.3 10.3.4-.3-6.9-9.8 1.6.3 7.3 7.8.4-.4-6.7-7.2 6.3 1.4 1.8.9.2-.4 1.7.4.1-.5-3.7-.8-9.6-4.8.5-.6 13.7 4 .2-.5-13.4-3.9.5-.5-.1-.2zm-3 1.9-1 .9-1-1.9 1.5.5.5.5zM137 603l3.4-.1h.1l-.1.5-.5.6-1.4.2-1.9-1.1.4-.1zm4.8 3.7-1 2-.5.2.4-2.9 1.1.7zm9-6.9-1.1 1.1-4.1 1.8-1.4-.2.8-2.2 5.8-.5zm-7.2-4.8-.2 5-.4.1-.4-2.4 1-2.7zm-1.2 5-.8.1.6-1.5.2 1.4zm-1.7 1 .1.2-.1 1-.5-.1-.8-.4 1.3-.7zm-6.6.7 3.2.5-.5.3h-1.2l-1.5-.8zm-.4 3.2 2.5-1.4 1.5.9-4 .5zm1.6 6.4 4.1-5.5.5-.2.2.1-2.8 4.7-2 .9zm2.9-1.3 1.9-3.1-.3 2.4-1.6.7zm7-2.4-.3-.6.2-.3.7 1-.6-.1zm1.5.3-1.1-1.6.4-.4 2.2 2.3-1.5-.3zm2.3.6-2.5-2.7 7.5 3.8-5-1.1zM204.1 607.7l10.6 1.3.1-.5-8.7-1 8.7-1.1-.1-.4-10.4 1.3 1.2-1.3 3.8-1.6 4.8-.5-.1-.4-3.4.3 2.6-1.1-.2-.4-4 1.7-2 .2 4.6-5-.3-.3-4.9 5.4-5 .5.2-.4 8.2-7.5-.3-.3-7.2 6.6 5.5-7.1-.4-.3-5 6.5 3-7.8-.4-.5-3.5 9.3-1.1 1.4h-.1l.2-5.5 2.3-6-.4-.2-1.8 4.8.1-1.4h-.5l-.1 2.8-1.1 2.8-1.5-9h-.5l1.6 9.7-.7 1.9-.2-.4-3-11.4-.4.1 2.6 9.8-4.6-7.9-.4.2 5.3 9.2-.4-.3-6.8-8.1-.4.3 5.6 6.7-7.4-5.3-.3.4 8.9 6.4.8.9-1.4.8-9.4-4.1-.2.4 8.9 3.9-4.2-.7-6.1-3.5-.2.4 5 2.8-5.7-1-.1.4 6.9 1.2 1.7 1-8.9.4v.5l9.6-.4.1.1-2.9 1.6-6.8.9.1.5 5.7-.7-5.3 2.9.2.4 6.3-3.5 5.1-.7.6.3-.1.1-11.2 4.5.2.4 10.5-4.2-3.5 4.6-5.6 2.6.2.4 4.8-2.2-3.2 4.3.4.3 3.7-5 1.8-.8-3.9 6.4.4.2 4.2-7 1.7-.8-.2 1.4-3.7 7.6.4.2 3.1-6.4-.9 7.3.5.1 1.1-8.6 1.1-2.1 1-.5-1.3 7.9.5.1 1.4-8.2h.1l.6 1.9.6 9.6h.5l-.5-8 2.8 8.2.4-.1-3.3-9.8-.1-2.1.5.1 4.9 9.9.4-.2-4.8-9.5.7.1 6.1 8.6.4-.3-5.8-8.1 1.4.3 6.1 6.5.3-.3-5.6-6 5.2 1.1 1.5.7.2-.4 1.4.3.1-.5-3-.7-8-4 .4-.5 11.4 3.3.1-.4-11.2-3.3.4-.4h.3zm-2.5 1.6-.8.8-.8-1.6 1.2.5.4.3zm-7.1-2 2.9-.1h.1l-.1.4-.4.5-1.2.2-1.6-.9.3-.1zm4 3-.8 1.7-.4.2.3-2.4.9.5zm7.5-5.8-.9 1-3.4 1.5-1.1-.1.7-1.8 4.7-.6zm-6-4-.2 4.2h-.4l-.3-2 .9-2.2zm-1 4.3-.7.1.5-1.2.2 1.1zm-1.4.8.1.2-.1.8-.4-.1-.7-.3 1.1-.6zm-5.5.6 2.7.4-.4.2h-1l-1.3-.6zm-.4 2.6 2.1-1.2 1.3.7-3.4.5zm1.3 5.4 3.4-4.6.4-.2.2.1-2.4 3.9-1.6.8zm2.5-1.1 1.6-2.6-.3 2-1.3.6zm5.8-2-.3-.5.2-.2.6.9-.5-.2zm1.3.2-1-1.3.3-.3 1.8 2-1.1-.4zm1.9.5-2.1-2.3 6.3 3.2-4.2-.9zM323.8 612.4l5.8.7v-.3l-4.8-.6 4.8-.6v-.2l-5.8.7.7-.7 2.1-.9 2.7-.3v-.2l-1.9.2 1.5-.6-.1-.2-2.2.9-1.1.1 2.5-2.8-.2-.2-2.7 3-2.8.3.1-.2 4.6-4.2-.2-.2-4 3.6 3-3.9-.2-.2-2.8 3.6 1.7-4.3-.2-.1-2 5.1-.6.8h-.1l.1-3 1.3-3.3-.2-.1-1 2.6v-.8h-.3l-.1 1.5-.6 1.5-.8-5h-.2l.9 5.4-.4 1-.1-.2-1.7-6.3-.2.1 1.4 5.4-2.5-4.4-.2.1 2.9 5.1-.2-.2-3.8-4.5-.2.2 3.1 3.7-4.1-3-.2.2 4.9 3.6.5.5-.8.4-5.2-2.3-.1.2 5 2.1-2.3-.4-3.4-1.9-.1.2 2.8 1.6-3.2-.5v.2l3.8.7.9.5-4.9.2v.3l5.3-.2h.1l-1.6.9-3.8.5v.3l3.2-.4-2.9 1.6.1.2 3.5-1.9 2.8-.4.3.2-.1.1-6.2 2.5.1.2 5.8-2.3-1.9 2.6-3.1 1.4.1.2 2.7-1.2-1.8 2.4.2.1 2.1-2.7 1-.5-2.2 3.5.2.1 2.3-3.9.9-.4-.1.8-2.1 4.2.2.1 1.7-3.5-.5 4h.3l.6-4.8.6-1.2.5-.3-.7 4.4h.2l.8-4.5.4 1.1.3 5.3h.3l-.3-4.4 1.6 4.5.2-.1-1.9-5.4-.1-1.2.3.1 2.7 5.5.2-.1-2.6-5.3.4.1 3.4 4.7.2-.1-3.2-4.5.8.2 3.4 3.6.2-.2-3.1-3.3 2.9.6.8.4.1-.2.8.2.1-.3-1.7-.4-4.4-2.2.2-.3 6.3 1.8.1-.2-6.2-1.8.2-.2.4.3zm-1.4.9-.4.4-.4-.9.7.3.1.2zm-3.9-1.1 1.6-.1h.1v.2l-.2.3-.7.1-.9-.5h.1zm2.2 1.7-.5.9-.2.1.2-1.3.5.3zm4.1-3.2-.5.5-1.9.8-.6-.1.4-1 2.6-.2zm-3.3-2.2-.1 2.3h-.2l-.2-1.1.5-1.2zm-.6 2.3h-.4l.3-.7.1.7zm-.7.5v.1l-.1.5h-.2l-.4-.2.7-.4zm-3.1.3 1.5.2-.2.1h-.6l-.7-.3zm-.2 1.4 1.2-.6.7.4-1.9.2zm.8 3 1.9-2.5.2-.1.1.1-1.3 2.2-.9.3zm1.3-.6.9-1.4-.1 1.1-.8.3zm3.2-1.1-.1-.3.1-.1.3.5-.3-.1zm.7.2-.5-.7.2-.2 1 1.1-.7-.2zm1.1.2-1.2-1.3 3.5 1.8-2.3-.5zM430.5 607.8l11.3 1.3.1-.5-9.4-1.1 9.3-1.2-.1-.5-11.2 1.4 1.3-1.4 4.1-1.8 5.2-.5-.1-.5-3.6.4 2.8-1.2-.2-.5-4.3 1.8-2.1.2 4.9-5.3-.4-.3-5.3 5.8-5.4.5.2-.4 8.8-8.1-.3-.4-7.7 7.1 5.9-7.6-.4-.3-5.4 7 3.2-8.4-.5-.2-3.8 9.9-1.2 1.5h-.1l.2-5.9 2.5-6.5-.5-.2-2 5.1.1-1.5h-.5l-.1 3-1.2 3-1.6-9.6-.5.1 1.8 10.4-.8 2-.2-.4-3.3-12.3-.5.1 2.8 10.5-4.9-8.4-.4.2 5.7 9.9-.5-.3-7.3-8.7-.4.3 6.1 7.1-7.9-5.7-.3.4 9.5 6.9.9 1-1.5.8-10.1-4.4-.2.4 9.6 4.2-4.6-.8-6.5-3.7-.2.4 5.3 3-6.1-1-.1.5 7.4 1.3 1.8 1-9.6.4v.5l10.4-.4.1.1-3.1 1.7-7.4.9.1.5 6.1-.8-5.7 3.1.2.4 6.8-3.7 5.5-.7.6.4-.1.2-12 4.8.2.5 11.3-4.5-3.7 5-6 2.8.2.4 5.2-2.4-3.5 4.6.4.3 4-5.3 2-.9-4.2 6.9.4.3 4.5-7.5 1.8-.8-.2 1.5-4 8.2.5.2 3.3-6.9-1 7.8.5.1 1.2-9.3 1.1-2.3 1-.5-1.4 8.5.5.1 1.5-8.8h.1l.7 2 .6 10.4h.5l-.5-8.6 3 8.8.5-.2-3.6-10.5-.1-2.3.5.1 5.3 10.6.4-.2-5.1-10.2.7.2 6.5 9.2.4-.3-6.2-8.7 1.5.3 6.5 7 .4-.3-6-6.4 5.6 1.2 1.6.8.2-.4 1.5.3.1-.5-3.3-.7-8.6-4.3.5-.5 12.2 3.6.1-.5-12-3.5.4-.5 1-.2zm-2.6 1.7-.9.8-.9-1.7 1.3.5.5.4zm-7.7-2.2 3.1-.1h.1l-.1.5-.4.5-1.3.2-1.7-.9.3-.2zm4.3 3.3-.9 1.8-.4.2.3-2.6 1 .6zm8.1-6.2-.9 1-3.7 1.6-1.2-.1.7-2 5.1-.5zm-6.5-4.3-.2 4.5h-.4l-.4-2.1 1-2.4zm-1.1 4.5-.7.1.5-1.3.2 1.2zm-1.5.9.1.2-.1.9-.5-.1-.8-.3 1.3-.7zm-5.9.6 2.9.5-.4.2H419l-1.4-.7zm-.4 2.9 2.2-1.2 1.4.8-3.6.4zm1.5 5.7 3.7-4.9.5-.2.2.1-2.5 4.2-1.9.8zm2.6-1.1 1.7-2.8-.3 2.1-1.4.7zm6.3-2.2-.3-.6.2-.2.6.9-.5-.1zm1.3.3-1-1.4.3-.4 2 2.1-1.3-.3zm2.1.5-2.3-2.4 6.8 3.4-4.5-1zM374.2 606.2l9.2 1.1v-.4l-7.6-.9 7.6-1v-.4l-9.1 1.1 1.1-1.2 3.4-1.4 4.2-.4v-.4l-3 .3 2.3-1-.1-.4-3.5 1.5-1.7.2 4-4.4-.3-.3-4.3 4.7-4.4.4.1-.3 7.2-6.6-.3-.3-6.3 5.8 4.8-6.2-.3-.2-4.4 5.7 2.6-6.9-.4-.1-3.1 8.1-.9 1.2h-.1l.2-4.8 2-5.3-.4-.1-1.6 4.2.1-1.3h-.4l-.1 2.4-.9 2.4-1.3-7.8-.4.1 1.4 8.5-.6 1.6-.2-.3-2.6-10-.4.1 2.3 8.6-4-6.9-.4.2 4.7 8.1-.4-.3-6-7.1-.3.3 4.9 5.8-6.4-4.7-.2.3 7.8 5.6.7.8-1.2.7-8.2-3.6-.2.4 7.8 3.4-3.7-.6-5.3-3-.2.4 4.3 2.5-5-.8-.1.4 6.1 1 1.5.8-7.8.3v.4l8.4-.3.1.1-2.5 1.4-6 .8.1.4 5-.6-4.6 2.5.2.4 5.5-3 4.5-.6.5.3-.1.1-9.8 3.9.2.4 9.2-3.7-3.1 4.1-4.9 2.2.2.4 4.2-1.9-2.8 3.7.3.2 3.3-4.3 1.6-.7-3.4 5.6.3.2 3.7-6.1 1.5-.7-.2 1.2-3.2 6.7.4.2 2.7-5.6-.8 6.4h.4l1-7.5.9-1.9.8-.4-1.2 6.9.4.1 1.2-7.2h.1l.6 1.7.5 8.4h.4l-.4-7 2.5 7.2.4-.1-2.9-8.6-.1-1.8.4.1 4.3 8.6.4-.2-4.2-8.3.6.1 5.3 7.5.3-.2-5-7.1 1.2.3 5.3 5.7.3-.3-4.9-5.2 4.6 1 1.3.6.2-.3 1.3.3.1-.4-2.7-.6-7-3.5.4-.4 10 2.9.1-.4-9.8-2.8.4-.4-.2-.5zm-2.1 1.4-.7.7-.7-1.4 1.1.4.3.3zm-6.3-1.8 2.5-.1h.1l-.1.4-.3.4-1 .1-1.4-.8h.2zm3.6 2.7-.7 1.5-.4.2.3-2.1.8.4zm6.5-5.1-.8.8-3 1.3-1-.1.6-1.6 4.2-.4zm-5.3-3.5-.2 3.6h-.3l-.3-1.7.8-1.9zm-.8 3.7-.6.1.4-1.1.2 1zm-1.3.7.1.2-.1.7-.4-.1-.6-.3 1-.5zm-4.7.5 2.3.4-.3.2h-.9l-1.1-.6zm-.4 2.3 1.8-1 1.1.6-2.9.4zm1.2 4.7 3-4 .4-.2.1.1-2.1 3.4-1.4.7zm2.1-.9 1.4-2.3-.2 1.7-1.2.6zm5.1-1.8-.2-.5.2-.2.5.7h-.5zm1.1.3-.8-1.2.3-.3 1.6 1.7-1.1-.2zm1.7.4-1.9-2 5.5 2.8-3.6-.8z"/><path class="st13" d="M182.7 109h60.5M182.7 113.6h60.5M182.7 118.3h60.5M182.7 122.9h60.5M182.7 127.6h53.1M182.7 132.2h55.5M179.4 136.9h58.8M179.4 141.5h58.8M179.4 146.2h58.8M179.4 150.8h58.8M179.4 155.5h58.8M179.4 160.1h58.8M179.4 164.8h58.8M183.1 169.4h52.2M111.3 248.4h123.1M111.3 253.1h123.1M111.3 257.7h123.1M111.3 262.4h123.1M111.3 267h123.1M111.3 271.7h123.1M111.3 276.3h123.1M111.3 281h123.1M111.3 285.6h123.1M111.3 290.3h124.5M111.3 294.9h124.5M111.3 299.6h124.5M111.3 304.2h124.5M111.3 308.9h124.5M111.3 313.5h124.5M111.3 318.2h124.5M111.3 322.8h124.5M111.3 327.5h126.2M111.3 332.1h126.2M111.3 336.8h126.2M111.3 341.4h126.2M111.3 346.1h126.2M111.3 350.7h126.2M111.3 355.4h126.2M111.3 360h126.2M111.3 364.7h126.2M356.3 95h33.2M356.3 99.7h33.2M356 104.3h33.5M356 109h33.5M356 113.6h33.5M356 118.3h33.5M356 122.9h33.5M246.5 127.6h143M239.5 132.2h150M239.5 136.9h150M239.5 141.5h150M239.5 146.2h150M239.5 150.8h150M239.5 155.5h150M239.5 160.1h150M239.5 164.8h48.7M239.1 169.4h49.1M239.1 174.1h49.1M239.1 178.7h49.1M239.1 183.4h49.1M239.1 188h49.1M239.1 192.7h49.1M239.1 197.3h49.1M239.1 202h113.8M239.4 206.6h149.7M234.3 211.3h154.8M234.3 215.9h154.8M234.3 220.6h154.8M234.3 225.2h164.6M234.3 229.9h165.3M234.3 234.5h165.3M234.3 239.1h165.3M234.3 243.8h165.3M111.4 220.6h67.1M111.4 225.2h66.8M111.4 229.9h67.1M111.4 234.5h67.1M111.4 239.1h67.1M114.5 243.8h60.4M236 248.4h163.6M439.5 225.2h1.9M401 229.9h40.4M401 234.5h40.4M401 239.1h40.4M401 243.8h40.4M444.6 225.2h80M444.6 229.9h80M444.6 234.5h80M444.6 239.1h80M444.6 243.8h80M400.9 248.4h40.5M236 253.1h163.6M236 257.7h163.6M236 262.4h163.6M235.9 267h160.4M235.9 271.7h160.4M235.9 276.3h160.4M235.9 281h160.4M235.9 285.6h160.4M237.6 290.3h158.7M237.6 294.9h158.7M237.6 299.6h158.7M237.6 304.2h158.7M237.6 308.9h158.7M237.6 313.5h158.7M237.6 318.2h158.7M237.6 322.8h158.7M239.2 327.5h157.1M239.2 332.1h157.1M239.2 336.8h157.1M239.2 341.4h157.1M239.2 346.1h157.1M239.2 350.7h157.1M239.2 355.4h157.1M239.2 360h157.1M239.2 364.7h157.1M400.9 253.1h123.5M400.9 257.7h123.5M400.9 262.4h123.5M400.5 267h124.1M400.5 271.7h124.1M400.5 276.3h124.1M400.5 281h124.1M400.5 285.6h124.1M400.5 290.3h124.1M400.5 294.9h124.1M400.5 299.6h124.1M400.5 304.2h124.1M400.5 308.9h124.1M400.5 313.5h124.1M400.5 318.2h124.1M400.5 322.8h124.1M400.5 327.5h124.1M400.5 332.1h124.1M400.5 336.8h124.1M400.5 341.4h124.6M400.5 346.1h124.6M400.5 350.7h124.6M400.5 355.4h124.6M400.5 360h124.6M400.5 364.7h124.6"/><path class="st14" d="M211.5 55.3v47M230.1 55.3v47M239.6 65.1h-37.2M243.2 83.7H201M244.7 83.7h3.2"/><path class="st15" d="M240.5 123.7H233v31.8h-37.3v-46.8h8.1V66.5h36.7zM232.5 247.8V365M239.5 207.3V365M239.6 221.5h149.5M389 221.5v144.6M366.1 221.5v144.6M413.8 221.5v144.6"/><path class="st16" d="M264.1 361.2h92.6M264.1 363.6h92.6M407.6 361.2h72.2M407.6 363.6h72.2M128 361.2h87.9M128 363.6h87.9"/><path class="st17" d="M263.2 366.1v-.7"/><path class="st18" d="M263.2 364.2"/><path class="st19" d="M263.2 364.2v-4.9"/><path class="st17" d="M263.2 359.3v-.6h.6"/><path style="fill:none;stroke:#000;stroke-width:.4;stroke-dasharray:1.008596e-02,0,0,0" d="M265.1 358.7h.1"/><path style="fill:none;stroke:#000;stroke-width:.4;stroke-dasharray:1.3112,1.3011,1.008596e-02,0,0,0" d="M265.2 358.7h91.7"/><path class="st17" d="M356.9 358.7h.7v.6"/><path class="st22" d="M357.6 360.5"/><path class="st23" d="M357.6 360.5v4.9"/><path class="st17" d="M357.6 365.4v.7M127.1 366.1v-.7"/><path class="st18" d="M127.1 364.2"/><path class="st19" d="M127.1 364.2v-4.9"/><path class="st17" d="M127.1 359.3v-.6h.6"/><path style="fill:none;stroke:#000;stroke-width:.4;stroke-dasharray:9.860042e-03,0,0,0" d="M129 358.7"/><path style="fill:none;stroke:#000;stroke-width:.4;stroke-dasharray:1.2818,1.2719,9.860042e-03,0,0,0" d="M129 358.7h87.2"/><path class="st17" d="M216.2 358.7h.6v.6"/><path class="st22" d="M216.8 360.5"/><path class="st23" d="M216.8 360.5v4.9"/><path class="st17" d="M216.8 365.4v.7"/><path class="st26" d="M111.4 231.3h67.1M111.4 232.7h67.1M111.4 231.3h67.1M111.4 232.7h67.1M256.2 67.2v32.5M254.8 67.2v32.5M444.6 234.1h80M444.6 235.5h80M444.6 234.1h80M444.6 235.5h80"/><path class="st27" d="m111.4 218.7 67.1 20.9h-67.1M282.8 103.7l-36.3 16.2h36.3M268.1 67.2l-20.2 32.5V67.2M283.3 89.3l49.5-21h-49.5M182.7 104.1 201 66.9M371.8 206.1l17.2-10.9M524.6 221.5l-80 20.9h80M220.8 229.9h-38.1l38.1 12.5M127.6 205.9v-30.5l-16.3-.1z"/><path class="st28" d="M356 103.8v20.9h-69.9"/><path class="st17" d="M389 206.1h-17.2"/><path class="st29" d="M217.5 392.7h23.2v9.3h-23.2zM240.8 402l-23.3-9.3"/><path class="st28" d="M243.2 107.4h-60.5M242.6 102.3H201"/><path class="st29" d="M117.6 131.1v42.3M111.9 175.9h29.8v29.8h-29.8zM356.4 93.9h32.5v32.5h-32.5zM347.2 191v-28.4h42.3"/><path class="st28" d="M182.7 200.8h3.6c.3 0 .6-.3.6-.7v-.2c0-.3-.3-.6-.6-.7h-3.6"/><path class="st28" d="M182.7 225.7h2.7v-24.9"/><path class="st28" d="M186.9 199.9v26.5s0 .8-.8.8h-3.4M203.3 204.2c-8.6 0-8.8 12.8-8.8 12.8s-.2 6.1-.2 8.5c0 2.5 1.4 2.1 1.4 2.1s5 .2 7.4.2c2.4 0 7.7-.2 7.7-.2s1.4.3 1.4-2.1c0-2.5-.2-8.5-.2-8.5s-.2-12.8-8.8-12.8M210.2 238.1c2.1 0 1.9-1.7 1.9-1.7v-5.5c0-2.1-1.9-2.2-1.9-2.2s-1.9-.5-7.3-.5-6.7.5-6.7.5-1.9.1-1.9 2.2v5.5s-.2 1.7 1.9 1.7h14zM211.3 227.6v1.6M195.6 227.7v1.1M194.2 220.5H212"/><path class="st28" d="m194.1 224.2 2.6.3v-1.8h12.4v1.8l2.9-.4M230.7 192.2v-14.4c0-.1-.1-.2-.2-.2H224c-.1 0-.2.1-.2.2v14.4c0 .1.1.2.2.2h6.5c.1.1.2 0 .2-.2z"/><path class="st28" d="M223.7 182.2c0-.1.1-.2.2-.2h6.5c.1 0 .2.1.2.2"/><circle class="st28" cx="228.4" cy="187.3" r="1"/><path class="st28" d="M231.4 177.1v15.8c0 .1-.1.2-.2.2h-7.9c-.1 0-.2-.1-.2-.2v-15.8c0-.1.1-.2.2-.2h7.9c.1 0 .2.1.2.2zM221.4 174.3h7.4v.9h-7.4zM224.6 173.4h1.1v.9h-1.1zM221.3 229.9v-56.5M139.2 131.1v7s.7 7 .7 14.4-.7 14.4-.7 14.4v6.5l-27.7.2M118.3 166.9v6.5M118.3 138.1v-7"/><path class="st28" d="m117.6 166.9 1.6-4.3c.4-1.1 2-1.2 2-1.2 2-.2 3.9 0 6.4.3 2.5.2 4.4 1.2 6.3 3.3s4.6 1.9 4.6 1.9h-24.2c-.8 0-.9-.8-.9-.8l-.1-1s-.6-5.3-.6-12.6.7-13.6.7-13.6c.1-.8.9-.8.9-.8h24.2s-2.7-.3-4.6 1.9c-2 2.2-4 3.2-7.7 3.5-3.7.3-5.5.1-5.5.1s-1.2-.2-1.6-1.2c-.3-1-1.5-4.3-1.5-4.3"/><path class="st28" d="M117.2 138.1s.8 8.2.8 14.4-.8 14.4-.8 14.4"/><circle class="st28" cx="122.9" cy="152.5" r="1.2"/><path class="st28" d="M123.1 132.8h7.4v.9h-7.4zM126.2 131.1h1.1v1.6h-1.1zM124.6 57.6s.5-3.3 3.4-3.5c2.8-.2 11.3-.9 11.3-.9s.8.1 2-.6l1.5-.7s.8-.3 1.7-.3h4.4s.9-.1 2 .4c1 .5 1.9 1.1 2.9 1.2 1 .1 12 1 12 1s2.5.5 3 3.5c.6 4.6.6 9.3-.1 14.1 0 0-.2 2.7-2.9 3.4l-11.7.5s-.9 0-1.7.4c-.8.4-1.9 1-3.2 1h-4.9s-.7.1-1.5-.3c-.8-.3-1.5-.6-1.5-.6s-1-.4-1.9-.4c-.9 0-11.1-.4-11.1-.4s-2.9 0-3.6-3.5c-.4-5.1-.4-9.8-.1-14.3z"/><path class="st28" d="m134 50.7-2.1.1s-2.5-.2-4.6 1.4c-.1.1-3.2 1.9-3.4 5"/><path class="st28" d="M149 50.8c1.9.2 2.6.7 3.2 1s2 .6 2 .6l11.8 1c3.2.7 3.7 4.3 3.7 4.3.7 4.8.6 9.7-.2 14.8-.8 3.7-3.8 3.7-3.8 3.7l-11.2.3c-1.3 0-2.3.7-2.3.7l-1.1.6c-1.1.6-2.4.6-2.4.6h-4.1c-1.2 0-2.4-.6-2.4-.6s-1-.6-1.7-1c-.6-.3-1.7-.4-1.7-.4L127 76c-3-.7-3.3-3.6-3.3-3.6-.8-4.9-.8-10.1-.1-15.3 0 0 .9-3.6 4-3.8l11.4-.9s1-.1 1.7-.4c.7-.3 2.1-1.2 3.5-1.2h4.8z"/><path class="st28" d="M169.7 57.7c-.2-1.1-.3-2.9-2.7-4.9-2.4-2-5.4-1.9-5.4-1.9l-2.3-.1M148.8 78.4h12.8s2.9 0 5.1-1.5 2.4-2.5 2.9-4.4M144.7 78.4H131c-.3-.1-1.2 0-3.4-1 0 0-3.1-1.3-3.7-4.9"/><path class="st28" d="M161.2 49.7h.6s13.3 1.6 13.3 15.9c0 13.7-13.3 15.7-13.3 15.7h-30.1s-13.3-2.1-13.3-15.7c0-14 13.3-15.9 13.3-15.9h.6"/><path class="st28" d="m159.5 47.2-.1.4s-.8 1.9-.8 2v1.1h2s.2 0 .2-.1l.9-1.8.5-1.5M131.4 47.2l.7 2 .7 1.3s.1.1.2.1h2v-1.1l-.2-.4-.8-2M158.8 49.2h-24.1M158.6 50.6h-23.7"/><circle class="st28" cx="146.7" cy="74.3" r="1.6"/><path class="st28" d="M125.8 126.4c.1-3-2.2-9.2-9.3-9.3"/><path class="st28" d="M122.8 119.4h6.5V91.5h-12.9M123.4 91.5v27.9M122.2 91.5v27.4M117.5 91.5v25.6M116.5 82.8H177M384.6 184.9c0 .6-.5 1-1 1h-25.9c-.6 0-1-.5-1-1v-21.3c0-.6.5-1 1-1h25.9c.6 0 1 .5 1 1v21.3z"/><path class="st28" d="M357.8 164.2h25.6v18.2h-25.6zM308.2 175.9c0 2 1.6 3.7 3.7 3.7 2 0 3.7-1.6 3.7-3.7 0-2-1.6-3.7-3.7-3.7s-3.7 1.7-3.7 3.7z"/><path class="st28" d="M389.5 160.6H288.2v39.9h64.7"/><path class="st28" d="M330.5 185.8c0 1.3-1 2.3-2.3 2.3h-32.6c-1.3 0-2.3-1-2.3-2.3v-19.6c0-1.3 1-2.3 2.3-2.3h32.6c1.3 0 2.3 1 2.3 2.3v19.6z"/><circle class="st28" cx="377.3" cy="170.5" r="4.6"/><path class="st28" d="M359.3 170.5c0 2.5 2.1 4.6 4.6 4.6 2.5 0 4.6-2.1 4.6-4.6 0-2.5-2.1-4.6-4.6-4.6-2.5 0-4.6 2-4.6 4.6z"/><circle class="st28" cx="370.6" cy="178.6" r="3.3"/><path class="st28" d="M367.7 182.6c.8.6 1.8.9 2.9.9 1.1 0 2.1-.3 2.9-.9h9.8v2.3h-25.6v-2.3h10zM310.2 164.6c-2.8 0-9.9 0-11.5.2-1.6.2-4.5 1.8-4.5 4.9 0 3.1-.2 9.8.1 10.6.3.8 1 3.9 5.3 3.8 4.9-.1 5.3.3 6.8 1.4 1.2.8 2.7 1.8 5.5 1.8h.2c2.8 0 4.3-.9 5.5-1.8 1.8-1.3 2.1-1.4 6.8-1.4 4.3 0 5-3 5.3-3.8.3-.8.1-7.4.1-10.6 0-3.1-2.9-4.7-4.5-4.9-1.6-.2-8.7-.2-11.5-.2h-3.6zM261.6 393.3H243c-.1 0-.2.1-.2.2v15.8c0 .6.5 1.2 1.2 1.2h16.7c.6 0 1.2-.5 1.2-1.2v-15.8c-.1-.1-.2-.2-.3-.2z"/><circle class="st28" cx="252.3" cy="395.5" r="1.2"/><path class="st28" d="M261.6 392.6H243c-.5 0-.9.4-.9.9v15.8c0 1 .8 1.9 1.9 1.9h16.7c1 0 1.9-.8 1.9-1.9v-15.8c-.1-.4-.5-.9-1-.9z"/><path class="st30" d="M178.7 169.5v33.7M238.3 207.3v117.5M236.8 285.9v-78.6M235.2 246.6v-39.3"/><path class="st17" d="M202.4 55.3v-1.8h-.7v-1.9h-.9v3.7zM239.6 55.3v-1.8h.7v-1.9h1v3.7zM202.4 55.3h37.2M239.6 53.5h-37.2M240.3 51.6h-38.6"/><path class="st17" d="M240.3 53.5c0-21.2-17.3-38.4-38.6-38.4v36.5"/><path transform="rotate(-90 249.278 52.766)" class="st17" d="M248.1 44.7h2.3v16h-2.3z"/><path transform="rotate(-180 176.454 128.984)" class="st17" d="M176 126.4h.9v5.3h-.9z"/><path transform="rotate(-180 140.194 128.984)" class="st17" d="M139.7 126.4h.9v5.3h-.9z"/><path class="st17" d="M175.9 131.6h-35.2M175.9 129.5h-35.2M176 128h-35.3M176 126.4h-35.3M140.7 128c0-18 13.8-32.8 31.4-34.4L176 128M184.3 170.1v4.2h1.1v-1.2h.7v-1h-.7v-2zM220.5 170.1v4.2h-1.1v-1.2h-.7v-1h.7v-2z"/><path transform="rotate(90 186.123 153.483)" class="st17" d="M169.5 152.8h33.2v1.4h-33.2z"/><path transform="rotate(-90 202.435 171.113)" class="st17" d="M201.4 154.1h2v34h-2z"/><path class="st17" d="M219.4 170.1c0-18.4-15.2-33.2-33.9-33.2M235.3 129.7h4.2v1.2h-1.3v.7h-.8v-.7h-2.1z"/><path transform="rotate(-180 258.82 131.564)" class="st17" d="M239.5 130.9h38.6v1.4h-38.6z"/><path class="st17" d="M238.2 130.9h1.3v38.6h-1.3zM239.5 169.5c21.3 0 38.6-17.3 38.6-38.6"/><path class="st17" d="M235.3 170.6h4.3v-1.1h-1.4v-.7h-.7v.7h-2.2z"/><path transform="rotate(-180 181.265 168.931)" class="st17" d="M179.4 168.4h3.7v1.2h-3.7z"/><path transform="rotate(-180 180.452 132.903)" class="st17" d="M177.8 132.3h5.3v1.2h-5.3z"/><path transform="rotate(-180 178.713 151.498)" class="st17" d="M178 133.5h1.3v36H178z"/><path transform="rotate(-180 179.073 203.767)" class="st17" d="M177.8 203.2h2.5v1.1h-2.5z"/><path class="st17" d="M183.4 150.3h-9.6"/><path transform="rotate(-180 233.457 247.203)" class="st17" d="M232.5 246.6h1.9v1.2h-1.9z"/><path transform="rotate(-180 236.02 365.535)" class="st17" d="M232.5 365h7v1.1h-7z"/><path transform="rotate(-180 238.3 344.906)" class="st17" d="M237.5 324.8h1.5v40.1h-1.5z"/><path transform="rotate(-180 236.773 306.164)" class="st17" d="M236 285.9h1.5v40.4H236z"/><path transform="rotate(-180 235.174 266.98)" class="st17" d="M234.4 246.6h1.5v40.7h-1.5z"/><path class="st17" d="M239.3 286.6h-7.8"/><path transform="rotate(-180 236.876 206.778)" class="st17" d="M234.3 206.2h5.2v1.1h-5.2z"/><path class="st17" d="M241 325.6h-7.7M246.5 123.7h27v1.4h-27z"/><path class="st17" d="m246.5 125 2.3 13.4 2.2-13.3M201 66.9v37.2h-18.3"/><path transform="rotate(90 243.955 84.727)" class="st17" d="M229 84h30v1.4h-30z"/><path class="st17" d="m242.6 69.1-14.9 1.7 15.6 3.5M207.6 378.4h1.5v-3.9h-.7v-8.9h-.8zM136.3 378.4h-1.6v-3.9h.8v-8.9h.8zM208.2 378.4v2.8h-72.5v-2.8M171.9 364v7.1M136.3 365.6h71.3"/><path class="st17" d="M136.3 367.1h37v1.2h-37zM170.6 368.3h37v1.2h-37zM170.5 372.2h2.9v2.6h-2.9zM136.3 374.8h37v1.2h-37zM170.6 376h37v1.2h-37zM171.9 380.3v-5.6M348.2 378.4h1.5v-3.9h-.7v-8.9h-.8zM272.3 378.4h-1.6v-3.9h.7v-8.9h.9zM348.8 378.4v2.8h-77.2v-2.8M310.2 364v7.1M272.3 365.6h75.9M272.3 367.1h39.4v1.2h-39.4z"/><path class="st17" d="M308.8 368.3h39.3v1.2h-39.3zM308.8 372.2h2.9v2.6h-2.9zM272.3 374.8h39.4v1.2h-39.4zM308.8 376h39.3v1.2h-39.3zM310.2 380.3v-5.6M471.7 378.4h1.6v-3.9h-.8v-8.9h-.8zM419 378.4h-1.5v-3.9h.7v-8.9h.8zM472.3 378.4v2.8h-53.9v-2.8M445.4 364v7.1M419 365.6h52.7"/><path class="st17" d="M419 367.1h27.7v1.2H419zM444 368.3h27.7v1.2H444zM443.9 372.2h2.9v2.6h-2.9zM419 374.8h27.7v1.2H419zM444 376h27.7v1.2H444zM445.4 380.3v-5.6M114.5 245.2h60.4v1.4h-60.4zM169.8 246.6l2.6 14.9 2.5-14.9M119.6 246.6l-2.6 14.9-2.5-14.9M327.4 38.5h-1.2v2h-.7v2.7h1.9zM290.7 40.5h-.7v-2h-1.2v4.7h1.9z"/><path transform="rotate(-180 308.085 39.518)" class="st17" d="M290 38.6h36.3v1.9H290z"/><path class="st17" d="M290 38.5c0-19.7 16.2-35.7 36.3-35.7v35.7M395.8 223.6h5.1v1.2h-1.3v.7h-.7v-.7h-3.1z"/><path transform="rotate(-180 420.242 225.47)" class="st17" d="M401 224.8h38.6v1.4H401z"/><path class="st17" d="M399.6 224.8h1.3v38.6h-1.3zM401 263.4c21.3 0 38.6-17.3 38.6-38.6"/><path class="st17" d="M395.8 264.5h5.2v-1.1h-1.4v-.7h-.7v.7h-3.1zM454.4 248h60.4v1.4h-60.4zM509.8 249.4l2.5 14.9 2.5-14.9M459.5 249.4l-2.6 14.9-2.5-14.9M481.6 436.3v-1.2h-1.9v-.7H477v1.9zM479.7 397.2v-.7h1.9v-1.1H477v1.8z"/><path transform="rotate(-90 480.623 415.792)" class="st17" d="M461.4 414.8h38.5v1.9h-38.5z"/><path class="st17" d="M481.6 396.5c21 0 38 17.2 38 38.3h-38"/><circle class="st17" cx="388.9" cy="433.7" r="1.6"/><path class="st17" d="M102.6 406.3h1.2V436h-1.2zM102 404h2.3v2.3H102zM102 436.1h2.3v2.3H102z"/><circle class="st17" cx="93.7" cy="433.7" r="1.6"/><path class="st17" d="M413.3 447.2h61.6M78.8 447.2h9.5"/><path class="st31" d="M99 447h8.4v184.8H99zM474.9 447.2h8.4v184.6h-8.4zM539 631.8H78.8M78.8 640.1H539"/><path class="st17" d="M384.4 430.1h9.3v8.3h-9.3zM89.2 430.1h9.2v8.3h-9.2zM118 447.2h265.5M470.4 584.5h4.4v2.8h-4.4zM466.9 586.4h1v-1.1h-1v-.4h3.4v2h-3.4z"/><path class="st17" d="M447.2 585.3H468v1.1h-20.8zM470.4 491.5h4.4v2.8h-4.4zM466.9 493.4h1v-1h-1v-.5h3.4v2h-3.4z"/><path class="st17" d="M447.2 492.4H468v1.1h-20.8z"/><path class="st31" d="M480.9 436.3v.7h60.4v10.2h-66.4V437h2.1v-.7M200.8 52.1H192V32.3H95v333.8H78.7l.1 14.4h19.3V404h10.2v-23.5h27.4"/><path class="st31" d="M135.5 366.1h-24.1V246.6h3.1v-3.2h-3.1v-24.7h67.1v24.7h-3.6v3.2h59.4v-39.3M239.1 206.2v-35.6M235.3 170.6h-14.8"/><path class="st31" d="M220.5 173.4h11v56.5h-10.7v12.5h-38.1v-68.5h1.6M184.3 170.6h-1.6v-1.1M179.9 169.5v33.7M178.3 204.3v1.6h-67v-74.8h28.4M139.7 126.4h-23.2V47.3H177v79.1h-.1M176.9 131.1h1.4v1.2M182.7 132.3V66.9H201v.3h1.4V55.3M239.6 55.3v11.9h3v2.5h4.6v-2.5h20.9v32.5h-25.5v2.6h.6l.1 24.2h-7.5v3.2M396.3 264.5v101.6H349M327.4 42.5h5.4v46.8h-49.5V42.5h5.5M418.4 380.5h-69.6M400.5 264.5v101.6h17.7"/><path class="st31" d="M327.4 38.5v-6.2h11v46.5h69.5v123.9l131.1-.1v189.5h-53.9v2.6h-4.2v.7M257.3 52.1h15.8V32.3h15.7v6.2M208.2 380.5h2.7v11.6h56.7v-11.6h4M271.4 366.1h-63M383.5 438.4v9.7h9.1V447h11.6v1.1h9.1v-9.7zM88.3 438.4v9.7h9.1V447H109v1.1h9v-9.7z"/><path class="st31" d="M345.4 91.4h8.1v9.5h-8.1zM356.1 194.2h12.4v9.1h-12.4zM223.4 369.4H255v10.2h-31.6zM108.6 44.9h6.9v82.6h-6.9zM224.1 233.1h8.4v9.3h-8.4zM477 395.4v-.7h-2.1v-14.2h-2.6M472.5 366.1h52.1V249.4h-9.8v-3.2h9.8v-24.7h-80v24.7h9.8v3.2h-13v-27.9h-40.9v2.1"/><path class="st31" d="M396.3 223.6v-2.1H389v-26.3h-17.2v11.3h-18.9v-11.8h-6.2V191h42.8V93.2h-33.2v10.5h-70.2v21.4h-12.6v-3.3h9.3v-18.1h-36.3v26h-7M487.4 369.4h39.1v10.2h-39.1z"/><path d="M219.1 398c-.2.7-.4 1.3-.6 1.8l-.2-.2c.2-.5.4-1.1.6-1.8l.2.2zm-.1-1.4-.1.3c-.1-.1-.3-.3-.5-.4l.1-.3c.2.2.3.3.5.4zm.3-1.3-.2.3-.5-.5.2-.3c.1.2.3.4.5.5zm2.4 4h.3v.4h-3v-.4h.4v-1.7h2.2v1.7zm-2-2.2v-2.2h1.8v2.2h-1.8zm.4 2.2V398h-.4v1.3h.4zm-.2-3.5h1.3v-.5h-1.3v.5zm0 .4v.6h1.3v-.6h-1.3zm.9 3.1V398h-.4v1.3h.4zm.6 0V398h-.4v1.3h.4zM223.7 396.4c-.1.8-.2 1.3-.4 1.7-.2.5-.4.9-.7 1.3-.1-.1-.1-.3-.2-.3.3-.3.5-.7.7-1.1.1-.4.3-.9.3-1.4h-.9v-.4h1l.2.2zm.6-1.7v.9c.1.5.2.9.3 1.3.3-.3.6-.6.9-1l.2.3c-.3.4-.6.8-.9 1.1.1.1.1.3.2.4.3.6.6 1 1 1.3-.1.1-.1.2-.2.4-.4-.3-.8-.8-1-1.4-.2-.4-.3-.8-.4-1.2v2.7c0 .1-.1.2-.1.3-.1.1-.3.1-.4.1 0-.1 0-.3-.1-.4h.3s.1 0 .1-.1v-4.6h.1zM226.7 399l-.3-.3c.3-.5.5-1 .8-1.7l.3.2c-.3.7-.6 1.3-.8 1.8zm1.5-2.5v3.2h-.3v-3.2h-1.5v-.5h1.5v-1.2h.3v1.2h1.6v.4h-1.6zm1.3 2.4c-.3-.5-.6-1-.9-1.7l.3-.3c.3.7.6 1.2.9 1.7l-.3.3zm-.3-3.1c-.1-.2-.2-.4-.4-.6l.1-.2c.2.2.3.4.5.5l-.2.3zm.3-.4c-.1-.2-.2-.4-.4-.6l.1-.2c.2.2.3.4.5.5l-.2.3zM232 396.5v3.2h-.3v-2.8c-.5.6-1 1-1.5 1.3 0-.2-.1-.3-.2-.4.5-.3 1-.7 1.4-1.2.4-.5.8-1.1 1.2-1.7l.3.3c-.2.5-.6 1-.9 1.3zM235.6 398.7c-.3.4-.9.8-1.5 1.1 0-.1-.1-.3-.1-.4.6-.2 1-.4 1.3-.8.3-.4.6-.9.9-1.7h-2.6v-.4h2.8l.2.3c-.4.8-.7 1.5-1 1.9zm-1.7-3.2v-.4h2.1v.4h-2.1zM236.9 397.5v-.4h3.1v.4h-3.1zM246.9 405.1c-.1.2-.3.3-.4.4h1.4l.2.3c-.6.6-1.1 1-1.5 1.3-.5.3-1.2.7-2.1 1 0-.1-.1-.2-.2-.4.6-.2 1.1-.4 1.8-.8l-.6-.6.3-.2c.3.2.4.4.6.6.5-.3.9-.6 1.2-1h-1.5c-.1.1-.2.2-.3.2-.4.3-.9.5-1.3.7-.1-.1-.1-.2-.2-.3.4-.1.8-.3 1.2-.6.4-.2.8-.6 1.1-.9l.3.3zm.9 2c-.2.2-.5.4-.7.6h1.5l.2.3c-.4.6-1 1.1-1.6 1.4-.7.4-1.6.7-2.7.9-.1-.1-.1-.3-.2-.4.8-.1 1.6-.2 2.3-.6-.2-.2-.4-.4-.6-.7l.3-.2.7.7c.5-.3.9-.6 1.3-1.1h-1.7l-.1.1c-.4.3-1 .5-1.7.8l-.3-.3c.6-.2 1.2-.4 1.7-.7.4-.2.8-.6 1.2-1l.4.2zM253.8 410h-.4v-.3H251v.4h-.4v-4.6h3.2v4.5zm-.3-3.3v-.9H251v.9h2.5zm0 1.3v-.9H251v.9h2.5zm0 1.3v-.9H251v.9h2.5zM256.9 405.1l-.2.8h.7v3.8h-.4v-.3h-1v.4h-.4V406h.7l.1-.9h.5zm.2 2.4v-1.2h-1v1.2h1zm0 1.6v-1.3h-1v1.3h1zm1.8-4c-.1.3-.2.6-.2.9h1.7v1.7c0 1.1 0 1.7-.1 2 0 .2-.1.3-.2.3-.2.1-.4.1-.8.1 0-.1-.1-.3-.2-.4h.6c.1 0 .2-.1.2-.2 0-.2.1-.8.1-1.8v-1.4h-1.4v.1c-.1.4-.3.7-.5 1.1-.1-.1-.2-.2-.3-.2.2-.4.4-.8.5-1.2.1-.4.2-.7.3-1.1l.3.1zm.4 3-.3.3c-.2-.2-.4-.5-.7-.8l.2-.3c.4.3.6.5.8.8zM239.7 416.6c-.5-.6-1-1.3-1.7-1.9-.6.7-1.4 1.3-2.3 1.9-.1-.2-.2-.3-.3-.4.8-.4 1.5-.8 2-1.3.4-.4.9-1.1 1.5-2H236v-.4h3.2l.3.3c-.4.6-.7 1.2-1 1.6.7.6 1.3 1.2 1.8 1.9l-.6.3zM244.2 416.5v-.4h-2.9v.4h-.4v-3.8h3.8v3.8h-.5zm0-3.4h-2.9v2.6h2.9v-2.6zM246 415c-.1-.3-.3-.6-.6-1l.3-.2c.2.3.4.7.6 1l-.3.2zm2.5.1c-.3.5-.6.9-1 1.2-.3.3-.8.5-1.3.7-.1-.1-.1-.3-.2-.4.5-.1.9-.3 1.2-.6.3-.2.6-.6.9-1 .2-.3.4-.8.5-1.4l.4.1c-.1.6-.3 1.1-.5 1.4zm-1.4-.5c-.1-.3-.3-.7-.5-1l.3-.1c.2.4.4.7.5 1l-.3.1zM252.5 415.4c-.5.6-1.2 1-2.2 1.4 0-.1-.1-.3-.2-.4.8-.3 1.5-.6 2-1.2.5-.5.9-1.2 1.2-2.1h-3.6v-.4h3.8l.3.3c-.4 1.1-.8 1.9-1.3 2.4zm1.9-2.8c-.1.1-.2.2-.4.2s-.3-.1-.4-.2c-.1-.1-.2-.2-.2-.4s.1-.3.2-.4c.1-.1.2-.2.4-.2.1 0 .3.1.4.2.1.1.2.2.2.4s-.1.3-.2.4zm-.2-.6c-.1-.1-.1-.1-.2-.1-.2 0-.3.1-.3.3 0 .1 0 .2.1.2.1.1.1.1.2.1s.2 0 .2-.1c.1-.1.1-.1.1-.2 0 0 0-.1-.1-.2zM256 414.6c-.3-.2-.7-.4-1-.5l.2-.4c.4.1.8.3 1.1.5l-.3.4zm1.6 1c-.6.4-1.3.8-2.2 1.1l-.2-.5c1.6-.5 2.9-1.4 3.9-2.7l.3.3c-.6.8-1.2 1.4-1.8 1.8zm-1-2.4c-.4-.2-.7-.4-1-.6l.2-.4c.4.2.8.4 1.1.6l-.3.4zM262.5 415.5c-.6.4-1.3.9-2.2 1.3l-.3-.5c1.5-.5 2.9-1.5 4-2.9l.3.3c-.6.7-1.2 1.3-1.8 1.8zm-1.2-1.8c-.4-.4-.8-.7-1.2-1l.3-.4c.5.3.9.6 1.3.9l-.4.5zM267.8 415.5c-.6.6-1.3 1-2.2 1.3-.1-.1-.1-.3-.2-.4.8-.2 1.5-.6 2-1 .4-.4.8-1.1 1.2-1.9h-1.8c-.4.6-.8 1.2-1.3 1.6-.1-.1-.2-.2-.4-.3l1.1-1.1c.2-.3.5-.8.8-1.4l.5.2c-.1.2-.2.4-.4.7H269l.3.3c-.6.7-1 1.5-1.5 2zM359.7 412.9c-.2 2.2-.6 3.7-1.2 4.6-.6.8-1.8 1.7-3.6 2.6-.2-.4-.4-.7-.7-1 1.7-.6 2.8-1.3 3.4-2.1.5-.8.9-2.1 1-4h-5.8v-1.1h12.3v1.1h-5.4zm-4.8-3.3v-1h8.2v1h-8.2zM373.8 417.2c-1.2 1.1-3 2-5.4 2.6-.1-.4-.3-.7-.5-1.1 2-.4 3.5-1 4.7-1.9 1.2-.9 2.3-2.3 3.2-4.2h-9.2v-1.1l10-.1.7.7c-1.2 2.4-2.3 4.1-3.5 5.1zm-5.9-7.8v-1.1h7.6v1.1h-7.6zM389.6 419.1c-1.1-1.6-2.5-3.2-4.1-4.6-1.5 1.8-3.4 3.3-5.9 4.7-.2-.4-.5-.8-.8-1.1 2-.9 3.7-2 4.9-3.2 1-1 2.2-2.7 3.7-5h-7.2v-1.1h7.7l.1-.1.8.8c-.9 1.5-1.7 2.9-2.6 4 1.8 1.5 3.3 3.1 4.5 4.7l-1.1.9zM146.8 412.9c-.2 2.2-.6 3.7-1.2 4.6-.6.8-1.8 1.7-3.6 2.6-.2-.4-.4-.7-.7-1 1.7-.6 2.8-1.3 3.4-2.1.5-.8.9-2.1 1-4h-5.8v-1.1h12.3v1.1h-5.4zm-4.8-3.3v-1h8.2v1H142zM160.9 417.2c-1.2 1.1-3 2-5.4 2.6-.1-.4-.3-.7-.5-1.1 2-.4 3.5-1 4.7-1.9 1.2-.9 2.3-2.3 3.2-4.2h-9.2v-1.1l10-.1.7.7c-1.2 2.4-2.3 4.1-3.5 5.1zm-5.9-7.8v-1.1h7.6v1.1H155zM176.7 419.1c-1.1-1.6-2.5-3.2-4.1-4.6-1.5 1.8-3.4 3.3-5.9 4.7-.2-.4-.5-.8-.8-1.1 2-.9 3.7-2 4.9-3.2 1-1 2.2-2.7 3.7-5h-7.2v-1.1h7.7l.1-.1.8.8c-.9 1.5-1.7 2.9-2.6 4 1.8 1.5 3.3 3.1 4.5 4.7l-1.1.9zM276.3 522v-1.2h1v1.2h5.4v.8h-5.4v1.1h4.3v4.5h-1.8v1.1h3.3v.8h-3.3v2.3c0 .3-.2.6-.5.7-.4.2-.9.3-1.6.3 0-.4-.1-.7-.4-1.1h1.2c.2 0 .3-.1.3-.2v-2h-8.3v-.8h8.3v-1.1h-6.7v-4.5h4.2v-1.1h-5.5v-.8h5.5zm-1 10.1-.8.7c-.4-.6-.9-1.2-1.5-1.8l.7-.6c.6.6 1.1 1.1 1.6 1.7zm-2.2-6.3h3.2v-1.1h-3.2v1.1zm3.2.7h-3.2v1.1h3.2v-1.1zm1-.7h3.4v-1.1h-3.4v1.1zm0 .7v1.1h3.4v-1.1h-3.4zM296.3 521.7v10.8c0 .5-.1.8-.4.9-.3.1-.8.2-1.6.3 0-.4-.1-.7-.3-1.1h1.1c.1 0 .2-.1.2-.3V529h-3.7v4.6h-1V529h-3.4c-.2 1.9-.8 3.5-1.7 4.8-.3-.4-.6-.7-.8-.9 1.1-1.3 1.7-3.1 1.7-5.4v-5.8h9.9zm-5.6 6.4v-2.3h-3.3v2.3h3.3zm0-3.2v-2.3h-3.3v2.3h3.3zm.9 0h3.7v-2.3h-3.7v2.3zm0 3.2h3.7v-2.3h-3.7v2.3zM306.3 520.8v1.3h5.2v.9h-10.3v3.7c0 1.7-.1 2.9-.2 3.8-.2 1.1-.6 2.1-1.1 3.2-.2-.3-.5-.5-.9-.7.5-.9.8-1.8 1-2.8.2-.7.2-1.9.2-3.5v-4.6h5.1v-1.3h1zm-1.4 3.7c-.4.9-.9 1.7-1.3 2.5h1.8c-.1 1.8-.3 3.1-.8 4 0 .1-.1.2-.1.2.2.2.4.3.6.4.9.5 1.9.7 3 .7h4c-.2.2-.3.5-.3.9h-3.5c-1.3 0-2.5-.3-3.7-.9-.3-.1-.5-.3-.7-.4-.5.6-1.2 1.1-2.1 1.6-.2-.3-.4-.6-.7-.8.9-.4 1.6-.9 2.1-1.4-.5-.6-.9-1.4-1.2-2.5l.8-.3c.2.9.5 1.5.9 2.1.4-.7.6-1.7.6-2.7H303c-.1.1-.1.2-.2.3l-.8-.4c.7-1.1 1.2-2.1 1.5-2.9h-1.8v-.9h2.1l.2-.1.9.6zm6.4 0c-.7.2-1.3.4-2 .5v2h2.5v.9h-2.5v2.2h2v.9h-5.1v-.9h2.1v-2.2h-2.5v-.9h2.5v-1.8c-.8.2-1.5.3-2.2.3 0-.2-.2-.5-.4-.9 1.7-.1 3.3-.5 4.9-1l.7.9zM200.4 128.3c-.2-.2-.5-.4-.8-.6.8-.9 1.5-2.1 2.2-3.4l.8.4c-.7 1.4-1.4 2.6-2.2 3.6zm4.3-5.1v6.5h-.8v-6.5h-4.2v-.8h4.2v-2.5h.8v2.5h4.5v.8h-4.5zm3.9 4.9c-.9-.9-1.8-2.1-2.5-3.4l.8-.5c.8 1.3 1.6 2.4 2.5 3.3-.4.2-.6.4-.8.6zM210.2 125.2v-.8h8.9v.8h-8.9zM222.9 125.7c-.4 1.4-1.2 2.7-2.4 3.7-.2-.3-.4-.5-.6-.8.9-.7 1.6-1.4 2-2.4.3-.8.5-1.8.6-3v-2.1h.9c-.1 2.1-.3 3.6-.5 4.6zm2.9 3.4-.6-.7.1-.1v-7.9h.8v7.4c1.2-.9 2.4-2 3.5-3.5.2.2.4.4.7.6-1.5 1.8-3 3.2-4.5 4.2zM165.9 145.9v-.7h5.5l.4-4.2H167v-.7h5.5l-.4 5h2.3v.7h-8.5zM169.9 154.7v-7.6h.7v7.6h-.7zM170.7 158.8c-.1 1.5-.4 2.5-.8 3.1-.4.6-1.2 1.2-2.5 1.8-.1-.2-.3-.5-.5-.7 1.2-.4 1.9-.9 2.3-1.4.4-.5.6-1.4.7-2.7h-4v-.7h8.4v.7h-3.6zm-3.3-2.2v-.7h5.6v.7h-5.6zM172.6 167.1v4.3h-.6v-3.8c-.8.7-1.8 1.3-2.9 1.8l-.3-.6c.9-.4 1.8-.9 2.8-1.7.9-.7 1.7-1.4 2.3-2.3l.6.5c-.7.7-1.4 1.3-1.9 1.8zM167.6 177.4v-4.6h.7v4.6h-.7zm5-2.6c0 1.2-.1 2.1-.3 2.7-.2.7-.5 1.3-1 1.8s-1.3.8-2.4 1.2c-.1-.3-.2-.5-.4-.7 1.4-.4 2.3-.9 2.8-1.6.4-.6.6-1.7.6-3.3v-2.5h.7v2.4zM170.7 184.7c-.1 1.5-.4 2.5-.8 3.1-.4.6-1.2 1.2-2.5 1.8-.1-.2-.3-.5-.5-.7 1.2-.4 1.9-.9 2.3-1.4.4-.5.6-1.4.7-2.7h-4v-.8h8.4v.7h-3.6zm-3.3-2.2v-.7h5.6v.7h-5.6zM172.6 193v4.3h-.6v-3.8c-.8.7-1.8 1.3-2.9 1.8l-.3-.6c.9-.4 1.8-.9 2.8-1.7.9-.7 1.7-1.4 2.3-2.3l.6.5c-.7.7-1.4 1.3-1.9 1.8zM361.5 198.9c-.3.2-.6.3-1 .3h-1.3v2h-.5v-4.6h1.6c.5 0 .9.1 1.2.3.4.2.5.6.5 1 0 .5-.2.8-.5 1zm-1.1-1.8h-1.2v1.7h1.2c.7 0 1.1-.3 1.1-.8-.1-.6-.4-.9-1.1-.9zM365.6 201c-.3.2-.7.3-1.1.3-.5 0-.8-.1-1.2-.3-.3-.2-.5-.6-.6-1h.6c.1.3.2.6.4.7.2.1.4.2.8.2.3 0 .5-.1.7-.2.2-.2.4-.4.4-.6 0-.3-.4-.6-1.1-.9-1-.4-1.5-.9-1.5-1.4 0-.4.2-.7.5-.9.3-.2.6-.3 1-.3.7 0 1.2.4 1.5 1.2h-.6c-.2-.5-.5-.7-.9-.7-.3 0-.5.1-.6.2-.2.1-.3.3-.3.6 0 .2.2.5.7.7.4.2.8.5 1.3.7.5.3.7.6.7 1-.2.2-.4.5-.7.7zM348.8 96.3c-.2.2-.5.3-.8.3h-1.1v2h-.4V94h1.3c.4 0 .7.1 1 .3.3.2.4.6.4 1s-.2.7-.4 1zm-.9-1.9h-1v1.7h.9c.6 0 .9-.3.9-.8 0-.6-.3-.9-.8-.9zM352 98.4c-.3.2-.5.3-.9.3s-.7-.1-.9-.3c-.2-.2-.4-.6-.5-1h.5c.1.3.2.6.3.7.1.1.3.2.6.2.2 0 .4-.1.6-.2.2-.2.3-.4.3-.6 0-.3-.3-.6-.9-.9-.8-.4-1.2-.9-1.2-1.4 0-.4.1-.7.4-.9.2-.2.5-.3.8-.3.6 0 1 .4 1.2 1.2h-.5c-.2-.5-.4-.7-.7-.7-.2 0-.4.1-.5.2-.2.1-.2.3-.2.6 0 .2.2.5.6.7.3.2.7.5 1 .7.4.3.6.6.6 1-.2.1-.3.4-.6.7zM227.5 237.9c-.3.2-.6.3-.9.3h-1.2v2h-.5v-4.6h1.4c.4 0 .8.1 1.1.3.3.2.5.6.5 1 0 .5-.1.8-.4 1zm-1-1.8h-1.1v1.7h1c.7 0 1-.3 1-.8 0-.6-.3-.9-.9-.9zM231.1 240.1c-.3.2-.6.3-1 .3s-.8-.1-1-.3c-.3-.2-.5-.6-.6-1h.6c.1.3.2.6.3.7.2.1.4.2.7.2.2 0 .5-.1.6-.2.2-.2.3-.4.3-.6 0-.3-.3-.6-1-.9-.9-.4-1.4-.9-1.4-1.4 0-.4.1-.7.5-.9.3-.2.6-.3.9-.3.7 0 1.1.4 1.4 1.2h-.5c-.2-.5-.5-.7-.8-.7-.2 0-.4.1-.6.2-.2.1-.3.3-.3.6 0 .2.2.5.6.7.4.2.8.5 1.1.7.4.3.6.6.6 1 .1.1 0 .4-.4.7zM113.2 82.4c-.3.2-.6.3-1 .3h-1.3v2h-.5v-4.6h1.6c.5 0 .9.1 1.2.3.4.2.5.6.5 1s-.2.7-.5 1zm-1.1-1.9h-1.2v1.7h1.2c.7 0 1.1-.3 1.1-.8-.1-.6-.4-.9-1.1-.9zM113.2 91.9c-.3.2-.7.3-1.1.3-.5 0-.8-.1-1.2-.3-.3-.2-.5-.6-.6-1h.6c.1.3.2.6.4.7.2.1.4.2.8.2.3 0 .5-.1.7-.2.2-.2.4-.4.4-.6 0-.3-.4-.6-1.1-.9-1-.4-1.5-.9-1.5-1.4 0-.4.2-.7.5-.9.3-.2.6-.3 1-.3.7 0 1.2.4 1.5 1.2h-.6c-.2-.5-.5-.7-.9-.7-.3 0-.5.1-.6.2-.2.1-.3.3-.3.6 0 .2.2.5.7.7.4.2.8.5 1.3.7.5.3.7.6.7 1-.2.1-.3.4-.7.7zM237.2 374.6c-.3.2-.6.3-1 .3h-1.3v2h-.5v-4.6h1.6c.5 0 .9.1 1.2.3.4.2.5.6.5 1 0 .5-.2.8-.5 1zm-1.1-1.8h-1.2v1.7h1.2c.7 0 1.1-.3 1.1-.8-.1-.6-.4-.9-1.1-.9zM243.7 376.7c-.3.2-.7.3-1.1.3-.5 0-.8-.1-1.2-.3-.3-.2-.5-.6-.6-1h.6c.1.3.2.6.4.7.2.1.4.2.8.2.3 0 .5-.1.7-.2.2-.2.4-.4.4-.6 0-.3-.4-.6-1.1-.9-1-.4-1.5-.9-1.5-1.4 0-.4.2-.7.5-.9.3-.2.6-.3 1-.3.7 0 1.2.4 1.5 1.2h-.6c-.2-.5-.5-.7-.9-.7-.3 0-.5.1-.6.2-.2.1-.3.3-.3.6 0 .2.2.5.7.7.4.2.8.5 1.3.7.5.3.7.6.7 1-.2.2-.4.5-.7.7zM504.9 374.6c-.3.2-.6.3-1 .3h-1.3v2h-.6v-4.6h1.6c.5 0 .9.1 1.2.3.4.2.5.6.5 1 .1.5-.1.8-.4 1zm-1.1-1.8h-1.2v1.7h1.2c.7 0 1.1-.3 1.1-.8-.1-.6-.4-.9-1.1-.9zM511.4 376.7c-.3.2-.7.3-1.1.3-.5 0-.8-.1-1.2-.3-.3-.2-.5-.6-.6-1h.6c.1.3.2.6.4.7.2.1.4.2.8.2.3 0 .5-.1.7-.2.2-.2.4-.4.4-.6 0-.3-.4-.6-1.1-.9-1-.4-1.5-.9-1.5-1.4 0-.4.2-.7.5-.9.3-.2.6-.3 1-.3.7 0 1.2.4 1.5 1.2h-.6c-.2-.5-.5-.7-.9-.7-.3 0-.5.1-.7.2-.2.1-.3.3-.3.6 0 .2.2.5.7.7.4.2.8.5 1.3.7.5.3.7.6.7 1-.1.2-.3.5-.6.7zM275.7 355.4c0 .6-.1 1.1-.1 1.4 0 .2-.1.3-.2.4-.1.1-.4.1-.9.2 0-.1-.1-.3-.1-.4h.4c.2 0 .3-.1.3-.2.1-.2.1-.5.1-1v-1.3H274c-.1.8-.3 1.4-.6 1.9s-.7.9-1.3 1.3c-.1-.1-.2-.3-.3-.4.5-.3 1-.7 1.2-1.1.3-.4.5-1 .5-1.6h-1.4v-.6h1.4v-1.2h.5v1.2h1.8l-.1 1.4zM276.3 355.3v-.4h4.2v.4h-4.2zM283.5 354.8c-.1.9-.2 1.5-.5 1.8-.2.3-.7.7-1.4 1-.1-.1-.1-.3-.3-.4.6-.2 1.1-.5 1.3-.8.2-.3.3-.8.4-1.6h-2.2v-.4h4.7v.4h-2zm-1.8-1.3v-.5h3.1v.4h-3.1zM288.5 356.1c-.6.4-1.3.9-2.1 1.3l-.2-.5c1.5-.5 2.7-1.5 3.8-2.9l.3.3c-.7.8-1.3 1.4-1.8 1.8zm-1.1-1.8c-.4-.4-.8-.7-1.2-1l.3-.4c.4.3.9.6 1.2.9l-.3.5zM291.1 356.9c-.1-.1-.2-.2-.4-.3.4-.5.7-1 1-1.7l.4.2c-.3.7-.6 1.3-1 1.8zm2.1-2.6v3.2h-.4v-3.2h-2v-.4h2v-1.2h.4v1.2h2.2v.4h-2.2zm1.8 2.4c-.4-.5-.8-1-1.2-1.7l.4-.3c.4.7.8 1.2 1.2 1.7-.2.1-.3.2-.4.3zm-.4-3c-.1-.2-.3-.4-.6-.6l.2-.2c.3.2.5.4.6.5l-.2.3zm.4-.4c-.1-.2-.3-.4-.6-.6l.2-.2c.3.2.5.4.6.5l-.2.3zM296.3 355.6c-.1-.3-.3-.6-.5-1l.3-.2c.2.3.4.7.6 1l-.4.2zm2.4.2c-.2.5-.5.9-.9 1.2-.3.3-.7.5-1.3.7-.1-.1-.1-.3-.2-.4.5-.1.9-.3 1.2-.6.3-.2.6-.6.9-1 .2-.3.4-.8.5-1.4l.4.1c-.3.6-.4 1-.6 1.4zm-1.4-.5c-.1-.3-.3-.7-.4-1l.3-.1c.2.4.4.7.5 1l-.4.1zM302.4 356.1c-.5.6-1.2 1-2.1 1.3-.1-.1-.1-.3-.2-.4.8-.2 1.4-.6 1.9-1 .4-.4.8-1.1 1.1-1.9h-1.7c-.4.6-.8 1.2-1.3 1.6-.1-.1-.2-.2-.4-.3.4-.4.8-.8 1-1.1.2-.3.4-.8.7-1.4l.4.2c-.1.2-.2.4-.3.7h1.8l.3.3c-.3.8-.7 1.5-1.2 2zM308.3 357.3c-.4-.6-1-1.3-1.6-1.9-.6.7-1.3 1.3-2.2 1.9-.1-.2-.2-.3-.3-.4.8-.4 1.4-.8 1.9-1.3.4-.4.9-1.1 1.4-2h-2.8v-.4h3l.3.3c-.3.6-.7 1.2-1 1.6.7.6 1.2 1.2 1.7 1.9l-.4.3zM310.6 355.5h-.6l-.1-.1v-.6l.1-.1h.6l.1.1v.6l-.1.1zM315.9 355.4c0 .6-.1 1.1-.1 1.4 0 .2-.1.3-.2.4-.1.1-.4.1-.9.2 0-.1-.1-.3-.1-.4h.4c.2 0 .3-.1.3-.2.1-.2.1-.5.1-1v-1.3h-1.3c-.1.8-.3 1.4-.6 1.9s-.7.9-1.3 1.3c-.1-.1-.2-.3-.3-.4.5-.3 1-.7 1.2-1.1.3-.4.5-1 .5-1.6h-1.4v-.6h1.4v-1.2h.5v1.2h1.8v1.4zM316.5 355.3v-.4h4.2v.4h-4.2zM323.7 354.8c-.1.9-.2 1.5-.5 1.8-.2.3-.7.7-1.4 1-.1-.1-.1-.3-.3-.4.6-.2 1.1-.5 1.3-.8.2-.3.3-.8.4-1.6H321v-.4h4.7v.4h-2zm-1.8-1.3v-.5h3.1v.4h-3.1zM328.7 356.1c-.6.4-1.3.9-2.1 1.3l-.2-.5c1.5-.5 2.7-1.5 3.8-2.9l.3.3c-.7.8-1.3 1.4-1.8 1.8zm-1.1-1.8c-.4-.4-.8-.7-1.2-1l.3-.4c.4.3.9.6 1.2.9l-.3.5zM333.8 355.8c-.4.4-.9.7-1.4 1-.4.2-.7.4-.8.5l-.4-.3v-4h.4v3.7c.7-.3 1.3-.7 1.7-1 .4-.3.9-.8 1.3-1.4l.3.3c-.4.4-.8.8-1.1 1.2zM335.3 355.3v-.4h4.2v.4h-4.2zM341.4 355.5c-.2.7-.6 1.3-1.2 1.9-.1-.1-.2-.3-.3-.4.4-.3.7-.7.9-1.2.2-.4.2-.9.3-1.5v-1h.4c.1 1 0 1.8-.1 2.2zm1.4 1.8-.3-.3v-4.1h.4v3.7c.6-.4 1.1-1 1.7-1.8l.3.3c-.7.9-1.4 1.7-2.1 2.2zM348.3 357.1h-.4l-.7-2.9-.8 2.9h-.4l-.9-3.6h.4l.7 2.9.8-2.9h.4l.7 2.9.7-2.9h.4l-.9 3.6zM429.1 355.4c0 .6-.1 1.1-.1 1.4 0 .2-.1.3-.2.4-.1.1-.4.1-.9.2 0-.1-.1-.3-.1-.4h.4c.2 0 .3-.1.3-.2.1-.2.1-.5.1-1v-1.3h-1.3c-.1.8-.3 1.4-.6 1.9s-.7.9-1.3 1.3c-.1-.1-.2-.3-.3-.4.5-.3 1-.7 1.2-1.1.3-.4.5-1 .5-1.6h-1.4v-.6h1.4v-1.2h.5v1.2h1.8v1.4zM429.7 355.3v-.4h4.2v.4h-4.2zM436.9 354.8c-.1.9-.2 1.5-.5 1.8-.2.3-.7.7-1.4 1-.1-.1-.1-.3-.3-.4.6-.2 1.1-.5 1.3-.8.2-.3.3-.8.4-1.6h-2.2v-.4h4.7v.4h-2zm-1.8-1.3v-.5h3.1v.4h-3.1zM441.9 356.1c-.6.4-1.3.9-2.1 1.3l-.2-.5c1.5-.5 2.7-1.5 3.8-2.9l.3.3c-.7.8-1.3 1.4-1.8 1.8zm-1.2-1.8c-.4-.4-.8-.7-1.2-1l.3-.4c.4.3.9.6 1.2.9l-.3.5zM447 355.8c-.4.4-.9.7-1.4 1-.4.2-.7.4-.8.5l-.4-.3v-4h.4v3.7c.7-.3 1.3-.7 1.7-1 .4-.3.9-.8 1.3-1.4l.3.3c-.4.4-.8.8-1.1 1.2zM448.5 355.3v-.4h4.2v.4h-4.2zM454.6 355.5c-.2.7-.6 1.3-1.2 1.9-.1-.1-.2-.3-.3-.4.4-.3.7-.7.9-1.2.2-.4.2-.9.3-1.5v-1h.4c0 1 0 1.8-.1 2.2zm1.3 1.8-.3-.3v-4.1h.4v3.7c.6-.4 1.1-1 1.7-1.8l.3.3c-.6.9-1.3 1.7-2.1 2.2zM461.5 357.1h-.4l-.7-2.9-.8 2.9h-.4l-.9-3.6h.4l.7 2.9.8-2.9h.4l.7 2.9.7-2.9h.4l-.9 3.6zM137.3 355.4c0 .6-.1 1.1-.1 1.4 0 .2-.1.3-.2.4-.1.1-.4.1-.9.2 0-.1-.1-.3-.1-.4h.4c.2 0 .3-.1.3-.2.1-.2.1-.5.1-1v-1.3h-1.3c-.1.8-.3 1.4-.6 1.9s-.7.9-1.3 1.3c-.1-.1-.2-.3-.3-.4.5-.3 1-.7 1.2-1.1.3-.4.5-1 .5-1.6h-1.4v-.4h1.4V353h.5v1.2h1.8v1.2zM137.8 355.3v-.4h4.2v.4h-4.2zM145.1 354.8c-.1.9-.2 1.5-.5 1.8-.2.3-.7.7-1.4 1-.1-.1-.1-.3-.3-.4.6-.2 1.1-.5 1.3-.8.2-.3.3-.8.4-1.6h-2.2v-.4h4.7v.4h-2zm-1.8-1.3v-.5h3.1v.4h-3.1zM150 356.1c-.6.4-1.3.9-2.1 1.3l-.2-.5c1.5-.5 2.7-1.5 3.8-2.9l.3.3c-.6.8-1.2 1.4-1.8 1.8zm-1.1-1.8c-.4-.4-.8-.7-1.2-1l.3-.4c.4.3.9.6 1.2.9l-.3.5zM152.7 356.9c-.1-.1-.2-.2-.4-.3.4-.5.7-1 1-1.7l.4.2c-.3.7-.7 1.2-1 1.8zm2-2.6v3.2h-.4v-3.2h-2v-.4h2v-1.2h.4v1.2h2.2v.4h-2.2zm1.8 2.4c-.4-.5-.8-1-1.2-1.7l.4-.3c.4.7.8 1.2 1.2 1.7-.1.1-.3.2-.4.3zm-.3-3c-.1-.2-.3-.4-.6-.6l.2-.2c.3.2.5.4.6.5l-.2.3zm.3-.4c-.1-.2-.3-.4-.6-.6l.2-.2c.3.2.5.4.6.5l-.2.3zM157.8 355.6c-.1-.3-.3-.6-.5-1l.3-.2c.2.3.4.7.6 1l-.4.2zm2.4.2c-.2.5-.5.9-.9 1.2-.3.3-.7.5-1.3.7-.1-.1-.1-.3-.2-.4.5-.1.9-.3 1.2-.6.3-.2.6-.6.9-1 .2-.3.4-.8.5-1.4l.4.1c-.2.6-.4 1-.6 1.4zm-1.3-.5c-.1-.3-.3-.7-.4-1l.3-.1c.2.4.4.7.5 1l-.4.1zM164 356.1c-.5.6-1.2 1-2.1 1.3-.1-.1-.1-.3-.2-.4.8-.2 1.4-.6 1.9-1 .4-.4.8-1.1 1.1-1.9H163c-.4.6-.8 1.2-1.3 1.6-.1-.1-.2-.2-.4-.3.4-.4.8-.8 1-1.1.2-.3.4-.8.7-1.4l.4.2c-.1.2-.2.4-.3.7h1.8l.3.3c-.4.8-.8 1.5-1.2 2zM169.8 357.3c-.4-.6-1-1.3-1.6-1.9-.6.7-1.3 1.3-2.2 1.9-.1-.2-.2-.3-.3-.4.8-.4 1.4-.8 1.9-1.3.4-.4.9-1.1 1.4-2h-2.8v-.4h3l.3.3c-.3.6-.7 1.2-1 1.6.7.6 1.2 1.2 1.7 1.9l-.4.3zM172.2 355.5h-.6l-.1-.1v-.6l.1-.1h.6l.1.1v.6l-.1.1zM177.5 355.4c0 .6-.1 1.1-.1 1.4 0 .2-.1.3-.2.4-.1.1-.4.1-.9.2 0-.1-.1-.3-.1-.4h.4c.2 0 .3-.1.3-.2.1-.2.1-.5.1-1v-1.3h-1.3c-.1.8-.3 1.4-.6 1.9s-.7.9-1.3 1.3c-.1-.1-.2-.3-.3-.4.5-.3 1-.7 1.2-1.1.3-.4.5-1 .5-1.6h-1.4v-.4h1.4V353h.5v1.2h1.8v1.2zM178 355.3v-.4h4.2v.4H178zM185.3 354.8c-.1.9-.2 1.5-.5 1.8-.2.3-.7.7-1.4 1-.1-.1-.1-.3-.3-.4.6-.2 1.1-.5 1.3-.8.2-.3.3-.8.4-1.6h-2.2v-.4h4.7v.4h-2zm-1.9-1.3v-.5h3.1v.4h-3.1zM190.2 356.1c-.6.4-1.3.9-2.1 1.3l-.2-.5c1.5-.5 2.7-1.5 3.8-2.9l.3.3c-.6.8-1.2 1.4-1.8 1.8zm-1.1-1.8c-.4-.4-.8-.7-1.2-1l.3-.4c.4.3.9.6 1.2.9l-.3.5zM195.3 355.8c-.4.4-.9.7-1.4 1-.4.2-.7.4-.8.5l-.4-.3v-4h.4v3.7c.7-.3 1.3-.7 1.7-1 .4-.3.9-.8 1.3-1.4l.3.3c-.3.4-.7.8-1.1 1.2zM196.9 355.3v-.4h4.2v.4h-4.2zM202.9 355.5c-.2.7-.6 1.3-1.2 1.9-.1-.1-.2-.3-.3-.4.4-.3.7-.7.9-1.2.2-.4.2-.9.3-1.5v-1h.4c.1 1 .1 1.8-.1 2.2zm1.4 1.8-.3-.3v-4.1h.4v3.7c.6-.4 1.1-1 1.7-1.8l.3.3c-.7.9-1.4 1.7-2.1 2.2zM209.9 357.1h-.4l-.7-2.9-.8 2.9h-.4l-.9-3.6h.4l.7 2.9.8-2.9h.4l.7 2.9.7-2.9h.4l-.9 3.6zM226.7 132.9v-1.2h.4v1.2h.6v.4h-.6v1c.2-.1.4-.1.7-.2v.4c-.2.1-.5.1-.7.2v1.7c0 .1-.1.2-.2.3-.1.1-.4.1-.6.1 0-.1 0-.3-.1-.4h.5c.1 0 .1 0 .1-.1v-1.5c-.3.1-.6.2-.8.2l-.1-.4c.3-.1.6-.1.9-.2v-1.1h-.9v-.4h.8zm4-.8c-.8.3-1.5.4-2.1.5v.9h2.3v.4h-.7v2.9h-.4v-2.9h-1.2v.2c0 .5-.1.9-.2 1.3-.1.5-.3.9-.6 1.3-.1-.1-.2-.2-.3-.2.3-.4.4-.7.6-1.1.1-.4.2-.8.2-1.2v-1.9l.3.1c.7-.1 1.4-.2 2-.5l.1.2zM228.5 137.5v1.8h1.8v.4h-1.8v2.3h2.3v.4h-5v-.4h2.2v-4.5h.5zM230.7 143.5v.4h-2.2v1.2h2v.3h-1.9c.1.5.4.9.7 1.3.4.5 1 .8 1.6 1-.1.1-.2.2-.3.4-.7-.3-1.2-.7-1.6-1.2-.3-.3-.5-.6-.6-1-.1.4-.2.7-.4 1-.4.5-1 1-1.9 1.3-.1-.2-.1-.3-.2-.4 1-.4 1.6-.8 1.9-1.4.1-.3.2-.6.3-1h-1.8v-.3h1.8v-1.2H226v-.4h4.7zM227.2 150v-1.1h.4v1.1h1.5v-1.2h.4v1.2h1.1v.4h-1.1v1.3h1.5v.4h-1.5v1.9h-.4v-1.9h-1.5c-.1.3-.1.6-.3.9-.2.4-.6.7-1.1 1l-.3-.3c.5-.2.9-.5 1.1-.9.1-.2.2-.4.2-.7h-1.4v-.4h1.4v-1.3h-1.1v-.4h1.1zm1.9.4h-1.5v1.3h1.5v-1.3zM304.1 215.6v-1.2h.4v1.2h.6v.4h-.6v1c.2-.1.4-.1.7-.2v.4c-.2.1-.5.1-.7.2v1.7c0 .1-.1.2-.2.3-.1.1-.4.1-.6.1 0-.1 0-.3-.1-.4h.5c.1 0 .1 0 .1-.1v-1.5c-.3.1-.6.2-.8.2l-.1-.4c.3-.1.6-.1.9-.2V216h-.9v-.4h.8zm4-.8c-.8.3-1.5.4-2.1.5v.9h2.3v.4h-.7v2.9h-.4v-2.9H306v.2c0 .5-.1.9-.2 1.3-.1.5-.3.9-.6 1.3-.1-.1-.2-.2-.3-.2.3-.4.4-.7.6-1.1.1-.4.2-.8.2-1.2V215l.3.1c.7-.1 1.4-.2 2-.5l.1.2zM311.6 214.5v1.8h1.8v.4h-1.8v2.3h2.3v.4h-5v-.4h2.2v-4.5h.5zM319.6 214.7v.4h-2.2v1.2h2v.3h-1.9c.1.5.4.9.7 1.3.4.5 1 .8 1.6 1-.1.1-.2.2-.3.4-.7-.3-1.2-.7-1.6-1.2-.3-.3-.5-.6-.6-1-.1.4-.2.7-.4 1-.4.5-1 1-1.9 1.3-.1-.2-.1-.3-.2-.4 1-.4 1.6-.8 1.9-1.4.1-.3.2-.6.3-1h-1.8v-.3h1.8v-1.2h-2.1v-.4h4.7zM321.8 215.6v-1.1h.4v1.1h1.5v-1.2h.4v1.2h1.1v.4H324v1.3h1.5v.4H324v1.9h-.4v-1.9h-1.5c-.1.3-.1.6-.3.9-.2.4-.6.7-1.1 1l-.3-.3c.5-.2.9-.5 1.1-.9.1-.2.2-.4.2-.7h-1.4v-.4h1.4V216h-1.1v-.4h1.2zm1.8.3h-1.5v1.3h1.5v-1.3zM196.4 179.9c-.5.7-1.4 1.2-2.6 1.6-.1-.2-.2-.4-.3-.5 1-.2 1.8-.6 2.2-1.2.5-.6.8-1.4.8-2.4h-3.4v1.6h-.5v-2.1h2v-1.2h.5v1.2h2c.1 1.4-.2 2.3-.7 3zM200.9 178.6v2.3c0 .2 0 .4-.1.5-.1.1-.3.1-.7.2 0-.2-.1-.4-.1-.5h.3c.2 0 .2-.1.2-.2v-1.7c-.6.8-1.4 1.4-2.3 1.9-.1-.1-.2-.3-.3-.4 1-.5 1.8-1.2 2.4-2h-2.2v-.4h2.3v-1h.4v1h1.5v.4h-1.4zM204.3 178.8l-1.2-.6.2-.4c.5.2.9.3 1.2.5l-.2.5zm1.8 1.2c-.7.5-1.5.9-2.5 1.3l-.3-.5c1.8-.6 3.3-1.6 4.5-3 .1.1.2.3.3.4-.6.7-1.3 1.3-2 1.8zm-1.2-2.7c-.4-.3-.8-.5-1.2-.7l.2-.4c.5.3.9.5 1.2.7l-.2.4zM208.8 181.1v-.4h2.9l.2-2.2h-2.5v-.4h2.9l-.2 2.6h1.3v.4h-4.6zM199.2 187.3c-.5.4-1.1.8-1.7 1.1-.5.2-.8.4-1 .6l-.4-.4V184h.5v4.2c.9-.4 1.6-.8 2.1-1.2.5-.4 1-.9 1.6-1.6.1.1.2.3.4.4-.6.6-1 1.1-1.5 1.5zM201.9 187.1c-.2-.3-.4-.7-.7-1.1l.4-.2c.2.4.5.7.7 1.2l-.4.1zm2.9.2c-.3.6-.7 1-1.1 1.4-.4.3-.9.6-1.5.8-.1-.2-.2-.3-.3-.4.6-.2 1-.4 1.4-.6.4-.3.7-.7 1-1.2.2-.4.4-1 .6-1.7l.5.1c-.2.7-.4 1.2-.6 1.6zm-1.7-.6c-.1-.4-.3-.8-.5-1.1l.4-.2c.2.4.4.8.6 1.1l-.5.2zM209.9 187.3c-.7-.4-1.6-.8-2.7-1.2v3.3h-.5v-5.6h.5v1.8c1 .3 2 .7 3 1.2l-.3.5zM219.2 183.6c-.5.1-1.1.2-1.9.3v.8h2v.4h-2v.9h2.3v.4h-2.3v1.4c0 .1-.1.2-.3.3-.2.1-.4.1-.8.1 0-.1 0-.3-.2-.4h.6c.1 0 .1 0 .1-.1v-1.3h-2.2v-.4h2.2v-.9h-2v-.4h2v-.7c-.6.1-1.2.1-1.8.1-.1-.2-.1-.3-.2-.4.8 0 1.6-.1 2.2-.1.6-.1 1.2-.2 1.9-.3l.4.3zM215.7 192.2l-.9 1.8-.4-.2 1-1.8c.1.1.2.2.3.2zm-.2-1.3-.2.3c-.2-.2-.5-.4-.8-.5l.2-.3c.3.2.5.3.8.5zm.2-1.3-.2.3c-.2-.3-.5-.5-.7-.6l.2-.3c.3.2.5.4.7.6zm1.1-.3c-.1.3-.2.5-.3.7h.8v-1h.4v1h1.4v.3h-1.4v1h1.7v.3h-1.2v1.8c0 .1 0 .1.1.1h.6c.1 0 .2-.1.2-.1.1-.1.1-.2.1-.4.1.1.2.1.4.1 0 .2-.1.4-.2.6-.1.2-.2.2-.4.2h-.7c-.3 0-.4-.2-.4-.5v-1.8h-.8c0 .7-.1 1.2-.3 1.5-.2.3-.6.6-1.1.8-.1-.1-.1-.3-.2-.4.5-.2.9-.5 1-.8.1-.3.2-.6.2-1.1h-1.1v-.3h1.7v-1h-1c-.1.3-.3.5-.4.7-.1-.1-.2-.2-.3-.2.2-.3.4-.5.5-.8.1-.3.2-.5.3-.8l.4.1zM218.8 197.2c0 .6-.1 1.1-.1 1.4 0 .2-.1.3-.2.4-.1.1-.4.1-.9.2 0-.1-.1-.3-.1-.4h.5c.2 0 .3-.1.4-.2.1-.2.1-.5.1-1v-1.3H217c-.1.8-.3 1.4-.6 1.9s-.8.9-1.4 1.3c-.1-.1-.2-.3-.3-.4.6-.3 1-.7 1.3-1.1.3-.4.5-1 .6-1.6h-1.5v-.4h1.5v-1.2h.5v1.2h1.8l-.1 1.2zM218.3 203.5c-.4.6-1.2 1.1-2.3 1.4-.1-.2-.2-.3-.2-.4.9-.2 1.5-.6 2-1 .5-.5.7-1.2.7-2.1h-3v1.4h-.4V201h1.7v-1h.4v1h1.8c0 1.1-.2 1.9-.7 2.5zM217.6 208.6c-.6.4-1.3.9-2.2 1.3l-.3-.5c1.5-.5 2.9-1.5 4-2.9l.3.3c-.6.8-1.2 1.4-1.8 1.8zm-1.2-1.8c-.4-.4-.8-.7-1.2-1l.3-.4c.5.3.9.6 1.3.9l-.4.5zM217.6 213.8c-.6.6-1.3 1.1-2.3 1.5-.1-.1-.1-.2-.3-.4.9-.3 1.6-.8 2.2-1.4-.3-.3-.7-.6-1-.8l.2-.3c.4.3.8.5 1.1.8.3-.4.6-.9.9-1.5h-1.8c-.5.7-1 1.2-1.7 1.6-.1-.1-.2-.3-.3-.4.6-.4 1-.7 1.2-1 .3-.3.5-.8.8-1.4l.5.2-.3.6h1.8l.3.3c-.3 1-.8 1.7-1.3 2.2zM216.9 220.3v-4.5h.4v4.5h-.4zM207.2 40l-.4-.4c.5-.4 1.1-1 1.8-1.7h-5.2v-.6h5.8l.5.5c-1.1 1-1.9 1.8-2.5 2.2zm-.8 1.9c-.3.7-1 1.3-2.1 1.8-.1-.2-.2-.4-.4-.6.9-.2 1.6-.6 1.9-1.2.3-.5.4-1.2.4-2.2v-.6h.6c0 1.3-.2 2.2-.4 2.8zM212.7 40.8c-.3 1-.9 1.9-1.7 2.6-.1-.2-.3-.4-.4-.5.6-.5 1.1-1 1.4-1.7.2-.5.4-1.3.4-2.2v-1.5h.6c0 1.6-.1 2.6-.3 3.3zm2.1 2.5-.5-.5.1-.1V37h.6v5.3c.9-.6 1.7-1.5 2.5-2.5.1.1.3.3.5.4-1.1 1.3-2.1 2.4-3.2 3.1zM223.3 43.3v-.4h-4.5v-.6h4.5v-3.4h-4.5v-.6h5.2v5.1h-.7zM224.9 40.5v-.6h6.4v.6h-6.4zM236.1 41.6c-.7.8-1.7 1.5-3.2 2.1l-.3-.6c1.2-.4 2.2-.9 2.9-1.7.7-.7 1.2-1.7 1.7-3H232v-.6h5.4l.5.5c-.6 1.4-1.2 2.6-1.8 3.3zm2-3.7c-.2-.2-.5-.5-.9-.8l.3-.3c.4.3.7.5.9.8l-.3.3zm.6-.6c-.2-.2-.5-.5-.9-.8l.3-.3c.4.3.7.5.9.8l-.3.3zM206.4 45.9V47h.4l.2.2c-.2.4-.4.9-.7 1.2l.2.2c.2-.1.3-.3.5-.5l.2.3-.5.5c.1.1.3.2.4.3-.1.1-.2.2-.2.3-.2-.1-.4-.3-.5-.5l-.1-.1V51h-.4v-2.1l-.6.6c0-.1-.1-.3-.2-.4.6-.6 1.1-1.1 1.4-1.8h-1.3V47h.7v-1.1h.5zm3.8 5h-.4v-.4h-1.9v.5h-.4v-3.7h1.1V46h.4v1.3h1.1v3.6zm-1.5-2.2v-1.1h-.8v1.1h.8zm0 1.5V49h-.8v1.2h.8zm.3-1.5h.8v-1.1h-.8v1.1zm0 1.5h.8V49h-.8v1.2zM212.7 46c-.1.4-.3.8-.5 1.2v3.9h-.4v-3.2c-.2.3-.4.6-.7.9 0-.1-.1-.3-.2-.4.5-.7 1-1.5 1.4-2.6l.4.2zm2.1 1.3V46h.4v1.3h1v.4h-1v2.9c0 .1-.1.2-.2.3-.2.1-.4.1-.7.1 0-.1 0-.3-.1-.4h.6c.1 0 .1 0 .1-.1v-2.8h-2.3v-.4h2.2zm-.8 1.9-.3.2c-.2-.3-.5-.6-.8-1l.3-.2c.4.4.6.8.8 1zM219.6 45.9v.9h2.2v.4h-2.4l-.8 1.6c.3.2.5.4.7.6l1.1-1.5.4.2-1.9 2.4c.6 0 1.3-.1 2-.2-.2-.2-.4-.5-.6-.7l.3-.2c.5.6.9 1.1 1.2 1.5l-.3.2c-.1-.2-.2-.3-.3-.4-1.6.2-3 .3-4.1.4l-.1-.4c.4 0 .9 0 1.4-.1l.7-.9c-.5-.4-1.1-.9-1.8-1.2l.2-.4c.3.2.6.3.8.5l.6-1.3h-2v-.4h2.3V46h.4zM224.8 46.1v1.7h-1.6V51h-.4v-4.9h2zm-.4.7v-.4h-1.2v.4h1.2zm0 .7v-.4h-1.2v.4h1.2zm3-1.4v4.4c0 .2-.1.3-.2.4-.1.1-.3.1-.7.1 0-.1-.1-.3-.2-.4h.5c.1 0 .1 0 .1-.1v-2.6h-1.3l.4.1-.3.5h.8v.3h-1.3v.5h1.5v.3h-1.3c.1.2.2.3.3.4.1.1.4.3.7.4l-.3.3c-.3-.2-.6-.3-.7-.5-.1-.1-.3-.3-.4-.5-.1.1-.1.2-.2.3-.2.3-.6.5-1.1.8l-.3-.3c.5-.1.8-.4 1.1-.6.1-.1.1-.1.1-.2h-1.1v-.3h1.2v-.5h-1.1v-.3h.6c-.1-.1-.2-.3-.4-.5l.3-.2.5.5-.2.2h.7l.3-.7h-.2v-1.7h2.2zm-.4.3h-1.2v.4h1.2v-.4zm0 .7h-1.2v.4h1.2v-.4zM231.6 49.1c-.6-.4-1.4-.7-2.3-1V51h-.4v-4.9h.4v1.6c.9.3 1.8.6 2.6 1.1l-.3.3zm-.5-1.6c-.1-.2-.3-.4-.6-.6l.2-.2c.3.2.5.4.6.5l-.2.3zm.4-.5c-.1-.2-.3-.4-.6-.6l.2-.2c.3.2.5.4.6.5l-.2.3zM234.9 48.3l-.3-.3c.4-.3.8-.7 1.3-1.2h-3.6v-.4h4.1l.3.4c-.8.7-1.4 1.2-1.8 1.5zm-.6 1.3c-.2.5-.7.9-1.5 1.2-.1-.1-.2-.3-.3-.4.6-.2 1.1-.4 1.3-.9.2-.3.3-.8.3-1.5v-.4h.4c.1 1 0 1.6-.2 2zM265.1 75.8v.9h2.6v.4H265l-1 1.6c.3.2.6.4.8.6l1.3-1.5.5.2-2.2 2.5c.7 0 1.5-.1 2.3-.2l-.7-.7.4-.3c.6.6 1.1 1.1 1.4 1.5l-.4.3c-.1-.2-.2-.3-.4-.5-1.8.2-3.4.3-4.7.4l-.1-.4c.5 0 1 0 1.6-.1l.8-.9c-.6-.4-1.3-.9-2.1-1.3l.2-.4c.3.2.6.3.9.5l.7-1.4H262v-.4h2.6v-.9h.5zM264.6 81.3v1.8h-1.8v3.3h-.5v-5.1h2.3zm-.5.8v-.4h-1.4v.4h1.4zm0 .7v-.4h-1.4v.4h1.4zm3.4-1.5v4.6c0 .2-.1.3-.2.4-.1.1-.4.1-.8.1 0-.2-.1-.3-.2-.5h.6c.1 0 .1 0 .1-.1v-2.7h-1.5l.4.1-.4.6h.9v.3H265v.5h1.7v.4h-1.5c.1.2.3.3.4.5.2.2.4.3.8.4l-.3.3c-.4-.2-.6-.3-.8-.5-.2-.1-.3-.3-.4-.6-.1.1-.1.2-.2.3-.2.3-.7.6-1.2.8-.1-.1-.2-.3-.3-.3.6-.2 1-.4 1.2-.7l.2-.2h-1.3v-.3h1.4v-.5h-1.2v-.3h.7c-.1-.1-.2-.3-.4-.5l.3-.2.5.5-.2.2h.8l.4-.7h-.2v-1.8h2.1zm-.4.4h-1.4v.4h1.4v-.4zm0 .7h-1.4v.4h1.4v-.4zM260 71.1c-.6.6-1.5 1-2.5 1.3-.1-.1-.2-.3-.3-.4.9-.2 1.7-.6 2.2-1.1.5-.4 1-1.1 1.4-2h-2.1c-.4.6-1 1.2-1.5 1.7-.1-.1-.3-.2-.4-.3.5-.4.9-.8 1.2-1.2.2-.3.5-.8.9-1.4l.5.2c-.1.2-.2.4-.4.7h2.2l.3.3c-.4.9-.9 1.6-1.5 2.2zM260.8 76.5v-.4h-3.3v.4h-.5v-3.9h4.3v3.9h-.5zm0-3.5h-3.3v2.6h3.3V73zM259 81.2v-4.6h.5v4.6h-.5zM259.9 84.4l-.3-.3c.5-.4 1-.8 1.4-1.2l-2.4.3V85c0 .2.2.4.6.5h2.5v.4h-1.6c-.6 0-1 0-1.3-.1-.5-.1-.7-.4-.7-.8v-1.9l-1.5.2-.1-.4 1.6-.2v-1.5h.5v1.4l2.6-.3.1-.1.4.4c-.7.8-1.3 1.4-1.8 1.8zm1.6-2.2c-.2-.2-.4-.4-.7-.6l.2-.2c.3.2.6.4.7.6l-.2.2zm.4-.5c-.2-.2-.4-.4-.7-.6l.2-.2c.3.2.6.4.7.6l-.2.2zM258.7 87.6c-.2-.3-.4-.6-.7-1l.4-.2c.2.3.5.7.7 1l-.4.2zm2.9.2c-.3.5-.7.9-1.1 1.2-.4.3-.9.5-1.5.8-.1-.1-.2-.3-.3-.4.6-.2 1-.3 1.4-.6.4-.2.7-.6 1-1.1.2-.4.4-.9.6-1.5l.5.1c-.2.7-.4 1.1-.6 1.5zm-1.7-.5c-.1-.3-.3-.7-.5-1l.4-.1c.2.4.4.7.6 1l-.5.1zM261.3 92.9c-.7-.4-1.6-.7-2.7-1.1v3h-.5v-5h.5v1.6c1 .3 2 .6 3 1.1l-.3.4zM130.8 236c-.2.5-.5 1-.9 1.4l-.3-.3c.6-.7 1-1.6 1.3-2.8l.4.2c-.1.7-.3 1.2-.5 1.5zm2.8 1.3c-.3-1-.8-1.9-1.3-2.8l.3-.2c.6.9 1.1 1.9 1.5 2.8l-.5.2zM136.7 236.7c-.5.4-1.1.8-1.9 1.1l-.2-.4c1.3-.4 2.5-1.3 3.4-2.5l.3.3c-.6.6-1.2 1.1-1.6 1.5zm-1.1-1.6c-.4-.3-.7-.6-1.1-.8l.2-.3c.4.2.8.5 1.1.8l-.2.3zM142.3 236c0 .5-.1.9-.1 1.2 0 .1-.1.2-.2.3-.1.1-.4.1-.8.2 0-.1-.1-.2-.1-.4h.4c.1 0 .3-.1.3-.2.1-.1.1-.4.1-.8v-1.1h-1.2c-.1.6-.3 1.2-.5 1.6-.3.4-.7.8-1.2 1.1l-.3-.3c.5-.3.9-.6 1.1-.9.3-.4.4-.8.5-1.4h-1.2v-.4h1.3v-1h.4v1h1.6l-.1 1.1zm0-1.4-.5-.5.2-.2c.2.2.4.3.6.5l-.3.2zm.3-.4-.5-.5.2-.2c.2.2.4.3.6.5l-.3.2zM143.1 236v-.3h3.8v.3h-3.8zM148.4 236c-.2.5-.5 1-.9 1.4l-.3-.3c.6-.7 1-1.6 1.3-2.8l.4.2c-.1.7-.3 1.2-.5 1.5zm2.7 1.3c-.3-1-.8-1.9-1.3-2.8l.3-.2c.6.9 1.1 1.9 1.5 2.8l-.5.2zm.3-2.7c-.1.1-.2.2-.3.2-.1 0-.3 0-.3-.1-.1-.1-.1-.2-.1-.3 0-.1 0-.3.1-.3.1-.1.2-.1.3-.1.1 0 .2 0 .3.1.1.1.1.2.1.3s0 .1-.1.2zm-.1-.5s-.1-.1-.2-.1c-.2 0-.3.1-.3.3 0 .1 0 .1.1.2 0 .1.1.1.2.1s.1 0 .2-.1c0 0 .1-.1.1-.2s-.1-.2-.1-.2zM154.3 235.2v2.7h-.3v-2.4c-.6.5-1.2.9-1.8 1.1-.1-.1-.1-.3-.2-.4.6-.2 1.2-.6 1.8-1.1.5-.4 1-.9 1.5-1.4l.4.3c-.6.5-1 .9-1.4 1.2zM158.6 236.6c-.4.5-1 .9-1.9 1.2 0-.1-.1-.2-.2-.4.7-.2 1.3-.6 1.7-1 .4-.4.7-1 1-1.8h-3v-.4h3.2l.3.3c-.4 1-.7 1.7-1.1 2.1zm1.6-2.4c-.1.1-.2.2-.3.2-.1 0-.3 0-.3-.1-.1-.1-.1-.2-.1-.3 0-.1 0-.3.1-.3.1-.1.2-.1.3-.1.1 0 .2 0 .3.1.1.1.1.2.1.3 0 0 0 .1-.1.2zm-.1-.5s-.1-.1-.2-.1c-.2 0-.3.1-.3.3 0 .1 0 .1.1.2 0 .1.1.1.2.1s.1 0 .2-.1c0 0 .1-.1.1-.2-.1-.1-.1-.1-.1-.2zM133.5 226.3c-.6.7-1.5 1.2-2.5 1.5-.1-.1-.2-.3-.3-.5.9-.2 1.7-.6 2.2-1.2.5-.5 1-1.2 1.4-2.2h-2.1c-.4.7-1 1.3-1.5 1.9-.1-.1-.3-.2-.4-.3.5-.4.9-.9 1.2-1.3.2-.4.5-.9.9-1.6l.5.2c-.1.2-.2.5-.4.8h2.1l.1-.1.3.3c-.5 1-1 1.9-1.5 2.5zM139.3 227.4v-.4H136v.4h-.5v-4.3h4.3v4.3h-.5zm0-3.8H136v2.9h3.3v-2.9zM140.2 225.3v-.5h5.1v.5h-5.1zM148.9 225.9l-.3-.4c.5-.5 1-.9 1.4-1.4l-2.4.4v2.1c0 .3.2.4.6.5h1c.6 0 1.1 0 1.5-.1v.5c-.6 0-1.2.1-1.6.1-.6 0-1 0-1.3-.1-.5-.1-.7-.4-.7-.9v-2.1l-1.5.2-.1-.5 1.6-.2v-1.7h.5v1.6l2.6-.4.1-.1.4.4c-.7 1-1.3 1.7-1.8 2.1zm1.6-2.4c-.2-.2-.4-.4-.7-.6l.2-.3c.3.2.6.4.7.6l-.2.3zm.4-.5c-.2-.2-.4-.4-.7-.6l.2-.3c.3.2.6.4.7.6l-.2.3zM152 225.7c-.2-.3-.4-.7-.7-1.1l.4-.2c.2.4.5.7.7 1.2l-.4.1zm2.9.2c-.3.6-.7 1-1.1 1.4-.4.3-.9.6-1.5.8-.1-.2-.2-.3-.3-.4.6-.2 1-.4 1.4-.6.4-.3.7-.7 1-1.2.2-.4.4-1 .6-1.7l.5.1c-.2.6-.4 1.2-.6 1.6zm-1.7-.6c-.1-.4-.3-.8-.5-1.1l.4-.2c.2.4.4.8.6 1.1l-.5.2zM159.6 225.8c-.7-.4-1.6-.8-2.7-1.2v3.3h-.5v-5.6h.5v1.8c1 .3 2 .7 3 1.2l-.3.5zM250.3 69.8c-.2.5-.5 1-.9 1.4l-.3-.3c.6-.7 1-1.6 1.3-2.8l.4.2c-.2.6-.4 1.1-.5 1.5zM253 71c-.3-1-.8-1.9-1.3-2.8l.3-.2c.6.9 1.1 1.9 1.5 2.8l-.5.2zM251.8 73.8c-.5.4-1.1.8-1.9 1.1l-.2-.4c1.3-.4 2.5-1.3 3.4-2.5l.3.3c-.6.7-1.1 1.2-1.6 1.5zm-1-1.5c-.4-.3-.7-.6-1.1-.8l.2-.3c.4.2.8.5 1.1.8l-.2.3zM252.8 77.3c0 .5-.1.9-.1 1.2 0 .1-.1.2-.2.3-.1.1-.4.1-.8.2 0-.1-.1-.2-.1-.4h.4c.1 0 .3-.1.3-.2.1-.1.1-.4.1-.8v-1.1h-1.2c-.1.6-.3 1.2-.5 1.6-.3.4-.7.8-1.2 1.1l-.3-.3c.5-.3.9-.6 1.1-.9.3-.4.4-.8.5-1.4h-1.2v-.4h1.3v-1h.4v1h1.6l-.1 1.1zm0-1.4-.5-.5.2-.2c.2.2.4.3.6.5l-.3.2zm.3-.4-.5-.5.2-.2c.2.2.4.3.6.5l-.3.2zM251.1 82.9v-3.8h.3v3.8h-.3zM250.3 85c-.2.5-.5 1-.9 1.4l-.3-.3c.6-.7 1-1.6 1.3-2.8l.4.2c-.2.6-.4 1.1-.5 1.5zm2.7 1.2c-.3-1-.8-1.9-1.3-2.8l.3-.2c.6.9 1.1 1.9 1.5 2.8l-.5.2zm.3-2.7c-.1.1-.2.2-.3.2-.1 0-.3 0-.3-.1-.1-.1-.1-.2-.1-.3 0-.1 0-.3.1-.3.1-.1.2-.1.3-.1.1 0 .2 0 .3.1.1.1.1.2.1.3s0 .1-.1.2zm-.2-.5s-.1-.1-.2-.1c-.2 0-.3.1-.3.3 0 .1 0 .1.1.2 0 .1.1.1.2.1s.1 0 .2-.1c0 0 .1-.1.1-.2s0-.1-.1-.2zM251.7 87.7v2.7h-.4V88c-.6.5-1.2.9-1.8 1.1-.1-.1-.1-.3-.2-.4.6-.2 1.2-.6 1.8-1.1.5-.4 1-.9 1.5-1.4l.4.3c-.6.6-1 .9-1.3 1.2zM252 93.5c-.4.5-1 .9-1.9 1.2 0-.1-.1-.2-.2-.4.7-.2 1.3-.6 1.7-1 .4-.4.7-1 1-1.8h-3v-.4h3.2l.3.3c-.4.9-.8 1.6-1.1 2.1zm1.6-2.4c-.1.1-.2.2-.3.2-.1 0-.3 0-.3-.1-.1-.1-.1-.2-.1-.3 0-.1 0-.3.1-.3.1-.1.2-.1.3-.1.1 0 .2 0 .3.1.1.1.1.2.1.3 0 0 0 .1-.1.2zm-.2-.5s-.1-.1-.2-.1c-.2 0-.3.1-.3.3 0 .1 0 .1.1.2 0 .1.1.1.2.1s.1 0 .2-.1c0 0 .1-.1.1-.2s0-.2-.1-.2zM158.6 296.4l-2.1 4.3-1-.6 2.3-4.2c.3.3.6.4.8.5zm-.4-3.4-.4.8c-.6-.4-1.2-.7-2-1.1l.4-.8c.7.3 1.4.7 2 1.1zm.7-3.2-.6.8c-.6-.5-1.2-1-1.9-1.4l.6-.7c.7.4 1.4.8 1.9 1.3zm7.5-1.1-1.1 2h2.8v.9h-4v1.9h3.1v.9h-3.1v2.2h4v.9h-4v3.5h-.9v-3.5h-4.1v-.9h4.1v-2.2h-3.3v-.9h3.3v-1.9h-3.8v-.9h4.9l1.3-2.5.8.5zm-3.9 1.3-.8.6c-.3-.6-.7-1.2-1.2-1.7l.8-.6c.5.6 1 1.2 1.2 1.7zM175.8 297v-1.2h1v1.2h4.4v.8h-4.4v1.5h5.7v.8H170v-.8h5.8v-1.5h-4.3v-.8h4.3zm1.1-9v1.4h5.1v2.7h-1v.4h-5.3l-1.1 2.1c1.5-.1 2.9-.2 4.5-.3-.3-.3-.6-.5-1-.8l.7-.7c1.3 1 2.2 1.7 2.7 2.3l-.7.7-.8-.8c-3.3.3-6.1.5-8.5.6l-.2-.9c.7 0 1.4 0 2.2-.1l1.2-2.1h-3v-.4h-.9v-2.7h5.1V288h1zm4.1 3.7v-1.3h-9.3v1.3h9.3zM184.4 299.3c.1-1.5.8-2.8 2.3-3.9 1.5-1.2 2.2-2.1 2.2-2.7 0-.5-.1-.9-.4-1.2-.3-.3-.7-.5-1.2-.5-.7 0-1.1.2-1.5.6-.3.3-.5.8-.5 1.5h-1c.2-1.9 1.3-2.8 3.1-2.8.8 0 1.4.2 1.9.7.5.5.7 1.1.7 1.8 0 .9-.7 1.9-2.2 3.1-1.2 1-1.9 1.9-2.2 2.7h4.5v.9h-5.7zM154.5 319.4c-.7-.7-1.2-1.3-1.6-1.9-.4-.8-.6-1.6-.6-2.5s.2-1.7.6-2.5c.3-.6.9-1.2 1.6-1.9l.5.5c-.7.6-1.2 1.2-1.5 1.8-.4.7-.6 1.4-.6 2.2 0 .8.2 1.5.6 2.2.3.5.8 1.1 1.5 1.8l-.5.3zM158.6 310.7l-1 1.9c.2.2.4.3.6.5l.9-1.6.6.4-1.7 2.7c.4 0 .9 0 1.4-.1-.1-.3-.3-.5-.4-.8l.5-.3c.4.6.6 1.1.8 1.5l-.5.4c0-.1-.1-.2-.1-.3-.4 0-.8.1-1.1.1v4h-.7v-3.9c-.5 0-1 .1-1.5.1l-.2-.6h1l.6-1c-.5-.4-1-.8-1.6-1.1l.4-.5c.1.1.3.2.4.3l.9-1.9.7.2zm-1.1 5.2c-.2.9-.4 1.7-.6 2.4-.2-.1-.4-.2-.6-.2.2-.7.4-1.5.6-2.3l.6.1zm2.6 1.7-.6.2c-.1-.6-.2-1.2-.4-1.8l.6-.2c.1.6.3 1.2.4 1.8zm1.8-7.1c-.2.7-.3 1.3-.4 1.7h3.1v3.8c0 1-.1 1.7-.2 2-.1.6-.8.9-2 .9 0-.3-.1-.6-.3-.8h1.1c.3 0 .5-.2.6-.5.1-.3.1-.9.2-1.9v-3h-2.6c-.2.6-.4 1.1-.6 1.5-.2-.2-.4-.3-.6-.4.3-.6.5-1.2.7-1.9.2-.6.3-1.2.4-1.8l.6.4zm1 5.3-.5.5c-.3-.5-.8-1.1-1.3-1.7l.5-.4c.4.5.9 1.1 1.3 1.6zM169.9 316.6v1.4h-.6v-1.4h-3v-.6l3-4.1h.5v4.2h.8v.6h-.7zm-.5-3.7-2.3 3.1h2.3v-3.1zM172.9 318.2h-.7l-.2-.2v-.6l.1-.1h.7l.1.1v.8zM178.1 317c-.4.7-.9 1.1-1.7 1.1-.9 0-1.5-.4-1.8-1.3h.9c.2.6.6.8 1 .8.8 0 1.3-.9 1.4-2.6-.5.5-1 .7-1.5.7s-1-.2-1.3-.6c-.3-.4-.5-.8-.5-1.3 0-.7.2-1.2.5-1.6.4-.4.9-.6 1.5-.6 1.3 0 2 1 2 3.1-.1 1.1-.2 1.8-.5 2.3zm-1.5-4.8c-.5 0-.8.2-1 .5-.2.3-.3.7-.3 1.2 0 .9.4 1.3 1.2 1.3.5 0 1-.3 1.3-.9-.1-1.3-.5-2.1-1.2-2.1zM181.7 312v-1.7h.7v1.7h1.4v4.5c0 .2 0 .3-.1.4-.1.1-.4.2-.8.2 0-.3-.1-.5-.2-.7h.3c.1 0 .2 0 .2-.1v-3.7h-.7v6.5h-.7v-6.5h-.7v4.5h-.6V312h1.2zm4.9-1.6v1.8h2.1v.6h-2.1v2h1.7v4.2h-.6v-.5H185v.6h-.6v-4.3h1.6v-4.4h.6zm1 7.5v-2.5H185v2.5h2.6zM192.2 317.5c-.3.6-.9 1.2-1.6 1.9l-.5-.4c.7-.6 1.1-1.2 1.5-1.8.4-.7.6-1.4.6-2.2 0-.8-.2-1.5-.6-2.2-.3-.5-.8-1.1-1.5-1.8l.5-.5c.7.7 1.2 1.3 1.6 1.9.4.8.6 1.6.6 2.5s-.2 1.8-.6 2.6zM448.3 298.1l-2.1 4.3-1-.6 2.3-4.2c.3.2.6.4.8.5zm-.4-3.4-.4.8c-.6-.4-1.2-.7-2-1.1l.4-.8c.8.3 1.4.7 2 1.1zm.8-3.2-.6.8c-.6-.5-1.2-1-1.9-1.4l.6-.7c.6.3 1.3.8 1.9 1.3zm7.5-1.2-1.1 2h2.8v.9h-4v1.9h3.1v.9h-3.1v2.2h4v.9h-4v3.5h-.9v-3.5h-4.1v-.9h4.1V296h-3.3v-.9h3.3v-1.9h-3.8v-.9h4.9l1.3-2.5.8.5zm-3.9 1.3-.8.6c-.3-.6-.7-1.2-1.2-1.7l.8-.6c.5.7.9 1.3 1.2 1.7zM465.6 298.7v-1.2h1v1.2h4.4v.8h-4.4v1.5h5.7v.8h-12.5v-.8h5.8v-1.5h-4.3v-.8h4.3zm1-9v1.4h5.1v2.7h-1v.4h-5.3l-1.1 2.1c1.5-.1 2.9-.2 4.5-.3-.3-.3-.6-.5-1-.8l.7-.7c1.3 1 2.2 1.7 2.7 2.3l-.7.7-.8-.8c-3.3.3-6.1.5-8.5.6l-.2-.9c.7 0 1.4 0 2.2-.1l1.2-2.1h-3v-.4h-.9v-2.7h5.1v-1.4h1zm4.1 3.7v-1.3h-9.3v1.3h9.3zM477.3 301v-8c-.7.4-1.3.6-1.9.8v-1c.7-.1 1.4-.4 1.9-.8h1v9h-1zM444.2 321.1c-.7-.7-1.2-1.3-1.6-1.9-.4-.8-.6-1.6-.6-2.5s.2-1.7.6-2.5c.3-.6.9-1.2 1.6-1.9l.5.5c-.7.6-1.2 1.2-1.5 1.8-.4.7-.6 1.4-.6 2.2 0 .8.2 1.5.6 2.2.3.5.8 1.1 1.5 1.8l-.5.3zM448.4 312.3l-1 1.9c.2.2.4.3.6.5l.9-1.6.6.4-1.7 2.7c.4 0 .9 0 1.4-.1-.1-.3-.3-.5-.4-.8l.5-.3c.4.6.6 1.1.8 1.5l-.5.4c0-.1-.1-.2-.1-.3-.4 0-.8.1-1.1.1v4h-.7v-3.9c-.5 0-1 .1-1.5.1l-.2-.6h1l.6-1c-.5-.4-1-.8-1.6-1.1l.4-.5c.1.1.3.2.4.3l.9-1.9.7.2zm-1.2 5.3c-.2.9-.4 1.7-.6 2.4-.2-.1-.4-.2-.6-.2.2-.7.4-1.5.6-2.3l.6.1zm2.6 1.7-.6.2c-.1-.6-.2-1.2-.4-1.8l.6-.2c.1.6.3 1.2.4 1.8zm1.9-7.1c-.2.7-.3 1.3-.4 1.7h3.1v3.8c0 1-.1 1.7-.2 2-.1.6-.8.9-2 .9 0-.3-.1-.6-.3-.8h1.1c.3 0 .5-.2.6-.5.1-.3.1-.9.2-1.9v-3H451c-.2.6-.4 1.1-.6 1.5-.2-.2-.4-.3-.6-.4.3-.6.5-1.2.7-1.9.2-.6.3-1.2.4-1.8l.8.4zm.9 5.3-.5.5c-.3-.5-.8-1.1-1.3-1.7l.5-.4c.5.5.9 1.1 1.3 1.6zM459.8 319.3c-.4.4-.9.6-1.4.6-1.1 0-1.8-.5-2.1-1.6h.8c.2.7.7 1.1 1.3 1.1.4 0 .7-.1.9-.5.3-.3.4-.6.4-1s-.1-.7-.4-1c-.3-.3-.6-.5-1-.5-.5 0-.9.2-1.2.6l-.7-.2.3-3.2h3.2v.6h-2.6l-.2 2.1c.4-.3.9-.4 1.4-.4s1 .2 1.3.6c.3.4.5.9.5 1.4.1.5-.1 1-.5 1.4zM462.7 319.8h-.7l-.1-.1v-.6l.1-.1h.7l.1.1v.6l-.1.1zM464.4 319.7c.1-1 .6-1.9 1.5-2.7 1-.8 1.5-1.4 1.5-1.9 0-.3-.1-.6-.3-.8-.2-.2-.5-.4-.8-.4-.5 0-.8.1-1 .4-.2.2-.3.6-.4 1h-.7c.2-1.3.9-1.9 2.1-1.9.5 0 1 .2 1.3.5.3.3.5.7.5 1.2 0 .6-.5 1.3-1.5 2.1-.8.7-1.3 1.3-1.5 1.8h3.1v.6h-3.8zM471.4 313.7V312h.7v1.7h1.4v4.5c0 .2 0 .3-.1.4-.1.1-.4.2-.8.2 0-.3-.1-.5-.2-.7h.3c.1 0 .2 0 .2-.1v-3.7h-.7v6.5h-.7v-6.5h-.7v4.5h-.8v-5.1h1.4zm4.9-1.7v1.8h2.1v.6h-2.1v2h1.7v4.2h-.6v-.5h-2.7v.6h-.6v-4.3h1.6V312h.6zm1.1 7.5V317h-2.7v2.5h2.7zM481.9 319.2c-.3.6-.9 1.2-1.6 1.9l-.5-.4c.7-.6 1.1-1.2 1.5-1.8.4-.7.6-1.4.6-2.2 0-.8-.2-1.5-.6-2.2-.3-.5-.8-1.1-1.5-1.8l.5-.5c.7.7 1.2 1.3 1.6 1.9.4.8.6 1.6.6 2.5s-.1 1.8-.6 2.6zM305.1 279.4v-10.5h1.2v9.5h6.5v1h-7.7zM321.8 278c-1.1.9-2.5 1.3-4.3 1.3h-3v-10.5h3.5c1.6 0 2.9.5 4 1.4 1 1 1.6 2.2 1.6 3.8-.1 1.8-.7 3.1-1.8 4zm-.8-7.1c-.8-.7-1.9-1-3.3-1h-2.1v8.5h2.3c1.3 0 2.3-.4 3.1-1.2.8-.8 1.2-1.8 1.2-3.1 0-1.4-.4-2.5-1.2-3.2zM332.5 279.4l-4-5.9-2.3 1.9v4h-1.1v-10.5h1.1v5.2l6-5.2h1.6l-4.5 3.9 4.8 6.6h-1.6zM298.4 304.6c-.7-.7-1.2-1.3-1.6-1.9-.4-.8-.6-1.6-.6-2.5 0-.9.2-1.7.6-2.5.3-.6.9-1.2 1.6-1.9l.5.5c-.7.6-1.2 1.2-1.5 1.8-.4.7-.6 1.4-.6 2.2 0 .8.2 1.5.6 2.2.3.5.8 1.1 1.5 1.8l-.5.3zM302.6 295.9l-1 1.9c.2.2.4.3.6.5l.9-1.6.6.4-1.7 2.7c.4 0 .9 0 1.4-.1-.1-.3-.3-.5-.4-.8l.5-.3c.4.6.6 1.1.8 1.5l-.5.4c0-.1-.1-.2-.1-.3-.4 0-.8.1-1.1.1v4h-.7v-3.9c-.5 0-1 .1-1.5.1l-.2-.6h1l.6-1c-.5-.4-1-.8-1.6-1.1l.4-.5c.1.1.3.2.4.3l.9-1.9.7.2zm-1.2 5.2c-.2.9-.4 1.7-.6 2.4-.2-.1-.4-.2-.6-.2.2-.7.4-1.5.6-2.3l.6.1zm2.6 1.7-.6.2c-.1-.6-.2-1.2-.4-1.8l.6-.2c.2.6.3 1.2.4 1.8zm1.9-7.1c-.2.7-.3 1.3-.4 1.7h3.1v3.8c0 1-.1 1.7-.2 2-.1.6-.8.9-2 .9 0-.3-.1-.6-.3-.8h1.1c.3 0 .5-.2.6-.5.1-.3.1-.9.2-1.9v-3h-2.6c-.2.6-.4 1.1-.6 1.5-.2-.2-.4-.3-.6-.4.3-.6.5-1.2.7-1.9.2-.6.3-1.2.4-1.8l.6.4zm.9 5.3-.5.5c-.3-.5-.8-1.1-1.3-1.7l.5-.4c.5.6 1 1.1 1.3 1.6zM312.8 303.2v-5.4c-.5.3-.9.4-1.3.5v-.7c.5-.1.9-.2 1.3-.5h.7v6.1h-.7zM316.1 303.2c.1-1 .6-1.9 1.5-2.7 1-.8 1.5-1.4 1.5-1.9 0-.3-.1-.6-.3-.8-.2-.2-.5-.4-.8-.4-.5 0-.8.1-1 .4-.2.2-.3.6-.4 1h-.6c.2-1.3.9-1.9 2.1-1.9.5 0 1 .2 1.3.5.3.3.5.7.5 1.2 0 .6-.5 1.3-1.5 2.1-.8.7-1.3 1.3-1.5 1.8h3.1v.6h-3.9zM322.3 303.4h-.7l-.1-.1v-.6l.1-.1h.7l.1.1v.6l-.1.1zM326.3 300.4c-.3.8-.5 1.8-.5 2.9h-.7c0-1.1.1-2.1.4-2.8.3-.8.8-1.7 1.6-2.7H324v-.6h3.9v.8c-.7.7-1.2 1.6-1.6 2.4zM331.1 297.2v-1.7h.7v1.7h1.4v4.5c0 .2 0 .3-.1.4-.1.1-.4.2-.8.2 0-.3-.1-.5-.2-.7h.3c.1 0 .2 0 .2-.1v-3.7h-.7v6.5h-.7v-6.5h-.7v4.5h-.6v-5.1h1.2zm4.9-1.6v1.8h2.1v.6H336v2h1.7v4.2h-.7v-.5h-2.7v.6h-.6V300h1.6v-4.4h.7zm1 7.5v-2.5h-2.7v2.5h2.7zM341.6 302.7c-.3.6-.9 1.2-1.6 1.9l-.5-.4c.7-.6 1.1-1.2 1.5-1.8.4-.7.6-1.4.6-2.2 0-.8-.2-1.5-.6-2.2-.3-.5-.8-1.1-1.5-1.8l.5-.5c.7.7 1.2 1.3 1.6 1.9.4.8.6 1.6.6 2.5 0 1-.2 1.9-.6 2.6zM313.2 114.8l-.1.1c.5.5 1 .8 1.6 1.1.6.3 1.2.6 1.9.8-.1.1-.2.2-.4.5-.6-.2-1.3-.5-1.8-.9-.5-.3-1.1-.7-1.6-1.2-.4.4-.9.8-1.4 1.1-.7.5-1.3.8-1.7 1-.1-.2-.3-.3-.4-.4.7-.3 1.3-.6 1.8-1 .6-.4 1.1-.9 1.6-1.4l.5.3zm-.2 1.3v.8h1.9v2.8h-2.1c.2.3.5.6.9.9.7-.3 1.3-.7 1.7-1l.4.5c-.5.3-1.1.6-1.6.8.6.3 1.3.5 2.1.6-.1.2-.2.4-.3.5-1-.2-1.9-.5-2.5-1-.6-.4-1-.8-1.3-1.4h-1.1v1.4c.5-.1 1.1-.1 1.7-.2v.5c-1.2.2-2.3.3-3.4.5l-.1-.6c.4 0 .9-.1 1.3-.2v-4.3h1.9v-.8h.5zm1.4 1.9v-.6h-3.3v.6h3.3zm0 1.2v-.7h-3.3v.7h3.3zM320.2 117.5c.2-.2.4-.5.6-.7l.6.2c-.1.2-.3.4-.4.5h3.6v.5h-2.3c.3.2.5.5.8.7.4.3 1 .5 1.7.7-.2.2-.4.4-.4.5-.2-.1-.3-.1-.5-.2v2.2h-.5v-.4h-1.3v.4h-.5v-2.4h1.8c-.3-.1-.5-.3-.7-.4-.4-.3-.8-.6-1-1h-1.1c-.3.3-.5.5-.8.7-.3.3-.7.5-1.1.7h1.8v2.5h-.5v-.4h-1.3v.4h-.5v-2.2c-.2.1-.4.2-.5.3-.1-.2-.2-.3-.4-.5.8-.3 1.5-.7 2.1-1.1.2-.1.3-.3.5-.4h-2.3v-.5h2.6zm-2.1-.7v-2h2.3v2h-2.3zm.5-.5h1.2v-1h-1.2v1zm1.3 4.7v-1.1h-1.3v1.1h1.3zm1.7-4.2v-2h2.4v2h-2.4zm.5-.5h1.3v-1h-1.3v1zm1.3 4.7v-1.1h-1.3v1.1h1.3zM326.6 116.4v-1.8h.5v1.8h.9v.5h-1v.7l.4.4c.1.1.3.2.5.4-.1.2-.2.3-.3.5-.2-.2-.4-.3-.5-.4 0 0-.1 0-.1-.1v3.7h-.5v-3.7c-.1.3-.2.5-.3.8-.2.4-.4.7-.5.8-.1-.2-.2-.4-.3-.5.3-.4.5-.7.7-1.1.2-.3.3-.7.5-1.3h-.9v-.5h.9zm3.4-1.4v6.1c0 .2 0 .3-.1.4-.1.1-.4.2-.8.2 0-.2-.1-.4-.2-.5h.4c.1 0 .2 0 .2-.1v-1.8h-.8c0 .3-.1.5-.1.8-.1.7-.3 1.3-.6 1.8-.1-.2-.2-.4-.4-.5.3-.5.5-1 .6-1.6.1-.5.1-1.2.1-1.9V115h1.7zm-.5 3.7v-1.3h-.8v1.4h.8zm0-1.8v-1.4h-.8v1.4h.8zm3-1.9v6.3c0 .2 0 .3-.1.4-.1.1-.4.1-.9.2 0-.2-.1-.4-.2-.5h.4c.2 0 .2 0 .2-.1v-2h-.9c0 .4-.1.7-.1 1-.1.7-.3 1.2-.5 1.7-.1-.2-.2-.4-.4-.5.2-.4.3-1 .4-1.5 0-.5.1-1.1.1-1.8V115h2zm-.5 3.7v-1.3h-.9v1.4h.9zm0-1.8v-1.4h-.9v1.4h.9zM377.8 198.7v-1.8h.5v1.8h.9v.5h-.9v.7l.4.4c.1.1.3.2.5.4-.1.2-.2.3-.3.5-.2-.2-.4-.3-.5-.4 0 0-.1 0-.1-.1v3.7h-.5v-3.7c-.1.3-.2.5-.3.8-.2.4-.4.7-.5.8-.1-.2-.2-.4-.3-.5.3-.4.5-.7.7-1.1.2-.3.3-.7.5-1.3h-.9v-.5h.8zm3.4-1.5v6.1c0 .2 0 .3-.1.4-.1.1-.4.2-.8.2 0-.2-.1-.4-.2-.5h.4c.1 0 .2 0 .2-.1v-1.8h-.8c0 .3-.1.5-.1.8-.1.7-.3 1.3-.6 1.8-.1-.2-.2-.4-.4-.5.3-.5.5-1 .6-1.6.1-.5.1-1.2.1-1.9v-2.8h1.7zm-.5 3.8v-1.3h-.8v1.4h.8zm0-1.9v-1.4h-.8v1.4h.8zm3-1.9v6.3c0 .2 0 .3-.1.4-.1.1-.4.1-.9.2 0-.2-.1-.4-.2-.5h.4c.2 0 .2 0 .2-.1v-2h-.9c0 .4-.1.7-.1 1-.1.7-.3 1.2-.5 1.7-.1-.2-.2-.4-.4-.5.2-.4.3-1 .4-1.5 0-.5.1-1.1.1-1.8v-3.1h2zm-.5 3.8v-1.3h-.9v1.4h.9zm0-1.9v-1.4h-.9v1.4h.9zM305.4 76.8V75h.5v1.8h.9v.5h-.9v.7l.4.4c.1.1.3.2.5.4-.1.2-.2.3-.3.5-.2-.2-.4-.3-.5-.4 0 0-.1 0-.1-.1v3.7h-.5v-3.7c-.1.3-.2.5-.3.8-.2.4-.4.7-.5.8-.1-.2-.2-.4-.3-.5.3-.4.5-.7.7-1.1.2-.3.3-.7.5-1.3h-.9V77h.8zm3.4-1.4v6.1c0 .2 0 .3-.1.4-.1.1-.4.2-.8.2 0-.2-.1-.4-.2-.5h.4c.1 0 .2 0 .2-.1v-1.8h-.8c0 .3-.1.5-.1.8-.1.7-.3 1.3-.6 1.8-.1-.2-.2-.4-.4-.5.3-.5.5-1 .6-1.6.1-.5.1-1.2.1-1.9v-2.8h1.7zm-.5 3.7v-1.3h-.8v1.4h.8zm0-1.8v-1.4h-.8v1.4h.8zm3.1-1.9v6.3c0 .2 0 .3-.1.4-.1.1-.4.1-.9.2 0-.2-.1-.4-.2-.5h.4c.2 0 .2 0 .2-.1v-2h-.8c0 .4-.1.7-.1 1-.1.7-.3 1.2-.5 1.7-.1-.2-.2-.4-.4-.5.2-.4.3-1 .4-1.5 0-.5.1-1.1.1-1.8v-3.1h1.9zm-.5 3.7v-1.3h-.9v1.4h.9zm0-1.8v-1.4h-.9v1.4h.9zM362.6 108.5l-1.1 2.6-.5-.3 1.2-2.6c.1.1.2.2.4.3zm-.1-2.9-.4.5c-.3-.3-.6-.5-1.1-.7l.3-.5c.5.2.9.4 1.2.7zm3.1-1.1c0 .1-.1.1-.1.1.4.6.8 1 1.2 1.4.4.4.9.8 1.5 1.1-.2.2-.3.3-.4.5-.4-.2-.8-.5-1.2-.9-.5-.4-.9-.9-1.4-1.6-.3.5-.6.9-1 1.3-.5.5-1 1-1.5 1.3-.1-.2-.2-.3-.3-.5.5-.3.9-.6 1.4-1.1.5-.5.9-1.1 1.3-1.8l.5.2zm1.7 3.9v2c0 .3-.1.4-.2.5-.1.1-.4.1-.9.2 0-.2-.1-.4-.2-.6h.7c.1 0 .1 0 .1-.2v-1.5H365v2.9h-.6v-2.9h-1.5v-.5h4.4zm-.8-1.4v.5H364v-.5h2.5zM371.2 104.9v-.5h.5v.5h1.9v-.5h.5v.5h2v.4h-2v.6h.3v.6h1.8v.5h-1.8c0 .8 0 1.4.1 1.7 0 .3.1.6.1.8.3-.4.6-1 .9-1.7l.5.2c-.4.8-.8 1.5-1.2 2.1.1.2.1.3.2.4.2.3.3.4.4.4.1 0 .3-.2.5-.7.1.1.3.2.4.2-.2.5-.3.9-.5 1-.1.1-.2.2-.3.2-.3 0-.5-.1-.7-.4-.2-.2-.4-.4-.5-.7-.5.5-1.1.9-1.6 1.1-.1-.2-.2-.3-.4-.4.3-.1.6-.3.8-.5.3-.2.6-.5.9-.7l-.3-1.2c-.1-.4-.1-1-.1-1.8H370v1c0 .8-.1 1.5-.2 1.9-.1.5-.4 1.1-.7 1.6-.1-.1-.3-.3-.5-.3.3-.4.5-.9.7-1.4.1-.4.2-.9.2-1.7v-1.4h4.1v-.6h-.3v-.6h-1.9v.6h-.5v-.6h-2v-.4h2.3zm2.2 3h-1v.5h1v1.3h-1v.6h1v.4h-2.1v.4h-.5v-3.6h2.6v.4zm-1.4.6v-.5h-.7v.5h.7zm1 .9v-.6h-1.7v.6h1.7zm-1 1v-.6h-.7v.6h.7zm3.9-4.2-.3.3c-.2-.2-.5-.5-.8-.7l.3-.3c.4.4.6.6.8.7zM381.3 104.3v.7h3v.5h-5.9v2.7c0 .8 0 1.5-.1 1.9-.1.5-.3 1-.6 1.6-.1-.2-.3-.3-.5-.4.3-.4.5-.9.6-1.4.1-.3.1-.9.1-1.7V105h2.9v-.7h.5zm0 2v-.6h.5v.6h2.3v.5h-2.3v.5h1.9v2.4h-1.9v.6h2.8v.5h-2.8v1h-.5v-1h-2.7v-.5h2.7v-.6h-1.9v-2.4h1.9v-.5H379v-.5h2.3zm-1.4 2h1.3v-.5h-1.3v.5zm1.4.4H380v.5h1.3v-.5zm.5-.4h1.4v-.5h-1.4v.5zm0 .4v.5h1.4v-.5h-1.4zM368.9 116.1v.6h3.3v.4h-3.3v.5h2.1v2.7h-4.2v-2.7h1.5v-.5h-3.5v-.4h3.5v-.6h-2.8v-1.7h6v1.7h-2.6zm-2.9 1.7v3h6.2v.5H366v.4h-.5v-3.8h.5zm.1-2.1h1.3v-.8h-1.3v.8zm1.3 2.7h3.1v-.4h-3.1v.4zm0 .4v.4h3.1v-.4h-3.1zm0 .7v.4h3.1v-.4h-3.1zm.5-3.8h1.4v-.8h-1.4v.8zm1.9 0h1.3v-.8h-1.3v.8zM374 116.4v-2h.5v2h.8v.5h-.8v2.4l.9-.3v.4c.3-.2.5-.4.7-.6.2-.2.4-.5.5-.8h-1.2v-.5h5.2v.5h-3.3c-.1.2-.2.4-.4.6h3.3c0 1 0 1.7-.1 2.1-.1.4-.2.6-.3.7-.1.1-.5.2-1 .2 0-.2-.1-.4-.2-.5h.7c.1 0 .2-.1.3-.4.1-.3.1-.8.1-1.5h-.5c-.3.7-.6 1.2-1 1.6-.4.4-.8.7-1.2.9-.1-.1-.2-.3-.4-.4.5-.2.9-.5 1.2-.9.3-.3.5-.7.8-1.2h-.7c-.2.5-.5.8-.8 1.1-.4.3-.7.5-1.1.7-.1-.1-.2-.3-.4-.4.4-.2.7-.4 1-.7.2-.2.4-.4.6-.8h-.7c-.3.3-.6.6-1.1.9-.1-.1-.2-.3-.3-.4-.7.2-1.3.4-1.9.6l-.1-.6c.3-.1.6-.2 1-.3v-2.6h-.8v-.5h.7zm2.3.6v-2.6h3.5v2.6h-3.5zm.6-1.6h2.4v-.5h-2.4v.5zm0 .5v.5h2.4v-.5h-2.4zM121 188.1l-.9 1.8-.4-.2 1-1.8c.1.1.2.2.3.2zm-.2-1.2-.2.3c-.2-.2-.5-.4-.8-.5l.2-.3c.3.1.6.3.8.5zm.3-1.3-.2.3c-.2-.3-.5-.5-.7-.6l.2-.3c.2.1.5.3.7.6zm1.1-.4c-.1.3-.2.5-.3.7h.8v-1h.4v1h1.4v.3h-1.4v1h1.7v.3h-1.2v1.8c0 .1 0 .1.1.1h.6c.1 0 .2-.1.2-.1.1-.1.1-.2.1-.4.1.1.2.1.4.1 0 .2-.1.4-.2.6-.1.2-.2.2-.4.2h-.7c-.3 0-.4-.2-.4-.5v-1.8h-.8c0 .7-.1 1.2-.3 1.5-.2.3-.6.6-1.1.8-.1-.1-.1-.3-.2-.4.5-.2.9-.5 1-.8.1-.3.2-.6.2-1.1H121v-.3h1.7v-1h-1c-.1.3-.3.5-.4.7-.1-.1-.2-.2-.3-.2.2-.3.4-.5.5-.8.1-.3.2-.5.3-.8l.4.1zM126.5 186.7l-.2.3c-.2-.1-.5-.2-.7-.3l.1-.3c.3.1.5.2.8.3zm.2 1.5-.8 1.8-.3-.2.8-1.8c.1.1.2.1.3.2zm0-2.7-.2.3c-.2-.2-.4-.4-.6-.5l.2-.3c.2.2.4.3.6.5zm1.3 1.5c-.1.1-.1.2-.2.3h1c.1-.1.2-.3.3-.5l.3.1c-.1.1-.1.3-.2.4h1.3v.3h-1.4v.4h1.3v.3h-1.3v.4h1.3v.3h-1.3v.5h1.5v.3h-2.9v.2h-.4v-2.1l-.4.4c-.1-.1-.1-.2-.2-.3.2-.1.4-.3.6-.5.2-.2.3-.4.5-.7l.2.2zm.5-1.9v1.8h-.4v-.1H127v-.3h1.1v-.5H127v-.3h1.1v-.4H127v-.3h1.5zm.2 2.5h-1.1v.4h1.1v-.4zm0 .7h-1.1v.4h1.1v-.4zm0 1.2v-.5h-1.1v.5h1.1zm1.7-4.4v1.8h-.4v-.1h-1.2v-.3h1.2v-.5h-1.2v-.3h1.2v-.4h-1.2v-.3h1.6zM132 186v-1.2h.4v1.2h.5v.4h-.5v.6c.1.1.1.2.2.2l.3.3c-.1.1-.2.2-.2.3l-.3-.3v2.5h-.4v-2.4c-.1.4-.3.7-.5 1-.1-.1-.1-.2-.2-.3.2-.3.3-.6.4-.9.1-.2.2-.5.2-.9h-.6v-.5h.7zm2-.9-.5.9.2.2.3-.5.3.2-.7 1.1h.4c0-.1-.1-.2-.1-.3l.3-.1c.1.2.3.5.4.7-.1-.5-.1-1.3-.1-2.4h.4v1l.2-.2c.1 0 .1.1.2.1l.3-.8.3.2-.4.8.2.2.3-.5.3.2-.7 1.1h.4c0-.1-.1-.2-.1-.2l.3-.1c.1.2.2.5.3.8l-.4.1c0-.1 0-.1-.1-.2-.4.1-.8.1-1.1.1l-.1-.4h.2l.3-.5c-.2-.2-.4-.4-.7-.5 0 .7.1 1.2.1 1.6v.2h.6c0-.1-.1-.2-.1-.3l.3-.1c.1.1.2.3.2.4h.5v.4H135c0 .2.1.4.2.5 0 .1.1.2.2.3.2-.2.4-.4.5-.6l.3.2c-.1.2-.3.4-.6.6.2.2.3.3.4.3 0 0 .1-.1.2-.5.1.1.2.1.4.2-.1.4-.2.6-.3.6 0 .1-.1.1-.2.1-.2 0-.5-.1-.7-.3l-.2-.2c-.4.3-.8.4-1.2.6 0-.1-.1-.2-.2-.4.4-.1.7-.3 1.1-.5h.1c-.1-.1-.1-.2-.2-.4s-.2-.5-.2-.7h-.7c0 .2-.1.3-.1.4.3.1.5.3.7.5l-.2.3c-.2-.2-.4-.3-.6-.4 0 .1-.1.2-.1.3-.1.3-.3.6-.6.9l-.3-.3c.2-.2.4-.5.5-.8.1-.2.2-.5.3-.8h-.6v-.4h1.7V187.5l-.4.1c0-.1 0-.1-.1-.2-.4.1-.8.1-1.1.1l-.1-.4h.2l.3-.5c-.2-.2-.5-.4-.7-.6l.2-.3c.1.1.2.1.2.2l.4-.9.5.1zM125.5 193.1v.4h2.3v.3h-2.3v.4h1.5v1.9h-2.9v-1.9h1.1v-.4h-2.4v-.3h2.4v-.4h-2v-1.2h4.2v1.2h-1.9zm-2.1 1.1v2.1h4.4v.3h-4.4v.3h-.4v-2.7h.4zm.1-1.4h.9v-.6h-.9v.6zm.9 1.9h2.2v-.3h-2.2v.3zm0 .2v.3h2.2v-.3h-2.2zm0 .5v.3h2.2v-.3h-2.2zm.4-2.6h1v-.6h-1v.6zm1.3 0h.9v-.6h-.9v.6zM129 193.2v-1.4h.4v1.4h.6v.4h-.6v1.7c.2-.1.4-.1.6-.2v.3c.2-.1.4-.3.5-.4.1-.2.3-.3.4-.6h-.9v-.4h3.6v.4h-2.3c-.1.2-.2.3-.2.4h2.3c0 .7 0 1.2-.1 1.5-.1.2-.1.4-.2.5-.1.1-.3.1-.7.1 0-.1 0-.3-.1-.4h.5c.1 0 .1-.1.2-.3 0-.2.1-.6.1-1.1h-.4c-.2.5-.4.8-.7 1.1-.3.3-.6.5-.9.6 0-.1-.1-.2-.2-.3l.9-.6c.2-.2.4-.5.5-.9h-.5c-.2.3-.4.6-.6.8-.3.2-.5.4-.7.5 0-.1-.1-.2-.2-.3.3-.1.5-.3.7-.5.1-.1.3-.3.4-.5h-.5c-.2.2-.4.4-.8.6-.1-.1-.1-.2-.2-.3-.5.2-.9.3-1.4.4l-.1-.4c.2 0 .4-.1.7-.2v-1.8h-.6v-.4h.5zm1.7.5v-1.8h2.4v1.8h-2.4zm.4-1.1h1.7v-.4h-1.7v.4zm0 .3v.4h1.7v-.4h-1.7zM137.2 84.1l-2.1 4.4-.9-.5 2.2-4.4c.3.3.6.4.8.5zm-.6-3-.5.8c-.5-.5-1.1-.9-1.8-1.3l.4-.8c.8.4 1.4.8 1.9 1.3zm.7-3.3-.5.8c-.6-.6-1.2-1-1.8-1.4l.5-.7c.7.4 1.3.8 1.8 1.3zm5.1 1.2c-.1.1-.1.2-.2.3.7.8 1.4 1.5 2.1 2 .8.6 1.7 1.1 2.7 1.6-.3.3-.5.6-.7.9-.7-.3-1.4-.8-2.2-1.4-.8-.6-1.6-1.4-2.5-2.3-.5.7-1.1 1.3-1.6 1.9-.9.8-1.6 1.4-2.2 1.8-.2-.3-.4-.6-.6-.8.8-.5 1.6-1.1 2.3-1.9.7-.7 1.4-1.5 2-2.6l.9.5zm-1.4-2.2c-.8 1.1-1.7 1.9-2.8 2.6-.1-.3-.4-.6-.7-.8 1.1-.6 2-1.4 2.7-2.5l.8.7zm3.8 11.5h-.9v-.7h-3.8v.9h-.9v-5.4h5.7v5.2zm-.9-1.6v-2.8h-3.8v2.8h3.8zm.8-9.3c.4.3.9.6 1.4.7-.2.2-.4.5-.6.8-.6-.3-1.1-.6-1.6-1s-.9-.7-1.2-1l.5-.7c.5.5 1 .9 1.5 1.2zM154.1 84.8v-1.2h1v1.2h4.3v.8h-4.3v1.5h5.5v.8h-12.1v-.8h5.7v-1.5H150v-.8h4.1zm1-8.7v1.4h4.9v2.7h-1v.4h-5l-1.1 2c1.4-.1 2.9-.2 4.3-.3-.3-.3-.6-.5-.9-.7l.7-.7c1.2.9 2.1 1.7 2.7 2.2l-.7.7-.8-.8c-3.2.3-6 .5-8.3.6l-.2-.9c.7 0 1.4 0 2.1-.1l1.2-2h-3v-.4h-.9v-2.7h4.9v-1.4h1.1zm4 3.6v-1.3h-9v1.3h9zM136.9 99.1c-.8-.7-1.3-1.4-1.7-2.1-.5-.8-.7-1.7-.7-2.7 0-1 .2-1.9.7-2.7.4-.6.9-1.3 1.7-2.1l.5.5c-.7.7-1.2 1.3-1.6 1.9-.4.7-.6 1.6-.6 2.4 0 .9.2 1.7.6 2.4.3.6.9 1.2 1.6 1.9l-.5.5zM140.5 97.6v-5.9c-.5.3-1 .5-1.4.6v-.8c.5-.1 1-.3 1.4-.6h.8v6.7h-.8zM146.7 97.2c-.5.4-.9.6-1.5.6-1.2 0-2-.6-2.2-1.9h.9c.2.8.6 1.2 1.4 1.2.4 0 .7-.1 1-.4.3-.2.4-.5.4-.9 0-1-.5-1.5-1.6-1.5h-.8v-.6h.5c1.1 0 1.6-.4 1.6-1.3 0-.3-.1-.6-.3-.9s-.5-.4-.8-.4c-.7 0-1.1.4-1.2 1.1h-.8c.2-1.1.8-1.7 2-1.7.5 0 1 .2 1.4.5.4.3.6.7.6 1.3 0 .6-.3 1.1-1 1.5.8.4 1.2 1.1 1.2 1.8-.1.7-.3 1.2-.8 1.6zM150.7 97.6v-5.9c-.5.3-1 .5-1.4.6v-.8c.5-.1 1-.3 1.4-.6h.8v6.7h-.8zM155.9 94.4c-.4.9-.5 2-.5 3.1h-.8c0-1.2.1-2.2.4-3.1.3-.9.9-1.8 1.7-2.9h-3.4v-.7h4.2v.8c-.7 1.1-1.3 2-1.6 2.8zM160.4 97c-.4.7-.9 1.3-1.7 2.1l-.5-.5c.7-.7 1.2-1.3 1.6-1.9.4-.7.6-1.5.6-2.4 0-.9-.2-1.7-.6-2.4-.3-.6-.9-1.2-1.6-1.9l.5-.5c.8.7 1.3 1.4 1.7 2.1.5.8.7 1.7.7 2.7 0 1-.2 1.9-.7 2.7zM304.6 49v-.5h.4v.5h2.5v.4H305v.5h2V52h-.8v.5h1.5v.4h-1.5v1c0 .2-.1.3-.2.3-.2.1-.4.1-.7.1 0-.2-.1-.3-.2-.5h.6c.1 0 .1 0 .1-.1v-.9H302v-.4h3.8V52h-3v-2.1h1.9v-.5h-2.5V49h2.4zm-.5 4.6-.4.3c-.2-.3-.4-.5-.7-.8l.3-.3c.4.3.6.6.8.8zm-1-2.8h1.5v-.5h-1.5v.5zm1.5.3h-1.5v.5h1.5v-.5zm.4-.3h1.5v-.5H305v.5zm0 .3v.5h1.5v-.5H305zM313.7 48.9v4.9c0 .2-.1.4-.2.4-.1.1-.4.1-.7.1 0-.2-.1-.3-.2-.5h.5c.1 0 .1 0 .1-.1v-1.5h-1.7v2.1h-.4v-2.1h-1.5c-.1.9-.3 1.6-.8 2.2-.1-.2-.3-.3-.4-.4.5-.6.8-1.4.8-2.5v-2.7h4.5zm-2.5 2.9v-1h-1.5v1.1h1.5zm0-1.4v-1.1h-1.5v1.1h1.5zm.4 0h1.7v-1.1h-1.7v1.1zm0 1.4h1.7v-1h-1.7v1zM292.5 60c-.7-.4-1.6-.8-2.7-1.2v3.3h-.5v-5.6h.5v1.8c1 .3 2 .7 3 1.2l-.3.5zM296.9 60.9c-.6.5-1.4.9-2.5 1.2 0-.2-.1-.3-.2-.5.9-.2 1.6-.5 2.1-.9.6-.4 1-1.1 1.5-1.9h-4.2v-.5h4.6l.3.3c-.6 1.1-1.1 1.8-1.6 2.3zm-2.7-3.6v-.5h3.5v.5h-3.5zM302.1 60.4c-.7.5-1.5 1-2.5 1.5l-.3-.6c1.8-.6 3.3-1.7 4.6-3.3.1.2.2.3.4.4-.9.9-1.6 1.6-2.2 2zm-1.4-2c-.5-.4-1-.8-1.4-1.1l.3-.4c.5.3 1 .7 1.5 1.1l-.4.4zM308.1 60.5c-.6.7-1.5 1.2-2.5 1.5-.1-.1-.2-.3-.3-.5.9-.2 1.7-.6 2.2-1.2.5-.5 1-1.2 1.4-2.2h-2.1c-.4.7-1 1.3-1.5 1.9-.1-.1-.3-.2-.4-.3.5-.4.9-.9 1.2-1.3.2-.4.5-.9.9-1.6l.5.2c-.1.2-.2.5-.4.8h2.1l.1-.1.3.3c-.5 1-1 1.9-1.5 2.5zM311.9 59.8c-.2.8-.7 1.5-1.4 2.1-.1-.2-.2-.3-.3-.4.5-.4.9-.8 1.1-1.4.2-.4.3-1 .3-1.7v-1.2h.5c0 1.2-.1 2.1-.2 2.6zm1.6 2-.4-.4.1-.1v-4.5h.5V61c.7-.5 1.4-1.2 2-2 .1.1.2.2.4.3-.8 1.1-1.7 1.9-2.6 2.5zM316.6 59.5V59h5.1v.5h-5.1zM327 61.8c-.1-.2-.2-.4-.4-.7-2 .3-3.4.5-4.3.6l-.1-.6h.7c.6-1.2 1.2-2.6 1.7-4.3l.6.2c-.8 1.9-1.4 3.2-1.8 4 .9-.1 1.9-.2 3-.3-.3-.5-.7-1.1-1.1-1.6l.4-.3c.8 1 1.4 1.9 1.8 2.7l-.5.3zM470.5 239c-.2.5-.5 1-.9 1.4l-.3-.3c.6-.7 1-1.6 1.3-2.8l.4.2c-.1.6-.3 1.1-.5 1.5zm2.7 1.2c-.3-1-.8-1.9-1.3-2.8l.3-.2c.6.9 1.1 1.9 1.5 2.8l-.5.2zM476.3 239.6c-.5.4-1.1.8-1.9 1.1l-.2-.4c1.3-.4 2.5-1.3 3.4-2.5l.3.3c-.5.6-1.1 1.1-1.6 1.5zm-1-1.6c-.4-.3-.7-.6-1.1-.8l.2-.3c.4.2.8.5 1.1.8l-.2.3zM482 239c0 .5-.1.9-.1 1.2 0 .1-.1.2-.2.3-.1.1-.4.1-.8.2 0-.1-.1-.2-.1-.4h.4c.1 0 .3-.1.3-.2.1-.1.1-.4.1-.8v-1.1h-1.1c-.1.6-.3 1.2-.5 1.6-.3.4-.7.8-1.2 1.1l-.3-.3c.5-.3.9-.6 1.1-.9.3-.4.4-.8.5-1.4h-1.2v-.4h1.3v-1h.4v1h1.6l-.2 1.1zm0-1.5-.5-.5.2-.2c.2.2.4.3.6.5l-.3.2zm.3-.3-.5-.5.2-.2c.2.2.4.3.6.5l-.3.2zM482.7 238.9v-.3h3.8v.3h-3.8zM488.1 239c-.2.5-.5 1-.9 1.4l-.3-.3c.6-.7 1-1.6 1.3-2.8l.4.2c-.1.6-.3 1.1-.5 1.5zm2.7 1.2c-.3-1-.8-1.9-1.3-2.8l.3-.2c.6.9 1.1 1.9 1.5 2.8l-.5.2zm.3-2.7c-.1.1-.2.2-.3.2-.1 0-.3 0-.3-.1-.1-.1-.1-.2-.1-.3 0-.1 0-.3.1-.3.1-.1.2-.1.3-.1.1 0 .2 0 .3.1.1.1.1.2.1.3.1 0 0 .1-.1.2zm-.1-.5s-.1-.1-.2-.1c-.2 0-.3.1-.3.3 0 .1 0 .1.1.2 0 .1.1.1.2.1s.1 0 .2-.1c0 0 .1-.1.1-.2-.1-.1-.1-.1-.1-.2zM494 238.1v2.7h-.4v-2.4c-.6.5-1.2.9-1.8 1.1-.1-.1-.1-.3-.2-.4.6-.2 1.2-.6 1.8-1.1.5-.4 1-.9 1.5-1.4l.4.3c-.5.5-.9.9-1.3 1.2zM498.3 239.5c-.4.5-1 .9-1.9 1.2 0-.1-.1-.2-.2-.4.7-.2 1.3-.6 1.7-1 .4-.4.7-1 1-1.8h-3v-.4h3.2l.3.3c-.4 1-.8 1.7-1.1 2.1zm1.6-2.4c-.1.1-.2.2-.3.2-.1 0-.3 0-.3-.1-.1-.1-.1-.2-.1-.3 0-.1 0-.3.1-.3.1-.1.2-.1.3-.1.1 0 .2 0 .3.1.1.1.1.2.1.3 0 0 0 .1-.1.2zm-.2-.5s-.1-.1-.2-.1c-.2 0-.3.1-.3.3 0 .1 0 .1.1.2 0 .1.1.1.2.1s.1 0 .2-.1c0 0 .1-.1.1-.2s0-.1-.1-.2zM473.2 229.2c-.6.7-1.5 1.2-2.5 1.5-.1-.1-.2-.3-.3-.5.9-.2 1.7-.6 2.2-1.2.5-.5 1-1.2 1.4-2.2h-2.1c-.4.7-1 1.3-1.5 1.9-.1-.1-.3-.2-.4-.3.5-.4.9-.9 1.2-1.3.2-.4.5-.9.9-1.6l.5.2c-.1.2-.2.5-.4.8h2.1l.1-.1.3.3c-.5 1.1-1 1.9-1.5 2.5zM479 230.3v-.4h-3.3v.4h-.5V226h4.3v4.3h-.5zm0-3.8h-3.3v2.9h3.3v-2.9zM479.9 228.3v-.5h5.1v.5h-5.1zM488.6 228.8l-.3-.4c.5-.5 1-.9 1.4-1.4l-2.4.4v2.1c0 .3.2.4.6.5h1c.6 0 1.1 0 1.5-.1v.5c-.6 0-1.2.1-1.6.1-.6 0-1 0-1.3-.1-.5-.1-.7-.4-.7-.9v-2.1l-1.5.2-.1-.5 1.6-.2v-1.7h.5v1.6l2.6-.4.1-.1.4.4c-.7 1-1.3 1.7-1.8 2.1zm1.6-2.4c-.2-.2-.4-.4-.7-.6l.2-.3c.3.2.6.4.7.6l-.2.3zm.4-.5c-.2-.2-.4-.4-.7-.6l.2-.3c.3.2.6.4.7.6l-.2.3zM491.6 228.6c-.2-.3-.4-.7-.7-1.1l.4-.2c.2.4.5.7.7 1.2l-.4.1zm3 .2c-.3.6-.7 1-1.1 1.4-.4.3-.9.6-1.5.8-.1-.2-.2-.3-.3-.4.6-.2 1-.4 1.4-.6.4-.3.7-.7 1-1.2.2-.4.4-1 .6-1.7l.5.1c-.2.7-.4 1.2-.6 1.6zm-1.7-.6c-.1-.4-.3-.8-.5-1.1l.4-.2c.2.4.4.8.6 1.1l-.5.2zM499.3 228.8c-.7-.4-1.6-.8-2.7-1.2v3.3h-.5v-5.6h.5v1.8c1 .3 2 .7 3 1.2l-.3.5zM215.7 71.9v1.7h4.5v.8h-4.8l-1.7 3.1c.5.4 1 .7 1.5 1.1l2.2-3 .8.5-3.8 4.8c1.2-.1 2.6-.2 4-.4-.4-.5-.8-.9-1.2-1.4l.7-.5c1.1 1.2 1.9 2.2 2.4 2.9l-.7.5-.6-.9c-3.2.4-6 .7-8.2.8l-.2-.8c.9 0 1.8-.1 2.8-.1l1.3-1.7c-1-.9-2.2-1.7-3.6-2.5l.4-.7c.6.3 1.1.6 1.6 1l1.3-2.7h-4v-.8h4.5v-1.7h.8zM226.2 72.3v3.5H223v6.4h-.8v-9.9h4zm-.8 1.4V73H223v.7h2.4zm0 1.4v-.7H223v.7h2.4zm6-2.8v8.9c0 .4-.1.6-.3.7-.2.1-.7.2-1.4.2 0-.3-.1-.6-.3-.9h1c.1 0 .2-.1.2-.2v-5.2h-2.7l.7.3-.7 1.1h1.6v.6h-2.6v.9h3v.7h-2.6c.2.4.4.7.7.9.3.3.7.6 1.4.8-.2.1-.4.3-.5.6-.6-.3-1.1-.7-1.5-1-.3-.3-.5-.6-.7-1.1-.1.2-.2.5-.3.7-.4.6-1.2 1.1-2.2 1.5-.1-.3-.3-.5-.6-.7 1-.3 1.7-.7 2.1-1.3.1-.1.2-.3.3-.5h-2.3v-.7h2.4v-.9H224v-.6h1.3c-.2-.3-.4-.6-.7-.9l.5-.4c.3.3.7.7.9 1l-.4.3h1.4l.7-1.4h-.4v-3.5h4.1zm-.9.7h-2.4v.7h2.4V73zm0 1.3h-2.4v.7h2.4v-.7zM203.4 98c-.4-.4-.7-.8-.8-1.1-.2-.4-.3-.9-.3-1.5 0-.5.1-1 .3-1.5.2-.3.4-.7.8-1.1l.2.3c-.4.4-.6.7-.8 1-.2.4-.3.8-.3 1.3s.1.9.3 1.3c.2.3.4.7.8 1l-.2.3zM206 94.2v-1.5h.4v1.5h2.2v.4h-2c.1.6.3 1.1.7 1.6.4.6.8 1 1.4 1.3-.1.1-.2.2-.3.4-.6-.4-1.1-.9-1.4-1.5-.3-.4-.5-.9-.6-1.4-.1.4-.2.7-.3 1-.3.6-.9 1.3-1.8 2-.1-.2-.2-.3-.3-.4.7-.4 1.3-1 1.6-1.6.2-.4.4-.9.4-1.4h-1.9v-.4h1.9zM210.9 93.3v.4h-.7v1.1h.5v.4h-.5v1.3c.2-.1.4-.1.7-.2v.4c-.6.2-1.1.4-1.6.5l-.1-.4c.2-.1.4-.1.7-.2v-1.4h-.6v-.4h.6v-1.1h-.7v-.4h1.7zm1.5 2.2v.7h1.1v.4h-1.1v.8h1.3v.4h-3.1v-.4h1.5v-.8h-1v-.4h1v-.7h-1V93h2.4v2.6h-1.1zm-1-1.4h.7v-.7h-.7v.7zm.7.3h-.7v.7h.7v-.7zm.3-.3h.7v-.7h-.7v.7zm0 .3v.7h.7v-.7h-.7zM218.8 93.1v.4h-2.3c-.2.7-.5 1.2-.7 1.6h2.6v2.8h-.4v-.4h-2.2v.4h-.4v-2.3c-.2.3-.5.7-.9 1l-.3-.3c.5-.4.9-.8 1.2-1.4.2-.4.4-.9.6-1.5h-1.5V93h4.3zm-.8 4v-1.7h-2.2v1.7h2.2zM221.3 93.8v.3h-1.8v-.3h1.8zm-.2-.7v.3h-1.4v-.3h1.4zm0 1.5v.3h-1.4v-.3h1.4zm0 .7v.3h-1.4v-.3h1.4zm0 .8v1.5H220v.3h-.3v-1.8h1.4zm-.3 1.1v-.8h-.8v.8h.8zm3.1-4.2v4.4c0 .2 0 .3-.1.3s-.2.1-.5.1c0-.1-.1-.3-.1-.4h.3s.1 0 .1-.1v-4.1h-1.8v2.2c0 .9-.1 1.7-.4 2.3-.1-.1-.2-.3-.3-.3.2-.5.4-1.2.4-2V93h2.4zm-1.4 1.1v-.6h.3v.6h.4v.3h-.4v.6h.6v.3H222V95h.5v-.6h-.5v-.3h.5zm.8 1.6V97h-.8v.4h-.3v-1.7h1.1zm-.4 1V96h-.5v.7h.5zM227.2 96.3c-.5.6-1.2 1.1-2.1 1.5 0-.1-.1-.2-.2-.4.8-.3 1.4-.8 2-1.4-.3-.3-.6-.6-.9-.8l.2-.3c.4.3.7.5 1 .8.3-.4.6-.9.8-1.5h-1.6c-.4.7-.9 1.2-1.5 1.6-.1-.1-.1-.3-.3-.4.5-.4.9-.7 1.1-1 .2-.3.5-.8.7-1.4l.4.2-.3.6h1.7l.2.3c-.3.9-.7 1.7-1.2 2.2zM231.7 94.6v3.2h-.4V95c-.7.6-1.3 1-1.9 1.3-.1-.2-.1-.3-.2-.4.6-.3 1.2-.7 1.9-1.2.6-.5 1.1-1.1 1.6-1.7l.4.3c-.6.5-1.1.9-1.4 1.3zM234.8 95.8c-.2.7-.5 1.3-1.1 1.9-.1-.1-.2-.3-.3-.4.4-.3.7-.7.9-1.2.1-.4.2-.9.3-1.5v-1h.4c0 1-.1 1.7-.2 2.2zm1.3 1.7-.3-.3v-4.1h.4v3.7c.5-.4 1.1-1 1.6-1.8l.3.3c-.6 1-1.3 1.7-2 2.2zM239.5 96.8c-.2.4-.4.7-.8 1.1l-.3-.3c.3-.4.6-.7.8-1 .2-.4.3-.8.3-1.3s-.1-.9-.3-1.3c-.2-.3-.4-.7-.8-1l.3-.3c.4.4.6.8.8 1.1.2.4.3.9.3 1.5.1.6-.1 1.1-.3 1.5zM192.1 67.7v1h3.2v.5h-3.4l-1.2 1.9c.4.2.7.5 1 .7l1.6-1.8.6.3-2.7 2.9c.9-.1 1.8-.1 2.9-.2-.3-.3-.6-.6-.9-.8l.5-.3c.8.7 1.3 1.3 1.7 1.8l-.5.3c-.1-.2-.3-.4-.5-.5-2.3.3-4.3.4-5.9.5l-.1-.5c.6 0 1.3 0 2-.1l.9-1.1c-.7-.5-1.6-1-2.6-1.5l.3-.4 1.2.6.9-1.6h-2.9v-.5h3.2v-1h.7zM191.4 74.6v2.1h-2.3v3.9h-.6v-6h2.9zm-.5.8V75h-1.7v.4h1.7zm0 .8v-.4h-1.7v.4h1.7zm4.2-1.6V80c0 .2-.1.4-.2.5-.2.1-.5.1-1 .1 0-.2-.1-.4-.2-.5h.7c.1 0 .1 0 .1-.1v-3.2h-1.9l.5.2-.5.7h1.1v.4h-1.8v.5h2.1v.4h-1.8c.2.2.3.4.5.5.2.2.5.3 1 .5-.1.1-.3.2-.4.4-.4-.2-.8-.4-1-.6-.2-.2-.4-.4-.5-.7-.1.1-.2.3-.2.4-.3.4-.8.7-1.5.9-.1-.2-.2-.3-.4-.4.7-.2 1.2-.4 1.5-.8.1-.1.1-.2.2-.3h-1.6v-.4h1.7V78H190v-.4h.9c-.1-.2-.3-.4-.5-.6l.4-.3c.2.2.5.4.7.6l-.3.2h1l.5-.8h-.3v-2.1h2.7zm-.5.4h-1.7v.4h1.7V75zm0 .8h-1.7v.4h1.7v-.4zM189.2 81.8V85c.3-.1.7-.2 1.1-.3v-3.6h.5v6.1h-.5v-2c-.7.3-1.4.5-2.1.7l-.1-.5c.2 0 .4-.1.6-.1V82h.5zm6.1-.1c-.4 1.4-.9 2.4-1.4 3-.1.1-.2.3-.3.4.5.5 1.1 1 1.9 1.5-.2.1-.3.2-.4.4-.8-.4-1.4-.9-1.9-1.5-.5.5-1.2 1-1.9 1.5-.1-.2-.2-.3-.4-.4.8-.4 1.4-.9 2-1.5-.1-.1-.2-.2-.2-.4-.4-.8-.7-1.8-.7-2.9h-.7v-.4h3.6l.4.3zm-2 3.1c0-.1.1-.1.1-.2.5-.8.9-1.7 1.2-2.7h-2.1c.1 1.1.3 2.1.8 2.9zM189.9 87.8l-.8 1.4c.2.1.3.2.5.3l.8-1.1.5.3-1.5 2.1c.3 0 .7-.1 1-.1-.1-.1-.1-.3-.2-.4l.5-.2c.2.4.4.7.5 1.1l-.5.2c0-.1-.1-.2-.1-.3-.2 0-.5.1-.7.1V94h-.5v-2.7c-.5.1-.9.1-1.3.1l-.1-.5h.8l.5-.8c-.4-.3-.8-.6-1.3-.8l.3-.4c.1.1.2.1.4.2l.7-1.4.5.1zm-.9 4c0 .6-.2 1.1-.4 1.6l-.5-.1c.2-.5.3-1 .4-1.6l.5.1zm2.1 1.1c-.1 0-.3 0-.5.1-.2-.3-.2-.8-.3-1.3l.5-.1c.1.5.1.9.3 1.3zm1.8-3.9v-1.4h.5V89h1.7v4.2c0 .2-.1.4-.2.5-.1.1-.4.1-.8.1 0-.2-.1-.4-.2-.5h.6c.1 0 .1 0 .1-.1v-3.7h-1.2c0 .3 0 .6-.1.9.4.5.8 1 1.2 1.4l-.5.3c-.2-.4-.5-.8-.9-1.2-.2.5-.4 1-.8 1.5-.1-.1-.3-.2-.5-.3v1.8h-.5V89h1.6zm-.2 1.7c.1-.3.2-.7.2-1.3h-1V92c.4-.4.6-.8.8-1.3zM188.2 95.7c.6-.5 1.1-.9 1.6-1.1.6-.3 1.3-.5 2.1-.5s1.5.2 2.1.5c.5.2 1 .6 1.6 1.1l-.4.3c-.5-.5-1-.8-1.5-1-.6-.3-1.2-.4-1.9-.4s-1.3.1-1.9.4c-.5.2-.9.6-1.5 1l-.2-.3zM192.1 97.1v4.6h-.5v-4.6h-1.7v-.5h3.9v.5h-1.7z"/><path d="M189.8 102.9c-.5-.2-1-.6-1.6-1.1l.4-.3c.5.5 1 .8 1.5 1 .6.3 1.2.4 1.9.4s1.3-.1 1.9-.4c.4-.2.9-.6 1.5-1l.4.3c-.6.5-1.1.9-1.6 1.1-.6.3-1.3.5-2.1.5s-1.6-.2-2.3-.5zM189.1 207.7v-3.8h.4v3.5h2.4v.4h-2.8zM190.8 209.4v.3h-.5v.6h.6v.3h-.6v1h-.3v-1h-.6c0 .2-.1.4-.2.6-.1.3-.4.5-.7.7-.1-.1-.1-.2-.2-.3.3-.1.5-.3.6-.6.1-.1.1-.2.1-.4h-.6v-.3h.7v-.6h-.5v-.3h2.2zm-.5 2.8v-.4h.3v.4h1.5v.3h-1.5v.6h2v.3h-4.3v-.3h2v-.6h-1.4v-.3h1.4zm-.3-2.5h-.6v.6h.6v-.6zm1.5-.2v1.8h-.3v-1.8h.3zm1-.2v2.3c0 .1-.1.2-.2.2-.1.1-.3.1-.5.1 0-.1 0-.2-.1-.4h.4s.1 0 .1-.1v-2.2h.3zM192.3 214.6c-.4.1-.9.2-1.6.2v.7h1.7v.3h-1.7v.8h2v.3h-2v1.2c0 .1-.1.2-.2.3-.1.1-.4.1-.6.1 0-.1 0-.3-.1-.4h.5c.1 0 .1 0 .1-.1v-1h-1.9v-.3h1.9v-.8h-1.7v-.3h1.7v-.7c-.5 0-1.1.1-1.5.1 0-.2-.1-.3-.2-.3.7 0 1.3 0 1.9-.1.5-.1 1.1-.1 1.6-.2l.1.2zM188.9 220v-1h.3v1h.4v.3h-.4v.7c.1 0 .3-.1.4-.2v.3c-.1.1-.3.1-.4.2v1.7c0 .1-.1.2-.2.2s-.3.1-.6.1c0-.1 0-.2-.1-.3h.5c.1 0 .1 0 .1-.1v-1.5c-.2.1-.4.2-.6.2l-.1-.3c.2-.1.4-.1.7-.2v-.9h-.6v-.2h.6zm2.1-.8v1.8l.3.1-.1.4h1.1v2h-.3v-.2h-1.6v.2h-.4v-2h.9l.1-.4c-.1 0-.2.1-.5.1 0-.1 0-.3-.1-.3h.2c.1 0 .1 0 .1-.1v-1.3h-1v-.3h1.3zm-.4 1.4c-.3.1-.6.2-.8.3l-.1-.3c.2-.1.5-.2.9-.3v.3zm-.2-.6-.2.2-.4-.4.1-.2c.2.2.4.3.5.4zm1.6 2.2v-.4h-1.6v.4h1.6zm0 .8v-.5h-1.6v.5h1.6zm.5-3.8v1.7c0 .1 0 .2-.1.2s-.2.1-.5.1c0-.1 0-.3-.1-.3H192.1v-1.3h-1v-.3h1.4zm-.6.8-.2.2c-.1-.1-.3-.2-.5-.3l.1-.2c.3.1.4.2.6.3zm.1.6c-.3.1-.5.2-.7.3l-.1-.3c.2-.1.5-.2.8-.3v.3zM256.6 107.6l.2 2.1h-.5l-.2-2.1-2.4.2-.1-.5 2.4-.2-.1-1.2-1.8.2v-.5l1.8-.2-.1-1.3h.5l.1 1.3 1.8-.2v.5l-1.8.2.1 1.2 2.4-.2.1.5-2.4.2zM260.3 107.5c-.2-.3-.4-.7-.7-1.1l.4-.2c.2.4.5.7.7 1.2l-.4.1zm2.9.2c-.3.6-.7 1-1.1 1.4-.4.3-.9.6-1.5.8-.1-.2-.2-.3-.3-.4.6-.2 1-.4 1.4-.6.4-.3.7-.7 1-1.2.2-.4.4-1 .6-1.7l.5.1c-.2.7-.4 1.2-.6 1.6zm-1.6-.6c-.1-.4-.3-.8-.5-1.1l.4-.2c.2.4.4.8.6 1.1l-.5.2zM267.5 106.7c-.1.9-.2 1.5-.5 1.9-.3.4-.9.8-1.7 1.1-.1-.1-.2-.3-.3-.5.7-.2 1.2-.5 1.5-.8.3-.4.5-1 .5-1.8h-2.6v-.5h2.6v-1.2c-.8.1-1.4.2-1.9.3 0-.2-.1-.3-.2-.4 1.4-.1 2.7-.4 3.9-.7l.2.4-1.5.3v1.2h2.5v.5h-2.5zM273.5 108.1c-.7.5-1.5 1-2.5 1.5l-.3-.6c1.8-.6 3.3-1.7 4.6-3.3.1.2.2.3.4.4-.8.8-1.5 1.5-2.2 2zm-1.3-2c-.5-.4-1-.8-1.4-1.1l.3-.4c.5.3 1 .7 1.5 1.1l-.4.4zM253.1 113.8c-.3.7-.7 1.3-1.1 1.8-.1-.2-.3-.3-.4-.4.8-.9 1.4-2.1 1.8-3.7l.5.2c-.3.9-.6 1.6-.8 2.1zm3.6 1.7c-.4-1.3-1-2.5-1.8-3.8l.4-.3c.8 1.2 1.4 2.5 1.9 3.8l-.5.3zm.4-3.6c-.1.1-.3.2-.4.2-.2 0-.3-.1-.5-.2-.1-.1-.2-.3-.2-.5s.1-.3.2-.5c.1-.1.3-.2.5-.2s.3.1.4.2c.1.1.2.3.2.4 0 .3 0 .5-.2.6zm-.2-.7c-.1-.1-.2-.1-.2-.1-.2 0-.4.1-.4.3 0 .1 0 .2.1.3.1.1.2.1.3.1.1 0 .2 0 .2-.1.1-.1.1-.2.1-.3 0 0 0-.1-.1-.2zM260.7 114.6c-.7.5-1.5 1-2.5 1.5l-.3-.6c1.8-.6 3.3-1.7 4.6-3.3.1.2.2.3.4.4-.9.9-1.6 1.6-2.2 2zm-1.4-2c-.5-.4-1-.8-1.4-1.1l.3-.4c.5.3 1 .7 1.5 1.1l-.4.4zM267.3 114.2c-.7-.4-1.6-.8-2.7-1.2v3.3h-.5v-5.6h.5v1.8c1 .3 2 .7 3 1.2l-.3.5zM268.6 114.2v-3.1h.5v3.1h-.5zm3.3-1.7c0 .8-.1 1.4-.2 1.8-.1.5-.4.9-.7 1.2-.3.3-.9.6-1.6.8-.1-.2-.2-.3-.3-.5.9-.2 1.6-.6 1.8-1.1.3-.4.4-1.1.4-2.2v-1.7h.5l.1 1.7zM272.8 113.7v-.5h5.1v.5h-5.1zM260.9 123.1c-.5-.5-.8-.9-1-1.3-.3-.5-.4-1.1-.4-1.7 0-.6.1-1.2.4-1.7.2-.4.6-.8 1-1.3l.3.3c-.4.4-.8.8-1 1.2-.3.4-.4.9-.4 1.5 0 .5.1 1 .4 1.5.2.4.5.7 1 1.2l-.3.3zM262.5 118.6v-1.4h.4v1.4h.7v.4h-.7v.5l.3.3c.1.1.2.2.4.3-.1.1-.2.3-.3.4-.2-.1-.3-.2-.4-.3 0 0-.1 0-.1-.1v2.9h-.4v-3l-.3.6c-.2.3-.3.5-.4.6-.1-.2-.1-.3-.3-.4.2-.3.4-.6.5-.9.1-.3.3-.6.4-1h-.7v-.4h.9zm2.8-1.2v4.9c0 .1 0 .2-.1.3-.1.1-.3.1-.7.2 0-.2-.1-.3-.1-.4h.3c.1 0 .2 0 .2-.1v-1.4h-.7c0 .2-.1.4-.1.6-.1.6-.3 1-.5 1.5-.1-.2-.2-.3-.3-.4.2-.4.4-.8.5-1.3.1-.4.1-.9.1-1.5v-2.2h1.4zm-.4 3v-1.1h-.6v1.1h.6zm0-1.5v-1.1h-.6v1.1h.6zm2.4-1.5v5c0 .1 0 .2-.1.3-.1.1-.3.1-.7.1 0-.2-.1-.3-.1-.4h.3c.1 0 .2 0 .2-.1v-1.6h-.7c0 .3 0 .6-.1.8-.1.5-.2 1-.4 1.4-.1-.2-.2-.3-.3-.4l.3-1.2c0-.4.1-.9.1-1.4v-2.5h1.5zm-.4 3v-1.1h-.7v1.1h.7zm0-1.5v-1.1h-.7v1.1h.7zM269.4 121.8c-.2.4-.6.8-1 1.3l-.3-.3c.4-.4.8-.8 1-1.2.2-.4.4-.9.4-1.5 0-.5-.1-1-.4-1.5-.2-.4-.5-.7-1-1.2l.3-.3c.5.5.8.9 1 1.3.3.5.4 1.1.4 1.7.1.6-.1 1.2-.4 1.7zM461.8 530.7c0 .3 0 .5-.1.7h.5v-1.3h.4v1.3h.6v.3h-.6v1.2c.2-.1.4-.1.6-.2v.4c-.2.1-.4.1-.6.2v2.1h-.4v-2c-.3.1-.7.2-1 .3l-.1-.4c.3-.1.7-.2 1.1-.3v-1.3h-.5c-.1.3-.1.6-.2.8h-.3c.2-.6.3-1.2.4-1.9l.2.1zm2.6-.4c-.1.4-.2.7-.4 1h2.1l-.1 3.1c0 .3-.1.6-.1.7-.1.1-.2.2-.5.3h-.5c0-.2 0-.3-.1-.4h.6c.1 0 .2 0 .2-.1s0-.2.1-.4l.1-2.7h-.4c0 .8-.2 1.5-.5 2.1-.4.6-.8 1.1-1.4 1.5l-.3-.3c.6-.4 1-.8 1.3-1.4.3-.5.5-1.1.5-1.9h-.4c-.1.4-.2.9-.4 1.3-.3.5-.6.8-.9 1.1-.1-.1-.1-.2-.2-.3.3-.2.6-.5.8-.9.2-.3.3-.7.4-1.2h-.3c-.2.4-.4.7-.6 1-.1-.1-.2-.2-.3-.2.3-.4.5-.8.6-1.2.2-.3.3-.7.4-1.1h.3zM465.9 536.4v.4h-2v1.5h2.3v.4h-2.3v2.6h-.4v-2.6h-2.3v-.4h2.3v-1.5h-1.9v-.4h4.3zM464 541.8c0 .1-.1.1-.1.1.4.4.8.8 1.2 1.1.4.3.8.6 1.2.7-.1.1-.2.3-.2.4-.4-.2-.7-.4-1-.6v.3h-1.2v.6h2v.4h-2v1.4h2.3v.4h-4.9v-.4h2.2v-1.4h-2v-.4h2v-.6h-1.2v-.3c-.4.3-.7.5-.9.6-.1-.1-.2-.3-.3-.3.5-.3.9-.6 1.3-1s.8-.8 1.2-1.4l.4.4zm-1.2 4.1-.4.2c-.1-.2-.3-.5-.4-.7l.4-.2c.1.2.3.5.4.7zm2.2-2.3c-.1-.1-.3-.2-.4-.3-.4-.3-.7-.7-1-1-.3.4-.7.7-1 1.1-.1.1-.2.2-.3.2h2.7zm.4 1.7-.5.9-.3-.2.4-.9.4.2zM461.8 547.9c0 .3 0 .5-.1.7h.5v-1.3h.4v1.3h.6v.3h-.6v1.2c.2-.1.4-.1.6-.2v.4c-.2.1-.4.1-.6.2v2.1h-.4v-2c-.3.1-.7.2-1 .3l-.1-.4c.3-.1.7-.2 1.1-.3V549h-.5c-.1.3-.1.6-.2.8h-.3c.2-.6.3-1.2.4-1.9h.2zm2.6-.4c-.1.4-.2.7-.4 1h2.1l-.1 3.1c0 .3-.1.6-.1.7-.1.1-.2.2-.5.3h-.5c0-.2 0-.3-.1-.4h.6c.1 0 .2 0 .2-.1s0-.2.1-.4l.1-2.7h-.4c0 .8-.2 1.5-.5 2.1-.4.6-.8 1.1-1.4 1.5l-.3-.3c.6-.4 1-.8 1.3-1.4.3-.5.5-1.1.5-1.9h-.4c-.1.4-.2.9-.4 1.3-.3.5-.6.8-.9 1.1-.1-.1-.1-.2-.2-.3.3-.2.6-.5.8-.9.2-.3.3-.7.4-1.2h-.3c-.2.4-.4.7-.6 1-.1-.1-.2-.2-.3-.2.3-.4.5-.8.6-1.2.2-.3.3-.7.4-1.1h.3zM313.3 327.2v.9h2.4v.4h-4.6v1.5c0 1.3-.3 2.3-.9 3.2-.1-.2-.2-.3-.4-.4.6-.7.8-1.6.8-2.8v-1.9h2.1v-.9h.6zm-.1 2.6v-1h.4v1h2v.4h-1.8c.2.4.4.7.7 1 .3.4.7.7 1.3 1-.2.1-.3.3-.3.4-.5-.3-.9-.7-1.3-1.1l-.6-.9v2.6h-.4v-2.5c-.2.3-.5.7-.7.9-.4.4-.8.8-1.2 1.1-.1-.1-.2-.3-.3-.4.4-.2.7-.5 1.1-.9.3-.3.6-.7.9-1.2h-1.5v-.4h1.7zM318.2 327.9v4h-1v.7h-.4V328h1.4zm-.4 1.8v-1.4h-.6v1.4h.6zm0 1.7V330h-.6v1.4h.6zm4.2-3.3-.5 1h.7v.4h-2c0 .2-.1.4-.1.5h2.3v.4H320c-.1.2-.1.3-.2.5H321.5l.2.3c-.2.4-.5.8-.8 1.1.4.2.9.4 1.5.5-.1.2-.2.3-.3.4-.6-.1-1.1-.3-1.6-.6-.4.3-.9.5-1.6.6 0-.2-.1-.3-.2-.4.6-.1 1.1-.3 1.4-.5-.3-.2-.5-.5-.7-.7-.3.5-.7.9-1.2 1.3l-.3-.3c.6-.4 1-.8 1.3-1.3.1-.2.2-.4.3-.7h-1.1v-.6h1.2c0-.2.1-.4.1-.5h-1.2v-.4h2.5l.5-1.1.5.1zm.1-.4c-1.2.2-2.3.4-3.3.4 0-.1-.1-.2-.2-.4 1.1-.1 2.2-.2 3.2-.4l.3.4zm-2.5 1.2-.4.1-.3-.6.3-.1c.2.1.3.4.4.6zm1 3.1c.3-.2.5-.5.6-.8h-1.4c.2.3.4.6.8.8zm0-3.2-.4.1c-.1-.2-.1-.4-.2-.7l.3-.1c.2.3.3.5.3.7zM324 331.5c-.1.6-.3 1.1-.6 1.6-.1-.2-.2-.3-.3-.4.3-.4.4-.9.5-1.4.1-.5.1-1.1.1-1.8v-1.2h4.6v1.3h-1.8v.7h2.3v.4h-2.6c0 .2-.1.4-.1.6h2.2l-.1 1.1c0 .3-.1.5-.3.6-.2.1-.5.1-.9.1 0-.2 0-.3-.1-.4h.8s.1-.1.1-.2l.1-.7H326c-.1.1-.1.3-.2.4-.3.4-.8.8-1.5 1-.1-.1-.2-.3-.3-.4.7-.2 1.2-.5 1.5-.9.2-.3.3-.7.4-1.1h-1.4v-.4h1.7v-.7h-2c-.1.6-.1 1.2-.2 1.8zm4.8-4v.4h-5.7v-.4h5.7zm-4.7 1.8h3.7v-.6h-3.7v.6z"/></svg>