<svg version="1.1" id="レイヤー_1" xmlns="http://www.w3.org/2000/svg" x="0" y="0" viewBox="0 0 650 320" style="enable-background:new 0 0 650 320" xml:space="preserve"><style>.st50{fill:#fff}.st58{fill:#0086d1;stroke:#0086d1;stroke-width:.9439}.st59{fill:none;stroke:#eb6100;stroke-width:2.5732;stroke-linecap:round;stroke-linejoin:round;stroke-dasharray:0,5.1465}.st64{fill:#0091b0}.st67{fill:#689fa3}.st68{fill:none;stroke:#9f7294;stroke-width:3.431;stroke-dasharray:3.7955,1.8978}.st69{fill:#9f7294}</style><path d="M96.1 173.4c-.4 0-.8 0-1.2.1v-.9c.3 0 .8.1 1.2.1h3v-1.1c-2.3.2-2.3.2-3.5.2-.1-.3-.2-.5-.3-.8h.4c1.9 0 4-.2 5.7-.4.9-.1 1.2-.2 1.7-.4l.6.8c-.2 0-.2 0-.4.1-1.1.2-2.1.4-3.3.5v1.1h3.2c.5 0 .9 0 1.2-.1v.9c-.3 0-.7-.1-1.2-.1h-.6v1.2h.9c.5 0 .9 0 1.2-.1v.9c-.4-.1-.7-.1-1.2-.1h-.9v1.3h.6c.5 0 .8 0 1.2-.1v.9c-.3 0-.7-.1-1.2-.1h-2.7c.7.7 1.2 1 1.9 1.4.8.4 1.7.8 2.7 1-.2.3-.4.6-.5.9-2.2-.7-3.4-1.5-4.7-2.9v2c0 .6 0 .9.1 1.3h-1c.1-.4.1-.7.1-1.3v-2c-1.3 1.4-2.4 2.1-4.5 2.8-.2-.3-.3-.5-.6-.8 1.1-.3 2-.7 2.9-1.2.6-.4.9-.6 1.6-1.3H96c-.4 0-.9 0-1.2.1v-.9c.3 0 .7.1 1.2.1h.4v-1.3h-.8c-.5 0-.9 0-1.2.1v-.9c.3 0 .7.1 1.2.1h.8v-1.2h-.3zm1.3 1.2h1.8v-1.2h-1.8v1.2zm0 2.1h1.8v-1.3h-1.8v1.3zm4.6-3.3h-1.9v1.2h1.9v-1.2zm0 1.9h-1.9v1.3h1.9v-1.3zm9.6-3.9c0-.5 0-.7-.1-1.1h1.1c-.1.3-.1.6-.1 1.1v.1h3.4c.6 0 .9 0 1.3-.1v.9c-.4 0-.8-.1-1.2-.1h-3.5v.9h2.4c.7 0 1 0 1.3-.1v4.3c-.3 0-.6-.1-1.3-.1h-2.4v1h3.6c.6 0 1 0 1.2-.1v1c-.4 0-.7-.1-1.3-.1h-3.6v.5c0 .6 0 .9.1 1.3h-1.1c.1-.4.1-.7.1-1.3v-.5h-3.4c-.5 0-.9 0-1.2.1v-1c.3.1.7.1 1.2.1h3.4v-1h-2.2c-.7 0-1 0-1.4.1V173c.3 0 .6.1 1.3.1h2.3v-.9h-3.3c-.5 0-.9 0-1.2.1v-.9c.3.1.7.1 1.2.1h3.3v-.1zm-2.7 2.5v1h2.6v-1h-2.6zm0 1.8v1h2.6v-1h-2.6zm6.3-.8v-1h-2.8v1h2.8zm0 1.8v-1h-2.8v1h2.8zm3.9-1.3h1.1c.4-.5.5-.6.8-1.1-.6-.7-.9-1-1.7-1.8l.5-.7.5.5c.6-.9 1-1.6 1.1-2.1l.8.4c-.1.1-.1.2-.3.4-.3.6-.8 1.3-1.1 1.8.3.3.4.4.7.8.8-1.2 1.2-1.8 1.3-2.2l.8.5c-.1.1-.2.2-.4.5-.8 1.2-1.5 2.2-2.1 2.9.9-.1 1.1-.1 1.7-.2-.1-.3-.2-.5-.4-.9l.6-.3c.4.7.7 1.3 1 2.3l-.7.3c-.1-.4-.2-.5-.2-.7h-.3c-.3 0-.3 0-.7.1v3.8c0 .5 0 .9.1 1.2h-1c0-.3.1-.7.1-1.2V176c-.8.1-.8.1-1.3.1s-.5 0-.7.1l-.2-.8zm1.5 1.5c-.2 1.7-.3 2.3-.7 3.4l-.8-.4c.4-.9.6-1.6.7-3.2l.8.2zm2.7-.2c.3 1 .5 1.8.7 2.9l-.8.2c-.1-1.1-.3-2-.6-2.9l.7-.2zm2-3.7c-.4.7-.7 1.2-1.2 1.8-.2-.3-.4-.4-.7-.6.5-.6 1-1.3 1.3-2.1.3-.8.5-1.3.6-1.8l.9.2c-.1.2-.1.2-.3.7l-.3.9h3.8c0 .4 0 .4-.1 1.9 0 1.9-.2 4.3-.5 5.4-.3 1.2-.6 1.4-1.8 1.4-.3 0-.6 0-1.2-.1 0-.4-.1-.6-.2-1 .6.1 1.1.2 1.5.2.6 0 .7-.1.8-.9.3-1.3.5-3.5.5-6h-3.1zm1 4.8c-.5-1.3-.8-1.9-1.5-2.9l.7-.4c.8 1.1 1.1 1.7 1.6 2.9l-.8.4zm7.7 2.4v-7.9l-2.3.8v-1l2.8-1h.7v9.1H134zm4.4-1.1c.5.2 1.1.3 1.7.3 1.4 0 2.3-.5 2.3-1.9 0-1.2-.7-1.9-2.1-1.9-.4 0-.9 0-1.4.2l-.3-.3.2-4.3h4.5v1h-3.5l-.1 2.6c.3-.1.7-.1 1-.1 2 0 2.9 1.1 2.9 2.6 0 1.8-1.2 3-3.4 3-.5 0-1.2-.1-1.8-.2v-1zm11.3-8.4c-.1.2-.2.3-.3.6-.9 1.8-2.1 3.3-3.7 4.5-.2-.3-.4-.5-.7-.8 1.4-1 2.4-2 3.2-3.4.3-.5.4-.9.5-1.2l1 .3zm-1.2 4.6c-.4 0-.8 0-1.2.1v-1c.3 0 .7.1 1.2.1h4c.5 0 .9 0 1.2-.1v.9c0 2.4-.2 4.3-.5 4.9-.2.4-.5.5-1.3.5-.3 0-.7 0-1.4-.1 0-.4-.1-.6-.2-1 .6.1 1.2.2 1.6.2.5 0 .6-.1.7-.7.2-.8.3-2.2.3-3.8h-2.6c-.1.6-.1.8-.2 1.2-.5 2-1.6 3.4-3.7 4.5-.2-.3-.3-.5-.6-.8 1.4-.6 2.4-1.5 2.9-2.5.4-.7.6-1.3.6-2.3h-.8zm3.8-4.9c.1.3.2.6.4 1 .8 1.5 1.9 2.6 3.4 3.6-.3.3-.4.5-.7.9-1.8-1.3-2.9-2.7-3.9-4.6-.1-.2-.2-.4-.3-.5l1.1-.4zm-56.2 89.9c-.4 0-.8 0-1.2.1v-.9c.3 0 .8.1 1.2.1h3v-1.1c-2.3.2-2.3.2-3.5.2-.1-.3-.2-.5-.3-.8h.4c1.9 0 4-.2 5.7-.4.9-.1 1.2-.2 1.7-.4l.6.8c-.2 0-.2 0-.4.1-1.1.2-2.1.4-3.3.5v1.1h3.2c.5 0 .9 0 1.2-.1v.9c-.3 0-.7-.1-1.2-.1h-.6v1.2h.9c.5 0 .9 0 1.2-.1v.9c-.4-.1-.7-.1-1.2-.1h-.9v1.3h.6c.5 0 .8 0 1.2-.1v.9c-.3 0-.7-.1-1.2-.1h-2.7c.7.7 1.2 1 1.9 1.4.8.4 1.7.8 2.7 1-.2.3-.4.6-.5.9-2.2-.7-3.4-1.5-4.7-2.9v2c0 .6 0 .9.1 1.3h-1c.1-.4.1-.7.1-1.3v-2c-1.3 1.4-2.4 2.1-4.5 2.8-.2-.3-.3-.5-.6-.8 1.1-.3 2-.7 2.9-1.2.6-.4.9-.6 1.6-1.3H96c-.4 0-.9 0-1.2.1v-.9c.3 0 .7.1 1.2.1h.4v-1.3h-.8c-.5 0-.9 0-1.2.1v-.9c.3 0 .7.1 1.2.1h.8v-1.2h-.3zm1.3 1.2h1.8v-1.2h-1.8v1.2zm0 2.1h1.8v-1.3h-1.8v1.3zm4.6-3.3h-1.9v1.2h1.9v-1.2zm0 1.9h-1.9v1.3h1.9v-1.3zm9.6-3.9c0-.5 0-.7-.1-1.1h1.1c-.1.3-.1.6-.1 1.1v.1h3.4c.6 0 .9 0 1.3-.1v.9c-.4 0-.8-.1-1.2-.1h-3.5v.9h2.4c.7 0 1 0 1.3-.1v4.3c-.3 0-.6-.1-1.3-.1h-2.4v1h3.6c.6 0 1 0 1.2-.1v1c-.4 0-.7-.1-1.3-.1h-3.6v.5c0 .6 0 .9.1 1.3h-1.1c.1-.4.1-.7.1-1.3v-.5h-3.4c-.5 0-.9 0-1.2.1v-1c.3.1.7.1 1.2.1h3.4v-1h-2.2c-.7 0-1 0-1.4.1v-4.3c.3 0 .6.1 1.3.1h2.3v-.9h-3.3c-.5 0-.9 0-1.2.1v-.9c.3.1.7.1 1.2.1h3.3v-.1zm-2.7 2.6v1h2.6v-1h-2.6zm0 1.7v1h2.6v-1h-2.6zm6.3-.7v-1h-2.8v1h2.8zm0 1.7v-1h-2.8v1h2.8zm3.9-1.3h1.1c.4-.5.5-.6.8-1.1-.6-.7-.9-1-1.7-1.8l.5-.7.5.5c.6-.9 1-1.6 1.1-2.1l.8.4c-.1.1-.1.2-.3.4-.3.6-.8 1.3-1.1 1.8.3.3.4.4.7.8.8-1.2 1.2-1.8 1.3-2.2l.8.5c-.1.1-.2.2-.4.5-.8 1.2-1.5 2.2-2.1 2.9.9-.1 1.1-.1 1.7-.2-.1-.3-.2-.5-.4-.9l.6-.3c.4.7.7 1.3 1 2.3l-.7.3c-.1-.4-.2-.5-.2-.7h-.3c-.3 0-.3 0-.7.1v3.8c0 .5 0 .9.1 1.2h-1c0-.3.1-.7.1-1.2V263c-.8.1-.8.1-1.3.1s-.5 0-.7.1l-.2-.9zm1.5 1.5c-.2 1.7-.3 2.3-.7 3.4l-.8-.4c.4-.9.6-1.6.7-3.2l.8.2zm2.7-.2c.3 1 .5 1.8.7 2.9l-.8.2c-.1-1.1-.3-2-.6-2.9l.7-.2zm2-3.7c-.4.7-.7 1.2-1.2 1.8-.2-.3-.4-.4-.7-.6.5-.6 1-1.3 1.3-2.1.3-.8.5-1.3.6-1.8l.9.2c-.1.2-.1.2-.3.7l-.3.9h3.8c0 .4 0 .4-.1 1.9 0 1.9-.2 4.3-.5 5.4-.3 1.2-.6 1.4-1.8 1.4-.3 0-.6 0-1.2-.1 0-.4-.1-.6-.2-1 .6.1 1.1.2 1.5.2.6 0 .7-.1.8-.9.3-1.3.5-3.5.5-6h-3.1zm1 4.8c-.5-1.3-.8-1.9-1.5-2.9l.7-.4c.8 1.1 1.1 1.7 1.6 2.9l-.8.4zm5 2.4v-1.3c2.6-2.5 4.2-3.6 4.2-5.2 0-1-.5-1.7-1.7-1.7-.7 0-1.4.3-2 .6v-1c.8-.4 1.5-.6 2.4-.6 1.6 0 2.5 1 2.5 2.6 0 1.7-1.2 2.8-4.2 5.6h4.6v1h-5.8zm11.9-9.5c-.1.2-.2.3-.3.6-.9 1.8-2.1 3.3-3.7 4.5-.2-.3-.4-.5-.7-.8 1.4-1 2.4-2 3.2-3.4.3-.5.4-.9.5-1.2l1 .3zm-1.3 4.6c-.4 0-.8 0-1.2.1v-1c.3 0 .7.1 1.2.1h4c.5 0 .9 0 1.2-.1v.9c0 2.4-.2 4.3-.5 4.9-.2.4-.5.5-1.3.5-.3 0-.7 0-1.4-.1 0-.4-.1-.6-.2-1 .6.1 1.2.2 1.6.2.5 0 .6-.1.7-.7.2-.8.3-2.2.3-3.8h-2.6c-.1.6-.1.8-.2 1.2-.5 2-1.6 3.4-3.7 4.5-.2-.3-.3-.5-.6-.8 1.4-.6 2.4-1.5 2.9-2.5.4-.7.6-1.3.6-2.3h-.8zm3.9-4.9c.1.3.2.6.4 1 .8 1.5 1.9 2.6 3.4 3.6-.3.3-.4.5-.7.9-1.8-1.3-2.9-2.7-3.9-4.6-.1-.2-.2-.4-.3-.5l1.1-.4z"/><path style="fill:none;stroke:#094;stroke-width:3.431;stroke-linecap:round" d="M78.4 307.2v-77"/><path style="fill:none;stroke:#0086d1;stroke-width:5.1465" d="M78.4 224.2V110.8"/><path style="fill:none;stroke:#fff;stroke-width:1.7155" d="M78.4 224.2V110.8"/><path class="st58" d="M0 206h156.8v25.5H0z"/><path class="st50" d="M39.5 213.1v13.6h-1v-14.5h4.6v.9h-3.6zm6.7 13.2h-1.1v-9.4H49v-2.6h-4.4v-1.1h13.5v1.1H53v2.6h4.6v9.3h-1.2v-.9H46.2v1zm6.8-5.6c0 .6.1.6.6.6h.6c.5 0 .6-.1.8-1.2l1 .4c-.3 1.7-.7 1.9-1.5 1.9h-1.4c-1 0-1.2-.2-1.2-1.3V218h-1.8c0 3-.5 4.1-2.9 5.1l-.9-.9c2-.7 2.6-1.4 2.6-4.2h-2.8v6.3h10.2V218H53v2.7zm-1.1-6.4h-1.8v2.6h1.8v-2.6zm14.2 8.3v2.7h-1.4v-2.7h-5.5v-1.2l5.6-7.4h1.3v7.4h1.7v1.2h-1.7zm-1.4-6.7-4.2 5.5h4.2v-5.5zm11.7-1.2v9.8c0 .8 0 1.5-1 1.8-.3.1-1.4 0-1.9 0l-.4-1.3c.5.1 1.1.1 1.3.1.7 0 .8-.3.8-.7v-9.7h-6.3v-1.1h13.7v1.1h-6.2zm16.8 11.5v-.9h-7.1v1h-1.2v-13.1h9.4v13.1h-1.1zm0-12h-7.1v2.5h7.1v-2.5zm0 3.6h-7.1v2.5h7.1v-2.5zm0 3.7h-7.1v2.6h7.1v-2.6zm7.1 4.2v-13.6h1v14.5h-4.6v-.9h3.6zm8.3-12.5c-.2.4-.7 1.5-1.2 2.3.1.1.3.1.3.3 0 0 0 .1-.2.3v10.2h-1.1v-9.2c-.4.7-.9 1.3-1.4 1.9l-.9-.7c.8-.9 2.4-2.7 3.7-6l1.1.5s.2.1.2.2-.1.2-.5.2zm8.7 9.1v-1.9h-7.5v2h-1.1v-2.9h9.7v2.8h-1.1zm-8.4-7.4v-.9h4.1v-1.6h1.2c.3 0 .3.1.3.2s0 .1-.4.3v1h4.2v.9h-9.4zm1.2 3.7v-2.8h7.1v2.8h-7.1zm4.2 4v2.7c0 1-1 1-2.3 1l-.4-1.2c.4.1.6.1.9.1.6 0 .8-.1.8-.6v-2.1h-2.9v-.9h6.3v.9h-2.4zm1.9-5.9h-5v1.1h5v-1.1z"/><path class="st59" d="M78.4 113.8V40.1"/><path style="fill:#fff;stroke:#094;stroke-width:.9439" d="M1 293.5h155.8V319H1z"/><path d="M43.5 299.4V313h-1v-14.5h4.6v.9h-3.6zm8.6 3.9c.2.6.6 1.9 2.1 3.1l-.8 1c-.8-.8-1.3-1.7-1.6-2.5v7.7h-1.1v-7.1c-.3.7-.8 2-1.8 3.4l-1-.8c.8-1 2-2.5 2.5-4.8h-2.5v-1.1h2.8v-3.5l1.2.2c.2 0 .3.1.3.2 0 .2-.2.3-.4.4v2.8h2v1.1h-1.7zm5 9c-1.4 0-1.5-.7-1.5-1.2v-12.3l1.1.1c.2 0 .3 0 .3.1s-.2.2-.3.3v10.9c0 .9.2.9.9.9h1.5c1 0 1.3 0 1.5-2.1l1.2.6c-.4 2.5-1 2.6-2.1 2.6h-2.6zm10.8-3.4c-.2.1-.9.1-1.2.1l-.2-1.1h.5c.2 0 .4 0 .4-.4v-4.9h-1.1v10h-1v-10h-1v6.4h-1v-7.4h2v-2.7l1.1.1c.2 0 .2.1.2.2s-.2.2-.4.3v2.1h2.1v6.4c.1.2.1.8-.4.9zm7.6 3.3h-1.6c-.8 0-1.2-.3-1.2-1v-3.3h-1.1c-.1 1.2-.2 2.1-1 3.2-.3.4-.7.8-2 1.3l-.6-.8c2-.6 2.5-1.3 2.7-3.7h-1.9v-.9h3.1v-2.9l1.1.1s.2 0 .2.1-.2.2-.4.3v2.4h3.6v.9h-2.8v2.7c0 .5.2.6.6.6h1c.5 0 .6-.6.8-1.4l.8.7c-.3 1.6-.8 1.7-1.3 1.7zm-6.4-8.3v-4.5h6.4v4.5h-6.4zm1.5 2.8c-.2-.3-.7-.9-1.4-1.6l.7-.6c.6.5 1.1 1.1 1.4 1.5l-.7.7zm4-6.5h-4.5v1h4.5v-1zm0 1.8h-4.5v1h4.5v-1zm.5 3.2c-.2.3-.6.9-1.2 1.5l-.7-.5c.2-.2.9-1 1.4-1.9l.9.6c.1.1.1.1.1.2s-.2.1-.5.1zm3.6 6.4-.9-.3c.3-.9.4-1.6.5-2.5h.7c0 .4 0 1.6-.3 2.8zm3.5-11.4v1.4H84v.9h-1.8v1.4H84v.9h-1.8v1.5H84c0 6-.8 6.2-3.1 6.5l-.4-1.2c2.2 0 2.3 0 2.5-4.4h-3.7v.5h-1v-8.3h5.9v.9h-2zM79.6 311c0-.9-.1-1.6-.3-2.4l.6-.2c.3.9.4 1.6.5 2.3l-.8.3zm1.6-10.8h-1.8v1.4h1.8v-1.4zm0 2.3h-1.8v1.4h1.8v-1.4zm0 2.3h-1.8v1.5h1.8v-1.5zm-.3 5.7c-.1-1-.3-1.6-.4-2.1l.6-.2c.3.6.5 1.2.6 2.1l-.8.2zm2-.8-.7.2c-.2-1.3-.4-1.7-.5-2l.6-.3c.3.7.4 1.3.6 2.1zm8 2.5c-1.5-1.9-2.7-5-2.9-7.5h-1.4c-.1 3-.7 6.1-2 8l-1.1-.5c1.8-2.5 2-5.6 2-8.6v-4.2h6v5.3H89c.4 2.9 1.6 5.6 3.1 7l-1.2.5zm-.5-11.9h-3.8v3.4h3.8v-3.4zm6.3 11.8v-13.6h1V313h-4.6v-.9h3.6zm5.2-.5-.9-.3c.3-.9.4-1.6.5-2.5h.7c.1.4 0 1.6-.3 2.8zm3.5-11.4v1.4h1.8v.9h-1.8v1.4h1.8v.9h-1.8v1.5h1.9c0 6-.8 6.2-3.1 6.5l-.4-1.2c2.2 0 2.3 0 2.5-4.4h-3.7v.5h-1v-8.3h5.9v.9h-2.1zm-2.5 10.8c0-.9-.1-1.6-.3-2.4l.6-.2c.3.9.4 1.6.5 2.3l-.8.3zm1.5-10.8h-1.8v1.4h1.8v-1.4zm0 2.3h-1.8v1.4h1.8v-1.4zm0 2.3h-1.8v1.5h1.8v-1.5zm-.2 5.7c-.1-1-.3-1.6-.4-2.1l.6-.2c.3.6.5 1.2.6 2.1l-.8.2zm1.9-.8-.7.2c-.2-1.3-.4-1.7-.5-2l.6-.3c.3.7.5 1.3.6 2.1zm8 2.5c-1.5-1.9-2.7-5-2.9-7.5h-1.4c-.1 3-.7 6.1-2 8l-1.1-.5c1.8-2.5 2-5.6 2-8.6v-4.2h6v5.3h-2.4c.4 2.9 1.6 5.6 3.1 7l-1.3.5zm-.5-11.9h-3.8v3.4h3.8v-3.4zM3.5 287.6l1.1-.4.2.8c-1 .5-2.2 1-2.9 1.3 0 .1-.1.2-.1.2l-.5-1.1c.4-.1.8-.3 1.3-.5v-3.2H1.4v-.9h1.1v-2.4l1.1.1c0 .1-.1.1-.2.2v2.2h1.1v.9h-1v2.8zm2.8 1.5c0 .6.1.7.8.7h2.3c.6 0 .7-.3.8-1.4.2.2.6.3.9.4-.1 1.4-.4 1.9-1.6 1.9H7c-1.3 0-1.7-.3-1.7-1.6V286l-.9.4-.4-.8 1.3-.5v-2.7l1.2.1c0 .1-.1.1-.2.2v2.1l1.2-.5v-2.8l1.2.1c0 .1-.1.1-.2.2v2.2l1.3-.6.2-.2.8.3-.1.1c0 2 0 3.4-.1 3.8-.1.8-.6.9-1.6.9 0-.2-.1-.6-.2-.8h.6c.1 0 .2 0 .3-.3 0-.2.1-1.2.1-2.8l-1.2.5v3.8H7.4v-3.4l-1.2.5v3.3zm14.5-6.1h-4.1c0 .1-.1.1-.2.1v1.6l.1-.2c1.2.6 2.9 1.5 3.7 2.2l-.7.9c-.7-.6-2-1.4-3.1-2v5.3h-1V283h-3.9v-1h9.3v1zm3.1 6.1c.5-.1 1-.1 1.6-.2v.8c-1.4.2-2.8.5-3.7.6 0 .1-.1.1-.2.2l-.3-1c.5-.1 1-.1 1.7-.2v-2.7h-1.6v-.8H23v-1h-1v-.1l-.2.2c-.2-.2-.5-.5-.7-.6.9-.9 1.5-2 1.9-2.8l1.1.2c0 .1-.1.1-.2.1v.1c.6.5 1.3 1.1 1.7 1.5l-.6.8c-.3-.4-1-1-1.6-1.5l-.9 1.5H25v.8h-1.1v1h1.4v.8h-1.4v2.3zm-1.8-.1c-.1-.5-.2-1.3-.4-1.9l.7-.2c.2.6.4 1.4.5 1.9l-.8.2zm3.4-1.9c0 .1-.1.1-.2.1-.1.5-.3 1.2-.5 1.6l-.6-.2c.2-.5.4-1.2.5-1.8l.8.3zm5.5-.3h-2.1c.4 1.5 1.1 2.7 2.2 3.4-.2.2-.5.5-.7.8-1-.7-1.7-1.9-2.1-3.3-.4 1.2-1.2 2.3-2.8 3.2-.1-.2-.5-.6-.7-.7 1.7-.9 2.4-2.1 2.7-3.4h-2.1v-.9h2.2v-1.8h-1c-.2.6-.4 1.1-.6 1.5-.2-.1-.5-.3-.8-.4.5-.8.8-2.1.9-3.4l1.1.2c0 .1-.1.1-.2.1-.1.4-.1.7-.2 1.1h.8v-1.9l1.2.1c0 .1-.1.1-.2.2v1.7h1.9v.9h-1.9v.6c0 .4 0 .8-.1 1.2H31v.8zm9.9-3.5h-4.2v.9h3.7v5.7c0 1-.4 1.1-2.3 1.1-.1-.3-.2-.6-.3-.8h1c.6 0 .7 0 .7-.2v-4.8h-6.2v5.8h-1v-6.7h3.5v-.9h-4.1v-.9h4.1v-1.1l1.3.1c0 .1-.1.1-.2.2v.8h4.2v.8zm-2.1 5.8h-2.2v1.8h-.9v-1.8h-2.1v-.8h2.1v-.9h-1.9v-.8h1c-.1-.3-.3-.7-.5-1.1l.8-.2c.2.3.5.8.5 1.2l-.4.1H37c-.1 0-.2-.1-.3-.1.2-.4.4-.9.5-1.2l1 .3c0 .1-.1.1-.2.1-.1.3-.3.6-.5.9h1.2v.8h-2.1v.9h2.2v.8zm5.5-5.2v-2.4l1.3.1c0 .1-.1.1-.2.2v9.1h-1v-2.3c-.9.4-1.7.7-2.3 1 0 .1-.1.2-.1.2l-.5-1.1c.7-.2 1.8-.6 2.9-1V285h-2.6v-1h2.5zm3.5 5.2c0 .6.1.7.5.7h1.3c.5 0 .5-.4.6-2.2.2.2.7.4.9.5-.1 1.9-.4 2.7-1.4 2.7h-1.6c-1.1 0-1.4-.4-1.4-1.6v-7.6l1.3.1c0 .1-.1.1-.2.2v3.1c.9-.5 1.8-1.2 2.4-1.7l.8.7s-.1.1-.2.1c-.8.6-1.9 1.2-2.9 1.8v3.2zm5.1-1.6c0 .1-.1.1-.2.1-.1.9-.3 1.9-.6 2.5-.2-.1-.5-.3-.7-.3.3-.6.5-1.6.6-2.5l.9.2zm2-.4c0-.2-.1-.4-.2-.6l-.7.1v4.3h-.9v-4.3c-.5 0-1 .1-1.3.1 0 .1-.1.1-.2.1l-.2-1h.7c.2-.2.4-.5.6-.8-.3-.5-.8-1-1.3-1.5l.5-.6.3.3c.3-.6.7-1.3.9-1.9l1 .4c0 .1-.1.1-.2.1-.3.6-.7 1.4-1.1 2 .2.2.3.4.5.6.4-.6.8-1.3 1-1.8l1 .4c-.1.1-.1.1-.3.1-.5.8-1.3 2-2 2.8h1.4c-.2-.3-.3-.6-.5-.9l.7-.3c.4.7.9 1.6 1 2.2l-.7.2zm0 .2c.3.6.5 1.3.6 1.8-.2.1-.4.2-.8.3-.1-.5-.4-1.3-.6-1.9l.8-.2zm2.2-.4.5.2c0 .1-.1.1-.1.1-.4 1.6-1.1 2.8-2.2 3.4-.1-.2-.4-.5-.6-.7.8-.4 1.4-1.2 1.8-2.2h-1.3v-.8h1.9zm1.5-.8c0 .4.3 1.2.5 1.5.4-.4.9-.8 1.2-1.2.8.6.8.6.9.7 0 .1-.1.1-.3.1-.3.3-.9.8-1.4 1.1.4.6 1 1.1 1.8 1.5-.2.2-.5.5-.6.8-1-.5-1.6-1.4-2.1-2.3v1.7c0 .9-.3 1-1.7 1 0-.2-.1-.6-.2-.8h.6c.5 0 .5 0 .5-.2v-3.8h-2v-3.8h1.6c.2-.3.3-.8.4-1.1l1.2.3c0 .1-.1.1-.2.1-.1.2-.2.4-.4.7h2.4v3.8h-2.2zm-2-3v.8h3.1v-.8h-3.1zm0 1.5v.8h3.1v-.8h-3.1z" style="fill:#094"/><path class="st58" d="M0 99.7h156.8v45.5H0z"/><path class="st50" d="M66.4 110.6H71V109h-5.9v-1H71v-2.2l1.2.1c.1 0 .3 0 .3.1s-.1.2-.3.3v1.6h5.9v1H72v1.6h4.5v5.8c0 1.2-.2 1.2-2.3 1.2l-.4-1.1c.6.1 1 .1 1.1.1.6 0 .6-.1.6-.7v-4.3H72v7.1h-1v-7.1h-3.5v6.1h-1.1v-7zm18.7-1.8h-4.7v2h-1.1V108h5.8v-.9h-4.3v-.9h9.8v.9h-4.5v.9h5.7v2.8h-1.1v-1.9h-4.6v3.1h-1v-3.2zm.8 7.8v.3c0 .5.2.7.9.7h2.8c.5 0 1 0 1.2-1.5l.9.7c-.5 1.7-1.3 1.7-1.8 1.7h-3.3c-1.7 0-1.7-.8-1.7-1.6v-.4h-3.3v.8h-1v-5.1h9.6v4.4h-4.3zm-4.7-6.4v-.7h3v.7h-3zm0 1.4v-.7h3v.7h-3zm3.7 2.4v-.9h-3.3v.9h3.3zm0 1.8v-.9h-3.3v.9h3.3zm4.3-2.6h-3.3v.9h3.3v-.9zm0 2.6v-.9h-3.3v.9h3.3zm-2.1-5.6v-.7h3v.7h-3zm0 1.4v-.7h3v.7h-3zm-53.4 13.1v13.6h-1v-14.5h4.6v.9h-3.6zm6.7 13.2h-1.1v-9.4h3.9v-2.6h-4.4v-1.1h13.5v1.1h-5.1v2.6h4.6v9.3h-1.2v-.8H40.4v.9zm6.8-5.5c0 .6.1.6.6.6h.6c.5 0 .6-.1.8-1.2l1 .4c-.3 1.7-.7 1.9-1.5 1.9h-1.4c-1 0-1.2-.2-1.2-1.3v-3.2h-1.8c0 3-.5 4.1-2.9 5.1l-.9-.9c2-.7 2.6-1.4 2.6-4.2h-2.8v6.3h10.2v-6.3h-3.4v2.8zm-1.1-6.5h-1.8v2.6h1.8v-2.6zm8.1.1c.3.2.5.4.9.8.6-.9 1.1-1.8 1.5-2.8l1.1.7c.1.1.1.2.1.2 0 .1-.1.2-.5.2-.7 1.1-1.2 2-1.5 2.5 0 0 .5.5.7.8.5-.7 1-1.4 1.4-2.1l1.1.7s.1.1.1.2c0 .2-.2.1-.4.1-.9 1.2-1.9 2.5-2.7 3.6 1.3-.2 1.4-.2 1.7-.3-.2-.4-.3-.6-.6-1l.8-.5c.6.9 1 1.6 1.4 2.5l-.9.5c0-.1-.2-.4-.3-.6-.2 0-1.1.2-1.2.2v6.4h-1.1v-6.2c-.9.2-1.3.2-1.7.3-.2.2-.2.4-.4.4-.1 0-.1-.1-.1-.2l-.3-1.3h1.3c.2-.2.7-.7 1.3-1.7-.8-1.1-1.7-1.9-2.4-2.5l.7-.9zm-.6 10.9c.2-.7.7-2 .8-4.3l1 .2s.2 0 .2.2c0 .1-.1.1-.3.2-.1 1.7-.4 2.8-.8 4l-.9-.3zm4.9-4.3c.4 1.5.5 2.6.5 3.5l-1 .2c0-.5-.1-2.2-.5-3.4l1-.3zm3.1 0 .6.6c-.2 1.4-.8 3.1-2.7 4.5l-.9-.8c1.1-.7 2-1.4 2.6-3.4h-1.7v-.9h2.1zM64 131c.2 1 .5 1.7 1 2.6.9-.6 1.3-1 1.9-1.7l.8.7s.1.1.1.2-.1.2-.4.2c-.5.4-1.3 1-1.8 1.3 1.1 1.5 1.9 2.1 2.3 2.3l-.8.8c-.8-.7-2.3-1.8-3.2-4.5v3.4c0 1.7-.1 1.8-2.1 1.8l-.4-1.1h.8c.6 0 .6-.2.6-.5V131h-2.9v-5.5h1.9c.6-.8.9-1.3 1-1.6l1 .5c.1 0 .2.1.2.2s-.2.2-.4.2c-.2.2-.4.5-.6.7h3.7v5.5H64zm1.6-4.6h-4.7v1.4h4.7v-1.4zm0 2.2h-4.7v1.5h4.7v-1.5zm6.6 8.3v-8.2h-2.4v-1c1-.1 2.3-.1 2.7-2h1.1V137h-1.4zm9.4 0v-8.2h-2.4v-1c1-.1 2.3-.1 2.7-2H83V137h-1.4zm18.9.5c-2.1-.7-4-1.8-5.7-3.2v4h-1.1v-4c-1.6 1.6-3.5 2.6-5.5 3.4l-.8-1c1.4-.4 3.6-1.2 5.6-3.2h-5.6v-1h6.4v-1.6l1.1.1c.3 0 .4.2.4.2 0 .1-.2.3-.3.4v.9h6.5v1h-5.9c1.7 1.5 3.4 2.3 5.9 3.1l-1 .9zm-.1-6.2c-2.9-.5-4.2-.7-6.1-1.7-1.6.8-3 1.3-6.1 1.8l-.6-1c2.7-.3 4.2-.8 5.8-1.5-.6-.5-1.4-1.1-2.2-2.2-.9.8-1.6 1.3-2.7 2l-.8-.8c1.9-1 3.5-2.4 4.7-4.1l1 .6c.1.1.3.2.3.3 0 .2-.3.2-.6.2-.2.2-.5.4-.7.6h5.9l.4.5c-1.2 1.3-2.2 2.1-3.4 2.9 1.8.8 3.8 1.1 5.8 1.3l-.7 1.1zm-8-4.7c.6.7 1.3 1.3 2 1.8.9-.5 1.5-1.1 2.3-1.8h-4.3zm13.7 10.9v-13.6h1v14.5h-4.6v-.9h3.6zm8.3-12.5c-.2.4-.7 1.5-1.2 2.3.1.1.3.1.3.3 0 0 0 .1-.2.3V138h-1.1v-9.2c-.4.7-.9 1.3-1.4 1.9l-.9-.7c.9-.9 2.4-2.7 3.7-6l1.1.5s.2.1.2.2-.1.1-.5.2zm8.7 9.1v-1.9h-7.5v2h-1.1v-2.9h9.7v2.8h-1.1zm-8.4-7.5v-.9h4.1V124h1.2c.3 0 .3.1.3.2s0 .1-.4.3v1h4.2v.9h-9.4zm1.2 3.8v-2.8h7.1v2.8h-7.1zm4.2 4v2.7c0 1-1 1-2.3 1l-.4-1.2c.4.1.6.1.9.1.6 0 .8-.1.8-.6v-2.1h-2.9v-.9h6.3v.9h-2.4zm1.9-6h-5v1.1h5v-1.1z"/><path d="M95.7 71.8v-1.4c-.4.5-.6.7-1.1 1.1-.1-.4-.2-.5-.4-.8.8-.6 1.5-1.3 2.1-2.1.3-.4.5-.7.6-1l.8.5c-.1.1-.1.2-.3.5-.2.3-.4.6-.7 1v4.7c0 .6 0 1 .1 1.3h-1c0-.4.1-.8.1-1.4v-2.4zm1.9-6.5-.4.4c-.7.9-1.5 1.5-2.4 2.2-.2-.3-.3-.5-.5-.7 1.2-.7 2.1-1.6 2.5-2.4l.8.5zm3.2 4.2h-2.1c-.4 0-.8 0-1.1.1v-.9c.3 0 .7.1 1.1.1h2.1v-1.6h-1.6c-.5 0-.8 0-1.1.1v-.9c.3 0 .6.1 1.1.1h1.6v-.3c0-.6 0-.9-.1-1.2h1c0 .3-.1.6-.1 1.2v.3h1.7c.5 0 .8 0 1.1-.1v.9c-.3 0-.6-.1-1.1-.1h-1.7v1.6h2.4c.5 0 .8 0 1.2-.1v.9c-.3 0-.8-.1-1.2-.1h-2.4v1.6h1.8c.4 0 .8 0 1.1-.1v1c-.3 0-.7-.1-1.1-.1h-1.8v2.2c.5.1 1.2.2 2 .2.5 0 .8 0 1.6-.1-.1.4-.2.5-.3 1h-.9c-2.9 0-4.3-.6-5.3-2-.3 1-.7 1.6-1.3 2.4-.2-.3-.4-.4-.7-.6.8-1 1.2-1.8 1.5-3.1.2-.7.2-1.1.2-1.6l.9.2c-.1.3-.1.3-.2 1.2 0 .2-.1.4-.1.6.4.8.9 1.3 1.7 1.6v-4.4zm9.7.6c-.7 1.1-1.7 2-2.9 2.8-.2-.3-.4-.5-.7-.7 1.2-.6 2.2-1.5 2.8-2.6l.8.5zm5.8-1.7c.5 0 .9 0 1.2-.1v1c-.4 0-.7-.1-1.2-.1h-3.4v2.7c0 .6-.4.9-1.3.9h-1.1c0-.3-.1-.6-.2-.9.5.1.9.1 1.3.1s.5 0 .5-.2v-2.5h-3.6c-.5 0-.9 0-1.3.1v-1c.4 0 .7.1 1.3.1h.7v-1.6c0-.4 0-.7-.1-1.1h1c-.1.4-.1.6-.1 1.1v1.6h2V66c0-.5 0-.8-.1-1.1h1c-.1.3-.1.6-.1 1.1v.3h2.6c.5 0 .8 0 1.1-.1v.9c-.3 0-.6-.1-1.1-.1h-2.6v1.4h3.5zm-.7 3.7c-.7.7-1 .9-1.2 1.2-1.7 1.4-3.7 2.1-6.3 2.3-.1-.4-.2-.6-.4-.9 2 0 3.7-.5 5.2-1.3.9-.5 1.6-1.2 2-1.8l.7.5zm-.7-2.4c.7.9 1.7 1.6 2.8 2.2-.3.3-.4.4-.6.7-1.1-.6-2-1.4-2.9-2.5l.7-.4zm9.8-3.7c-1.9 1-3.2 2.2-3.8 3.7.5-.3 1.2-.6 1.9-.6 1.4 0 2.5.9 2.5 2.8 0 1.8-1.1 3.1-2.9 3.1-2 0-2.9-1.4-2.9-3.4 0-2.7 1.5-4.8 4.7-6.3l.5.7zm-4 4.6v.8c0 1.8.7 2.6 1.8 2.6 1 0 1.8-.7 1.8-1.9s-.6-2-1.8-2c-.7-.1-1.4.2-1.8.5zm10.7-5.3c-.1.2-.2.3-.3.6-.9 1.8-2.1 3.3-3.7 4.5-.2-.3-.4-.5-.7-.8 1.4-1 2.4-2 3.2-3.4.3-.5.4-.9.5-1.2l1 .3zm-1.2 4.6c-.4 0-.8 0-1.2.1v-1c.3 0 .7.1 1.2.1h4c.5 0 .9 0 1.2-.1v.9c0 2.4-.2 4.3-.5 4.9-.2.4-.5.5-1.3.5-.3 0-.7 0-1.4-.1 0-.4-.1-.6-.2-1 .6.1 1.2.2 1.6.2.5 0 .6-.1.7-.7.2-.8.3-2.2.3-3.8H132c-.1.6-.1.8-.2 1.2-.5 2-1.6 3.4-3.7 4.5-.2-.3-.3-.5-.6-.8 1.4-.6 2.4-1.5 2.9-2.5.4-.7.6-1.3.6-2.3h-.8zm3.8-5c.1.3.2.6.4 1 .8 1.5 1.9 2.6 3.4 3.6-.3.3-.4.5-.7.9-1.8-1.3-2.9-2.7-3.9-4.6-.1-.2-.2-.4-.3-.5l1.1-.4zm454 108.5c-.4 0-.8 0-1.2.1v-.9c.3 0 .8.1 1.2.1h3v-1.1c-2.3.2-2.3.2-3.5.2-.1-.3-.2-.5-.3-.8h.4c1.9 0 4-.2 5.7-.4.9-.1 1.2-.2 1.7-.4l.6.8c-.2 0-.2 0-.4.1-1.1.2-2.1.4-3.3.5v1.1h3.2c.5 0 .9 0 1.2-.1v.9c-.3 0-.7-.1-1.2-.1h-.6v1.2h.9c.5 0 .9 0 1.2-.1v.9c-.4-.1-.7-.1-1.2-.1h-.9v1.3h.6c.5 0 .8 0 1.2-.1v.9c-.3 0-.7-.1-1.2-.1h-2.7c.7.7 1.2 1 1.9 1.4.8.4 1.7.8 2.7 1-.2.3-.4.6-.5.9-2.2-.7-3.4-1.5-4.7-2.9v2c0 .6 0 .9.1 1.3h-1c.1-.4.1-.7.1-1.3v-2c-1.3 1.4-2.4 2.1-4.5 2.8-.2-.3-.3-.5-.6-.8 1.1-.3 2-.7 2.9-1.2.6-.4.9-.6 1.6-1.3h-2.5c-.4 0-.9 0-1.2.1v-.9c.3 0 .7.1 1.2.1h.4v-1.3h-.8c-.5 0-.9 0-1.2.1v-.9c.3 0 .7.1 1.2.1h.8v-1.2h-.3zm1.3 1.2h1.8v-1.2h-1.8v1.2zm0 2.1h1.8v-1.3h-1.8v1.3zm4.5-3.3h-1.9v1.2h1.9v-1.2zm0 1.9h-1.9v1.3h1.9v-1.3zm9.6-3.9c0-.5 0-.7-.1-1.1h1.1c-.1.3-.1.6-.1 1.1v.1h3.4c.6 0 .9 0 1.3-.1v.9c-.4 0-.8-.1-1.2-.1h-3.5v.9h2.4c.7 0 1 0 1.3-.1v4.3c-.3 0-.6-.1-1.3-.1h-2.4v1h3.6c.6 0 1 0 1.2-.1v1c-.4 0-.7-.1-1.3-.1h-3.6v.5c0 .6 0 .9.1 1.3h-1.1c.1-.4.1-.7.1-1.3v-.5H600c-.5 0-.9 0-1.2.1v-1c.3.1.7.1 1.2.1h3.4v-1h-2.2c-.7 0-1 0-1.4.1V173c.3 0 .6.1 1.3.1h2.3v-.9h-3.3c-.5 0-.9 0-1.2.1v-.9c.3.1.7.1 1.2.1h3.3v-.1zm-2.6 2.5v1h2.6v-1h-2.6zm0 1.8v1h2.6v-1h-2.6zm6.3-.8v-1h-2.8v1h2.8zm0 1.8v-1h-2.8v1h2.8zm3.8-1.3h1.1c.4-.5.5-.6.8-1.1-.6-.7-.9-1-1.7-1.8l.5-.7.5.5c.6-.9 1-1.6 1.1-2.1l.8.4c-.1.1-.1.2-.3.4-.3.6-.8 1.3-1.1 1.8.3.3.4.4.7.8.8-1.2 1.2-1.8 1.3-2.2l.8.5c-.1.1-.2.2-.4.5-.8 1.2-1.5 2.2-2.1 2.9.9-.1 1.1-.1 1.7-.2-.1-.3-.2-.5-.4-.9l.6-.3c.4.7.7 1.3 1 2.3l-.7.3c-.1-.4-.2-.5-.2-.7h-.3c-.3 0-.3 0-.7.1v3.8c0 .5 0 .9.1 1.2h-1c0-.3.1-.7.1-1.2V176c-.8.1-.8.1-1.3.1s-.5 0-.7.1l-.2-.8zm1.5 1.5c-.2 1.7-.3 2.3-.7 3.4l-.8-.4c.4-.9.6-1.6.7-3.2l.8.2zm2.8-.2c.3 1 .5 1.8.7 2.9l-.8.2c-.1-1.1-.3-2-.6-2.9l.7-.2zm2-3.7c-.4.7-.7 1.2-1.2 1.8-.2-.3-.4-.4-.7-.6.5-.6 1-1.3 1.3-2.1.3-.8.5-1.3.6-1.8l.9.2c-.1.2-.1.2-.3.7l-.3.9h3.8c0 .4 0 .4-.1 1.9 0 1.9-.2 4.3-.5 5.4-.3 1.2-.6 1.4-1.8 1.4-.3 0-.6 0-1.2-.1 0-.4-.1-.6-.2-1 .6.1 1.1.2 1.5.2.6 0 .7-.1.8-.9.3-1.3.5-3.5.5-6h-3.1zm1 4.8c-.5-1.3-.8-1.9-1.5-2.9l.7-.4c.8 1.1 1.1 1.7 1.6 2.9l-.8.4zm5.5 2.4 4.1-8h-4.2v-1h5.5v.7l-4.1 8.3h-1.3zm10.8-4.8c1.1.6 1.8 1.1 1.8 2.5 0 1.5-1.3 2.5-2.9 2.5-1.3 0-2.7-.8-2.7-2.4 0-1.3.8-1.9 1.8-2.5-.9-.5-1.5-1.1-1.5-2.2 0-1.3 1.1-2.3 2.6-2.3 1.6 0 2.5.9 2.5 2.1-.1 1.1-.8 1.8-1.6 2.3zm-1.3.5c-1 .6-1.4 1.2-1.4 1.9 0 1 .7 1.6 1.7 1.6s1.6-.7 1.6-1.5c0-.9-.4-1.3-1.9-2zm.5-.9c.8-.5 1.2-1 1.2-1.7 0-.8-.5-1.4-1.4-1.4-.8 0-1.4.5-1.4 1.3 0 .7.4 1.2 1.6 1.8zm8.6-4.3c-.1.2-.2.3-.3.6-.9 1.8-2.1 3.3-3.7 4.5-.2-.3-.4-.5-.7-.8 1.4-1 2.4-2 3.2-3.4.3-.5.4-.9.5-1.2l1 .3zm-1.2 4.6c-.4 0-.8 0-1.2.1v-1c.3 0 .7.1 1.2.1h4c.5 0 .9 0 1.2-.1v.9c0 2.4-.2 4.3-.5 4.9-.2.4-.5.5-1.3.5-.3 0-.7 0-1.4-.1 0-.4-.1-.6-.2-1 .6.1 1.2.2 1.6.2.5 0 .6-.1.7-.7.2-.8.3-2.2.3-3.8h-2.6c-.1.6-.1.8-.2 1.2-.5 2-1.6 3.4-3.7 4.5-.2-.3-.3-.5-.6-.8 1.4-.6 2.4-1.5 2.9-2.5.4-.7.6-1.3.6-2.3h-.8zm3.8-4.9c.1.3.2.6.4 1 .8 1.5 1.9 2.6 3.4 3.6-.3.3-.4.5-.7.9-1.8-1.3-2.9-2.7-3.9-4.6-.1-.2-.2-.4-.3-.5l1.1-.4zm-57.3-98.6v-1.4c-.4.5-.6.7-1.1 1.1-.1-.4-.2-.5-.4-.8.8-.6 1.5-1.3 2.1-2.1.3-.4.5-.7.6-1l.8.5c-.1.1-.1.2-.3.5-.2.3-.4.6-.7 1v4.7c0 .6 0 1 .1 1.3h-1c0-.4.1-.8.1-1.4v-2.4zm1.9-6.5-.4.4c-.7.9-1.5 1.5-2.4 2.2-.2-.3-.3-.5-.5-.7 1.2-.7 2.1-1.6 2.5-2.4l.8.5zm3.1 4.2h-2.1c-.4 0-.8 0-1.1.1v-.9c.3 0 .7.1 1.1.1h2.1v-1.6H591c-.5 0-.8 0-1.1.1v-.9c.3 0 .6.1 1.1.1h1.6v-.3c0-.6 0-.9-.1-1.2h1c0 .3-.1.6-.1 1.2v.3h1.7c.5 0 .8 0 1.1-.1v.9c-.3 0-.6-.1-1.1-.1h-1.7v1.6h2.4c.5 0 .8 0 1.2-.1v.9c-.3 0-.8-.1-1.2-.1h-2.4v1.6h1.8c.4 0 .8 0 1.1-.1v1c-.3 0-.7-.1-1.1-.1h-1.8v2.2c.5.1 1.2.2 2 .2.5 0 .8 0 1.6-.1-.1.4-.2.5-.3 1h-.9c-2.9 0-4.3-.6-5.3-2-.3 1-.7 1.6-1.3 2.4-.2-.3-.4-.4-.7-.6.8-1 1.2-1.8 1.5-3.1.2-.7.2-1.1.2-1.6l.9.2c-.1.3-.1.3-.2 1.2 0 .2-.1.4-.1.6.4.8.9 1.3 1.7 1.6v-4.4zm9.8.6c-.7 1.1-1.7 2-2.9 2.8-.2-.3-.4-.5-.7-.7 1.2-.6 2.2-1.5 2.8-2.6l.8.5zm5.7-1.7c.5 0 .9 0 1.2-.1v1c-.4 0-.7-.1-1.2-.1h-3.4v2.7c0 .6-.4.9-1.3.9h-1.1c0-.3-.1-.6-.2-.9.5.1.9.1 1.3.1s.5 0 .5-.2v-2.5h-3.6c-.5 0-.9 0-1.3.1v-1c.4 0 .7.1 1.3.1h.7v-1.6c0-.4 0-.7-.1-1.1h1c-.1.4-.1.6-.1 1.1v1.6h2V66c0-.5 0-.8-.1-1.1h1c-.1.3-.1.6-.1 1.1v.3h2.6c.5 0 .8 0 1.1-.1v.9c-.3 0-.6-.1-1.1-.1h-2.6v1.4h3.5zm-.6 3.7c-.7.7-1 .9-1.2 1.2-1.7 1.4-3.7 2.1-6.3 2.3-.1-.4-.2-.6-.4-.9 2 0 3.7-.5 5.2-1.3.9-.5 1.6-1.2 2-1.8l.7.5zm-.8-2.4c.7.9 1.7 1.6 2.8 2.2-.3.3-.4.4-.6.7-1.1-.6-2-1.4-2.9-2.5l.7-.4zm8.5.2c1.1.6 1.8 1.1 1.8 2.5 0 1.5-1.3 2.5-2.9 2.5-1.3 0-2.7-.8-2.7-2.4 0-1.3.8-1.9 1.8-2.5-.9-.5-1.5-1.1-1.5-2.2 0-1.3 1.1-2.3 2.6-2.3 1.6 0 2.5.9 2.5 2.1 0 1.2-.7 1.8-1.6 2.3zm-1.2.5c-1 .6-1.4 1.2-1.4 1.9 0 1 .7 1.6 1.7 1.6s1.6-.7 1.6-1.5c0-.9-.4-1.2-1.9-2zm.4-.9c.8-.5 1.2-1 1.2-1.7 0-.8-.5-1.4-1.4-1.4-.8 0-1.4.5-1.4 1.3s.4 1.3 1.6 1.8zm8.7-4.2c-.1.2-.2.3-.3.6-.9 1.8-2.1 3.3-3.7 4.5-.2-.3-.4-.5-.7-.8 1.4-1 2.4-2 3.2-3.4.3-.5.4-.9.5-1.2l1 .3zm-1.3 4.6c-.4 0-.8 0-1.2.1v-1c.3 0 .7.1 1.2.1h4c.5 0 .9 0 1.2-.1v.9c0 2.4-.2 4.3-.5 4.9-.2.4-.5.5-1.3.5-.3 0-.7 0-1.4-.1 0-.4-.1-.6-.2-1 .6.1 1.2.2 1.6.2.5 0 .6-.1.7-.7.2-.8.3-2.2.3-3.8h-2.6c-.1.6-.1.8-.2 1.2-.5 2-1.6 3.4-3.7 4.5-.2-.3-.3-.5-.6-.8 1.4-.6 2.4-1.5 2.9-2.5.4-.7.6-1.3.6-2.3h-.8zm3.8-5c.1.3.2.6.4 1 .8 1.5 1.9 2.6 3.4 3.6-.3.3-.4.5-.7.9-1.8-1.3-2.9-2.7-3.9-4.6-.1-.2-.2-.4-.3-.5l1.1-.4z"/><path class="st59" d="M571.1 40.1v73.7"/><path style="fill:none;stroke:#0087c5;stroke-width:2.5732;stroke-linecap:round;stroke-linejoin:round;stroke-dasharray:0,5.1465" d="M571.1 220v-93.4"/><path style="fill:#fff;stroke:#0091b0;stroke-width:1.008" d="M492.7 207.1h156.8v24.5H492.7z"/><path class="st64" d="M518.2 221.9v-10.8h5.2v1.1h-4.1v9.7h-1.1zm9.6-1.2c.5.3 2.1 1.5 2.4 1.8l-.8 1.1c-.3-.4-1-1-1.6-1.5v3.7h-1.4v-3.6c-.7 1-1.5 1.9-2.2 2.5-.2-.3-.7-.8-1-1 1.1-.7 2.2-2 2.9-3.3h-2.6v-1.3h2.8v-1.4h-3v-1.2h1.7c-.1-.6-.3-1.4-.6-2.1l1-.3h-1.8v-1.2h2.7v-1.7l1.8.1c0 .1-.1.2-.4.2v1.3h2.7v1.2h-1.8l1.3.4c0 .1-.2.2-.4.2-.2.5-.5 1.3-.8 1.8h2v1.2h-2.8c-.1 0-.1.1-.3.1v1.3h2.8v1.3h-2.8v.4zm-.1-4.3c.3-.6.6-1.6.8-2.3h-2.8c.3.7.6 1.7.7 2.3l-.3.1h2l-.4-.1zm10.1.1v1.4h-1.7v7.9h-1.4v-7.9h-2c0 1.8 0 5.5-2.5 7.9-.2-.3-.7-.8-1-1 1.9-1.9 2.1-4.5 2.1-6.7v-5.3l.8.2c1.5-.4 3.1-1.1 4-1.7l1.4 1.1c-.1.1-.2.1-.4.1-1.1.6-2.9 1.2-4.5 1.6v2.4h5.2zm15.4.9v1.5h-6.3v6.9h-1.6v-6.9h-6.2v-1.5h6.2V214c-1.6.2-3.3.4-4.9.5 0-.4-.2-1-.4-1.3 3.7-.3 8-1 10.5-1.7l1.2 1.3c-.1 0-.1.1-.2.1h-.2c-1.2.3-2.6.6-4.2.9h.2c0 .1-.1.2-.4.3v3.4h6.3zm10.7.7c.2 1.3.4 2.5.8 3.6.6-.9 1.1-1.9 1.4-3l1.6.4c0 .1-.2.2-.4.2-.5 1.4-1.2 2.7-2 3.7.5.9 1 1.4 1.6 1.4.4 0 .6-.6.6-2.2.3.3.7.5 1.1.6-.2 2.2-.7 2.8-1.8 2.8-1 0-1.8-.6-2.4-1.7-.7.7-1.4 1.2-2.2 1.7-.2-.3-.6-.7-.9-1 .9-.5 1.8-1.2 2.5-2-.5-1.3-.9-3-1.1-4.8h-6v1.5c0 1.8-.2 4.4-1.5 6.2-.2-.2-.8-.7-1.1-.9 1.2-1.6 1.3-3.7 1.3-5.3v-2.7h7.3c0-.4-.1-.8-.1-1.3h-8v-1.2h2.4v-2.5l1.7.1c0 .1-.1.2-.4.2v2.1h2.7v-3.2l1.8.1c0 .1-.1.2-.4.2v.6h4.5v1.1h-4.5v1.1h5.9v1.2h-2.5c.6.4 1.2.8 1.5 1.2l-.1.1h1v1.2h-4.3zm-5.1 3.1c0 .1-.1.2-.3.2-.3.9-.8 2-1.3 2.6-.2-.2-.6-.4-.9-.6.5-.6.9-1.6 1.2-2.6l1.3.4zm3.4-1h-1.9v4c0 1-.3 1.3-2 1.3-.1-.3-.2-.8-.4-1.1h1c.2 0 .2 0 .2-.2v-4h-1.9v-1.1h5.1v1.1zm-.6.7c.4.7.9 1.7 1.1 2.3l-1 .4c-.2-.6-.6-1.6-1.1-2.3l1-.4zm3.4-5.3h-1c0 .1-.2.1-.3.2v1.1h1.9l-1.2-.9.6-.4zm10.7-.8c0 .1-.2.2-.4.2-.4 2.2-1.2 3.8-4.9 4.6-.1-.4-.5-.9-.8-1.2 3.3-.6 3.9-1.9 4.2-3.8l1.9.2zm1.7 6.4v2.7h6.1v1.3h-13.7v-1.3h6.1v-2.7h-4.4v-1.3H582v1.3h-4.6zm-5.8-6.9v2h-1.4V213h5.8v-1.8l1.9.1c0 .1-.1.2-.4.3v1.4h5.8v3.3h-1.5v-2h-10.2zm6.1.2 1.8.1c0 .1-.1.2-.4.3v2.4c0 .4.1.5.7.5h2c.4 0 .5-.1.6-.9.3.2.9.4 1.3.5-.2 1.4-.6 1.7-1.7 1.7h-2.3c-1.6 0-2-.4-2-1.7v-2.9zm7.9 1c.9.4 2.1 1 2.7 1.5l-.8 1.2c-.6-.5-1.7-1.2-2.7-1.6l.8-1.1zm13.8 2h-2.5c.7 1.2 1.7 2.3 2.8 2.9-.3.3-.8.8-1 1.2-.7-.5-1.4-1.2-2-2v3h-4.6v1.3c0 .4.2.5 1.1.5h3.1c.7 0 .9-.2.9-1.4.3.2.9.4 1.3.5-.2 1.8-.6 2.2-2.1 2.2h-3.3c-1.9 0-2.4-.4-2.4-1.8v-2.5h4.6V220h-3.8v-.7c-.7.9-1.5 1.8-2.3 2.4-.1-.2-.4-.4-.6-.7-.6 1.5-1.4 3.1-2 4.2.1.1.1.2.1.3v.2l-1.5-1c.7-1.2 1.8-3.2 2.5-5l.9.7c1-.7 1.9-1.7 2.5-2.8h-2.5v-1.3h2.7v-1.7h-2v-1.3h2v-1.8l1.8.1c0 .1-.1.2-.4.2v1.5h2.7v-1.8l1.8.1c0 .1-.1.2-.4.3v1.5h2.2v1.3h-2.2v1.7h2.7v1.1zm-12.9-6.2c.9.4 2.1 1.1 2.7 1.6l-.9 1.2c-.6-.5-1.7-1.3-2.7-1.7l.9-1.1zm6.1 6.2c-.2.5-.5.9-.7 1.4h4.3c-.3-.4-.5-.9-.7-1.4h-2.9zm0-3.1v1.7h2.7v-1.7h-2.7zm12.7.5v10.8h-5.2v-1.1h4.1v-9.7h1.1zm5.9 2.5c-.5.8-1 1.5-1.5 2.1-.1-.4-.5-1.1-.7-1.5 1.3-1.5 2.7-4.1 3.5-6.7l1.7.6c-.1.1-.2.2-.4.2-.4 1-.8 2-1.2 2.9l.4.1c0 .1-.1.2-.4.2v10.4h-1.4v-8.3zm2.3 1.3h10.4v2.8h-1.3v-1.7h-7.8v1.7h-1.3v-2.8zm.3-6h4.2v-1.4l1.8.1c0 .1-.1.2-.4.2v1.1h4.3v1.3h-10v-1.3zm8.8 5.2h-7.7v-3.2h7.7v3.2zm-7.2 4v-1.2h6.6v1.2h-2.6v2.3c0 1.5-.7 1.5-3.7 1.5-.1-.4-.3-1-.5-1.3h1.8c.9 0 .9 0 .9-.3v-2.3h-2.5zm.9-6.2v1.2h4.9v-1.2h-4.9z"/><path style="fill:#fff;stroke:#0091b0;stroke-width:.9439" d="M492.7 99.7h156.8v44.5H492.7z"/><path class="st64" d="M504.3 132.5v-10.8h5.2v1.1h-4.1v9.7h-1.1zm19.5-7.7h-6.2v1.4h5.5v8.5c0 1.4-.6 1.6-3.5 1.6-.1-.4-.3-.9-.5-1.3h1.5c.9 0 1 0 1-.4v-7.2h-9.4v8.7h-1.5V126h5.3v-1.4h-6.1v-1.4h6.1v-1.6l1.9.1c0 .1-.1.2-.4.3v1.2h6.2v1.6zm-3.1 8.7h-3.2v2.8h-1.4v-2.8H513v-1.2h3.1v-1.4h-2.9v-1.2h1.4c-.2-.5-.4-1.1-.7-1.6l1.2-.3c.4.5.7 1.3.8 1.7l-.5.2h2.7c-.2 0-.3-.1-.4-.1.3-.5.6-1.3.8-1.8l1.5.4c0 .1-.2.2-.4.2-.2.4-.5.9-.8 1.4h1.7v1.2h-3.1v1.4h3.2v1.1zm7.4 1.4v-10l-2 1.1-.4-1.3 2.6-1.4h1.5v11.6h-1.7zm7.2 0v-10l-2 1.1-.4-1.3 2.6-1.4h1.5v11.6h-1.7zm18.4-3.1h-5c1.3 1.3 3.4 2.4 5.4 3-.3.3-.8.9-1 1.2-2-.7-4.1-2.1-5.6-3.6v4H546v-3.9c-1.4 1.6-3.6 3-5.5 3.7-.2-.4-.6-.9-1-1.2 1.9-.6 4-1.7 5.3-3.1h-5v-1.3h6.1V129l1.9.1c0 .1-.1.2-.4.2v1.2h6.2v1.3zm-3.4-8.7 1.1.6c0 .1-.1.1-.2.2-.7 1.3-1.7 2.3-3 3.2 1.7.7 3.6 1.2 5.7 1.4-.3.3-.7.9-.9 1.3-2.3-.3-4.4-1-6.2-1.9-1.9 1.1-4.1 1.7-6.4 2.2-.1-.4-.4-1-.7-1.3 2-.3 4-.9 5.7-1.7-.7-.5-1.4-1.1-2-1.7-.7.6-1.5 1.2-2.4 1.7-.2-.4-.7-.9-1-1.1 2.3-1.1 3.9-2.7 4.7-4.2l1.8.3c0 .1-.2.2-.4.2-.2.3-.4.6-.6.8h4.8zm-5.8 1.3c.6.8 1.3 1.4 2.3 1.9.9-.6 1.7-1.2 2.2-1.9h-4.5zm24.6-.2h-4.8v2.1h4.1v10h-1.5v-.9h-9.7v.9h-1.4v-10h3.6v-2.1H555v-1.4h14.1v1.4zm-11.9 9.8h9.7v-2.6c-.2.3-.6.4-1 .4h-1.4c-1.3 0-1.6-.4-1.6-1.7v-2.4h-2v.2c0 1.5-.4 3.5-2.3 4.8-.2-.2-.8-.7-1.1-.9 2.1-1.4 2.1-3.2 2.1-4.2h-2.3v6.4zm5.6-7.8v-2.1h-2v2.1h2zm2.8 4.3c.3 0 .4-.1.4-1 .2.1.5.3.8.4v-2.2h-2.6v2.4c0 .4.1.4.4.4h1zm7.6 4.4v-10l-2 1.1-.4-1.3 2.6-1.4h1.5v11.6h-1.7zm10.7 0h-1.7v-3.1h-4.9v-1.2l4.6-7.4h2v7.2h1.5v1.4h-1.5v3.1zm-4.9-4.4h3.2V127c0-.7 0-1.4.1-2h-.1c-.4.7-.6 1.3-1 1.9l-2.2 3.6zm20.7-7.3v1.5h-6.1v9.7c0 1.8-.8 1.9-4.4 1.9-.1-.4-.4-1.1-.6-1.5h2.2c1.1 0 1.2 0 1.2-.5v-9.7h-6v-1.5h13.7zm2.4-.3h10.7v13.4h-1.5v-1h-7.6v1h-1.5v-13.4zm9.1 1.4h-7.6v2.2h7.6v-2.2zm0 3.6h-7.6v2.3h7.6v-2.3zm-7.6 5.9h7.6v-2.3h-7.6v2.3zm16.6-8.3v10.8H615v-1.1h4.1v-9.7h1.1zm4.9 2.5c-.5.8-1 1.5-1.5 2.1-.1-.4-.5-1.1-.7-1.5 1.3-1.5 2.7-4.1 3.5-6.7l1.7.6c-.1.1-.2.2-.4.2-.4 1-.8 2-1.2 2.9l.4.1c0 .1-.1.2-.4.2v10.4h-1.4V128zm2.3 1.3h10.4v2.8h-1.3v-1.7h-7.8v1.7h-1.3v-2.8zm.3-6h4.2v-1.4l1.8.1c0 .1-.1.2-.4.2v1.1h4.3v1.3h-10v-1.3zm8.9 5.2h-7.7v-3.2h7.7v3.2zm-7.2 4v-1.2h6.6v1.2h-2.6v2.3c0 1.5-.7 1.5-3.7 1.5-.1-.4-.3-1-.5-1.3h1.8c.9 0 .9 0 .9-.3v-2.3h-2.5zm.8-6.2v1.2h4.9v-1.2h-4.9zm-76.7-16.5v-2.4l1.3.1c0 .1-.1.1-.2.2v9.1h-1v-2.3c-.9.4-1.7.7-2.3 1 0 .1-.1.2-.1.2l-.5-1.1c.7-.2 1.8-.6 2.9-1.1v-2.8H551v-1h2.5zm3.6 5.3c0 .6.1.7.5.7h1.3c.5 0 .5-.4.6-2.2.2.2.7.4.9.5-.1 1.9-.4 2.7-1.4 2.7h-1.6c-1.1 0-1.4-.4-1.4-1.6v-7.6l1.3.1c0 .1-.1.1-.2.2v3.1c.9-.5 1.8-1.2 2.4-1.8l.8.9s-.1.1-.2.1c-.8.6-1.9 1.2-2.9 1.8v3.1zm13.6-.9-2.5.2v2.5h-1v-2.4l-5.7.5-.1-1 5.8-.5v-6.3l1.3.1c0 .1-.1.1-.2.2v5.9l2.4-.2v1zm-7.9-4c.9.4 2.1 1 2.7 1.4l-.6.8c-.6-.4-1.8-1.1-2.7-1.5l.6-.7zm.9-2.6c.8.3 2 .9 2.6 1.3l-.6.8c-.5-.4-1.7-1-2.5-1.4l.5-.7zm10.9 4c.3.8.8 1.5 1.4 2.1.6-.6 1.1-1.3 1.4-2.2l1.2.4c0 .1-.1.1-.3.1-.4.9-.9 1.7-1.5 2.3 1.1.8 2.4 1.3 4.1 1.6-.2.2-.5.7-.6.9-1.8-.3-3.1-.9-4.2-1.9-1.1.9-2.5 1.5-4.2 1.9-.1-.2-.4-.7-.6-.9 1.6-.3 3-.9 4.1-1.7-.6-.7-1.1-1.5-1.5-2.5l.7-.1zm.5-1.4c0 .1-.1.1-.3.1-.7.9-1.8 1.8-2.8 2.4-.2-.2-.5-.6-.7-.7 1-.5 2.1-1.4 2.7-2.2l1.1.4zm5.4-1.7v1h-9.2v-1h4.1v-1.3l1.2.1c0 .1-.1.1-.2.2v1.1h4.1zm-.7 4.1c-.5-.7-1.7-1.7-2.7-2.4l.8-.6c1 .6 2.2 1.6 2.8 2.3l-.9.7zm4.4-1.3v3.4c.7 1.1 2.1 1.1 3.9 1.1 1.2 0 2.6 0 3.5-.1-.1.2-.3.7-.3 1-.8 0-1.9.1-3 .1-2.2 0-3.5 0-4.5-1.2-.5.4-1 .9-1.5 1.2 0 .1 0 .2-.1.2l-.5-1c.5-.3 1.1-.7 1.6-1.1v-2.5h-1.4v-.9h2.3zm-1.6-3.8c.7.5 1.4 1.1 1.8 1.6l-.7.7c-.3-.5-1.1-1.2-1.8-1.7l.7-.6zm3.5 6.1v1.7h-.9v-5.4h2.7c-.6-.3-1.2-.5-1.7-.8l.6-.5c.4.1.9.3 1.4.5.4-.2.8-.5 1.2-.7h-4.1v-.8h5l.1-.1.7.5c0 .1-.1.1-.2.1-.5.4-1.2.9-1.9 1.3.3.1.5.3.7.4h1.3v4.5c0 .8-.4.9-1.8.9 0-.2-.1-.6-.3-.8h.7c.4 0 .4 0 .4-.2v-.7h-1.6v1.6h-.9v-1.6h-1.4zm1.5-3h-1.5v.8h1.5v-.8zm-1.5 2.3h1.5v-.8h-1.5v.8zm4-1.5v-.8h-1.6v.8h1.6zm-1.6 1.5h1.6v-.8h-1.6v.8z"/><path d="M423.3 173.4c-.4 0-.8 0-1.2.1v-.9c.3 0 .8.1 1.2.1h3v-1.1c-2.3.2-2.3.2-3.5.2-.1-.3-.2-.5-.3-.8h.4c1.9 0 4-.2 5.7-.4.9-.1 1.2-.2 1.7-.4l.6.8c-.2 0-.2 0-.4.1-1.1.2-2.1.4-3.3.5v1.1h3.2c.5 0 .9 0 1.2-.1v.9c-.3 0-.7-.1-1.2-.1h-.4v1.2h.9c.5 0 .9 0 1.2-.1v.9c-.4-.1-.7-.1-1.2-.1h-.9v1.3h.6c.5 0 .8 0 1.2-.1v.9c-.3 0-.7-.1-1.2-.1h-2.7c.7.7 1.2 1 1.9 1.4.8.4 1.7.8 2.7 1-.2.3-.4.6-.5.9-2.2-.7-3.4-1.5-4.7-2.9v2c0 .6 0 .9.1 1.3h-1c.1-.4.1-.7.1-1.3v-2c-1.3 1.4-2.4 2.1-4.5 2.8-.2-.3-.3-.5-.6-.8 1.1-.3 2-.7 2.9-1.2.6-.4.9-.6 1.6-1.3h-2.5c-.4 0-.9 0-1.2.1v-.9c.3 0 .7.1 1.2.1h.4v-1.3h-.8c-.5 0-.9 0-1.2.1v-.9c.3 0 .7.1 1.2.1h.8v-1.2h-.5zm1.3 1.2h1.8v-1.2h-1.8v1.2zm0 2.1h1.8v-1.3h-1.8v1.3zm4.5-3.3h-1.9v1.2h1.9v-1.2zm0 1.9h-1.9v1.3h1.9v-1.3zm9.6-3.9c0-.5 0-.7-.1-1.1h1.1c-.1.3-.1.6-.1 1.1v.1h3.4c.6 0 .9 0 1.3-.1v.9c-.4 0-.8-.1-1.2-.1h-3.5v.9h2.4c.7 0 1 0 1.3-.1v4.3c-.3 0-.6-.1-1.3-.1h-2.4v1h3.6c.6 0 1 0 1.2-.1v1c-.4 0-.7-.1-1.3-.1h-3.6v.5c0 .6 0 .9.1 1.3h-1.1c.1-.4.1-.7.1-1.3v-.5h-3.4c-.5 0-.9 0-1.2.1v-1c.3.1.7.1 1.2.1h3.4v-1h-2.2c-.7 0-1 0-1.4.1V173c.3 0 .6.1 1.3.1h2.3v-.9h-3.3c-.5 0-.9 0-1.2.1v-.9c.3.1.7.1 1.2.1h3.3v-.1zm-2.6 2.5v1h2.6v-1h-2.6zm0 1.8v1h2.6v-1h-2.6zm6.3-.8v-1h-2.8v1h2.8zm0 1.8v-1h-2.8v1h2.8zm3.9-1.3h1.1c.4-.5.5-.6.8-1.1-.6-.7-.9-1-1.7-1.8l.5-.7.5.5c.6-.9 1-1.6 1.1-2.1l.8.4c-.1.1-.1.2-.3.4-.3.6-.8 1.3-1.1 1.8.3.3.4.4.7.8.8-1.2 1.2-1.8 1.3-2.2l.8.5c-.1.1-.2.2-.4.5-.8 1.2-1.5 2.2-2.1 2.9.9-.1 1.1-.1 1.7-.2-.1-.3-.2-.5-.4-.9l.6-.3c.4.7.7 1.3 1 2.3l-.7.3c-.1-.4-.2-.5-.2-.7h-.3c-.3 0-.3 0-.7.1v3.8c0 .5 0 .9.1 1.2h-1c0-.3.1-.7.1-1.2V176c-.8.1-.8.1-1.3.1s-.5 0-.7.1l-.2-.8zm1.4 1.5c-.2 1.7-.3 2.3-.7 3.4l-.8-.4c.4-.9.6-1.6.7-3.2l.8.2zm2.8-.2c.3 1 .5 1.8.7 2.9l-.8.2c-.1-1.1-.3-2-.6-2.9l.7-.2zm2-3.7c-.4.7-.7 1.2-1.2 1.8-.2-.3-.4-.4-.7-.6.5-.6 1-1.3 1.3-2.1.3-.8.5-1.3.6-1.8l.9.2c-.1.2-.1.2-.3.7l-.3.9h3.8c0 .4 0 .4-.1 1.9 0 1.9-.2 4.3-.5 5.4-.3 1.2-.6 1.4-1.8 1.4-.3 0-.6 0-1.2-.1 0-.4-.1-.6-.2-1 .6.1 1.1.2 1.5.2.6 0 .7-.1.8-.9.3-1.3.5-3.5.5-6h-3.1zm1 4.8c-.5-1.3-.8-1.9-1.5-2.9l.7-.4c.8 1.1 1.1 1.7 1.6 2.9l-.8.4zm10.4-6.4c-1.9 1-3.2 2.2-3.8 3.7.5-.3 1.2-.6 1.9-.6 1.4 0 2.5.9 2.5 2.8 0 1.8-1.1 3.1-2.9 3.1-2 0-2.9-1.4-2.9-3.4 0-2.7 1.5-4.8 4.7-6.3l.5.7zm-4.1 4.7v.8c0 1.8.7 2.6 1.8 2.6 1 0 1.8-.7 1.8-1.9s-.6-2-1.8-2c-.6-.1-1.3.1-1.8.5zm10.8-5.4c-.1.2-.2.3-.3.6-.9 1.8-2.1 3.3-3.7 4.5-.2-.3-.4-.5-.7-.8 1.4-1 2.4-2 3.2-3.4.3-.5.4-.9.5-1.2l1 .3zm-1.3 4.6c-.4 0-.8 0-1.2.1v-1c.3 0 .7.1 1.2.1h4c.5 0 .9 0 1.2-.1v.9c0 2.4-.2 4.3-.5 4.9-.2.4-.5.5-1.3.5-.3 0-.7 0-1.4-.1 0-.4-.1-.6-.2-1 .6.1 1.2.2 1.6.2.5 0 .6-.1.7-.7.2-.8.3-2.2.3-3.8H471c-.1.6-.1.8-.2 1.2-.5 2-1.6 3.4-3.7 4.5-.2-.3-.3-.5-.6-.8 1.4-.6 2.4-1.5 2.9-2.5.4-.7.6-1.3.6-2.3h-.7zm3.8-4.9c.1.3.2.6.4 1 .8 1.5 1.9 2.6 3.4 3.6-.3.3-.4.5-.7.9-1.8-1.3-2.9-2.7-3.9-4.6-.1-.2-.2-.4-.3-.5l1.1-.4zm-50.2-98.6v-1.4c-.4.5-.6.7-1.1 1.1-.1-.4-.2-.5-.4-.8.8-.6 1.5-1.3 2.1-2.1.3-.4.5-.7.6-1l.8.5c-.1.1-.1.2-.3.5-.2.3-.4.6-.7 1v4.7c0 .6 0 1 .1 1.3h-1c0-.4.1-.8.1-1.4v-2.4zm1.9-6.5-.4.4c-.7.9-1.5 1.5-2.4 2.2-.2-.3-.3-.5-.5-.7 1.2-.7 2.1-1.6 2.5-2.4l.8.5zm3.2 4.2h-2.1c-.4 0-.8 0-1.1.1v-.9c.3 0 .7.1 1.1.1h2.1v-1.6h-1.6c-.5 0-.8 0-1.1.1v-.9c.3 0 .6.1 1.1.1h1.6v-.3c0-.6 0-.9-.1-1.2h1c0 .3-.1.6-.1 1.2v.3h1.7c.5 0 .8 0 1.1-.1v.9c-.3 0-.6-.1-1.1-.1h-1.7v1.6h2.4c.5 0 .8 0 1.2-.1v.9c-.3 0-.8-.1-1.2-.1h-2.4v1.6h1.8c.4 0 .8 0 1.1-.1v1c-.3 0-.7-.1-1.1-.1h-1.8v2.2c.5.1 1.2.2 2 .2.5 0 .8 0 1.6-.1-.1.4-.2.5-.3 1h-.9c-2.9 0-4.3-.6-5.3-2-.3 1-.7 1.6-1.3 2.4-.2-.3-.4-.4-.7-.6.8-1 1.2-1.8 1.5-3.1.2-.7.2-1.1.2-1.6l.9.2c-.1.3-.1.3-.2 1.2 0 .2-.1.4-.1.6.4.8.9 1.3 1.7 1.6v-4.4zm9.7.6c-.7 1.1-1.7 2-2.9 2.8-.2-.3-.4-.5-.7-.7 1.2-.6 2.2-1.5 2.8-2.6l.8.5zm5.8-1.7c.5 0 .9 0 1.2-.1v1c-.4 0-.7-.1-1.2-.1H440v2.7c0 .6-.4.9-1.3.9h-1.1c0-.3-.1-.6-.2-.9.5.1.9.1 1.3.1s.5 0 .5-.2v-2.5h-3.6c-.5 0-.9 0-1.3.1v-1c.4 0 .7.1 1.3.1h.7v-1.6c0-.4 0-.7-.1-1.1h1c-.1.4-.1.6-.1 1.1v1.6h2V66c0-.5 0-.8-.1-1.1h1c-.1.3-.1.6-.1 1.1v.3h2.6c.5 0 .8 0 1.1-.1v.9c-.3 0-.6-.1-1.1-.1h-2.6v1.4h3.6zm-.7 3.7c-.7.7-1 .9-1.2 1.2-1.7 1.4-3.7 2.1-6.3 2.3-.1-.4-.2-.6-.4-.9 2 0 3.7-.5 5.2-1.3.9-.5 1.6-1.2 2-1.8l.7.5zm-.7-2.4c.7.9 1.7 1.6 2.8 2.2-.3.3-.4.4-.6.7-1.1-.6-2-1.4-2.9-2.5l.7-.4zm5.1 4.8c1.9-1 3.2-2.1 3.8-3.7-.5.3-1.2.6-1.9.6-1.4 0-2.5-.9-2.5-2.8 0-1.8 1.1-3.1 2.9-3.1 2 0 2.9 1.4 2.9 3.4 0 2.7-1.5 4.8-4.7 6.3l-.5-.7zm4.1-4.7V69c0-1.8-.7-2.6-1.8-2.6-1 0-1.8.7-1.8 1.9s.6 2 1.8 2c.6.1 1.3-.1 1.8-.5zm7.6-4.5c-.1.2-.2.3-.3.6-.9 1.8-2.1 3.3-3.7 4.5-.2-.3-.4-.5-.7-.8 1.4-1 2.4-2 3.2-3.4.3-.5.4-.9.5-1.2l1 .3zm-1.3 4.6c-.4 0-.8 0-1.2.1v-1c.3 0 .7.1 1.2.1h4c.5 0 .9 0 1.2-.1v.9c0 2.4-.2 4.3-.5 4.9-.2.4-.5.5-1.3.5-.3 0-.7 0-1.4-.1 0-.4-.1-.6-.2-1 .6.1 1.2.2 1.6.2.5 0 .6-.1.7-.7.2-.8.3-2.2.3-3.8h-2.6c-.1.6-.1.8-.2 1.2-.5 2-1.6 3.4-3.7 4.5-.2-.3-.3-.5-.6-.8 1.4-.6 2.4-1.5 2.9-2.5.4-.7.6-1.3.6-2.3h-.8zm3.8-5c.1.3.2.6.4 1 .8 1.5 1.9 2.6 3.4 3.6-.3.3-.4.5-.7.9-1.8-1.3-2.9-2.7-3.9-4.6-.1-.2-.2-.4-.3-.5l1.1-.4z"/><path class="st59" d="M406.9 113.8V40.1"/><path style="fill:none;stroke:#6a8db0;stroke-width:3.431;stroke-dasharray:3.7955,1.8978" d="M406.9 225.6V112.2"/><path class="st67" d="M328.4 99.7h156.8v44.5H328.4z"/><path class="st50" d="M392.8 117.2c-2 0-2.2-1.8-2.2-2.8v-.5h1v.5c0 .7.1 1.9 1.2 1.9 1.1 0 1.2-1.2 1.2-1.8V108h1.1v6.5c0 1.4-.7 2.7-2.3 2.7zm9.1-.2c-.1-.5-.2-.8-.2-1.5v-.8c0-1.2-.7-1.5-1.4-1.5h-2.7v3.9h-1v-9h4c1.7 0 2.4 1.3 2.4 2.4 0 .7-.2 1.4-.7 1.8-.2.2-.5.3-.7.4.3.1.6.2.8.6.3.5.3 1 .3 1.3v.7c0 .4 0 .8.1 1 .1.3.1.4.3.5v.2h-1.2zm-1.5-8.1h-2.8v3.4h2.7c1 0 1.6-.8 1.6-1.7 0-1-.5-1.7-1.5-1.7zm3.5 6.6c.6-.7 1.2-1.5 1.8-3.2.5-1.5.7-2.7.8-3.6l1 .3c.1 0 .3.1.3.2s-.2.2-.4.2c-.3 1.7-.6 3.1-1.5 4.9-.4.8-.6 1.1-1.1 1.8l-.9-.6zm6.7-6.6c.6.8 1.2 1.6 1.9 3.2.7 1.5.9 2.3 1.1 3l-1 .5c-.3-1.1-.6-2.2-1.3-3.8-.7-1.3-1.1-1.9-1.5-2.4l.8-.5zm1.7.3c-.4-.5-.9-.9-1.1-1.1l.5-.6c.1.1.7.6 1.1 1.1l-.5.6zm1.3-.8c-.4-.5-.9-.9-1.2-1.1l.5-.6c.3.3.8.7 1.1 1.1l-.4.6zm8.7.4c-.5.4-.5.4-.7.6-.7 1.5-1 2.1-1.6 3 1.1 1 2.2 2 3.1 3.5l-.8.7c-.3-.6-.7-1.2-1.5-2.1l-1.4-1.4c-1.5 1.7-2.7 2.5-4.2 3.2l-.7-.8c1-.4 2.2-.8 3.7-2.4 1.5-1.6 2-2.9 2.5-4h-4.8v-.9h5.2c.2 0 .4-.2.5-.3l.7.9zm-89.1 13.9v13.6h-1v-14.5h4.6v.9h-3.6zm16.4 13h-6.2c-1.1 0-1.2-.6-1.2-1.1 0-.5.4-6.7.5-7.9h-1.3c0 1.2-.2 3-.5 4.6-.5 2.3-1.1 3.7-1.9 4.9l-1-.6c1.7-2.7 2.2-5.3 2.3-8.9h-2.1v-1h2.1v-3.6l1.2.1c.2 0 .4.1.4.2s0 .1-.4.4v2.9h2.4c-.1 1.9-.1 2.5-.4 7.1 0 .2-.1 1.1-.1 1.2 0 .8.4.8.9.8h5.1c1.2 0 1.4-.1 1.7-1.5l1 .5c-.5 1.5-.6 1.9-2.5 1.9zm.1-2.5v-.6h-3.3v.7h-1v-10.1h5.4v10.1h-1.1zm0-9.1h-3.3v3.3h3.3v-3.3zm0 4.2h-3.3v3.3h3.3v-3.3zm5.5 6.1v1.6H354v-11.1l1.2.1c.1 0 .3 0 .3.2 0 .1-.1.2-.4.3v7.8h4.2v-11.1l1.3.1c.2 0 .3.1.3.2s-.2.2-.4.3v10.5h4.3v-8.7l1.3.2c.1 0 .3 0 .3.2 0 .1-.2.2-.4.4v10.5h-1.2v-1.5h-9.6zm17.6-10.7c-1.3 3-2.3 4.7-3.5 6.1l-1-.7c1.5-1.7 3-4.5 3.6-6.6l1.3.7c.1 0 .2.1.2.2-.1.1-.4.2-.6.3zm7.6 11.9c-.4-.8-.6-1.1-1.1-1.8-1 .2-3.2.6-4.8.8-1.1.2-2.7.4-4.8.7-.1.1-.2.4-.4.4-.1 0-.2-.1-.2-.2l-.3-1.4h.5c.3 0 1.5-.2 1.7-.2 1.8-3.4 2.8-6.1 3.5-7.8l1.2.6c.2.1.2.2.2.2 0 .2-.2.2-.5.3-1.4 3.2-2 4.4-3.1 6.5 2-.2 4.3-.6 6.4-.9-.6-.8-1.5-1.7-2.1-2.3l.8-.7c1.3 1.2 3 3.1 4.1 5.2l-1.1.6zm.6-6.3c-3-1.9-3.7-4.5-4.1-5.8h-2.1v-1.1h3.1c.3 1.4.8 4.2 3.9 5.8l-.8 1.1zm2.9-6.7h12.5V136h-1.1v-1h-10.4v1h-1.1v-13.4zm11.4 11.4v-10.5h-10.4V134h10.4zm-5.8-10.2 1.1.1c.3 0 .3.1.3.2s-.1.2-.4.3v.3h2.7v.8h-2.7v.8h3.9v.8h-8.8v-.8h3.9v-.8h-2.7v-.8h2.7v-.9zm4.6 7.4s.1.1.1.2-.1.1-.1.1c-.1 0-.2 0-.3-.1-.6.4-1 .5-1.2.6.8.5 1.5.7 1.9.8l-.8.8c-1.2-.5-2.3-1.1-3.1-2.2v2.3h-1v-2.3c-.6.6-1.5 1.3-3.1 2l-.7-.9c1.3-.4 2.3-1 3.6-2.3H387v-2.4h6.5v2.4h-2.7c.4.6.9 1 1.2 1.3.5-.3.9-.5 1.4-1.1l.7.8zm-1.6-1.7v-.9h-4.7v.9h4.7zm19.5 6.2h-6.9c-2.5 0-3.4-.5-4.1-1.8-.3.3-.9.8-1.7 1.5 0 .2 0 .5-.2.5-.1 0-.2-.1-.2-.2l-.7-1c.6-.3 1.3-.8 2.3-1.6v-3.4h-1.9v-1h2.9v4.1c0 .9.7 1.5 1.3 1.8.5.2 1.1.3 3 .3 3.7 0 5.5-.2 6.6-.4l-.4 1.2zm-11.4-9.4c-.8-1.5-1.3-2.3-2-3.2l.9-.6c.7.9 1.3 1.9 2 3.2l-.9.6zm8.4 7.9-.6-1.2h.8c.6 0 .6-.2.6-.6v-1h-2.5v2.6h-1.1v-2.6h-2.3v2.7h-1.1v-7.9h3.4c-.4-.4-.8-.8-1.6-1.2l.6-.9c.3.2.4.2 1.2.8 1.1-.8 1.2-.9 1.8-1.4H403v-.9h6.7l.4.6c-1.2 1-1.8 1.5-3 2.3.4.3.6.5.7.6h2.9v6.5c.1 1.2 0 1.5-1.7 1.6zm-2.8-7h-2.3v1.2h2.3v-1.2zm0 2.1h-2.3v1.3h2.3v-1.3zm3.6-2.1h-2.5v1.2h2.5v-1.2zm0 2.1h-2.5v1.3h2.5v-1.3zm7 5.6v-8.2h-2.4v-1c1-.1 2.3-.1 2.7-2h1.1V135h-1.4zm9.9.4c-1.3 0-2.7-.3-3.6-1.5-.6-.9-.7-1.7-.7-2.3h1.4c0 .6.2 2.6 2.9 2.6 1.9 0 2.9-1.1 2.9-2.5 0-1.6-1.4-2.2-2.6-2.2h-1.2v-1h1c.9 0 2.4-.5 2.4-2 0-.9-.5-1.9-2.4-1.9-.7 0-1.5.2-2 .8-.5.6-.5 1.1-.6 1.5h-1.4c.2-2.7 2.3-3.5 4-3.5 2.3 0 3.8 1.2 3.8 2.9 0 1.9-1.5 2.4-2 2.5.6.2 2.3.6 2.3 2.8.1 2.1-1.5 3.8-4.2 3.8zm12.9-11v9.8c0 .8 0 1.5-1 1.8-.3.1-1.4 0-1.9 0l-.4-1.3c.5.1 1.1.1 1.3.1.7 0 .8-.3.8-.7v-9.7h-6.3v-1.1h13.7v1.1h-6.2zm16.8 11.5v-.9h-7.1v1h-1.2v-13.1h9.4v13.1h-1.1zm0-11.9h-7.1v2.5h7.1v-2.5zm0 3.6h-7.1v2.5h7.1v-2.5zm0 3.7h-7.1v2.6h7.1v-2.6zm7.1 4.2v-13.6h1v14.5h-4.6v-.9h3.6zm8.3-12.5c-.2.4-.7 1.5-1.2 2.3.1.1.3.1.3.3 0 0 0 .1-.2.3V136h-1.1v-9.2c-.4.7-.9 1.3-1.4 1.9l-.9-.7c.8-.9 2.4-2.7 3.7-6l1.1.5s.2.1.2.2-.1.1-.5.2zm8.7 9.1v-1.9H473v2h-1.1v-2.9h9.7v2.8h-1.1zm-8.4-7.5v-.9h4.1V122h1.2c.3 0 .3.1.3.2s0 .1-.4.3v1h4.2v.9h-9.4zm1.2 3.8v-2.8h7.1v2.8h-7.1zm4.2 4v2.7c0 1-1 1-2.3 1l-.4-1.2c.4.1.6.1.9.1.6 0 .8-.1.8-.6v-2.1h-2.9v-.9h6.3v.9h-2.4zm1.9-6h-5v1.1h5v-1.1z"/><path class="st67" d="M328.4 207.1h156.8v24.5H328.4z"/><path class="st50" d="M345.7 223.7v-10.8h5.2v1.1h-4.1v9.7h-1.1zm13.2-8h5.7v7.5H363v-.8h-4.1v5h-1.5v-5h-4v.9h-1.5v-7.6h5.5V213l1.9.1c0 .1-.1.2-.4.3v2.3zm-5.6 5.3h4v-3.8h-4v3.8zm5.6 0h4.1v-3.8h-4.1v3.8zm14.9 2.7 1.7.1c0 .1-.1.2-.3.2v2.4h-7.3v.7h-1.3v-3.4l1.7.1c0 .1-.1.2-.3.2v1.2h2.3v-1.9l1.7.1c0 .1-.1.2-.4.2v1.5h2.3v-1.4zm6.2-2.4h-10.6v1h9.3l.8.1c0 .1 0 .3-.1.4-.2 2.7-.4 3.8-.9 4.2-.4.4-.8.5-1.8.5h-1.1c0-.4-.2-.9-.4-1.3.7.1 1.3.1 1.5.1.2 0 .4 0 .5-.2.2-.2.4-1 .6-2.7h-10v-9.1h3.5c.2-.4.4-.9.4-1.3l1.9.3c0 .1-.2.2-.4.2-.1.2-.3.5-.4.8h4.6v5h-8.3v.9H380v1.1zm-3.8-6h-6.8v1h6.8v-1zm-6.9 2.9h6.8v-1h-6.8v1zM387 214c-.1.1-.2.2-.4.2-1 2.3-2.6 4.6-4.2 6.1-.3-.3-.9-.8-1.3-1 1.6-1.3 3.1-3.6 4-5.8l1.9.5zm1.6 5.2c-.1.1-.2.2-.4.2-.7 1.7-1.7 4-2.7 5.7 1.9-.1 4.1-.1 6.3-.2-.7-1-1.4-2-2.1-2.9l1.4-.6c1.4 1.7 3 3.8 3.7 5.3l-1.5.8c-.2-.4-.4-.8-.7-1.3-3.8.2-7.6.4-10.2.5 0 .1-.1.2-.3.2l-.6-1.7c.6 0 1.4 0 2.2-.1 1.1-1.9 2.2-4.5 2.9-6.5l2 .6zm2.3-5.8c1 1.9 2.9 4.3 4.3 5.6-.4.3-.9.9-1.2 1.3-1.5-1.5-3.3-4.1-4.5-6.3l1.4-.6zm5.9.2H410v13.8h-1.4v-.6h-10.3v.6h-1.4v-13.8zm1.4 11.9h10.3V215h-10.3v10.5zm8.7-4.1 1.1.7c-.1.1-.2.1-.3.1-.4.3-1 .7-1.6 1 .7.4 1.5.6 2.2.8-.3.2-.6.7-.8 1-1.3-.4-2.7-1.2-3.7-2.1v2.2h-1.3v-2c-1 .6-2.1 1.1-3.2 1.5-.2-.2-.5-.7-.7-.9 1.4-.4 2.9-1.1 3.9-2H400v-2.6h6.7v2.4l.2-.1zm.9-3.7v.9h-9v-.9h3.8v-.8h-2.9v-.9h2.9v-.8l1.7.1c0 .1-.1.2-.4.2v.5h3v.9h-3v.8h3.9zm-6.6 2.3v1h4.1v-1h-4.1zm3 1.8c.2.4.6.7 1 .9.4-.3.9-.6 1.3-.9h-2.3zm9 1c-.1 1.5-.2 2.9-.9 3.8l-.8-.4c.6-.8.8-2.2.8-3.6l.9.2zm4.6-2.1.7.1v.4c-.2 3.9-.4 5.3-.8 5.8-.3.4-.6.5-1.6.5h-.7c0-.4-.1-.8-.3-1.2.5.1.9.1 1.1.1.2 0 .3 0 .4-.2.2-.2.3-.7.4-1.7l-.5.2c-.1-.6-.5-1.4-.8-2l.6-.2c.3.5.6 1.1.7 1.6 0-.6.1-1.3.1-2.1h-3.5v.4h-1.2v-8.6h5.9v1.2h-2.1v1.2h1.8v1.1h-1.8v1.2h1.8v1.1h-1.8v1.2h1.4l.2-.1zm-4.2 5.2c0-.8 0-2-.2-2.9l.7-.1c.2.9.2 2.1.2 2.9l-.7.1zm1.3-11.1h-1.3v1.2h1.3v-1.2zm0 3.5v-1.2h-1.3v1.2h1.3zm-1.3 1.2v1.2h1.3v-1.2h-1.3zm1.7 3.2c.3.8.5 1.8.6 2.5l-.7.2c0-.7-.3-1.7-.6-2.5l.7-.2zm10.3-2.5h-2.4c.5 2.7 1.4 5 3.1 6.1-.3.3-.8.8-1 1.2-2-1.4-2.9-4-3.4-7.3h-1.1c0 2.4-.3 5.3-1.7 7.3-.2-.2-.8-.6-1.2-.8 1.4-2 1.5-4.9 1.5-7.2v-6h6.2v6.7zm-1.3-5.3h-3.5v3.9h3.5v-3.9zm15.1-1.3c-.1.1-.2.2-.4.2-.4.5-1 1.2-1.5 1.7h3.8v1.3h-14v-1.3h3.9c-.4-.6-1-1.4-1.6-1.9l1.3-.6c.7.6 1.5 1.5 1.9 2.1l-.8.4h4.9l-.8-.3c.6-.6 1.3-1.5 1.7-2.2l1.6.6zm-5.6 4.5v7.9c0 1.4-.7 1.5-2.8 1.5-.1-.4-.3-.9-.5-1.3h.8c1 0 1 0 1-.3v-1.8h-2.8v3.3h-1.4V218h5.7zm-1.4 1.2h-2.8v1.3h2.8v-1.3zm-2.8 3.8h2.8v-1.3h-2.8v1.3zm7.4-4.8c0 .1-.1.2-.4.3v6h-1.4v-6.4l1.8.1zm3.1 7.5c0 1.4-.6 1.7-3.2 1.7-.1-.4-.3-1-.5-1.4h1.2c1.1 0 1.1 0 1.1-.3v-8l1.8.1c0 .1-.1.2-.4.3v7.6zm7.1-9.1v10.8H442v-1.1h4.1v-9.7h1.1zm8.1 2.5c-.5.8-1 1.5-1.5 2.1-.1-.4-.5-1.1-.7-1.5 1.3-1.5 2.7-4.1 3.5-6.7l1.7.6c-.1.1-.2.2-.4.2-.4 1-.8 2-1.2 2.9l.4.1c0 .1-.1.2-.4.2v10.4h-1.4v-8.3zm2.3 1.2H468v2.8h-1.3v-1.7h-7.8v1.7h-1.3v-2.8zm.3-6h4.2V213l1.8.1c0 .1-.1.2-.4.2v1.1h4.3v1.3h-10v-1.3zm8.8 5.3H459v-3.2h7.7v3.2zm-7.2 3.9v-1.2h6.6v1.2h-2.6v2.3c0 1.5-.7 1.5-3.7 1.5-.1-.4-.3-1-.5-1.3h1.8c.9 0 .9 0 .9-.3v-2.3h-2.5zm.9-6.2v1.2h4.9v-1.2h-4.9z"/><path d="M259 71.8v-1.4c-.4.5-.6.7-1.1 1.1-.1-.4-.2-.5-.4-.8.8-.6 1.5-1.3 2.1-2.1.3-.4.5-.7.6-1l.8.5c-.1.1-.1.2-.3.5-.2.3-.4.6-.7 1v4.7c0 .6 0 1 .1 1.3h-1c0-.4.1-.8.1-1.4v-2.4zm1.8-6.5-.4.4c-.7.9-1.5 1.5-2.4 2.2-.2-.3-.3-.5-.5-.7 1.2-.7 2.1-1.6 2.5-2.4l.8.5zm3.2 4.2h-2.1c-.4 0-.8 0-1.1.1v-.9c.3 0 .7.1 1.1.1h2.1v-1.6h-1.6c-.5 0-.8 0-1.1.1v-.9c.3 0 .6.1 1.1.1h1.6v-.3c0-.6 0-.9-.1-1.2h1c0 .3-.1.6-.1 1.2v.3h1.7c.5 0 .8 0 1.1-.1v.9c-.3 0-.6-.1-1.1-.1h-1.7v1.6h2.4c.5 0 .8 0 1.2-.1v.9c-.3 0-.8-.1-1.2-.1h-2.4v1.6h1.8c.4 0 .8 0 1.1-.1v1c-.3 0-.7-.1-1.1-.1h-1.8v2.2c.5.1 1.2.2 2 .2.5 0 .8 0 1.6-.1-.1.4-.2.5-.3 1h-.9c-2.9 0-4.3-.6-5.3-2-.3 1-.7 1.6-1.3 2.4-.2-.3-.4-.4-.7-.6.8-1 1.2-1.8 1.5-3.1.2-.7.2-1.1.2-1.6l.9.2c-.1.3-.1.3-.2 1.2 0 .2-.1.4-.1.6.4.8.9 1.3 1.7 1.6v-4.4zm9.7.6c-.7 1.1-1.7 2-2.9 2.8-.2-.3-.4-.5-.7-.7 1.2-.6 2.2-1.5 2.8-2.6l.8.5zm5.8-1.7c.5 0 .9 0 1.2-.1v1c-.4 0-.7-.1-1.2-.1h-3.4v2.7c0 .6-.4.9-1.3.9h-1.1c0-.3-.1-.6-.2-.9.5.1.9.1 1.3.1s.5 0 .5-.2v-2.5h-3.6c-.5 0-.9 0-1.3.1v-1c.4 0 .7.1 1.3.1h.7v-1.6c0-.4 0-.7-.1-1.1h1c-.1.4-.1.6-.1 1.1v1.6h2V66c0-.5 0-.8-.1-1.1h1c-.1.3-.1.6-.1 1.1v.3h2.6c.5 0 .8 0 1.1-.1v.9c-.3 0-.6-.1-1.1-.1H276v1.4h3.5zm-.7 3.7c-.7.7-1 .9-1.2 1.2-1.7 1.4-3.7 2.1-6.3 2.3-.1-.4-.2-.6-.4-.9 2 0 3.7-.5 5.2-1.3.9-.5 1.6-1.2 2-1.8l.7.5zm-.7-2.4c.7.9 1.7 1.6 2.8 2.2-.3.3-.4.4-.6.7-1.1-.6-2-1.4-2.9-2.5l.7-.4zm9.8-3.7c-1.9 1-3.2 2.2-3.8 3.7.5-.3 1.2-.6 1.9-.6 1.4 0 2.5.9 2.5 2.8 0 1.8-1.1 3.1-2.9 3.1-2 0-2.9-1.4-2.9-3.4 0-2.7 1.5-4.8 4.7-6.3l.5.7zm-4 4.6v.8c0 1.8.7 2.6 1.8 2.6 1 0 1.8-.7 1.8-1.9s-.6-2-1.8-2c-.7-.1-1.4.2-1.8.5zm10.7-5.3c-.1.2-.2.3-.3.6-.9 1.8-2.1 3.3-3.7 4.5-.2-.3-.4-.5-.7-.8 1.4-1 2.4-2 3.2-3.4.3-.5.4-.9.5-1.2l1 .3zm-1.2 4.6c-.4 0-.8 0-1.2.1v-1c.3 0 .7.1 1.2.1h4c.5 0 .9 0 1.2-.1v.9c0 2.4-.2 4.3-.5 4.9-.2.4-.5.5-1.3.5-.3 0-.7 0-1.4-.1 0-.4-.1-.6-.2-1 .6.1 1.2.2 1.6.2.5 0 .6-.1.7-.7.2-.8.3-2.2.3-3.8h-2.6c-.1.6-.1.8-.2 1.2-.5 2-1.6 3.4-3.7 4.5-.2-.3-.3-.5-.6-.8 1.4-.6 2.4-1.5 2.9-2.5.4-.7.6-1.3.6-2.3h-.8zm3.8-5c.1.3.2.6.4 1 .8 1.5 1.9 2.6 3.4 3.6-.3.3-.4.5-.7.9-1.8-1.3-2.9-2.7-3.9-4.6-.1-.2-.2-.4-.3-.5l1.1-.4z"/><path class="st59" d="M242.6 40.1v74.3"/><path d="M210.9 173.4c-.4 0-.8 0-1.2.1v-.9c.3 0 .8.1 1.2.1h3v-1.1c-2.3.2-2.3.2-3.5.2-.1-.3-.2-.5-.3-.8h.4c1.9 0 4-.2 5.7-.4.9-.1 1.2-.2 1.7-.4l.6.8c-.2 0-.2 0-.4.1-1.1.2-2.1.4-3.3.5v1.1h3.2c.5 0 .9 0 1.2-.1v.9c-.3 0-.7-.1-1.2-.1h-.6v1.2h.9c.5 0 .9 0 1.2-.1v.9c-.4-.1-.7-.1-1.2-.1h-.9v1.3h.6c.5 0 .8 0 1.2-.1v.9c-.3 0-.7-.1-1.2-.1h-2.7c.7.7 1.2 1 1.9 1.4.8.4 1.7.8 2.7 1-.2.3-.4.6-.5.9-2.2-.7-3.4-1.5-4.7-2.9v2c0 .6 0 .9.1 1.3h-1c.1-.4.1-.7.1-1.3v-2c-1.3 1.4-2.4 2.1-4.5 2.8-.2-.3-.3-.5-.6-.8 1.1-.3 2-.7 2.9-1.2.6-.4.9-.6 1.6-1.3H211c-.4 0-.9 0-1.2.1v-.9c.3 0 .7.1 1.2.1h.4v-1.3h-.8c-.5 0-.9 0-1.2.1v-.9c.3 0 .7.1 1.2.1h.8v-1.2h-.5zm1.3 1.2h1.8v-1.2h-1.8v1.2zm0 2.1h1.8v-1.3h-1.8v1.3zm4.6-3.3h-1.9v1.2h1.9v-1.2zm0 1.9h-1.9v1.3h1.9v-1.3zm9.6-3.9c0-.5 0-.7-.1-1.1h1.1c-.1.3-.1.6-.1 1.1v.1h3.4c.6 0 .9 0 1.3-.1v.9c-.4 0-.8-.1-1.2-.1h-3.5v.9h2.4c.7 0 1 0 1.3-.1v4.3c-.3 0-.6-.1-1.3-.1h-2.4v1h3.6c.6 0 1 0 1.2-.1v1c-.4 0-.7-.1-1.3-.1h-3.6v.5c0 .6 0 .9.1 1.3h-1.1c.1-.4.1-.7.1-1.3v-.5H223c-.5 0-.9 0-1.2.1v-1c.3.1.7.1 1.2.1h3.4v-1h-2.2c-.7 0-1 0-1.4.1V173c.3 0 .6.1 1.3.1h2.3v-.9H223c-.5 0-.9 0-1.2.1v-.9c.3.1.7.1 1.2.1h3.3v-.1zm-2.7 2.5v1h2.6v-1h-2.6zm0 1.8v1h2.6v-1h-2.6zm6.3-.8v-1h-2.8v1h2.8zm0 1.8v-1h-2.8v1h2.8zm3.9-1.3h1.1c.4-.5.5-.6.8-1.1-.6-.7-.9-1-1.7-1.8l.5-.7.5.5c.6-.9 1-1.6 1.1-2.1l.8.4c-.1.1-.1.2-.3.4-.3.6-.8 1.3-1.1 1.8.3.3.4.4.7.8.8-1.2 1.2-1.8 1.3-2.2l.8.5c-.1.1-.2.2-.4.5-.8 1.2-1.5 2.2-2.1 2.9.9-.1 1.1-.1 1.7-.2-.1-.3-.2-.5-.4-.9l.6-.3c.4.7.7 1.3 1 2.3l-.7.3c-.1-.4-.2-.5-.2-.7h-.3c-.3 0-.3 0-.7.1v3.8c0 .5 0 .9.1 1.2h-1c0-.3.1-.7.1-1.2V176c-.8.1-.8.1-1.3.1s-.5 0-.7.1l-.2-.8zm1.5 1.5c-.2 1.7-.3 2.3-.7 3.4l-.8-.4c.4-.9.6-1.6.7-3.2l.8.2zm2.7-.2c.3 1 .5 1.8.7 2.9l-.8.2c-.1-1.1-.3-2-.6-2.9l.7-.2zm2-3.7c-.4.7-.7 1.2-1.2 1.8-.2-.3-.4-.4-.7-.6.5-.6 1-1.3 1.3-2.1.3-.8.5-1.3.6-1.8l.9.2c-.1.2-.1.2-.3.7l-.3.9h3.8c0 .4 0 .4-.1 1.9 0 1.9-.2 4.3-.5 5.4-.3 1.2-.6 1.4-1.8 1.4-.3 0-.6 0-1.2-.1 0-.4-.1-.6-.2-1 .6.1 1.1.2 1.5.2.6 0 .7-.1.8-.9.3-1.3.5-3.5.5-6h-3.1zm1 4.8c-.5-1.3-.8-1.9-1.5-2.9l.7-.4c.8 1.1 1.1 1.7 1.6 2.9l-.8.4zm5.8 2.1c1.9-1 3.2-2.1 3.8-3.7-.5.3-1.2.6-1.9.6-1.4 0-2.5-.9-2.5-2.8 0-1.8 1.1-3.1 2.9-3.1 2 0 2.9 1.4 2.9 3.4 0 2.7-1.5 4.8-4.7 6.3l-.5-.7zm4-4.6v-.8c0-1.8-.7-2.6-1.8-2.6-1 0-1.8.7-1.8 1.9s.6 2 1.8 2c.7.1 1.4-.1 1.8-.5zm7.6-4.6c-.1.2-.2.3-.3.6-.9 1.8-2.1 3.3-3.7 4.5-.2-.3-.4-.5-.7-.8 1.4-1 2.4-2 3.2-3.4.3-.5.4-.9.5-1.2l1 .3zm-1.3 4.6c-.4 0-.8 0-1.2.1v-1c.3 0 .7.1 1.2.1h4c.5 0 .9 0 1.2-.1v.9c0 2.4-.2 4.3-.5 4.9-.2.4-.5.5-1.3.5-.3 0-.7 0-1.4-.1 0-.4-.1-.6-.2-1 .6.1 1.2.2 1.6.2.5 0 .6-.1.7-.7.2-.8.3-2.2.3-3.8H259c-.1.6-.1.8-.2 1.2-.5 2-1.6 3.4-3.7 4.5-.2-.3-.3-.5-.6-.8 1.4-.6 2.4-1.5 2.9-2.5.4-.7.6-1.3.6-2.3h-.8zm3.9-4.9c.1.3.2.6.4 1 .8 1.5 1.9 2.6 3.4 3.6-.3.3-.4.5-.7.9-1.8-1.3-2.9-2.7-3.9-4.6-.1-.2-.2-.4-.3-.5l1.1-.4z"/><path class="st68" d="M194.2 215.2v-75.4"/><path class="st69" d="M164.2 293.5H321V319H164.2z"/><path class="st50" d="M182.5 300.3c0 .1-.1.2-.3.2v2.4h2.1v1.1h-2.1v.9c.5.5 1.7 2 2 2.3l-.7 1c-.3-.5-.8-1.2-1.3-1.9v5.6H181v-5.7c-.6 1.4-1.3 2.7-2 3.5-.1-.4-.4-.9-.7-1.2 1-1.1 2-2.9 2.5-4.6h-2.2v-1.1h2.3v-2.7l1.6.2zm3.8 9.5c0 .7.1.8.6.8h1.6c.5 0 .6-.5.7-2.6.3.2.8.5 1.1.5-.1 2.3-.4 3.2-1.7 3.2h-1.9c-1.3 0-1.7-.4-1.7-2v-9.5l1.5.1c0 .1-.1.2-.3.2v9.3zm8.6-7.2v5.5c0 .9-.3 1.1-1.3 1.1 0-.3-.2-.7-.3-1h.6c.1 0 .1 0 .1-.1v-4.4h-.8v8.3h-1v-8.3h-.8v5.7h-.9v-6.8h1.7v-2.4l1.3.1c0 .1-.1.2-.3.2v2.1h1.7zm5.1 8c0 .3 0 .4.3.4h.4c.5 0 .5 0 .5-1.3.2.2.6.4.9.5-.1 1.2-.1 1.8-1.3 1.8h-.8c-1.1 0-1.1-.8-1.1-1.4v-2.1h-1c-.2 1.7-.7 2.9-2.9 3.6-.1-.3-.4-.7-.6-.9 1.8-.5 2.3-1.3 2.5-2.7h-1.7v-1h2.8v-2.6l1.4.1c0 .1-.1.2-.3.2v2.3h3v1h-2v2.1zm1.5-10.1v4.3h-6.1v-4.3h6.1zm-5.1 6.8c-.1-.5-.5-1.3-.8-1.9l.9-.3c.4.6.8 1.3.9 1.8l-1 .4zm4-5.1v-.8h-3.9v.8h3.9zm0 1.7v-.9h-3.9v.9h3.9zm1.3 1.6c0 .1-.1.1-.3.1-.3.5-.7 1.2-1.1 1.7l-.8-.4c.3-.5.8-1.3 1-1.9l1.2.5z"/><path class="st50" d="M203.1 308.2c-.1 1.2-.2 2.4-.7 3.1l-.6-.4c.5-.7.6-1.8.7-2.9l.6.2zm3.7-1.7.6.1v.3c-.2 3.2-.3 4.3-.6 4.7-.2.3-.5.4-1.3.4h-.6c0-.3-.1-.7-.3-1 .4.1.8.1.9.1.2 0 .3 0 .4-.1.1-.2.2-.6.3-1.4l-.4.2c-.1-.5-.4-1.1-.7-1.7l.5-.2c.2.4.5.9.6 1.3 0-.5.1-1 .1-1.7h-2.9v.3h-1v-7h4.8v1h-1.7v1h1.5v.9h-1.5v1h1.5v.9h-1.5v1h1.1l.2-.1zm-3.4 4.2c0-.6 0-1.6-.2-2.4l.6-.1c.1.7.2 1.7.2 2.3l-.6.2zm1.1-9h-1.1v1h1.1v-1zm0 2.9v-1h-1.1v1h1.1zm-1 .9v1h1.1v-1h-1.1zm1.3 2.6c.2.6.4 1.5.5 2.1l-.6.1c0-.6-.2-1.4-.5-2.1l.6-.1zm8.4-2h-2c.4 2.2 1.1 4.1 2.5 5-.3.2-.6.7-.8 1-1.6-1.2-2.4-3.3-2.8-5.9h-.9c0 1.9-.3 4.3-1.4 5.9-.2-.2-.7-.5-1-.6 1.2-1.6 1.2-4 1.2-5.9v-4.9h5v5.4zm-1.1-4.3h-2.9v3.2h2.9v-3.2zm11.5-1.1c-.1.1-.2.1-.3.1-.3.4-.8 1-1.3 1.4h3.1v1.1h-11.4v-1.1h3.1c-.3-.5-.8-1.1-1.3-1.6l1.1-.5c.6.5 1.2 1.2 1.5 1.7l-.7.3h4l-.6-.3c.5-.5 1-1.2 1.4-1.8l1.4.7zm-4.5 3.7v6.4c0 1.1-.6 1.2-2.3 1.2-.1-.3-.2-.8-.4-1h.7c.8 0 .8 0 .8-.2v-1.4h-2.3v2.7h-1.1v-7.7h4.6zm-1.2 1h-2.3v1h2.3v-1zm-2.3 3h2.3v-1.1h-2.3v1.1zm6.1-3.8c0 .1-.1.2-.3.2v4.9h-1.1v-5.2l1.4.1zm2.5 6.1c0 1.1-.5 1.4-2.6 1.3-.1-.3-.3-.8-.4-1.1h1c.9 0 .9 0 .9-.3V304l1.5.1c0 .1-.1.2-.3.2v6.4zm5.6-8c0 .1-.2.2-.3.2-.5 3-1.5 6.2-3 8-.3-.2-.8-.5-1.2-.6 1.4-1.7 2.4-4.8 2.8-8l1.7.4zm5.7 8.1c-.6-2.1-2-5.6-3.2-8l1.2-.6c1.3 2.3 2.7 5.8 3.3 8l-1.3.6zm-1.4-10.3c.5.5 1.1 1.3 1.4 1.8l-.6.5c-.3-.5-1-1.4-1.4-1.8l.6-.5zm1.7-.5c.5.5 1.1 1.2 1.5 1.8l-.6.5c-.3-.5-1-1.3-1.4-1.8l.5-.5zm10.5 2-.2.2c-.7 1.6-1.4 2.9-2.4 4.2 1.3 1 3.3 2.8 4.4 4.1l-1.1 1c-1-1.2-2.9-3.1-4.1-4-1.1 1.3-2.9 3-4.6 4-.2-.3-.6-.7-.9-1 3.3-1.8 5.9-5.1 7.1-7.8h-5.9v-1.2h6.6l.2-.1.9.6zm12.4.8c0 .1-.1.2-.2.2-.5 1.5-1.1 3-1.8 4.1.5.3 1.1.7 1.5 1l-.7 1.2c-.4-.3-1-.7-1.5-1-1.1 1.5-2.6 2.7-4.4 3.6-.2-.3-.7-.7-1-.9 1.7-.8 3.2-1.9 4.3-3.3-.8-.5-1.6-.9-2.5-1.2l.7-1c.8.3 1.7.7 2.5 1.1.6-.9 1-1.9 1.3-2.9H253c-.8 1.2-1.8 2.5-2.8 3.3-.2-.2-.7-.6-1-.8 1.7-1.3 3.1-3.4 3.9-5.6l1.6.4c-.1.1-.2.2-.4.2-.2.4-.4.9-.6 1.3h3.8l.2-.1 1 .4zm2 2.5h10.5v1.3h-10c-.1.1-.2.2-.4.2l-.1-1.5zm13.1 3.1c2.7.3 5.8 1 7.9 1.8l-.5 1.3c-1.8-.7-5.1-1.5-7.8-1.9l.4-1.2zm.9-7.5c2.1.2 5 .8 6.6 1.4l-.5 1.2c-1.8-.7-4.4-1.2-6.6-1.4l.5-1.2zm0 3.8c2 .2 4.5.7 6.1 1.2l-.4 1.2c-1.4-.5-4-1.1-6-1.3l.3-1.1zm19.9.3h-4.5c-.2 3.1-1.1 5.1-3.8 6.6-.3-.3-.7-.6-1-.9 2.6-1.4 3.3-3 3.6-5.8h-4.8v-1.2h4.8v-3.3l1.7.1c0 .2-.1.2-.3.3 0 1.1 0 2-.1 2.9h4.4v1.3zm4.2-2.5c0 .1-.1.2-.3.3-.1 3.5-.4 6.5-2.2 8.8-.3-.2-.7-.5-1.1-.7 1.8-2 2-5.2 2-8.5l1.6.1zm3.3 6.9c1.9-1 3.1-2.7 3.7-4.8.3.2.8.5 1.1.7-.9 2.6-2.4 4.4-5.1 5.7l-.3.3-.9-1.1.2-.2v-9.1l1.6.1c0 .1-.1.2-.3.3v8.1z"/><path class="st69" d="M164.2 206H281v25.5H164.2z"/><path class="st50" d="M183.7 213.1v13.6h-1v-14.5h4.6v.9h-3.6zm12.5-.1c-.1.6-.1 1.2-.1 2.3 1.7-.1 3.3-.2 4.6-.4l.1 1.3c-2.1 0-3.7.1-4.7.2v2.6c.3.6.4 1.6.4 2.1 0 1.4-.7 2.9-1.3 3.8-.4.6-.7.9-1.2 1.4l-1.2-.5c.5-.4 1.5-1.3 2.2-2.9-.5.3-1.1.3-1.1.3-1 0-1.9-.9-1.9-2.6 0-2 1.3-2.9 2.2-2.9.3 0 .5.1.7.1v-1.4c-1.7.1-4.2.3-6.1.5l-.1-1.1c1.7-.1 4.4-.3 6.1-.4 0-1.5 0-2-.1-2.6l1.5.2zm-3.2 7.5c0 1.1.6 1.5 1.1 1.5.6 0 1.1-.7 1.1-1.7 0-.5-.1-1.5-1-1.5-.6-.1-1.2.6-1.2 1.7zm16.5-7.5c-.1.6-.1 1.2-.1 2.3 1.7-.1 3.3-.2 4.6-.4l.1 1.3c-2.1 0-3.7.1-4.7.2v2.6c.3.6.4 1.6.4 2.1 0 1.4-.7 2.9-1.3 3.8-.4.6-.7.9-1.2 1.4l-1.2-.5c.5-.4 1.5-1.3 2.2-2.9-.5.3-1.1.3-1.1.3-1 0-1.9-.9-1.9-2.6 0-2 1.3-2.9 2.2-2.9.3 0 .5.1.7.1v-1.4c-1.7.1-4.2.3-6.1.5l-.1-1.1c1.7-.1 4.4-.3 6.1-.4 0-1.5 0-2-.1-2.6l1.5.2zm-3.2 7.5c0 1.1.6 1.5 1.1 1.5.6 0 1.1-.7 1.1-1.7 0-.5-.1-1.5-1-1.5-.5-.1-1.2.6-1.2 1.7zm13.9-7.5c.2.8.4 1.3.7 2.2 1.1-.4 1.9-.9 2.8-1.5l.3 1.1c-.8.5-1.5.8-2.7 1.3.2.6.5 1.1.8 1.7.9-.4 1.8-.8 3.2-1.7l.3 1.1c-.4.3-1.2.8-3 1.5.3.6.7 1.2 1.3 2.1.1.2.8.9.9 1.1l-.9 1.1c-.4-.4-.7-.6-1.2-.9-.7-.3-1.5-.5-2.4-.5-.9 0-2.7.4-2.7 1.8 0 1.6 1.9 1.7 2.8 1.7 1.5 0 2.6-.5 3.3-.8l-.1 1.3c-.4.2-1.2.5-3 .5-.6 0-2.4-.1-3.2-.8-.5-.4-.8-1.1-.8-1.8 0-1.9 1.7-2.7 3.6-2.7 1 0 1.6.2 2.8.5-.3-.4-.6-.8-1.4-2.1-3 .9-4.5.9-5.4.9l-.5-1.1h1.1c1.9 0 3.6-.5 4.3-.7-.1-.3-.7-1.5-.8-1.7-1.4.4-2.7.6-4.2.7l-.5-1.1h.9c1.5 0 2.7-.3 3.4-.5-.3-.7-.6-1.5-.9-2.4l1.2-.3zm13.9 11.3c.6-.2 1.5-.5 2.4-1.2 1-.8 1.8-2.3 1.8-3.8 0-2.4-1.7-3.7-2.4-4-.6-.3-1.3-.4-2.1-.4-.2 2.3-.8 4.6-1.8 6.8-.6 1.4-1.5 2.7-2.4 2.7-1.3 0-2.6-2-2.6-4.2 0-3 2.3-6.3 6.5-6.3 3.2 0 6 2 6 5.5 0 4.2-3.7 5.7-4.7 6.1l-.7-1.2zm-5.1-7.2c-.5.7-1.1 1.7-1.1 3 0 1.7.9 2.9 1.6 2.9.3 0 .7 0 1.7-2.5 1.1-2.6 1.3-4.7 1.3-5.6-1.1.2-2.3.6-3.5 2.2zm15.5 8.6v-13.6h1v14.5h-4.6v-.9h3.6zm8.3-12.5c-.2.4-.7 1.5-1.2 2.3.1.1.3.1.3.3 0 0 0 .1-.2.3v10.2h-1.1v-9.2c-.4.7-.9 1.3-1.4 1.9l-.9-.7c.8-.9 2.4-2.7 3.7-6l1.1.5s.2.1.2.2-.1.2-.5.2zm8.7 9.1v-1.9H254v2h-1.1v-2.9h9.7v2.8h-1.1zm-8.4-7.4v-.9h4.1v-1.6h1.2c.3 0 .3.1.3.2s0 .1-.4.3v1h4.2v.9h-9.4zm1.2 3.7v-2.8h7.1v2.8h-7.1zm4.2 4v2.7c0 1-1 1-2.3 1l-.4-1.2c.4.1.6.1.9.1.6 0 .8-.1.8-.6v-2.1h-2.9v-.9h6.3v.9h-2.4zm1.9-5.9h-5v1.1h5v-1.1z"/><path class="st69" d="M164.2 99.7H321v45.5H164.2z"/><path class="st50" d="M174.6 122.7v13.6h-1v-14.5h4.6v.9h-3.6zm12.5 2.2v1.8h5.5v8.1c0 .9-.7 1.1-1.3 1.1h-1l-.4-1.1c.3 0 .6.1 1 .1s.5 0 .5-.6v-6.6h-2.7l.6.4c.1.1.1.1.1.2 0 .2-.2.2-.3.2-.2.3-.4.6-.8 1h1.5v1H187v1.6h3.2v1H187v2.6h-1.1v-2.6h-3.3v-1h3.3v-1.6H183v-1h1.5c-.3-.5-.6-.8-1.1-1.3l.6-.5h-2.7v8.2h-1.1v-9.2h5.5v-1.8h-6.1v-1.1h6.1v-1.7l1.3.1s.3 0 .3.2c0 .1-.1.2-.4.2v1.2h6.1v1.1h-5.9zm-2.6 2.8c.7.6.9 1 1.2 1.5l-.5.4h2.6l-.4-.4c.2-.2.5-.5 1-1.5h-3.9zm13.6 7.2v-8.2h-2.4v-1c1-.1 2.3-.1 2.7-2h1.1V135h-1.4zm9.4 0v-8.2h-2.4v-1c1-.1 2.3-.1 2.7-2h1.1V135h-1.4zm18.9.5c-2.1-.7-4-1.8-5.7-3.2v4h-1.1v-4c-1.6 1.6-3.5 2.6-5.5 3.4l-.8-1c1.4-.4 3.6-1.2 5.6-3.2h-5.6v-1h6.4v-1.6l1.1.1c.3 0 .4.2.4.2 0 .1-.2.3-.3.4v.9h6.5v1h-5.9c1.7 1.5 3.4 2.3 5.9 3.1l-1 .9zm0-6.2c-2.9-.5-4.2-.7-6.1-1.7-1.6.8-3 1.3-6.1 1.8l-.6-1c2.7-.3 4.2-.8 5.8-1.5-.6-.5-1.4-1.1-2.2-2.2-.9.8-1.6 1.3-2.7 2l-.8-.8c1.9-1 3.5-2.4 4.7-4.1l1 .6c.1.1.3.2.3.3 0 .2-.3.2-.6.2-.2.2-.5.4-.7.6h5.9l.4.5c-1.2 1.3-2.2 2.1-3.4 2.9 1.8.8 3.8 1.1 5.8 1.3l-.7 1.1zm-8.1-4.7c.6.7 1.3 1.3 2 1.8.9-.5 1.5-1.1 2.3-1.8h-4.3zm11.9 11.4H229v-9.4h3.9v-2.6h-4.4v-1.1H242v1.1h-5v2.6h4.6v9.3h-1.2v-.8h-10.2v.9zm6.8-5.5c0 .6.1.6.6.6h.6c.5 0 .6-.1.8-1.2l1 .4c-.3 1.7-.7 1.9-1.5 1.9h-1.4c-1 0-1.2-.2-1.2-1.3v-3.2h-1.8c0 3-.5 4.1-2.9 5.1l-.9-.9c2-.7 2.6-1.4 2.6-4.2h-2.8v6.3h10.2v-6.3H237v2.8zm-1.2-6.5H234v2.6h1.8v-2.6zm11.1 11v-8.2h-2.4v-1c1-.1 2.3-.1 2.7-2h1.1V135h-1.4zm9.4 0v-8.2h-2.4v-1c1-.1 2.3-.1 2.7-2h1.1V135h-1.4zm13.4-10.6v9.8c0 .8 0 1.5-1 1.8-.3.1-1.4 0-1.9 0l-.4-1.3c.5.1 1.1.1 1.3.1.7 0 .8-.3.8-.7v-9.7h-6.3v-1.1h13.7v1.1h-6.2zm16.7 11.5v-.9h-7.1v1h-1.2v-13.1h9.4v13.1h-1.1zm0-11.9h-7.1v2.5h7.1v-2.5zm0 3.6h-7.1v2.5h7.1v-2.5zm0 3.7h-7.1v2.6h7.1v-2.6zm7.2 4.2v-13.6h1v14.5H290v-.9h3.6zm8.3-12.5c-.2.4-.7 1.5-1.2 2.3.1.1.3.1.3.3 0 0 0 .1-.2.3V136h-1.1v-9.2c-.4.7-.9 1.3-1.4 1.9l-.9-.7c.8-.9 2.4-2.7 3.7-6l1.1.5s.2.1.2.2-.2.1-.5.2zm8.6 9.1v-1.9H303v2h-1v-2.9h9.7v2.8h-1.2zm-8.3-7.5v-.9h4.1V122h1.2c.3 0 .3.1.3.2s0 .1-.4.3v1h4.2v.9h-9.4zm1.2 3.8v-2.8h7.1v2.8h-7.1zm4.2 4v2.7c0 1-1 1-2.3 1l-.4-1.2c.4.1.6.1.9.1.6 0 .8-.1.8-.6v-2.1h-2.9v-.9h6.3v.9h-2.4zm1.8-6h-5v1.1h5v-1.1zm-96-19.1c-.3 2.5-.3 5.7-.3 6 0 1.5.1 1.8.2 1.9.3.7 1 .9 1.3.9.7 0 2.3-.5 3.7-3.6l.7.8c-.4.7-2 3.6-4.5 3.6-1.2 0-1.8-.8-2-1.6-.2-.6-.2-1-.2-3v-3.6c0-.6 0-1.2-.1-1.7l1.2.3zm3.3.6c.5.6.8 1 1.1 1.5l-.6.5c-.4-.7-.8-1.2-1.1-1.5l.6-.5zm1.1-.9c.6.6.8 1 1.1 1.5l-.6.5c-.3-.6-.7-1.1-1.1-1.5l.6-.5zm8.3 4.6c-.8.2-1.7.3-2.7.3 0 1.3.1 2.1.2 2.8.8.2 1.2.4 2.6 1.1l-.3.8c-.5-.4-1.1-.8-2.2-1.2 0 .6 0 .9-.2 1.2-.3.4-.8.6-1.7.6-1.3 0-1.9-.6-1.9-1.2 0-1.2 1.5-1.4 2-1.4h.9c-.2-2.2-.2-3.8-.2-5.2l.9.1c-.1.6-.1 1-.2 1.8h.3c.8 0 1.6-.2 2.3-.5v.8zm-4 3.5c-.6 0-1.4.2-1.4.8 0 .5.5.7 1.2.7s1.2-.3 1.2-1v-.5h-1zm5-4.2c.6-.2.8-.2 1.4-.5 1.4-.6 2.1-.9 3-.9.6 0 2 .3 2 2.4 0 1.7-.8 3.2-1.8 4.2-.6.6-1.1.9-2.3 1.4l-.6-.8c.7-.2 1.1-.3 1.8-.8.9-.7 2-2 2-3.8 0-.3 0-.8-.3-1.2-.2-.3-.6-.5-1-.5-1 0-2.2.7-3.8 1.5l-.4-1zm1.5-4.2c1.4.5 2.8.5 3.5.5v.9c-2.2 0-2.7-.2-3.5-.5v-.9zm6 1.6c1 0 1.8 0 4.4-.4 2.6-.4 3.2-.5 4.1-.7l.1 1c-1.1.2-2.2.8-3.1 1.5-1.6 1.4-1.8 2.9-1.8 3.5 0 1.6.8 2.3 3.1 2.8l-.3 1c-1.1-.3-3.6-.9-3.6-3.5 0-1.6.8-2.9 1.6-3.7.5-.6 1-.9 1.6-1.3-1.7.2-4 .5-5.9.8l-.2-1zm8.9 1.6c.7-.1 1.6-.2 2.2-.4 1.9-.6 3.3-1 4.2-1 1.1 0 3 .9 3 3.2 0 1.1-.4 2.4-1.3 3-1.4 1.1-3.5 1.3-4.5 1.4l-.6-1c1 0 2.8 0 4.1-.8 1.3-.8 1.4-2.3 1.4-2.6 0-1.3-1-2.4-2.2-2.4-.8 0-2.3.5-4.4 1.2-.8.3-1 .3-1.5.4l-.4-1zm10.2 5.6c.6-.7 1.2-1.5 1.8-3.2.5-1.5.7-2.7.8-3.6l1 .3c.1 0 .3.1.3.2s-.2.2-.4.2c-.3 1.7-.6 3.1-1.5 4.9-.4.8-.6 1.1-1.1 1.8l-.9-.6zm6.7-6.7c.6.8 1.2 1.6 1.9 3.2.7 1.5.9 2.3 1.1 3l-1 .5c-.3-1.1-.6-2.2-1.3-3.8-.7-1.3-1.1-1.9-1.5-2.4l.8-.5zm1.8.4c-.4-.5-.9-.9-1.1-1.1l.5-.6c.1.1.7.6 1.1 1.1l-.5.6zm1.2-.8c-.4-.5-.9-.9-1.2-1.1l.5-.6c.3.3.8.7 1.1 1.1l-.4.6zm8.7.4c-.5.4-.5.4-.7.6-.7 1.5-1 2.1-1.6 3 1.1 1 2.2 2 3.1 3.5l-.8.7c-.3-.6-.7-1.2-1.5-2.1l-1.4-1.4c-1.5 1.7-2.7 2.5-4.2 3.2l-.7-.8c1-.4 2.2-.8 3.7-2.4 1.5-1.6 2-2.9 2.5-4h-4.8v-.9h5.2c.2 0 .4-.2.5-.3l.7.9z"/><path d="M215.1 260.3c-.4 0-.8 0-1.2.1v-.9c.3 0 .8.1 1.2.1h3v-1.1c-2.3.2-2.3.2-3.5.2-.1-.3-.2-.5-.3-.8h.4c1.9 0 4-.2 5.7-.4.9-.1 1.2-.2 1.7-.4l.6.8c-.2 0-.2 0-.4.1-1.1.2-2.1.4-3.3.5v1.1h3.2c.5 0 .9 0 1.2-.1v.9c-.3 0-.7-.1-1.2-.1h-.6v1.2h.9c.5 0 .9 0 1.2-.1v.9c-.4-.1-.7-.1-1.2-.1h-.9v1.3h.6c.5 0 .8 0 1.2-.1v.9c-.3 0-.7-.1-1.2-.1h-2.7c.7.7 1.2 1 1.9 1.4.8.4 1.7.8 2.7 1-.2.3-.4.6-.5.9-2.2-.7-3.4-1.5-4.7-2.9v2c0 .6 0 .9.1 1.3h-1c.1-.4.1-.7.1-1.3v-2c-1.3 1.4-2.4 2.1-4.5 2.8-.2-.3-.3-.5-.6-.8 1.1-.3 2-.7 2.9-1.2.6-.4.9-.6 1.6-1.3H215c-.4 0-.9 0-1.2.1v-.9c.3 0 .7.1 1.2.1h.4v-1.3h-.8c-.5 0-.9 0-1.2.1v-.9c.3 0 .7.1 1.2.1h.8v-1.2h-.3zm1.3 1.2h1.8v-1.2h-1.8v1.2zm0 2.1h1.8v-1.3h-1.8v1.3zm4.6-3.3h-1.9v1.2h1.9v-1.2zm0 1.9h-1.9v1.3h1.9v-1.3zm9.6-3.9c0-.5 0-.7-.1-1.1h1.1c-.1.3-.1.6-.1 1.1v.1h3.4c.6 0 .9 0 1.3-.1v.9c-.4 0-.8-.1-1.2-.1h-3.5v.9h2.4c.7 0 1 0 1.3-.1v4.3c-.3 0-.6-.1-1.3-.1h-2.4v1h3.6c.6 0 1 0 1.2-.1v1c-.4 0-.7-.1-1.3-.1h-3.6v.5c0 .6 0 .9.1 1.3h-1.1c.1-.4.1-.7.1-1.3v-.5h-3.4c-.5 0-.9 0-1.2.1v-1c.3.1.7.1 1.2.1h3.4v-1h-2.2c-.7 0-1 0-1.4.1v-4.3c.3 0 .6.1 1.3.1h2.3v-.9h-3.3c-.5 0-.9 0-1.2.1v-.9c.3.1.7.1 1.2.1h3.3v-.1zm-2.7 2.6v1h2.6v-1h-2.6zm0 1.7v1h2.6v-1h-2.6zm6.3-.7v-1h-2.8v1h2.8zm0 1.7v-1h-2.8v1h2.8zm3.9-1.3h1.1c.4-.5.5-.6.8-1.1-.6-.7-.9-1-1.7-1.8l.5-.7.5.5c.6-.9 1-1.6 1.1-2.1l.8.4c-.1.1-.1.2-.3.4-.3.6-.8 1.3-1.1 1.8.3.3.4.4.7.8.8-1.2 1.2-1.8 1.3-2.2l.8.5c-.1.1-.2.2-.4.5-.8 1.2-1.5 2.2-2.1 2.9.9-.1 1.1-.1 1.7-.2-.1-.3-.2-.5-.4-.9l.6-.3c.4.7.7 1.3 1 2.3l-.7.3c-.1-.4-.2-.5-.2-.7h-.3c-.3 0-.3 0-.7.1v3.8c0 .5 0 .9.1 1.2h-1c0-.3.1-.7.1-1.2V263c-.8.1-.8.1-1.3.1s-.5 0-.7.1l-.2-.9zm1.5 1.5c-.2 1.7-.3 2.3-.7 3.4l-.8-.4c.4-.9.6-1.6.7-3.2l.8.2zm2.7-.2c.3 1 .5 1.8.7 2.9l-.8.2c-.1-1.1-.3-2-.6-2.9l.7-.2zm2-3.7c-.4.7-.7 1.2-1.2 1.8-.2-.3-.4-.4-.7-.6.5-.6 1-1.3 1.3-2.1.3-.8.5-1.3.6-1.8l.9.2c-.1.2-.1.2-.3.7l-.3.9h3.8c0 .4 0 .4-.1 1.9 0 1.9-.2 4.3-.5 5.4-.3 1.2-.6 1.4-1.8 1.4-.3 0-.6 0-1.2-.1 0-.4-.1-.6-.2-1 .6.1 1.1.2 1.5.2.6 0 .7-.1.8-.9.3-1.3.5-3.5.5-6h-3.1zm1.1 4.8c-.5-1.3-.8-1.9-1.5-2.9l.7-.4c.8 1.1 1.1 1.7 1.6 2.9l-.8.4zm4.9 2.4v-1.3c2.6-2.5 4.2-3.6 4.2-5.2 0-1-.5-1.7-1.7-1.7-.7 0-1.4.3-2 .6v-1c.8-.4 1.5-.6 2.4-.6 1.6 0 2.5 1 2.5 2.6 0 1.7-1.2 2.8-4.2 5.6h4.6v1h-5.8zm12.6-8.8c-1.9 1-3.2 2.2-3.8 3.7.5-.3 1.2-.6 1.9-.6 1.4 0 2.5.9 2.5 2.8 0 1.8-1.1 3.1-2.9 3.1-2 0-2.9-1.4-2.9-3.4 0-2.7 1.5-4.8 4.7-6.3l.5.7zm-4 4.7v.8c0 1.8.7 2.6 1.8 2.6 1 0 1.8-.7 1.8-1.9s-.6-2-1.8-2c-.7-.1-1.4.1-1.8.5zm10.8-5.4c-.1.2-.2.3-.3.6-.9 1.8-2.1 3.3-3.7 4.5-.2-.3-.4-.5-.7-.8 1.4-1 2.4-2 3.2-3.4.3-.5.4-.9.5-1.2l1 .3zm-1.3 4.6c-.4 0-.8 0-1.2.1v-1c.3 0 .7.1 1.2.1h4c.5 0 .9 0 1.2-.1v.9c0 2.4-.2 4.3-.5 4.9-.2.4-.5.5-1.3.5-.3 0-.7 0-1.4-.1 0-.4-.1-.6-.2-1 .6.1 1.2.2 1.6.2.5 0 .6-.1.7-.7.2-.8.3-2.2.3-3.8h-2.6c-.1.6-.1.8-.2 1.2-.5 2-1.6 3.4-3.7 4.5-.2-.3-.3-.5-.6-.8 1.4-.6 2.4-1.5 2.9-2.5.4-.7.6-1.3.6-2.3h-.8zm3.8-4.9c.1.3.2.6.4 1 .8 1.5 1.9 2.6 3.4 3.6-.3.3-.4.5-.7.9-1.8-1.3-2.9-2.7-3.9-4.6-.1-.2-.2-.4-.3-.5l1.1-.4z"/><path class="st68" d="M291.1 296.2V139.8"/><path style="fill:#981e2a" d="M0 0h650v40.7H0z"/><path class="st50" d="M158.1 30.2c2.2-1.2 6.5-4.9 8.5-7.7 1.1-1.5 3.1-5.3 3.1-5.4 0-.1-.2-.1-.3-.1-1 0-2.1.3-3.1.5-.2.1-.3.1-.4.1-.2 0-.8-.3-1.1-.5-1.6 2.1-4.6 4.8-6.5 5.4l-.1-.1c3.3-3.1 6.1-7.7 6.1-8.5 0-.3-.2-.4-1.3-1.2.6-.1 1.1-.2 1.2-.2.6 0 2 .9 2.3 1.1.2.2.4.3.4.7 0 .4-.3.7-.7.8-.4.3-.5.6-.9 1.1 1.4 0 4.1-.3 4.4-.5l.6-.5c.1-.1.3-.2.4-.2.1 0 .3.1.5.3l1.4 1.2c.1.1.3.2.3.5 0 .4-.7.7-1.4 1-1.3 2.1-2.4 4.3-3.9 6.1-3.3 4.2-7.9 5.9-9.5 6.1zm12.5-17.5c1.5 0 4 .9 4 2.3 0 .5-.3.7-.7.7-.3 0-.5-.2-.8-.5-.7-.8-1.3-1.7-2.6-2.5zm2.1-.9c1.1 0 4.1.3 4.1 2 0 .6-.4.7-.7.7-.3 0-.3 0-1.2-.9-.3-.3-1.1-1.1-2.2-1.8zm8.1 18.7c2.3-.9 5.6-4.2 6.3-4.9 1-1.2 2.4-3.2 3.5-6.5-2 .2-7.2.8-8.4 1.3-.1.1-.7.4-.9.4-.5 0-2.3-1.3-2.3-2.9 0-.3 0-.5.2-.8.2.3.4.6 1 1.1.5.4.7.4 1.3.4 1.9 0 8.8-.6 9.2-.7l.6-.6c.2-.2.3-.4.5-.4s.4.1.6.3l1.1.9c.2.1.4.3.4.7 0 .3-.3.6-1.1 1-1.9 5.3-6.4 10.4-11.8 10.9v-.2zm3.2-16.4c2.6 0 4.7-.5 5.2-.7.2-.1.4-.3.8-.3s2.1.4 2.1 1.3c0 .6-.4.7-2.3.7-.1 0-3.1.2-4.8.3-.3 0-1.8.3-2.1.3-.3 0-.5 0-1.1-.5-.4-.4-1-1.3-1-2.3 1 1.2 2.3 1.2 3.2 1.2zm15.5-.6h.8c1.1 0 5.2.3 5.2 2.9 0 .7-.5 1.1-.9 1.1s-.7-.3-1.5-1.1c-1.2-1.2-1.9-1.8-3.6-2.7v-.2zm15.3 1.8c-.4 1.7-3 5.6-7.2 9.1-.7.5-3.9 3.1-4.1 3.3-.3.3-.7.8-1 .8-.8 0-2.5-2.1-2.5-3.3 0-.4.1-.8.2-1.1.7 1.3 1.4 1.6 1.7 1.6.2 0 .5 0 .9-.3 4.5-2.9 8-5.6 12-10.1zm5.6 14.3c4.7-2.6 8.9-7.9 10.2-13.8-1.4 0-7.6 1-8.2 1.1-.2 0-1.2.3-1.6.6-.2.1-.4.2-.6.2-.3 0-2-.9-2-3 0-.3.1-.6.3-1 .2.2.2.3.8.9.5.6 1 .7 1.6.7 1.8 0 8.8-.7 9.4-.9l.8-.5c.2-.1.3-.2.5-.2.1 0 .2 0 .3.2l1.2 1.2c.2.2.5.5.5.9s-.4.7-1.2 1c-1.5 4.4-3.4 8.4-7.4 10.8-2 1.2-3.7 1.7-4.5 1.9l-.1-.1zm21.5.8c.9-1.1 1.8-2.1 2.6-4.3.3-.8 1-2.7 1-4.1 0-.6-.3-.8-1.3-1.2.4-.3.8-.3.9-.3.3 0 .7.1 1 .2.7.3.8.7.8 1 1.2-1.2 2.2-2.4 2.9-3.2-1.3.1-5 .4-6.9.9-.3.1-1.6.6-1.6.6-.4 0-1.7-1-1.7-2 0-.3.1-.5.2-.7.6.9 1.2 1 1.5 1 .3 0 7.6-.7 8-.8.3 0 .9-.3 1.2-.3.4 0 1.9 1.3 1.9 1.8 0 .3-.7.4-1.3.7-.4.1-2 1.2-4.2 2.6-1 4.4-1.6 5.8-4.9 8.2l-.1-.1zm25.5-10.1c.7 0 2 0 3.5-.3.2 0 1.1-.2 1.3-.2.5 0 2.3.4 2.3 1.3s-.9 1-1.6 1c-.3 0-2.7-.1-3.2-.1h-6.2c-1.6 0-2.9.2-4.1.4-.2 0-.9.1-1 .1-.6 0-2.1-1.8-2.1-2.8 0-.3.1-.8.3-1.3.4 1 .9 1.9 3 1.9h7.8zm26.8-2.3c-2.5 4.8-6.9 7.8-11.6 10.3-.4.4-.6.8-1 .8-.3 0-.4-.2-.8-.7-.2-.3-1-1.1-1-1.6s.6-1.7.6-2.7V15c0-.5-.1-.8-.5-1-.2-.1-1.1-.4-1.6-.6.8-.4 1.2-.7 1.7-.7.8 0 2.9.9 2.9 1.4 0 .3-.2.8-.4 1-.3 2.2-.4 8.7-.4 9.3v1.8c4.7-1.7 10-6.3 12-8.2h.1zm8.7-4.4.5-.6c.1-.1.3-.3.4-.3.1 0 .3.1.4.2l1 .9c.2.1.2.3.2.4 0 .2-.2.4-.6.8v4.6c0 .6.1 3.4.1 3.7 0 .7 0 1.4-.7 2.1-.3.3-.9.8-1.7.7 0-.1-.2-1.8-.9-2.3 0 4.4.1 5 .1 5.6v.9c0 .8-.7 1-1.2 1-.7 0-.7-.4-.7-.7 0-.5.1-2.9.1-3.4.1-2.2.1-4.4.1-6.7v-6.3h-1.3c0 4.6.1 9.8.1 10.5v1.2c0 1-.9 1-1.1 1-.6 0-.7-.3-.7-.6 0-.2.1-1.2.1-1.4V14.7c0-.5-.1-1.3-.2-2l2 1.1h1.1v-2c0-.8 0-1.3-.5-2.3l2.5.8c.2 0 .4.2.4.4 0 .3-.3.5-.8.7v2.3h1.3zm-1.2.6v9.5c.4 0 .8.1 1.1.1.4 0 .5 0 .5-.3 0-.8-.1-9.1-.1-9.3h-1.5zm13.1 8.5.8-1.1c.1-.1.2-.3.3-.3.1 0 .3.1.4.2l1.3 1.1c.1.1.2.2.2.3 0 .2-.2.3-.4.3H312v5.2c0 .3.2.4.7.4.6 0 2.1 0 2.4-.2.5-.3 1-2.6 1.1-2.9h.2c.1.6.4 2.2.6 2.4.2.3.9.4.9.9 0 .3-.4.9-.7 1.1-.7.5-2 .5-3.3.5-2.3 0-3.5 0-3.6-2v-5.5h-1c-.3 2.1-1.5 6-6.7 7.5l-.1-.2c4-2.9 4.6-5.6 4.8-7.3-.2 0-.8 0-1.6.2l-.4-.9c1.5.1 3.1.1 3.3.1h1.1v-3.3c0-.6-.1-1.1-.3-2.5H308v.6c0 .4-.7.8-1.3.8-.2 0-.6 0-.6-.6 0-.2.1-.9.1-1v-5.2c-.2-1.3-.2-1.5-.2-1.7l2.2 1.1h5.1l.4-.6c.1-.2.3-.3.4-.3s.3.1.4.2l1.2.9c.2.1.3.3.3.4 0 .3-.6.7-.7.8 0 2 0 2.2.1 4v.5c0 1.3-1.1 1.3-1.2 1.3-.6 0-.7-.5-.7-1h-3.9l2.5.9c.2.1.4.1.4.4 0 .3-.6.6-.9.7v3.8h3.2zm-8.7-4.3c1.2.4 2.8 1.1 2.8 2.6 0 .7-.5 1-1 1-.8 0-1-1-1.1-1.5-.2-1-.4-1.4-.8-2l.1-.1zm2-6.9v2.1h5.3v-2.1h-5.3zm0 2.7v2.2h5.3v-2.2h-5.3zm7.4 5c.1.1.3.2.3.3 0 .4-.5.3-.7.3-.4.4-2.3 2-2.6 2.4l-.2-.1c.2-.6.9-2.2 1.1-4l2.1 1.1zm11.8-6.9h-4.1c-1.4 0-1.9 0-2.5.2l-.4-.9c1.5.1 3.1.1 3.3.1h13.5l1.1-1.2c.1-.1.2-.3.4-.3.1 0 .3.1.4.2l1.7 1.2c.1 0 .2.2.2.3 0 .3-.2.3-.3.3h-7.5v4h3.3l.7-.7c.1-.2.2-.3.4-.3.1 0 .3.1.4.2l1.2 1c.1.1.3.2.3.4 0 .3-.3.4-.7.7v4.9c0 1.9.2 5.6.2 5.9 0 .4.1.8.1 1 0 1.1-1.2 1.2-1.5 1.2-.5 0-.7-.1-.7-1.2v-.1h-12.2v.1c0 1.2-1.3 1.3-1.5 1.3-.3 0-.8 0-.8-.7 0-.1.1-.7.1-.9 0-.3.2-5.9.2-9.1 0-2.4-.1-3.7-.3-4.9l2.6 1.3h2.5v-4zm1.9 4.6c0 .6 0 1.8-.2 2.7-.4 3.1-2.7 5.1-4.5 5.9v3.2h12.2v-4.8c-.3.9-1.5 1.1-3 1.1-1.1 0-2.5-.2-2.5-1.8v-6.3h-2zm-4.7 8.2c2.6-2.3 2.8-5.2 2.8-8.3h-2.8v8.3zm4.7-8.8h2v-4h-2v4zm3.9.6v5.5c0 .3 0 .7.8.7s1.1-.4 1.4-2.5h.2c.2.8.3 1.5.6 2.1 0 .1.5.5.5.6v-6.4h-3.5zm9.7 13.2c2.4-1.3 7-5.3 9.3-8.4 1.2-1.6 3.4-5.8 3.4-5.9 0-.1-.2-.1-.3-.1-1.1 0-2.3.3-3.4.5-.3.1-.4.1-.5.1-.2 0-.9-.4-1.2-.5-1.7 2.3-5 5.2-7 5.9l-.1-.1c3.6-3.4 6.6-8.4 6.6-9.2 0-.4-.2-.5-1.4-1.3.6-.1 1.2-.2 1.3-.2.7 0 2.2 1 2.6 1.2.3.2.5.4.5.7 0 .4-.3.7-.8.9-.4.4-.6.6-1 1.2 1.5 0 4.5-.3 4.8-.6l.7-.5c.2-.1.3-.2.5-.2s.3.1.5.3l1.5 1.3c.2.1.3.3.3.6 0 .4-.8.7-1.6 1.1-1.4 2.3-2.6 4.6-4.3 6.7-3.8 4.6-8.8 6.5-10.5 6.8l.1-.3zM356.4 11c1.7 0 4.4.9 4.4 2.6 0 .5-.3.8-.7.8-.4 0-.6-.2-.8-.5-.7-.9-1.4-1.9-2.8-2.7V11zm2.2-.9c1.2.1 4.4.3 4.4 2.2 0 .6-.4.8-.7.8-.3 0-.4 0-1.3-1-.3-.4-1.3-1.2-2.5-1.8v-.2zm8.9 20.3c2.6-1 6.2-4.6 6.8-5.4 1.1-1.3 2.6-3.5 3.8-7.1-2.2.2-7.8.8-9.2 1.4-.2.1-.8.4-1 .4-.5 0-2.6-1.4-2.6-3.2 0-.3.1-.5.2-.9.2.3.5.7 1.1 1.2.6.4.8.5 1.5.5 2 0 9.6-.7 10-.8l.6-.6c.2-.2.4-.4.5-.4.2 0 .4.1.7.3l1.2 1c.2.2.4.4.4.8s-.3.6-1.2 1.1c-2.1 5.8-6.9 11.3-12.9 11.9v-.2zm3.5-17.8c2.8 0 5.1-.5 5.6-.8.2-.1.5-.3.8-.3.5 0 2.3.5 2.3 1.4 0 .7-.4.7-2.5.8-.2 0-3.4.2-5.3.4-.4.1-2 .4-2.3.4-.4 0-.6 0-1.2-.6-.5-.4-1.1-1.4-1-2.5 1.2 1.2 2.6 1.2 3.6 1.2zm17-.7c.3 0 .5-.1.9-.1 1.2 0 5.7.4 5.7 3.2 0 .8-.6 1.2-1 1.2s-.8-.4-1.6-1.2c-1.3-1.3-2.1-1.9-4-3v-.1zm16.6 2c-.5 1.9-3.3 6.2-7.8 9.9-.7.6-4.3 3.3-4.5 3.6-.3.3-.7.8-1.1.8-.9 0-2.7-2.3-2.7-3.5 0-.5.1-.9.2-1.2.8 1.4 1.6 1.7 1.9 1.7.3 0 .5-.1 1-.3 4.8-3.1 8.7-6.1 12.9-11h.1zm3.9 2.8c.6-.1 1.3-.2 2.4-.2 1.5 0 3 .2 4.1 1.3.3.3.4.6.4 1.1 0 .2-.1 1.1-.9 1.1-.3 0-.5-.2-1.3-.7-2.1-1.5-3.3-2.2-4.6-2.5v-.1zm17.9-1.8c-1.3 3.7-5.1 8.2-8.5 10.8-.9.7-2.1 1.6-3.2 2.4-.6.7-.9 1.1-1.4 1.1-.5 0-2.5-1.5-2.5-3.5 0-.3 0-.4.1-.6.3.3 1.6 1.3 2 1.3.5 0 2-.8 2.8-1.5 4.8-3.6 9.2-8.3 10.6-10.2l.1.2zm-15.5-4.2c.4-.1.8-.1 1.4-.1 3.3 0 4.9 1.5 4.9 2.7 0 .2-.1 1.1-.9 1.1-.4 0-.6-.2-1-.5-2.2-1.9-3.1-2.5-4.5-3.1v-.1zM437.4 26v-2.4c0-.7 0-2.9-.3-3.4-.3-.4-1.1-.2-1.3-.2-.3 0-1.1.2-1.4.2-.5 0-1-.3-1.4-.8-.5-.6-.5-.8-.6-1.3.3.2 1.1.7 2.1.7.3 0 5.4-.5 6.2-.7.3-.1.7-.3 1.1-.3.5 0 1.6.3 1.6.9 0 .5-.4.7-.7.7-.4 0-2.2.2-3.8.2.2.2.3.4.3.7 0 .4-.3 1.7-.3 2.2 0 .5-.2 2.7-.2 3.8 1.4-.1 3.5-.3 4.1-.3.4 0 1.3-.2 1.6-.2.6 0 2.2.6 2.2 1.5 0 .5-.4.5-.5.5-.3 0-.8-.1-1.1-.2-1.5-.3-2.7-.4-4.4-.4-2.9 0-6.2.4-7.5.8-.2.1-1.3.5-1.5.5-.7 0-1.7-1.5-1.7-2.4 0-.2.1-.5.2-.7.6.8 1.2 1.4 2.2 1.4.7 0 4.4-.4 5.2-.4V26zm24.6-6.7c.8 0 2.2 0 3.8-.3.3-.1 1.2-.2 1.5-.2.6 0 2.6.5 2.6 1.4 0 .9-1 1-1.8 1-.4 0-2.9-.1-3.5-.1h-6.7c-1.7 0-3.2.2-4.4.4-.2 0-.9.2-1.1.2-.6 0-2.3-2-2.3-3 0-.3.1-.9.4-1.4.4 1.1 1 2 3.3 2h8.2zm9.5 8.9c4-4.1 4.6-8.3 4.6-12 0-1 0-1.8-.8-2.1-.2-.1-1.1-.4-1.3-.4.2-.1 1.3-.5 1.5-.6.2-.1.4-.1.5-.1.5 0 2.6.5 2.6 1.3 0 .2-.3.8-.3 1.3 0 .4-.3 3.1-.4 3.7-.8 6-4.7 8.4-6.2 9l-.2-.1zm20.4-11.4c-.8 1.6-2.7 5.3-6.9 8.5-1.6 1.3-1.8 1.4-2.5 2.1-.2.2-.5.5-.6.5-.2 0-.3-.2-.9-.9-.6-.9-.9-1.5-.9-1.7 0-.2.3-.8.4-1 .2-.7.3-2.8.3-4.6 0-.8 0-6.1-.1-6.4-.1-.6-.9-.9-2-1.2.5-.3 1-.6 1.7-.6.9 0 2.2.5 2.7 1 .2.2.3.4.3.5 0 .2-.4 1.3-.4 1.5-.2 1-.5 8.2-.5 9.4 0 .3.1.4.3.4.7 0 4.8-2.9 9-7.6l.1.1z"/></svg>