<svg version="1.1" id="レイヤー_1" xmlns="http://www.w3.org/2000/svg" x="0" y="0" viewBox="0 0 940 162" style="enable-background:new 0 0 940 162" xml:space="preserve"><style>.st1{fill:#689fa3}.st2{fill:none;stroke:#eb6100;stroke-width:2.5732;stroke-linecap:round;stroke-linejoin:round;stroke-dasharray:0,5.1465}.st5{fill:#0086d1;stroke:#0086d1;stroke-width:.9439}.st6{fill:#fff}.st8{fill:#094}.st10{fill:#9f7294}.st11{fill:none;stroke:#9f7294;stroke-width:3.431}</style><path d="M155.3 49.8v-1.4c-.4.5-.6.7-1.1 1.1-.1-.4-.2-.5-.4-.8.8-.6 1.5-1.3 2.1-2.1.3-.4.5-.7.6-1l.8.5c-.1.1-.1.2-.3.5-.2.3-.4.6-.7 1v4.7c0 .6 0 1 .1 1.3h-1c0-.4.1-.8.1-1.4v-2.4zm1.8-6.5-.4.4c-.7.9-1.5 1.5-2.4 2.2-.2-.3-.3-.5-.5-.7 1.2-.7 2.1-1.6 2.5-2.4l.8.5zm3.2 4.2h-2.1c-.4 0-.8 0-1.1.1v-.9c.3 0 .7.1 1.1.1h2.1v-1.6h-1.6c-.5 0-.8 0-1.1.1v-.9c.3 0 .6.1 1.1.1h1.6v-.3c0-.6 0-.9-.1-1.2h1c0 .3-.1.6-.1 1.2v.3h1.7c.5 0 .8 0 1.1-.1v.9c-.3 0-.6-.1-1.1-.1h-1.7v1.6h2.4c.5 0 .8 0 1.2-.1v.9c-.3 0-.8-.1-1.2-.1h-2.4v1.6h1.8c.4 0 .8 0 1.1-.1v1c-.3 0-.7-.1-1.1-.1h-1.8v2.2c.5.1 1.2.2 2 .2.5 0 .8 0 1.6-.1-.1.4-.2.5-.3 1h-.9c-2.9 0-4.3-.6-5.3-2-.3 1-.7 1.6-1.3 2.4-.2-.3-.4-.4-.7-.6.8-1 1.2-1.8 1.5-3.1.2-.7.2-1.1.2-1.6l.9.2c-.1.3-.1.3-.2 1.2 0 .2-.1.4-.1.6.4.8.9 1.3 1.7 1.6v-4.4zm9.7.6c-.7 1.1-1.7 2-2.9 2.8-.2-.3-.4-.5-.7-.7 1.2-.6 2.2-1.5 2.8-2.6l.8.5zm5.8-1.7c.5 0 .9 0 1.2-.1v1c-.4 0-.7-.1-1.2-.1h-3.4v2.7c0 .6-.4.9-1.3.9H170c0-.3-.1-.6-.2-.9.5.1.9.1 1.3.1s.5 0 .5-.2v-2.5H168c-.5 0-.9 0-1.3.1v-1c.4 0 .7.1 1.3.1h.7v-1.6c0-.4 0-.7-.1-1.1h1c-.1.4-.1.6-.1 1.1v1.6h2V44c0-.5 0-.8-.1-1.1h1c-.1.3-.1.6-.1 1.1v.3h2.6c.5 0 .8 0 1.1-.1v.9c-.3 0-.6-.1-1.1-.1h-2.6v1.4h3.5zm-.7 3.7c-.7.7-1 .9-1.2 1.2-1.7 1.4-3.7 2.1-6.3 2.3-.1-.4-.2-.6-.4-.9 2 0 3.7-.5 5.2-1.3.9-.5 1.6-1.2 2-1.8l.7.5zm-.7-2.5c.7.9 1.7 1.6 2.8 2.2-.3.3-.4.4-.6.7-1.1-.6-2-1.4-2.9-2.5l.7-.4zm9.8-3.6c-1.9 1-3.2 2.2-3.8 3.7.5-.3 1.2-.6 1.9-.6 1.4 0 2.5.9 2.5 2.8 0 1.8-1.1 3.1-2.9 3.1-2 0-2.9-1.4-2.9-3.4 0-2.7 1.5-4.8 4.7-6.3l.5.7zm-4 4.6v.8c0 1.8.7 2.6 1.8 2.6 1 0 1.8-.7 1.8-1.9s-.6-2-1.8-2c-.7-.1-1.4.1-1.8.5zm10.7-5.4c-.1.2-.2.3-.3.6-.9 1.8-2.1 3.3-3.7 4.5-.2-.3-.4-.5-.7-.8 1.4-1 2.4-2 3.2-3.4.3-.5.4-.9.5-1.2l1 .3zm-1.2 4.7c-.4 0-.8 0-1.2.1v-1c.3 0 .7.1 1.2.1h4c.5 0 .9 0 1.2-.1v.9c0 2.4-.2 4.3-.5 4.9-.2.4-.5.5-1.3.5-.3 0-.7 0-1.4-.1 0-.4-.1-.6-.2-1 .6.1 1.2.2 1.6.2.5 0 .6-.1.7-.7.2-.8.3-2.2.3-3.8h-2.6c-.1.6-.1.8-.2 1.2-.5 2-1.6 3.4-3.7 4.5-.2-.3-.3-.5-.6-.8 1.4-.6 2.4-1.5 2.9-2.5.4-.7.6-1.3.6-2.3h-.8zm3.8-5c.1.3.2.6.4 1 .8 1.5 1.9 2.6 3.4 3.6-.3.3-.4.5-.7.9-1.8-1.3-2.9-2.7-3.9-4.6-.1-.2-.2-.4-.3-.5l1.1-.4zM509.8 15c-.4 0-.8 0-1.2.1v-.9c.3 0 .8.1 1.2.1h3v-1.1c-2.3.2-2.3.2-3.5.2-.1-.3-.2-.5-.3-.8h.4c1.9 0 4-.2 5.7-.4.9-.1 1.2-.2 1.7-.4l.6.8c-.2 0-.2 0-.4.1-1.1.2-2.1.4-3.3.5v1.1h3.2c.5 0 .9 0 1.2-.1v.8c-.3 0-.7-.1-1.2-.1h-.6v1.2h.9c.5 0 .9 0 1.2-.1v1c-.4-.1-.7-.1-1.2-.1h-.9v1.3h.6c.5 0 .8 0 1.2-.1v.9c-.3 0-.7-.1-1.2-.1h-2.7c.7.7 1.2 1 1.9 1.4.8.4 1.7.8 2.7 1-.2.3-.4.6-.5.9-2.2-.7-3.4-1.5-4.7-2.9v2c0 .6 0 .9.1 1.3h-1c.1-.4.1-.7.1-1.3v-2c-1.3 1.4-2.4 2.1-4.5 2.8-.2-.3-.3-.5-.6-.8 1.1-.3 2-.7 2.9-1.2.6-.4.9-.6 1.6-1.3h-2.5c-.4 0-.9 0-1.2.1V18c.3 0 .7.1 1.2.1h.4v-1.3h-.8c-.5 0-.9 0-1.2.1V16c.3 0 .7.1 1.2.1h.8V15h-.3zm1.3 1.2h1.8V15h-1.8v1.2zm0 2.1h1.8V17h-1.8v1.3zm4.5-3.3h-1.9v1.2h1.9V15zm0 1.9h-1.9v1.3h1.9v-1.3zm9.6-3.9c0-.5 0-.7-.1-1.1h1.1c-.1.3-.1.6-.1 1.1v.1h3.4c.6 0 .9 0 1.3-.1v.9c-.4 0-.8-.1-1.2-.1h-3.5v.9h2.4c.7 0 1 0 1.3-.1v4.3c-.3 0-.6-.1-1.3-.1h-2.4v1h3.6c.6 0 1 0 1.2-.1v1c-.4 0-.7-.1-1.3-.1H526v.5c0 .6 0 .9.1 1.3H525c.1-.4.1-.7.1-1.3v-.5h-3.4c-.5 0-.9 0-1.2.1v-1c.3.1.7.1 1.2.1h3.4v-1H523c-.7 0-1 0-1.4.1v-4.1c.3 0 .6.1 1.3.1h2.3V14h-3.3c-.5 0-.9 0-1.2.1V13c.3.1.7.1 1.2.1h3.3V13zm-2.6 2.5v1h2.6v-1h-2.6zm0 1.8v1h2.6v-1h-2.6zm6.3-.8v-1h-2.8v1h2.8zm0 1.8v-1h-2.8v1h2.8zm3.9-1.3h1.1c.4-.5.5-.6.8-1.1-.6-.7-.9-1-1.7-1.8l.5-.7.5.5c.6-.9 1-1.6 1.1-2.1l.8.4c-.1.1-.1.2-.3.4-.3.6-.8 1.3-1.1 1.8.3.3.4.4.7.8.8-1.2 1.2-1.8 1.3-2.2l.8.5c-.1.1-.2.2-.4.5-.8 1.2-1.5 2.2-2.1 2.9.9-.1 1.1-.1 1.7-.2-.1-.3-.2-.5-.4-.9l.6-.3c.4.7.7 1.3 1 2.3l-.7.3c-.1-.4-.2-.5-.2-.7h-.3c-.3 0-.3 0-.7.1v3.8c0 .5 0 .9.1 1.2h-1c0-.3.1-.7.1-1.2v-3.7c-.8.1-.8.1-1.3.1s-.5 0-.7.1l-.2-.8zm1.4 1.5c-.2 1.7-.3 2.3-.7 3.4l-.8-.4c.4-.9.6-1.6.7-3.2l.8.2zm2.8-.2c.3 1 .5 1.8.7 2.9l-.8.2c-.1-1.1-.3-2-.6-2.9l.7-.2zm2-3.7c-.4.7-.7 1.2-1.2 1.8-.2-.3-.4-.4-.7-.6.5-.6 1-1.3 1.3-2.1.3-.8.5-1.3.6-1.8l.9.2c-.1.2-.1.2-.3.7l-.3.9h3.8c0 .4 0 .4-.1 1.9 0 1.9-.2 4.3-.5 5.4-.3 1.2-.6 1.4-1.8 1.4-.3 0-.6 0-1.2-.1 0-.4-.1-.6-.2-1 .6.1 1.1.2 1.5.2.6 0 .7-.1.8-.9.3-1.3.5-3.5.5-6H539zm1 4.8c-.5-1.3-.8-1.9-1.5-2.9l.7-.4c.8 1.1 1.1 1.7 1.6 2.9l-.8.4zm7.7 2.4v-7.9l-2.3.8v-1l2.8-1h.7v9.1h-1.2zm4.4-1.1c.5.2 1.1.3 1.7.3 1.4 0 2.3-.5 2.3-1.9 0-1.2-.7-1.9-2.1-1.9-.4 0-.9 0-1.4.2l-.3-.3.2-4.3h4.5v1h-3.5l-.1 2.6c.3-.1.7-.1 1-.1 2 0 2.9 1.1 2.9 2.6 0 1.8-1.2 3-3.4 3-.5 0-1.2-.1-1.8-.2v-1zm11.3-8.4c-.1.2-.2.3-.3.6-.9 1.8-2.1 3.3-3.7 4.5-.2-.3-.4-.5-.7-.8 1.4-1 2.4-2 3.2-3.4.3-.5.4-.9.5-1.2l1 .3zm-1.2 4.6c-.4 0-.8 0-1.2.1v-1c.3 0 .7.1 1.2.1h4c.5 0 .9 0 1.2-.1v.9c0 2.4-.2 4.3-.5 4.9-.2.4-.5.5-1.3.5-.3 0-.7 0-1.4-.1 0-.4-.1-.6-.2-1 .6.1 1.2.2 1.6.2.5 0 .6-.1.7-.7.2-.8.3-2.2.3-3.8H564c-.1.6-.1.8-.2 1.2-.5 2-1.6 3.4-3.7 4.5-.2-.3-.3-.5-.6-.8 1.4-.6 2.4-1.5 2.9-2.5.4-.7.6-1.3.6-2.3h-.8zM566 12c.1.3.2.6.4 1 .8 1.5 1.9 2.6 3.4 3.6-.3.3-.4.5-.7.9-1.8-1.3-2.9-2.7-3.9-4.6-.1-.2-.2-.4-.3-.5l1.1-.4zm185.6 3c-.4 0-.8 0-1.2.1v-.9c.3 0 .8.1 1.2.1h3v-1.1c-2.3.2-2.3.2-3.5.2-.1-.3-.2-.5-.3-.8h.4c1.9 0 4-.2 5.7-.4.9-.1 1.2-.2 1.7-.4l.6.8c-.2 0-.2 0-.4.1-1.1.2-2.1.4-3.3.5v1.1h3.2c.5 0 .9 0 1.2-.1v.8c-.3 0-.7-.1-1.2-.1h-.6v1.2h.9c.5 0 .9 0 1.2-.1v1c-.4-.1-.7-.1-1.2-.1h-.9v1.3h.6c.5 0 .8 0 1.2-.1v.9c-.3 0-.7-.1-1.2-.1H756c.7.7 1.2 1 1.9 1.4.8.4 1.7.8 2.7 1-.2.3-.4.6-.5.9-2.2-.7-3.4-1.5-4.7-2.9v2c0 .6 0 .9.1 1.3h-1c.1-.4.1-.7.1-1.3v-2c-1.3 1.4-2.4 2.1-4.5 2.8-.2-.3-.3-.5-.6-.8 1.1-.3 2-.7 2.9-1.2.6-.4.9-.6 1.6-1.3h-2.5c-.4 0-.9 0-1.2.1V18c.3 0 .7.1 1.2.1h.4v-1.3h-.8c-.5 0-.9 0-1.2.1V16c.3 0 .7.1 1.2.1h.8V15h-.3zm1.3 1.2h1.8V15h-1.8v1.2zm0 2.1h1.8V17h-1.8v1.3zm4.6-3.3h-1.9v1.2h1.9V15zm0 1.9h-1.9v1.3h1.9v-1.3zm9.6-3.9c0-.5 0-.7-.1-1.1h1.1c-.1.3-.1.6-.1 1.1v.1h3.4c.6 0 .9 0 1.3-.1v.9c-.4 0-.8-.1-1.2-.1H768v.9h2.4c.7 0 1 0 1.3-.1v4.3c-.3 0-.6-.1-1.3-.1H768v1h3.6c.6 0 1 0 1.2-.1v1c-.4 0-.7-.1-1.3-.1H768v.5c0 .6 0 .9.1 1.3H767c.1-.4.1-.7.1-1.3v-.5h-3.4c-.5 0-.9 0-1.2.1v-1c.3.1.7.1 1.2.1h3.4v-1h-2.2c-.7 0-1 0-1.4.1v-4.1c.3 0 .6.1 1.3.1h2.3V14h-3.3c-.5 0-.9 0-1.2.1V13c.3.1.7.1 1.2.1h3.3V13zm-2.7 2.5v1h2.6v-1h-2.6zm0 1.8v1h2.6v-1h-2.6zm6.3-.8v-1H768v1h2.7zm0 1.8v-1H768v1h2.7zm3.9-1.3h1.1c.4-.5.5-.6.8-1.1-.6-.7-.9-1-1.7-1.8l.5-.7.5.5c.6-.9 1-1.6 1.1-2.1l.8.4c-.1.1-.1.2-.3.4-.3.6-.8 1.3-1.1 1.8.3.3.4.4.7.8.8-1.2 1.2-1.8 1.3-2.2l.8.5c-.1.1-.2.2-.4.5-.8 1.2-1.5 2.2-2.1 2.9.9-.1 1.1-.1 1.7-.2-.1-.3-.2-.5-.4-.9l.6-.3c.4.7.7 1.3 1 2.3l-.7.3c-.1-.4-.2-.5-.2-.7h-.3c-.3 0-.3 0-.7.1v3.8c0 .5 0 .9.1 1.2h-1c0-.3.1-.7.1-1.2v-3.7c-.8.1-.8.1-1.3.1s-.5 0-.7.1l-.2-.8zm1.5 1.5c-.2 1.7-.3 2.3-.7 3.4l-.8-.4c.4-.9.6-1.6.7-3.2l.8.2zm2.7-.2c.3 1 .5 1.8.7 2.9l-.8.2c-.1-1.1-.3-2-.6-2.9l.7-.2zm2-3.7c-.4.7-.7 1.2-1.2 1.8-.2-.3-.4-.4-.7-.6.5-.6 1-1.3 1.3-2.1.3-.8.5-1.3.6-1.8l.9.2c-.1.2-.1.2-.3.7l-.3.9h3.8c0 .4 0 .4-.1 1.9 0 1.9-.2 4.3-.5 5.4-.3 1.2-.6 1.4-1.8 1.4-.3 0-.6 0-1.2-.1 0-.4-.1-.6-.2-1 .6.1 1.1.2 1.5.2.6 0 .7-.1.8-.9.3-1.3.5-3.5.5-6h-3.1zm1.1 4.8c-.5-1.3-.8-1.9-1.5-2.9l.6-.5c.8 1.1 1.1 1.7 1.6 2.9l-.7.5zm4.9 2.4v-1.3c2.6-2.5 4.2-3.6 4.2-5.2 0-1-.5-1.7-1.7-1.7-.7 0-1.4.3-2 .6v-1c.8-.4 1.5-.6 2.4-.6 1.6 0 2.5 1 2.5 2.6 0 1.7-1.2 2.8-4.2 5.6h4.6v1h-5.8zm11.9-9.5c-.1.2-.2.3-.3.6-.9 1.8-2.1 3.3-3.7 4.5-.2-.3-.4-.5-.7-.8 1.4-1 2.4-2 3.2-3.4.3-.5.4-.9.5-1.2l1 .3zm-1.2 4.6c-.4 0-.8 0-1.2.1v-1c.3 0 .7.1 1.2.1h4c.5 0 .9 0 1.2-.1v.9c0 2.4-.2 4.3-.5 4.9-.2.4-.5.5-1.3.5-.3 0-.7 0-1.4-.1 0-.4-.1-.6-.2-1 .6.1 1.2.2 1.6.2.5 0 .6-.1.7-.7.2-.8.3-2.2.3-3.8h-2.6c-.1.6-.1.8-.2 1.2-.5 2-1.6 3.4-3.7 4.5-.2-.3-.3-.5-.6-.8 1.4-.6 2.4-1.5 2.9-2.5.4-.7.6-1.3.6-2.3h-.8zm3.8-4.9c.1.3.2.6.4 1 .8 1.5 1.9 2.6 3.4 3.6-.3.3-.4.5-.7.9-1.8-1.3-2.9-2.7-3.9-4.6-.1-.2-.2-.4-.3-.5l1.1-.4zM509.8 77c-.4 0-.8 0-1.2.1v-.9c.3 0 .8.1 1.2.1h3v-1.1c-2.3.2-2.3.2-3.5.2-.1-.3-.2-.5-.3-.8h.4c1.9 0 4-.2 5.7-.4.9-.1 1.2-.2 1.7-.4l.6.8c-.2 0-.2 0-.4.1-1.1.2-2.1.4-3.3.5v1.1h3.2c.5 0 .9 0 1.2-.1v.9c-.3 0-.7-.1-1.2-.1h-.6v1.2h.9c.5 0 .9 0 1.2-.1v.9c-.4-.1-.7-.1-1.2-.1h-.9v1.3h.6c.5 0 .8 0 1.2-.1v.9c-.3 0-.7-.1-1.2-.1h-2.7c.7.7 1.2 1 1.9 1.4.8.4 1.7.8 2.7 1-.2.3-.4.6-.5.9-2.2-.7-3.4-1.5-4.7-2.9v2c0 .6 0 .9.1 1.3h-1c.1-.4.1-.7.1-1.3v-2c-1.3 1.4-2.4 2.1-4.5 2.8-.2-.3-.3-.5-.6-.8 1.1-.3 2-.7 2.9-1.2.6-.4.9-.6 1.6-1.3h-2.5c-.4 0-.9 0-1.2.1V80c.3 0 .7.1 1.2.1h.4V79h-.8c-.5 0-.9 0-1.2.1v-.9c.3 0 .7.1 1.2.1h.8V77h-.3zm1.3 1.2h1.8V77h-1.8v1.2zm0 2.1h1.8V79h-1.8v1.3zm4.5-3.3h-1.9v1.2h1.9V77zm0 2h-1.9v1.3h1.9V79zm9.6-4c0-.5 0-.7-.1-1.1h1.1c-.1.3-.1.6-.1 1.1v.1h3.4c.6 0 .9 0 1.3-.1v1c-.4 0-.8-.1-1.2-.1h-3.5v.9h2.4c.7 0 1 0 1.3-.1V81c-.3 0-.6-.1-1.3-.1h-2.4v1h3.6c.6 0 1 0 1.2-.1v1c-.4 0-.7-.1-1.3-.1H526v.5c0 .6 0 .9.1 1.3H525c.1-.4.1-.7.1-1.3v-.5h-3.4c-.5 0-.9 0-1.2.1v-1c.3.1.7.1 1.2.1h3.4v-1H523c-.7 0-1 0-1.4.1v-4.2c.3 0 .6.1 1.3.1h2.3V76h-3.3c-.5 0-.9 0-1.2.1v-.9c.3.1.7.1 1.2.1h3.3V75zm-2.6 2.6v1h2.6v-1h-2.6zm0 1.7v1h2.6v-1h-2.6zm6.3-.7v-1h-2.8v1h2.8zm0 1.8v-1h-2.8v1h2.8zm3.9-1.4h1.1c.4-.5.5-.6.8-1.1-.6-.7-.9-1-1.7-1.8l.5-.7.5.5c.6-.9 1-1.6 1.1-2.1l.8.4c-.1.1-.1.2-.3.4-.3.6-.8 1.3-1.1 1.8.3.3.4.4.7.8.8-1.2 1.2-1.8 1.3-2.2l.8.5c-.1.1-.2.2-.4.5-.8 1.2-1.5 2.2-2.1 2.9.9-.1 1.1-.1 1.7-.2-.1-.3-.2-.5-.4-.9l.6-.3c.4.7.7 1.3 1 2.3l-.7.3c-.1-.4-.2-.5-.2-.7h-.3c-.3 0-.3 0-.7.1v3.8c0 .5 0 .9.1 1.2h-1c0-.3.1-.7.1-1.2v-3.7c-.8.1-.8.1-1.3.1s-.5 0-.7.1l-.2-.8zm1.4 1.6c-.2 1.7-.3 2.3-.7 3.4l-.8-.4c.4-.9.6-1.6.7-3.2l.8.2zm2.8-.2c.3 1 .5 1.8.7 2.9l-.8.2c-.1-1.1-.3-2-.6-2.9l.7-.2zm2-3.7c-.4.7-.7 1.2-1.2 1.8-.2-.3-.4-.4-.7-.6.5-.6 1-1.3 1.3-2.1.3-.8.5-1.3.6-1.8l.9.2c-.1.2-.1.2-.3.7l-.3.9h3.8c0 .4 0 .4-.1 1.9 0 1.9-.2 4.3-.5 5.4-.3 1.2-.6 1.4-1.8 1.4-.3 0-.6 0-1.2-.1 0-.4-.1-.6-.2-1 .6.1 1.1.2 1.5.2.6 0 .7-.1.8-.9.3-1.3.5-3.5.5-6H539zm1 4.7c-.5-1.3-.8-1.9-1.5-2.9l.7-.4c.8 1.1 1.1 1.7 1.6 2.9l-.8.4zm5.8 2.2c1.9-1 3.2-2.1 3.8-3.7-.5.3-1.2.6-1.9.6-1.4 0-2.5-.9-2.5-2.8 0-1.8 1.1-3.1 2.9-3.1 2 0 2.9 1.4 2.9 3.4 0 2.7-1.5 4.8-4.7 6.3l-.5-.7zm4-4.7v-.8c0-1.8-.7-2.6-1.8-2.6-1 0-1.8.7-1.8 1.9s.6 2 1.8 2c.7.2 1.3-.1 1.8-.5zm7.6-4.5c-.1.2-.2.3-.3.6-.9 1.8-2.1 3.3-3.7 4.5-.2-.3-.4-.5-.7-.8 1.4-1 2.4-2 3.2-3.4.3-.5.4-.9.5-1.2l1 .3zm-1.3 4.6c-.4 0-.8 0-1.2.1v-1c.3 0 .7.1 1.2.1h4c.5 0 .9 0 1.2-.1v.9c0 2.4-.2 4.3-.5 4.9-.2.4-.5.5-1.3.5-.3 0-.7 0-1.4-.1 0-.4-.1-.6-.2-1 .6.1 1.2.2 1.6.2.5 0 .6-.1.7-.7.2-.8.3-2.2.3-3.8h-2.6c-.1.6-.1.8-.2 1.2-.5 2-1.6 3.4-3.7 4.5-.2-.3-.3-.5-.6-.8 1.4-.6 2.4-1.5 2.9-2.5.4-.7.6-1.3.6-2.3h-.8zm3.8-5c.1.3.2.6.4 1 .8 1.5 1.9 2.6 3.4 3.6-.3.3-.4.5-.7.9-1.8-1.3-2.9-2.7-3.9-4.6-.1-.2-.2-.4-.3-.5l1.1-.4zm-50.1-29c-.4 0-.8 0-1.2.1v-.9c.3 0 .8.1 1.2.1h3v-1.1c-2.3.2-2.3.2-3.5.2-.1-.3-.2-.5-.3-.8h.4c1.9 0 4-.2 5.7-.4.9-.1 1.2-.2 1.7-.4l.6.8c-.2 0-.2 0-.4.1-1.1.2-2.1.4-3.3.5v1.1h3.2c.5 0 .9 0 1.2-.1v.8c-.3 0-.7-.1-1.2-.1h-.6v1.2h.9c.5 0 .9 0 1.2-.1v1c-.4-.1-.7-.1-1.2-.1h-.9v1.3h.6c.5 0 .8 0 1.2-.1v.9c-.3 0-.7-.1-1.2-.1h-2.7c.7.7 1.2 1 1.9 1.4.8.4 1.7.8 2.7 1-.2.3-.4.6-.5.9-2.2-.7-3.4-1.5-4.7-2.9v2c0 .6 0 .9.1 1.3h-1c.1-.4.1-.7.1-1.3v-2c-1.3 1.4-2.4 2.1-4.5 2.8-.2-.3-.3-.5-.6-.8 1.1-.3 2-.7 2.9-1.2.6-.4.9-.6 1.6-1.3h-2.5c-.4 0-.9 0-1.2.1V48c.3 0 .7.1 1.2.1h.4v-1.3h-.8c-.5 0-.9 0-1.2.1V46c.3 0 .7.1 1.2.1h.8V45h-.3zm1.3 1.2h1.8V45h-1.8v1.2zm0 2.1h1.8V47h-1.8v1.3zm4.5-3.3h-1.9v1.2h1.9V45zm0 1.9h-1.9v1.3h1.9v-1.3zm9.6-3.9c0-.5 0-.7-.1-1.1h1.1c-.1.3-.1.6-.1 1.1v.1h3.4c.6 0 .9 0 1.3-.1v.9c-.4 0-.8-.1-1.2-.1h-3.5v.9h2.4c.7 0 1 0 1.3-.1v4.3c-.3 0-.6-.1-1.3-.1h-2.4v1h3.6c.6 0 1 0 1.2-.1v1c-.4 0-.7-.1-1.3-.1H526v.5c0 .6 0 .9.1 1.3H525c.1-.4.1-.7.1-1.3v-.5h-3.4c-.5 0-.9 0-1.2.1v-1c.3.1.7.1 1.2.1h3.4v-1H523c-.7 0-1 0-1.4.1v-4.1c.3 0 .6.1 1.3.1h2.3V44h-3.3c-.5 0-.9 0-1.2.1V43c.3.1.7.1 1.2.1h3.3V43zm-2.6 2.5v1h2.6v-1h-2.6zm0 1.8v1h2.6v-1h-2.6zm6.3-.8v-1h-2.8v1h2.8zm0 1.8v-1h-2.8v1h2.8zm3.9-1.3h1.1c.4-.5.5-.6.8-1.1-.6-.7-.9-1-1.7-1.8l.5-.7.5.5c.6-.9 1-1.6 1.1-2.1l.8.4c-.1.1-.1.2-.3.4-.3.6-.8 1.3-1.1 1.8.3.3.4.4.7.8.8-1.2 1.2-1.8 1.3-2.2l.8.5c-.1.1-.2.2-.4.5-.8 1.2-1.5 2.2-2.1 2.9.9-.1 1.1-.1 1.7-.2-.1-.3-.2-.5-.4-.9l.6-.3c.4.7.7 1.3 1 2.3l-.7.3c-.1-.4-.2-.5-.2-.7h-.3c-.3 0-.3 0-.7.1v3.8c0 .5 0 .9.1 1.2h-1c0-.3.1-.7.1-1.2v-3.7c-.8.1-.8.1-1.3.1s-.5 0-.7.1l-.2-.8zm1.4 1.5c-.2 1.7-.3 2.3-.7 3.4l-.8-.4c.4-.9.6-1.6.7-3.2l.8.2zm2.8-.2c.3 1 .5 1.8.7 2.9l-.8.2c-.1-1.1-.3-2-.6-2.9l.7-.2zm2-3.7c-.4.7-.7 1.2-1.2 1.8-.2-.3-.4-.4-.7-.6.5-.6 1-1.3 1.3-2.1.3-.8.5-1.3.6-1.8l.9.2c-.1.2-.1.2-.3.7l-.3.9h3.8c0 .4 0 .4-.1 1.9 0 1.9-.2 4.3-.5 5.4-.3 1.2-.6 1.4-1.8 1.4-.3 0-.6 0-1.2-.1 0-.4-.1-.6-.2-1 .6.1 1.1.2 1.5.2.6 0 .7-.1.8-.9.3-1.3.5-3.5.5-6H539zm1 4.8c-.5-1.3-.8-1.9-1.5-2.9l.7-.4c.8 1.1 1.1 1.7 1.6 2.9l-.8.4zm5 2.4v-1.3c2.6-2.5 4.2-3.6 4.2-5.2 0-1-.5-1.7-1.7-1.7-.7 0-1.4.3-2 .6v-1c.8-.4 1.5-.6 2.4-.6 1.6 0 2.5 1 2.5 2.6 0 1.7-1.2 2.8-4.2 5.6h4.6v1H545zm12.6-8.8c-1.9 1-3.2 2.2-3.8 3.7.5-.3 1.2-.6 1.9-.6 1.4 0 2.5.9 2.5 2.8 0 1.8-1.1 3.1-2.9 3.1-2 0-2.9-1.4-2.9-3.4 0-2.7 1.5-4.8 4.7-6.3l.5.7zm-4 4.7v.8c0 1.8.7 2.6 1.8 2.6 1 0 1.8-.7 1.8-1.9s-.6-2-1.8-2c-.7-.1-1.4.1-1.8.5zm10.7-5.4c-.1.2-.2.3-.3.6-.9 1.8-2.1 3.3-3.7 4.5-.2-.3-.4-.5-.7-.8 1.4-1 2.4-2 3.2-3.4.3-.5.4-.9.5-1.2l1 .3zm-1.2 4.6c-.4 0-.8 0-1.2.1v-1c.3 0 .7.1 1.2.1h4c.5 0 .9 0 1.2-.1v.9c0 2.4-.2 4.3-.5 4.9-.2.4-.5.5-1.3.5-.3 0-.7 0-1.4-.1 0-.4-.1-.6-.2-1 .6.1 1.2.2 1.6.2.5 0 .6-.1.7-.7.2-.8.3-2.2.3-3.8h-2.6c-.1.6-.1.8-.2 1.2-.5 2-1.6 3.4-3.7 4.5-.2-.3-.3-.5-.6-.8 1.4-.6 2.4-1.5 2.9-2.5.4-.7.6-1.3.6-2.3h-.8zm3.8-4.9c.1.3.2.6.4 1 .8 1.5 1.9 2.6 3.4 3.6-.3.3-.4.5-.7.9-1.8-1.3-2.9-2.7-3.9-4.6-.1-.2-.2-.4-.3-.5l1.1-.4zm-57.1 65.4c-.4 0-.8 0-1.2.1v-.9c.3 0 .8.1 1.2.1h3v-1.1c-2.3.2-2.3.2-3.5.2-.1-.3-.2-.5-.3-.8h.4c1.9 0 4-.2 5.7-.4.9-.1 1.2-.2 1.7-.4l.6.8c-.2 0-.2 0-.4.1-1.1.2-2.1.4-3.3.5v1.1h3.2c.5 0 .9 0 1.2-.1v.9c-.3 0-.7-.1-1.2-.1h-.6v1.2h.9c.5 0 .9 0 1.2-.1v.9c-.4-.1-.7-.1-1.2-.1h-.9v1.3h.6c.5 0 .8 0 1.2-.1v.9c-.3 0-.7-.1-1.2-.1h-2.7c.7.7 1.2 1 1.9 1.4.8.4 1.7.8 2.7 1-.2.3-.4.6-.5.9-2.2-.7-3.4-1.5-4.7-2.9v2c0 .6 0 .9.1 1.3h-1c.1-.4.1-.7.1-1.3v-2c-1.3 1.4-2.4 2.1-4.5 2.8-.2-.3-.3-.5-.6-.8 1.1-.3 2-.7 2.9-1.2.6-.4.9-.6 1.6-1.3h-2.5c-.4 0-.9 0-1.2.1v-.9c.3 0 .7.1 1.2.1h.4v-1.3h-.8c-.5 0-.9 0-1.2.1v-.9c.3 0 .7.1 1.2.1h.8v-1.2h-.3zm1.3 1.2h1.8v-1.2h-1.8v1.2zm0 2.1h1.8v-1.3h-1.8v1.3zm4.5-3.3h-1.9v1.2h1.9v-1.2zm0 2h-1.9v1.3h1.9v-1.3zm9.6-4c0-.5 0-.7-.1-1.1h1.1c-.1.3-.1.6-.1 1.1v.1h3.4c.6 0 .9 0 1.3-.1v.9c-.4 0-.8-.1-1.2-.1h-3.5v.9h2.4c.7 0 1 0 1.3-.1v4.3c-.3 0-.6-.1-1.3-.1h-2.4v1h3.6c.6 0 1 0 1.2-.1v1c-.4 0-.7-.1-1.3-.1H526v.5c0 .6 0 .9.1 1.3H525c.1-.4.1-.7.1-1.3v-.5h-3.4c-.5 0-.9 0-1.2.1v-1c.3.1.7.1 1.2.1h3.4v-1H523c-.7 0-1 0-1.4.1V107c.3 0 .6.1 1.3.1h2.3v-.9h-3.3c-.5 0-.9 0-1.2.1v-.9c.3.1.7.1 1.2.1h3.3v-.1zm-2.6 2.6v1h2.6v-1h-2.6zm0 1.7v1h2.6v-1h-2.6zm6.3-.7v-1h-2.8v1h2.8zm0 1.7v-1h-2.8v1h2.8zm3.9-1.3h1.1c.4-.5.5-.6.8-1.1-.6-.7-.9-1-1.7-1.8l.5-.7.5.5c.6-.9 1-1.6 1.1-2.1l.8.4c-.1.1-.1.2-.3.4-.3.6-.8 1.3-1.1 1.8.3.3.4.4.7.8.8-1.2 1.2-1.8 1.3-2.2l.8.5c-.1.1-.2.2-.4.5-.8 1.2-1.5 2.2-2.1 2.9.9-.1 1.1-.1 1.7-.2-.1-.3-.2-.5-.4-.9l.6-.3c.4.7.7 1.3 1 2.3l-.7.3c-.1-.4-.2-.5-.2-.7h-.3c-.3 0-.3 0-.7.1v3.8c0 .5 0 .9.1 1.2h-1c0-.3.1-.7.1-1.2V110c-.8.1-.8.1-1.3.1s-.5 0-.7.1l-.2-.8zm1.4 1.5c-.2 1.7-.3 2.3-.7 3.4l-.8-.4c.4-.9.6-1.6.7-3.2l.8.2zm2.8-.2c.3 1 .5 1.8.7 2.9l-.8.2c-.1-1.1-.3-2-.6-2.9l.7-.2zm2-3.7c-.4.7-.7 1.2-1.2 1.8-.2-.3-.4-.4-.7-.6.5-.6 1-1.3 1.3-2.1.3-.8.5-1.3.6-1.8l.9.2c-.1.2-.1.2-.3.7l-.3.9h3.8c0 .4 0 .4-.1 1.9 0 1.9-.2 4.3-.5 5.4-.3 1.2-.6 1.4-1.8 1.4-.3 0-.6 0-1.2-.1 0-.4-.1-.6-.2-1 .6.1 1.1.2 1.5.2.6 0 .7-.1.8-.9.3-1.3.5-3.5.5-6H539zm1 4.8c-.5-1.3-.8-1.9-1.5-2.9l.7-.4c.8 1.1 1.1 1.7 1.6 2.9l-.8.4zm10.4-6.4c-1.9 1-3.2 2.2-3.8 3.7.5-.3 1.2-.6 1.9-.6 1.4 0 2.5.9 2.5 2.8 0 1.8-1.1 3.1-2.9 3.1-2 0-2.9-1.4-2.9-3.4 0-2.7 1.5-4.8 4.7-6.3l.5.7zm-4.1 4.7v.8c0 1.8.7 2.6 1.8 2.6 1 0 1.8-.7 1.8-1.9s-.6-2-1.8-2c-.6-.1-1.3.1-1.8.5zm10.8-5.4c-.1.2-.2.3-.3.6-.9 1.8-2.1 3.3-3.7 4.5-.2-.3-.4-.5-.7-.8 1.4-1 2.4-2 3.2-3.4.3-.5.4-.9.5-1.2l1 .3zm-1.3 4.6c-.4 0-.8 0-1.2.1v-1c.3 0 .7.1 1.2.1h4c.5 0 .9 0 1.2-.1v.9c0 2.4-.2 4.3-.5 4.9-.2.4-.5.5-1.3.5-.3 0-.7 0-1.4-.1 0-.4-.1-.6-.2-1 .6.1 1.2.2 1.6.2.5 0 .6-.1.7-.7.2-.8.3-2.2.3-3.8h-2.6c-.1.6-.1.8-.2 1.2-.5 2-1.6 3.4-3.7 4.5-.2-.3-.3-.5-.6-.8 1.4-.6 2.4-1.5 2.9-2.5.4-.7.6-1.3.6-2.3h-.8zm3.8-4.9c.1.3.2.6.4 1 .8 1.5 1.9 2.6 3.4 3.6-.3.3-.4.5-.7.9-1.8-1.3-2.9-2.7-3.9-4.6-.1-.2-.2-.4-.3-.5l1.1-.4zm-49.8 33.4c-.4 0-.8 0-1.2.1v-.9c.3 0 .8.1 1.2.1h3V136c-2.3.2-2.3.2-3.5.2-.1-.3-.2-.5-.3-.8h.4c1.9 0 4-.2 5.7-.4.9-.1 1.2-.2 1.7-.4l.6.8c-.2 0-.2 0-.4.1-1.1.2-2.1.4-3.3.5v1.1h3.2c.5 0 .9 0 1.2-.1v.9c-.3 0-.7-.1-1.2-.1h-.6v1.2h.9c.5 0 .9 0 1.2-.1v.9c-.4-.1-.7-.1-1.2-.1h-.9v1.3h.6c.5 0 .8 0 1.2-.1v.9c-.3 0-.7-.1-1.2-.1h-2.7c.7.7 1.2 1 1.9 1.4.8.4 1.7.8 2.7 1-.2.3-.4.6-.5.9-2.2-.7-3.4-1.5-4.7-2.9v2c0 .6 0 .9.1 1.3h-1c.1-.4.1-.7.1-1.3v-2c-1.3 1.4-2.4 2.1-4.5 2.8-.2-.3-.3-.5-.6-.8 1.1-.3 2-.7 2.9-1.2.6-.4.9-.6 1.6-1.3h-2.5c-.4 0-.9 0-1.2.1v-.7c.3 0 .7.1 1.2.1h.4v-1.3h-.8c-.5 0-.9 0-1.2.1v-.9c.3 0 .7.1 1.2.1h.8v-1.2h-.3zm1.3 1.2h1.8v-1.2h-1.8v1.2zm0 2.1h1.8v-1.3h-1.8v1.3zm4.5-3.3h-1.9v1.2h1.9v-1.2zm0 1.9h-1.9v1.3h1.9v-1.3zm9.6-3.9c0-.5 0-.7-.1-1.1h1.1c-.1.3-.1.6-.1 1.1v.1h3.4c.6 0 .9 0 1.3-.1v.9c-.4 0-.8-.1-1.2-.1h-3.5v.9h2.4c.7 0 1 0 1.3-.1v4.3c-.3 0-.6-.1-1.3-.1h-2.4v1h3.6c.6 0 1 0 1.2-.1v1c-.4 0-.7-.1-1.3-.1H526v.5c0 .6 0 .9.1 1.3H525c.1-.4.1-.7.1-1.3v-.5h-3.4c-.5 0-.9 0-1.2.1v-1c.3.1.7.1 1.2.1h3.4v-1H523c-.7 0-1 0-1.4.1v-4.3c.3 0 .6.1 1.3.1h2.3v-.9h-3.3c-.5 0-.9 0-1.2.1v-.9c.3.1.7.1 1.2.1h3.3v-.1zm-2.6 2.6v1h2.6v-1h-2.6zm0 1.7v1h2.6v-1h-2.6zm6.3-.7v-1h-2.8v1h2.8zm0 1.7v-1h-2.8v1h2.8zm3.9-1.3h1.1c.4-.5.5-.6.8-1.1-.6-.7-.9-1-1.7-1.8l.5-.7.5.5c.6-.9 1-1.6 1.1-2.1l.8.4c-.1.1-.1.2-.3.4-.3.6-.8 1.3-1.1 1.8.3.3.4.4.7.8.8-1.2 1.2-1.8 1.3-2.2l.8.5c-.1.1-.2.2-.4.5-.8 1.2-1.5 2.2-2.1 2.9.9-.1 1.1-.1 1.7-.2-.1-.3-.2-.5-.4-.9l.6-.3c.4.7.7 1.3 1 2.3l-.7.4c-.1-.4-.2-.5-.2-.7h-.3c-.3 0-.3 0-.7.1v3.8c0 .5 0 .9.1 1.2h-1c0-.3.1-.7.1-1.2v-3.7c-.8.1-.8.1-1.3.1s-.5 0-.7.1l-.2-.9zm1.4 1.5c-.2 1.7-.3 2.3-.7 3.4l-.8-.4c.4-.9.6-1.6.7-3.2l.8.2zm2.8-.2c.3 1 .5 1.8.7 2.9l-.8.2c-.1-1.1-.3-2-.6-2.9l.7-.2zm2-3.7c-.4.7-.7 1.2-1.2 1.8-.2-.3-.4-.4-.7-.6.5-.6 1-1.3 1.3-2.1.3-.8.5-1.3.6-1.8l.9.2c-.1.2-.1.2-.3.7l-.3.9h3.8c0 .4 0 .4-.1 1.9 0 1.9-.2 4.3-.5 5.4-.3 1.2-.6 1.4-1.8 1.4-.3 0-.6 0-1.2-.1 0-.4-.1-.6-.2-1 .6.1 1.1.2 1.5.2.6 0 .7-.1.8-.9.3-1.3.5-3.5.5-6H539zm1 4.8c-.5-1.3-.8-1.9-1.5-2.9l.7-.4c.8 1.1 1.1 1.7 1.6 2.9l-.8.4zm5.5 2.4 4.1-8h-4.2v-1h5.5v.7l-4.1 8.3h-1.3zm10.8-4.8c1.1.6 1.8 1.1 1.8 2.5 0 1.5-1.3 2.5-2.9 2.5-1.3 0-2.7-.8-2.7-2.4 0-1.3.8-1.9 1.8-2.5-.9-.5-1.5-1.1-1.5-2.2 0-1.3 1.1-2.3 2.6-2.3 1.6 0 2.5.9 2.5 2.1-.1 1.2-.7 1.8-1.6 2.3zm-1.3.5c-1 .6-1.4 1.2-1.4 1.9 0 1 .7 1.6 1.7 1.6s1.6-.7 1.6-1.5c0-.9-.4-1.3-1.9-2zm.5-.9c.8-.5 1.2-1 1.2-1.7 0-.8-.5-1.4-1.4-1.4-.8 0-1.4.5-1.4 1.3s.4 1.3 1.6 1.8zm8.6-4.3c-.1.2-.2.3-.3.6-.9 1.8-2.1 3.3-3.7 4.5-.2-.3-.4-.5-.7-.8 1.4-1 2.4-2 3.2-3.4.3-.5.4-.9.5-1.2l1 .3zm-1.2 4.6c-.4 0-.8 0-1.2.1v-1c.3 0 .7.1 1.2.1h4c.5 0 .9 0 1.2-.1v.9c0 2.4-.2 4.3-.5 4.9-.2.4-.5.5-1.3.5-.3 0-.7 0-1.4-.1 0-.4-.1-.6-.2-1 .6.1 1.2.2 1.6.2.5 0 .6-.1.7-.7.2-.8.3-2.2.3-3.8h-2.6c-.1.6-.1.8-.2 1.2-.5 2-1.6 3.4-3.7 4.5-.2-.3-.3-.5-.6-.8 1.4-.6 2.4-1.5 2.9-2.5.4-.7.6-1.3.6-2.3h-.8zm3.8-4.9c.1.3.2.6.4 1 .8 1.5 1.9 2.6 3.4 3.6-.3.3-.4.5-.7.9-1.8-1.3-2.9-2.7-3.9-4.6-.1-.2-.2-.4-.3-.5l1.1-.4zm-411.4-22.7v-1.4c-.4.5-.6.7-1.1 1.1-.1-.4-.2-.5-.4-.8.8-.6 1.5-1.3 2.1-2.1.3-.4.5-.7.6-1l.8.5c-.1.1-.1.2-.3.5-.2.3-.4.6-.7 1v4.7c0 .6 0 1 .1 1.3h-1c0-.4.1-.8.1-1.4v-2.4zm1.8-6.5-.4.4c-.7.9-1.5 1.5-2.4 2.2-.2-.3-.3-.5-.5-.7 1.2-.7 2.1-1.6 2.5-2.4l.8.5zm3.2 4.2h-2.1c-.4 0-.8 0-1.1.1v-.9c.3 0 .7.1 1.1.1h2.1v-1.6h-1.6c-.5 0-.8 0-1.1.1v-.9c.3 0 .6.1 1.1.1h1.6v-.3c0-.6 0-.9-.1-1.2h1c0 .3-.1.6-.1 1.2v.3h1.7c.5 0 .8 0 1.1-.1v.9c-.3 0-.6-.1-1.1-.1h-1.7v1.6h2.4c.5 0 .8 0 1.2-.1v.9c-.3 0-.8-.1-1.2-.1h-2.4v1.6h1.8c.4 0 .8 0 1.1-.1v.9c-.3 0-.7-.1-1.1-.1h-1.8v2.2c.5.1 1.2.2 2 .2.5 0 .8 0 1.6-.1-.1.4-.2.5-.3 1h-.9c-2.9 0-4.3-.6-5.3-2-.3 1-.7 1.6-1.3 2.4-.2-.3-.4-.4-.7-.6.8-1 1.2-1.8 1.5-3.1.2-.7.2-1.1.2-1.6l.9.2c-.1.3-.1.3-.2 1.2 0 .2-.1.4-.1.6.4.8.9 1.3 1.7 1.6v-4.3zm9.7.6c-.7 1.1-1.7 2-2.9 2.8-.2-.3-.4-.5-.7-.7 1.2-.6 2.2-1.5 2.8-2.6l.8.5zm5.8-1.7c.5 0 .9 0 1.2-.1v1c-.4 0-.7-.1-1.2-.1h-3.4v2.7c0 .6-.4.9-1.3.9H170c0-.3-.1-.6-.2-.9.5.1.9.1 1.3.1s.5 0 .5-.2v-2.5H168c-.5 0-.9 0-1.3.1v-1c.4 0 .7.1 1.3.1h.7v-1.6c0-.4 0-.7-.1-1.1h1c-.1.4-.1.6-.1 1.1v1.6h2v-2.5c0-.5 0-.8-.1-1.1h1c-.1.3-.1.6-.1 1.1v.3h2.6c.5 0 .8 0 1.1-.1v.9c-.3 0-.6-.1-1.1-.1h-2.6v1.4h3.5zm-.7 3.6c-.7.7-1 .9-1.2 1.2-1.7 1.4-3.7 2.1-6.3 2.3-.1-.4-.2-.6-.4-.9 2 0 3.7-.5 5.2-1.3.9-.5 1.6-1.2 2-1.8l.7.5zm-.7-2.4c.7.9 1.7 1.6 2.8 2.2-.3.3-.4.4-.6.7-1.1-.6-2-1.4-2.9-2.5l.7-.4zm5.2 4.9c1.9-1 3.2-2.1 3.8-3.7-.5.3-1.2.6-1.9.6-1.4 0-2.5-.9-2.5-2.8 0-1.8 1.1-3.1 2.9-3.1 2 0 2.9 1.4 2.9 3.4 0 2.7-1.5 4.8-4.7 6.3l-.5-.7zm4-4.7v-.8c0-1.8-.7-2.6-1.8-2.6-1 0-1.8.7-1.8 1.9s.6 2 1.8 2c.7.1 1.3-.1 1.8-.5zm7.6-4.6c-.1.2-.2.3-.3.6-.9 1.8-2.1 3.3-3.7 4.5-.2-.3-.4-.5-.7-.8 1.4-1 2.4-2 3.2-3.4.3-.5.4-.9.5-1.2l1 .3zm-1.3 4.6c-.4 0-.8 0-1.2.1v-1c.3 0 .7.1 1.2.1h4c.5 0 .9 0 1.2-.1v.9c0 2.4-.2 4.3-.5 4.9-.2.4-.5.5-1.3.5-.3 0-.7 0-1.4-.1 0-.4-.1-.6-.2-1 .6.1 1.2.2 1.6.2.5 0 .6-.1.7-.7.2-.8.3-2.2.3-3.8h-2.6c-.1.6-.1.8-.2 1.2-.5 2-1.6 3.4-3.7 4.5-.2-.3-.3-.5-.6-.8 1.4-.6 2.4-1.5 2.9-2.5.4-.7.6-1.3.6-2.3h-.8zm3.8-4.9c.1.3.2.6.4 1 .8 1.5 1.9 2.6 3.4 3.6-.3.3-.4.5-.7.9-1.8-1.3-2.9-2.7-3.9-4.6-.1-.2-.2-.4-.3-.5l1.1-.4zm-38.4 36.7v-1.4c-.4.5-.6.7-1.1 1.1-.1-.4-.2-.5-.4-.8.8-.6 1.5-1.3 2.1-2.1.3-.4.5-.7.6-1l.8.5c-.1.1-.1.2-.3.5-.2.3-.4.6-.7 1v4.7c0 .6 0 1 .1 1.3h-1c0-.4.1-.8.1-1.4v-2.4zm1.8-6.5-.4.4c-.7.9-1.5 1.5-2.4 2.2-.2-.3-.3-.5-.5-.7 1.2-.7 2.1-1.6 2.5-2.4l.8.5zm3.2 4.2h-2.1c-.4 0-.8 0-1.1.1v-.9c.3 0 .7.1 1.1.1h2.1v-1.6h-1.6c-.5 0-.8 0-1.1.1v-.9c.3 0 .6.1 1.1.1h1.6v-.3c0-.6 0-.9-.1-1.2h1c0 .3-.1.6-.1 1.2v.3h1.7c.5 0 .8 0 1.1-.1v.9c-.3 0-.6-.1-1.1-.1h-1.7v1.6h2.4c.5 0 .8 0 1.2-.1v.9c-.3 0-.8-.1-1.2-.1h-2.4v1.6h1.8c.4 0 .8 0 1.1-.1v.9c-.3 0-.7-.1-1.1-.1h-1.8v2.2c.5.1 1.2.2 2 .2.5 0 .8 0 1.6-.1-.1.4-.2.5-.3 1h-.9c-2.9 0-4.3-.6-5.3-2-.3 1-.7 1.6-1.3 2.4-.2-.3-.4-.4-.7-.6.8-1 1.2-1.8 1.5-3.1.2-.7.2-1.1.2-1.6l.9.2c-.1.3-.1.3-.2 1.2 0 .2-.1.4-.1.6.4.8.9 1.3 1.7 1.6v-4.3zm9.7.6c-.7 1.1-1.7 2-2.9 2.8-.2-.3-.4-.5-.7-.7 1.2-.6 2.2-1.5 2.8-2.6l.8.5zm5.8-1.7c.5 0 .9 0 1.2-.1v1c-.4 0-.7-.1-1.2-.1h-3.4v2.7c0 .6-.4.9-1.3.9H170c0-.3-.1-.6-.2-.9.5.1.9.1 1.3.1s.5 0 .5-.2v-2.5H168c-.5 0-.9 0-1.3.1v-1c.4 0 .7.1 1.3.1h.7V137c0-.4 0-.7-.1-1.1h1c-.1.4-.1.6-.1 1.1v1.6h2V136c0-.5 0-.8-.1-1.1h1c-.1.3-.1.6-.1 1.1v.3h2.6c.5 0 .8 0 1.1-.1v.9c-.3 0-.6-.1-1.1-.1h-2.6v1.4h3.5zm-.7 3.7c-.7.7-1 .9-1.2 1.2-1.7 1.4-3.7 2.1-6.3 2.3-.1-.4-.2-.6-.4-.9 2 0 3.7-.5 5.2-1.3.9-.5 1.6-1.2 2-1.8l.7.5zm-.7-2.5c.7.9 1.7 1.6 2.8 2.2-.3.3-.4.4-.6.7-1.1-.6-2-1.4-2.9-2.5l.7-.4zm8.5.3c1.1.6 1.8 1.1 1.8 2.5 0 1.5-1.3 2.5-2.9 2.5-1.3 0-2.7-.8-2.7-2.4 0-1.3.8-1.9 1.8-2.5-.9-.5-1.5-1.1-1.5-2.2 0-1.3 1.1-2.3 2.6-2.3 1.6 0 2.5.9 2.5 2.1-.1 1.2-.8 1.8-1.6 2.3zm-1.3.5c-1 .6-1.4 1.2-1.4 1.9 0 1 .7 1.6 1.7 1.6s1.6-.7 1.6-1.5c0-.9-.4-1.2-1.9-2zm.5-.9c.8-.5 1.2-1 1.2-1.7 0-.8-.5-1.4-1.4-1.4-.8 0-1.4.5-1.4 1.3s.4 1.3 1.6 1.8zm8.6-4.3c-.1.2-.2.3-.3.6-.9 1.8-2.1 3.3-3.7 4.5-.2-.3-.4-.5-.7-.8 1.4-1 2.4-2 3.2-3.4.3-.5.4-.9.5-1.2l1 .3zm-1.2 4.7c-.4 0-.8 0-1.2.1v-1c.3 0 .7.1 1.2.1h4c.5 0 .9 0 1.2-.1v.9c0 2.4-.2 4.3-.5 4.9-.2.4-.5.5-1.3.5-.3 0-.7 0-1.4-.1 0-.4-.1-.6-.2-1 .6.1 1.2.2 1.6.2.5 0 .6-.1.7-.7.2-.8.3-2.2.3-3.8h-2.6c-.1.6-.1.8-.2 1.2-.5 2-1.6 3.4-3.7 4.5-.2-.3-.3-.5-.6-.8 1.4-.6 2.4-1.5 2.9-2.5.4-.7.6-1.3.6-2.3h-.8zm3.8-5c.1.3.2.6.4 1 .8 1.5 1.9 2.6 3.4 3.6-.3.3-.4.5-.7.9-1.8-1.3-2.9-2.7-3.9-4.6-.1-.2-.2-.4-.3-.5l1.1-.4z"/><path style="fill:none;stroke:#094;stroke-width:3.431;stroke-linecap:round" d="M737.9 27.5H815"/><path class="st1" d="M211.2 107H414v24.5H211.2z"/><path class="st2" d="M137.6 119.3h73.6m0-91.8h-73.6"/><path style="fill:none;stroke:#0086d1;stroke-width:5.1465" d="M414.1 27.5h183.3"/><path style="fill:none;stroke:#fff;stroke-width:1.7155" d="M414.1 27.5h183.3"/><path class="st5" d="M211.2 14.7H414v25.5H211.2z"/><path class="st6" d="M242.8 26.2h3.8v-1.3h-4.9v-.8h4.9v-1.8l1 .1c.1 0 .2 0 .2.1s-.1.1-.3.3v1.4h4.9v.8h-4.9v1.3h3.8v4.8c0 1-.2 1-1.9 1l-.3-.9c.5.1.8.1.9.1.5 0 .5-.1.5-.6v-3.6h-2.9V33h-.9v-5.9h-2.9v5.1h-.9v-6zm15.6-1.4h-3.9v1.6h-.9V24h4.8v-.7h-3.6v-.7h8.1v.7h-3.7v.7h4.7v2.3h-.9v-1.6h-3.8v2.6h-.8v-2.5zm.7 6.5v.3c0 .4.1.6.7.6h2.3c.4 0 .8 0 1-1.3l.8.6c-.4 1.4-1 1.4-1.5 1.4h-2.7c-1.4 0-1.4-.6-1.4-1.3v-.3h-2.8v.7h-.8v-4.3h8v3.6h-3.6zm-3.9-5.3v-.6h2.5v.6h-2.5zm0 1.1v-.6h2.5v.6h-2.5zm3.1 2v-.7h-2.8v.7h2.8zm0 1.5v-.8h-2.8v.8h2.8zm3.5-2.2H259v.7h2.8v-.7zm0 2.2v-.8H259v.8h2.8zM260 26v-.6h2.5v.6H260zm0 1.1v-.6h2.5v.6H260zm16.2-5.3v13.6h-1V20.8h4.6v.9h-3.6zm6.7 13.2h-1.1v-9.4h3.9V23h-4.4v-1.1h13.5V23h-5.1v2.6h4.6v9.3h-1.2V34h-10.2v1zm6.8-5.6c0 .6.1.6.6.6h.6c.5 0 .6-.1.8-1.2l1 .4c-.3 1.7-.7 1.9-1.5 1.9h-1.4c-1 0-1.2-.2-1.2-1.3v-3.2h-1.8c0 3-.5 4.1-2.9 5.1l-.9-.9c2-.7 2.6-1.4 2.6-4.2h-2.8v6.3H293v-6.3h-3.4v2.8zm-1.1-6.4h-1.8v2.6h1.8V23zm8.1 0c.3.2.5.4.9.8.6-.9 1.1-1.8 1.5-2.8l1.1.7c.1.1.1.2.1.2 0 .1-.1.2-.5.2-.7 1.1-1.2 2-1.5 2.5 0 0 .5.5.7.8.5-.7 1-1.4 1.4-2.1l.9.8s.1.1.1.2c0 .2-.2.1-.4.1-.9 1.2-1.9 2.5-2.7 3.6 1.3-.2 1.4-.2 1.7-.3-.2-.4-.3-.6-.6-1l.8-.5c.6.9 1 1.6 1.4 2.5l-.9.5c0-.1-.2-.4-.3-.6-.2 0-1.1.2-1.2.2v6.4h-1.1V29c-.9.2-1.3.2-1.7.3-.2.2-.2.4-.4.4-.1 0-.1-.1-.1-.2l-.3-1.3h1.3c.2-.2.7-.7 1.3-1.7-.8-1.1-1.7-1.9-2.4-2.5l.9-1zm-.6 10.9c.2-.7.7-2 .8-4.3l1 .2s.2 0 .2.2c0 .1-.1.1-.3.2-.1 1.7-.4 2.8-.8 4l-.9-.3zm4.9-4.3c.4 1.5.5 2.6.5 3.5l-1 .2c0-.5-.1-2.2-.5-3.4l1-.3zm3.1 0 .6.6c-.2 1.4-.8 3.1-2.7 4.5l-1-.7c1.1-.7 2-1.4 2.6-3.4h-1.7v-.9h2.2zm2.4-1.6c.2 1 .5 1.7 1 2.6.9-.6 1.3-1 1.9-1.7l.8.7s.1.1.1.2-.1.2-.4.2c-.5.4-1.3 1-1.8 1.3 1.1 1.5 1.9 2.1 2.3 2.3l-.8.8c-.8-.7-2.3-1.8-3.2-4.5v3.4c0 1.7-.1 1.8-2.1 1.8l-.4-1.1h.8c.6 0 .6-.2.6-.5V28h-2.9v-5.5h1.9c.6-.8.9-1.3 1-1.6l1 .5c.1 0 .2.1.2.2s-.2.2-.4.2c-.2.2-.4.5-.6.7h3.7V28h-2.7zm1.6-4.6h-4.7v1.4h4.7v-1.4zm0 2.2h-4.7v1.5h4.7v-1.5zm6.6 8.4v-8.2h-2.4v-1c1-.1 2.3-.1 2.7-2h1.1V34h-1.4zm9.4 0v-8.2h-2.4v-1c1-.1 2.3-.1 2.7-2h1.1V34h-1.4zm18.9.4c-2.1-.7-4-1.8-5.7-3.2v4h-1.1v-4c-1.6 1.6-3.5 2.6-5.5 3.4l-.8-1c1.4-.4 3.6-1.2 5.6-3.2h-5.6v-1h6.4v-1.6l1.1.1c.3 0 .4.2.4.2 0 .1-.2.3-.3.4v.9h6.5v1h-5.9c1.7 1.5 3.4 2.3 5.9 3.1l-1 .9zm-.1-6.1c-2.9-.5-4.2-.7-6.1-1.7-1.6.8-3 1.3-6.1 1.8l-.6-1c2.7-.3 4.2-.8 5.8-1.5-.6-.5-1.4-1.1-2.2-2.2-.9.8-1.6 1.3-2.7 2l-.8-.8c1.9-1 3.5-2.4 4.7-4.1l1 .6c.1.1.3.2.3.3 0 .2-.3.2-.6.2-.2.2-.5.4-.7.6h5.9l.4.5c-1.2 1.3-2.2 2.1-3.4 2.9 1.8.8 3.8 1.1 5.8 1.3l-.7 1.1zm-8-4.8c.6.7 1.3 1.3 2 1.8.9-.5 1.5-1.1 2.3-1.8h-4.3zm13.7 10.9V20.8h1v14.5H345v-.9h3.6zm8.3-12.5c-.2.4-.7 1.5-1.2 2.3.1.1.3.1.3.3 0 0 0 .1-.2.3V35h-1.1v-9.2c-.4.7-.9 1.3-1.4 1.9l-.9-.7c.9-.9 2.4-2.7 3.7-6l1.1.5s.2.1.2.2-.1.2-.5.2zm8.7 9.1v-1.9h-7.5v2H357v-2.9h9.7V31h-1.1zm-8.4-7.4v-.9h4.1v-1.6h1.2c.3 0 .3.1.3.2s0 .1-.4.3v1h4.2v.9h-9.4zm1.2 3.7v-2.8h7.1v2.8h-7.1zm4.2 4V34c0 1-1 1-2.3 1l-.4-1.2c.4.1.6.1.9.1.6 0 .8-.1.8-.6v-2.1h-2.9v-.9h6.3v.9h-2.4zm1.9-5.9h-5v1.1h5v-1.1z"/><path class="st5" d="M579.9 14.7h158v25.5h-158z"/><path class="st6" d="M622.5 21.8v13.6h-1V20.8h4.6v.9h-3.6zm6.7 13.2h-1.1v-9.4h3.9V23h-4.4v-1.1h13.5V23H636v2.6h4.6v9.3h-1.2V34h-10.2v1zm6.8-5.6c0 .6.1.6.6.6h.6c.5 0 .6-.1.8-1.2l1 .4c-.3 1.7-.7 1.9-1.5 1.9h-1.4c-1 0-1.2-.2-1.2-1.3v-3.2h-1.8c0 3-.5 4.1-2.9 5.1l-.9-.9c2-.7 2.6-1.4 2.6-4.2h-2.8v6.3h10.2v-6.3H636v2.8zm-1.1-6.4h-1.8v2.6h1.8V23zm14.2 8.3V34h-1.4v-2.7h-5.5v-1.2l5.6-7.4h1.3v7.4h1.7v1.2h-1.7zm-1.4-6.7-4.2 5.5h4.2v-5.5zm11.6-1.2v9.8c0 .8 0 1.5-1 1.8-.3.1-1.4 0-1.9 0l-.4-1.3c.5.1 1.1.1 1.3.1.7 0 .8-.3.8-.7v-9.7h-6.3v-1.1h13.7v1.1h-6.2zm16.8 11.4v-.9H669v1h-1.2V21.8h9.4v13.1h-1.1zm0-11.9H669v2.5h7.1v-2.5zm0 3.6H669V29h7.1v-2.5zm0 3.7H669v2.6h7.1v-2.6zm7.2 4.2V20.8h1v14.5h-4.6v-.9h3.6zm8.3-12.5c-.2.4-.7 1.5-1.2 2.3.1.1.3.1.3.3 0 0 0 .1-.2.3V35h-1.1v-9.2c-.4.7-.9 1.3-1.4 1.9l-.9-.7c.8-.9 2.4-2.7 3.7-6l1.1.5s.2.1.2.2-.2.2-.5.2zm8.6 9.1v-1.9h-7.5v2h-1.1v-2.9h9.7V31h-1.1zm-8.3-7.4v-.9h4.1v-1.6h1.2c.3 0 .3.1.3.2s0 .1-.4.3v1h4.2v.9h-9.4zm1.2 3.7v-2.8h7.1v2.8h-7.1zm4.2 4V34c0 1-1 1-2.3 1l-.4-1.2c.4.1.6.1.9.1.6 0 .8-.1.8-.6v-2.1h-2.9v-.9h6.3v.9h-2.4zm1.8-5.9h-5v1.1h5v-1.1z"/><path style="fill:#fff;stroke:#094;stroke-width:.9439" d="M814.5 14.7h125v25.5h-125z"/><path class="st8" d="M841.6 20.6v13.6h-1V19.7h4.6v.9h-3.6zm8.7 3.9c.2.6.6 1.9 2.1 3.1l-.8 1c-.8-.8-1.3-1.7-1.6-2.5v7.7h-1.1v-7.1c-.3.7-.8 2-1.8 3.4l-1-.8c.8-1 2-2.5 2.5-4.8h-2.5v-1.1h2.8V20l1.2.2c.2 0 .3.1.3.2 0 .2-.2.3-.4.4v2.8h2v1.1h-1.7zm5 9c-1.4 0-1.5-.7-1.5-1.2V20l1.1.1c.2 0 .3 0 .3.1s-.2.2-.3.3v10.9c0 .9.2.9.9.9h1.5c1 0 1.3 0 1.5-2.1l1.2.6c-.4 2.5-1 2.6-2.1 2.6h-2.6zm10.8-3.4c-.2.1-.9.1-1.2.1l-.2-1.1h.5c.2 0 .4 0 .4-.4v-4.9h-1.1v10h-1v-10h-1v6.4h-1v-7.4h2v-2.7l1.1.1c.2 0 .2.1.2.2s-.2.2-.4.3v2.1h2.1v6.4c.1.2.1.8-.4.9zm7.6 3.3h-1.6c-.8 0-1.2-.3-1.2-1v-3.3h-1.1c-.1 1.2-.2 2.1-1 3.2-.3.4-.7.8-2 1.3l-.6-.8c2-.6 2.5-1.3 2.7-3.7H867v-.9h3.1v-2.9l1.1.1s.2 0 .2.1-.2.2-.4.3v2.4h3.6v.9h-2.8v2.7c0 .5.2.6.6.6h1c.5 0 .6-.6.8-1.4l.8.7c-.3 1.6-.8 1.7-1.3 1.7zm-6.4-8.3v-4.5h6.4v4.5h-6.4zm1.4 2.8c-.2-.3-.7-.9-1.4-1.6l.7-.6c.6.5 1.1 1.1 1.4 1.5l-.7.7zm4.1-6.5h-4.5v1h4.5v-1zm0 1.8h-4.5v1h4.5v-1zm.5 3.2c-.2.3-.6.9-1.2 1.5l-.7-.5c.2-.2.9-1 1.4-1.9l.9.6c.1.1.1.1.1.2s-.2.1-.5.1zm3.6 6.4-.9-.3c.3-.9.4-1.6.5-2.5h.7c0 .4-.1 1.6-.3 2.8zm3.4-11.4v1.4h1.8v.9h-1.8v1.4h1.8v.9h-1.8v1.5h1.9c0 6-.8 6.2-3.1 6.5l-.4-1.2c2.2 0 2.3 0 2.5-4.4h-3.7v.5h-1v-8.3h5.9v.9h-2.1zm-2.5 10.8c0-.9-.1-1.6-.3-2.4l.6-.2c.3.9.4 1.6.5 2.3l-.8.3zm1.5-10.8h-1.8v1.4h1.8v-1.4zm0 2.3h-1.8v1.4h1.8v-1.4zm0 2.3h-1.8v1.5h1.8V26zm-.2 5.7c-.1-1-.3-1.6-.4-2.1l.6-.2c.3.6.5 1.2.6 2.1l-.8.2zm1.9-.8-.7.2c-.2-1.3-.4-1.7-.5-2l.6-.3c.3.7.5 1.3.6 2.1zm8.1 2.5c-1.5-1.9-2.7-5-2.9-7.5h-1.4c-.1 3-.7 6.1-2 8l-1.1-.5c1.8-2.5 2-5.6 2-8.6v-4.2h6v5.3h-2.4c.4 2.9 1.6 5.6 3.1 7l-1.3.5zm-.6-11.9h-3.8v3.4h3.8v-3.4zm6.3 11.8V19.7h1v14.5h-4.6v-.9h3.6zm5.3-.5-.9-.3c.3-.9.4-1.6.5-2.5h.7c0 .4 0 1.6-.3 2.8zm3.5-11.4v1.4h1.8v.9h-1.8v1.4h1.8v.9h-1.8v1.5h1.9c0 6-.8 6.2-3.1 6.5l-.4-1.2c2.2 0 2.3 0 2.5-4.4h-3.7v.5h-1v-8.3h5.9v.9h-2.1zm-2.5 10.8c0-.9-.1-1.6-.3-2.4l.6-.2c.3.9.4 1.6.5 2.3l-.8.3zm1.5-10.8h-1.8v1.4h1.8v-1.4zm0 2.3h-1.8v1.4h1.8v-1.4zm0 2.3h-1.8v1.5h1.8V26zm-.2 5.7c-.1-1-.3-1.6-.4-2.1l.6-.2c.3.6.5 1.2.6 2.1l-.8.2zm1.9-.8-.7.2c-.2-1.3-.4-1.7-.5-2l.6-.3c.3.7.5 1.3.6 2.1zm8 2.5c-1.5-1.9-2.7-5-2.9-7.5H908c-.1 3-.7 6.1-2 8l-1.1-.5c1.8-2.5 2-5.6 2-8.6v-4.2h6v5.3h-2.4c.4 2.9 1.6 5.6 3.1 7l-1.3.5zm-.5-11.9H908v3.4h3.8v-3.4z"/><path class="st2" d="M211.9 57.9h-74.3"/><path style="fill:none;stroke:#9f7294;stroke-width:3.431;stroke-dasharray:3.7955,1.8978" d="M414.1 57.9h183.3"/><path class="st10" d="M211.2 45.2H414v25.5H211.2zm368.7 0h158v25.5h-158z"/><path class="st11" d="M597.4 88.6h-1.8"/><path style="fill:none;stroke:#9f7294;stroke-width:3.431;stroke-dasharray:3.769,1.8845" d="M593.7 88.6H475.9"/><path class="st11" d="M474.9 88.6H473v-1.9"/><path style="fill:none;stroke:#9f7294;stroke-width:3.431;stroke-dasharray:4.1453,2.0727" d="M473 84.6V60.8"/><path class="st11" d="M473 59.8v-1.9"/><path class="st10" d="M579.9 75.9h158v25.5h-158z"/><path style="fill:none;stroke:#6a8db0;stroke-width:3.431;stroke-dasharray:3.7955,1.8978" d="M414.1 119.3h183.3"/><path class="st1" d="M579.9 107h158v24.5h-158z"/><path style="fill:#fff;stroke:#0091b0;stroke-width:.9439" d="M211.2 136.5H414V161H211.2z"/><path class="st2" d="M137.6 148.8h73.6"/><path style="fill:none;stroke:#0087c5;stroke-width:2.5732;stroke-linecap:round;stroke-linejoin:round;stroke-dasharray:0,5.1465" d="M414.1 148.8h183.3"/><path style="fill:#fff;stroke:#0091b0;stroke-width:1.008" d="M579.9 136.5h158V161h-158z"/><path class="st8" d="m816.9 8.7 1.1-.4.2.8c-1 .5-2.2 1-2.9 1.3 0 .1-.1.2-.1.2l-.5-1.1c.4-.1.8-.3 1.3-.5V5.9h-1.1V5h1.1V2.6l1.1.1c0 .1-.1.1-.2.2V5h1.1v.9h-1.1v2.8zm2.8 1.6c0 .6.1.7.8.7h2.3c.6 0 .7-.3.8-1.4.2.2.6.3.9.4-.1 1.4-.4 1.9-1.6 1.9h-2.4c-1.3 0-1.7-.3-1.7-1.6V7.2l-.9.4-.4-.9 1.3-.5V3.5l1.2.1c0 .1-.1.1-.2.2v2.1l1.2-.5V2.5l1.2.1c0 .1-.1.1-.2.2V5l1.3-.6.2-.2.8.3-.1.1c0 2 0 3.4-.1 3.8-.1.8-.6.9-1.6.9 0-.2-.1-.6-.2-.8h.6c.1 0 .2 0 .3-.3-.2-.2-.2-1.2-.2-2.8l-1.2.5v3.8h-.9V6.3l-1.2.5v3.5zm14.5-6.1h-4.1c0 .1-.1.1-.2.1V6l.1-.2c1.2.6 2.9 1.5 3.7 2.2l-.7.9c-.7-.6-2-1.4-3.1-2v5.3h-1v-8H825v-1h9.3v1zm3.2 6.1c.5-.1 1-.1 1.6-.2v.8c-1.4.2-2.8.5-3.7.6 0 .1-.1.1-.2.2l-.3-1c.5-.1 1-.1 1.7-.2V7.7H835v-.8h1.6v-1h-1v-.1l-.2.2c-.2-.2-.5-.5-.7-.6.9-.9 1.5-2 1.9-2.8l1.1.2c0 .1-.1.1-.2.1V3c.6.5 1.3 1.1 1.7 1.5l-.6.8c-.3-.4-1-1-1.6-1.5l-.9 1.5h2.4v.8h-1.1v1h1.4v.8h-1.4v2.4zm-1.8-.1c-.1-.5-.2-1.3-.4-1.9l.7-.2c.2.6.4 1.4.5 1.9l-.8.2zm3.3-1.9c0 .1-.1.1-.2.1-.1.5-.3 1.2-.5 1.6l-.6-.2c.2-.5.4-1.2.5-1.8l.8.3zm5.5-.3h-2.1c.4 1.5 1.1 2.7 2.2 3.4-.2.2-.5.5-.7.8-1-.7-1.7-1.9-2.1-3.3-.4 1.2-1.2 2.3-2.8 3.2-.1-.2-.5-.6-.7-.7 1.7-.9 2.4-2.1 2.7-3.4h-2.1v-.9h2.2V5.3h-1c-.2.6-.4 1.1-.6 1.5-.2-.1-.5-.3-.8-.4.5-.8.8-2.1.9-3.4l1.1.2c0 .1-.1.1-.2.1-.1.4-.1.7-.2 1.1h.8V2.5l1.2.1c0 .1-.1.1-.2.2v1.7h1.9v.9H842V6c0 .4 0 .8-.1 1.2h2.3V8zm9.9-3.5h-4.2v.9h3.7v5.7c0 1-.4 1.1-2.3 1.1-.1-.3-.2-.6-.3-.8h1c.6 0 .7 0 .7-.2V6.3h-6.2v5.8h-1V5.4h3.5v-.9H845v-.9h4.1V2.5l1.3.1c0 .1-.1.1-.2.2v.8h4.2v.9zm-2 5.7h-2.2V12h-.9v-1.8h-2.1v-.8h2.1v-.9h-1.9v-.8h1c-.1-.3-.3-.7-.5-1.1l.8-.2c.2.3.5.8.5 1.2l-.4.1h1.8c-.1 0-.2-.1-.3-.1.2-.4.4-.9.5-1.2l1 .3c0 .1-.1.1-.2.1-.1.3-.3.6-.5.9h1.2v.8h-2.1v.9h2.2v.8zm5.4-5.1V2.7l1.3.1c0 .1-.1.1-.2.2v9h-1V9.8c-.9.4-1.7.7-2.3 1 0 .1-.1.2-.1.2l-.5-1.1c.7-.2 1.8-.6 2.9-1V6h-2.6V5h2.5zm3.6 5.2c0 .6.1.7.5.7h1.3c.5 0 .5-.4.6-2.2.2.2.7.4.9.5-.1 1.9-.4 2.7-1.4 2.7h-1.6c-1.1 0-1.4-.4-1.4-1.6V2.7l1.3.1c0 .1-.1.1-.2.2v3c.9-.5 1.8-1.2 2.4-1.7l.8.9s-.1.1-.2.1c-.8.6-1.9 1.2-2.9 1.8v3.2zm5.1-1.6c0 .1-.1.1-.2.1-.1.9-.3 1.9-.6 2.5-.2-.1-.5-.3-.7-.3.3-.6.5-1.6.6-2.5l.9.2zm1.9-.4c0-.2-.1-.4-.2-.6l-.7.1v4.3h-.9V7.9c-.5 0-1 .1-1.3.1 0 .1-.1.1-.2.1l-.2-1h.7c.2-.2.4-.5.6-.8-.3-.5-.8-1-1.3-1.5l.5-.6.3.3c.3-.6.7-1.3.9-1.9l1 .4c0 .1-.1.1-.2.1-.3.6-.7 1.4-1.1 2 .2.2.3.4.5.6.4-.6.8-1.3 1-1.8l1 .4c-.1.1-.1.1-.3.1-.5.8-1.3 2-2 2.8h1.4c-.2-.3-.3-.6-.5-.9l.7-.3c.4.7.9 1.6 1 2.2l-.7.1zm0 .2c.3.6.5 1.3.6 1.8-.2.1-.4.2-.8.3-.1-.5-.4-1.3-.6-1.9l.8-.2zm2.3-.4.5.2c0 .1-.1.1-.1.1-.4 1.6-1.1 2.8-2.2 3.4-.1-.2-.4-.5-.6-.7.8-.4 1.4-1.2 1.8-2.2h-1.3v-.8h1.9zm1.4-.8c0 .4.3 1.2.5 1.5.4-.4.9-.8 1.2-1.2.8.6.8.6.9.7 0 .1-.1.1-.3.1-.3.3-.9.8-1.4 1.1.4.6 1 1.1 1.8 1.5-.2.2-.5.5-.6.8-1-.5-1.6-1.4-2.1-2.3v1.7c0 .9-.3 1-1.7 1 0-.2-.1-.6-.2-.8h.6c.5 0 .5 0 .5-.2V7.3h-2V3.5h1.6c.2-.3.3-.8.4-1.1l1.2.3c0 .1-.1.1-.2.1-.1.2-.2.4-.4.7h2.4v3.8H872zm-1.9-3v.8h3.1v-.8h-3.1zm0 1.5v.8h3.1v-.8h-3.1z"/><path d="M264.3 153.1v-10.8h5.2v1.1h-4.1v9.7h-1.1zm19.5-7.7h-6.2v1.4h5.5v8.5c0 1.4-.6 1.6-3.5 1.6-.1-.4-.3-.9-.5-1.3h1.5c.9 0 1 0 1-.4V148h-9.4v8.7h-1.5v-10.1h5.3v-1.4h-6.1V144h6.1v-1.6l1.9.1c0 .1-.1.2-.4.3v1.2h6.2v1.4zm-3.1 8.7h-3.2v2.8H276v-2.8h-3v-1.2h3.1v-1.4h-2.9v-1.2h1.4c-.2-.5-.4-1.1-.7-1.6l1.2-.3c.4.5.7 1.3.8 1.7l-.5.2h2.7c-.2 0-.3-.1-.4-.1.3-.5.6-1.3.8-1.8l1.5.4c0 .1-.2.2-.4.2-.2.4-.5.9-.8 1.4h1.7v1.2h-3.1v1.4h3.2v1.1zm7.3 1.4v-10l-2 1.1-.4-1.3 2.6-1.4h1.5v11.6H288zm7.2 0v-10l-2 1.1-.4-1.3 2.6-1.4h1.5v11.6h-1.7zm18.5-3.1h-5c1.3 1.3 3.4 2.4 5.4 3-.3.3-.8.9-1 1.2-2-.7-4.1-2.1-5.6-3.6v4H306v-4c-1.4 1.6-3.6 3-5.5 3.7-.2-.4-.6-.9-1-1.2 1.9-.6 4-1.7 5.3-3.1h-5v-1.3h6.1v-1.5l1.9.1c0 .1-.1.2-.4.2v1.2h6.2v1.3zm-3.4-8.7 1.1.6c0 .1-.1.1-.2.2-.7 1.3-1.7 2.3-3 3.2 1.7.7 3.6 1.2 5.7 1.4-.3.3-.7.9-.9 1.3-2.3-.3-4.4-1-6.2-1.9-1.9 1.1-4.1 1.7-6.4 2.2-.1-.4-.4-1-.7-1.3 2-.3 4-.9 5.7-1.7-.7-.5-1.4-1.1-2-1.7-.7.6-1.5 1.2-2.4 1.7-.2-.4-.7-.9-1-1.1 2.3-1.1 3.9-2.7 4.7-4.2l1.8.3c0 .1-.2.2-.4.2-.2.3-.4.6-.6.8h4.8zm-5.8 1.3c.6.8 1.3 1.4 2.3 1.9.9-.6 1.7-1.2 2.2-1.9h-4.5zm24.5-.2h-4.8v2.1h4.1v10h-1.5v-.9h-9.7v.9h-1.4v-10h3.6v-2.1h-4.4v-1.4H329v1.4zm-11.9 9.8h9.7V152c-.2.3-.6.4-1 .4h-1.4c-1.3 0-1.6-.4-1.6-1.7v-2.4h-2v.2c0 1.5-.4 3.5-2.3 4.8-.2-.2-.8-.7-1.1-.9 2.1-1.4 2.1-3.2 2.1-4.2h-2.3v6.4zm5.7-7.8v-2.1h-2v2.1h2zm2.8 4.3c.3 0 .4-.1.4-1 .2.1.5.3.8.4v-2.2h-2.6v2.4c0 .4.1.4.4.4h1zm7.5 4.4v-10l-2 1.1-.4-1.3 2.6-1.4h1.5v11.6h-1.7zm10.8 0h-1.7v-3.1h-4.9v-1.2l4.6-7.4h2v7.2h1.5v1.4h-1.5v3.1zm-4.9-4.4h3.2v-3.5c0-.7 0-1.4.1-2h-.1c-.4.7-.6 1.3-1 1.9l-2.2 3.6zm20.7-7.3v1.5h-6.1v9.7c0 1.8-.8 1.9-4.4 1.9-.1-.4-.4-1.1-.6-1.5h2.2c1.1 0 1.2 0 1.2-.5v-9.7h-6.2v-1.5h13.9zm2.4-.3h10.7v13.4h-1.5v-1h-7.6v1h-1.5v-13.4zm9.1 1.4h-7.6v2.2h7.6v-2.2zm0 3.6h-7.6v2.3h7.6v-2.3zm-7.6 5.9h7.6v-2.3h-7.6v2.3zm16.5-8.3v10.8H375v-1.1h4.1v-9.7h1zm5 2.5c-.5.8-1 1.5-1.5 2.1-.1-.4-.5-1.1-.7-1.5 1.3-1.5 2.7-4.1 3.5-6.7l1.7.6c-.1.1-.2.2-.4.2-.4 1-.8 2-1.2 2.9l.4.1c0 .1-.1.2-.4.2v10.4h-1.4v-8.3zm2.3 1.3h10.4v2.8h-1.3V151h-7.8v1.7h-1.3v-2.8zm.3-6h4.2v-1.4l1.8.1c0 .1-.1.2-.4.2v1.1h4.3v1.3h-10v-1.3zm8.8 5.2h-7.7v-3.2h7.7v3.2zm-7.2 4v-1.2h6.6v1.2h-2.6v2.3c0 1.5-.7 1.5-3.7 1.5-.1-.4-.3-1-.5-1.3h1.8c.9 0 .9 0 .9-.3V153h-2.5zm.9-6.2v1.2h4.9v-1.2h-4.9zm217.1 4.5v-10.8h5.2v1.1h-4.1v9.7h-1.1zm9.6-1.3c.5.3 2.1 1.5 2.4 1.8l-.8 1.1c-.3-.4-1-1-1.6-1.5v3.7h-1.4v-3.6c-.7 1-1.5 1.9-2.2 2.5-.2-.3-.7-.8-1-1 1.1-.7 2.2-2 2.9-3.3h-2.6v-1.3h2.8v-1.4h-3V146h1.7c-.1-.6-.3-1.4-.6-2.1l1-.3h-1.8v-1.2h2.7v-1.7l1.8.1c0 .1-.1.2-.4.2v1.3h2.7v1.2h-1.8l1.3.4c0 .1-.2.2-.4.2-.2.5-.5 1.3-.8 1.8h2v1.2H617c-.1 0-.1.1-.3.1v1.3h2.8v1.3h-2.8v.3zm-.2-4.2c.3-.6.6-1.6.8-2.3h-2.8c.3.7.6 1.7.7 2.3l-.4.1h2l-.3-.1zm10.2 0v1.4h-1.7v7.9h-1.4v-7.9h-2c0 1.8 0 5.5-2.5 7.9-.2-.3-.7-.8-1-1 1.9-1.9 2.1-4.5 2.1-6.7v-5.3l.8.2c1.5-.4 3.1-1.1 4-1.7l1.4 1.1c-.1.1-.2.1-.4.1-1.1.6-2.9 1.2-4.5 1.6v2.4h5.2zm15.4.9v1.5H636v6.9h-1.6v-6.9h-6.2v-1.5h6.2v-3.4c-1.6.2-3.3.4-4.9.5 0-.4-.2-1-.4-1.3 3.7-.3 8-1 10.5-1.7l1.2 1.3c-.1 0-.1.1-.2.1h-.2c-1.2.3-2.6.6-4.2.9h.2c0 .1-.1.2-.4.3v3.4h6.3zm10.6.7c.2 1.3.4 2.5.8 3.6.6-.9 1.1-1.9 1.4-3l1.6.4c0 .1-.2.2-.4.2-.5 1.4-1.2 2.7-2 3.7.5.9 1 1.4 1.6 1.4.4 0 .6-.6.6-2.2.3.3.7.5 1.1.6-.2 2.2-.7 2.8-1.8 2.8-1 0-1.8-.6-2.4-1.7-.7.7-1.4 1.2-2.2 1.7-.2-.3-.6-.7-.9-1 .9-.5 1.8-1.2 2.5-2-.5-1.3-.9-3-1.1-4.8h-6v1.5c0 1.8-.2 4.4-1.5 6.2-.2-.2-.8-.7-1.1-.9 1.2-1.6 1.3-3.7 1.3-5.3V146h7.3c0-.4-.1-.8-.1-1.3h-8v-1.2h2.4V141l1.7.1c0 .1-.1.2-.4.2v2.1h2.7v-3.2l1.8.1c0 .1-.1.2-.4.2v.6h4.5v1.1h-4.5v1.1h5.9v1.2h-2.5c.6.4 1.2.8 1.5 1.2l-.1.1h1v1.2h-4.3zm-5.1 3.2c0 .1-.1.2-.3.2-.3.9-.8 2-1.3 2.6-.2-.2-.6-.4-.9-.6.5-.6.9-1.6 1.2-2.6l1.3.4zm3.4-1h-1.9v4c0 1-.3 1.3-2 1.3-.1-.3-.2-.8-.4-1.1h1c.2 0 .2 0 .2-.2v-4h-1.9v-1.1h5.1v1.1zm-.6.6c.4.7.9 1.7 1.1 2.3l-1 .4c-.2-.6-.6-1.6-1.1-2.3l1-.4zm3.5-5.2h-1c0 .1-.2.1-.3.2v1.1h1.9l-1.2-.9.6-.4zm10.6-.8c0 .1-.2.2-.4.2-.4 2.2-1.2 3.8-4.9 4.6-.1-.4-.5-.9-.8-1.2 3.3-.6 3.9-1.9 4.2-3.8l1.9.2zm1.7 6.4v2.7h6.1v1.3h-13.7v-1.3h6.1v-2.7h-4.4v-1.3H671v1.3h-4.6zm-5.8-6.9v2h-1.4v-3.3h5.8v-1.8l1.9.1c0 .1-.1.2-.4.3v1.4h5.8v3.3h-1.5v-2h-10.2zm6.1.2 1.8.1c0 .1-.1.2-.4.3v2.4c0 .4.1.5.7.5h2c.4 0 .5-.1.6-.9.3.2.9.4 1.3.5-.2 1.4-.6 1.7-1.7 1.7h-2.3c-1.6 0-2-.4-2-1.7V144zm7.9 1c.9.4 2.1 1 2.7 1.5l-.8 1.2c-.6-.5-1.7-1.2-2.7-1.6l.8-1.1zm13.9 1.9H686c.7 1.2 1.7 2.3 2.8 2.9-.3.3-.8.8-1 1.2-.7-.5-1.4-1.2-2-2v3h-4.6v1.3c0 .4.2.5 1.1.5h3.1c.7 0 .9-.2.9-1.4.3.2.9.4 1.3.5-.2 1.8-.6 2.2-2.1 2.2h-3.3c-1.9 0-2.4-.4-2.4-1.8v-2.5h4.6v-1.4h-3.8v-.7c-.7.9-1.5 1.8-2.3 2.4-.1-.2-.4-.4-.6-.7-.6 1.5-1.4 3.1-2 4.2.1.1.1.2.1.3v.2l-1.5-1c.7-1.2 1.8-3.2 2.5-5l.9.7c1-.7 1.9-1.7 2.5-2.8h-2.5v-1.3h2.7V144h-2v-1.3h2v-1.8l1.8.1c0 .1-.1.2-.4.2v1.5h2.7v-1.8l1.8.1c0 .1-.1.2-.4.3v1.5h2.2v1.3h-2.2v1.7h2.7v1.1zm-13-6.1c.9.4 2.1 1.1 2.7 1.6l-.9 1.2c-.6-.5-1.7-1.3-2.7-1.7l.9-1.1zm6.1 6.1c-.2.5-.5.9-.7 1.4h4.3c-.3-.4-.5-.9-.7-1.4h-2.9zm.1-3v1.7h2.7v-1.7h-2.7zm12.6.5v10.8h-5.2v-1.1h4.1v-9.7h1.1zm5.9 2.5c-.5.8-1 1.5-1.5 2.1-.1-.4-.5-1.1-.7-1.5 1.3-1.5 2.7-4.1 3.5-6.7l1.7.6c-.1.1-.2.2-.4.2-.4 1-.8 2-1.2 2.9l.4.1c0 .1-.1.2-.4.2v10.4h-1.4v-8.3zm2.3 1.2h10.4v2.8h-1.3v-1.7h-7.8v1.7h-1.3v-2.8zm.3-5.9h4.2v-1.4l1.8.1c0 .1-.1.2-.4.2v1.1h4.3v1.3h-10v-1.3zm8.8 5.2h-7.7v-3.2h7.7v3.2zm-7.2 4v-1.2h6.6v1.2h-2.6v2.3c0 1.5-.7 1.5-3.7 1.5-.1-.4-.3-1-.5-1.3h1.8c.9 0 .9 0 .9-.3v-2.3h-2.5zm.9-6.2v1.2h4.9v-1.2h-4.9zm-478.6 2.4v-2l1 .1c0 .1-.1.1-.2.1v7.6h-.8v-1.9c-.7.3-1.4.6-1.9.8 0 .1-.1.1-.1.2l-.4-.9c.6-.2 1.5-.5 2.4-.9v-2.3h-2.2v-.8h2.2zm3 4.4c0 .5.1.5.4.5h1.1c.4 0 .4-.4.5-1.8.2.2.5.3.8.4-.1 1.6-.3 2.2-1.2 2.2H230c-.9 0-1.1-.3-1.1-1.4v-6.3l1.1.1c0 .1-.1.1-.2.1v2.6c.7-.5 1.5-1 2-1.5l.6.8s-.1.1-.2 0c-.6.5-1.5 1-2.4 1.5v2.8zm11.3-.8-2.1.2v2.1h-.8v-2l-4.8.4-.1-.8 4.8-.4v-5.2l1.1.1c0 .1-.1.1-.2.1v4.9l2-.2.1.8zm-6.6-3.3c.7.3 1.8.8 2.3 1.2l-.5.7c-.5-.4-1.5-.9-2.2-1.3l.4-.6zm.8-2.1c.7.3 1.6.8 2.1 1.1l-.5.7c-.5-.4-1.4-.9-2.1-1.2l.5-.6zm9.1 3.3c.3.7.7 1.3 1.1 1.8.5-.5.9-1.1 1.1-1.8l1 .3c0 .1-.1.1-.2.1-.3.8-.8 1.4-1.3 2 .9.7 2 1.1 3.4 1.3-.2.2-.4.5-.5.8-1.5-.3-2.6-.8-3.5-1.5-.9.7-2.1 1.2-3.5 1.6-.1-.2-.3-.5-.5-.7 1.3-.3 2.5-.7 3.4-1.4-.5-.6-1-1.3-1.3-2.1l.8-.4zm.4-1.2c0 .1-.1.1-.2.1-.6.7-1.5 1.5-2.3 2-.1-.2-.4-.5-.6-.6.8-.4 1.7-1.2 2.2-1.9l.9.4zm4.5-1.3v.8h-7.6v-.8h3.4v-1.1l1 .1c0 .1-.1.1-.2.1v.9h3.4zm-.6 3.3c-.5-.6-1.5-1.4-2.3-2l.7-.5c.8.5 1.8 1.3 2.3 1.9l-.7.6zm3.7-1v2.8c.6.9 1.7.9 3.2.9 1 0 2.2 0 2.9-.1-.1.2-.2.6-.3.8h-2.5c-1.9 0-2.9 0-3.7-1-.4.4-.9.7-1.2 1 0 .1 0 .1-.1.2l-.4-.9c.4-.2.9-.6 1.3-.9v-2.1h-1.2v-.8h2zm-1.3-3.2c.5.4 1.2 1 1.5 1.4l-.6.6c-.3-.4-.9-1-1.5-1.4l.6-.6zm2.9 5.1v1.4h-.8v-4.5h2.2c-.5-.2-1-.5-1.4-.6l.5-.4c.3.1.7.3 1.1.4.3-.2.7-.4 1-.6h-3.4v-.6h4.3l.6.4c0 .1-.1.1-.2.1-.4.4-1 .8-1.6 1.1l.6.3h1.1v3.7c0 .7-.3.8-1.5.8 0-.2-.1-.5-.2-.7h.6c.3 0 .4 0 .4-.1v-.6h-1.3v1.3h-.7v-1.3h-1.3zm1.2-2.5h-1.3v.6h1.3v-.6zm-1.2 1.9h1.3v-.7h-1.3v.7zm3.3-1.3v-.6h-1.3v.6h1.3zm-1.3 1.3h1.3v-.7h-1.3v.7z" style="fill:#0091b0"/><path style="fill:#981e2a" d="M0 11.2h137.6V161H0z"/><path class="st6" d="M263.7 51.6v13.6h-1V50.7h4.6v.9h-3.6zm12.5 2.2v1.8h5.5v8.1c0 .9-.7 1.1-1.3 1.1h-1l-.4-1.1c.3 0 .6.1 1 .1s.5 0 .5-.6v-6.6h-2.7l.6.4c.1.1.1.1.1.2 0 .2-.2.2-.3.2-.2.3-.4.6-.8 1h1.5v1h-2.8V61h3.2v1h-3.2v2.6H275V62h-3.3v-1h3.3v-1.6h-2.9v-1h1.5c-.3-.5-.6-.8-1.1-1.3l.6-.5h-2.7v8.2h-1.1v-9.2h5.5v-1.8h-6.1v-1.1h6.1V51l1.3.1s.3 0 .3.2c0 .1-.1.2-.4.2v1.2h6.1v1.1h-5.9zm-2.6 2.8c.7.6.9 1 1.2 1.5l-.5.4h2.6l-.4-.4c.2-.2.5-.5 1-1.5h-3.9zm13.6 7.2v-8.2h-2.4v-1c1-.1 2.3-.1 2.7-2h1.1v11.3h-1.4zm9.4 0v-8.2h-2.4v-1c1-.1 2.3-.1 2.7-2h1.1v11.3h-1.4zm18.9.5c-2.1-.7-4-1.8-5.7-3.2v4h-1.1v-4c-1.6 1.6-3.5 2.6-5.5 3.4l-.8-1c1.4-.4 3.6-1.2 5.6-3.2h-5.6v-1h6.4v-1.6l1.1.1c.3 0 .4.2.4.2 0 .1-.2.3-.3.4v.9h6.5v1h-5.9c1.7 1.5 3.4 2.3 5.9 3.1l-1 .9zm-.1-6.2c-2.9-.5-4.2-.7-6.1-1.7-1.6.8-3 1.3-6.1 1.8l-.6-1c2.7-.3 4.2-.8 5.8-1.5-.6-.5-1.4-1.1-2.2-2.2-.9.8-1.6 1.3-2.7 2l-.8-.8c1.9-1 3.5-2.4 4.7-4.1l1 .6c.1.1.3.2.3.3 0 .2-.3.2-.6.2-.2.2-.5.4-.7.6h5.9l.4.5c-1.2 1.3-2.2 2.1-3.4 2.9 1.8.8 3.8 1.1 5.8 1.3l-.7 1.1zm-8-4.7c.6.7 1.3 1.3 2 1.8.9-.5 1.5-1.1 2.3-1.8h-4.3zm11.8 11.4h-1.1v-9.4h3.9v-2.6h-4.4v-1.1h13.5v1.1H326v2.6h4.6v9.3h-1.2v-.9h-10.2v1zm6.8-5.5c0 .6.1.6.6.6h.6c.5 0 .6-.1.8-1.2l1 .4c-.3 1.7-.7 1.9-1.5 1.9h-1.4c-1 0-1.2-.2-1.2-1.3v-3.2h-1.8c0 3-.5 4.1-2.9 5.1l-.9-.9c2-.7 2.6-1.4 2.6-4.2h-2.8v6.3h10.2v-6.3H326v2.8zm-1.1-6.5h-1.8v2.6h1.8v-2.6zm11.1 11v-8.2h-2.4v-1c1-.1 2.3-.1 2.7-2h1.1v11.3H336zm9.3 0v-8.2H343v-1c1-.1 2.3-.1 2.7-2h1.1v11.3h-1.5zm13.4-10.6V63c0 .8 0 1.5-1 1.8-.3.1-1.4 0-1.9 0l-.4-1.3c.5.1 1.1.1 1.3.1.7 0 .8-.3.8-.7v-9.7h-6.3v-1.1h13.7v1.1h-6.2zm16.8 11.5v-.9h-7.1v1h-1.2V51.7h9.4v13.1h-1.1zm0-11.9h-7.1v2.5h7.1v-2.5zm0 3.6h-7.1V59h7.1v-2.6zm0 3.7h-7.1v2.6h7.1v-2.6zm7.2 4.2V50.7h1v14.5h-4.6v-.9h3.6zm8.3-12.5c-.2.4-.7 1.5-1.2 2.3.1.1.3.1.3.3 0 0 0 .1-.2.3v10.2h-1.1v-9.2c-.4.7-.9 1.3-1.4 1.9l-.9-.7c.8-.9 2.4-2.7 3.7-6l1.1.5s.2.1.2.2c-.1.1-.2.1-.5.2zm8.6 9.1V59h-7.5v2H391v-2.9h9.7v2.8h-1.1zm-8.3-7.5v-.9h4.1v-1.6h1.2c.3 0 .3.1.3.2s0 .1-.4.3v1h4.2v.9h-9.4zm1.2 3.8v-2.8h7.1v2.8h-7.1zm4.2 4v2.7c0 1-1 1-2.3 1l-.4-1.2c.4.1.6.1.9.1.6 0 .8-.1.8-.6v-2.1h-2.9v-.9h6.3v.9h-2.4zm1.8-6h-5v1.1h5v-1.1zm-172.6-5.1c-.2 2.1-.2 4.8-.2 5 0 1.3.1 1.5.1 1.6.2.6.8.7 1.1.7.6 0 1.9-.4 3.1-3l.6.6c-.3.6-1.7 3-3.7 3-1 0-1.5-.7-1.7-1.3-.1-.5-.2-.8-.2-2.5v-3c0-.5 0-1-.1-1.4l1 .3zm2.7.5c.4.5.7.9.9 1.3l-.5.4c-.4-.6-.7-1-.9-1.3l.5-.4zm.9-.7c.5.5.7.8.9 1.3l-.5.4c-.3-.5-.6-.9-.9-1.3l.5-.4zm6.9 3.8c-.7.2-1.4.3-2.2.3 0 1.1.1 1.7.2 2.4.7.2 1 .3 2.2.9l-.3.7c-.4-.3-.9-.7-1.8-1 0 .5 0 .8-.2 1-.3.3-.6.5-1.4.5-1.1 0-1.6-.5-1.6-1 0-1 1.3-1.2 1.6-1.2h.8c-.1-1.8-.2-3.1-.1-4.4l.7.1c-.1.5-.1.8-.1 1.5h.3c.7 0 1.3-.2 2-.4v.6zm-3.3 3c-.5 0-1.2.2-1.2.6 0 .4.4.6 1 .6s1-.2 1-.8v-.4h-.8zm4.2-3.6c.5-.1.6-.2 1.1-.4 1.1-.5 1.8-.8 2.5-.8.5 0 1.7.2 1.7 2 0 1.4-.7 2.7-1.5 3.5-.5.5-.9.8-1.9 1.1l-.5-.7c.6-.1.9-.3 1.5-.6.8-.6 1.7-1.6 1.7-3.2 0-.3 0-.7-.2-1-.2-.3-.5-.4-.8-.4-.8 0-1.9.5-3.1 1.3l-.5-.8zm1.2-3.5c1.2.4 2.3.4 2.9.4v.7c-1.8 0-2.3-.1-2.9-.4v-.7zm5 1.4c.9 0 1.5 0 3.7-.3s2.7-.4 3.4-.6v.8c-.9.2-1.8.6-2.6 1.3-1.4 1.2-1.5 2.4-1.5 2.9 0 1.3.7 1.9 2.6 2.3l-.3.8c-.9-.2-3-.8-3-2.9 0-1.3.7-2.4 1.4-3.1.4-.5.8-.7 1.4-1.1-1.4.1-3.3.4-4.9.7l-.2-.8zm7.4 1.3c.6-.1 1.3-.2 1.9-.3 1.6-.5 2.8-.8 3.5-.8.9 0 2.5.8 2.5 2.6 0 .9-.4 2-1.1 2.5-1.2.9-2.9 1.1-3.7 1.2l-.5-.9c.9 0 2.4 0 3.4-.7 1.1-.7 1.2-1.9 1.2-2.2 0-1.1-.8-2-1.8-2-.7 0-1.9.4-3.7 1-.7.2-.8.3-1.3.3l-.4-.7zM224.6 67c.5-.6 1-1.2 1.5-2.7.5-1.3.6-2.2.7-3l.8.3c.1 0 .2.1.2.2s-.2.2-.3.2c-.3 1.4-.5 2.6-1.2 4-.3.6-.5.9-.9 1.5l-.8-.5zm5.6-5.5c.5.6 1 1.4 1.6 2.7.6 1.2.7 1.9.9 2.5l-.8.4c-.2-.9-.5-1.9-1.1-3.2-.5-1.1-.9-1.6-1.2-2l.6-.4zm1.5.3c-.3-.4-.8-.8-1-.9l.5-.5c.1.1.6.5.9.9l-.4.5zm1-.7c-.3-.4-.8-.8-1-.9l.5-.5.9.9-.4.5zm7.3.3c-.4.3-.4.3-.6.5-.6 1.2-.8 1.7-1.4 2.5.9.8 1.8 1.7 2.6 3l-.7.6c-.3-.5-.5-1-1.2-1.8-.5-.6-.9-.9-1.2-1.1-1.2 1.4-2.2 2.1-3.5 2.7l-.6-.7c.8-.3 1.8-.7 3.1-2s1.7-2.4 2-3.3h-4V61h4.3c.2 0 .3-.1.5-.2l.7.6zM597.2 52c0 .1-.1.2-.3.2v2.4h2.1v1.1h-2.1v.9c.5.5 1.7 2 2 2.3l-.7 1c-.3-.5-.8-1.2-1.3-1.9v5.6h-1.2V58c-.6 1.4-1.3 2.7-2 3.5-.1-.4-.4-.9-.7-1.2 1-1.1 2-2.9 2.5-4.6h-2.2v-1.1h2.3v-2.7l1.6.1zm3.8 9.5c0 .7.1.8.6.8h1.6c.5 0 .6-.5.7-2.6.3.2.8.5 1.1.5-.1 2.3-.4 3.2-1.7 3.2h-1.9c-1.3 0-1.7-.4-1.7-2v-9.5l1.5.1c0 .1-.1.2-.3.2v9.3zm8.6-7.2v5.5c0 .9-.3 1.1-1.3 1.1 0-.3-.2-.7-.3-1h.6c.1 0 .1 0 .1-.1v-4.4h-.8v8.3h-1v-8.3h-.8V61h-.9v-6.8h1.7v-2.4l1.3.1c0 .1-.1.2-.3.2v2.1h1.7zm5.1 7.9c0 .3 0 .4.3.4h.4c.5 0 .5 0 .5-1.3.2.2.6.4.9.5-.1 1.2-.1 1.8-1.3 1.8h-.8c-1.1 0-1.1-.8-1.1-1.4v-2.1h-1c-.2 1.7-.7 2.9-2.9 3.6-.1-.3-.4-.7-.6-.9 1.8-.5 2.3-1.3 2.5-2.7h-1.7v-1h2.8v-2.6l1.4.1c0 .1-.1.2-.3.2v2.3h3v1h-2v2.1zm1.5-10.1v4.3h-6.1v-4.3h6.1zm-5.1 6.8c-.1-.5-.5-1.3-.8-1.9l.9-.3c.4.6.8 1.3.9 1.8l-1 .4zm4-5V53h-3.9v.8h3.9zm0 1.7v-.9h-3.9v.9h3.9zm1.3 1.6c0 .1-.1.1-.3.1-.3.5-.7 1.2-1.1 1.7l-.8-.4c.3-.5.8-1.3 1-1.9l1.2.5z"/><path class="st6" d="M617.8 59.9c-.1 1.2-.2 2.4-.7 3.1l-.6-.4c.5-.7.6-1.8.7-2.9l.6.2zm3.7-1.8.6.1v.3c-.2 3.2-.3 4.3-.6 4.7-.2.3-.5.4-1.3.4h-.6c0-.3-.1-.7-.3-1 .4.1.8.1.9.1.2 0 .3 0 .4-.1.1-.2.2-.6.3-1.4l-.4.2c-.1-.5-.4-1.1-.7-1.7l.5-.2c.2.4.5.9.6 1.3 0-.5.1-1 .1-1.7h-2.9v.3h-1v-7h4.8v1h-1.7v1h1.5v.9h-1.5v1h1.5v.9h-1.5v1h1.1l.2-.1zm-3.4 4.3c0-.6 0-1.6-.2-2.4l.6-.1c.1.7.2 1.7.2 2.3l-.6.2zm1.1-9h-1.1v1h1.1v-1zm0 2.8v-1h-1.1v1h1.1zm-1 1v1h1.1v-1h-1.1zm1.3 2.6c.2.6.4 1.5.5 2.1l-.6.1c0-.6-.2-1.4-.5-2.1l.6-.1zm8.4-2h-2c.4 2.2 1.1 4.1 2.5 5-.3.2-.6.7-.8 1-1.6-1.2-2.4-3.3-2.8-5.9h-.8c0 1.9-.3 4.3-1.4 5.9-.2-.2-.7-.5-1-.6 1.2-1.6 1.2-4 1.2-5.9v-4.9h5v5.4zm-1.1-4.3H624v3.2h2.9v-3.2zm11.5-1.1c-.1.1-.2.1-.3.1-.3.4-.8 1-1.3 1.4h3.1V55h-11.4v-1.1h3.1c-.3-.5-.8-1.1-1.3-1.6l1.1-.5c.6.5 1.2 1.2 1.5 1.7l-.7.3h4l-.6-.3c.5-.5 1-1.2 1.4-1.8l1.4.7zm-4.5 3.6v6.4c0 1.1-.6 1.2-2.3 1.2-.1-.3-.2-.8-.4-1h.7c.8 0 .8 0 .8-.2V61h-2.3v2.7h-1.1V56h4.6zm-1.2 1h-2.3v1h2.3v-1zm-2.3 3.1h2.3V59h-2.3v1.1zm6.1-3.9c0 .1-.1.2-.3.2v4.9H635v-5.2l1.4.1zm2.5 6.1c0 1.1-.5 1.4-2.6 1.3-.1-.3-.3-.8-.4-1.1h1c.9 0 .9 0 .9-.3v-6.6l1.5.1c0 .1-.1.2-.3.2v6.4zm5.6-8c0 .1-.2.2-.3.2-.5 3-1.5 6.2-3 8-.3-.2-.8-.5-1.2-.6 1.4-1.7 2.4-4.8 2.8-8l1.7.4zm5.7 8.2c-.6-2.1-2-5.6-3.2-8l1.2-.6c1.3 2.3 2.7 5.8 3.3 8l-1.3.6zm-1.4-10.3c.5.5 1.1 1.3 1.4 1.8l-.6.5c-.3-.5-1-1.4-1.4-1.8l.6-.5zm1.7-.6c.5.5 1.1 1.2 1.5 1.8l-.6.5c-.3-.5-1-1.3-1.4-1.8l.5-.5zm10.5 2-.2.2c-.7 1.6-1.4 2.9-2.4 4.2 1.3 1 3.3 2.8 4.4 4.1l-1.1 1c-1-1.2-2.9-3.1-4.1-4-1.1 1.3-2.9 3-4.6 4-.2-.3-.6-.7-.9-1 3.3-1.8 5.9-5.1 7.1-7.8h-5.9v-1.2h6.6l.2-.1.9.6zm12.4.8c0 .1-.1.2-.2.2-.5 1.5-1.1 3-1.8 4.1.5.3 1.1.7 1.5 1l-.7 1.2c-.4-.3-1-.7-1.5-1-1.1 1.5-2.6 2.7-4.4 3.6-.2-.3-.7-.7-1-.9 1.7-.8 3.2-1.9 4.3-3.3-.8-.5-1.6-.9-2.5-1.2l.7-1c.8.3 1.7.7 2.5 1.1.6-.9 1-1.9 1.3-2.9h-3.9c-.8 1.2-1.8 2.5-2.8 3.3-.2-.2-.7-.6-1-.8 1.7-1.3 3.1-3.4 3.9-5.6l1.6.4c-.1.1-.2.2-.4.2-.2.4-.4.9-.6 1.3h3.8l.2-.1 1 .4zm2 2.5h10.5v1.3h-10c-.1.1-.2.2-.4.2l-.1-1.5zm13 3.2c2.7.3 5.8 1 7.9 1.8l-.5 1.3c-1.8-.7-5.1-1.5-7.8-1.9l.4-1.2zm1-7.6c2.1.2 5 .8 6.6 1.4l-.5 1.2c-1.8-.7-4.4-1.2-6.6-1.4l.5-1.2zm0 3.8c2 .2 4.5.7 6.1 1.2l-.4 1.2c-1.4-.5-4-1.1-6-1.3l.3-1.1zm19.9.4h-4.5c-.2 3.1-1.1 5.1-3.8 6.6-.3-.3-.7-.6-1-.9 2.6-1.4 3.3-3 3.6-5.8h-4.8v-1.2h4.8v-3.3l1.7.1c0 .2-.1.2-.3.3 0 1.1 0 2-.1 2.9h4.4v1.3zm4.2-2.5c0 .1-.1.2-.3.3-.1 3.5-.4 6.5-2.2 8.8-.3-.2-.7-.5-1.1-.7 1.8-2 2-5.2 2-8.5l1.6.1zm3.2 6.9c1.9-1 3.1-2.7 3.7-4.8.3.2.8.5 1.1.7-.9 2.6-2.4 4.4-5.1 5.7l-.3.3-.9-1.1.2-.2v-9.1l1.6.1c0 .1-.1.2-.3.3v8.1zm-99.6 21.8v13.6h-1V82h4.6v.9h-3.6zm12.4-.1c-.1.6-.1 1.2-.1 2.3 1.7-.1 3.3-.2 4.6-.4l.1 1.3c-2.1 0-3.7.1-4.7.2v2.6c.3.6.4 1.6.4 2.1 0 1.4-.7 2.9-1.3 3.8-.4.6-.7.9-1.2 1.4l-1.2-.5c.5-.4 1.5-1.3 2.2-2.9-.5.3-1.1.3-1.1.3-1 0-1.9-.9-1.9-2.6 0-2 1.3-2.9 2.2-2.9.3 0 .5.1.7.1v-1.4c-1.7.1-4.2.3-6.1.5l-.1-1.1c1.7-.1 4.4-.3 6.1-.4 0-1.5 0-2-.1-2.6l1.5.2zm-3.1 7.5c0 1.1.6 1.5 1.1 1.5.6 0 1.1-.7 1.1-1.7 0-.5-.1-1.5-1-1.5-.6 0-1.2.6-1.2 1.7zm16.5-7.5c-.1.6-.1 1.2-.1 2.3 1.7-.1 3.3-.2 4.6-.4l.1 1.3c-2.1 0-3.7.1-4.7.2v2.6c.3.6.4 1.6.4 2.1 0 1.4-.7 2.9-1.3 3.8-.4.6-.7.9-1.2 1.4l-1.2-.5c.5-.4 1.5-1.3 2.2-2.9-.5.3-1.1.3-1.1.3-1 0-1.9-.9-1.9-2.6 0-2 1.3-2.9 2.2-2.9.3 0 .5.1.7.1v-1.4c-1.7.1-4.2.3-6.1.5l-.1-1.1c1.7-.1 4.4-.3 6.1-.4 0-1.5 0-2-.1-2.6l1.5.2zm-3.2 7.5c0 1.1.6 1.5 1.1 1.5.6 0 1.1-.7 1.1-1.7 0-.5-.1-1.5-1-1.5-.6 0-1.2.6-1.2 1.7zm13.8-7.5c.2.8.4 1.3.7 2.2 1.1-.4 1.9-.9 2.8-1.5l.3 1.1c-.8.5-1.5.8-2.7 1.3.2.6.5 1.1.8 1.7.9-.4 1.8-.8 3.2-1.7l.3 1.1c-.4.3-1.2.8-3 1.5.3.6.7 1.2 1.3 2.1.1.2.8.9.9 1.1l-.9 1.1c-.4-.4-.7-.6-1.2-.9-.7-.3-1.5-.5-2.4-.5-.9 0-2.7.4-2.7 1.8 0 1.6 1.9 1.7 2.8 1.7 1.5 0 2.6-.5 3.3-.8l-.1 1.3c-.4.2-1.2.5-3 .5-.6 0-2.4-.1-3.2-.8-.5-.4-.8-1.1-.8-1.8 0-1.9 1.7-2.7 3.6-2.7 1 0 1.6.2 2.8.5-.3-.4-.6-.8-1.4-2.1-3 .9-4.5.9-5.4.9l-.5-1.1h1.1c1.9 0 3.6-.5 4.3-.7-.1-.3-.7-1.5-.8-1.7-1.4.4-2.7.6-4.2.7l-.5-1.1h.9c1.5 0 2.7-.3 3.4-.5-.3-.7-.6-1.5-.9-2.4l1.2-.3zm14 11.3c.6-.2 1.5-.5 2.4-1.2 1-.8 1.8-2.3 1.8-3.8 0-2.4-1.7-3.7-2.4-4-.6-.3-1.3-.4-2.1-.4-.2 2.3-.8 4.6-1.8 6.8-.6 1.4-1.5 2.7-2.4 2.7-1.3 0-2.6-2-2.6-4.2 0-3 2.3-6.3 6.5-6.3 3.2 0 6 2 6 5.5 0 4.2-3.7 5.7-4.7 6.1l-.7-1.2zm-5.1-7.2c-.5.7-1.1 1.7-1.1 3 0 1.7.9 2.9 1.6 2.9.3 0 .7 0 1.7-2.5 1.1-2.6 1.3-4.7 1.3-5.6-1.1.2-2.3.6-3.5 2.2zm15.5 8.7V82h1v14.5h-4.6v-.9h3.6zm8.3-12.5c-.2.4-.7 1.5-1.2 2.3.1.1.3.1.3.3 0 0 0 .1-.2.3v10.2H684V87c-.4.7-.9 1.3-1.4 1.9l-.9-.7c.8-.9 2.4-2.7 3.7-6l1.1.5s.2.1.2.2-.2.1-.5.2zm8.6 9.1v-1.9h-7.5v2h-1.1v-2.9h9.7v2.8h-1.1zm-8.3-7.5v-.9h4.1v-1.6h1.2c.3 0 .3.1.3.2s0 .1-.4.3v1h4.2v.9h-9.4zm1.2 3.8v-2.8h7.1v2.8h-7.1zm4.2 3.9v2.7c0 1-1 1-2.3 1l-.4-1.2c.4.1.6.1.9.1.6 0 .8-.1.8-.6v-2.1H688v-.9h6.3v.9h-2.4zm1.8-5.9h-5v1.1h5v-1.1zM223.9 124c-1.7 0-1.9-1.5-1.9-2.3v-.5h.9v.4c0 .6 0 1.6 1 1.6.9 0 1-1 1-1.5v-5.4h.9v5.4c0 1.2-.6 2.3-1.9 2.3zm7.6-.2c-.1-.4-.2-.7-.2-1.3v-.6c0-1-.5-1.3-1.2-1.3H228v3.2h-.9v-7.5h3.4c1.4 0 2 1.1 2 2 0 .6-.2 1.1-.5 1.5-.2.2-.4.3-.6.4.3.1.5.1.7.5.2.4.2.9.2 1.1v.6c0 .3 0 .7.1.9 0 .2.1.3.3.4v.2h-1.2zm-1.2-6.8H228v2.8h2.2c.8 0 1.3-.6 1.3-1.4 0-.7-.4-1.4-1.2-1.4zm2.9 5.6c.5-.6 1-1.2 1.5-2.7.5-1.3.6-2.2.7-3l.8.3c.1 0 .2.1.2.2s-.2.2-.3.2c-.3 1.4-.5 2.6-1.2 4-.3.6-.5.9-.9 1.5l-.8-.5zm5.6-5.6c.5.6 1 1.4 1.6 2.7.6 1.2.7 1.9.9 2.5l-.8.4c-.2-.9-.5-1.9-1.1-3.2-.5-1.1-.9-1.6-1.2-2l.6-.4zm1.4.4c-.3-.4-.8-.8-1-.9l.5-.5c.1.1.6.5.9.9l-.4.5zm1.1-.8c-.3-.4-.8-.8-1-.9l.5-.5.9.9-.4.5zm7.2.4c-.4.3-.4.3-.6.5-.6 1.2-.8 1.7-1.4 2.5.9.8 1.8 1.7 2.6 3l-.7.6c-.3-.5-.5-1-1.2-1.8-.5-.6-.9-.9-1.2-1.1-1.2 1.4-2.2 2.1-3.5 2.7l-.6-.7c.8-.3 1.8-.7 3.1-2s1.7-2.4 2-3.3h-4v-.7h4.3c.2 0 .3-.1.5-.2l.7.5zm7.3-3.4v13.6h-1v-14.5h4.6v.9h-3.6zm16.5 12.9h-6.2c-1.1 0-1.2-.6-1.2-1.1 0-.5.4-6.7.5-7.9h-1.3c0 1.2-.2 3-.5 4.6-.5 2.3-1.1 3.7-1.9 4.9l-1-.6c1.7-2.7 2.2-5.3 2.3-8.9h-2.1v-1h2.1v-3.6l1.2.1c.2 0 .4.1.4.2s0 .1-.4.4v2.9h2.4c-.1 1.9-.1 2.5-.4 7.1 0 .2-.1 1.1-.1 1.2 0 .8.4.8.9.8h5.1c1.2 0 1.4-.1 1.7-1.5l1 .5c-.5 1.5-.6 1.9-2.5 1.9zm.1-2.5v-.6H269v.7h-1V114h5.4v10h-1zm0-9.1H269v3.3h3.3v-3.3zm0 4.3H269v3.3h3.3v-3.3zm5.5 6v1.6h-1.2v-11.1l1.2.1c.1 0 .3 0 .3.2 0 .1-.1.2-.4.3v7.8h4.2V113l1.3.1c.2 0 .3.1.3.2s-.2.2-.4.3v10.5h4.3v-8.7l1.3.2c.1 0 .3 0 .3.2 0 .1-.2.2-.4.4v10.5h-1.2v-1.5h-9.6zm17.5-10.7c-1.3 3-2.3 4.7-3.5 6.1l-1-.7c1.5-1.7 3-4.5 3.6-6.6l1.3.7c.1 0 .2.1.2.2-.1.1-.3.2-.6.3zm7.7 11.9c-.4-.8-.6-1.1-1.1-1.8-1 .2-3.2.6-4.8.8-1.1.2-2.7.4-4.8.7-.1.1-.2.4-.4.4-.1 0-.2-.1-.2-.2l-.3-1.4h.5c.3 0 1.5-.2 1.7-.2 1.8-3.4 2.8-6.1 3.5-7.8l1.2.6c.2.1.2.2.2.2 0 .2-.2.2-.5.3-1.4 3.2-2 4.4-3.1 6.5 2-.2 4.3-.6 6.4-.9-.6-.8-1.5-1.7-2.1-2.3l.8-.7c1.3 1.2 3 3.1 4.1 5.2l-1.1.6zm.6-6.2c-3-1.9-3.7-4.5-4.1-5.8h-2.1v-1.1h3.1c.3 1.4.8 4.2 3.9 5.8l-.8 1.1zm2.9-6.8h12.5v13.4H318v-1h-10.4v1h-1.1v-13.4zm11.4 11.4v-10.5h-10.4v10.5H318zm-5.8-10.1 1.1.1c.3 0 .3.1.3.2s-.1.2-.4.3v.3h2.7v.8h-2.7v.8h3.9v.8h-8.8v-.8h3.9v-.8h-2.7v-.8h2.7v-.9zm4.5 7.3s.1.1.1.2-.1.1-.1.1c-.1 0-.2 0-.3-.1-.6.4-1 .5-1.2.6.8.5 1.5.7 1.9.8l-.8.8c-1.2-.5-2.3-1.1-3.1-2.2v2.3h-1v-2.3c-.6.6-1.5 1.3-3.1 2l-.7-.9c1.3-.4 2.3-1 3.6-2.3h-2.4v-2.4h6.5v2.4h-2.7c.4.6.9 1 1.2 1.3.5-.3.9-.5 1.4-1.1l.7.8zm-1.5-1.7v-.9h-4.7v.9h4.7zm19.4 6.2h-6.9c-2.5 0-3.4-.5-4.1-1.8-.3.3-.9.8-1.7 1.5 0 .2 0 .5-.2.5-.1 0-.2-.1-.2-.2l-.7-1c.6-.3 1.3-.8 2.3-1.6v-3.4h-1.9v-1h2.9v4.1c0 .9.7 1.5 1.3 1.8.5.2 1.1.3 3 .3 3.7 0 5.5-.2 6.6-.4l-.4 1.2zm-11.3-9.4c-.8-1.5-1.3-2.3-2-3.2l.9-.6c.7.9 1.3 1.9 2 3.2l-.9.6zm8.4 7.9-.6-1.2h.8c.6 0 .6-.2.6-.6v-1H330v2.6h-1.1v-2.6h-2.3v2.7h-1.1V117h3.4c-.4-.4-.8-.8-1.6-1.2l.6-.9c.3.2.4.2 1.2.8 1.1-.8 1.2-.9 1.8-1.4h-5.2v-.9h6.7l.4.6c-1.2 1-1.8 1.5-3 2.3.4.3.6.5.7.6h2.9v6.5c.1 1.3 0 1.5-1.7 1.6zm-2.8-7h-2.3v1.2h2.3V118zm0 2.1h-2.3v1.3h2.3v-1.3zm3.6-2.1H330v1.2h2.5V118zm0 2.1H330v1.3h2.5v-1.3zm7 5.7v-8.2h-2.4v-1c1-.1 2.3-.1 2.7-2h1.1v11.3h-1.4zm9.9.3c-1.3 0-2.7-.3-3.6-1.5-.6-.9-.7-1.7-.7-2.3h1.4c0 .6.2 2.6 2.9 2.6 1.9 0 2.9-1.1 2.9-2.5 0-1.6-1.4-2.2-2.6-2.2h-1.2v-1h1c.9 0 2.4-.5 2.4-2 0-.9-.5-1.9-2.4-1.9-.7 0-1.5.2-2 .8-.5.6-.5 1.1-.6 1.5h-1.4c.2-2.7 2.3-3.5 4-3.5 2.3 0 3.8 1.2 3.8 2.9 0 1.9-1.5 2.4-2 2.5.6.2 2.3.6 2.3 2.8.1 2.2-1.5 3.8-4.2 3.8zm12.9-10.9v9.8c0 .8 0 1.5-1 1.8-.3.1-1.4 0-1.9 0l-.4-1.3c.5.1 1.1.1 1.3.1.7 0 .8-.3.8-.7v-9.7h-6.3V114h13.7v1.1h-6.2zm16.8 11.5v-.9H372v1h-1.2v-13.1h9.4v13.1h-1.1zm0-12H372v2.5h7.1v-2.5zm0 3.6H372v2.5h7.1v-2.5zm0 3.7H372v2.6h7.1V122zm7.1 4.2v-13.6h1v14.5h-4.6v-.9h3.6zm8.3-12.5c-.2.4-.7 1.5-1.2 2.3.1.1.3.1.3.3 0 0 0 .1-.2.3v10.2h-1.1v-9.2c-.4.7-.9 1.3-1.4 1.9l-.9-.7c.8-.9 2.4-2.7 3.7-6l1.1.5s.2.1.2.2-.2.2-.5.2zm8.7 9.1V121h-7.5v2h-1.1v-2.9h9.7v2.8h-1.1zm-8.4-7.4v-.9h4.1v-1.6h1.2c.3 0 .3.1.3.2s0 .1-.4.3v1h4.2v.9h-9.4zm1.2 3.7v-2.8h7.1v2.8H396zm4.2 4v2.7c0 1-1 1-2.3 1l-.4-1.2c.4.1.6.1.9.1.6 0 .8-.1.8-.6V123h-2.9v-.9h6.3v.9h-2.4zm1.9-5.9h-5v1.1h5v-1.1zm197.4 6.5v-10.8h5.2v1.1h-4.1v9.7h-1.1zm13.2-8h5.7v7.5h-1.5v-.8h-4.1v5h-1.5v-5h-4v.9h-1.5v-7.6h5.5V113l1.9.1c0 .1-.1.2-.4.3v2.3zm-5.6 5.3h4v-3.8h-4v3.8zm5.6 0h4.1v-3.8h-4.1v3.8zm14.9 2.7 1.7.1c0 .1-.1.2-.3.2v2.4h-7.3v.7h-1.3v-3.4l1.7.1c0 .1-.1.2-.3.2v1.2h2.3v-1.9l1.7.1c0 .1-.1.2-.4.2v1.5h2.3v-1.4zm6.1-2.4h-10.6v1h9.3l.8.1c0 .1 0 .3-.1.4-.2 2.7-.4 3.8-.9 4.2-.4.4-.8.5-1.8.5h-1.1c0-.4-.2-.9-.4-1.3.7.1 1.3.1 1.5.1.2 0 .4 0 .5-.2.2-.2.4-1 .6-2.7h-10v-9.1h3.5c.2-.4.4-.9.4-1.3l1.9.3c0 .1-.2.2-.4.2-.1.2-.3.5-.4.8h4.6v5h-8.3v.9h10.6v1.1zm-3.8-6h-6.8v1h6.8v-1zm-6.8 2.9h6.8v-1h-6.8v1zm17.6-4.2c-.1.1-.2.2-.4.2-1 2.3-2.6 4.6-4.2 6.1-.3-.3-.9-.8-1.3-1 1.6-1.3 3.1-3.6 4-5.8l1.9.5zm1.7 5.2c-.1.1-.2.2-.4.2-.7 1.7-1.7 4-2.7 5.7 1.9-.1 4.1-.1 6.3-.2-.7-1-1.4-2-2.1-2.9l1.4-.6c1.4 1.7 3 3.8 3.7 5.3l-1.5.8c-.2-.4-.4-.8-.7-1.3-3.8.2-7.6.4-10.2.5 0 .1-.1.2-.3.2l-.6-1.7c.6 0 1.4 0 2.2-.1 1.1-1.9 2.2-4.5 2.9-6.5l2 .6zm2.3-5.8c1 1.9 2.9 4.3 4.3 5.6-.4.3-.9.9-1.2 1.3-1.5-1.5-3.3-4.1-4.5-6.3l1.4-.6zm5.9.2h13.2v13.8h-1.4v-.6H652v.6h-1.4v-13.8zm1.4 11.9h10.3V115H652v10.5zm8.7-4.1 1.1.7c-.1.1-.2.1-.3.1-.4.3-1 .7-1.6 1 .7.4 1.5.6 2.2.8-.3.2-.6.7-.8 1-1.3-.4-2.7-1.2-3.7-2.1v2.2h-1.3v-2c-1 .6-2.1 1.1-3.2 1.5-.2-.2-.5-.7-.7-.9 1.4-.4 2.9-1.1 3.9-2h-2.5v-2.6h6.7v2.4l.2-.1zm.9-3.7v.9h-9v-.9h3.8v-.8h-2.9v-.9h2.9v-.8l1.7.1c0 .1-.1.2-.4.2v.5h3v.9h-3v.8h3.9zM655 120v1h4.1v-1H655zm3 1.8c.2.4.6.7 1 .9.4-.3.9-.6 1.3-.9H658zm8.9 1c-.1 1.5-.2 2.9-.9 3.8l-.8-.4c.6-.8.8-2.2.8-3.6l.9.2zm4.7-2.1.7.1v.4c-.2 3.9-.4 5.3-.8 5.8-.3.4-.6.5-1.6.5h-.7c0-.4-.1-.8-.3-1.2.5.1.9.1 1.1.1.2 0 .3 0 .4-.2.2-.2.3-.7.4-1.7l-.5.2c-.1-.6-.5-1.4-.8-2l.6-.2c.3.5.6 1.1.7 1.6 0-.6.1-1.3.1-2.1h-3.5v.4h-1.2v-8.6h5.9v1.2H670v1.2h1.8v1.1H670v1.2h1.8v1.1H670v1.2h1.4l.2-.1zm-4.2 5.1c0-.8 0-2-.2-2.9l.7-.1c.2.9.2 2.1.2 2.9l-.7.1zm1.3-11h-1.3v1.2h1.3v-1.2zm0 3.5v-1.2h-1.3v1.2h1.3zm-1.3 1.2v1.2h1.3v-1.2h-1.3zm1.6 3.2c.3.8.5 1.8.6 2.5l-.7.2c0-.7-.3-1.7-.6-2.5l.7-.2zm10.4-2.5H677c.5 2.7 1.4 5 3.1 6.1-.3.3-.8.8-1 1.2-2-1.4-2.9-4-3.4-7.3h-1.1c0 2.4-.3 5.3-1.7 7.3-.2-.2-.8-.6-1.2-.8 1.4-2 1.5-4.9 1.5-7.2v-6h6.2v6.7zm-1.3-5.3h-3.5v3.9h3.5v-3.9zm15-1.3c-.1.1-.2.2-.4.2-.4.5-1 1.2-1.5 1.7h3.8v1.3h-14v-1.3h3.9c-.4-.6-1-1.4-1.6-1.9l1.3-.6c.7.6 1.5 1.5 1.9 2.1l-.8.4h4.9l-.8-.3c.6-.6 1.3-1.5 1.7-2.2l1.6.6zm-5.5 4.5v7.9c0 1.4-.7 1.5-2.8 1.5-.1-.4-.3-.9-.5-1.3h.8c1 0 1 0 1-.3v-1.8h-2.8v3.3H682V118h5.6zm-1.4 1.2h-2.8v1.3h2.8v-1.3zm-2.8 3.8h2.8v-1.3h-2.8v1.3zm7.4-4.8c0 .1-.1.2-.4.3v6H689v-6.4l1.8.1zm3.1 7.5c0 1.4-.6 1.7-3.2 1.7-.1-.4-.3-1-.5-1.4h1.2c1.1 0 1.1 0 1.1-.3v-8l1.8.1c0 .1-.1.2-.4.3v7.6zm7.1-9.1v10.8h-5.2v-1.1h4.1v-9.7h1.1zm8 2.4c-.5.8-1 1.5-1.5 2.1-.1-.4-.5-1.1-.7-1.5 1.3-1.5 2.7-4.1 3.5-6.7l1.7.6c-.1.1-.2.2-.4.2-.4 1-.8 2-1.2 2.9l.4.1c0 .1-.1.2-.4.2v10.4H709v-8.3zm2.3 1.3h10.4v2.8h-1.3v-1.7h-7.8v1.7h-1.3v-2.8zm.3-6h4.2V113l1.8.1c0 .1-.1.2-.4.2v1.1h4.3v1.3h-10v-1.3zm8.9 5.2h-7.7v-3.2h7.7v3.2zm-7.2 4v-1.2h6.6v1.2h-2.6v2.3c0 1.5-.7 1.5-3.7 1.5-.1-.4-.3-1-.5-1.3h1.8c.9 0 .9 0 .9-.3v-2.3h-2.5zm.8-6.2v1.2h4.9v-1.2h-4.9zM13.7 68.3c1.8-1 5.2-4 6.9-6.3.9-1.2 2.5-4.3 2.5-4.4 0-.1-.2-.1-.2-.1-.8 0-1.7.2-2.5.4-.2.1-.3.1-.3.1-.2 0-.7-.3-.9-.4-1.3 1.7-3.7 3.9-5.2 4.4l-.1-.1c2.7-2.5 4.9-6.2 4.9-6.9 0-.3-.1-.4-1-1 .5-.1.9-.2 1-.2.5 0 1.6.7 1.9.9.2.2.3.3.3.5 0 .3-.2.5-.6.7-.3.3-.4.5-.7.9 1.1 0 3.3-.2 3.6-.4l.5-.4c.1-.1.2-.2.3-.2.1 0 .2.1.4.2l1.1 1c.1.1.2.2.2.4 0 .3-.6.5-1.2.8-1 1.7-1.9 3.5-3.2 5-2.7 3.5-6.4 4.9-7.7 5.1zM23.8 54c1.2 0 3.2.7 3.2 1.9 0 .4-.2.6-.5.6s-.4-.2-.6-.4c-.5-.6-1.1-1.4-2.1-2.1zm1.7-.6c.9 0 3.3.2 3.3 1.6 0 .5-.3.6-.5.6s-.3 0-.9-.8c-.3-.3-1-.9-1.9-1.4zm6.7 15.1c1.9-.8 4.6-3.4 5.1-4 .8-.9 2-2.6 2.8-5.3-1.6.2-5.8.6-6.9 1.1-.1.1-.6.3-.7.3-.4 0-1.9-1.1-1.9-2.4 0-.2 0-.4.2-.7.2.2.3.5.8.9.4.3.6.4 1.1.4 1.5 0 7.2-.5 7.4-.6l.5-.5c.1-.1.3-.3.4-.3.1 0 .3.1.5.2l.9.8c.1.1.3.3.3.6s-.2.5-.9.8c-1.5 4.3-5.2 8.5-9.6 8.8v-.1zm2.5-13.3c2.1 0 3.8-.4 4.2-.6.2-.1.4-.2.6-.2.3 0 1.7.3 1.7 1.1 0 .5-.3.5-1.9.6-.1 0-2.5.2-3.9.3-.3 0-1.5.3-1.7.3-.3 0-.4 0-.9-.4-.4-.3-.8-1.1-.8-1.8.9.7 2 .7 2.7.7zm12.7-.5h.6c.9 0 4.2.3 4.2 2.4 0 .6-.4.9-.7.9-.3 0-.6-.3-1.2-.9-1-1.1-1.6-1.5-2.9-2.4zm12.4 1.5c-.3 1.4-2.4 4.6-5.8 7.4-.5.4-3.2 2.5-3.3 2.7-.2.2-.5.6-.8.6-.7 0-2-1.7-2-2.6 0-.3.1-.6.1-.9.6 1 1.2 1.3 1.4 1.3.2 0 .4 0 .7-.2 3.5-2.4 6.4-4.7 9.7-8.3zm4.5 11.6c3.8-2.1 7.2-6.4 8.3-11.2-1.1 0-6.1.8-6.7.9-.2 0-1 .2-1.3.5-.2.1-.4.2-.5.2-.2 0-1.7-.8-1.7-2.4 0-.3.1-.5.2-.8.2.2.2.2.6.8.4.5.8.6 1.3.6 1.5 0 7.1-.6 7.6-.7l.6-.4c.1-.1.3-.2.4-.2.1 0 .2 0 .3.2l1 .9c.2.2.4.4.4.7 0 .3-.3.5-1 .8-1.2 3.6-2.8 6.9-6 8.8-1.6 1-3 1.4-3.6 1.5l.1-.2zm17.5.7c.7-.9 1.4-1.7 2.1-3.5.3-.7.8-2.2.8-3.4 0-.5-.3-.6-1-.9.4-.2.7-.2.7-.2.2 0 .5.1.8.2.6.2.6.6.7.8.9-.9 1.8-2 2.3-2.6-1.1.1-4.1.3-5.6.7-.2.1-1.3.5-1.3.5-.3 0-1.4-.8-1.4-1.6 0-.3.1-.4.2-.5.5.7 1 .8 1.2.8.2 0 6.2-.6 6.5-.6.2 0 .7-.2 1-.2.3 0 1.5 1.1 1.5 1.5 0 .3-.5.4-1 .5-.3.1-1.6.9-3.4 2.1-.9 3.4-1.4 4.5-4.1 6.4zm20.7-8.3c.6 0 1.6 0 2.8-.2.2 0 .9-.2 1.1-.2.4 0 1.9.4 1.9 1.1 0 .7-.7.8-1.3.8-.3 0-2.2-.1-2.6-.1h-5c-1.3 0-2.4.2-3.3.3-.2 0-.7.1-.8.1-.5 0-1.7-1.5-1.7-2.2 0-.2.1-.7.3-1.1.3.8.7 1.5 2.5 1.5h6.1zm21.8-1.8c-2.1 3.9-5.6 6.3-9.4 8.4-.3.3-.5.6-.8.6-.3 0-.4-.2-.7-.6-.2-.3-.8-.9-.8-1.3s.5-1.4.5-2.2v-7.4c0-.4-.1-.7-.4-.8-.2-.1-.9-.3-1.3-.5.7-.4 1-.5 1.4-.5.6 0 2.3.7 2.3 1.2 0 .3-.2.6-.3.8-.2 1.8-.3 7.1-.3 7.5v1.5c3.8-1.4 8.1-5.1 9.7-6.7h.1zM57.5 77.6l.4-.5c.1-.1.2-.2.3-.2.1 0 .2.1.3.2l.8.7c.2.1.2.2.2.3 0 .2-.2.3-.5.6v3.8c0 .5.1 2.8.1 3 0 .5 0 1.2-.6 1.7-.3.2-.8.7-1.4.6 0-.1-.2-1.5-.7-1.9 0 3.6.1 4.1.1 4.5v.7c0 .6-.6.8-1 .8-.6 0-.6-.4-.6-.6 0-.4.1-2.3.1-2.7.1-1.8.1-3.6.1-5.4v-5.1h-1c0 3.7.1 7.9.1 8.5v1c0 .8-.7.8-.9.8-.5 0-.6-.3-.6-.5s.1-1 .1-1.2v-8.2c0-.4-.1-1.1-.2-1.7l1.6.9h.9v-1.6c0-.7 0-1.1-.4-1.8l2 .7c.1 0 .4.1.4.3 0 .2-.3.4-.6.6v1.9h1zm-.9.4v7.7c.4 0 .6.1.9.1.3 0 .4 0 .4-.2 0-.6-.1-7.4-.1-7.5h-1.2zm10.6 6.9.6-.9c.1-.1.2-.2.3-.2.1 0 .2.1.3.2l1.1.9c.1.1.2.2.2.3 0 .2-.2.2-.3.2H65v4.2c0 .2.2.4.6.4.5 0 1.7 0 2-.2.4-.3.8-2.2.9-2.3h.2c.1.5.3 1.8.5 1.9.2.2.7.4.7.8 0 .3-.3.7-.6.9-.6.4-1.7.4-2.7.4-1.8 0-2.8 0-2.9-1.6v-4.4h-.8c-.2 1.7-1.2 4.9-5.4 6.1l-.1-.1c3.2-2.3 3.8-4.6 3.9-5.9-.1 0-.7 0-1.3.1l-.3-.7c1.2.1 2.5.1 2.7.1h.9v-2.6c0-.5-.1-.9-.3-2h-1.2v.5c0 .4-.6.6-1.1.6-.1 0-.5 0-.5-.5 0-.1.1-.7.1-.8v-4.2c-.1-1.1-.2-1.2-.2-1.4l1.8.9H66l.3-.5c.1-.2.2-.3.3-.3.1 0 .2.1.3.2l1 .7c.2.1.3.2.3.3 0 .2-.5.6-.6.6 0 1.6 0 1.8.1 3.3v.4c0 1-.9 1.1-1 1.1-.5 0-.6-.4-.6-.8H63l2 .7c.2.1.3.1.3.3 0 .2-.5.5-.7.6v3.1h2.6zm-7.1-3.4c1 .3 2.2.9 2.2 2.1 0 .6-.4.8-.8.8-.7 0-.8-.8-.9-1.2-.2-.8-.3-1.2-.6-1.6l.1-.1zm1.7-5.6v1.7h4.3v-1.7h-4.3zm0 2.1v1.8h4.3V78h-4.3zm6 4.1c.1.1.2.2.2.3 0 .3-.4.2-.5.2-.3.3-1.8 1.7-2.2 1.9l-.1-.1c.2-.5.7-1.8.9-3.3l1.7 1zm9.6-5.6h-3.3c-1.2 0-1.6 0-2 .1l-.3-.7c1.2.1 2.5.1 2.7.1h11l.9-1c.1-.1.2-.2.3-.2.1 0 .2.1.4.2l1.4 1c.1 0 .2.2.2.3 0 .2-.2.2-.3.2h-6.1v3.3h2.6l.6-.6c.1-.1.2-.3.3-.3.1 0 .2.1.3.2l1 .8c.1.1.2.2.2.3 0 .2-.2.3-.6.6v3.9c0 1.5.2 4.5.2 4.8 0 .3.1.6.1.8 0 .9-1 1-1.2 1-.4 0-.6-.1-.6-.9v-.1h-9.9v.1c0 1-1 1-1.2 1-.2 0-.6 0-.6-.6 0-.1.1-.6.1-.7 0-.2.2-4.8.2-7.4 0-1.9-.1-3-.3-4l2.1 1.1h2v-3.3zm1.5 3.7c0 .5 0 1.4-.1 2.2-.4 2.5-2.2 4.2-3.7 4.8v2.6H85v-3.9c-.2.7-1.2.9-2.4.9-.9 0-2.1-.1-2.1-1.5v-5.2h-1.6zm-3.8 6.7c2.1-1.9 2.3-4.2 2.3-6.7h-2.3v6.7zm3.8-7.1h1.7v-3.3h-1.7v3.3zm3.2.4v4.5c0 .3 0 .6.7.6.6 0 .9-.3 1.2-2h.2c.1.7.2 1.2.5 1.7 0 .1.4.4.4.5v-5.2h-3zM8.7 114.4c1.9-1 5.7-4.3 7.6-6.8 1-1.3 2.8-4.7 2.8-4.8 0-.1-.2-.1-.2-.1-.9 0-1.9.2-2.8.4-.2.1-.3.1-.4.1-.2 0-.7-.3-1-.4-1.4 1.9-4 4.2-5.7 4.8l-.1-.1c3-2.8 5.4-6.8 5.4-7.5 0-.3-.1-.4-1.1-1 .5-.1 1-.2 1.1-.2.5 0 1.8.8 2.1 1 .2.2.4.3.4.6s-.3.6-.6.7c-.4.3-.5.5-.8.9 1.2 0 3.6-.2 3.9-.5l.6-.4c.1-.1.2-.2.4-.2.1 0 .2.1.4.2l1.2 1c.1.1.2.2.2.5 0 .4-.7.6-1.3.9-1.1 1.8-2.1 3.8-3.5 5.4-3.1 3.8-7.2 5.3-8.6 5.5zm11-15.5c1.4 0 3.5.8 3.5 2.1 0 .4-.2.7-.6.7-.3 0-.5-.2-.7-.4-.6-.7-1.2-1.5-2.3-2.2v-.2zm1.9-.7c1 0 3.6.2 3.6 1.8 0 .5-.3.6-.6.6s-.3 0-1-.8c-.3-.4-1-1.1-2-1.6zm7.2 16.5c2.1-.8 5-3.7 5.6-4.4.9-1 2.1-2.8 3.1-5.8-1.8.2-6.4.7-7.5 1.2-.1.1-.7.3-.8.3-.4 0-2.1-1.2-2.1-2.6 0-.2 0-.4.2-.7.2.2.4.5.9.9.5.3.6.4 1.2.4 1.6 0 7.8-.6 8.1-.6l.5-.5c.1-.1.3-.3.4-.3.1 0 .4.1.5.2l.9.8c.1.1.4.3.4.6s-.3.5-.9.9c-1.7 4.7-5.6 9.2-10.5 9.6zm2.8-14.5c2.3 0 4.1-.4 4.6-.7.2-.1.4-.3.7-.3.4 0 1.9.4 1.9 1.2 0 .5-.4.6-2 .6-.1 0-2.8.2-4.3.3-.3 0-1.6.3-1.9.3-.3 0-.5 0-1-.5-.4-.3-.9-1.2-.8-2 .9 1.1 2 1.1 2.8 1.1zm13.8-.6h.7c1 0 4.6.3 4.6 2.6 0 .6-.5 1-.8 1-.3 0-.6-.3-1.3-1-1-1.1-1.7-1.6-3.2-2.4v-.2zm13.5 1.7c-.4 1.5-2.7 5-6.3 8-.6.5-3.5 2.7-3.6 2.9-.2.2-.6.7-.9.7-.7 0-2.2-1.9-2.2-2.9 0-.4.1-.7.1-1 .7 1.1 1.3 1.4 1.5 1.4.2 0 .4 0 .8-.3 3.9-2.5 7.1-4.9 10.6-8.8zm3.2 2.2c.5-.1 1.1-.1 1.9-.1 1.2 0 2.4.1 3.3 1.1.2.2.4.5.4.9 0 .1 0 .9-.7.9-.3 0-.4-.1-1.1-.6-1.7-1.2-2.7-1.8-3.7-2.1v-.1zm14.6-1.5c-1.1 3-4.2 6.6-6.9 8.8-.7.6-1.7 1.3-2.6 2-.5.5-.8.9-1.2.9-.4 0-2.1-1.2-2.1-2.9 0-.2 0-.3.1-.5.2.2 1.3 1.1 1.6 1.1.4 0 1.6-.7 2.3-1.2 3.9-2.9 7.5-6.7 8.6-8.3l.2.1zm-12.6-3.4c.4 0 .7-.1 1.2-.1 2.7 0 4 1.2 4 2.2 0 .2 0 .9-.7.9-.3 0-.5-.1-.8-.4-1.7-1.5-2.5-2-3.6-2.5v-.1zM85.6 111v-2c0-.6 0-2.3-.3-2.8-.2-.3-.9-.2-1.1-.2-.3 0-.9.2-1.1.2-.4 0-.8-.3-1.1-.6-.4-.5-.4-.7-.5-1 .2.1.9.5 1.7.5.3 0 4.4-.4 5-.6.3-.1.5-.2.9-.2s1.3.2 1.3.7c0 .4-.3.5-.6.5s-1.7.1-3.1.1c.2.2.3.3.3.6s-.2 1.4-.2 1.8c0 .4-.2 2.2-.2 3.1 1.2-.1 2.9-.2 3.4-.2.3 0 1.1-.2 1.3-.2.5 0 1.7.5 1.7 1.2 0 .4-.3.4-.4.4-.2 0-.7-.1-.9-.1-1.2-.2-2.2-.3-3.6-.3-2.4 0-5.1.4-6.1.6-.2 0-1.1.4-1.3.4-.6 0-1.4-1.2-1.4-2 0-.2.1-.4.1-.6.5.6 1 1.2 1.8 1.2.6 0 3.5-.3 4.2-.3v-.2zm19.9-5.4c.7 0 1.8 0 3.1-.2.2 0 1-.2 1.2-.2.5 0 2.1.4 2.1 1.2 0 .8-.8.8-1.5.8-.3 0-2.4-.1-2.8-.1h-5.5c-1.4 0-2.6.2-3.6.3-.2 0-.8.1-.9.1-.5 0-1.8-1.6-1.8-2.4 0-.2.1-.7.3-1.2.4.9.8 1.6 2.7 1.6h6.7zm7.8 7.2c3.3-3.3 3.7-6.7 3.7-9.7 0-.8 0-1.4-.6-1.7-.2-.1-.9-.3-1.1-.3.2-.1 1-.4 1.2-.5.1-.1.3-.1.4-.1.4 0 2.1.4 2.1 1.1 0 .2-.2.6-.2 1 0 .3-.2 2.5-.3 3-.7 4.9-3.8 6.8-5 7.3l-.2-.1zm16.5-9.2c-.6 1.3-2.2 4.3-5.6 6.9-1.3 1-1.4 1.1-2 1.7-.2.1-.4.4-.5.4-.2 0-.3-.1-.7-.7-.5-.7-.7-1.2-.7-1.4 0-.1.3-.7.3-.8.2-.6.2-2.3.2-3.8 0-.7 0-4.9-.1-5.2-.1-.5-.7-.7-1.6-1 .4-.2.8-.5 1.4-.5.7 0 1.7.4 2.2.8.2.1.2.3.2.4 0 .2-.3 1-.3 1.2-.2.8-.4 6.6-.4 7.7 0 .2.1.3.2.3.6 0 3.9-2.3 7.3-6.2l.1.2z"/><path d="M155.3 19.4V18c-.4.5-.6.7-1.1 1.1-.1-.4-.2-.5-.4-.8.8-.6 1.5-1.3 2.1-2.1.3-.4.5-.7.6-1l.8.5c-.1.1-.1.2-.3.5-.2.3-.4.6-.7 1v4.7c0 .6 0 1 .1 1.3h-1c0-.4.1-.8.1-1.4v-2.4zm1.8-6.5-.4.4c-.7.9-1.5 1.5-2.4 2.2-.2-.3-.3-.5-.5-.7 1.2-.7 2.1-1.6 2.5-2.4l.8.5zm3.2 4.2h-2.1c-.4 0-.8 0-1.1.1v-.9c.3 0 .7.1 1.1.1h2.1v-1.6h-1.6c-.5 0-.8 0-1.1.1V14c.3 0 .6.1 1.1.1h1.6v-.3c0-.6 0-.9-.1-1.2h1c0 .3-.1.6-.1 1.2v.3h1.7c.5 0 .8 0 1.1-.1v.9c-.3 0-.6-.1-1.1-.1h-1.7v1.6h2.4c.5 0 .8 0 1.2-.1v.9c-.3 0-.8-.1-1.2-.1h-2.4v1.6h1.8c.4 0 .8 0 1.1-.1v.9c-.3 0-.7-.1-1.1-.1h-1.8v2.2c.5.1 1.2.2 2 .2.5 0 .8 0 1.6-.1-.1.4-.2.5-.3 1h-.9c-2.9 0-4.3-.6-5.3-2-.3 1-.7 1.6-1.3 2.4-.2-.3-.4-.4-.7-.6.8-1 1.2-1.8 1.5-3.1.2-.7.2-1.1.2-1.6l1.1.2c-.1.3-.1.3-.2 1.2 0 .2-.1.4-.1.6.4.8.9 1.3 1.7 1.6v-4.3zm9.7.6c-.7 1.1-1.7 2-2.9 2.8-.2-.3-.4-.5-.7-.7 1.2-.6 2.2-1.5 2.8-2.6l.8.5zm5.8-1.7c.5 0 .9 0 1.2-.1v1c-.4 0-.7-.1-1.2-.1h-3.4v2.7c0 .6-.4.9-1.3.9H170c0-.3-.1-.6-.2-.9.5.1.9.1 1.3.1s.5 0 .5-.2v-2.5H168c-.5 0-.9 0-1.3.1v-1c.4 0 .7.1 1.3.1h.7v-1.6c0-.4 0-.7-.1-1.1h1c-.1.4-.1.6-.1 1.1V16h2v-2.5c0-.5 0-.8-.1-1.1h1c-.1.3-.1.6-.1 1.1v.3h2.6c.5 0 .8 0 1.1-.1v.9c-.3 0-.6-.1-1.1-.1h-2.6V16h3.5zm-.7 3.7c-.7.7-1 .9-1.2 1.2-1.7 1.4-3.7 2.1-6.3 2.3-.1-.4-.2-.6-.4-.9 2 0 3.7-.5 5.2-1.3.9-.5 1.6-1.2 2-1.8l.7.5zm-.7-2.5c.7.9 1.7 1.6 2.8 2.2-.3.3-.4.4-.6.7-1.1-.6-2-1.4-2.9-2.5l.7-.4zm9.8-3.7c-1.9 1-3.2 2.2-3.8 3.7.5-.3 1.2-.6 1.9-.6 1.4 0 2.5.9 2.5 2.8 0 1.8-1.1 3.1-2.9 3.1-2 0-2.9-1.4-2.9-3.4 0-2.7 1.5-4.8 4.7-6.3l.5.7zm-4 4.7v.8c0 1.8.7 2.6 1.8 2.6 1 0 1.8-.7 1.8-1.9s-.6-2-1.8-2c-.7-.1-1.4.1-1.8.5zm10.7-5.4c-.1.2-.2.3-.3.6-.9 1.8-2.1 3.3-3.7 4.5-.2-.3-.4-.5-.7-.8 1.4-1 2.4-2 3.2-3.4.3-.5.4-.9.5-1.2l1 .3zm-1.2 4.6c-.4 0-.8 0-1.2.1v-1c.3 0 .7.1 1.2.1h4c.5 0 .9 0 1.2-.1v.9c0 2.4-.2 4.3-.5 4.9-.2.4-.5.5-1.3.5-.3 0-.7 0-1.4-.1 0-.4-.1-.6-.2-1 .6.1 1.2.2 1.6.2.5 0 .6-.1.7-.7.2-.8.3-2.2.3-3.8h-2.6c-.1.6-.1.8-.2 1.2-.5 2-1.6 3.4-3.7 4.5-.2-.3-.3-.5-.6-.8 1.4-.6 2.4-1.5 2.9-2.5.4-.7.6-1.3.6-2.3h-.8zm3.8-4.9c.1.3.2.6.4 1 .8 1.5 1.9 2.6 3.4 3.6-.3.3-.4.5-.7.9-1.8-1.3-2.9-2.7-3.9-4.6-.1-.2-.2-.4-.3-.5l1.1-.4z"/></svg>