<svg width="227" height="40" viewBox="0 0 227 40" fill="none" xmlns="http://www.w3.org/2000/svg">
<path d="M4.08667 12.84C4.08667 13.88 4.34 14.7867 4.84667 15.56C5.35333 16.3333 5.96667 16.9867 6.68667 17.52C7.43333 18.0267 8.44667 18.6667 9.72667 19.44C11.14 20.2933 12.22 21 12.9667 21.56C13.74 22.12 14.3933 22.84 14.9267 23.72C15.4867 24.5733 15.7667 25.6 15.7667 26.8C15.7667 28.08 15.4467 29.24 14.8067 30.28C14.1667 31.32 13.22 32.1467 11.9667 32.76C10.74 33.3467 9.26 33.64 7.52667 33.64C5.47333 33.64 3.59333 33.1733 1.88667 32.24C1.75333 32.16 1.66 32.0667 1.60667 31.96C1.58 31.8533 1.55333 31.6933 1.52667 31.48L1.00667 26.04C0.98 25.9333 1.03333 25.8667 1.16667 25.84C1.32667 25.8133 1.42 25.8533 1.44667 25.96C1.87333 27.88 2.66 29.5333 3.80667 30.92C4.98 32.3067 6.52667 33 8.44667 33C9.78 33 10.9 32.64 11.8067 31.92C12.74 31.1733 13.2067 30 13.2067 28.4C13.2067 27.2 12.94 26.16 12.4067 25.28C11.8733 24.4 11.22 23.68 10.4467 23.12C9.7 22.5333 8.67333 21.8533 7.36667 21.08C6.08667 20.3067 5.07333 19.64 4.32667 19.08C3.60667 18.52 2.99333 17.8133 2.48667 16.96C1.98 16.1067 1.72667 15.1067 1.72667 13.96C1.72667 12.6267 2.07333 11.4933 2.76667 10.56C3.48667 9.6 4.40667 8.89333 5.52667 8.44C6.67333 7.96 7.88667 7.72 9.16667 7.72C10.74 7.72 12.3 8.04 13.8467 8.68C14.2467 8.81333 14.4467 9.04 14.4467 9.36L14.7267 13.96C14.7267 14.0667 14.66 14.12 14.5267 14.12C14.3933 14.12 14.3133 14.0667 14.2867 13.96C14.0733 12.5733 13.5 11.2933 12.5667 10.12C11.6333 8.92 10.2867 8.32 8.52667 8.32C7.03333 8.32 5.91333 8.76 5.16667 9.64C4.44667 10.4933 4.08667 11.56 4.08667 12.84Z" fill="#876F00"/>
<path d="M32.5751 33.64C30.0951 33.64 27.8818 33.0667 25.9351 31.92C24.0151 30.7467 22.5218 29.1733 21.4551 27.2C20.4151 25.2 19.8951 23.0267 19.8951 20.68C19.8951 17.9333 20.5884 15.5867 21.9751 13.64C23.3618 11.6667 25.1351 10.1867 27.2951 9.2C29.4818 8.21333 31.7084 7.72 33.9751 7.72C36.5084 7.72 38.7351 8.32 40.6551 9.52C42.5751 10.6933 44.0418 12.2533 45.0551 14.2C46.0951 16.1467 46.6151 18.2133 46.6151 20.4C46.6151 22.8267 45.9751 25.0533 44.6951 27.08C43.4151 29.1067 41.6951 30.7067 39.5351 31.88C37.4018 33.0533 35.0818 33.64 32.5751 33.64ZM33.9751 32.8C35.7884 32.8 37.4151 32.36 38.8551 31.48C40.3218 30.6 41.4684 29.3067 42.2951 27.6C43.1484 25.8933 43.5751 23.8667 43.5751 21.52C43.5751 19.0133 43.1084 16.7867 42.1751 14.84C41.2418 12.8933 39.9218 11.3733 38.2151 10.28C36.5351 9.18667 34.5618 8.64 32.2951 8.64C29.3618 8.64 27.0684 9.58667 25.4151 11.48C23.7618 13.3733 22.9351 15.9733 22.9351 19.28C22.9351 21.7867 23.4018 24.08 24.3351 26.16C25.2684 28.2133 26.5751 29.84 28.2551 31.04C29.9351 32.2133 31.8418 32.8 33.9751 32.8Z" fill="#876F00"/>
<path d="M71.4401 12.56C71.4401 9.94667 70.2801 8.64 67.9601 8.64C67.8801 8.64 67.8401 8.56 67.8401 8.4C67.8401 8.24 67.8801 8.16 67.9601 8.16L69.6801 8.2C70.6401 8.25333 71.4001 8.28 71.9601 8.28C72.4134 8.28 73.0668 8.25333 73.9201 8.2L75.6001 8.16C75.6534 8.16 75.6801 8.24 75.6801 8.4C75.6801 8.56 75.6534 8.64 75.6001 8.64C73.4668 8.64 72.4001 9.94667 72.4001 12.56V23.92C72.4001 26.9867 71.5468 29.3867 69.8401 31.12C68.1334 32.8267 65.8401 33.68 62.9601 33.68C60.9868 33.68 59.2534 33.2933 57.7601 32.52C56.2934 31.7467 55.1468 30.6533 54.3201 29.24C53.5201 27.8 53.1201 26.12 53.1201 24.2V11.4C53.1201 10.6 53.0401 10.0133 52.8801 9.64C52.7201 9.26667 52.4001 9.01333 51.9201 8.88C51.4668 8.72 50.7334 8.64 49.7201 8.64C49.6668 8.64 49.6401 8.56 49.6401 8.4C49.6401 8.24 49.6668 8.16 49.7201 8.16L51.6801 8.2C52.8001 8.25333 53.7068 8.28 54.4001 8.28C55.1468 8.28 56.0801 8.25333 57.2001 8.2L59.1201 8.16C59.2001 8.16 59.2401 8.24 59.2401 8.4C59.2401 8.56 59.2001 8.64 59.1201 8.64C58.1334 8.64 57.4001 8.72 56.9201 8.88C56.4401 9.04 56.1201 9.32 55.9601 9.72C55.8001 10.0933 55.7201 10.68 55.7201 11.48V22.8C55.7201 25.92 56.4268 28.32 57.8401 30C59.2801 31.6533 61.2801 32.48 63.8401 32.48C66.2401 32.48 68.1068 31.7333 69.4401 30.24C70.7734 28.72 71.4401 26.6267 71.4401 23.96V12.56Z" fill="#876F00"/>
<path d="M84.0498 8.88C82.3698 8.88 81.1031 9.30667 80.2498 10.16C79.4231 11.0133 78.8231 12.4667 78.4498 14.52C78.4498 14.5733 78.3698 14.6 78.2098 14.6C78.0765 14.6 78.0098 14.5733 78.0098 14.52C78.1165 13.56 78.2365 12.3067 78.3698 10.76C78.5031 9.21333 78.5698 8.05333 78.5698 7.28C78.5698 7.14667 78.6365 7.08 78.7698 7.08C78.9298 7.08 79.0098 7.14667 79.0098 7.28C79.0098 7.86667 79.7298 8.16 81.1698 8.16C83.4365 8.24 86.1165 8.28 89.2098 8.28C90.7831 8.28 92.4498 8.25333 94.2098 8.2L96.9298 8.16C97.8898 8.16 98.5965 8.09333 99.0498 7.96C99.5298 7.82667 99.8365 7.56 99.9698 7.16C99.9965 7.05333 100.076 7 100.21 7C100.343 7 100.41 7.05333 100.41 7.16C100.33 7.93333 100.25 9.10667 100.17 10.68C100.09 12.2533 100.05 13.5333 100.05 14.52C100.05 14.5733 99.9698 14.6 99.8098 14.6C99.6498 14.6 99.5698 14.5733 99.5698 14.52C99.4898 12.44 99.0631 10.9867 98.2898 10.16C97.5165 9.30667 96.2365 8.88 94.4498 8.88C93.2498 8.88 92.3965 8.93333 91.8898 9.04C91.3831 9.14667 91.0365 9.37333 90.8498 9.72C90.6631 10.0667 90.5698 10.6533 90.5698 11.48V29.92C90.5698 30.7467 90.6631 31.3467 90.8498 31.72C91.0365 32.0933 91.3965 32.3467 91.9298 32.48C92.4631 32.6133 93.3031 32.68 94.4498 32.68C94.5298 32.68 94.5698 32.76 94.5698 32.92C94.5698 33.08 94.5298 33.16 94.4498 33.16C93.5698 33.16 92.8631 33.1467 92.3298 33.12L89.2098 33.08L86.2098 33.12C85.6765 33.1467 84.9431 33.16 84.0098 33.16C83.9565 33.16 83.9298 33.08 83.9298 32.92C83.9298 32.76 83.9565 32.68 84.0098 32.68C85.1565 32.68 85.9965 32.6133 86.5298 32.48C87.0631 32.3467 87.4231 32.0933 87.6098 31.72C87.8231 31.32 87.9298 30.72 87.9298 29.92V11.4C87.9298 10.5733 87.8365 10 87.6498 9.68C87.4631 9.33333 87.1165 9.12 86.6098 9.04C86.1031 8.93333 85.2498 8.88 84.0498 8.88Z" fill="#876F00"/>
<path d="M130.721 32.68C130.801 32.68 130.841 32.76 130.841 32.92C130.841 33.08 130.801 33.16 130.721 33.16C129.895 33.16 129.241 33.1467 128.761 33.12L126.001 33.08L123.041 33.12C122.588 33.1467 121.961 33.16 121.161 33.16C121.081 33.16 121.041 33.08 121.041 32.92C121.041 32.76 121.081 32.68 121.161 32.68C122.201 32.68 122.961 32.6133 123.441 32.48C123.921 32.3467 124.241 32.0933 124.401 31.72C124.588 31.32 124.681 30.72 124.681 29.92V20.56H109.321V29.92C109.321 30.72 109.401 31.32 109.561 31.72C109.748 32.0933 110.081 32.3467 110.561 32.48C111.041 32.6133 111.801 32.68 112.841 32.68C112.895 32.68 112.921 32.76 112.921 32.92C112.921 33.08 112.895 33.16 112.841 33.16C112.015 33.16 111.361 33.1467 110.881 33.12L108.001 33.08L105.241 33.12C104.761 33.1467 104.095 33.16 103.241 33.16C103.188 33.16 103.161 33.08 103.161 32.92C103.161 32.76 103.188 32.68 103.241 32.68C104.255 32.68 105.001 32.6133 105.481 32.48C105.988 32.3467 106.321 32.0933 106.481 31.72C106.668 31.32 106.761 30.72 106.761 29.92V11.4C106.761 10.6 106.668 10.0133 106.481 9.64C106.321 9.26667 106.001 9.01333 105.521 8.88C105.041 8.72 104.295 8.64 103.281 8.64C103.228 8.64 103.201 8.56 103.201 8.4C103.201 8.24 103.228 8.16 103.281 8.16L105.321 8.2C106.441 8.25333 107.335 8.28 108.001 8.28C108.775 8.28 109.748 8.25333 110.921 8.2L112.841 8.16C112.895 8.16 112.921 8.24 112.921 8.4C112.921 8.56 112.895 8.64 112.841 8.64C111.828 8.64 111.068 8.72 110.561 8.88C110.081 9.04 109.748 9.32 109.561 9.72C109.401 10.0933 109.321 10.68 109.321 11.48V19.72H124.681V11.48C124.681 10.68 124.588 10.0933 124.401 9.72C124.241 9.32 123.921 9.04 123.441 8.88C122.961 8.72 122.201 8.64 121.161 8.64C121.081 8.64 121.041 8.56 121.041 8.4C121.041 8.24 121.081 8.16 121.161 8.16L123.041 8.2C124.215 8.25333 125.201 8.28 126.001 8.28C126.721 8.28 127.641 8.25333 128.761 8.2L130.721 8.16C130.801 8.16 130.841 8.24 130.841 8.4C130.841 8.56 130.801 8.64 130.721 8.64C129.708 8.64 128.961 8.72 128.481 8.88C128.001 9.01333 127.668 9.26667 127.481 9.64C127.321 10.0133 127.241 10.6 127.241 11.4V29.92C127.241 30.72 127.321 31.32 127.481 31.72C127.668 32.0933 128.001 32.3467 128.481 32.48C128.961 32.6133 129.708 32.68 130.721 32.68Z" fill="#876F00"/>
<path d="M146.521 21.4001C147.841 21.4001 148.981 21.6401 149.941 22.1201C150.901 22.6001 151.641 23.2934 152.161 24.2001C152.681 25.0934 152.941 26.1601 152.941 27.4001C152.941 28.6401 152.681 29.7067 152.161 30.6001C151.641 31.4934 150.901 32.1867 149.941 32.6801C148.981 33.1601 147.841 33.4001 146.521 33.4001H142.261L142.221 32.8001C143.155 32.8001 143.935 32.8001 144.561 32.8001C145.201 32.8001 145.688 32.8001 146.021 32.8001C146.355 32.8001 146.521 32.8001 146.521 32.8001C148.068 32.8001 149.281 32.3201 150.161 31.3601C151.055 30.3867 151.501 29.0667 151.501 27.4001C151.501 25.7334 151.055 24.4201 150.161 23.4601C149.281 22.4867 148.068 22.0001 146.521 22.0001C146.521 22.0001 146.348 22.0001 146.001 22.0001C145.655 22.0001 145.148 22.0001 144.481 22.0001C143.815 22.0001 142.995 22.0001 142.021 22.0001V21.4001H146.521ZM142.541 21.4001V33.4001H141.241V21.4001H142.541ZM141.281 32.1001V33.4001H139.841V33.2001C139.841 33.2001 139.881 33.2001 139.961 33.2001C140.055 33.2001 140.101 33.2001 140.101 33.2001C140.421 33.2001 140.688 33.0934 140.901 32.8801C141.115 32.6534 141.228 32.3934 141.241 32.1001H141.281ZM141.281 22.7001H141.241C141.228 22.3801 141.108 22.1201 140.881 21.9201C140.668 21.7067 140.401 21.6001 140.081 21.6001C140.081 21.6001 140.041 21.6001 139.961 21.6001C139.881 21.6001 139.841 21.6001 139.841 21.6001V21.4001H141.281V22.7001Z" fill="#876F00"/>
<path d="M157.644 21.4001V33.4001H156.384V21.4001H157.644ZM156.444 32.1201V33.4001H154.744V33.2001C154.744 33.2001 154.79 33.2001 154.884 33.2001C154.977 33.2001 155.024 33.2001 155.024 33.2001C155.397 33.2001 155.71 33.0934 155.964 32.8801C156.23 32.6667 156.37 32.4134 156.384 32.1201H156.444ZM157.584 32.1201H157.644C157.657 32.4134 157.79 32.6667 158.044 32.8801C158.31 33.0934 158.63 33.2001 159.004 33.2001C159.004 33.2001 159.044 33.2001 159.124 33.2001C159.217 33.2001 159.264 33.2001 159.264 33.2001L159.284 33.4001H157.584V32.1201ZM157.584 22.6801V21.4001H159.284L159.264 21.6001C159.264 21.6001 159.217 21.6001 159.124 21.6001C159.044 21.6001 159.004 21.6001 159.004 21.6001C158.63 21.6001 158.31 21.7067 158.044 21.9201C157.79 22.1201 157.657 22.3734 157.644 22.6801H157.584ZM156.444 22.6801H156.384C156.37 22.3734 156.23 22.1201 155.964 21.9201C155.71 21.7067 155.397 21.6001 155.024 21.6001C155.01 21.6001 154.957 21.6001 154.864 21.6001C154.784 21.6001 154.744 21.6001 154.744 21.6001V21.4001H156.444V22.6801Z" fill="#876F00"/>
<path d="M165.042 21.1201C165.416 21.1201 165.742 21.1334 166.022 21.1601C166.302 21.1867 166.542 21.2201 166.742 21.2601C166.956 21.2867 167.136 21.3267 167.282 21.3801C167.442 21.4201 167.582 21.4601 167.702 21.5001L167.722 23.4801H167.482C167.482 22.9334 167.296 22.5067 166.922 22.2001C166.549 21.8801 165.969 21.7201 165.182 21.7201C164.516 21.7201 163.942 21.9067 163.462 22.2801C162.996 22.6401 162.769 23.0867 162.782 23.6201C162.782 23.7934 162.802 23.9734 162.842 24.1601C162.896 24.3334 162.976 24.5067 163.082 24.6801C163.202 24.8534 163.362 25.0267 163.562 25.2001L167.602 28.3201C167.909 28.5734 168.136 28.9001 168.282 29.3001C168.429 29.6867 168.509 30.0734 168.522 30.4601C168.536 31.0467 168.382 31.5867 168.062 32.0801C167.742 32.5734 167.309 32.9667 166.762 33.2601C166.229 33.5401 165.636 33.6801 164.982 33.6801C164.596 33.6801 164.176 33.6467 163.722 33.5801C163.282 33.5134 162.869 33.4134 162.482 33.2801C162.096 33.1334 161.776 32.9534 161.522 32.7401C161.482 32.5534 161.462 32.3201 161.462 32.0401C161.462 31.7467 161.482 31.4401 161.522 31.1201C161.576 30.8001 161.642 30.5134 161.722 30.2601H161.962C161.909 30.8601 161.996 31.3734 162.222 31.8001C162.449 32.2267 162.782 32.5534 163.222 32.7801C163.662 32.9934 164.176 33.0934 164.762 33.0801C165.589 33.0534 166.236 32.8467 166.702 32.4601C167.182 32.0601 167.422 31.5334 167.422 30.8801C167.422 30.5601 167.362 30.2734 167.242 30.0201C167.136 29.7534 166.956 29.5067 166.702 29.2801L162.702 26.2001C162.329 25.8801 162.076 25.5267 161.942 25.1401C161.809 24.7534 161.742 24.3867 161.742 24.0401C161.742 23.4934 161.889 23.0001 162.182 22.5601C162.476 22.1201 162.869 21.7734 163.362 21.5201C163.869 21.2534 164.429 21.1201 165.042 21.1201ZM167.682 21.3001L167.702 21.6601H166.282V21.3001H167.682Z" fill="#876F00"/>
<path d="M176.041 21.4601V33.4001H174.741V21.4601H176.041ZM180.881 21.3801V21.9801H169.901V21.3801H180.881ZM180.881 21.9401V23.3201H180.661V23.0001C180.661 22.7201 180.567 22.4867 180.381 22.3001C180.207 22.1001 179.967 21.9934 179.661 21.9801V21.9401H180.881ZM180.881 21.0601V21.5801L178.641 21.3801C178.907 21.3801 179.187 21.3667 179.481 21.3401C179.787 21.3001 180.067 21.2534 180.321 21.2001C180.574 21.1467 180.761 21.1001 180.881 21.0601ZM174.781 32.1201V33.4001H173.321V33.2001C173.334 33.2001 173.374 33.2001 173.441 33.2001C173.521 33.2001 173.561 33.2001 173.561 33.2001C173.881 33.2001 174.154 33.0934 174.381 32.8801C174.607 32.6667 174.727 32.4134 174.741 32.1201H174.781ZM175.981 32.1201H176.041C176.054 32.4134 176.174 32.6667 176.401 32.8801C176.627 33.0934 176.901 33.2001 177.221 33.2001C177.221 33.2001 177.254 33.2001 177.321 33.2001C177.401 33.2001 177.441 33.2001 177.441 33.2001V33.4001H175.981V32.1201ZM171.121 21.9401V21.9801C170.814 21.9934 170.567 22.1001 170.381 22.3001C170.207 22.4867 170.121 22.7201 170.121 23.0001V23.3201H169.901V21.9401H171.121ZM169.901 21.0601C170.021 21.1001 170.201 21.1467 170.441 21.2001C170.694 21.2534 170.974 21.3001 171.281 21.3401C171.587 21.3667 171.874 21.3801 172.141 21.3801L169.901 21.5801V21.0601Z" fill="#876F00"/>
<path d="M184.703 21.4001H187.283C187.91 21.4001 188.47 21.4734 188.963 21.6201C189.47 21.7667 189.897 21.9801 190.243 22.2601C190.603 22.5401 190.877 22.8801 191.063 23.2801C191.25 23.6801 191.343 24.1334 191.343 24.6401C191.343 25.2001 191.21 25.7201 190.943 26.2001C190.677 26.6801 190.303 27.0734 189.823 27.3801C189.357 27.6867 188.823 27.8734 188.223 27.9401C188.45 28.0334 188.71 28.2401 189.003 28.5601C189.31 28.8801 189.57 29.1934 189.783 29.5001C189.783 29.5001 189.87 29.6201 190.043 29.8601C190.217 30.0867 190.437 30.3734 190.703 30.7201C190.983 31.0534 191.257 31.3734 191.523 31.6801C191.803 31.9867 192.057 32.2534 192.283 32.4801C192.523 32.7067 192.777 32.8867 193.043 33.0201C193.323 33.1401 193.643 33.2001 194.003 33.2001V33.4001H193.383C192.65 33.4001 192.043 33.3067 191.563 33.1201C191.097 32.9334 190.717 32.7067 190.423 32.4401C190.13 32.1601 189.877 31.8934 189.663 31.6401C189.61 31.5734 189.483 31.4067 189.283 31.1401C189.097 30.8601 188.89 30.5601 188.663 30.2401C188.437 29.9201 188.23 29.6334 188.043 29.3801C187.857 29.1134 187.743 28.9534 187.703 28.9001C187.437 28.5534 187.13 28.2467 186.783 27.9801C186.437 27.7001 186.07 27.5601 185.683 27.5601V27.3601C185.683 27.3601 185.79 27.3667 186.003 27.3801C186.217 27.3801 186.49 27.3734 186.823 27.3601C187.197 27.3467 187.57 27.3201 187.943 27.2801C188.317 27.2267 188.663 27.0801 188.983 26.8401C189.317 26.6001 189.577 26.2001 189.763 25.6401C189.817 25.4934 189.857 25.3201 189.883 25.1201C189.91 24.9201 189.917 24.7134 189.903 24.5001C189.89 24.1267 189.817 23.7934 189.683 23.5001C189.563 23.2067 189.383 22.9534 189.143 22.7401C188.917 22.5267 188.643 22.3601 188.323 22.2401C188.003 22.1201 187.643 22.0534 187.243 22.0401C186.617 22.0134 186.07 22.0067 185.603 22.0201C185.137 22.0334 184.903 22.0334 184.903 22.0201C184.903 22.0067 184.883 21.9534 184.843 21.8601C184.817 21.7534 184.783 21.6534 184.743 21.5601C184.717 21.4534 184.703 21.4001 184.703 21.4001ZM184.943 21.4001V33.4001H183.663V21.4001H184.943ZM183.723 32.1201L183.963 33.4001H182.263V33.2001C182.263 33.2001 182.31 33.2001 182.403 33.2001C182.497 33.2001 182.543 33.2001 182.543 33.2001C182.863 33.2001 183.13 33.0934 183.343 32.8801C183.557 32.6667 183.67 32.4134 183.683 32.1201H183.723ZM183.723 22.6601H183.683C183.67 22.3534 183.557 22.1001 183.343 21.9001C183.13 21.7001 182.863 21.6001 182.543 21.6001C182.543 21.6001 182.497 21.6001 182.403 21.6001C182.31 21.6001 182.263 21.6001 182.263 21.6001V21.4001H183.963L183.723 22.6601ZM184.883 32.1201H184.943C184.957 32.4134 185.07 32.6667 185.283 32.8801C185.497 33.0934 185.763 33.2001 186.083 33.2001C186.083 33.2001 186.123 33.2001 186.203 33.2001C186.297 33.2001 186.343 33.2001 186.343 33.2001L186.363 33.4001H184.643L184.883 32.1201Z" fill="#876F00"/>
<path d="M197.702 21.4001V33.4001H196.442V21.4001H197.702ZM196.502 32.1201V33.4001H194.802V33.2001C194.802 33.2001 194.849 33.2001 194.942 33.2001C195.036 33.2001 195.082 33.2001 195.082 33.2001C195.456 33.2001 195.769 33.0934 196.022 32.8801C196.289 32.6667 196.429 32.4134 196.442 32.1201H196.502ZM197.642 32.1201H197.702C197.716 32.4134 197.849 32.6667 198.102 32.8801C198.369 33.0934 198.689 33.2001 199.062 33.2001C199.062 33.2001 199.102 33.2001 199.182 33.2001C199.276 33.2001 199.322 33.2001 199.322 33.2001L199.342 33.4001H197.642V32.1201ZM197.642 22.6801V21.4001H199.342L199.322 21.6001C199.322 21.6001 199.276 21.6001 199.182 21.6001C199.102 21.6001 199.062 21.6001 199.062 21.6001C198.689 21.6001 198.369 21.7067 198.102 21.9201C197.849 22.1201 197.716 22.3734 197.702 22.6801H197.642ZM196.502 22.6801H196.442C196.429 22.3734 196.289 22.1201 196.022 21.9201C195.769 21.7067 195.456 21.6001 195.082 21.6001C195.069 21.6001 195.016 21.6001 194.922 21.6001C194.842 21.6001 194.802 21.6001 194.802 21.6001V21.4001H196.502V22.6801Z" fill="#876F00"/>
<path d="M213.448 28.3601L213.228 31.1001C212.881 31.6334 212.428 32.0934 211.868 32.4801C211.308 32.8667 210.675 33.1667 209.968 33.3801C209.261 33.5801 208.515 33.6801 207.728 33.6801C206.381 33.6667 205.208 33.4067 204.208 32.9001C203.221 32.3934 202.461 31.6734 201.928 30.7401C201.395 29.8067 201.128 28.6934 201.128 27.4001C201.128 26.0934 201.395 24.9734 201.928 24.0401C202.461 23.1067 203.221 22.3867 204.208 21.8801C205.208 21.3734 206.381 21.1201 207.728 21.1201C208.555 21.1201 209.388 21.2267 210.228 21.4401C211.068 21.6534 211.795 21.9534 212.408 22.3401L212.848 25.1601H212.668C212.375 23.9334 211.781 23.0534 210.888 22.5201C210.008 21.9867 208.948 21.7201 207.708 21.7201C206.655 21.7201 205.741 21.9534 204.968 22.4201C204.208 22.8734 203.615 23.5267 203.188 24.3801C202.775 25.2201 202.568 26.2267 202.568 27.4001C202.568 28.5467 202.775 29.5467 203.188 30.4001C203.615 31.2401 204.215 31.8934 204.988 32.3601C205.761 32.8134 206.675 33.0467 207.728 33.0601C208.728 33.0601 209.628 32.9001 210.428 32.5801C211.241 32.2467 211.901 31.7334 212.408 31.0401C212.915 30.3467 213.201 29.4534 213.268 28.3601H213.448Z" fill="#876F00"/>
<path d="M220.67 21.4601V33.4001H219.37V21.4601H220.67ZM225.51 21.3801V21.9801H214.53V21.3801H225.51ZM225.51 21.9401V23.3201H225.29V23.0001C225.29 22.7201 225.196 22.4867 225.01 22.3001C224.836 22.1001 224.596 21.9934 224.29 21.9801V21.9401H225.51ZM225.51 21.0601V21.5801L223.27 21.3801C223.536 21.3801 223.816 21.3667 224.11 21.3401C224.416 21.3001 224.696 21.2534 224.95 21.2001C225.203 21.1467 225.39 21.1001 225.51 21.0601ZM219.41 32.1201V33.4001H217.95V33.2001C217.963 33.2001 218.003 33.2001 218.07 33.2001C218.15 33.2001 218.19 33.2001 218.19 33.2001C218.51 33.2001 218.783 33.0934 219.01 32.8801C219.236 32.6667 219.356 32.4134 219.37 32.1201H219.41ZM220.61 32.1201H220.67C220.683 32.4134 220.803 32.6667 221.03 32.8801C221.256 33.0934 221.53 33.2001 221.85 33.2001C221.85 33.2001 221.883 33.2001 221.95 33.2001C222.03 33.2001 222.07 33.2001 222.07 33.2001V33.4001H220.61V32.1201ZM215.75 21.9401V21.9801C215.443 21.9934 215.196 22.1001 215.01 22.3001C214.836 22.4867 214.75 22.7201 214.75 23.0001V23.3201H214.53V21.9401H215.75ZM214.53 21.0601C214.65 21.1001 214.83 21.1467 215.07 21.2001C215.323 21.2534 215.603 21.3001 215.91 21.3401C216.216 21.3667 216.503 21.3801 216.77 21.3801L214.53 21.5801V21.0601Z" fill="#876F00"/>
</svg>
