<svg width="281" height="28" fill="none" xmlns="http://www.w3.org/2000/svg"><path fill-rule="evenodd" clip-rule="evenodd" d="M25.209 2.72c-1.68 0-2.947.427-3.8 1.28-.827.853-1.427 2.307-1.8 4.36 0 .053-.08.08-.24.08-.134 0-.2-.027-.2-.08.106-.96.226-2.213.36-3.76.133-1.547.2-2.707.2-3.48 0-.133.066-.2.2-.2.16 0 .24.067.24.2 0 .587.72.88 2.16.88 2.266.08 4.946.12 8.04.12 1.573 0 3.24-.027 5-.08l2.72-.04c.96 0 1.666-.067 2.12-.2.48-.133.786-.4.92-.8.026-.107.106-.16.24-.16.133 0 .2.053.2.16-.08.773-.16 1.947-.24 3.52a78.78 78.78 0 0 0-.12 3.84c0 .053-.08.08-.24.08-.16 0-.24-.027-.24-.08-.08-2.08-.507-3.533-1.28-4.36-.774-.853-2.054-1.28-3.84-1.28-1.2 0-2.054.053-2.56.16-.507.107-.854.333-1.04.68-.187.347-.28.933-.28 1.76v18.44c0 .827.093 1.427.28 1.8.186.373.546.627 1.08.76.533.133 1.373.2 2.52.2.08 0 .12.08.12.24 0 .16-.04.24-.12.24-.88 0-1.587-.013-2.12-.04l-3.12-.04-3 .04a46.26 46.26 0 0 1-2.2.04c-.054 0-.08-.08-.08-.24 0-.16.026-.24.08-.24 1.146 0 1.986-.067 2.52-.2.533-.133.893-.387 1.08-.76.213-.4.32-1 .32-1.8V5.24c0-.827-.094-1.4-.28-1.72-.187-.347-.534-.56-1.04-.64-.507-.107-1.36-.16-2.56-.16ZM3.8 6.68c0 1.04.253 1.947.76 2.72a7.591 7.591 0 0 0 1.84 1.96 71.07 71.07 0 0 0 3.04 1.92c1.413.853 2.493 1.56 3.24 2.12a7.29 7.29 0 0 1 1.96 2.16c.56.853.84 1.88.84 3.08 0 1.28-.32 2.44-.96 3.48-.64 1.04-1.587 1.867-2.84 2.48-1.227.587-2.707.88-4.44.88-2.053 0-3.933-.467-5.64-1.4a.703.703 0 0 1-.28-.28 4.378 4.378 0 0 1-.08-.48l-.52-5.44c-.027-.107.027-.173.16-.2.16-.027.253.013.28.12.427 1.92 1.213 3.573 2.36 4.96 1.173 1.387 2.72 2.08 4.64 2.08 1.333 0 2.453-.36 3.36-1.08.933-.747 1.4-1.92 1.4-3.52 0-1.2-.267-2.24-.8-3.12a7.29 7.29 0 0 0-1.96-2.16c-.747-.587-1.773-1.267-3.08-2.04-1.28-.773-2.293-1.44-3.04-2A7.495 7.495 0 0 1 2.2 10.8c-.507-.853-.76-1.853-.76-3 0-1.333.347-2.467 1.04-3.4a6.376 6.376 0 0 1 2.76-2.12 9.331 9.331 0 0 1 3.64-.72c1.573 0 3.133.32 4.68.96.4.133.6.36.6.68l.28 4.6c0 .107-.067.16-.2.16s-.213-.053-.24-.16c-.213-1.387-.787-2.667-1.72-3.84-.933-1.2-2.28-1.8-4.04-1.8-1.493 0-2.613.44-3.36 1.32-.72.853-1.08 1.92-1.08 3.2Zm66.6 20.08c0-.16-.027-.24-.08-.24-1.147 0-2.32-.4-3.52-1.2-1.173-.8-2.533-2.107-4.08-3.92-1.52-1.84-3.4-4.373-5.64-7.6 1.387-.667 2.493-1.573 3.32-2.72a6.508 6.508 0 0 0 1.28-3.92c0-1.6-.573-2.88-1.72-3.84s-2.773-1.44-4.88-1.44c-.8 0-1.693.04-2.68.12-.347.027-.773.053-1.28.08a30.96 30.96 0 0 1-1.64.04c-.693 0-1.6-.027-2.72-.08L44.8 2c-.08 0-.12.08-.12.24 0 .16.04.24.12.24 1.013 0 1.747.08 2.2.24.48.133.8.387.96.76.16.373.24.96.24 1.76v18.52c0 .8-.093 1.4-.28 1.8-.16.373-.48.627-.96.76s-1.227.2-2.24.2c-.053 0-.08.08-.08.24 0 .16.027.24.08.24.88 0 1.56-.013 2.04-.04l2.72-.04 2.76.04c.48.027 1.133.04 1.96.04.08 0 .12-.08.12-.24 0-.16-.04-.24-.12-.24-1.013 0-1.76-.067-2.24-.2-.453-.133-.76-.387-.92-.76-.16-.373-.24-.973-.24-1.8v-9.08c1.04.08 1.64.12 1.8.12.773 0 1.52-.08 2.24-.24 2.533 3.867 4.72 6.907 6.56 9.12 1.84 2.213 3.093 3.32 3.76 3.32h5.16c.053 0 .08-.08.08-.24ZM53.16 13.88c-.907 0-1.693-.053-2.36-.16v-8.4c0-1.147.2-1.907.6-2.28.4-.373 1.12-.56 2.16-.56 1.76 0 3.093.453 4 1.36.933.907 1.4 2.4 1.4 4.48 0 1.893-.453 3.293-1.36 4.2-.88.907-2.36 1.36-4.44 1.36Zm35.754 7.16c0-.053.053-.08.16-.08a.44.44 0 0 1 .2.04c.08.027.12.067.12.12-.24 1.68-.36 3.44-.36 5.28 0 .213-.053.373-.16.48-.08.08-.24.12-.48.12h-16.76c-.053 0-.08-.08-.08-.24 0-.16.027-.24.08-.24 1.013 0 1.747-.067 2.2-.2.48-.133.8-.387.96-.76.187-.4.28-1 .28-1.8V5.24c0-.8-.093-1.387-.28-1.76-.16-.373-.48-.627-.96-.76-.453-.16-1.187-.24-2.2-.24-.053 0-.08-.08-.08-.24 0-.16.027-.24.08-.24h16.08c.24 0 .36.12.36.36l.08 4.92c0 .08-.067.133-.2.16-.133 0-.213-.04-.24-.12-.08-1.413-.507-2.507-1.28-3.28-.773-.8-1.8-1.2-3.08-1.2h-2.44c-.933 0-1.627.08-2.08.24-.427.133-.733.387-.92.76-.16.347-.24.88-.24 1.6v8.12h4.88c1.28 0 2.187-.213 2.72-.64.56-.427.84-1.147.84-2.16 0-.053.08-.08.24-.08.16 0 .24.027.24.08l-.04 3.24c0 .773.013 1.36.04 1.76l.04 1.92c0 .053-.08.08-.24.08-.16 0-.24-.027-.24-.08 0-1.173-.293-2.013-.88-2.52-.56-.507-1.507-.76-2.84-.76h-4.76v9.2c0 .747.08 1.293.24 1.64.16.347.453.587.88.72s1.093.2 2 .2h3.2c1.28 0 2.347-.453 3.2-1.36.853-.907 1.427-2.16 1.72-3.76Zm21.644-.08c-.106 0-.16.027-.16.08-.293 1.6-.866 2.853-1.72 3.76-.853.907-1.92 1.36-3.2 1.36h-3.2c-.906 0-1.573-.067-2-.2-.426-.133-.72-.373-.88-.72-.16-.347-.24-.893-.24-1.64v-9.2h4.76c1.334 0 2.28.253 2.84.76.587.507.88 1.347.88 2.52 0 .053.08.08.24.08.16 0 .24-.027.24-.08l-.04-1.92c-.026-.4-.04-.987-.04-1.76l.04-3.24c0-.053-.08-.08-.24-.08-.16 0-.24.027-.24.08 0 1.013-.28 1.733-.84 2.16-.533.427-1.44.64-2.72.64h-4.88V5.44c0-.72.08-1.253.24-1.6.187-.373.494-.627.92-.76.454-.16 1.147-.24 2.08-.24h2.44c1.28 0 2.307.4 3.08 1.2.774.773 1.2 1.867 1.28 3.28.027.08.107.12.24.12.134-.027.2-.08.2-.16l-.08-4.92c0-.24-.12-.36-.36-.36h-16.08c-.053 0-.08.08-.08.24 0 .16.027.24.08.24 1.014 0 1.747.08 2.2.24.48.133.8.387.96.76.187.373.28.96.28 1.76v18.52c0 .8-.093 1.4-.28 1.8-.16.373-.48.627-.96.76-.453.133-1.186.2-2.2.2-.053 0-.08.08-.08.24 0 .16.027.24.08.24h16.76c.24 0 .4-.04.48-.12.107-.107.16-.267.16-.48 0-1.84.12-3.6.36-5.28 0-.053-.04-.093-.12-.12a.445.445 0 0 0-.2-.04Zm9.885-18.24c-1.68 0-2.947.427-3.8 1.28-.827.853-1.427 2.307-1.8 4.36 0 .053-.08.08-.24.08-.133 0-.2-.027-.2-.08.107-.96.227-2.213.36-3.76.133-1.547.2-2.707.2-3.48 0-.133.067-.2.2-.2.16 0 .24.067.24.2 0 .587.72.88 2.16.88 2.267.08 4.947.12 8.04.12 1.573 0 3.24-.027 5-.08l2.72-.04c.96 0 1.667-.067 2.12-.2.48-.133.787-.4.92-.8.027-.107.107-.16.24-.16s.2.053.2.16c-.08.773-.16 1.947-.24 3.52a78.78 78.78 0 0 0-.12 3.84c0 .053-.08.08-.24.08-.16 0-.24-.027-.24-.08-.08-2.08-.507-3.533-1.28-4.36-.773-.853-2.053-1.28-3.84-1.28-1.2 0-2.053.053-2.56.16-.507.107-.853.333-1.04.68-.187.347-.28.933-.28 1.76v18.44c0 .827.093 1.427.28 1.8.187.373.547.627 1.08.76s1.373.2 2.52.2c.08 0 .12.08.12.24 0 .16-.04.24-.12.24-.88 0-1.587-.013-2.12-.04l-3.12-.04-3 .04a46.23 46.23 0 0 1-2.2.04c-.053 0-.08-.08-.08-.24 0-.16.027-.24.08-.24 1.147 0 1.987-.067 2.52-.2.533-.133.893-.387 1.08-.76.213-.4.32-1 .32-1.8V5.24c0-.827-.093-1.4-.28-1.72-.187-.347-.533-.56-1.04-.64-.507-.107-1.36-.16-2.56-.16Zm37.964-.8c-1.147-.24-2.56-.36-4.24-.36-2.747 0-5.227.533-7.44 1.6-2.187 1.067-3.907 2.573-5.16 4.52-1.254 1.92-1.88 4.133-1.88 6.64 0 2.587.613 4.88 1.84 6.88 1.226 2 2.933 3.56 5.12 4.68 2.213 1.093 4.72 1.64 7.52 1.64 1.573 0 2.96-.133 4.16-.4 1.226-.267 2.533-.733 3.92-1.4.16-.107.266-.2.32-.28.053-.08.093-.28.12-.6l.4-4.4c0-.08-.094-.12-.28-.12-.134 0-.2.027-.2.08-.72 2.187-1.76 3.813-3.12 4.88-1.36 1.067-3.134 1.6-5.32 1.6-2.054 0-3.96-.56-5.72-1.68-1.734-1.12-3.12-2.64-4.16-4.56-1.014-1.947-1.52-4.08-1.52-6.4 0-2.427.466-4.547 1.4-6.36.933-1.84 2.253-3.253 3.96-4.24 1.706-.987 3.68-1.48 5.92-1.48 4.266 0 7.013 2.227 8.24 6.68.026.08.106.12.24.12.16-.027.24-.08.24-.16l-.48-4.76a5.813 5.813 0 0 0-.12-.6c-.027-.08-.134-.173-.32-.28a13.72 13.72 0 0 0-3.44-1.24Zm34.701 24.6c.107 0 .16.08.16.24 0 .16-.053.24-.16.24a52.37 52.37 0 0 1-2.36-.08 52.361 52.361 0 0 0-2.32-.08c-.586 0-1.333.027-2.24.08-.853.053-1.506.08-1.96.08-.106 0-.16-.08-.16-.24 0-.16.054-.24.16-.24.987 0 1.707-.093 2.16-.28.454-.187.68-.507.68-.96 0-.373-.173-.947-.52-1.72l-3.56-7.56h-9.52l-2.52 5.92c-.373.907-.56 1.64-.56 2.2 0 .827.32 1.44.96 1.84.667.373 1.654.56 2.96.56.134 0 .2.08.2.24 0 .16-.066.24-.2.24-.48 0-1.173-.027-2.08-.08a51.136 51.136 0 0 0-2.64-.08c-.693 0-1.493.027-2.4.08-.8.053-1.466.08-2 .08-.133 0-.2-.08-.2-.24 0-.16.067-.24.2-.24.747 0 1.374-.133 1.88-.4.534-.293 1.027-.787 1.48-1.48.48-.72 1-1.747 1.56-3.08l8.44-19.92c.054-.08.147-.12.28-.12.134 0 .214.04.24.12l9.44 19.88c.907 1.973 1.68 3.307 2.32 4 .64.667 1.4 1 2.28 1Zm-19.32-11.32h8.84l-4.68-9.88-4.16 9.88Zm46.846 11.56c0-.16-.026-.24-.08-.24-1.146 0-2.32-.4-3.52-1.2-1.173-.8-2.533-2.107-4.08-3.92-1.52-1.84-3.4-4.373-5.64-7.6 1.387-.667 2.494-1.573 3.32-2.72a6.504 6.504 0 0 0 1.28-3.92c0-1.6-.573-2.88-1.72-3.84-1.146-.96-2.773-1.44-4.88-1.44-.8 0-1.693.04-2.68.12-.346.027-.773.053-1.28.08a31.3 31.3 0 0 1-1.64.04c-.693 0-1.6-.027-2.72-.08l-1.96-.04c-.08 0-.12.08-.12.24 0 .16.04.24.12.24 1.014 0 1.747.08 2.2.24.48.133.8.387.96.76.16.373.24.96.24 1.76v18.52c0 .8-.093 1.4-.28 1.8-.16.373-.48.627-.96.76s-1.226.2-2.24.2c-.053 0-.08.08-.08.24 0 .16.027.24.08.24.88 0 1.56-.013 2.04-.04l2.72-.04 2.76.04c.48.027 1.134.04 1.96.04.08 0 .12-.08.12-.24 0-.16-.04-.24-.12-.24-1.013 0-1.76-.067-2.24-.2-.453-.133-.76-.387-.92-.76-.16-.373-.24-.973-.24-1.8v-9.08c1.04.08 1.64.12 1.8.12.774 0 1.52-.08 2.24-.24 2.534 3.867 4.72 6.907 6.56 9.12 1.84 2.213 3.094 3.32 3.76 3.32h5.16c.054 0 .08-.08.08-.24Zm-17.24-12.88c-.906 0-1.693-.053-2.36-.16v-8.4c0-1.147.2-1.907.6-2.28.4-.373 1.12-.56 2.16-.56 1.76 0 3.094.453 4 1.36.934.907 1.4 2.4 1.4 4.48 0 1.893-.453 3.293-1.36 4.2-.88.907-2.36 1.36-4.44 1.36Zm38.146 11.66-5.36-12.82H236c0 .107-.04.273-.12.5a5.64 5.64 0 0 1-.26.7c-.093.24-.18.447-.26.62l-.1.24-4.588 10.896c-.202.383-.453.665-.752.844-.32.187-.633.28-.94.28h-.18v.2h4.02v-.2h-.18a.946.946 0 0 1-.48-.14.904.904 0 0 1-.32-.44c-.058-.161-.056-.352.006-.572l1.374-3.508h5.394l1.323 3.511c.103.348.064.624-.117.829-.2.213-.427.32-.68.32h-.18v.2h4.5v-.2h-.16c-.307 0-.627-.093-.96-.28-.333-.2-.6-.527-.8-.98Zm-3.152-4-2.42-6.42-2.514 6.42h4.934Zm10.97-6.54h-5.02v.2h.28c.32 0 .587.1.8.3.171.16.278.354.32.582v9.81a1.112 1.112 0 0 1-.32.588c-.213.213-.48.32-.8.32h-.28v.2h4.1l-.02-.2h-.26c-.32 0-.586-.107-.8-.32a1.118 1.118 0 0 1-.34-.76V15.627c.085.005.305.003.66-.007a23.381 23.381 0 0 1 1.64.02c.4.013.76.08 1.08.2.32.12.594.287.82.5.24.213.42.467.54.76.134.293.207.627.22 1 .014.213.007.42-.02.62a2.42 2.42 0 0 1-.12.52c-.186.56-.446.96-.78 1.2a2.24 2.24 0 0 1-1.04.44 21.32 21.32 0 0 1-1.94.1l-.32-.02v.2c.387 0 .754.14 1.1.42.347.267.654.573.92.92.04.053.154.213.34.48a50.685 50.685 0 0 1 1.24 1.76c.2.267.327.433.38.5.214.253.467.52.76.8.294.267.674.493 1.14.68.48.187 1.087.28 1.82.28h.62v-.2c-.36 0-.68-.06-.96-.18a3.198 3.198 0 0 1-.76-.54c-.226-.227-.48-.493-.76-.8-.266-.307-.54-.627-.82-.96a2876.8 2876.8 0 0 0-.66-.86l-.26-.36a7.787 7.787 0 0 0-.78-.94c-.293-.32-.553-.527-.78-.62a3.588 3.588 0 0 0 1.6-.56c.48-.307.854-.7 1.12-1.18.267-.48.4-1 .4-1.56 0-.507-.093-.96-.28-1.36-.186-.4-.46-.74-.82-1.02-.346-.28-.773-.493-1.28-.64a5.892 5.892 0 0 0-1.68-.22Zm10.239.62v5.08h3.4c.28 0 .487-.08.62-.24a.953.953 0 0 0 .2-.6v-.26h.22v2.8h-.22v-.26a.873.873 0 0 0-.2-.58c-.133-.173-.34-.26-.62-.26h-3.4v5.08h3.04c.667 0 1.2-.093 1.6-.28a2.71 2.71 0 0 0 1-.8c.254-.347.474-.733.66-1.16h.2l-1.1 2.86h-8.12v-.2h.28c.334 0 .607-.107.82-.32a1.11 1.11 0 0 0 .34-.76v-9.46a1.06 1.06 0 0 0-.34-.76c-.213-.2-.486-.3-.82-.3h-.28V15h5.8a9.35 9.35 0 0 0 1.32-.1c.467-.08.787-.153.96-.22v2.26h-.22v-.3c0-.28-.093-.52-.28-.72-.173-.2-.413-.3-.72-.3h-4.14Zm18.712 9.92-4.894-10.82h-.18a2.46 2.46 0 0 1-.14.54 9.36 9.36 0 0 1-.28.7c-.093.227-.18.42-.26.58l-.1.24-4.174 8.946c-.192.358-.414.623-.666.794-.293.187-.58.28-.86.28h-.16v.2h3.82v-.2h-.16c-.24 0-.453-.107-.64-.32-.167-.203-.2-.474-.101-.816l1.151-2.724h5.053l1.118 2.724c.1.341.066.613-.101.816-.186.213-.393.32-.62.32h-.16v.2h4.1v-.2h-.16c-.266 0-.546-.093-.84-.28-.293-.2-.54-.527-.74-.98h-.006Zm-2.837-3.2-2.243-5.467-2.31 5.467h4.553Z" fill="#7E7123"/></svg>