<svg width="224" height="40" fill="none" xmlns="http://www.w3.org/2000/svg"><path d="M27.76 8c.08 0 .12.08.12.24 0 .16-.04.24-.12.24-.907 0-1.693.24-2.36.72-.667.48-1.227 1.293-1.68 2.44L15.2 32.96c-.027.107-.173.16-.44.16-.213 0-.36-.053-.44-.16L4.36 11.32c-.453-1.04-.933-1.773-1.44-2.2-.507-.427-1.16-.64-1.96-.64-.08 0-.12-.08-.12-.24 0-.16.04-.24.12-.24l1.52.04c.747.053 1.347.08 1.8.08a80.02 80.02 0 0 0 3.44-.08L9.36 8c.08 0 .12.08.12.24 0 .16-.04.24-.12.24-1.653 0-2.48.467-2.48 1.4 0 .32.12.747.36 1.28l8.36 18.32 7.2-18.04c.213-.56.32-1 .32-1.32 0-.56-.253-.973-.76-1.24s-1.293-.4-2.36-.4c-.08 0-.12-.08-.12-.24 0-.16.04-.24.12-.24l1.72.04c.907.053 1.733.08 2.48.08.56 0 1.187-.027 1.88-.08L27.76 8Zm7.84 21.76c0 .8.08 1.4.24 1.8.16.373.467.627.92.76.48.133 1.227.2 2.24.2.08 0 .12.08.12.24 0 .16-.04.24-.12.24-.8 0-1.44-.013-1.92-.04l-2.84-.04-2.76.04c-.48.027-1.133.04-1.96.04-.08 0-.12-.08-.12-.24 0-.16.04-.24.12-.24 1.014 0 1.747-.067 2.2-.2.48-.133.8-.387.96-.76.187-.4.28-1 .28-1.8V11.24c0-.8-.093-1.387-.28-1.76-.16-.373-.48-.627-.96-.76-.453-.16-1.186-.24-2.2-.24-.08 0-.12-.08-.12-.24 0-.16.04-.24.12-.24l1.96.04a60.2 60.2 0 0 0 2.76.08c.8 0 1.76-.027 2.88-.08L39 8c.08 0 .12.08.12.24 0 .16-.04.24-.12.24-.986 0-1.72.08-2.2.24-.453.16-.773.44-.96.84-.16.373-.24.96-.24 1.76v18.44Zm21.762-22.2c1.68 0 3.093.12 4.24.36 1.147.24 2.293.653 3.44 1.24.186.107.293.2.32.28.026.08.067.28.12.6l.48 4.76c0 .08-.08.133-.24.16-.133 0-.213-.04-.24-.12-1.227-4.453-3.974-6.68-8.24-6.68-2.24 0-4.213.493-5.92 1.48-1.707.987-3.027 2.4-3.96 4.24-.934 1.813-1.4 3.933-1.4 6.36 0 2.32.506 4.453 1.52 6.4 1.04 1.92 2.426 3.44 4.16 4.56 1.76 1.12 3.666 1.68 5.72 1.68 2.186 0 3.96-.533 5.32-1.6 1.36-1.067 2.4-2.693 3.12-4.88 0-.053.066-.08.2-.08.187 0 .28.04.28.12l-.4 4.4c-.027.32-.067.52-.12.6-.053.08-.16.173-.32.28-1.387.667-2.693 1.133-3.92 1.4-1.2.267-2.587.4-4.16.4-2.8 0-5.307-.547-7.52-1.64-2.187-1.12-3.893-2.68-5.12-4.68-1.227-2-1.84-4.293-1.84-6.88 0-2.507.627-4.72 1.88-6.64 1.253-1.947 2.973-3.453 5.16-4.52 2.213-1.067 4.693-1.6 7.44-1.6Zm18.942 22.2c0 .8.08 1.4.24 1.8.16.373.466.627.92.76.48.133 1.226.2 2.24.2.08 0 .12.08.12.24 0 .16-.04.24-.12.24-.8 0-1.44-.013-1.92-.04l-2.84-.04-2.76.04c-.48.027-1.134.04-1.96.04-.08 0-.12-.08-.12-.24 0-.16.04-.24.12-.24 1.013 0 1.746-.067 2.2-.2.48-.133.8-.387.96-.76.186-.4.28-1 .28-1.8V11.24c0-.8-.094-1.387-.28-1.76-.16-.373-.48-.627-.96-.76-.454-.16-1.187-.24-2.2-.24-.08 0-.12-.08-.12-.24 0-.16.04-.24.12-.24l1.96.04a60.2 60.2 0 0 0 2.76.08c.8 0 1.76-.027 2.88-.08l1.88-.04c.08 0 .12.08.12.24 0 .16-.04.24-.12.24-.987 0-1.72.08-2.2.24-.454.16-.774.44-.96.84-.16.373-.24.96-.24 1.76v18.44ZM109.785 8c.08 0 .12.08.12.24 0 .16-.04.24-.12.24-1.12 0-1.933.307-2.44.92-.507.613-.76 1.613-.76 3v21.08c0 .053-.067.093-.2.12-.133.027-.227.013-.28-.04l-18.4-22.28-.36-.4v17.76c0 1.387.24 2.387.72 3 .507.587 1.307.88 2.4.88.08 0 .12.08.12.24 0 .16-.04.24-.12.24-.667 0-1.173-.013-1.52-.04l-2-.04-2.04.04c-.373.027-.92.04-1.64.04-.053 0-.08-.08-.08-.24 0-.16.027-.24.08-.24 1.147 0 1.96-.293 2.44-.88.48-.613.72-1.613.72-3V9.92c-1.04-.96-2.093-1.44-3.16-1.44-.08 0-.12-.08-.12-.24 0-.16.04-.24.12-.24l1.48.04c.32.027.76.04 1.32.04.587 0 1.067-.013 1.44-.04.373-.027.667-.04.88-.04.213 0 .36.053.44.16.107.08.267.28.48.6.32.48.64.92.96 1.32l15.4 18.92V12.4c0-1.387-.24-2.387-.72-3-.453-.613-1.227-.92-2.32-.92-.053 0-.08-.08-.08-.24 0-.16.027-.24.08-.24l1.56.04c.8.053 1.453.08 1.96.08.48 0 1.147-.027 2-.08l1.64-.04Zm8.863 21.76c0 .8.08 1.4.24 1.8.16.373.466.627.92.76.48.133 1.226.2 2.24.2.08 0 .12.08.12.24 0 .16-.04.24-.12.24-.8 0-1.44-.013-1.92-.04l-2.84-.04-2.76.04c-.48.027-1.134.04-1.96.04-.08 0-.12-.08-.12-.24 0-.16.04-.24.12-.24 1.013 0 1.746-.067 2.2-.2.48-.133.8-.387.96-.76.186-.4.28-1 .28-1.8V11.24c0-.8-.094-1.387-.28-1.76-.16-.373-.48-.627-.96-.76-.454-.16-1.187-.24-2.2-.24-.08 0-.12-.08-.12-.24 0-.16.04-.24.12-.24l1.96.04a60.2 60.2 0 0 0 2.76.08c.8 0 1.76-.027 2.88-.08l1.88-.04c.08 0 .12.08.12.24 0 .16-.04.24-.12.24-.987 0-1.72.08-2.2.24-.454.16-.774.44-.96.84-.16.373-.24.96-.24 1.76v18.44Zm12.881-21.04c-1.68 0-2.947.427-3.8 1.28-.827.853-1.427 2.307-1.8 4.36 0 .053-.08.08-.24.08-.134 0-.2-.027-.2-.08.106-.96.226-2.213.36-3.76.133-1.547.2-2.707.2-3.48 0-.133.066-.2.2-.2.16 0 .24.067.24.2 0 .587.72.88 2.16.88 2.266.08 4.946.12 8.04.12 1.573 0 3.24-.027 5-.08l2.72-.04c.96 0 1.666-.067 2.12-.2.48-.133.786-.4.92-.8.026-.107.106-.16.24-.16.133 0 .2.053.2.16-.08.773-.16 1.947-.24 3.52a78.777 78.777 0 0 0-.12 3.84c0 .053-.08.08-.24.08-.16 0-.24-.027-.24-.08-.08-2.08-.507-3.533-1.28-4.36-.774-.853-2.054-1.28-3.84-1.28-1.2 0-2.054.053-2.56.16-.507.107-.854.333-1.04.68-.187.347-.28.933-.28 1.76v18.44c0 .827.093 1.427.28 1.8.186.373.546.627 1.08.76.533.133 1.373.2 2.52.2.08 0 .12.08.12.24 0 .16-.04.24-.12.24-.88 0-1.587-.013-2.12-.04l-3.12-.04-3 .04a46.26 46.26 0 0 1-2.2.04c-.054 0-.08-.08-.08-.24 0-.16.026-.24.08-.24 1.146 0 1.986-.067 2.52-.2.533-.133.893-.387 1.08-.76.213-.4.32-1 .32-1.8V11.24c0-.827-.094-1.4-.28-1.72-.187-.347-.534-.56-1.04-.64-.507-.107-1.36-.16-2.56-.16ZM173.88 8c.054 0 .08.08.08.24 0 .16-.026.24-.08.24-.96 0-1.933.36-2.92 1.08-.986.693-1.866 1.653-2.64 2.88l-5.36 8.24v9.08c0 .827.08 1.427.24 1.8.16.373.467.627.92.76.48.133 1.227.2 2.24.2.08 0 .12.08.12.24 0 .16-.04.24-.12.24-.826 0-1.466-.013-1.92-.04l-2.8-.04-2.76.04c-.48.027-1.133.04-1.96.04-.08 0-.12-.08-.12-.24 0-.16.04-.24.12-.24 1.014 0 1.747-.067 2.2-.2.48-.133.8-.387.96-.76.187-.4.28-1 .28-1.8v-8.44l-6.64-9.72c-.746-1.173-1.453-1.987-2.12-2.44-.666-.453-1.44-.68-2.32-.68-.08 0-.12-.08-.12-.24 0-.16.04-.24.12-.24.32 0 .8.027 1.44.08l1.4.04c.907 0 2.054-.027 3.44-.08l2.16-.04c.054 0 .08.08.08.24 0 .16-.026.24-.08.24-1.386 0-2.08.28-2.08.84 0 .293.134.627.4 1l6.44 9.44 4.88-7.48c.587-.933.88-1.72.88-2.36 0-.96-.72-1.44-2.16-1.44-.053 0-.08-.08-.08-.24 0-.16.027-.24.08-.24l1.88.04c1.014.053 1.947.08 2.8.08.454 0 1-.027 1.64-.08l1.48-.04Zm19.94 10.72.16 1.34-5.02 11.18-.16.34c-.093.227-.193.5-.3.82-.107.307-.18.6-.22.88h-.2l-.28-1.26 6.02-13.3Zm-12.3 12.82V33h-2.22v-.2h.32c.36 0 .68-.107.96-.32.28-.227.447-.54.5-.94h.44Zm.58.32v.1c0 .213.073.413.22.6a.74.74 0 0 0 .56.26h.3V33h-1.22v-1.14h.14Zm.48-13.14h.2l.4 1.18L182 33h-1.08l1.66-14.28Zm.2 0 5.76 12.46-.46 2.1-5.68-12.32.38-2.24Zm11.22 0L195.72 33h-1.56l-1.1-12.12.76-2.16h.18Zm1.12 12.82h.42c.067.4.24.713.52.94.28.213.593.32.94.32h.32v.2h-2.2v-1.46Zm-1.06.32h.14V33h-1.22v-.18h.3a.701.701 0 0 0 .56-.26.952.952 0 0 0 .22-.6v-.1Zm10.733-13.14 5.92 14.16h-1.7l-4.62-12.26.4-1.9Zm-4.3 12.82c-.093.267-.106.493-.04.68a.91.91 0 0 0 .32.44c.16.093.32.14.48.14h.18v.2h-4.02v-.2h.18c.307 0 .62-.093.94-.28.334-.2.607-.527.82-.98h1.14Zm4.3-12.82.18 1.4-5.02 12.82h-1.2l5.12-12.16.1-.24c.08-.173.167-.38.26-.62a5.5 5.5 0 0 0 .26-.7c.08-.227.12-.393.12-.5h.18Zm2.82 8.82v.6h-6.26v-.6h6.26Zm.9 4h1.64c.2.453.467.78.8.98.334.187.654.28.96.28h.16v.2h-4.5v-.2h.18c.254 0 .48-.107.68-.32.2-.227.227-.54.08-.94ZM215.632 19h2.64c.853 0 1.586.153 2.2.46a3.29 3.29 0 0 1 1.42 1.34c.333.573.5 1.26.5 2.06 0 .613-.12 1.167-.36 1.66-.24.48-.56.887-.96 1.22-.4.333-.854.587-1.36.76-.507.16-1.034.22-1.58.18a3.954 3.954 0 0 1-1.56-.46v-.2l.34.06c.226.027.513.033.86.02.36-.027.733-.1 1.12-.22.4-.133.766-.36 1.1-.68.346-.32.606-.767.78-1.34a4.01 4.01 0 0 0 .12-1.2c-.014-.92-.254-1.66-.72-2.22-.467-.56-1.127-.84-1.98-.84h-2.36l-.06-.14a2.014 2.014 0 0 0-.1-.3l-.04-.16Zm.26 0v14h-1.3V19h1.3Zm-1.24 12.54V33h-1.6v-.2h.26c.346 0 .64-.12.88-.36a1.31 1.31 0 0 0 .4-.9h.06Zm0-11.08h-.06c0-.347-.127-.64-.38-.88a1.232 1.232 0 0 0-.9-.38h-.24l-.02-.2h1.6v1.46Zm1.18 11.08h.06c.013.347.14.647.38.9.253.24.553.36.9.36h.26v.2h-1.6v-1.46Z" fill="#7E7123"/></svg>