<svg version="1.1" id="レイヤー_1" xmlns="http://www.w3.org/2000/svg" xmlns:xlink="http://www.w3.org/1999/xlink" x="0" y="0" width="250" height="358" style="enable-background:new 0 0 250 358" xml:space="preserve"><style>.st4{fill:#9e9e9f;stroke:#231815;stroke-width:.4545}.st5{fill:#231815}.st12,.st13,.st6,.st7{fill:none;stroke:#231815;stroke-width:.9091}.st12,.st13,.st7{stroke-width:1.8181}.st12,.st13{stroke-width:.7677}.st13{stroke-width:.7517}</style><path style="fill:#f9f7f2" d="M-11.6-7.6h266.3v195.5H-11.6z"/><defs><path id="SVGID_1_" d="M95.4 11.1h139.8v155.8H95.4z"/></defs><clipPath id="SVGID_00000151526167384587535240000010604686766096947623_"><use xlink:href="#SVGID_1_" style="overflow:visible"/></clipPath><g style="clip-path:url(#SVGID_00000151526167384587535240000010604686766096947623_)"><path style="fill:#dbdcdc;stroke:#231815;stroke-width:.4545" d="M33.5 37.7h191.3V229H33.5z"/><path style="fill:none;stroke:#231815;stroke-width:1.8181;stroke-dasharray:5.4544,5.4544" d="M46.3 50.5h165.8v165.8H46.3z"/><path class="st4" d="M186.6 60.1H71.8c-8.8 0-15.9 7.2-15.9 15.9v114.8c0 8.8 7.2 15.9 15.9 15.9h114.8c8.8 0 15.9-7.2 15.9-15.9V76c0-8.8-7.1-15.9-15.9-15.9zm9.5 130.7c0 5.3-4.3 9.6-9.6 9.6H71.8c-5.3 0-9.6-4.3-9.6-9.6V76c0-5.3 4.3-9.6 9.6-9.6h114.8c5.3 0 9.6 4.3 9.6 9.6v114.8z"/><path class="st5" d="M81.3 76c0 5.3-4.3 9.6-9.6 9.6s-9.6-4.3-9.6-9.6 4.3-9.6 9.6-9.6 9.6 4.3 9.6 9.6zM196.1 76c0 5.3-4.3 9.6-9.6 9.6s-9.6-4.3-9.6-9.6 4.3-9.6 9.6-9.6c5.4 0 9.6 4.3 9.6 9.6zM81.3 190.8c0 5.3-4.3 9.6-9.6 9.6s-9.6-4.3-9.6-9.6 4.3-9.6 9.6-9.6 9.6 4.3 9.6 9.6zM81.3 133.4c0 5.3-4.3 9.6-9.6 9.6s-9.6-4.3-9.6-9.6 4.3-9.6 9.6-9.6 9.6 4.3 9.6 9.6zM138.7 76c0 5.3-4.3 9.6-9.6 9.6s-9.6-4.3-9.6-9.6 4.3-9.6 9.6-9.6c5.4 0 9.6 4.3 9.6 9.6zM138.7 190.8c0 5.3-4.3 9.6-9.6 9.6s-9.6-4.3-9.6-9.6 4.3-9.6 9.6-9.6c5.4 0 9.6 4.3 9.6 9.6zM196.1 190.8c0 5.3-4.3 9.6-9.6 9.6s-9.6-4.3-9.6-9.6 4.3-9.6 9.6-9.6c5.4 0 9.6 4.3 9.6 9.6zM196.1 133.4c0 5.3-4.3 9.6-9.6 9.6s-9.6-4.3-9.6-9.6 4.3-9.6 9.6-9.6c5.4 0 9.6 4.3 9.6 9.6zM195.8 104.7c0 5.3-4.3 9.6-9.6 9.6s-9.6-4.3-9.6-9.6 4.3-9.6 9.6-9.6 9.6 4.3 9.6 9.6zM196.1 162.1c0 5.3-4.3 9.6-9.6 9.6s-9.6-4.3-9.6-9.6 4.3-9.6 9.6-9.6c5.4 0 9.6 4.3 9.6 9.6zM167.4 76.6c0 5.3-4.3 9.6-9.6 9.6s-9.6-4.3-9.6-9.6 4.3-9.6 9.6-9.6c5.4 0 9.6 4.3 9.6 9.6z"/><path class="st4" d="M33.5 37.7h24.3v-6.3H27.1V62h6.4zM132.5 229.1h27.3v6.4h-27.3zM27.1 137.1h6.4v27.3h-6.4zM27.1 171.1h6.4v27.3h-6.4zM27.1 69h6.4v27.3h-6.4zM64.5 31.4h27.3v6.4H64.5zM33.5 229.1v-24.3h-6.4v30.7h30.7v-6.4zM98.5 229.1h27.3v6.4H98.5zM27.1 103.1h6.4v27.3h-6.4zM64.5 229.1h27.3v6.4H64.5zM166.6 229.1h27.3v6.4h-27.3zM224.8 102.8h6.4v27.3h-6.4zM166.6 31.4h27.3v6.4h-27.3zM224.8 68.8h6.4v27.3h-6.4zM200.6 31.4v6.3h24.2V62h6.4V31.4zM224.8 229.1h-24.2v6.4h30.6v-30.7h-6.4zM98.5 31.4h27.3v6.4H98.5zM132.5 31.4h27.3v6.4h-27.3zM224.8 136.8h6.4v27.3h-6.4zM224.8 170.8h6.4v27.3h-6.4z"/><path class="st6" d="M128.7 83v14.2h7"/><path class="st5" d="M138.4 100.8v-.7h4v-2.4h-3V97h3v-2h-3.7v-.7h8.2v.7h-3.8v2h3v.7h-3v2.4h4v.7h-8.7zm3.6-8.6c1 .6 1.6 1.2 1.9 1.5l-.5.6c-.6-.5-1.1-1-1.9-1.5l.5-.6zM150.9 94l.5.5-.5.5c-.3-.4-.6-.7-.9-1h-.4c-.2.4-.4.5-.9 1.1l-.6-.4c.7-.7 1.1-1.3 1.7-2.5l.6.4c.1 0 .1.1.1.1 0 .1-.1.1-.2.1 0 .1-.2.4-.3.5h2.5v.7h-1.6zm-.3 7.2-.2-.8c.2 0 .4.1.6.1.4 0 .4-.2.4-.4v-1h-1.8c-.1.6-.3 1.3-.8 2.1l-.7-.3c.8-1 1-2.1 1-3.9 0-1-.1-1.4-.1-1.8h3v5c.1.8-.1 1-1.4 1zm.8-3.7h-1.6v1h1.7v-1zm0-1.6h-1.6v1h1.6v-1zm3.9-1.9c.2.2.3.3.5.6l-.5.5c-.1-.1-.1-.1-.2-.3 0 .1 0 .1-.3.2v1.3h1.9c0 1-.1 3.1-.4 4-.2.7-.5.9-1.6.9l-.2-.8h.5c.6 0 .6-.4.7-.9.1-1 .2-2.3.2-2.7h-1.2c-.1 2.4-.9 3.5-1.7 4.2l-.6-.5c.6-.5 1.5-1.3 1.6-3.7h-1.4v-.6h1.5v-1.7l.8.1h.1c-.1-.2-.4-.5-.6-.8h-.7c-.3.4-.6.8-.8 1.1l-.6-.4c.9-.9 1.2-1.6 1.6-2.5l.6.4.1.1c0 .1-.2.1-.2.1-.1.1-.2.3-.3.4h2.9v1h-1.7z"/><path class="st6" d="M114.2 64.3v54.8h14.5"/><path class="st5" d="M136.7 116.2v1.6h-4.9v-1.6H130v-.6h1.8v-1.1h.7c.1 0 .2 0 .2.1s-.1.1-.2.2v.7h1.4v-1.1l.8.1c.1 0 .2 0 .2.1s0 .1-.2.2v.8h1.4v-1.1h.7c.1 0 .2 0 .2.1s-.1.1-.2.2v.8h1.9v.6h-2zm.9 4.7v-1.8h-3.1v.8h2.4v2.2c0 .6 0 .9-1.4.9l-.3-.8h.7c.4 0 .4-.2.4-.5v-1.3h-1.7v2.8h-.7v-2.8h-1.6v2.5h-.7v-3.1h2.3v-.8h-3v2h-.7v-2.6h8.3v2.5h-.9zm-3.8-4.7h-1.4v1h1.4v-1zm2.1 0h-1.4v1h1.4v-1zM142.3 116.1l.5.5-.5.5c-.3-.4-.6-.7-.9-1h-.4c-.2.4-.4.5-.9 1.1l-.6-.4c.7-.7 1.1-1.3 1.7-2.5l.6.4c.1 0 .1.1.1.1 0 .1-.1.1-.2.1-.1.1-.2.4-.3.5h2.6v.6h-1.7zm-.3 7.3-.2-.8c.2 0 .4.1.6.1.4 0 .4-.2.4-.4v-1H141c-.1.6-.3 1.3-.8 2.1l-.7-.3c.8-1.1 1-2.1 1-3.9 0-1-.1-1.4-.1-1.8h3v5c.1.7-.1.9-1.4 1zm.8-3.8h-1.6v1h1.7v-1zm0-1.6h-1.6v1h1.6v-1zm3.9-1.9c.2.2.3.3.5.6l-.5.5c-.1-.1-.1-.1-.2-.3 0 .1 0 .1-.3.2v1.3h1.9c0 1-.1 3.1-.4 4-.2.7-.5.9-1.6.9l-.2-.8h.5c.6 0 .6-.4.7-.9.1-1 .2-2.3.2-2.7h-1.2c-.1 2.4-.9 3.5-1.7 4.2l-.6-.5c.6-.5 1.5-1.3 1.6-3.7H144v-.6h1.5v-1.7l.8.1h.2c-.1-.2-.4-.5-.6-.8h-.7c-.3.4-.6.8-.8 1.1l-.6-.4c.9-.9 1.2-1.6 1.6-2.5l.6.4.1.1c0 .1-.2.1-.2.1-.1.1-.2.3-.3.4h2.9v.6h-1.8z"/><path class="st7" d="M163.1 43.1v11.4"/><path class="st5" d="m159.8 52 3.3 1.4 3.4-1.4-3.4 7.9zM166.5 45.6l-3.4-1.4-3.3 1.4 3.3-7.9z"/><path class="st7" d="M208 88.9h11.5"/><path class="st5" d="m216.9 92.2 1.5-3.3-1.5-3.4 7.9 3.4zM210.6 85.5l-1.4 3.4 1.4 3.3-7.9-3.3z"/></g><path class="st5" d="M15.2 73.1v-.7h5.5v-3.9h-5.5v-.7h6.2v5.9h-.8v-.5h-5.4zM30.1 70c-1.1 1.1-2.3 2.3-6.4 3.8 0 0-.1.3-.2.3s-.1-.1-.2-.2l-.4-.9c1-.2 2-.4 3.8-1.4 1.7-1 2.4-1.7 3-2.3l.4.7zm-5.2-.8c-.5-.6-1-1.1-1.6-1.7l.6-.6c.3.3 1.1 1 1.7 1.7l-.7.6zM36.9 67.7h.4l.5.6c-.4.3-.4.4-.5.6-.8 2.1-1.3 3-2.5 4.2-.7.6-1.2 1-2 1.4l-.8-.7c.9-.4 1.9-.9 3-2.3 1-1.3 1.3-2.3 1.5-3.2h-3c-.4.6-.9 1.2-1.9 2.1l-.7-.4c.5-.4 1.1-.9 1.8-1.8.6-.8.8-1.3.9-1.7l.7.2c.2.1.2.2.2.2 0 .1-.1.1-.3.1-.1.2-.2.4-.3.7h3zM40 66.9c.1 0 .2 0 .2.1s0 .1-.2.2v4.3h-.8v-4.7l.8.1zm.4 7c1.1-.4 1.6-.7 2-1.2.6-.7 1-1.5 1-3.1v-3h.8s.2 0 .2.1c0 0 0 .1-.2.3 0 2.8 0 3.8-.4 4.9-.5 1.4-1.8 2.1-2.7 2.6l-.7-.6zM45.6 71v-.7h7.1v.7h-7.1zM55.3 69.2c1.7.7 2.3 1.2 3.2 1.9l-.5.7c-.3-.3-.7-.6-1.3-1-.8-.5-1.2-.7-1.7-.9v4.4h-.8v-7.7h.7s.3 0 .3.1-.1.1-.2.2v2.8l.3-.5zM59.4 69.3c1-.2 1.5-.4 2.1-.5.1-.5.1-.9.1-2l.9.3c-.1.4-.1.7-.3 1.5.2 0 .5-.1.8-.1.6 0 1.4.4 1.4 1.8 0 .8-.2 2.2-.6 3-.4.7-1 .8-1.3.8H62l-.3-.8c.4.1.6.1.8.1.2 0 .6 0 .9-.7.1-.2.4-1.1.4-2.2 0-.6-.1-1.3-.8-1.3-.3 0-.6.1-.8.1-.4 1.8-1 3.3-2 4.9l-.7-.4c.4-.5.7-.9 1.3-2.1.5-1.1.6-1.7.7-2.2-.2.1-.8.3-.9.4-.6 0-.7.1-.9.1l-.3-.7zm5.3-1.8c.5.5 1.8 1.7 1.8 2.7 0 .7-.6.8-1.1.9l-.4-.8c.3 0 .7 0 .7-.3 0-.2-.1-.3-.2-.6-.3-.5-.7-.9-1.3-1.5l.5-.4zm1.7.5c-.3-.3-.6-.6-.9-.8l.5-.4c.3.2.6.5 1 .8l-.6.4zm.6-1.9c.3.2.6.5.9.8l-.5.4c-.3-.3-.6-.6-.9-.8l.5-.4zM16.5 78.4v1.9c0 2.2 0 3.9-1 5.6l-.7-.4c.8-1.4 1-2.7 1-4.8 0-1-.1-2.6-.1-3h7.9v.6h-7.1zm3.9 6.1v1c0 .6-.4.7-1.5.7l-.2-.8c.2 0 .6.1.8.1.2 0 .3-.1.3-.3v-.7h-3.2v-.6h3.2v-.6l.6.1c.3-.2.4-.2.7-.4h-3.9v-.6h5.4l.1.2c-.7.4-1.2.7-2.2 1.4h3.2v.6h-3.3zm-2.9-2.8v-2.8h5.1v2.8h-5.1zm4.4-2.2h-3.8v.5h3.8v-.5zm0 1.1h-3.8v.6h3.8v-.6zM25.9 79.6c0 .3-.2.8-.2 1.7 0 2.4.9 3.3 1.2 3.3.4 0 .7-1.2.9-1.8l.6.5c-.2.6-.7 2-1.5 2-.9 0-1.5-1.5-1.5-1.6-.4-1-.4-2.3-.4-3 0-.7 0-1.1.1-1.4l.8.3zm5.1-.3c1.2 1.3 1.6 3.1 1.7 3.9l-.7.3c-.4-2.1-1-3.1-1.6-3.9l.6-.3zM38 79.6c-.1.9-.1 1.1-.2 1.6h3.7c-.1 1.8-.4 3.5-.6 4.1-.4.9-1 .9-2.3.9l-.2-.9c.3.1.7.1 1 .1.7 0 .8-.3.9-.9.2-.9.3-2.1.4-2.6h-3c-.3 1-.8 3-3.1 4.4l-.5-.6c1.2-.5 2.1-1.6 2.6-2.8.5-1.3.6-2.6.7-3.2h-3.7V79h4.1v-1.6l.8.1c.1 0 .2 0 .2.1s-.1.1-.3.2V79h4.2v.7H38zM43.4 80.7c1-.2 1.6-.4 2.1-.5.1-.5.1-.9.1-2l.9.3c-.1.4-.1.7-.3 1.5.2 0 .5-.1.8-.1.6 0 1.4.4 1.4 1.8 0 .8-.2 2.2-.6 3-.4.7-1 .8-1.3.8H46l-.3-.8c.4 0 .6.1.8.1.2 0 .6 0 .9-.7.1-.2.4-1.1.4-2.2 0-.5-.1-1.3-.8-1.3-.3 0-.6.1-.8.1-.4 1.8-1 3.3-2 4.9l-.7-.4c.4-.5.7-.9 1.3-2.1.5-1.1.6-1.7.7-2.2-.1.1-.8.3-.9.4-.4.1-.5.2-.6.2l-.6-.8zm5.3-1.8c.5.5 1.8 1.7 1.8 2.7 0 .7-.6.8-1.1.9l-.4-.8c.3 0 .7 0 .7-.3 0-.2-.1-.3-.2-.6-.3-.5-.7-.9-1.3-1.5l.5-.4zm1.8.5c-.3-.3-.6-.6-.9-.8l.5-.4c.3.2.6.5 1 .8l-.6.4zm.5-1.9c.3.2.6.5.9.8l-.5.4c-.3-.3-.6-.6-.9-.8l.5-.4zM56.9 82.6c.1.3.5.9 1.1 1.5.3-.1.9-.4 1.8-1l.6.5.1.1s0 .1-.1.1h-.2c-.5.3-1 .5-1.7.8.9.6 1.8.8 2.5.9l-.4.7c-1.6-.4-3.3-1.1-4.4-3.6H55V85c.7-.2 1.2-.3 2-.5v.7c-1.7.5-2.7.8-3.7 1 0 .1-.1.3-.2.3s-.2-.1-.2-.2l-.3-.8c.4 0 .7-.1 1.6-.3v-2.6h-1.7V82h1.8v-4.2H60v.6h-5v.8h4.7v.6H55v.7h4.7v.6H55v.8h6.1v.6h-4.2zM63.3 79.6c0 .3-.2.8-.2 1.7 0 2.4.9 3.3 1.2 3.3.4 0 .7-1.2.9-1.8l.6.5c-.2.6-.7 2-1.5 2-.9 0-1.5-1.5-1.5-1.6-.4-1-.4-2.3-.4-3 0-.7 0-1.1.1-1.4l.8.3zm5.1-.3c1.2 1.3 1.6 3.1 1.7 3.9l-.8.3c-.4-2.1-1-3.1-1.6-3.9l.7-.3zM75.1 77.7v3.1h-3v5.5h-.7v-8.6h3.7zm-.7.6h-2.3v.7h2.3v-.7zm0 1.9v-.7h-2.3v.7h2.3zm-.1 5.2h-.7v-3.7h3.8v3.2h-3.1v.5zm2.4-3.1h-2.4v.7h2.4v-.7zm0 1.3h-2.4v.7h2.4v-.7zm1.2 1.9h.5c.4 0 .5-.1.5-.3v-4.4h-3v-3.1h3.7v7.4c0 .9-.1 1.1-1.4 1.1l-.3-.7zm1-7.2h-2.4v.7h2.4v-.7zm0 1.2h-2.4v.7h2.4v-.7zM17.6 95.8c.3-.8.4-1.3.5-1.7l.7.2c.1 0 .1 0 .1.1s-.1.1-.2.2c-.1.4-.2.8-.5 1.4.3-.1.3-.1.7-.3v.7c-1.3.6-2.7 1-3.1 1.1 0 .1-.1.3-.2.3s-.1-.1-.1-.1l-.3-.7c.5-.1.9-.2 1.5-.4v-2.8h-1.6v-.6h1.6v-.9h-1v-.5l-.4.4-.5-.5c1.1-1 1.7-1.7 2.2-3.1l.7.3.2.1c0 .1-.1.1-.2.2.4.6.8 1 1.3 1.5l-.5.5c-.2-.2-.6-.5-1.2-1.5-.4.7-.7 1.2-1.4 2h2.5v.6h-1v.9h1.1v.6h-1.1v2.5c.4-.1.6-.2.8-.3l-.6-.2zm-1.9-1.4c.4.6.6 1.1.7 1.7l-.6.2c-.2-.6-.4-1.1-.7-1.7l.6-.2zm7.7-3.4v.7h-1.7c0 1.1-.1 1.3-.1 1.6h2v.7h-1.9c.1.5.3 1.1.8 1.8.4.5.9 1 1.4 1.4l-.6.5c-.4-.3-1.5-1.3-2-2.9-.6 1.7-1.5 2.5-2.3 3l-.5-.5c.8-.5 1.8-1.2 2.3-3.2H19v-.7h2c.1-.5.1-1 .1-1.6h-1.2c-.1.5-.2.6-.4 1.1l-.7-.3c.6-1.2.7-2.4.7-3.1l.8.2c.1 0 .1 0 .1.1s-.1.1-.2.2c0 0-.1.8-.2 1.2h1.1v-2.1l.7.1c.1 0 .2 0 .2.1s-.2.2-.2.2V91h1.6zM27.5 90.5l.5.5-.5.5c-.3-.4-.6-.7-.9-1h-.4c-.2.4-.4.5-.9 1.1l-.6-.4c.7-.7 1.1-1.3 1.7-2.5l.6.3c.1 0 .1.1.1.1 0 .1-.1.1-.2.1 0 .1-.2.4-.3.5h2.5v.6h-1.6zm-.3 7.2-.2-.8c.2 0 .4.1.6.1.4 0 .4-.2.4-.4v-1h-1.8c-.1.6-.3 1.3-.8 2.1l-.7-.3c.8-1 1-2.1 1-3.9 0-1-.1-1.4-.1-1.8h3v5c0 .7-.1 1-1.4 1zm.7-3.8h-1.6c0 .5 0 .7-.1 1h1.7v-1zm0-1.6h-1.6v1h1.6v-1zm4-1.9c.2.2.3.3.5.6l-.5.5c-.1-.1-.1-.1-.2-.3 0 .1 0 .1-.3.2v1.3h1.9c0 1-.1 3.1-.4 4-.2.7-.5.9-1.6.9l-.2-.8h.5c.6 0 .6-.4.7-.9.1-1 .2-2.3.2-2.7h-1.2c-.1 2.4-.9 3.5-1.7 4.2l-.6-.2c.6-.5 1.5-1.3 1.6-3.7h-1.4v-.6h1.5v-1.7l.8.1h.1c-.1-.2-.4-.5-.6-.8h-.7c-.3.4-.6.8-.8 1.1l-.6-.4c.9-.9 1.2-1.6 1.6-2.5l.6.4.1.1c0 .1-.2.1-.2.1-.1.1-.2.3-.3.4h2.9v.6h-1.7zM40.3 97.1c-1 .2-2 .2-2.2.2-.3 0-2.2 0-2.2-1.5 0-1.3 1.2-2 2.2-2.5 0-.3-.1-.8-.6-.8-.9 0-1.7 1.1-2.3 2l-.6-.4c1-1.1 1.4-1.8 1.8-2.9-.9.1-1.2.1-1.5 0l-.1-.8c.3 0 .6.1 1.1.1h.8c.2-.8.3-1.1.4-1.5l.8.1c-.1.3-.2.6-.5 1.3 1.3-.2 1.9-.5 2.2-.7l.1.7c-1.2.3-1.8.5-2.6.6-.3.8-.3.9-.5 1.2.1-.1.4-.4.8-.4.8 0 1 .7 1 1.1 1.2-.6 1.5-.6 2-1l.2.7c-1.2.4-1.5.5-2.1.8.1 1 .1 1.3.1 2H38v-1.7c-.8.5-1.5 1-1.5 1.7 0 .9 1.1 1 1.5 1 .7 0 1.5-.1 2.1-.3l.2 1zM47.8 93.9v3c0 .8-.2.8-1.6.8l-.3-.8c.5 0 .6.1 1 .1.3 0 .3-.1.3-.3V94H42v-.7h5v-1.7l.8.1s.1 0 .1.1-.1.1-.2.2v1.3h2.7v.7h-2.6zm1.8-3.3h-6.8v1.5h-.7v-2.2h3.6v-1.2h.8c.1 0 .2.1.2.1 0 .1-.1.1-.2.2v.9h3.8v2.2h-.7v-1.5zm-5.7 4c.4.5.8 1.2 1 1.7l-.6.4c-.4-.8-.6-1.1-1-1.7l.6-.4zM52.7 90c2.2 0 3.4-.3 4.1-.6l.3.5c-.1.1-.5.4-.6.5-.9.9-1.4 1.4-2.1 2 .3-.1.7-.3 1.2-.3.7 0 2.4.4 2.4 2.2 0 1.9-1.9 2.7-3.1 2.7-.8 0-1.9-.4-1.9-1.3 0-.6.5-1.1 1.4-1.1 1.3 0 1.8 1 2 1.4.3-.2 1-.7 1-1.6 0-.7-.4-1.5-1.8-1.5-1.7 0-3.3 1.7-3.5 1.9l-.6-.5c1.7-1.3 3.1-2.7 4.1-3.9-.5.1-1.6.3-2.8.4l-.1-.8zm1.8 5.2c-.4 0-.7.3-.7.5 0 .4.7.7 1.2.7.3 0 .5 0 .8-.1-.1-.3-.4-1.1-1.3-1.1z"/><path d="M14.7 126.3c0-3.8 3.2-6.9 7.1-6.9h43.5c3.9 0 7.1 3.1 7.1 6.9v24.1c0 3.8-3.2 6.9-7.1 6.9H21.8c-3.9 0-7.1-3.1-7.1-6.9v-24.1z" style="fill:#fff;stroke:#231815;stroke-width:.6635"/><path class="st5" d="M21.8 129.8c1.7-.2 2.4-.3 3-.5.3-1.2.3-1.9.4-2.9l1.2.5c-.2.5-.3 1.1-.5 2 .6-.1.9-.2 1.2-.2.3 0 .8.1 1.2.5.5.5.7 1.4.7 2 0 1.6-.5 3.2-1 4.1-.3.6-.9 1-1.9 1-.1 0-.3 0-.7-.1l-.4-1.1c.7.1.9.1 1.2.1.5 0 .8-.2 1.2-.9.4-.9.7-2.1.7-3.3 0-.5-.1-1.6-1.1-1.6-.3 0-.5 0-1.2.2-.5 1.9-1.2 3.8-2.9 6.5l-1-.5c.8-.9 1.8-2.2 2.9-5.6-1 .3-1.5.4-2.3.6l-.7-.8zm8.4-2c1.2 1.5 1.8 2.4 1.8 3.4s-.6 1.1-1.5 1.3l-.5-1.2h.6c.4 0 .4-.2.4-.4 0-.5-.1-.8-.5-1.3-.5-.7-.8-1.1-1.2-1.5l.9-.3zM36.9 133.1c-.9.9-1.9 1.7-3 2.2l-.5-1c1.3-.6 2.3-1.3 3.2-2.2l.3 1zm2.1-3.5c-.2.3-.2.5-.2.7 0 .5.2.6 1 1.6.5.5 1.3 1.4 1.3 2.8 0 1.6-1.5 1.7-2.2 1.7-.6 0-1-.1-1.9-.3l-.3-1.2c1 .3 1.7.5 2.2.5.5 0 1.2-.1 1.2-1.1 0-.8-.5-1.3-.9-1.8-1.1-1.2-1.3-1.6-1.3-2.2 0-.5.2-.9.4-1.2l.7.5zm-1.5-3.2c.7.1 2 .4 3.1 1l-.4.9c-1-.6-1.5-.7-3.1-1l.4-.9zm4.4 4.2c.7.6 1.3 1.2 2.5 3.3l-.9.7c-.6-1.4-1.5-2.5-2.3-3.4l.7-.6zm.2-3.1c.7.5 1.2 1.4 1.3 1.5l-.7.5c-.4-.7-1.1-1.4-1.3-1.5l.7-.5zm1.1-1.2c.7.5 1.2 1.2 1.3 1.5l-.7.5c-.4-.7-1-1.3-1.3-1.5l.7-.5zM47.9 126.7c-.4 1.4-.6 2.7-.6 4.1 0 .3 0 .4.1.6.3-.6.7-1.3 1-2l.6.6c-.3.8-.4 1.1-1.5 4l-.6.1c-.4-1.1-.5-2.1-.5-3.3 0-1.5.2-3 .5-4.4l1 .3zm5.5-.3v.9c.1 1.9.2 2.2.2 2.8 0 2.1-.5 3.8-1.2 5-.4.8-.8 1.2-1.5 1.8l-.9-.6c.6-.4 1.3-1 1.9-2.3.6-1.3.7-2.7.7-3.7 0-1.8-.2-3-.4-3.8l1.2-.1zM57.4 126.7v2.6c0 2.9-.1 5.3-1.4 7.6l-.9-.5c1.1-1.8 1.3-3.6 1.3-6.5 0-1.3-.1-3.5-.1-4h10.8v.8h-9.7zm5.4 8.4v1.4c0 .9-.5.9-2.1.9l-.3-1c.3 0 .8.1 1.1.1.3 0 .4-.1.4-.3v-1h-4.3v-.9h4.3v-.9l.9.1c.4-.2.6-.3 1-.6h-5.4v-.9h7.4l.2.3c-1 .6-1.6 1-3.1 1.8h4.4v.9h-4.5zm-4-3.8v-3.9h7v3.9h-7zm6-3.1h-5.2v.8h5.2v-.8zm0 1.5h-5.2v.8h5.2v-.8zM27.4 148.3v2.3h-1.2v-2.3h-4.8v-1l4.9-6.4h1.1v6.4h1.4v1h-1.4zm-1.2-5.7-3.6 4.8h3.6v-4.8zM33.6 150.9c-3 0-3.7-2.7-3.7-5.2s.7-5.2 3.7-5.2 3.7 2.7 3.7 5.2-.7 5.2-3.7 5.2zm0-9.3c-1.9 0-2.4 2-2.4 4.1 0 2.3.6 4.2 2.4 4.2 1.9 0 2.4-1.9 2.4-4.2.1-2.2-.5-4.1-2.4-4.1zM47 150.7v-5.1c0-.6-.2-1.5-1.3-1.5-1.8 0-1.8 1.7-1.8 1.9v4.6h-1.1v-5.2c0-1.2-.8-1.4-1.4-1.4-1.7 0-1.8 1.8-1.8 1.9v4.6h-1.1v-7.1h1.1v.9c.3-.6.9-1.2 2.1-1.2 1.4 0 1.8.8 2 1.2.4-.6.9-1.2 2.2-1.2 1.7 0 2.3 1.2 2.3 2.2v5.2H47zM57.9 150.7v-5.1c0-.6-.2-1.5-1.3-1.5-1.8 0-1.8 1.7-1.8 1.9v4.6h-1.1v-5.2c0-1.2-.8-1.4-1.4-1.4-1.7 0-1.8 1.8-1.8 1.9v4.6h-1.1v-7.1h1.1v.9c.3-.6.9-1.2 2.1-1.2 1.4 0 1.8.8 2 1.2.4-.6.9-1.2 2.2-1.2 1.7 0 2.2 1.2 2.2 2.2v5.2h-1.1z"/><path class="st6" d="M215 95.7v75.6H43v-14"/><path class="st6" d="M163.4 48.3H85.3v123"/><path style="fill:#fff;stroke:#231815;stroke-width:.7517" d="M1.2 211.7h247.6v99.7H1.2z"/><path style="fill:#fffbda" d="M1.2 228.8h68.2v82.7H1.2z"/><path style="fill:#fcede4" d="M1.2 211.7h247.6v17.1H1.2z"/><path class="st12" d="M69.2 311.4v-82.6M213.6 311.4v-99.7M174.2 276v-47.2M248.8 299.6H69.2"/><path class="st13" d="M248.8 287.8H1.2"/><path class="st12" d="M248.8 276H69.2M248.8 264.2h-74.6M248.8 252.4H69.2M248.8 240.6h-74.6"/><path class="st13" d="M248.8 228.8H1.2"/><path class="st5" d="M81.4 220.5c-.3-.3-.4-.5-.6-1v4.5h-.6v-4.4c-.2.5-.3 1.2-.7 2l-.7-.2c.6-1 1-2 1.2-3.1h-1v-.6h1.1v-2l.7.1s.2 0 .2.1-.1.2-.2.2v1.6h.7v.6h-.6c.2.8.7 1.5 1 1.8l-.5.4zm5.3 1.8v.9c0 .6-.2.7-.9.7h-.6l-.2-.7c.5.1.8.1.8.1.2 0 .3-.1.3-.3v-.8H83v1.6h-.6v-1.6h-.9v-.5h.9v-2.3h1.9v-.4h-2.6v-.5h1.5v-.6h-.9v-.5h.9v-.5H82v-.5h1.2v-.7h.7c.1 0 .1 0 .1.1s-.1.1-.2.2v.4h1.5v-.7h.7s.1 0 .1.1-.1.1-.2.1v.5H87v.5h-1.1v.5h.8v.5h-.8v.6h1.4v.5h-2.5v.5h1.8v2.3h.6v.5h-.5zm-2.4-2.3H83v.6h1.3v-.6zm0 1.1H83v.7h1.3v-.7zm1-4.3h-1.5v.5h1.5v-.5zm0 1.1h-1.5v.6h1.5v-.6zm.8 2.1h-1.2v.6h1.2v-.6zm0 1.1h-1.2v.7h1.2v-.7zM96.5 223.7h-3.8c-2.1 0-2.6-.4-2.8-1-.3.3-.8.7-1 .8 0 .1 0 .3-.1.3s-.1 0-.1-.1l-.3-.6c.4-.2.9-.5 1.2-.8v-2.1h-1v-.7h1.7v2.4c0 .6.4.9.6 1 .4.1.9.2 2.1.2 1.3 0 2.6 0 3.9-.1l-.4.7zm-6.9-5.8c-.4-1-.8-1.5-1.1-1.8l.5-.4c.5.7.9 1.2 1.2 1.8l-.6.4zm1.1 1.3v-.6h2.6v-1.1h-1.7c-.2.4-.3.5-.4.8l-.6-.3c.5-.7.9-1.5 1.2-2.4l.6.2s.1 0 .1.1-.2.2-.2.2c-.1.4-.2.6-.3.8h1.4v-1.3l.6.1c.1 0 .2 0 .2.1s0 .1-.2.2v.9h2v.6h-2v1.1h2.6v.6h-5.9zm4.6 3.5v-.4H92v.4h-.7V220h4.5v2.7h-.5zm0-2.1H92v1.1h3.2v-1.1zM102.5 219.1v.6h-4.8v-.6h3.5l-.5-.3c.3-.4.4-.9.5-1.4l.6.2.1.1c0 .1-.1.1-.2.1-.2.7-.4 1-.5 1.2h1.3zm-2.7-3.5h.8s.1 0 .1.1-.1.2-.2.2v.7h1.8v.6H98v-.6h1.8v-1zm-1.5 5h3.7v3.4h-.7v-.5H99v.6h-.6v-3.5zm.7-3.2c.3.5.5.9.7 1.4l-.7.2c-.2-.5-.3-.9-.7-1.4l.7-.2zm2.3 5.4v-1.6H99v1.6h2.3zm4.6-6.2c-.7 1.6-1.1 2.3-1.3 2.7.8.7 1.3 1.5 1.3 2.5 0 1.4-1.1 1.6-1.9 1.6l-.3-.8h.5c.4 0 .6 0 .8-.3.2-.2.3-.5.3-.7 0-1.1-.9-2-1.4-2.4.5-.8.9-1.6 1.2-2.4h-1.5v7.2h-.7v-7.8h2.6l.4.4zM110.2 216.5c-.4 1-1.1 2.6-2.7 3.8l-.5-.5c.8-.5 1.9-1.4 2.7-3.9l.6.3c.1.1.2.1.2.2s-.1.1-.3.1zm3 6.8c-.3.7-.8.7-1.7.7l-.2-.7c.2 0 .4.1.7.1.4 0 .6-.2.7-.8.1-.6.1-1.3.2-2.4h-2c-.2 1.8-.8 3-2.3 3.9l-.6-.5c1.7-.8 2-1.9 2.2-3.4h-1.4v-.7h4.8c-.1 1-.1 2.9-.4 3.8zm1.5-3.2c-.6-.4-1.3-.9-2-2-.3-.5-.5-1.1-.6-1.6H111v-.6h1.8c0 .6.1 1.3.7 2.2.6.9 1.3 1.3 1.8 1.6l-.6.4zM120.7 222.8c.4-.1.9-.3 1.4-.7.6-.5 1.1-1.4 1.1-2.3 0-1.4-1-2.2-1.5-2.4-.3-.2-.8-.2-1.3-.3-.1 1.4-.5 2.8-1.1 4.1-.4.8-.9 1.6-1.4 1.6-.8 0-1.6-1.2-1.6-2.6 0-1.8 1.4-3.8 3.9-3.8 2 0 3.6 1.2 3.6 3.3 0 2.5-2.3 3.4-2.8 3.7l-.3-.6zm-3.1-4.4c-.3.4-.6 1-.6 1.8 0 1 .6 1.7.9 1.7.2 0 .4 0 1-1.5.6-1.6.8-2.8.8-3.4-.6.2-1.3.4-2.1 1.4zM127 218.1h1v.6h-.8c.2.6.5 1.1 1 1.5l-.5.5c-.3-.3-.4-.6-.6-1v4.3h-.6v-4.1c-.4 1-.8 1.8-1.3 2.4l-.5-.4c.5-.6 1.2-1.7 1.6-3.1H125v-.6h1.4v-1.5c-.4.1-.6.1-1 .1l-.3-.6c1.1 0 1.8-.2 2.4-.4l.4.5.1.1c0 .1-.1.1-.1.1-.1 0-.2 0-.3-.1-.2.1-.3.1-.5.2v1.5zm4-.7h2.3v.6H131v.6h1.9v2.7H131v.8h1.8v.6H131v.7h2.4v.5h-5.5v-.5h2.5v-.7h-1.9v-.7h1.9v-.8h-1.9v-2.7h1.9v-.6H128v-.6h2.3v-.8c-.7.1-1.2.1-1.8.1l-.3-.6h.9c1.6 0 2.4-.2 3.2-.4l.4.5.1.1s0 .1-.1.1-.2 0-.3-.1c-.5.1-.9.2-1.4.2v1zm-.7 2.2v-.6h-1.2v.6h1.2zm0 1.1v-.6h-1.2v.6h1.2zm2-1.7H131v.6h1.3v-.6zm0 1.1H131v.6h1.3v-.6zM136.6 218.7c0 .4 0 .8-.1 1.3h2.1c-.1 2.1-.3 3-.4 3.2-.2.5-.5.7-1.4.7l-.3-.7h.6c.4 0 .5-.2.6-.7.1-.6.2-1.3.2-2h-1.5c-.4 1.9-1.3 3-1.6 3.3l-.6-.4c.6-.6 1-1.2 1.3-2.1.3-.9.4-1.8.4-2.7h-1.3v-2.8h3.9v2.8h-1.9zm1.3-2.2h-2.6v1.5h2.6v-1.5zm2.5 0v5.4h-.7v-5.8l.7.1s.1 0 .1.1c.1.1 0 .1-.1.2zm1.9-.4v7c0 .6 0 .9-1.7.9l-.2-.7h.7c.4 0 .5-.1.5-.4v-7.1l.7.1s.1 0 .1.1l-.1.1zM8.3 204.1H1.9v-.6h6.4v-1.3h-6v-.6h6.1v-1.3H2v-.7h3.3v-3.4l.8.1c.2 0 .2.1.2.1 0 .1-.1.1-.3.2v3h3.1v4.9h-.8v-.4zm-5.5-7.2c.5.6 1 1.3 1.4 2.2l-.6.4c-.4-.9-.9-1.6-1.4-2.2l.6-.4zM7 199c.7-.8 1.1-1.5 1.6-2.4l.6.5.1.1c0 .1-.1.1-.3.1-.6 1-1 1.5-1.4 2.1L7 199zM12.3 200.9c-.6.6-1 .8-1.3 1l-.6-.4c1.6-1 2.5-2.2 2.9-2.8h-2.5v-.6h1.5v-1.9h.7c.1 0 .2 0 .2.1s0 .1-.2.2v1.5h1l.2.2c-.3.6-.6 1.1-1.1 1.6.6.6 1.1.9 1.5 1.1l-.5.5c-.6-.3-.9-.6-1.2-1v3.9h-.7v-3.4zm4.1-4.6.7.1c.1 0 .2 0 .2.1s-.1.1-.2.2v2.4h1.6v.6h-1.6v3.7H19v.6h-4.8v-.6h2.2v-3.7h-1.8v-.7h1.8v-2.7zM22.4 201.1c-.3-.3-.4-.5-.6-1v4.5h-.6v-4.4c-.2.5-.3 1.2-.7 2l-.7-.2c.6-1 1-2 1.2-3.1h-.9v-.6h1.1v-2l.7.1s.2 0 .2.1-.1.2-.2.2v1.6h.7v.6H22c.2.8.7 1.5 1 1.8l-.6.4zm5.4 1.8v.9c0 .6-.2.7-.9.7h-.6l-.2-.6c.5.1.8.1.8.1.2 0 .3-.1.3-.3v-.8h-3.1v1.6h-.6v-1.6h-.9v-.5h.9v-2.3h1.9v-.5h-2.6v-.6h1.5v-.6h-.9v-.4h.9v-.5H23v-.5h1.2v-.7h.7c.1 0 .1 0 .1.1s-.1.1-.2.2v.4h1.5v-.7h.7s.1 0 .1.1-.1.1-.2.1v.5H28v.5h-1v.5h.8v.5H27v.6h1.4v.5h-2.5v.5h1.8v2.3h.6v.5h-.5zm-2.5-2.3H24v.6h1.3v-.6zm0 1.1H24v.7h1.3v-.7zm1-4.3h-1.5v.5h1.5v-.5zm0 1.1h-1.5v.6h1.5v-.6zm.9 2.1H26v.6h1.2v-.6zm0 1.1H26v.7h1.2v-.7zM37.6 204.3h-3.8c-2.1 0-2.6-.4-2.8-1-.3.3-.8.7-1 .8 0 .1 0 .3-.1.3s-.1 0-.1-.1l-.3-.6c.4-.2.9-.5 1.2-.8v-2.1h-1v-.6h1.7v2.4c0 .7.4.9.6 1 .4.2.9.2 2.1.2 1.3 0 2.6 0 3.9-.1l-.4.6zm-7-5.8c-.4-1-.8-1.5-1.1-1.8l.5-.4c.5.7.9 1.2 1.2 1.8l-.6.4zm1.2 1.3v-.6h2.6v-1.1h-1.7c-.2.4-.3.5-.4.8l-.6-.3c.5-.7.9-1.5 1.2-2.4l.6.2s.1 0 .1.1-.2.1-.2.2c-.1.4-.2.6-.3.8h1.4v-1.3l.6.1c.1 0 .2 0 .2.1s0 .1-.2.2v.9h2.1v.6h-2.1v1.1h2.6v.6h-5.9zm4.5 3.5v-.4h-3.2v.4h-.7v-2.7H37v2.7h-.7zm0-2.1h-3.2v1.1h3.2v-1.1zM38.4 200c.6-.7 1.5-1.7 2.3-3.9l.7.3.1.1c0 .1-.1.1-.3.1l-.6 1.2c.1 0 .2 0 .2.1s-.2.2-.2.2v6.4H40V199c-.3.5-.5.8-1 1.4l-.6-.4zm3 4.1v-.7h2.4v-3.5h-2.4v-.6h2.4v-3h.6c.1 0 .3 0 .3.1s-.1.1-.2.2v2.6H47v.6h-2.5v3.5h2.2v.7h-5.3zM50.6 201c-.2-.2-.4-.4-.6-.8v4.5h-.7v-4.1c-.2.6-.6 1.4-1.1 2.1l-.6-.4c.6-.7 1.3-2 1.6-3.3H48v-.7h1.3v-2.1l.7.1c.1 0 .2 0 .2.1s-.1.1-.2.1v1.8h1v.7h-.9c.1.6.5 1.2.9 1.6l-.4.4zm1 3.1s0 .3-.1.3-.2-.1-.2-.2l-.4-.5c.5-.3 1.1-.6 2-1.5l.2.6c-.7.6-1.2 1-1.5 1.3zm.5-1.5c-.3-.3-.5-.5-.9-.8l.4-.4c.4.3.7.5 1 .8l-.5.4zm4 1.7c-.3-.2-.8-.4-1.3-.9s-.7-.8-.8-1v1.6c0 .6-.3.6-.7.6h-.6l-.3-.8c.1 0 .6.1.7.1.3 0 .3-.1.3-.3V201h-2v-.6h2v-.8h-1.6v-.6h1.6v-.8h-1.9v-.6h2.9l-.5-.3c.2-.3.5-.7.8-1.3l.5.2c.1 0 .2.1.2.2s-.1.1-.3.1c-.3.4-.4.7-.7 1.1H56v.6h-2v.8h1.9v.6H54v.8h2.2v.6H54v.2c.5 1.1 1.4 2 2.6 2.6l-.5.5zm-3.4-6.7c-.2-.3-.5-.6-1-1.1l.4-.4c.4.3.6.6 1 1.1l-.4.4zm3.3 4.3c-.1.2-.3.4-.6.8l-.5-.4c.3-.3.5-.6.8-1l.5.4c.1 0 .1.1.1.2H56zM61 196.2l.7.1s.2 0 .2.1-.2.1-.2.2v.3h2.8v1h1v.5h-1v1h-2.8v.4h2.8v.5h-2.8v.4h3.9v.5h-8.2v-.5H61v-.4h-2.7v-.5H61v-.4h-2.7v-.5H61v-.5h-3.7v-.5H61v-.5h-2.7v-.5H61v-.7zm3.3 8.4h-.7v-.4h-4.3v.4h-.7v-3h5.7v3zm-.7-2.5h-4.3v.5h4.3v-.5zm0 1h-4.3v.5h4.3v-.5zm.3-5.3v-.5h-2.2v.5h2.2zm0 1v-.5h-2.2v.5h2.2zM72.6 203.7c-.4-.4-.9-.8-2.2-1.2v.6c-.2.8-1 1-1.8 1-.1 0-.9 0-1.4-.3-.3-.2-.5-.5-.5-.9 0-1.1 1.4-1.3 2.1-1.3.4 0 .6 0 .9.1-.1-.8-.1-1.7-.1-2.3V196.6l.9.2c-.2.8-.2 1.3-.2 1.6h.5c.2 0 1.2 0 2.2-.4l-.1.8c-.7.1-1.5.2-2.2.2h-.5c0 1 0 1.5.1 2.7.9.3 1.3.5 2.6 1.2l-.3.8zm-3.9-1.6c-.2 0-.5 0-.8.1-.1.1-.5.2-.5.6 0 .7.9.7 1.2.7.9 0 1.1-.3 1.1-.8v-.4c-.2-.1-.7-.2-1-.2zM75.5 197.2c-.3.9-.4 1.9-.4 2.9 0 .2 0 .3.1.4.2-.4.5-.9.7-1.4l.4.4c-.2.6-.3.8-1.1 2.8h-.4c-.3-.8-.4-1.5-.4-2.3 0-1 .2-2.1.4-3.1l.7.3zm3.8-.3v.6c.1 1.3.1 1.5.1 1.9 0 1.5-.4 2.7-.8 3.5-.3.5-.6.8-1 1.2l-.6-.4c.4-.3.9-.7 1.3-1.6.4-.9.5-1.9.5-2.6 0-1.3-.2-2.1-.3-2.7l.8.1zM13.6 250.1h.8c.2 0 .3.1.3.1 0 .1-.1.1-.3.2v2.7h3.2v.7h-3.2v3.5h3.7v.6H9.9v-.6h3.7v-3.5h-3.1v-.7h3.1v-3zM20.8 251c-.2.4-.3.9-.5 1.8-.1.6-.2 1.2-.2 1.8 0 .5 0 .9.1 1.3 0 .3 0 .3.1.5.1-.3.2-.5.5-1.4l.5.4c-.1.3-.4.9-.6 2.1l-.6.1c-.4-.9-.6-1.7-.6-2.9 0-.8.1-1.9.2-2.4.2-.9.2-1 .3-1.2.1-.4.1-.4.1-.6l.7.5zm2 4.2v.6c.2.7.7.8 1.4.8 1.1 0 1.7-.2 2.3-.4v.7c-.5.1-1 .2-2.4.2-1.2 0-2-.1-2-1.9h.7zm-.3-3.8c.2 0 .6.1 1.3.1.5 0 1.4-.1 2.2-.4v.7c-1.4.2-2.1.2-3.1.2h-.5l.1-.6zM30.1 254.3c-.3.2-.4.3-.8.5v2.6c0 .6 0 1-1.4 1l-.2-.7c.3 0 .4.1.6.1.4 0 .4-.2.4-.4v-2.1c-.3.2-.6.4-.8.5 0 .1 0 .3-.1.3s-.1-.1-.1-.1l-.2-.7c.4-.2.8-.4 1.2-.7v-1.9h-1.1v-.7h1.1v-1.9l.7.1c.2 0 .2.1.2.1 0 .1-.1.1-.2.2v1.5h.8v.6h-.8v1.5c.4-.2.5-.3.8-.5l-.1.7zm3.1-.1c.1 0 .2.1.2.1 0 .1-.1.1-.2.1-.1.2-.2.4-.4.7H36v.6h-1.3c-.1.3-.3.7-.7 1.2.3.1.9.4 1.6.9l-.6.5c-.2-.2-.5-.5-1.5-.9-.7.5-1.7.9-3.1 1l-.3-.6c.8 0 2-.2 2.8-.6-.6-.2-1.1-.3-1.4-.4l-.3.3-.5-.3c.2-.2.5-.5.9-1h-1.3v-.8H32c.3-.5.5-.9.6-1.1l.6.3zm-2.9-1h5.6v.6h-5.6v-.6zm4.1-1.4.5.3.1.1c0 .1-.1.1-.3.1-.2.3-.3.4-.5.8l-.1.1-.5-.3c.2-.2.5-.6.7-1.1H32c.1.1.2.3.6 1.1l-.6.3c-.2-.4-.4-.9-.6-1.1l.4-.2h-1.2v-.6h2.2v-1.1l.7.1s.2 0 .2.1-.1.1-.2.2v.8h2.2v.6h-1.3zm-2.1 3.8c-.2.2-.3.4-.4.6.5.1 1 .2 1.5.4.3-.4.5-.7.6-1h-1.7zM38 250.7c-.2 1.9-.2 4.3-.2 4.5 0 1.1.1 1.3.1 1.5.2.6.8.7 1 .7.6 0 1.9-.3 3-2.7l.6.6c-.3.6-1.6 2.7-3.6 2.7-.9 0-1.5-.6-1.6-1.2-.1-.4-.1-.7-.1-2.3v-2.7c0-.4 0-.9-.1-1.3l.9.2zM46.7 250.5c-.3.8-.3.9-.5 1.3.9-.1 1.1-.2 1.4-.3l-.1.7c-.3 0-1 .1-1.5.2-.5 1.3-1.1 2.6-1.8 3.9l-.7-.3c.4-.5 1-1.3 1.8-3.5h-1.5v-.7c.2.1.5.1 1.1.1h.5c.1-.4.3-1 .5-1.8l.8.4zm1.8 3.1c-.3.3-.4.4-.4.8 0 .1.1.7.2 1.8.8.3 1.1.4 1.5.6l-.2.7c-.4-.3-.7-.4-1.2-.6-.1.5-.2 1.4-1.4 1.4-1.1 0-1.7-.6-1.7-1.2 0-.7.7-1.1 1.5-1.1.3 0 .7.1 1 .1 0-.3-.1-1.5-.1-1.7 0-.5.2-.7.6-1.1l.2.3zm-1.9 2.8c-.5 0-.8.2-.8.5 0 .4.7.6 1.1.6.4 0 .7-.2.7-.7v-.3c-.3 0-.7-.1-1-.1zm1.6-4.4c.7.2 1.5.5 2.2.9l-.3.6c-.7-.4-1.1-.6-2.1-1l.2-.5zM52.3 252.1c0 .3-.2.8-.2 1.6 0 2.3.8 3.1 1.2 3.1.3 0 .7-1.2.8-1.7l.6.5c-.2.6-.7 1.9-1.4 1.9-.8 0-1.4-1.4-1.4-1.5-.4-.9-.4-2.2-.4-2.9 0-.6 0-1.1.1-1.3l.7.3zm4.8-.2c1.1 1.2 1.5 2.9 1.6 3.7l-.7.2c-.3-2-1-3-1.6-3.7l.7-.2zM30.4 264.7v.6h-4.9v-.6H29l-.5-.3c.3-.4.4-.9.5-1.4l.6.2.1.1c0 .1-.1.1-.2.1-.2.7-.4 1-.5 1.2h1.4zm-2.7-3.6h.8s.1 0 .1.1-.1.2-.2.2v.7h1.8v.6h-4.3v-.6h1.8v-1zm-1.5 5.1h3.7v3.4h-.7v-.6h-2.4v.6h-.6v-3.4zm.6-3.3c.3.5.5.9.7 1.4l-.6.3c-.2-.5-.3-.9-.7-1.4l.6-.3zm2.4 5.5v-1.6h-2.4v1.6h2.4zm4.6-6.2c-.7 1.6-1.1 2.3-1.3 2.7.8.7 1.3 1.5 1.3 2.5 0 1.4-1.1 1.6-1.9 1.6l-.3-.8h.5c.4 0 .6 0 .8-.3.2-.2.3-.5.3-.7 0-1.1-.9-2-1.4-2.4.5-.8.9-1.6 1.2-2.4h-1.5v7.2h-.7v-7.8h2.6l.4.4zM38 262.1c-.4 1-1.1 2.6-2.7 3.8l-.5-.5c.8-.5 1.9-1.4 2.7-3.9l.6.3c.1.1.2.1.2.2 0 0-.1.1-.3.1zm3 6.8c-.3.7-.8.7-1.7.7l-.2-.7c.2 0 .4.1.7.1.4 0 .6-.2.7-.8.1-.6.1-1.3.2-2.4h-2c-.2 1.8-.8 3-2.3 3.9l-.6-.5c1.7-.8 2-1.9 2.2-3.4h-1.4v-.7h4.8c-.1 1-.1 2.9-.4 3.8zm1.6-3.2c-.6-.4-1.3-.9-2-2-.3-.5-.5-1.1-.6-1.6h-1.2v-.6h1.8c0 .6.1 1.3.7 2.2.6.9 1.3 1.3 1.8 1.6l-.5.4zM89 233.7v1.4c0 2.3-.3 3.5-.8 4.5l-.6-.3c.2-.3.5-.9.7-2.1 0-.3.1-.9.1-2 0-.3 0-1.2-.1-2.1h2.9v-.9h.6s.1 0 .1.1-.1.1-.2.2v.6H95v.6h-6zm5.7 5.2c-1.1-.7-1.8-1.4-2.4-2.2v3.1h-.6v-3.1c-.4.7-.8 1.4-2.1 2.5l-.5-.4c.7-.5 1.7-1.3 2.4-2.8h-2.2v-.5h2.4v-1.1h.6s.2 0 .2.1-.1.1-.2.2v.8h2.6v.5h-2.5c.7 1.1 1.3 1.8 2.8 2.5l-.5.4zM101.4 233.7c-.4.2-.4.3-.5.4-.5 1-.7 1.4-1.2 2 .8.6 1.6 1.4 2.2 2.4l-.6.5c-.2-.4-.5-.8-1.1-1.4-.5-.5-.8-.7-1-.9-1 1.2-1.9 1.7-3 2.2l-.5-.6c.7-.2 1.6-.5 2.7-1.6s1.5-2 1.7-2.7h-3.5v-.6h3.7c.1 0 .3-.1.4-.2l.7.5zM102.9 235.4v-.6h4.9c.1 0 .3-.1.5-.2l.5.6-.3.3c-.8 1.5-.9 1.7-1.1 2-1 1.3-1.9 1.6-2.8 1.9l-.5-.5c.7-.2 1.5-.4 2.5-1.3.8-.8 1.1-1.6 1.3-2.1h-5zm4.9-1.8h-3.9v-.6h3.9v.6zM109.6 234.2v-.6h4.5c.1 0 .2-.1.4-.2l.6.5s-.2.2-.2.3v.1c-.6 2.2-1.2 3-2.2 3.9-.5.4-.9.6-1.8 1.1l-.6-.6c.7-.2 1.6-.5 2.4-1.4 1.1-1.1 1.3-2.1 1.5-3.1h-4.6zm4.9-.9c-.2-.3-.5-.7-.6-.8l.4-.3c.2.2.4.5.6.8l-.4.3zm1.2-.2c-.2-.3-.5-.6-.6-.8l.4-.3c.3.3.6.7.6.8l-.4.3zM118.4 236c0 .4-.3.7-.7.7-.4 0-.7-.3-.7-.7 0-.4.3-.7.7-.7.3 0 .7.3.7.7zM120.6 239.5v-.5h2.7v-.7h-1.8v-.5h1.8v-.8c-.2 0-.9.1-1 .1-.3 0-.4 0-.6.1 0 .1-.1.2-.2.2s-.1 0-.1-.1l-.2-.6h.9c.2-.4.4-.7.6-1H121c0 .7-.1 1.4-.2 2-.2.9-.5 1.4-.9 2l-.5-.3c.9-1.4 1-2.6 1-4.4 0-.7 0-1.5-.1-2.2h6v1.8H121v.6h5.7v.5h-1.6c.9 1 1.1 1.4 1.3 1.6l-.5.3c-.2-.3-.3-.4-.5-.8-.6.1-.7.1-1.6.2v.8h1.9v.5h-1.9v.7h3v.5h-6.2zm5.2-6.4H121v.8h4.7v-.8zm-1.2 2.6.2-.2h-1.6c-.1.2-.5.8-.6.9.7-.1 1.3-.1 2.4-.2.1 0-.2-.3-.4-.5zM130.1 236.4c-.2-.2-.3-.4-.5-.8v4h-.6v-3.9c-.1.5-.3 1.1-.8 2l-.5-.3c.7-1 1-1.9 1.2-2.8h-.9v-.6h1.1v-1.8l.6.1c.1 0 .2 0 .2.1s-.1.1-.2.2v1.5h1v.6h-.9c.2.6.5 1 .9 1.4l-.6.3zm4.7 3.3c-1.5-1-2.3-2.5-2.5-4h-.5v2.7c.4-.2.7-.4.9-.5v.6c-.8.4-1.3.7-1.9 1 0 .1 0 .2-.1.2 0 0-.1 0-.1-.1l-.3-.6c.4-.1.7-.2.9-.3v-6.2h3.7v3.2h-2c.1.5.2.9.5 1.5.5-.3 1-.7 1.3-1.1l.5.5c0 .1.1.1.1.1 0 .1-.1.1-.1.1h-.2c-.5.4-.8.6-1.3.9.4.6.9 1.2 1.8 1.7l-.7.3zm-.5-6.6h-2.5v.8h2.5v-.8zm0 1.2h-2.5v.8h2.5v-.8zM141.6 233.7c-.4.2-.4.3-.5.4-.5 1-.7 1.4-1.2 2 .8.6 1.6 1.4 2.2 2.4l-.6.5c-.2-.4-.5-.8-1.1-1.4-.5-.5-.8-.7-1-.9-1 1.2-1.9 1.7-3 2.2l-.5-.6c.7-.2 1.6-.5 2.7-1.6s1.4-2 1.7-2.7H137v-.6h3.7c.1 0 .3-.1.4-.2l.5.5zM143.1 235.4v-.6h4.9c.1 0 .3-.1.5-.2l.5.6-.3.3c-.8 1.5-.9 1.7-1.1 2-1 1.3-1.9 1.6-2.8 1.9l-.5-.5c.7-.2 1.5-.4 2.5-1.3.8-.8 1.1-1.6 1.3-2.1h-5zm4.8-1.8H144v-.6h3.9v.6zM149.8 234.2v-.6h4.5c.1 0 .2-.1.4-.2l.6.5s-.2.2-.2.3v.1c-.6 2.2-1.2 3-2.2 3.9-.5.4-.9.6-1.8 1.1l-.6-.6c.7-.2 1.6-.5 2.4-1.4 1.1-1.1 1.3-2.1 1.5-3.1h-4.6zm4.8-.9c-.2-.3-.5-.7-.6-.8l.4-.3c.2.2.4.5.6.8l-.4.3zm1.2-.2c-.2-.3-.5-.6-.6-.8l.4-.3c.3.3.6.7.6.8l-.4.3zM96.6 243.1c-.2.3-.5.9-.7 1.2h2.2v4.7c0 .5 0 .7-1 .6l-.2-.6h.4c.3 0 .3-.1.3-.4v-3.8h-.7v4.6h-.5v-4.6h-.6v4.6h-.5v-4.6h-.6v4.8H94v-5.3h1.3c.1-.2.6-1 .7-1.2h-2.1v-.6h4.6v.6h-1.9zm4 1.9v3.8c0 .7 0 .9-1.4.8l-.2-.6c.3.1.4.1.6.1.4 0 .4-.1.4-.4V245h-1.8v-.6h1.8v-2.3l.6.1c.1 0 .2 0 .2.1s0 .1-.2.2v1.9h.7v.6h-.7zm-1.5 2.6c-.2-.6-.4-1-.8-1.6l.5-.3c.3.5.6.9.8 1.6l-.5.3zM102.3 249.2c.6-.4 2.2-1.4 2.5-4.6h-2.7v-.6h2.7c0-.3.1-.6.1-1.8l.7.1s.2 0 .2.1-.1.1-.2.2c0 .8 0 .8-.1 1.4h3c0 1 0 2.8-.4 4.4-.3 1.1-.7 1.2-1.5 1.2h-.5l-.3-.8c.3 0 .7.1 1 .1.5 0 .6-.2.9-1.5.2-1 .2-1.9.2-2.9h-2.5c-.3 2.1-.9 3.9-2.6 5.1l-.5-.4zM110.9 244.4c0 .7 0 1.7-.7 2.8l-.5-.3c.6-.9.7-1.7.7-2.8 0-.4 0-.9-.1-1.4h2.7v1.7h-2.1zm-.9 4.9v-.5h3.2v-.7h-2.4v-.5h2.4v-.8l.6.1s.1 0 .1.1-.1.1-.2.2v.5h2.3v.5h-2.3v.7h3.1v.5H110zm2.4-6.2h-1.5v.8h1.5v-.8zm-1.5 3.8v-1.8h1.9v1.8h-1.9zm1.5-1.4h-.9v.9h.9v-.9zm3.1-.2v.7h1.2v.5h-1.2v.8h-.6v-.8h-1.3v-.5h1.3v-.7h-1.5v-.5h3.5v.5h-1.4zm-1.8-1.8v-.5h1.3v-.7h.6c.1 0 .1 0 .1.1s-.1.1-.2.2v.4h1.2v.5h-3zm.7 1.2c-.1-.2-.2-.5-.5-.8l.4-.3c.3.3.4.6.5.8l-.4.3zm1.9-.6c-.2.3-.2.4-.4.6l-.4-.3c.2-.3.3-.5.5-.8l.5.3.1.1c0 .1-.1.1-.3.1zM118.6 248.8c-.1.1-.1.2-.2.2 0 0-.1 0-.1-.1l-.3-.6c.3-.1.5-.2 1-.4v-5.4h.7s.1 0 .1.1-.1.2-.2.2v4.7c1.1-.5 1.8-.9 2.3-1.3v.7c-1.1.7-2.2 1.3-3.3 1.9zm6.4.6c-.3-.4-.7-.7-1.4-1.3-.4.4-1 .9-2.9 1.3l-.4-.6c.9-.1 2.9-.4 3.5-2.4.4-1.3.4-3 .4-3.9l.7.1c.1 0 .2 0 .2.1s-.1.2-.2.2c-.1 1.9-.1 1.9-.1 2.4-.2 1.4-.6 2.1-.7 2.4.6.4 1 .8 1.4 1.3l-.5.4zm-2.9-4.1c-.4-.7-.8-1.2-1.4-1.8l.5-.4c.7.7 1.1 1.2 1.4 1.7l-.5.5zM127.2 249.4l-.6-.4c.6-.3 1.5-.8 2.2-2.2-.6-.6-1-.9-1.3-1.1l.3-.5c.5.3.8.6 1.3 1 .4-1 .6-1.8.6-2.2h-1.6c-.1.3-.7 1.7-1.5 2.6l-.5-.4c1-1 1.7-2.8 1.9-4.1l.6.2.1.1c0 .1-.1.1-.2.1-.1.4-.2.6-.3.9h2.1c-.3 3.5-1.5 5-3.1 6zm6.3-1.9c-.5-.2-.9-.4-1.4-.8v3h-.6v-3.6c-.6-.6-.9-1.1-1-1.3l.4-.4c.2.3.3.5.6.8v-3l.7.1c.1 0 .1.1.1.1 0 .1-.2.2-.2.2v3.3c.7.7 1.3.9 1.6 1.1l-.2.5zM138.5 248.6c.3-.1.8-.3 1.3-.6.6-.4 1-1.2 1-2.1 0-1.3-.9-2-1.3-2.1-.3-.1-.7-.2-1.1-.2-.1 1.3-.4 2.5-1 3.6-.3.7-.8 1.5-1.3 1.5-.7 0-1.4-1.1-1.4-2.3 0-1.6 1.3-3.4 3.5-3.4 1.7 0 3.2 1.1 3.2 2.9 0 2.3-2 3.1-2.5 3.3l-.4-.6zm-2.7-3.9c-.3.4-.6.9-.6 1.6 0 .9.5 1.6.8 1.6.2 0 .4 0 .9-1.3.6-1.4.7-2.5.7-3-.5 0-1.1.2-1.8 1.1zM143.5 244.4c0 .7 0 1.7-.7 2.8l-.5-.3c.6-.9.7-1.7.7-2.8 0-.4 0-.9-.1-1.4h2.7v1.7h-2.1zm-.9 4.9v-.5h3.2v-.7h-2.4v-.5h2.4v-.8l.6.1s.1 0 .1.1-.1.1-.2.2v.5h2.3v.5h-2.3v.7h3.1v.5h-6.8zm2.4-6.2h-1.5v.8h1.5v-.8zm-1.4 3.8v-1.8h1.9v1.8h-1.9zm1.4-1.4h-.9v.9h.9v-.9zm3.1-.2v.7h1.2v.5h-1.2v.8h-.6v-.8h-1.3v-.5h1.3v-.7H146v-.5h3.5v.5h-1.4zm-1.8-1.8v-.5h1.3v-.7h.6c.1 0 .1 0 .1.1s-.1.1-.2.2v.4h1.2v.5h-3zm.7 1.2c-.1-.2-.2-.5-.5-.8l.4-.3c.3.3.4.6.5.8l-.4.3zm1.9-.6c-.2.3-.2.4-.4.6l-.4-.3c.2-.3.3-.5.5-.8l.5.3.1.1c0 .1-.1.1-.3.1zM114.8 259.8c-.2-.2-.4-.4-.6-.8v4.1h-.6v-3.8c-.2.5-.4 1.1-1 1.8l-.5-.4c.2-.2.6-.6.9-1.3.3-.6.4-1.1.5-1.3h-1.1v-.6h1.2v-1.8l.6.1c.1 0 .2 0 .2.1s0 .1-.2.2v1.4h.8v.6h-.7c.1.2.2.7 1 1.3l-.5.4zm.3 3.1v-.6h2.1v-1.9h-1.4v-.6h1.4v-1.6h-1.7v-.6h4.1v.6h-1.8v1.6h1.5v.6h-1.5v1.9h2v.6h-4.7zm2.8-5.5c-.4-.4-.8-.8-1.4-1.2l.4-.4c.5.4.9.7 1.4 1.1l-.4.5zM122.5 259.5c0 .4-.3.7-.7.7-.4 0-.7-.3-.7-.7 0-.4.3-.7.7-.7.3-.1.7.2.7.7zM127.1 259.5l.6.1s.1 0 .1.1c0 0 0 .1-.2.1v.3h3.4v.5h-2.9c.5.8 1.6 1.4 2.9 1.8l-.5.5c-1.1-.4-2.2-1-2.9-2v2.2h-.6V261c-.2.2-.6.7-1.3 1.2-.6.4-1 .6-1.6.8l-.5-.5c.9-.2 2-.7 3-1.8h-2.9v-.5h3.4v-.7zm-3-2.7c.3.2.6.4 1.1.8l-.4.4c-.4-.4-.7-.7-1-.8l.3-.4zm1.7 1.5c-.4.5-.7.9-1.2 1.3 0 .1-.1.3-.1.3s-.1 0-.1-.1l-.3-.5 1.6-1.6.1.6zm-.8-2.5c.4.2.7.4 1 .7l-.4.5c-.4-.3-.6-.5-1-.8l.4-.4zm5 .3c-.1 2.9-.2 3.6-1.5 3.6h-.5l-.2-.7c.2.1.4.2.7.2.2 0 .5-.1.6-.5.1-.3.2-1.5.2-2h-1c0 1.6-1 2.8-2.3 3.2l-.4-.5c1.3-.3 2.1-1.4 2.2-2.8h-1.6v-.5h3.8zm-3.8 2c.3-.3.6-.7.8-1.2l.4.2s.1 0 .1.1 0 .1-.2.1c-.2.4-.4.7-.7 1l-.4-.2zm4.3-.7c.3.3.5.6.8 1.1l-.5.4c-.2-.5-.5-.8-.8-1.1l.5-.4zM113 266.5c-.2.3-.5.9-.7 1.2h2.2v4.7c0 .5 0 .7-1 .6l-.2-.6h.4c.3 0 .3-.1.3-.4v-3.8h-.7v4.6h-.5v-4.6h-.8v4.6h-.5v-4.6h-.6v4.8h-.6v-5.3h1.3c.1-.2.6-1 .7-1.2h-2.1v-.5h4.6v.6H113zm3.9 2v3.8c0 .7 0 .9-1.4.8l-.2-.7c.3.1.4.1.6.1.4 0 .4-.1.4-.4v-3.7h-1.8v-.6h1.8v-2.3l.6.1c.1 0 .2 0 .2.1s0 .1-.2.2v1.9h.7v.6h-.7zm-1.5 2.6c-.2-.6-.4-1-.8-1.6l.5-.3c.3.5.6.9.8 1.6l-.5.3zM118.6 272.7c.6-.4 2.2-1.4 2.5-4.6h-2.7v-.6h2.7c0-.3.1-.6.1-1.8l.7.1s.2 0 .2.1-.1.1-.2.2c0 .8 0 .8-.1 1.4h3c0 1 0 2.8-.4 4.4-.3 1.1-.7 1.2-1.5 1.2h-.5l-.3-.8c.3 0 .7.1 1 .1.5 0 .6-.2.9-1.5.2-1 .2-1.9.2-2.9h-2.5c-.3 2.1-.9 3.9-2.6 5.1l-.5-.4zM127.2 267.8c0 .7 0 1.7-.7 2.8l-.5-.3c.6-.9.7-1.7.7-2.8 0-.4 0-.9-.1-1.4h2.7v1.7h-2.1zm-.9 5v-.5h3.2v-.7h-2.4v-.5h2.4v-.8l.6.1s.1 0 .1.1-.1.1-.2.2v.5h2.3v.5H130v.7h3.1v.5h-6.8zm2.4-6.2h-1.5v.8h1.5v-.8zm-1.4 3.8v-1.8h1.9v1.8h-1.9zm1.4-1.4h-.9v.9h.9v-.9zm3.1-.3v.7h1.2v.5h-1.2v.8h-.6v-.8H130v-.5h1.3v-.7h-1.5v-.5h3.5v.5h-1.5zM130 267v-.5h1.3v-.7h.6c.1 0 .1 0 .1.1s-.1.1-.2.2v.4h1.2v.5h-3zm.7 1.2c-.1-.2-.2-.5-.5-.8l.4-.3c.3.3.4.6.5.8l-.4.3zm1.9-.6c-.2.3-.2.4-.4.6l-.4-.3c.2-.3.3-.5.5-.8l.5.3.1.1c0 .1-.1.1-.3.1zM9.8 295h.8c.2 0 .3.1.3.1 0 .1-.1.1-.3.2v2.7h3.2v.7h-3.2v3.5h3.7v.6H6.1v-.6h3.7v-3.5H6.7v-.7h3.1v-3zM17 296c-.2.4-.3.9-.5 1.8-.1.6-.2 1.2-.2 1.8 0 .5 0 .9.1 1.3 0 .3 0 .3.1.5.1-.3.2-.5.5-1.4l.5.4c-.1.3-.4.9-.6 2.1l-.6.1c-.4-.9-.6-1.7-.6-2.9 0-.8.1-1.9.2-2.4.2-.9.2-1 .3-1.2.1-.4.1-.4.1-.5l.7.4zm1.9 4.2v.6c.2.7.7.8 1.4.8 1.1 0 1.7-.2 2.3-.4v.7c-.5.1-1 .2-2.4.2-1.2 0-2-.1-2-1.9h.7zm-.2-3.9c.2 0 .6.1 1.3.1.5 0 1.4-.1 2.2-.4v.7c-1.4.2-2.1.2-3.1.2h-.5l.1-.6zM26.3 299.2c-.3.2-.4.3-.8.5v2.6c0 .6 0 1-1.4 1l-.2-.7c.3 0 .4.1.6.1.4 0 .4-.2.4-.4v-2.1c-.3.2-.6.4-.8.5 0 .1 0 .3-.1.3s-.1-.1-.1-.1l-.2-.7c.4-.2.8-.4 1.2-.7v-1.9h-1.1v-.6h1.1v-2l.7.1c.2 0 .2.1.2.1 0 .1-.1.1-.2.2v1.5h.8v.6h-.8v1.5c.4-.2.5-.3.8-.5l-.1.7zm3-.1c.1 0 .2.1.2.1 0 .1-.1.1-.2.1-.1.2-.2.4-.4.7h3.2v.6h-1.3c-.1.3-.3.7-.7 1.2.3.1.9.4 1.6.9l-.6.5c-.2-.2-.5-.5-1.5-.9-.7.5-1.7.9-3.1 1l-.3-.6c.8 0 2-.2 2.8-.6-.6-.2-1.1-.3-1.4-.4l-.3.3-.5-.3c.2-.2.5-.5.9-1h-1.3v-.7h1.7c.3-.5.5-.9.6-1.1l.6.2zm-2.8-.9h5.6v.6h-5.6v-.6zm4.1-1.4.4.2.1.1c0 .1-.1.1-.3.1-.2.3-.3.4-.5.8l-.1.1-.5-.3c.2-.2.5-.6.7-1.1h-2.3c.1.1.2.3.6 1.1l-.6.3c-.2-.4-.4-.9-.6-1.1l.4-.2h-1.2v-.6H29V295l.7.1s.2 0 .2.1-.1.1-.2.2v.8h2.2v.6h-1.3zm-2.1 3.8c-.2.2-.3.4-.4.6.5.1 1 .2 1.5.4.3-.4.5-.7.6-1h-1.7zM37.6 295.3c0 .4-.1.7-.1 1.4 1-.1 2-.1 2.8-.2l.1.8c-1.3 0-2.2.1-2.8.1v1.6c.2.4.3 1 .3 1.3 0 .9-.4 1.7-.8 2.3-.2.4-.4.5-.7.8l-.7-.3c.3-.2.9-.8 1.3-1.7-.3.2-.7.2-.7.2-.6 0-1.2-.6-1.2-1.6 0-1.2.8-1.7 1.4-1.7.2 0 .3 0 .4.1v-.8c-1 .1-2.5.2-3.7.3v-.7c1-.1 2.7-.2 3.7-.2v-1.6l.7-.1zm-1.9 4.5c0 .6.4.9.7.9.4 0 .7-.4.7-1 0-.3-.1-.9-.6-.9-.4 0-.8.4-.8 1zM42.4 296.1c2 0 3.2-.3 3.9-.5l.3.5c-.1.1-.5.4-.5.5-.8.9-1.3 1.4-2 1.9.3-.1.6-.3 1.2-.3.7 0 2.3.3 2.3 2.1s-1.8 2.5-2.9 2.5c-.8 0-1.8-.3-1.8-1.2 0-.6.5-1.1 1.3-1.1 1.2 0 1.7 1 1.9 1.3.3-.2.9-.7.9-1.5 0-.6-.4-1.5-1.7-1.5-1.6 0-3.1 1.6-3.3 1.8l-.6-.5c1.6-1.2 2.9-2.6 3.9-3.7-.5.1-1.5.3-2.6.4l-.3-.7zm1.7 5c-.4 0-.6.3-.6.5 0 .4.7.6 1.1.6.3 0 .5 0 .8-.1-.2-.3-.5-1-1.3-1zM53.7 298.5v.6h-4.8v-.6h3.5l-.5-.3c.3-.4.4-.9.5-1.4l.6.2.1.1c0 .1-.1.1-.2.1-.2.7-.4 1-.5 1.2h1.3zm-2.7-3.6h.8s.1 0 .1.1-.1.2-.2.2v.7h1.8v.6h-4.3v-.5H51v-1.1zm-1.5 5.1h3.7v3.4h-.7v-.5h-2.4v.6h-.6V300zm.6-3.3c.3.5.5.9.7 1.4l-.6.3c-.2-.5-.3-.9-.7-1.4l.6-.3zm2.4 5.5v-1.6h-2.4v1.6h2.4zm4.6-6.2c-.7 1.6-1.1 2.3-1.3 2.7.8.7 1.3 1.5 1.3 2.5 0 1.4-1.1 1.6-1.9 1.6l-.3-.8h.5c.4 0 .6 0 .8-.3.2-.2.3-.5.3-.7 0-1.1-.9-2-1.4-2.4.5-.8.9-1.6 1.2-2.4h-1.5v7.2h-.7v-7.8h2.6l.4.4zM61.3 295.9c-.4 1-1.1 2.6-2.7 3.8l-.5-.5c.8-.5 1.9-1.4 2.7-3.9l.6.3c.1.1.2.1.2.2 0 0-.1.1-.3.1zm3 6.8c-.3.7-.8.7-1.7.7l-.2-.7c.2 0 .4.1.7.1.4 0 .6-.2.7-.8.1-.6.1-1.3.2-2.4h-2c-.2 1.8-.8 3-2.3 3.9l-.6-.5c1.7-.8 2-1.9 2.2-3.4h-1.4v-.6h4.8c-.1.9-.1 2.8-.4 3.7zm1.6-3.2c-.6-.4-1.3-.9-2-2-.3-.5-.5-1.1-.5-1.6h-1.2v-.6H64c0 .6.1 1.3.7 2.2.6.9 1.3 1.3 1.8 1.6l-.6.4zM104.9 294c-.2-.2-.4-.4-.6-.8v4.1h-.6v-3.8c-.2.5-.4 1.1-1 1.8l-.5-.4c.2-.2.6-.6.9-1.3.3-.6.4-1.1.5-1.3h-1.1v-.6h1.2V290l.6.1c.1 0 .2 0 .2.1s0 .1-.2.2v1.4h.8v.6h-.7c.1.2.2.7 1 1.3l-.5.3zm.2 3.1v-.6h2.1v-1.9h-1.4v-.6h1.4v-1.6h-1.7v-.4h4.1v.6h-1.8v1.6h1.5v.6h-1.5v1.9h2v.6h-4.7zm2.9-5.5c-.4-.4-.8-.8-1.4-1.2l.4-.4c.5.4.9.7 1.4 1.1l-.4.5zM112.6 293.7c0 .4-.3.7-.7.7-.4 0-.7-.3-.7-.7 0-.4.3-.7.7-.7.3-.1.7.3.7.7zM117.2 293.8l.6.1s.1 0 .1.1c0 0 0 .1-.2.1v.3h3.4v.5h-2.9c.5.8 1.6 1.4 2.9 1.8l-.5.5c-1.1-.4-2.2-1-2.9-2v2.2h-.6v-2.2c-.2.2-.6.7-1.3 1.2-.6.4-1 .6-1.6.8l-.5-.5c.9-.2 2-.7 3-1.8h-2.9v-.5h3.4v-.6zm-3-2.7c.3.2.6.4 1.1.8l-.4.4c-.4-.4-.7-.7-1-.8l.3-.4zm1.7 1.4c-.4.5-.7.9-1.2 1.3 0 .1-.1.3-.1.3s-.1 0-.1-.1l-.3-.5 1.6-1.6.1.6zm-.8-2.5c.4.2.7.4 1 .7l-.4.5c-.4-.3-.6-.5-1-.8l.4-.4zm5 .3c-.1 2.9-.2 3.6-1.5 3.6h-.5l-.2-.7c.2.1.4.2.7.2.2 0 .5-.1.6-.5.1-.3.2-1.5.2-2h-1c0 1.6-1 2.8-2.3 3.2l-.4-.5c1.3-.3 2.1-1.4 2.2-2.8h-1.6v-.5h3.8zm-3.9 2c.3-.3.6-.7.8-1.2l.4.2s.1 0 .1.1 0 .1-.2.1c-.2.4-.4.7-.7 1l-.4-.2zm4.4-.7c.3.3.5.6.8 1.1l-.5.4c-.2-.5-.5-.8-.8-1.1l.5-.4zM123.9 293.7c0 .4-.3.7-.7.7-.4 0-.7-.3-.7-.7 0-.4.3-.7.7-.7.3-.1.7.3.7.7zM126.4 291.4v1.4c0 2.3-.3 3.5-.8 4.5l-.6-.3c.2-.3.5-.9.7-2.1 0-.3.1-.9.1-2 0-.3 0-1.2-.1-2.1h2.9v-.9h.6s.1 0 .1.1-.1.1-.2.2v.6h3.2v.6h-5.9zm5.7 5.2c-1.1-.7-1.8-1.4-2.4-2.2v3.1h-.6v-3.1c-.4.7-.8 1.4-2.1 2.5l-.5-.4c.7-.5 1.7-1.3 2.4-2.8h-2.2v-.7h2.4v-1.1h.6s.2 0 .2.1-.1.1-.2.2v.8h2.6v.5h-2.5c.7 1.1 1.3 1.8 2.8 2.5l-.5.6zM138.9 291.4c-.4.2-.4.3-.5.4-.5 1-.7 1.4-1.2 2 .8.6 1.6 1.4 2.2 2.4l-.6.5c-.2-.4-.5-.8-1.1-1.4-.5-.5-.8-.7-1-.9-1 1.2-1.9 1.7-3 2.2l-.5-.6c.7-.2 1.6-.5 2.7-1.6s1.5-2 1.7-2.7h-3.5v-.7h3.7c.1 0 .3-.1.4-.2l.7.6zM140.4 293.1v-.6h4.9c.1 0 .3-.1.5-.2l.5.6-.3.3c-.8 1.5-.9 1.7-1.1 2-1 1.3-1.9 1.6-2.8 1.9l-.5-.5c.7-.2 1.5-.4 2.5-1.3.8-.8 1.1-1.6 1.3-2.1h-5zm4.8-1.9h-3.9v-.6h3.9v.6zM147 291.9v-.6h4.5c.1 0 .2-.1.4-.2l.6.5s-.2.2-.2.3v.1c-.6 2.2-1.2 3-2.2 3.9-.5.4-.9.6-1.8 1.1l-.6-.6c.7-.2 1.6-.5 2.4-1.4 1.1-1.1 1.3-2.1 1.5-3.1H147zm4.9-.9c-.2-.3-.5-.7-.6-.8l.4-.3c.2.2.4.5.6.8l-.4.3zm1.2-.3c-.2-.3-.5-.6-.6-.8l.4-.3c.3.3.6.7.6.8l-.4.3zM155.8 293.7c0 .4-.3.7-.7.7-.4 0-.7-.3-.7-.7 0-.4.3-.7.7-.7.3-.1.7.3.7.7zM159.9 290.8c-.2.3-.5.9-.7 1.2h2.2v4.7c0 .5 0 .7-1 .6l-.2-.6h.4c.3 0 .3-.1.3-.4v-3.8h-.7v4.6h-.5v-4.6h-.7v4.6h-.5v-4.6h-.6v4.8h-.6V292h1.3c.1-.2.6-1 .7-1.2h-2.1v-.6h4.6v.6h-1.9zm4 1.9v3.8c0 .7 0 .9-1.4.8l-.2-.7c.3.1.4.1.6.1.4 0 .4-.1.4-.4v-3.7h-1.8v-.6h1.8v-2.3l.6.1c.1 0 .2 0 .2.1s0 .1-.2.2v1.9h.7v.6h-.7zm-1.6 2.7c-.2-.6-.4-1-.8-1.6l.5-.3c.3.5.6.9.8 1.6l-.5.3zM165.6 297c.6-.4 2.2-1.4 2.5-4.6h-2.7v-.6h2.7c0-.3 0-.6.1-1.8l.7.1s.2 0 .2.1-.1.1-.2.2c0 .8 0 .8-.1 1.4h3c0 1 0 2.8-.4 4.4-.3 1.1-.7 1.2-1.5 1.2h-.5l-.3-.8c.3 0 .7.1 1 .1.5 0 .6-.2.9-1.5.2-1 .2-1.9.2-2.9h-2.5c-.3 2.1-.9 3.9-2.6 5.1l-.5-.4zM174.2 292.1c0 .7-.1 1.7-.7 2.8l-.5-.3c.6-.9.7-1.7.7-2.8 0-.4 0-.9-.1-1.4h2.7v1.7h-2.1zm-1 5v-.5h3.2v-.7H174v-.5h2.4v-.8l.6.1c.1 0 .1 0 .1.1s-.1.1-.2.2v.5h2.3v.5H177v.7h3.1v.5h-6.9zm2.5-6.2h-1.5v.8h1.5v-.8zm-1.5 3.8v-1.8h1.9v1.8h-1.9zm1.4-1.4h-.9v.9h.9v-.9zm3.2-.3v.7h1.2v.5h-1.2v.8h-.6v-.8h-1.3v-.5h1.3v-.7h-1.4v-.5h3.5v.5h-1.5zm-1.9-1.7v-.5h1.3v-.8h.6c.1 0 .1 0 .1.1s-.1.1-.2.2v.4h1.2v.5h-3zm.8 1.2c-.1-.2-.2-.5-.5-.8l.4-.3c.3.3.4.6.5.8l-.4.3zm1.9-.6c-.2.3-.2.4-.4.6l-.4-.3c.2-.3.3-.5.5-.8l.5.3.1.1c-.1.1-.2.1-.3.1zM129.1 306.1c.5.7 1.5 1.3 2.4 1.6l-.5.4c-1-.4-1.9-1.1-2.5-2h-2c-.8 1.2-1.9 1.9-2.4 2.1l-.5-.4c1.4-.7 1.9-1.3 2.2-1.7h-2v-.5h2v-2.4h-1.4v-.5h1.4v-.9h.6c.1 0 .2 0 .2.1 0 0 0 .1-.2.2v.6h2.1v-1h.6c.1 0 .2 0 .2.1s-.1.1-.2.2v.6h1.5v.5h-1.5v2.4h2.1v.5h-2.1zm-1.3.3c.1 0 .2 0 .2.1s-.1.1-.2.1v.6h1.3v.5h-1.3v.8h2.5v.5h-5.5v-.5h2.4v-.8h-1.4v-.5h1.4v-.9l.6.1zm.7-3.2h-2.1v.5h2.1v-.5zm0 .9h-2.1v.5h2.1v-.5zm-2.1 1v.5h2.1v-.5h-2.1zM133.3 308.2v.7h-.6v-2.8c-.2.5-.3.6-.4.7l-.5-.3c.5-.6 1.1-1.7 1.1-3.5h-.8v-.6h2.3v.6h-.9c0 .7-.1 1.3-.3 2h1.4v3.2h-1.3zm.7-2.7h-.8v2.2h.8v-2.2zm2.4-1.1c-.2-.2-.3-.3-.4-.5v1.1h-.5v-1.2c-.3.5-.6.8-1 1.1l-.4-.3c.3-.2.8-.6 1.2-1.4h-.6v-.5h.8v-1l.6.1c.1 0 .2.1.2.1 0 .1-.1.1-.2.2v.7h.7v.5h-.6c.2.4.5.6.7.8l-.5.3zm2.8 4.7c-.4 0-1.9 0-2.6-.2-.4-.1-.8-.5-.9-1-.2.8-.5 1.1-1 1.4l-.4-.4c.9-.5 1-1.2 1.1-2.4l.6.1c.1 0 .2.1.2.1 0 .1 0 .1-.2.1v.2c0 .9.6 1.2.8 1.3V306H135v-.5h4.1l.3.4c-.3.3-.5.6-.9.9l-.4-.3c.2-.1.3-.3.4-.5h-1.3v1h1.5v.5h-1.5v1h.8c.4 0 .9 0 1.3-.1l-.1.7zm-.1-4.2c-.4-.4-.7-.8-.8-1.2v1.3h-.5v-1.2c-.3.6-.6.9-1 1.2l-.4-.3c.5-.4.9-.8 1.1-1.5h-.5v-.5h.8v-1h.5c.2 0 .2.1.2.1s0 .1-.2.2v.7h1v.5h-.8c.2.6.7 1 1 1.3l-.4.4zM142.2 305.5c0 .4-.3.7-.7.7-.4 0-.7-.3-.7-.7 0-.4.3-.7.7-.7.3-.1.7.3.7.7zM144.8 306.1v2.4c0 .6-.2.7-.7.7h-.4l-.2-.6c.1 0 .3.1.5.1s.2-.1.2-.3v-1.8c-.2.1-.2.1-.6.4 0 .1-.1.2-.1.2-.1 0-.1-.1-.1-.1l-.2-.6c.5-.2.8-.3 1-.5v-1.8h-.8v-.5h.8v-1.8h.6c.1 0 .2 0 .2.1s-.1.1-.2.2v1.5h.6v.5h-.6v1.5c.5-.2.6-.4.8-.5v.6c0-.1-.7.3-.8.3zm2.7.2c-.1.9-.3 1.9-1.6 2.7l-.5-.4c.7-.5 1.1-1 1.3-1.7-.2 0-1.2.2-1.3.2 0 .1-.1.2-.2.2s-.1-.1-.1-.2l-.1-.6h.4c.3-.3.5-.6.7-.9-.2-.3-.6-.8-1-1l.3-.4.2.2c.1-.2.4-.6.6-1.1l.5.3c.1 0 .1.1.1.1 0 .1-.1.1-.2.1 0 .1-.4.7-.6 1 .2.2.2.2.3.4l.4-.8.5.2c.1 0 .1.1.1.1 0 .1-.2.1-.2.1-.3.5-.8 1.3-1.2 1.7.1 0 .4 0 .7-.1 0-.1 0-.4.1-.5l.6.2c.1 0 .1 0 .1.1.3 0 .1.1.1.1zm-1.9-3.3v-.5h2.2v-.8h.6c.1 0 .2 0 .2.1s-.1.1-.2.2v.5h2.3v.5h-5.1zm2.8 5.7v.5h-.5v-3.8c-.1.1-.2.3-.3.4l-.4-.3c.7-.9 1.1-2.1 1.1-2.3l.5.2s.1 0 .1.1-.1.1-.2.1c-.1.3-.1.4-.2.6h.6c.3-.4.4-.7.6-1l.5.2s.1 0 .1.1-.1.1-.2.1l-.4.6h1.1v.5h-.8v.8h.7v.5h-.7v.8h.7v.5h-.7v.8h.9v.5h-2.5zm1-3.9h-1v.8h1v-.8zm0 1.3h-1v.8h1v-.8zm0 1.3h-1v.8h1v-.8zM152.8 303.9c0 .7 0 1.7-.7 2.8l-.5-.3c.6-.9.7-1.7.7-2.8 0-.4 0-.9-.1-1.4h2.7v1.7h-2.1zm-.9 5v-.5h3.2v-.7h-2.4v-.5h2.4v-.8l.6.1s.1 0 .1.1-.1.1-.2.2v.5h2.3v.5h-2.3v.7h3.1v.5h-6.8zm2.4-6.2h-1.5v.8h1.5v-.8zm-1.4 3.8v-1.8h1.9v1.8h-1.9zm1.4-1.4h-.9v.9h.9v-.9zm3.1-.3v.7h1.2v.5h-1.2v.8h-.6v-.8h-1.3v-.5h1.3v-.7h-1.5v-.5h3.5v.5h-1.4zm-1.8-1.7v-.5h1.3v-.7h.6c.1 0 .1 0 .1.1s-.1.1-.2.2v.4h1.2v.5h-3zm.7 1.2c-.1-.2-.2-.5-.5-.8l.4-.3c.3.3.4.6.5.8l-.4.3zm1.9-.6c-.2.3-.2.4-.4.6l-.4-.3c.2-.3.3-.5.5-.8l.5.3.1.1c0 .1-.1.1-.3.1zM187.1 238.1v-.5h2.7v-.7H188v-.5h1.8v-.8c-.2 0-.9.1-1 .1-.3 0-.4 0-.6.1 0 .1-.1.2-.2.2 0 0-.1 0-.1-.1l-.2-.6h.9c.2-.4.4-.7.6-1h-1.6c0 .7-.1 1.4-.2 2-.2.9-.5 1.4-.9 2l-.5-.3c.9-1.4 1-2.6 1-4.4 0-.7 0-1.5-.1-2.2h6v1.8h-5.3v.6h5.7v.5h-1.6c.9 1 1.1 1.4 1.3 1.6l-.5.3c-.2-.3-.3-.4-.5-.8-.6.1-.7.1-1.6.2v.8h1.9v.5h-1.9v.7h3v.5h-6.3zm5.2-6.4h-4.8v.8h4.7v-.8zm-1.1 2.6.2-.2h-1.6c-.1.2-.5.8-.6.9.7-.1 1.3-.1 2.4-.2 0 0-.2-.3-.4-.5zM200.6 238.3h-.7l-.3-.7c.2 0 .5.1.9.1.3 0 .3-.1.3-.4V233h-2.3c.3 1.4 1 2.3 2.2 3l-.5.5c-.5-.3-1-.7-1.3-1.2-.6-.7-.7-1.3-.8-1.6-.4 1.5-1.2 2.2-2.2 2.8l-.5-.4c.5-.3 1-.6 1.4-1.3.5-.7.7-1.4.7-1.9h-2.2v5.4h-.6v-5.9h2.9c0-.4.1-.8 0-1.6l.7.1c.2 0 .2.1.2.1 0 .1-.1.1-.2.2v1.2h3v5.2c0 .4 0 .7-.7.7zM227.3 216.7v3.5h-.5v-.9c-.6.2-1.5.4-2.1.5 0 .1-.1.2-.1.2s-.1-.1-.1-.2l-.2-.5c.2 0 .5 0 .8-.1v-2.5h-.7v-.5h6.4v.5h-3.5zm-1.9-.8v-2h4.3v2h-4.3zm1.5.8h-1.3v.5h1.3v-.5zm0 .9h-1.3v.5h1.3v-.5zm0 .9h-1.3v.6c.5-.1.8-.2 1.3-.3v-.3zm2.3-4.2h-3.3v.4h3.3v-.4zm0 .7h-3.3v.4h3.3v-.4zm1.2 5.2c-.6-.3-1-.6-1.3-.8-.5.4-1 .6-1.3.8l-.3-.4c.5-.2.9-.4 1.3-.7-.3-.4-.5-.8-.6-1.2l.4-.1c.1.3.2.7.5 1 .2-.2.5-.5.6-1.1h-2.1v-.4h2.5l.2.2c-.2.7-.5 1.1-.9 1.6.5.4.9.6 1.3.7l-.3.4zM233.4 215.7c-.3 1-.8 2-1.4 2.9l-.5-.2c.8-1 1.2-2 1.5-3l.5.2s.1 0 .1.1h-.2zm1.7-1.7v5.5c0 .7-.3.7-1.4.7l-.1-.6h.7c.3 0 .3-.1.3-.3v-5.6l.6.1c.1 0 .2 0 .2.1-.1 0-.2 0-.3.1zm2.6 4.6c-.7-1.2-1.1-2.2-1.4-3.1l.5-.2c.4 1.4.9 2.3 1.4 3l-.5.3zM219 223.3c.9-.1 1.3-.2 1.6-.3.1-.6.2-1 .2-1.6l.6.3c-.1.3-.2.6-.3 1.1.3-.1.5-.1.6-.1.2 0 .4 0 .7.2.3.3.4.8.4 1.1 0 .9-.3 1.7-.5 2.2-.2.3-.5.6-1 .6h-.4l-.2-.6c.4.1.5.1.6.1.3 0 .5-.1.6-.5.2-.5.4-1.1.4-1.8 0-.3 0-.8-.6-.8-.2 0-.3 0-.7.1-.3 1-.6 2.1-1.6 3.5l-.5-.3c.4-.5 1-1.2 1.5-3.1-.5.2-.8.2-1.2.3l-.2-.4zm4.5-1.1c.7.8 1 1.3 1 1.8s-.3.6-.8.7l-.3-.6h.3c.2 0 .2-.1.2-.2 0-.3-.1-.4-.3-.7-.3-.4-.4-.6-.6-.8l.5-.2zM227.1 225.1c-.5.5-1 .9-1.6 1.2l-.2-.6c.7-.3 1.3-.7 1.7-1.2l.1.6zm1.1-1.9c-.1.1-.1.3-.1.4 0 .3.1.3.6.9.2.3.7.8.7 1.5 0 .8-.8.9-1.2.9-.3 0-.5 0-1-.2l-.2-.6c.6.2.9.3 1.2.3.3 0 .6-.1.6-.6 0-.4-.2-.7-.5-1-.6-.6-.7-.9-.7-1.2 0-.3.1-.5.2-.6l.4.2zm-.8-1.7c.4.1 1.1.2 1.7.5l-.2.5c-.5-.3-.8-.4-1.7-.6l.2-.4zm2.4 2.2c.4.3.7.6 1.4 1.8l-.5.4c-.3-.8-.8-1.4-1.3-1.9l.4-.3zm.1-1.6c.4.3.7.8.7.8l-.4.3c-.2-.4-.6-.7-.7-.8l.4-.3zm.6-.7c.4.2.6.7.7.8l-.4.3c-.2-.4-.5-.7-.7-.8l.4-.3zM233 221.7c-.2.7-.3 1.5-.3 2.2 0 .2 0 .2.1.3.2-.3.4-.7.5-1.1l.3.3c-.2.4-.2.6-.8 2.1h-.3c-.2-.6-.3-1.2-.3-1.8 0-.8.1-1.6.3-2.4l.5.4zm3-.2v.5c.1 1 .1 1.2.1 1.5 0 1.2-.3 2.1-.7 2.7-.2.4-.4.6-.8 1l-.5-.3c.3-.2.7-.5 1-1.3.3-.7.4-1.4.4-2 0-1-.1-1.6-.2-2.1h.7zM238.2 221.6v1.4c0 1.6 0 2.9-.7 4.1l-.5-.3c.6-1 .7-2 .7-3.5 0-.7 0-1.9-.1-2.2h5.9v.4h-5.3zm2.9 4.6v.8c0 .5-.3.5-1.1.5l-.1-.6c.2 0 .4.1.6.1.2 0 .2-.1.2-.2v-.5h-2.3v-.5h2.3v-.5h.5c.2-.1.3-.2.5-.3h-2.9v-.4h4l.1.2c-.5.3-.9.5-1.7 1h2.4v.5h-2.5zm-2.2-2.1V222h3.8v2.1h-3.8zm3.3-1.7h-2.8v.4h2.8v-.4zm0 .9h-2.8v.4h2.8v-.4zM187.1 250.2v-.5h2.7v-.7H188v-.5h1.8v-.8c-.2 0-.9.1-1 .1h-.6c0 .1-.1.2-.2.2s-.1 0-.1-.1l-.2-.6h.9c.2-.3.4-.7.6-1h-1.6c0 .7-.1 1.4-.2 2-.2.9-.5 1.4-.9 2l-.5-.3c.9-1.4 1-2.6 1-4.4 0-.7 0-1.5-.1-2.2h6v1.8h-5.3v.6h5.7v.5h-1.6c.9 1 1.1 1.4 1.3 1.6l-.5.3c-.2-.3-.3-.4-.5-.8-.6.1-.7.1-1.6.2v.8h1.9v.5h-1.9v.7h3v.5h-6.3zm5.2-6.4h-4.8v.8h4.7v-.8zm-1.2 2.7.2-.2h-1.6c-.1.1-.5.8-.6.9.7 0 1.3-.1 2.4-.2.1-.1-.2-.3-.4-.5zM195.3 250.3l-.6-.4c.6-.3 1.5-.8 2.2-2.2-.6-.6-1-.9-1.3-1.1l.3-.5c.5.3.8.6 1.3 1 .4-1 .6-1.8.6-2.2h-1.6c-.1.3-.7 1.7-1.5 2.6l-.5-.4c1-1 1.7-2.8 1.9-4.1l.6.2.1.1s-.1.1-.2.1c-.1.4-.2.6-.3.9h2.1c-.4 3.5-1.5 4.9-3.1 6zm6.3-2c-.5-.2-.9-.4-1.4-.8v3h-.6v-3.6c-.6-.6-.9-1.1-1-1.3l.4-.4c.2.3.3.5.6.8v-3l.7.1c.1 0 .1.1.1.1 0 .1-.2.2-.2.2v3.3c.7.7 1.3.9 1.6 1.1l-.2.5zM187.1 262v-.5h2.7v-.7H188v-.5h1.8v-.8c-.2 0-.9.1-1 .1h-.6c0 .1-.1.2-.2.2 0 0-.1 0-.1-.1l-.2-.6h.9c.2-.3.4-.7.6-1h-1.6c0 .7-.1 1.4-.2 2-.2.9-.5 1.4-.9 2l-.5-.3c.9-1.4 1-2.6 1-4.4 0-.7 0-1.5-.1-2.2h6v1.8h-5.3v.6h5.7v.5h-1.6c.9 1 1.1 1.4 1.3 1.6l-.5.3c-.2-.3-.3-.4-.5-.8-.6.1-.7.1-1.6.2v.8h1.9v.5h-1.9v.7h3v.5h-6.3zm5.2-6.4h-4.8v.8h4.7v-.8zm-1.1 2.6.2-.2h-1.6c-.1.1-.5.8-.6.9.7 0 1.3-.1 2.4-.2 0 0-.2-.3-.4-.5zM200.6 262.1h-.7l-.3-.7c.2 0 .5.1.9.1.3 0 .3-.1.3-.4v-4.2h-2.3c.3 1.4 1 2.3 2.2 3l-.5.5c-.5-.3-1-.7-1.3-1.2-.6-.7-.7-1.3-.8-1.6-.4 1.5-1.2 2.2-2.2 2.8l-.5-.4c.5-.3 1-.6 1.4-1.3.5-.7.7-1.4.7-1.9h-2.2v5.4h-.6v-5.9h2.9c0-.4.1-.8 0-1.6l.7.1c.2 0 .2.1.2.1 0 .1-.1.1-.2.2v1.2h3v5.2c0 .4 0 .6-.7.6zM187.1 273.7v-.5h2.7v-.7H188v-.5h1.8v-.8c-.2 0-.9.1-1 .1h-.6c0 .1-.1.2-.2.2s-.1 0-.1-.1l-.2-.6h.9c.2-.3.4-.7.6-1h-1.6c0 .7-.1 1.4-.2 2-.2.9-.5 1.4-.9 2l-.5-.3c.9-1.4 1-2.6 1-4.4 0-.7 0-1.5-.1-2.2h6v1.8h-5.3v.6h5.7v.5h-1.6c.9 1 1.1 1.4 1.3 1.6l-.5.3c-.2-.3-.3-.4-.5-.8-.6.1-.7.1-1.6.2v.8h1.9v.5h-1.9v.7h3v.5h-6.3zm5.2-6.4h-4.8v.8h4.7v-.8zm-1.2 2.6.2-.2h-1.6c-.1.1-.5.8-.6.9.7 0 1.3-.1 2.4-.2.1 0-.2-.3-.4-.5zM195.3 273.7l-.6-.4c.6-.3 1.5-.8 2.2-2.2-.6-.6-1-.9-1.3-1.1l.3-.5c.5.3.8.6 1.3 1 .4-1 .6-1.8.6-2.2h-1.6c-.1.3-.7 1.7-1.5 2.6l-.5-.4c1-1 1.7-2.8 1.9-4.1l.6.2.1.1c0 .1-.1.1-.2.1-.1.4-.2.6-.3.9h2.1c-.4 3.5-1.5 4.9-3.1 6zm6.3-2c-.5-.2-.9-.4-1.4-.8v3h-.6v-3.6c-.6-.6-.9-1.1-1-1.3l.4-.4c.2.3.3.5.6.8v-3l.7.1c.1 0 .1.1.1.1 0 .1-.2.2-.2.2v3.3c.7.7 1.3.9 1.6 1.1l-.2.5zM228.1 238.3c-.8 0-1.7-.2-2.3-1-.4-.6-.4-1.1-.5-1.4h.9c0 .4.1 1.7 1.8 1.7 1.2 0 1.8-.7 1.8-1.6 0-1-.9-1.4-1.6-1.4h-.8v-.6h.6c.6 0 1.5-.3 1.5-1.3 0-.5-.3-1.2-1.5-1.2-.5 0-1 .1-1.3.5-.3.4-.3.7-.4 1h-.9c.1-1.7 1.4-2.2 2.5-2.2 1.4 0 2.4.8 2.4 1.9 0 1.2-.9 1.5-1.2 1.6.4.1 1.5.4 1.5 1.8.2 1.2-.8 2.2-2.5 2.2zM234.3 238.3c-2.2 0-2.7-2-2.7-3.8s.5-3.8 2.7-3.8 2.7 2 2.7 3.8c0 1.8-.5 3.8-2.7 3.8zm0-6.8c-1.4 0-1.8 1.4-1.8 3 0 1.7.4 3 1.8 3s1.8-1.4 1.8-3-.4-3-1.8-3zM229.8 248.2v1.7h-.9v-1.7h-3.5v-.8l3.6-4.7h.8v4.7h1.1v.8h-1.1zm-.9-4.2-2.6 3.5h2.6V244zM234.3 250.1c-2.2 0-2.7-2-2.7-3.8s.5-3.8 2.7-3.8 2.7 2 2.7 3.8c0 1.8-.5 3.8-2.7 3.8zm0-6.8c-1.4 0-1.8 1.4-1.8 3 0 1.7.4 3 1.8 3s1.8-1.4 1.8-3-.4-3-1.8-3zM229.8 260.3v1.7h-.9v-1.7h-3.5v-.8l3.6-4.7h.8v4.7h1.1v.8h-1.1zm-.9-4.3-2.6 3.5h2.6V256zM234.3 262.2c-2.2 0-2.7-2-2.7-3.8 0-1.8.5-3.8 2.7-3.8s2.7 2 2.7 3.8c0 1.8-.5 3.8-2.7 3.8zm0-6.8c-1.4 0-1.8 1.4-1.8 3 0 1.7.4 3 1.8 3s1.8-1.4 1.8-3c0-1.7-.4-3-1.8-3zM228 273.5c-1.6 0-2.4-.8-2.6-2h.9c.1.9.9 1.3 1.7 1.3 1 0 1.9-.6 1.9-1.8 0-.3-.1-1.7-1.7-1.7-.4 0-1.1.1-1.5.6h-.9l.6-3.8h4.1v.7h-3.3l-.4 2.2c.3-.2.7-.5 1.5-.5 1.5 0 2.5.8 2.5 2.4 0 1.8-1.3 2.6-2.8 2.6zM234.3 273.5c-2.2 0-2.7-2-2.7-3.8 0-1.8.5-3.8 2.7-3.8s2.7 2 2.7 3.8c0 1.9-.5 3.8-2.7 3.8zm0-6.8c-1.4 0-1.8 1.4-1.8 3 0 1.7.4 3 1.8 3s1.8-1.4 1.8-3-.4-3-1.8-3zM228 285.6c-1.6 0-2.4-.8-2.6-2h.9c.1.9.9 1.3 1.7 1.3 1 0 1.9-.6 1.9-1.8 0-.3-.1-1.7-1.7-1.7-.4 0-1.1.1-1.5.6h-.9l.6-3.8h4.1v.7h-3.3l-.4 2.2c.3-.2.7-.5 1.5-.5 1.5 0 2.5.8 2.5 2.4 0 1.8-1.3 2.6-2.8 2.6zM234.3 285.6c-2.2 0-2.7-2-2.7-3.8 0-1.8.5-3.8 2.7-3.8s2.7 2 2.7 3.8c0 1.8-.5 3.8-2.7 3.8zm0-6.8c-1.4 0-1.8 1.4-1.8 3 0 1.7.4 3 1.8 3s1.8-1.4 1.8-3-.4-3-1.8-3zM228 297.4c-1.6 0-2.4-.8-2.6-2h.9c.1.9.9 1.3 1.7 1.3 1 0 1.9-.6 1.9-1.8 0-.3-.1-1.7-1.7-1.7-.4 0-1.1.1-1.5.6h-.9l.6-3.8h4.1v.7h-3.3l-.4 2.2c.3-.2.7-.5 1.5-.5 1.5 0 2.5.8 2.5 2.4 0 1.7-1.3 2.6-2.8 2.6zM234.3 297.4c-2.2 0-2.7-2-2.7-3.8 0-1.8.5-3.8 2.7-3.8s2.7 2 2.7 3.8c0 1.8-.5 3.8-2.7 3.8zm0-6.9c-1.4 0-1.8 1.4-1.8 3 0 1.7.4 3 1.8 3s1.8-1.4 1.8-3-.4-3-1.8-3zM227.7 309h-.9c.1-1.2.6-2.4 1.1-3.5.7-1.5 1.3-2.2 2-3h-4.3v-.7h5.2v.7c-1.7 1.8-2.8 4.1-3.1 6.5zM234.3 309.2c-2.2 0-2.7-2-2.7-3.8 0-1.8.5-3.8 2.7-3.8s2.7 2 2.7 3.8c0 1.8-.5 3.8-2.7 3.8zm0-6.9c-1.4 0-1.8 1.4-1.8 3 0 1.7.4 3 1.8 3s1.8-1.4 1.8-3-.4-3-1.8-3zM135 282.6v2.4c0 .6-.2.7-.7.7h-.4l-.1-.6c.1 0 .3.1.5.1s.2-.1.2-.3v-1.8c-.2.1-.2.1-.6.4 0 .1 0 .2-.1.2s-.1-.1-.1-.1l-.2-.6c.5-.2.8-.3 1-.5v-1.8h-.8v-.7h.8v-1.8h.6c.1 0 .2 0 .2.1s-.1.1-.2.2v1.5h.6v.5h-.7v1.5c.5-.2.6-.4.8-.5v.6c0 .1-.6.4-.8.5zm2.7.1c-.1.9-.3 1.9-1.6 2.7l-.5-.4c.7-.5 1.1-1 1.4-1.7-.2 0-1.2.2-1.3.2 0 .1-.1.2-.2.2s-.1-.1-.1-.2l-.1-.6h.4c.3-.3.5-.6.7-.9-.2-.3-.6-.8-1-1l.3-.4.2.2c.1-.2.4-.6.6-1.1l.5.3c.1 0 .1.1.1.1 0 .1-.1.1-.3.1 0 .1-.4.7-.6 1 .2.2.2.2.3.4l.4-.8.5.2c.1 0 .1.1.1.1 0 .1-.1.1-.2.1-.3.5-.8 1.3-1.2 1.7.1 0 .4 0 .7-.1 0-.1 0-.4.1-.5l.6.2c.1 0 .1 0 .1.1.3.1.1.1.1.1zm-1.9-3.2v-.5h2.2v-.8h.6c.1 0 .2 0 .2.1s-.1.1-.2.2v.5h2.3v.5h-5.1zm2.8 5.6v.5h-.5v-3.8c-.1.1-.2.3-.3.4l-.4-.3c.7-.9 1.1-2.1 1.1-2.3l.5.2s.1 0 .1.1-.1.1-.2.1c-.1.3-.1.4-.2.6h.6c.3-.4.4-.7.6-1l.5.2s.1 0 .1.1-.1.1-.2.1l-.4.6h1.1v.5h-.8v.8h.7v.5h-.7v.8h.7v.5h-.7v.8h.9v.5h-2.5zm1-3.9h-1v.8h1v-.8zm0 1.3h-1v.8h1v-.8zm0 1.3h-1v.8h1v-.8zM143 280.4c0 .7-.1 1.7-.7 2.8l-.5-.3c.6-.9.7-1.7.7-2.8 0-.4 0-.9-.1-1.4h2.7v1.7H143zm-.9 4.9v-.5h3.2v-.7h-2.4v-.5h2.4v-.8l.6.1c.1 0 .1 0 .1.1s-.1.1-.2.2v.5h2.3v.5h-2.3v.7h3.1v.5h-6.8zm2.4-6.2H143v.8h1.5v-.8zm-1.4 3.8v-1.8h1.9v1.8h-1.9zm1.4-1.4h-.9v.9h.9v-.9zm3.1-.2v.7h1.2v.5h-1.2v.8h-.6v-.8h-1.3v-.5h1.3v-.7h-1.4v-.5h3.5v.5h-1.5zm-1.8-1.8v-.5h1.3v-.7h.6c.1 0 .1 0 .1.1s-.1.1-.2.2v.4h1.2v.5h-3zm.7 1.2c-.1-.2-.2-.5-.5-.8l.4-.3c.3.3.4.6.5.8l-.4.3zm1.9-.6c-.2.3-.2.4-.4.6l-.4-.3c.2-.3.3-.5.5-.8l.5.3.1.1c0 .1-.1.1-.3.1zM4.8 322.3c-.3-.2-.8-.5-1.3-.7l.3-.5c.7.3 1 .5 1.3.7l-.3.5zm-.2 3.2s.1.1.1.2c0 0 0 .1-.1.1 0 0-.1 0-.1-.1l-.5-.4c.1-.2.4-.6.7-1.3.1-.2.5-1.1.6-1.3l.4.4c-.2.4-.6 1.3-1.1 2.4zm.9-5.4c-.3-.2-.6-.5-1.2-.7l.3-.5c.4.2.8.4 1.2.7l-.3.5zm.1 5.4v-.5h2.2v-1.8H6.2v-.5h1.6v-1.6H5.9v-.5h4.4v.5H8.4v1.6H10v.5H8.4v1.8h2.2v.5h-5zm3-5.1c-.6-.5-1.1-.8-1.7-1.1l.3-.5c.7.3 1.2.6 1.7 1.1l-.3.5zM11.2 325.8c.3-.3.5-.5.7-.9.4-.8.6-1.7.6-2.5s-.2-1.7-.6-2.5c-.2-.4-.4-.6-.7-.9l.3-.3c.3.3.5.6.7 1 .5.8.7 1.8.7 2.7 0 .9-.3 1.9-.7 2.7-.2.4-.4.6-.7 1l-.3-.3zM17.1 325.8v-4.7h-1.4v-.6c.6 0 1.3-.1 1.6-1.2h.6v6.4h-.8zM21 325.8v-.9h.9v.9H21zM23.2 326v-.6h3.3v-6.8h.6c.1 0 .2 0 .2.1s-.1.1-.2.2v2.6h3v.6h-3v3.2H31v.6h-7.8zM34.2 323.7c-.6.4-1 .6-1.6.8l-.5-.5c1.3-.4 2.1-.9 2.8-1.7H32v-.6h3.6v-.8h-2.8v-.6h2.8v-.7h-3.3v-.6h3.3v-.8l.6.1c.1 0 .2.1.2.1 0 .1-.1.2-.2.2v.5h3.4v.6h-3.4v.7h2.9v.6h-2.9v.8H40v.6h-3.4c.2.7.5 1.2.7 1.5.7-.3 1.3-.7 1.9-1.2l.5.5.1.1c0 .1-.1.1-.1.1h-.1c-.2.2-.6.3-.8.5-.5.3-.7.4-1 .5.6.6 1.4 1 2.1 1.2l-.4.6c-1.7-.6-3-2-3.5-3.8h-.3c-.3.4-.5.6-.9.9v1.8c.9-.2 1.4-.4 1.9-.5l-.1.6c-1.1.4-2.3.7-3.5 1-.1.1-.1.2-.2.2s-.1-.1-.2-.1l-.3-.7c.9-.1 1.3-.2 1.7-.3v-1.6zM45.3 325.2c.3-.1.9-.3 1.3-.7.6-.5 1-1.3 1-2.2 0-1.4-1-2.1-1.4-2.3-.3-.2-.8-.2-1.2-.2-.1 1.3-.4 2.6-1 3.9-.4.8-.8 1.5-1.4 1.5-.7 0-1.5-1.1-1.5-2.4 0-1.7 1.3-3.6 3.7-3.6 1.8 0 3.4 1.2 3.4 3.1 0 2.4-2.1 3.2-2.7 3.5l-.2-.6zm-2.9-4.1c-.3.4-.6 1-.6 1.7 0 .9.5 1.7.9 1.7.2 0 .4 0 1-1.4.6-1.5.7-2.7.8-3.2-.7.1-1.4.3-2.1 1.2zM51.7 318.9c-.2.5-.4.9-.6 1.4.1 0 .2 0 .2.1 0 0 0 .1-.2.2v5.9h-.6v-5.2c-.2.3-.5.7-.9 1.2l-.5-.5c1-1.2 1.5-2 2-3.7l.7.3c.1 0 .1.1.1.1.1.1-.1.2-.2.2zm3.3 1.2v.7h1.6v4h-3.4v-4h1.1v-.7h-2.5v-.6h2.5v-1l.6.1c.2 0 .2.1.2.1 0 .1-.1.1-.2.2v.6h2.2v.6H55zm-2.3 5.9v.4h-.6v-4.9l.6.1c.1 0 .2.1.2.1 0 .1-.1.1-.2.2v3.6h4.5v.6h-4.5zm3.4-4.7h-2.2v.6h2.2v-.6zm0 1.2h-2.2v.6h2.2v-.6zm0 1.1h-2.2v.7h2.2v-.7zM59.2 325.8c-.3-1-.4-2.3-.4-3.1 0-1.2.2-2.5.5-3.6l.6.2c-.4 1.5-.6 2.4-.6 3.4 0 .8.1 1.2.1 1.6l.5-1 .4.4c-.1.2-.2.4-.4.9-.2.6-.2.8-.3 1l-.4.2zm5.7-.7c-.7-.4-1-.5-1.3-.6 0 .5-.1 1.2-1.3 1.2-.6 0-1.6-.2-1.6-1 0-.5.4-1 1.4-1 .3 0 .6 0 .9.1-.1-1.7-.1-1.9-.1-2.5-.6.1-1.3.1-1.7.1l-.1-.7c.3.1.5.1 1.1.1h.7c0-.4.1-1.2.1-1.8l.7.2c-.1.6-.2 1.3-.2 1.5.7-.1 1-.3 1.3-.4v.7c-.3.1-.6.1-1.3.2 0 .6 0 1.5.1 2.7.4.1.9.3 1.5.6l-.2.6zm-2.8-1c-.7 0-.7.3-.7.5 0 .4.5.6 1.1.6.7 0 .7-.4.7-.9-.6-.1-.9-.2-1.1-.2zM66.4 322.7v-.7h7.5v.7h-7.5zM79 322.6h-.5v2.8c0 .9-.3.9-1.4.9l-.2-.7c.2 0 .4.1.6.1.4 0 .4-.1.4-.4v-2.6h-.5v2.3h-.6v-2.2h-.5c0 1-.1 2.4-.7 3.5l-.6-.3c.6-1.1.7-2.4.7-3.1h-.5c-.1.1-.1.2-.2.2s-.1-.1-.1-.2l-.1-.7h.9c0-.9 0-1.2-.1-2.6h.7c.3-.4.5-.8.7-1.4l.6.2c.1 0 .1.1.1.1 0 .1-.2.1-.3.1-.1.3-.3.6-.5.9h1.4v2.3h.5l.2.8zm-1.1-2.4h-1.6v2c.3 0 1.4-.1 1.6-.1v-1.9zm-.8 1.7c-.2-.5-.3-.7-.5-1.2l.5-.3c.3.5.4.8.6 1.2l-.6.3zm5.1-.2h-.5c-.5 0-.6-.2-.6-.6v-1.6h-1c0 1.1-.2 1.8-1 2.4l-.4-.5c.7-.5.9-.8.8-2.5h2.2v1.7c0 .3.1.3.3.3.3 0 .4-.2.5-.8l.6.3c-.3 1.3-.5 1.3-.9 1.3zm.3 4.5c-.7-.2-1.2-.5-1.7-.9-.6.5-1.1.8-1.7 1l-.5-.5c1-.3 1.5-.6 1.8-.9-.4-.5-.6-1-.8-1.7l.5-.2c.2.7.4 1.1.7 1.5.3-.4.5-.7.8-1.5h-2.5v-.6h3l.2.2c-.3 1.3-.8 2-1.1 2.3.4.3.7.5 1.7.8l-.4.5zM89.7 323c.6.8 1.6 1.3 2.5 1.7l-.6.5c-1.1-.5-2-1.2-2.7-2.1h-2.1c-.8 1.3-2 2-2.5 2.3l-.5-.4c1.4-.7 2-1.4 2.3-1.8H84v-.5h2.2v-2.6h-1.5v-.5h1.5v-1h.6c.1 0 .2 0 .2.1 0 0 0 .1-.2.2v.6H89v-1l.6.1c.1 0 .2 0 .2.1s-.1.1-.2.2v.7h1.6v.5h-1.6v2.6h2.2v.5h-2.1zm-1.5.4c.1 0 .2 0 .2.1s-.1.1-.2.1v.6h1.4v.5h-1.4v.9h2.6v.5H85v-.5h2.6v-.9h-1.5v-.5h1.5v-.9l.6.1zm.8-3.5h-2.2v.5H89v-.5zm0 1.1h-2.2v.5H89v-.5zm-2.2 1v.5H89v-.5h-2.2zM97.1 324.4h3.7v.6h-3.7v1.3h-.6V325h-3.6v-.6h3.6v-.8l.7.1c.1 0 .2 0 .2.1s-.1.1-.2.2v.4zm-3.7-4.3c.4.2.8.5 1.1.8l-.4.5c-.2-.2-.6-.5-1.1-.7l.4-.6zm1.8 1.6c-.3.4-.6.9-1.3 1.6 0 .1 0 .3-.1.3l-.1-.1-.5-.5c.7-.6 1.3-1.3 1.6-1.8l.4.5zm-1.2-3.2c.7.4 1 .6 1.2.8l-.3.5c-.5-.5-.9-.6-1.2-.8l.3-.5zm1.9 2c-.1.1-.2.4-.4.5l-.5-.4c.6-.7 1.1-1.3 1.4-2.1l.6.2s.1 0 .1.1-.1.1-.2.1c-.2.3-.2.4-.4.7h1.2c.3-.4.5-.7.7-1.1l.6.2s.1 0 .1.1-.1.1-.2.1c-.2.3-.2.3-.5.7h2.1v.5h-1.9v.6h1.5v.5h-1.5v.6h1.6v.5h-1.6v.6h2v.5H96v-2.9zm2-.3h-1.4v.6h1.4v-.6zm0 1h-1.4v.6h1.4v-.6zm0 1.1h-1.4v.6h1.4v-.6zM102 319.9c.8 0 1.4 0 3.3-.3 2-.3 2.4-.4 3-.5l.1.7c-.9.2-1.6.6-2.3 1.1-.5.4-1.4 1.3-1.4 2.5 0 1.1.6 1.6 2.3 2l-.3.7c-.8-.2-2.7-.7-2.7-2.5 0-1.2.7-2.1 1.2-2.7.4-.4.7-.6 1.2-.9-1.4.1-3.5.4-4.4.6v-.7zm5.1 1.3c.4.5.6 1 .7 1.1l-.4.4c-.2-.4-.6-.9-.8-1.1l.5-.4zm.9-.7c.3.4.6.8.8 1.1l-.4.4c-.2-.4-.6-.9-.8-1.2l.4-.3zM112.2 325.5c-.1-.1-.1-.2-.1-.4-.4.2-1 .6-1.5.6-.6 0-.9-.5-.9-1.1 0-.9.6-1.5 1-1.9.3-.3.6-.5 1.1-.7v-1.1h-1.3l-.2-.6c.5.1.9.1 1.5.1 0-.4.1-.8.2-1.6l.7.2c-.2.6-.3 1.1-.3 1.3.8-.1 1.6-.3 2.5-.6l-.1.7c-1.2.3-1.6.4-2.5.5 0 .4 0 .7-.1 1 .3-.1.7-.2 1.2-.2h.3c.1-.5.1-.6.1-.6l.6.3c-.1.2-.1.3-.1.5.4.1.8.3 1.2.8.3.3.4.7.4 1.2 0 1.1-.8 1.7-1.3 2-.4.2-.7.3-1.1.4l-.5-.6c.7-.1 1.3-.2 1.8-.8.4-.4.5-.8.5-1.1 0-1-.9-1.3-1.2-1.4-.2.5-.7 1.7-1.5 2.4 0 .1 0 .2.1.5l-.5.2zm-.6-3c-.3.2-.7.4-1.1 1-.1.2-.3.6-.3 1s.3.5.6.5c.5 0 .9-.3 1.1-.5-.1-.4-.2-1-.3-2zm1.9-.3c-.4 0-.8 0-1.3.1.1.9.2 1.4.2 1.7.4-.5.8-.9 1.1-1.8zM117 322.6c.5-.1.7-.1 2-.5.8-.2 1.3-.4 1.9-.4.9 0 1.7.7 1.7 1.8 0 .7-.3 1.5-1 1.9-.5.3-1 .4-1.5.5-.3.1-.5.1-.9.1l-.3-.5c.6 0 1.7-.1 2.4-.6.6-.4.8-1.1.8-1.4 0-.4-.3-1.4-1.3-1.4-.4 0-1.6.2-3.6 1l-.2-.5zM124 319.8c.8 0 1.4 0 3.3-.3 2-.3 2.4-.4 3.1-.5v.7c-.9.1-1.6.6-2.3 1.1-1.2 1-1.4 2-1.4 2.5 0 1.1.6 1.6 2.3 2l-.2.7c-.9-.2-2.7-.7-2.7-2.5 0-1.1.6-2 1.2-2.6.4-.4.7-.6 1.2-.9-1.3.1-3 .4-4.5.6v-.8zM131.9 324.3c.9.6 1.4 1.2 1.8 1.6l-.5.5c-.6-.8-.9-1.2-1.7-1.8l.4-.3zM141.9 320c-.4.3-.4.3-.5.4-.5 1.1-.8 1.5-1.2 2.1.8.7 1.7 1.5 2.4 2.5l-.6.5c-.2-.4-.5-.8-1.1-1.5-.5-.5-.8-.8-1.1-1-1.1 1.2-2 1.8-3.2 2.3l-.5-.6c.8-.3 1.7-.6 2.8-1.7 1.2-1.1 1.5-2.1 1.9-2.9H137v-.6h3.9c.2 0 .3-.1.4-.2l.6.7zM143.6 321.8v-.6h5.2c.1 0 .3-.1.5-.2l.5.7-.3.3c-.8 1.6-.9 1.8-1.2 2.1-1.1 1.3-2 1.7-3 2l-.6-.6c.8-.2 1.6-.4 2.6-1.4.9-.9 1.1-1.7 1.3-2.2h-5zm5.2-2h-4.2v-.6h4.2v.6zM150.8 320.5v-.6h4.8c.1 0 .2-.1.4-.2l.7.6-.3.3v.1c-.7 2.3-1.2 3.2-2.4 4.2-.5.4-.9.7-1.9 1.1l-.6-.6c.7-.2 1.7-.6 2.6-1.5 1.1-1.1 1.4-2.3 1.6-3.3h-4.9zm5.2-1c-.2-.4-.5-.7-.6-.8l.4-.3c.2.3.5.5.7.8l-.5.3zm1.3-.2c-.2-.3-.5-.7-.6-.8l.4-.3c.3.3.6.7.7.8l-.5.3zM158.3 326v-.6h3.3v-6.8h.6c.1 0 .2 0 .2.1s-.1.1-.2.2v2.6h3v.6h-3v3.2h3.9v.6h-7.8zM171.9 321.7v.6h-4.6v-.6h3.3l-.5-.3c.2-.4.4-.9.5-1.3l.6.2.1.1c0 .1-.1.1-.2.1-.2.7-.4 1-.4 1.1h1.2zm-2.6-3.3h.7s.1 0 .1.1-.1.2-.2.2v.7h1.7v.6h-4.1v-.6h1.7v-1zm-1.4 4.7h3.5v3.2h-.6v-.5h-2.2v.6h-.6v-3.3zm.6-3c.3.5.5.9.6 1.3l-.6.3c-.2-.5-.3-.8-.6-1.3l.6-.3zm2.3 5.2v-1.5h-2.2v1.5h2.2zm4.3-5.9c-.7 1.5-1.1 2.1-1.3 2.5.8.6 1.3 1.4 1.3 2.4 0 1.3-1.1 1.5-1.8 1.5l-.3-.8h.5c.3 0 .6 0 .7-.2.2-.2.2-.5.2-.7 0-1-.9-1.9-1.3-2.3.5-.8.8-1.5 1.2-2.3h-1.4v6.8h-.6V319h2.5l.3.4zM176.1 321.4c.9-.2 1.4-.3 1.8-.5.1-.4.1-.8.1-1.8l.8.3c-.1.4-.1.7-.2 1.3.2 0 .5-.1.7-.1.5 0 1.3.3 1.3 1.6 0 .7-.2 2-.6 2.7-.3.6-.9.7-1.2.7h-.5l-.3-.7c.4 0 .6.1.7.1.2 0 .6 0 .8-.6.1-.2.3-1 .3-1.9 0-.5-.1-1.2-.7-1.2-.2 0-.6.1-.7.1-.4 1.6-.9 3-1.8 4.4l-.7-.4c.3-.4.7-.8 1.1-1.9.4-1 .5-1.5.6-2-.1.1-.7.3-.8.3-.3.1-.4.2-.6.2l-.1-.6zm4.8-1.6c.5.4 1.6 1.5 1.6 2.4 0 .6-.5.7-1 .8l-.3-.7c.2 0 .6 0 .6-.3 0-.1-.1-.3-.2-.6-.3-.4-.6-.8-1.2-1.3l.5-.3zm1.5.4c-.2-.2-.5-.6-.8-.8l.4-.4c.3.2.6.4.9.8l-.5.4zm.5-1.7c.2.2.5.4.8.7l-.4.4c-.3-.3-.5-.5-.8-.7l.4-.4zM184.5 324.8v-.7h4.9v-3.5h-4.9v-.6h5.6v5.3h-.7v-.4h-4.9zM198 322c-1 1-2.1 2.1-5.8 3.4 0 0-.1.2-.2.2s-.1-.1-.2-.2l-.3-.7c.9-.2 1.8-.3 3.4-1.2 1.5-.9 2.1-1.5 2.6-2.1l.5.6zm-4.7-.7c-.4-.5-.9-1-1.5-1.5l.5-.5c.3.2 1 .9 1.5 1.5l-.5.5zM204.2 320h.3l.4.5-.5.5c-.7 1.9-1.2 2.7-2.2 3.7-.6.6-1 .9-1.8 1.3l-.6-.5c.8-.4 1.7-.8 2.7-2 .9-1.2 1.1-2.1 1.3-2.8h-2.7c-.4.5-.8 1-1.7 1.9l-.6-.4c.5-.4 1-.8 1.6-1.6.5-.7.7-1.2.8-1.5l.6.2c.2.1.2.2.2.2 0 .1-.1.1-.3.1l-.3.6h2.8zM207.1 319.2c.1 0 .2 0 .2.1 0 0 0 .1-.2.2v3.8h-.7v-4.2l.7.1zm.4 6.3c1-.4 1.4-.6 1.7-1.1.5-.6.9-1.4.9-2.7V319h.7s.2 0 .2.1c0 0 0 .1-.1.2 0 2.5 0 3.4-.3 4.4-.4 1.3-1.6 1.9-2.4 2.3l-.7-.5zM212.3 322.9v-.6h6.4v.6h-6.4zM221.1 321.3c1.5.6 2.1 1.1 2.9 1.7l-.4.6c-.3-.2-.6-.5-1.2-.9-.7-.5-1.1-.6-1.5-.8v3.9h-.7V319h.7s.2 0 .2.1-.1.1-.2.2v2.5l.2-.5zM232.3 322.3c-1.8-1-2.6-1.8-3.4-2.8-.9 1.2-2.1 2.3-3.5 2.9l-.5-.6c1.5-.6 2.9-1.5 3.8-3.4l.7.3c.1 0 .1.1.1.1 0 .1-.1.1-.2.2 1.2 1.7 2.5 2.2 3.6 2.7l-.6.6zm-6.8 3.8v-.6h2c-.2-.4-.3-.6-.6-1l.5-.4c.3.3.5.5.8 1.1l-.4.3h.9v-1.7h-2.4v-.6h2.4v-1.1h-1.5v-.6h3.7v.6h-1.6v1.1h2.6v.6h-2.6v1.7h.9l-.4-.3c.2-.2.5-.5.7-1.1l.5.3c.1 0 .1.1.1.1 0 .1-.1.1-.2.1-.2.4-.3.6-.6.8h2.1v.6h-6.9zM234 325v-.7h4.9v-3.6H234v-.7h5.6v5.3h-.7v-.3H234zm5.1-6.3c.2.2.4.6.5.8l-.5.3c-.1-.3-.3-.6-.5-.8l.5-.3zm1.2-.2c.1.2.4.5.5.8l-.5.3c-.2-.3-.4-.6-.5-.8l.5-.3zM245.4 322.1c-.1.8-.1 1.6-.7 2.5-.6.9-1.3 1.2-1.8 1.4l-.6-.6c.6-.2 1.2-.4 1.8-1.2.6-.8.6-1.5.6-2.1h-3.2v-.6h6.8v.6h-2.9zm1.6-2.3h-4.4v-.6h4.4v.6zM22.9 332.3c.6-.6 1.5-1.6 2.1-3.6l.7.3.1.1c0 .1-.1.1-.2.1-.2.4-.3.8-.5 1.2.1 0 .2 0 .2.1s-.2.2-.2.2v6h-.6v-5.2c-.3.5-.5.8-.9 1.3l-.7-.5zm2.8 3.8v-.6h2.2v-3.3h-2.3v-.6h2.3v-2.8h.6c.1 0 .3 0 .3.1s-.1.1-.2.2v2.5H31v.6h-2.4v3.3h2.1v.6h-5zM31.9 336.2v-.6h3.3v-6.8h.6c.1 0 .2 0 .2.1s-.1.1-.2.2v2.6h3v.6h-3v3.2h3.9v.6h-7.8zM41.7 335.9c-.6-.8-.8-2.5-.8-3.2 0-1.3.3-2.6.4-3.3l.7.3c-.3 1-.5 1.9-.5 3.1 0 .6 0 1.3.3 1.9.2-.4.3-.8.5-1.1l.5.4c-.3.7-.6 1.6-.7 1.8l-.4.1zm4.2-6.7c.1.6.1 1.5.1 1.9.4-.1.7-.2 1.1-.4v.7c-.3.1-.7.2-1.1.3 0 3.1-.7 3.9-1.4 4.7l-.6-.4c.5-.4 1.2-1 1.3-3.1v-1.1c-.6.1-1.2.1-1.9.1l-.3-.7h1c.4 0 .6 0 1.2-.1 0-.5-.1-1.2-.2-2.1l.8.2zm.8-.5c.3.4.5.8.6 1.1l-.5.3c-.1-.3-.3-.7-.6-1.1l.5-.3zm.9-.4c.2.3.5.7.6 1l-.4.3c-.2-.4-.4-.7-.6-1.1l.4-.2zM53 335.4c.3-.1.9-.3 1.3-.7.6-.5 1-1.3 1-2.2 0-1.4-1-2.1-1.4-2.3-.3-.2-.8-.2-1.2-.2-.1 1.3-.4 2.6-1 3.9-.4.8-.8 1.5-1.4 1.5-.7 0-1.5-1.1-1.5-2.4 0-1.7 1.3-3.6 3.7-3.6 1.8 0 3.4 1.2 3.4 3.1 0 2.4-2.1 3.2-2.7 3.5l-.2-.6zm-2.9-4.1c-.3.4-.6 1-.6 1.7 0 .9.5 1.7.9 1.7.2 0 .4 0 1-1.4.6-1.5.7-2.7.8-3.2-.8.1-1.5.3-2.1 1.2zM58.8 331.4v2.3c.6-.2.7-.3 1-.4v.6c-.8.3-1.5.6-2.3.9 0 .1-.1.2-.2.2s-.1-.1-.1-.2l-.2-.6c.2 0 .3 0 1.2-.3v-2.5h-1.1v-.6h1.1v-2l.6.1s.2 0 .2.1 0 .1-.2.2v1.6h1v.6h-1zm3.1 1.4c-.1.2-.3.5-.4.6h3.2c0 .6-.1 2.2-.3 2.7-.2.4-.6.4-1 .4h-.5l-.2-.7c.2 0 .4.1.7.1.1 0 .4 0 .5-.4.1-.2.1-.7.2-1.6h-.4c-.4 1.2-.8 1.9-1.9 2.7l-.6-.3c.5-.3 1.5-1 1.9-2.4h-.6c-.2.6-.5.9-.9 1.3-.6.6-1.3 1-1.6 1.1l-.5-.4c.6-.2 1.8-.7 2.4-2h-.7c-.5.5-.9.9-1.5 1.3l-.6-.4c.9-.5 1.6-1.2 2.2-2h-1.6v-.5H65v.5h-3.1zm-1.5-1.1v-2.8H64v2.8h-3.6zm3-2.3H61v.6h2.4v-.6zm0 1.1H61v.6h2.4v-.6zM73.2 332.4c-1.5-.7-2.8-1.8-3.5-2.9-.6.9-1.6 2.1-3.5 3l-.5-.6c.9-.4 2.6-1.2 3.7-3.4l.7.3c.1 0 .2.1.2.2s-.1.1-.2.1c.2.3.6.9 1.4 1.5.6.5 1.4.9 2.1 1.2l-.4.6zm-1.6 4.1v-.4h-3.7v.4h-.6v-3.1h5v3.1h-.7zm-3.8-4.1v-.6h3.9v.6h-3.9zm3.8 1.6h-3.7v1.5h3.7V334zM75.4 336c-.3-1-.4-2.3-.4-3.1 0-1.2.2-2.5.5-3.6l.6.2c-.4 1.5-.6 2.4-.6 3.4 0 .8.1 1.2.1 1.6l.5-1 .4.4c-.1.2-.2.4-.4.9-.2.6-.2.8-.3 1l-.4.2zm5.7-.7c-.7-.4-1-.5-1.3-.6 0 .5-.1 1.2-1.3 1.2-.6 0-1.6-.2-1.6-1 0-.5.4-1 1.4-1 .3 0 .6 0 .9.1-.1-1.7-.1-1.9-.1-2.5-.6.1-1.3.1-1.7.1l-.1-.7c.3.1.5.1 1.1.1h.7c0-.4.1-1.2.1-1.8l.7.2c-.1.6-.2 1.3-.2 1.5.7-.1 1-.3 1.3-.4v.7c-.3.1-.6.1-1.3.2 0 .6 0 1.5.1 2.7.4.1.9.3 1.5.6l-.2.6zm-2.8-.9c-.7 0-.7.3-.7.5 0 .4.5.6 1.1.6.7 0 .7-.4.7-.9-.6-.2-.9-.2-1.1-.2zM82.3 330.1h3.4v.5h-3.4v-.5zm.9 6.5h-.6v-2.9h2.6v2.8h-.6v-.5h-1.4v.6zm-.5-7.1v-.5h2.5v.6h-2.5zm0 1.8h2.5v.6h-2.5v-.6zm.1 1.2h2.5v.5h-2.5v-.5zm1.9 1.7h-1.4v1.3h1.4v-1.3zm1.2-2h3.7l.2.2c-.4 1-.9 1.9-1.5 2.6.8.7 1.8.9 2 .9l-.5.5c-.9-.3-1.5-.7-1.9-1.1-.4.3-.9.8-1.9 1l-.5-.5c.9-.2 1.6-.5 2-1-.3-.3-.7-1-1-2l.6-.2c.3.9.5 1.3.9 1.8.4-.5.8-1 1.1-1.9H86v-.3zm4.5-1.9c-.3 1.1-.4 1.2-1 1.2h-.7c-.4 0-.7-.1-.7-.7v-1.5h-.8c0 1.3-.2 1.8-1.1 2.4l-.5-.4c.9-.5 1-.9 1-2.5h2v1.8c0 .3.1.3.3.3h.5c.2 0 .2-.1.3-.3.1-.2.1-.5.1-.6l.6.3zM91 330.6v-.6h3.9v.6H91zm2.9 5.9v-.4h-2v.4h-.6v-2.7h3.2v2.7h-.6zm-2.6-7.1v-.5h3.1v.5h-3.1zm0 2.5v-.6h3.1v.6h-3.1zm0 1.2v-.5h3.1v.5h-3.1zm2.6 1.3h-2v1.2h2v-1.2zm3.4-2.3v4.5h-.6v-4.5h-1.8v-.6h1.8v-2.8l.7.1c.1 0 .2 0 .2.1s-.1.1-.2.2v2.4h1.7v.6h-1.8zM100.2 329h7.2v7.6h-.6v-.6h-5.9v.5h-.6V329zm.6.6v5.9h5.9v-5.9h-5.9zm1.2.8c.3.4.5.7.7 1.2l-.6.3c-.1-.4-.3-.7-.6-1.2l.5-.3zm-.5 4.3c.7-.3 1.3-.6 2.1-1.2-.4-.3-.9-.5-1.4-.7l.3-.5c.4.2.9.3 1.6.7.8-.9 1.1-2.1 1.3-3l.7.3c.1 0 .2.1.2.2s-.2.2-.3.2c-.2.4-.6 1.8-1.3 2.7.6.4 1 .8 1.3 1.1l-.5.4c-.3-.4-.6-.6-1.2-1.1-.8.8-1.6 1.1-2.1 1.3l-.7-.4zm2.1-4.5c.3.4.5.7.7 1.3l-.6.2c-.1-.4-.3-.7-.6-1.2l.5-.3zM114.3 335.8c-.4-.4-.9-.7-2-1.2v.6c-.2.8-.9.9-1.7.9-.1 0-.9 0-1.3-.3-.3-.2-.5-.5-.5-.9 0-1 1.3-1.2 2-1.2.4 0 .6 0 .8.1-.1-.8-.1-1.6-.1-2.2V329l.9.2c-.2.8-.2 1.3-.2 1.6h.5c.2 0 1.2 0 2.1-.3l-.1.8c-.7.1-1.4.2-2.1.2h-.5c0 .9 0 1.4.1 2.5.8.2 1.2.4 2.4 1.1l-.3.7zm-3.7-1.5c-.1 0-.4 0-.7.1-.1.1-.5.2-.5.6 0 .6.9.6 1.1.6.9 0 1.1-.3 1.1-.8v-.4c-.2-.1-.7-.1-1-.1zM117 329.6c-.3.9-.4 1.8-.4 2.7 0 .2 0 .2.1.4.2-.4.4-.9.6-1.3l.4.4c-.2.5-.3.7-1 2.6h-.4c-.3-.7-.4-1.4-.4-2.2 0-1 .1-1.9.4-2.9l.7.3zm3.6-.2v.6c.1 1.2.1 1.4.1 1.8 0 1.4-.3 2.5-.8 3.3-.3.5-.5.8-1 1.2l-.6-.4c.4-.3.8-.7 1.3-1.5.4-.9.5-1.7.5-2.4 0-1.2-.1-2-.3-2.5l.8-.1zM123.7 331.7v2.5c.3-.1.8-.3.9-.3v.6c-.4.2-1.9.8-2.2.9l-.1.2c-.1 0-.1 0-.1-.1l-.3-.7c.5-.1.9-.3 1.3-.4v-2.7H122v-.6h1.1V329l.6.1c.2 0 .2.1.2.1 0 .1-.1.1-.2.2v1.7h1v.6h-1zm1.3 1.1V330h3.4l-.5-.3c.3-.3.5-.6.8-1.1l.5.4.1.1c0 .1-.1.1-.2.1-.3.3-.4.5-.7.8h1.2v2.7H125zm1.3-2.8c-.3-.4-.5-.6-.9-1l.5-.4c.6.5.8.8 1 1l-.6.4zm2.3 6.6v-.4H126v.4h-.6v-3.3h3.9v3.2h-.7zm-1.6-6h-1.4v.6h1.4v-.6zm0 1.1h-1.4v.6h1.4v-.6zm1.6 2.2H126v.6h2.6v-.6zm0 1.1H126v.7h2.6v-.7zm.4-4.4h-1.4v.6h1.4v-.6zm0 1.1h-1.4v.6h1.4v-.6zM131.8 329.3c-.2 1.8-.2 4.1-.2 4.3 0 1.1.1 1.3.1 1.4.2.5.7.6 1 .6.6 0 1.8-.3 2.8-2.5l.6.6c-.3.5-1.5 2.6-3.4 2.6-.9 0-1.4-.6-1.5-1.1-.1-.4-.1-.7-.1-2.1v-2.6c0-.4 0-.8-.1-1.2h.8zM139 333.3v2.5c0 .6-.2.7-1.3.7l-.3-.7c.2 0 .6.1.7.1.3 0 .3-.2.3-.4v-1.8c-.2.1-.6.4-.8.5-.1 0-.1.1-.2.1 0 .1 0 .2-.1.2 0 0-.1 0-.2-.2l-.4-.6c.4-.1.8-.3 1.6-.8v-1.8h-1.5v-.6h1.5v-1.9h.6c.1 0 .2.1.2.1 0 .1 0 .1-.2.2v1.6h1v.6h-1v1.4c.6-.4.8-.5 1-.7v.7c-.1.3-.5.6-.9.8zm4.4-3.3v5.7c0 .5 0 .7-.4.8-.1 0-.5.1-1.1.1l-.3-.7c.4 0 .8.1.9.1.3 0 .3-.2.3-.4V330h-2.6v-.6h4.6v.6h-1.4zM150.8 330.7c-.5.1-1.4.4-2.7.5 0 .2-.3 1.3-.5 1.9.4-.3 1.3-.9 2.3-.9 1.1 0 1.9.7 1.9 1.6 0 2.3-3.1 2.3-4.2 2.3l-.2-.7c.2 0 .6.1 1.2.1 1.9 0 2.7-.8 2.7-1.6 0-.7-.6-1.2-1.3-1.2-.8 0-1.5.4-1.8.7-.3.2-.4.4-.7.7l-.7-.4c.2-.5.5-1.1.8-2.6h-.6c-.1 0-.6 0-1-.1l-.1-.6c.6.1 1 .1 1.6.1h.3c.1-.3.3-1.6.4-1.8l.7.2c-.2.6-.4 1.3-.5 1.5 1.5-.2 2.1-.5 2.6-.7v1zM157.2 329c0 .4-.1.7-.1 1.3.9-.1 1.9-.1 2.6-.2l.1.7c-1.2 0-2.1.1-2.7.1v1.5c.2.3.2.9.2 1.2 0 .8-.4 1.6-.7 2.2-.2.4-.4.5-.7.8l-.7-.3c.3-.2.9-.7 1.2-1.7-.3.2-.6.2-.6.2-.6 0-1.1-.5-1.1-1.5 0-1.1.7-1.6 1.3-1.6.2 0 .3 0 .4.1v-.8c-.9.1-2.4.2-3.5.3v-.6c1-.1 2.5-.2 3.5-.2V329h.8zm-1.9 4.2c0 .6.4.9.6.9.4 0 .6-.4.6-1 0-.3-.1-.9-.6-.9-.2 0-.6.4-.6 1zM161.6 329.7c1.9 0 3-.3 3.7-.5l.3.5c-.1.1-.4.4-.5.4l-1.8 1.8c.3-.1.6-.3 1.1-.3.6 0 2.2.3 2.2 2s-1.7 2.4-2.8 2.4c-.8 0-1.7-.3-1.7-1.1 0-.5.5-1 1.3-1 1.1 0 1.6.9 1.8 1.2.2-.2.9-.6.9-1.4 0-.6-.4-1.4-1.6-1.4-1.5 0-3 1.5-3.1 1.7l-.6-.5c1.5-1.2 2.8-2.4 3.7-3.5-.5.1-1.4.3-2.5.3l-.4-.6zm1.7 4.7c-.4 0-.6.2-.6.4 0 .4.6.6 1.1.6.2 0 .5 0 .7-.1-.2-.2-.5-.9-1.2-.9zM173.6 335.6c-.9.1-1.8.2-2.6.2-.6 0-1.3-.1-1.9-.2-.4-.1-1.2-.4-1.2-1.3 0-.6.3-.9.9-1.5l.5.4c-.4.4-.7.6-.7 1 0 .9 1.7.9 2.2.9 1.1 0 2-.2 2.9-.4l-.1.9zm-5-6.1c.2 0 .9.2 1.1.2.4.1.7.1 1.1.1.4 0 1.2 0 1.9-.1l.3.7c-.9.6-1.4.9-2 1.4l-.4-.4c.2-.2 1.2-.8 1.4-.9-.3.1-.7.1-1 .1-.6 0-1.7-.1-2.3-.2l-.1-.9zM176.7 329c0 .2.1 1.2.1 1.4 0 .4.1.8.4 1.1.1.1.2.2.3.2.4-.2 2.1-.9 2.4-1.1l.1.7c-.8.3-1.9.6-3.2 1.3-.4.2-1.3.7-1.3 1.6 0 1.2 1 1.2 1.5 1.2.1 0 1.1 0 2-.1.4-.1.6-.1 1.1-.2v.8c-1 .1-1.8.2-2.9.2-1.1 0-1.5-.2-1.8-.5-.4-.4-.5-.9-.5-1.3 0-.9.7-1.5.9-1.7.4-.3.8-.5 1-.6-.6-.6-.7-1.3-.8-2.3 0-.3 0-.3-.1-.5v-.2h.8zM183.7 335.2c0 .7-.6 1.3-1.4 1.3s-1.4-.6-1.4-1.3c0-.8.6-1.4 1.4-1.4s1.4.7 1.4 1.4zm-2.3 0c0 .5.4 1 1 1 .5 0 1-.5 1-1 0-.6-.5-1-1-1s-1 .5-1 1zM14.9 346.2c.1-1.5 1.1-2.2 2.7-3.1 1-.5 1.4-.8 1.4-1.6 0-1-.8-1.3-1.4-1.3-1.5 0-1.6 1.3-1.6 1.6h-.8c0-.4.1-1 .6-1.5.6-.7 1.5-.7 1.8-.7.9 0 2.2.4 2.2 1.9 0 1.1-.7 1.6-1.8 2.2-1.6.9-1.8 1.4-2 1.8h3.9v.7h-5zM20.9 346.2v-.9h.9v.9h-.9zM23 346.4v-.6h3.3V339h.7c.1 0 .2 0 .2.1s-.1.1-.2.2v2.6h3v.6h-3v3.2h3.9v.6H23zM33.9 344.2c-.6.4-1 .6-1.6.8l-.5-.5c1.3-.4 2.1-.9 2.8-1.7h-2.9v-.6h3.6v-.8h-2.8v-.6h2.8v-.7H32v-.6h3.3v-.8l.6.1c.1 0 .2.1.2.1 0 .1-.1.2-.2.2v.5h3.4v.6H36v.7h2.9v.6H36v.8h3.7v.6h-3.4c.2.7.5 1.2.7 1.5.7-.3 1.3-.7 1.9-1.2l.5.5.1.1c0 .1-.1.1-.1.1h-.1c-.2.2-.6.3-.8.5-.5.3-.7.4-.9.5.6.6 1.4 1 2.1 1.2l-.4.6c-1.7-.6-3-2-3.5-3.8h-.3c-.3.4-.5.6-.9.9v1.8c.9-.2 1.4-.4 1.9-.5l-.1.6c-1.1.4-2.3.7-3.5 1-.1.1-.1.2-.2.2s-.1-.1-.2-.1l-.3-.7c.9-.1 1.3-.2 1.7-.3v-1.6zM44.8 345.6c.3-.1.9-.3 1.3-.7.6-.5 1-1.3 1-2.2 0-1.4-1-2.1-1.4-2.3-.3-.2-.8-.2-1.2-.2-.1 1.3-.4 2.6-1 3.9-.4.8-.8 1.5-1.4 1.5-.7 0-1.5-1.1-1.5-2.4 0-1.7 1.3-3.6 3.7-3.6 1.8 0 3.4 1.2 3.4 3.1 0 2.4-2.1 3.2-2.7 3.5l-.2-.6zm-2.9-4.1c-.3.4-.6 1-.6 1.7 0 .9.5 1.7.9 1.7.2 0 .4 0 1-1.4.6-1.5.7-2.7.8-3.2-.7.1-1.4.3-2.1 1.2zM51.4 339.3c-.2.7-.5 1.2-.8 1.7l.2.1c.1 0 .1 0 .1.1s-.1.2-.2.2v5.4H50v-4.9c-.3.5-.5.9-.9 1.3l-.5-.4c1.5-1.8 2-3.2 2.3-4l.6.2c.1 0 .2.1.2.1-.1.1-.1.1-.3.2zm4.1 7.2H53c-.7 0-.9-.6-.9-1.1v-2.7c-.2.1-.3.1-.8.2l-.2-.6c.2-.1.3-.1 1-.3v-2.3l.6.1c.1 0 .2.1.2.1 0 .1 0 .1-.1.1v1.7c.1 0 .8-.3.9-.3.1 0 .1 0 .3-.1v-2.7l.6.1c.2 0 .2.1.2.1 0 .1-.1.1-.1.2v2.2c.7-.2 1.2-.4 1.5-.5l.5.4c0 .6-.2 1.9-.3 2.4-.1.7-.5.8-1 .9l-.3-.7c.5 0 .7 0 .7-.5 0-.2.2-1.1.2-1.7-.4.1-.6.2-1.3.4v2.9H54v-2.7c-.1 0-1 .3-1.2.4v2.8c0 .4.1.6.7.6h1.8c.6 0 .8-.1 1-1.4l.6.3c-.2 1.3-.5 1.7-1.4 1.7zM58.1 344.7c.9.6 1.4 1.2 1.8 1.6l-.5.5c-.6-.8-.9-1.2-1.7-1.8l.4-.3zM69.7 342.7c-.6-.3-.8-.4-1.1-.6v.5h-2.2v1.2h2.2v.6h-2.2v1.5h3.3v.6h-7.2v-.5h3.2v-1.5h-2.2v-.6h2.2v-1.2h-2.3v-.4c-.4.2-.7.5-1.1.6l-.5-.5c.9-.4 1.6-.9 2.3-1.5.9-.8 1.3-1.5 1.6-2.1l.7.3.1.1c0 .1-.1.2-.2.2 1.3 1.6 2.6 2.4 3.7 2.8l-.3.5zm-3.7-3c-.8 1-1.3 1.6-2.3 2.3h4.8c-.9-.6-1.8-1.3-2.5-2.3zM71 340.3c.8 0 1.4 0 3.3-.3 2-.3 2.4-.4 3.1-.5v.7c-.9.1-1.6.6-2.3 1.1-1.2 1-1.4 2-1.4 2.5 0 1.1.6 1.6 2.3 2l-.2.7c-.9-.2-2.7-.7-2.7-2.5 0-1.1.6-2 1.2-2.6.4-.4.7-.6 1.2-.9-1.3.1-3 .4-4.5.6v-.8zM82.7 345.6c.3-.1.9-.3 1.3-.7.6-.5 1-1.3 1-2.2 0-1.4-1-2.1-1.4-2.3-.3-.2-.8-.2-1.2-.2-.1 1.3-.4 2.6-1 3.9-.4.8-.8 1.5-1.4 1.5-.7 0-1.5-1.1-1.5-2.4 0-1.7 1.3-3.6 3.7-3.6 1.8 0 3.4 1.2 3.4 3.1 0 2.4-2.1 3.2-2.7 3.5l-.2-.6zm-2.9-4.1c-.3.4-.6 1-.6 1.7 0 .9.5 1.7.9 1.7.2 0 .4 0 1-1.4.6-1.5.7-2.7.8-3.2-.7.1-1.4.3-2.1 1.2zM86.8 344.9v-.5h2.4v-.8h-1.7v-.6h1.7v-.8h-1.4v-3.1h6v3.1h-1.5v.8H94v.5h-1.7v.8h2.4v.5h-7.9zm3 .7h-.1c-.6.6-1.2.9-1.9 1.3l-.5-.6c.7-.2 1.4-.6 2.1-1.3l.4.4c.1 0 .1.1 0 .2.1 0 .1 0 0 0zm.6-5.9h-2v.7h2v-.7zm0 1.2h-2v.7h2v-.7zm1.3 1.3h-1.9v.8h1.9v-.8zm0 1.3h-1.9v.8h1.9v-.8zm1.4-3.8H91v.7h2.1v-.7zm0 1.2H91v.7h2.1v-.7zm.5 5.9c-.7-.3-1.4-.7-2.1-1.3l.4-.4c.8.6 1.5.9 2.2 1.2l-.5.5zM98.2 341c-.3.6-.5.8-.6.9l.1.1c0 .1-.1.1-.2.2v4.5h-.6v-4c-.3.4-.6.7-1 1l-.5-.4c1.4-1 2.1-2.4 2.5-3l.5.3.1.1c-.1.3-.3.3-.3.3zm-.2-1.6c-.5.6-1.2 1.4-2 1.9l-.4-.5c1-.6 1.7-1.4 2-2l.5.4.1.1c.1.1-.1.1-.2.1zm5.2 3.9c-.9-.3-1.6-.6-2.4-1.1-.9.7-1.5.9-2.5 1.2l-.4-.5c.9-.3 1.6-.5 2.4-1.1-.5-.5-.7-.9-1.1-1.6l.5-.2c.5 1 .8 1.3 1.1 1.5.5-.5.8-.9 1.1-1.6h-3.3v-.5h4l.2.2c-.4 1-.8 1.6-1.5 2.3.6.4 1.1.6 2.4.9l-.5.5zm-5.3 3.2v-.5h2.5v-1.4h-1.8v-.6h1.8v-1.3l.6.1c.1 0 .2 0 .2.1s-.1.1-.2.2v.9h1.8v.6H101v1.4h2.5v.5h-5.6zM106.8 345.2c.3-.7.4-1.1.5-1.5l.6.2c.1 0 .1 0 .1.1s-.1.1-.2.1c-.1.4-.2.7-.4 1.2.2-.1.3-.1.6-.3v.6c-1.2.5-2.4.9-2.8 1 0 .1-.1.2-.2.2s-.1-.1-.1-.1l-.2-.6c.5-.1.8-.2 1.4-.3v-2.5h-1.4v-.6h1.4v-.7h-.9v-.4l-.4.4-.5-.5c1-.9 1.5-1.5 2-2.7l.6.3.1.1c0 .1-.1.1-.2.2.4.5.7.9 1.2 1.3l-.4.5c-.2-.2-.5-.5-1.1-1.4-.3.6-.7 1.1-1.2 1.7h2.2v.5h-.9v.8h1v.6h-1v2.3c.4-.1.5-.2.7-.3l-.5-.2zm-1.7-1.4c.3.5.5 1 .6 1.6l-.5.2c-.2-.5-.3-1-.6-1.5l.5-.3zm6.9-2.9v.6h-1.5c0 1 0 1.2-.1 1.4h1.8v.6h-1.7c.1.4.3 1 .7 1.6.4.5.8.9 1.2 1.3l-.6.4c-.4-.3-1.4-1.2-1.8-2.6-.5 1.6-1.3 2.3-2 2.7l-.5-.5c.8-.5 1.6-1.1 2-2.9H108v-.6h1.8c.1-.5.1-.9.1-1.4h-1.1c-.1.4-.2.6-.3 1l-.6-.2c.5-1.1.6-2.1.7-2.8l.7.2c.1 0 .1 0 .1.1s-.1.1-.2.1c0 0-.1.7-.2 1h1V339l.7.1c.1 0 .2 0 .2.1s-.2.2-.2.2v1.6h1.3zM115.6 340.4c.2.2.3.3.4.5l-.5.4c-.3-.4-.5-.7-.8-.9h-.3c-.2.3-.3.5-.8 1l-.6-.4c.6-.6 1-1.1 1.5-2.2l.5.3c.1 0 .1.1.1.1 0 .1-.1.1-.2.1 0 .1-.2.3-.3.5h2.3v.6h-1.3zm-.2 6.4-.2-.7c.2 0 .4.1.5.1.3 0 .4-.2.4-.3v-.9h-1.6c-.1.6-.2 1.2-.7 1.9l-.6-.3c.7-.9.9-1.8.9-3.5 0-.9-.1-1.3-.1-1.6h2.7v4.4c0 .7-.2.9-1.3.9zm.6-3.3h-1.4v.9h1.5v-.9zm0-1.5h-1.5v.9h1.4v-.9zm3.6-1.7c.2.2.3.3.4.5l-.5.4-.2-.2c0 .1 0 .1-.3.2v1.2h1.7c0 .9-.1 2.8-.3 3.6-.2.6-.4.8-1.4.8l-.2-.7h.5c.5 0 .6-.3.6-.8.1-.9.2-2.1.2-2.4H119c-.1 2.2-.8 3.1-1.5 3.8l-.6-.5c.5-.4 1.3-1.1 1.4-3.3H117v-.6h1.3v-1.6l.7.1h.1c-.1-.2-.4-.5-.6-.7h-.7c-.3.4-.5.7-.8 1l-.5-.4c.8-.8 1.1-1.5 1.4-2.2l.6.4.1.1c0 .1-.2.1-.2.1-.1.1-.2.3-.2.4h2.6v.6h-1.2zM122.8 346.2c-.3-1-.4-2.3-.4-3.1 0-1.2.2-2.5.5-3.6l.6.2c-.4 1.5-.6 2.4-.6 3.4 0 .8.1 1.2.1 1.6l.5-1 .4.4c-.1.2-.2.4-.4.9-.2.6-.2.8-.3 1l-.4.2zm5.8-.7c-.7-.4-1-.5-1.3-.6 0 .5-.1 1.2-1.3 1.2-.6 0-1.6-.2-1.6-1 0-.5.4-1 1.4-1 .3 0 .6 0 .9.1-.1-1.7-.1-1.9-.1-2.5-.6.1-1.3.1-1.7.1l-.1-.7c.3.1.5.1 1.1.1h.7c0-.4.1-1.2.1-1.8l.7.2c-.1.6-.2 1.3-.2 1.5.7-.1 1-.3 1.3-.4v.7c-.3.1-.6.1-1.3.2 0 .6 0 1.5.1 2.7.4.1.9.3 1.5.6l-.2.6zm-2.9-.9c-.7 0-.7.3-.7.5 0 .4.5.6 1.1.6.7 0 .7-.4.7-.9-.5-.2-.9-.2-1.1-.2zM131.5 345v-.7h-.9v1.2h-.6v-6h2.1v5.5h-.6zm0-4.9h-.9v3.6h.9v-3.6zm3.8 3.3v2.5c0 .7-.2.8-.8.8h-.7l-.2-.7c.1 0 .5.1.7.1.3 0 .3-.1.3-.4v-2.3h-2.3v-.6h2.3v-3c-.7.1-1.1.1-1.9.1l-.3-.6h.9c1.2 0 2.2-.2 3.2-.5l.5.4.1.1-.1.1h-.3c-.3.1-.5.2-1.4.4v3h2.2v.6h-2.2zm-1.8-.9c-.3-.7-.6-1.2-1-1.7l.5-.4c.4.5.7 1 1 1.7l-.5.4zm3.7-1.5c-.3.6-.6 1-.9 1.5l-.5-.4c.5-.6.8-1.1 1-1.7l.5.3c.1 0 .2.1.2.2-.1.1-.2.1-.3.1zM138.6 340.4c.6 0 1.5-.1 2.5-.7l.5.5c-.7.9-1.7 2.2-1.7 3.7 0 .8.5 1.7 1.6 1.7 1.3 0 2-1.3 2-3 0-.6-.1-1.8-.4-2.8l.7-.2c.9 1.9 1.4 2.4 2.1 3.1l-.6.5c-.6-.7-1-1.2-1.5-2.4.1.7.2 1.4.2 2.3 0 2.5-1.5 3.1-2.5 3.1-2.2 0-2.2-1.9-2.2-2.2 0-1.2.5-2.3 1.2-3.3-.5.2-1.2.4-1.6.5l-.3-.8zm6.2-1.2c.4.4.6.8.7 1.1l-.4.3c-.2-.4-.5-.8-.8-1.1l.5-.3zm.8-.5c.4.4.6.7.8 1.1l-.4.2c-.3-.5-.5-.8-.7-1.1l.3-.2zM149.4 341c-.3.6-.5.8-.6.9l.1.1c0 .1-.1.1-.2.2v4.5h-.6v-4c-.3.4-.6.7-1 1l-.5-.4c1.4-1 2.1-2.4 2.5-3l.5.3.1.1c0 .3-.2.3-.3.3zm-.1-1.6c-.5.6-1.2 1.4-2 1.9l-.4-.5c1-.6 1.7-1.4 2-2l.5.4.1.1c0 .1-.1.1-.2.1zm5.1 3.9c-.9-.3-1.6-.6-2.4-1.1-.9.7-1.5.9-2.5 1.2l-.4-.5c.9-.3 1.6-.5 2.4-1.1-.5-.5-.7-.9-1.1-1.6l.5-.2c.5 1 .8 1.3 1.1 1.5.5-.5.8-.9 1.1-1.6h-3.3v-.5h4l.2.2c-.4 1-.8 1.6-1.5 2.3.6.4 1.1.6 2.4.9l-.5.5zm-5.2 3.2v-.5h2.5v-1.4h-1.8v-.6h1.8v-1.3l.6.1c.1 0 .2 0 .2.1s-.1.1-.2.2v.9h1.8v.6h-1.8v1.4h2.5v.5h-5.6zM159.9 345.6c.3-.1.9-.3 1.3-.7.6-.5 1-1.3 1-2.2 0-1.4-1-2.1-1.4-2.3-.3-.2-.8-.2-1.2-.2-.1 1.3-.4 2.6-1 3.9-.4.8-.8 1.5-1.4 1.5-.7 0-1.5-1.1-1.5-2.4 0-1.7 1.3-3.6 3.7-3.6 1.8 0 3.4 1.2 3.4 3.1 0 2.4-2.1 3.2-2.7 3.5l-.2-.6zm-2.9-4.1c-.3.4-.6 1-.6 1.7 0 .9.5 1.7.9 1.7.2 0 .4 0 1-1.4.6-1.5.7-2.7.8-3.2-.7.1-1.4.3-2.1 1.2zM166 346.2v-4.7h-1.4v-.6c.6 0 1.3-.1 1.6-1.2h.6v6.4h-.8zM169.8 346.2v-.9h.9v.9h-.9zM174.1 346.4c-1.4 0-2.1-.7-2.3-1.8h.8c.1.8.8 1.2 1.5 1.2.9 0 1.7-.5 1.7-1.6 0-.3-.1-1.5-1.6-1.5-.4 0-1 .1-1.4.6h-.8l.6-3.4h3.7v.7h-3l-.3 2c.2-.2.6-.4 1.4-.4 1.3 0 2.3.7 2.3 2.2-.1 1.2-1.3 2-2.6 2zM179.9 339.3c-.1.2-.4.8-.7 1.3.1 0 .2.1.2.2 0 0-.2.2-.3.2v5.8h-.6v-5.2c-.3.4-.5.7-.8 1l-.5-.5c1-1 1.8-2 2.3-3.5l.6.3c.1 0 .1.1.1.2-.1.2-.2.2-.3.2zm-.3 3.5v-.6h1.7c-.3-.6-.4-.8-.7-1.1l.5-.3c.5.6.6 1 .7 1.2l-.4.2h1.8l-.4-.2c.3-.4.5-.7.7-1.3l.5.2c.1 0 .2.1.2.2s-.1.1-.2.1c-.2.4-.4.6-.6 1h1.8v.6h-5.6zm.3-2.1v-.6h2.2v-1.3h.7s.2 0 .2.1-.1.1-.2.2v.9h2.1v.6h-5zm4 6v-.5H181v.5h-.6v-3.1h4.1v3.1h-.6zm0-2.5H181v1.4h2.8v-1.4zM186.9 345.9c-.1.1-.1.3-.2.3 0 0-.1 0-.1-.1l-.3-.7c.3-.1.5-.2 1-.4v-5.7h.7s.2 0 .2.1-.1.2-.2.2v5c1.2-.6 1.9-1 2.5-1.3v.7c-1.3.7-2.5 1.3-3.6 1.9zm6.7.6c-.3-.4-.7-.8-1.4-1.3-.4.4-1.1 1-3 1.4l-.4-.6c1-.1 3.1-.4 3.7-2.5.4-1.4.4-3.2.4-4.2l.7.1c.1 0 .2 0 .2.1s-.1.2-.2.2c-.1 2-.1 2-.2 2.5-.2 1.5-.6 2.2-.8 2.5.6.4 1 .8 1.5 1.3l-.5.5zm-3-4.4c-.5-.8-.8-1.3-1.5-1.9l.5-.4c.8.7 1.2 1.3 1.5 1.8l-.5.5zM195.1 346.4v-.6h3.3V339h.6c.1 0 .2 0 .2.1s-.1.1-.2.2v2.6h3v.6h-3v3.2h3.9v.6h-7.8zM208.1 345.6c.3-.1.9-.3 1.3-.7.6-.5 1-1.3 1-2.2 0-1.4-1-2.1-1.4-2.3-.3-.2-.8-.2-1.2-.2-.1 1.3-.4 2.6-1 3.9-.4.8-.8 1.5-1.4 1.5-.7 0-1.5-1.1-1.5-2.4 0-1.7 1.3-3.6 3.7-3.6 1.8 0 3.4 1.2 3.4 3.1 0 2.4-2.1 3.2-2.7 3.5l-.2-.6zm-2.9-4.1c-.3.4-.6 1-.6 1.7 0 .9.5 1.7.9 1.7.2 0 .4 0 1-1.4.6-1.5.7-2.7.8-3.2-.7.1-1.4.3-2.1 1.2zM212.3 341.8c1.1-.1 1.6-.2 2-.4.2-.8.2-1.3.3-1.9l.8.3c-.1.3-.2.7-.3 1.3.4-.1.6-.1.8-.1.2 0 .5 0 .8.3.4.3.5.9.5 1.3 0 1.1-.3 2.1-.7 2.7-.2.4-.6.7-1.3.7h-.4l-.3-.7c.4.1.6.1.8.1.3 0 .6-.2.8-.6.3-.6.5-1.4.5-2.1 0-.3 0-1-.8-1-.2 0-.4 0-.8.2-.4 1.2-.8 2.5-1.9 4.3l-.7-.3c.5-.6 1.2-1.4 1.9-3.7-.7.2-1 .3-1.5.4l-.5-.8zm5.5-1.3c.8 1 1.2 1.6 1.2 2.2 0 .6-.4.7-1 .8l-.4-.8h.4c.3 0 .3-.1.3-.2 0-.3-.1-.5-.3-.8-.3-.5-.5-.7-.8-1l.6-.2zM222.2 343.9c-.6.6-1.2 1.1-2 1.5l-.3-.7c.9-.4 1.5-.9 2.1-1.4l.2.6zm1.3-2.2c-.1.2-.2.3-.2.5 0 .3.1.4.7 1 .3.3.9.9.9 1.8 0 1-1 1.1-1.4 1.1-.4 0-.6 0-1.3-.2l-.2-.8c.7.2 1.1.3 1.4.3.3 0 .8-.1.8-.7 0-.5-.3-.9-.6-1.2-.7-.8-.9-1.1-.9-1.5 0-.4.1-.6.3-.8l.5.5zm-.9-2.1c.4.1 1.3.3 2 .7l-.3.6c-.6-.4-1-.5-2-.7l.3-.6zm2.9 2.7c.4.4.8.8 1.7 2.2l-.6.5c-.4-.9-1-1.7-1.5-2.3l.4-.4zm.1-2c.4.3.8.9.9 1l-.4.3c-.3-.4-.7-.9-.8-1l.3-.3zm.7-.8c.4.3.8.8.9 1l-.4.3c-.3-.4-.7-.8-.8-1l.3-.3zM229.4 339.8c-.3.9-.4 1.8-.4 2.7 0 .2 0 .2.1.4.2-.4.4-.9.6-1.3l.4.4c-.2.5-.3.7-1 2.6h-.4c-.3-.7-.4-1.4-.4-2.2 0-1 .1-1.9.4-2.9l.7.3zm3.7-.2v.6c.1 1.2.1 1.4.1 1.8 0 1.4-.3 2.5-.8 3.3-.3.5-.5.8-1 1.2l-.6-.4c.4-.3.8-.7 1.3-1.5.4-.9.5-1.7.5-2.4 0-1.2-.1-2-.3-2.5l.8-.1zM235.7 339.7v1.7c0 1.9 0 3.5-.9 5l-.6-.3c.7-1.2.9-2.4.9-4.3 0-.9-.1-2.3-.1-2.6h7.1v.5h-6.4zm3.5 5.6v.9c0 .6-.3.6-1.4.6l-.2-.7c.2 0 .5.1.7.1.2 0 .2-.1.2-.2v-.7h-2.8v-.6h2.8v-.6h.6c.3-.2.4-.2.7-.4h-3.5v-.5h4.9l.1.2c-.6.4-1.1.7-2 1.2h2.9v.6h-3zm-2.6-2.5v-2.5h4.6v2.5h-4.6zm4-2.1h-3.4v.5h3.4v-.5zm0 1h-3.4v.5h3.4v-.5zM246 339.2c.1.3.1.7.4 1.5.8-.3 1.2-.6 1.5-.8l.3.7c-.7.3-1 .4-1.5.6.5.9.7 1.3 1.3 2 .3.4.3.4.4.5l-.5.6c-.7-.4-1.5-.9-2.4-.9-1 0-1.4.7-1.4 1.1 0 1.2 1.3 1.2 1.9 1.2.5 0 .7-.1 1.3-.2v.7c-.5.1-1.1.1-1.3.1-.4 0-.9-.1-1.4-.2-.6-.2-1.1-.7-1.1-1.6 0-1 .8-1.7 2-1.7.5 0 1 .1 1.3.3.3.1.4.1.5.2-.2-.3-.6-.8-1.2-1.9-1.4.4-2 .4-2.5.5l-.3-.7c1.2.1 2.1-.1 2.7-.3-.4-.9-.5-1.3-.6-1.6l.6-.1zM25.2 349.4c0 .2.1 1.2.1 1.4 0 .4.1.8.4 1.1.1.1.2.2.3.2.4-.2 2.1-.9 2.4-1.1l.1.7c-.8.3-1.9.6-3.2 1.3-.4.2-1.3.7-1.3 1.6 0 1.2 1 1.2 1.5 1.2.1 0 1.1 0 2-.1.4-.1.6-.1 1.1-.2v.8c-1 .1-1.8.2-2.9.2-1.1 0-1.5-.2-1.8-.5-.4-.4-.5-.9-.5-1.3 0-.9.7-1.5.9-1.7.4-.3.8-.5 1-.6-.6-.6-.7-1.3-.8-2.3 0-.3 0-.3-.1-.5v-.2h.8zM33.8 349.4c0 .4-.1.7-.1 1.3.9-.1 1.9-.1 2.6-.2l.1.7c-1.2 0-2.1.1-2.7.1v1.5c.2.3.2.9.2 1.2 0 .8-.4 1.6-.7 2.2-.2.4-.4.5-.7.8l-.7-.3c.3-.2.9-.7 1.2-1.7-.3.2-.6.2-.6.2-.6 0-1.1-.5-1.1-1.5 0-1.1.7-1.6 1.3-1.6.2 0 .3 0 .4.1v-.8c-.9.1-2.4.2-3.5.3v-.6c1-.1 2.5-.2 3.5-.2v-1.5h.8zm-1.8 4.3c0 .6.4.9.6.9.4 0 .6-.4.6-1 0-.3-.1-.9-.6-.9-.3 0-.6.3-.6 1zM38.2 350.1c1.9 0 3-.3 3.7-.5l.3.5c-.1.1-.4.4-.5.4l-1.8 1.8c.3-.1.6-.3 1.1-.3.6 0 2.2.3 2.2 2s-1.7 2.4-2.8 2.4c-.8 0-1.7-.3-1.7-1.1 0-.5.5-1 1.3-1 1.1 0 1.6.9 1.8 1.2.2-.2.9-.6.9-1.4 0-.6-.4-1.4-1.6-1.4-1.5 0-3 1.5-3.1 1.7l-.6-.5c1.5-1.2 2.8-2.4 3.7-3.5-.5.1-1.4.3-2.5.3l-.4-.6zm1.7 4.7c-.4 0-.6.2-.6.4 0 .4.6.6 1.1.6.2 0 .5 0 .7-.1-.2-.2-.5-.9-1.2-.9zM50.2 356.1c-.9.1-1.8.2-2.6.2-.6 0-1.3-.1-1.9-.2-.4-.1-1.2-.4-1.2-1.3 0-.6.3-.9.9-1.5l.5.4c-.4.4-.7.6-.7 1 0 .9 1.7.9 2.2.9 1.1 0 2-.2 2.9-.4l-.1.9zm-5-6.1c.2 0 .9.2 1.1.2.4.1.7.1 1.1.1.4 0 1.2 0 1.9-.1l.3.7c-.9.6-1.4.9-2 1.4l-.4-.4c.2-.2 1.2-.8 1.4-.9-.3.1-.7.1-1 .1-.6 0-1.7-.1-2.3-.2l-.1-.9zM53.4 349.4c0 .2.1 1.2.1 1.4 0 .4.1.8.4 1.1.1.1.2.2.3.2.4-.2 2.1-.9 2.4-1.1l.1.7c-.8.3-1.9.6-3.2 1.3-.4.2-1.3.7-1.3 1.6 0 1.2 1 1.2 1.5 1.2.1 0 1.1 0 2-.1.4-.1.6-.1 1.1-.2v.8c-1 .1-1.8.2-2.9.2-1.1 0-1.5-.2-1.8-.5-.4-.4-.5-.9-.5-1.3 0-.9.7-1.5.9-1.7.4-.3.8-.5 1-.6-.6-.6-.7-1.3-.8-2.3 0-.3 0-.3-.1-.5v-.2h.8zM60.3 355.7c0 .7-.6 1.3-1.4 1.3-.7 0-1.4-.6-1.4-1.3 0-.8.6-1.4 1.4-1.4.8 0 1.4.6 1.4 1.4zm-2.3 0c0 .5.4 1 1 1 .5 0 1-.5 1-1 0-.6-.5-1-1-1s-1 .4-1 1z"/><path class="st13" d="M1.2 211.7h247.6v99.7H1.2z"/></svg>