<svg version="1.1" id="レイヤー_1" xmlns="http://www.w3.org/2000/svg" x="0" y="0" width="249" height="191" style="enable-background:new 0 0 249 191" xml:space="preserve"><style>.st1{fill:#231815}.st2{fill:none;stroke:#231815;stroke-width:.6981}.st18,.st19,.st20,.st27,.st28,.st29{fill:none;stroke:#231815;stroke-width:.4488;stroke-linecap:round;stroke-linejoin:round}.st19,.st20,.st27,.st28,.st29{stroke-width:1.3462}.st20,.st27,.st28,.st29{stroke:#717071;stroke-width:.4488}.st27,.st28,.st29{stroke:#231815;stroke-width:.9398}.st28,.st29{stroke-width:2.8194}.st29{stroke:#717071;stroke-width:.9398}</style><path style="fill:#f9f7f2" d="M-1-2h251v195H-1z"/><path class="st1" d="M176.9 25.7v-.5h3.2v-1.9h-2.4v-.5h2.4v-1.6h-2.9v-.5h6.5v.5h-3v1.6h2.4v.5h-2.4v1.9h3.2v.5h-7zm2.9-6.8c.8.5 1.3.9 1.5 1.2l-.4.4c-.4-.4-.9-.8-1.5-1.2l.4-.4zM186.8 20.4l.4.4-.4.4c-.3-.3-.4-.6-.7-.8h-.3c-.2.3-.3.4-.7.9l-.5-.3c.5-.5.9-1 1.3-2l.5.3c.1 0 .1.1.1.1 0 .1-.1.1-.2.1 0 .1-.2.3-.2.4h2v.5h-1.3zm-.3 5.7-.2-.6c.1 0 .3.1.5.1.3 0 .3-.2.3-.3v-.8h-1.4c-.1.5-.2 1.1-.6 1.7l-.5-.3c.6-.8.8-1.6.8-3.1 0-.7 0-1.1-.1-1.4h2.4v3.9c0 .5-.1.7-1.2.8zm.6-3h-1.3v.8h1.3v-.8zm0-1.3h-1.3v.8h1.3v-.8zm3.1-1.5c.2.2.2.3.4.5l-.4.4c-.1-.1-.1-.1-.1-.2 0 .1 0 .1-.2.2v1h1.5c0 .8-.1 2.4-.3 3.2-.1.6-.4.7-1.3.7l-.2-.6h.4c.5 0 .5-.3.6-.7.1-.8.1-1.8.1-2.1h-1c-.1 1.9-.7 2.7-1.3 3.3l-.5-.4c.4-.4 1.2-1 1.3-2.9h-1.1v-.5h1.2v-1.4l.6.1h.1c-.1-.1-.3-.4-.5-.6h-.5c-.2.3-.5.6-.7.9l-.5-.3c.7-.7 1-1.3 1.2-1.9l.5.3.1.1c0 .1-.1.1-.2.1-.1.1-.1.3-.2.3h2.3v.5h-1.3zM197.6 41.1v1.2h-3.9v-1.2h-1.5v-.5h1.5v-.8h.5c.1 0 .2 0 .2.1s-.1.1-.1.2v.6h1.1v-.9l.6.1c.1 0 .1 0 .1.1 0 0 0 .1-.2.1v.6h1.1v-.8h.6c.1 0 .2 0 .2.1s-.1.1-.2.1v.6h1.5v.5h-1.5zm.7 3.8v-1.5h-2.4v.6h1.9v1.7c0 .5 0 .7-1.1.7l-.2-.6h.5c.3 0 .3-.1.3-.4v-1h-1.4v2.2h-.6v-2.2H194v1.9h-.5v-2.4h1.8v-.6H193V45h-.6v-2.1h6.5v2h-.6zm-3-3.8h-1.1v.8h1.1v-.8zm1.7 0h-1.1v.8h1.1v-.8zM202 41.1l.4.4-.4.4c-.3-.3-.4-.6-.7-.8h-.3c-.2.3-.3.4-.7.9l-.5-.3c.5-.5.9-1 1.3-2l.5.3c.1 0 .1.1.1.1 0 .1-.1.1-.2.1 0 .1-.2.3-.2.4h2v.5H202zm-.2 5.7-.2-.6c.1 0 .3.1.5.1.3 0 .3-.2.3-.3v-.8H201c-.1.5-.2 1.1-.6 1.7l-.5-.3c.6-.8.8-1.6.8-3.1 0-.7 0-1.1-.1-1.4h2.4V46c-.1.6-.2.8-1.2.8zm.6-3h-1.3v.8h1.3v-.8zm0-1.3h-1.3v.8h1.3v-.8zm3.1-1.4c.2.2.2.3.4.5l-.4.4c-.1-.1-.1-.1-.1-.2 0 .1 0 .1-.2.2v1h1.5c0 .8-.1 2.4-.3 3.2-.1.6-.4.7-1.3.7l-.2-.6h.4c.5 0 .5-.3.6-.7.1-.8.1-1.8.1-2.1h-1c-.1 1.9-.7 2.7-1.3 3.3l-.5-.4c.4-.4 1.2-1 1.3-2.9h-1.1V43h1.2v-1.4l.6.1h.1c-.1-.1-.3-.4-.5-.6h-.6c-.2.3-.5.6-.7.9l-.5-.3c.7-.7 1-1.3 1.2-1.9l.5.3.1.1c0 .1-.1.1-.2.1-.1.1-.1.3-.2.3h2.3v.5h-1.2zM176.7 161.1c-.3.2-.4.2-.4.4-.5.9-.7 1.3-1.1 1.9.7.6 1.5 1.3 2.1 2.2l-.5.4c-.2-.4-.4-.7-1-1.3-.4-.5-.7-.7-.9-.8-1 1.1-1.8 1.5-2.8 2l-.5-.5c.7-.2 1.5-.5 2.5-1.5s1.4-1.8 1.6-2.5h-3.2v-.5h3.4c.1 0 .3-.1.4-.2l.4.4zM178.1 162.7v-.6h4.6c.1 0 .3-.1.4-.2l.5.6-.3.3c-.7 1.4-.8 1.6-1 1.9-1 1.2-1.8 1.5-2.6 1.8l-.5-.5c.7-.2 1.4-.4 2.3-1.3.8-.8 1-1.5 1.2-2h-4.6zm4.5-1.7h-3.7v-.6h3.7v.6zM184.3 161.6v-.5h4.2c.1 0 .2-.1.3-.2l.6.5s-.2.2-.2.3v.1c-.6 2.1-1.1 2.8-2.1 3.7-.5.4-.8.6-1.7 1l-.5-.5c.6-.2 1.5-.5 2.3-1.3 1-1 1.2-2 1.4-2.9h-4.3zm4.6-.8c-.2-.3-.5-.6-.6-.7l.4-.3c.2.2.4.5.6.7l-.4.3zm1.1-.3c-.2-.3-.4-.6-.6-.7l.4-.3c.3.3.5.6.6.7l-.4.3zM62.5 166v-.5h3.2v-1.9h-2.4v-.5h2.4v-1.6h-3v-.5h6.5v.5h-3v1.6h2.4v.5h-2.4v1.9h3.2v.5h-6.9zm2.8-6.7c.8.5 1.3.9 1.5 1.2l-.4.4c-.4-.4-.9-.8-1.5-1.2l.4-.4zM72.3 160.7l.4.4-.4.4c-.3-.3-.4-.6-.7-.8h-.3c-.2.3-.3.4-.7.9l-.5-.3c.5-.5.9-1 1.3-2l.5.3c.1 0 .1.1.1.1 0 .1-.1.1-.2.1 0 .1-.2.3-.2.4h2v.5h-1.3zm-.3 5.7-.2-.6c.1 0 .3.1.5.1.3 0 .3-.2.3-.3v-.8h-1.4c-.1.5-.2 1.1-.6 1.7l-.5-.3c.6-.8.8-1.6.8-3.1 0-.7 0-1.1-.1-1.4h2.4v3.9c0 .6-.1.8-1.2.8zm.7-3h-1.3v.8h1.3v-.8zm0-1.3h-1.3v.8h1.3v-.8zm3.1-1.4c.2.2.2.3.4.5l-.4.4c-.1-.1-.1-.1-.1-.2 0 .1 0 .1-.2.2v1H77c0 .8-.1 2.4-.3 3.2-.1.6-.4.7-1.3.7l-.2-.6h.4c.5 0 .5-.3.6-.7.1-.8.1-1.8.1-2.1h-1c-.1 1.9-.7 2.7-1.3 3.3l-.5-.4c.4-.4 1.2-1 1.3-2.9h-1.1v-.5h1.2v-1.4l.6.1h.1c-.1-.1-.3-.4-.5-.6h-.6c-.2.3-.5.6-.7.9l-.5-.3c.7-.7 1-1.3 1.2-1.9l.5.3.1.1c0 .1-.1.1-.2.1-.1.1-.1.3-.2.3H77v.5h-1.2zM62.8 177.5c-.1-.1-.1-.1-.1-.3-.3.2-.8.5-1.3.5s-.8-.5-.8-1c0-.8.5-1.4.8-1.7.3-.3.5-.4.9-.6v-1H61.1l-.1-.5c.4.1.8.1 1.4.1 0-.4.1-.7.2-1.4l.6.2c-.2.5-.2.9-.3 1.2.7-.1 1.4-.3 2.2-.5v.6c-1.1.3-1.4.3-2.2.4 0 .3 0 .6-.1.8.2-.1.6-.1 1.1-.1h.2c.1-.5.1-.5.1-.6l.5.2c-.1.2-.1.2-.1.4.3.1.7.2 1.1.7.2.3.4.7.4 1 0 1-.7 1.5-1.2 1.8-.3.2-.6.3-1 .4l-.5-.5c.6-.1 1.2-.2 1.6-.7.3-.3.4-.7.4-1 0-.9-.8-1.1-1-1.2-.2.4-.6 1.5-1.3 2.1 0 .1 0 .1.1.4l-.4.3zm-.5-2.6c-.3.2-.6.4-.9.9-.1.2-.3.5-.3.9 0 .3.3.5.5.5.4 0 .8-.3.9-.4 0-.6-.1-1.1-.2-1.9zm1.7-.4c-.4 0-.7 0-1.1.1 0 .8.1 1.2.2 1.5.3-.4.6-.7.9-1.6zM67.6 177.8c-.3-.9-.3-2.1-.3-2.7 0-1.1.2-2.2.4-3.2l.5.2c-.3 1.3-.5 2.1-.5 3 0 .7 0 1 .1 1.4.3-.5.3-.5.4-.8l.3.4c-.2.5-.5 1.1-.6 1.7h-.3zm4.9-4.4c-.5.1-.8.2-1.1.3 0 1.1.1 1.9.1 2.3.3.1.6.2 1.3.5l-.2.6c-.2-.1-.5-.3-1.1-.5 0 .5 0 1.1-1.1 1.1-.1 0-1.4 0-1.4-.9 0-.6.6-.9 1.2-.9.2 0 .5 0 .8.1 0-.3-.1-1.8-.1-2.1-.2 0-.6.1-1 .1h-.5l-.1-.6c.3 0 .6.1.8.1h.8c0-.2.1-1.3.1-1.5l.6.2c-.1.4-.1.7-.1 1.3.6-.1.8-.2 1.1-.4l-.1.3zm-2.3 2.9c-.3 0-.7.1-.7.4 0 .4.5.5.9.5.3 0 .6-.1.6-.5v-.3c-.2 0-.6-.1-.8-.1zm2.1-4.9c.1.1.3.5.5.9l-.4.2c-.1-.2-.3-.6-.5-.8l.4-.3zm.7-.3c.1.1.3.4.5.9l-.4.2c-.1-.3-.4-.7-.5-.8l.4-.3zM75.2 173.1c-.4.6-.5 1.7-.5 1.9.5-.3 1.3-.8 2.2-.8 1 0 1.5.8 1.5 1.5 0 1.4-1.4 1.8-1.9 2-.6.1-.9.2-1.4.2l-.4-.6c1 0 1.5 0 1.9-.2.3-.1 1.3-.5 1.3-1.4 0-.9-.9-.9-1-.9-1 0-1.8.8-2.4 1.2l-.3-.2c0-.6 0-1.5.5-2.9l.5.2zm-.1-1.5c.4.1 1.4.5 2.1.9l-.3.5c-.6-.4-1.3-.7-2-.9l.2-.5zM81.5 172.6l.4.4-.4.4c-.3-.3-.4-.6-.7-.8h-.3c-.2.3-.3.4-.7.9l-.5-.3c.5-.5.9-1 1.3-2l.5.3c.1 0 .1.1.1.1 0 .1-.1.1-.2.1 0 .1-.2.3-.2.4h2v.5h-1.3zm-.3 5.7-.2-.6c.1 0 .3.1.5.1.3 0 .3-.2.3-.3v-.8h-1.4c-.1.5-.2 1.1-.6 1.7l-.5-.3c.6-.8.8-1.6.8-3.1 0-.8 0-1.1-.1-1.4h2.4v3.9c0 .6-.2.8-1.2.8zm.6-3h-1.3v.8h1.3v-.8zm0-1.3h-1.3v.8h1.3v-.8zm3.1-1.4c.2.2.2.3.4.5l-.4.4c-.1-.1-.1-.1-.1-.2 0 .1 0 .1-.2.2v1h1.5c0 .8-.1 2.4-.3 3.2-.1.6-.4.7-1.3.7l-.2-.6h.4c.5 0 .5-.3.6-.7.1-.8.1-1.8.1-2.1h-1c-.1 1.9-.7 2.7-1.3 3.3l-.5-.4c.4-.4 1.2-1 1.3-2.9h-1.1v-.5H84v-1.4l.6.1h.1c-.1-.1-.3-.4-.5-.6h-.6c-.2.3-.5.6-.7.9l-.5-.3c.7-.7 1-1.3 1.2-1.9l.5.3.1.1c0 .1-.1.1-.2.1-.1.1-.1.3-.2.3h2.3v.5h-1.2zM148.2 172.1c-.2-.2-.3-.4-.5-.7v3.8h-.5v-3.6c-.2.4-.4 1-1 1.7l-.5-.3c.2-.2.5-.6.9-1.2.3-.6.4-1 .5-1.2h-1v-.6h1.1v-1.7l.6.1c.1 0 .2 0 .2.1 0 0 0 .1-.2.2v1.3h.7v.5h-.7c.1.2.2.6.9 1.2l-.5.4zm.3 2.9v-.5h1.9v-1.7h-1.3v-.5h1.3v-1.5h-1.6v-.5h3.8v.5H151v1.5h1.4v.5H151v1.7h1.9v.5h-4.4zm2.7-5.2c-.4-.4-.7-.7-1.3-1.1l.3-.4c.5.3.9.6 1.3 1l-.3.5z"/><path class="st2" d="M148 22.4h26.9M156.6 38.8l8.7 4.9h24.5M44.4 149.7l9.5 13.6H62"/><linearGradient id="SVGID_1_" gradientUnits="userSpaceOnUse" x1="-108.645" y1="406.727" x2="-105.612" y2="462.61" gradientTransform="translate(196.81 -215.352) scale(.6707)"><stop offset="0" style="stop-color:#dbdcdc"/><stop offset="1" style="stop-color:#88867a"/></linearGradient><path style="fill:url(#SVGID_1_);stroke:#231815;stroke-width:.5909;stroke-linecap:round;stroke-linejoin:round" d="m97.5 67.4 26.8 15.9 27.2-15.2-26.8-15.7z"/><linearGradient id="SVGID_00000000914659254615270030000008679925206488152997_" gradientUnits="userSpaceOnUse" x1="333.016" y1="188.238" x2="371.88" y2="188.238" gradientTransform="matrix(-.7125 0 0 .6661 388.973 24.68)"><stop offset="0" style="stop-color:#fffded"/><stop offset="1" style="stop-color:#d2d0b5"/></linearGradient><path style="fill:url(#SVGID_00000000914659254615270030000008679925206488152997_);stroke:#231815;stroke-width:.3997;stroke-linecap:round;stroke-linejoin:round" d="m165.9 125.6-41.5 21.6v27.3l41.5-23.7z"/><linearGradient id="SVGID_00000035512777870175493360000001012843590071675558_" gradientUnits="userSpaceOnUse" x1="-159.995" y1="188.238" x2="-121.132" y2="188.238" gradientTransform="matrix(.7125 0 0 .6661 211.135 24.68)"><stop offset="0" style="stop-color:#fffded"/><stop offset="1" style="stop-color:#d2d0b5"/></linearGradient><path style="fill:url(#SVGID_00000035512777870175493360000001012843590071675558_);stroke:#231815;stroke-width:.3997;stroke-linecap:round;stroke-linejoin:round" d="m82.9 125.6 41.5 21.6v27.3l-41.5-23.7z"/><linearGradient id="SVGID_00000171678529463226433150000004066624774229164451_" gradientUnits="userSpaceOnUse" x1="352.304" y1="169.703" x2="390.644" y2="169.703" gradientTransform="matrix(-.5528 0 0 .5528 384.648 33.159)"><stop offset="0" style="stop-color:#dbdcdc"/><stop offset="1" style="stop-color:#88867a"/></linearGradient><path style="fill:url(#SVGID_00000171678529463226433150000004066624774229164451_);stroke:#231815;stroke-width:.3997;stroke-linecap:round;stroke-linejoin:round" d="m167.5 107.5 22.8 13.1v25.8l-22.8-13.1z"/><linearGradient id="SVGID_00000181064785315393934470000004650708384060455846_" gradientUnits="userSpaceOnUse" x1="332.486" y1="214.708" x2="293.228" y2="214.708" gradientTransform="matrix(-.6154 0 0 .6154 261.892 -5.845)"><stop offset="0" style="stop-color:#dbdcdc"/><stop offset="1" style="stop-color:#88867a"/></linearGradient><path style="fill:url(#SVGID_00000181064785315393934470000004650708384060455846_);stroke:#231815;stroke-width:.3997;stroke-linecap:round;stroke-linejoin:round" d="m81.4 106.9-22.6 13v25.8l22.6-13z"/><linearGradient id="SVGID_00000013875753311589686520000012535622023350383034_" gradientUnits="userSpaceOnUse" x1="309.115" y1="166.723" x2="437.618" y2="166.723" gradientTransform="matrix(-.5528 0 0 .5528 365.197 35.917)"><stop offset="0" style="stop-color:#dbdcdc"/><stop offset="1" style="stop-color:#88867a"/></linearGradient><path style="fill:url(#SVGID_00000013875753311589686520000012535622023350383034_);stroke:#231815;stroke-width:.3997;stroke-linecap:round;stroke-linejoin:round" d="M194.7 111.5 124.5 151v-6.3l70.2-39.5z"/><linearGradient id="SVGID_00000007427609175472483630000006186356724893348770_" gradientUnits="userSpaceOnUse" x1="432.833" y1="162.091" x2="567.555" y2="162.091" gradientTransform="matrix(-.5528 0 0 .5528 368.416 37.772)"><stop offset="0" style="stop-color:#dbdcdc"/><stop offset="1" style="stop-color:#59564d"/></linearGradient><path style="fill:url(#SVGID_00000007427609175472483630000006186356724893348770_);stroke:#231815;stroke-width:.3997;stroke-linecap:round;stroke-linejoin:round" d="M124.5 144.7v6.3l-68.6-40.9v-6.3z"/><linearGradient id="SVGID_00000021110515682437001170000009502968918527456413_" gradientUnits="userSpaceOnUse" x1="365.615" y1="92.056" x2="403.96" y2="92.056" gradientTransform="matrix(-.7279 0 0 .7279 390.224 23.248)"><stop offset="0" style="stop-color:#fffded"/><stop offset="1" style="stop-color:#d2d0b5"/></linearGradient><path style="fill:url(#SVGID_00000021110515682437001170000009502968918527456413_);stroke:#231815;stroke-width:.3997;stroke-linecap:round;stroke-linejoin:round" d="m97.5 67.4 26.8 15.9v29.8L97.5 97.2z"/><linearGradient id="SVGID_00000000198504614644282620000007585028460985510788_" gradientUnits="userSpaceOnUse" x1="-6.005" y1="452.711" x2="-70.043" y2="452.711" gradientTransform="translate(199.384 -216.892) scale(.6707)"><stop offset="0" style="stop-color:#fffded"/><stop offset="1" style="stop-color:#d2d0b5"/></linearGradient><path style="fill:url(#SVGID_00000000198504614644282620000007585028460985510788_);stroke:#231815;stroke-width:.3997;stroke-linecap:round;stroke-linejoin:round" d="m194.3 118.3-38.8-22.4V55.2l38.8 22.2z"/><linearGradient id="SVGID_00000106118278778067726200000006369320938716568217_" gradientUnits="userSpaceOnUse" x1="523.392" y1="455.276" x2="459.351" y2="455.276" gradientTransform="matrix(-.6707 0 0 .6707 393.871 -213.082)"><stop offset="0" style="stop-color:#fffded"/><stop offset="1" style="stop-color:#d2d0b5"/></linearGradient><path style="fill:url(#SVGID_00000106118278778067726200000006369320938716568217_);stroke:#231815;stroke-width:.3997;stroke-linecap:round;stroke-linejoin:round" d="m45.3 123.4 37.4-21.6V61.2L45.3 82.5z"/><linearGradient id="SVGID_00000090290640693826941020000002653564943904454288_" gradientUnits="userSpaceOnUse" x1="-40.911" y1="516.786" x2="-6.992" y2="490.356" gradientTransform="translate(196.81 -215.352) scale(.6707)"><stop offset="0" style="stop-color:#dbdcdc"/><stop offset="1" style="stop-color:#b4b4b5"/></linearGradient><path style="fill:url(#SVGID_00000090290640693826941020000002653564943904454288_);stroke:#231815;stroke-width:.4029;stroke-linecap:round;stroke-linejoin:round" d="M194.3 77.4v28.9l-69.8 38.4-.1 13 65.9-37.1v25.8l13.4-7.4V71.7z"/><linearGradient id="SVGID_00000026163736697338643850000004846700505258540673_" gradientUnits="userSpaceOnUse" x1="482.731" y1="516.78" x2="516.649" y2="490.35" gradientTransform="matrix(-.6707 0 0 .6707 403.404 -215.352)"><stop offset="0" style="stop-color:#dbdcdc"/><stop offset="1" style="stop-color:#b4b4b5"/></linearGradient><path style="fill:url(#SVGID_00000026163736697338643850000004846700505258540673_);stroke:#231815;stroke-width:.4029;stroke-linecap:round;stroke-linejoin:round" d="M54.8 77.4v28.9l69.7 38.4.1 13-65.8-37.1v25.1L45.3 139V71.7z"/><linearGradient id="SVGID_00000029766128163683020510000010383197255915481776_" gradientUnits="userSpaceOnUse" x1="-194.418" y1="496.322" x2="-24.267" y2="496.322" gradientTransform="translate(196.81 -215.352) scale(.6707)"><stop offset="0" style="stop-color:#eeeeef"/><stop offset="1" style="stop-color:#595757"/></linearGradient><path style="fill:url(#SVGID_00000029766128163683020510000010383197255915481776_);stroke:#231815;stroke-width:.3997;stroke-linecap:round;stroke-linejoin:round" d="m54.8 106.3 27.9-15.9 41.6 22.7L166 90.4l28.3 15.9-69.8 38.4z"/><linearGradient id="SVGID_00000006669586882206862040000006300783389289908137_" gradientUnits="userSpaceOnUse" x1="-49.597" y1="364.714" x2="-48.082" y2="457.814" gradientTransform="translate(196.81 -222.232) scale(.6707)"><stop offset="0" style="stop-color:#dbdcdc"/><stop offset="1" style="stop-color:#b4b4b5"/></linearGradient><path style="fill:url(#SVGID_00000006669586882206862040000006300783389289908137_);stroke:#231815;stroke-width:.3997;stroke-linecap:round;stroke-linejoin:round" d="m194.3 77.4 9.4-5.7-79.3-44.6v10.4z"/><linearGradient id="SVGID_00000063623720125960642360000013715252576538203803_" gradientUnits="userSpaceOnUse" x1="474.136" y1="364.714" x2="475.651" y2="457.814" gradientTransform="matrix(-.6707 0 0 .6707 403.306 -222.232)"><stop offset="0" style="stop-color:#dbdcdc"/><stop offset="1" style="stop-color:#b4b4b5"/></linearGradient><path style="fill:url(#SVGID_00000063623720125960642360000013715252576538203803_);stroke:#231815;stroke-width:.3997;stroke-linecap:round;stroke-linejoin:round" d="m54.6 77.4-9.5-5.7 79.3-44.6v10.4z"/><path class="st18" d="M211.2 123.1v18.3c0 .4-.3.9-.6 1.1l-9.7 5.6M217.6 127.2v18.3c0 .4-.3.9-.6 1.1l-9.7 5.6"/><path class="st19" d="m201.8 137.5 17.6 10.3"/><path class="st20" d="m201.8 137.5 17.6 10.3"/><path class="st19" d="m201.8 118.8 17.6 10.3"/><path class="st20" d="m201.8 118.8 17.6 10.3"/><path class="st19" d="m201.8 127.6 17.6 10.3"/><path class="st20" d="m201.8 127.6 17.6 10.3"/><path class="st19" d="m192.3 142.8 17.7 10.4"/><path class="st20" d="m192.3 142.8 17.7 10.4"/><path class="st19" d="m192.3 124.1 17.7 10.4"/><path class="st20" d="m192.3 124.1 17.7 10.4"/><path class="st19" d="m192.3 132.9 17.7 10.4"/><path class="st20" d="m192.3 132.9 17.7 10.4"/><path class="st18" d="m207.3 152.3.7-18.2c0-.4.3-.9.6-1.1l9-5.8M200.8 148.1l.4-18.3c0-.4.3-.9.6-1.1l9.3-5.6"/><path class="st18" d="M205 120.2v18.3c0 .4-.3.9-.6 1.1l-9.7 5.6"/><path class="st18" d="M194.7 145.3V127c0-.4.3-.9.6-1.1l9.7-5.6M37.8 122.3v18.3c0 .4.3.9.6 1.1l9.7 5.6M31.4 126.5v18.3c0 .4.3.9.6 1.1l9.7 5.6"/><path class="st19" d="M47.3 136.7 29.6 147"/><path class="st20" d="M47.3 136.7 29.6 147"/><path class="st19" d="m47.3 118-17.7 10.4"/><path class="st20" d="m47.3 118-17.7 10.4"/><path class="st19" d="m47.3 126.8-17.7 10.4"/><path class="st20" d="m47.3 126.8-17.7 10.4"/><path class="st19" d="M56.7 142.1 39 152.4"/><path class="st20" d="M56.7 142.1 39 152.4"/><path class="st19" d="M56.7 123.4 39 133.7"/><path class="st20" d="M56.7 123.4 39 133.7"/><path class="st19" d="M56.7 132.2 39 142.5"/><path class="st20" d="M56.7 132.2 39 142.5"/><path class="st18" d="m41.7 151.5-.7-18.1c0-.4-.3-.9-.6-1.1l-9-5.8M48.2 147.4l-.4-18.3c0-.4-.3-.9-.6-1.1l-9.3-5.6"/><path class="st18" d="M44 119.5v18.3c0 .4.3.9.6 1.1l9.7 5.2"/><path class="st18" d="M54.3 144.1v-17.9c0-.4-.3-.9-.6-1.1l-9.7-5.6"/><linearGradient id="SVGID_00000026144828784778817610000005984620324964922508_" gradientUnits="userSpaceOnUse" x1="-112.653" y1="451.018" x2="-65.953" y2="451.018" gradientTransform="translate(196.81 -215.352) scale(.6707)"><stop offset="0" style="stop-color:#fffded"/><stop offset="1" style="stop-color:#d2d0b5"/></linearGradient><path style="fill:url(#SVGID_00000026144828784778817610000005984620324964922508_);stroke:#231815;stroke-width:.3997;stroke-linecap:round;stroke-linejoin:round" d="m165.9 61.2-41.6 22.1v29.8L166 90.4z"/><linearGradient id="SVGID_00000085946560500401070200000007743301330917331873_" gradientUnits="userSpaceOnUse" x1="411.2" y1="451.018" x2="457.902" y2="451.018" gradientTransform="matrix(-.6707 0 0 .6707 403.154 -215.352)"><stop offset="0" style="stop-color:#fffded"/><stop offset="1" style="stop-color:#d2d0b5"/></linearGradient><path style="fill:url(#SVGID_00000085946560500401070200000007743301330917331873_);stroke:#231815;stroke-width:.3997;stroke-linecap:round;stroke-linejoin:round" d="m82.7 61.2 41.6 22.1v29.8L82.7 90.4z"/><linearGradient id="SVGID_00000123417919208413881930000001354679231359975604_" gradientUnits="userSpaceOnUse" x1="-980.62" y1="7.357" x2="-977.05" y2="73.137" gradientTransform="translate(875.15 27.933) scale(.7672)"><stop offset="0" style="stop-color:#dbdcdc"/><stop offset="1" style="stop-color:#88867a"/></linearGradient><path style="fill:url(#SVGID_00000123417919208413881930000001354679231359975604_);stroke:#231815;stroke-width:.5909;stroke-linecap:round;stroke-linejoin:round" d="M124.4 37.5 82.7 61.2l41.6 22.1 41.6-22.1z"/><path d="M87.1 56.9 122.4 37c1.2-.4 2-.6 3.3-.4l36.7 21.3" style="fill:none;stroke:#231815;stroke-width:.9978;stroke-linecap:round;stroke-linejoin:round"/><path d="m86.3 50.7 35.8-19.3c.8-.4 2.1-.4 2.9 0l36.9 20.9" style="fill:none;stroke:#231815;stroke-width:1.0118;stroke-linecap:round;stroke-linejoin:round"/><path d="m86.3 42.4 35.8-19.1c.8-.4 2.1-.4 2.9 0L161.8 44" style="fill:none;stroke:#231815;stroke-width:.9883;stroke-linecap:round;stroke-linejoin:round"/><path class="st27" d="m86.3 34.7 35.8-17.3c.8-.4 2.1-.4 2.9 0l36.9 18.7"/><path class="st28" d="M129.8 46.7v-32"/><path class="st29" d="M129.8 46.7v-32"/><path class="st28" d="M123.4 44.7v-32"/><path class="st29" d="M123.4 44.7v-32"/><path class="st28" d="M125 80.3V45.7"/><path class="st29" d="M125 80.3V45.7"/><path class="st28" d="M137.4 73.8V39.3"/><path class="st29" d="M137.4 73.8V39.3"/><path class="st28" d="M149.3 67.8V33.3"/><path class="st29" d="M149.3 67.8V33.3"/><path class="st28" d="M109.8 73.4V38.9"/><path class="st29" d="M109.8 73.4V38.9"/><path class="st28" d="M101 68.6V34"/><path class="st29" d="M101 68.6V34"/><path class="st28" d="M94 64.9V32.1"/><path class="st29" d="M94 64.9V32.1"/><path class="st28" d="M87.7 61.6V28.7"/><path class="st29" d="M87.7 61.6V28.7"/><path class="st28" d="M100 53.9V21.1"/><path class="st29" d="M100 53.9V21.1"/><path class="st28" d="M111.4 47.2V14.3"/><path class="st29" d="M111.4 47.2V14.3"/><path class="st28" d="M159.8 62.1V29.2"/><path class="st29" d="M159.8 62.1V29.2"/><path class="st28" d="M148.2 55.7V22.8"/><path class="st29" d="M148.2 55.7V22.8"/><path class="st28" d="M137.7 51.5V18.7"/><path class="st29" d="M137.7 51.5V18.7"/><path class="st27" d="M161.8 36.2 126 52.8c-.8.4-2.1.4-2.9 0L86.3 34.7"/><path class="st27" d="M161.8 44.3 126 60.9c-.8.4-2.1.4-2.9 0l-36.8-18"/><path class="st27" d="M161.8 52.4 126 69c-.8.4-2.1.4-2.9 0L86.3 50.3"/><path class="st27" d="m162.4 57.9-36.3 18c-.8.4-2.1.4-2.9 0L86.3 57.2"/><path class="st1" d="M65.5 153.7c-.3-.9-.3-2-.3-2.7 0-1.1.2-2.2.4-3.2l.5.2c-.4 1.3-.5 2.1-.5 3 0 .7.1 1 .1 1.4.1-.1.3-.7.4-.8l.3.4-.4.8c-.2.5-.2.7-.2.9h-.3zm5.1-.6c-.6-.4-.8-.5-1.1-.6 0 .5-.1 1.1-1.1 1.1-.5 0-1.4-.2-1.4-.9 0-.4.3-.9 1.2-.9.3 0 .5 0 .8.1-.1-1.5-.1-1.6-.1-2.2-.6.1-1.2.1-1.5 0l-.1-.6c.3.1.5.1 1 .1h.6c0-.4.1-1 .1-1.6l.6.2c-.1.5-.1 1.1-.2 1.3.6-.1.9-.2 1.1-.3v.6c-.3.1-.6.1-1.1.2 0 .6 0 1.3.1 2.3.4.1.7.2 1.3.5l-.2.7zm-2.6-.9c-.6 0-.7.3-.7.4 0 .3.4.5.9.5.6 0 .6-.3.6-.8-.3 0-.6-.1-.8-.1zM72.6 148c-.2.8-.3 1.6-.3 2.4 0 .2 0 .2.1.3l.6-1.2.3.3c-.2.5-.2.7-.9 2.3h-.3c-.2-.6-.3-1.2-.3-1.9 0-.9.1-1.7.3-2.6l.5.4zm3.2-.2v.5c.1 1.1.1 1.3.1 1.6 0 1.2-.3 2.2-.7 2.9-.3.4-.5.7-.8 1l-.5-.4c.3-.3.7-.6 1.1-1.3.4-.8.4-1.5.4-2.1 0-1.1-.1-1.7-.2-2.2h.6z"/><path class="st2" d="m146.8 139.9 22.2 22.3M62.6 133.4l8 9.6M34.4 147.3l18.7 27.2h6.3"/></svg>