<svg version="1.1" id="レイヤー_1" xmlns="http://www.w3.org/2000/svg" xmlns:xlink="http://www.w3.org/1999/xlink" x="0" y="0" width="671" height="248" style="enable-background:new 0 0 671 248" xml:space="preserve"><style>.st4{fill:#9e9e9f;stroke:#231815;stroke-width:.5607}.st5{fill:#231815}.st12,.st13,.st6,.st7{fill:none;stroke:#231815;stroke-width:1.1214}.st12,.st13,.st7{stroke-width:2.2427}.st12,.st13{stroke-width:.9984}.st13{stroke-width:.9776}</style><path style="fill:#f9f7f2" d="M0 0h321v286H0z"/><defs><path id="SVGID_1_" d="M117.5 25.2H290v192.2H117.5z"/></defs><clipPath id="SVGID_00000129191863202367979690000017100598248529702560_"><use xlink:href="#SVGID_1_" style="overflow:visible"/></clipPath><g style="clip-path:url(#SVGID_00000129191863202367979690000017100598248529702560_)"><path style="fill:#dbdcdc;stroke:#231815;stroke-width:.5607" d="M41.2 58h236v236h-236z"/><path style="fill:none;stroke:#231815;stroke-width:2.2427;stroke-dasharray:6.7283,6.7283" d="M57 73.8h204.5v204.5H57z"/><path class="st4" d="M230 85.6H88.4c-10.9 0-19.6 8.9-19.6 19.6v141.6c0 10.9 8.9 19.6 19.6 19.6H230c10.9 0 19.6-8.9 19.6-19.6V105.2c.1-10.8-8.7-19.6-19.6-19.6zm11.8 161.3c0 6.5-5.3 11.8-11.8 11.8H88.4c-6.5 0-11.8-5.3-11.8-11.8V105.2c0-6.5 5.3-11.8 11.8-11.8H230c6.5 0 11.8 5.3 11.8 11.8v141.6z"/><path class="st5" d="M100.2 105.2c0 6.5-5.3 11.8-11.8 11.8-6.5 0-11.8-5.3-11.8-11.8 0-6.5 5.3-11.8 11.8-11.8 6.5 0 11.8 5.3 11.8 11.8zM241.8 105.2c0 6.5-5.3 11.8-11.8 11.8s-11.8-5.3-11.8-11.8c0-6.5 5.3-11.8 11.8-11.8 6.6 0 11.8 5.3 11.8 11.8zM100.2 246.9c0 6.5-5.3 11.8-11.8 11.8-6.5 0-11.8-5.3-11.8-11.8S81.8 235 88.3 235c6.6 0 11.9 5.3 11.9 11.9zM100.2 176.1c0 6.5-5.3 11.8-11.8 11.8-6.5 0-11.8-5.3-11.8-11.8s5.3-11.8 11.8-11.8c6.5-.1 11.8 5.2 11.8 11.8zM171 105.2c0 6.5-5.3 11.8-11.8 11.8s-11.8-5.3-11.8-11.8c0-6.5 5.3-11.8 11.8-11.8 6.6 0 11.8 5.3 11.8 11.8zM171 246.9c0 6.5-5.3 11.8-11.8 11.8s-11.8-5.3-11.8-11.8 5.3-11.8 11.8-11.8c6.6-.1 11.8 5.2 11.8 11.8zM241.8 246.9c0 6.5-5.3 11.8-11.8 11.8s-11.8-5.3-11.8-11.8 5.3-11.8 11.8-11.8c6.6-.1 11.8 5.2 11.8 11.8zM241.8 176.1c0 6.5-5.3 11.8-11.8 11.8s-11.8-5.3-11.8-11.8 5.3-11.8 11.8-11.8c6.6-.1 11.8 5.2 11.8 11.8zM241.4 140.7c0 6.5-5.3 11.8-11.8 11.8s-11.8-5.3-11.8-11.8c0-6.5 5.3-11.8 11.8-11.8s11.8 5.2 11.8 11.8zM241.8 211.5c0 6.5-5.3 11.8-11.8 11.8s-11.8-5.3-11.8-11.8 5.3-11.8 11.8-11.8c6.6-.1 11.8 5.2 11.8 11.8zM206.4 106c0 6.5-5.3 11.8-11.8 11.8s-11.8-5.3-11.8-11.8c0-6.5 5.3-11.8 11.8-11.8 6.6-.1 11.8 5.3 11.8 11.8z"/><path class="st4" d="M41.2 58h30v-7.8H33.3V88h7.9zM163.3 294.1H197v7.9h-33.7zM33.3 180.6h7.9v33.7h-7.9zM33.3 222.6h7.9v33.7h-7.9zM33.3 96.6h7.9v33.7h-7.9zM79.4 50.2h33.7v7.9H79.4zM41.2 294.1v-30h-7.9V302h37.9v-7.9zM121.4 294.1h33.7v7.9h-33.7zM33.3 138.7h7.9v33.7h-7.9zM79.4 294.1h33.7v7.9H79.4zM205.4 294.1h33.7v7.9h-33.7zM277.2 138.3h7.9V172h-7.9zM205.4 50.2h33.7v7.9h-33.7zM277.2 96.4h7.9v33.7h-7.9zM247.3 50.2V58h29.9v30h7.9V50.2zM277.2 294.1h-29.9v7.9h37.8v-37.9h-7.9zM121.4 50.2h33.7v7.9h-33.7zM163.3 50.2H197v7.9h-33.7zM277.2 180.3h7.9V214h-7.9zM277.2 222.2h7.9v33.7h-7.9z"/><path class="st6" d="M158.6 113.9v17.5h8.7"/><path class="st5" d="M170.6 135.8v-.8h4.9v-3h-3.7v-.9h3.7v-2.5H171v-.9h10.1v.9h-4.7v2.5h3.7v.9h-3.7v3h4.9v.9h-10.7zm4.4-10.6c1.2.7 2 1.5 2.3 1.9l-.6.7c-.7-.6-1.4-1.2-2.3-1.9l.6-.7zM186 127.5l.6.6-.6.6c-.4-.5-.7-.9-1.1-1.2h-.5c-.2.5-.5.6-1.1 1.4l-.7-.5c.9-.9 1.4-1.6 2.1-3.1l.7.5c.1 0 .1.1.1.1 0 .1-.1.1-.2.1 0 .1-.2.5-.4.6h3.1v.9h-2zm-.4 8.8-.2-1c.2 0 .5.1.7.1.5 0 .5-.2.5-.5v-1.2h-2.2c-.1.7-.4 1.6-1 2.6l-.9-.4c1-1.2 1.2-2.6 1.2-4.8 0-1.2-.1-1.7-.1-2.2h3.7v6.2c.2 1-.1 1.2-1.7 1.2zm1-4.5h-2v1.2h2.1v-1.2h-.1zm0-2h-2v1.2h2v-1.2zm4.8-2.3c.2.2.4.4.6.7l-.6.6c-.1-.1-.1-.1-.2-.4 0 .1 0 .1-.4.2v1.6h2.3c0 1.2-.1 3.8-.5 4.9-.2.9-.6 1.1-2 1.1l-.2-1h.6c.7 0 .7-.5.9-1.1.1-1.2.2-2.8.2-3.3h-1.5c-.1 3-1.1 4.3-2.1 5.2l-.7-.6c.7-.6 1.9-1.6 2-4.6h-1.7v-.7h1.9V128l1 .1h.1c-.1-.2-.5-.6-.7-1h-.9c-.4.5-.7 1-1 1.4l-.7-.5c1.1-1.1 1.5-2 2-3.1l.7.5.1.1c0 .1-.2.1-.2.1-.1.1-.2.4-.4.5h3.6v1.2h-2.2z"/><path class="st6" d="M140.7 90.8v67.6h17.9"/><path class="st5" d="M168.5 154.8v2h-6v-2h-2.2v-.7h2.2v-1.4h.9c.1 0 .2 0 .2.1s-.1.1-.2.2v.9h1.7v-1.4l1 .1c.1 0 .2 0 .2.1s0 .1-.2.2v1h1.7v-1.4h.9c.1 0 .2 0 .2.1s-.1.1-.2.2v1h2.3v.7c0 .3-2.5.3-2.5.3zm1.1 5.8v-2.2h-3.8v1h3v2.7c0 .7 0 1.1-1.7 1.1l-.4-1h.9c.5 0 .5-.2.5-.6V160H166v3.5h-1V160h-2v3.1h-.9v-3.8h2.8v-1h-3.7v2.5h-.9v-3.2h10.2v3.1c.2-.1-.9-.1-.9-.1zm-4.7-5.8h-1.7v1.2h1.7v-1.2zm2.6 0h-1.7v1.2h1.7v-1.2zM175.4 154.7l.6.6-.6.6c-.4-.5-.7-.9-1.1-1.2h-.5c-.2.5-.5.6-1.1 1.4l-.7-.5c.9-.9 1.4-1.6 2.1-3.1l.7.5c.1 0 .1.1.1.1 0 .1-.1.1-.2.1-.1.1-.2.5-.4.6h3.2v.7h-2.1v.2zm-.4 9-.2-1c.2 0 .5.1.7.1.5 0 .5-.2.5-.5v-1.2h-2.2c-.1.7-.4 1.6-1 2.6l-.9-.4c1-1.4 1.2-2.6 1.2-4.8 0-1.2-.1-1.7-.1-2.2h3.7v6.2c.2.9-.1 1.1-1.7 1.2zm1-4.7h-2v1.2h2.1V159h-.1zm0-1.9h-2v1.2h2v-1.2zm4.8-2.4c.2.2.4.4.6.7l-.6.6c-.1-.1-.1-.1-.2-.4 0 .1 0 .1-.4.2v1.6h2.3c0 1.2-.1 3.8-.5 4.9-.2.9-.6 1.1-2 1.1l-.2-1h.6c.7 0 .7-.5.9-1.1.1-1.2.2-2.8.2-3.3H180c-.1 3-1.1 4.3-2.1 5.2l-.7-.6c.7-.6 1.9-1.6 2-4.6h-1.7v-.7h1.9v-2.1l1 .1h.2c-.1-.2-.5-.6-.7-1h-.9c-.4.5-.7 1-1 1.4l-.7-.5c1.1-1.1 1.5-2 2-3.1l.7.5.1.1c0 .1-.2.1-.2.1-.1.1-.2.4-.4.5h3.6v.7h-2.2v.7z"/><path class="st7" d="M201.1 64.7v14"/><path class="st5" d="m197 75.6 4.1 1.8 4.2-1.8-4.2 9.8zM205.3 67.7l-4.2-1.7-4.1 1.7 4.1-9.7z"/><path class="st7" d="M256.4 121.2h14.2"/><path class="st5" d="m267.4 125.2 1.9-4-1.9-4.2 9.8 4.2zM259.7 117l-1.8 4.2 1.8 4-9.8-4z"/></g><path class="st5" d="M18.6 101.7v-.9h6.8V96h-6.8v-.9h7.6v7.3h-1v-.6h-6.7v-.1zM37 97.8c-1.4 1.4-2.8 2.8-7.9 4.7 0 0-.1.4-.2.4s-.1-.1-.2-.2l-.5-1.1c1.2-.2 2.5-.5 4.7-1.7 2.1-1.2 3-2.1 3.7-2.8l.4.7zm-6.4-.9c-.6-.7-1.2-1.4-2-2.1l.7-.7c.4.4 1.4 1.2 2.1 2.1l-.8.7zM45.4 95h.5l.6.7c-.5.4-.5.5-.6.7-1 2.6-1.6 3.7-3.1 5.2-.9.7-1.5 1.2-2.5 1.7l-1-.9c1.1-.5 2.3-1.1 3.7-2.8 1.2-1.6 1.6-2.8 1.9-3.9h-3.7c-.5.7-1.1 1.5-2.3 2.6l-.9-.5c.6-.5 1.4-1.1 2.2-2.2.7-1 1-1.6 1.1-2.1l.9.2c.2.1.2.2.2.2 0 .1-.1.1-.4.1-.1.2-.2.5-.4.9.1.1 3.8.1 3.8.1zM49.2 94c.1 0 .2 0 .2.1s0 .1-.2.2v5.3h-1v-5.8l1 .2zm.5 8.7c1.4-.5 2-.9 2.5-1.5.7-.9 1.2-1.9 1.2-3.8V93.7h1s.2 0 .2.1c0 0 0 .1-.2.4 0 3.5 0 4.7-.5 6-.6 1.7-2.2 2.6-3.3 3.2l-.9-.7zM56.1 99.1v-.9h8.8v.9h-8.8zM68.1 96.9c2.1.9 2.8 1.5 3.9 2.3l-.6.9c-.4-.4-.9-.7-1.6-1.2-1-.6-1.5-.9-2.1-1.1v5.4h-1v-9.5h.9s.4 0 .4.1-.1.1-.2.2v3.5l.3-.6zM73.1 97c1.2-.2 1.9-.5 2.6-.6.1-.6.1-1.1.1-2.5l1.1.4c-.1.5-.1.9-.4 1.9.2 0 .6-.1 1-.1.7 0 1.7.5 1.7 2.2 0 1-.2 2.7-.7 3.7-.5.9-1.2 1-1.6 1h-.6l-.4-1c.5.1.7.1 1 .1s.7 0 1.1-.9c.1-.2.5-1.4.5-2.7 0-.7-.1-1.6-1-1.6-.4 0-.7.1-1 .1-.5 2.2-1.2 4.1-2.5 6l-.9-.5c.5-.6.9-1.1 1.6-2.6.6-1.4.7-2.1.9-2.7-.2.1-1 .4-1.1.5-.7 0-.9.1-1.1.1l-.3-.8zm6.6-2.2c.6.6 2.2 2.1 2.2 3.3 0 .9-.7 1-1.4 1.1l-.5-1c.4 0 .9 0 .9-.4 0-.2-.1-.4-.2-.7-.4-.6-.9-1.1-1.6-1.9l.6-.4zm2.1.6c-.4-.4-.7-.7-1.1-1l.6-.5c.4.2.7.6 1.2 1l-.7.5zm.7-2.4c.4.2.7.6 1.1 1l-.6.5c-.4-.4-.7-.7-1.1-1l.6-.5zM20.2 108.2v2.3c0 2.7 0 4.8-1.2 6.9l-.9-.5c1-1.7 1.2-3.3 1.2-5.9 0-1.2-.1-3.2-.1-3.7H29v.7h-8.8v.2zm4.8 7.5v1.2c0 .7-.5.9-1.9.9l-.2-1c.2 0 .7.1 1 .1.2 0 .4-.1.4-.4v-.9h-3.9v-.6h3.9v-.7l.7.1c.4-.2.5-.2.9-.5h-4.8v-.7h6.7l.1.2c-.9.5-1.5.9-2.7 1.7h3.9v.7H25v-.1zm-3.5-3.4v-3.5h6.3v3.5h-6.3zm5.4-2.7h-4.7v.6h4.7v-.6zm0 1.3h-4.7v.7h4.7v-.7zM31.8 109.7c0 .4-.2 1-.2 2.1 0 3 1.1 4.1 1.5 4.1.5 0 .9-1.5 1.1-2.2l.7.6c-.2.7-.9 2.5-1.9 2.5-1.1 0-1.9-1.9-1.9-2-.5-1.2-.5-2.8-.5-3.7s0-1.4.1-1.7l1.1.3zm6.3-.4c1.5 1.6 2 3.8 2.1 4.8l-.9.4c-.5-2.6-1.2-3.8-2-4.8l.8-.4zM46.7 109.7c-.1 1.1-.1 1.4-.2 2h4.6c-.1 2.2-.5 4.3-.7 5.1-.5 1.1-1.2 1.1-2.8 1.1l-.2-1.1c.4.1.9.1 1.2.1.9 0 1-.4 1.1-1.1.2-1.1.4-2.6.5-3.2h-3.7c-.4 1.2-1 3.7-3.8 5.4l-.6-.7c1.5-.6 2.6-2 3.2-3.5.6-1.6.7-3.2.9-3.9h-4.6v-.9h5.1v-2l1 .1c.1 0 .2 0 .2.1s-.1.1-.4.2v1.5h5.2v.9h-5.8v-.1zM53.4 111c1.2-.2 2-.5 2.6-.6.1-.6.1-1.1.1-2.5l1.1.4c-.1.5-.1.9-.4 1.9.2 0 .6-.1 1-.1.7 0 1.7.5 1.7 2.2 0 1-.2 2.7-.7 3.7-.5.9-1.2 1-1.6 1h-.6l-.4-1c.5 0 .7.1 1 .1.2 0 .7 0 1.1-.9.1-.2.5-1.4.5-2.7 0-.6-.1-1.6-1-1.6-.4 0-.7.1-1 .1-.5 2.2-1.2 4.1-2.5 6l-.9-.5c.5-.6.9-1.1 1.6-2.6.6-1.4.7-2.1.9-2.7-.1.1-1 .4-1.1.5-.5.1-.6.2-.7.2l-.7-.9zm6.5-2.2c.6.6 2.2 2.1 2.2 3.3 0 .9-.7 1-1.4 1.1l-.5-1c.4 0 .9 0 .9-.4 0-.2-.1-.4-.2-.7-.4-.6-.9-1.1-1.6-1.9l.6-.4zm2.3.6c-.4-.4-.7-.7-1.1-1l.6-.5c.4.2.7.6 1.2 1l-.7.5zm.6-2.3c.4.2.7.6 1.1 1l-.6.5c-.4-.4-.7-.7-1.1-1l.6-.5zM70.1 113.4c.1.4.6 1.1 1.4 1.9.4-.1 1.1-.5 2.2-1.2l.7.6.1.1s0 .1-.1.1h-.2c-.6.4-1.2.6-2.1 1 1.1.7 2.2 1 3.1 1.1l-.5.9c-2-.5-4.1-1.4-5.4-4.4h-1.5v3c.9-.2 1.5-.4 2.5-.6v.9c-2.1.6-3.3 1-4.6 1.2 0 .1-.1.4-.2.4s-.2-.1-.2-.2l-.4-1c.5 0 .9-.1 2-.4v-3.2h-2.1v-.7H67v-5.2h7v.7h-6.2v1h5.8v.7h-5.8v.9h5.8v.7h-5.8v1h7.5v.7h-5.2zM78 109.7c0 .4-.2 1-.2 2.1 0 3 1.1 4.1 1.5 4.1.5 0 .9-1.5 1.1-2.2l.7.6c-.2.7-.9 2.5-1.9 2.5-1.1 0-1.9-1.9-1.9-2-.5-1.2-.5-2.8-.5-3.7s0-1.4.1-1.7l1.1.3zm6.2-.4c1.5 1.6 2 3.8 2.1 4.8l-1 .4c-.5-2.6-1.2-3.8-2-4.8l.9-.4zM92.5 107.3v3.8h-3.7v6.8h-.9v-10.6h4.6zm-.9.8h-2.8v.9h2.8v-.9zm0 2.3v-.9h-2.8v.9h2.8zm-.1 6.4h-.9v-4.6h4.7v3.9h-3.8v.7zm3-3.8h-3v.9h3v-.9zm0 1.6h-3v.9h3v-.9zM96 117h.6c.5 0 .6-.1.6-.4v-5.4h-3.7v-3.8h4.6v9.1c0 1.1-.1 1.4-1.7 1.4l-.4-.9zm1.2-8.9h-3v.9h3v-.9zm0 1.5h-3v.9h3v-.9zM21.6 129.7c.4-1 .5-1.6.6-2.1l.9.2c.1 0 .1 0 .1.1s-.1.1-.2.2c-.1.5-.2 1-.6 1.7.4-.1.4-.1.9-.4v.9c-1.6.7-3.3 1.2-3.8 1.4 0 .1-.1.4-.2.4s-.3-.1-.3-.1l-.4-.9c.6-.1 1.1-.2 1.9-.5v-3.5h-2v-.7h2v-1.1h-1.2v-.6l-.5.5-.6-.6c1.4-1.2 2.1-2.1 2.7-3.8l.9.4.2.1c0 .1-.1.1-.2.2.5.7 1 1.2 1.6 1.9l-.6.6c-.2-.2-.7-.6-1.5-1.9-.5.9-.9 1.5-1.7 2.5h3.1v.7h-1.2v1.1h1.4v.7h-1.4v3.1c.5-.1.7-.2 1-.4l-.9-.1zm-2.4-1.8c.5.7.7 1.4.9 2.1l-.7.2c-.2-.7-.5-1.4-.9-2.1l.7-.2zm9.5-4.1v.9h-2.1c0 1.4-.1 1.6-.1 2H29v.9h-2.3c.1.6.4 1.4 1 2.2.5.6 1.1 1.2 1.7 1.7l-.7.6c-.5-.4-1.9-1.6-2.5-3.6-.7 2.1-1.9 3.1-2.8 3.7l-.6-.6c1-.6 2.2-1.5 2.8-3.9h-2.2v-.9h2.5c.1-.6.1-1.2.1-2h-1.5c-.1.6-.2.7-.5 1.4l-.9-.4c.7-1.5.9-3 .9-3.8l1 .2c.1 0 .1 0 .1.1s-.1.1-.2.2c0 0-.1 1-.2 1.5h1.4v-2.6l.9.1c.1 0 .2 0 .2.1s-.2.2-.2.2v1.9h1.7zM33.8 123.1l.6.6-.6.6c-.4-.5-.7-.9-1.1-1.2h-.5c-.2.5-.5.6-1.1 1.4l-.7-.5c.9-.9 1.4-1.6 2.1-3.1l.7.4c.1 0 .1.1.1.1 0 .1-.1.1-.2.1 0 .1-.2.5-.4.6h3.1v.7h-2v.3zm-.4 8.9-.2-1c.2 0 .5.1.7.1.5 0 .5-.2.5-.5v-1.2h-2.2c-.1.7-.4 1.6-1 2.6l-.9-.4c1-1.2 1.2-2.6 1.2-4.8 0-1.2-.1-1.7-.1-2.2h3.7v6.2c0 .8-.1 1.2-1.7 1.2zm.9-4.7h-2c0 .6 0 .9-.1 1.2h2.1v-1.2zm0-1.9h-2v1.2h2v-1.2zm4.9-2.4c.2.2.4.4.6.7l-.6.6c-.1-.1-.1-.1-.2-.4 0 .1 0 .1-.4.2v1.6h2.3c0 1.2-.1 3.8-.5 4.9-.2.9-.6 1.1-2 1.1l-.2-1h.6c.7 0 .7-.5.9-1.1.1-1.2.2-2.8.2-3.3h-1.5c-.1 3-1.1 4.3-2.1 5.2l-.7-.2c.7-.6 1.9-1.6 2-4.6h-1.7v-.7h1.9v-2l1 .1h.1c-.1-.2-.5-.6-.7-1h-.9c-.4.5-.7 1-1 1.4l-.7-.5c1.1-1.1 1.5-2 2-3.1l.7.5.1.1c0 .1-.2.1-.2.1-.1.1-.2.4-.4.5h3.6v.7h-2.1v.2zM49.6 131.3c-1.2.2-2.5.2-2.7.2-.4 0-2.7 0-2.7-1.9 0-1.6 1.5-2.5 2.7-3.1 0-.4-.1-1-.7-1-1.1 0-2.1 1.4-2.8 2.5l-.7-.5c1.2-1.4 1.7-2.2 2.2-3.6-1.1.1-1.5.1-1.9 0l-.1-1c.4 0 .7.1 1.4.1h1c.2-1 .4-1.4.5-1.9l1 .1c-.1.4-.2.7-.6 1.6 1.6-.2 2.3-.6 2.7-.9l.1.9c-1.5.4-2.2.6-3.2.7-.4 1-.4 1.1-.6 1.5.1-.1.5-.5 1-.5 1 0 1.2.9 1.2 1.4 1.5-.7 1.9-.7 2.5-1.2l.2.9c-1.5.5-1.9.6-2.6 1 .1 1.2.1 1.6.1 2.5h-.7V127c-1 .6-1.9 1.2-1.9 2.1 0 1.1 1.4 1.2 1.9 1.2.9 0 1.9-.1 2.6-.4l.1 1.4zM58.8 127.3v3.7c0 1-.2 1-2 1l-.4-1c.6 0 .7.1 1.2.1.4 0 .4-.1.4-.4v-3.3h-6.4v-.9h6.2v-2.1l1 .1s.1 0 .1.1-.1.1-.2.2v1.6H62v.9h-3.2zm2.3-4h-8.4v1.9h-.9v-2.7h4.4V121h1c.1 0 .2.1.2.1 0 .1-.1.1-.2.2v1.1h4.7v2.7H61c.1 0 .1-1.8.1-1.8zm-7.1 4.9c.5.6 1 1.5 1.2 2.1l-.7.5c-.5-1-.7-1.4-1.2-2.1l.7-.5zM64.9 122.5c2.7 0 4.2-.4 5.1-.7l.4.6c-.1.1-.6.5-.7.6-1.1 1.1-1.7 1.7-2.6 2.5.4-.1.9-.4 1.5-.4.9 0 3 .5 3 2.7 0 2.3-2.3 3.3-3.8 3.3-1 0-2.3-.5-2.3-1.6 0-.7.6-1.4 1.7-1.4 1.6 0 2.2 1.2 2.5 1.7.4-.2 1.2-.9 1.2-2 0-.9-.5-1.9-2.2-1.9-2.1 0-4.1 2.1-4.3 2.3l-.7-.6c2.1-1.6 3.8-3.3 5.1-4.8-.6.1-2 .4-3.5.5l-.4-.8zm2.2 6.4c-.5 0-.9.4-.9.6 0 .5.9.9 1.5.9.4 0 .6 0 1-.1-.1-.4-.5-1.4-1.6-1.4z"/><path d="M18 167.3c0-4.7 3.9-8.5 8.8-8.5h53.7c4.8 0 8.8 3.8 8.8 8.5V197c0 4.7-3.9 8.5-8.8 8.5H26.8c-4.8 0-8.8-3.8-8.8-8.5v-29.7z" style="fill:#fff;stroke:#231815;stroke-width:.8185"/><path class="st5" d="M26.8 171.6c2.1-.2 3-.4 3.7-.6.4-1.5.4-2.3.5-3.6l1.5.6c-.2.6-.4 1.4-.6 2.5.7-.1 1.1-.2 1.5-.2s1 .1 1.5.6c.6.6.9 1.7.9 2.5 0 2-.6 3.9-1.2 5.1-.4.7-1.1 1.2-2.3 1.2-.1 0-.4 0-.9-.1l-.5-1.4c.9.1 1.1.1 1.5.1.6 0 1-.2 1.5-1.1.5-1.1.9-2.6.9-4.1 0-.6-.1-2-1.4-2-.4 0-.6 0-1.5.2-.6 2.3-1.5 4.7-3.6 8l-1.2-.6c1-1.1 2.2-2.7 3.6-6.9-1.2.4-1.9.5-2.8.7l-1.1-.9zm10.3-2.5c1.5 1.9 2.2 3 2.2 4.2 0 1.2-.7 1.4-1.9 1.6l-.6-1.5h.7c.5 0 .5-.2.5-.5 0-.6-.1-1-.6-1.6-.6-.9-1-1.4-1.5-1.9l1.2-.3zM45.4 175.7c-1.1 1.1-2.3 2.1-3.7 2.7l-.6-1.2c1.6-.7 2.8-1.6 3.9-2.7l.4 1.2zm2.6-4.3c-.2.4-.2.6-.2.9 0 .6.2.7 1.2 2 .6.6 1.6 1.7 1.6 3.5 0 2-1.9 2.1-2.7 2.1-.7 0-1.2-.1-2.3-.4l-.4-1.5c1.2.4 2.1.6 2.7.6s1.5-.1 1.5-1.4c0-1-.6-1.6-1.1-2.2-1.4-1.5-1.6-2-1.6-2.7 0-.6.2-1.1.5-1.5l.8.6zm-1.9-4c.9.1 2.5.5 3.8 1.2l-.5 1.1c-1.2-.7-1.9-.9-3.8-1.2l.5-1.1zm5.5 5.2c.9.7 1.6 1.5 3.1 4.1l-1.1.9c-.7-1.7-1.9-3.1-2.8-4.2l.8-.8zm.2-3.8c.9.6 1.5 1.7 1.6 1.9l-.9.6c-.5-.9-1.4-1.7-1.6-1.9l.9-.6zm1.4-1.5c.9.6 1.5 1.5 1.6 1.9l-.9.6c-.5-.9-1.2-1.6-1.6-1.9l.9-.6zM59 167.8c-.5 1.7-.7 3.3-.7 5.1 0 .4 0 .5.1.7.4-.7.9-1.6 1.2-2.5l.7.7c-.4 1-.5 1.4-1.9 4.9l-.7.1c-.5-1.4-.6-2.6-.6-4.1 0-1.9.2-3.7.6-5.4l1.3.5zm6.7-.4v1.1c.1 2.3.2 2.7.2 3.5 0 2.6-.6 4.7-1.5 6.2-.5 1-1 1.5-1.9 2.2l-1.1-.7c.7-.5 1.6-1.2 2.3-2.8.7-1.6.9-3.3.9-4.6 0-2.2-.2-3.7-.5-4.7l1.6-.2zM70.7 167.8v3.2c0 3.6-.1 6.5-1.7 9.4l-1.1-.6c1.4-2.2 1.6-4.4 1.6-8 0-1.6-.1-4.3-.1-4.9h13.3v1l-12-.1zm6.6 10.4v1.7c0 1.1-.6 1.1-2.6 1.1l-.4-1.2c.4 0 1 .1 1.4.1s.5-.1.5-.4v-1.2h-5.3v-1.1h5.3v-1.1l1.1.1c.5-.2.7-.4 1.2-.7h-6.7v-1.1H81l.2.4c-1.2.7-2 1.2-3.8 2.2h5.4v1.1h-5.6v.1zm-4.9-4.7v-4.8H81v4.8h-8.6zm7.4-3.9h-6.4v1h6.4v-1zm0 1.9h-6.4v1h6.4v-1zM33.7 194.4v2.8h-1.5v-2.8h-5.9v-1.2l6-7.9h1.4v7.9h1.7v1.2h-1.7zm-1.5-7-4.4 5.9h4.4v-5.9zM41.3 197.6c-3.7 0-4.6-3.3-4.6-6.4 0-3.1.9-6.4 4.6-6.4s4.6 3.3 4.6 6.4c0 3.1-.9 6.4-4.6 6.4zm0-11.4c-2.3 0-3 2.5-3 5.1 0 2.8.7 5.2 3 5.2s3-2.3 3-5.2c.1-2.8-.6-5.1-3-5.1zM57.8 197.4v-6.3c0-.7-.2-1.9-1.6-1.9-2.2 0-2.2 2.1-2.2 2.3v5.7h-1.4v-6.4c0-1.5-1-1.7-1.7-1.7-2.1 0-2.2 2.2-2.2 2.3v5.7h-1.4v-8.8h1.4v1.1c.4-.7 1.1-1.5 2.6-1.5 1.7 0 2.2 1 2.5 1.5.5-.7 1.1-1.5 2.7-1.5 2.1 0 2.8 1.5 2.8 2.7v6.4h-1.5v.4zM71.3 197.4v-6.3c0-.7-.2-1.9-1.6-1.9-2.2 0-2.2 2.1-2.2 2.3v5.7h-1.4v-6.4c0-1.5-1-1.7-1.7-1.7-2.1 0-2.2 2.2-2.2 2.3v5.7h-1.4v-8.8h1.4v1.1c.4-.7 1.1-1.5 2.6-1.5 1.7 0 2.2 1 2.5 1.5.5-.7 1.1-1.5 2.7-1.5 2.1 0 2.7 1.5 2.7 2.7v6.4h-1.4v.4z"/><path class="st6" d="M265.1 129.6v93.2H52.9v-17.3"/><path class="st6" d="M201.4 71.1h-96.3v151.7"/><path style="fill:#fff;stroke:#231815;stroke-width:.9776" d="M349 20.4h322v129.7H349z"/><path style="fill:#fffbda" d="M349 42.7h88.7v107.6H349z"/><path style="fill:#fcede4" d="M349 20.4h322v22.2H349z"/><path class="st12" d="M437.4 150.1V42.7M625.2 150.1V20.4M574 104V42.7M671 134.7H437.4"/><path class="st13" d="M671 119.4H349"/><path class="st12" d="M671 104H437.4M671 88.7h-97M671 73.3H437.4M671 58h-97"/><path class="st13" d="M671 42.7H349"/><path class="st5" d="M453.3 31.9c-.4-.4-.5-.7-.8-1.3v5.9h-.8v-5.7c-.3.7-.4 1.6-.9 2.6l-.9-.3c.8-1.3 1.3-2.6 1.6-4h-1.3v-.8h1.4v-2.6l.9.1s.3 0 .3.1-.1.3-.3.3v2.1h.9v.7h-.8c.3 1 .9 2 1.3 2.3l-.6.6zm6.9 2.3v1.2c0 .8-.3.9-1.2.9h-.8l-.3-.9c.7.1 1 .1 1 .1.3 0 .4-.1.4-.4v-1h-4v2.1h-.8v-2.1h-1.2v-.7h1.2v-3h2.5v-.5h-3.4v-.7h2v-.8h-1.2v-.7h1.2V27H454v-.7h1.6v-.9h.9c.1 0 .1 0 .1.1s-.1.1-.3.3v.5h2v-.9h.9s.1 0 .1.1-.1.1-.3.1v.7h1.4v.7H459v.7h1v.7h-1v.8h1.8v.7h-3.3v.7h2.3v3h.8v.7l-.4-.1zm-3.1-3h-1.7v.8h1.7v-.8zm0 1.4h-1.7v.9h1.7v-.9zm1.3-5.5h-2v.7h2v-.7zm0 1.4h-2v.8h2v-.8zm1 2.7h-1.6v.8h1.6v-.8zm0 1.4h-1.6v.9h1.6v-.9zM472.9 36H468c-2.7 0-3.4-.5-3.6-1.3-.4.4-1 .9-1.3 1 0 .1 0 .4-.1.4s-.1 0-.1-.1l-.4-.8c.5-.3 1.2-.7 1.6-1v-2.7h-1.3v-.9h2.2v3.1c0 .8.5 1.2.8 1.3.5.1 1.2.3 2.7.3 1.7 0 3.4 0 5.1-.1l-.7.8zm-8.9-7.5c-.5-1.3-1-2-1.4-2.3l.7-.5c.7.9 1.2 1.6 1.6 2.3l-.9.5zm1.4 1.7v-.8h3.4V28h-2.2c-.3.5-.4.7-.5 1l-.8-.4c.7-.9 1.2-2 1.6-3.1l.8.3s.1 0 .1.1-.3.3-.3.3c-.1.5-.3.8-.4 1h1.8v-1.7l.8.1c.1 0 .3 0 .3.1s0 .1-.3.3v1.2h2.6v.8h-2.6v1.4h3.4v.8h-7.7zm6 4.5v-.5h-4.3v.5h-.9v-3.5h5.9v3.5h-.7zm0-2.7h-4.3v1.4h4.2V32h.1zM480.7 30v.8h-6.2V30h4.6l-.7-.4c.4-.5.5-1.2.7-1.8l.8.3.1.1c0 .1-.1.1-.3.1-.3.9-.5 1.3-.7 1.6h1.7v.1zm-3.5-4.5h1s.1 0 .1.1-.1.3-.3.3v.9h2.3v.8h-5.6v-.8h2.3v-1.3zm-1.9 6.5h4.8v4.4h-.9v-.7h-3v.8h-.8V32h-.1zm.9-4.2c.4.7.7 1.2.9 1.8l-.9.3c-.3-.7-.4-1.2-.9-1.8l.9-.3zm3 7.1v-2.1h-3v2.1h3zm6-8.1c-.9 2.1-1.4 3-1.7 3.5 1 .9 1.7 2 1.7 3.3 0 1.8-1.4 2.1-2.5 2.1l-.4-1h.7c.5 0 .8 0 1-.4.3-.3.4-.7.4-.9 0-1.4-1.2-2.6-1.8-3.1.7-1 1.2-2.1 1.6-3.1h-2v9.4h-.9V26.3h3.4l.5.5zM490.8 26.7c-.5 1.3-1.4 3.4-3.5 4.9l-.7-.7c1-.7 2.5-1.8 3.5-5.1l.8.4c.1.1.3.1.3.3-.1.2-.2.2-.4.2zm3.9 8.8c-.4.9-1 .9-2.2.9l-.3-.9c.3 0 .5.1.9.1.5 0 .8-.3.9-1 .1-.8.1-1.7.3-3.1h-2.6c-.3 2.3-1 3.9-3 5.1l-.8-.7c2.2-1 2.6-2.5 2.9-4.4H489v-.9h6.2c-.2 1.3-.2 3.7-.5 4.9zm1.9-4.2c-.8-.5-1.7-1.2-2.6-2.6-.4-.7-.7-1.4-.8-2.1h-1.4v-.8h2.3c0 .8.1 1.7.9 2.9s1.7 1.7 2.3 2.1l-.7.5zM504.4 34.9c.5-.1 1.2-.4 1.8-.9.8-.7 1.4-1.8 1.4-3 0-1.8-1.3-2.9-2-3.1-.4-.3-1-.3-1.7-.4-.1 1.8-.7 3.6-1.4 5.3-.5 1-1.2 2.1-1.8 2.1-1 0-2.1-1.6-2.1-3.4 0-2.3 1.8-4.9 5.1-4.9 2.6 0 4.7 1.6 4.7 4.3 0 3.3-3 4.4-3.6 4.8l-.4-.8zm-4-5.8c-.4.5-.8 1.3-.8 2.3 0 1.3.8 2.2 1.2 2.2.3 0 .5 0 1.3-2 .8-2.1 1-3.6 1-4.4-.8.4-1.7.6-2.7 1.9zM512.6 28.7h1.3v.8h-1c.3.8.7 1.4 1.3 2l-.7.7c-.4-.4-.5-.8-.8-1.3v5.6h-.7v-5.3c-.5 1.3-1 2.3-1.7 3.1l-.7-.5c.7-.8 1.6-2.2 2.1-4H510V29h1.8v-2c-.5.1-.8.1-1.3.1l-.4-.8c1.4 0 2.3-.3 3.1-.5l.5.7.1.1c0 .1-.1.1-.1.1-.1 0-.3 0-.4-.1-.3.1-.4.1-.7.3v2zm5.2-.9h3v.8h-3v.8h2.5v3.5h-2.5v1h2.3v.8h-2.3v.9h3.1v.7h-7.2v-.7h3.3v-.9h-2.5v-.9h2.5v-1h-2.5v-3.5h2.5v-.8h-3.1v-.8h3v-1c-.9.1-1.6.1-2.3.1l-.4-.8h1.2c2.1 0 3.1-.3 4.2-.5l.5.7.1.1s0 .1-.1.1-.3 0-.4-.1c-.7.1-1.2.3-1.8.3l-.1 1.2zm-.9 2.9v-.8h-1.6v.8h1.6zm0 1.4v-.8h-1.6v.8h1.6zm2.6-2.2h-1.7v.8h1.7v-.8zm0 1.4h-1.7v.8h1.7v-.8zM525.1 29.5c0 .5 0 1-.1 1.7h2.7c-.1 2.7-.4 3.9-.5 4.2-.3.7-.7.9-1.8.9l-.4-.9h.8c.5 0 .7-.3.8-.9.1-.8.3-1.7.3-2.6h-2c-.5 2.5-1.7 3.9-2.1 4.3l-.8-.5c.8-.8 1.3-1.6 1.7-2.7.4-1.2.5-2.3.5-3.5h-1.7v-3.6h5.1v3.6h-2.5zm1.7-2.8h-3.4v2h3.4v-2zm3.2 0v7h-.9v-7.5l.9.1s.1 0 .1.1c.2.1.1.1-.1.3zm2.5-.6v9.1c0 .8 0 1.2-2.2 1.2l-.3-.9h.9c.5 0 .7-.1.7-.5v-9.2l.9.1s.1 0 .1.1l-.1.1zM358.2 10.5h-8.3v-.7h8.3V8.1h-7.8v-.8h7.9V5.6H350v-.9h4.3V.3l1 .1c.3 0 .3.1.3.1 0 .1-.1.1-.4.3v3.9h4v6.4h-1v-.6zm-7.1-9.3c.7.8 1.3 1.7 1.8 2.9l-.8.5c-.5-1.2-1.2-2.1-1.8-2.9l.8-.5zm5.4 2.7c.9-1 1.4-2 2.1-3.1l.8.7.1.1c0 .1-.1.1-.4.1-.8 1.3-1.3 2-1.8 2.7l-.8-.5zM363.4 6.4c-.8.8-1.3 1-1.7 1.3l-.7-.5c2.1-1.3 3.3-2.9 3.8-3.6h-3.3v-.9h2V.3h.9c.1 0 .3 0 .3.1s0 .1-.3.3v2h1.3l.3.3c-.4.8-.8 1.4-1.4 2.1.8.8 1.4 1.2 2 1.4l-.8.5c-.8-.4-1.2-.8-1.6-1.3v5.1h-.9V6.4h.1zm5.4-6 .9.1c.1 0 .3 0 .3.1s-.1.1-.3.3V4h2.1v.8h-2.1v4.8h2.5v.8H366v-.8h2.9V4.8h-2.3v-.9h2.3V.4zM376.6 6.6c-.4-.4-.5-.7-.8-1.3v5.9h-.8V5.5c-.3.7-.4 1.6-.9 2.6l-.9-.3c.8-1.3 1.3-2.6 1.6-4h-1.2V3h1.4V.4l.9.1s.3 0 .3.1-.1.3-.3.3V3h.9v.8h-.8c.3 1 .9 2 1.3 2.3l-.7.5zm7 2.4v1.2c0 .8-.3.9-1.2.9h-.8l-.3-.8c.7.1 1 .1 1 .1.3 0 .4-.1.4-.4V9h-4v2.1h-.7V9h-1.2v-.7h1.2v-3h2.5v-.6h-3.4v-.8h2v-.8h-1.2v-.5h1.2V2h-1.7v-.7h1.6V.4h.9c.1 0 .1 0 .1.1s-.1.1-.3.3v.5h2V.4h.9s.1 0 .1.1-.1.1-.3.1v.7h1.4V2h-1.3v.7h1v.7h-1V4h1.8v.7H381v.7h2.3v3h.8V9h-.5zm-3.3-3h-1.7v.8h1.7V6zm0 1.4h-1.7v.9h1.7v-.9zm1.3-5.6h-2v.7h2v-.7zm0 1.5h-2V4h2v-.7zm1.2 2.7h-1.6v.8h1.6V6zm0 1.4h-1.6v.9h1.6v-.9zM396.3 10.8h-4.9c-2.7 0-3.4-.5-3.6-1.3-.4.4-1 .9-1.3 1 0 .1 0 .4-.1.4s-.1 0-.1-.1l-.4-.8c.5-.3 1.2-.7 1.6-1V6.2h-1.3v-.7h2.2v3.1c0 .9.5 1.2.8 1.3.5.3 1.2.3 2.7.3 1.7 0 3.4 0 5.1-.1l-.7.7zm-9.1-7.5c-.5-1.3-1-2-1.4-2.3l.7-.5c.7.9 1.2 1.6 1.6 2.3l-.9.5zm1.6 1.6v-.7h3.4V2.7H390c-.3.5-.4.7-.5 1l-.8-.4c.7-.9 1.2-2 1.6-3.1l.8.3s.1 0 .1.1-.3.1-.3.3c-.1.5-.3.8-.4 1h1.8V.3l.8.1c.1 0 .3 0 .3.1s0 .1-.3.3V2h2.7v.8h-2.7v1.4h3.4V5l-7.7-.1zm5.8 4.6V9h-4.2v.5h-.9V6h6v3.5h-.9zm0-2.7h-4.2v1.4h4.2V6.8zM397.4 5.2c.8-.9 2-2.2 3-5.1l.9.4.1.1c0 .1-.1.1-.4.1-.3.5-.5 1-.8 1.6.1 0 .3 0 .3.1s-.3.3-.3.3V11h-.8V3.9c-.4.7-.7 1-1.3 1.8l-.7-.5zm3.9 5.3v-.9h3.1V5.1h-3.1v-.8h3.1V.4h.8c.1 0 .4 0 .4.1s-.1.1-.3.3v3.4h3.3V5h-3.3v4.6h2.9v.9h-6.9zM413.2 6.5c-.3-.3-.5-.5-.8-1v5.9h-.9V6c-.3.8-.8 1.8-1.4 2.7l-.8-.5c.8-.9 1.7-2.6 2.1-4.3h-1.6V3h1.7V.3l.9.1c.1 0 .3 0 .3.1s-.1.1-.3.1V3h1.3v.9h-1.2c.1.8.7 1.6 1.2 2.1l-.5.5zm1.3 4s0 .4-.1.4-.3-.1-.3-.3l-.5-.7c.7-.4 1.4-.8 2.6-2l.3.8c-.9.9-1.6 1.4-2 1.8zm.7-1.9c-.4-.4-.7-.7-1.2-1l.5-.5c.5.4.9.7 1.3 1l-.6.5zm5.2 2.2c-.4-.3-1-.5-1.7-1.2s-.9-1-1-1.3v2.1c0 .8-.4.8-.9.8h-.8l-.4-1c.1 0 .8.1.9.1.4 0 .4-.1.4-.4V6.5h-2.6v-.8h2.6v-1h-2.1v-.8h2.1v-1h-2.5v-.8h3.8l-.7-.4c.3-.4.7-.9 1-1.7l.7.3c.1 0 .3.1.3.3 0 .1-.1.1-.4.1-.4.5-.5.9-.9 1.4h2.1v.8h-2.6v1h2.5v.8h-2.5v1h2.9v.8h-2.9v.3c.7 1.4 1.8 2.6 3.4 3.4l-.7.6zM416 2.1c-.3-.4-.7-.8-1.3-1.4l.5-.5c.5.4.8.8 1.3 1.4l-.5.5zm4.3 5.6c-.1.3-.4.5-.8 1l-.7-.5c.4-.4.7-.8 1-1.3l.7.5c.1 0 .1.1.1.3h-.3zM426.8.3l.9.1s.3 0 .3.1-.3.1-.3.3v.4h3.6v1.3h1.3v.7h-1.3v1.3h-3.6V5h3.6v.7h-3.6v.5h5.1v.7h-10.7v-.8h4.7v-.5h-3.5v-.7h3.5v-.5h-3.5v-.6h3.5v-.7H422v-.6h4.8v-.7h-3.5v-.6h3.5V.3zm4.3 10.9h-.9v-.5h-5.6v.5h-.9V7.3h7.4v3.9zm-.9-3.3h-5.6v.7h5.6v-.7zm0 1.3h-5.6v.7h5.6v-.7zm.3-6.9v-.6h-2.9v.7h2.9zm0 1.3V3h-2.9v.7h2.9zM441.9 10c-.5-.5-1.2-1-2.9-1.6v.8c-.3 1-1.3 1.3-2.3 1.3-.1 0-1.2 0-1.8-.4-.4-.3-.7-.7-.7-1.2 0-1.4 1.8-1.7 2.7-1.7.5 0 .8 0 1.2.1-.1-1-.1-2.2-.1-3V.6l1.2.3c-.3 1-.3 1.7-.3 2.1h.7c.3 0 1.6 0 2.9-.5l-.1 1c-.9.1-2 .3-2.9.3h-.7c0 1.3 0 2 .1 3.5 1.2.4 1.7.7 3.4 1.6l-.4 1.1zm-5.1-2.1c-.3 0-.7 0-1 .1-.1.1-.7.3-.7.8 0 .9 1.2.9 1.6.9 1.2 0 1.4-.4 1.4-1v-.5c-.3-.1-.9-.3-1.3-.3zM445.6 1.6c-.4 1.2-.5 2.5-.5 3.8 0 .3 0 .4.1.5.3-.5.7-1.2.9-1.8l.5.5c-.3.8-.4 1-1.4 3.6h-.5c-.4-1-.5-2-.5-3 0-1.3.3-2.7.5-4l.9.4zm5-.4V2c.1 1.7.1 2 .1 2.5 0 2-.5 3.5-1 4.6-.4.7-.8 1-1.3 1.6l-.8-.5c.5-.4 1.2-.9 1.7-2.1.5-1.2.7-2.5.7-3.4 0-1.7-.3-2.7-.4-3.5h1zM365.1 70.4h1c.3 0 .4.1.4.1 0 .1-.1.1-.4.3v3.5h4.2v.9h-4.2v4.6h4.8v.8h-10.7v-.8h4.8v-4.6h-4v-.9h4v-3.9zM374.5 71.5c-.3.5-.4 1.2-.7 2.3-.1.8-.3 1.6-.3 2.3 0 .7 0 1.2.1 1.7 0 .4 0 .4.1.7.1-.4.3-.7.7-1.8l.7.5c-.1.4-.5 1.2-.8 2.7l-.8.1c-.5-1.2-.8-2.2-.8-3.8 0-1 .1-2.5.3-3.1.3-1.2.3-1.3.4-1.6.1-.5.1-.5.1-.8l1 .8zm2.6 5.5v.8c.3.9.9 1 1.8 1 1.4 0 2.2-.3 3-.5v.9c-.7.1-1.3.3-3.1.3-1.6 0-2.6-.1-2.6-2.5h.9zm-.4-5c.3 0 .8.1 1.7.1.7 0 1.8-.1 2.9-.5v.9c-1.8.3-2.7.3-4 .3h-.7l.1-.8zM386.6 75.8c-.4.3-.5.4-1 .7v3.4c0 .8 0 1.3-1.8 1.3l-.3-.9c.4 0 .5.1.8.1.5 0 .5-.3.5-.5v-2.7c-.4.3-.8.5-1 .7 0 .1 0 .4-.1.4s-.1-.1-.1-.1l-.3-.9c.5-.3 1-.5 1.6-.9v-2.5h-1.4V73h1.4v-2.5l.9.1c.3 0 .3.1.3.1 0 .1-.1.1-.3.3v2h1v.8h-1v2c.5-.3.7-.4 1-.7l-.2.7zm4-.1c.1 0 .3.1.3.1 0 .1-.1.1-.3.1-.1.3-.3.5-.5.9h4.2v.8h-1.7c-.1.4-.4.9-.9 1.6.4.1 1.2.5 2.1 1.2l-.8.6c-.3-.3-.7-.7-2-1.2-.9.7-2.2 1.2-4 1.3l-.4-.8c1 0 2.6-.3 3.6-.8-.8-.3-1.4-.4-1.8-.5l-.4.4-.7-.4c.3-.3.7-.7 1.2-1.3h-1.7v-1h2.2c.4-.7.7-1.2.8-1.4l.8.4zm-3.8-1.3h7.3v.8h-7.3v-.8zm5.4-1.8.7.4.1.1c0 .1-.1.1-.4.1-.3.4-.4.5-.7 1l-.1.1-.7-.4c.3-.3.7-.8.9-1.4h-3c.1.1.3.4.8 1.4l-.8.4c-.3-.5-.5-1.2-.8-1.4l.5-.3h-1.6v-.8h2.9v-1.4l.9.1s.3 0 .3.1-.1.1-.3.3v1h2.9v.8h-1.7v-.1zm-2.8 4.9c-.3.3-.4.5-.5.8.7.1 1.3.3 2 .5.4-.5.7-.9.8-1.3h-2.3zM396.9 71.1c-.3 2.5-.3 5.6-.3 5.9 0 1.4.1 1.7.1 2 .3.8 1 .9 1.3.9.8 0 2.5-.4 3.9-3.5l.8.8c-.4.8-2.1 3.5-4.7 3.5-1.2 0-2-.8-2.1-1.6-.1-.5-.1-.9-.1-3v-3.5c0-.5 0-1.2-.1-1.7l1.2.2zM408.2 70.9c-.4 1-.4 1.2-.7 1.7 1.2-.1 1.4-.3 1.8-.4l-.1.9c-.4 0-1.3.1-2 .3-.7 1.7-1.4 3.4-2.3 5.1l-.9-.5c.5-.7 1.3-1.7 2.3-4.6h-1.9v-.9c.3.1.7.1 1.4.1h.7c.1-.5.4-1.3.7-2.3l1 .6zm2.3 4c-.4.4-.5.5-.5 1 0 .1.1.9.3 2.3 1 .4 1.4.5 2 .8l-.3.9c-.5-.4-.9-.5-1.6-.8-.1.7-.3 1.8-1.8 1.8-1.4 0-2.2-.8-2.2-1.6 0-.9.9-1.4 2-1.4.4 0 .9.1 1.3.1 0-.4-.1-2-.1-2.2 0-.7.3-.9.8-1.4l.1.5zm-2.5 3.6c-.7 0-1 .3-1 .7 0 .5.9.8 1.4.8.5 0 .9-.3.9-.9v-.4c-.3 0-.9-.2-1.3-.2zm2.1-5.7c.9.3 2 .7 2.9 1.2l-.4.8c-.9-.5-1.4-.8-2.7-1.3l.2-.7zM415.5 73c0 .4-.3 1-.3 2.1 0 3 1 4 1.6 4 .4 0 .9-1.6 1-2.2l.8.7c-.3.8-.9 2.5-1.8 2.5-1 0-1.8-1.8-1.8-2-.5-1.2-.5-2.9-.5-3.8 0-.8 0-1.4.1-1.7l.9.4zm6.2-.3c1.4 1.6 2 3.8 2.1 4.8l-.9.3c-.4-2.6-1.3-3.9-2.1-4.8l.9-.3zM387 89.3v.8h-6.4v-.8h4.6l-.7-.4c.4-.5.5-1.2.7-1.8l.8.3.1.1c0 .1-.1.1-.3.1-.3.9-.5 1.3-.7 1.6h1.8v.1zm-3.5-4.6h1s.1 0 .1.1-.1.3-.3.3v.9h2.3v.8H381V86h2.3c.2 0 .2-1.3.2-1.3zm-2 6.6h4.8v4.4h-.9v-.8h-3.1v.8h-.8v-4.4zm.8-4.3c.4.7.7 1.2.9 1.8l-.8.4c-.3-.7-.4-1.2-.9-1.8l.8-.4zm3.1 7.2v-2.1h-3.1v2.1h3.1zm6-8.1c-.9 2.1-1.4 3-1.7 3.5 1 .9 1.7 2 1.7 3.3 0 1.8-1.4 2.1-2.5 2.1l-.4-1h.7c.5 0 .8 0 1-.4.3-.3.4-.7.4-.9 0-1.4-1.2-2.6-1.8-3.1.7-1 1.2-2.1 1.6-3.1h-2v9.4h-.9V85.6h3.4l.5.5zM396.9 86c-.5 1.3-1.4 3.4-3.5 4.9l-.7-.7c1-.7 2.5-1.8 3.5-5.1l.8.4c.1.1.3.1.3.3-.1 0-.2.2-.4.2zm3.9 8.8c-.4.9-1 .9-2.2.9l-.3-.9c.3 0 .5.1.9.1.5 0 .8-.3.9-1 .1-.8.1-1.7.3-3.1h-2.6c-.3 2.3-1 3.9-3 5.1l-.8-.7c2.2-1 2.6-2.5 2.9-4.4H395v-.9h6.2c-.1 1.3-.1 3.7-.4 4.9zm2-4.2c-.8-.5-1.7-1.2-2.6-2.6-.4-.7-.7-1.4-.8-2.1h-1.6v-.8h2.3c0 .8.1 1.7.9 2.9s1.7 1.7 2.3 2.1l-.5.5zM463.2 49v1.8c0 3-.4 4.6-1 5.9l-.8-.4c.3-.4.7-1.2.9-2.7 0-.4.1-1.2.1-2.6 0-.4 0-1.6-.1-2.7h3.8v-1.2h.8s.1 0 .1.1-.1.1-.3.3v.8h4.3v.7h-7.8zm7.4 6.8c-1.4-.9-2.3-1.8-3.1-2.9v4h-.8v-4c-.5.9-1 1.8-2.7 3.3l-.7-.5c.9-.7 2.2-1.7 3.1-3.6h-2.9v-.7h3.1V50h.8s.3 0 .3.1-.1.1-.3.3v1h3.4v.6h-3.3c.9 1.4 1.7 2.3 3.6 3.3l-.5.5zM479.3 49c-.5.3-.5.4-.7.5-.7 1.3-.9 1.8-1.6 2.6 1 .8 2.1 1.8 2.9 3.1l-.8.7c-.3-.5-.7-1-1.4-1.8-.7-.7-1-.9-1.3-1.2-1.3 1.6-2.5 2.2-3.9 2.9l-.7-.8c.9-.3 2.1-.7 3.5-2.1 1.4-1.4 2-2.6 2.2-3.5h-4.6v-.8h4.8c.1 0 .4-.1.5-.3l1.1.7zM481.3 51.2v-.8h6.4c.1 0 .4-.1.7-.3l.7.8-.4.4c-1 2-1.2 2.2-1.4 2.6-1.3 1.7-2.5 2.1-3.6 2.5l-.7-.7c.9-.3 2-.5 3.3-1.7 1-1 1.4-2.1 1.7-2.7h-6.5v-.1zm6.3-2.3h-5.1v-.8h5.1v.8zM490 49.7v-.8h5.9c.1 0 .3-.1.5-.3l.8.7s-.3.3-.3.4v.1c-.8 2.9-1.6 3.9-2.9 5.1-.7.5-1.2.8-2.3 1.4l-.8-.8c.9-.3 2.1-.7 3.1-1.8 1.4-1.4 1.7-2.7 2-4h-6zm6.3-1.2c-.3-.4-.7-.9-.8-1l.5-.4c.3.3.5.7.8 1l-.5.4zm1.6-.3c-.3-.4-.7-.8-.8-1l.5-.4c.4.4.8.9.8 1l-.5.4zM501.4 52c0 .5-.4.9-.9.9s-.9-.4-.9-.9.4-.9.9-.9c.4 0 .9.4.9.9zM504.3 56.6v-.7h3.5V55h-2.3v-.7h2.3v-1c-.3 0-1.2.1-1.3.1-.4 0-.5 0-.8.1 0 .1-.1.3-.3.3s-.1 0-.1-.1l-.3-.8h1.2c.3-.5.5-.9.8-1.3h-2.2c0 .9-.1 1.8-.3 2.6-.3 1.2-.7 1.8-1.2 2.6l-.7-.4c1.2-1.8 1.3-3.4 1.3-5.7 0-.9 0-2-.1-2.9h7.8v2.3h-6.9v.9h7.4v.7H510c1.2 1.3 1.4 1.8 1.7 2.1l-.7.4c-.3-.4-.4-.5-.7-1-.8.1-.9.1-2.1.3v1h2.5v.5h-2.5v.9h3.9v.7h-7.8zm6.7-8.4h-6.2v1h6.1v-1h.1zm-1.5 3.4.3-.3h-2.1c-.1.3-.7 1-.8 1.2.9-.1 1.7-.1 3.1-.3.1.1-.3-.3-.5-.6zM516.6 52.5c-.3-.3-.4-.5-.7-1v5.2h-.8v-5.1c-.1.7-.4 1.4-1 2.6l-.7-.4c.9-1.3 1.3-2.5 1.6-3.6h-1.2v-.8h1.4v-2.3l.8.1c.1 0 .3 0 .3.1s-.1.1-.3.3v2h1.3v.8h-1.2c.3.8.7 1.3 1.2 1.8l-.7.3zm6.1 4.3c-2-1.3-3-3.3-3.3-5.2h-.7v3.5c.5-.3.9-.5 1.2-.7v.8c-1 .5-1.7.9-2.5 1.3 0 .1 0 .3-.1.3 0 0-.1 0-.1-.1l-.4-.8c.5-.1.9-.3 1.2-.4v-8.1h4.8v4.2h-2.6c.1.7.3 1.2.7 2 .7-.4 1.3-.9 1.7-1.4l.7.7c0 .1.1.1.1.1 0 .1-.1.1-.1.1h-.3c-.7.5-1 .8-1.7 1.2.5.8 1.2 1.6 2.3 2.2l-.9.3zm-.6-8.6h-3.3v1h3.3v-1zm0 1.6h-3.3v1h3.3v-1zM531.6 49c-.5.3-.5.4-.7.5-.7 1.3-.9 1.8-1.6 2.6 1 .8 2.1 1.8 2.9 3.1l-.8.7c-.3-.5-.7-1-1.4-1.8-.7-.7-1-.9-1.3-1.2-1.3 1.6-2.5 2.2-3.9 2.9l-.7-.8c.9-.3 2.1-.7 3.5-2.1 1.4-1.4 1.8-2.6 2.2-3.5h-4.3v-.8h4.8c.1 0 .4-.1.5-.3l.8.7zM533.5 51.2v-.8h6.4c.1 0 .4-.1.7-.3l.7.8-.4.4c-1 2-1.2 2.2-1.4 2.6-1.3 1.7-2.5 2.1-3.6 2.5l-.7-.7c.9-.3 2-.5 3.3-1.7 1-1 1.4-2.1 1.7-2.7h-6.5v-.1zm6.3-2.3h-5.1v-.8h5.1v.8zM542.3 49.7v-.8h5.9c.1 0 .3-.1.5-.3l.8.7s-.3.3-.3.4v.1c-.8 2.9-1.6 3.9-2.9 5.1-.7.5-1.2.8-2.3 1.4l-.8-.8c.9-.3 2.1-.7 3.1-1.8 1.4-1.4 1.7-2.7 2-4h-6zm6.2-1.2c-.3-.4-.7-.9-.8-1l.5-.4c.3.3.5.7.8 1l-.5.4zm1.6-.3c-.3-.4-.7-.8-.8-1l.5-.4c.4.4.8.9.8 1l-.5.4zM473.1 61.3c-.3.4-.7 1.2-.9 1.6h2.9V69c0 .7 0 .9-1.3.8l-.3-.8h.5c.4 0 .4-.1.4-.5v-4.9h-.9v6h-.7v-6h-.8v6h-.7v-6h-.8v6.2h-.9v-6.9h1.7c.1-.3.8-1.3.9-1.6h-2.7v-.8h6v.8h-2.4zm5.2 2.4v4.9c0 .9 0 1.2-1.8 1l-.3-.8c.4.1.5.1.8.1.5 0 .5-.1.5-.5v-4.8h-2.3v-.8h2.3v-3l.8.1c.1 0 .3 0 .3.1s0 .1-.3.3v2.5h.9v.8h-.9zm-2 3.4c-.3-.8-.5-1.3-1-2.1l.7-.4c.4.7.8 1.2 1 2.1l-.7.4zM480.5 69.2c.8-.5 2.9-1.8 3.3-6h-3.5v-.8h3.5c0-.4.1-.8.1-2.3l.9.1s.3 0 .3.1-.1.1-.3.3c0 1 0 1-.1 1.8h3.9c0 1.3 0 3.6-.5 5.7-.4 1.4-.9 1.6-2 1.6h-.7l-.4-1c.4 0 .9.1 1.3.1.7 0 .8-.3 1.2-2 .3-1.3.3-2.5.3-3.8h-3.3c-.4 2.7-1.2 5.1-3.4 6.6l-.6-.4zM491.7 62.9c0 .9 0 2.2-.9 3.6l-.7-.4c.8-1.2.9-2.2.9-3.6 0-.5 0-1.2-.1-1.8h3.5v2.2h-2.7zm-1.2 6.4v-.7h4.2v-.9h-3.1V67h3.1v-1l.8.1s.1 0 .1.1-.1.1-.3.3v.7h3v.7h-3v.9h4v.7h-8.8v-.2zm3.1-8h-2v1h2v-1zm-1.9 4.9v-2.3h2.5v2.3h-2.5zm1.9-1.8h-1.2v1.2h1.2v-1.2zm4-.3v.9h1.6v.7h-1.6v1h-.8v-1h-1.7V65h1.7v-.9h-2v-.7h4.6v.7h-1.8zm-2.3-2.3v-.7h1.7v-.9h.8c.1 0 .1 0 .1.1s-.1.1-.3.3v.5h1.6v.7h-3.9zm.9 1.5c-.1-.3-.3-.7-.7-1l.5-.4c.4.4.5.8.7 1l-.5.4zm2.5-.7c-.3.4-.3.5-.5.8l-.5-.4c.3-.4.4-.7.7-1l.7.4.1.1c-.1.1-.3.1-.5.1zM501.7 68.7c-.1.1-.1.3-.3.3 0 0-.1 0-.1-.1l-.4-.8c.4-.1.7-.3 1.3-.5v-7h.9s.1 0 .1.1-.1.3-.3.3v6c1.4-.7 2.3-1.2 3-1.7v.9c-1.4.9-2.8 1.7-4.2 2.5zm8.3.7c-.4-.5-.9-.9-1.8-1.7-.5.5-1.3 1.2-3.8 1.7l-.5-.8c1.2-.1 3.8-.5 4.6-3.1.5-1.7.5-3.9.5-5.1l.9.1c.1 0 .3 0 .3.1s-.1.3-.3.3c-.1 2.5-.1 2.5-.1 3.1-.3 1.8-.8 2.7-.9 3.1.8.5 1.3 1 1.8 1.7l-.7.6zm-3.8-5.3c-.5-.9-1-1.6-1.8-2.3l.7-.5c.9.9 1.4 1.6 1.8 2.2l-.7.6zM512.9 69.4l-.8-.5c.8-.4 2-1 2.9-2.9-.8-.8-1.3-1.2-1.7-1.4l.4-.7c.7.4 1 .8 1.7 1.3.5-1.3.8-2.3.8-2.9H514c-.1.4-.9 2.2-2 3.4l-.7-.5c1.3-1.3 2.2-3.6 2.5-5.3l.8.3.1.1c0 .1-.1.1-.3.1-.1.5-.3.8-.4 1.2h2.7c-.2 4.6-1.8 6.5-3.8 7.8zm8.2-2.4c-.7-.3-1.2-.5-1.8-1v3.9h-.8v-4.7c-.8-.8-1.2-1.4-1.3-1.7l.5-.5c.3.4.4.7.8 1v-3.9l.9.1c.1 0 .1.1.1.1 0 .1-.3.3-.3.3v4.3c.9.9 1.7 1.2 2.1 1.4l-.2.7zM527.6 68.4c.4-.1 1-.4 1.7-.8.8-.5 1.3-1.6 1.3-2.7 0-1.7-1.2-2.6-1.7-2.7-.4-.1-.9-.3-1.4-.3-.1 1.7-.5 3.3-1.3 4.7-.4.9-1 2-1.7 2-.9 0-1.8-1.4-1.8-3 0-2.1 1.7-4.4 4.6-4.4 2.2 0 4.2 1.4 4.2 3.8 0 3-2.6 4-3.3 4.3l-.6-.9zm-3.6-5.1c-.4.5-.8 1.2-.8 2.1 0 1.2.7 2.1 1 2.1.3 0 .5 0 1.2-1.7.8-1.8.9-3.3.9-3.9-.6 0-1.3.3-2.3 1.4zM534.1 62.9c0 .9 0 2.2-.9 3.6l-.7-.4c.8-1.2.9-2.2.9-3.6 0-.5 0-1.2-.1-1.8h3.5v2.2h-2.7zm-1.2 6.4v-.7h4.2v-.9H534V67h3.1v-1l.8.1s.1 0 .1.1-.1.1-.3.3v.7h3v.7h-3v.9h4v.7h-8.8v-.2zm3.1-8h-2v1h2v-1zm-1.8 4.9v-2.3h2.5v2.3h-2.5zm1.8-1.8h-1.2v1.2h1.2v-1.2zm4-.3v.9h1.6v.7H540v1h-.8v-1h-1.7V65h1.7v-.9h-2v-.7h4.6v.7H540zm-2.3-2.3v-.7h1.7v-.9h.8c.1 0 .1 0 .1.1s-.1.1-.3.3v.5h1.6v.7h-3.9zm.9 1.5c-.1-.3-.3-.7-.7-1l.5-.4c.4.4.5.8.7 1l-.5.4zm2.5-.7c-.3.4-.3.5-.5.8l-.5-.4c.3-.4.4-.7.7-1l.7.4.1.1c-.1.1-.3.1-.5.1zM496.7 83c-.3-.3-.5-.5-.8-1v5.3h-.8v-4.9c-.3.7-.5 1.4-1.3 2.3l-.7-.5c.3-.3.8-.8 1.2-1.7.4-.8.5-1.4.7-1.7h-1.4V80h1.6v-2.3l.8.1c.1 0 .3 0 .3.1s0 .1-.3.3V80h1v.8h-.9c.1.3.3.9 1.3 1.7l-.7.5zm.4 4v-.8h2.7v-2.5H498V83h1.8v-2.1h-2.2v-.8h5.3v.8h-2.3V83h2v.8h-2v2.5h2.6v.7h-6.1zm3.7-7.2c-.5-.5-1-1-1.8-1.6l.5-.5c.7.5 1.2.9 1.8 1.4l-.5.7zM506.7 82.6c0 .5-.4.9-.9.9s-.9-.4-.9-.9.4-.9.9-.9c.4-.2.9.2.9.9zM512.7 82.6l.8.1s.1 0 .1.1c0 0 0 .1-.3.1v.4h4.4v.7H514c.7 1 2.1 1.8 3.8 2.3l-.7.7c-1.4-.5-2.9-1.3-3.8-2.6v2.9h-.8v-2.7c-.3.3-.8.9-1.7 1.6-.8.5-1.3.8-2.1 1l-.7-.7c1.2-.3 2.6-.9 3.9-2.3h-3.8v-.7h4.4v-.9zm-3.9-3.5c.4.3.8.5 1.4 1l-.5.5c-.5-.5-.9-.9-1.3-1l.4-.5zM511 81c-.5.7-.9 1.2-1.6 1.7 0 .1-.1.4-.1.4s-.1 0-.1-.1l-.4-.7 2.1-2.1.1.8zm-1-3.2c.5.3.9.5 1.3.9l-.5.7c-.5-.4-.8-.7-1.3-1l.5-.6zm6.5.4c-.1 3.8-.3 4.7-2 4.7h-.7l-.3-.9c.3.1.5.3.9.3.3 0 .7-.1.8-.7.1-.4.3-2 .3-2.6h-1.3c0 2.1-1.3 3.6-3 4.2l-.5-.7c1.7-.4 2.7-1.8 2.9-3.6h-2.1v-.7h5zm-4.9 2.6c.4-.4.8-.9 1-1.6l.5.3s.1 0 .1.1 0 .1-.3.1c-.3.5-.5.9-.9 1.3l-.4-.2zm5.6-1c.4.4.7.8 1 1.4l-.7.5c-.3-.7-.7-1-1-1.4l.7-.5zM494.4 91.7c-.3.4-.7 1.2-.9 1.6h2.9v6.1c0 .7 0 .9-1.3.8l-.3-.8h.5c.4 0 .4-.1.4-.5V94h-.9v6h-.7v-6h-1v6h-.7v-6h-.8v6.2h-.8v-6.9h1.7c.1-.3.8-1.3.9-1.6h-2.7V91h6v.8h-2.3v-.1zm5.1 2.6v4.9c0 .9 0 1.2-1.8 1l-.3-.9c.4.1.5.1.8.1.5 0 .5-.1.5-.5v-4.8h-2.3v-.8h2.3v-3l.8.1c.1 0 .3 0 .3.1s0 .1-.3.3v2.5h.9v.8h-.9v.2zm-2 3.4c-.3-.8-.5-1.3-1-2.1l.7-.4c.4.7.8 1.2 1 2.1l-.7.4zM501.7 99.7c.8-.5 2.9-1.8 3.3-6h-3.5V93h3.5c0-.4.1-.8.1-2.3l.9.1s.3 0 .3.1-.1.1-.3.3c0 1 0 1-.1 1.8h3.9c0 1.3 0 3.6-.5 5.7-.4 1.4-.9 1.6-2 1.6h-.7l-.4-1c.4 0 .9.1 1.3.1.7 0 .8-.3 1.2-2 .3-1.3.3-2.5.3-3.8h-3.3c-.4 2.7-1.2 5.1-3.4 6.6l-.6-.5zM512.9 93.4c0 .9 0 2.2-.9 3.6l-.7-.4c.8-1.2.9-2.2.9-3.6 0-.5 0-1.2-.1-1.8h3.5v2.2h-2.7zm-1.2 6.5v-.7h4.2v-.9h-3.1v-.7h3.1v-1l.8.1s.1 0 .1.1-.1.1-.3.3v.7h3v.7h-3v.9h4v.7h-8.8v-.2zm3.1-8.1h-2v1h2v-1zm-1.8 5v-2.3h2.5v2.3H513zm1.8-1.9h-1.2v1.2h1.2v-1.2zm4-.4v.9h1.6v.7h-1.6v1h-.8v-1h-1.6v-.7h1.7v-.9h-2v-.7h4.6v.7h-1.9zm-2.3-2.2v-.7h1.7v-.9h.8c.1 0 .1 0 .1.1s-.1.1-.3.3v.5h1.6v.7h-3.9zm.9 1.6c-.1-.3-.3-.7-.7-1l.5-.4c.4.4.5.8.7 1l-.5.4zm2.5-.8c-.3.4-.3.5-.5.8l-.5-.4c.3-.4.4-.7.7-1l.7.4.1.1c-.1.1-.3.1-.5.1zM360.2 128.7h1c.3 0 .4.1.4.1 0 .1-.1.1-.4.3v3.5h4.2v.9h-4.2v4.6h4.8v.8h-10.7v-.8h4.8v-4.6h-4v-.9h4c.1 0 .1-3.9.1-3.9zM369.5 130c-.3.5-.4 1.2-.7 2.3-.1.8-.3 1.6-.3 2.3 0 .7 0 1.2.1 1.7 0 .4 0 .4.1.7.1-.4.3-.7.7-1.8l.7.5c-.1.4-.5 1.2-.8 2.7l-.8.1c-.5-1.2-.8-2.2-.8-3.8 0-1 .1-2.5.3-3.1.3-1.2.3-1.3.4-1.6.1-.5.1-.5.1-.7l1 .7zm2.5 5.5v.8c.3.9.9 1 1.8 1 1.4 0 2.2-.3 3-.5v.9c-.7.1-1.3.3-3.1.3-1.6 0-2.6-.1-2.6-2.5h.9zm-.2-5.1c.3 0 .8.1 1.7.1.7 0 1.8-.1 2.9-.5v.9c-1.8.3-2.7.3-4 .3h-.7l.1-.8zM381.6 134.2c-.4.3-.5.4-1 .7v3.4c0 .8 0 1.3-1.8 1.3l-.3-.9c.4 0 .5.1.8.1.5 0 .5-.3.5-.5v-2.7c-.4.3-.8.5-1 .7 0 .1 0 .4-.1.4s-.1-.1-.1-.1l-.3-.9c.5-.3 1-.5 1.6-.9v-2.5h-1.4v-.8h1.4v-2.6l.9.1c.3 0 .3.1.3.1 0 .1-.1.1-.3.3v2h1v.8h-1v2c.5-.3.7-.4 1-.7l-.2.7zm3.9-.1c.1 0 .3.1.3.1 0 .1-.1.1-.3.1-.1.3-.3.5-.5.9h4.2v.8h-1.7c-.1.4-.4.9-.9 1.6.4.1 1.2.5 2.1 1.2l-.8.7c-.3-.3-.7-.7-2-1.2-.9.7-2.2 1.2-4 1.3l-.4-.8c1 0 2.6-.3 3.6-.8-.8-.3-1.4-.4-1.8-.5l-.4.4-.7-.4c.3-.3.7-.7 1.2-1.3h-1.7v-.9h2.2c.4-.7.7-1.2.8-1.4l.8.2zm-3.6-1.2h7.3v.8h-7.3v-.8zm5.3-1.8.5.3.1.1c0 .1-.1.1-.4.1-.3.4-.4.5-.7 1l-.1.1-.7-.4c.3-.3.7-.8.9-1.4h-3c.1.1.3.4.8 1.4l-.8.4c-.3-.5-.5-1.2-.8-1.4l.5-.3h-1.6v-.8h3v-1.6l.9.1s.3 0 .3.1-.1.1-.3.3v1h2.9v.8l-1.5.2zm-2.7 4.9c-.3.3-.4.5-.5.8.7.1 1.3.3 2 .5.4-.5.7-.9.8-1.3h-2.3zM396.3 129.1c0 .5-.1.9-.1 1.8 1.3-.1 2.6-.1 3.6-.3l.1 1c-1.7 0-2.9.1-3.6.1v2.1c.3.5.4 1.3.4 1.7 0 1.2-.5 2.2-1 3-.3.5-.5.7-.9 1l-.9-.4c.4-.3 1.2-1 1.7-2.2-.4.3-.9.3-.9.3-.8 0-1.6-.8-1.6-2.1 0-1.6 1-2.2 1.8-2.2.3 0 .4 0 .5.1v-1c-1.3.1-3.3.3-4.8.4v-.9c1.3-.1 3.5-.3 4.8-.3v-2.1h.9zm-2.4 5.9c0 .8.5 1.2.9 1.2.5 0 .9-.5.9-1.3 0-.4-.1-1.2-.8-1.2-.5 0-1 .5-1 1.3zM402.6 130.2c2.6 0 4.2-.4 5.1-.7l.4.7c-.1.1-.7.5-.7.7-1 1.2-1.7 1.8-2.6 2.5.4-.1.8-.4 1.6-.4.9 0 3 .4 3 2.7 0 2.3-2.3 3.3-3.8 3.3-1 0-2.3-.4-2.3-1.6 0-.8.7-1.4 1.7-1.4 1.6 0 2.2 1.3 2.5 1.7.4-.3 1.2-.9 1.2-2 0-.8-.5-2-2.2-2-2.1 0-4 2.1-4.3 2.3l-.8-.7c2.1-1.6 3.8-3.4 5.1-4.8-.7.1-2 .4-3.4.5l-.5-.8zm2.2 6.5c-.5 0-.8.4-.8.7 0 .5.9.8 1.4.8.4 0 .7 0 1-.1-.2-.5-.6-1.4-1.6-1.4zM417.3 133.3v.8H411v-.8h4.6l-.7-.4c.4-.5.5-1.2.7-1.8l.8.3.1.1c0 .1-.1.1-.3.1-.3.9-.5 1.3-.7 1.6h1.7v.1zm-3.5-4.7h1s.1 0 .1.1-.1.3-.3.3v.9h2.3v.8h-5.6v-.7h2.3v-1.4zm-2 6.7h4.8v4.4h-.9v-.7h-3.1v.8h-.8v-4.5zm.8-4.3c.4.7.7 1.2.9 1.8l-.8.4c-.3-.7-.4-1.2-.9-1.8l.8-.4zm3.1 7.1V136h-3.1v2.1h3.1zm6-8.1c-.9 2.1-1.4 3-1.7 3.5 1 .9 1.7 2 1.7 3.3 0 1.8-1.4 2.1-2.5 2.1l-.4-1h.7c.5 0 .8 0 1-.4.3-.3.4-.7.4-.9 0-1.4-1.2-2.6-1.8-3.1.7-1 1.2-2.1 1.6-3.1h-2v9.4h-.9v-10.1h3.4l.5.3zM427.2 129.9c-.5 1.3-1.4 3.4-3.5 4.9l-.7-.7c1-.7 2.5-1.8 3.5-5.1l.8.4c.1.1.3.1.3.3-.1.1-.2.2-.4.2zm3.9 8.9c-.4.9-1 .9-2.2.9l-.3-.9c.3 0 .5.1.9.1.5 0 .8-.3.9-1 .1-.8.1-1.7.3-3.1h-2.6c-.3 2.3-1 3.9-3 5.1l-.8-.7c2.2-1 2.6-2.5 2.9-4.4h-1.8v-.8h6.2c-.1 1.1-.1 3.6-.5 4.8zm2-4.2c-.8-.5-1.7-1.2-2.6-2.6-.4-.7-.7-1.4-.7-2.1h-1.6v-.8h2.3c0 .8.1 1.7.9 2.9s1.7 1.7 2.3 2.1l-.6.5zM483.9 127.4c-.3-.3-.5-.5-.8-1v5.3h-.8v-4.9c-.3.7-.5 1.4-1.3 2.3l-.7-.5c.3-.3.8-.8 1.2-1.7.4-.8.5-1.4.7-1.7h-1.4v-.8h1.6v-2.2l.8.1c.1 0 .3 0 .3.1s0 .1-.3.3v1.8h1v.8h-.9c.1.3.3.9 1.3 1.7l-.7.4zm.2 4.1v-.8h2.7v-2.5H485v-.8h1.8v-2.1h-2.2v-.5h5.3v.8h-2.3v2.1h2v.8h-2v2.5h2.6v.8h-6.1v-.3zm3.8-7.2c-.5-.5-1-1-1.8-1.6l.5-.5c.7.5 1.2.9 1.8 1.4l-.5.7zM493.9 127.1c0 .5-.4.9-.9.9s-.9-.4-.9-.9.4-.9.9-.9c.4-.2.9.3.9.9zM499.9 127.2l.8.1s.1 0 .1.1c0 0 0 .1-.3.1v.4h4.4v.7h-3.8c.7 1 2.1 1.8 3.8 2.3l-.7.7c-1.4-.5-2.9-1.3-3.8-2.6v2.9h-.8V129c-.3.3-.8.9-1.7 1.6-.8.5-1.3.8-2.1 1l-.7-.7c1.2-.3 2.6-.9 3.9-2.3h-3.8v-.6h4.4v-.8zm-3.9-3.5c.4.3.8.5 1.4 1l-.5.5c-.5-.5-.9-.9-1.3-1l.4-.5zm2.2 1.8c-.5.7-.9 1.2-1.6 1.7 0 .1-.1.4-.1.4s-.1 0-.1-.1l-.4-.7 2.1-2.1.1.8zm-1.1-3.3c.5.3.9.5 1.3.9l-.5.7c-.5-.4-.8-.7-1.3-1l.5-.6zm6.5.4c-.1 3.8-.3 4.7-2 4.7h-.6l-.3-.9c.3.1.5.3.9.3.3 0 .7-.1.8-.7.1-.4.3-2 .3-2.6h-1.3c0 2.1-1.3 3.6-3 4.2l-.5-.7c1.7-.4 2.7-1.8 2.9-3.6h-2.1v-.7h4.9zm-5 2.6c.4-.4.8-.9 1-1.6l.5.3s.1 0 .1.1 0 .1-.3.1c-.3.5-.5.9-.9 1.3l-.4-.2zm5.7-.9c.4.4.7.8 1 1.4l-.7.5c-.3-.7-.7-1-1-1.4l.7-.5zM508.6 127.1c0 .5-.4.9-.9.9s-.9-.4-.9-.9.4-.9.9-.9c.3-.2.9.3.9.9zM511.8 124.1v1.8c0 3-.4 4.6-1 5.9l-.8-.4c.3-.4.7-1.2.9-2.7 0-.4.1-1.2.1-2.6 0-.4 0-1.6-.1-2.7h3.8v-1.2h.8s.1 0 .1.1-.1.1-.3.3v.8h4.2v.8l-7.7-.1zm7.4 6.7c-1.4-.9-2.3-1.8-3.1-2.9v4h-.8v-4c-.5.9-1 1.8-2.7 3.3l-.7-.5c.9-.7 2.2-1.7 3.1-3.6h-2.9v-.9h3.1v-1.4h.8s.3 0 .3.1-.1.1-.3.3v1h3.4v.7h-3.3c.9 1.4 1.7 2.3 3.6 3.3l-.5.6zM528.1 124.1c-.5.3-.5.4-.7.5-.7 1.3-.9 1.8-1.6 2.6 1 .8 2.1 1.8 2.9 3.1l-.8.7c-.3-.5-.7-1-1.4-1.8-.7-.7-1-.9-1.3-1.2-1.3 1.6-2.5 2.2-3.9 2.9l-.7-.8c.9-.3 2.1-.7 3.5-2.1 1.4-1.4 2-2.6 2.2-3.5h-4.6v-.9h4.8c.1 0 .4-.1.5-.3l1.1.8zM530 126.3v-.8h6.4c.1 0 .4-.1.7-.3l.7.8-.4.4c-1 2-1.2 2.2-1.4 2.6-1.3 1.7-2.5 2.1-3.6 2.5l-.7-.7c.9-.3 2-.5 3.3-1.7 1-1 1.4-2.1 1.7-2.7H530v-.1zm6.3-2.5h-5.1v-.8h5.1v.8zM538.6 124.7v-.8h5.9c.1 0 .3-.1.5-.3l.8.7s-.3.3-.3.4v.1c-.8 2.9-1.6 3.9-2.9 5.1-.7.5-1.2.8-2.3 1.4l-.8-.8c.9-.3 2.1-.7 3.1-1.8 1.4-1.4 1.7-2.7 2-4h-6zm6.4-1.2c-.3-.4-.7-.9-.8-1l.5-.4c.3.3.5.7.8 1l-.5.4zm1.5-.3c-.3-.4-.7-.8-.8-1l.5-.4c.4.4.8.9.8 1l-.5.4zM550.1 127.1c0 .5-.4.9-.9.9s-.9-.4-.9-.9.4-.9.9-.9c.3-.2.9.3.9.9zM555.4 123.3c-.3.4-.7 1.2-.9 1.6h2.9v6.1c0 .7 0 .9-1.3.8l-.3-.8h.5c.4 0 .4-.1.4-.5v-4.9h-.9v6h-.7v-6h-.9v6h-.7v-6h-.8v6.2h-.7v-6.9h1.7c.1-.3.8-1.3.9-1.6h-2.7v-.8h6v.8h-2.5zm5.2 2.5v4.9c0 .9 0 1.2-1.8 1l-.3-.9c.4.1.5.1.8.1.5 0 .5-.1.5-.5v-4.8h-2.3v-.8h2.3v-3l.8.1c.1 0 .3 0 .3.1s0 .1-.3.3v2.5h.9v.8h-.9v.2zm-2.1 3.5c-.3-.8-.5-1.3-1-2.1l.7-.4c.4.7.8 1.2 1 2.1l-.7.4zM562.8 131.3c.8-.5 2.9-1.8 3.3-6h-3.5v-.8h3.5c0-.4 0-.8.1-2.3l.9.1s.3 0 .3.1-.1.1-.3.3c0 1 0 1-.1 1.8h3.9c0 1.3 0 3.6-.5 5.7-.4 1.4-.9 1.6-2 1.6h-.7l-.4-1c.4 0 .9.1 1.3.1.7 0 .8-.3 1.2-2 .3-1.3.3-2.5.3-3.8h-3.3c-.4 2.7-1.2 5.1-3.4 6.6l-.6-.4zM574 125c0 .9-.1 2.2-.9 3.6l-.7-.4c.8-1.2.9-2.2.9-3.6 0-.5 0-1.2-.1-1.8h3.5v2.2H574zm-1.3 6.5v-.7h4.2v-.9h-3.1v-.7h3.1v-1l.8.1c.1 0 .1 0 .1.1s-.1.1-.3.3v.7h3v.7h-2.9v.9h4v.7h-9v-.2zm3.2-8.1h-2v1h2v-1zm-1.9 5V126h2.5v2.3H574zm1.8-1.9h-1.2v1.2h1.2v-1.2zm4.2-.4v.9h1.6v.7H580v1h-.8v-1h-1.7v-.7h1.7v-.9h-1.8v-.7h4.6v.7h-2zm-2.5-2.2v-.7h1.7v-1h.8c.1 0 .1 0 .1.1s-.1.1-.3.3v.5h1.6v.7h-3.9v.1zm1 1.6c-.1-.3-.3-.7-.7-1l.5-.4c.4.4.5.8.7 1l-.5.4zm2.5-.8c-.3.4-.3.5-.5.8l-.5-.4c.3-.4.4-.7.7-1l.7.4.1.1c-.2.1-.4.1-.5.1zM515.3 143.2c.7.9 2 1.7 3.1 2.1l-.7.5c-1.3-.5-2.5-1.4-3.3-2.6H512c-1 1.6-2.5 2.5-3.1 2.7l-.7-.5c1.8-.9 2.5-1.7 2.9-2.2h-2.6v-.7h2.6v-3.1h-1.8v-.7h1.8v-1.2h.8c.1 0 .3 0 .3.1 0 0 0 .1-.3.3v.8h2.7v-1.3h.8c.1 0 .3 0 .3.1s-.1.1-.3.3v.8h2v.7h-2v3.1h2.7v.7h-2.7v.1zm-1.7.4c.1 0 .3 0 .3.1s-.1.1-.3.1v.8h1.7v.7h-1.7v1h3.3v.7h-7.2v-.7h3.1v-1H511v-.7h1.8v-1.2l.8.2zm1-4.2h-2.7v.7h2.7v-.7zm0 1.2h-2.7v.7h2.7v-.7zm-2.8 1.3v.7h2.7v-.7h-2.7zM520.8 145.9v.9h-.8v-3.6c-.3.7-.4.8-.5.9l-.7-.4c.7-.8 1.4-2.2 1.4-4.6h-1v-.8h3v.8H521c0 .9-.1 1.7-.4 2.6h1.8v4.2h-1.6zm.9-3.5h-1v2.9h1v-2.9zm3.1-1.4c-.3-.3-.4-.4-.5-.7v1.4h-.7v-1.6c-.4.7-.8 1-1.3 1.4l-.5-.4c.4-.3 1-.8 1.6-1.8h-.8v-.7h1v-1.3l.8.1c.1 0 .3.1.3.1 0 .1-.1.1-.3.3v.9h.9v.7h-.8c.3.5.7.8.9 1l-.6.6zm3.7 6.1c-.5 0-2.5 0-3.4-.3-.5-.1-1-.7-1.2-1.3-.3 1-.7 1.4-1.3 1.8l-.5-.5c1.2-.7 1.3-1.6 1.4-3.1l.8.1c.1 0 .3.1.3.1 0 .1 0 .1-.3.1v.3c0 1.2.8 1.6 1 1.7v-3H523v-.7h5.3l.4.5c-.4.4-.7.8-1.2 1.2l-.5-.4c.3-.1.4-.4.5-.7h-1.7v1.3h2v.7h-2v1.3h1c.5 0 1.2 0 1.7-.1v1zm-.2-5.5c-.5-.5-.9-1-1-1.6v1.7h-.7v-1.6c-.4.8-.8 1.2-1.3 1.6l-.5-.4c.7-.5 1.2-1 1.4-2h-.7v-.7h1v-1.3h.7c.3 0 .3.1.3.1s0 .1-.3.3v.9h1.3v.7h-1c.3.8.9 1.3 1.3 1.7l-.5.6zM532.4 142.4c0 .5-.4.9-.9.9s-.9-.4-.9-.9.4-.9.9-.9c.3-.1.9.4.9.9zM535.7 143.2v3.1c0 .8-.3.9-.9.9h-.5l-.3-.8c.1 0 .4.1.7.1s.3-.1.3-.4v-2.3c-.3.1-.3.1-.8.5 0 .1-.1.3-.1.3-.1 0-.1-.1-.1-.1l-.3-.8c.7-.3 1-.4 1.3-.7v-2.3h-1v-.7h1v-2.3h.8c.1 0 .3 0 .3.1s-.1.1-.3.3v2h.8v.7h-.8v2c.7-.3.8-.5 1-.7v.8c0-.2-.9.3-1.1.3zm3.6.2c-.1 1.2-.4 2.5-2.1 3.5l-.7-.5c.9-.7 1.4-1.3 1.7-2.2-.3 0-1.6.3-1.7.3 0 .1-.1.3-.3.3s-.1-.1-.1-.3l-.1-.8h.5c.4-.4.7-.8.9-1.2-.3-.4-.8-1-1.3-1.3l.4-.5.3.3c.1-.3.5-.8.8-1.4l.7.4c.1 0 .1.1.1.1 0 .1-.1.1-.3.1 0 .1-.5.9-.8 1.3.3.3.3.3.4.5.1-.3.3-.5.5-1l.7.3c.1 0 .1.1.1.1 0 .1-.3.1-.3.1-.4.7-1 1.7-1.6 2.2.1 0 .5 0 .9-.1 0-.1 0-.5.1-.7l.8.3c.1 0 .1 0 .1.1.5 0 .3.1.3.1zm-2.5-4.2v-.7h2.9v-1h.8c.1 0 .3 0 .3.1s-.1.1-.3.3v.7h3v.7l-6.7-.1zm3.6 7.4v.7h-.7v-4.9c-.1.1-.3.4-.4.5l-.5-.4c.9-1.2 1.4-2.7 1.4-3l.7.3s.1 0 .1.1-.1.1-.3.1c-.1.4-.1.5-.3.8h.8c.4-.5.5-.9.8-1.3l.7.3s.1 0 .1.1-.1.1-.3.1c-.3.4-.3.4-.5.8h1.4v.7h-1v1h.9v.7h-.9v1h.9v.7h-.9v1h1.2v.7h-3.3zm1.3-5.1h-1.3v1h1.3v-1zm0 1.7h-1.3v1h1.3v-1zm0 1.7h-1.3v1h1.3v-1zM546.2 140.3c0 .9 0 2.2-.9 3.6l-.7-.4c.8-1.2.9-2.2.9-3.6 0-.5 0-1.2-.1-1.8h3.5v2.2h-2.7zm-1.2 6.5v-.7h4.2v-.9H546v-.7h3.1v-1l.8.1s.1 0 .1.1-.1.1-.3.3v.7h3v.7h-3v.9h4v.7H545v-.2zm3.1-8h-2v1h2v-1zm-1.8 4.9v-2.3h2.5v2.3h-2.5zm1.8-1.8h-1.2v1.2h1.2v-1.2zm4-.4v.9h1.6v.7h-1.6v1h-.8v-1h-1.7v-.7h1.7v-.9h-2v-.7h4.6v.7h-1.8zm-2.3-2.2v-.7h1.7v-.9h.8c.1 0 .1 0 .1.1s-.1.1-.3.3v.5h1.6v.7h-3.9zm.9 1.5c-.1-.3-.3-.7-.7-1l.5-.4c.4.4.5.8.7 1l-.5.4zm2.5-.7c-.3.4-.3.5-.5.8l-.5-.4c.3-.4.4-.7.7-1l.7.4.1.1c-.1.1-.3.1-.5.1zM590.8 54.8v-.7h3.5v-.9H592v-.7h2.3v-1c-.3 0-1.2.1-1.3.1-.4 0-.5 0-.8.1 0 .1-.1.3-.3.3 0 0-.1 0-.1-.1l-.3-.8h1.2c.3-.5.5-.9.8-1.3h-2.1c0 .9-.1 1.8-.3 2.6-.3 1.2-.7 1.8-1.2 2.6l-.7-.4c1.2-1.8 1.3-3.4 1.3-5.7 0-.9 0-2-.1-2.9h7.8v2.3h-6.9v.8h7.4v.7h-2.1c1.2 1.3 1.4 1.8 1.7 2.1l-.7.4c-.3-.4-.4-.5-.7-1-.8.1-.9.1-2.1.3v1h2.5v.7h-2.5v.9h3.9v.7l-7.9-.1zm6.7-8.4h-6.2v1h6.1v-1h.1zm-1.4 3.4.3-.3h-2.1c-.1.3-.7 1-.8 1.2.9-.1 1.7-.1 3.1-.3 0 .1-.2-.3-.5-.6zM608.3 55h-.9l-.4-.9c.3 0 .7.1 1.2.1.4 0 .4-.1.4-.5v-5.6h-3c.4 1.8 1.3 3 2.9 3.9l-.7.7c-.7-.4-1.3-.9-1.7-1.6-.8-.9-.9-1.7-1-2.1-.5 2-1.6 2.9-2.9 3.6l-.7-.5c.7-.4 1.3-.8 1.8-1.7.7-.9.9-1.8.9-2.5h-2.9v7h-.8v-7.7h3.8c0-.5.1-1 0-2.1l.9.1c.3 0 .3.1.3.1 0 .1-.1.1-.3.3v1.6h3.9V54c.1.6.1 1-.8 1zM643 26.9v4.6h-.7v-1.2c-.8.3-2 .5-2.7.7 0 .1-.1.3-.1.3s-.1-.1-.1-.3l-.3-.7c.3 0 .7 0 1-.1v-3.3h-.9v-.7h8.3v.7H643zm-2.4-1v-2.6h5.6v2.6h-5.6zm1.9 1h-1.7v.7h1.7v-.7zm0 1.2h-1.7v.7h1.7v-.7zm0 1.2h-1.7v.7c.7-.1 1-.3 1.7-.4v-.3zm3-5.5h-4.3v.5h4.3v-.5zm0 .9h-4.3v.5h4.3v-.5zm1.6 6.8c-.8-.4-1.3-.8-1.7-1-.7.5-1.3.8-1.7 1l-.4-.5c.7-.3 1.2-.5 1.7-.9-.4-.5-.7-1-.8-1.6l.5-.1c.1.4.3.9.7 1.3.3-.3.7-.7.8-1.4h-2.7v-.5h3.3l.3.3c-.3.9-.7 1.4-1.2 2.1.7.5 1.2.8 1.7.9l-.5.4zM651 25.6c-.4 1.3-1 2.6-1.8 3.8l-.7-.3c1-1.3 1.6-2.6 2-3.9l.7.3s.1 0 .1.1h-.3zm2.2-2.2v7.2c0 .9-.4.9-1.8.9l-.1-.8h.9c.4 0 .4-.1.4-.4V23l.8.1c.1 0 .3 0 .3.1-.3.1-.4.1-.5.2zm3.4 6c-.9-1.6-1.4-2.9-1.8-4l.7-.3c.5 1.8 1.2 3 1.8 3.9l-.7.4zM632.2 35.5c1.2-.1 1.7-.3 2.1-.4.1-.8.3-1.3.3-2.1l.8.4c-.1.4-.3.8-.4 1.4.4-.1.7-.1.8-.1.3 0 .5 0 .9.3.4.4.5 1 .5 1.4 0 1.2-.4 2.2-.7 2.9-.3.4-.7.8-1.3.8h-.5l-.3-.8c.5.1.7.1.8.1.4 0 .7-.1.8-.7.3-.7.5-1.4.5-2.3 0-.4 0-1-.8-1-.3 0-.4 0-.9.1-.4 1.3-.8 2.7-2.1 4.6l-.7-.4c.5-.7 1.3-1.6 2-4-.7.3-1 .3-1.6.4l-.2-.6zm5.9-1.4c.9 1 1.3 1.7 1.3 2.3s-.4.8-1 .9l-.4-.8h.4c.3 0 .3-.1.3-.3 0-.4-.1-.5-.4-.9-.4-.5-.5-.8-.8-1l.6-.2zM642.8 37.8c-.7.7-1.3 1.2-2.1 1.6l-.3-.8c.9-.4 1.7-.9 2.2-1.6l.2.8zm1.4-2.4c-.1.1-.1.4-.1.5 0 .4.1.4.8 1.2.3.4.9 1 .9 2s-1 1.2-1.6 1.2c-.4 0-.7 0-1.3-.3l-.3-.8c.8.3 1.2.4 1.6.4s.8-.1.8-.8c0-.5-.3-.9-.7-1.3-.8-.8-.9-1.2-.9-1.6s.1-.7.3-.8l.5.3zm-1-2.2c.5.1 1.4.3 2.2.7l-.3.7c-.7-.4-1-.5-2.2-.8l.3-.6zm3.1 2.8c.5.4.9.8 1.8 2.3l-.7.5c-.4-1-1-1.8-1.7-2.5l.6-.3zm.1-2.1c.5.4.9 1 .9 1l-.5.4c-.3-.5-.8-.9-.9-1l.5-.4zm.8-.9c.5.3.8.9.9 1l-.5.4c-.3-.5-.7-.9-.9-1l.5-.4zM650.5 33.4c-.3.9-.4 2-.4 2.9 0 .3 0 .3.1.4.3-.4.5-.9.7-1.4l.4.4c-.3.5-.3.8-1 2.7h-.4c-.3-.8-.4-1.6-.4-2.3 0-1 .1-2.1.4-3.1l.6.4zm3.9-.2v.7c.1 1.3.1 1.6.1 2 0 1.6-.4 2.7-.9 3.5-.3.5-.5.8-1 1.3l-.7-.4c.4-.3.9-.7 1.3-1.7.4-.9.5-1.8.5-2.6 0-1.3-.1-2.1-.3-2.7l1-.1zM657.2 33.3v1.8c0 2.1 0 3.8-.9 5.3l-.7-.4c.8-1.3.9-2.6.9-4.6 0-.9 0-2.5-.1-2.9h7.7v.5h-6.9v.3zm3.8 6v1c0 .7-.4.7-1.4.7l-.1-.8c.3 0 .5.1.8.1.3 0 .3-.1.3-.3v-.7h-3v-.7h3v-.7h.7c.3-.1.4-.3.7-.4h-4V37h5.2l.1.3c-.7.4-1.2.7-2.2 1.3h3.1v.7H661zm-2.9-2.8v-2.7h4.9v2.7h-4.9zm4.3-2.2h-3.6v.5h3.6v-.5zm0 1.2h-3.6v.5h3.6v-.5zM590.8 70.5v-.7h3.5v-.9H592v-.7h2.3v-1c-.3 0-1.2.1-1.3.1h-.8c0 .1-.1.3-.3.3-.1 0-.1 0-.1-.1l-.3-.8h1.2c.3-.4.5-.9.8-1.3h-2.1c0 .9-.1 1.8-.3 2.6-.3 1.2-.7 1.8-1.2 2.6l-.7-.4c1.2-1.8 1.3-3.4 1.3-5.7 0-.9 0-2-.1-2.9h7.8V64h-6.9v.8h7.4v.7h-2.1c1.2 1.3 1.4 1.8 1.7 2.1l-.7.4c-.3-.4-.4-.5-.7-1-.8.1-.9.1-2.1.3v1h2.5v.7h-2.5v.9h3.9v.7h-8.2v-.1zm6.7-8.3h-6.2v1h6.1v-1h.1zm-1.5 3.5.3-.3h-2.1c-.1.1-.7 1-.8 1.2.9 0 1.7-.1 3.1-.3.1-.1-.3-.4-.5-.6zM601.4 70.6l-.8-.5c.8-.4 2-1 2.9-2.9-.8-.8-1.3-1.2-1.7-1.4l.4-.7c.7.4 1 .8 1.7 1.3.5-1.3.8-2.3.8-2.9h-2.1c-.1.4-.9 2.2-2 3.4l-.7-.5c1.3-1.3 2.2-3.6 2.5-5.3l.8.3.1.1s-.1.1-.3.1c-.1.5-.3.8-.4 1.2h2.7c-.4 4.6-1.8 6.4-3.9 7.8zm8.2-2.6c-.7-.3-1.2-.5-1.8-1v3.9h-.8v-4.7c-.8-.8-1.2-1.4-1.3-1.7l.5-.5c.3.4.4.7.8 1v-3.9l.9.1c.1 0 .1.1.1.1 0 .1-.3.3-.3.3v4.3c.9.9 1.7 1.2 2.1 1.4l-.2.7zM590.8 85.8v-.7h3.5v-.9H592v-.7h2.3v-1c-.3 0-1.2.1-1.3.1h-.8c0 .1-.1.3-.3.3 0 0-.1 0-.1-.1l-.3-.8h1.2c.3-.4.5-.9.8-1.3h-2.1c0 .9-.1 1.8-.3 2.6-.3 1.2-.7 1.8-1.2 2.6l-.7-.4c1.2-1.8 1.3-3.4 1.3-5.7 0-.9 0-2-.1-2.9h7.8v2.3h-6.9v.8h7.4v.7h-2.1c1.2 1.3 1.4 1.8 1.7 2.1l-.7.4c-.3-.4-.4-.5-.7-1-.8.1-.9.1-2.1.3v1h2.5v.7h-2.5v.9h3.9v.7h-8.2zm6.7-8.3h-6.2v1h6.1v-1h.1zm-1.4 3.4.3-.3h-2.1c-.1.1-.7 1-.8 1.2.9 0 1.7-.1 3.1-.3 0 0-.2-.3-.5-.6zM608.3 86h-.9l-.4-.9c.3 0 .7.1 1.2.1.4 0 .4-.1.4-.5v-5.5h-3c.4 1.8 1.3 3 2.9 3.9l-.7.7c-.7-.4-1.3-.9-1.7-1.6-.8-.9-.9-1.7-1-2.1-.5 2-1.6 2.9-2.9 3.6l-.7-.5c.7-.4 1.3-.8 1.8-1.7.7-.9.9-1.8.9-2.5h-2.9v7h-.8v-7.7h3.8c0-.5.1-1 0-2.1l.9.1c.3 0 .3.1.3.1 0 .1-.1.1-.3.3v1.6h3.9v6.8c.1.6.1.9-.8.9zM590.8 101v-.7h3.5v-.9H592v-.7h2.3v-1c-.3 0-1.2.1-1.3.1h-.8c0 .1-.1.3-.3.3-.1 0-.1 0-.1-.1l-.3-.8h1.2c.3-.4.5-.9.8-1.3h-2.1c0 .9-.1 1.8-.3 2.6-.3 1.2-.7 1.8-1.2 2.6l-.7-.4c1.2-1.8 1.3-3.4 1.3-5.7 0-.9 0-2-.1-2.9h7.8v2.3h-6.9v.8h7.4v.8h-2.1c1.2 1.3 1.4 1.8 1.7 2.1l-.7.4c-.3-.4-.4-.5-.7-1-.8.1-.9.1-2.1.3v1h2.5v.7h-2.5v.9h3.9v.7h-8.2v-.1zm6.7-8.3h-6.2v1h6.1v-1h.1zm-1.5 3.4.3-.3h-2.1c-.1.1-.7 1-.8 1.2.9 0 1.7-.1 3.1-.3.1.1-.3-.3-.5-.6zM601.4 101l-.8-.5c.8-.4 2-1 2.9-2.9-.8-.8-1.3-1.2-1.7-1.4l.4-.7c.7.4 1 .8 1.7 1.3.5-1.3.8-2.3.8-2.9h-2.1c-.1.4-.9 2.2-2 3.4l-.7-.5c1.3-1.3 2.2-3.6 2.5-5.3l.8.3.1.1c0 .1-.1.1-.3.1-.1.5-.3.8-.4 1.2h2.7c-.4 4.6-1.8 6.4-3.9 7.8zm8.2-2.6c-.7-.3-1.2-.5-1.8-1v3.9h-.8v-4.7c-.8-.8-1.2-1.4-1.3-1.7l.5-.5c.3.4.4.7.8 1v-3.9l.9.1c.1 0 .1.1.1.1 0 .1-.3.3-.3.3v4.3c.9.9 1.7 1.2 2.1 1.4l-.2.7zM644.1 55c-1 0-2.2-.3-3-1.3-.5-.8-.5-1.4-.7-1.8h1.2c0 .5.1 2.2 2.3 2.2 1.6 0 2.3-.9 2.3-2.1 0-1.3-1.2-1.8-2.1-1.8h-1v-.8h.8c.8 0 2-.4 2-1.7 0-.7-.4-1.6-2-1.6-.7 0-1.3.1-1.7.7s-.4.9-.5 1.3h-1.2c.1-2.2 1.8-2.9 3.3-2.9 1.8 0 3.1 1 3.1 2.5 0 1.6-1.2 2-1.6 2.1.5.1 2 .5 2 2.3.3 1.6-1 2.9-3.2 2.9zM652.1 55c-2.9 0-3.5-2.6-3.5-4.9 0-2.3.7-4.9 3.5-4.9 2.9 0 3.5 2.6 3.5 4.9.1 2.3-.6 4.9-3.5 4.9zm0-8.8c-1.8 0-2.3 1.8-2.3 3.9 0 2.2.5 3.9 2.3 3.9s2.3-1.8 2.3-3.9c.1-2.1-.4-3.9-2.3-3.9zM646.3 67.9v2.2h-1.2v-2.2h-4.6v-1l4.7-6.1h1v6.1h1.4v1h-1.3zm-1.2-5.5-3.4 4.6h3.4v-4.6zM652.1 70.4c-2.9 0-3.5-2.6-3.5-4.9 0-2.3.7-4.9 3.5-4.9 2.9 0 3.5 2.6 3.5 4.9.1 2.3-.6 4.9-3.5 4.9zm0-8.9c-1.8 0-2.3 1.8-2.3 3.9 0 2.2.5 3.9 2.3 3.9s2.3-1.8 2.3-3.9c.1-2.1-.4-3.9-2.3-3.9zM646.3 83.6v2.2h-1.2v-2.2h-4.6v-1l4.7-6.1h1v6.1h1.4v1h-1.3zm-1.2-5.6-3.4 4.6h3.4V78zM652.1 86.1c-2.9 0-3.5-2.6-3.5-4.9s.7-4.9 3.5-4.9c2.9 0 3.5 2.6 3.5 4.9s-.6 4.9-3.5 4.9zm0-8.9c-1.8 0-2.3 1.8-2.3 3.9 0 2.2.5 3.9 2.3 3.9s2.3-1.8 2.3-3.9c.1-2.2-.4-3.9-2.3-3.9zM643.9 100.8c-2.1 0-3.1-1-3.4-2.6h1.2c.1 1.2 1.2 1.7 2.2 1.7 1.3 0 2.5-.8 2.5-2.3 0-.4-.1-2.2-2.2-2.2-.5 0-1.4.1-2 .8H641l.8-4.9h5.3v.9h-4.3l-.5 2.9c.4-.3.9-.7 2-.7 2 0 3.3 1 3.3 3.1 0 2.2-1.7 3.3-3.7 3.3zM652.1 100.8c-2.9 0-3.5-2.6-3.5-4.9 0-2.3.7-4.9 3.5-4.9 2.9 0 3.5 2.6 3.5 4.9.1 2.4-.6 4.9-3.5 4.9zm0-8.9c-1.8 0-2.3 1.8-2.3 3.9 0 2.2.5 3.9 2.3 3.9s2.3-1.8 2.3-3.9c.1-2-.4-3.9-2.3-3.9zM643.9 116.5c-2.1 0-3.1-1-3.4-2.6h1.2c.1 1.2 1.2 1.7 2.2 1.7 1.3 0 2.5-.8 2.5-2.3 0-.4-.1-2.2-2.2-2.2-.5 0-1.4.1-2 .8H641l.8-4.9h5.3v.9h-4.3l-.5 2.9c.4-.3.9-.7 2-.7 2 0 3.3 1 3.3 3.1 0 2.3-1.7 3.3-3.7 3.3zM652.1 116.5c-2.9 0-3.5-2.6-3.5-4.9s.7-4.9 3.5-4.9c2.9 0 3.5 2.6 3.5 4.9s-.6 4.9-3.5 4.9zm0-8.8c-1.8 0-2.3 1.8-2.3 3.9 0 2.2.5 3.9 2.3 3.9s2.3-1.8 2.3-3.9c.1-2.1-.4-3.9-2.3-3.9zM643.9 131.9c-2.1 0-3.1-1-3.4-2.6h1.2c.1 1.2 1.2 1.7 2.2 1.7 1.3 0 2.5-.8 2.5-2.3 0-.4-.1-2.2-2.2-2.2-.5 0-1.4.1-2 .8H641l.8-4.9h5.3v.9h-4.3l-.5 2.9c.4-.3.9-.7 2-.7 2 0 3.3 1 3.3 3.1s-1.7 3.3-3.7 3.3zM652.1 131.9c-2.9 0-3.5-2.6-3.5-4.9s.7-4.9 3.5-4.9c2.9 0 3.5 2.6 3.5 4.9s-.6 4.9-3.5 4.9zm0-9c-1.8 0-2.3 1.8-2.3 3.9 0 2.2.5 3.9 2.3 3.9s2.3-1.8 2.3-3.9-.4-3.9-2.3-3.9zM643.6 147h-1.2c.1-1.6.8-3.1 1.4-4.6.9-2 1.7-2.9 2.6-3.9h-5.6v-.9h6.8v.9c-2.2 2.3-3.7 5.3-4 8.5zM652.1 147.2c-2.9 0-3.5-2.6-3.5-4.9s.7-4.9 3.5-4.9c2.9 0 3.5 2.6 3.5 4.9s-.6 4.9-3.5 4.9zm0-9c-1.8 0-2.3 1.8-2.3 3.9 0 2.2.5 3.9 2.3 3.9s2.3-1.8 2.3-3.9c.1-2-.4-3.9-2.3-3.9zM523 112.6v3.1c0 .8-.3.9-.9.9h-.5l-.1-.8c.1 0 .4.1.7.1.3 0 .3-.1.3-.4v-2.3c-.3.1-.3.1-.8.5 0 .1 0 .3-.1.3s-.1-.1-.1-.1l-.3-.8c.7-.3 1-.4 1.3-.7v-2.3h-1v-.9h1v-2.3h.8c.1 0 .3 0 .3.1s-.1.1-.3.3v2h.8v.7H523v2c.7-.3.8-.5 1-.7v.8s-.7.4-1 .5zm3.5.2c-.1 1.2-.4 2.5-2.1 3.5l-.7-.5c.9-.7 1.4-1.3 1.8-2.2-.3 0-1.6.3-1.7.3 0 .1-.1.3-.3.3-.1 0-.1-.1-.1-.3l-.1-.8h.5c.4-.4.7-.8.9-1.2-.3-.4-.8-1-1.3-1.3l.4-.5.3.3c.1-.3.5-.8.8-1.4l.7.4c.1 0 .1.1.1.1 0 .1-.1.1-.4.1 0 .1-.5.9-.8 1.3.3.3.3.3.4.5.1-.3.3-.5.5-1l.7.3c.1 0 .1.1.1.1 0 .1-.1.1-.3.1-.4.7-1 1.7-1.6 2.2.1 0 .5 0 .9-.1 0-.1 0-.5.1-.7l.8.3c.1 0 .1 0 .1.1.6.1.3.1.3.1zm-2.5-4.2v-.7h2.9v-1h.8c.1 0 .3 0 .3.1s-.1.1-.3.3v.7h3v.7l-6.7-.1zm3.7 7.3v.7h-.7v-4.9c-.1.1-.3.4-.4.5l-.5-.4c.9-1.2 1.4-2.7 1.4-3l.7.3s.1 0 .1.1-.1.1-.3.1c-.1.4-.1.5-.3.8h.8c.4-.5.5-.9.8-1.3l.7.3s.1 0 .1.1-.1.1-.3.1c-.3.4-.3.4-.5.8h1.4v.7h-1v1h.9v.7h-.9v1h.9v.7h-.9v1h1.2v.7h-3.3zm1.3-5.1h-1.3v1h1.3v-1zm0 1.7h-1.3v1h1.3v-1zm0 1.7h-1.3v1h1.3v-1zM533.4 109.8c0 .9-.1 2.2-.9 3.6l-.7-.4c.8-1.2.9-2.2.9-3.6 0-.5 0-1.2-.1-1.8h3.5v2.2h-2.7zm-1.2 6.3v-.7h4.2v-.9h-3.1v-.7h3.1v-1l.8.1c.1 0 .1 0 .1.1s-.1.1-.3.3v.7h3v.7h-3v.9h4v.7h-8.8v-.2zm3.2-8h-2v1h2v-1zm-1.9 4.9v-2.3h2.5v2.3h-2.5zm1.9-1.8h-1.2v1.2h1.2v-1.2zm4-.3v.9h1.6v.7h-1.6v1h-.8v-1h-1.7v-.7h1.7v-.9h-1.8v-.7h4.6v.7h-2zm-2.3-2.3v-.7h1.7v-.9h.8c.1 0 .1 0 .1.1s-.1.1-.3.3v.5h1.6v.7h-3.9zm.9 1.6c-.1-.3-.3-.7-.7-1l.5-.4c.4.4.5.8.7 1l-.5.4zm2.4-.8c-.3.4-.3.5-.5.8l-.5-.4c.3-.4.4-.7.7-1l.7.4.1.1c-.1.1-.2.1-.5.1zM353.7 164.3c-.4-.3-1-.7-1.7-.9l.4-.7c.9.4 1.3.7 1.7.9l-.4.7zm-.3 4.1s.1.1.1.3c0 0 0 .1-.1.1 0 0-.1 0-.1-.1l-.7-.5c.1-.3.5-.8.9-1.7.1-.3.7-1.4.8-1.7l.5.5c-.2.5-.7 1.7-1.4 3.1zm1.2-7c-.4-.3-.8-.7-1.6-.9l.4-.7c.5.3 1 .5 1.6.9l-.4.7zm.1 7v-.7h2.9v-2.3h-2.1v-.7h2.1v-2.1h-2.5v-.6h5.7v.7h-2.5v2.1h2.1v.7h-2.1v2.3h2.9v.7h-6.5zm3.9-6.6c-.8-.7-1.4-1-2.2-1.4l.4-.7c.9.4 1.6.8 2.2 1.4l-.4.7zM362 168.8c.4-.4.7-.7.9-1.2.5-1 .8-2.2.8-3.3s-.3-2.2-.8-3.3c-.3-.5-.5-.8-.9-1.2l.4-.4c.4.4.7.8.9 1.3.7 1 .9 2.3.9 3.5 0 1.2-.4 2.5-.9 3.5-.3.5-.5.8-.9 1.3l-.4-.2zM369.7 168.8v-6.1h-1.8v-.8c.8 0 1.7-.1 2.1-1.6h.8v8.3h-1v.2zM374.7 168.8v-1.2h1.2v1.2h-1.2zM377.6 169.1v-.8h4.3v-8.8h.8c.1 0 .3 0 .3.1s-.1.1-.3.3v3.4h3.9v.8h-3.9v4.2h5.1v.8h-10.1zM391.9 166.1c-.8.5-1.3.8-2.1 1l-.7-.7c1.7-.5 2.7-1.2 3.6-2.2h-3.8v-.8h4.7v-1H390v-.8h3.6v-.9h-4.3v-.7h4.3v-1l.8.1c.1 0 .3.1.3.1 0 .1-.1.3-.3.3v.7h4.4v.8h-4.4v.9h3.8v.8h-3.8v1h4.9v.8H395c.3.9.7 1.6.9 2 .9-.4 1.7-.9 2.5-1.6l.7.7.1.1c0 .1-.1.1-.1.1h-.1c-.3.3-.8.4-1 .7-.7.4-.9.5-1.3.7.8.8 1.8 1.3 2.7 1.6l-.5.8c-2.2-.8-3.9-2.6-4.6-4.9h-.4c-.4.5-.7.8-1.2 1.2v2.3c1.2-.3 1.8-.5 2.5-.7l-.2.5c-1.4.5-3 .9-4.6 1.3-.1.1-.1.3-.3.3-.1 0-.1-.1-.3-.1l-.4-.9c1.2-.1 1.7-.3 2.2-.4v-2.1h.3zM406.4 168c.4-.1 1.2-.4 1.7-.9.8-.7 1.3-1.7 1.3-2.9 0-1.8-1.3-2.7-1.8-3-.4-.3-1-.3-1.6-.3-.1 1.7-.5 3.4-1.3 5.1-.5 1-1 2-1.8 2-.9 0-2-1.4-2-3.1 0-2.2 1.7-4.7 4.8-4.7 2.3 0 4.4 1.6 4.4 4 0 3.1-2.7 4.2-3.5 4.6l-.2-.8zm-3.8-5.3c-.4.5-.8 1.3-.8 2.2 0 1.2.7 2.2 1.2 2.2.3 0 .5 0 1.3-1.8.8-2 .9-3.5 1-4.2-.9.2-1.8.4-2.7 1.6zM414.7 159.8c-.3.7-.5 1.2-.8 1.8.1 0 .3 0 .3.1 0 0 0 .1-.3.3v7.7h-.8V163c-.3.4-.7.9-1.2 1.6l-.7-.7c1.3-1.6 2-2.6 2.6-4.8l.9.4c.1 0 .1.1.1.1.3.1 0 .2-.1.2zm4.3 1.6v.9h2.1v5.2h-4.4v-5.2h1.4v-.9h-3.3v-.8h3.3v-1.3l.8.1c.3 0 .3.1.3.1 0 .1-.1.1-.3.3v.8h2.9v.8H419zm-3 7.7v.5h-.8v-6.4l.8.1c.1 0 .3.1.3.1 0 .1-.1.1-.3.3v4.7h5.9v.8H416v-.1zm4.4-6.1h-2.9v.8h2.9v-.8zm0 1.5h-2.9v.8h2.9v-.8zm0 1.4h-2.9v.9h2.9v-.9zM424.4 168.8c-.4-1.3-.5-3-.5-4 0-1.6.3-3.3.7-4.7l.8.3c-.5 2-.8 3.1-.8 4.4 0 1 .1 1.6.1 2.1.1-.3.5-1 .7-1.3l.5.5c-.1.3-.3.5-.5 1.2-.3.8-.3 1-.4 1.3l-.6.2zm7.4-.9c-.9-.5-1.3-.7-1.7-.8 0 .7-.1 1.6-1.7 1.6-.8 0-2.1-.3-2.1-1.3 0-.7.5-1.3 1.8-1.3.4 0 .8 0 1.2.1-.1-2.2-.1-2.5-.1-3.3-.8.1-1.7.1-2.2.1l-.1-.9c.4.1.7.1 1.4.1h.9c0-.5.1-1.6.1-2.3l.9.3c-.1.8-.3 1.7-.3 2 .9-.1 1.3-.4 1.7-.5v.9c-.4.1-.8.1-1.7.3 0 .8 0 2 .1 3.5.5.1 1.2.4 2 .8l-.2.7zm-3.6-1.3c-.9 0-.9.4-.9.7 0 .5.7.8 1.4.8.9 0 .9-.5.9-1.2-.8-.2-1.1-.3-1.4-.3zM433.8 164.8v-.9h9.8v.9h-9.8zM450.2 164.6h-.7v3.6c0 1.2-.4 1.2-1.8 1.2l-.3-.9c.3 0 .5.1.8.1.5 0 .5-.1.5-.5v-3.4h-.7v3h-.8v-2.9h-.7c0 1.3-.1 3.1-.9 4.6l-.8-.4c.8-1.4.9-3.1.9-4h-.7c-.1.1-.1.3-.3.3-.1 0-.1-.1-.1-.3l-.1-.9h1.2c0-1.2 0-1.6-.1-3.4h.9c.4-.5.7-1 .9-1.8l.8.3c.1 0 .1.1.1.1 0 .1-.3.1-.4.1-.1.4-.4.8-.7 1.2h1.8v3h.7l.5 1zm-1.5-3.1h-2.1v2.6c.4 0 1.8-.1 2.1-.1v-2.5zm-1 2.2c-.3-.7-.4-.9-.7-1.6l.7-.4c.4.7.5 1 .8 1.6l-.8.4zm6.6-.2h-.7c-.7 0-.8-.3-.8-.8v-2.1h-1.3c0 1.4-.3 2.3-1.3 3.1l-.5-.7c.9-.7 1.2-1 1-3.3h2.9v2.2c0 .4.1.4.4.4.4 0 .5-.3.7-1l.8.4c-.4 1.8-.6 1.8-1.2 1.8zm.4 5.8c-.9-.3-1.6-.7-2.2-1.2-.8.7-1.4 1-2.2 1.3l-.7-.7c1.3-.4 2-.8 2.3-1.2-.5-.7-.8-1.3-1-2.2l.7-.3c.3.9.5 1.4.9 2 .4-.5.7-.9 1-2h-3.3v-.8h3.9l.3.3c-.4 1.7-1 2.6-1.4 3 .5.4.9.7 2.2 1l-.5.8zM464.1 165.2c.8 1 2.1 1.7 3.3 2.2l-.8.7c-1.4-.7-2.6-1.6-3.5-2.7h-2.7c-1 1.7-2.6 2.6-3.3 3l-.7-.5c1.8-.9 2.6-1.8 3-2.3h-2.7v-.7h2.9v-3.4h-2v-.7h2v-1.3h.8c.1 0 .3 0 .3.1 0 0 0 .1-.3.3v.8h2.9v-1.3l.8.1c.1 0 .3 0 .3.1s-.1.1-.3.3v.9h2.1v.7H464v3.4h2.9v.7h-2.7v-.4zm-2 .5c.1 0 .3 0 .3.1s-.1.1-.3.1v.8h1.8v.7h-1.8v1.2h3.4v.7H458v-.7h3.4v-1.2h-2v-.7h2v-1.2l.7.2zm1.1-4.6h-2.9v.7h2.9v-.7zm0 1.5h-2.9v.7h2.9v-.7zm-2.9 1.3v.7h2.9v-.7h-2.9zM473.7 167h4.8v.8h-4.8v1.7h-.8v-1.7h-4.7v-.8h4.7v-1l.9.1c.1 0 .3 0 .3.1s-.1.1-.3.3v.5h-.1zm-4.8-5.6c.5.3 1 .7 1.4 1l-.5.7c-.3-.3-.8-.7-1.4-.9l.5-.8zm2.3 2.1c-.4.5-.8 1.2-1.7 2.1 0 .1 0 .4-.1.4l-.1-.1-.7-.7c.9-.8 1.7-1.7 2.1-2.3l.5.6zm-1.5-4.2c.9.5 1.3.8 1.6 1l-.4.7c-.7-.7-1.2-.8-1.6-1l.4-.7zm2.5 2.6c-.1.1-.3.5-.5.7l-.7-.6c.8-.9 1.4-1.7 1.8-2.7l.8.3s.1 0 .1.1-.1.1-.3.1c-.3.4-.3.5-.5.9h1.6c.4-.5.7-.9.9-1.4l.8.3s.1 0 .1.1-.1.1-.3.1c-.3.4-.3.4-.7.9h2.7v.7h-2.5v.8h2v.7h-2v.8h2.1v.7h-2.1v.8h2.6v.7h-6v-3.8h.1zm2.6-.4H473v.8h1.8v-.8zm0 1.3H473v.8h1.8v-.8zm0 1.5H473v.8h1.8v-.8zM480.1 161.1c1 0 1.8 0 4.3-.4 2.6-.4 3.1-.5 3.9-.7l.1.9c-1.2.3-2.1.8-3 1.4-.7.5-1.8 1.7-1.8 3.3 0 1.4.8 2.1 3 2.6l-.4.9c-1-.3-3.5-.9-3.5-3.3 0-1.6.9-2.7 1.6-3.5.5-.5.9-.8 1.6-1.2-1.8.1-4.6.5-5.7.8v-.8zm6.6 1.7c.5.7.8 1.3.9 1.4l-.5.5c-.3-.5-.8-1.2-1-1.4l.6-.5zm1.2-.9c.4.5.8 1 1 1.4l-.5.5c-.3-.5-.8-1.2-1-1.6l.5-.3zM493.4 168.4c-.1-.1-.1-.3-.1-.5-.5.3-1.3.8-2 .8-.8 0-1.2-.7-1.2-1.4 0-1.2.8-2 1.3-2.5.4-.4.8-.7 1.4-.9v-1.4h-1.7l-.3-.8c.7.1 1.2.1 2 .1 0-.5.1-1 .3-2.1l.9.3c-.3.8-.4 1.4-.4 1.7 1-.1 2.1-.4 3.3-.8l-.1.9c-1.6.4-2.1.5-3.3.7 0 .5 0 .9-.1 1.3.4-.1.9-.3 1.6-.3h.4c.1-.7.1-.8.1-.8l.8.4c-.1.3-.1.4-.1.7.5.1 1 .4 1.6 1 .4.4.5.9.5 1.6 0 1.4-1 2.2-1.7 2.6-.5.3-.9.4-1.4.5l-.7-.8c.9-.1 1.7-.3 2.3-1 .5-.5.7-1 .7-1.4 0-1.3-1.2-1.7-1.6-1.8-.3.7-.9 2.2-2 3.1 0 .1 0 .3.1.7l-.6.1zm-.8-3.9c-.4.3-.9.5-1.4 1.3-.1.3-.4.8-.4 1.3s.4.7.8.7c.7 0 1.2-.4 1.4-.7-.2-.5-.3-1.3-.4-2.6zm2.4-.4c-.5 0-1 0-1.7.1.1 1.2.3 1.8.3 2.2.5-.6 1.1-1.1 1.4-2.3zM499.6 164.6c.7-.1.9-.1 2.6-.7 1-.3 1.7-.5 2.5-.5 1.2 0 2.2.9 2.2 2.3 0 .9-.4 2-1.3 2.5-.7.4-1.3.5-2 .7-.4.1-.7.1-1.2.1l-.4-.7c.8 0 2.2-.1 3.1-.8.8-.5 1-1.4 1-1.8 0-.5-.4-1.8-1.7-1.8-.5 0-2.1.3-4.7 1.3l-.1-.6zM508.7 161c1 0 1.8 0 4.3-.4 2.6-.4 3.1-.5 4-.7v.9c-1.2.1-2.1.8-3 1.4-1.6 1.3-1.8 2.6-1.8 3.3 0 1.4.8 2.1 3 2.6l-.3.9c-1.2-.3-3.5-.9-3.5-3.3 0-1.4.8-2.6 1.6-3.4.5-.5.9-.8 1.6-1.2-1.7.1-3.9.5-5.9.8v-.9zM519 166.9c1.2.8 1.8 1.6 2.3 2.1l-.7.7c-.8-1-1.2-1.6-2.2-2.3l.6-.5zM532 161.3c-.5.4-.5.4-.7.5-.7 1.4-1 2-1.6 2.7 1 .9 2.2 2 3.1 3.3l-.8.7c-.3-.5-.7-1-1.4-2-.7-.7-1-1-1.4-1.3-1.4 1.6-2.6 2.3-4.2 3l-.7-.8c1-.4 2.2-.8 3.6-2.2 1.6-1.4 2-2.7 2.5-3.8h-4.9v-.8h5.1c.3 0 .4-.1.5-.3l.9 1zM534.2 163.6v-.8h6.8c.1 0 .4-.1.7-.3l.7.9-.4.4c-1 2.1-1.2 2.3-1.6 2.7-1.4 1.7-2.6 2.2-3.9 2.6l-.8-.8c1-.3 2.1-.5 3.4-1.8 1.2-1.2 1.4-2.2 1.7-2.9h-6.5zm6.8-2.6h-5.5v-.8h5.5v.8zM543.6 161.9v-.8h6.2c.1 0 .3-.1.5-.3l.9.8-.4.4v.1c-.9 3-1.6 4.2-3.1 5.5-.7.5-1.2.9-2.5 1.4l-.8-.8c.9-.3 2.2-.8 3.4-2 1.4-1.4 1.8-3 2.1-4.3h-6.4zm6.7-1.3c-.3-.5-.7-.9-.8-1l.5-.4c.3.4.7.7.9 1l-.6.4zm1.7-.3c-.3-.4-.7-.9-.8-1l.5-.4c.4.4.8.9.9 1l-.6.4zM553.3 169.1v-.8h4.3v-8.8h.8c.1 0 .3 0 .3.1s-.1.1-.3.3v3.4h3.9v.8h-3.9v4.2h5.1v.8h-10.1zM571 163.5v.8h-6v-.8h4.3l-.7-.4c.3-.5.5-1.2.7-1.7l.8.3.1.1c0 .1-.1.1-.3.1-.3.9-.5 1.3-.5 1.4h1.6v.2zm-3.4-4.3h.9s.1 0 .1.1-.1.3-.3.3v.9h2.2v.8h-5.3v-.8h2.2v-1.3h.2zm-1.8 6.1h4.6v4.2h-.8v-.7h-2.9v.8h-.8v-4.3h-.1zm.8-3.9c.4.7.7 1.2.8 1.7l-.8.4c-.3-.7-.4-1-.8-1.7l.8-.4zm3 6.8v-2h-2.9v2h2.9zm5.6-7.7c-.9 2-1.4 2.7-1.7 3.3 1 .8 1.7 1.8 1.7 3.1 0 1.7-1.4 2-2.3 2l-.4-1h.7c.4 0 .8 0 .9-.3.3-.3.3-.7.3-.9 0-1.3-1.2-2.5-1.7-3 .7-1 1-2 1.6-3h-1.8v8.8h-.8V160h3.3l.2.5zM576.5 163.1c1.2-.3 1.8-.4 2.3-.7.1-.5.1-1 .1-2.3l1 .4c-.1.5-.1.9-.3 1.7.3 0 .7-.1.9-.1.7 0 1.7.4 1.7 2.1 0 .9-.3 2.6-.8 3.5-.4.8-1.2.9-1.6.9h-.7l-.4-.9c.5 0 .8.1.9.1.3 0 .8 0 1-.8.1-.3.4-1.3.4-2.5 0-.7-.1-1.6-.9-1.6-.3 0-.8.1-.9.1-.5 2.1-1.2 3.9-2.3 5.7l-.9-.5c.4-.5.9-1 1.4-2.5.5-1.3.7-2 .8-2.6-.1.1-.9.4-1 .4-.4.1-.5.3-.8.3l.1-.7zm6.2-2.1c.7.5 2.1 2 2.1 3.1 0 .8-.7.9-1.3 1l-.4-.9c.3 0 .8 0 .8-.4 0-.1-.1-.4-.3-.8-.4-.5-.8-1-1.6-1.7l.7-.3zm1.9.5c-.3-.3-.7-.8-1-1l.5-.5c.4.3.8.5 1.2 1l-.7.5zm.7-2.2c.3.3.7.5 1 .9l-.5.5c-.4-.4-.7-.7-1-.9l.5-.5zM587.4 167.5v-.9h6.4V162h-6.4v-.8h7.3v6.9h-.9v-.5h-6.4v-.1zM604.9 163.9c-1.3 1.3-2.7 2.7-7.5 4.4 0 0-.1.3-.3.3-.1 0-.1-.1-.3-.3l-.4-.9c1.2-.3 2.3-.4 4.4-1.6 2-1.2 2.7-2 3.4-2.7l.7.8zm-6.1-.9c-.5-.7-1.2-1.3-2-2l.7-.7c.4.3 1.3 1.2 2 2l-.7.7zM613 161.3h.4l.5.7-.7.7c-.9 2.5-1.6 3.5-2.9 4.8-.8.8-1.3 1.2-2.3 1.7l-.8-.7c1-.5 2.2-1 3.5-2.6 1.2-1.6 1.4-2.7 1.7-3.6H609c-.5.7-1 1.3-2.2 2.5l-.8-.5c.7-.5 1.3-1 2.1-2.1.7-.9.9-1.6 1-2l.8.3c.3.1.3.3.3.3 0 .1-.1.1-.4.1-.1.3-.3.5-.4.8h3.6v-.4zM616.8 160.2c.1 0 .3 0 .3.1 0 0 0 .1-.3.3v4.9h-.9V160l.9.2zm.5 8.2c1.3-.5 1.8-.8 2.2-1.4.7-.8 1.2-1.8 1.2-3.5V160h.9s.3 0 .3.1c0 0 0 .1-.1.3 0 3.3 0 4.4-.4 5.7-.5 1.7-2.1 2.5-3.1 3l-1-.7zM623.5 165v-.8h8.3v.8h-8.3zM635 163c2 .8 2.7 1.4 3.8 2.2l-.5.8c-.4-.3-.8-.7-1.6-1.2-.9-.7-1.4-.8-2-1v5.1h-.9V160h.9s.3 0 .3.1-.1.1-.3.3v3.3l.3-.7zM649.5 164.3c-2.3-1.3-3.4-2.3-4.4-3.6-1.2 1.6-2.7 3-4.6 3.8l-.7-.8c2-.8 3.8-2 4.9-4.4l.9.4c.1 0 .1.1.1.1 0 .1-.1.1-.3.3 1.6 2.2 3.3 2.9 4.7 3.5l-.6.7zm-8.8 4.9v-.8h2.6c-.3-.5-.4-.8-.8-1.3l.7-.5c.4.4.7.7 1 1.4l-.5.4h1.2v-2.2h-3.1v-.8h3.1V164h-2v-.8h4.8v.8h-2.1v1.4h3.4v.8h-3.4v2.2h1.2l-.5-.4c.3-.3.7-.7.9-1.4l.7.4c.1 0 .1.1.1.1 0 .1-.1.1-.3.1-.3.5-.4.8-.8 1h2.7v.8h-9v.2zM651.8 167.8v-.9h6.4v-4.7h-6.4v-.9h7.3v6.9h-.9v-.4h-6.4zm6.6-8.2c.3.3.5.8.7 1l-.7.4c-.1-.4-.4-.8-.7-1l.7-.4zm1.5-.3c.1.3.5.7.7 1l-.7.4c-.3-.4-.5-.8-.7-1l.7-.4zM666.6 164c-.1 1-.1 2.1-.9 3.3-.8 1.2-1.7 1.6-2.3 1.8l-.8-.8c.8-.3 1.6-.5 2.3-1.6.8-1 .8-2 .8-2.7h-4.2v-.8h8.8v.8h-3.7zm2.1-3H663v-.8h5.7v.8zM377.2 177.3c.8-.8 2-2.1 2.7-4.7l.9.4.1.1c0 .1-.1.1-.3.1-.3.5-.4 1-.7 1.6.1 0 .3 0 .3.1s-.3.3-.3.3v7.8h-.8v-6.8c-.4.7-.7 1-1.2 1.7l-.7-.6zm3.7 4.9v-.8h2.9v-4.3h-3v-.8h3v-3.6h.8c.1 0 .4 0 .4.1s-.1.1-.3.3v3.3h3.1v.8h-3.1v4.3h2.7v.8l-6.5-.1zM388.9 182.3v-.8h4.3v-8.8h.8c.1 0 .3 0 .3.1s-.1.1-.3.3v3.4h3.9v.8H394v4.2h5.1v.8H389zM401.7 181.9c-.8-1-1-3.3-1-4.2 0-1.7.4-3.4.5-4.3l.9.4c-.4 1.3-.7 2.5-.7 4 0 .8 0 1.7.4 2.5.3-.5.4-1 .7-1.4l.7.5c-.4.9-.8 2.1-.9 2.3l-.6.2zm5.4-8.7c.1.8.1 2 .1 2.5.5-.1.9-.3 1.4-.5v.9c-.4.1-.9.3-1.4.4 0 4-.9 5.1-1.8 6.1l-.8-.5c.7-.5 1.6-1.3 1.7-4v-1.4c-.8.1-1.6.1-2.5.1l-.4-.9h1.3c.5 0 .8 0 1.6-.1 0-.7-.1-1.6-.3-2.7l1.1.1zm1.1-.6c.4.5.7 1 .8 1.4l-.7.4c-.1-.4-.4-.9-.8-1.4l.7-.4zm1.1-.5c.3.4.7.9.8 1.3l-.5.4c-.3-.5-.5-.9-.8-1.4l.5-.3zM416.4 181.3c.4-.1 1.2-.4 1.7-.9.8-.7 1.3-1.7 1.3-2.9 0-1.8-1.3-2.7-1.8-3-.4-.3-1-.3-1.6-.3-.1 1.7-.5 3.4-1.3 5.1-.5 1-1 2-1.8 2-.9 0-2-1.4-2-3.1 0-2.2 1.7-4.7 4.8-4.7 2.3 0 4.4 1.6 4.4 4 0 3.1-2.7 4.2-3.5 4.6l-.2-.8zm-3.8-5.3c-.4.5-.8 1.3-.8 2.2 0 1.2.7 2.2 1.2 2.2.3 0 .5 0 1.3-1.8.8-2 .9-3.5 1-4.2-1 .1-1.9.4-2.7 1.6zM423.9 176.1v3c.8-.3.9-.4 1.3-.5v.8l-3 1.2c0 .1-.1.3-.3.3-.1 0-.1-.1-.1-.3l-.3-.8c.3 0 .4 0 1.6-.4v-3.3h-1.4v-.8h1.4v-2.6l.8.1s.3 0 .3.1 0 .1-.3.3v2.1h1.3v.8h-1.3zm4 1.8c-.1.3-.4.7-.5.8h4.2c0 .8-.1 2.9-.4 3.5-.3.5-.8.5-1.3.5h-.7l-.3-.9c.3 0 .5.1.9.1.1 0 .5 0 .7-.5.1-.3.1-.9.3-2.1h-.5c-.5 1.6-1 2.5-2.5 3.5l-.8-.4c.7-.4 2-1.3 2.5-3.1h-.8c-.3.8-.7 1.2-1.2 1.7-.8.8-1.7 1.3-2.1 1.4l-.7-.5c.8-.3 2.3-.9 3.1-2.6h-.8c-.7.7-1.2 1.2-2 1.7l-.8-.5c1.2-.7 2.1-1.6 2.9-2.6H425v-.7h6.9v.7h-4zm-1.9-1.4v-3.6h4.7v3.6H426zm3.9-3h-3.1v.8h3.1v-.8zm0 1.4h-3.1v.8h3.1v-.8zM442.6 177.4c-2-.9-3.6-2.3-4.6-3.8-.8 1.2-2.1 2.7-4.6 3.9l-.7-.8c1.2-.5 3.4-1.6 4.8-4.4l.9.4c.1 0 .3.1.3.3s-.1.1-.3.1c.3.4.8 1.2 1.8 2 .8.7 1.8 1.2 2.7 1.6l-.3.7zm-2 5.3v-.5h-4.8v.5h-.8v-4h6.5v4h-.9zm-5-5.3v-.8h5.1v.8h-5.1zm5 2.1h-4.8v2h4.8v-2zM445.5 182.1c-.4-1.3-.5-3-.5-4 0-1.6.3-3.3.7-4.7l.8.3c-.5 2-.8 3.1-.8 4.4 0 1 .1 1.6.1 2.1.1-.3.5-1 .7-1.3l.5.5c-.1.3-.3.5-.5 1.2-.3.8-.3 1-.4 1.3l-.6.2zm7.4-.9c-.9-.5-1.3-.7-1.7-.8 0 .7-.1 1.6-1.7 1.6-.8 0-2.1-.3-2.1-1.3 0-.7.5-1.3 1.8-1.3.4 0 .8 0 1.2.1-.1-2.2-.1-2.5-.1-3.3-.8.1-1.7.1-2.2.1l-.1-.9c.4.1.7.1 1.4.1h.9c0-.5.1-1.6.1-2.3l.9.3c-.1.8-.3 1.7-.3 2 .9-.1 1.3-.4 1.7-.5v.9c-.4.1-.8.1-1.7.3 0 .8 0 2 .1 3.5.5.1 1.2.4 2 .8l-.2.7zm-3.6-1.2c-.9 0-.9.4-.9.7 0 .5.7.8 1.4.8.9 0 .9-.5.9-1.2-.8-.3-1.2-.3-1.4-.3zM454.5 174.4h4.4v.7h-4.4v-.7zm1.1 8.4h-.8V179h3.4v3.6h-.8v-.7h-1.8v.9zm-.6-9.2v-.6h3.3v.8H455v-.2zm0 2.4h3.3v.8H455v-.8zm.1 1.5h3.3v.7h-3.3v-.7zm2.5 2.2h-1.8v1.7h1.8v-1.7zm1.6-2.6h4.8l.3.3c-.5 1.3-1.2 2.5-2 3.4 1 .9 2.3 1.2 2.6 1.2l-.7.7c-1.2-.4-2-.9-2.5-1.4-.5.4-1.2 1-2.5 1.3l-.7-.7c1.2-.3 2.1-.7 2.6-1.3-.4-.4-.9-1.3-1.3-2.6l.8-.3c.4 1.2.7 1.7 1.2 2.3.5-.7 1-1.3 1.4-2.5h-4v-.4zm5.8-2.4c-.4 1.4-.5 1.6-1.3 1.6h-.9c-.5 0-.9-.1-.9-.9v-2h-1c0 1.7-.3 2.3-1.4 3.1l-.7-.5c1.2-.7 1.3-1.2 1.3-3.3h2.6v2.3c0 .4.1.4.4.4h.7c.3 0 .3-.1.4-.4.1-.3.1-.7.1-.8l.7.5zM465.8 175v-.8h5.1v.8h-5.1zm3.8 7.7v-.5H467v.5h-.8v-3.5h4.2v3.5h-.8zm-3.4-9.2v-.7h4v.7h-4zm0 3.2v-.7h4v.8h-4zm0 1.6v-.7h4v.7h-4zm3.4 1.7H467v1.6h2.6V180zm4.4-3v5.9h-.8V177h-2.3v-.8h2.3v-3.6l.9.1c.1 0 .3 0 .3.1s-.1.1-.3.3v3.1h2.2v.8H474zM477.7 173h9.4v9.9h-.8v-.8h-7.7v.7h-.8V173h-.1zm.8.7v7.7h7.7v-7.7h-7.7zm1.6 1.1c.4.5.7.9.9 1.6l-.8.4c-.1-.5-.4-.9-.8-1.6l.7-.4zm-.7 5.6c.9-.4 1.7-.8 2.7-1.6-.5-.4-1.2-.7-1.8-.9l.4-.7c.5.3 1.2.4 2.1.9 1-1.2 1.4-2.7 1.7-3.9l.9.4c.1 0 .3.1.3.3 0 .1-.3.3-.4.3-.3.5-.8 2.3-1.7 3.5.8.5 1.3 1 1.7 1.4l-.7.5c-.4-.5-.8-.8-1.6-1.4-1 1-2.1 1.4-2.7 1.7l-.9-.5zm2.8-5.9c.4.5.7.9.9 1.7l-.8.3c-.1-.5-.4-.9-.8-1.6l.7-.4zM496.1 181.8c-.5-.5-1.2-.9-2.6-1.6v.8c-.3 1-1.2 1.2-2.2 1.2-.1 0-1.2 0-1.7-.4-.4-.3-.7-.7-.7-1.2 0-1.3 1.7-1.6 2.6-1.6.5 0 .8 0 1 .1-.1-1-.1-2.1-.1-2.9V172.8l1.2.3c-.3 1-.3 1.7-.3 2.1h.7c.3 0 1.6 0 2.7-.4l-.1 1c-.9.1-1.8.3-2.7.3h-.7c0 1.2 0 1.8.1 3.3 1 .3 1.6.5 3.1 1.4l-.3 1zm-4.8-1.9c-.1 0-.5 0-.9.1-.1.1-.7.3-.7.8 0 .8 1.2.8 1.4.8 1.2 0 1.4-.4 1.4-1v-.5c-.2-.2-.8-.2-1.2-.2zM499.6 173.7c-.4 1.2-.5 2.3-.5 3.5 0 .3 0 .3.1.5.3-.5.5-1.2.8-1.7l.5.5c-.3.7-.4.9-1.3 3.4h-.5c-.4-.9-.5-1.8-.5-2.9 0-1.3.1-2.5.5-3.8l.9.5zm4.7-.2v.8c.1 1.6.1 1.8.1 2.3 0 1.8-.4 3.3-1 4.3-.4.7-.7 1-1.3 1.6l-.8-.5c.5-.4 1-.9 1.7-2 .5-1.2.7-2.2.7-3.1 0-1.6-.1-2.6-.4-3.3l1-.1zM508.3 176.5v3.3c.4-.1 1-.4 1.2-.4v.8c-.5.3-2.5 1-2.9 1.2l-.1.3c-.1 0-.1 0-.1-.1l-.4-.9c.7-.1 1.2-.4 1.7-.5v-3.5h-1.6v-.8h1.4V173l.8.1c.3 0 .3.1.3.1 0 .1-.1.1-.3.3v2.2h1.3v.8h-1.3zm1.7 1.4v-3.6h4.4l-.7-.4c.4-.4.7-.8 1-1.4l.7.5.1.1c0 .1-.1.1-.3.1-.4.4-.5.7-.9 1h1.6v3.5h-6v.2zm1.7-3.6c-.4-.5-.7-.8-1.2-1.3l.7-.5c.8.7 1 1 1.3 1.3l-.8.5zm3 8.5v-.5h-3.4v.5h-.8v-4.3h5.1v4.2h-.9v.1zm-2.1-7.8h-1.8v.8h1.8v-.8zm0 1.5h-1.8v.8h1.8v-.8zm2.1 2.8h-3.4v.8h3.4v-.8zm0 1.5h-3.4v.9h3.4v-.9zm.5-5.8h-1.8v.8h1.8v-.8zm0 1.5h-1.8v.8h1.8v-.8zM518.8 173.4c-.3 2.3-.3 5.3-.3 5.6 0 1.4.1 1.7.1 1.8.3.7.9.8 1.3.8.8 0 2.3-.4 3.6-3.3l.8.8c-.4.7-2 3.4-4.4 3.4-1.2 0-1.8-.8-2-1.4-.1-.5-.1-.9-.1-2.7V175c0-.5 0-1-.1-1.6h1.1zM528.2 178.6v3.3c0 .8-.3.9-1.7.9l-.4-.9c.3 0 .8.1.9.1.4 0 .4-.3.4-.5v-2.3c-.3.1-.8.5-1 .7-.1 0-.1.1-.3.1 0 .1 0 .3-.1.3 0 0-.1 0-.3-.3l-.5-.8c.5-.1 1-.4 2.1-1v-2.3h-2v-.8h2v-2.5h.8c.1 0 .3.1.3.1 0 .1 0 .1-.3.3v2.1h1.3v.8h-1.3v1.8c.8-.5 1-.7 1.3-.9v.9c-.2.2-.7.6-1.2.9zm5.7-4.3v7.4c0 .7 0 .9-.5 1-.1 0-.7.1-1.4.1l-.4-.9c.5 0 1 .1 1.2.1.4 0 .4-.3.4-.5v-7.3h-3.4v-.8h6v.8h-1.9zM543.6 175.2c-.7.1-1.8.5-3.5.7 0 .3-.4 1.7-.7 2.5.5-.4 1.7-1.2 3-1.2 1.4 0 2.5.9 2.5 2.1 0 3-4 3-5.5 3l-.3-.9c.3 0 .8.1 1.6.1 2.5 0 3.5-1 3.5-2.1 0-.9-.8-1.6-1.7-1.6-1 0-2 .5-2.3.9-.4.3-.5.5-.9.9l-.9-.5c.3-.7.7-1.4 1-3.4h-.8c-.1 0-.8 0-1.3-.1l-.1-.8c.8.1 1.3.1 2.1.1h.4c.1-.4.4-2.1.5-2.3l.9.3c-.3.8-.5 1.7-.7 2 2-.3 2.7-.7 3.4-.9v1.3h-.2zM551.9 173c0 .5-.1.9-.1 1.7 1.2-.1 2.5-.1 3.4-.3l.1.9c-1.6 0-2.7.1-3.5.1v2c.3.4.3 1.2.3 1.6 0 1-.5 2.1-.9 2.9-.3.5-.5.7-.9 1l-.9-.4c.4-.3 1.2-.9 1.6-2.2-.4.3-.8.3-.8.3-.8 0-1.4-.7-1.4-2 0-1.4.9-2.1 1.7-2.1.3 0 .4 0 .5.1v-1c-1.2.1-3.1.3-4.6.4v-.8c1.3-.1 3.3-.3 4.6-.3v-2h.9zm-2.5 5.4c0 .8.5 1.2.8 1.2.5 0 .8-.5.8-1.3 0-.4-.1-1.2-.8-1.2-.3 0-.8.5-.8 1.3zM557.6 173.9c2.5 0 3.9-.4 4.8-.7l.4.7c-.1.1-.5.5-.7.5l-2.3 2.3c.4-.1.8-.4 1.4-.4.8 0 2.9.4 2.9 2.6s-2.2 3.1-3.6 3.1c-1 0-2.2-.4-2.2-1.4 0-.7.7-1.3 1.7-1.3 1.4 0 2.1 1.2 2.3 1.6.3-.3 1.2-.8 1.2-1.8 0-.8-.5-1.8-2.1-1.8-2 0-3.9 2-4 2.2l-.8-.7c2-1.6 3.6-3.1 4.8-4.6-.7.1-1.8.4-3.3.4l-.5-.7zm2.2 6.1c-.5 0-.8.3-.8.5 0 .5.8.8 1.4.8.3 0 .7 0 .9-.1-.2-.3-.6-1.2-1.5-1.2zM573.2 181.5c-1.2.1-2.3.3-3.4.3-.8 0-1.7-.1-2.5-.3-.5-.1-1.6-.5-1.6-1.7 0-.8.4-1.2 1.2-2l.7.5c-.5.5-.9.8-.9 1.3 0 1.2 2.2 1.2 2.9 1.2 1.4 0 2.6-.3 3.8-.5l-.2 1.2zm-6.5-7.9c.3 0 1.2.3 1.4.3.5.1.9.1 1.4.1s1.6 0 2.5-.1l.4.9c-1.2.8-1.8 1.2-2.6 1.8l-.5-.5c.3-.3 1.6-1 1.8-1.2-.4.1-.9.1-1.3.1-.8 0-2.2-.1-3-.3l-.1-1.1zM577.2 173c0 .3.1 1.6.1 1.8 0 .5.1 1 .5 1.4.1.1.3.3.4.3.5-.3 2.7-1.2 3.1-1.4l.1.9c-1 .4-2.5.8-4.2 1.7-.5.3-1.7.9-1.7 2.1 0 1.6 1.3 1.6 2 1.6.1 0 1.4 0 2.6-.1.5-.1.8-.1 1.4-.3v1c-1.3.1-2.3.3-3.8.3s-2-.3-2.3-.7c-.5-.5-.7-1.2-.7-1.7 0-1.2.9-2 1.2-2.2.5-.4 1-.7 1.3-.8-.8-.8-.9-1.7-1-3 0-.4 0-.4-.1-.7v-.3h1.1zM586.3 181c0 .9-.8 1.7-1.8 1.7s-1.8-.8-1.8-1.7c0-1 .8-1.8 1.8-1.8 1.1 0 1.8.9 1.8 1.8zm-3 0c0 .7.5 1.3 1.3 1.3.7 0 1.3-.7 1.3-1.3 0-.8-.7-1.3-1.3-1.3-.6 0-1.3.7-1.3 1.3zM366.8 195.3c.1-2 1.4-2.9 3.5-4 1.3-.7 1.8-1 1.8-2.1 0-1.3-1-1.7-1.8-1.7-2 0-2.1 1.7-2.1 2.1h-1c0-.5.1-1.3.8-2 .8-.9 2-.9 2.3-.9 1.2 0 2.9.5 2.9 2.5 0 1.4-.9 2.1-2.3 2.9-2.1 1.2-2.3 1.8-2.6 2.3h5.1v.9h-6.6zM374.6 195.3v-1.2h1.2v1.2h-1.2zM377.4 195.6v-.8h4.3V186h.9c.1 0 .3 0 .3.1s-.1.1-.3.3v3.4h3.9v.8h-3.9v4.2h5.1v.8h-10.3zM391.5 192.7c-.8.5-1.3.8-2.1 1l-.7-.7c1.7-.5 2.7-1.2 3.6-2.2h-3.8v-.8h4.7v-1h-3.6v-.8h3.6v-.9h-4.3v-.8h4.3v-1l.8.1c.1 0 .3.1.3.1 0 .1-.1.3-.3.3v.7h4.4v.8h-4.3v.9h3.8v.8h-3.8v1h4.8v.8h-4.4c.3.9.7 1.6.9 2 .9-.4 1.7-.9 2.5-1.6l.7.7.1.1c0 .1-.1.1-.1.1h-.1c-.3.3-.8.4-1 .7-.7.4-.9.5-1.2.7.8.8 1.8 1.3 2.7 1.6l-.5.8c-2.2-.8-3.9-2.6-4.6-4.9h-.4c-.4.5-.7.8-1.2 1.2v2.3c1.2-.3 1.8-.5 2.5-.7l-.1.8c-1.4.5-3 .9-4.6 1.3-.1.1-.1.3-.3.3s-.1-.1-.3-.1l-.4-.9c1.2-.1 1.7-.3 2.2-.4v-2.3zM405.7 194.6c.4-.1 1.2-.4 1.7-.9.8-.7 1.3-1.7 1.3-2.9 0-1.8-1.3-2.7-1.8-3-.4-.3-1-.3-1.6-.3-.1 1.7-.5 3.4-1.3 5.1-.5 1-1 2-1.8 2-.9 0-2-1.4-2-3.1 0-2.2 1.7-4.7 4.8-4.7 2.3 0 4.4 1.6 4.4 4 0 3.1-2.7 4.2-3.5 4.6l-.2-.8zm-3.8-5.4c-.4.5-.8 1.3-.8 2.2 0 1.2.7 2.2 1.2 2.2.3 0 .5 0 1.3-1.8.8-2 .9-3.5 1-4.2-.8.2-1.8.5-2.7 1.6zM414.3 186.4c-.3.9-.7 1.6-1 2.2l.3.1c.1 0 .1 0 .1.1s-.1.3-.3.3v7h-.9v-6.4c-.4.7-.7 1.2-1.2 1.7l-.7-.5c2-2.3 2.6-4.2 3-5.2l.8.3c.1 0 .3.1.3.1-.2.1-.2.1-.4.3zm5.3 9.3h-3.3c-.9 0-1.2-.8-1.2-1.4v-3.5c-.3.1-.4.1-1 .3l-.3-.8c.3-.1.4-.1 1.3-.4v-3l.8.1c.1 0 .3.1.3.1 0 .1 0 .1-.1.1v2.2c.1 0 1-.4 1.2-.4.1 0 .1 0 .4-.1v-3.5l.8.1c.3 0 .3.1.3.1 0 .1-.1.1-.1.3v2.9c.9-.3 1.6-.5 2-.7l.7.5c0 .8-.3 2.5-.4 3.1-.1.9-.7 1-1.3 1.2l-.4-.9c.7 0 .9 0 .9-.7 0-.3.3-1.4.3-2.2-.5.1-.8.3-1.7.5v3.8h-.9V190c-.1 0-1.3.4-1.6.5v3.6c0 .5.1.8.9.8h2.3c.8 0 1-.1 1.3-1.8l.8.4c-.4 1.7-.8 2.2-2 2.2zM423 193.4c1.2.8 1.8 1.6 2.3 2.1l-.7.7c-.8-1-1.2-1.6-2.2-2.3l.6-.5zM438.1 190.8c-.8-.4-1-.5-1.4-.8v.7h-2.9v1.6h2.9v.8h-2.9v2h4.3v.8h-9.4v-.7h4.2v-2H430v-.8h2.9v-1.6h-3v-.5c-.5.3-.9.7-1.4.8l-.7-.7c1.2-.5 2.1-1.2 3-2 1.2-1 1.7-2 2.1-2.7l.9.4.1.1c0 .1-.1.3-.3.3 1.7 2.1 3.4 3.1 4.8 3.6l-.3.7zm-4.8-3.9c-1 1.3-1.7 2.1-3 3h6.2c-1.1-.8-2.3-1.7-3.2-3zM439.8 187.7c1 0 1.8 0 4.3-.4 2.6-.4 3.1-.5 4-.7v.9c-1.2.1-2.1.8-3 1.4-1.6 1.3-1.8 2.6-1.8 3.3 0 1.4.8 2.1 3 2.6l-.3.9c-1.2-.3-3.5-.9-3.5-3.3 0-1.4.8-2.6 1.6-3.4.5-.5.9-.8 1.6-1.2-1.7.1-3.9.5-5.9.8v-.9zM455 194.6c.4-.1 1.2-.4 1.7-.9.8-.7 1.3-1.7 1.3-2.9 0-1.8-1.3-2.7-1.8-3-.4-.3-1-.3-1.6-.3-.1 1.7-.5 3.4-1.3 5.1-.5 1-1 2-1.8 2-.9 0-2-1.4-2-3.1 0-2.2 1.7-4.7 4.8-4.7 2.3 0 4.4 1.6 4.4 4 0 3.1-2.7 4.2-3.5 4.6l-.2-.8zm-3.8-5.4c-.4.5-.8 1.3-.8 2.2 0 1.2.7 2.2 1.2 2.2.3 0 .5 0 1.3-1.8.8-2 .9-3.5 1-4.2-.9.2-1.8.5-2.7 1.6zM460.3 193.6v-.6h3.1v-1h-2.2v-.8h2.2v-1h-1.8v-4h7.8v4h-2v1h2.2v.7h-2.2v1h3.1v.7h-10.3zm3.9 1h-.1c-.8.8-1.6 1.2-2.5 1.7l-.7-.8c.9-.3 1.8-.8 2.7-1.7l.5.5c.3 0 .3.1.1.3.2 0 .2 0 0 0zm.8-7.7h-2.6v.9h2.6v-.9zm0 1.5h-2.6v.9h2.6v-.9zm1.7 1.7h-2.5v1h2.5v-1zm0 1.7h-2.5v1h2.5v-1zm1.8-4.9h-2.7v.9h2.7v-.9zm0 1.5h-2.7v.9h2.7v-.9zm.7 7.7c-.9-.4-1.8-.9-2.7-1.7l.5-.5c1 .8 2 1.2 2.9 1.6l-.7.6zM475.1 188.6c-.4.8-.7 1-.8 1.2l.1.1c0 .1-.1.1-.3.3v5.9h-.8v-5.2c-.4.5-.8.9-1.3 1.3l-.7-.5c1.8-1.3 2.7-3.1 3.3-3.9l.7.4.1.1c0 .3-.3.3-.3.3zm-.2-2.1c-.7.8-1.6 1.8-2.6 2.5l-.5-.7c1.3-.8 2.2-1.8 2.6-2.6l.7.5.1.1c.1.2-.2.2-.3.2zm6.7 5.1c-1.2-.4-2.1-.8-3.1-1.4-1.2.9-2 1.2-3.3 1.6l-.5-.7c1.2-.4 2.1-.7 3.1-1.4-.7-.7-.9-1.2-1.4-2.1l.7-.3c.7 1.3 1 1.7 1.4 2 .7-.7 1-1.2 1.4-2.1h-4.3v-.7h5.2l.3.3c-.5 1.3-1 2.1-2 3 .8.5 1.4.8 3.1 1.2l-.6.6zm-6.8 4.1v-.7h3.3v-1.8h-2.3v-.8h2.3v-1.7l.8.1c.1 0 .3 0 .3.1s-.1.1-.3.3v1.2h2.3v.8h-2.3v1.8h3.3v.7h-7.4zM486.3 194c.4-.9.5-1.4.7-2l.8.3c.1 0 .1 0 .1.1s-.1.1-.3.1c-.1.5-.3.9-.5 1.6.3-.1.4-.1.8-.4v.8c-1.6.7-3.1 1.2-3.6 1.3 0 .1-.1.3-.3.3-.1 0-.1-.1-.1-.1l-.3-.8c.7-.1 1-.3 1.8-.4v-3.3h-1.8v-.8h1.8v-.9h-1.2v-.5l-.5.5-.7-.7c1.3-1.2 2-2 2.6-3.5l.8.4.1.1c0 .1-.1.1-.3.3.5.7.9 1.2 1.6 1.7l-.5.7c-.3-.3-.7-.7-1.4-1.8-.4.8-.9 1.4-1.6 2.2h2.9v.7H486v1h1.3v.8H486v3c.5-.1.7-.3.9-.4l-.6-.3zm-2.2-1.8c.4.7.7 1.3.8 2.1l-.7.3c-.3-.7-.4-1.3-.8-2l.7-.4zm9-3.8v.8h-2c0 1.3 0 1.6-.1 1.8h2.3v.8h-2.2c.1.5.4 1.3.9 2.1.5.7 1 1.2 1.6 1.7l-.8.5c-.5-.4-1.8-1.6-2.3-3.4-.7 2.1-1.7 3-2.6 3.5l-.7-.7c1-.7 2.1-1.4 2.6-3.8h-2v-.7h2.3c.1-.7.1-1.2.1-1.8h-1.4c-.1.5-.3.8-.4 1.3l-.8-.3c.7-1.4.8-2.7.9-3.6l.9.3c.1 0 .1 0 .1.1s-.1.1-.3.1c0 0-.1.9-.3 1.3h1.3V186l.9.1c.1 0 .3 0 .3.1s-.3.3-.3.3v2.1h1.7v-.2zM497.8 187.8c.3.3.4.4.5.7l-.7.5c-.4-.5-.7-.9-1-1.2h-.4c-.3.4-.4.7-1 1.3l-.8-.5c.8-.8 1.3-1.4 2-2.9l.7.4c.1 0 .1.1.1.1 0 .1-.1.1-.3.1 0 .1-.3.4-.4.7h3v.8h-1.7zm-.3 8.3-.3-.9c.3 0 .5.1.7.1.4 0 .5-.3.5-.4v-1.2h-2.1c-.1.8-.3 1.6-.9 2.5l-.8-.4c.9-1.2 1.2-2.3 1.2-4.6 0-1.2-.1-1.7-.1-2.1h3.5v5.7c0 1.1-.3 1.3-1.7 1.3zm.8-4.3h-1.8v1.2h2v-1.2h-.2zm0-1.9h-2v1.2h1.8v-1.2h.2zm4.7-2.2c.3.3.4.4.5.7l-.7.5-.3-.3c0 .1 0 .1-.4.3v1.6h2.2c0 1.2-.1 3.6-.4 4.7-.3.8-.5 1-1.8 1l-.3-.9h.7c.7 0 .8-.4.8-1 .1-1.2.3-2.7.3-3.1h-1.4c-.1 2.9-1 4-2 4.9l-.8-.7c.7-.5 1.7-1.4 1.8-4.3h-1.7v-.8h1.7v-2.1l.9.1h.1c-.1-.3-.5-.7-.8-.9h-.9c-.4.5-.7.9-1 1.3l-.7-.5c1-1 1.4-2 1.8-2.9l.8.5.1.1c0 .1-.3.1-.3.1-.1.1-.3.4-.3.5h3.4v.8H503v.4zM507.1 195.3c-.4-1.3-.5-3-.5-4 0-1.6.3-3.3.7-4.7l.8.3c-.5 2-.8 3.1-.8 4.4 0 1 .1 1.6.1 2.1.1-.3.5-1 .7-1.3l.5.5c-.1.3-.3.5-.5 1.2-.3.8-.3 1-.4 1.3l-.6.2zm7.6-.9c-.9-.5-1.3-.7-1.7-.8 0 .7-.1 1.6-1.7 1.6-.8 0-2.1-.3-2.1-1.3 0-.7.5-1.3 1.8-1.3.4 0 .8 0 1.2.1-.1-2.2-.1-2.5-.1-3.3-.8.1-1.7.1-2.2.1l-.1-.9c.4.1.7.1 1.4.1h.9c0-.5.1-1.6.1-2.3l.9.3c-.1.8-.3 1.7-.3 2 .9-.1 1.3-.4 1.7-.5v.9c-.4.1-.8.1-1.7.3 0 .8 0 2 .1 3.5.5.1 1.2.4 2 .8l-.2.7zm-3.8-1.1c-.9 0-.9.4-.9.7 0 .5.7.8 1.4.8.9 0 .9-.5.9-1.2-.6-.3-1.1-.3-1.4-.3zM518.5 193.8v-.9h-1.2v1.6h-.8v-7.8h2.7v7.2h-.7zm0-6.4h-1.2v4.7h1.2v-4.7zm4.9 4.3v3.3c0 .9-.3 1-1 1h-.9l-.3-.9c.1 0 .7.1.9.1.4 0 .4-.1.4-.5v-3h-3v-.8h3V187c-.9.1-1.4.1-2.5.1l-.4-.8h1.2c1.6 0 2.9-.3 4.2-.7l.7.5.1.1-.1.1h-.4c-.4.1-.7.3-1.8.5v3.9h2.9v.8h-3zm-2.3-1.2c-.4-.9-.8-1.6-1.3-2.2l.7-.5c.5.7.9 1.3 1.3 2.2l-.7.5zm4.8-1.9c-.4.8-.8 1.3-1.2 2l-.7-.6c.7-.8 1-1.4 1.3-2.2l.7.4c.1 0 .3.1.3.3-.2.1-.3.1-.4.1zM527.7 187.8c.8 0 2-.1 3.3-.9l.7.7c-.9 1.2-2.2 2.9-2.2 4.8 0 1 .7 2.2 2.1 2.2 1.7 0 2.6-1.7 2.6-3.9 0-.8-.1-2.3-.5-3.6l.9-.3c1.2 2.5 1.8 3.1 2.7 4l-.8.7c-.8-.9-1.3-1.6-2-3.1.1.9.3 1.8.3 3 0 3.3-2 4-3.3 4-2.9 0-2.9-2.5-2.9-2.9 0-1.6.7-3 1.6-4.3-.7.3-1.6.5-2.1.7l-.4-1.1zm8-1.6c.5.5.8 1 .9 1.4l-.5.4c-.3-.5-.7-1-1-1.4l.6-.4zm1.1-.6c.5.5.8.9 1 1.4l-.5.3c-.4-.7-.7-1-.9-1.4l.4-.3zM541.7 188.6c-.4.8-.7 1-.8 1.2l.1.1c0 .1-.1.1-.3.3v5.9h-.7v-5.2c-.4.5-.8.9-1.3 1.3l-.7-.5c1.8-1.3 2.7-3.1 3.3-3.9l.7.4.1.1c0 .3-.2.3-.4.3zm-.1-2.1c-.7.8-1.6 1.8-2.6 2.5l-.5-.7c1.3-.8 2.2-1.8 2.6-2.6l.7.5.1.1c0 .2-.2.2-.3.2zm6.6 5.1c-1.2-.4-2.1-.8-3.1-1.4-1.2.9-2 1.2-3.3 1.6l-.5-.7c1.2-.4 2.1-.7 3.1-1.4-.7-.7-.9-1.2-1.4-2.1l.7-.3c.7 1.3 1 1.7 1.4 2 .7-.7 1-1.2 1.4-2.1h-4.3v-.7h5.2l.3.3c-.5 1.3-1 2.1-2 3 .8.5 1.4.8 3.1 1.2l-.6.6zm-6.7 4.1v-.7h3.3v-1.8h-2.3v-.8h2.3v-1.7l.8.1c.1 0 .3 0 .3.1s-.1.1-.3.3v1.2h2.3v.8h-2.3v1.8h3.3v.7h-7.4zM555.4 194.6c.4-.1 1.2-.4 1.7-.9.8-.7 1.3-1.7 1.3-2.9 0-1.8-1.3-2.7-1.8-3-.4-.3-1-.3-1.6-.3-.1 1.7-.5 3.4-1.3 5.1-.5 1-1 2-1.8 2-.9 0-2-1.4-2-3.1 0-2.2 1.7-4.7 4.8-4.7 2.3 0 4.4 1.6 4.4 4 0 3.1-2.7 4.2-3.5 4.6l-.2-.8zm-3.8-5.4c-.4.5-.8 1.3-.8 2.2 0 1.2.7 2.2 1.2 2.2.3 0 .5 0 1.3-1.8.8-2 .9-3.5 1-4.2-.9.2-1.8.5-2.7 1.6zM563.3 195.3v-6.1h-1.8v-.8c.8 0 1.7-.1 2.1-1.6h.8v8.3h-1v.2zM568.3 195.3v-1.2h1.2v1.2h-1.2zM573.9 195.6c-1.8 0-2.7-.9-3-2.3h1c.1 1 1 1.6 2 1.6 1.2 0 2.2-.7 2.2-2.1 0-.4-.1-2-2.1-2-.5 0-1.3.1-1.8.8h-1l.8-4.4h4.8v.9h-3.9l-.4 2.6c.3-.3.8-.5 1.8-.5 1.7 0 3 .9 3 2.9-.2 1.5-1.8 2.5-3.4 2.5zM581.4 186.4c-.1.3-.5 1-.9 1.7.1 0 .3.1.3.3 0 0-.3.3-.4.3v7.5h-.8v-6.8c-.4.5-.7.9-1 1.3l-.7-.7c1.3-1.3 2.3-2.6 3-4.6l.8.4c.1 0 .1.1.1.3-.1.3-.3.3-.4.3zm-.4 4.5v-.8h2.2c-.4-.8-.5-1-.9-1.4l.7-.4c.7.8.8 1.3.9 1.6l-.5.3h2.3l-.5-.3c.4-.5.7-.9.9-1.7l.7.3c.1 0 .3.1.3.3 0 .1-.1.1-.3.1-.3.5-.5.8-.8 1.3h2.3v.8l-7.3-.1zm.4-2.7v-.8h2.9v-1.7h.9s.3 0 .3.1-.1.1-.3.3v1.2h2.7v.8h-6.5v.1zm5.2 7.8v-.7h-3.8v.7h-.8v-4h5.3v4h-.7zm0-3.3h-3.8v1.8h3.6v-1.8h.2zM590.5 194.9c-.1.1-.1.4-.3.4 0 0-.1 0-.1-.1l-.4-.9c.4-.1.7-.3 1.3-.5v-7.4h.9s.3 0 .3.1-.1.3-.3.3v6.5c1.6-.8 2.5-1.3 3.3-1.7v.9c-1.7.9-3.3 1.7-4.7 2.4zm8.7.8c-.4-.5-.9-1-1.8-1.7-.5.5-1.4 1.3-3.9 1.8l-.5-.8c1.3-.1 4-.5 4.8-3.3.5-1.8.5-4.2.5-5.5l.9.1c.1 0 .3 0 .3.1s-.1.3-.3.3c-.1 2.6-.1 2.6-.3 3.3-.3 2-.8 2.9-1 3.3.8.5 1.3 1 2 1.7l-.7.7zm-3.9-5.7c-.7-1-1-1.7-2-2.5l.7-.5c1 .9 1.6 1.7 2 2.3l-.7.7zM601.2 195.6v-.8h4.3V186h.8c.1 0 .3 0 .3.1s-.1.1-.3.3v3.4h3.9v.8h-3.9v4.2h5.1v.8h-10.1zM618.1 194.6c.4-.1 1.2-.4 1.7-.9.8-.7 1.3-1.7 1.3-2.9 0-1.8-1.3-2.7-1.8-3-.4-.3-1-.3-1.6-.3-.1 1.7-.5 3.4-1.3 5.1-.5 1-1 2-1.8 2-.9 0-2-1.4-2-3.1 0-2.2 1.7-4.7 4.8-4.7 2.3 0 4.4 1.6 4.4 4 0 3.1-2.7 4.2-3.5 4.6l-.2-.8zm-3.8-5.4c-.4.5-.8 1.3-.8 2.2 0 1.2.7 2.2 1.2 2.2.3 0 .5 0 1.3-1.8.8-2 .9-3.5 1-4.2-.9.2-1.8.5-2.7 1.6zM623.5 189.6c1.4-.1 2.1-.3 2.6-.5.3-1 .3-1.7.4-2.5l1 .4c-.1.4-.3.9-.4 1.7.5-.1.8-.1 1-.1.3 0 .7 0 1 .4.5.4.7 1.2.7 1.7 0 1.4-.4 2.7-.9 3.5-.3.5-.8.9-1.7.9h-.5l-.4-.9c.5.1.8.1 1 .1.4 0 .8-.3 1-.8.4-.8.7-1.8.7-2.7 0-.4 0-1.3-1-1.3-.3 0-.5 0-1 .3-.5 1.6-1 3.3-2.5 5.6l-.9-.4c.7-.8 1.6-1.8 2.5-4.8-.9.3-1.3.4-2 .5l-.6-1.1zm7.2-1.7c1 1.3 1.6 2.1 1.6 2.9 0 .8-.5.9-1.3 1l-.5-1h.5c.4 0 .4-.1.4-.3 0-.4-.1-.7-.4-1-.4-.7-.7-.9-1-1.3l.7-.3zM636.4 192.3c-.8.8-1.6 1.4-2.6 2l-.4-.9c1.2-.5 2-1.2 2.7-1.8l.3.7zm1.7-2.8c-.1.3-.3.4-.3.7 0 .4.1.5.9 1.3.4.4 1.2 1.2 1.2 2.3 0 1.3-1.3 1.4-1.8 1.4s-.8 0-1.7-.3l-.3-1c.9.3 1.4.4 1.8.4.4 0 1-.1 1-.9 0-.7-.4-1.2-.8-1.6-.9-1-1.2-1.4-1.2-2s.1-.8.4-1l.8.7zm-1.2-2.8c.5.1 1.7.4 2.6.9l-.4.8c-.8-.5-1.3-.7-2.6-.9l.4-.8zm3.8 3.6c.5.5 1 1 2.2 2.9l-.8.7c-.5-1.2-1.3-2.2-2-3l.6-.6zm.1-2.6c.5.4 1 1.2 1.2 1.3l-.5.4c-.4-.5-.9-1.2-1-1.3l.3-.4zm.9-1.1c.5.4 1 1 1.2 1.3l-.5.4c-.4-.5-.9-1-1-1.3l.3-.4zM645.8 187c-.4 1.2-.5 2.3-.5 3.5 0 .3 0 .3.1.5.3-.5.5-1.2.8-1.7l.5.5c-.3.7-.4.9-1.3 3.4h-.5c-.4-.9-.5-1.8-.5-2.9 0-1.3.1-2.5.5-3.8l.9.5zm4.8-.3v.8c.1 1.6.1 1.8.1 2.3 0 1.8-.4 3.3-1 4.3-.4.7-.7 1-1.3 1.6l-.8-.5c.5-.4 1-.9 1.7-2 .5-1.2.7-2.2.7-3.1 0-1.6-.1-2.6-.4-3.3l1-.1zM654 186.9v2.2c0 2.5 0 4.6-1.2 6.5l-.8-.4c.9-1.6 1.2-3.1 1.2-5.6 0-1.2-.1-3-.1-3.4h9.2v.7H654zm4.5 7.3v1.2c0 .8-.4.8-1.8.8l-.3-.9c.3 0 .7.1.9.1s.3-.1.3-.3v-.9H654v-.8h3.6v-.8h.8c.4-.3.5-.3.9-.5h-4.6v-.7h6.4l.1.3c-.8.5-1.4.9-2.6 1.6h3.8v.8h-3.9v.1zm-3.4-3.3v-3.3h6v3.3h-6zm5.2-2.7h-4.4v.7h4.4v-.7zm0 1.3h-4.4v.7h4.4v-.7zM667.4 186.2c.1.4.1.9.5 2 1-.4 1.6-.8 2-1l.4.9c-.9.4-1.3.5-2 .8.7 1.2.9 1.7 1.7 2.6.4.5.4.5.5.7l-.7.8c-.9-.5-2-1.2-3.1-1.2-1.3 0-1.8.9-1.8 1.4 0 1.6 1.7 1.6 2.5 1.6.7 0 .9-.1 1.7-.3v.9c-.7.1-1.4.1-1.7.1-.5 0-1.2-.1-1.8-.3-.8-.3-1.4-.9-1.4-2.1 0-1.3 1-2.2 2.6-2.2.7 0 1.3.1 1.7.4.4.1.5.1.7.3-.3-.4-.8-1-1.6-2.5-1.8.5-2.6.5-3.3.7l-.4-.9c1.6.1 2.7-.1 3.5-.4-.5-1.2-.7-1.7-.8-2.1l.8-.2zM380.2 199.5c0 .3.1 1.6.1 1.8 0 .5.1 1 .5 1.4.1.1.3.3.4.3.5-.3 2.7-1.2 3.1-1.4l.1.9c-1 .4-2.5.8-4.2 1.7-.5.3-1.7.9-1.7 2.1 0 1.6 1.3 1.6 2 1.6.1 0 1.4 0 2.6-.1.5-.1.8-.1 1.4-.3v1c-1.3.1-2.3.3-3.8.3s-2-.3-2.3-.7c-.5-.5-.7-1.2-.7-1.7 0-1.2.9-2 1.2-2.2.5-.4 1-.7 1.3-.8-.8-.8-.9-1.7-1-3 0-.4 0-.4-.1-.7v-.3h1.1zM391.4 199.5c0 .5-.1.9-.1 1.7 1.2-.1 2.5-.1 3.4-.3l.1.9c-1.6 0-2.7.1-3.5.1v2c.3.4.3 1.2.3 1.6 0 1-.5 2.1-.9 2.9-.3.5-.5.7-.9 1l-.9-.4c.4-.3 1.2-.9 1.6-2.2-.4.3-.8.3-.8.3-.8 0-1.4-.7-1.4-2 0-1.4.9-2.1 1.7-2.1.3 0 .4 0 .5.1v-1c-1.2.1-3.1.3-4.6.4v-.8c1.3-.1 3.3-.3 4.6-.3v-2h.9zm-2.3 5.6c0 .8.5 1.2.8 1.2.5 0 .8-.5.8-1.3 0-.4-.1-1.2-.8-1.2-.5 0-.8.4-.8 1.3zM397.1 200.4c2.5 0 3.9-.4 4.8-.7l.4.7c-.1.1-.5.5-.7.5l-2.3 2.3c.4-.1.8-.4 1.4-.4.8 0 2.9.4 2.9 2.6s-2.2 3.1-3.6 3.1c-1 0-2.2-.4-2.2-1.4 0-.7.7-1.3 1.7-1.3 1.4 0 2.1 1.2 2.3 1.6.3-.3 1.2-.8 1.2-1.8 0-.8-.5-1.8-2.1-1.8-2 0-3.9 2-4 2.2l-.8-.7c2-1.6 3.6-3.1 4.8-4.6-.7.1-1.8.4-3.3.4l-.5-.7zm2.2 6.1c-.5 0-.8.3-.8.5 0 .5.8.8 1.4.8.3 0 .7 0 .9-.1-.2-.3-.6-1.2-1.5-1.2zM412.7 208.2c-1.2.1-2.3.3-3.4.3-.8 0-1.7-.1-2.5-.3-.5-.1-1.6-.5-1.6-1.7 0-.8.4-1.2 1.2-2l.7.5c-.5.5-.9.8-.9 1.3 0 1.2 2.2 1.2 2.9 1.2 1.4 0 2.6-.3 3.8-.5l-.2 1.2zm-6.5-7.9c.3 0 1.2.3 1.4.3.5.1.9.1 1.4.1.5 0 1.6 0 2.5-.1l.4.9c-1.2.8-1.8 1.2-2.6 1.8l-.5-.5c.3-.3 1.6-1 1.8-1.2-.4.1-.9.1-1.3.1-.8 0-2.2-.1-3-.3l-.1-1.1zM416.9 199.5c0 .3.1 1.6.1 1.8 0 .5.1 1 .5 1.4.1.1.3.3.4.3.5-.3 2.7-1.2 3.1-1.4l.1.9c-1 .4-2.5.8-4.2 1.7-.5.3-1.7.9-1.7 2.1 0 1.6 1.3 1.6 2 1.6.1 0 1.4 0 2.6-.1.5-.1.8-.1 1.4-.3v1c-1.3.1-2.3.3-3.8.3-1.4 0-2-.3-2.3-.7-.5-.5-.7-1.2-.7-1.7 0-1.2.9-2 1.2-2.2.5-.4 1-.7 1.3-.8-.8-.8-.9-1.7-1-3 0-.4 0-.4-.1-.7v-.3h1.1zM425.9 207.7c0 .9-.8 1.7-1.8 1.7-.9 0-1.8-.8-1.8-1.7 0-1 .8-1.8 1.8-1.8s1.8.7 1.8 1.8zm-3 0c0 .7.5 1.3 1.3 1.3.7 0 1.3-.7 1.3-1.3 0-.8-.7-1.3-1.3-1.3-.7 0-1.3.5-1.3 1.3z"/><path class="st13" d="M349 20.4h322v129.7H349z"/></svg>