<svg version="1.1" id="レイヤー_1" xmlns="http://www.w3.org/2000/svg" x="0" y="0" width="249" height="191" style="enable-background:new 0 0 249 191" xml:space="preserve"><style>.st1,.st4{fill:#e9e5e2;stroke:#231815;stroke-width:.9654}.st4{fill:none;stroke-width:.3064}.st6{fill:#231815}</style><path style="fill:#f8f7f0" d="M-4.9-3.6h255.4v198.9H-4.9z"/><path class="st1" d="M44.5 41.8h75.9v18H44.5zM54.1 112.4h56.5v18H54.1z"/><linearGradient id="SVGID_1_" gradientUnits="userSpaceOnUse" x1="1073.688" y1="-600.921" x2="1489.332" y2="-1016.565" gradientTransform="translate(-293.561 416.293) scale(.3413)"><stop offset="0" style="stop-color:#c0ab03"/><stop offset="1" style="stop-color:#948016"/></linearGradient><path style="fill:url(#SVGID_1_)" d="M149.6 75.9v77.4H29.2v12.6h190.6v-90z"/><path style="fill:#ef8200" d="M138.8 50.9v25H29.2v4.4h109.6v12.5h3.5V50.9z"/><path class="st4" d="M29.2 80.3h109.6v12.5h3.5V50.9h-3.5v25H29.2"/><linearGradient id="SVGID_00000018945552573643627980000013313191935611517325_" gradientUnits="userSpaceOnUse" x1="969.201" y1="-742.293" x2="1300.264" y2="-1073.355" gradientTransform="translate(-293.561 416.293) scale(.3413)"><stop offset="0" style="stop-color:#d2d2d3"/><stop offset="1" style="stop-color:#bebfbf"/></linearGradient><path style="fill:url(#SVGID_00000018945552573643627980000013313191935611517325_)" d="M142.3 50.9v17.4H29.2v7.6h113.1v67H29.2v10.4h120.4V50.9z"/><path class="st4" d="M29.2 153.3h120.4V50.9h-7.3v17.4H29.2"/><path class="st4" d="M29.2 75.9h113.1v67H29.2M68.5 142.9l-8.9 10.3M65 142.9l-8.8 10.3M61.6 142.9l-8.9 10.3M131.1 142.9l-8.8 10.3M127.6 142.9l-8.8 10.3M124.2 142.9l-8.9 10.3M107.8 68.3l-6.6 7.6M104.3 68.3l-6.6 7.6M100.8 68.3l-6.6 7.6M149.6 112.7l-7.3 8.6M149.5 108.7l-7.2 8.5M149.5 104.5l-7.2 8.6"/><path class="st6" d="M78.6 100.3h-.5v3.3c0 .6 0 2.1.1 2.9H77c0-.8.1-2.2.1-3v-3.2h-1.4c0 1.9-.1 4.4-1.6 6.4l-1.1-.6c.2-.1.2-.2.3-.3h-3.6c0 .1.1.5.1.7h-1.2c.1-1 .1-2.5.1-2.9v-7.7l1.3.1c.1 0 .2.1.2.2s-.2.2-.4.3c0 1.2-.1 1.6-.1 2.4v4c1.3-1.1 1.8-2.6 2-3-.7 0-1.2 0-1.7.1v-1.1c.6.1 1.5.1 1.6.1h.3v-.6c0-1.5 0-1.9-.1-2.9l1.4.2c.1 0 .1.1.1.2s-.1.2-.4.3V99h.1c.5 0 1 0 1.5-.1v1.1c-.5-.1-1.2-.1-1.5-.1h-.2v.1c.3.4 1 1.3 2 2.1.1-.6.1-1.1.1-1.7v-3.5h-.2c-.1.2-.4 1-.5 1.1-.2.4-.3.5-.4.6l-.9-.4c.6-.9.8-1.7.9-2.1l1 .4c0-.2 0-.3-.1-.5.2 0 .4.1.7.1 1 0 2.1-.5 2.5-.7l.9.7c.1.1.1.1.1.2 0 .2-.1.2-.2.2 0 0-.1 0-.3-.1-.7.4-1.9.6-2.6.7v2.3h1.8c.4 0 1.2-.1 1.6-.1v1.1s-.5-.1-.6-.1zm-4.5 2.8c-.4-.4-.8-.9-1.3-1.7v.7c0 1.2 0 1.7.1 2.5h-1.2c0-.2.1-1.2.1-1.4v-1.4c-.5.9-.9 1.3-1.5 1.9l-.7-.4v1.7H72c.6 0 2-.1 2.1-.1.2-.3.6-1.3.7-2.6l-.7.8zm-3.4-4.4c-.1-.5-.3-1.2-.9-2l.9-.5c.8 1.1 1 1.8 1 1.9l-1 .6zM85.2 100.2h-.4c-.6 0-.7-.2-.9-.4-.1.1-.1.1-.2.1v.6c.7 0 1.2 0 1.6-.1v1c-.3 0-.9-.1-1.6-.1v.9c.6-.1 1.2-.1 1.8-.3l-.3.8c-1.2.3-3.4.6-3.9.7-.1.1-.1.3-.2.3s-.1-.1-.2-.2l-.3-1c1.2-.1 1.3-.1 2.2-.2v-1.1h-.2c-.2 0-.9 0-1.4.1v-.7c-.2.1-.3.1-.5.2l-.7-.8c.8-.3 1.5-.8 1.8-1.4-.1 0-.7 0-1.5.1v-1c.6.1 1.2.1 1.8.1h.5v-.7h-.3c-.1 0-.7 0-1.5.1v-.9c.5.1 1 .1 1.5.1h.3v-.8l1.1.1c.1 0 .2 0 .2.1s0 .1-.2.3v.4h.3c.5 0 1.1 0 1.5-.1v.9c-.6 0-1.2-.1-1.5-.1h-.3v.7h.3c.6 0 1.3 0 1.8-.1v1h-.1l.5.5c-.1.9-.6.9-1 .9zm-2.4 4.5c-.1.3-.5 1.1-1.4 1.9l-1.1-.6c.6-.6 1.1-1.2 1.5-2.1l1.2.4s.2.1.2.2-.3.2-.4.2zm1.1-5.4v-.6h-1.6l.5.1c.1 0 .2.1.2.2s-.3.2-.4.2c-.2.3-.5.8-1.1 1.3h1.2v-1.1l1.2.1v-.2zm.1 7.2v-.5c0-.2 0-.9-.2-1.7l1.2-.1c.2.5.3 1 .3 2.2l-1.3.1zm6.3-2.7c-.8 0-1.5-1.1-1.5-3.2 0-.9.1-1.6.2-1.9h-.7c-.1.9-.2 1.7-.4 2.2.7.8.8 1.1.9 1.4l-.7.8c-.3-.6-.6-.9-.6-1-.6 1.3-1.3 1.8-1.6 2l-1.1-.7c1-.6 1.6-1.4 1.9-2.3l-.8-.8.7-.7c.3.3.4.3.5.4.1-.3.1-.6.2-1.3-.2 0-.6 0-1.1.1v-1.1h1.1v-2l1.2.1c.1 0 .2 0 .2.1s-.1.2-.3.3v1.5h.6c.6 0 .9 0 1.3-.1-.3 1-.4 2.4-.4 3 0 .2 0 1.7.3 1.7.2 0 .5-1.1.5-1.2l.7.7c0 .4-.4 2-1.1 2zm-5.5-5c0 .5 0 .7.3.7.4 0 .4-.3.5-.7h-.8zm2.3 7.7c-.1-.9-.3-1.5-.6-2.3l1.2-.2c.3.5.6 1.5.7 2.2l-1.3.3zm3 .1c-.2-.9-.7-1.8-1.3-2.5l1.2-.3c.7.7 1.1 1.6 1.3 2.4l-1.2.4zM95.7 99c.4 1.4 1.4 2.4 1.6 2.6l-.7.9c-.4-.4-.7-.8-1-1.3v1.6c0 .8 0 3.2.1 3.9h-1.3c0-.4.1-.9.1-1.8 0-.3.1-1.8.1-2v-1.2c-.4 1.1-1.1 2-1.4 2.3l-1.1-.6c.4-.3 1-.9 1.6-2 .3-.6.6-1.5.7-2.3-.1 0-.9 0-1.6.1V98c.7.1 1.6.1 1.6.1h.2v-2.5l1.3.1s.2 0 .2.2c0 .1-.1.1-.3.2 0 .3-.1 1.7-.1 2h.3c.3 0 1.1 0 1.6-.1v1.2c-.8-.2-1.6-.2-1.9-.2zm6.2-.1v6c0 .9 0 1.3-.6 1.4-.2 0-.7.1-1.3.1l-.8-1.2c.4.1.9.1 1.1.1.3 0 .5-.1.5-.5v-4.1c-.8 1.9-2.4 3.4-3.1 3.8l-1.3-.7c1-.5 1.8-1.1 2.6-2.1.8-1.1 1.1-2.1 1.3-2.9h-.4c-.4 0-1.3 0-1.8.1v-1.2c.6.1 1.5.1 1.8.1h.9c0-.8 0-1.6-.1-2.4l1.2.1c.1 0 .2 0 .2.1s0 .1-.2.2v1.9c.4 0 1 0 1.6-.1V99c-.6-.1-1.2-.1-1.6-.1z"/><path style="fill:#c6dcdb" d="M143.7 25.1h3.4v25.8h-3.4z"/><path class="st4" d="M143.7 25.1v25.8h3.4V25.1"/><path style="fill:none;stroke:#231815;stroke-width:.7662" d="M84.4 77.5v15.7"/><path class="st6" d="M63.7 55.4v-6.2h-1.9v-.8c1.9-.1 2.1-1 2.3-1.6h.8v8.7h-1.2zM71.7 46.8c-.3.7-.8 1.8-1.2 2.5.7.8 1.2 1.8 1.2 2.8 0 .6-.2 1.3-.9 1.6-.3.1-.7.1-.9.1l-.6-1.2c0 1 .1 3.3.1 3.6h-1.3c.1-1.3.1-2.8.1-4.1v-6.3h3.4l.3.5c0 .2 0 .3-.2.5zm-2.2 2.7 1.2-2.7h-1.3V52.6c.2 0 .4.1.6.1.2 0 .8 0 .8-.7-.1-.4-.3-1.2-1.3-2.5zm7.5 6.7c0-.4.1-.4.1-.6h-3.9c0 .2 0 .2.1.7h-1.2c0-.7.1-1.3.1-1.5v-3.6H74.1c.2-.6.2-.8.3-1.2-1.2.3-1.8.4-2.4.5 0 .1-.1.4-.3.4-.1 0-.1-.1-.2-.1l-.2-1.2c.5-.1.6-.1.9-.1V45.7l1.2.1c.1 0 .3 0 .3.2 0 .1-.1.2-.4.3v.9h1.8v.9h-1.8v1.4c.6-.1 1.2-.2 1.8-.4l-.1 1c-.4-.1-.4-.1-.6-.1l1.1.2c.2 0 .3.1.3.2s-.1.2-.5.3c0 .1-.1.2-.3.5h3.1c0 .2-.1 1.2-.1 1.4v2.1c0 .4 0 1.2.1 1.5H77zm.1-4.1h-3.9v.9h3.9v-.9zm0 1.7h-3.9v.9h3.9v-.9zm1.6-6.6h-.3c-.8.5-1.5.8-2.1 1v.4c0 .7 0 .8.5.8h.5c.2 0 .3 0 .4-.3.1-.3.2-.7.3-.9l.8.7c-.3 1.3-.5 1.4-1.3 1.4h-1.4c-.9 0-.9-.5-.9-1.2V47c0-.7 0-1.3-.1-1.5l1.3.1c.1 0 .2 0 .2.2 0 .1-.2.2-.4.4v1c.9-.4 1.3-.8 1.5-1.1l.9.7s.1.1.1.2c.1.1.1.2 0 .2zM83.9 50.6h-1.8c-.4 0-2 .1-2.3.1v-1.1c.7 0 1.6.1 1.8.1 0-.1-.3-.7-.8-1.5l.9-.4c.3.4.5.8.9 1.6l-.8.4H84.2l-.8-.4c.2-.4.5-.8.8-1.6l.8.2c.1.1.2.1.2.2s-.2.1-.3.1c-.2.4-.4.9-.6 1.3.4 0 1.5 0 1.8-.1v1.1c-.2.1-2.1 0-2.2 0zm0-3.1H82c-.6 0-1.3 0-1.9.1v-1.1c.8.1 1.8.1 1.9.1h.5v-1.3l1.1.1c.1 0 .4 0 .4.2 0 .1-.2.2-.3.3v.7h.3c.6 0 1.3 0 1.9-.1v1.1c-.7-.1-1.4-.1-2-.1zm.4 8.7c0-.3.1-.4.1-.8h-2.9v.8h-1.2c0-.1.1-1.6.1-1.8v-1.5s0-1.2-.1-1.4c.3 0 1.6.1 1.8.1h3.4v3.2c0 .2.1 1.2.1 1.3h-1.3zm.1-3.6h-2.9v1.8h2.9v-1.8zm5.2 2.2c-.3.2-.8.2-1.4.2l-.5-1.3c.7 0 .9.1 1 .1.5 0 .7-.5.7-1.1 0-.9-.6-1.6-.7-1.8-.1-.1-.8-.9-1-1.1l1.4-3h-1.5v5.7c0 .3.1 1.5.1 1.7 0 1.3 0 1.5.1 2.1h-1.3c0-.5.1-2.7.1-3.2V49.2c0-.4 0-2.3-.1-3.4.1 0 1 .1 1.2.1H89c.4 0 1 0 1.3-.1l.4.5c-1.3 2.6-1.5 2.9-1.7 3.3.9.9 1.7 1.7 1.7 3.3-.1 1.4-.9 1.8-1.1 1.9zM102 51.4c-1.1-.6-1.3-.8-1.9-1.4 0 .9-.1 3.9-.5 5-.2.6-.6 1-2 1h-.5l-.6-1.4c.3.1.6.2 1 .2.3 0 .8 0 1-.5.3-.7.4-2.4.5-3.7h-2.3c-.1.7-.2 2.4-1.4 4-.7.9-1.5 1.3-1.9 1.4l-.9-1c.7-.2 1.6-.5 2.2-1.6.6-1 .8-2.1.9-2.9-.3 0-1.6.1-2 .1V50c-.5.6-1 .9-1.3 1.1l-1-.8c.9-.6 2.7-1.7 3.7-4.6l1.1.7.1.1c0 .2 0 .2-.5.2-.2.4-.6 1.5-1.8 2.9.3 0 1.4.1 1.6.1h2.8c.1 0 1.2-.1 1.4-.1-1-1.1-1.2-2.1-1.3-2.9H96.7v-1.1c.1 0 .9.1.9.1h.7c.4 0 .7 0 1-.1.2 2.7 1.1 3.6 3.4 4.8l-.7 1zM60.2 124.8c-.3.1-1.5.6-1.7.7v.3h-.1c-.1 0-.1-.1-.1-.1l-.4-1.3c.6-.2 1-.3 1.6-.5v-3.8c-.4 0-1 0-1.4.1V119c.4.1 1 .1 1.4.1v-2.7l1.3.2c.1 0 .1 0 .1.1s-.1.1-.1.1l-.2.1v2.1c.1 0 .8 0 1.3-.1v1.2c-.5-.1-1.2-.1-1.3-.1v3.3c.6-.3.9-.4 1.3-.6v1.2c-.3.3-1.2.7-1.7.9zm6.4 1.6h-2.1c-1.8 0-2-.5-2-1.5v-3.3c-.2.1-1.1.5-1.3.6l-.4-1.1c.8-.3.8-.3 1.7-.7V117l1.4.1c.1 0 .2.1.2.2s-.2.2-.3.3v2.3l1.1-.5v-.9c0-.2-.1-2.2-.1-2.4l1.3.2c.1 0 .2 0 .2.1s0 .1-.1.1l-.2.1V118.8c.2-.1 1.2-.6 1.5-.8l.8.5c0 2.7-.1 3.6-.2 4.1-.2 1.1-.8 1.1-1.5 1.1l-.5-1.1h.5c.3 0 .4-.1.5-.5.1-.4.2-1.3.1-2.9l-1.2.6v2.5c0 .1 0 .3.1 1.7h-1.3c0-.3 0-.4.1-.9v-2.8l-1.1.5v3.6c0 .3 0 .8.9.8h1.9c.4 0 .7 0 .9-.3.1-.2.3-.7.5-1.5l.9 1c-.5 1.7-.7 2-2.3 2zM77.2 117.7h-1.5v1.6c1.1.5 2.7 1.7 3.6 2.7l-.8 1.2c-.4-.7-1.6-1.8-2.8-2.5v1c0 1.2 0 3.7.1 4.9h-1.4c.1-1.5.2-3.4.2-5v-3.9h-1.1c-1.2 0-2.4 0-3.5.1v-1.2c1.2.1 3 .1 3.5.1h3.7c1.2 0 2.4 0 3.6-.1v1.2c-1.6-.1-3.5-.1-3.6-.1zM86 126c-.3 0-2.1 0-2.8-.5-.4-.2-.6-.7-.7-1.1v-4.3c0-.7 0-1.1-.1-3.5l1.4.2c.3.1.3.1.3.2s0 .1-.3.4c-.1 1.4-.1 2.6-.1 2.7v.3c1.5-.1 4.6-1.2 5.5-1.8l.7 1.2s.1.1.1.2-.1.2-.2.2-.1 0-.3-.1c-3.7 1.1-4.5 1.4-5.8 1.4v2.3c0 .6.3 1.1 2.4 1.1 2.4 0 3.4-.3 4-.6v1.3c-1.4.4-3.5.4-4.1.4zm4.2-7.4c-.7 0-1.3-.6-1.3-1.3 0-.7.6-1.3 1.3-1.3.7 0 1.3.6 1.3 1.3 0 .7-.6 1.3-1.3 1.3zm0-1.9c-.3 0-.6.2-.6.6 0 .3.3.6.6.6s.6-.2.6-.6c0-.3-.3-.6-.6-.6zM93.2 122.1c-.2-.5-.5-1.2-1.1-1.9l.9-.3c.4.6.7 1.1 1.1 1.9l-.9.3zm6.3-2c-.1 0-.2.1-.2.1 0 .1-.4 1.2-.5 1.4-1.2 3.1-3 4.1-4.3 4.7l-.8-.7c.8-.3 2.2-.9 3.3-2.5 1-1.5 1.2-3 1.4-3.9l.9.3c.2.1.4.2.4.3-.1.2-.2.3-.2.3zm-4 1.4c-.2-.5-.4-1.2-1-1.9l.9-.3c.5.7.8 1.3 1 1.9l-.9.3zM106 123.4c-.6-.6-1.7-1.7-3.5-2.5v2c0 .7 0 2.8.1 3.4h-1.4c.1-.6.1-1.5.1-1.8v-4.8c0-.5 0-1.7-.1-2.2 0-.3-.1-.5-.1-.8l1.6.1c.1 0 .2 0 .2.2 0 .1-.1.2-.4.4 0 .7-.1 1.5-.1 2.2v1.3l.6-1.1c1.7.8 3.2 2 3.8 2.6l-.8 1z"/></svg>