<svg version="1.1" id="レイヤー_1" xmlns="http://www.w3.org/2000/svg" xmlns:xlink="http://www.w3.org/1999/xlink" x="0" y="0" viewBox="0 0 670 390" style="enable-background:new 0 0 670 390" xml:space="preserve"><style>.st1,.st4{fill:#da4207;stroke:#da4207;stroke-width:.5936;stroke-miterlimit:3.8636}.st4{fill:#e5e5e6;stroke:#231815;stroke-width:1.0541}.st5{fill:#231815}.st31,.st33{stroke-miterlimit:3.8636}.st31{fill:#fffac6;stroke:#231815;stroke-width:.9623;stroke-linecap:round;stroke-linejoin:round}.st33{fill:#eeeeef;stroke-width:.9604}.st33,.st34,.st36,.st37,.st40,.st42{stroke:#231815;stroke-linecap:round;stroke-linejoin:round}.st34{fill:#dbdcdc;stroke-width:.9604;stroke-miterlimit:3.8636}.st36,.st37,.st40,.st42{fill:none;stroke-width:.3925}.st37,.st40,.st42{fill:#fffac6;stroke-width:.4934;stroke-miterlimit:3.8636}.st40,.st42{fill:none;stroke-width:.9604}.st42{stroke-width:.4798}</style><path style="fill:#faf7f3" d="M0 0h670v390H0z"/><path class="st1" d="M87 300.4h2v24.4h-2zM87 205.6h2.1V221H87zM87 252.5h2.1v15.4H87zM86.9 284.4H89V300h-2.1z"/><path class="st1" d="M85.4 297.1h15.4v2.1H85.4zM87.1 237.7h2.1v15.4h-2.1z"/><path class="st1" d="M85.6 250.1H101v2.1H85.6zM87.1 190.8h2.1v15.4h-2.1z"/><path class="st1" d="M85.6 203.2H101v2H85.6z"/><path style="fill:none;stroke:#231815;stroke-width:.4432;stroke-miterlimit:3.8636" d="M13.7 13.2h302.7v363.6H13.7z"/><path class="st1" d="M84.7 303.6h70v2.1h-70zM228 303.6h37.7v2.1H228z"/><path class="st1" d="M260.4 300.4h3.1v24.4h-3.1zM86.6 300.4H90v24.4h-3.4zM154.8 303.6H228v2.1h-73.2z"/><linearGradient id="SVGID_1_" gradientUnits="userSpaceOnUse" x1="893.744" y1="469.899" x2="1086.974" y2="276.669" gradientTransform="translate(-923.048 -231.199) scale(1.1091)"><stop offset="0" style="stop-color:#fbe1c3"/><stop offset=".174" style="stop-color:#fbd58b"/><stop offset=".279" style="stop-color:#f4a65d"/><stop offset=".309" style="stop-color:#f2984f"/><stop offset=".562" style="stop-color:#fbd58b"/><stop offset="1" style="stop-color:#f2984f"/></linearGradient><path style="fill:url(#SVGID_1_)" d="M84.5 64.6h181.6v236.6H84.5z"/><path class="st1" d="M85.8 255.8h14.7v3.2H85.8zM249.4 255.8h14.7v3.2h-14.7zM87.3 209h13.3v2.9H87.3zM249.4 209h13.3v2.9h-13.3zM260.7 284.4h3.9V300h-3.9z"/><path class="st1" d="M250.1 295.7h15.4v3.5h-15.4zM260.1 235.1h3.2v18h-3.2z"/><path class="st1" d="M249.4 249h15.4v3.1h-15.4zM260.1 205.6h3.2V221h-3.2zM86.6 205.6h3.2V221h-3.2zM260.1 252.5h3.2v15.4h-3.2z"/><path class="st1" d="M260.1 188.1h3.2v18h-3.2z"/><path class="st1" d="M249.4 202h15.4v3.2h-15.4zM85.9 284.4h3.9V300h-3.9z"/><path class="st1" d="M84.4 295.7h15.4v3.5H84.4zM86.7 237.7h3.2v15.4h-3.2z"/><path class="st1" d="M85.2 249h15.4v3.1H85.2zM86.7 252.5h3.2v15.4h-3.2zM86.7 190.8h3.2v15.4h-3.2z"/><path class="st1" d="M85.2 202h15.4v3.2H85.2z"/><path class="st4" d="M268 298.9v-14h-4.6v13.4H87.5V285H82v14H63.1v-16h-5.7v20.8H82v29.4h186v-34.3zm-117 22.4H87.5v-17.7H151v17.7zm73 0h-66.4v-17.7H224v17.7zm39.1 0h-31.7v-17.7h31.7v17.7zM262.7 256v11.3h5.7V235.6h-5.7v15.9H87.5v-12h4.2v-3.9h-9.9v15.9H63.1v-17.2h-5.8V256h24.5v11.3h5.7V256zM262.7 209.1v11.3h5.7V188.7h-5.7v15.8H87.5v-11.9h4.2v-3.9h-9.9v15.8H63.1v-17.1h-5.8v21.7h24.5v11.3h5.7v-11.3z"/><path class="st5" d="M38.4 23.9c1.9-.2 3.1-.6 4-1l.5.9c-1.3.6-2.6.8-3.4.9v2.1h3.7V28h-1v7h-1v-7h-1.6v1.2c0 .6 0 4-1.4 5.9l-.9-.7c0-.1.1-.1.1-.2h-4.7v.6h-1V23.5h1v9.7h4.7v.9c.6-1 .8-1.9 1-3.1.1-.8.1-1.3.1-1.9v-5.2zm-1.2 7.2c-.3-.3-.8-1-1.3-1.9v3.5H35v-3.4c-.5 1.1-1 1.8-1.8 2.6l-.6-.9c1.3-1.3 2-2.8 2.2-3.2h-2v-.9H35V23h.9v3.8h1.8v.9H36c.3.6 1 1.5 1.8 2.5l-.6.9zm-3.6-4.8c-.1-1-.4-1.9-.5-2.3l.9-.2c0 .1.4 1.5.5 2.3l-.9.2zm2.7-.2c.4-1 .6-2.1.6-2.3l.9.2c-.1.3-.3 1.5-.7 2.4l-.8-.3zM44.5 35.1l-.9-.7c.6-.6 1.2-1.3 1.6-2.4l.9.3c-.2.7-.7 1.9-1.6 2.8zm4.6-6.9H48c-.3 0-.6-.1-.7-.3v.9h2.1v.8h-2.1v1.2c1.2-.1 1.5-.1 2.1-.2v.7c1.2-1.2 1.6-2.4 1.7-2.8-.5-.6-.8-.8-1-1l.5-.7c.2.2.4.3.8.6 0-.2.1-.7.1-1.7h-1.4v-1h1.4v-1.5h1v1.5h1.9c0 .5-.2 3.3-.2 3.4v.6c0 .5 0 2 .4 2 .3 0 .4-1.4.5-1.7l.8.4c-.1.8-.3 1.4-.5 1.9-.2.3-.4.7-.9.7-.9 0-1.2-1.2-1.2-3.1 0-.3.1-2.7.1-3.2h-.9c-.1 1-.2 2.1-.3 2.5.4.4.6.8.9 1.1l-.6.8c-.2-.3-.4-.5-.6-.8-.5 1.5-1.4 2.5-1.8 3l-.8-.8.1-.1c-.8.2-3.6.5-5.5.5l-.1-.9c.8 0 1.8-.1 2.6-.1v-1.2h-2.1v-.8h2.1V28h1c0-.1-.1-.2-.1-.3v-1.2h-1c-.4 1.5-1.3 2-2.2 2.4l-.4-.8c1.1-.4 1.5-.8 1.7-1.6h-1.6v-.8h2.6v-.9h-2.1V24h2.1v-1h1v.8h2.1v.8h-2.1v.9h2.5v.8h-1.7v.8c0 .2.1.3.2.3h.5c.2 0 .2-.1.3-.6l.8.2c-.2 1-.4 1.2-.9 1.2zm-1.5 6.7c0-.3.1-.8.1-1.3 0-.3 0-1-.1-1.3h.9c.1.7.2 1.7.1 2.6h-1zm3.5 0c-.1-.8-.2-1-.7-2.7l1-.1c.3.7.7 1.9.8 2.7l-1.1.1zm3.7.1c-.4-.8-1.2-1.9-1.9-2.8l.8-.5c1.1 1.1 1.9 2.3 2.1 2.6l-1 .7zM62.2 23.8v.9h-2.1c.2.3.3.6.4.9l-1 .3-.4-1.2h-.6c-.7 1-1.2 1.3-1.5 1.6l-.7-.8c.9-.6 1.6-1.5 2.1-2.5l1 .2c-.1.3-.1.4-.3.7h3.1zm-3.1 2.8V26h.9v.6h2.6v.9H60v.7h2.2V32H60v.7h2.6v.9H60V35h-.9v-1.5h-2.7v-.9h2.7V32h-2.2v-3.8h2.2v-.7h-2.6v-.9h2.6zm0 2.3h-1.4v.8h1.4v-.8zm0 1.5h-1.4v.9h1.4v-.9zm2.3-1.5H60v.8h1.4v-.8zm0 1.5H60v.9h1.4v-.9zm6.9-6.6v.9h-2.7c.2.4.3.6.4.9l-1 .3c-.1-.3-.3-.9-.5-1.2h-.8c-.6.9-1 1.2-1.3 1.4l-.8-.7c.9-.6 1.5-1.5 1.9-2.5l1 .2c-.1.3-.1.4-.3.6h4.1zm-.5 7c0 .8-.4 1.1-1.1 1.1h-1.4l-.2-1h1.3c.4 0 .4-.1.4-.4v-3.2h-2.6v6.1c0 .3.1.5.6.5h2c.6 0 .6-.1.7-1.6l.9.3c-.1 1.9-.4 2.3-1.3 2.3h-2.7c-.5 0-1.1 0-1.1-1v-7.5h4.6v4.4zM80.5 23.5V35h-1.1v-.5h-8.9v.5h-1.1V23.5h11.1zm-10 1v9.1h8.9v-9.1h-8.9zm2.3.5h1v1.4h2.5V25h1v1.4h1.6v.9h-1.6v2.1H79v.9h-1.8V33h-1v-2.8h-2.7c-.3 1.3-.9 2-1.6 2.8l-.9-.7c.4-.3 1.2-.9 1.5-2H71v-.9h1.7c0-.1.1-.5.1-1.1v-1h-1.6v-.9h1.6V25zm1 3.3c0 .3-.1.8-.1 1.1h2.6v-2.1h-2.5v1zM86.8 30.4c-.2-.3-.5-.8-.8-1.7v6.5h-1v-5.8c-.4 1.7-.9 2.5-1.1 2.9l-.5-1.2c.9-1.3 1.4-3.3 1.6-4.4h-1.4v-1H85v-2.5h1v2.5h.9v1H86v.3c.5 1.3 1 2.1 1.3 2.5l-.5.9zm4.4-.9v-1h.5v-3.8h-.4v-1h4.2v1h-.6c-.1 1.8-.4 3.1-.5 3.8h1.3v1H94c0 .1 0 .1-.1.2h.1V34c0 .1 0 .3.2.3h.2c.2 0 .2-.1.2-.2 0-.2.1-1.2.1-1.6l.9.2c-.1 2-.2 2.6-1.1 2.6h-.8c-.6 0-.8-.4-.8-.9v-2.6c-1.1 2.1-2.7 3.2-3.4 3.6l-.6-.8c.4-.2.7-.4 1.3-.9-.1-.2-.1-.4-.3-.9-.5.3-2.1 1.2-3.4 1.6l-.3-.9c.4-.1.5-.2.9-.3v-9.3h3.4v5.8h-2.4v3.1c.7-.3.8-.3 1.5-.7-.5-.9-.6-1.1-.8-1.3l.8-.5c.6.8 1.2 2 1.4 2.6.9-1 1.5-2.1 1.8-3.3h-1.6zm-1.4-4.9h-1.5v1.6h1.5v-1.6zm0 2.4h-1.5v1.6h1.5V27zm3.5 1.5c.2-.6.5-1.9.5-3.8h-1.3v3.8h.8zM105.1 26.7h-6v-.6c-1.4.7-2.2 1-2.7 1.1l-.5-1c.8-.2 3.6-1 5.6-3.1h1.1c2.1 2 4.7 2.9 5.7 3.1l-.5 1c-.8-.3-1.7-.6-2.7-1.1v.6zM96 34.2c1.1-1.1 1.4-2.6 1.5-3l1 .2c-.5 2.1-1.2 2.9-1.6 3.4l-.9-.6zm11-6.6v.9c-.7.8-1.5 1.6-3.9 2.6l-.6-.8c.5-.2 2-.7 3.2-1.8h-8.4v-.9h9.7zm-6.7 4.1v2c0 .4.2.5.5.5h2.7c.5 0 .6 0 .6-1.5l1 .2c-.1 1.7-.4 2.2-1.4 2.2h-3.5c-.6 0-1-.3-1-1v-2.4h1.1zm4.3-5.8c-1.4-.8-2.1-1.5-2.4-1.8-.6.7-1.4 1.2-2.5 1.8h4.9zm-2.2 6.5c-1-.8-2.1-1.4-2.4-1.6l.5-.9c.9.4 1.8.9 2.5 1.5l-.6 1zm4.9 2.4c-.6-1.3-1.8-2.7-2.2-3.2l.9-.6c.5.6 1.7 2 2.3 3.1l-1 .7zM120.2 23.6v11.6h-1v-.6h-8.6v.6h-1.1V23.6h10.7zm-1 1.1h-8.6v8.9h8.6v-8.9zm-.7.9c-.3.9-1.1 2.9-2.6 4.7 1.4.9 2.2 1.5 2.5 1.8l-.6.9c-1.4-1.2-2.2-1.7-2.6-2-1.1 1-2.3 1.7-3.5 2.2l-.7-.9c.8-.2 2-.7 3.3-1.8-1.5-.8-2.5-1.2-3.1-1.4l.4-.8c.6.2 1.8.6 3.4 1.5 1.2-1.3 2-2.9 2.6-4.6l.9.4zm-6.1 2.6c-.2-.9-.5-1.7-.8-2.4l1-.3c.3.7.7 1.7.9 2.5l-1.1.2zm2.3-.4c-.1-.8-.2-1.4-.6-2.5l1-.2c.3.7.5 1.8.6 2.5l-1 .2z"/><linearGradient id="SVGID_00000175284178522597632620000003962952559064287639_" gradientUnits="userSpaceOnUse" x1="-24.179" y1="803.836" x2="-8.617" y2="792.149" gradientTransform="translate(269.114 -1133.012) scale(1.8721)"><stop offset="0" style="stop-color:#fbe1c3"/><stop offset=".174" style="stop-color:#fbd58b"/><stop offset=".279" style="stop-color:#f4a65d"/><stop offset=".309" style="stop-color:#f2984f"/><stop offset=".562" style="stop-color:#fbd58b"/><stop offset="1" style="stop-color:#f2984f"/></linearGradient><path style="fill:url(#SVGID_00000175284178522597632620000003962952559064287639_);stroke:#da4207;stroke-width:2.1458" d="M228.9 354.6h19.2v12.6h-19.2z"/><path class="st5" d="M260.2 354.7c2.1-.2 3.4-.7 4.4-1.1l.5 1c-1.5.6-2.9.9-3.8 1v2.4h4.1v1.2h-1.1v7.7h-1.1v-7.7h-1.8v1.3c0 .6 0 4.4-1.5 6.5l-1-.8c0-.1.1-.1.1-.2h-5.1v.7h-1.1v-12.5h1.1v10.7h5.2v1c.7-1.2.9-2.1 1.1-3.4.1-.9.2-1.4.2-2.1v-5.7zm-1.2 7.9c-.3-.4-.9-1.1-1.5-2.1v3.9h-1v-3.8c-.6 1.2-1.1 2-1.9 2.9l-.6-.9c1.4-1.4 2.2-3 2.4-3.5h-2.2v-1h2.3v-4.2h1v4.2h1.9v1h-1.9c.4.7 1.1 1.7 2 2.7l-.5.8zm-4-5.3c-.1-1.1-.4-2-.6-2.6l1-.2c0 .1.5 1.6.6 2.6l-1 .2zm3-.2c.4-1.1.7-2.3.7-2.5l.9.2c-.1.3-.3 1.6-.8 2.6l-.8-.3zM267 367l-.9-.8c.7-.7 1.3-1.4 1.8-2.6l1 .3c-.4.8-.9 2.1-1.9 3.1zm5.1-7.6h-1.2c-.4 0-.7-.2-.8-.4v1h2.3v.9h-2.3v1.3c1.3-.1 1.6-.2 2.3-.3v.8c1.3-1.3 1.7-2.6 1.9-3.1-.6-.6-.8-.8-1.2-1.1l.6-.8c.2.2.5.4.8.7 0-.3.1-.8.1-1.8h-1.5v-1.1h1.5v-1.7h1.1v1.7h2.1c0 .5-.2 3.6-.2 3.8v.6c0 .5 0 2.2.4 2.2.3 0 .5-1.5.5-1.8l.9.4c-.1.8-.3 1.6-.5 2.1-.2.4-.4.7-1 .7-1 0-1.3-1.3-1.3-3.4 0-.4.1-2.9.1-3.5h-1c-.1 1.1-.2 2.3-.3 2.7.4.4.7.8 1 1.2l-.7.9c-.3-.3-.4-.6-.7-.9-.6 1.6-1.5 2.7-2 3.3l-.9-.8.1-.1c-.9.2-4 .5-6.1.6l-.1-1c.9 0 2-.1 2.9-.1V361h-2.3v-.9h2.3v-1h1.1c0-.1-.1-.3-.1-.4v-1.3h-.9c-.4 1.6-1.4 2.3-2.5 2.6l-.5-.9c1.3-.4 1.7-.9 1.9-1.8h-1.8v-.9h2.9v-1h-2.3v-.9h2.3v-.9h1.1v.9h2.4v.9h-2.4v1h2.8v.9H271v.9c0 .2.1.3.3.3h.5c.2 0 .2-.1.4-.7l.8.2c-.2 1.2-.4 1.4-.9 1.4zm-1.7 7.4c0-.3.1-.9.1-1.4 0-.3 0-1.1-.1-1.5h1c.1.8.2 1.8.2 2.9h-1.2zm3.8 0c-.1-.9-.2-1.1-.8-3l1.1-.1c.4.8.7 2.1.9 3l-1.2.1zm4.1.2c-.5-.9-1.3-2.1-2.1-3.1l.9-.6c1.2 1.2 2.1 2.5 2.3 2.9l-1.1.8zM289.6 359.9c-1 .9-2 1.7-2.8 2.3.7 0 2.6-.1 3.9-.2-.3-.3-.5-.6-.9-1l.9-.6c.7.7 1.6 1.7 2.4 2.9l-1 .7c-.2-.3-.3-.5-.8-1.1-.5 0-4 .3-4.2.3v3.8H286v-3.7c-2.4.1-2.7.1-5.9.2l-.1-1c2.6 0 2.9 0 5.1-.1 0 0 .1 0 .1-.1-.2-.1-2-1.2-3.5-1.7l.7-.8c.4.2.7.3 1.1.5.6-.4.8-.6 1.2-1H280v-.9h6v-.9h-4.9v-.9h4.9v-.9h-5.5v-.9h5.5v-.9h1.2v.9h5.7v.9h-5.7v.9h5v.9h-5v.9h6.1v.9h-6.9c-.8.7-1.4 1.2-1.8 1.5.4.2 1 .5 1.6.9 1.8-1.4 2-1.6 2.5-2.1l.9.3zm-9.4 5.8c.5-.2 1.9-.9 3.1-2.2l.9.7c-.7.9-2.2 1.9-3.3 2.4l-.7-.9zm9.5-2.2c1.5 1.5 2.6 2 3.2 2.2l-.7 1c-1.8-.8-2.9-2-3.4-2.5l.9-.7zM298.9 362.3c-.8-1-1.4-2.2-1.4-2.3v6.9h-1.2v-7c-.8 2.1-1.7 3.4-2.1 4l-.5-1.3c.9-.9 2-2.9 2.6-5H294v-1.1h2.4v-2.8h1.2v2.8h2v1.1h-2v.8c.3.7 1.1 1.9 2.1 2.9l-.8 1zm-.1 1.5c1.6-1.1 3.4-2.8 5.1-6.2h-3.8v-1.1h4v-2.8h1.2v2.8h1.9v1.1h-1.9v8.2c0 1-.8 1.1-1.2 1.1H302l-.2-1.2h1.9c.4 0 .5 0 .5-.5v-5.8c-1.1 2.1-2.5 3.9-4.4 5.3l-1-.9z"/><path class="st1" d="M87 61.1h2.1v15.4H87zM87 109.6h2.1V125H87zM87 156.5h2.1v15.4H87z"/><path class="st1" d="M87.1 141.7h2.1v15.4h-2.1z"/><path class="st1" d="M85.6 154.1H101v2.1H85.6zM87.1 94.8h2.1v15.4h-2.1z"/><path class="st1" d="M85.6 107.2H101v2H85.6zM85.8 159.8h14.7v3.2H85.8zM249.4 159.8h14.7v3.2h-14.7zM86.2 64.9h178.1v3.4H86.2zM87.3 113h13.3v2.9H87.3zM249.4 113h13.3v2.9h-13.3zM260.1 139.1h3.2v18h-3.2z"/><path class="st1" d="M249.4 153.1h15.4v3.1h-15.4zM260.1 61.1h3.2v15.4h-3.2zM260.1 109.6h3.2V125h-3.2zM86.6 109.6h3.2V125h-3.2zM260.1 156.5h3.2v15.4h-3.2z"/><path class="st1" d="M260.1 92.2h3.2v18h-3.2z"/><path class="st1" d="M249.4 106.1h15.4v3.2h-15.4zM86.7 141.7h3.2v15.4h-3.2z"/><path class="st1" d="M85.2 153.1h15.4v3.1H85.2zM86.7 61.1h3.2v15.4h-3.2zM86.7 156.5h3.2v15.4h-3.2zM86.7 94.8h3.2v15.4h-3.2z"/><path class="st1" d="M85.2 106.1h15.4v3.2H85.2z"/><path class="st4" d="M262.7 160v11.3h5.7V139.6h-5.7v15.9H87.5v-12h4.2v-3.9h-9.9v15.9H63.1v-17.2h-5.8V160h24.5v11.3h5.7V160zM262.7 113.1v11.3h5.7V92.7h-5.7v15.9H87.5v-12h4.2v-3.9h-9.9v15.9H63.1V91.4h-5.8v21.7h24.5v11.3h5.7v-11.3zM262.7 64.6v11.3h5.7V44.2h-9.9V48h4.2v12H87.5V48h4.2v-3.8h-9.9V60H63.1v-3.3h-5.8v7.9h24.5v11.3h5.7V64.6z"/><path d="M641 275.6c1.8 6.6-2.1 13.3-8.7 15.1-6.6 1.8-13.3-2.1-15.1-8.7-1.8-6.6 2.1-13.3 8.7-15.1 6.6-1.8 13.4 2.1 15.1 8.7" style="fill:#fff"/><defs><path id="SVGID_00000119799336759653028500000014435198410112487863_" d="m626.1 266.8 1.3 4.7c2.4-.7 3.8-1.5 4.7-2.3-1.9-1.8-3.6-2.7-3.7-2.7-.7 0-1.5.1-2.3.3"/></defs><clipPath id="SVGID_00000150787783533708835560000012694419007797726120_"><use xlink:href="#SVGID_00000119799336759653028500000014435198410112487863_" style="overflow:visible"/></clipPath><radialGradient id="SVGID_00000137090452906893391390000004361940386208932020_" cx="-755.533" cy="603.489" r="2.127" gradientTransform="matrix(5.1225 -1.375 -1.375 -5.1225 5323.18 2325.816)" gradientUnits="userSpaceOnUse"><stop offset="0" style="stop-color:#c6e7f9"/><stop offset=".006" style="stop-color:#c6e7f9"/><stop offset="1" style="stop-color:#1d2087"/></radialGradient><path style="clip-path:url(#SVGID_00000150787783533708835560000012694419007797726120_);fill:url(#SVGID_00000137090452906893391390000004361940386208932020_)" d="m624.9 266.8 6.8-1.8 1.7 6.2-6.9 1.8z"/><defs><path id="SVGID_00000132795246288930987040000017958240112069897601_" d="m627.5 271.8 1.5 5.6c3.1-.8 5.2-2.2 6.6-3.4-.9-1.9-2.1-3.4-3.2-4.6-1 .9-2.5 1.7-4.9 2.4"/></defs><clipPath id="SVGID_00000026131826683680411240000000093961702802155172_"><use xlink:href="#SVGID_00000132795246288930987040000017958240112069897601_" style="overflow:visible"/></clipPath><radialGradient id="SVGID_00000081648798382492925170000014241656461417318792_" cx="-755.41" cy="603.361" r="2.126" gradientTransform="scale(5.3035 -5.3035) rotate(15.026 2163.858 3585.273)" gradientUnits="userSpaceOnUse"><stop offset="0" style="stop-color:#c6e7f9"/><stop offset=".006" style="stop-color:#c6e7f9"/><stop offset="1" style="stop-color:#1d2087"/></radialGradient><path style="clip-path:url(#SVGID_00000026131826683680411240000000093961702802155172_);fill:url(#SVGID_00000081648798382492925170000014241656461417318792_)" d="m625.5 270 9.5-2.6 2.6 9.5-9.6 2.6z"/><defs><path id="SVGID_00000177474519023774502070000012678008418911826613_" d="m629.1 277.8 1.4 5.4c2.6-.7 4.9-2 6.6-3.2-.1-1-.2-2-.5-3.1-.2-.9-.5-1.7-.9-2.4-1.4 1.1-3.6 2.5-6.6 3.3"/></defs><clipPath id="SVGID_00000178896331484422453200000017856675358753114267_"><use xlink:href="#SVGID_00000177474519023774502070000012678008418911826613_" style="overflow:visible"/></clipPath><radialGradient id="SVGID_00000067207551249163238520000002312087479975630983_" cx="-755.585" cy="603.449" r="2.128" gradientTransform="scale(5.3024 -5.3024) rotate(15.025 2164.33 3586.31)" gradientUnits="userSpaceOnUse"><stop offset="0" style="stop-color:#c6e7f9"/><stop offset=".006" style="stop-color:#c6e7f9"/><stop offset="1" style="stop-color:#1d2087"/></radialGradient><path style="clip-path:url(#SVGID_00000178896331484422453200000017856675358753114267_);fill:url(#SVGID_00000067207551249163238520000002312087479975630983_)" d="m626.9 275 9.7-2.6 2.7 10.2-9.7 2.6z"/><defs><path id="SVGID_00000036248706716901692880000015403655598023159979_" d="M629.1 266.5c.7.4 1.9 1.2 3.3 2.5 1-.9 1.1-1.7 1.1-1.7-1.3-.6-2.8-.8-4.4-.8"/></defs><clipPath id="SVGID_00000134968317763353052100000009828956588112765623_"><use xlink:href="#SVGID_00000036248706716901692880000015403655598023159979_" style="overflow:visible"/></clipPath><radialGradient id="SVGID_00000168081991319207851360000000722062425144588175_" cx="-755.47" cy="603.435" r="2.128" gradientTransform="scale(5.3033 -5.3033) rotate(15.026 2164.2 3585.645)" gradientUnits="userSpaceOnUse"><stop offset="0" style="stop-color:#c6e7f9"/><stop offset=".006" style="stop-color:#c6e7f9"/><stop offset="1" style="stop-color:#1d2087"/></radialGradient><path style="clip-path:url(#SVGID_00000134968317763353052100000009828956588112765623_);fill:url(#SVGID_00000168081991319207851360000000722062425144588175_)" d="m628.5 266.6 4.7-1.3 1 3.5-4.8 1.3z"/><defs><path id="SVGID_00000098930192027167292240000014426533741794002607_" d="m631.8 288 .7 2.6c.8-.2 1.5-.5 2.2-.8.1-.1 1-1.4 1.7-3.6-1.4.7-3 1.3-4.6 1.8"/></defs><clipPath id="SVGID_00000065775868128235138010000001894185885699912127_"><use xlink:href="#SVGID_00000098930192027167292240000014426533741794002607_" style="overflow:visible"/></clipPath><radialGradient id="SVGID_00000152232585865505638880000016219872552813459331_" cx="-755.384" cy="603.357" r="2.126" gradientTransform="scale(5.3024 -5.3024) rotate(15.026 2163.924 3585.259)" gradientUnits="userSpaceOnUse"><stop offset="0" style="stop-color:#c6e7f9"/><stop offset=".006" style="stop-color:#c6e7f9"/><stop offset="1" style="stop-color:#1d2087"/></radialGradient><path style="clip-path:url(#SVGID_00000065775868128235138010000001894185885699912127_);fill:url(#SVGID_00000152232585865505638880000016219872552813459331_)" d="m630.7 286.5 5.3-1.5 1.4 5.3-5.3 1.4z"/><defs><path id="SVGID_00000130610389559765552000000005637171558883080585_" d="M619.6 271s.5.7 1.8 1c.5-1.8 1.2-3.2 1.6-3.9-1.3.7-2.4 1.7-3.4 2.9"/></defs><clipPath id="SVGID_00000012437472351035283630000015412556207891208105_"><use xlink:href="#SVGID_00000130610389559765552000000005637171558883080585_" style="overflow:visible"/></clipPath><radialGradient id="SVGID_00000147192524147033864290000003132303058876206982_" cx="-755.534" cy="603.304" r="2.121" gradientTransform="matrix(5.123 -1.3752 -1.3752 -5.123 5323.43 2324.998)" gradientUnits="userSpaceOnUse"><stop offset="0" style="stop-color:#c6e7f9"/><stop offset=".006" style="stop-color:#c6e7f9"/><stop offset="1" style="stop-color:#1d2087"/></radialGradient><path style="clip-path:url(#SVGID_00000012437472351035283630000015412556207891208105_);fill:url(#SVGID_00000147192524147033864290000003132303058876206982_)" d="m618.6 268.3 4.2-1.1 1.2 4.5-4.2 1.1z"/><defs><path id="SVGID_00000057860752209971218450000002461836686938749610_" d="M637.5 280.1c.1 2-.1 3.8-.5 5.3 1.9-1.2 3.4-2.6 4.3-4.2.3-1.5.3-3 0-4.6-.5.6-1.8 2-3.8 3.5"/></defs><clipPath id="SVGID_00000153692515174692253620000010001210745139845784_"><use xlink:href="#SVGID_00000057860752209971218450000002461836686938749610_" style="overflow:visible"/></clipPath><radialGradient id="SVGID_00000054251400484466828660000015038244350620338838_" cx="-755.385" cy="603.355" r="2.126" gradientTransform="scale(5.3024 -5.3024) rotate(15.026 2163.906 3585.276)" gradientUnits="userSpaceOnUse"><stop offset="0" style="stop-color:#c6e7f9"/><stop offset=".006" style="stop-color:#c6e7f9"/><stop offset="1" style="stop-color:#1d2087"/></radialGradient><path style="clip-path:url(#SVGID_00000153692515174692253620000010001210745139845784_);fill:url(#SVGID_00000054251400484466828660000015038244350620338838_)" d="m634.7 277.2 6.5-1.7 2.6 9.3-6.6 1.8z"/><defs><path id="SVGID_00000114753945648143863480000015853911186902602628_" d="M626.7 288.8c1.7 1.5 3.1 2.2 3.2 2.3.8 0 1.5-.2 2.3-.4l-.7-2.6c-1.6.4-3.3.7-4.8.7"/></defs><clipPath id="SVGID_00000031893081027009651060000015150356574956201604_"><use xlink:href="#SVGID_00000114753945648143863480000015853911186902602628_" style="overflow:visible"/></clipPath><radialGradient id="SVGID_00000085964028053138312520000004962126303416469657_" cx="-755.573" cy="603.439" r="2.128" gradientTransform="scale(5.3046 -5.3046) rotate(15.025 2164.145 3585.999)" gradientUnits="userSpaceOnUse"><stop offset="0" style="stop-color:#c6e7f9"/><stop offset=".006" style="stop-color:#c6e7f9"/><stop offset="1" style="stop-color:#1d2087"/></radialGradient><path style="clip-path:url(#SVGID_00000031893081027009651060000015150356574956201604_);fill:url(#SVGID_00000085964028053138312520000004962126303416469657_)" d="m625.9 288.3 5.9-1.6 1.1 4.2-5.8 1.5z"/><defs><path id="SVGID_00000103964042547172523250000003858387486402285963_" d="M620.2 287.2c1.6.8 3.5 1.2 5.7 1.3-1.1-1.1-2.3-2.6-3.2-4.4-2.5-.3-4.4-.8-5-1.1.5 1.6 1.4 3 2.5 4.2"/></defs><clipPath id="SVGID_00000092458119451064384850000012188170524619720369_"><use xlink:href="#SVGID_00000103964042547172523250000003858387486402285963_" style="overflow:visible"/></clipPath><radialGradient id="SVGID_00000076566574687088820290000002442769649588850062_" cx="-755.447" cy="603.37" r="2.128" gradientTransform="scale(5.3032 -5.3032) rotate(15.026 2163.904 3585.489)" gradientUnits="userSpaceOnUse"><stop offset="0" style="stop-color:#c6e7f9"/><stop offset=".006" style="stop-color:#c6e7f9"/><stop offset="1" style="stop-color:#1d2087"/></radialGradient><path style="clip-path:url(#SVGID_00000092458119451064384850000012188170524619720369_);fill:url(#SVGID_00000076566574687088820290000002442769649588850062_)" d="m616.2 283.4 9.1-2.5 1.9 7.2-9.1 2.4z"/><defs><path id="SVGID_00000053531560049520341490000005120094184383650725_" d="M623.6 267.8c-.1.1-1.2 1.7-1.9 4.3 1.1.2 2.8.2 5.3-.4l-1.2-4.7c-.8.1-1.5.4-2.2.8"/></defs><clipPath id="SVGID_00000158711955853409821930000015521421986652316331_"><use xlink:href="#SVGID_00000053531560049520341490000005120094184383650725_" style="overflow:visible"/></clipPath><radialGradient id="SVGID_00000158028065142456695650000016850124986023777978_" cx="-755.344" cy="603.403" r="2.125" gradientTransform="scale(5.3024 -5.3024) rotate(15.026 2164.107 3585.137)" gradientUnits="userSpaceOnUse"><stop offset="0" style="stop-color:#c6e7f9"/><stop offset=".006" style="stop-color:#c6e7f9"/><stop offset="1" style="stop-color:#1d2087"/></radialGradient><path style="clip-path:url(#SVGID_00000158711955853409821930000015521421986652316331_);fill:url(#SVGID_00000158028065142456695650000016850124986023777978_)" d="m620.5 267.3 6.2-1.7 1.7 6.3-6.3 1.7z"/><defs><path id="SVGID_00000127723954543416995350000000057087184975044752_" d="M621.7 272.4c-.4 1.5-.6 3.4-.5 5.5 1.9.4 4.3.5 7.4-.3l-1.5-5.6c-2.5.6-4.2.6-5.4.4"/></defs><clipPath id="SVGID_00000062913590044551124540000001601531004830856351_"><use xlink:href="#SVGID_00000127723954543416995350000000057087184975044752_" style="overflow:visible"/></clipPath><radialGradient id="SVGID_00000116935004838640042730000016135589014796775084_" cx="-755.557" cy="603.48" r="2.127" gradientTransform="scale(5.3024 -5.3024) rotate(15.025 2164.463 3586.222)" gradientUnits="userSpaceOnUse"><stop offset="0" style="stop-color:#c6e7f9"/><stop offset=".006" style="stop-color:#c6e7f9"/><stop offset="1" style="stop-color:#1d2087"/></radialGradient><path style="clip-path:url(#SVGID_00000062913590044551124540000001601531004830856351_);fill:url(#SVGID_00000116935004838640042730000016135589014796775084_)" d="m619.4 272.3 8.7-2.3 2.2 7.9-8.7 2.3z"/><defs><path id="SVGID_00000052074202539430773840000004048260795854712237_" d="M617.3 282c.1.2.1.4.2.6.2.1 2.2.8 5 1.1-.4-.9-.8-1.8-1-2.8-.2-.9-.4-1.8-.5-2.7-2.2-.5-3.5-1.4-3.9-1.6-.4 1.7-.3 3.5.2 5.4"/></defs><clipPath id="SVGID_00000059284417960455910910000002445225160594651577_"><use xlink:href="#SVGID_00000052074202539430773840000004048260795854712237_" style="overflow:visible"/></clipPath><radialGradient id="SVGID_00000033336807455304792110000009612957948651150749_" cx="-755.514" cy="603.464" r="2.127" gradientTransform="scale(5.3041 -5.3041) rotate(15.026 2164.273 3585.808)" gradientUnits="userSpaceOnUse"><stop offset="0" style="stop-color:#c6e7f9"/><stop offset=".006" style="stop-color:#c6e7f9"/><stop offset="1" style="stop-color:#1d2087"/></radialGradient><path style="clip-path:url(#SVGID_00000059284417960455910910000002445225160594651577_);fill:url(#SVGID_00000033336807455304792110000009612957948651150749_)" d="m614.9 277 7.2-1.9 2.2 8.1-7.2 1.9z"/><defs><path id="SVGID_00000081639003573877981850000015552885324978235538_" d="M632.6 269.2c1.1 1.2 2.3 2.7 3.2 4.6 1.8-1.7 2.4-3.2 2.4-3.3-1.2-1.3-2.7-2.4-4.4-3.1 0 .2-.2.9-1.2 1.8"/></defs><clipPath id="SVGID_00000098196836085612456540000014566822812842200462_"><use xlink:href="#SVGID_00000081639003573877981850000015552885324978235538_" style="overflow:visible"/></clipPath><radialGradient id="SVGID_00000173132418906885378080000001558691227795821750_" cx="-755.607" cy="603.41" r="2.128" gradientTransform="matrix(5.1225 -1.375 -1.375 -5.1225 5323.43 2325.308)" gradientUnits="userSpaceOnUse"><stop offset="0" style="stop-color:#c6e7f9"/><stop offset=".006" style="stop-color:#c6e7f9"/><stop offset="1" style="stop-color:#1d2087"/></radialGradient><path style="clip-path:url(#SVGID_00000098196836085612456540000014566822812842200462_);fill:url(#SVGID_00000173132418906885378080000001558691227795821750_)" d="m631 267.8 6.9-1.8 2 7.4-6.9 1.8z"/><defs><path id="SVGID_00000044139744349952670090000015788384670640371130_" d="M636.8 285.9c-.5 1.7-1.1 2.9-1.5 3.6 2.8-1.6 4.8-4.2 5.7-7.2-1 1.3-2.5 2.6-4.2 3.6"/></defs><clipPath id="SVGID_00000115486358365874531020000015314293138942513793_"><use xlink:href="#SVGID_00000044139744349952670090000015788384670640371130_" style="overflow:visible"/></clipPath><radialGradient id="SVGID_00000104684113330627839420000014872309112047964064_" cx="-755.524" cy="603.367" r="2.126" gradientTransform="scale(5.3033 -5.3033) rotate(15.026 2163.928 3585.827)" gradientUnits="userSpaceOnUse"><stop offset="0" style="stop-color:#c6e7f9"/><stop offset=".006" style="stop-color:#c6e7f9"/><stop offset="1" style="stop-color:#1d2087"/></radialGradient><path style="clip-path:url(#SVGID_00000115486358365874531020000015314293138942513793_);fill:url(#SVGID_00000104684113330627839420000014872309112047964064_)" d="m633.5 282.7 7.1-1.9 2.2 8.2-7.2 1.9z"/><defs><path id="SVGID_00000001648392678260128690000009792401842632305319_" d="M629.2 291.1c-.6-.4-1.8-1.1-3-2.3-1.9 0-3.8-.3-5.3-.9 2.2 2 5.2 3.2 8.3 3.2"/></defs><clipPath id="SVGID_00000041265594630912546230000011816611761182056885_"><use xlink:href="#SVGID_00000001648392678260128690000009792401842632305319_" style="overflow:visible"/></clipPath><radialGradient id="SVGID_00000039099896002130955260000010278186947640221829_" cx="-755.575" cy="603.528" r="2.13" gradientTransform="scale(5.3054 -5.3054) rotate(15.025 2164.43 3586.019)" gradientUnits="userSpaceOnUse"><stop offset="0" style="stop-color:#c6e7f9"/><stop offset=".006" style="stop-color:#c6e7f9"/><stop offset="1" style="stop-color:#1d2087"/></radialGradient><path style="clip-path:url(#SVGID_00000041265594630912546230000011816611761182056885_);fill:url(#SVGID_00000039099896002130955260000010278186947640221829_)" d="m620.1 288.1 8.6-2.3 1.3 5.1-8.5 2.3z"/><defs><path id="SVGID_00000081636705963661536320000002068443122954898822_" d="M617.1 276.2c.1 0 1.3 1.1 3.8 1.6-.2-2.1.1-3.9.5-5.5-1.3-.3-1.8-.9-2-1-1.1 1.4-1.9 3.1-2.3 4.9"/></defs><clipPath id="SVGID_00000008846642993154321860000002606511531725994112_"><use xlink:href="#SVGID_00000081636705963661536320000002068443122954898822_" style="overflow:visible"/></clipPath><radialGradient id="SVGID_00000100378639176850856680000017063307574655841185_" cx="-755.338" cy="603.376" r="2.123" gradientTransform="matrix(5.12 -1.3744 -1.3744 -5.12 5319.765 2324.446)" gradientUnits="userSpaceOnUse"><stop offset="0" style="stop-color:#c6e7f9"/><stop offset=".006" style="stop-color:#c6e7f9"/><stop offset="1" style="stop-color:#1d2087"/></radialGradient><path style="clip-path:url(#SVGID_00000008846642993154321860000002606511531725994112_);fill:url(#SVGID_00000100378639176850856680000017063307574655841185_)" d="m615.5 271.7 5.6-1.5 1.9 7.2-5.6 1.5z"/><defs><path id="SVGID_00000110435756066312599760000002964299163862166462_" d="M621.3 278.2c.1.8.2 1.6.5 2.5.3 1.1.7 2.1 1.1 3 2.1.2 4.7.2 7.3-.5l-1.4-5.4c-3.1.9-5.6.8-7.5.4"/></defs><clipPath id="SVGID_00000039106068076436100950000015355686864809723265_"><use xlink:href="#SVGID_00000110435756066312599760000002964299163862166462_" style="overflow:visible"/></clipPath><radialGradient id="SVGID_00000075885202901137437490000002699816829976271550_" cx="-755.548" cy="603.342" r="2.127" gradientTransform="matrix(5.122 -1.3749 -1.3749 -5.122 5322.611 2324.82)" gradientUnits="userSpaceOnUse"><stop offset="0" style="stop-color:#c6e7f9"/><stop offset=".006" style="stop-color:#c6e7f9"/><stop offset="1" style="stop-color:#1d2087"/></radialGradient><path style="clip-path:url(#SVGID_00000039106068076436100950000015355686864809723265_);fill:url(#SVGID_00000075885202901137437490000002699816829976271550_)" d="m619.8 278.3 9.8-2.6 2.1 7.8-9.8 2.7z"/><defs><path id="SVGID_00000000208222978674424220000014513394185243656070_" d="M623 284.1c1 1.8 2.2 3.3 3.3 4.4 1.6 0 3.3-.2 5.1-.7l-1.1-4.2c-2.6.6-5.1.7-7.3.5"/></defs><clipPath id="SVGID_00000124131177651031146630000017252907491732744065_"><use xlink:href="#SVGID_00000000208222978674424220000014513394185243656070_" style="overflow:visible"/></clipPath><radialGradient id="SVGID_00000082357854350774246850000013289090405461829255_" cx="-755.509" cy="603.448" r="2.125" gradientTransform="scale(5.3016 -5.3016) rotate(15.025 2164.392 3586.057)" gradientUnits="userSpaceOnUse"><stop offset="0" style="stop-color:#c6e7f9"/><stop offset=".006" style="stop-color:#c6e7f9"/><stop offset="1" style="stop-color:#1d2087"/></radialGradient><path style="clip-path:url(#SVGID_00000124131177651031146630000017252907491732744065_);fill:url(#SVGID_00000082357854350774246850000013289090405461829255_)" d="m621.8 283.9 9-2.4 1.8 6.6-9 2.4z"/><defs><path id="SVGID_00000148639283954759060450000004008074141889162423_" d="m630.6 283.5 1.1 4.2c1.7-.5 3.3-1.2 4.8-2 .4-1.5.7-3.3.6-5.3-1.7 1.2-3.9 2.4-6.5 3.1"/></defs><clipPath id="SVGID_00000092456355576583084690000001784007242343131784_"><use xlink:href="#SVGID_00000148639283954759060450000004008074141889162423_" style="overflow:visible"/></clipPath><radialGradient id="SVGID_00000110435022857389012730000008639058584462997682_" cx="-755.585" cy="603.441" r="2.128" gradientTransform="scale(5.3031 -5.3031) rotate(15.025 2164.247 3586.224)" gradientUnits="userSpaceOnUse"><stop offset="0" style="stop-color:#c6e7f9"/><stop offset=".006" style="stop-color:#c6e7f9"/><stop offset="1" style="stop-color:#1d2087"/></radialGradient><path style="clip-path:url(#SVGID_00000092456355576583084690000001784007242343131784_);fill:url(#SVGID_00000110435022857389012730000008639058584462997682_)" d="m628.8 280.8 8-2.1 2.2 8.5-8 2.1z"/><defs><path id="SVGID_00000102504594102364238780000017936257102218974374_" d="M636 274.1c.4.8.7 1.6.9 2.6.3 1 .4 2 .5 3 2.4-1.8 3.7-3.4 3.8-3.5 0-.2-.1-.4-.1-.6-.5-1.8-1.4-3.5-2.5-4.8-.3.4-1 1.8-2.6 3.3"/></defs><clipPath id="SVGID_00000148660256837671925010000006013260530034058905_"><use xlink:href="#SVGID_00000102504594102364238780000017936257102218974374_" style="overflow:visible"/></clipPath><radialGradient id="SVGID_00000176733969371209302090000011628367044278393777_" cx="-755.371" cy="603.468" r="2.127" gradientTransform="scale(5.3018 -5.3018) rotate(15.026 2164.441 3585.419)" gradientUnits="userSpaceOnUse"><stop offset="0" style="stop-color:#c6e7f9"/><stop offset=".006" style="stop-color:#c6e7f9"/><stop offset="1" style="stop-color:#1d2087"/></radialGradient><path style="clip-path:url(#SVGID_00000148660256837671925010000006013260530034058905_);fill:url(#SVGID_00000176733969371209302090000011628367044278393777_)" d="m633.8 271.4 7-1.9 2.6 9.6-7.1 1.9z"/><path style="fill:#003c20" d="m625 263.9.8 3 .3-.1-.8-3z"/><defs><path id="SVGID_00000183965909212247878990000007925254118889118890_" d="M613.7 262.8h-3.9c-.4 0-.4 0-.4-.1.1-.4 2.9-1.1 6.1-1.1 3.2 0 4.3.4 4.3.8 0 .2-.2.2-.3.2-.4.1-1.5.1-5.1.1-.3.1-.5.1-.7.1m-8.4 1.3c0 .5.7 1.1 2.3 1.6 1.6.5 12.2.7 17.2-1.8-.1.1-14.5.9-15.8-.3-.2-.2.1-.3 1.5-.3h10.2c2.3 0 3.8.1 4 0 .1 0-3.4-2.4-8.2-2.4h-.1c-6.6-.1-11.1 1.7-11.1 3.2"/></defs><clipPath id="SVGID_00000101823750922967858010000016185154933232029352_"><use xlink:href="#SVGID_00000183965909212247878990000007925254118889118890_" style="overflow:visible"/></clipPath><linearGradient id="SVGID_00000014595798017171032110000007730352204441806478_" gradientUnits="userSpaceOnUse" x1="-1063.585" y1="617.606" x2="-1061.458" y2="617.606" gradientTransform="scale(-7.453 7.453) rotate(.282 117668.763 199174.215)"><stop offset="0" style="stop-color:#003c21"/><stop offset=".006" style="stop-color:#003c21"/><stop offset="1" style="stop-color:#4a8537"/></linearGradient><path style="clip-path:url(#SVGID_00000101823750922967858010000016185154933232029352_);fill:url(#SVGID_00000014595798017171032110000007730352204441806478_)" d="m624.8 266.3-19.5.1-.1-5.6 19.6-.1z"/><defs><path id="SVGID_00000172428419955777093740000014131119978174152375_" d="M632 256.9c-7.3 4.4-7.1 7-7.1 7 3.1-.1 10.5-.9 16.8-7.8 1.1-1.2.3-1.6-1.1-1.6-2.2 0-6.4 1.1-8.6 2.4"/></defs><clipPath id="SVGID_00000041295429973608855430000004834242915920593575_"><use xlink:href="#SVGID_00000172428419955777093740000014131119978174152375_" style="overflow:visible"/></clipPath><linearGradient id="SVGID_00000158741771891819173050000007636831999261756075_" gradientUnits="userSpaceOnUse" x1="-1173.215" y1="731.382" x2="-1171.088" y2="731.382" gradientTransform="scale(-3.746 3.746) rotate(29.263 597.052 2323.109)"><stop offset="0" style="stop-color:#4a8537"/><stop offset="1" style="stop-color:#003c21"/></linearGradient><path style="clip-path:url(#SVGID_00000041295429973608855430000004834242915920593575_);fill:url(#SVGID_00000158741771891819173050000007636831999261756075_)" d="m646.9 261.6-17.9 10-8.3-14.9 17.8-10z"/><path class="st5" d="M604.2 298.7c0-.8.6-1.4 1.4-1.4.8 0 1.3.7 1.3 1.4h-2.7zm3.9.8c.2-1.5-.8-3-2.5-3-1.6 0-2.6 1.3-2.6 2.7 0 1.6.9 2.7 2.6 2.7 1.2 0 2.1-.6 2.4-1.8h-1.1c-.2.6-.6.9-1.3.9-1 0-1.4-.7-1.4-1.5h3.9zM612.3 298.3c-.1-.6-.6-1-1.2-1s-1.5.3-1.5 1.9c0 .9.4 1.8 1.4 1.8.7 0 1.2-.4 1.3-1.2h1.2c-.2 1.3-1.1 2.1-2.4 2.1-1.7 0-2.6-1.1-2.6-2.7s.9-2.8 2.6-2.8c1.2 0 2.3.6 2.4 1.9h-1.2zM616.6 301c-1 0-1.5-.9-1.5-1.8s.5-1.8 1.5-1.8 1.5.9 1.5 1.8-.5 1.8-1.5 1.8m0 .9c1.7 0 2.7-1.1 2.7-2.7s-1-2.7-2.7-2.7c-1.7 0-2.7 1.1-2.7 2.7s1 2.7 2.7 2.7M621.5 296.6h.9v-.4c0-1.3.7-1.5 1.5-1.5.4 0 .6 0 .8.1v.9c-.2 0-.3-.1-.5-.1-.3 0-.6.1-.6.5v.5h1v.8h-1v4.3h-1.2v-4.3h-.9v-.8zM624.8 296.6h1.1v1c.1-.5.8-1.1 1.5-1.1h.4v1.1h-.5c-.8 0-1.4.6-1.4 1.8v2.4h-1.2v-5.2zM628.4 295.7h1.2v-1.1h-1.2v1.1zm0 6h1.2v-5.2h-1.2v5.2zM631.2 298.7c0-.8.6-1.4 1.4-1.4.8 0 1.3.7 1.3 1.4h-2.7zm3.9.8c.2-1.5-.8-3-2.5-3-1.6 0-2.6 1.3-2.6 2.7 0 1.6.9 2.7 2.6 2.7 1.2 0 2.1-.6 2.4-1.8h-1c-.2.6-.6.9-1.3.9-1 0-1.4-.7-1.4-1.5h3.8zM635.5 296.6h1.1v.8c.4-.6 1-.9 1.7-.9 1.1 0 1.9.6 1.9 1.7v3.5H639v-3.2c0-.8-.3-1.2-1-1.2-.8 0-1.3.6-1.3 1.4v3h-1.2v-5.1zM641.8 299.2c0-.9.4-1.9 1.5-1.9.9 0 1.5.7 1.5 1.8 0 .9-.4 1.8-1.5 1.8-1 .1-1.5-.8-1.5-1.7m4.1-4.6h-1.2v2.6c-.4-.6-1.1-.8-1.8-.8-1.2 0-2.3.8-2.3 2.7 0 1.5.8 2.7 2.5 2.7.7 0 1.3-.3 1.6-.8v.7h1.1v-7.1zM646.7 294.6h1.2v7.1h-1.2zM648 296.6h1.3l1.4 3.8 1.3-3.8h1.2l-2.1 5.4c-.4.9-.7 1.8-1.9 1.8-.3 0-.5 0-.8-.1v-1c.2 0 .4.1.6.1.5 0 .7-.3.8-.7l.1-.4-1.9-5.1z"/><path class="st31" d="m582.9 271-107.3-50.8V80.8l107.3 47.8z"/><path style="fill:#ffe200;stroke:#231815;stroke-width:.9604;stroke-linecap:round;stroke-linejoin:round;stroke-miterlimit:3.8636" d="m520.8 251.9 12.5-5.9V106.5l-12.5 5.9z"/><path class="st33" d="M569.3 280.2 462 229.4V89.9l107.3 47.9z"/><path class="st34" d="m535.5 299.3-118.3-59.2V119.4l118.3 52.5z"/><path class="st31" d="m582.9 271 4.1-1.8V126.8l-4.1 1.8z"/><path style="fill:none;stroke:#231815;stroke-width:.9623;stroke-linecap:round;stroke-linejoin:round;stroke-miterlimit:3.8636" d="m520.8 112.4 12.5-5.9-18.3-8.2-12.5 6z"/><path class="st31" d="M582.9 128.6 475.6 80.7l4.2-1.8L587 126.8z"/><path class="st34" d="m535.5 171.9-118.3-52.5 44.8-15.7 107.3 47.9z"/><path class="st33" d="M569.3 137.8 462 89.9l4.2-1.8 107.2 47.8z"/><path class="st36" d="m519.2 106.1 10.5-23.8h77.1M468.9 91.4l-10.5-24h-59M576.8 132.6l10.5-20.2h19.5M587 166.8h18.1M402.4 112.3l34.7 6.6"/><path class="st37" d="m457.6 138.2 54.2-11.6M462.5 139.4l54.2-11.5M466.2 141.3l54.1-11.6"/><path class="st33" d="M569.3 137.8V280.6l4.1-2.2V135.9z"/><path style="fill:#ccc;stroke:#231815;stroke-width:.9604;stroke-linecap:round;stroke-linejoin:round;stroke-miterlimit:3.8636" d="M535.5 171.9v127.4l33.8-18.7V151.5z"/><path class="st37" d="m534.9 214.3 34.4 18M534.9 216.7l34.4 18M534.9 219.2l34.4 17.9"/><linearGradient id="SVGID_00000125561463951677013520000009645193287584090014_" gradientUnits="userSpaceOnUse" x1="513.588" y1="541.916" x2="551.48" y2="395.391" gradientTransform="matrix(.9638 .1903 -.0008 .8878 -38.79 -305.486)"><stop offset=".006" style="stop-color:#c29141"/><stop offset=".135" style="stop-color:#713718"/><stop offset=".286" style="stop-color:#c29141"/><stop offset=".416" style="stop-color:#713718"/><stop offset=".562" style="stop-color:#c29141"/><stop offset=".736" style="stop-color:#713718"/><stop offset=".876" style="stop-color:#c29141"/><stop offset="1" style="stop-color:#713718"/></linearGradient><path style="fill:url(#SVGID_00000125561463951677013520000009645193287584090014_)" d="M451.8 139.5 418 124.9l-5.1 1.3-.1 16 5.7 2.6-5.7.6v16.5l5.5 2.6-5.5.6v15.6l5.3 2.6-5.3.6v15.5l5.4 2.7-5.4.5v17l5 2.6-5 .6-.1 21 33.5 16.6 4.4-.4.1 2.6 38.2 18.8 4.5-1.3v3.6l35.5 18.9 5.9-3.2.2-81.6-41.5-19.3v-20.4l-41.4-18.4z"/><path class="st40" d="m456.4 240.6-5.6.5v21.4l38.2 18.9 3.9-1.1M417.9 222.2l-5.1.5v21l33.5 16.6 4.4-.4M456.5 220.1l-5.6.5-.1 17.2 38.2 18.4 4.2-1.1M418.3 202l-5.4.6v16.9l33.4 16.1 4.2-.3M418.4 164.5l-5.5.5v15.6l33.5 15.5 4.3-.4M418.6 144.8l-5.7.5v16.5l33.5 15.2 4.2-.3M418 124.7l-5.1 1.4v16l33.5 14.9 5.5-.6M497.8 260.6l-4.3 1.1v21.9l35.5 18.9 5.9-3.2M497.9 239.6l-4.3 1.2-.1 17.6 36.4 17.6 4.8-1.4M497.8 220.1l-4.2 1.2v16.2l36.3 17.2 4.7-1.2M456.6 201l-5.7.5v15.8l38.2 18 4.2-1.1M418.2 183.2l-5.3.6v15.5l33.5 15.9 4.2-.4M498.5 200.7l-5.7.5v15.9l38.2 17.7 4.2-1.2M456.8 161.8l-5.9.5v16.8l38.2 17.3 4.3-1.2"/><path style="fill:none;stroke:#231815;stroke-width:.64;stroke-linecap:round;stroke-linejoin:round;stroke-miterlimit:3.8636" d="m418.1 124.8 34 14.5v20.3l41.5 18.4v20.5l41.3 19.1v81.7"/><path class="st42" d="m412.9 126.1 33.5 14.6 5.5-1.3M446.4 140.8V157M493.5 261.7l36.4 17.7 5-1.5M450.8 241.1l38.2 18.5 4.5-1.3M412.8 222.7l33.5 16.2 5.8-.5M493.6 240.8l36.3 17.2 5-1.2M450.9 220.6l38.2 18.1 4.4-1.3M412.9 202.6l33.5 15.8 5.2-.4M493.6 221.3l36.4 16.9 4.9-1.1M450.9 201.5l38.2 17.7 4.5-1.3M412.9 183.8l33.5 15.6 5.6-.5M450.9 182.3l38.2 17.4 4.6-1.2M412.9 165l33.5 15.3 5.9-.5M450.9 162.3l38.2 17 4.4-1.2M412.9 145.3l33.5 15 5.7-.7M446.4 160.3V177M446.4 180.3v15.8M446.4 199.4v15.9M446.4 218.4l-.1 17.2M446.3 238.9v21.4M489.1 179.3v17.2M489.1 199.7v16.2"/><path class="st40" d="m456.6 181.8-5.7.5v15.9l38.2 17.7 3.8-.9"/><path class="st42" d="m450.9 182.3 38.2 17.4 4.6-1.2M489.1 199.7v16.2"/><path class="st40" d="m498.5 200.7-5.7.5v15.9l38.2 17.7 4.2-1.2"/><path class="st40" d="m498.5 200.7-5.7.5v15.9l38.2 17.7 4.2-1.2"/><path class="st42" d="m492.8 201.2 38.2 17.4 4.6-1.2M531 218.6v16.2M489.1 219.2v16.1M489.1 238.7v17.5M489.1 259.6l-.1 21.8M530 238.2l-.1 16.5M530 258.1V276M530 279.4l-1 23.1"/><path class="st36" d="m377.1 226.1 42.1-11.2"/><path class="st5" d="m346.2 224.3-.3.3c-.8 1.7-.9 2-1.4 2.7.4.3.7.5 1 .8l-.5.6c-.4-.4-.7-.6-.9-.8-.4.5-.8 1-1.7 1.6-.9.7-1.6.9-2.3 1.1l-.5-.7c.5-.1 1.2-.3 2.1-.9.9-.5 1.3-1.1 1.7-1.5-.6-.4-1-.6-1.8-1l.5-.6c1 .5 1.5.8 1.8 1 .7-1.1 1-1.9 1.2-2.4H342c-1 1.3-1.7 1.9-2.1 2.2l-.7-.5c.7-.4 1.3-.9 2.2-2.1.7-1 .9-1.6 1.1-1.9l.8.3c.1.1.2.1.2.2s-.3.2-.4.2c-.1.3-.2.4-.5 1h2.6c.2 0 .5-.1.7-.1l.3.5zM350.9 230.5v-5.1c-1.2.9-2 1.3-2.9 1.7l-.8-.7c.9-.3 1.8-.6 3.4-1.8 1.5-1.1 2.2-1.9 2.7-2.5l.7.6s.1.1.1.2c0 0 0 .1-.1.1h-.2c-.9.8-1.2 1.1-2.1 1.9v5.7h-.8zM355.1 229.2c1.1-.6 2.3-1.3 2.3-4.6 0-.6 0-1.3-.1-1.6l.9.1s.2 0 .2.1 0 .1-.2.2c0 2 0 2.5-.2 3.3-.4 1.9-1.3 2.5-2.2 3.2l-.7-.7zm4.8-6.5.8.1c.1 0 .2 0 .2.1s0 .1-.3.2v5.4c.5-.3 1-.5 1.8-1.3.7-.7 1-1.2 1.2-1.5l.5.6c-.3.5-.7 1.1-1.7 2-.9.8-1.6 1.2-2.1 1.4l-.5-.4v-6.6zM365 230.5c.7-.9 1-1.5 1.3-1.9l.7.4.1.1c0 .1-.2.1-.3.2-.3.6-.6 1.1-1.1 1.7l-.7-.5zm.4-8.7h3.3v6.5h-3.3v-6.5zm2.6 1.9v-1.3h-1.9v1.3h1.9zm0 2v-1.3h-1.9v1.3h1.9zm0 1.9v-1.3h-1.9v1.3h1.9zm-.1 1.1c.5.8 1 1.3 1.2 1.5l-.6.4c-.7-.7-1-1.3-1.2-1.6l.6-.3zm4-4.3v2h2.1v4.6h-.8v-.5h-3.1v.5h-.7v-4.6h1.7v-4.9l.9.1c.1 0 .2 0 .2.1s-.2.2-.3.2v1.7h2.4v.7h-2.4zm1.3 5.4v-2.7h-3.1v2.7h3.1zM345 72.1v.6h-.7v-9.1l.7.1c.1 0 .2.1.2.1 0 .1-.1.2-.3.2v7.4h3.8v.7H345zm3.7-2.6c-.4-.5-.7-.8-1.1-1.4V71h-.6v-2.9c-.3.6-.6 1.3-1.4 2.2l-.5-.5c.7-.8 1.2-1.7 1.6-2.7h-1.4v-.6h1.7v-3.1l.8.1c.1 0 .2 0 .2.1s-.1.1-.3.2v2.7h1.5v.6h-1.3c.1.3.4.8 1.3 1.8l-.5.6zM346 66c-.3-.8-.5-1.2-.8-1.8l.6-.3c.4.8.6 1.3.8 1.8l-.6.3zm3.1-1.6c-.2.6-.4 1-.7 1.6l-.6-.3c.4-.8.6-1.4.8-1.8l.7.3c.1 0 .1.1.1.1s-.1 0-.3.1zm3.1 2.7v5.5h-.8v-5.5h-1c0 1.3-.1 4-1 5.5l-.8-.3c.9-1.4 1-3.5 1-5.4 0-.8 0-1.7-.1-2.5 0-.3-.1-.5-.1-.7l.8.1c.1 0 .9-.2 1-.3.5-.1.8-.3 1-.3l.5.5.1.1c0 .1-.1.1-.1.1h-.2c-.8.3-1.4.4-2.2.5.1 1 .1 1.1.1 2h2.9v.7h-1.1zM358.3 67.4h-.7c-.5 0-.6-.3-.6-.5v-.7h-.8c-.3.7-.7 1.2-1.7 1.7l-.5-.5c.8-.4 1.2-.7 1.4-1.2h-1.1v-.6h1.9v-.8h-1.4v-.6h1.4v-.8h.8s.2 0 .2.1-.1.1-.2.2v.5h1.5v.6H357v.8h1.7v.6h-1v.4c0 .3 0 .3.4.3.2 0 .3 0 .4-.4l.5.3c0 .3 0 .6-.7.6zm-1.2 1.1v.9c.5-.1.9-.2 1.4-.3v.6c-1.4.4-3 .8-3.4.8 0 .1-.1.2-.2.2s-.1 0-.1-.1l-.2-.8c.6-.1 1-.1 1.9-.3v-1h-1.6v-.6h1.6v-.7l.8.1c.1 0 .1 0 .1.1s-.1.1-.2.2v.4h1.6v.6h-1.7zm-.7 2.7c-.4.7-.7 1.2-1.1 1.6l-.6-.5c.5-.5.9-1 1.3-1.8l.6.4.1.1c0 .2-.2.2-.3.2zm1.7 1.3c-.1-.2-.4-1-.8-1.6l.6-.3c.3.5.6 1 .8 1.5l-.6.4zm4.6-2c-.7 0-1-1.1-1-2.3 0-.2 0-1.1.3-2.3h-1c0 1.1-.2 1.8-.3 2.1.6.7.7.9.8 1l-.5.5c-.1-.1-.5-.7-.6-.8-.2.5-.6 1.2-1.5 2l-.6-.5c1-.9 1.3-1.4 1.6-2.1-.3-.4-.5-.5-.8-.8l.4-.5c.1.1.2.1.6.6.1-.5.1-.8.2-1.5H359v-.6h1.3v-1.9l.8.1s.2 0 .2.1-.1.2-.2.2v1.4h1.8c-.5 1.8-.6 2-.6 2.9 0 .3 0 1.5.4 1.5.2 0 .3-.2.6-1.3l.6.4c-.3 1.4-.8 1.8-1.2 1.8zm-2.3 1.9c-.2-.4-.4-.8-.8-1.5l.5-.3c.6.8.8 1.3 1 1.5l-.7.3zm2.3.1c-.3-.8-.8-1.5-1-1.7l.6-.3c.5.5.7 1 1 1.7l-.6.3zM368.7 69.1c-.2-.2-.6-.5-1.1-1.5v5.1h-.7v-4.8c-.3.9-.7 1.7-1.5 2.8l-.8-.4c.6-.7 1.3-1.7 2-3.8h-1.7v-.7h1.9v-2.6l.8.1c.1 0 .2 0 .2.1s-.2.2-.3.2v2.2h1.4v.7h-1.1c.3.7.7 1.3 1.4 1.9l-.5.7zm4.3-2.6v5.2c0 .8-.3.9-1.6 1l-.3-.9c.3.1.6.1.8.1.4 0 .4-.2.4-.5V67c-.3 1-1 2.7-2.7 4.5l-.8-.4c.7-.6 1.3-1.3 1.8-2.1.5-.7.8-1.5 1.1-2.4h-1.9v-.7h2.6v-2.5l.8.1c.1 0 .2 0 .2.1s-.1.2-.3.2V66h1.2v.7H373zM378.5 69.7h-2.2v.9h-.8v-6.2h2.9v2.7c.8-1.2 1.2-2.5 1.4-3.9l.8.2c.1 0 .1.1.1.1 0 .2-.2.2-.3.2-.1.5-.2.9-.3 1.4h4.1l.2.3c-.8 1.3-1.4 2.1-2.2 3l-.6-.6c.3-.3.6-.6 1.6-1.9h-2.1v1.3c0 1.1.4 2.2 1.1 3.1.8 1 1.6 1.4 2.4 1.8l-.6.6c-2.4-1.2-2.9-2.7-3.2-3.7-.3 1.1-.9 2.7-3.2 3.7l-.6-.7c1-.4 2-.9 2.8-2.3.5-.9.7-1.8.7-3.8h-.5c-.3.6-.5 1.2-.9 1.7l-.7-.4v2.5zm-.8-4.6h-1.4V69h1.4v-3.9zM385.6 67.4c.6-.6 1.1-1.3 1.6-2 .6-.9 1-1.7 1.2-2.2l.7.4c.1 0 .2.1.2.2s-.2.1-.3.1c-.2.4-.8 1.4-1 1.7.1.1.3.1.3.2s-.1.1-.2.3v6.7h-.8v-6.2c-.3.4-.8 1-1.1 1.3l-.6-.5zm7.8 4.3c0 .9-.6.9-1 .9h-.8l-.2-.8h.9c.2 0 .3 0 .3-.4v-5h-3.8v-.7h3.8v-2.6l.8.1c.1 0 .2.1.2.1 0 .1-.1.2-.2.2v2.1h1.6v.7h-1.6v5.4zm-3.4-4c.3.4 1.1 1.7 1.3 2.1l-.7.4c-.4-.8-1-1.7-1.3-2.1l.7-.4zM341.4 114.4v-.8h5.8v-4.2h-5.8v-.8h6.6v6.3h-.8v-.5h-5.8zM357.2 111c-1.2 1.2-2.4 2.4-6.8 4 0 0-.1.3-.2.3s-.1-.1-.2-.3l-.4-.9c1-.2 2.2-.4 4.1-1.5 1.8-1 2.5-1.8 3.1-2.5l.4.9zm-5.5-.9c-.5-.6-1.1-1.2-1.7-1.8l.6-.6c.3.3 1.2 1.1 1.8 1.8l-.7.6zM364.5 108.6c.2 0 .2 0 .4-.1l.5.6c-.4.3-.5.4-.5.6-.9 2.3-1.4 3.2-2.6 4.4-.7.7-1.2 1-2.1 1.5l-.8-.6c.9-.4 2-1 3.2-2.4 1.1-1.4 1.4-2.5 1.6-3.4H361c-.5.6-.9 1.2-2.1 2.2l-.7-.5c.6-.4 1.2-.9 1.9-1.9.6-.9.8-1.4 1-1.8l.8.3c.2.1.2.2.2.2 0 .1-.1.1-.3.1-.1.2-.2.4-.4.7h3.1zM367.8 107.7c.1 0 .2 0 .2.1s0 .1-.2.2v4.5h-.8v-4.9l.8.1zm.4 7.5c1.2-.5 1.7-.8 2.1-1.3.6-.7 1-1.6 1-3.3v-3.2h.8s.2 0 .2.1c0 0 0 .1-.2.3 0 3 0 4-.4 5.2-.5 1.5-1.9 2.2-2.9 2.7l-.6-.5zM373.8 112.1v-.8h7.6v.8h-7.6zM384.1 110.2c1.8.8 2.5 1.3 3.4 2l-.5.8c-.3-.3-.7-.6-1.4-1.1-.8-.6-1.3-.8-1.8-.9v4.6h-.8v-8.2h.8c.1 0 .3 0 .3.1s-.1.1-.3.2v3l.3-.5zM390 109.5c0 .9-.1 2.2-.9 3.5l-.7-.3c.8-1.1.9-2.1.9-3.6 0-.6 0-1.1-.1-1.8h3.3v2.2H390zm-1.2 6.3v-.6h4.1v-.8h-3v-.6h3v-1l.8.1c.1 0 .2 0 .2.1s-.1.1-.3.2v.6h2.9v.6h-2.9v.8h4v.6h-8.8zm3.1-7.9H390v1h1.9v-1zm-1.8 4.9v-2.3h2.4v2.3h-2.4zm1.8-1.8h-1.1v1.2h1.1V111zm3.9-.3v.9h1.6v.6h-1.6v1.1h-.7v-1.1h-1.6v-.6h1.6v-.9h-1.8v-.6h4.5v.6h-2zm-2.3-2.2v-.6h1.6v-.9l.8.1c.1 0 .2 0 .2.1s-.1.2-.2.2v.6h1.5v.6h-3.9zm.9 1.5c-.1-.3-.3-.6-.6-1.1l.6-.3c.3.3.5.8.7 1.1l-.7.3zm2.4-.8c-.2.4-.3.5-.4.8l-.6-.4c.2-.3.4-.6.6-1l.6.4.1.1c0 .1-.1.1-.3.1zM616.9 79.6c-.1-.4-.4-1.7-2.1-1.7-2.3 0-2.5 2.5-2.5 3.3 0 1.7.7 3.2 2.3 3.2 2 0 2.2-2.1 2.3-2.7h-2V81h2.9v4h-.8v-.9c-.4.5-1 1.1-2.4 1.1-2.1 0-3.3-1.7-3.3-4 0-1.7.7-4 3.5-4 1.8 0 2.8 1 3.1 2.5h-1zM619.4 85v-7.6h.9v6.8h3.7v.8h-4.6zM624.8 83.4c.3-.2.7-.5 1.3-1.2.5-.6.6-.9.8-1.2l.8.4c.1 0 .2.1.2.2s-.2.1-.3.1c-.3.5-1 1.5-1.9 2.2l-.9-.5zm3.9-3.6h-3.4V79h3.4v-2l.8.1c.2 0 .2 0 .2.1s0 .1-.3.2V79h3.2v.8h-3.2v3.9c0 .6 0 1.1-.8 1.3-.3.1-.8 0-1.1 0l-.3-.9c.2 0 .7.1 1 .1.3 0 .4-.1.4-.4v-4zm2.3 1.1c1 .8 1.7 1.7 2.1 2.3l-.8.4c-.6-1.1-1.4-1.9-1.9-2.3l.6-.4zm.9-2.5c-.1-.1-.6-.7-.9-1l.5-.4c.3.3.6.7.9 1l-.5.4zm1.2-.7c-.1-.1-.6-.7-.9-1l.5-.4c.3.3.7.7.9 1l-.5.4zM641.8 80.5c-1.2 1.2-2.4 2.4-6.8 4 0 0-.1.3-.2.3s-.1-.1-.2-.3l-.4-.9c1-.2 2.2-.4 4.1-1.5 1.8-1 2.5-1.8 3.1-2.5l.4.9zm-5.5-.8c-.5-.7-1.1-1.2-1.7-1.8l.6-.6c.3.3 1.2 1.1 1.8 1.8l-.7.6zM644.3 79.8c1.7.8 2.5 1.3 3.3 2l-.5.7c-1.2-1-2.2-1.6-3.2-2v4.7h-.8V77l.8.1c.1 0 .3 0 .3.1l-.2.2v3l.3-.6zm2.7-1c-.3-.4-.7-.8-1-1l.5-.5c.4.3.8.8 1 1l-.5.5zm1.3-.7c-.3-.4-.7-.8-1-1l.5-.4c.4.3.8.7 1 1l-.5.4zM614.5 118.5v.7h-.8V115c-.7.8-1.2 1.3-1.8 1.8l-.6-.6c1.3-.8 2.8-2.5 3.4-5.1h-3.2v-.7h9v.7h-4.9c-.3 1.2-.7 2-1.2 2.8h5.5v5.1h-.9v-.6h-4.5zm4.5-.7v-3.1h-4.5v3.1h4.5zM621.7 111.1v-.6h4.2v-.8l1 .1s.1 0 .1.1c0 0-.1.1-.3.2v.5h4.3v.6h-9.3zm8.5 3.9v-1h-7.6v1.1h-.7v-1.7h9.1v1.7h-.8zm-7 .6v-1.3h6.3v1.3h-6.3zm5.5 3.7h-.9l-.2-.7c.4 0 .9.1 1 .1.1 0 .2 0 .2-.2v-.2H624v.9h-.7V116h6.3v2.6c-.1.4-.4.7-.9.7zm-5-6.4v-1.3h5.3v1.3h-5.3zm5 1.9h-4.8v.4h4.8v-.4zm0 1.8h-4.8v.3h4.8v-.3zm0 .8h-4.8v.3h4.8v-.3zm-.4-5.3h-3.8v.4h3.8v-.4zM632 116.9c.3-.2.7-.5 1.3-1.2.5-.6.6-.9.8-1.2l.8.4c.1 0 .2.1.2.2s-.2.1-.3.1c-.3.5-1 1.5-1.9 2.2l-.9-.5zm3.9-3.6h-3.4v-.8h3.4v-2.1l.8.1c.2 0 .2 0 .2.1s0 .1-.3.2v1.6h3.2v.8h-3.2v3.9c0 .6 0 1.1-.8 1.3h-1.1l-.3-.9c.2 0 .7.1 1 .1.3 0 .4-.1.4-.4v-3.9zm2.3 1.1c1 .8 1.7 1.7 2.1 2.3l-.8.4c-.6-1.1-1.4-1.9-1.9-2.3l.6-.4zm.8-2.5c-.1-.1-.6-.7-.9-1l.5-.4c.3.3.6.7.9 1l-.5.4zm1.3-.7c-.1-.1-.6-.7-.9-1l.5-.4c.3.3.7.7.9 1l-.5.4zM641.5 115.2v-.8h7.6v.8h-7.6zM651.9 113.3c1.7.8 2.5 1.3 3.3 2l-.5.7c-1.2-1-2.2-1.6-3.2-2v4.6h-.8v-8.2l.8.1c.1 0 .3 0 .3.1l-.2.2v3l.3-.5zm2.7-1c-.3-.4-.7-.8-1-1l.5-.5c.4.3.8.8 1 1l-.5.5zm1.2-.6c-.3-.4-.7-.8-1-1l.5-.4c.4.3.8.7 1 1l-.5.4zM615 126.1c-.1-.2-.1-.4-.3-.6-.1 0-.6.1-1 .1v4.4h-.7v-4.3c-.2 0-.9.1-1.4.1 0 .1-.1.3-.2.3 0 0-.1 0-.2-.3l-.1-.8h.8c.1-.1.2-.2.5-.6.1-.1.3-.4.4-.6-.5-.5-1-1-1.6-1.4l.5-.5c.2.1.5.3.6.4.2-.3.6-.8 1.1-1.8l.6.4c.1.1.1.1.1.2s-.2.1-.3.1c-.4.6-.6 1-1 1.6.1.1.5.5.6.5.3-.4.7-.9.9-1.4l.6.4.2.2c0 .1-.1.1-.4.1-1.2 1.6-1.5 2-1.8 2.3.6 0 1-.1 1.5-.1-.1-.2-.2-.3-.3-.5l.6-.3c.4.7.7 1.2.9 1.7l-.6.4zm-2.4.8c-.1 1.3-.3 2-.5 2.7l-.8-.2c.3-.8.5-2 .5-2.9l.7.1s.2 0 .2.1c.1.1-.1.1-.1.2zm2.1 2.3c-.1-1.1-.4-2-.6-2.6l.7-.2c.3.7.5 1.5.6 2.6l-.7.2zm5.2-.2c-.3 1-1 1-1.5 1h-.8l-.3-.9c.6.1.8.2 1 .2.8 0 .9-.6.9-1.4.2-1.4.2-2.9.2-4.5h-2.9c-.3.5-.6.9-.8 1.2l-.7-.4c1-1.1 1.5-2.2 2.1-3.5l.7.4c.1 0 .1.1.1.2s-.2.2-.3.2c-.2.4-.4.9-.7 1.3h3.3c.1 1.5.1 4.8-.3 6.2zm-2.4-1.7c-.3-.8-.5-1.3-.9-2l.7-.3c.5.9.7 1.4.9 2l-.7.3zM624.2 129.5c-1 0-2.2-.5-2.5-1.9h1c.1.3.3 1.1 1.5 1.1 2 0 2.1-2.3 2.2-3.1-.2.3-.8 1.1-2.2 1.1-1.4 0-2.6-.8-2.6-2.5 0-1.5 1.1-2.7 2.8-2.7 1.2 0 1.9.6 2.3 1.2.6.9.7 2.2.7 2.7-.1 2.3-1.2 4.1-3.2 4.1zm.1-7.3c-1.1 0-1.8.7-1.8 1.8 0 .6.3 1.8 1.7 1.8 1.1 0 1.9-.6 1.9-1.7 0-.7-.3-1.9-1.8-1.9zM628.5 129.3v-1.1h1.1v1.1h-1.1zM633.6 129.5c-1.7 0-2.5-.9-2.8-2.2h1c.2.9.9 1.4 1.8 1.4 1.1 0 2-.6 2-1.9 0-.4-.1-1.8-1.8-1.8-.5 0-1.2.1-1.6.7h-1l.7-4.1h4.4v.8h-3.5l-.4 2.3c.3-.2.7-.5 1.6-.5 1.6 0 2.7.9 2.7 2.6-.1 1.8-1.5 2.7-3.1 2.7zM644.1 129.3v-4c0-.4-.2-1.1-1-1.1-1.4 0-1.4 1.3-1.4 1.5v3.6h-.9v-4c0-.9-.6-1.1-1.1-1.1-1.4 0-1.4 1.4-1.4 1.5v3.6h-.9v-5.6h.8v.7c.2-.5.7-.9 1.6-.9 1.1 0 1.4.6 1.6.9.3-.4.7-.9 1.7-.9 1.3 0 1.8.9 1.8 1.7v4.1h-.8zM652.6 129.3v-4c0-.4-.2-1.1-1-1.1-1.4 0-1.4 1.3-1.4 1.5v3.6h-.9v-4c0-.9-.6-1.1-1.1-1.1-1.3 0-1.4 1.4-1.4 1.5v3.6h-.8v-5.6h.8v.7c.2-.5.7-.9 1.6-.9 1.1 0 1.4.6 1.6.9.3-.4.7-.9 1.7-.9 1.3 0 1.8.9 1.8 1.7v4.1h-.9zM612.4 168.6c0 1.2.4 1.3 1.8 1.3 1.8 0 2.4-.1 3.8-.4v.9c-1.1.2-1.8.2-4.2.2-1.9 0-2.2-.6-2.2-2v-5.8l.9.2c.1 0 .3.1.3.2s0 .1-.3.3v2.7c1.9-.2 3.1-.7 4.8-1.5l.5.7s.1.1.1.2-.1.1-.1.1-.2 0-.3-.1c-2.6.9-3.8 1.1-5 1.3v1.7zm4.9-4.6c-.2-.3-.6-.6-1-.9l.4-.5c.3.2.7.6 1 .9l-.4.5zm1.3-.6c-.2-.2-.6-.6-1-.9l.4-.5c.4.3.8.7 1 .9l-.4.5zM619.7 168.7h8v.8h-8v-.8zm1.1-3.9v-.8h5.8v.8h-5.8zM629 167.4v-.8h7.6v.8H629zM637.6 169.7c1.1-.6 2.3-1.3 2.3-4.6 0-.6 0-1.3-.1-1.7l.9.1s.2 0 .2.1 0 .1-.2.2c0 1.9 0 2.5-.2 3.3-.4 1.9-1.3 2.5-2.2 3.2l-.7-.6zm4.7-6.5.8.1c.1 0 .2 0 .2.1s0 .1-.2.2v5.3c.5-.3 1-.5 1.8-1.3.7-.7 1-1.2 1.2-1.5l.5.6c-.3.5-.7 1.1-1.7 2-.9.8-1.6 1.2-2.1 1.4l-.5-.4v-6.5zM617.5 174.6h.4l.5.6c-.4.3-.5.4-.5.6-.9 2.3-1.4 3.2-2.6 4.4-.7.7-1.2 1-2.1 1.5l-.8-.6c.9-.4 2-1 3.2-2.4 1.1-1.4 1.4-2.5 1.6-3.4H614c-.5.6-.9 1.2-2.1 2.2l-.7-.5c.6-.4 1.2-.9 1.9-1.9.6-.9.8-1.4 1-1.8l.8.3c.2.1.2.2.2.2 0 .1-.1.1-.3.1-.1.2-.2.4-.4.7h3.1zM620.7 180.3v.7h-.8v-6.7h6.9v6.7h-.8v-.7h-5.3zm5.3-5.2h-5.3v4.5h5.3v-4.5zM635.1 174.6c-.5.3-.5.3-.6.5-.6 1.3-.9 1.8-1.5 2.5 1 .8 2 1.7 2.8 3l-.7.6c-.3-.5-.6-1-1.3-1.8-.6-.6-1-.9-1.3-1.2-1.3 1.5-2.4 2.1-3.8 2.7l-.6-.7c.9-.3 2-.7 3.4-2s1.8-2.5 2.2-3.4h-4.4v-.7h4.6c.2 0 .4-.1.5-.2l.7.7zM346.8 232.7c-.4.5-1.7 2.1-1.7 4.3 0 2.2 1.3 3.8 1.7 4.3l-.3.3c-1.1-1.3-1.9-2.9-1.9-4.6 0-1.7.8-3.3 1.9-4.6l.3.3zM347.9 236.5h8.1v.8h-8.1v-.8zM362 236.2v.7h-5v-.7h3.6l-.6-.3c.2-.3.4-1.1.5-1.5l.6.2c0 .3-.4 1.3-.6 1.5h1.5zm-2.7-3.7h.7c.1 0 .2 0 .2.1s-.2.1-.2.2v.7h1.9v.6h-4.4v-.6h1.8v-1zm-1.6 5.3h3.7v3.5h-.6v-.4h-2.4v.7h-.7v-3.8zm.7-3.4c.2.3.6 1.2.7 1.5l-.6.3c-.1-.3-.5-1.2-.7-1.5l.6-.3zm2.4 5.8v-1.7h-2.4v1.7h2.4zm4.7-6.6c-.1.3-1.2 2.4-1.4 2.8.4.3 1.4 1.3 1.4 2.7 0 1.1-.6 1.7-1.9 1.7l-.3-.8h.8c.2 0 .8-.2.8-1 0-1.2-1-2.1-1.4-2.6l1.3-2.6h-1.6v7.5h-.7v-8.2h2.7l.3.5zM366.8 232.4c1.1 1.3 1.9 2.9 1.9 4.6 0 1.7-.8 3.4-1.9 4.6l-.3-.3c.4-.5 1.7-2.1 1.7-4.3 0-2.2-1.3-3.8-1.7-4.3l.3-.3zM345.9 75.1v2c0 2.3-.1 4.2-1 6l-.7-.4c.8-1.5 1-2.8 1-5.1 0-1-.1-2.8-.1-3.2h8.2v.7h-7.4zm4 6.6v1.1c0 .7-.4.7-1.6.7l-.2-.8c.2 0 .6.1.8.1.2 0 .3-.1.3-.3v-.8h-3.3V81h3.3v-.7l.7.1c.3-.2.4-.3.8-.4h-4.1v-.6h5.6l.1.3c-.7.5-1.2.8-2.3 1.4h3.4v.7h-3.5zm-3-3v-3h5.3v3h-5.3zm4.6-2.4h-3.9v.6h3.9v-.6zm0 1.2h-3.9v.6h3.9v-.6zM357.6 83c-2.5 0-2.9-2.5-2.9-3.9 0-2.7 1.2-4.2 3.1-4.2 1 0 2.2.5 2.5 2h-1c-.1-.3-.3-1.1-1.5-1.1-2 0-2.1 2.3-2.1 3.1.4-.5 1-1.1 2.1-1.1 1.3 0 2.5.8 2.5 2.5.1 1.5-1 2.7-2.7 2.7zm1.4-3.9c-.3-.4-.8-.6-1.4-.6-.9 0-1.8.6-1.8 1.7 0 .8.4 2 1.8 2 1.1 0 1.8-.7 1.8-1.9 0-.3-.1-.8-.4-1.2zM364.5 83c-2.3 0-2.8-2.1-2.8-4s.5-4 2.8-4 2.8 2.1 2.8 4-.5 4-2.8 4zm0-7.3c-1.5 0-1.9 1.5-1.9 3.3 0 1.8.4 3.3 1.9 3.3 1.4 0 1.9-1.5 1.9-3.3 0-1.8-.4-3.3-1.9-3.3zM375.1 82.8v-4c0-.5-.2-1.1-1-1.1-1.4 0-1.4 1.3-1.4 1.5v3.6h-.9v-4c0-.9-.6-1.1-1-1.1-1.3 0-1.3 1.4-1.3 1.5v3.6h-.8v-5.6h.8v.7c.2-.5.7-.9 1.6-.9 1.1 0 1.4.6 1.5 1 .3-.5.7-1 1.7-1 1.3 0 1.7.9 1.7 1.7v4.1h-.9zM383.7 82.8v-4c0-.5-.2-1.1-1-1.1-1.4 0-1.4 1.3-1.4 1.5v3.6h-.9v-4c0-.9-.6-1.1-1-1.1-1.3 0-1.3 1.4-1.3 1.5v3.6h-.8v-5.6h.8v.7c.2-.5.7-.9 1.6-.9 1.1 0 1.4.6 1.5 1 .3-.5.7-1 1.7-1 1.3 0 1.7.9 1.7 1.7v4.1h-.9zM343.5 118.6v2c0 2.3-.1 4.2-1 6l-.7-.4c.8-1.5 1-2.8 1-5.1 0-1-.1-2.8-.1-3.2h8.2v.7h-7.4zm4.1 6.6v1.1c0 .7-.4.7-1.6.7l-.2-.8c.2 0 .6.1.8.1.2 0 .3-.1.3-.3v-.8h-3.3v-.7h3.3v-.7l.7.1c.3-.2.4-.3.8-.4h-4.1v-.6h5.6l.1.3c-.7.5-1.2.8-2.3 1.4h3.4v.7h-3.5zm-3-3v-3h5.3v3h-5.3zm4.6-2.4h-3.9v.6h3.9v-.6zm0 1.2h-3.9v.6h3.9v-.6zM354 126.3v-5.6h-1.6v-.7c.7 0 1.5-.1 1.8-1.4h.7v7.7h-.9zM360.4 126.5c-1.8 0-2.8-1-2.8-2.3 0-1.5 1.2-1.9 1.6-2.1-.8-.3-1.3-.9-1.3-1.7 0-1.1.9-2 2.5-2 1.7 0 2.5.9 2.5 2 0 .7-.4 1.4-1.2 1.7.4.1 1.5.6 1.5 2.1.1 1.3-1 2.3-2.8 2.3zm0-4c-1.1 0-1.9.6-1.9 1.6 0 .8.5 1.6 1.9 1.6s1.9-.8 1.9-1.6c0-.9-.7-1.6-1.9-1.6zm0-3.3c-.7 0-1.6.3-1.6 1.3 0 1.1.8 1.3 1.6 1.3.7 0 1.5-.3 1.5-1.3.1-1-.7-1.3-1.5-1.3zM367.4 126.5c-2.3 0-2.8-2.1-2.8-4s.5-4 2.8-4 2.8 2.1 2.8 4-.5 4-2.8 4zm0-7.3c-1.5 0-1.9 1.5-1.9 3.3 0 1.8.4 3.3 1.9 3.3 1.4 0 1.9-1.5 1.9-3.3-.1-1.8-.5-3.3-1.9-3.3zM378 126.3v-4c0-.5-.2-1.1-1-1.1-1.4 0-1.4 1.3-1.4 1.5v3.6h-.9v-4c0-.9-.6-1.1-1-1.1-1.3 0-1.3 1.4-1.3 1.5v3.6h-.8v-5.6h.8v.7c.2-.5.7-.9 1.6-.9 1.1 0 1.4.6 1.5 1 .3-.5.7-1 1.7-1 1.3 0 1.7.9 1.7 1.7v4.1h-.9zM386.5 126.3v-4c0-.5-.2-1.1-1-1.1-1.4 0-1.4 1.3-1.4 1.5v3.6h-.9v-4c0-.9-.6-1.1-1-1.1-1.3 0-1.3 1.4-1.3 1.5v3.6h-.8v-5.6h.8v.7c.2-.5.7-.9 1.6-.9 1.1 0 1.4.6 1.5 1 .3-.5.7-1 1.7-1 1.3 0 1.7.9 1.7 1.7v4.1h-.9zM390.7 283.5c-.2-.4-.2-.5-.2-.6-.3 0-.6.1-1.1.2v5.3h-.8v-5.2c-.5 0-1 .1-1.4.1l-.3.3c-.1 0-.1-.1-.2-.3l-.1-.8h1.2c.1-.2.2-.2.9-1.2-.6-.7-1.1-1.3-1.9-2l.5-.6c.2.1.4.3.6.5.5-.7.8-1.3 1.2-2l.8.5s.1.1.1.2-.1.1-.3.2c-.4.7-.7 1.1-1.2 1.7.5.6.6.6.7.7.5-.7.8-1.2 1.1-1.8l.8.6c.1 0 .1.1.1.2s-.2.1-.4.1c-.5.7-.8 1.1-1.1 1.5l.6-.3c.4.7.8 1.5 1.1 2.3l-.7.4zm-2.6 1.1c-.1 1-.2 2-.5 2.9l-.8-.2c.3-1.1.5-2 .6-3.2l.8.1c.2 0 .2.1.2.2-.1.1-.2.1-.3.2zm1.6-3.4c-.1.1-.5.6-.9 1.1.4 0 1-.1 1.4-.1-.2-.4-.3-.5-.5-1zm.6 5.6c-.1-1.3-.2-1.9-.5-2.7l.7-.2c.4 1.1.5 2.1.6 2.8l-.8.1zm2.1-1.6c-.2.9-.4 1.8-.8 2.6l-.8-.3c.4-.9.7-1.8.8-2.9l.8.3c.1 0 .2.1.2.2.1 0 0 .1-.2.1zm1.1-7c-.4.8-.8 1.5-1.4 2.2l-.7-.5c.4-.5.9-1.2 1.5-2.5l.6.4c.1 0 .2.1.2.2.1.1 0 .1-.2.2zm2.6 5c-.2-.5-.3-.6-.4-.8-.8.2-1.6.3-3.4.6 0 .1-.1.3-.3.3-.1 0-.1-.2-.2-.3l-.2-.9c.4 0 .7 0 1.1-.1.4-.7.7-1.3 1-2.5l.8.3c.2.1.2.1.2.2s-.1.1-.3.2c-.4.8-.5 1.2-.8 1.7.9-.1 1.2-.2 1.6-.2-.1-.2-.1-.2-.4-.6l.7-.4c.6.8.9 1.4 1.2 2.1l-.6.4zm-.6 4.8h-1.7c-.6 0-.9-.3-.9-.9V284l.8.1c.1 0 .3 0 .3.2 0 .1 0 .1-.3.2v2.3c0 .3.2.4.4.4h1.1c.4 0 .5-.3.6-.9l.8.4c-.2 1.2-.5 1.3-1.1 1.3zm-.4-2.8c-.3-.5-.6-1-1.1-1.6l.6-.5c.6.7.9 1.2 1.1 1.6l-.6.5zm1.6-4.8c-.9-.7-1.6-1.6-2.1-2.7l.7-.4c.1.3.4.7.8 1.3.4.6.8.9 1.2 1.2l-.6.6zm.2 6.3c-.4-.8-.7-1.2-1-1.6l.6-.4c.5.6.8 1.1 1 1.6l-.6.4zM400.9 278.4v2.4c0 2.7-.1 4.9-1.2 7l-.8-.4c.9-1.7 1.2-3.3 1.2-6 0-1.2-.1-3.2-.1-3.7h9.7v.8h-8.8zm4.7 7.7v1.3c0 .8-.4.8-1.9.8l-.2-1c.3 0 .7.1 1 .1.3 0 .3-.1.3-.3v-.9h-3.9v-.8h3.9v-.8l.8.1c.4-.2.5-.3.9-.5h-4.8v-.7h6.6l.2.3c-.9.6-1.4.9-2.7 1.7h4v.8h-4.2zm-3.6-3.5V279h6.2v3.6H402zm5.5-2.8h-4.6v.7h4.6v-.7zm0 1.4h-4.6v.7h4.6v-.7zM419.3 283.8c-.1-.3-.2-.4-.3-.7-.1 0-.7.1-1.1.1v5.2h-.9v-5.1c-.2 0-1 .1-1.6.1 0 .1-.1.3-.2.3 0 0-.2 0-.2-.3l-.1-.9h.9c.1-.2.2-.2.6-.7.1-.1.3-.5.5-.7-.6-.6-1.2-1.2-1.9-1.6l.5-.6c.3.2.5.4.7.5.3-.4.6-.9 1.2-2.1l.7.5c.1.1.1.1.1.2 0 .2-.2.1-.4.1-.4.7-.7 1.2-1.2 1.9.1.1.6.5.7.6.4-.5.8-1.1 1.1-1.6l.7.5c.1.1.2.2.2.3 0 .1-.2.1-.5.2-1.4 1.9-1.7 2.3-2.1 2.7.6 0 1.2-.1 1.7-.2-.1-.3-.2-.4-.3-.6l.7-.4c.5.9.8 1.4 1 2.1l-.5.2zm-2.8.8c-.1 1.5-.3 2.3-.6 3.2l-.9-.2c.3-.9.6-2.4.6-3.5l.8.1s.2 0 .2.2c.1.1 0 .2-.1.2zm2.5 2.8c-.1-1.3-.4-2.3-.7-3.1l.8-.2c.3.9.6 1.8.7 3l-.8.3zm5.9-.3c-.3 1.1-1.1 1.2-1.7 1.2h-.9l-.3-1.1c.7.1.9.2 1.2.2.9 0 1-.7 1.1-1.6.2-1.6.2-3.4.2-5.3h-3.3c-.4.6-.6 1-1 1.4l-.8-.4c1.1-1.3 1.8-2.5 2.4-4.1l.8.4c.1 0 .2.1.2.2s-.3.2-.3.2c-.2.5-.5 1.1-.8 1.6h3.7c-.1 1.8-.1 5.6-.5 7.3zm-2.8-2c-.3-.9-.6-1.6-1-2.4l.8-.3c.5 1 .8 1.7 1 2.4l-.8.3zM430.4 287.7c-1 0-2.1-.3-2.7-1.2-.5-.7-.5-1.3-.5-1.8h1.1c0 .5.1 2.1 2.2 2.1 1.5 0 2.2-.9 2.2-2 0-1.3-1.1-1.7-2-1.7h-.9v-.8h.8c.7 0 1.9-.4 1.9-1.6 0-.7-.4-1.5-1.8-1.5-.6 0-1.2.1-1.6.6-.4.4-.4.9-.4 1.2h-1.1c.2-2.2 1.7-2.8 3.1-2.8 1.7 0 2.9 1 2.9 2.3 0 1.5-1.1 1.9-1.5 2 .5.1 1.8.5 1.8 2.2-.2 1.7-1.4 3-3.5 3zM438.6 287.7c-2.7 0-3.3-2.5-3.3-4.7 0-2.3.6-4.7 3.3-4.7 2.7 0 3.3 2.5 3.3 4.7s-.6 4.7-3.3 4.7zm0-8.6c-1.7 0-2.2 1.8-2.2 3.8 0 2.1.5 3.8 2.2 3.8 1.7 0 2.2-1.7 2.2-3.8 0-2-.5-3.8-2.2-3.8zM446.8 287.7c-2.7 0-3.3-2.5-3.3-4.7 0-2.3.6-4.7 3.3-4.7 2.7 0 3.3 2.5 3.3 4.7s-.6 4.7-3.3 4.7zm0-8.6c-1.7 0-2.2 1.8-2.2 3.8 0 2.1.5 3.8 2.2 3.8 1.7 0 2.2-1.7 2.2-3.8 0-2-.5-3.8-2.2-3.8zM459.3 287.4v-4.7c0-.5-.2-1.3-1.2-1.3-1.6 0-1.6 1.6-1.6 1.7v4.3h-1v-4.7c0-1.1-.7-1.3-1.2-1.3-1.5 0-1.6 1.6-1.6 1.8v4.2h-1v-6.5h1v.8c.3-.6.8-1.1 1.8-1.1 1.3 0 1.6.7 1.8 1.1.3-.5.8-1.1 1.9-1.1 1.5 0 2 1.1 2 2v4.8h-.9zM469.3 287.4v-4.7c0-.5-.2-1.3-1.2-1.3-1.6 0-1.6 1.6-1.6 1.7v4.3h-1v-4.7c0-1.1-.7-1.3-1.2-1.3-1.5 0-1.6 1.6-1.6 1.8v4.2h-1v-6.5h1v.8c.3-.6.8-1.1 1.8-1.1 1.3 0 1.6.7 1.8 1.1.3-.5.8-1.1 1.9-1.1 1.5 0 2 1.1 2 2v4.8h-.9zM545.6 326.9c-1.1-1.5-2.3-3.7-2.3-7.2s1.2-5.7 2.3-7.2h1.1c-1.3 1.7-2.2 4-2.2 7.2 0 3.1 1 5.4 2.2 7.1h-1.1zM565.7 317.6h-4.1c1.1 1.3 2.8 2.5 4.4 3.1-.2.2-.5.6-.7.8-1.8-.8-3.7-2.3-4.9-4h-3.6c-1.3 1.7-3 3.1-5 4-.2-.2-.5-.6-.7-.8 1.7-.7 3.3-1.8 4.5-3.2h-4v-.9h4.7c.3-.5.6-1 .8-1.5-1.7.1-3.2.1-4.3.1 0 .1-.1.2-.2.2l-.4-1.2h2.7c.6-.8 1.4-1.9 1.8-2.8l1.3.4c0 .1-.2.1-.3.1-.4.6-1 1.5-1.6 2.2 2 0 4.1-.1 6.3-.1-.6-.5-1.3-1-2-1.4l.8-.5c1.5.9 3.2 2.2 4.1 3.2-.5.4-.7.5-.9.6l-1.1-1.1-4.9.2h.1c0 .1-.2.2-.4.2-.2.5-.4.9-.7 1.4h8.2v1zm-1.7 4.9c-.1.1-.2.1-.3.1-1.9 1.8-5.5 2.9-9.5 3.5-.1-.3-.3-.6-.5-.9 3.9-.4 7.4-1.5 9.2-3.2l1.1.5zm-2.1-1.8c-.1.1-.2.1-.3.1-1.4 1.1-4 2.1-6.4 2.6-.1-.2-.4-.5-.6-.7 2.2-.5 4.8-1.4 6.2-2.4l1.1.4zm-1.7-1.8c0 .1-.1.1-.3.1-1.1.8-3 1.5-4.6 2-.2-.2-.4-.5-.6-.7 1.5-.4 3.4-1.1 4.5-1.9l1 .5zM581.3 317.3h-5.9c-1 .7-2.1 1.4-3.2 2v.1c2.3-.2 4.9-.6 6.4-1l.7.8H579c-1.7.4-4.6.8-7.1 1l-.3 1.2h6.8l.7.2c0 .1-.1.2-.1.3-.4 2.4-.7 3.4-1.2 3.9-.4.3-.7.4-1.6.4-.5 0-1.2 0-2-.1 0-.3-.1-.7-.3-1 1 .1 2 .1 2.4.1.3 0 .5 0 .7-.2.3-.3.6-1 .9-2.7h-6.5c-.1.3-.2.6-.2.8l-1-.2c.2-.8.5-1.9.8-3-1.1.5-2.2 1-3.4 1.5-.1-.2-.4-.6-.6-.8 1.4-.5 2.9-1.2 4.3-1.9l.1-.4.5.1c.6-.4 1.3-.7 1.9-1.1h-6.5v-.9h5.5v-1.9h-4.2v-.9h4.2v-2l1.3.1c0 .1-.1.2-.3.2v1.7h4.1v.5c.6-.6 1.2-1.2 1.7-1.9l1.1.7s-.2.1-.3.1h-.2c-1 1.2-2.2 2.4-3.6 3.4h4.7v.9zm-7.6-1h1.4c.8-.6 1.6-1.2 2.3-1.9h-3.7v1.9zM595.8 313c-.1.1-.2.1-.3.1h-.2c-1.2 1.2-2.9 2.6-4.4 3.7.1 0 .3.1.4.2 0 .1-.2.2-.3.2v8.4h-1.1v-8c-1.7 1.2-3.8 2.4-5.9 3.5-.2-.3-.4-.6-.7-.9 4.3-2 8.9-5.3 11.4-8.1l1.1.9zM611.2 317.1c0 .1-.1.1-.2.2-1.3 4.7-3.9 7-8.5 8.3-.1-.3-.4-.7-.7-.9 4.2-1.1 6.9-3.2 7.9-6.9h-10.3v-1.1h10.8l.2-.1.8.5zm-1.5-3.4h-8.9v-1h8.9v1zM625.1 313.6c0 .1-.1.1-.2.2-.8 2-1.8 3.7-3.1 5.4 1.7 1.4 4.3 3.7 5.7 5.3l-1 .8c-1.4-1.6-3.9-4-5.5-5.2-1.4 1.7-3.7 3.9-6 5.2-.2-.2-.5-.6-.8-.8 4.3-2.4 7.7-6.8 9.1-10.2h-7.7v-1.1h8.3l.2-.1 1 .5zM640.9 320.3c-1.6-.9-3.8-1.9-5.5-2.5v7.8h-1.2V312l1.6.1c0 .2-.1.3-.4.3v4.6l.2-.3c1.8.7 4.2 1.7 5.9 2.6l-.6 1zM649.5 312.5c1.1 1.5 2.3 3.7 2.3 7.2s-1.2 5.7-2.3 7.2h-1.1c1.3-1.7 2.2-4 2.2-7.2s-.9-5.4-2.2-7.2h1.1z"/></svg>