<svg version="1.1" id="レイヤー_1" xmlns="http://www.w3.org/2000/svg" xmlns:xlink="http://www.w3.org/1999/xlink" x="0" y="0" viewBox="0 0 250 490" style="enable-background:new 0 0 250 490" xml:space="preserve"><style>.st24{fill:#231815}.st25,.st27,.st28{fill:#fffac6;stroke:#231815;stroke-width:.7179;stroke-linecap:round;stroke-linejoin:round;stroke-miterlimit:3.8636}.st27,.st28{fill:#eeeeef;stroke-width:.7165}.st28{fill:#dbdcdc}.st30{fill:none;stroke-width:.2928}.st30,.st31,.st34{stroke:#231815;stroke-linecap:round;stroke-linejoin:round}.st31{fill:#fffac6;stroke-width:.3681;stroke-miterlimit:3.8636}.st34{fill:none;stroke-width:.7165}.st34,.st36,.st37,.st40{stroke-miterlimit:3.8636}.st36{fill:none;stroke:#231815;stroke-width:.358;stroke-linecap:round;stroke-linejoin:round}.st37,.st40{fill:#da4207;stroke:#da4207;stroke-width:.4428}.st40{fill:#e5e5e6;stroke:#231815;stroke-width:.7864}</style><path d="M236.1 448.8c1.3 4.9-1.6 9.9-6.5 11.3-4.9 1.3-9.9-1.6-11.3-6.5-1.3-4.9 1.6-9.9 6.5-11.3 5-1.3 10 1.6 11.3 6.5" style="fill:#fff"/><defs><path id="SVGID_1_" d="m225 442.3.9 3.5c1.8-.5 2.9-1.1 3.5-1.7-1.4-1.4-2.7-2-2.8-2-.4 0-1 .1-1.6.2"/></defs><clipPath id="SVGID_00000168805136061804086670000010163170375231282560_"><use xlink:href="#SVGID_1_" style="overflow:visible"/></clipPath><radialGradient id="SVGID_00000047743288960527661470000007511430927666873775_" cx="-177.854" cy="548.251" r="1.587" gradientTransform="matrix(5.1225 -1.375 -1.375 -5.1225 1887.705 3010.99)" gradientUnits="userSpaceOnUse"><stop offset="0" style="stop-color:#c6e7f9"/><stop offset=".006" style="stop-color:#c6e7f9"/><stop offset="1" style="stop-color:#1d2087"/></radialGradient><path style="clip-path:url(#SVGID_00000168805136061804086670000010163170375231282560_);fill:url(#SVGID_00000047743288960527661470000007511430927666873775_)" d="m224.1 442.3 5.1-1.4 1.2 4.6-5.1 1.4z"/><defs><path id="SVGID_00000042734681661369380400000000442576386176413875_" d="m226 446 1.1 4.2c2.3-.6 3.9-1.6 4.9-2.6-.7-1.4-1.5-2.6-2.4-3.4-.6.7-1.8 1.3-3.6 1.8"/></defs><clipPath id="SVGID_00000003066049953457438450000000310496097719921846_"><use xlink:href="#SVGID_00000042734681661369380400000000442576386176413875_" style="overflow:visible"/></clipPath><radialGradient id="SVGID_00000052077551047456648180000014217336053461795243_" cx="-177.743" cy="548.127" r="1.586" gradientTransform="scale(5.3035 -5.3035) rotate(15.026 2329.8 1065.037)" gradientUnits="userSpaceOnUse"><stop offset="0" style="stop-color:#c6e7f9"/><stop offset=".006" style="stop-color:#c6e7f9"/><stop offset="1" style="stop-color:#1d2087"/></radialGradient><path style="clip-path:url(#SVGID_00000003066049953457438450000000310496097719921846_);fill:url(#SVGID_00000052077551047456648180000014217336053461795243_)" d="m224.5 444.7 7.1-2 2 7.1-7.2 1.9z"/><defs><path id="SVGID_00000031900879060236856900000008874316920869931966_" d="m227.2 450.5 1.1 4c2-.5 3.6-1.5 4.9-2.4-.1-.7-.2-1.5-.4-2.3l-.6-1.8c-1.1.9-2.7 1.8-5 2.5"/></defs><clipPath id="SVGID_00000057134780341628190490000005823070556546471867_"><use xlink:href="#SVGID_00000031900879060236856900000008874316920869931966_" style="overflow:visible"/></clipPath><radialGradient id="SVGID_00000055684602240980866000000006922325600800299408_" cx="-177.97" cy="548.212" r="1.587" gradientTransform="scale(5.3024 -5.3024) rotate(15.025 2330.255 1066.02)" gradientUnits="userSpaceOnUse"><stop offset="0" style="stop-color:#c6e7f9"/><stop offset=".006" style="stop-color:#c6e7f9"/><stop offset="1" style="stop-color:#1d2087"/></radialGradient><path style="clip-path:url(#SVGID_00000057134780341628190490000005823070556546471867_);fill:url(#SVGID_00000055684602240980866000000006922325600800299408_)" d="m225.6 448.4 7.2-2 2 7.6-7.2 2z"/><defs><path id="SVGID_00000127014559349281781830000001271653554062790555_" d="M227.2 442c.5.3 1.5.9 2.4 1.9.7-.7.9-1.2.9-1.3-1-.4-2.1-.6-3.3-.6.1 0 0 0 0 0"/></defs><clipPath id="SVGID_00000016797783349239985420000007268858517835466422_"><use xlink:href="#SVGID_00000127014559349281781830000001271653554062790555_" style="overflow:visible"/></clipPath><radialGradient id="SVGID_00000157310586118281582500000004388854591480339107_" cx="-177.812" cy="548.199" r="1.587" gradientTransform="matrix(5.122 -1.3749 -1.3749 -5.122 1887.26 3010.527)" gradientUnits="userSpaceOnUse"><stop offset="0" style="stop-color:#c6e7f9"/><stop offset=".006" style="stop-color:#c6e7f9"/><stop offset="1" style="stop-color:#1d2087"/></radialGradient><path style="clip-path:url(#SVGID_00000016797783349239985420000007268858517835466422_);fill:url(#SVGID_00000157310586118281582500000004388854591480339107_)" d="m226.8 442.1 3.5-.9.7 2.6-3.5.9z"/><defs><path id="SVGID_00000124858919665671432550000007317842442857705642_" d="m229.3 458.1.5 1.9c.6-.2 1.1-.4 1.6-.6 0-.1.7-1.1 1.2-2.7-1 .6-2.1 1.1-3.3 1.4"/></defs><clipPath id="SVGID_00000052079359569662276340000015867848161787813512_"><use xlink:href="#SVGID_00000124858919665671432550000007317842442857705642_" style="overflow:visible"/></clipPath><radialGradient id="SVGID_00000147917631994029683730000015732571073491976867_" cx="-177.767" cy="548.126" r="1.586" gradientTransform="scale(5.3024 -5.3024) rotate(15.026 2329.871 1065.14)" gradientUnits="userSpaceOnUse"><stop offset="0" style="stop-color:#c6e7f9"/><stop offset=".006" style="stop-color:#c6e7f9"/><stop offset="1" style="stop-color:#1d2087"/></radialGradient><path style="clip-path:url(#SVGID_00000052079359569662276340000015867848161787813512_);fill:url(#SVGID_00000147917631994029683730000015732571073491976867_)" d="m228.4 456.9 4-1 1.1 3.9-4 1.1z"/><defs><path id="SVGID_00000072998925322565120990000009527836458501378970_" d="M220.1 445.4c.1 0 .1 0 0 0 0 0 .4.5 1.4.7.4-1.4.9-2.4 1.2-2.9-1 .6-1.8 1.3-2.6 2.2"/></defs><clipPath id="SVGID_00000101819731971078852240000003969294438072354716_"><use xlink:href="#SVGID_00000072998925322565120990000009527836458501378970_" style="overflow:visible"/></clipPath><radialGradient id="SVGID_00000035522884692289617210000018289192665357649047_" cx="-177.832" cy="548.066" r="1.583" gradientTransform="matrix(5.123 -1.3752 -1.3752 -5.123 1887.536 3010.3)" gradientUnits="userSpaceOnUse"><stop offset="0" style="stop-color:#c6e7f9"/><stop offset=".006" style="stop-color:#c6e7f9"/><stop offset="1" style="stop-color:#1d2087"/></radialGradient><path style="clip-path:url(#SVGID_00000101819731971078852240000003969294438072354716_);fill:url(#SVGID_00000035522884692289617210000018289192665357649047_)" d="m219.4 443.4 3.1-.8.9 3.3-3.1.9z"/><defs><path id="SVGID_00000139283975050135895400000008959877691088995500_" d="M233.5 452.2c.1 1.5-.1 2.9-.4 4 1.4-.9 2.6-2 3.2-3.1.2-1.1.2-2.2 0-3.4-.3.3-1.3 1.4-2.8 2.5"/></defs><clipPath id="SVGID_00000038385471186762470580000011698573911360445847_"><use xlink:href="#SVGID_00000139283975050135895400000008959877691088995500_" style="overflow:visible"/></clipPath><radialGradient id="SVGID_00000133522164626227221730000011264962685984216961_" cx="-177.769" cy="548.124" r="1.586" gradientTransform="scale(5.3024 -5.3024) rotate(15.026 2329.853 1065.157)" gradientUnits="userSpaceOnUse"><stop offset="0" style="stop-color:#c6e7f9"/><stop offset=".006" style="stop-color:#c6e7f9"/><stop offset="1" style="stop-color:#1d2087"/></radialGradient><path style="clip-path:url(#SVGID_00000038385471186762470580000011698573911360445847_);fill:url(#SVGID_00000133522164626227221730000011264962685984216961_)" d="m231.4 450 4.9-1.3 1.9 7-4.9 1.3z"/><defs><path id="SVGID_00000158009999845497871910000011255881836387015323_" d="M225.4 458.7c1.2 1.1 2.3 1.6 2.4 1.7.6 0 1.1-.1 1.7-.3l-.5-1.9c-1.2.3-2.4.5-3.6.5"/></defs><clipPath id="SVGID_00000054251905759801127070000011879221010912089480_"><use xlink:href="#SVGID_00000158009999845497871910000011255881836387015323_" style="overflow:visible"/></clipPath><radialGradient id="SVGID_00000111900021954799151520000009967170480464999053_" cx="-177.862" cy="548.199" r="1.588" gradientTransform="scale(5.3046 -5.3046) rotate(15.025 2330.068 1065.53)" gradientUnits="userSpaceOnUse"><stop offset="0" style="stop-color:#c6e7f9"/><stop offset=".006" style="stop-color:#c6e7f9"/><stop offset="1" style="stop-color:#1d2087"/></radialGradient><path style="clip-path:url(#SVGID_00000054251905759801127070000011879221010912089480_);fill:url(#SVGID_00000111900021954799151520000009967170480464999053_)" d="m224.9 458.3 4.4-1.2.8 3.1-4.4 1.2z"/><defs><path id="SVGID_00000021812026699903880250000014852611126283854523_" d="M220.6 457.5c1.2.6 2.6.9 4.2.9-.8-.8-1.7-1.9-2.4-3.3-1.8-.2-3.2-.6-3.8-.8.5 1.2 1.1 2.3 2 3.2"/></defs><clipPath id="SVGID_00000169539801273774216650000012691340922241280679_"><use xlink:href="#SVGID_00000021812026699903880250000014852611126283854523_" style="overflow:visible"/></clipPath><radialGradient id="SVGID_00000063607659581742455590000002314074278176136328_" cx="-177.794" cy="548.134" r="1.588" gradientTransform="scale(5.3032 -5.3032) rotate(15.026 2329.844 1065.253)" gradientUnits="userSpaceOnUse"><stop offset="0" style="stop-color:#c6e7f9"/><stop offset=".006" style="stop-color:#c6e7f9"/><stop offset="1" style="stop-color:#1d2087"/></radialGradient><path style="clip-path:url(#SVGID_00000169539801273774216650000012691340922241280679_);fill:url(#SVGID_00000063607659581742455590000002314074278176136328_)" d="m217.6 454.6 6.8-1.8 1.4 5.4-6.7 1.8z"/><defs><path id="SVGID_00000013162909381639222450000007530682626456324021_" d="M223.2 443c-.1.1-.9 1.3-1.4 3.2.9.2 2.1.2 3.9-.3l-.9-3.5c-.6.1-1.1.3-1.6.6"/></defs><clipPath id="SVGID_00000163032085300960655910000004120520289819296672_"><use xlink:href="#SVGID_00000013162909381639222450000007530682626456324021_" style="overflow:visible"/></clipPath><radialGradient id="SVGID_00000053528162124763744030000016407418531477951897_" cx="-177.727" cy="548.171" r="1.585" gradientTransform="scale(5.3024 -5.3024) rotate(15.026 2330.054 1065.018)" gradientUnits="userSpaceOnUse"><stop offset="0" style="stop-color:#c6e7f9"/><stop offset=".006" style="stop-color:#c6e7f9"/><stop offset="1" style="stop-color:#1d2087"/></radialGradient><path style="clip-path:url(#SVGID_00000163032085300960655910000004120520289819296672_);fill:url(#SVGID_00000053528162124763744030000016407418531477951897_)" d="m220.8 442.6 4.6-1.2 1.3 4.7-4.7 1.2z"/><defs><path id="SVGID_00000013193924932129425770000002506253304064164539_" d="M221.7 446.4c-.3 1.2-.5 2.6-.3 4.1 1.4.3 3.2.3 5.5-.2l-1.1-4.2c-1.9.5-3.2.5-4.1.3"/></defs><clipPath id="SVGID_00000017489685428161296040000003063284394709271694_"><use xlink:href="#SVGID_00000013193924932129425770000002506253304064164539_" style="overflow:visible"/></clipPath><radialGradient id="SVGID_00000117661519038261228120000010069213619383780485_" cx="-177.942" cy="548.244" r="1.587" gradientTransform="scale(5.3024 -5.3024) rotate(15.025 2330.388 1065.932)" gradientUnits="userSpaceOnUse"><stop offset="0" style="stop-color:#c6e7f9"/><stop offset=".006" style="stop-color:#c6e7f9"/><stop offset="1" style="stop-color:#1d2087"/></radialGradient><path style="clip-path:url(#SVGID_00000017489685428161296040000003063284394709271694_);fill:url(#SVGID_00000117661519038261228120000010069213619383780485_)" d="m220 446.4 6.5-1.7 1.6 5.9-6.5 1.7z"/><defs><path id="SVGID_00000116947713845726560480000010744238862026313655_" d="M218.4 453.6c0 .2.1.3.1.5.1 0 1.6.6 3.7.8-.3-.7-.6-1.4-.8-2.1-.2-.7-.3-1.4-.4-2-1.6-.4-2.6-1-2.9-1.2-.1 1.2-.1 2.6.3 4"/></defs><clipPath id="SVGID_00000084509374312593560300000007959756719838392723_"><use xlink:href="#SVGID_00000116947713845726560480000010744238862026313655_" style="overflow:visible"/></clipPath><radialGradient id="SVGID_00000111891419845766583570000015369265733462248122_" cx="-177.821" cy="548.226" r="1.587" gradientTransform="scale(5.3041 -5.3041) rotate(15.026 2330.2 1065.399)" gradientUnits="userSpaceOnUse"><stop offset="0" style="stop-color:#c6e7f9"/><stop offset=".006" style="stop-color:#c6e7f9"/><stop offset="1" style="stop-color:#1d2087"/></radialGradient><path style="clip-path:url(#SVGID_00000084509374312593560300000007959756719838392723_);fill:url(#SVGID_00000111891419845766583570000015369265733462248122_)" d="m216.7 449.9 5.3-1.4 1.6 6-5.3 1.5z"/><defs><path id="SVGID_00000041272011223891616290000006176925553662696872_" d="M229.9 444.1c.8.9 1.7 2 2.4 3.4 1.4-1.3 1.8-2.4 1.8-2.4-.9-1-2-1.8-3.3-2.3-.1 0-.2.6-.9 1.3"/></defs><clipPath id="SVGID_00000178206349793129308680000004015751124010009003_"><use xlink:href="#SVGID_00000041272011223891616290000006176925553662696872_" style="overflow:visible"/></clipPath><radialGradient id="SVGID_00000058584599506175013100000004882550390774664350_" cx="-177.927" cy="548.171" r="1.587" gradientTransform="scale(5.3038 -5.3038) rotate(15.025 2329.995 1065.784)" gradientUnits="userSpaceOnUse"><stop offset="0" style="stop-color:#c6e7f9"/><stop offset=".006" style="stop-color:#c6e7f9"/><stop offset="1" style="stop-color:#1d2087"/></radialGradient><path style="clip-path:url(#SVGID_00000178206349793129308680000004015751124010009003_);fill:url(#SVGID_00000058584599506175013100000004882550390774664350_)" d="m228.7 443 5.1-1.3 1.5 5.5-5.2 1.3z"/><defs><path id="SVGID_00000143589845005124589980000017707592040194478976_" d="M233 456.5c-.4 1.2-.8 2.2-1.1 2.7 2.1-1.2 3.6-3.1 4.3-5.4-.9 1-1.9 1.9-3.2 2.7"/></defs><clipPath id="SVGID_00000046324346520277139240000018221267797254246553_"><use xlink:href="#SVGID_00000143589845005124589980000017707592040194478976_" style="overflow:visible"/></clipPath><radialGradient id="SVGID_00000140011980104880324020000017612718353309397168_" cx="-177.866" cy="548.132" r="1.586" gradientTransform="matrix(5.122 -1.3749 -1.3749 -5.122 1887.46 3010.12)" gradientUnits="userSpaceOnUse"><stop offset="0" style="stop-color:#c6e7f9"/><stop offset=".006" style="stop-color:#c6e7f9"/><stop offset="1" style="stop-color:#1d2087"/></radialGradient><path style="clip-path:url(#SVGID_00000046324346520277139240000018221267797254246553_);fill:url(#SVGID_00000140011980104880324020000017612718353309397168_)" d="m230.5 454.1 5.3-1.4 1.6 6.1-5.3 1.4z"/><defs><path id="SVGID_00000161599634070066027300000009944731691275567258_" d="M227.3 460.4c-.5-.3-1.3-.8-2.3-1.7-1.4 0-2.8-.2-3.9-.7 1.7 1.5 3.9 2.4 6.2 2.4"/></defs><clipPath id="SVGID_00000016054221104363029030000000332504644655953287_"><use xlink:href="#SVGID_00000161599634070066027300000009944731691275567258_" style="overflow:visible"/></clipPath><radialGradient id="SVGID_00000179647298285095547410000009144911896753507744_" cx="-177.827" cy="548.283" r="1.589" gradientTransform="scale(5.3054 -5.3054) rotate(15.025 2330.345 1065.434)" gradientUnits="userSpaceOnUse"><stop offset="0" style="stop-color:#c6e7f9"/><stop offset=".006" style="stop-color:#c6e7f9"/><stop offset="1" style="stop-color:#1d2087"/></radialGradient><path style="clip-path:url(#SVGID_00000016054221104363029030000000332504644655953287_);fill:url(#SVGID_00000179647298285095547410000009144911896753507744_)" d="m220.5 458.2 6.4-1.7 1 3.7-6.4 1.8z"/><defs><path id="SVGID_00000116924230024397738320000013852844827302032293_" d="M218.3 449.3s1 .8 2.8 1.2c-.1-1.5.1-2.9.4-4.1-1-.2-1.4-.7-1.5-.8-.8 1.1-1.4 2.3-1.7 3.7"/></defs><clipPath id="SVGID_00000003800231388333655120000006255891472573748403_"><use xlink:href="#SVGID_00000116924230024397738320000013852844827302032293_" style="overflow:visible"/></clipPath><radialGradient id="SVGID_00000126282343090499742440000017345559516183405716_" cx="-177.771" cy="548.148" r="1.584" gradientTransform="matrix(5.12 -1.3744 -1.3744 -5.12 1886.356 3009.31)" gradientUnits="userSpaceOnUse"><stop offset="0" style="stop-color:#c6e7f9"/><stop offset=".006" style="stop-color:#c6e7f9"/><stop offset="1" style="stop-color:#1d2087"/></radialGradient><path style="clip-path:url(#SVGID_00000003800231388333655120000006255891472573748403_);fill:url(#SVGID_00000126282343090499742440000017345559516183405716_)" d="m217.1 445.9 4.1-1.1 1.5 5.4-4.2 1.1z"/><defs><path id="SVGID_00000015322227970480589660000003458083514159176328_" d="M221.4 450.8c.1.6.2 1.2.4 1.9.2.8.5 1.6.8 2.2 1.6.2 3.5.1 5.5-.4l-1.1-4c-2.3.6-4.2.6-5.6.3"/></defs><clipPath id="SVGID_00000051359976492317520200000005332762235511347110_"><use xlink:href="#SVGID_00000015322227970480589660000003458083514159176328_" style="overflow:visible"/></clipPath><radialGradient id="SVGID_00000107576079236302042020000005049916505573534868_" cx="-177.891" cy="548.107" r="1.587" gradientTransform="scale(5.3033 -5.3033) rotate(15.026 2329.747 1065.613)" gradientUnits="userSpaceOnUse"><stop offset="0" style="stop-color:#c6e7f9"/><stop offset=".006" style="stop-color:#c6e7f9"/><stop offset="1" style="stop-color:#1d2087"/></radialGradient><path style="clip-path:url(#SVGID_00000051359976492317520200000005332762235511347110_);fill:url(#SVGID_00000107576079236302042020000005049916505573534868_)" d="m220.3 450.9 7.3-2 1.6 5.9-7.4 1.9z"/><defs><path id="SVGID_00000086694142321327745100000008766056776989031096_" d="M222.7 455.2c.7 1.4 1.6 2.4 2.4 3.3 1.2 0 2.5-.2 3.8-.5l-.8-3.1c-1.9.4-3.8.4-5.4.3"/></defs><clipPath id="SVGID_00000016066056583551784460000016581172208172360875_"><use xlink:href="#SVGID_00000086694142321327745100000008766056776989031096_" style="overflow:visible"/></clipPath><radialGradient id="SVGID_00000060002061947207211950000009339010566660758966_" cx="-177.93" cy="548.216" r="1.585" gradientTransform="scale(5.3016 -5.3016) rotate(15.025 2330.324 1065.884)" gradientUnits="userSpaceOnUse"><stop offset="0" style="stop-color:#c6e7f9"/><stop offset=".006" style="stop-color:#c6e7f9"/><stop offset="1" style="stop-color:#1d2087"/></radialGradient><path style="clip-path:url(#SVGID_00000016066056583551784460000016581172208172360875_);fill:url(#SVGID_00000060002061947207211950000009339010566660758966_)" d="m221.8 455 6.7-1.8 1.4 5-6.8 1.8z"/><defs><path id="SVGID_00000094615065417794667760000008016405036742147003_" d="m228.3 454.7.8 3.1c1.3-.4 2.5-.9 3.5-1.5.3-1.1.5-2.5.5-4-1.2 1-2.8 1.9-4.8 2.4"/></defs><clipPath id="SVGID_00000168832454358650018580000009035240915639363750_"><use xlink:href="#SVGID_00000094615065417794667760000008016405036742147003_" style="overflow:visible"/></clipPath><radialGradient id="SVGID_00000166671998591977221630000005446313919939713171_" cx="-177.938" cy="548.203" r="1.587" gradientTransform="scale(5.3031 -5.3031) rotate(15.025 2330.171 1065.874)" gradientUnits="userSpaceOnUse"><stop offset="0" style="stop-color:#c6e7f9"/><stop offset=".006" style="stop-color:#c6e7f9"/><stop offset="1" style="stop-color:#1d2087"/></radialGradient><path style="clip-path:url(#SVGID_00000168832454358650018580000009035240915639363750_);fill:url(#SVGID_00000166671998591977221630000005446313919939713171_)" d="m227 452.7 5.9-1.6 1.7 6.4-5.9 1.6z"/><defs><path id="SVGID_00000017493317320131460640000005943051569724431240_" d="M232.4 447.7c.3.6.5 1.2.7 1.9.2.8.3 1.5.4 2.2 1.8-1.3 2.8-2.6 2.8-2.6 0-.2-.1-.3-.1-.5-.4-1.4-1-2.6-1.9-3.6-.2.4-.7 1.5-1.9 2.6"/></defs><clipPath id="SVGID_00000089546951676448008070000017441328217518382234_"><use xlink:href="#SVGID_00000017493317320131460640000005943051569724431240_" style="overflow:visible"/></clipPath><radialGradient id="SVGID_00000158023353980484043120000010784420655616766635_" cx="-177.782" cy="548.237" r="1.587" gradientTransform="scale(5.3018 -5.3018) rotate(15.026 2330.383 1065.302)" gradientUnits="userSpaceOnUse"><stop offset="0" style="stop-color:#c6e7f9"/><stop offset=".006" style="stop-color:#c6e7f9"/><stop offset="1" style="stop-color:#1d2087"/></radialGradient><path style="clip-path:url(#SVGID_00000089546951676448008070000017441328217518382234_);fill:url(#SVGID_00000158023353980484043120000010784420655616766635_)" d="m230.7 445.7 5.3-1.4 1.9 7.1-5.3 1.5z"/><path style="fill:#003c20" d="m224.2 440.1.6 2.3.2-.1-.6-2.3z"/><defs><path id="SVGID_00000127003992833648275870000004798844951989542072_" d="M215.7 439.3H212.5c0-.3 2.2-.8 4.6-.8 2.4 0 3.2.3 3.2.6 0 .1-.1.2-.2.2-.3 0-1.1.1-3.8.1-.3-.1-.4-.1-.6-.1m-6.3.9c0 .4.5.8 1.7 1.2 1.2.4 9.1.5 12.9-1.4-.1 0-10.8.7-11.8-.3-.2-.2 0-.2 1.1-.2h7.6c1.7 0 2.8.1 3 0 .1 0-2.6-1.8-6.1-1.8-4.9.1-8.4 1.4-8.4 2.5"/></defs><clipPath id="SVGID_00000020387443085197866320000014081471722919220658_"><use xlink:href="#SVGID_00000127003992833648275870000004798844951989542072_" style="overflow:visible"/></clipPath><linearGradient id="SVGID_00000034800108183658344000000003117908769081540501_" gradientUnits="userSpaceOnUse" x1="-90.821" y1="579.855" x2="-89.235" y2="579.855" gradientTransform="matrix(-7.4529 .0367 .0367 7.4529 -470.908 -3878.47)"><stop offset="0" style="stop-color:#003c21"/><stop offset=".006" style="stop-color:#003c21"/><stop offset="1" style="stop-color:#4a8537"/></linearGradient><path style="clip-path:url(#SVGID_00000020387443085197866320000014081471722919220658_);fill:url(#SVGID_00000034800108183658344000000003117908769081540501_)" d="m224 441.9-14.6.1v-4.2l14.6-.1z"/><defs><path id="SVGID_00000054233465870917048360000005338529810630670737_" d="M229.4 434.9c-5.5 3.3-5.3 5.2-5.3 5.2 2.3-.1 7.8-.7 12.6-5.8.8-.9.3-1.2-.8-1.2-1.7 0-4.8.8-6.5 1.8"/></defs><clipPath id="SVGID_00000026142835875920091290000014663489833748285842_"><use xlink:href="#SVGID_00000054233465870917048360000005338529810630670737_" style="overflow:visible"/></clipPath><linearGradient id="SVGID_00000013167243847356378610000000940235593944863640_" gradientUnits="userSpaceOnUse" x1="-48.412" y1="560.705" x2="-46.825" y2="560.705" gradientTransform="scale(-3.746 3.746) rotate(29.263 795.66 313.323)"><stop offset="0" style="stop-color:#4a8537"/><stop offset="1" style="stop-color:#003c21"/></linearGradient><path style="clip-path:url(#SVGID_00000026142835875920091290000014663489833748285842_);fill:url(#SVGID_00000013167243847356378610000000940235593944863640_)" d="m240.5 438.4-13.3 7.5-6.2-11.2 13.3-7.4z"/><path class="st24" d="M208.6 466.1c0-.6.4-1 1-1s1 .5 1 1h-2zm2.9.5c.1-1.1-.6-2.2-1.9-2.2-1.2 0-1.9.9-1.9 2 0 1.2.7 2 1.9 2 .9 0 1.6-.5 1.8-1.3h-.8c-.2.4-.5.6-1 .6-.7 0-1.1-.5-1.1-1.1h3zM214.7 465.8c-.1-.5-.4-.7-.9-.7s-1.1.2-1.1 1.4c0 .6.3 1.3 1 1.3.5 0 .9-.3.9-.9h.9c-.2 1-.8 1.5-1.8 1.5-1.2 0-1.9-.9-1.9-2 0-1.2.7-2.1 2-2.1.9 0 1.7.4 1.8 1.4h-.9zM217.9 467.8c-.8 0-1.1-.7-1.1-1.4s.3-1.4 1.1-1.4 1.1.7 1.1 1.4-.3 1.4-1.1 1.4m0 .6c1.3 0 2-.8 2-2s-.7-2-2-2-2 .8-2 2 .7 2 2 2M221.6 464.5h.6v-.3c0-1 .5-1.1 1.1-1.1h.6v.7h-.4c-.2 0-.4.1-.4.4v.4h.7v.6h-.7v3.2h-.9v-3.2h-.6v-.7zM224 464.5h.8v.7c.1-.4.6-.8 1.2-.8h.3v.8h-.4c-.6 0-1.1.5-1.1 1.3v1.8h-.8v-3.8zM226.7 463.8h.9v-.8h-.9v.8zm0 4.5h.9v-3.8h-.9v3.8zM228.8 466.1c0-.6.4-1 1-1s1 .5 1 1h-2zm2.9.5c.1-1.1-.6-2.2-1.9-2.2-1.2 0-1.9.9-1.9 2 0 1.2.7 2 1.9 2 .9 0 1.6-.5 1.8-1.3h-.8c-.2.4-.5.6-1 .6-.7 0-1.1-.5-1.1-1.1h3zM232 464.5h.8v.6c.3-.4.7-.7 1.2-.7.9 0 1.4.4 1.4 1.3v2.6h-.9v-2.4c0-.6-.3-.9-.8-.9-.6 0-1 .4-1 1v2.3h-.7v-3.8zM236.7 466.5c0-.7.3-1.4 1.1-1.4.7 0 1.1.5 1.1 1.4 0 .7-.3 1.4-1.1 1.4-.7-.1-1.1-.8-1.1-1.4m3.1-3.5h-.9v2c-.3-.4-.8-.6-1.3-.6-.9 0-1.7.6-1.7 2 0 1.2.6 2.1 1.9 2.1.5 0 1-.2 1.2-.6v.5h.8V463zM240.4 463h.9v5.3h-.9zM241.4 464.5h1l1 2.9 1-2.9h.9l-1.5 4c-.3.7-.5 1.3-1.4 1.3h-.6v-.7c.1 0 .3.1.4.1.4 0 .5-.2.6-.5l.1-.3-1.5-3.9z"/><path class="st25" d="m192.8 445.4-80.1-37.9v-104l80.1 35.7z"/><path style="fill:#ffe200;stroke:#231815;stroke-width:.7165;stroke-linecap:round;stroke-linejoin:round;stroke-miterlimit:3.8636" d="m146.4 431.2 9.4-4.5v-104l-9.4 4.4z"/><path class="st27" d="m182.6 452.3-80-38v-104l80 35.7z"/><path class="st28" d="m157.4 466.5-88.3-44.1v-90.1l88.3 39.2z"/><path class="st25" d="m192.8 445.4 3-1.3V337.8l-3 1.4z"/><path style="fill:none;stroke:#231815;stroke-width:.7179;stroke-linecap:round;stroke-linejoin:round;stroke-miterlimit:3.8636" d="m146.4 327.1 9.4-4.4-13.7-6.1-9.3 4.4z"/><path class="st25" d="m192.8 339.2-80.1-35.7 3.1-1.4 80 35.7z"/><path class="st28" d="m157.4 371.5-88.3-39.2 33.5-11.7 80 35.7z"/><path class="st27" d="m182.6 346-80-35.7 3.1-1.4 80 35.7z"/><path class="st30" d="m145.2 322.4 7.9-17.8h57.5M107.7 311.5l-7.8-18h-44M188.2 342.1l7.8-15h14.6M195.8 367.6h13.5M58.1 327l25.9 4.9"/><path class="st31" d="m99.3 346.3 40.4-8.6M103 347.3l40.4-8.7M105.7 348.6l40.4-8.6"/><path class="st27" d="M182.6 346v106.6l3.1-1.7h0V344.6z"/><path style="fill:#ccc;stroke:#231815;stroke-width:.7165;stroke-linecap:round;stroke-linejoin:round;stroke-miterlimit:3.8636" d="M157.4 371.5v95l25.2-13.9v-96.3z"/><path class="st31" d="m157 403.1 25.6 13.4M157 404.9l25.6 13.4M157 406.7l25.6 13.5"/><linearGradient id="SVGID_00000124148375868089095700000011491543634115092890_" gradientUnits="userSpaceOnUse" x1="112.322" y1="1006.173" x2="140.59" y2="896.863" gradientTransform="matrix(.9638 .1903 -.0008 .8878 -9.525 -467.483)"><stop offset=".006" style="stop-color:#c29141"/><stop offset=".135" style="stop-color:#713718"/><stop offset=".286" style="stop-color:#c29141"/><stop offset=".416" style="stop-color:#713718"/><stop offset=".562" style="stop-color:#c29141"/><stop offset=".736" style="stop-color:#713718"/><stop offset=".876" style="stop-color:#c29141"/><stop offset="1" style="stop-color:#713718"/></linearGradient><path style="fill:url(#SVGID_00000124148375868089095700000011491543634115092890_)" d="m95 347.3-25.3-10.9-3.8 1v11.9l4.2 2-4.2.4V364l4.1 2-4.1.4V378l3.9 2-3.9.4V392l4 2-4 .4-.1 12.6 3.8 2-3.8.4v15.7l25 12.4 3.3-.3.1 1.9 28.5 14.1 3.3-1v2.7l26.5 14.1 4.4-2.4.1-60.9-30.9-14.4v-15.2l-30.9-13.8z"/><path class="st34" d="m98.4 422.7-4.1.4-.1 16 28.5 14.1 2.9-.8M69.7 409l-3.8.4v15.7l25 12.3 3.2-.3M98.5 407.4l-4.2.4v12.8l28.4 13.8 3.1-.9M70 393.9l-4.1.4V407l25 12 3.1-.2M70.1 365.9l-4.2.5V378l25 11.5 3.3-.2M70.2 351.2l-4.2.5-.1 12.3 25 11.3 3.2-.3M69.8 336.3l-3.8 1v12l24.9 11 4.1-.4M129.3 437.6l-3.2.9v16.3l26.5 14.1 4.4-2.4M129.4 422l-3.3.9V436l27.1 13.1 3.6-1M129.3 407.5l-3.2.8v12.1l27.2 12.8 3.5-.8M98.5 393.2l-4.2.3v11.9l28.5 13.4 3.1-.9"/><path class="st34" d="m69.9 379.9-4 .4V392l25 11.8 3.1-.3M129.8 393l-4.3.4v11.8l28.5 13.2 3.2-.9M98.7 363.9l-4.4.4v12.5l28.5 13 3.2-.9"/><path style="fill:none;stroke:#231815;stroke-width:.4775;stroke-linecap:round;stroke-linejoin:round;stroke-miterlimit:3.8636" d="m69.8 336.4 25.4 10.8v15.1l31 13.7-.1 15.3 30.9 14.3v60.9"/><path class="st36" d="m66 337.3 24.9 10.9 4.2-1M90.9 348.3v12M126.1 438.5l27.1 13.1 3.8-1M94.3 423.1l28.4 13.8 3.4-.9M65.9 409.4l25 12 4.3-.3M126.1 422.9l27.2 12.8 3.7-.9M94.3 407.8l28.5 13.5 3.3-1M65.9 394.3l25 11.9 3.9-.4M126.1 408.3l27.2 12.6 3.7-.7M94.3 393.5l28.5 13.3 3.3-1M65.9 380.3l25 11.7 4.2-.4M94.3 379.3l28.5 13 3.4-1M65.9 366.4l25 11.3 4.4-.3M94.3 364.3l28.5 12.7 3.3-.9M66 351.7l24.9 11.1 4.3-.5M90.9 362.8v12.5M90.9 377.7v11.8M90.9 392v11.8M90.9 406.2V419M90.9 421.4v16M122.8 377v12.8M122.8 392.3v12"/><path class="st34" d="m98.6 378.9-4.3.4v11.8l28.5 13.2 2.8-.7"/><path class="st36" d="m94.3 379.3 28.5 13 3.4-1M122.8 392.3v12"/><path class="st34" d="m129.8 393-4.3.4v11.8l28.5 13.2 3.2-.9"/><path class="st34" d="m129.8 393-4.3.4v11.8l28.5 13.2 3.2-.9"/><path class="st36" d="m125.5 393.4 28.5 12.9 3.4-.9M154 406.3v12.1M122.8 406.8v12M122.8 421.3v13.1M122.8 436.9l-.1 16.2M153.3 420.9v12.3M153.3 435.8v13.3M153.3 451.7l-.7 17.2"/><path class="st30" d="m39.2 411.9 31.5-8.3"/><path class="st24" d="M16.2 410.6c-.1.1-.2.1-.2.2-.6 1.3-.7 1.5-1 2 .3.2.5.4.8.6l-.4.5c-.3-.3-.5-.5-.7-.6-.3.3-.6.7-1.2 1.2-.7.5-1.2.6-1.7.8l-.4-.6c.4-.1.9-.2 1.5-.6.7-.4 1-.8 1.3-1.1-.4-.3-.7-.4-1.4-.7l.4-.5c.7.3 1.1.6 1.3.7.5-.8.7-1.4.9-1.8h-2.3c-.7 1-1.2 1.4-1.6 1.7l-.5-.4c.5-.3 1-.7 1.6-1.6.5-.7.7-1.2.8-1.4l.6.3c.1 0 .1.1.1.1 0 .1-.2.1-.3.1-.1.2-.1.3-.4.7h1.9c.1 0 .4 0 .5-.1l.4.5zM19.7 415.2v-3.8c-.9.6-1.5 1-2.1 1.2l-.6-.5c.7-.2 1.4-.4 2.6-1.3 1.1-.8 1.6-1.4 2-1.9l.5.5.1.1s0 .1-.1.1h-.2c-.7.6-.9.8-1.6 1.4v4.3h-.6zM22.9 414.2c.8-.4 1.7-1 1.7-3.4v-1.2l.6.1s.2 0 .2.1c0 0 0 .1-.2.2 0 1.5 0 1.9-.1 2.4-.3 1.4-1 1.9-1.6 2.4l-.6-.6zm3.5-4.8h.6c.1 0 .1 0 .1.1s0 .1-.2.2v4c.4-.2.7-.4 1.3-1 .5-.5.7-.9.9-1.2l.4.5c-.3.4-.5.8-1.3 1.5-.7.6-1.2.9-1.6 1.1l-.4-.3v-4.9zM30.2 415.2c.5-.7.8-1.1.9-1.4l.5.3c.1 0 .1.1.1.1 0 .1-.1.1-.2.1-.3.5-.5.8-.8 1.2l-.5-.3zm.3-6.5H33v4.8h-2.5v-4.8zm2 1.5v-1h-1.4v1h1.4zm0 1.4v-1h-1.4v1h1.4zm0 1.4v-1h-1.4v1h1.4zm-.1.8c.3.6.7 1 .9 1.1l-.4.3c-.5-.5-.7-1-.9-1.2l.4-.2zm2.9-3.2v1.5h1.6v3.4h-.6v-.4H34v.4h-.5V412h1.3v-3.6l.6.1c.1 0 .1 0 .1.1l-.2.2v1.3h1.8v.6h-1.8zm1 4.1v-2H34v2h2.3zM15.3 297v.4h-.5v-6.8l.6.1c.1 0 .2 0 .2.1s-.1.1-.2.2v5.5h2.8v.5h-2.9zm2.8-1.9c-.3-.3-.5-.6-.8-1.1v2.2h-.5v-2.1c-.2.5-.5 1-1 1.6l-.4-.3c.5-.6.9-1.3 1.2-2h-1v-.5h1.3v-2.3l.6.1c.1 0 .2 0 .2.1s-.1.1-.2.2v2h1.2v.5h-1c.1.2.3.6 1 1.4l-.6.2zm-2-2.6c-.2-.6-.4-.9-.6-1.3l.4-.2c.3.6.5 1 .6 1.3l-.4.2zm2.3-1.2c-.2.5-.3.8-.5 1.2l-.4-.2c.3-.6.5-1 .6-1.4l.5.2.1.1c-.1 0-.2 0-.3.1zm2.3 2v4.1h-.6v-4.1h-.7c0 1 0 3-.7 4.1l-.6-.2c.7-1 .8-2.6.8-4 0-.6 0-1.3-.1-1.9 0-.2 0-.3-.1-.5l.6.1c.1 0 .6-.1.8-.2.4-.1.6-.2.7-.3l.4.4.1.1c0 .1-.1.1-.1.1H21c-.6.2-1.1.3-1.6.4v1.5h2.2v.5h-.9zM25.2 293.5h-.5c-.4 0-.4-.2-.4-.4v-.5h-.6c-.2.5-.5.9-1.3 1.3l-.3-.4c.6-.3.9-.5 1.1-.9h-.8v-.5h1.4v-.6h-1.1v-.5h1.1v-.6h.6s.1 0 .1.1-.1.1-.2.1v.4h1.1v.5h-1.1v.6h1.3v.5h-.8v.3c0 .2 0 .2.3.2.1 0 .2 0 .3-.3l.4.2c0 .3-.1.5-.6.5zm-.9.8v.6c.4-.1.6-.1 1-.2v.5c-1 .3-2.2.6-2.6.6 0 .1-.1.2-.2.2 0 0-.1 0-.1-.1l-.2-.6c.4 0 .7-.1 1.4-.2v-.8h-1.2v-.4h1.2v-.6l.6.1s.1 0 .1.1-.1.1-.1.1v.3h1.2v.4h-1.1zm-.5 2.1c-.3.5-.5.9-.8 1.2l-.4-.4c.4-.4.7-.7.9-1.3l.5.3.1.1c-.1.1-.2.1-.3.1zm1.2 1c-.1-.1-.3-.7-.6-1.2l.4-.2c.3.4.5.7.6 1.1l-.4.3zm3.5-1.6c-.5 0-.8-.8-.8-1.8 0-.1 0-.8.2-1.7h-.7c0 .8-.2 1.3-.2 1.6.4.5.5.6.6.8l-.4.4c-.1-.1-.4-.5-.4-.6-.2.4-.5.9-1.1 1.5l-.4-.3c.7-.6 1-1.1 1.2-1.6-.2-.3-.3-.4-.6-.6l.3-.4c.1.1.1.1.5.4.1-.4.1-.6.1-1.1h-.9v-.5h1v-1.4l.6.1s.1 0 .1.1-.1.1-.2.2v1.1h1.4c-.4 1.3-.4 1.5-.4 2.1 0 .3 0 1.1.3 1.1.2 0 .2-.1.5-1l.5.3c-.5 1-.9 1.3-1.2 1.3zm-1.7 1.5c-.1-.3-.3-.6-.6-1.1l.4-.3c.5.6.6 1 .7 1.2l-.5.2zm1.7.1c-.2-.6-.6-1.1-.7-1.2l.4-.2c.3.4.6.8.8 1.2l-.5.2zM32.9 294.8c-.2-.1-.4-.4-.8-1.1v3.8h-.5v-3.6c-.2.6-.6 1.3-1.1 2.1l-.6-.3c.4-.5 1-1.3 1.5-2.8h-1.2v-.5h1.4v-1.9l.6.1s.1 0 .1.1-.2.2-.2.2v1.6h1.1v.5h-.8c.2.5.5 1 1 1.4l-.5.4zm3.3-1.9v3.9c0 .6-.3.7-1.2.7l-.2-.7c.3 0 .4.1.6.1.3 0 .3-.1.3-.4v-3.3c-.2.8-.7 2-2 3.4l-.6-.3c.5-.5 1-1 1.3-1.6.3-.6.6-1.2.8-1.8h-1.4v-.5h1.9v-1.9h.6s.1 0 .1.1-.1.1-.2.2v1.6h.8v.5h-.8zM40.3 295.2h-1.6v.7h-.6v-4.6h2.2v2c.6-.9.9-1.9 1.1-2.9l.6.1s.1 0 .1.1-.1.2-.2.2c-.1.4-.1.7-.3 1.1h3.1l.1.2c-.6.9-1 1.6-1.6 2.2l-.4-.4c.2-.2.5-.4 1.2-1.4h-1.6v1c0 .8.3 1.7.8 2.3.6.7 1.2 1 1.8 1.3l-.5.4c-1.8-.9-2.2-2-2.4-2.7-.2.8-.7 2-2.4 2.8l-.5-.5c.7-.3 1.5-.6 2.1-1.7.3-.7.5-1.4.5-2.8h-.4c-.2.5-.4.9-.7 1.3l-.5-.3v1.6zm-.6-3.4h-1.1v2.9h1.1v-2.9zM45.6 293.5c.5-.4.9-1 1.2-1.5.5-.7.7-1.3.9-1.6l.5.3.1.1c0 .1-.1.1-.2.1-.1.3-.6 1.1-.7 1.3.1 0 .2.1.2.2s0 .1-.1.2v5h-.6V293c-.2.3-.6.7-.8 1l-.5-.5zm5.8 3.2c0 .6-.5.7-.7.7h-.6l-.2-.6h.7c.2 0 .2 0 .2-.3v-3.7H48v-.5h2.8v-1.9l.6.1c.1 0 .1 0 .1.1s-.1.1-.1.2v1.6h1.2v.5h-1.2v3.8zm-2.6-2.9c.2.3.8 1.2 1 1.6l-.5.3c-.3-.6-.7-1.3-1-1.6l.5-.3zM12.6 328.6v-.6H17v-3.1h-4.3v-.6h4.9v4.7H17v-.4h-4.4zM24.4 326.1c-.9.9-1.8 1.8-5.1 3l-.1.2c-.1 0-.1-.1-.1-.2l-.3-.6c.8-.1 1.6-.3 3.1-1.1 1.4-.8 1.9-1.4 2.3-1.8l.2.5zm-4.1-.7c-.4-.5-.8-.9-1.3-1.3l.5-.4c.2.2.9.8 1.4 1.4l-.6.3zM29.8 324.3h.3l.4.4c-.3.2-.3.3-.4.5-.6 1.7-1.1 2.4-2 3.3-.5.5-.9.8-1.6 1.1l-.6-.5c.7-.3 1.5-.7 2.4-1.8.8-1 1-1.8 1.2-2.5h-2.4c-.3.5-.7.9-1.5 1.7l-.5-.4c.4-.3.9-.7 1.4-1.4.5-.6.6-1 .7-1.3l.6.2c.1.1.2.1.2.1 0 .1-.1.1-.3.1-.1.2-.2.3-.3.5h2.4zM32.3 323.6c.1 0 .2 0 .2.1 0 0 0 .1-.1.2v3.4h-.6v-3.7h.5zm.3 5.6c.9-.3 1.2-.6 1.6-.9.5-.5.8-1.2.8-2.4v-2.4h.6s.2 0 .2.1l-.1.2c0 2.2 0 3-.3 3.9-.4 1.1-1.4 1.7-2.2 2l-.6-.5zM36.8 326.9v-.6h5.6v.6h-5.6zM44.4 325.5c1.3.6 1.8.9 2.6 1.5l-.4.5c-.2-.2-.5-.5-1.1-.8-.6-.4-1-.6-1.3-.7v3.5h-.6v-6.1h.6s.2 0 .2.1l-.2.2v2.2l.2-.4zM48.9 325c0 .7 0 1.6-.7 2.6l-.5-.3c.6-.8.7-1.6.7-2.7 0-.4 0-.8-.1-1.3h2.5v1.6h-1.9zm-.9 4.6v-.5h3v-.6h-2.2v-.5H51v-.7l.6.1s.1 0 .1.1-.1.1-.2.2v.5h2.2v.5h-2.2v.6h3v.5H48zm2.3-5.8h-1.4v.8h1.4v-.8zm-1.4 3.6v-1.7h1.8v1.7h-1.8zm1.3-1.3h-.9v.9h.9v-.9zm3-.3v.7h1.2v.5h-1.2v.8h-.5v-.8h-1.2v-.5h1.2v-.7h-1.4v-.5h3.3v.5h-1.4zm-1.7-1.6v-.5h1.2v-.7h.6c.1 0 .1 0 .1.1s-.1.1-.2.2v.4h1.1v.5h-2.8zm.7 1.1c-.1-.2-.2-.5-.4-.8l.4-.2c.2.3.4.6.5.8l-.5.2zm1.7-.6c-.2.3-.2.4-.3.6l-.4-.3c.2-.3.3-.4.4-.8l.5.3.1.1c0 .1-.1.1-.3.1zM218.1 302.7c-.1-.3-.3-1.3-1.6-1.3-1.7 0-1.8 1.9-1.8 2.4 0 1.3.6 2.4 1.7 2.4 1.5 0 1.7-1.6 1.7-2h-1.5v-.5h2.2v3h-.6v-.7c-.3.4-.8.9-1.8.9-1.6 0-2.4-1.3-2.4-3 0-1.3.6-3 2.6-3 1.3 0 2.1.7 2.3 1.8h-.8zM220 306.6V301h.7v5.1h2.8v.6H220zM224.1 305.4c.2-.2.5-.4.9-.9s.5-.7.6-.9l.6.3c.1 0 .1.1.1.1 0 .1-.1.1-.3.1-.2.4-.8 1.1-1.4 1.6l-.5-.3zm2.9-2.6h-2.5v-.6h2.5v-1.5l.6.1c.1 0 .2 0 .2.1s0 .1-.2.2v1.2h2.4v.6h-2.4v2.9c0 .5 0 .8-.6.9h-.8l-.2-.7c.2 0 .5.1.7.1.2 0 .3-.1.3-.3v-3zm1.7.8c.7.6 1.2 1.3 1.5 1.7l-.6.3c-.5-.8-1.1-1.4-1.4-1.7l.5-.3zm.6-1.9c-.1-.1-.4-.5-.7-.8l.4-.3c.2.2.5.5.7.8l-.4.3zm.9-.5-.7-.7.4-.3.7.7-.4.3zM236.7 303.3c-.9.9-1.8 1.8-5.1 3l-.1.2c-.1 0-.1-.1-.1-.2l-.3-.6c.8-.1 1.6-.3 3.1-1.1 1.4-.8 1.9-1.4 2.3-1.8l.2.5zm-4.1-.6c-.4-.5-.8-.9-1.3-1.3l.5-.4c.2.2.9.8 1.4 1.4l-.6.3zM238.6 302.7c1.3.6 1.9 1 2.5 1.5l-.4.5c-.9-.8-1.7-1.2-2.4-1.5v3.5h-.6v-6.1h.6c.1 0 .2 0 .2.1l-.2.2v2.2l.3-.4zm2-.7c-.2-.3-.5-.6-.7-.7l.4-.4c.3.2.6.6.7.8l-.4.3zm.9-.5c-.2-.3-.5-.6-.7-.8l.4-.3c.3.2.6.5.8.8l-.5.3zM216.3 331.6v.5h-.6V329c-.5.6-.9 1-1.4 1.3l-.5-.4c.9-.6 2.1-1.9 2.6-3.8H214v-.5h6.7v.5H217c-.2.9-.5 1.5-.9 2.1h4.1v3.8h-.6v-.4h-3.3zm3.4-.5v-2.3h-3.4v2.3h3.4zM221.7 326.1v-.5h3.1v-.6l.7.1s.1 0 .1.1c0 0 0 .1-.2.1v.3h3.2v.5h-6.9zm6.3 2.9v-.8h-5.7v.9h-.5v-1.3h6.8v1.2h-.6zm-5.2.5v-.9h4.7v.9h-4.7zm4.1 2.7h-.7l-.2-.5c.3 0 .7.1.7.1.1 0 .2 0 .2-.1v-.1h-3.6v.7h-.5V330h4.7v1.9c0 .1-.2.3-.6.3zm-3.7-4.7v-1h4v1h-4zm3.7 1.4h-3.6v.3h3.6v-.3zm0 1.3h-3.6v.2h3.6v-.2zm0 .6h-3.6v.2h3.6v-.2zm-.3-4h-2.8v.3h2.8v-.3zM229.4 330.4c.2-.2.5-.4.9-.9s.5-.7.6-.9l.6.3c.1 0 .1.1.1.1 0 .1-.1.1-.3.1-.2.4-.8 1.1-1.4 1.6l-.5-.3zm2.9-2.6h-2.5v-.6h2.5v-1.5l.6.1c.1 0 .2 0 .2.1s0 .1-.2.2v1.2h2.4v.6h-2.4v2.9c0 .5 0 .8-.6.9h-.8l-.2-.7c.2 0 .5.1.7.1.2 0 .3-.1.3-.3v-3zm1.7.8c.7.6 1.2 1.3 1.5 1.7l-.6.3c-.5-.8-1.1-1.4-1.4-1.7l.5-.3zm.6-1.9c-.1-.1-.4-.5-.7-.8l.4-.3c.2.2.5.5.7.8l-.4.3zm1-.5-.7-.7.4-.3.7.7-.4.3zM236.5 329.2v-.6h5.6v.6h-5.6zM244.2 327.7c1.3.6 1.9 1 2.5 1.5l-.4.5c-.9-.8-1.7-1.2-2.4-1.5v3.5h-.6v-6.1h.6c.1 0 .2 0 .2.1l-.2.2v2.2l.3-.4zm2-.7c-.2-.3-.5-.6-.7-.8l.4-.4c.3.2.6.6.7.8l-.4.4zm1-.5c-.2-.3-.5-.6-.7-.8l.4-.3c.3.2.6.5.8.8l-.5.3zM216.7 337.3c-.1-.2-.1-.3-.2-.5-.1 0-.5.1-.7.1v3.3h-.6V337c-.1 0-.6.1-1 .1 0 .1 0 .2-.1.2 0 0-.1 0-.1-.2v-.6h.6c.1-.1.1-.1.4-.5.1-.1.2-.3.3-.4-.4-.4-.8-.7-1.2-1l.3-.4c.2.1.3.2.4.3.2-.2.4-.6.8-1.3l.5.3c.1 0 .1.1.1.1 0 .1-.2.1-.2.1-.3.5-.5.8-.8 1.2.1.1.4.3.4.4.2-.3.5-.7.7-1l.5.3c.1 0 .1.1.1.2s-.1.1-.3.1c-.9 1.2-1.1 1.5-1.4 1.7.4 0 .8-.1 1.1-.1l-.2-.4.4-.2c.3.5.5.9.7 1.3l-.5.1zm-1.8.6c-.1.9-.2 1.5-.4 2l-.6-.1c.2-.6.4-1.5.4-2.2l.5.1s.1 0 .1.1c.1 0 0 .1 0 .1zm1.6 1.8c-.1-.8-.3-1.5-.4-2l.5-.1c.2.5.4 1.1.5 1.9l-.6.2zm3.9-.2c-.2.7-.7.8-1.1.8h-.6l-.2-.7c.4.1.6.1.8.1.6 0 .6-.5.7-1 .1-1 .1-2.2.1-3.3h-2.2c-.3.4-.4.6-.6.9l-.5-.3c.7-.8 1.1-1.6 1.6-2.6l.5.3c.1 0 .1.1.1.1 0 .1-.2.1-.2.1-.1.3-.3.7-.5 1h2.4c0 1.1 0 3.5-.3 4.6zm-1.8-1.3c-.2-.6-.4-1-.7-1.5l.5-.2c.3.7.5 1.1.7 1.5l-.5.2zM223.5 339.8c-.8 0-1.7-.4-1.9-1.4h.7c.1.2.2.8 1.1.8 1.5 0 1.6-1.7 1.6-2.3-.1.2-.6.8-1.6.8s-2-.6-2-1.9c0-1.1.8-2 2.1-2 .9 0 1.4.4 1.7.9.4.6.5 1.6.5 2 .2 1.8-.6 3.1-2.2 3.1zm.2-5.4c-.8 0-1.4.5-1.4 1.4 0 .5.2 1.4 1.3 1.4.8 0 1.4-.5 1.4-1.3 0-.6-.3-1.5-1.3-1.5zM226.8 339.7v-.8h.8v.8h-.8zM230.6 339.8c-1.2 0-1.9-.6-2.1-1.6h.7c.1.7.7 1 1.3 1 .8 0 1.5-.5 1.5-1.4 0-.3-.1-1.3-1.4-1.3-.3 0-.9.1-1.2.5h-.7l.5-3.1h3.2v.6h-2.6l-.3 1.7c.2-.1.5-.4 1.2-.4 1.2 0 2 .7 2 1.9.1 1.4-.9 2.1-2.1 2.1zM238.4 339.7v-3c0-.3-.1-.9-.8-.9-1.1 0-1.1 1-1.1 1.1v2.7h-.7v-3c0-.7-.5-.8-.8-.8-1 0-1 1-1 1.1v2.7h-.6v-4.1h.6v.5c.2-.4.5-.7 1.2-.7.8 0 1.1.5 1.2.7.2-.3.5-.7 1.3-.7 1 0 1.3.7 1.3 1.3v3h-.6zM244.8 339.7v-3c0-.3-.1-.9-.8-.9-1.1 0-1.1 1-1.1 1.1v2.7h-.7v-3c0-.7-.5-.8-.8-.8-1 0-1 1-1 1.1v2.7h-.6v-4.1h.6v.5c.2-.4.5-.7 1.2-.7.8 0 1.1.5 1.2.7.2-.3.5-.7 1.3-.7 1 0 1.3.7 1.3 1.3v3h-.6zM214.7 369c0 .9.3 1 1.3 1 1.4 0 1.8-.1 2.8-.3v.7c-.8.1-1.4.1-3.1.1-1.4 0-1.6-.4-1.6-1.5v-4.3l.6.1c.1 0 .2.1.2.1s0 .1-.2.2v2c1.4-.2 2.3-.5 3.6-1.1l.4.5v.1c0 .1 0 .1-.1.1h-.2c-1.9.7-2.8.8-3.7 1v1.3zm3.7-3.4-.7-.7.3-.3.7.7-.3.3zm1-.5-.7-.7.3-.3c.3.2.6.5.7.7l-.3.3zM220.2 369.1h5.9v.6h-5.9v-.6zm.9-2.9v-.6h4.3v.6h-4.3zM227.1 368.1v-.6h5.6v.6h-5.6zM233.6 369.8c.8-.4 1.7-1 1.7-3.4v-1.2l.6.1s.2 0 .2.1c0 0 0 .1-.2.2 0 1.5 0 1.9-.1 2.4-.3 1.4-1 1.9-1.6 2.4l-.6-.6zm3.5-4.8h.6c.1 0 .1 0 .1.1 0 0 0 .1-.2.2v4c.4-.2.7-.4 1.3-1 .5-.5.7-.9.9-1.2l.4.5c-.3.4-.5.8-1.3 1.5-.7.6-1.2.9-1.6 1.1l-.4-.3V365zM218.6 373.5h.3l.4.4c-.3.2-.3.3-.4.5-.6 1.7-1 2.4-2 3.3-.5.5-.9.8-1.6 1.1l-.6-.5c.7-.3 1.5-.7 2.4-1.8.8-1 1-1.8 1.2-2.5h-2.4c-.3.5-.7.9-1.5 1.7l-.5-.4c.4-.3.9-.7 1.4-1.4.5-.6.6-1 .7-1.3l.6.2c.1.1.2.1.2.1 0 .1-.1.1-.2.1-.1.2-.2.3-.3.5h2.3zM221 377.8v.5h-.6v-5h5.2v5h-.6v-.5h-4zm3.9-3.9H221v3.4h3.9v-3.4zM231.7 373.5c-.3.2-.4.2-.5.4-.5.9-.7 1.3-1.1 1.9.7.6 1.5 1.3 2.1 2.2l-.5.4c-.2-.4-.4-.7-1-1.3-.4-.5-.7-.7-.9-.9-1 1.1-1.8 1.6-2.8 2l-.5-.5c.7-.2 1.5-.5 2.5-1.5s1.4-1.8 1.6-2.5h-3.2v-.5h3.5c.1 0 .3-.1.4-.2l.4.5zM16.6 416.8c-.3.4-1.3 1.6-1.3 3.2s1 2.8 1.3 3.2l-.3.2c-.8-1-1.4-2.2-1.4-3.5 0-1.3.6-2.5 1.4-3.4l.3.3zM17.5 419.7h6v.6h-6v-.6zM28 419.5v.5h-3.7v-.5H27l-.4-.2c.1-.2.3-.8.4-1.1l.5.2c0 .2-.3.9-.4 1.1h.9zm-2.1-2.8h.5c.1 0 .2 0 .2.1s-.2.1-.2.2v.6h1.4v.5h-3.3v-.5h1.4v-.9zm-1.1 3.9h2.8v2.6h-.5v-.3h-1.8v.5h-.5v-2.8zm.5-2.5c.1.2.4.9.5 1.1l-.4.2c-.1-.2-.4-.9-.5-1.1l.4-.2zm1.8 4.3v-1.3h-1.8v1.3h1.8zm3.5-4.9c-.1.2-.9 1.8-1 2.1.3.2 1 1 1 2 0 .8-.5 1.2-1.4 1.3l-.2-.6h.6c.2 0 .6-.2.6-.8 0-.9-.8-1.6-1.1-1.9.2-.3.8-1.6.9-1.9h-1.2v5.6h-.5v-6.1h2l.3.3zM31.5 416.6c.8 1 1.4 2.2 1.4 3.4 0 1.3-.6 2.5-1.4 3.5l-.3-.2c.3-.4 1.3-1.6 1.3-3.2s-1-2.8-1.3-3.2l.3-.3z"/><path class="st37" d="M66.8 217.2h1.5v18.2h-1.5zM66.8 146.4h1.5v11.5h-1.5zM66.8 181.4h1.5v11.5h-1.5zM66.7 205.3h1.5v11.6h-1.5z"/><path class="st37" d="M65.6 214.7h11.5v1.5H65.6zM66.9 170.4h1.5v11.5h-1.5z"/><path class="st37" d="M65.8 179.7h11.5v1.5H65.8zM66.9 135.4h1.5v11.5h-1.5z"/><path class="st37" d="M65.8 144.7h11.5v1.5H65.8z"/><path style="fill:none;stroke:#231815;stroke-width:.3306;stroke-miterlimit:3.8636" d="M12.1 2.9h225.8v271.3H12.1z"/><path class="st37" d="M65.1 219.6h52.2v1.5H65.1zM172 219.6h28.1v1.5H172z"/><path class="st37" d="M196.1 217.2h2.3v18.2h-2.3zM66.5 217.2h2.6v18.2h-2.6zM117.4 219.6H172v1.5h-54.6z"/><linearGradient id="SVGID_00000110429996322515059520000008470819163903927434_" gradientUnits="userSpaceOnUse" x1="959.527" y1="390.37" x2="1103.68" y2="246.217" gradientTransform="translate(-1011.42 -223.562) scale(1.1091)"><stop offset="0" style="stop-color:#fbe1c3"/><stop offset=".174" style="stop-color:#fbd58b"/><stop offset=".279" style="stop-color:#f4a65d"/><stop offset=".309" style="stop-color:#f2984f"/><stop offset=".562" style="stop-color:#fbd58b"/><stop offset="1" style="stop-color:#f2984f"/></linearGradient><path style="fill:url(#SVGID_00000110429996322515059520000008470819163903927434_)" d="M65 41.2h135.5v176.5H65z"/><path class="st37" d="M65.9 183.9h11v2.4h-11zM187.9 183.9h11v2.4h-11zM67 149h9.9v2.1H67zM188 149h9.9v2.1H188zM196.4 205.3h2.9v11.6h-2.9z"/><path class="st37" d="M188.5 213.6H200v2.6h-11.5zM195.9 168.4h2.4v13.4h-2.4z"/><path class="st37" d="M188 178.9h11.5v2.3H188zM195.9 146.4h2.4v11.5h-2.4zM66.5 146.4h2.4v11.5h-2.4zM195.9 181.4h2.4v11.5h-2.4z"/><path class="st37" d="M195.9 133.4h2.4v13.4h-2.4z"/><path class="st37" d="M188 143.8h11.5v2.4H188zM66 205.3h2.9v11.6H66z"/><path class="st37" d="M64.9 213.6h11.5v2.6H64.9zM66.6 170.4H69v11.5h-2.4z"/><path class="st37" d="M65.4 178.9h11.5v2.3H65.4zM66.6 181.4H69v11.5h-2.4zM66.6 135.4H69v11.5h-2.4z"/><path class="st37" d="M65.4 143.8h11.5v2.4H65.4z"/><path class="st40" d="M201.9 216.1v-10.4h-3.5v10H67.2v-10H63v10.4H49v-11.9h-4.2v15.5h18.3v22h138.8v-25.6zm-87.4 16.7H67.2v-13.2h47.3v13.2zm54.5 0h-49.5v-13.2H169v13.2zm29.2 0h-23.7v-13.2h23.7v13.2zM197.9 184.1v8.4h4.2V168.8h-4.2v11.9H67.2v-9h3.1v-2.9H63v11.9H49v-12.8h-4.3v16.2H63v8.4h4.2v-8.4zM197.9 149v8.5h4.2V133.8h-4.2v11.9H67.2v-9h3.1v-2.9H63v11.9H49v-12.8h-4.3V149H63v8.5h4.2V149z"/><path class="st24" d="M30.5 10.9c1.4-.1 2.3-.4 3-.7l.3.7c-1 .4-2 .6-2.6.7v1.6H34v.8h-.8v5.2h-.8V14h-1.2v.9c0 .4 0 3-1 4.4l-.7-.5.1-.1h-3.5v.3h-.8v-8.5h.8v7.2h3.5v.7c.5-.8.6-1.4.7-2.3.1-.6.1-1 .1-1.4v-3.8zm-.8 5.4c-.2-.3-.6-.7-1-1.4v2.6H28v-2.6c-.4.8-.8 1.3-1.3 1.9l-.4-.6c1-.9 1.5-2.1 1.7-2.4h-1.5v-.7H28v-2.9h.7v2.9H30v.7h-1.3c.3.5.7 1.1 1.4 1.8l-.4.7zM27 12.7c-.1-.8-.3-1.4-.4-1.7l.6-.1c0 .1.3 1.1.4 1.7l-.6.1zm2-.2c.3-.7.5-1.6.5-1.7l.6.1c0 .2-.2 1.1-.5 1.8l-.6-.2zM35.1 19.3l-.6-.6c.5-.4.9-.9 1.2-1.8l.7.2c-.2.6-.6 1.5-1.3 2.2zm3.5-5.2h-.8c-.3 0-.5-.1-.5-.3v.6h1.6v.6h-1.6v1c.9-.1 1.1-.1 1.6-.2v.5c.9-.9 1.2-1.8 1.3-2.1-.4-.4-.6-.6-.8-.7l.4-.6c.2.1.3.2.6.4 0-.2.1-.6.1-1.2h-1v-.7h1.1v-1.1h.7v1.1h1.4c0 .3-.1 2.4-.1 2.6v.4c0 .3 0 1.5.3 1.5.2 0 .3-1 .3-1.2l.6.3c-.1.6-.2 1.1-.4 1.4-.1.2-.3.5-.6.5-.7 0-.9-.9-.9-2.3 0-.2 0-2 .1-2.4h-1c0 .7-.1 1.5-.2 1.9.3.3.5.6.7.8l-.5.6c-.2-.2-.3-.4-.5-.6-.4 1.1-1 1.8-1.3 2.2l-.6-.6.1-.1c-.6.1-2.7.3-4.1.4l-.1-.7c.6 0 1.3-.1 2-.1v-.9H35v-.6h1.6v-.7h.7v-1.2h-.7c-.3 1.1-1 1.5-1.7 1.8l-.3-.6c.9-.3 1.1-.6 1.3-1.2h-1.2V12h2v-.7H35v-.6h1.6v-.6h.7v.6h1.6v.6h-1.6v.7h1.9v.6h-1.3v.6c0 .1 0 .2.2.2h.3c.1 0 .2 0 .3-.5l.6.1c-.2 1-.4 1.1-.7 1.1zm-1.2 5v-2h.7c.1.5.1 1.2.1 2h-.8zm2.6 0c-.1-.6-.1-.7-.5-2l.7-.1c.2.6.5 1.4.6 2l-.8.1zm2.8.1c-.3-.6-.9-1.4-1.4-2.1l.6-.4c.8.8 1.4 1.7 1.5 2l-.7.5zM48.3 10.8v.6h-1.6c.1.2.2.4.3.7l-.7.3c-.1-.5-.2-.7-.3-.9h-.5c-.5.7-.9 1-1.1 1.2l-.5-.6c.7-.5 1.2-1.1 1.5-1.9l.7.1c-.1.2-.1.3-.2.5h2.4zM46 12.9v-.5h.7v.5h1.9v.6h-1.9v.5h1.7v2.8h-1.7v.6h1.9v.6h-1.9v1.1H46V18h-2v-.6h2v-.6h-1.7V14H46v-.5h-1.9v-.6H46zm0 1.8h-1v.6h1v-.6zm0 1h-1v.6h1v-.6zm1.7-1h-1v.6h1v-.6zm0 1h-1v.6h1v-.6zm5.2-4.9v.6h-2c.1.3.2.5.3.7l-.7.3c-.1-.2-.2-.6-.4-.9h-.6c-.5.7-.8.9-1 1.1l-.6-.5c.6-.5 1.2-1.1 1.4-1.8l.7.1c-.1.2-.1.3-.2.5h3.1zm-.4 5.3c0 .6-.3.8-.8.8h-1.1l-.1-.7h1c.3 0 .3-.1.3-.3v-2.4h-2V18c0 .2.1.3.4.3h1.5c.4 0 .5-.1.5-1.2l.7.2c-.1 1.4-.3 1.7-1 1.7h-2c-.4 0-.9 0-.9-.8v-5.6h3.4v3.5zM62 10.6v8.6h-.8v-.4h-6.6v.4h-.8v-8.6H62zm-7.5.7v6.8h6.6v-6.8h-6.6zm1.7.4h.8v1.1h1.8v-1.1h.7v1.1h1.2v.7h-1.2V15h1.3v.7h-1.3v2.1h-.7v-2.1h-2c-.2.9-.7 1.5-1.2 2.1l-.7-.5c.3-.2.9-.7 1.1-1.5h-1.1V15h1.3c0-.1.1-.4.1-.8v-.7H55v-.7h1.2v-1.1zm.8 2.5c0 .2 0 .6-.1.8h1.9v-1.5H57v.7zM66.7 15.8c-.1-.2-.4-.6-.6-1.2v4.8h-.7V15c-.3 1.3-.7 1.9-.8 2.2l-.4-.9c.6-1 1-2.4 1.2-3.3h-1v-.7h1.1v-1.9h.7v1.9h.7v.7h-.7v.3c.3 1 .7 1.5 1 1.9l-.5.6zm3.2-.7v-.7h.4v-2.9H70v-.7h3.2v.7h-.5c-.1 1.3-.3 2.3-.4 2.9h1v.7h-1.2v.1h.1v3.2c0 .1 0 .2.2.2h.2c.1 0 .2-.1.2-.2s.1-.9.1-1.2l.6.2c-.1 1.5-.1 1.9-.8 1.9H72c-.4 0-.6-.3-.6-.7v-2c-.9 1.5-2 2.4-2.5 2.7l-.5-.6c.3-.2.5-.3 1-.7-.1-.2-.1-.3-.3-.7-.4.2-1.6.9-2.5 1.2l-.2-.5c.3-.1.4-.1.6-.2v-6.9h2.6v4.3h-1.8v2.3c.6-.2.6-.3 1.1-.5-.3-.6-.5-.8-.6-1l.6-.3c.4.6.9 1.5 1.1 2 .7-.8 1.1-1.6 1.4-2.4h-1.5zm-1-3.7h-1.1v1.2h1.1v-1.2zm0 1.8h-1.1v1.2h1.1v-1.2zm2.6 1.2c.1-.4.4-1.4.4-2.9h-1v2.9h.6zM80.3 13h-4.5v-.4c-1 .6-1.7.8-2 .8l-.4-.8c.6-.2 2.7-.8 4.2-2.3h.8c1.6 1.5 3.5 2.1 4.2 2.3l-.4.7c-.6-.2-1.3-.4-2-.9v.6zm-6.8 5.6c.8-.8 1.1-1.9 1.1-2.2l.8.2c-.4 1.6-.9 2.2-1.2 2.5l-.7-.5zm8.2-4.9v.7c-.5.6-1.1 1.2-2.9 2l-.5-.6c.4-.1 1.5-.5 2.4-1.3h-6.3v-.7h7.3zm-5 3v1.5c0 .3.1.3.4.3h2c.4 0 .4 0 .5-1.1l.8.2c-.1 1.3-.3 1.7-1.1 1.7h-2.6c-.4 0-.8-.2-.8-.7v-1.8h.8zm3.2-4.3c-1-.6-1.5-1.1-1.8-1.4-.5.5-1.1.9-1.8 1.4h3.6zm-1.6 4.8c-.7-.6-1.6-1-1.8-1.2l.4-.6c.6.3 1.4.7 1.9 1.1l-.5.7zM82 19c-.5-1-1.3-2-1.7-2.4l.6-.4c.4.4 1.3 1.5 1.7 2.3l-.6.5zM91.6 10.7v8.7h-.8v-.5h-6.4v.5h-.8v-8.7h8zm-.8.8h-6.4v6.7h6.4v-6.7zm-.5.7c-.2.7-.8 2.2-2 3.5 1 .7 1.6 1.1 1.9 1.4l-.4.7c-1.1-.9-1.7-1.3-2-1.5-.8.8-1.7 1.3-2.6 1.7l-.5-.7c.6-.2 1.5-.5 2.5-1.4-1.1-.6-1.9-.9-2.3-1.1l.3-.6c.4.1 1.3.5 2.5 1.1.9-1 1.5-2.2 1.9-3.4l.7.3zm-4.5 1.9c-.1-.7-.3-1.3-.6-1.8l.7-.2c.3.5.5 1.3.6 1.8l-.7.2zm1.7-.3c-.1-.6-.2-1.1-.5-1.9l.7-.2c.2.5.4 1.3.5 1.9l-.7.2z"/><linearGradient id="SVGID_00000095300654622665102320000005410521731888538247_" gradientUnits="userSpaceOnUse" x1="323.804" y1="717.082" x2="335.414" y2="708.363" gradientTransform="translate(-437.287 -1071.965) scale(1.8721)"><stop offset="0" style="stop-color:#fbe1c3"/><stop offset=".174" style="stop-color:#fbd58b"/><stop offset=".279" style="stop-color:#f4a65d"/><stop offset=".309" style="stop-color:#f2984f"/><stop offset=".562" style="stop-color:#fbd58b"/><stop offset="1" style="stop-color:#f2984f"/></linearGradient><path style="fill:url(#SVGID_00000095300654622665102320000005410521731888538247_);stroke:#da4207;stroke-width:1.6008" d="M172.7 257.6h14.4v9.4h-14.4z"/><path class="st24" d="M196 257.7c1.6-.1 2.6-.5 3.3-.8l.4.8c-1.1.5-2.2.6-2.8.7v1.8h3v.9h-.8v5.8h-.9V261h-1.4v1c0 .5 0 3.3-1.1 4.8l-.7-.6.1-.1h-3.8v.5h-.8v-9.3h.8v8h3.9v.8c.5-.9.6-1.6.8-2.5.1-.6.1-1.1.1-1.6v-4.3zm-.9 5.9c-.2-.3-.7-.8-1.1-1.6v2.9h-.8V262c-.4.9-.9 1.5-1.4 2.1l-.5-.6c1.1-1 1.7-2.3 1.8-2.6h-1.6v-.8h1.7V257h.8v3.2h1.4v.8H194c.3.5.8 1.3 1.5 2l-.4.6zm-3-4c-.1-.9-.3-1.5-.4-1.9l.7-.1c0 .1.4 1.2.4 1.9l-.7.1zm2.3-.2c.3-.8.5-1.7.5-1.9l.7.2c-.1.2-.3 1.2-.6 2l-.6-.3zM201.1 266.9l-.7-.6c.5-.5 1-1 1.3-2l.8.2c-.3.7-.7 1.6-1.4 2.4zm3.8-5.7h-.9c-.3 0-.5-.1-.6-.3v.7h1.7v.7h-1.7v1c1-.1 1.2-.1 1.7-.2v.6c.9-1 1.3-2 1.4-2.3-.4-.5-.6-.6-.9-.8l.4-.6c.2.1.4.3.6.5 0-.2.1-.6.1-1.4h-1.1v-.8h1.2v-1.2h.8v1.2h1.6c0 .4-.1 2.7-.1 2.8v.5c0 .4 0 1.6.3 1.6.2 0 .4-1.1.4-1.4l.7.3c-.1.6-.2 1.2-.4 1.5-.1.3-.3.6-.7.6-.7 0-1-1-1-2.6 0-.3.1-2.2.1-2.6h-.8c-.1.8-.1 1.7-.2 2 .3.3.5.6.8.9l-.5.7c-.2-.3-.3-.4-.5-.6-.4 1.2-1.1 2-1.5 2.4l-.7-.6.1-.1c-.7.1-3 .4-4.5.4l-.1-.8c.7 0 1.5-.1 2.2-.1v-1h-1.7v-.7h1.7v-.7h.8v-1.3h-.8c-.3 1.2-1.1 1.7-1.8 2l-.4-.6c.9-.3 1.2-.7 1.4-1.3h-1.3v-.6h2.2v-.7h-1.7v-.7h1.7v-.6h.8v.6h1.8v.7h-1.8v.7h2.1v.6h-1.4v.7c0 .1 0 .2.2.2h.4c.2 0 .2-.1.3-.5l.6.1c-.5 1-.6 1.1-1 1.1zm-1.3 5.5c0-.2.1-.6.1-1.1v-1.1h.8c.1.6.1 1.4.1 2.2h-1zm2.9 0c-.1-.6-.1-.8-.6-2.2l.8-.1c.3.6.5 1.5.7 2.2l-.9.1zm3.1.1c-.4-.7-1-1.6-1.6-2.3l.6-.4c.9.9 1.5 1.9 1.7 2.2l-.7.5zM218 261.6c-.8.7-1.5 1.3-2.1 1.7.5 0 1.9-.1 2.9-.1-.2-.2-.4-.4-.7-.8l.7-.4c.5.5 1.2 1.3 1.8 2.2l-.7.5c-.1-.2-.2-.4-.6-.8-.4 0-3 .2-3.1.2v2.8h-.9V264c-1.8.1-2 .1-4.4.1l-.1-.8c1.9 0 2.2 0 3.8-.1l.1-.1c-.1-.1-1.5-.9-2.6-1.3l.6-.6c.3.1.5.2.8.4.4-.3.6-.5.9-.8h-3.5v-.7h4.4v-.7h-3.7v-.4h3.7v-.7h-4.1v-.7h4.1v-.6h.9v.6h4.2v.7h-4.2v.7h3.7v.6h-3.7v.7h4.5v.7h-5.2c-.6.5-1.1.9-1.4 1.1.3.1.8.4 1.2.6 1.3-1.1 1.5-1.2 1.9-1.6l.8.5zm-7 4.3c.4-.2 1.4-.6 2.3-1.6l.7.5c-.6.6-1.6 1.4-2.4 1.8l-.6-.7zm7.1-1.6c1.1 1.1 2 1.5 2.4 1.7l-.5.7c-1.3-.6-2.2-1.5-2.5-1.9l.6-.5zM224.9 263.4c-.6-.8-1-1.6-1.1-1.7v5.2h-.8v-5.3c-.6 1.6-1.3 2.5-1.6 2.9l-.4-.9c.6-.7 1.5-2.2 2-3.7h-1.7v-.8h1.8V257h.9v2.1h1.5v.8H224v.6c.3.5.8 1.4 1.6 2.2l-.7.7zm-.1 1.1c1.2-.8 2.5-2.1 3.8-4.6h-2.8v-.8h2.9V257h.9v2.1h1.4v.8h-1.4v6.1c0 .7-.6.8-.9.8h-1.6l-.1-.9h1.4c.3 0 .4 0 .4-.3v-4.3c-.8 1.5-1.9 2.9-3.3 4l-.7-.8z"/><path class="st37" d="M66.8 38.6h1.5v11.5h-1.5zM66.8 74.8h1.5v11.5h-1.5zM66.8 109.8h1.5v11.5h-1.5z"/><path class="st37" d="M66.9 98.8h1.5v11.5h-1.5z"/><path class="st37" d="M65.8 108.1h11.5v1.5H65.8zM66.9 63.8h1.5v11.5h-1.5z"/><path class="st37" d="M65.8 73.1h11.5v1.5H65.8zM65.9 112.3h11v2.4h-11zM187.9 112.3h11v2.4h-11zM66.2 41.5h132.9V44H66.2zM67 77.4h9.9v2.1H67zM188 77.4h9.9v2.1H188zM195.9 96.8h2.4v13.4h-2.4z"/><path class="st37" d="M188 107.3h11.5v2.3H188zM195.9 38.6h2.4v11.5h-2.4zM195.9 74.8h2.4v11.5h-2.4zM66.5 74.8h2.4v11.5h-2.4zM195.9 109.8h2.4v11.5h-2.4z"/><path class="st37" d="M195.9 61.8h2.4v13.4h-2.4z"/><path class="st37" d="M188 72.2h11.5v2.4H188zM66.6 98.8H69v11.5h-2.4z"/><path class="st37" d="M65.4 107.3h11.5v2.3H65.4zM66.6 38.6H69v11.5h-2.4zM66.6 109.8H69v11.5h-2.4zM66.6 63.8H69v11.5h-2.4z"/><path class="st37" d="M65.4 72.2h11.5v2.4H65.4z"/><path class="st40" d="M197.9 112.5v8.4h4.2V97.2h-4.2v11.9H67.2v-9h3.1v-2.9H63v11.9H49V96.3h-4.3v16.2H63v8.4h4.2v-8.4zM197.9 77.4v8.5h4.2V62.2h-4.2v11.9H67.2v-9h3.1v-2.9H63v11.9H49V61.3h-4.3v16.1H63v8.5h4.2v-8.5zM197.9 41.2v8.5h4.2V26h-7.3v2.9h3.1v8.9H67.2v-8.9h3.1V26H63v11.8H49v-2.4h-4.3v5.8H63v8.5h4.2v-8.5z"/><path class="st24" d="M15.9 299.3v1.5c0 1.7 0 3.1-.8 4.5l-.5-.3c.6-1.1.7-2.1.7-3.8 0-.8 0-2.1-.1-2.4h6.1v.5h-5.4zm3.1 4.9v.8c0 .5-.3.5-1.2.5l-.2-.6c.2 0 .4.1.6.1.2 0 .2-.1.2-.2v-.6H16v-.5h2.5v-.5h.5c.2-.1.3-.2.6-.3h-3v-.5h4.2l.1.2c-.6.4-.9.6-1.7 1.1h2.5v.5H19zm-2.3-2.2v-2.3h4v2.3h-4zm3.4-1.9h-2.9v.5h2.9v-.5zm0 .9h-2.9v.5h2.9v-.5zM24.7 305.2c-1.9 0-2.2-1.9-2.2-2.9 0-2 .9-3.1 2.3-3.1.7 0 1.6.3 1.8 1.5h-.7c-.1-.2-.2-.8-1.1-.8-1.5 0-1.5 1.7-1.6 2.3.3-.4.8-.8 1.6-.8 1 0 1.9.6 1.9 1.9 0 1-.7 1.9-2 1.9zm1.1-2.9c-.2-.3-.6-.4-1-.4-.7 0-1.4.4-1.4 1.3 0 .6.3 1.5 1.3 1.5.8 0 1.3-.5 1.3-1.4 0-.4 0-.7-.2-1zM29.8 305.2c-1.7 0-2.1-1.6-2.1-3s.4-3 2.1-3 2.1 1.6 2.1 3-.4 3-2.1 3zm0-5.5c-1.1 0-1.4 1.1-1.4 2.4 0 1.3.3 2.4 1.4 2.4 1.1 0 1.4-1.1 1.4-2.4 0-1.3-.3-2.4-1.4-2.4zM37.8 305v-3c0-.3-.1-.9-.7-.9-1 0-1 1-1 1.1v2.7h-.6v-3c0-.7-.5-.8-.8-.8-1 0-1 1-1 1.1v2.7h-.6v-4.2h.6v.5c.2-.4.5-.7 1.2-.7.8 0 1 .5 1.2.7.2-.3.5-.7 1.2-.7 1 0 1.3.7 1.3 1.3v3.1h-.8zM44.1 305v-3c0-.3-.1-.9-.7-.9-1 0-1 1-1 1.1v2.7h-.6v-3c0-.7-.5-.8-.8-.8-1 0-1 1-1 1.1v2.7h-.6v-4.2h.6v.5c.2-.4.5-.7 1.2-.7.8 0 1 .5 1.2.7.2-.3.5-.7 1.2-.7 1 0 1.3.7 1.3 1.3v3.1h-.8zM14.2 331.7v1.5c0 1.7 0 3.1-.8 4.5l-.5-.3c.6-1.1.7-2.1.7-3.8 0-.8 0-2.1-.1-2.4h6.1v.5h-5.4zm3 4.9v.8c0 .5-.3.5-1.2.5l-.2-.6c.2 0 .4.1.6.1.2 0 .2-.1.2-.2v-.6h-2.5v-.5h2.5v-.5h.5c.2-.1.3-.2.6-.3h-3v-.5h4.2l.1.2c-.6.4-.9.6-1.7 1.1h2.5v.5h-2.6zm-2.2-2.2v-2.3h4v2.3h-4zm3.4-1.8h-2.9v.5h2.9v-.5zm0 .9h-2.9v.5h2.9v-.5zM22 337.4v-4.2h-1.2v-.5c.5 0 1.1-.1 1.3-1h.5v5.7H22zM26.8 337.6c-1.4 0-2.1-.7-2.1-1.7 0-1.1.9-1.4 1.2-1.5-.6-.2-.9-.7-.9-1.3 0-.8.7-1.5 1.9-1.5s1.9.7 1.9 1.5c0 .6-.3 1.1-.9 1.3.3.1 1.2.4 1.2 1.5-.2 1-1 1.7-2.3 1.7zm0-3c-.8 0-1.4.5-1.4 1.2 0 .6.4 1.2 1.4 1.2 1 0 1.4-.6 1.4-1.2 0-.7-.5-1.2-1.4-1.2zm0-2.4c-.5 0-1.2.2-1.2 1s.6 1 1.2 1c.5 0 1.2-.2 1.2-1s-.7-1-1.2-1zM32 337.6c-1.7 0-2.1-1.6-2.1-3s.4-3 2.1-3 2.1 1.6 2.1 3-.4 3-2.1 3zm0-5.4c-1.1 0-1.4 1.1-1.4 2.4 0 1.3.3 2.4 1.4 2.4 1.1 0 1.4-1.1 1.4-2.4 0-1.3-.3-2.4-1.4-2.4zM39.9 337.4v-3c0-.3-.1-.9-.7-.9-1 0-1 1-1 1.1v2.7h-.6v-3c0-.7-.5-.8-.8-.8-1 0-1 1-1 1.1v2.7h-.6v-4.2h.6v.5c.2-.4.5-.7 1.2-.7.8 0 1 .5 1.2.7.2-.3.5-.7 1.2-.7 1 0 1.3.7 1.3 1.3v3.1h-.8zM46.3 337.4v-3c0-.3-.1-.9-.7-.9-1 0-1 1-1 1.1v2.7H44v-3c0-.7-.5-.8-.8-.8-1 0-1 1-1 1.1v2.7h-.6v-4.2h.6v.5c.2-.4.5-.7 1.2-.7.8 0 1 .5 1.2.7.2-.3.5-.7 1.2-.7 1 0 1.3.7 1.3 1.3v3.1h-.8zM49.4 454.7c-.1-.3-.1-.4-.2-.4-.2 0-.5.1-.8.1v4h-.6v-3.9c-.3 0-.7.1-1.1.1-.1.2-.2.2-.3.2 0 0-.1-.1-.1-.2l-.1-.6h.9c.1-.1.2-.2.7-.9-.4-.6-.8-1-1.4-1.5l.4-.4c.1.1.3.2.5.4.4-.5.6-.9.9-1.5l.6.4.1.1c0 .1-.1.1-.2.1-.3.5-.6.9-.9 1.3l.5.5c.4-.5.6-.9.8-1.3l.6.5c.1 0 .1.1.1.2s-.1.1-.3.1c-.4.5-.6.8-.8 1.1l.5-.2c.3.5.6 1.1.8 1.7l-.6.1zm-2 .8c-.1.7-.2 1.5-.4 2.2l-.6-.2c.2-.8.3-1.5.4-2.4l.6.1c.1 0 .1.1.1.1.1.2 0 .2-.1.2zm1.2-2.5c-.1.1-.4.5-.6.8.3 0 .7-.1 1-.1-.2-.3-.2-.3-.4-.7zm.5 4.2c-.1-.9-.2-1.4-.3-2l.5-.2c.3.9.4 1.5.4 2.1l-.6.1zm1.6-1.2c-.1.7-.3 1.3-.6 2l-.6-.2c.3-.7.5-1.3.6-2.2l.6.2c.1 0 .1.1.1.1.1.1 0 .1-.1.1zm.8-5.2c-.3.6-.6 1.1-1 1.6l-.5-.4c.3-.4.7-.9 1.1-1.9l.5.3s.1.1.1.2-.1.1-.2.2zm1.9 3.7c-.2-.4-.2-.5-.3-.6-.6.1-1.2.3-2.5.5 0 0-.1.2-.2.2s-.1-.1-.1-.2l-.1-.6h.8c.3-.5.5-1 .8-1.9l.6.2c.1 0 .1.1.1.1 0 .1-.1.1-.2.1-.3.6-.4.9-.6 1.3.7-.1.9-.1 1.2-.2-.1-.1-.1-.2-.3-.4l.5-.3c.4.6.7 1 .9 1.6l-.6.2zm-.4 3.6h-1.3c-.5 0-.7-.2-.7-.7v-2.3l.6.1s.2 0 .2.1 0 .1-.2.2v1.7c0 .2.1.3.3.3h.8c.3 0 .3-.2.4-.7l.6.3c-.1.9-.3 1-.7 1zm-.3-2.1c-.2-.4-.4-.7-.8-1.2l.4-.4c.5.5.7.9.8 1.2l-.4.4zm1.2-3.5c-.7-.5-1.2-1.2-1.6-2l.5-.3c.1.2.3.5.6 1 .3.4.6.7.9.9l-.4.4zm.1 4.6c-.3-.6-.5-.9-.8-1.2l.5-.3c.4.5.6.8.8 1.2l-.5.3zM57 450.9v1.8c0 2 0 3.7-.9 5.2l-.6-.3c.7-1.3.9-2.5.9-4.5 0-.9-.1-2.4-.1-2.8h7.2v.6H57zm3.5 5.8v1c0 .6-.3.6-1.4.6l-.2-.7c.2 0 .5.1.7.1.2 0 .2-.1.2-.2v-.7H57v-.6h2.9v-.6h.6c.3-.2.4-.2.7-.4h-3.6v-.5h4.9l.1.2c-.7.4-1.1.7-2 1.3h2.9v.6h-3zm-2.7-2.6v-2.7h4.6v2.7h-4.6zm4.1-2.1h-3.4v.5h3.4v-.5zm0 1h-3.4v.5h3.4v-.5zM70.7 454.9c-.1-.2-.1-.3-.2-.5-.1 0-.5.1-.8.1v3.9H69v-3.8c-.2 0-.7.1-1.2.1 0 .1-.1.2-.1.2s-.1 0-.1-.2l-.1-.7h.7c.1-.1.2-.2.4-.5.1-.1.3-.3.4-.5-.4-.4-.9-.9-1.4-1.2l.4-.5c.2.1.4.3.5.3.2-.3.5-.7.9-1.6l.5.3c.1 0 .1.1.1.1 0 .1-.2.1-.3.1-.3.5-.5.9-.9 1.4l.5.5c.3-.4.6-.8.8-1.2l.5.4c.1.1.2.1.2.2s-.1.1-.4.1c-1 1.4-1.3 1.7-1.6 2 .5 0 .9-.1 1.3-.1-.1-.2-.1-.3-.2-.4l.5-.3c.4.6.6 1.1.8 1.5l-.5.3zm-2.1.7c-.1 1.1-.2 1.7-.4 2.4l-.7-.1c.2-.7.4-1.8.5-2.6l.6.1s.2 0 .2.1c0 0-.1 0-.2.1zm1.9 2.1c-.1-.9-.3-1.7-.5-2.3l.6-.2c.2.6.4 1.3.5 2.2l-.6.3zm4.4-.3c-.2.9-.8.9-1.3.9h-.7l-.2-.8c.5.1.7.1.9.1.6 0 .7-.5.8-1.2.1-1.2.2-2.5.2-3.9h-2.5c-.3.5-.5.8-.7 1l-.6-.3c.8-1 1.3-1.9 1.8-3.1l.6.3c.1 0 .1.1.1.1 0 .1-.2.2-.2.2l-.6 1.2h2.8c-.1 1.4-.1 4.3-.4 5.5zm-2.1-1.4c-.2-.7-.4-1.2-.8-1.8l.6-.2c.4.8.6 1.2.7 1.8l-.5.2zM79 457.9c-.7 0-1.6-.2-2-.9-.4-.5-.4-1-.4-1.3h.8c0 .3.1 1.6 1.7 1.6 1.1 0 1.6-.7 1.6-1.5 0-1-.8-1.3-1.5-1.3h-.7v-.6h.6c.5 0 1.4-.3 1.4-1.2 0-.5-.3-1.2-1.4-1.2-.4 0-.9.1-1.2.5-.3.3-.3.7-.3.9h-.8c.1-1.6 1.3-2.1 2.3-2.1 1.3 0 2.2.7 2.2 1.8s-.9 1.4-1.1 1.5c.4.1 1.3.3 1.3 1.7 0 1.1-.9 2.1-2.5 2.1zM85.1 457.9c-2 0-2.5-1.8-2.5-3.5s.5-3.5 2.5-3.5 2.5 1.9 2.5 3.5-.5 3.5-2.5 3.5zm0-6.4c-1.3 0-1.6 1.3-1.6 2.8 0 1.6.4 2.8 1.6 2.8 1.3 0 1.6-1.3 1.6-2.8 0-1.5-.3-2.8-1.6-2.8zM91.3 457.9c-2 0-2.5-1.8-2.5-3.5s.5-3.5 2.5-3.5 2.5 1.9 2.5 3.5c-.1 1.6-.5 3.5-2.5 3.5zm0-6.4c-1.3 0-1.6 1.3-1.6 2.8 0 1.6.4 2.8 1.6 2.8 1.3 0 1.6-1.3 1.6-2.8 0-1.5-.4-2.8-1.6-2.8zM100.5 457.7v-3.5c0-.4-.1-1-.9-1-1.2 0-1.2 1.2-1.2 1.3v3.2h-.7v-3.5c0-.8-.6-.9-.9-.9-1.1 0-1.2 1.2-1.2 1.3v3.2h-.7v-4.9h.7v.6c.2-.4.6-.8 1.4-.8 1 0 1.2.5 1.4.8.2-.4.6-.8 1.4-.8 1.1 0 1.5.8 1.5 1.5v3.6h-.8zM108 457.7v-3.5c0-.4-.1-1-.9-1-1.2 0-1.2 1.2-1.2 1.3v3.2h-.7v-3.5c0-.8-.6-.9-.9-.9-1.1 0-1.2 1.2-1.2 1.3v3.2h-.7v-4.9h.7v.6c.2-.4.6-.8 1.4-.8 1 0 1.2.5 1.4.8.2-.4.6-.8 1.4-.8 1.1 0 1.5.8 1.5 1.5v3.6h-.8zM164.9 487.1c-.8-1.1-1.7-2.8-1.7-5.3 0-2.6.9-4.3 1.7-5.4h.8c-1 1.3-1.7 3-1.7 5.4 0 2.3.7 4 1.7 5.3h-.8zM180 480.2h-3c.8 1 2.1 1.9 3.3 2.3-.2.1-.4.4-.5.6-1.3-.6-2.8-1.7-3.7-3h-2.7c-.9 1.3-2.2 2.3-3.7 3-.1-.2-.4-.4-.5-.6 1.3-.5 2.4-1.3 3.3-2.4h-3v-.7h3.5c.2-.3.4-.7.6-1.1-1.2 0-2.4.1-3.2.1 0 .1-.1.1-.2.2l-.3-.9h2c.5-.6 1-1.5 1.3-2.1l1 .3c0 .1-.1.1-.3.1-.3.5-.7 1.1-1.2 1.6 1.5 0 3.1-.1 4.7-.1-.5-.4-1-.7-1.5-1l.6-.4c1.1.7 2.4 1.7 3 2.4-.3.3-.5.3-.7.4l-.8-.8-3.6.1h.1c0 .1-.1.1-.3.1-.2.3-.3.7-.5 1h6.1v.9zm-1.3 3.7c0 .1-.1.1-.2.1-1.4 1.4-4.1 2.2-7.1 2.6-.1-.2-.2-.5-.4-.7 2.9-.3 5.5-1.1 6.8-2.4l.9.4zm-1.6-1.4c-.1.1-.1.1-.2.1-1.1.8-3 1.5-4.7 1.9-.1-.2-.3-.4-.4-.6 1.7-.3 3.6-1 4.6-1.8l.7.4zm-1.3-1.4c0 .1-.1.1-.2.1-.8.6-2.2 1.2-3.4 1.5-.1-.1-.3-.4-.5-.5 1.2-.3 2.6-.8 3.3-1.4l.8.3zM191.6 479.9h-4.4l-2.4 1.5v.1c1.7-.2 3.7-.5 4.8-.8l.6.6h-.2c-1.3.3-3.4.6-5.3.8-.1.3-.1.6-.2.9H189.6l.5.2c0 .1 0 .1-.1.2-.3 1.8-.5 2.6-.9 2.9-.3.2-.5.3-1.2.3h-1.5c0-.2-.1-.5-.2-.7.8.1 1.5.1 1.8.1.3 0 .4 0 .5-.1.3-.2.5-.8.7-2h-4.8c-.1.2-.1.4-.2.6l-.8-.1c.2-.6.4-1.4.6-2.2-.8.4-1.7.8-2.5 1.1-.1-.2-.3-.4-.5-.6 1.1-.4 2.1-.9 3.2-1.4l.1-.3h.4c.5-.3.9-.5 1.4-.8H181v-.7h4.1v-1.4H182v-.7h3.1v-1.5l1 .1c0 .1-.1.1-.2.2v1.2h3.1v.4c.5-.5.9-.9 1.3-1.4l.8.5s-.1.1-.2.1h-.1c-.8.9-1.7 1.8-2.7 2.6h3.5v.3zm-5.7-.7h1c.6-.4 1.2-.9 1.7-1.4h-2.8v1.4zM202.4 476.7c0 .1-.1.1-.2.1h-.1c-.9.9-2.2 2-3.3 2.8.1 0 .2.1.3.1 0 .1-.1.1-.3.2v6.2h-.8v-6c-1.2.9-2.8 1.8-4.4 2.6-.1-.2-.3-.5-.5-.6 3.2-1.5 6.6-4 8.5-6l.8.6zM213.9 479.8s-.1.1-.2.1c-1 3.5-2.9 5.2-6.4 6.2-.1-.2-.3-.5-.5-.7 3.2-.8 5.1-2.4 5.9-5.1H205v-.8h8l.1-.1.8.4zm-1.1-2.5h-6.6v-.8h6.6v.8zM224.3 477.2c0 .1-.1.1-.1.1-.6 1.5-1.4 2.8-2.3 4 1.3 1 3.2 2.7 4.3 3.9l-.7.6c-1-1.2-2.9-3-4.1-3.9-1 1.2-2.8 2.9-4.5 3.9-.1-.2-.4-.5-.6-.6 3.2-1.8 5.8-5.1 6.8-7.6h-5.7v-.8h6.2l.2-.1.5.5zM236 482.2c-1.2-.6-2.8-1.4-4.1-1.9v5.8h-.9V476l1.2.1c0 .1-.1.2-.3.2v3.4l.2-.2c1.4.5 3.2 1.3 4.4 1.9l-.5.8zM242.5 476.4c.8 1.1 1.7 2.8 1.7 5.4 0 2.6-.9 4.2-1.7 5.4h-.8c.9-1.3 1.7-3 1.7-5.4 0-2.4-.7-4-1.7-5.3h.8z"/></svg>