<svg xmlns="http://www.w3.org/2000/svg" xmlns:xlink="http://www.w3.org/1999/xlink" xml:space="preserve" id="レイヤー_1" x="0" y="0" style="enable-background:new 0 0 250 240" version="1.1" viewBox="0 0 250 240"><style>.st0{fill:#231815}</style><path d="M168.7 232.7c-.8-1.1-1.7-2.8-1.7-5.3 0-2.6.9-4.3 1.7-5.4h.8c-1 1.3-1.7 3-1.7 5.4 0 2.3.7 4 1.7 5.3h-.8zM183.7 225.8h-3c.8 1 2.1 1.9 3.3 2.3-.2.1-.4.4-.5.6-1.3-.6-2.8-1.7-3.7-3h-2.7c-.9 1.3-2.2 2.3-3.7 3-.1-.2-.4-.4-.5-.6 1.3-.5 2.4-1.3 3.3-2.4h-3v-.7h3.5c.2-.3.4-.7.6-1.1-1.2 0-2.4.1-3.2.1 0 .1-.1.1-.2.2l-.3-.9h2c.5-.6 1-1.5 1.3-2.1l1 .3c0 .1-.1.1-.3.1-.3.5-.7 1.1-1.2 1.6 1.5 0 3.1-.1 4.7-.1-.5-.4-1-.7-1.5-1l.6-.4c1.1.7 2.4 1.7 3 2.4-.3.3-.5.3-.7.4l-.8-.8-3.6.1h.1c0 .1-.1.1-.3.1-.2.3-.3.7-.5 1h6.1v.9zm-1.2 3.7c0 .1-.1.1-.2.1-1.4 1.4-4.1 2.2-7.1 2.6-.1-.2-.2-.5-.4-.7 2.9-.3 5.5-1.1 6.8-2.4l.9.4zm-1.6-1.3c-.1.1-.1.1-.2.1-1.1.8-3 1.5-4.7 1.9-.1-.2-.3-.4-.4-.6 1.7-.3 3.6-1 4.6-1.8l.7.4zm-1.3-1.4c0 .1-.1.1-.2.1-.8.6-2.2 1.2-3.4 1.5-.1-.1-.3-.4-.5-.5 1.2-.3 2.6-.8 3.3-1.4l.8.3zM195.4 225.6H191l-2.4 1.5v.1c1.7-.2 3.7-.5 4.8-.8l.6.6h-.2c-1.3.3-3.4.6-5.3.8-.1.3-.1.6-.2.9H193.4l.5.2c0 .1 0 .1-.1.2-.3 1.8-.5 2.6-.9 2.9-.3.2-.5.3-1.2.3h-1.5c0-.2-.1-.5-.2-.7.8.1 1.5.1 1.8.1.3 0 .4 0 .5-.1.3-.2.5-.8.7-2h-5c-.1.2-.1.4-.2.6l-.8-.1c.2-.6.4-1.4.6-2.2-.8.4-1.7.8-2.5 1.1-.1-.2-.3-.4-.5-.6 1.1-.4 2.1-.9 3.2-1.4l.1-.3h.4c.5-.3.9-.5 1.4-.8h-4.9v-.7h4.1v-1.4h-3.1v-.7h3.1v-1.5l1 .1c0 .1-.1.1-.2.2v1.2h3.1v.4c.5-.5.9-.9 1.3-1.4l.8.5s-.1.1-.2.1h-.1c-.8.9-1.7 1.8-2.7 2.6h3.5v.3zm-5.7-.7h1c.6-.4 1.2-.9 1.7-1.4h-2.8v1.4zM206.2 222.4c0 .1-.1.1-.2.1h-.1c-.9.9-2.2 2-3.3 2.8.1 0 .2.1.3.1 0 .1-.1.1-.3.2v6.2h-.8v-6c-1.2.9-2.8 1.8-4.4 2.6-.1-.2-.3-.5-.5-.6 3.2-1.5 6.6-4 8.5-6l.8.6zM217.7 225.4s-.1.1-.2.1c-1 3.5-2.9 5.2-6.4 6.2-.1-.2-.3-.5-.5-.7 3.2-.8 5.1-2.4 5.9-5.1h-7.7v-.8h8l.1-.1.8.4zm-1.1-2.5H210v-.8h6.6v.8zM228.1 222.9c0 .1-.1.1-.1.1-.6 1.5-1.4 2.8-2.3 4 1.3 1 3.2 2.7 4.3 3.9l-.7.6c-1-1.2-2.9-3-4.1-3.9-1 1.2-2.8 2.9-4.5 3.9-.1-.2-.4-.5-.6-.6 3.2-1.8 5.8-5.1 6.8-7.6h-5.7v-.8h6.2l.2-.1.5.5zM239.8 227.8c-1.2-.6-2.8-1.4-4.1-1.9v5.8h-.9v-10.1l1.2.1c0 .1-.1.2-.3.2v3.4l.2-.2c1.4.5 3.2 1.3 4.4 1.9l-.5.8zM246.3 222c.8 1.1 1.7 2.8 1.7 5.4 0 2.6-.9 4.2-1.7 5.4h-.8c.9-1.3 1.7-3 1.7-5.4 0-2.4-.7-4-1.7-5.3h.8zM22.8 70.2c-.1.2-.2.3-.2.3-.1 0-.1 0-.2-.2l-.3-.8c.8-.2 1.1-.3 1.7-.5v-4.3h-1.5v-.8h1.5v-3l.9.1c.1 0 .3 0 .3.1s-.1.1-.3.2v2.5H26v.8h-1.3v4c.5-.2.9-.4 1.4-.7l.1.9c-1.4.6-2.3 1-3.4 1.4m8.4.7h-2.9c-.9 0-1.3-.1-1.3-1.1v-3.7l-1.3.7-.4-.7 1.7-.9v-3.7l.8.1s.3 0 .3.2c0 .1-.1.1-.2.2v2.8l1.2-.6v-3.6l.9.1c.1 0 .2 0 .2.1s-.1.1-.3.2v2.7l1.6-.9.7.3c0 .9 0 3.3-.4 4.4-.2.7-.8.7-1.5.7l-.3-.8c.8 0 1 0 1.1-.5.1-.2.2-1.3.2-3.1l-1.5.8v4H29V65l-1.2.6v3.7c0 .6.2.7.8.7h2.1c.9 0 1.1-.2 1.3-1.6l.8.5c-.2 1.6-.5 2-1.6 2M38.6 64.7c-.1 0-.3.1-.4.1v2c0 .6 0 .8-1.6.8l-.3-.9c.3 0 .5.1.7.1.4 0 .4-.2.4-.4v-1.6c-.1 0-.5 0-.7.1v1.6H36V65c-.1 0-.4 0-.6.1-.1 1-.2 1.8-.9 2.9l-.8-.4c.6-1 .8-1.3.9-2.4h-.5c-.1.1-.1.3-.2.3s-.1-.1-.2-.2l-.1-.8h1.1v-.8c0-.6 0-1.3-.1-1.9h.7c.3-.3.6-.7.9-1.2l.7.4s.1.1.1.2-.2.1-.3.1l-.5.5h2V64c.2 0 .2 0 .5-.1l-.1.8zm-4.8 6.2v-.7h1.4v-2.3H43v2.3h1.4v.7H33.8zm3.7-8.6h-2v1.9c.8 0 1.5-.1 2-.2v-1.7zm-1.1 1.6c-.2-.4-.4-.6-.6-.9l.5-.4c.3.4.5.6.6.9l-.5.4zm1.1 4.7H36v1.6h1.5v-1.6zm2.3 0h-1.5v1.6h1.5v-1.6zm3.2-4.9h-1c-.6 0-.6-.3-.6-.7v-1.2h-1c0 .5-.1 1.5-1.1 2.3l-.6-.6c.9-.7 1-1.3 1-1.9V61h2.5v1.6c0 .2.1.3.3.3h.3c.3 0 .5 0 .6-1.1l.7.3c-.2 1.4-.4 1.6-1.1 1.6m.7 4c-1-.2-1.6-.5-2.3-.9-.8.5-1.4.8-2.4 1.1l-.4-.7c.8-.2 1.4-.4 2.2-.8-.4-.4-.6-.6-.9-1.1l.6-.3h-1.6v-.7h4.4l.3.4c-.5.7-.7 1.1-1.4 1.7.6.3 1 .4 2 .7l-.5.6zm-1.6.9h-1.5v1.6h1.5v-1.6zm-1.5-3.7c.3.4.5.6.9 1 .4-.3.7-.7.9-1h-1.8zM51.1 62c-.5.7-.8 1.1-1.2 1.7h5.5v7.5h-.9v-.6h-7.9v.6h-.9v-7.4h3c.5-.5.8-1 1.2-1.7h-4.7v-.8h10.6v.7h-4.7zm-2.7 2.4h-1.8v5.3h1.8v-5.3zm3.5 0h-2.6v1.3h2.6v-1.3zm0 2h-2.6v1.3h2.6v-1.3zm0 2h-2.6v1.3h2.6v-1.3zm2.6-4h-1.8v5.3h1.8v-5.3zM5.6 195.8c.5 1.1 1.1 1.7 1.6 2.1 1.1-.9 1.5-1.6 2-2.4h-6v-.8h3.6v-1.9H2v-.8h4.7v-1.8l1 .1c.1 0 .2 0 .2.1s-.1.2-.3.3v1.3h4.8v.8H7.7v1.9h2.5l.3.4c-.6 1.1-1.2 2.2-2.5 3.3 1.2.8 2.6 1.2 4.1 1.5l-.7.8c-2-.4-3.3-1.2-4-1.7-1.3.9-2.6 1.4-4.2 1.8l-.7-.8c2.2-.3 3.6-1.1 4.3-1.5-.5-.5-1.2-1.2-1.8-2.3l.6-.4zM15.9 195.7c.6-.4.8-.5 1.4-.9v.9c-.2.1-1.2.8-1.4.9v3.1c0 .9-.4 1.1-.9 1.1h-.7l-.3-.9c.5.1.5.1.7.1.2 0 .4 0 .4-.5v-2.3c-.1.1-.8.5-1 .7-.1.3-.1.4-.2.4s-.1 0-.1-.1l-.5-.8c.5-.2.8-.4 1.8-1v-2.7h-1.6v-.8h1.6v-2.5l.9.1c.1 0 .2 0 .2.2 0 .1-.1.2-.2.3v2h1.4v.8H16v1.9zm4.3-5.5.9.1c.2 0 .2.1.2.1 0 .1-.1.1-.2.2v1.3h2.4v.8h-2.4v1.5H24v.8h-6.6v-.8h2.8v-1.5h-2.1v-.8h2.1v-1.7zm-2.6 6.2h3.9v-1.1l1 .1s.1 0 .1.1-.2.2-.3.2v.7H24v.8h-1.7v2.6c0 .7-.1 1-1.1 1h-.7l-.3-.9c.3 0 .6.1.8.1.2 0 .4 0 .4-.3v-2.5h-3.9v-.8zm.9 1.4c.7.6 1 1 1.2 1.3l-.6.5c-.5-.8-.9-1.2-1.1-1.4l.5-.4zM33.2 192.8l.4.3c.1 0 .1.1.1.2s-.2.1-.4.1l-.6.6h2v2.9h-7.3V194h1.8c-.2-.3-.5-.6-.7-.8l.4-.3h-2v1.6c0 1.4-.1 2.8-.4 4.3-.3 1.2-.7 1.8-.8 2.1l-.8-.3c.2-.3.6-.9.8-1.9.4-1.6.4-3.1.4-4.7 0-1.2 0-2.6-.1-3.4h9.1v2.2h-1.9zm1.2-1.6h-7.5v.9h7.4v-.9zm-1 9.6v-.3h-4.5v.4H28v-3.5h6.2v3.4h-.8zm-2.8-6.2h-2.4v.5h2.4v-.5zm0 1.1h-2.4v.5h2.4v-.5zm2.8 2.3h-4.5v.6h4.5v-.6zm0 1.2h-4.5v.7h4.5v-.7zm-4.2-6.4c.2.2.5.5.8.9l-.3.2h2.6l-.3-.3c.4-.3.5-.5.8-.9h-3.6zm4.7 1.8h-2.4v.5h2.4v-.5zm0 1.1h-2.4v.5h2.4v-.5z" class="st0"/><path d="M41.3 80h206.6v133.4H41.3z" style="fill:#ae9959"/><path d="M248 80H41.4" style="fill:none;stroke:#231815;stroke-width:.3804"/><path d="M41.3 177.2h206.6v36.2H41.3z" style="fill:#3d2000"/><defs><path id="SVGID_1_" d="M74.1 47.9H217v1.5H74.1z"/></defs><clipPath id="SVGID_00000071521615134209616050000013993411605041119117_"><use xlink:href="#SVGID_1_" style="overflow:visible"/></clipPath><linearGradient id="SVGID_00000115473469405661403470000010190019686945729965_" x1="695.736" x2="697.538" y1="571.186" y2="571.186" gradientTransform="matrix(97.4279 0 0 -110.476 -67730.586 63150.996)" gradientUnits="userSpaceOnUse"><stop offset="0" style="stop-color:#fff"/><stop offset=".023" style="stop-color:#e5e5e5"/><stop offset=".055" style="stop-color:#c8c8c8"/><stop offset=".091" style="stop-color:#afafaf"/><stop offset=".132" style="stop-color:#9c9c9c"/><stop offset=".179" style="stop-color:#8f8f8f"/><stop offset=".24" style="stop-color:#878787"/><stop offset=".36" style="stop-color:#858585"/><stop offset=".657" style="stop-color:#fff"/><stop offset="1" style="stop-color:#888"/></linearGradient><path d="M74.1 47.9H217v1.5H74.1z" style="clip-path:url(#SVGID_00000071521615134209616050000013993411605041119117_);fill:url(#SVGID_00000115473469405661403470000010190019686945729965_)"/><defs><path id="SVGID_00000096780890289488196110000009662296551502531730_" d="M46 77.6h197.4v1.5H46z"/></defs><clipPath id="SVGID_00000021829399392087407940000006310244736747045032_"><use xlink:href="#SVGID_00000096780890289488196110000009662296551502531730_" style="overflow:visible"/></clipPath><linearGradient id="SVGID_00000177452935170495189440000008807255782428700052_" x1="695.731" x2="697.534" y1="571.07" y2="571.07" gradientTransform="matrix(97.4296 0 0 -110.4778 -67731.258 63168.941)" gradientUnits="userSpaceOnUse"><stop offset="0" style="stop-color:#fff"/><stop offset=".023" style="stop-color:#e5e5e5"/><stop offset=".055" style="stop-color:#c8c8c8"/><stop offset=".091" style="stop-color:#afafaf"/><stop offset=".132" style="stop-color:#9c9c9c"/><stop offset=".179" style="stop-color:#8f8f8f"/><stop offset=".24" style="stop-color:#878787"/><stop offset=".36" style="stop-color:#858585"/><stop offset=".657" style="stop-color:#fff"/><stop offset="1" style="stop-color:#888"/></linearGradient><path d="M46 77.6h197.4v1.5H46z" style="clip-path:url(#SVGID_00000021829399392087407940000006310244736747045032_);fill:url(#SVGID_00000177452935170495189440000008807255782428700052_)"/><defs><path id="SVGID_00000158713417527306416600000013346026909940739483_" d="M74.1 47.9H217v1.5H74.1z"/></defs><clipPath id="SVGID_00000032613890417000284690000003772091989396694692_"><use xlink:href="#SVGID_00000158713417527306416600000013346026909940739483_" style="overflow:visible"/></clipPath><linearGradient id="SVGID_00000044146943483271398510000004079001269694127028_" x1="691.05" x2="692.85" y1="469.508" y2="469.508" gradientTransform="matrix(0 9.7252 8.5766 0 -3881.223 -6682.026)" gradientUnits="userSpaceOnUse"><stop offset="0" style="stop-color:#fff"/><stop offset=".023" style="stop-color:#e5e5e5"/><stop offset=".055" style="stop-color:#c8c8c8"/><stop offset=".091" style="stop-color:#afafaf"/><stop offset=".132" style="stop-color:#9c9c9c"/><stop offset=".179" style="stop-color:#8f8f8f"/><stop offset=".24" style="stop-color:#878787"/><stop offset=".36" style="stop-color:#858585"/><stop offset=".657" style="stop-color:#fff"/><stop offset="1" style="stop-color:#888"/></linearGradient><path d="M74.1 47.9H217v1.5H74.1z" style="clip-path:url(#SVGID_00000032613890417000284690000003772091989396694692_);fill:url(#SVGID_00000044146943483271398510000004079001269694127028_)"/><defs><path id="SVGID_00000043455283700248044670000015700908575420480911_" d="M74.1 24.6H217v1.5H74.1z"/></defs><clipPath id="SVGID_00000078037587207227538190000006699969393360535207_"><use xlink:href="#SVGID_00000043455283700248044670000015700908575420480911_" style="overflow:visible"/></clipPath><linearGradient id="SVGID_00000087381731880949183500000015979743951333999788_" x1="695.736" x2="697.538" y1="571.281" y2="571.281" gradientTransform="matrix(97.4279 0 0 -110.476 -67730.586 63138.133)" gradientUnits="userSpaceOnUse"><stop offset="0" style="stop-color:#fff"/><stop offset=".023" style="stop-color:#e5e5e5"/><stop offset=".055" style="stop-color:#c8c8c8"/><stop offset=".091" style="stop-color:#afafaf"/><stop offset=".132" style="stop-color:#9c9c9c"/><stop offset=".179" style="stop-color:#8f8f8f"/><stop offset=".24" style="stop-color:#878787"/><stop offset=".36" style="stop-color:#858585"/><stop offset=".657" style="stop-color:#fff"/><stop offset="1" style="stop-color:#888"/></linearGradient><path d="M74.1 24.6H217v1.5H74.1z" style="clip-path:url(#SVGID_00000078037587207227538190000006699969393360535207_);fill:url(#SVGID_00000087381731880949183500000015979743951333999788_)"/><defs><path id="SVGID_00000150085165799817375930000005390952073682853042_" d="M74.1 24.6H217v1.5H74.1z"/></defs><clipPath id="SVGID_00000183962387988949934100000001199328185729560451_"><use xlink:href="#SVGID_00000150085165799817375930000005390952073682853042_" style="overflow:visible"/></clipPath><linearGradient id="SVGID_00000034799731062998944340000014778718626287111556_" x1="689.948" x2="691.753" y1="469.585" y2="469.585" gradientTransform="matrix(0 9.7315 8.5821 0 -3884.466 -6699.028)" gradientUnits="userSpaceOnUse"><stop offset="0" style="stop-color:#fff"/><stop offset=".023" style="stop-color:#e5e5e5"/><stop offset=".055" style="stop-color:#c8c8c8"/><stop offset=".091" style="stop-color:#afafaf"/><stop offset=".132" style="stop-color:#9c9c9c"/><stop offset=".179" style="stop-color:#8f8f8f"/><stop offset=".24" style="stop-color:#878787"/><stop offset=".36" style="stop-color:#858585"/><stop offset=".657" style="stop-color:#fff"/><stop offset="1" style="stop-color:#888"/></linearGradient><path d="M74.1 24.6H217v1.5H74.1z" style="clip-path:url(#SVGID_00000183962387988949934100000001199328185729560451_);fill:url(#SVGID_00000034799731062998944340000014778718626287111556_)"/><defs><path id="SVGID_00000098911188018526100890000004191868410980015518_" d="M74.1 1.2H217v1.5H74.1z"/></defs><clipPath id="SVGID_00000160875137931413772300000000470783473073471673_"><use xlink:href="#SVGID_00000098911188018526100890000004191868410980015518_" style="overflow:visible"/></clipPath><linearGradient id="SVGID_00000102503009443376076170000006759287572889440447_" x1="695.736" x2="697.538" y1="571.375" y2="571.375" gradientTransform="matrix(97.4279 0 0 -110.476 -67730.586 63125.184)" gradientUnits="userSpaceOnUse"><stop offset="0" style="stop-color:#fff"/><stop offset=".023" style="stop-color:#e5e5e5"/><stop offset=".055" style="stop-color:#c8c8c8"/><stop offset=".091" style="stop-color:#afafaf"/><stop offset=".132" style="stop-color:#9c9c9c"/><stop offset=".179" style="stop-color:#8f8f8f"/><stop offset=".24" style="stop-color:#878787"/><stop offset=".36" style="stop-color:#858585"/><stop offset=".657" style="stop-color:#fff"/><stop offset="1" style="stop-color:#888"/></linearGradient><path d="M74.1 1.2H217v1.5H74.1z" style="clip-path:url(#SVGID_00000160875137931413772300000000470783473073471673_);fill:url(#SVGID_00000102503009443376076170000006759287572889440447_)"/><defs><path id="SVGID_00000168081970247179617100000003580051372524389278_" d="M74.1 1.2H217v1.5H74.1z"/></defs><clipPath id="SVGID_00000079449584403043664440000013843150209947636102_"><use xlink:href="#SVGID_00000168081970247179617100000003580051372524389278_" style="overflow:visible"/></clipPath><linearGradient id="SVGID_00000148622469311634608940000015662113036281157016_" x1="688.871" x2="690.673" y1="469.266" y2="469.266" gradientTransform="matrix(0 9.7051 8.5589 0 -3870.835 -6693.653)" gradientUnits="userSpaceOnUse"><stop offset="0" style="stop-color:#fff"/><stop offset=".023" style="stop-color:#e5e5e5"/><stop offset=".055" style="stop-color:#c8c8c8"/><stop offset=".091" style="stop-color:#afafaf"/><stop offset=".132" style="stop-color:#9c9c9c"/><stop offset=".179" style="stop-color:#8f8f8f"/><stop offset=".24" style="stop-color:#878787"/><stop offset=".36" style="stop-color:#858585"/><stop offset=".657" style="stop-color:#fff"/><stop offset="1" style="stop-color:#888"/></linearGradient><path d="M74.1 1.2H217v1.5H74.1z" style="clip-path:url(#SVGID_00000079449584403043664440000013843150209947636102_);fill:url(#SVGID_00000148622469311634608940000015662113036281157016_)"/><defs><path id="SVGID_00000072959378045231740820000015798477746582627244_" d="M46 77.6h197.4v1.5H46z"/></defs><clipPath id="SVGID_00000181085338466427817060000004877118034991186074_"><use xlink:href="#SVGID_00000072959378045231740820000015798477746582627244_" style="overflow:visible"/></clipPath><linearGradient id="SVGID_00000091708900014958093650000015939278477715135639_" x1="692.331" x2="694.128" y1="469.3" y2="469.3" gradientTransform="matrix(0 9.7103 8.5634 0 -3874.137 -6654.445)" gradientUnits="userSpaceOnUse"><stop offset="0" style="stop-color:#fff"/><stop offset=".023" style="stop-color:#e5e5e5"/><stop offset=".055" style="stop-color:#c8c8c8"/><stop offset=".091" style="stop-color:#afafaf"/><stop offset=".132" style="stop-color:#9c9c9c"/><stop offset=".179" style="stop-color:#8f8f8f"/><stop offset=".24" style="stop-color:#878787"/><stop offset=".36" style="stop-color:#858585"/><stop offset=".657" style="stop-color:#fff"/><stop offset="1" style="stop-color:#888"/></linearGradient><path d="M46 77.6h197.4v1.5H46z" style="clip-path:url(#SVGID_00000181085338466427817060000004877118034991186074_);fill:url(#SVGID_00000091708900014958093650000015939278477715135639_)"/><defs><path id="SVGID_00000080926320431905700670000011480400247374980746_" d="M74.1 1.2h4.1v97h-4.1z"/></defs><clipPath id="SVGID_00000127739247724501597720000013152632987430048918_"><use xlink:href="#SVGID_00000080926320431905700670000011480400247374980746_" style="overflow:visible"/></clipPath><linearGradient id="SVGID_00000160163203941465924720000014530124279050013333_" x1="307.644" x2="309.447" y1="628.06" y2="628.06" gradientTransform="matrix(2.2499 0 0 -2.2499 -618.066 1462.813)" gradientUnits="userSpaceOnUse"><stop offset="0" style="stop-color:#fff"/><stop offset=".023" style="stop-color:#e5e5e5"/><stop offset=".055" style="stop-color:#c8c8c8"/><stop offset=".091" style="stop-color:#afafaf"/><stop offset=".132" style="stop-color:#9c9c9c"/><stop offset=".179" style="stop-color:#8f8f8f"/><stop offset=".24" style="stop-color:#878787"/><stop offset=".36" style="stop-color:#858585"/><stop offset=".657" style="stop-color:#fff"/><stop offset="1" style="stop-color:#888"/></linearGradient><path d="M74.1 1.2h4.1v97h-4.1z" style="clip-path:url(#SVGID_00000127739247724501597720000013152632987430048918_);fill:url(#SVGID_00000160163203941465924720000014530124279050013333_)"/><defs><path id="SVGID_00000142174367437351020120000000228554950102808741_" d="M120.4 1.2h4.1v97h-4.1z"/></defs><clipPath id="SVGID_00000150102642767353393630000006727034588809939131_"><use xlink:href="#SVGID_00000142174367437351020120000000228554950102808741_" style="overflow:visible"/></clipPath><linearGradient id="SVGID_00000049907283553421526840000002951525039486527127_" x1="317.915" x2="319.718" y1="627.908" y2="627.908" gradientTransform="matrix(2.2563 0 0 -2.2563 -596.933 1466.49)" gradientUnits="userSpaceOnUse"><stop offset="0" style="stop-color:#fff"/><stop offset=".023" style="stop-color:#e5e5e5"/><stop offset=".055" style="stop-color:#c8c8c8"/><stop offset=".091" style="stop-color:#afafaf"/><stop offset=".132" style="stop-color:#9c9c9c"/><stop offset=".179" style="stop-color:#8f8f8f"/><stop offset=".24" style="stop-color:#878787"/><stop offset=".36" style="stop-color:#858585"/><stop offset=".657" style="stop-color:#fff"/><stop offset="1" style="stop-color:#888"/></linearGradient><path d="M120.4 1.2h4.1v97h-4.1z" style="clip-path:url(#SVGID_00000150102642767353393630000006727034588809939131_);fill:url(#SVGID_00000049907283553421526840000002951525039486527127_)"/><defs><path id="SVGID_00000134249386519557036860000009430555834426265999_" d="M166.7 1.2h4.1v97h-4.1z"/></defs><clipPath id="SVGID_00000059291050719390220920000016121693506742374551_"><use xlink:href="#SVGID_00000134249386519557036860000009430555834426265999_" style="overflow:visible"/></clipPath><linearGradient id="SVGID_00000135650689174876277560000002946274590582685099_" x1="326.952" x2="328.755" y1="628.194" y2="628.194" gradientTransform="matrix(2.2544 0 0 -2.2544 -570.403 1465.94)" gradientUnits="userSpaceOnUse"><stop offset="0" style="stop-color:#fff"/><stop offset=".023" style="stop-color:#e5e5e5"/><stop offset=".055" style="stop-color:#c8c8c8"/><stop offset=".091" style="stop-color:#afafaf"/><stop offset=".132" style="stop-color:#9c9c9c"/><stop offset=".179" style="stop-color:#8f8f8f"/><stop offset=".24" style="stop-color:#878787"/><stop offset=".36" style="stop-color:#858585"/><stop offset=".657" style="stop-color:#fff"/><stop offset="1" style="stop-color:#888"/></linearGradient><path d="M166.7 1.2h4.1v97h-4.1z" style="clip-path:url(#SVGID_00000059291050719390220920000016121693506742374551_);fill:url(#SVGID_00000135650689174876277560000002946274590582685099_)"/><defs><path id="SVGID_00000067194203397814731400000009961590006762824066_" d="M213 1.2h4.1v97H213z"/></defs><clipPath id="SVGID_00000058566940223135802350000007328546104601833092_"><use xlink:href="#SVGID_00000067194203397814731400000009961590006762824066_" style="overflow:visible"/></clipPath><linearGradient id="SVGID_00000044147726046708181070000009579323501673931451_" x1="335.128" x2="336.931" y1="628.06" y2="628.06" gradientTransform="matrix(2.2499 0 0 -2.2499 -541.042 1462.813)" gradientUnits="userSpaceOnUse"><stop offset="0" style="stop-color:#fff"/><stop offset=".023" style="stop-color:#e5e5e5"/><stop offset=".055" style="stop-color:#c8c8c8"/><stop offset=".091" style="stop-color:#afafaf"/><stop offset=".132" style="stop-color:#9c9c9c"/><stop offset=".179" style="stop-color:#8f8f8f"/><stop offset=".24" style="stop-color:#878787"/><stop offset=".36" style="stop-color:#858585"/><stop offset=".657" style="stop-color:#fff"/><stop offset="1" style="stop-color:#888"/></linearGradient><path d="M213 1.2h4.1v97H213z" style="clip-path:url(#SVGID_00000058566940223135802350000007328546104601833092_);fill:url(#SVGID_00000044147726046708181070000009579323501673931451_)"/><defs><path id="SVGID_00000024707672036736096170000005520039839753966267_" d="M210.3 78.4v11.2h-36.9V78.4H164v11.2h-36.8V78.4h-9.5v11.2H80.9V78.4H69.5v21.9h152.1V78.4z"/></defs><clipPath id="SVGID_00000170237064985966416020000011911530148335318196_"><use xlink:href="#SVGID_00000024707672036736096170000005520039839753966267_" style="overflow:visible"/></clipPath><linearGradient id="SVGID_00000039105301345199433950000017819809831007917699_" x1="695.737" x2="697.54" y1="573.203" y2="573.203" gradientTransform="matrix(89.7883 -24.0233 -21.186 -101.8132 -50264.379 75185.648)" gradientUnits="userSpaceOnUse"><stop offset="0" style="stop-color:#fff"/><stop offset=".023" style="stop-color:#e5e5e5"/><stop offset=".055" style="stop-color:#c8c8c8"/><stop offset=".091" style="stop-color:#afafaf"/><stop offset=".132" style="stop-color:#9c9c9c"/><stop offset=".179" style="stop-color:#8f8f8f"/><stop offset=".24" style="stop-color:#878787"/><stop offset=".36" style="stop-color:#858585"/><stop offset=".657" style="stop-color:#fff"/><stop offset="1" style="stop-color:#888"/></linearGradient><path d="m65.1 79.6 148.5-39.7L226 99.2 77.5 138.9z" style="clip-path:url(#SVGID_00000170237064985966416020000011911530148335318196_);fill:url(#SVGID_00000039105301345199433950000017819809831007917699_)"/><defs><path id="SVGID_00000134944531753283608010000015776411264986051498_" d="M117.7 101.3V205.2h9.5V101.3z"/></defs><clipPath id="SVGID_00000057130629426836843520000009736279876203316916_"><use xlink:href="#SVGID_00000134944531753283608010000015776411264986051498_" style="overflow:visible"/></clipPath><linearGradient id="SVGID_00000102519040034912465530000017984806540627417742_" x1="538.433" x2="540.236" y1="584.296" y2="584.296" gradientTransform="matrix(5.2561 0 0 -5.96 -2715.294 3635.642)" gradientUnits="userSpaceOnUse"><stop offset="0" style="stop-color:#8d9aa3"/><stop offset=".118" style="stop-color:#fff"/><stop offset=".303" style="stop-color:#8e919e"/><stop offset=".601" style="stop-color:#fff"/><stop offset=".837" style="stop-color:#8e919e"/><stop offset="1" style="stop-color:#fff"/></linearGradient><path d="M117.7 101.3h9.5v103.9h-9.5z" style="clip-path:url(#SVGID_00000057130629426836843520000009736279876203316916_);fill:url(#SVGID_00000102519040034912465530000017984806540627417742_)"/><defs><path id="SVGID_00000132773936434041808030000007866570219877841281_" d="M71.6 101.3V205.2H81V101.3z"/></defs><clipPath id="SVGID_00000028304543747931490490000018317779157360747680_"><use xlink:href="#SVGID_00000132773936434041808030000007866570219877841281_" style="overflow:visible"/></clipPath><linearGradient id="SVGID_00000183251061455355592340000004489362915000259712_" x1="534.502" x2="536.304" y1="584.165" y2="584.165" gradientTransform="matrix(5.2573 0 0 -5.9614 -2741.372 3635.679)" gradientUnits="userSpaceOnUse"><stop offset="0" style="stop-color:#8d9aa3"/><stop offset=".118" style="stop-color:#fff"/><stop offset=".303" style="stop-color:#8e919e"/><stop offset=".601" style="stop-color:#fff"/><stop offset=".837" style="stop-color:#8e919e"/><stop offset="1" style="stop-color:#fff"/></linearGradient><path d="M71.6 101.3h9.5v103.9h-9.5z" style="clip-path:url(#SVGID_00000028304543747931490490000018317779157360747680_);fill:url(#SVGID_00000183251061455355592340000004489362915000259712_)"/><defs><path id="SVGID_00000068670546592740230810000002342386008878807940_" d="M210.3 101.3V205.2h9.5V101.3z"/></defs><clipPath id="SVGID_00000165205701379045346950000003336433925329717916_"><use xlink:href="#SVGID_00000068670546592740230810000002342386008878807940_" style="overflow:visible"/></clipPath><linearGradient id="SVGID_00000052811177553870151310000009112835238258255032_" x1="546.293" x2="548.096" y1="584.242" y2="584.242" gradientTransform="matrix(5.2557 0 0 -5.9596 -2663.725 3635.088)" gradientUnits="userSpaceOnUse"><stop offset="0" style="stop-color:#8d9aa3"/><stop offset=".118" style="stop-color:#fff"/><stop offset=".303" style="stop-color:#8e919e"/><stop offset=".601" style="stop-color:#fff"/><stop offset=".837" style="stop-color:#8e919e"/><stop offset="1" style="stop-color:#fff"/></linearGradient><path d="M210.3 101.3h9.5v103.9h-9.5z" style="clip-path:url(#SVGID_00000165205701379045346950000003336433925329717916_);fill:url(#SVGID_00000052811177553870151310000009112835238258255032_)"/><defs><path id="SVGID_00000158025005733191391810000016199084270147412632_" d="M164.2 101.3V205.2h9.5V101.3z"/></defs><clipPath id="SVGID_00000016790705083204571070000005890224797982098067_"><use xlink:href="#SVGID_00000158025005733191391810000016199084270147412632_" style="overflow:visible"/></clipPath><linearGradient id="SVGID_00000122686760431069269380000012090512523465487781_" x1="542.378" x2="544.181" y1="584.296" y2="584.296" gradientTransform="matrix(5.2561 0 0 -5.96 -2689.465 3635.642)" gradientUnits="userSpaceOnUse"><stop offset="0" style="stop-color:#8d9aa3"/><stop offset=".118" style="stop-color:#fff"/><stop offset=".303" style="stop-color:#8e919e"/><stop offset=".601" style="stop-color:#fff"/><stop offset=".837" style="stop-color:#8e919e"/><stop offset="1" style="stop-color:#fff"/></linearGradient><path d="M164.2 101.3h9.5v103.9h-9.5z" style="clip-path:url(#SVGID_00000016790705083204571070000005890224797982098067_);fill:url(#SVGID_00000122686760431069269380000012090512523465487781_)"/></svg>