<svg xmlns="http://www.w3.org/2000/svg" xml:space="preserve" id="レイヤー_1" width="671" height="249" x="0" y="0" style="enable-background:new 0 0 671 249" version="1.1"><style>.st4{fill:#231815}</style><path d="M0 0h325v281H0z" style="fill:#f8f7f3"/><path d="M344 0h326.5v154.2H344z" style="fill:#fff"/><path d="M344 108.1h326.5v46.3H344z" style="fill:#fffbda"/><path d="M344 0h326.5v61.7H344z" style="fill:#eae2bd"/><path d="M355.8 93.8v-11h-2.7v-1.4c1.1-.1 2.6-.1 3.1-2.7h1.2v14.9h-1.6v.2zm11.6.4c-3.1 0-4.9-1.9-4.9-4.5 0-2.8 2-3.8 2.7-4.1-1.4-.5-2.2-1.9-2.2-3.4 0-2.2 1.5-3.9 4.3-3.9s4.3 1.8 4.3 3.9c0 1.5-.7 2.8-2.2 3.4.7.3 2.7 1.1 2.7 4.1.1 2.6-1.7 4.5-4.7 4.5zm0-7.7c-1.9 0-3.2 1.2-3.2 3.1 0 1.5.8 3 3.2 3 2.3 0 3.1-1.5 3.1-3 0-1.7-1.2-3.1-3.1-3.1zm0-6.5c-1.2 0-2.7.5-2.7 2.6 0 2 1.5 2.6 2.7 2.6s2.7-.5 2.7-2.6c-.1-2-1.5-2.6-2.7-2.6zM383 93.8l-7.2-12.2v12.2h-1.6V78.9h1.6l7.2 12.2V78.9h1.6v14.9H383zm4.9 0h-1.1l6.2-14.9h1.1l-6.2 14.9zm18.8 0v-7.7c0-.9-.3-2.2-1.6-2.2-2.3 0-2.3 2.6-2.3 2.8v7h-1.6V86c0-1.8-1.1-2.2-1.8-2.2-2.3 0-2.3 2.7-2.3 3v7h-1.4V83h1.4v1.4c.4-.9 1.1-1.8 2.7-1.8 1.9 0 2.4 1.2 2.7 1.9.5-.9 1.1-1.9 2.8-1.9 2.2 0 3 1.8 3 3.4v8h-1.6v-.2zm14.2 0v-7.7c0-.9-.3-2.2-1.6-2.2-2.3 0-2.3 2.6-2.3 2.8v7h-1.5V86c0-1.8-1.1-2.2-1.8-2.2-2.3 0-2.3 2.7-2.3 3v7h-1.5V83h1.4v1.4c.4-.9 1.1-1.8 2.7-1.8 1.9 0 2.4 1.2 2.7 1.9.5-.9 1.1-1.9 2.8-1.9 2.2 0 3 1.8 3 3.4v8h-1.6v-.2zm2.6-5.4c.1-1.8 1.1-2.6 2.7-3.5.9-.7 1.4-.9 1.4-1.9 0-1.2-.8-1.5-1.4-1.5-1.5 0-1.6 1.5-1.6 1.9h-.8c0-.4 0-1.2.5-1.8.5-.8 1.5-.8 1.9-.8.9 0 2.2.5 2.2 2.2 0 1.4-.7 1.9-1.8 2.6-1.6.9-1.8 1.6-2 2.2h3.7v.8h-4.7v-.2zm-72.1 51.9c.3-3.5 2.2-5 5.3-7.2 1.9-1.2 2.7-1.8 2.7-3.7 0-2.3-1.6-3-2.8-3-3 0-3.1 3-3.1 3.8h-1.6c0-.8.1-2.3 1.1-3.7 1.2-1.6 3-1.8 3.7-1.8 1.8 0 4.5.9 4.5 4.3 0 2.7-1.4 3.8-3.7 5.3-3.2 2-3.7 3.2-3.9 4.2h7.6v1.5h-9.6v.3zm18.9-3.5v3.5h-1.6v-3.5h-6.2v-1.6l6.4-9.7h1.5v9.7h1.9v1.6h-2zm-1.5-8.8-4.7 7.3h4.7V128zm14.2 12.3-7.2-12.2v12.2h-1.6v-14.9h1.6l7.2 12.2v-12.2h1.6v14.9H383zm4.9 0h-1.1l6.2-14.9h1.1l-6.2 14.9zm18.8 0v-7.7c0-.9-.3-2.2-1.6-2.2-2.3 0-2.3 2.6-2.3 2.8v7h-1.6v-7.9c0-1.8-1.1-2.2-1.8-2.2-2.3 0-2.3 2.7-2.3 3v7h-1.4v-10.8h1.4v1.4c.4-.9 1.1-1.8 2.7-1.8 1.9 0 2.4 1.2 2.7 1.9.5-.8 1.1-1.9 2.8-1.9 2.2 0 3 1.8 3 3.4v8h-1.6zm14.2 0v-7.7c0-.9-.3-2.2-1.6-2.2-2.3 0-2.3 2.6-2.3 2.8v7h-1.5v-7.9c0-1.8-1.1-2.2-1.8-2.2-2.3 0-2.3 2.7-2.3 3v7h-1.5v-10.8h1.4v1.4c.4-.9 1.1-1.8 2.7-1.8 1.9 0 2.4 1.2 2.7 1.9.5-.8 1.1-1.9 2.8-1.9 2.2 0 3 1.8 3 3.4v8h-1.6zm2.6-5.4c.1-1.8 1.1-2.6 2.7-3.5.9-.7 1.4-.9 1.4-1.9 0-1.2-.8-1.5-1.4-1.5-1.5 0-1.6 1.5-1.6 1.9h-.8c0-.4 0-1.2.5-1.8.5-.8 1.5-.8 1.9-.8.9 0 2.2.5 2.2 2.2 0 1.4-.7 1.9-1.8 2.6-1.6.9-1.8 1.6-2 2.2h3.7v.8h-4.7v-.2zM358.1 27.1v-1.4h8.4v-7h-8.4v-1.4h9.6V28h-1.2v-.9h-8.4zm22.9-5.7c-1.6 2-3.5 4.2-9.9 6.9 0 0-.1.4-.3.4s-.1-.3-.3-.4l-.5-1.5c1.5-.3 3.1-.7 6-2.6 2.6-1.8 3.7-3.1 4.6-4.2l.4 1.4zm-8-1.5c-.7-1.1-1.6-2-2.4-3l.8-.9c.4.4 1.8 1.8 2.6 3.1l-1 .8zm18.4-2.6c.3 0 .3 0 .5-.1l.7.9c-.5.5-.7.8-.8 1.1-1.2 3.8-2 5.6-3.8 7.4-1.1 1.2-1.8 1.8-3.1 2.6l-1.1-1.1c1.4-.8 2.8-1.6 4.6-4.1 1.6-2.3 1.9-4.2 2.3-5.7h-4.5c-.7 1.1-1.4 2.2-3 3.8l-.9-.8c.8-.7 1.8-1.5 2.8-3.2.9-1.5 1.2-2.4 1.4-3.1l1.1.4c.3.1.3.3.3.3 0 .1-.1.1-.5.3-.1.4-.3.8-.5 1.2h4.6v.1zm4.9-1.5c.1 0 .3 0 .3.1s0 .1-.3.4V24H395v-8.4l1.3.2zm.5 12.6c1.8-.8 2.4-1.4 3-2.2.8-1.2 1.5-2.7 1.5-5.6v-5.4h1.2s.3 0 .3.3c0 .1 0 .1-.3.4 0 5 0 6.8-.5 8.8-.8 2.6-2.7 3.8-4.2 4.6l-1-.9zm8-5.1v-1.4h11v1.4h-11zm14.9-3.3c2.6 1.4 3.5 2.2 5 3.4l-.7 1.2c-.4-.4-1.1-1.1-2-1.9-1.2-.9-1.9-1.2-2.6-1.6V29h-1.2V15.2l1.1.1c.1 0 .4 0 .4.3 0 .1-.1.1-.4.4v5l.4-1zm-39.1 29.8c-.3.8-.8 1.5-2.7 1.4l-.4-1.5c.4 0 .8.1 1.1.1.5 0 .9-.1 1.2-1.6.1-.4.4-2.2.4-3.4h-1.9c-.1.5-.1.7-.1 1.1l-1.2-.3c.3-1.1.4-2 .5-3.1.1-1.1.3-2 .3-3.1l.9.3h1.4l.1-2.3h-3v-1.2h4.2l-.1 4.7h-2.4c0 .4-.3 2.7-.3 2.8h2.8c-.2 1.4-.3 4.4-.8 6.1zm8.9 1.1c0-.1-.1-.3-.3-.5-.1-.1-.1-.3-.3-.7-4.2.8-4.9.9-6.4 1.2 0 .1 0 .4-.3.4-.1 0-.3-.3-.3-.4l-.4-1.4c1.4 0 2.6-.3 3.9-.4v-2.6h-2v.7h-1.1v-5.1h3.1v-2c-.7.1-1.2.1-2.6.3 0 .1-.1.4-.3.4s-.3-.1-.3-.3l-.3-1.4h1.4c.9-1.8 1.4-2.8 1.8-3.9l.9.7c.1.1.1.1.1.3 0 .1-.1.3-.4.4-.7 1.5-.9 1.9-1.4 2.6 2-.1 2.3-.1 3.7-.3-.4-.7-.5-.9-1.1-1.6l.8-.7c1.2 1.5 1.9 3 2.3 3.8l-.8.7c-.3-.5-.4-.8-.7-1.2-.7.1-1.6.3-2.3.3v2.2h3.2v4.5h-3.2v2.4c1.2-.1 1.4-.1 2-.3-.3-.4-.4-.7-.5-1.1l.8-.8c.7 1.2 1.4 2.2 1.8 3.4l-.8.4zm-4.1-7.6h-2v2.2h2v-2.2zm3.3 0h-2.2v2.2h2.2v-2.2zm5.8-1.7c0 2.4-.1 6.8-1.6 9.9l-1.1-.4c.9-2 1.6-4.2 1.6-9.2v-4.5h5v-1.9l1.2.1c.1 0 .3 0 .3.3s-.3.3-.3.4v1.2h5.8v1.2h-11v2h2.4v-1.6l1.1.1c.1 0 .3 0 .3.1s-.1.3-.4.4v.9h3V39l1.1.1c.1 0 .3 0 .3.3 0 .1 0 .1-.3.4v.9h2.6V42H402v2.3h-5.1V42h-2.3v-.4zm.5 8.9c2.2-.5 3-.9 4.1-1.5-.9-.9-1.4-1.9-1.6-2.3l.9-.5c.4.8.8 1.4 1.6 2.2.9-.8 1.5-1.6 1.9-2.2h-6.5V45h7.7l.4.5c-.4.8-1.2 2.2-2.7 3.5 1.1.7 2.6.9 4.5 1.1l-.5 1.4c-2.8-.4-3.9-.9-4.9-1.6-1.4.8-2.7 1.5-4.2 1.9l-.7-1.3zm6-7.7v-1.2h-3v1.2h3zm59.7 35.6c-.3 1.8-.3 2.6-.3 3.5 1.2-.3 2-.5 3.1-.9l.1 1.5c-.8.3-1.5.4-3.2.8v3.1c1.4-.5 2.6-1.1 3.9-1.1 2.7 0 3.5 2.4 3.5 4.2 0 3-1.9 3.9-3.2 3.9-.9 0-1.5-.4-2-.8l.7-1.2c.4.3.8.5 1.4.5 1.1 0 2-1.1 2-2.6 0-2.4-2-3-2.7-3-.7 0-2 .3-3.5 1.1v4.7c0 .7 0 1.5-.8 1.5-.5 0-.9-.3-2-1.6-.3-.3-.9-1.2-1.2-1.2-.1 0-.1 0-.7.4l-1.1-1.4c.8-.4 4.1-2.6 4.6-3v-3.7c-.8.1-1.9.1-2.6.1l-.5-1.5c1.2 0 1.9 0 3.1-.1 0-2.6 0-2.8-.1-4.2l1.5 1zm-1.5 10c-.7.5-1.5 1.1-1.9 1.6.4.5 1.4 1.8 1.8 1.8.3 0 .3-.1.3-.7v-2.7h-.2zm6.3-7.2c1.2.7 2 1.2 3.1 2.3l-.7 1.2c-.9-.9-1.8-1.8-3.1-2.3l.7-1.2zm16.1 12.2c-.8-.8-1.8-1.8-4.1-2.7 0 .4 0 1.1-.1 1.4-.4 1.8-1.9 2.2-3.4 2.2-.3 0-1.8 0-2.6-.7-.5-.4-.9-1.1-.9-2 0-2.4 2.6-2.7 3.9-2.7.8 0 1.1 0 1.6.1-.1-1.8-.1-3.7-.1-5v-6.1l1.8.4c-.4 1.9-.4 3-.4 3.7.3 0 .5.1.9.1.3 0 2.3 0 4.1-.8l-.1 1.8c-1.4.3-2.7.4-4.1.4h-.9c0 2.2 0 3.2.3 5.8 1.6.5 2.4 1.1 4.7 2.6l-.6 1.5zm-7.5-3.5c-.3 0-.8 0-1.5.3-.3.1-.9.4-.9 1.4 0 1.5 1.8 1.5 2.2 1.5 1.6 0 2.2-.7 2.2-1.9v-.9c-.4-.3-1.2-.4-2-.4zm13-11.4c2.7 0 3.9-.1 6.4-.9l.9 1.4c-.1.3-.3.4-.8.9s-2.8 3.4-3.8 4.7c.5-.1 1.2-.4 1.8-.5 2.2-.7 3.7-1.4 4.5-1.6l.3 1.6c-.4.1-.7.3-1.1.3-.8.1-2.2 1.8-2.6 2.3-.5.7-2 2.4-2 4.3 0 1.6 1.2 2.2 2.3 2.4.5.1.9.1 2 .1v1.6c-.8 0-1.5-.1-2.2-.3-.9-.1-3.2-.8-3.2-4.1 0-2.6 2-4.6 3.1-5.7-.9.4-5.4 1.8-6.4 2.2-.4.1-.7.3-1.4.5l-.5-1.8c.8 0 1.9-.3 2.8-.5.5-.1.8-.4 1.2-.8 1.5-2 1.8-2.2 3.2-4.1.5-.7.5-.8.7-1.2-.8.3-2.8.7-4.6.9l-.6-1.7zm15.7 15.7c-1.5 0-3-.4-4.1-2-.7-1.1-.8-2.2-.8-3h1.6c0 .8.3 3.5 3.2 3.5 2.2 0 3.2-1.5 3.2-3.2 0-2.2-1.5-2.8-2.8-2.8h-1.4v-1.4h1.1c.9 0 2.7-.7 2.7-2.6 0-1.1-.5-2.6-2.7-2.6-.8 0-1.8.3-2.3 1.1-.5.7-.5 1.5-.7 2h-1.4c.3-3.7 2.6-4.6 4.5-4.6 2.6 0 4.2 1.6 4.2 3.9 0 2.6-1.6 3.1-2.2 3.4.7.3 2.6.8 2.6 3.7.2 2.5-1.6 4.6-4.7 4.6zm11.1 0c-3.9 0-4.9-4.1-4.9-7.9 0-3.8.9-7.9 4.9-7.9 3.9 0 4.7 4.2 4.7 7.9.1 3.9-.9 7.9-4.7 7.9zm0-14.2c-2.4 0-3.1 3-3.1 6.4 0 3.5.7 6.4 3.1 6.4 2.4 0 3.1-2.8 3.1-6.4 0-3.5-.6-6.4-3.1-6.4zm15.7 10.6v4.7h-1.4v-4.7h-7.9v-1.5h3v-5.6h4.9v-3.1h-3.9c-.7 1.2-1.2 1.9-1.9 2.8l-1.1-.8c1.4-1.6 2.6-3.2 3.4-5.8.4.1.9.4 1.2.7.3.1.3.1.3.3 0 .3-.3.3-.5.3-.1.3-.3.5-.5 1.2h9.9v1.5h-5.4v3.1h4.6v1.5h-4.6v4.1h6.1v1.5h-6.1v-.2zm-1.3-5.4h-3.7v4.1h3.7v-4.1zm-67.6 39.6c-.3 1.8-.3 2.6-.3 3.5 1.2-.3 2-.5 3.1-.9l.1 1.5c-.8.3-1.5.4-3.2.8v3.1c1.4-.5 2.6-1.1 3.9-1.1 2.7 0 3.5 2.4 3.5 4.2 0 3-1.9 3.9-3.2 3.9-.9 0-1.5-.4-2-.8l.7-1.2c.4.3.8.5 1.4.5 1.1 0 2-1.1 2-2.6 0-2.4-2-3-2.7-3-.7 0-2 .3-3.5 1.1v4.7c0 .6 0 1.5-.8 1.5-.5 0-.9-.3-2-1.6-.3-.3-.9-1.2-1.2-1.2-.1 0-.1 0-.7.4l-1.1-1.4c.8-.4 4.1-2.6 4.6-3V130c-.8.1-1.9.1-2.6.1l-.5-1.5c1.2 0 1.9 0 3.1-.1 0-2.6 0-2.8-.1-4.2l1.5.5zm-1.5 10.1c-.7.5-1.5 1.1-1.9 1.6.4.5 1.4 1.8 1.8 1.8.3 0 .3-.1.3-.7v-2.7h-.2zm6.3-7.1c1.2.7 2 1.2 3.1 2.3l-.7 1.2c-.9-.9-1.8-1.6-3.1-2.3l.7-1.2zm16.1 12.1c-.8-.8-1.8-1.8-4.1-2.7 0 .4 0 1.1-.1 1.4-.4 1.8-1.9 2.2-3.4 2.2-.3 0-1.8 0-2.6-.7-.5-.4-.9-1.1-.9-2 0-2.4 2.6-2.8 3.9-2.8.8 0 1.1 0 1.6.1-.1-1.8-.1-3.7-.1-5v-6.1l1.8.4c-.4 1.9-.4 3-.4 3.7.3 0 .5.1.9.1.3 0 2.3 0 4.1-.8l-.1 1.8c-1.4.3-2.7.4-4.1.4h-.9c0 2.2 0 3.2.3 5.8 1.6.5 2.4 1.1 4.7 2.6l-.6 1.6zm-7.5-3.5c-.3 0-.8 0-1.5.3-.3.1-.9.4-.9 1.2 0 1.5 1.8 1.5 2.2 1.5 1.6 0 2.2-.7 2.2-1.9v-.9c-.4 0-1.2-.2-2-.2zm13-11.4c2.7 0 3.9-.1 6.4-.9l.9 1.4c-.1.3-.3.4-.8.9s-2.8 3.4-3.8 4.7c.5-.1 1.2-.4 1.8-.5 2.2-.7 3.7-1.4 4.5-1.6l.3 1.6c-.4.1-.7.3-1.1.3-.8.1-2.2 1.8-2.6 2.3-.5.7-2 2.4-2 4.3 0 1.6 1.2 2.2 2.3 2.4.5.1.9.1 2 .1v1.6c-.8 0-1.5-.1-2.2-.3-.9-.1-3.2-.8-3.2-4.1 0-2.6 2-4.6 3.1-5.7-.9.4-5.4 1.8-6.4 2.2-.4.1-.7.3-1.4.5l-.5-1.8c.8 0 1.9-.3 2.8-.5.5-.1.8-.4 1.2-.8 1.5-2 1.8-2.2 3.2-4.1.5-.7.5-.8.7-1.2-.8.3-2.8.7-4.6.9l-.6-1.7zm16 15.7c-4.3 0-5-5-5-7.6 0-5.3 2-8.3 5.3-8.3 1.6 0 3.8.9 4.2 3.8H506c-.1-.5-.5-2.2-2.6-2.2-3.4 0-3.5 4.5-3.5 6 .7-1.1 1.8-2 3.7-2 2.3 0 4.3 1.6 4.3 4.9-.2 3.1-2 5.4-4.8 5.4zm2.3-7.6c-.5-.8-1.5-1.1-2.3-1.1-1.6 0-3.1 1.1-3.1 3.4 0 1.5.7 3.8 3.1 3.8 1.8 0 3-1.4 3-3.7 0-.6-.2-1.6-.7-2.4zm8.3 7.6c-2.7 0-4.2-1.8-4.6-4.2h1.6c.3 1.8 1.5 2.7 3 2.7 1.8 0 3.4-1.2 3.4-3.7 0-.7-.3-3.5-3.1-3.5-.8 0-2 .3-2.7 1.4h-1.6l1.1-8h7.3v1.5h-5.8l-.7 4.6c.4-.4 1.2-.9 2.7-.9 2.6 0 4.5 1.8 4.5 5-.1 3.3-2.4 5.1-5.1 5.1zm15.9-3.7v4.7h-1.4V137h-7.9v-1.5h3V130h4.9v-3.1h-3.9c-.7 1.2-1.2 1.9-1.9 2.8l-1.1-.8c1.4-1.6 2.6-3.2 3.4-5.8.4.1.9.4 1.2.7.3.1.3.1.3.3 0 .3-.3.3-.5.3-.1.3-.3.5-.5 1.2h9.9v1.5h-5.4v3.1h4.6v1.5h-4.6v4.1h6.1v1.5h-6.1v-.3zm-1.3-5.4h-3.7v4.1h3.7v-4.1zM472 29.9c-1.5-.8-2.8-2-3.8-3.7-.9-1.4-1.5-2.7-1.9-4.5-.5 2.3-1.5 5.6-5.6 8.1l-1.1-1.1c2.7-1.4 4.9-3.7 5.7-8.5h-5.7V19h5.8v-4.8l1.2.1c.1 0 .4 0 .4.3 0 0 0 .1-.4.4 0 1.6 0 1.9-.1 4.1h6.1v1.2h-5.8c.3 2 1.5 4.3 1.9 5 .5.8 1.8 2.3 4.1 3.5l-.8 1.1zm8.2-2.5c-.7-.5-1.5-1.5-2-3.5-.4 2.3-1.1 3.9-2.7 5.7l-.9-.7c2-2 2.6-3.7 2.8-6.1H475v-1.2h2.6v-2.4h-2.3V18h2.3v-3.5l1.1.1c.3 0 .4 0 .4.1s-.1.3-.4.4v2.8h2.2v1.2h-2.2v2.4h2.2v1.2H479c.7 2 1.1 2.8 2.4 4.1l-1.2.6zm6.8 2.4h-1.2c-.8 0-1.2-.1-1.2-1.4v-4.1h-1.1c-.1 3.7-1.4 4.9-3.7 5.8l-.7-1.1c2.4-.7 3.2-2 3.4-4.7h-1.4v-9.7h6.1v9.7h-1.6v3.8c0 .4 0 .4.4.4h.5c.7 0 .7-.4.7-1.9l1.1.4c-.1 2.7-.6 2.8-1.3 2.8zm-.7-14.1h-3.9v1.9h3.9v-1.9zm0 2.9h-3.9v1.9h3.9v-1.9zm0 2.9h-3.9v1.9h3.9v-1.9zm7.3 2.1c-.7-.9-.8-1.4-.9-1.9v8.5h-1.1v-8c-.4 1.2-.8 2.2-1.4 3.2l-.9-.5c1.4-2.2 1.8-3.8 2-5.1h-1.6v-1.2h1.9v-4.1l.9.1c.1 0 .3.1.3.3 0 .1-.1.1-.3.3v3.4h1.6v1.2h-1.5c.4 1.1.8 2 1.5 3l-.5.8zm5.7 2.8c1.1 1.4 2 1.9 3.9 2.3l-.7 1.1c-1.5-.4-3-1.1-4.3-3-1.1 2-2.3 2.7-4.2 3.1l-.8-1.1c1.4-.3 3-.7 3.9-2.4h-3.2v-1.1h3.7c.1-.5.1-.8.3-1.5h-2.7v-5.1h6.9v5.1H499c-.1.7-.1.9-.1 1.5h4.5v1.1h-4.1zm1.2-9.3v1.2h-1.1v-1.2h-1.8v1.4h-1.1v-1.4h-2.4V16h2.4v-1.5l1.1.1c.1 0 .3 0 .3.1s-.1.3-.4.4v.9h1.8v-1.5l1.2.1c.1 0 .3.1.3.1 0 .1-.1.3-.4.4v.9h2.2v1.1h-2.1zm.4 2.5h-4.7v1.1h4.7v-1.1zm0 2.1h-4.7v1.1h4.7v-1.1zm8.2 2.1c-.5-.5-.8-.8-1.1-1.2v7.6h-1.1v-7.7c-.5.7-.9 1.1-1.6 1.6l-.8-.8c1.9-1.5 3.1-3.2 3.8-4.7H505v-1.1h2v-3.1l1.2.1c.1 0 .3 0 .3.1s-.1.3-.4.4v2.4h1.2l.4.5c-.5 1.4-.9 2.2-1.6 3.2.5.7.8 1.1 1.6 1.9l-.6.8zm.8-2.9c-.4.7-.5.8-.8 1.1l-.5-.5c.5-.5.7-.9.9-1.4l.7.5s.1.1.1.3c0 .1-.3.1-.4 0zm4.7-3.4v1.6h3.1v9.1c0 1.5 0 1.8-2 1.8l-.3-1.4c.3 0 .8.1.9.1.4 0 .4-.1.4-.7v-1.9h-2.2v3.8h-1.1v-3.8h-2V30h-1.1V19.2h3.1v-1.6H510v-1.2h3.5v-2.2l1.1.1c.1 0 .3 0 .3.1s-.1.3-.4.3v1.5h3.8v1.2l-3.7.1zm-1.1 2.8h-2v1.9h2v-1.9zm0 2.9h-2V25h2v-1.8zm3.1-2.9h-2.2v1.9h2.2v-1.9zm0 2.9h-2.2V25h2.2v-1.8zm.6-7.2c-.4-.3-.9-.7-1.6-.9l.4-.9c.4.1.9.4 1.6.9l-.4.9zm2.1 5.8c1.9-2.7 2.6-4.7 3.5-7.7l1.1.4c.1 0 .3.1.3.3 0 .1-.3.3-.4.3-.4 1.1-.7 2-.9 2.7.3.1.3.1.3.3 0 .1-.1.3-.3.3v11.9h-1.1V20c-.4.7-.8 1.8-1.5 2.6l-1-.8zm4.4-3.8 1.1.1c.1 0 .3.1.3.1 0 .1-.1.3-.3.4v10h-1.1V18zm1.5 4.3c1.5-.4 2.4-.8 3.7-1.9-.7-.9-1.1-1.6-1.6-2.8-.4.8-.7 1.6-1.2 2.3l-.9-.7c.8-1.4 1.8-3 2.2-5.3l1.1.5c.1.1.3.1.3.3 0 .1-.3.3-.4.3-.1.4-.5 1.4-.5 1.4h5.4v1.2h-1.2c-.3.8-.7 1.8-1.6 3 .9.9 1.9 1.4 3.4 1.9l-.7 1.1c-1.4-.5-2.3-1.1-3.5-2.2-1.2 1.1-2.2 1.6-3.7 2.3l-.8-1.4zm.1 6.9c1.1 0 2.4-.1 4.1-.9.5-.3 1.9-1.1 3.2-2.6l.7.9s.1.1.1.3c0 .1-.1.1-.1.1h-.3c-3.1 3-5.3 3.2-7.2 3.5l-.5-1.3zm.4-4.7c.9-.3 2.7-.7 4.5-2.3l.7.8c0 .1.1.1.1.1 0 .1-.1.1-.1.1h-.3c-1.2.9-2 1.5-4.2 2.3l-.7-1zm0 2.4c1.1-.1 1.9-.4 3.1-1.1 1.2-.7 1.8-1.2 2.4-1.8l.7.8s.1.1.1.3c0 .1-.3.1-.4.1-2 1.6-3 2.2-5.3 3l-.6-1.3zm2.4-9.4c.4.9.7 1.5 1.4 2.2.8-.9 1.1-1.6 1.2-2.2h-2.6zM458.4 41l.9.3c.1 0 .4.1.4.3 0 .1-.3.4-.4.5v9.1h-1.1v-10c-1.2 2-2.7 4.1-5.3 5.8l-.9-.9c4.3-2.8 6.2-7.2 6.6-8.4h-6.5v-1.2h13.4v1.2H460c-.2.8-.6 1.7-1.6 3.3zm2.3-.9c1.1 1.1 2.7 2.6 4.9 5.6l-.8 1.1c-1.4-1.8-2.7-3.5-4.7-5.7l.6-1zm16.9 5.9c-.5 1.1-.9 1.6-1.5 2.3 2 .9 2.8 1.5 3.7 2.2l-.9.8c-1.1-.9-2.3-1.6-3.5-2.2-1.9 1.6-4.1 2-6.8 2.3l-.4-1.2c.5 0 1.9 0 3.2-.3 1.6-.4 2.4-.9 2.8-1.2-1.5-.5-2.6-.8-3.5-.8-.4.4-.5.7-.9.9l-.9-.7c.8-.8 1.5-1.6 1.9-2.2h-3.5v-1.2h4.2c.3-.5.7-.9.9-1.8h-3.9v-4.3h3.1v-1.5h-4.2V36h12.9v1.2H476v1.5h3.4V43H473l.7.5c.1.1.1.1.1.3 0 .1-.1.1-.4.3-.1.1-.4.4-.5.7h7.9V46h-3.2zm-6-6.2h-2.2V42h2.2v-2.2zm.4 6.2c-.1.3-.3.4-.7.9.9.1 2.2.4 3.8.9.5-.5.8-1.1 1.2-1.9H472zm2.9-8.8h-2.3v1.5h2.3v-1.5zm0 2.6h-2.3V42h2.3v-2.2zm3.3 0h-2.3V42h2.3v-2.2zm14.2 6.6-.8-.8c.8-.8 1.5-1.5 2.3-2.4h-4.1v6.4c0 .9-.1 1.8-1.6 1.8h-1.1l-.4-1.6c.3.1.9.3 1.4.3.5 0 .5-.5.5-.8v-6h-6V42h7c-.8-1.1-2.2-2.2-3.2-2.8l.5-.9c.5.3.9.7 1.8 1.2 1.1-.8 1.8-1.4 2.4-2.2h-6.8V36h8.8l.5.8c-.8.7-1.9 1.6-4.2 3.2l1.1 1.1-.5.9h5.3l.4.5c-1.1 1.5-2.3 2.9-3.3 3.9zm17.9 4.5h-4.5c-3.2 0-4.2-.7-5.4-3-.8 1.8-1.5 2.6-2.3 3.2l-.8-.9c1.4-.9 2.8-2.6 3.2-7.6l1.1.4c.1 0 .3.1.3.3 0 .1-.1.3-.4.3-.1 1.4-.4 2.3-.5 3.1.4 1.6 1.5 2.3 2.6 2.7v-7.7h-3.9v-1.1h8.8v1.2h-3.8V45h3.5v1.2h-3.5v3.7h1.2c1.5 0 3.4-.1 4.9-.3l-.5 1.3zm-1-9.6v-2.4h-10.6v2.7h-1.1v-3.8h5.8v-2.3h1.2c.1 0 .3 0 .3.1 0 .3-.3.4-.5.4v1.6h5.8v3.5h-.9v.2zm9.2-5.7c.1 0 .4 0 .4.1s-.1.3-.3.3v1.8h1.4v1.1h-1.4v7h1.4V47h-7.4v-1.1h1.6v-7h-1.5v-1.1h1.5v-2.3l.9.1c.1 0 .4 0 .4.1s0 .1-.3.3v1.8h2.4v-2.3l.9.1zm-5.7 15.3c.7-.8 1.4-1.9 1.8-3.4l.9.4c.1.1.3.1.3.3 0 .1-.1.3-.4.3-.4 1.1-.9 2-1.8 3.1l-.8-.7zm4.8-12h-2.4v1.6h2.4v-1.6zm0 2.5h-2.4V43h2.4v-1.6zm0 2.7h-2.4v1.8h2.4v-1.8zm0 3.4c.7 1.2 1.1 1.8 1.6 2.3l-.8.8c-.7-.7-1.2-1.6-1.6-2.4l.8-.7zm4-1.7c-.1 1.8-.5 3.8-1.5 5.7l-.9-.5c1.4-2.6 1.6-4.3 1.6-8.8 0-2 0-4.1-.1-6.1h4.7v13.5c0 .7 0 1.9-1.5 1.9-.1 0-.4 0-.9-.1l-.3-1.4c.4.1.8.3 1.1.3.4 0 .5-.4.5-.8V46h-2.7v-.2zm2.8-1v-3.4h-2.6v3.4h2.6zm0-4.4v-3.2h-2.6v3.2h2.6zm9.3-4.4v5.6h-4.6v9.9H528V36h5.7zm-1.1 1.1h-3.5v1.2h3.5v-1.2zm0 3.4v-1.2h-3.5v1.2h3.5zm-.3 9.5h-1.1v-6.6h5.8V49h-4.7v1zm3.8-5.7h-3.8v1.2h3.8v-1.2zm0 2.3h-3.8V48h3.8v-1.4zm1.8 3.5h.8c.5 0 .8-.1.8-.5v-8h-4.6V36h5.7v13.4c0 1.6-.1 1.9-2 2l-.7-1.3zm1.5-13h-3.7v1.2h3.7v-1.2zm0 2.2h-3.7v1.2h3.7v-1.2zm39.9 39.1c-.3 1.8-.3 2.6-.3 3.5 1.2-.3 2-.5 3.1-.9l.1 1.5c-.8.3-1.5.4-3.2.8v3.1c1.4-.5 2.6-1.1 3.9-1.1 2.7 0 3.5 2.4 3.5 4.2 0 3-1.9 3.9-3.2 3.9-.9 0-1.5-.4-2-.8l.7-1.2c.4.3.8.5 1.4.5 1.1 0 2-1.1 2-2.6 0-2.4-2-3-2.7-3-.7 0-2 .3-3.5 1.1v4.7c0 .7 0 1.5-.8 1.5-.5 0-.9-.3-2-1.6-.3-.3-.9-1.2-1.2-1.2-.1 0-.1 0-.7.4l-1.1-1.4c.8-.4 4.1-2.6 4.6-3v-3.7c-.8.1-1.9.1-2.6.1l-.5-1.5c1.2 0 1.9 0 3.1-.1 0-2.6 0-2.8-.1-4.2l1.5 1zm-1.6 10c-.7.5-1.5 1.1-1.9 1.6.4.5 1.4 1.8 1.8 1.8.3 0 .3-.1.3-.7v-2.7h-.2zm6.2-7.2c1.2.7 2 1.2 3.1 2.3l-.7 1.2c-.9-.9-1.8-1.8-3.1-2.3l.7-1.2zm16.3 12.2c-.8-.8-1.8-1.8-4.1-2.7 0 .4 0 1.1-.1 1.4-.4 1.8-1.9 2.2-3.4 2.2-.3 0-1.8 0-2.6-.7-.5-.4-.9-1.1-.9-2 0-2.4 2.6-2.7 3.9-2.7.8 0 1.1 0 1.6.1-.1-1.8-.1-3.7-.1-5v-6.1l1.8.4c-.4 1.9-.4 3-.4 3.7.3 0 .5.1.9.1.3 0 2.3 0 4.1-.8l-.1 1.8c-1.4.3-2.7.4-4.1.4h-.9c0 2.2 0 3.2.3 5.8 1.6.5 2.4 1.1 4.7 2.6l-.6 1.5zm-7.5-3.5c-.3 0-.8 0-1.5.3-.3.1-.9.4-.9 1.4 0 1.5 1.8 1.5 2.2 1.5 1.6 0 2.2-.7 2.2-1.9v-.9c-.5-.3-1.3-.4-2-.4zm12.9-11.4c2.7 0 3.9-.1 6.4-.9l.9 1.4c-.1.3-.3.4-.8.9s-2.8 3.4-3.8 4.7c.5-.1 1.2-.4 1.8-.5 2.2-.7 3.7-1.4 4.5-1.6l.3 1.6c-.4.1-.7.3-1.1.3-.8.1-2.2 1.8-2.6 2.3-.7.7-2 2.4-2 4.3 0 1.6 1.2 2.2 2.3 2.4.5.1.9.1 2 .1v1.6c-.8 0-1.5-.1-2.2-.3-.9-.1-3.2-.8-3.2-4.1 0-2.6 2-4.6 3.1-5.7-.9.4-5.4 1.8-6.4 2.2-.4.1-.7.3-1.4.5l-.5-1.8c.8 0 1.9-.3 2.8-.5.7-.1.8-.4 1.2-.8 1.5-2 1.8-2.2 3.2-4.1.5-.7.5-.8.7-1.2-.8.3-2.8.7-4.6.9l-.6-1.7zm16 15.7c-4.3 0-5-5-5-7.6 0-5.3 2-8.3 5.3-8.3 1.6 0 3.8.9 4.2 3.8h-1.6c-.1-.5-.5-2.2-2.6-2.2-3.4 0-3.5 4.5-3.5 6 .7-1.1 1.8-2 3.7-2 2.3 0 4.3 1.6 4.3 4.9-.2 3.1-2 5.4-4.8 5.4zm2.4-7.5c-.5-.8-1.5-1.1-2.3-1.1-1.6 0-3.1 1.1-3.1 3.4 0 1.5.7 3.8 3.1 3.8 1.8 0 3-1.4 3-3.7-.1-.7-.3-1.6-.7-2.4zm8.1 7.5c-2.7 0-4.2-1.8-4.6-4.2h1.6c.3 1.8 1.5 2.7 3 2.7 1.8 0 3.4-1.2 3.4-3.7 0-.7-.3-3.5-3.1-3.5-.8 0-2 .3-2.7 1.4h-1.6l1.1-8h7.3v1.5h-5.8L630 85c.4-.4 1.2-.9 2.7-.9 2.6 0 4.5 1.8 4.5 5-.1 3.4-2.4 5.1-5.1 5.1zm16-3.6v4.7h-1.4v-4.7h-7.9v-1.5h3v-5.6h4.9v-3.1h-3.9c-.7 1.2-1.2 1.9-1.9 2.8l-1.1-.8c1.4-1.6 2.6-3.2 3.4-5.8.4.1.9.4 1.2.7.3.1.3.1.3.3 0 .3-.3.3-.5.3-.1.3-.3.5-.5 1.2h9.9v1.5h-5.4v3.1h4.6v1.5h-4.6v4.1h6.1v1.5h-6.1v-.2zm-1.3-5.4h-3.7v4.1h3.7v-4.1zm-73 39.6c-.3 1.8-.3 2.6-.3 3.5 1.2-.3 2-.5 3.1-.9l.1 1.5c-.8.3-1.5.4-3.2.8v3.1c1.4-.5 2.6-1.1 3.9-1.1 2.7 0 3.5 2.4 3.5 4.2 0 3-1.9 3.9-3.2 3.9-.9 0-1.5-.4-2-.8l.7-1.2c.4.3.8.5 1.4.5 1.1 0 2-1.1 2-2.6 0-2.4-2-3-2.7-3s-2 .3-3.5 1.1v4.7c0 .6 0 1.5-.8 1.5-.5 0-.9-.3-2-1.6-.3-.3-.9-1.2-1.2-1.2-.1 0-.1 0-.7.4l-1.1-1.4c.8-.4 4.1-2.6 4.6-3V130c-.8.1-1.9.1-2.6.1l-.5-1.5c1.2 0 1.9 0 3.1-.1 0-2.6 0-2.8-.1-4.2l1.5.5zm-1.5 10.1c-.7.5-1.5 1.1-1.9 1.6.4.5 1.4 1.8 1.8 1.8.3 0 .3-.1.3-.7v-2.7h-.2zm6.2-7.1c1.2.7 2 1.2 3.1 2.3l-.7 1.2c-.9-.9-1.8-1.6-3.1-2.3l.7-1.2zm16.1 12.1c-.8-.8-1.8-1.8-4.1-2.7 0 .4 0 1.1-.1 1.4-.4 1.8-1.9 2.2-3.4 2.2-.3 0-1.8 0-2.6-.7-.5-.4-.9-1.1-.9-2 0-2.4 2.6-2.8 3.9-2.8.8 0 1.1 0 1.6.1-.1-1.8-.1-3.7-.1-5v-6.1l1.8.4c-.4 1.9-.4 3-.4 3.7.3 0 .5.1.9.1.3 0 2.3 0 4.1-.8l-.1 1.8c-1.4.3-2.7.4-4.1.4h-.9c0 2.2 0 3.2.3 5.8 1.6.5 2.4 1.1 4.7 2.6l-.6 1.6zm-7.4-3.5c-.3 0-.8 0-1.5.3-.3.1-.9.4-.9 1.2 0 1.5 1.8 1.5 2.2 1.5 1.6 0 2.2-.7 2.2-1.9v-.9c-.4 0-1.3-.2-2-.2zm13-11.4c2.7 0 3.9-.1 6.4-.9l.9 1.4c-.1.3-.3.4-.8.9s-2.8 3.4-3.8 4.7c.5-.1 1.2-.4 1.8-.5 2.2-.7 3.7-1.4 4.5-1.6l.3 1.6c-.4.1-.7.3-1.1.3-.8.1-2.2 1.8-2.6 2.3-.7.7-2 2.4-2 4.3 0 1.6 1.2 2.2 2.3 2.4.5.1.9.1 2 .1v1.6c-.8 0-1.5-.1-2.2-.3-.9-.1-3.2-.8-3.2-4.1 0-2.6 2-4.6 3.1-5.7-.9.4-5.4 1.8-6.4 2.2-.4.1-.7.3-1.4.5l-.5-1.8c.8 0 1.9-.3 2.8-.5.7-.1.8-.4 1.2-.8 1.5-2 1.8-2.2 3.2-4.1.5-.7.5-.8.7-1.2-.8.3-2.8.7-4.6.9l-.6-1.7zm15.1 15.3v-11h-2.7V128c1.1-.1 2.6-.1 3.1-2.7h1.2v14.9h-1.6v.1zm11.6.4c-3.9 0-4.9-4.1-4.9-7.9 0-3.8.9-7.9 4.9-7.9 3.9 0 4.7 4.2 4.7 7.9.1 3.8-.8 7.9-4.7 7.9zm0-14.2c-2.4 0-3.1 3-3.1 6.4 0 3.5.7 6.4 3.1 6.4 2.4 0 3.1-2.8 3.1-6.4.1-3.5-.7-6.4-3.1-6.4zm10.9 14.2c-3.9 0-4.9-4.1-4.9-7.9 0-3.8.9-7.9 4.9-7.9 3.9 0 4.7 4.2 4.7 7.9.2 3.8-.7 7.9-4.7 7.9zm0-14.2c-2.4 0-3.1 3-3.1 6.4 0 3.5.7 6.4 3.1 6.4 2.4 0 3.1-2.8 3.1-6.4.2-3.5-.6-6.4-3.1-6.4zm15.7 10.5v4.7h-1.4V137h-7.9v-1.5h3V130h4.9v-3.1h-3.9c-.7 1.2-1.2 1.9-1.9 2.8l-1.1-.8c1.4-1.6 2.6-3.2 3.4-5.8.4.1.9.4 1.2.7.3.1.3.1.3.3 0 .3-.3.3-.5.3-.1.3-.3.5-.5 1.2h9.9v1.5h-5.4v3.1h4.6v1.5h-4.6v4.1h6.1v1.5h-6.1v-.3zm-1.2-5.4h-3.7v4.1h3.7v-4.1zM574.6 26.1c-.4 1.2-.8 2-1.4 3.1.1.1.3.3.3.4 0 .1 0 .1-.4.4v10.8H572v-9.6c-.4.7-.5.9-1.1 1.6l-.9-.8c1.1-1.2 2.7-3.4 3.8-7l1.1.7c.1 0 .1.1.1.3 0 0-.1 0-.4.1zm-.8 9.5v-1.2h2.8v-3.9h-2.3v-1.2h2.3v-4.1h1.1c.1 0 .3 0 .3.1s-.1.3-.3.4v3.4h2.6V25h1.1s.3 0 .3.1-.1.3-.3.4V29h2.3v1.2h-2.3v3.9h2.8v1.2h-10.4v.3zm4 1.8c-.8 1.5-1.6 2.6-2.8 3.8l-.9-.8c1.2-1.1 2-2.2 3.1-4.1l.9.7s.1.1.1.3c.2.1-.2.1-.4.1zm2.5-6.9h-2.6v3.9h2.6v-3.9zM583 41c-.8-.8-1.8-1.9-3-4.2l.9-.7c.7 1.5 1.6 2.8 2.8 3.9l-.7 1zm13.9 0H595l-.4-1.5c.4.1 1.4.3 1.9.3s.5-.3.5-.7v-2.8h-3.9v4.5H592v-4.5h-4c-.4 2-.8 3.4-1.9 5l-.9-.8c1.5-2.2 1.6-4.2 1.8-5.7.1-1.6.1-3.2.1-8.9h11V40c.1.6-.1 1-1.2 1zm-4.8-9.6h-3.8c0 1.8 0 2.6-.1 3.5h3.9v-3.5zm0-4.6h-3.8v3.4h3.8v-3.4zm5 0h-3.9v3.4h3.9v-3.4zm0 4.6h-3.9v3.5h3.9v-3.5zm6.7 7.3c-.5 0-.8-.1-1.1-.1l-.4-1.4c.5.1.9.1 1.4.1 1.2 0 1.2-.9 1.2-1.2 0-1.5-1.1-3-2.6-4.9.9-1.8 1.5-3.1 2.2-4.6h-2.3V41h-1.1V25.5h4.3l.4.5c-1.1 2.6-1.9 4.1-2.3 4.9 1.4 1.6 2.4 3.2 2.4 5.3.1 1.8-.8 2.5-2.1 2.5zm10.2 2.1c-3.9-2.2-4.9-6.4-5.1-8.1h-.9v6c.8-.3 1.2-.5 2.3-.9V39c-2.3.9-3.5 1.5-4.3 1.8 0 .1-.1.3-.3.3-.1 0-.1-.1-.1-.3l-.4-1.2c.7-.1 1.1-.3 1.8-.5V25.6h6.4v7H610c.1 1.5.7 2.7 1.2 3.5.7-.5 1.4-1.4 2.3-2.7l.8.9s.1.1.1.3c0 .3-.4.3-.5.3-1.2 1.4-1.8 1.9-2.2 2.2.8 1.2 1.6 1.9 3.1 2.6l-.8 1.1zm-1.8-14.1H608v1.8h4.2v-1.8zm0 3H608v1.9h4.2v-1.9zm16.7 6.7c-3.4-1.5-4.7-3-5.7-4.5H622c-.3.5-1.1 1.8-2.3 2.8-1.1.9-2 1.5-3.4 2l-.8-1.1c2.7-.7 4.7-2.6 5.3-3.7h-3.1v-6.4h10.2v6.4h-3.2c1.5 1.8 3.2 2.7 5.1 3.4l-.9 1.1zm-7.6-1.1c0 2.3-.1 4.3-2.3 5.8l-1.1-.9c2.3-1.4 2.3-3 2.3-5.7l1.1.1c.1 0 .4 0 .4.3-.1.2-.3.3-.4.4zm.7-8.5h-3.4v1.5h3.4v-1.5zm0 2.6h-3.4V31h3.4v-1.6zm4.6 0h-3.5V31h3.5v-1.6zm0-2.6h-3.5v1.5h3.5v-1.5zm-1.4 8.4v6h-1.1v-6.6l1.1.1s.3 0 .3.3c.1.1 0 .1-.3.2zm11.8-10c.1 0 .4 0 .4.1s-.1.3-.3.3v1.8h1.4v1.1h-1.4v7h1.4v1.1h-7.4v-1.1h1.6v-7h-1.5v-1.1h1.5V25l.9.1c.1 0 .4 0 .4.1s0 .1-.3.3v1.8h2.4V25l.9.2zm-5.7 15.3c.7-.8 1.4-1.9 1.8-3.4l.9.4c.1.1.3.1.3.3 0 .1-.1.3-.4.3-.4 1.1-.9 2-1.8 3.1l-.8-.7zm4.8-12.1h-2.4V30h2.4v-1.6zm0 2.7h-2.4v1.6h2.4v-1.6zm0 2.8h-2.4v1.8h2.4v-1.8zm.1 3.2c.7 1.2 1.1 1.8 1.6 2.3l-.8.8c-.7-.7-1.2-1.6-1.6-2.4l.8-.7zm3.9-1.6c-.1 1.8-.5 3.8-1.5 5.7l-.9-.5c1.4-2.6 1.6-4.3 1.6-8.8 0-2 0-4.1-.1-6.1h4.7v13.5c0 .7 0 1.9-1.5 1.9-.1 0-.4 0-.9-.1l-.3-1.4c.4.1.8.3 1.1.3.4 0 .5-.4.5-.8v-3.5h-2.7v-.2zm2.7-1.1V31h-2.6v3.4h2.6zm0-4.3v-3.2h-2.6v3.2h2.6zm9.4-4.4v5.6h-4.6v9.9h-1.1V25.7h5.7zm-1.1 1h-3.5v1.2h3.5v-1.2zm0 3.5V29h-3.5v1.2h3.5zm-.3 9.3h-1.1v-6.6h5.8v5.7h-4.7v.9zm3.8-5.5h-3.8v1.2h3.8V34zm0 2.3h-3.8v1.4h3.8v-1.4zm1.8 3.5h.8c.5 0 .8-.1.8-.5v-8h-4.6v-5.6h5.7v13.4c0 1.6-.1 1.9-2 2l-.7-1.3zm1.6-13.1h-3.7v1.2h3.7v-1.2zm0 2.3h-3.7v1.2h3.7V29zM539.8 175.8h-.8v-3.9l.7.1c.1 0 .3 0 .3.1s-.1.1-.1.1v1.9h3v-3.5h-2.7v.5h-.8v-3.9l.7.1c.1 0 .3 0 .3.1s-.1.1-.3.3v2.2h2.7v-3.7l.8.1c.1 0 .3 0 .3.1l-.3.3v3.2h2.7v-2.7l.8.1c.1 0 .3 0 .3.1l-.3.3v3.5h-.8v-.5h-2.7v3.5h3v-2.3l.8.1c.1 0 .3 0 .3.1s-.1.3-.3.3v3.5h-.8v-.9h-6.8v.5zm10.7-8.3h2V166l.8.1c.1 0 .1 0 .1.1s-.1.1-.3.1v1.1h1.4V166l.8.1c.1 0 .3 0 .3.1s-.1.1-.3.3v1.1h2v4.9h1.4v.7H549v-.7h1.4v-5h.1zm-1.1 7.7c1.2-.7 1.9-1.1 2.7-1.9l.7.5.1.1c0 .1-.1.1-.4.1-.9.8-1.8 1.4-2.6 1.8l-.5-.6zm3.1-5.3v-1.8h-1.4v1.8h1.4zm0 2.5v-1.8h-1.4v1.8h1.4zm2.1-2.5v-1.8h-1.4v1.8h1.4zm0 2.5v-1.8h-1.4v1.8h1.4zm1 .9c.8.7 1.6 1.2 2.8 1.8l-.5.7c-1.4-.7-2-1.4-2.7-1.9l.4-.6zm1.1-3.4v-1.8h-1.4v1.8h1.4zm0 2.5v-1.8h-1.4v1.8h1.4zm4.8-3.1h-1.2V168h1.2v1.3zm0 4.6h-1.2v-1.2h1.2v1.2zm7.7 1.9v-.9h-4.7v.9h-.8v-9.1h6.5v9.1h-1zm0-8.3h-4.7v3h4.7v-3zm0 3.7h-4.7v3h4.7v-3zm11.9 2.9c-2-1.5-3.2-2.8-3.9-4.6v3.8h1.9v.8h-1.9v1.8h-.8v-1.8h-2v-.8h2v-3.8c-.8 1.8-2.2 3.4-3.9 4.7l-.7-.7c1.6-1.2 3-2.7 3.9-4.6H572v-.8h4.3v-2.3h.8s.3 0 .3.1-.1.1-.3.3v1.9h4.3v.8h-3.8c1.1 2.2 2.4 3.4 4.1 4.5l-.6.7zm11.2 1.4H588c-2.6 0-3.1-.5-3.5-.8-.4.4-.8.8-1.4 1.2l-.5-.5c.7-.4 1.1-.7 1.4-1.1-.4-.8-.5-1.4-.8-2.7l.7-.1c0 .3.1 1.5.5 2.2.4-.7.5-1.5.7-3H584c-.1.1-.1.1-.3.5l-.7-.4c1.1-1.6 1.6-2.8 1.9-3.4H583v-.7h2.7l.3.3c-.5 1.4-1.1 2.3-1.5 3h1.5c-.1 1.1-.3 3-.9 4.3.7.5 1.4.7 2.8.7 1.6 0 3.2-.1 4.9-.1l-.5.6zm-.8-6.2v1.5h-2.2v.7h2v.7h-2v.8h2.6v.7h-2.6v.9h-.7v-.9h-2.4v-.7h2.4v-.8h-1.8v-.7h1.8v-.7h-2v-.7h1.9v-.8h-2.7v-.7h2.7v-.8h-1.9v-.7h1.9V166h.8s.1 0 .1.1 0 .1-.1.1v.7h2.2v1.5h.9v.7h-.9v.2zm-.7-1.5h-1.5v.8h1.5v-.8zm0 1.5h-1.5v.8h1.5v-.8zm5.7-1.5c.4.5.4.5.5.7l-.7.3c-.3-.3-.4-.5-.8-1.1h-.5c-.4.7-.7.9-.8 1.1h3.2v.7h-1.2v1.2c.7-.1.7-.1 1.4-.3l-.1.7c-.7.1-1.6.3-2.4.4-.4 0-.5.1-.8.1-.1.1-.1.3-.3.3-.1 0-.1-.1-.1-.1l-.1-.8c.4 0 .5 0 1.6-.1v-1.4H594v-.5l-.7-.4c.7-.8 1.1-1.5 1.5-2.4l.8.3s.1 0 .1.1-.1.1-.3.1c-.1.3-.1.3-.3.5h3.1v.7l-1.7-.1zm6.1 7.7c-.7-.3-2-.8-3.7-2v2.4h-.8v-2.6c-1.4 1.2-3.1 1.9-3.7 2.2l-.7-.5c1.9-.7 2.7-1.2 3.7-1.9h-3.7v-.7h4.3v-.7l.8.1c.1 0 .3 0 .3.1s-.1.1-.3.3v.3h4.2v.7h-3.8c.9.7 2 1.4 3.8 1.9l-.4.4zm-.1-4.1h-.7c-.5 0-.7 0-.7-.7v-1.4h-1.4c0 .5-.1 1.4-.8 2l-.7-.4c.5-.3.9-.5.8-2.3h2.7v1.6c0 .3 0 .3.4.3h.1c.4 0 .4 0 .5-.9l.7.3c-.2 1.5-.4 1.5-.9 1.5zm-1.1-3.6c.3.3.3.4.4.5l-.7.3c-.1-.3-.3-.4-.7-.9h-.9c-.3.5-.4.8-.7 1.1l-.7-.4c.5-.7.9-1.6 1.2-2.4l.8.3c.1 0 .1.1.1.1 0 .1-.1.1-.3.1-.1.3-.1.3-.3.5h3.5v.7h-1.9v.1zm-.9 3.4c-.1-.1-.7-.5-.9-.8l.4-.4c.1 0 .7.5.9.8l-.4.4zm9.3 1.8v1.6c0 .8-.3 1.2-1.6 1.2l-.4-.8h.7c.3 0 .5 0 .5-.4V173h-4.5v-.7h4.5v-.9h.7c.5-.3.8-.5 1.2-.9h-4.2v-.7h5.4l.3.5c-1.2.8-2.2 1.5-2.6 1.8v.3h4.5v.7l-4.5-.1zm3.5-2.5v-1.6h-7.9v1.6h-.8v-2.3h9.3v2.3h-.6zM607 168c-.4-.4-.7-.9-1.2-1.2l.5-.5c.7.5.9.9 1.2 1.2l-.5.5zm2.4-.1c-.4-.7-.8-1.2-1.2-1.6l.7-.4c.5.5.9.9 1.2 1.5l-.7.5zm3.2-1.1c-.4.5-.9 1.1-1.1 1.2l-.5-.5c.4-.4.8-.8 1.4-1.6l.7.5.1.1c-.2.3-.3.3-.6.3zm12.2 3.4c-.9-.4-1.9-.8-2.7-1.5-.7-.5-1.2-1.1-1.8-1.8-.7.9-2 2.4-4.6 3.5l-.5-.7c2.3-.8 3.8-2.2 4.7-3.8l.8.3c.1 0 .3.1.3.1v.1c.7 1.1 2.2 2.2 4.3 3l-.5.8zm-4.7 2.2c-.7 1.2-1.1 1.9-1.4 2.3.9-.1 2.2-.3 3.1-.4.3 0 .5-.1.7-.1-.5-.7-.7-.8-.9-1.2l.7-.4c.5.7 1.2 1.4 1.9 2.8l-.7.4c-.4-.8-.5-.8-.7-1.1-1.4.3-3 .5-5.8.9 0 .1-.1.3-.3.3-.1 0-.1-.1-.1-.3l-.1-.8c.4 0 .5 0 1.4-.1.7-.9 1.2-2 1.4-2.4h-3.2v-.8h9.1v.8h-4.9v.1zm-2.2-2.2v-.7h4.7v.7h-4.7zm21.3 5.1c-1.9 0-2-1.6-2-2.4v-.5h.9v.4c0 .7 0 1.6 1.1 1.6s1.1-1.1 1.1-1.6V167h.9v5.7c0 1.6-.7 2.6-2 2.6zm9.1-.2-.8-2.3h-3.2l-.8 2.3h-.9l2.8-8h1.2l2.8 8h-1.1zm-2.5-6.9-1.4 4.1h2.8l-1.4-4.1zm7.5 7.1c-.7 0-1.9-.1-2.7-1.2-.4-.5-.4-1.1-.4-1.5h1.1c0 .3 0 .9.7 1.4.5.4 1.2.4 1.6.4 1.2 0 1.9-.8 1.9-1.5s-.4-.9-2.2-1.5c-1.6-.5-2.7-.9-2.7-2.3s1.4-2.2 2.8-2.2c.5 0 1.8.1 2.4 1.1.4.5.4 1.1.4 1.4h-1.1c0-.5-.1-1.6-1.9-1.6-1.2 0-1.9.5-1.9 1.4 0 .8.4.9 2.3 1.6 1.8.7 2.6 1.1 2.6 2.3.2 1.3-1.2 2.2-2.9 2.2zm7.4 0c-.7 0-1.9-.1-2.7-1.2-.4-.5-.4-1.1-.4-1.5h1.1c0 .3 0 .9.7 1.4.5.4 1.2.4 1.6.4 1.2 0 1.9-.8 1.9-1.5s-.4-.9-2.2-1.5c-1.6-.5-2.7-.9-2.7-2.3s1.4-2.2 2.8-2.2c.5 0 1.8.1 2.4 1.1.4.5.4 1.1.4 1.4h-1.1c0-.5-.1-1.6-1.9-1.6-1.2 0-1.9.5-1.9 1.4 0 .8.4.9 2.3 1.6 1.8.7 2.6 1.1 2.6 2.3.2 1.3-1.1 2.2-2.9 2.2zm7.1 0c-1.8 0-2.7-.9-2.8-2.3h1.1c.1.9.9 1.5 1.9 1.5 1.1 0 2.2-.7 2.2-1.9 0-.4-.1-1.9-1.9-1.9-.5 0-1.2.1-1.8.7h-1.2l.7-4.3h4.6v.8h-3.7l-.4 2.4c.3-.1.7-.5 1.8-.5 1.6 0 2.8.9 2.8 2.7-.2 1.9-1.6 2.8-3.3 2.8zm-323.4-2v-.8h6.1v-4.3h-6.1v-.8h6.9v6.5h-.8v-.5h-6.1zm16.4-3.5c-1.2 1.2-2.6 2.6-7.2 4.2l-.1.3c-.1 0-.1-.1-.3-.3l-.4-.9c1.1-.1 2.3-.4 4.3-1.5 1.9-1.1 2.7-1.9 3.2-2.6l.5.8zm-5.7-1c-.5-.7-1.2-1.2-1.8-1.9l.7-.7c.3.3 1.2 1.1 1.9 1.9l-.8.7zm13.3-1.4h.4l.5.7c-.4.4-.5.4-.5.7-.9 2.3-1.5 3.4-2.7 4.6-.7.7-1.4 1.1-2.2 1.6l-.8-.7c.9-.4 2.2-1.1 3.2-2.6 1.1-1.5 1.4-2.6 1.6-3.5h-3.4c-.5.7-.9 1.4-2.2 2.3l-.7-.5c.5-.4 1.2-.9 2-2 .7-.9.8-1.5.9-1.9l.8.3c.3.1.3.1.3.3 0 .1-.1.1-.4.1-.1.3-.3.4-.4.7l3.6-.1zm3.5-1c.1 0 .3 0 .3.1 0 0 0 .1-.1.3v4.7h-.9v-5.1h.7zm.4 7.7c1.2-.5 1.8-.8 2.2-1.4.7-.7 1.1-1.6 1.1-3.4v-3.2h.9s.3 0 .3.1l-.1.3c0 3.1 0 4.2-.4 5.4-.5 1.6-2 2.3-3 2.8l-1-.6zm5.8-3.1v-.8h7.9v.8h-7.9zm10.7-2c1.9.8 2.6 1.4 3.5 2.2l-.5.8c-.3-.3-.7-.7-1.5-1.1-.8-.5-1.4-.8-1.9-.9v4.9h-.8v-8.5h.8s.3 0 .3.1l-.3.3v3.1l.4-.9zm7.3 5.3c-.1.5-.5.9-1.9.8l-.3-.9c.3 0 .5.1.8.1.4 0 .7-.1.9-.9 0-.3.3-1.4.3-2h-1.4c0 .4 0 .4-.1.7l-.8-.1c.1-.7.3-1.4.4-1.9.1-.7.1-1.4.3-1.9l.7.1h.9v-1.5h-2.2v-.8h3l-.1 3h-1.8c0 .3-.1 1.6-.1 1.8h2c0 .5-.2 2.4-.6 3.5zm6.5.6c0-.1 0-.1-.3-.4 0-.1-.1-.1-.3-.4-3 .5-3.5.5-4.6.8 0 .1 0 .3-.1.3s-.1-.1-.3-.3l-.3-.8c.9 0 1.9-.1 2.8-.3v-1.6H398v.4h-.8v-3.2h2.3v-1.2c-.4 0-.9.1-1.9.1 0 .1-.1.3-.3.3s-.1-.1-.1-.1l-.3-.8h.9c.7-1.1 1.1-1.8 1.4-2.4l.7.4c.1 0 .1.1.1.1 0 .1-.1.1-.3.3-.5.9-.7 1.2-.9 1.6 1.5-.1 1.6-.1 2.6-.3-.3-.4-.4-.5-.8-.9l.5-.4c.8.9 1.4 1.8 1.6 2.3l-.5.4c-.1-.3-.3-.4-.4-.8-.4.1-1.1.1-1.6.3v1.4h2.3v2.7h-2.3v1.5c.9-.1.9-.1 1.5-.1-.1-.3-.3-.4-.4-.7l.7-.4c.5.7.9 1.4 1.2 2l-.6.2zm-2.9-4.7h-1.5v1.4h1.5v-1.4zm2.4 0h-1.6v1.4h1.6v-1.4zm4.2-1.1c0 1.5 0 4.2-1.2 6.1l-.7-.3c.7-1.2 1.2-2.6 1.2-5.7v-2.7h3.7v-1.2h.8s.3 0 .3.1-.1.3-.3.3v.8h4.2v.7h-7.9v1.2h1.5v-.9h.8c.1 0 .3 0 .3.1s-.1.1-.3.3v.5h2.2v-.9h.8c.1 0 .3 0 .3.1 0 0 0 .1-.3.3v.5h1.9v.7h-1.9v1.4h-3.8v-1.4h-1.6zm.3 5.6c1.6-.3 2.2-.5 3-.9-.7-.5-1.1-1.1-1.2-1.4l.7-.3c.3.4.5.8 1.2 1.4.7-.5 1.1-.9 1.4-1.4H407v-.7h5.7l.3.3c-.3.5-.8 1.4-1.9 2.2.8.4 1.8.7 3.2.7l-.4.8c-2-.3-2.8-.7-3.5-1.1-.9.5-2 .9-3.1 1.1l-.7-.7zm4.3-4.8v-.8h-2.2v.8h2.2zm7 1c-.4-.4-.5-.8-.5-1.1v5.4h-.7v-5.1c-.1.8-.4 1.4-.8 2l-.7-.4c.4-.5 1.1-1.6 1.2-3.1h-1.1v-.8h1.4v-2.3l.8.1c.1 0 .1 0 .1.1s-.1.1-.3.3v1.9h.8v.7h-.8c.1.7.5 1.4.9 1.9l-.3.4zm3.1 1.9c-.1-.4-.1-.4-.3-.5-.9.9-1.8 1.6-2.2 2 0 .1 0 .3-.1.3 0 0-.1 0-.1-.1l-.4-.8c.3-.1.4-.3.7-.4v-7.4h2.3v3.8h-1.6v3.1c.5-.4.9-.7 1.2-1.1-.1-.3-.4-.5-.8-.9l.5-.4c.7.7 1.1 1.2 1.4 2l-.6.4zm-.9-6.3h-.9v.9h.9v-.9zm0 1.7h-.9v.9h.9v-.9zm4.9 6.3c-.1.3-.5.3-.9.3h-.3c-.7 0-.8-.1-.8-.8v-2c-.1.4-.5 1.2-1.4 2-.4.4-.8.7-1.4.9l-.5-.7c.5-.3 1.5-.7 2.2-2 .7-1.1.8-1.9.9-2.7h-1.9v-.7h.5v-2.3h-.4v-.7h3.4v.7h-.8c0 1.2 0 1.9-.1 2.4h1.2v.7h-1.4c0 .3-.1.5-.1.8h.3s.1 0 .1.1-.1.1-.3.1v3c0 .3.1.3.4.3.1 0 .3 0 .4-.3s.1-1.1.1-1.2l.7.1c.2 1.6.2 1.9.1 2zm-2.7-8v2.4h.7c.1-.8.1-1.6.1-2.4h-.8zm13.4 2.6c-2.6-.8-3.9-1.8-4.9-2.7-1.8 1.8-3.2 2.6-4.5 3l-.5-.7c1.9-.7 3.5-1.8 4.7-3.4l.8.4s.1 0 .1.1-.1.1-.3.1c1.6 1.6 3.7 2.2 4.9 2.3l-.3.9zm-7.3 3.5c-.8 1.4-1.2 1.9-1.5 2.2l-.7-.5c.7-.7 1.2-1.4 1.6-2.4l.8.4s.1 0 .1.1c-.1.2-.2.2-.3.2zm3.6-.4-.7-.5c.7-.7 1.1-1.1 1.4-1.2h-5v-.7h6.4l.1.3c-1 .9-1.4 1.2-2.2 2.1zm.1 2.7h-2.4c-.5 0-.7-.3-.7-.8v-2.6h.8c.1 0 .3 0 .3.1s-.1.1-.3.3v1.8c0 .3 0 .4.4.4h1.8c.7 0 .8-.1 1.1-1.4l.8.5c-.4 1.7-.7 1.7-1.8 1.7zm-2.9-6.1v-.7h3.7v.7h-3.7zm2.5 4.9c-.5-.5-.8-.7-1.5-1.2l.5-.5c.7.4 1.1.8 1.5 1.2l-.5.5zm3.4.7c-.4-.7-.9-1.5-1.6-2.2l.5-.5c.8.7 1.4 1.5 1.8 2l-.7.7zm2.3-8.7h8.9v9.3h-.8v-.5h-7.3v.5h-.8v-9.3zm.8.8v7.3h7.3v-7.3h-7.3zm1.5 1c.4.5.7.9.8 1.5l-.7.3c-.1-.5-.4-.9-.8-1.5l.7-.3zm-.6 5.4c.8-.3 1.6-.7 2.6-1.5-.5-.3-1.1-.5-1.8-.8l.3-.7c.5.1 1.2.4 1.9.9.9-1.2 1.4-2.6 1.6-3.7l.8.3c.1 0 .3.1.3.1 0 .1-.3.1-.4.3-.1.5-.7 2.2-1.6 3.4.8.5 1.2 1.1 1.6 1.4l-.5.5c-.4-.4-.7-.8-1.5-1.4-.9.9-2 1.4-2.6 1.6l-.7-.4zm2.5-5.7c.4.5.5.8.8 1.6l-.7.3c-.1-.4-.4-.9-.8-1.5l.7-.4z" class="st4"/><path d="M344 0h326.5v154.5H344zm0 61.7h326.5M344 108.1h326.5M436.1 0v154.5M554.7 0v154.5" style="fill:none;stroke:#231815;stroke-width:1.4663"/><path d="M246 165.8H79l26.3-47.3h114.4z" style="fill:#dbdcdc;stroke:#231815;stroke-width:1.4093;stroke-linecap:round;stroke-linejoin:round"/><path d="M79 165.8h167v37.6H79z" style="fill:#c8c9ca;stroke:#231815;stroke-width:1.4093;stroke-linecap:round;stroke-linejoin:round"/><path d="M207.8 88.1V45.6h-90.7v42.5H83.9l78.6 42.4 78.6-42.4z" style="fill:#cca467;stroke:#231815;stroke-width:1.4738;stroke-linecap:round;stroke-linejoin:round"/><path d="M113.2 190.1v-1.5h11.1v-8h-11.1v-1.5h12.6v12h-1.6v-1h-11zm30-6.4c-2.2 2.2-4.7 4.7-13 7.7 0 0-.2.5-.4.5s-.3-.2-.4-.5l-.7-1.6c2-.4 4.1-.7 7.8-2.8 3.5-1.9 4.9-3.5 6-4.7l.7 1.4zm-10.4-1.6c-1-1.2-2.1-2.3-3.3-3.4l1.2-1.1c.6.5 2.3 2 3.5 3.5l-1.4 1zm24.2-2.9c.3 0 .4 0 .7-.1l.9 1.1c-.8.6-.9.8-1 1.2-1.6 4.3-2.7 6.2-5 8.4-1.4 1.3-2.3 1.9-4.1 2.9l-1.5-1.2c1.8-.9 3.8-1.9 6-4.6 2.1-2.6 2.6-4.7 3-6.4h-6c-.9 1.2-1.8 2.4-3.9 4.2l-1.3-1c1.1-.8 2.3-1.7 3.7-3.7 1.2-1.6 1.6-2.7 1.8-3.4l1.4.5c.4.1.4.3.4.4 0 .2-.3.2-.6.3-.2.4-.4.9-.7 1.4h6.2zm6.3-1.7c.2 0 .4.1.4.2s0 .1-.4.4v8.6h-1.6v-9.4l1.6.2zm.8 14.2c2.3-.9 3.2-1.5 4-2.4 1.1-1.4 2-3.1 2-6.2 0-.6-.1-3.3-.1-3.8 0-.6 0-.7-.1-2.3l1.6.1c.1 0 .4 0 .4.2 0 .1 0 .1-.3.5 0 5.7 0 7.6-.8 9.9-1 2.9-3.6 4.3-5.5 5.2l-1.2-1.2zm10.1-6v-1.5h14.6v1.5h-14.6zm20.1-3.5c3.4 1.5 4.7 2.4 6.5 3.9l-1 1.4c-.6-.5-1.4-1.2-2.7-2.1-1.6-1.1-2.5-1.4-3.4-1.8v8.8h-1.6v-15.5l1.5.1c.1 0 .6 0 .6.3 0 .1-.2.2-.5.4v5.6l.6-1.1zm-48-26v-14.1h-4.1v-1.7c1.7-.1 3.9-.2 4.7-3.5h1.8v19.3h-2.4zm27.3 0v-10c0-1.1-.4-2.9-2.6-2.9-3.6 0-3.6 3.4-3.6 3.7v9.2h-2.2V146c0-2.4-1.6-2.7-2.7-2.7-3.4 0-3.5 3.5-3.5 3.8v9.1h-2.2v-14.1h2.1v1.8c.6-1.2 1.7-2.4 4.1-2.4 2.9 0 3.6 1.5 4 2.4.7-1.1 1.7-2.4 4.3-2.4 3.3 0 4.5 2.3 4.5 4.3v10.3h-2.2v.1zm4.7-8c.2-2.2.8-3.4 3.3-5.1 2.3-1.6 2.5-1.8 2.5-3 0-1.5-.8-2-1.7-2-1.9 0-2 2-2 2.8h-1.8c.1-2.6 1.3-4.2 3.8-4.2 1.4 0 3.4.8 3.4 3.4 0 2.1-1.1 2.9-2.7 4-2.2 1.5-2.5 2.3-2.7 2.9h5.4v1.4h-7.5v-.2zm-49.6-63c-.2-.5-.3-.7-.5-1.2-.2 0-1.2.1-1.9.2v8.4h-1.4v-8.2c-.4 0-1.6.1-2.6.2 0 .2-.1.5-.3.5-.1 0-.3-.1-.3-.5l-.1-1.4c.3 0 1.3 0 1.6-.1.2-.3.3-.4.9-1.2.2-.2.6-.8.9-1.1-1-1-2-1.9-3.1-2.6l.9-1c.4.3.9.6 1.1.7.4-.6 1.1-1.5 2.1-3.4l1.2.8c.2.1.2.2.2.3 0 .3-.4.2-.6.2-.7 1.2-1.2 1.9-1.9 3 .2.2 1 .9 1.1 1 .6-.9 1.3-1.8 1.8-2.6l1.2.9c.2.1.3.3.3.4 0 .2-.3.2-.9.3-2.3 3-2.9 3.7-3.5 4.4 1.1-.1 2-.2 2.8-.3l-.5-1 1.1-.6c.8 1.4 1.3 2.3 1.7 3.3l-1.3.6zm-4.7 1.4c-.2 2.4-.5 3.8-1 5.1l-1.5-.3c.5-1.5.9-3.9 1-5.6l1.4.2c.1 0 .4 0 .4.3.1.1-.2.2-.3.3zm4.2 4.5c-.2-2.1-.7-3.8-1.1-5l1.3-.4c.5 1.4.9 2.8 1.2 4.9l-1.4.5zm9.8-.5c-.5 1.9-1.8 1.9-2.8 1.9h-1.5l-.5-1.8c1.1.2 1.5.3 1.9.3 1.4 0 1.6-1.2 1.8-2.6.3-2.7.4-5.5.4-8.5h-5.5c-.6 1-1.1 1.6-1.6 2.2l-1.3-.7c1.8-2.1 2.9-4.1 4-6.7l1.2.7c.2.1.3.2.3.3 0 .2-.5.3-.5.4-.4.8-.8 1.7-1.3 2.5h6.2c-.1 3.1-.1 9.3-.8 12zm-4.6-3.2c-.5-1.4-1-2.5-1.7-3.8l1.3-.5c.9 1.7 1.3 2.7 1.7 3.8l-1.3.5zm7.4 3.7c.3-3.5 2.4-4.9 6.1-7 2.2-1.2 3.1-1.8 3.1-3.6 0-2.3-1.9-2.8-3.2-2.8-3.4 0-3.6 2.9-3.6 3.7h-1.9c.1-.8.1-2.2 1.3-3.5 1.4-1.5 3.5-1.7 4.2-1.7 2.1 0 5 1 5 4.2 0 2.6-1.5 3.7-4.2 5.1-3.7 1.9-4.2 3.2-4.6 4.1h8.7v1.5h-10.9zm13.5 2.5v-1c.8-.2 1-.4 1.1-1.4h-1.1v-2.1h2.1v2.1c0 1.8-1.1 2.1-2.1 2.4zm13.3-5.9v3.4h-1.8v-3.4h-7.1v-1.5l7.2-9.5h1.6v9.5h2.1v1.5h-2zm-1.8-8.6-5.3 7.1h5.3v-7.1zm10.9 12.4c-4.5 0-5.5-4-5.5-7.7s1.1-7.7 5.5-7.7c4.5 0 5.5 4 5.5 7.7s-1 7.7-5.5 7.7zm0-13.8c-2.8 0-3.6 2.9-3.6 6.2 0 3.4.8 6.2 3.6 6.2s3.6-2.8 3.6-6.2c0-3.4-.8-6.2-3.6-6.2zm12.5 13.8c-4.4 0-5.5-4-5.5-7.7s1.1-7.7 5.5-7.7c4.5 0 5.5 4 5.5 7.7s-1 7.7-5.5 7.7zm0-13.8c-2.8 0-3.6 2.9-3.6 6.2 0 3.4.8 6.2 3.6 6.2s3.6-2.8 3.6-6.2c.1-3.4-.7-6.2-3.6-6.2zm10.1 4V89c0 1.1.6 1.1 1.4 1.1h.5v1.3c-.7.1-1 .1-1.4.1-1.1 0-2.2-.5-2.2-2.1v-7.8h-1.8v-1h1.8v-2.9h1.7v2.9h2.1v1.1h-2.1z" class="st4"/></svg>