<svg version="1.1" id="レイヤー_1" xmlns="http://www.w3.org/2000/svg" x="0" y="0" width="249" height="289" style="enable-background:new 0 0 249 289" xml:space="preserve"><style>.st2,.st4{fill:#da4207;stroke:#da4207;stroke-width:.3059;stroke-miterlimit:3.8636}.st4{fill:#e5e5e6;stroke:#231815;stroke-width:.5433}.st5{fill:#fff}.st10,.st12,.st8{stroke:#231815;stroke-linecap:round;stroke-linejoin:round}.st8{fill:#fffac6;stroke-width:.579;stroke-miterlimit:3.8636}.st10,.st12{stroke-width:.5778}.st10{fill:#eeeeef;stroke-miterlimit:3.8636}.st12{fill:#dbdcdc}.st12,.st13,.st15{stroke-miterlimit:3.8636}.st13{fill:#fffac6;stroke:#231815;stroke-width:.2969;stroke-linecap:round;stroke-linejoin:round}.st15{stroke-width:.5778}.st15,.st17,.st18{fill:none;stroke:#231815;stroke-linecap:round;stroke-linejoin:round}.st17{stroke-width:.2887;stroke-miterlimit:3.8636}.st18{stroke-width:.4454}.st19{fill:#231815}</style><path style="fill:#faf7f3" d="M-7-8.3h264.3v308.2H-7z"/><path style="fill:#5c866e" d="M10.1 12.4h228.8v119.5H10.1z"/><path class="st2" d="M118.9 108.2h1.1v12.6h-1.1zM118.9 34.3h1.1v7.9h-1.1zM118.9 59.3h1.1v7.9h-1.1zM118.9 83.5h1.1v7.9h-1.1zM118.8 100h1.1v8h-1.1z"/><path class="st2" d="M118 106.5h7.9v1.1H118zM118.9 75.9h1.1v7.9h-1.1z"/><path class="st2" d="M118.2 82.3h7.9v1.1h-7.9zM118.9 51.7h1.1v7.9h-1.1z"/><path class="st2" d="M118.2 58.1h7.9v1.1h-7.9zM117.7 109.8h36.1v1.1h-36.1zM191.6 109.8H211v1.1h-19.4z"/><path class="st2" d="M208.2 108.2h1.6v12.6h-1.6zM118.6 108.2h1.8v12.6h-1.8zM153.8 109.8h37.7v1.1h-37.7z"/><linearGradient id="SVGID_1_" gradientUnits="userSpaceOnUse" x1="987.5" y1="305.301" x2="1064.757" y2="228.044" gradientTransform="translate(-973.67 -223.998) scale(1.1091)"><stop offset="0" style="stop-color:#fbe1c3"/><stop offset=".174" style="stop-color:#fbd58b"/><stop offset=".279" style="stop-color:#f4a65d"/><stop offset=".309" style="stop-color:#f2984f"/><stop offset=".562" style="stop-color:#fbd58b"/><stop offset="1" style="stop-color:#f2984f"/></linearGradient><path style="fill:url(#SVGID_1_)" d="M117.6 35h93.6v73.6h-93.6z"/><path class="st2" d="M118.3 85.2h7.6v1.7h-7.6zM202.6 85.2h7.6v1.7h-7.6zM118.5 36.3h91.8v1.8h-91.8zM119 61.1h6.8v1.5H119zM202.6 61.1h6.8v1.5h-6.8zM208.4 100h2v8h-2z"/><path class="st2" d="M202.9 105.8h7.9v1.8h-7.9zM208.1 74.5h1.6v9.3h-1.6z"/><path class="st2" d="M202.6 81.7h7.9v1.6h-7.9zM208.1 34.3h1.6v7.9h-1.6zM208.1 59.3h1.6v7.9h-1.6zM118.7 59.3h1.6v7.9h-1.6zM208.1 83.5h1.6v7.9h-1.6z"/><path class="st2" d="M208.1 50.3h1.6v9.3h-1.6z"/><path class="st2" d="M202.6 57.5h7.9v1.7h-7.9zM118.3 100h2v8h-2z"/><path class="st2" d="M117.6 105.8h7.9v1.8h-7.9zM118.7 75.9h1.7v7.9h-1.7z"/><path class="st2" d="M117.9 81.7h7.9v1.6h-7.9zM118.7 34.3h1.7v7.9h-1.7zM118.7 83.5h1.7v7.9h-1.7zM118.7 51.7h1.7v7.9h-1.7z"/><path class="st2" d="M117.9 57.5h7.9v1.7h-7.9z"/><path class="st4" d="M212.2 107.4v-7.2h-2.4v6.9h-90.6v-6.9h-2.9v7.2h-9.7v-8.3h-2.9v10.7h12.6V125h95.9V107.4zM151.8 119h-32.7v-9.1h32.7v9.1zm37.7 0h-34.2v-9.1h34.2v9.1zm20.1 0h-16.4v-9.1h16.4v9.1zM209.4 85.3v5.8h3V74.8h-3V83h-90.3v-6.2h2.2v-2h-5.1V83h-9.6v-8.9h-3v11.2h12.6v5.8h2.9v-5.8zM209.4 61.1V67h3V50.6h-3v8.2h-90.3v-6.2h2.2v-2h-5.1v8.2h-9.6V50h-3v11.1h12.6V67h2.9v-5.9zM209.4 36.1v5.8h3V25.6h-5.1v2h2.1v6.2h-90.3v-6.2h2.2v-2h-5.1v8.2h-9.6V32h-3v4.1h12.6v5.8h2.9v-5.8z"/><path class="st5" d="M29.9 27c1.6-.1 2.6-.5 3.3-.8l.4.8c-1.1.5-2.2.7-2.9.7v1.8h3.1v.9H33v5.9h-.9v-5.9h-1.4v1c0 .5 0 3.3-1.2 4.9l-.7-.6.1-.1H25v.5h-.8v-9.5h.8v8.1h4v.8c.5-.9.7-1.6.8-2.6.1-.7.1-1.1.1-1.6V27zm-.9 6c-.2-.3-.7-.8-1.1-1.6v2.9h-.8v-2.9c-.5.9-.9 1.5-1.5 2.2l-.5-.7c1.1-1.1 1.7-2.3 1.9-2.7h-1.6v-.8h1.7v-3.2h.8v3.2h1.5v.8H28c.3.5.8 1.3 1.5 2.1l-.5.7zm-3.1-4c-.1-.9-.3-1.6-.4-2l.7-.1c0 .1.4 1.2.4 2l-.7.1zm2.3-.2c.3-.8.5-1.8.5-1.9l.7.2c-.1.2-.3 1.2-.6 2l-.6-.3zM35 36.4l-.7-.6c.5-.5 1-1.1 1.3-2l.8.2c-.2.6-.6 1.6-1.4 2.4zm3.9-5.8H38c-.3 0-.5-.1-.6-.3v.7h1.8v.7h-1.8v1c1-.1 1.2-.1 1.8-.2v.6c1-1 1.3-2 1.4-2.4-.4-.5-.6-.6-.9-.8l.4-.6c.2.1.4.3.6.5 0-.2.1-.6.1-1.4h-1.1v-.8H41v-1.3h.8v1.3h1.6c0 .4-.1 2.7-.1 2.9v.5c0 .4 0 1.7.3 1.7.2 0 .4-1.2.4-1.4l.7.3c-.1.6-.2 1.2-.4 1.6-.1.3-.3.6-.7.6-.7 0-1-1-1-2.6 0-.3.1-2.2.1-2.7h-.8c-.1.8-.1 1.7-.2 2.1.3.3.5.6.8.9l-.5.7c-.2-.3-.3-.4-.5-.7-.4 1.2-1.1 2.1-1.5 2.5l-.7-.6.1-.1c-.7.1-3 .4-4.6.4l-.1-.8c.7 0 1.5-.1 2.2-.1v-1h-1.7V31h1.7v-.7h.8V29h-.8c-.3 1.2-1.1 1.7-1.9 2l-.4-.7c1-.3 1.3-.7 1.4-1.4h-1.3v-.7h2.2v-.7h-1.7v-.7h1.7v-.7h.8v.7h1.8v.7h-1.8v.7h2.1v.8h-1.4v.7c0 .2 0 .2.2.2h.4c.2 0 .2-.1.3-.5l.6.1c-.4.9-.6 1.1-1 1.1zm-1.2 5.6c0-.2.1-.7.1-1.1V34h.8c.1.6.2 1.4.1 2.2h-1zm2.8 0c-.1-.7-.2-.8-.6-2.2l.8-.1c.3.6.6 1.6.7 2.3h-.9zm3.2.1c-.4-.7-1-1.6-1.6-2.3l.7-.4c.9.9 1.6 1.9 1.7 2.2l-.8.5zM49.9 26.9v.7h-1.8c.1.2.2.5.3.7l-.8.3c-.1-.5-.2-.8-.3-1h-.5c-.6.8-1 1.1-1.3 1.3l-.6-.6c.8-.5 1.4-1.2 1.7-2.1l.8.2c-.1.2-.1.3-.2.6h2.7zm-2.6 2.4v-.5h.7v.5h2.1v.7H48v.6h1.9v3.2H48v.6h2.2v.7H48v1.2h-.8v-1.2H45v-.7h2.3v-.6h-1.9v-3.2h1.9V30h-2.2v-.7h2.2zm0 1.9h-1.2v.6h1.2v-.6zm0 1.2h-1.2v.7h1.2v-.7zm1.9-1.2H48v.6h1.2v-.6zm0 1.2H48v.7h1.2v-.7zm5.8-5.5v.7h-2.3c.2.3.3.5.4.8l-.8.3c-.1-.2-.3-.7-.4-1h-.7c-.5.8-.9 1-1.1 1.2l-.7-.6c.7-.5 1.3-1.2 1.6-2.1l.8.2c-.1.2-.1.3-.2.5H55zm-.4 5.9c0 .7-.3.9-.9.9h-1.2l-.1-.8h1.1c.4 0 .4-.1.4-.3v-2.7h-2.2V35c0 .3.1.4.5.4h1.7c.5 0 .5-.1.6-1.3l.8.2c-.1 1.6-.3 1.9-1.1 1.9h-2.3c-.4 0-1 0-1-.8v-6.3h3.9v3.7zM65.2 26.7v9.7h-.9V36h-7.4v.4H56v-9.7h9.2zm-8.3.8v7.6h7.4v-7.6h-7.4zm1.8.4h.8v1.2h2.1v-1.2h.8v1.2h1.3v.8h-1.3v1.7h1.5v.8h-1.5v2.3h-.8v-2.3h-2.3c-.3 1.1-.8 1.7-1.4 2.3l-.7-.7c.3-.3 1-.8 1.3-1.7h-1.3v-.8h1.5c0-.1.1-.5.1-.9v-.8h-1.4V29h1.4v-1.1zm.9 2.8c0 .2 0 .7-.1.9h2.1v-1.7h-2.1v.8zM26.5 46.7c-.2-.3-.4-.7-.7-1.4v5.4H25v-4.9c-.3 1.4-.7 2.1-.9 2.5l-.4-1c.7-1.1 1.2-2.7 1.3-3.7h-1.1v-.8H25v-2.1h.8v2.1h.7v.8h-.7v.3c.4 1.1.8 1.7 1.1 2.1l-.4.7zm3.7-.7v-.8h.4V42h-.3v-.8h3.5v.8h-.5c-.1 1.5-.3 2.6-.5 3.2h1.1v.8h-1.3v.2h.1v3.6c0 .1 0 .2.2.2h.1c.1 0 .2-.1.2-.2s.1-1 .1-1.3l.7.2c-.1 1.7-.1 2.1-.9 2.1h-.6c-.5 0-.7-.3-.7-.8v-2.2c-1 1.7-2.3 2.6-2.8 3l-.5-.7c.3-.2.6-.3 1.1-.8-.1-.2-.1-.4-.3-.7-.4.3-1.8 1-2.8 1.4l-.2-.8c.3-.1.4-.2.7-.3v-7.8h2.9V46h-2v2.6c.6-.3.7-.3 1.2-.6-.4-.7-.5-.9-.6-1.1l.7-.4c.5.7 1 1.6 1.2 2.2.8-.8 1.2-1.8 1.5-2.7h-1.7zM29 41.8h-1.2v1.4H29v-1.4zm0 2.1h-1.2v1.4H29v-1.4zm3 1.2c.1-.5.4-1.6.4-3.2h-1.1v3.2h.7zM41.9 43.6h-5v-.5c-1.1.6-1.9.8-2.2 1l-.4-.8c.6-.2 3-.9 4.7-2.6h.9c1.8 1.7 4 2.4 4.8 2.6l-.4.8c-.7-.2-1.4-.5-2.3-1v.5zm-7.7 6.3c.9-.9 1.2-2.2 1.3-2.5l.9.2c-.4 1.8-1 2.5-1.4 2.9l-.8-.6zm9.3-5.5v.7c-.6.7-1.3 1.3-3.3 2.2l-.5-.7c.4-.2 1.7-.6 2.7-1.5h-7.1v-.7h8.2zm-5.7 3.4v1.6c0 .4.1.4.4.4h2.2c.4 0 .5 0 .5-1.2l.9.2c-.1 1.5-.4 1.9-1.2 1.9h-2.9c-.5 0-.9-.2-.9-.8v-2h1zm3.6-4.9c-1.1-.7-1.7-1.2-2-1.5-.5.6-1.2 1-2.1 1.5h4.1zm-1.8 5.5c-.8-.7-1.7-1.2-2.1-1.3l.4-.7c.7.3 1.5.8 2.1 1.3l-.4.7zm4.1 2c-.5-1.1-1.5-2.3-1.9-2.7l.7-.4c.5.5 1.4 1.6 1.9 2.6l-.7.5zM54.5 41v9.7h-.9v-.5h-7.2v.5h-.9V41h9zm-.9.9h-7.2v7.5h7.2v-7.5zm-.5.8c-.3.7-.9 2.4-2.2 3.9 1.2.7 1.8 1.3 2.1 1.5l-.5.7c-1.2-1-1.9-1.5-2.2-1.7-.9.8-1.9 1.4-2.9 1.9l-.6-.8c.6-.2 1.7-.6 2.8-1.5-1.2-.7-2.1-1-2.6-1.2l.4-.7c.5.2 1.5.5 2.8 1.3 1-1.1 1.7-2.4 2.1-3.8l.8.4zM48 44.9c-.2-.8-.4-1.4-.7-2l.8-.2c.3.6.6 1.4.7 2.1l-.8.1zm1.9-.4c-.1-.6-.2-1.2-.5-2.1l.8-.2c.2.6.4 1.5.5 2.1l-.8.2z"/><path style="fill:#e6a000;stroke:#da4207;stroke-width:1.311;stroke-miterlimit:3.8636" d="M23.7 115.2h11.8v7.7H23.7z"/><linearGradient id="SVGID_00000170260412054872281270000013712663024004422073_" gradientUnits="userSpaceOnUse" x1="83.403" y1="641.617" x2="92.911" y2="634.477" gradientTransform="translate(-135.54 -1075.454) scale(1.8721)"><stop offset="0" style="stop-color:#fbe1c3"/><stop offset=".174" style="stop-color:#fbd58b"/><stop offset=".279" style="stop-color:#f4a65d"/><stop offset=".309" style="stop-color:#f2984f"/><stop offset=".562" style="stop-color:#fbd58b"/><stop offset="1" style="stop-color:#f2984f"/></linearGradient><path style="fill:url(#SVGID_00000170260412054872281270000013712663024004422073_);stroke:#da4207;stroke-width:1.311" d="M23.7 115.2h11.8v7.7H23.7z"/><path class="st5" d="M42.8 115.2c1.3-.1 2.1-.4 2.7-.7l.3.6c-.9.4-1.8.5-2.3.6v1.4H46v.7h-.7v4.7h-.7V118h-1.1v.8c0 .4 0 2.7-.9 4l-.6-.5.1-.1H39v.4h-.7V115h.7v6.5h3.2v.6c.4-.7.5-1.3.6-2.1.1-.5.1-.9.1-1.3v-3.5zm-.7 4.9c-.2-.2-.5-.7-.9-1.3v2.4h-.6v-2.3c-.4.7-.7 1.2-1.2 1.7l-.4-.6c.9-.9 1.4-1.9 1.5-2.1h-1.3v-.6h1.4v-2.6h.6v2.6h1.2v.6h-1.2c.2.4.7 1 1.2 1.6l-.3.6zm-2.5-3.3c-.1-.7-.3-1.2-.4-1.6l.6-.1c0 .1.3 1 .3 1.6l-.5.1zm1.9-.1c.3-.6.4-1.4.4-1.6l.6.1c0 .2-.2 1-.5 1.6l-.5-.1zM46.9 122.8l-.6-.5c.4-.4.8-.8 1.1-1.6l.6.2c-.1.5-.5 1.2-1.1 1.9zm3.2-4.7h-.7c-.2 0-.4-.1-.5-.2v.6h1.4v.6h-1.4v.8c.8-.1 1-.1 1.4-.2v.5c.8-.8 1-1.6 1.1-1.9l-.7-.7.4-.5c.1.1.3.2.5.4 0-.2.1-.5.1-1.1h-.9v-.7h.9v-1h.6v1h1.3c0 .3-.1 2.2-.1 2.3v.4c0 .3 0 1.3.2 1.3s.3-.9.3-1.1l.5.3c-.1.5-.2.9-.3 1.3-.1.2-.3.5-.6.5-.6 0-.8-.8-.8-2.1 0-.2 0-1.8.1-2.1h-.6c0 .7-.1 1.4-.2 1.7.2.3.4.5.6.7l-.4.6c-.2-.2-.3-.3-.4-.5-.4 1-.9 1.7-1.2 2l-.6-.5.1-.1c-.6.1-2.5.3-3.7.4l-.1-.6c.6 0 1.2-.1 1.8-.1V119h-1.4v-.6h1.4v-.6h.6v-1h-.7c-.3 1-.9 1.4-1.5 1.6l-.3-.5c.8-.3 1-.6 1.2-1.1h-1.1v-.5h1.8v-.6h-1.4v-.5h1.4v-.5h.6v.5h1.4v.5h-1.4v.6h1.7v.5h-1.1v.5c0 .1 0 .2.2.2h.3c.1 0 .1 0 .2-.4l.5.1c-.1.8-.2.9-.5.9zm-1.1 4.5v-1.8h.6c.1.5.1 1.1.1 1.8H49zm2.4 0c-.1-.5-.1-.6-.5-1.8l.6-.1c.2.5.4 1.3.5 1.8l-.6.1zm2.5.1c-.3-.5-.8-1.3-1.3-1.9l.5-.4c.7.7 1.3 1.5 1.4 1.8l-.6.5zM60.8 118.4c-.6.6-1.2 1-1.7 1.4.4 0 1.6-.1 2.4-.1-.2-.2-.3-.4-.6-.6l.5-.4c.4.4 1 1.1 1.5 1.8l-.6.4c-.1-.2-.2-.3-.5-.7-.3 0-2.4.2-2.6.2v2.3h-.7v-2.3c-1.4.1-1.7.1-3.6.1l-.1-.6H58c-.1-.1-1.2-.7-2.2-1l.5-.5c.3.1.4.2.7.3.3-.3.5-.4.7-.6h-2.9v-.6h3.6v-.5h-3v-.5h3v-.5H55v-.6h3.4v-.5h.7v.5h3.5v.6h-3.5v.5h3v.5h-3v.5H63v.6h-4.2c-.5.4-.9.7-1.1.9l1 .5c1.1-.9 1.2-1 1.6-1.3l.5.2zm-5.7 3.6c.3-.1 1.1-.5 1.9-1.3l.6.4c-.5.5-1.3 1.2-2 1.5l-.5-.6zm5.7-1.4c.9.9 1.6 1.2 2 1.4l-.4.6c-1.1-.5-1.8-1.2-2.1-1.5l.5-.5zM66.5 119.9c-.5-.6-.8-1.3-.9-1.4v4.2h-.7v-4.3c-.5 1.3-1 2-1.3 2.4l-.3-.8c.5-.6 1.2-1.8 1.6-3h-1.4v-.6h1.4v-1.7h.7v1.7h1.2v.6h-1.2v.5c.2.4.7 1.2 1.3 1.8l-.4.6zm-.1.9c1-.7 2.1-1.7 3.1-3.8h-2.3v-.7h2.4v-1.7h.7v1.7h1.2v.7h-1.2v5c0 .6-.5.7-.8.7h-1.3l-.1-.7h1.1c.2 0 .3 0 .3-.3v-3.6c-.7 1.3-1.6 2.4-2.7 3.3l-.4-.6z"/><path class="st8" d="m164.3 254.5-50.4-23.9v-65.5l50.4 22.4z"/><path style="fill:#ffe200;stroke:#231815;stroke-width:.5778;stroke-linecap:round;stroke-linejoin:round;stroke-miterlimit:3.8636" d="m135.2 245.5 5.9-2.8v-65.6l-5.9 2.8z"/><path class="st10" d="m154.3 260.5-50.4-23.9v-65.5l50.4 22.5z"/><path class="st8" d="m164.3 254.5 2-.9v-66.9l-2 .8z"/><path style="fill:none;stroke:#231815;stroke-width:.579;stroke-linecap:round;stroke-linejoin:round;stroke-miterlimit:3.8636" d="m135.2 179.9 5.8-2.8-8.6-3.8-5.8 2.8z"/><path class="st8" d="M164.3 187.5 114 165.1l1.9-.9 50.4 22.5z"/><path class="st10" d="m154.3 193.6-50.4-22.5 6.1-2.6 49.9 22z"/><path class="st12" d="m138.4 269.5-55.6-27.8V185l55.6 24.6z"/><path class="st12" d="M138.4 209.6 82.8 185l21.1-7.4 50.4 22.5z"/><path class="st13" d="m101.8 193.8 25.5-5.4M104.1 194.4l25.5-5.5M105.8 195.2l25.5-5.4"/><path class="st12" d="M138.4 209.6v59.9l15.9-8.8V200z"/><path class="st13" d="m138.2 229.5 16.1 8.5M138.2 230.7l16.1 8.4M138.2 231.8l16.1 8.5"/><linearGradient id="SVGID_00000043459730042673228440000000505449925839433894_" gradientUnits="userSpaceOnUse" x1="128.224" y1="714.218" x2="146.027" y2="645.375" gradientTransform="matrix(.9638 .1903 -.0008 .8878 -22.047 -401.19)"><stop offset=".006" style="stop-color:#c29141"/><stop offset=".135" style="stop-color:#713718"/><stop offset=".286" style="stop-color:#c29141"/><stop offset=".416" style="stop-color:#713718"/><stop offset=".562" style="stop-color:#c29141"/><stop offset=".736" style="stop-color:#713718"/><stop offset=".876" style="stop-color:#c29141"/><stop offset="1" style="stop-color:#713718"/></linearGradient><path style="fill:url(#SVGID_00000043459730042673228440000000505449925839433894_)" d="m99.1 194.4-15.9-6.9-2.4.6v7.6l2.7 1.2-2.7.3v7.7l2.6 1.3-2.6.2v7.3l2.4 1.3-2.4.2v7.4l2.5 1.2-2.5.3v7.9l2.3 1.3-2.3.2-.1 9.9 15.8 7.8 2-.2.1 1.2 17.9 8.9 2.2-.6v1.7l16.6 8.8 2.8-1.5.1-38.3-19.5-9.1v-9.6l-19.5-8.6z"/><path class="st15" d="m101.3 241.9-2.7.2v10.1l18 8.9 1.8-.5M83.2 233.2l-2.4.3v9.9l15.7 7.7 2.1-.1M101.3 232.3l-2.6.2v8.1l17.9 8.6 1.9-.5M83.4 223.8l-2.6.2v8l15.7 7.6 2-.2M83.4 206.1l-2.6.3v7.3l15.7 7.3 2.1-.2M83.5 196.9l-2.7.2v7.8l15.8 7.1 1.9-.1M83.2 187.5l-2.4.6v7.5l15.8 7 2.5-.3M120.7 251.3l-2 .5v10.3l16.7 8.9 2.7-1.5M120.8 241.4l-2.1.6v8.3l17.1 8.2 2.2-.6M120.7 232.3l-2 .5v7.6l17.1 8.1 2.2-.5M101.4 223.3l-2.7.2v7.5l17.9 8.4 2-.5M83.3 215l-2.5.2v7.3l15.7 7.4 2-.1M121.1 223.2l-2.7.2-.1 7.4 18 8.4 2-.6M101.4 204.9l-2.7.2v7.9l17.9 8.1 2-.5"/><path style="fill:none;stroke:#231815;stroke-width:.3851;stroke-linecap:round;stroke-linejoin:round;stroke-miterlimit:3.8636" d="m83.2 187.5 16.1 6.8v9.5l19.4 8.7v9.6l19.5 9-.1 38.4"/><path class="st17" d="m80.8 188.1 15.8 6.9 2.6-.7M96.6 195v7.6M118.7 251.8l17.1 8.3 2.3-.7M98.6 242.1l18 8.7 2.1-.6M80.8 233.5l15.7 7.6 2.7-.2M118.7 242l17.1 8.1 2.4-.6M98.7 232.5l17.9 8.5 2.1-.6M80.8 224l15.7 7.5 2.5-.2M118.7 232.8l17.1 8 2.4-.5M98.7 223.5l17.9 8.3 2.1-.6M80.8 215.2l15.7 7.3 2.7-.2M98.7 214.5l17.9 8.2 2.2-.6M80.8 206.4l15.8 7.2 2.7-.3M98.7 205.1l17.9 8 2.1-.6M80.8 197.1l15.8 7.1 2.7-.4M96.6 204.2v7.8M96.6 213.6l-.1 7.4M96.5 222.5v7.5M96.5 231.5v8.1M96.5 241.1v10M116.6 213.1v8.1M116.6 222.7v7.6"/><path class="st15" d="m101.4 214.3-2.7.2v7.5l17.9 8.3 1.8-.4"/><path class="st17" d="m98.7 214.5 17.9 8.2 2.2-.6M116.6 222.7v7.6"/><path class="st15" d="m121.1 223.2-2.7.2-.1 7.4 18 8.4 2-.6"/><path class="st15" d="m121.1 223.2-2.7.2-.1 7.4 18 8.4 2-.6"/><path class="st17" d="m118.4 223.4 17.9 8.2 2.1-.6M136.3 231.6v7.6M116.6 231.8v7.6M116.6 241v8.2M116.6 250.8v10.3M135.8 240.8v7.7M135.8 250.1v8.4M135.8 260.1l-.4 10.9"/><path class="st10" d="m154.3 260.7 5.6-3.3V190.5l-5.6 3.1V260.7"/><path class="st18" d="m69 181.6 23.2 3.1"/><path class="st19" d="M21.7 184v-.6h4.6v-3.3h-4.6v-.6h5.2v4.9h-.6v-.4h-4.6zM34.1 181.3c-.9.9-1.9 1.9-5.4 3.2l-.1.2c-.1 0-.1-.1-.2-.2l-.3-.7c.8-.1 1.7-.3 3.2-1.2 1.4-.8 2-1.4 2.5-1.9l.3.6zm-4.3-.6c-.4-.5-.9-1-1.3-1.4l.5-.5c.3.2.9.8 1.4 1.4l-.6.5zM39.8 179.5h.3l.4.5c-.3.3-.4.3-.4.5-.7 1.8-1.1 2.5-2.1 3.5-.6.5-1 .8-1.7 1.2l-.6-.5c.7-.4 1.6-.8 2.5-1.9.9-1.1 1.1-1.9 1.2-2.6H37c-.4.5-.7 1-1.6 1.7l-.5-.4c.4-.3.9-.7 1.5-1.5.5-.7.6-1.1.8-1.4l.6.2c.2.1.2.1.2.2s-.1.1-.3.1l-.3.6h2.4zM42.4 178.8c.1 0 .2 0 .2.1 0 0 0 .1-.1.2v3.6h-.7v-3.9h.6zm.3 5.8c.9-.4 1.3-.6 1.6-1 .5-.6.8-1.3.8-2.6v-2.5h.7s.2 0 .2.1l-.1.2c0 2.3 0 3.1-.3 4.1-.4 1.2-1.5 1.7-2.3 2.1l-.6-.4zM47.1 182.2v-.6H53v.6h-5.9zM55.1 180.7c1.4.6 1.9 1 2.7 1.6l-.4.6c-.2-.2-.6-.5-1.1-.9-.7-.4-1-.6-1.4-.7v3.6h-.7v-6.4h.6s.2 0 .2.1l-.2.2v2.3l.3-.4zM59.8 180.2c0 .7 0 1.7-.7 2.7l-.5-.3c.6-.9.7-1.7.7-2.8 0-.4 0-.9-.1-1.4h2.6v1.7h-2zm-.9 4.9v-.5H62v-.7h-2.4v-.5H62v-.8l.6.1s.1 0 .1.1-.1.1-.2.2v.5h2.3v.5h-2.3v.7h3.1v.5h-6.7zm2.4-6.2h-1.5v.8h1.5v-.8zm-1.5 3.8v-1.8h1.9v1.8h-1.9zm1.4-1.4h-.9v.9h.9v-.9zm3.1-.2v.7h1.2v.5h-1.2v.8h-.5v-.8h-1.2v-.5h1.2v-.7h-1.4v-.5h3.5v.5h-1.6zm-1.8-1.7v-.5h1.2v-.7h.6c.1 0 .1 0 .1.1s-.1.1-.2.2v.4h1.2v.5h-2.9zm.7 1.2c-.1-.2-.2-.5-.5-.8l.4-.3c.3.3.4.6.5.8l-.4.3zm1.9-.6c-.2.3-.2.4-.4.6l-.4-.3c.2-.3.3-.5.5-.8l.5.3.1.1c0 .1-.1.1-.3.1zM22.8 187.3v1.6c0 1.8 0 3.3-.8 4.7l-.6-.3c.6-1.1.8-2.2.8-4 0-.8 0-2.2-.1-2.5h6.6v.5h-5.9zm3.2 5.1v.8c0 .5-.3.6-1.3.6l-.2-.6c.2 0 .5.1.7.1.2 0 .2-.1.2-.2v-.6h-2.6v-.5h2.6v-.5h.5c.3-.1.4-.2.6-.3h-3.3v-.5h4.5l.1.2c-.6.4-1 .6-1.9 1.1h2.7v.5H26zm-2.4-2.3v-2.4h4.3v2.4h-4.3zm3.7-1.9h-3.2v.5h3.2v-.5zm0 .9h-3.2v.5h3.2v-.5zM31.6 193.3v-4.4h-1.3v-.5c.5 0 1.2-.1 1.4-1.1h.6v6h-.7zM37.1 193.4c-2 0-2.4-2-2.4-3 0-2.1 1-3.3 2.5-3.3.8 0 1.7.4 2 1.5h-.8c-.1-.2-.2-.9-1.2-.9-1.6 0-1.7 1.8-1.7 2.4.3-.4.8-.8 1.7-.8 1.1 0 2 .7 2 2 .1 1.2-.8 2.1-2.1 2.1zm1.1-3c-.3-.3-.7-.5-1.1-.5-.8 0-1.5.4-1.5 1.3 0 .6.3 1.5 1.4 1.5.9 0 1.4-.5 1.4-1.4.1-.2 0-.6-.2-.9zM42.1 193.4c-1.8 0-2.3-1.6-2.3-3.1s.4-3.1 2.3-3.1c1.8 0 2.3 1.7 2.3 3.1 0 1.5-.4 3.1-2.3 3.1zm0-5.7c-1.2 0-1.5 1.2-1.5 2.5 0 1.4.3 2.5 1.5 2.5s1.5-1.1 1.5-2.5c0-1.3-.3-2.5-1.5-2.5zM50.3 193.3v-3.1c0-.4-.1-.9-.8-.9-1.1 0-1.1 1-1.1 1.2v2.8h-.7v-3.2c0-.7-.5-.8-.8-.8-1.1 0-1.1 1.1-1.1 1.2v2.8h-.7v-4.4h.7v.6c.2-.4.5-.7 1.3-.7.9 0 1.1.5 1.2.7.2-.3.5-.7 1.3-.7 1 0 1.4.7 1.4 1.3v3.2h-.7zM57 193.3v-3.1c0-.4-.1-.9-.8-.9-1.1 0-1.1 1-1.1 1.2v2.8h-.7v-3.2c0-.7-.5-.8-.8-.8-1.1 0-1.1 1.1-1.1 1.2v2.8h-.7v-4.4h.7v.6c.2-.4.5-.7 1.3-.7.9 0 1.1.5 1.2.7.2-.3.5-.7 1.3-.7 1 0 1.4.7 1.4 1.3v3.2H57z"/><path class="st18" d="m134.4 177 4.9-26.2h47.5"/><path class="st19" d="M193.5 149.4c-.1-.4-.3-1.3-1.7-1.3-1.8 0-1.9 1.9-1.9 2.6 0 1.3.6 2.5 1.8 2.5 1.5 0 1.7-1.7 1.8-2.1h-1.6v-.6h2.3v3.1h-.6v-.7c-.4.4-.8.9-1.9.9-1.6 0-2.6-1.4-2.6-3.1 0-1.4.6-3.2 2.7-3.2 1.4 0 2.2.8 2.4 1.9h-.7zM195.4 153.6v-6h.7v5.3h2.9v.6h-3.6zM199.7 152.3c.3-.2.5-.4 1-.9.4-.5.5-.7.6-.9l.6.3c.1 0 .1.1.1.1 0 .1-.1.1-.3.1-.3.4-.8 1.2-1.5 1.7l-.5-.4zm3.1-2.7h-2.7v-.6h2.7v-1.6l.7.1c.1 0 .2 0 .2.1s0 .1-.2.2v1.2h2.5v.6h-2.5v3.1c0 .5 0 .9-.6 1h-.8l-.3-.7c.2 0 .5.1.8.1.2 0 .3-.1.3-.3v-3.2zm1.7.8c.8.6 1.3 1.3 1.6 1.8l-.6.3c-.5-.9-1.1-1.5-1.5-1.8l.5-.3zm.7-2c-.1-.1-.5-.6-.7-.8l.4-.3c.2.2.5.5.7.8l-.4.3zm1-.5c-.1-.1-.5-.6-.7-.8l.4-.3c.2.2.5.6.7.8l-.4.3zM213 150.1c-.9.9-1.9 1.9-5.4 3.2l-.1.2c-.1 0-.1-.1-.2-.2l-.3-.7c.8-.1 1.7-.3 3.2-1.2 1.4-.8 2-1.4 2.5-1.9l.3.6zm-4.3-.7c-.4-.5-.9-1-1.3-1.4l.5-.5c.3.2.9.8 1.4 1.4l-.6.5zM215 149.5c1.4.6 2 1 2.6 1.6l-.4.6c-.9-.8-1.7-1.3-2.5-1.6v3.6h-.7v-6.4h.6c.1 0 .2 0 .2.1l-.2.2v2.3l.4-.4zm2.1-.7c-.2-.3-.6-.6-.8-.8l.4-.4c.3.2.6.6.8.8l-.4.4zm.9-.6c-.2-.3-.6-.6-.8-.8l.4-.3c.3.2.6.5.8.8l-.4.3z"/><path class="st18" d="m161.5 189.4 4.9-9.5h20.4"/><path class="st19" d="M191.6 181.5v.5h-.6v-3.3c-.5.7-.9 1-1.4 1.4l-.5-.4c1-.7 2.2-2 2.7-4h-2.5v-.6h7v.6h-3.8c-.3 1-.5 1.6-.9 2.2h4.3v4h-.6v-.4h-3.7zm3.5-.6v-2.4h-3.5v2.4h3.5zM197.2 175.7v-.5h3.3v-.6l.8.1s.1 0 .1.1c0 0 0 .1-.2.1v.4h3.3v.5h-7.3zm6.7 3v-.8h-6v.9h-.6v-1.4h7.1v1.3h-.5zm-5.5.5v-1h4.9v1h-4.9zm4.3 2.9h-.7l-.2-.5c.3 0 .7.1.7.1.1 0 .2 0 .2-.1v-.2H199v.7h-.6v-2.5h4.9v2c0 .3-.2.5-.6.5zm-3.9-5v-1h4.1v1h-4.1zm3.9 1.5H199v.3h3.7v-.3zm0 1.4H199v.3h3.7v-.3zm0 .6H199v.3h3.7v-.3zm-.3-4.2h-3v.3h3v-.3zM205.3 180.2c.3-.2.5-.4 1-.9.4-.5.5-.7.6-.9l.6.3c.1 0 .1.1.1.1 0 .1-.1.1-.3.1-.3.4-.8 1.2-1.5 1.7l-.5-.4zm3.1-2.8h-2.7v-.6h2.7v-1.6l.7.1c.1 0 .2 0 .2.1s0 .1-.2.2v1.3h2.5v.6H209v3.1c0 .5 0 .9-.6 1h-.8l-.3-.7c.2 0 .5.1.8.1.2 0 .3-.1.3-.3v-3.3zm1.7.9c.8.6 1.3 1.3 1.6 1.8l-.6.3c-.5-.9-1.1-1.5-1.5-1.8l.5-.3zm.7-2c-.1-.1-.5-.6-.7-.8l.4-.3c.2.2.5.5.7.8l-.4.3zm1-.5c-.1-.1-.5-.6-.7-.8l.4-.3c.2.2.5.6.7.8l-.4.3zM212.7 178.9v-.6h5.9v.6h-5.9zM220.9 177.4c1.4.6 2 1 2.6 1.6l-.4.6c-.9-.8-1.7-1.3-2.5-1.6v3.6h-.7v-6.4h.6c.1 0 .2 0 .2.1l-.2.2v2.3l.4-.4zm2.1-.8c-.2-.3-.6-.6-.8-.8l.4-.4c.3.2.6.6.8.8l-.4.4zm1-.5c-.2-.3-.6-.6-.8-.8l.4-.3c.3.2.6.5.8.8l-.4.3zM192 187.4c-.1-.2-.1-.3-.2-.5-.1 0-.5.1-.8.1v3.4h-.6V187c-.1 0-.7.1-1.1.1 0 .1 0 .2-.1.2 0 0-.1 0-.1-.2v-.6h.6c.1-.1.1-.1.4-.5.1-.1.2-.3.4-.5-.4-.4-.8-.8-1.3-1.1l.4-.4c.2.1.4.2.4.3.2-.3.4-.6.9-1.4l.5.3c.1 0 .1.1.1.1 0 .1-.2.1-.2.1-.3.5-.5.8-.8 1.2.1.1.4.4.5.4.3-.4.5-.7.7-1.1l.5.4c.1 0 .1.1.1.2s-.1.1-.4.1c-.9 1.2-1.2 1.5-1.4 1.8.4 0 .8-.1 1.2-.1l-.2-.4.4-.2c.4.6.5.9.7 1.4l-.6.3zm-1.9.6c-.1 1-.2 1.5-.4 2.1l-.6-.1c.2-.6.4-1.6.4-2.3l.6.1s.1 0 .1.1l-.1.1zm1.7 1.9c-.1-.8-.3-1.5-.4-2.1l.5-.1c.2.6.4 1.2.5 2l-.6.2zm4.1-.2c-.2.8-.8.8-1.2.8h-.6l-.2-.7c.5.1.6.1.8.1.6 0 .7-.5.7-1.1.1-1.1.1-2.3.2-3.5h-2.3c-.3.4-.4.7-.7.9l-.5-.3c.8-.8 1.2-1.7 1.6-2.7l.5.3c.1 0 .1.1.1.1 0 .1-.2.1-.2.1-.2.3-.3.7-.5 1h2.5c0 1.3 0 3.9-.2 5zm-1.9-1.3c-.2-.6-.4-1-.7-1.6l.5-.2c.4.7.5 1.1.7 1.6l-.5.2zM199.2 190.1c-.8 0-1.8-.4-2-1.5h.8c.1.2.2.9 1.2.9 1.6 0 1.7-1.8 1.7-2.4-.2.2-.6.8-1.7.8s-2.1-.7-2.1-2c0-1.2.8-2.1 2.2-2.1.9 0 1.5.5 1.8.9.5.7.5 1.7.5 2.2 0 1.8-.8 3.2-2.4 3.2zm.1-5.7c-.8 0-1.4.5-1.4 1.4 0 .5.2 1.4 1.4 1.4.9 0 1.5-.5 1.5-1.3-.1-.6-.4-1.5-1.5-1.5zM202.6 189.9v-.9h.9v.9h-.9zM206.5 190.1c-1.3 0-2-.7-2.2-1.7h.8c.1.7.7 1.1 1.4 1.1.8 0 1.6-.5 1.6-1.5 0-.3-.1-1.4-1.4-1.4-.4 0-.9.1-1.3.5h-.8l.5-3.2h3.4v.6h-2.8l-.3 1.8c.2-.1.6-.4 1.3-.4 1.2 0 2.1.7 2.1 2 .1 1.4-1 2.2-2.3 2.2zM214.8 189.9v-3.1c0-.4-.1-.9-.8-.9-1.1 0-1.1 1-1.1 1.2v2.8h-.7v-3.1c0-.7-.5-.8-.8-.8-1.1 0-1.1 1.1-1.1 1.2v2.8h-.7v-4.4h.7v.6c.2-.4.5-.7 1.3-.7.9 0 1.1.5 1.2.7.2-.3.5-.7 1.3-.7 1 0 1.4.7 1.4 1.3v3.2h-.7zM221.4 189.9v-3.1c0-.4-.1-.9-.8-.9-1.1 0-1.1 1-1.1 1.2v2.8h-.7v-3.1c0-.7-.5-.8-.8-.8-1.1 0-1.1 1.1-1.1 1.2v2.8h-.7v-4.4h.7v.6c.2-.4.5-.7 1.3-.7.9 0 1.1.5 1.2.7.2-.3.5-.7 1.3-.7 1 0 1.4.7 1.4 1.3v3.2h-.7z"/><path class="st18" d="M166.3 205.5H186"/><path class="st19" d="M189.9 206.6c0 1 .3 1.1 1.4 1.1 1.4 0 1.9-.1 2.9-.3v.7c-.9.1-1.4.1-3.3.1-1.5 0-1.7-.4-1.7-1.6V202l.7.1c.1 0 .2.1.2.1s0 .1-.2.2v2.1c1.5-.2 2.4-.5 3.8-1.2l.4.6.1.1c0 .1 0 .1-.1.1h-.2c-2 .7-3 .9-3.9 1v1.5zm3.9-3.5c-.2-.2-.5-.5-.8-.7l.3-.4c.2.2.5.5.8.7l-.3.4zm1-.5c-.2-.2-.5-.5-.8-.7l.3-.4c.3.2.6.6.8.7l-.3.4zM195.7 206.8h6.2v.7h-6.2v-.7zm.9-3.1v-.7h4.5v.7h-4.5zM202.9 205.7v-.6h5.9v.6h-5.9zM209.7 207.5c.8-.5 1.8-1 1.8-3.6v-1.3l.7.1s.2 0 .2.1c0 0 0 .1-.2.2 0 1.5 0 2-.2 2.6-.3 1.5-1 2-1.7 2.5l-.6-.6zm3.7-5.1h.7c.1 0 .2 0 .2.1 0 0 0 .1-.2.2v4.2c.4-.2.8-.4 1.4-1 .6-.6.8-.9.9-1.2l.4.5c-.3.4-.6.9-1.3 1.5-.7.6-1.2.9-1.6 1.1l-.4-.3v-5.1zM194 211.4h.3l.4.5c-.3.3-.4.3-.4.5-.7 1.8-1.1 2.5-2.1 3.5-.6.5-1 .8-1.7 1.2l-.6-.5c.7-.4 1.6-.8 2.5-1.9.9-1.1 1.1-1.9 1.2-2.6h-2.5c-.4.5-.7 1-1.6 1.7l-.5-.4c.4-.3.9-.7 1.5-1.5.5-.7.6-1.1.8-1.4l.6.2c.2.1.2.1.2.2s-.1.1-.3.1l-.3.6h2.5zM196.5 215.9v.6h-.6v-5.2h5.4v5.2h-.6v-.6h-4.2zm4.1-4.1h-4.1v3.5h4.1v-3.5zM207.8 211.3c-.4.2-.4.3-.5.4-.5 1-.7 1.4-1.1 2 .8.6 1.5 1.4 2.2 2.3l-.6.5c-.2-.4-.5-.8-1-1.4-.5-.5-.8-.7-1-.9-1 1.1-1.9 1.6-3 2.1l-.5-.5c.7-.2 1.5-.5 2.6-1.6s1.4-1.9 1.7-2.7h-3.4v-.5h3.6c.1 0 .3-.1.4-.2l.6.5z"/><path class="st18" d="m53.2 230.2 30.6-.4"/><path class="st19" d="M27 229.5c-.1.1-.2.1-.2.2-.6 1.4-.7 1.6-1.1 2.1.3.2.5.4.8.7l-.4.5c-.4-.3-.5-.5-.7-.7-.3.4-.6.8-1.3 1.3-.7.5-1.3.7-1.8.8l-.4-.6c.4-.1.9-.2 1.6-.7.7-.4 1-.8 1.4-1.2-.4-.3-.8-.5-1.4-.8l.4-.5c.8.4 1.2.6 1.4.8.6-.9.8-1.5.9-1.9h-2.4c-.8 1-1.3 1.5-1.7 1.8l-.6-.4c.5-.4 1-.7 1.7-1.7.5-.8.7-1.2.8-1.5l.6.3c.1 0 .1.1.1.1 0 .1-.2.1-.3.1-.1.2-.1.3-.4.8h2c.1 0 .4 0 .5-.1l.5.6zM30.6 234.3v-4c-1 .7-1.5 1-2.3 1.3l-.6-.5c.7-.2 1.4-.5 2.7-1.4 1.1-.8 1.7-1.5 2.1-2l.6.5.1.1s0 .1-.1.1h-.2c-.7.7-.9.9-1.7 1.5v4.5h-.6zM34 233.3c.8-.5 1.8-1 1.8-3.6v-1.3l.7.1s.2 0 .2.1c0 0 0 .1-.2.2 0 1.5 0 2-.2 2.6-.3 1.5-1 2-1.7 2.5l-.6-.6zm3.7-5h.7c.1 0 .2 0 .2.1s0 .1-.2.2v4.2c.4-.2.8-.4 1.4-1 .6-.6.8-.9.9-1.2l.3.4c-.3.4-.6.9-1.3 1.5-.7.6-1.2.9-1.6 1.1l-.4-.3v-5zM41.6 234.3c.5-.7.8-1.2 1-1.5l.5.3c.1 0 .1.1.1.1 0 .1-.2.1-.2.1-.3.5-.5.8-.9 1.3l-.5-.3zm.4-6.8h2.6v5.1H42v-5.1zm2 1.6v-1h-1.5v1H44zm0 1.5v-1h-1.5v1H44zm0 1.4v-1h-1.5v1H44zm0 .9c.4.7.8 1 .9 1.2l-.4.4c-.5-.5-.8-1-.9-1.3l.4-.3zm3-3.3v1.6h1.7v3.6h-.6v-.4h-2.4v.4h-.6v-3.6h1.3v-3.8l.7.1c.1 0 .1 0 .1.1l-.2.2v1.4h2v.6h-2zm1.1 4.2v-2.1h-2.4v2.1h2.4zM27.4 236.1c-.3.4-1.3 1.7-1.3 3.4s1 3 1.3 3.4l-.3.2c-.9-1-1.5-2.3-1.5-3.6 0-1.3.6-2.6 1.5-3.6l.3.2zM28.3 239.1h6.3v.6h-6.3v-.6zM39.3 238.8v.5h-3.9v-.5h2.8l-.4-.2c.1-.2.3-.9.4-1.2l.5.2c0 .2-.3 1-.4 1.2h1zm-2.1-2.9h.6c.1 0 .2 0 .2.1s-.2.1-.2.2v.6h1.5v.5h-3.5v-.5h1.4v-.9zm-1.2 4.2h2.9v2.7h-.5v-.3h-1.9v.5H36v-2.9zm.5-2.7c.1.2.4.9.5 1.2l-.5.2c-.1-.2-.4-.9-.5-1.1l.5-.3zm1.9 4.5v-1.3h-1.9v1.3h1.9zm3.7-5.1c-.1.3-.9 1.9-1.1 2.2.3.2 1.1 1 1.1 2.1 0 .8-.5 1.3-1.5 1.3l-.2-.7h.6c.2 0 .6-.2.6-.8 0-.9-.8-1.7-1.1-2 .2-.3.9-1.7 1-2h-1.2v5.9h-.5v-6.4h2.1l.2.4zM43.1 235.8c.9 1 1.5 2.3 1.5 3.6 0 1.3-.6 2.6-1.5 3.6l-.3-.2c.3-.4 1.3-1.7 1.3-3.4s-1-3-1.3-3.4l.3-.2z"/><path class="st18" d="m110.8 170.1-4.9-20.5H71.2"/><path class="st19" d="M26 152.6v.4h-.5v-7.1l.5.1c.1 0 .2 0 .2.1s-.1.1-.2.2v5.8h3v.6h-3zm2.9-2.1c-.3-.4-.5-.6-.8-1.1v2.3h-.6v-2.2c-.2.5-.5 1-1.1 1.7l-.4-.4c.6-.7.9-1.3 1.2-2.1h-1.1v-.5h1.3v-2.5l.6.1c.1 0 .2 0 .2.1s-.1.1-.2.2v2.1h1.2v.5h-1c.1.2.3.6 1 1.4l-.3.4zm-2.1-2.7c-.2-.6-.4-.9-.6-1.4l.5-.2c.3.6.5 1 .6 1.4l-.5.2zm2.4-1.3c-.2.5-.3.8-.6 1.2l-.5-.2c.3-.6.5-1.1.6-1.4l.5.2.1.1c.1.1.1.1-.1.1zm2.4 2.2v4.3H31v-4.3h-.8c0 1-.1 3.1-.8 4.3l-.6-.3c.7-1.1.8-2.7.8-4.2 0-.6 0-1.4-.1-1.9 0-.2 0-.4-.1-.5l.6.1c.1 0 .7-.2.8-.2.4-.1.6-.2.8-.3l.4.4.1.1c0 .1-.1.1-.1.1h-.2c-.6.2-1.1.3-1.7.4v1.5h2.3v.6h-.8zM36.4 148.8h-.5c-.4 0-.4-.2-.4-.4v-.5h-.6c-.2.6-.5.9-1.3 1.3l-.4-.4c.6-.3.9-.5 1.1-1h-.9v-.5h1.5v-.6h-1.1v-.5h1.1v-.7h.6s.1 0 .1.1-.1.1-.2.1v.4h1.2v.5h-1.2v.6h1.3v.5H36v.3c0 .2 0 .2.3.2.2 0 .2 0 .4-.3l.4.2c-.1.5-.2.7-.7.7zm-.9.9v.7c.4-.1.7-.1 1.1-.2v.5c-1.1.3-2.4.6-2.7.6 0 .1-.1.2-.2.2 0 0-.1 0-.1-.1l-.2-.6c.4 0 .8-.1 1.5-.2v-.8h-1.3v-.5h1.3v-.6l.6.1s.1 0 .1.1-.1.1-.1.1v.3h1.3v.5h-1.3zm-.6 2.2c-.3.5-.6.9-.9 1.2l-.4-.4c.4-.4.7-.8 1-1.4l.5.3.1.1c-.1.2-.2.2-.3.2zm1.3 1c-.1-.1-.3-.8-.6-1.2l.5-.2c.3.4.5.8.6 1.2l-.5.2zm3.7-1.6c-.6 0-.8-.9-.8-1.8 0-.1 0-.9.3-1.8h-.7c0 .8-.2 1.4-.3 1.7.5.5.6.7.6.8l-.4.4c-.1-.1-.4-.5-.4-.6-.2.4-.5.9-1.1 1.5l-.5-.4c.8-.7 1-1.1 1.2-1.6l-.7-.7.3-.4c.1.1.1.1.5.4.1-.4.1-.7.1-1.2h-1v-.5h1v-1.5l.7.1s.1 0 .1.1-.1.1-.2.2v1.1H40c-.4 1.4-.5 1.6-.5 2.2 0 .3 0 1.2.3 1.2.2 0 .2-.1.5-1l.5.3c-.3 1.2-.7 1.5-.9 1.5zm-1.8 1.5c-.2-.3-.3-.7-.7-1.2l.4-.3c.5.6.7 1 .7 1.2l-.4.3zm1.8.1c-.2-.6-.6-1.1-.8-1.3l.5-.3c.4.4.6.8.8 1.3l-.5.3zM44.5 150.2c-.2-.1-.4-.4-.9-1.2v4H43v-3.8c-.3.7-.6 1.4-1.2 2.2l-.6-.3c.4-.5 1-1.3 1.6-3h-1.3v-.6H43v-2l.7.1s.1 0 .1.1-.2.2-.2.2v1.7h1.1v.6h-.9c.2.6.5 1 1.1 1.5l-.4.5zm3.4-2v4.1c0 .7-.3.7-1.2.8l-.3-.7c.3 0 .4.1.6.1.3 0 .3-.1.3-.4v-3.5c-.3.8-.8 2.1-2.1 3.5l-.6-.3c.5-.5 1-1 1.4-1.7.4-.6.6-1.2.8-1.9h-1.5v-.6h2v-2h.6s.2 0 .2.1-.1.1-.2.2v1.7h.9v.6h-.9zM52.2 150.7h-1.7v.7h-.6v-4.8h2.3v2.1c.6-.9.9-2 1.1-3.1l.6.1c.1 0 .1 0 .1.1s-.1.2-.2.2c-.1.4-.1.7-.3 1.1h3.2l.2.2c-.6 1-1.1 1.6-1.7 2.3l-.4-.5c.2-.2.5-.5 1.2-1.5h-1.6v1c0 .9.4 1.7.9 2.4.6.8 1.2 1.1 1.9 1.4l-.5.5c-1.8-1-2.3-2.1-2.5-2.9-.3.9-.7 2.1-2.5 2.9l-.5-.5c.8-.3 1.6-.7 2.2-1.8.4-.7.5-1.4.6-3h-.4c-.2.5-.4.9-.7 1.4l-.5-.3v2zm-.6-3.6h-1.1v3h1.1v-3zM57.8 148.8c.5-.5.9-1 1.3-1.6.5-.7.8-1.3.9-1.7l.6.3.1.1c0 .1-.1.1-.2.1-.1.3-.6 1.1-.8 1.4.1 0 .2.1.2.2s0 .1-.1.2v5.2h-.6v-4.9c-.2.3-.6.8-.9 1l-.5-.3zm6.1 3.4c0 .7-.5.7-.8.7h-.7l-.2-.6h.7c.2 0 .3 0 .3-.3v-3.9h-3v-.6h3v-2l.6.1c.1 0 .1 0 .1.1s-.1.1-.1.2v1.7H65v.6h-1.2v4zm-2.7-3.1c.2.3.9 1.3 1 1.6l-.6.3c-.3-.7-.8-1.3-1-1.6l.6-.3zM26.4 155.8v1.6c0 1.8 0 3.3-.8 4.7l-.6-.3c.6-1.1.8-2.2.8-4 0-.8 0-2.2-.1-2.5h6.6v.5h-5.9zm3.3 5.1v.9c0 .5-.3.6-1.3.6l-.2-.6c.2 0 .5.1.7.1.2 0 .2-.1.2-.2v-.6h-2.6v-.5h2.6v-.5h.5c.3-.1.4-.2.6-.3H27v-.5h4.5l.1.2c-.6.4-1 .6-1.9 1.1h2.7v.5h-2.7zm-2.5-2.3v-2.4h4.3v2.4h-4.3zm3.7-1.9h-3.2v.5h3.2v-.5zm0 .9h-3.2v.5h3.2v-.5zM48.8 161.8v-3.1c0-.3-.1-.9-.8-.9-1.1 0-1.1 1-1.1 1.2v2.8h-.7v-3.1c0-.7-.5-.8-.8-.8-1.1 0-1.1 1.1-1.1 1.2v2.8h-.7v-4.3h.7v.6c.2-.4.5-.7 1.3-.7.9 0 1.1.5 1.2.7.2-.4.5-.7 1.3-.7 1 0 1.4.7 1.4 1.3v3.2h-.7zM55.5 161.8v-3.1c0-.3-.1-.9-.8-.9-1.1 0-1.1 1-1.1 1.2v2.8h-.7v-3.1c0-.7-.5-.8-.8-.8-1.1 0-1.1 1.1-1.1 1.2v2.8h-.7v-4.3h.7v.6c.2-.4.5-.7 1.3-.7.9 0 1.1.5 1.2.7.2-.4.5-.7 1.3-.7 1 0 1.4.7 1.4 1.3v3.2h-.7zM36.4 157.4c-.1-.7-.6-1-1.2-1-1.4 0-1.5 1.5-1.6 2.3.2-.2.6-.7 1.6-.7 1.3 0 2 .9 2 1.9 0 1.1-.8 2-2.1 2-2.1 0-2.2-2.1-2.2-2.9 0-1.8.8-3.1 2.3-3.1.1 0 1.7 0 1.9 1.6h-.7zm-2.3 1.5c-.3.2-.5.6-.5 1 0 .9.7 1.4 1.5 1.4.6 0 1.3-.4 1.3-1.3 0-1.2-1-1.3-1.2-1.3-.6-.1-.9.1-1.1.2zM42.4 158.8c0 1.2-.3 3-2.2 3-1.9 0-2.2-1.9-2.2-3s.3-3 2.2-3c2 0 2.2 1.9 2.2 3zm-3.6 0c0 1 .2 2.4 1.4 2.4 1.3 0 1.4-1.4 1.4-2.4s-.2-2.4-1.4-2.4-1.4 1.5-1.4 2.4zM64.2 265.8c-.1-.3-.1-.3-.2-.4-.2 0-.4.1-.8.1v3.5h-.6v-3.5c-.3 0-.7.1-1 .1-.1.2-.2.2-.2.2s-.1-.1-.1-.2l-.1-.6h.8c.1-.1.2-.2.6-.8-.4-.5-.7-.9-1.3-1.3l.3-.4c.1.1.3.2.4.3.4-.4.6-.8.8-1.3l.5.3.1.1c0 .1-.1.1-.2.1-.3.5-.5.8-.8 1.2l.5.5c.3-.5.5-.8.8-1.2l.5.4.1.1c0 .1-.1.1-.2.1-.3.5-.5.7-.8 1l.4-.2c.3.5.6 1 .7 1.5l-.2.4zm-1.8.7c0 .7-.1 1.3-.3 1.9l-.6-.1c.2-.7.3-1.3.4-2.1l.5.1c.1 0 .1.1.1.1 0 .1-.1.1-.1.1zm1-2.2c-.1.1-.3.4-.6.7.2 0 .7-.1.9-.1 0-.2-.1-.3-.3-.6zm.5 3.7c-.1-.8-.2-1.3-.3-1.8l.5-.1c.3.8.4 1.4.4 1.9h-.6zm1.5-1c-.1.6-.3 1.2-.5 1.7l-.5-.2c.3-.6.4-1.2.5-2l.6.2s.1 0 .1.1l-.2.2zm.7-4.7-.9 1.5-.5-.3c.3-.4.6-.8 1-1.7l.4.2.1.1c.1.1 0 .1-.1.2zm1.8 3.3c-.2-.3-.2-.4-.3-.6-.5.1-1.1.2-2.3.4 0 0-.1.2-.2.2s-.1-.1-.1-.2l-.1-.6h.7c.3-.4.5-.9.7-1.7l.6.2c.1 0 .1.1.1.1 0 .1-.1.1-.2.1-.2.5-.4.8-.6 1.2.6-.1.8-.1 1.1-.1-.1-.1-.1-.1-.3-.4l.4-.3c.4.5.6.9.8 1.4l-.3.3zm-.4 3.2h-1.2c-.4 0-.6-.2-.6-.6v-2l.6.1s.2 0 .2.1c0 0 0 .1-.2.2v1.6c0 .2.1.3.3.3h.7c.3 0 .3-.2.4-.6l.6.3c-.2.6-.4.6-.8.6zm-.3-1.8c-.2-.4-.4-.6-.7-1l.4-.3c.4.4.6.8.8 1l-.5.3zm1.1-3.2c-.6-.4-1.1-1.1-1.4-1.8l.5-.3c.1.2.3.5.6.9s.6.6.8.8l-.5.4zm.1 4.2c-.3-.5-.5-.8-.7-1.1l.4-.3c.4.4.5.7.7 1l-.4.4zM70.8 262.5v1.6c0 1.8 0 3.3-.8 4.7l-.6-.3c.6-1.1.8-2.2.8-4 0-.8 0-2.2-.1-2.5h6.6v.5h-5.9zm3.2 5.1v.9c0 .5-.3.6-1.3.6l-.2-.6c.2 0 .5.1.7.1.2 0 .2-.1.2-.2v-.6h-2.6v-.5h2.6v-.5h.5c.3-.1.4-.2.6-.3h-3.3v-.5h4.5l.1.2c-.6.4-1 .6-1.9 1.1h2.7v.5H74zm-2.4-2.3v-2.4h4.3v2.4h-4.3zm3.7-1.9h-3.2v.5h3.2v-.5zm0 .9h-3.2v.5h3.2v-.5zM83.4 266c-.1-.2-.1-.3-.2-.5-.1 0-.5.1-.8.1v3.5h-.6v-3.4c-.1 0-.7.1-1.1.1 0 .1 0 .2-.1.2 0 0-.1 0-.1-.2v-.6h.6c.1-.1.1-.1.4-.5.1-.1.2-.3.4-.5-.4-.4-.8-.8-1.3-1.1l.4-.4c.2.1.4.2.5.3.2-.3.4-.6.9-1.4l.5.3c.1 0 .1.1.1.1 0 .1-.2.1-.2.1-.3.5-.5.8-.8 1.2.1.1.4.4.5.4.3-.4.5-.7.7-1.1l.5.4c.1 0 .1.1.1.2s-.1.1-.4.1c-.9 1.2-1.2 1.5-1.4 1.8.4 0 .8-.1 1.2-.1l-.2-.4.5-.2c.4.6.5.9.7 1.4l-.8.2zm-1.9.6c-.1 1-.2 1.5-.4 2.1l-.6-.1c.2-.6.4-1.6.4-2.3l.6.1s.1 0 .1.1c.1 0 0 0-.1.1zm1.7 1.8c-.1-.8-.3-1.5-.5-2.1l.5-.1c.2.6.4 1.2.5 2l-.5.2zm4.1-.2c-.2.8-.8.8-1.2.8h-.6l-.2-.7c.5.1.6.1.8.1.6 0 .7-.5.7-1.1.1-1.1.1-2.3.2-3.5h-2.3c-.3.4-.4.7-.7.9l-.5-.3c.8-.9 1.2-1.7 1.6-2.7l.5.3c.1 0 .1.1.1.1 0 .1-.2.1-.2.1-.2.3-.3.7-.5 1h2.6c-.1 1.4-.1 3.9-.3 5zm-1.9-1.3c-.2-.6-.4-1-.7-1.6l.5-.2c.4.7.5 1.1.7 1.6l-.5.2zM109.2 268.4v-3.1c0-.4-.1-.9-.8-.9-1.1 0-1.1 1-1.1 1.2v2.8h-.7v-3.1c0-.7-.5-.8-.8-.8-1.1 0-1.1 1.1-1.1 1.2v2.8h-.7v-4.3h.7v.6c.2-.4.5-.7 1.3-.7.9 0 1.1.5 1.2.7.2-.4.5-.7 1.3-.7 1 0 1.4.7 1.4 1.3v3.2h-.7zM115.9 268.4v-3.1c0-.4-.1-.9-.8-.9-1.1 0-1.1 1-1.1 1.2v2.8h-.7v-3.1c0-.7-.5-.8-.8-.8-1.1 0-1.1 1.1-1.1 1.2v2.8h-.7v-4.3h.7v.6c.2-.4.5-.7 1.3-.7.9 0 1.1.5 1.2.7.2-.4.5-.7 1.3-.7 1 0 1.4.7 1.4 1.3v3.2h-.7zM93.1 268.1v.6h-4.3c.1-1.2.7-1.7 1.8-2.4 1.4-1 1.8-1.2 1.8-1.9 0-.8-.7-1-1.3-1-1.4 0-1.4 1.2-1.4 1.6H89c0-1.4.9-2.2 2.2-2.2 1.2 0 2 .6 2 1.7 0 .8-.3 1.2-1.5 2-1.4.9-1.6 1.1-1.8 1.6h3.2zM98.2 262.9v.6c-.9.7-2.2 2.4-2.3 5.2h-.8c0-2 1-4 2.2-5.2h-3.4v-.6h4.3zM102.9 263.5h-2.6l-.3 1.9c.3-.4.8-.5 1.3-.5 1 0 2 .7 2 2 0 1-.7 2-2.1 2-.8 0-1.4-.3-1.7-.6-.4-.4-.5-.8-.5-1.2h.8c.1.8.6 1.1 1.4 1.1.7 0 1.4-.4 1.4-1.4 0-.8-.5-1.3-1.4-1.3-.7 0-1.1.4-1.2.6h-.8l.6-3.1h3.3v.5z"/><path class="st5" d="M225.4 242.4c1.7 6.5-2.1 13.1-8.6 14.9-6.5 1.7-13.1-2.1-14.8-8.6-1.7-6.5 2.1-13.1 8.6-14.9 6.4-1.7 13.1 2.1 14.8 8.6z"/><radialGradient id="SVGID_00000153706602071151609390000002514889012084410791_" cx="2203.978" cy="2347.807" r="74.575" gradientTransform="rotate(-15.039 -147.058 751.17) scale(.1489)" gradientUnits="userSpaceOnUse"><stop offset=".006" style="stop-color:#c6e7f9"/><stop offset="1" style="stop-color:#1d2087"/></radialGradient><path style="fill:url(#SVGID_00000153706602071151609390000002514889012084410791_)" d="M212 238.4c2.3-.7 3.8-1.5 4.7-2.3-1.8-1.8-3.5-2.6-3.6-2.7-.7 0-1.5.2-2.2.4l1.1 4.6z"/><radialGradient id="SVGID_00000160182649036171874600000014482706833644651696_" cx="2203.979" cy="2347.814" r="74.575" gradientTransform="rotate(-15.039 -147.058 751.17) scale(.1489)" gradientUnits="userSpaceOnUse"><stop offset=".006" style="stop-color:#c6e7f9"/><stop offset="1" style="stop-color:#1d2087"/></radialGradient><path style="fill:url(#SVGID_00000160182649036171874600000014482706833644651696_)" d="m212 238.7 1.5 5.5c3-.8 5.1-2.1 6.5-3.4-.9-1.9-2-3.4-3.1-4.5-1 .9-2.5 1.7-4.9 2.4z"/><radialGradient id="SVGID_00000070833894634444452480000017621937871977854100_" cx="2203.983" cy="2347.807" r="74.575" gradientTransform="rotate(-15.039 -147.058 751.17) scale(.1489)" gradientUnits="userSpaceOnUse"><stop offset=".006" style="stop-color:#c6e7f9"/><stop offset="1" style="stop-color:#1d2087"/></radialGradient><path style="fill:url(#SVGID_00000070833894634444452480000017621937871977854100_)" d="M215 249.9c2.6-.7 4.8-2 6.5-3.2-.1-1-.2-2-.5-3.1-.2-.9-.5-1.6-.8-2.4-1.4 1.3-3.5 2.5-6.5 3.4l1.3 5.3z"/><radialGradient id="SVGID_00000092445965423220943420000001101766201247997109_" cx="2203.971" cy="2347.817" r="74.58" gradientTransform="rotate(-15.039 -147.058 751.17) scale(.1489)" gradientUnits="userSpaceOnUse"><stop offset=".006" style="stop-color:#c6e7f9"/><stop offset="1" style="stop-color:#1d2087"/></radialGradient><path style="fill:url(#SVGID_00000092445965423220943420000001101766201247997109_)" d="M218 234.2c-1.4-.6-2.8-.8-4.4-.8.7.4 1.9 1.2 3.2 2.5 1-.9 1.2-1.7 1.2-1.7z"/><radialGradient id="SVGID_00000047763210857526190510000012342087912605304478_" cx="2203.984" cy="2347.807" r="74.574" gradientTransform="rotate(-15.039 -147.058 751.17) scale(.1489)" gradientUnits="userSpaceOnUse"><stop offset=".006" style="stop-color:#c6e7f9"/><stop offset="1" style="stop-color:#1d2087"/></radialGradient><path style="fill:url(#SVGID_00000047763210857526190510000012342087912605304478_)" d="m216.3 254.6.7 2.6c.7-.2 1.5-.5 2.1-.8.1-.1 1-1.4 1.6-3.6-1.3.8-2.8 1.4-4.4 1.8z"/><radialGradient id="SVGID_00000132060564755856576030000008991237205290860209_" cx="2203.979" cy="2347.809" r="74.566" gradientTransform="rotate(-15.039 -147.058 751.17) scale(.1489)" gradientUnits="userSpaceOnUse"><stop offset=".006" style="stop-color:#c6e7f9"/><stop offset="1" style="stop-color:#1d2087"/></radialGradient><path style="fill:url(#SVGID_00000132060564755856576030000008991237205290860209_)" d="M204.3 237.9s.5.6 1.8.9c.5-1.8 1.2-3.1 1.6-3.8-1.3.8-2.5 1.7-3.4 2.9z"/><radialGradient id="SVGID_00000066494247860162288570000011105506198304614019_" cx="2203.979" cy="2347.814" r="74.572" gradientTransform="rotate(-15.039 -147.058 751.17) scale(.1489)" gradientUnits="userSpaceOnUse"><stop offset=".006" style="stop-color:#c6e7f9"/><stop offset="1" style="stop-color:#1d2087"/></radialGradient><path style="fill:url(#SVGID_00000066494247860162288570000011105506198304614019_)" d="M221.9 246.8c.1 2-.1 3.8-.5 5.2 1.9-1.2 3.4-2.6 4.3-4.2.3-1.5.3-3 .1-4.5-.6.7-1.9 2.1-3.9 3.5z"/><radialGradient id="SVGID_00000102520913724779827690000006160608617705232022_" cx="2203.978" cy="2347.872" r="74.538" gradientTransform="rotate(-15.039 -147.058 751.17) scale(.1489)" gradientUnits="userSpaceOnUse"><stop offset=".006" style="stop-color:#c6e7f9"/><stop offset="1" style="stop-color:#1d2087"/></radialGradient><path style="fill:url(#SVGID_00000102520913724779827690000006160608617705232022_)" d="M216 254.7c-1.6.4-3.2.7-4.7.7 1.6 1.5 3 2.2 3.2 2.2.7 0 1.5-.2 2.2-.4l-.7-2.5z"/><radialGradient id="SVGID_00000163064255447274065100000015632240475690069406_" cx="2203.977" cy="2347.811" r="74.578" gradientTransform="rotate(-15.039 -147.058 751.17) scale(.1489)" gradientUnits="userSpaceOnUse"><stop offset=".006" style="stop-color:#c6e7f9"/><stop offset="1" style="stop-color:#1d2087"/></radialGradient><path style="fill:url(#SVGID_00000163064255447274065100000015632240475690069406_)" d="M207.3 250.7c-2.4-.3-4.3-.8-5-1.1.6 1.6 1.4 3 2.5 4.1 1.5.8 3.5 1.2 5.6 1.2-1.1-.9-2.2-2.3-3.1-4.2z"/><radialGradient id="SVGID_00000159457692282396286060000005117570474099886771_" cx="2203.981" cy="2347.815" r="74.568" gradientTransform="rotate(-15.039 -147.058 751.17) scale(.1489)" gradientUnits="userSpaceOnUse"><stop offset=".006" style="stop-color:#c6e7f9"/><stop offset="1" style="stop-color:#1d2087"/></radialGradient><path style="fill:url(#SVGID_00000159457692282396286060000005117570474099886771_)" d="M206.4 238.9c1.1.2 2.8.2 5.2-.4l-1.2-4.6c-.7.2-1.5.5-2.1.8-.1.1-1.2 1.7-1.9 4.2z"/><radialGradient id="SVGID_00000119829826977039841350000005099927298483604625_" cx="2203.981" cy="2347.817" r="74.569" gradientTransform="rotate(-15.039 -147.058 751.17) scale(.1489)" gradientUnits="userSpaceOnUse"><stop offset=".006" style="stop-color:#c6e7f9"/><stop offset="1" style="stop-color:#1d2087"/></radialGradient><path style="fill:url(#SVGID_00000119829826977039841350000005099927298483604625_)" d="m213.2 244.3-1.5-5.5c-2.5.7-4.2.7-5.4.5-.4 1.5-.6 3.4-.4 5.4 1.8.3 4.3.4 7.3-.4z"/><radialGradient id="SVGID_00000069384406949893454490000014626130636785409724_" cx="2203.973" cy="2347.817" r="74.568" gradientTransform="rotate(-15.039 -147.058 751.17) scale(.1489)" gradientUnits="userSpaceOnUse"><stop offset=".006" style="stop-color:#c6e7f9"/><stop offset="1" style="stop-color:#1d2087"/></radialGradient><path style="fill:url(#SVGID_00000069384406949893454490000014626130636785409724_)" d="M207.1 250.4c-.4-.9-.8-1.8-1-2.8-.2-.9-.4-1.8-.5-2.6-2.2-.5-3.4-1.3-3.8-1.6-.3 1.7-.3 3.5.2 5.4.1.2.1.4.2.6.1-.1 2.1.7 4.9 1z"/><radialGradient id="SVGID_00000041293640041891923200000013366819891114354612_" cx="2203.984" cy="2347.811" r="74.57" gradientTransform="rotate(-15.039 -147.058 751.17) scale(.1489)" gradientUnits="userSpaceOnUse"><stop offset=".006" style="stop-color:#c6e7f9"/><stop offset="1" style="stop-color:#1d2087"/></radialGradient><path style="fill:url(#SVGID_00000041293640041891923200000013366819891114354612_)" d="M217.1 236.1c1.1 1.1 2.3 2.6 3.2 4.5 1.8-1.7 2.4-3.2 2.4-3.2-1.2-1.3-2.7-2.4-4.3-3-.1.1-.3.8-1.3 1.7z"/><radialGradient id="SVGID_00000129916153697340977020000004015411696283878299_" cx="2203.98" cy="2347.804" r="74.578" gradientTransform="rotate(-15.039 -147.058 751.17) scale(.1489)" gradientUnits="userSpaceOnUse"><stop offset=".006" style="stop-color:#c6e7f9"/><stop offset="1" style="stop-color:#1d2087"/></radialGradient><path style="fill:url(#SVGID_00000129916153697340977020000004015411696283878299_)" d="M221.2 252.6c-.5 1.6-1.1 2.9-1.5 3.5 2.8-1.6 4.7-4.2 5.6-7.1-.9 1.3-2.4 2.5-4.1 3.6z"/><radialGradient id="SVGID_00000034068441442835505130000014049653352815821960_" cx="2203.979" cy="2347.817" r="74.57" gradientTransform="rotate(-15.039 -147.058 751.17) scale(.1489)" gradientUnits="userSpaceOnUse"><stop offset=".006" style="stop-color:#c6e7f9"/><stop offset="1" style="stop-color:#1d2087"/></radialGradient><path style="fill:url(#SVGID_00000034068441442835505130000014049653352815821960_)" d="M210.8 255.4c-1.9 0-3.7-.3-5.2-.9 2.2 2 5.1 3.1 8.2 3.1-.7-.3-1.8-1-3-2.2z"/><radialGradient id="SVGID_00000144325644886261268390000015766327774937064866_" cx="2203.975" cy="2347.81" r="74.574" gradientTransform="rotate(-15.039 -147.058 751.17) scale(.1489)" gradientUnits="userSpaceOnUse"><stop offset=".006" style="stop-color:#c6e7f9"/><stop offset="1" style="stop-color:#1d2087"/></radialGradient><path style="fill:url(#SVGID_00000144325644886261268390000015766327774937064866_)" d="M201.9 243s1.3 1 3.7 1.6c-.2-2 .1-3.9.5-5.4-1.3-.3-1.8-.9-1.9-1-1.2 1.4-2 3-2.3 4.8z"/><radialGradient id="SVGID_00000111884761852572491070000007134016481005665169_" cx="2203.977" cy="2347.808" r="74.576" gradientTransform="rotate(-15.039 -147.058 751.17) scale(.1489)" gradientUnits="userSpaceOnUse"><stop offset=".006" style="stop-color:#c6e7f9"/><stop offset="1" style="stop-color:#1d2087"/></radialGradient><path style="fill:url(#SVGID_00000111884761852572491070000007134016481005665169_)" d="M206.4 247.5c.3 1.1.7 2.1 1.1 2.9 2.1.2 4.6.2 7.2-.5l-1.4-5.3c-3 .8-5.5.7-7.4.3.1.9.3 1.7.5 2.6z"/><radialGradient id="SVGID_00000002345787616074564130000010315102476657248944_" cx="2203.979" cy="2347.805" r="74.58" gradientTransform="rotate(-15.039 -147.058 751.17) scale(.1489)" gradientUnits="userSpaceOnUse"><stop offset=".006" style="stop-color:#c6e7f9"/><stop offset="1" style="stop-color:#1d2087"/></radialGradient><path style="fill:url(#SVGID_00000002345787616074564130000010315102476657248944_)" d="m215.9 254.4-1.1-4.1c-2.5.7-5 .7-7.1.5.9 1.8 2.1 3.2 3.2 4.3 1.6 0 3.3-.3 5-.7z"/><radialGradient id="SVGID_00000003098023817905360820000009765097865842530193_" cx="2203.98" cy="2347.831" r="74.564" gradientTransform="rotate(-15.039 -147.058 751.17) scale(.1489)" gradientUnits="userSpaceOnUse"><stop offset=".006" style="stop-color:#c6e7f9"/><stop offset="1" style="stop-color:#1d2087"/></radialGradient><path style="fill:url(#SVGID_00000003098023817905360820000009765097865842530193_)" d="M221.5 247.1c-1.7 1.2-3.9 2.4-6.4 3.1l1.1 4.1c1.7-.5 3.3-1.2 4.7-2 .4-1.4.7-3.2.6-5.2z"/><radialGradient id="SVGID_00000183960423971750150290000018418607294645216412_" cx="2203.992" cy="2347.816" r="74.566" gradientTransform="rotate(-15.039 -147.058 751.17) scale(.1489)" gradientUnits="userSpaceOnUse"><stop offset=".006" style="stop-color:#c6e7f9"/><stop offset="1" style="stop-color:#1d2087"/></radialGradient><path style="fill:url(#SVGID_00000183960423971750150290000018418607294645216412_)" d="M220.4 241c.4.8.7 1.6.9 2.5.3 1 .4 2 .5 2.9 2.3-1.7 3.7-3.4 3.7-3.4 0-.2-.1-.4-.1-.6-.5-1.8-1.4-3.4-2.5-4.7-.2.4-.8 1.8-2.5 3.3z"/><path style="fill:#003c20" d="m209.6 230.9.8 3 .3-.1-.8-3z"/><linearGradient id="SVGID_00000158728965345599436590000014767041979538362510_" gradientUnits="userSpaceOnUse" x1="2262.6" y1="2435.784" x2="2161.223" y2="2409.106" gradientTransform="rotate(-15.039 -226.775 763.608) scale(.1489)"><stop offset=".006" style="stop-color:#003c20"/><stop offset="1" style="stop-color:#488437"/></linearGradient><path style="fill:url(#SVGID_00000158728965345599436590000014767041979538362510_)" d="M194.6 229.8c-.4 0-.4 0-.4-.1.1-.4 2.8-1 6-1s4.2.4 4.2.8c0 .2-.2.2-.3.2-.4.1-1.6.1-5.7.1h-3.8zm10.8.4c2.3 0 3.7.1 3.9 0 .1 0-3.4-2.4-8.1-2.4-6.5 0-11.1 1.8-11.1 3.2 0 .5.7 1.1 2.3 1.6 1.6.5 12 .6 17-1.8-.1.1-14.3.9-15.6-.3-.2-.2.1-.3 1.5-.3h10.1z"/><linearGradient id="SVGID_00000162316634212325381100000013626275367375985538_" gradientUnits="userSpaceOnUse" x1="2300.873" y1="2415.262" x2="2249.807" y2="2428.219" gradientTransform="rotate(-15.039 -226.279 763.988) scale(.1489)"><stop offset="0" style="stop-color:#488437"/><stop offset="1" style="stop-color:#003c20"/></linearGradient><path style="fill:url(#SVGID_00000162316634212325381100000013626275367375985538_)" d="M209.6 230.9s-.3-2.6 6.9-6.9c3.5-2.1 12.3-3.7 9.6-.8-6.2 6.8-13.5 7.6-16.5 7.7z"/><path class="st19" d="M189.1 265.2c0-.8.6-1.3 1.4-1.3.8 0 1.3.6 1.3 1.3h-2.7zm3.8.7c.2-1.5-.8-3-2.5-3-1.6 0-2.5 1.2-2.5 2.7 0 1.6.9 2.7 2.6 2.7 1.1 0 2.1-.6 2.4-1.7h-1.1c-.2.6-.6.8-1.3.8-1 0-1.4-.7-1.4-1.5h3.8zM197.1 264.8c-.1-.6-.6-1-1.2-1s-1.4.3-1.4 1.8c0 .8.4 1.7 1.4 1.7.7 0 1.1-.4 1.2-1.2h1.2c-.2 1.3-1.1 2-2.4 2-1.6 0-2.5-1.1-2.5-2.6s.9-2.7 2.6-2.7c1.2 0 2.2.6 2.4 1.8h-1.3zM201.3 267.4c-1 0-1.5-.9-1.5-1.8s.5-1.8 1.5-1.8 1.5.9 1.5 1.8-.5 1.8-1.5 1.8zm0 .9c1.7 0 2.6-1.1 2.6-2.7s-1-2.7-2.6-2.7c-1.7 0-2.6 1.1-2.6 2.7s.9 2.7 2.6 2.7zM206.2 263.1h.9v-.4c0-1.3.7-1.5 1.4-1.5.4 0 .6 0 .8.1v.9c-.1 0-.3-.1-.5-.1-.3 0-.6.1-.6.5v.5h1v.8h-1v4.2H207v-4.2h-.9v-.8zM209.4 263.1h1.1v1c.1-.5.8-1.1 1.5-1.1h.4v1.1h-.5c-.8 0-1.4.6-1.4 1.7v2.4h-1.2v-5.1zM213 262.2h1.2v-1.1H213v1.1zm0 6h1.2v-5.1H213v5.1zM215.8 265.2c0-.8.6-1.3 1.4-1.3.8 0 1.3.6 1.3 1.3h-2.7zm3.8.7c.2-1.5-.8-3-2.5-3-1.6 0-2.5 1.2-2.5 2.7 0 1.6.9 2.7 2.6 2.7 1.1 0 2.1-.6 2.4-1.7h-1.1c-.2.6-.6.8-1.3.8-1 0-1.4-.7-1.4-1.5h3.8zM220 263.1h1.1v.7c.3-.6.9-.9 1.6-.9 1.1 0 1.8.6 1.8 1.7v3.5h-1.2V265c0-.8-.3-1.1-1-1.1-.8 0-1.3.6-1.3 1.3v3h-1v-5.1zM226.2 265.7c0-.9.4-1.8 1.5-1.8.9 0 1.4.7 1.4 1.8 0 .9-.4 1.8-1.5 1.8-1-.1-1.4-1-1.4-1.8zm4-4.5H229v2.6c-.4-.6-1.1-.8-1.7-.8-1.1 0-2.3.8-2.3 2.6 0 1.5.8 2.7 2.4 2.7.7 0 1.3-.2 1.6-.8v.7h1.1v-7zM231 261.2h1.1v7H231v-7zM232.3 263.1h1.3l1.4 3.8 1.3-3.8h1.2l-2 5.3c-.4.9-.6 1.7-1.8 1.7-.3 0-.5 0-.8-.1v-.9c.2 0 .4.1.5.1.5 0 .7-.3.8-.7l.1-.4-2-5z"/></svg>