<svg xmlns="http://www.w3.org/2000/svg" xml:space="preserve" id="レイヤー_1" width="251" height="330" x="0" y="0" style="enable-background:new 0 0 251 330" version="1.1"><style>.st4{fill:#231815}</style><path d="M-8-5h268v189.3H-8z" style="fill:#f8f7f3"/><path d="M4.8 197h241.1v113.9H4.8z" style="fill:#fff"/><path d="M4.8 276.8h241.1V311H4.8z" style="fill:#fffbda"/><path d="M4.8 197h241.1v45.6H4.8z" style="fill:#eae2bd"/><path d="M13.5 266.3v-8.1h-2v-1c.8-.1 1.9-.1 2.3-2h.9v11h-1.2zm8.6.3c-2.3 0-3.6-1.4-3.6-3.3 0-2.1 1.5-2.8 2-3-1-.4-1.6-1.4-1.6-2.5 0-1.6 1.1-2.9 3.2-2.9s3.2 1.3 3.2 2.9c0 1.1-.5 2.1-1.6 2.5.5.2 2 .8 2 3-.1 1.9-1.4 3.3-3.6 3.3zm0-5.7c-1.4 0-2.4.9-2.4 2.3 0 1.1.6 2.2 2.4 2.2 1.7 0 2.3-1.1 2.3-2.2 0-1.3-.9-2.3-2.3-2.3zm0-4.8c-.9 0-2 .4-2 1.9s1.1 1.9 2 1.9c.9 0 2-.4 2-1.9-.1-1.5-1.1-1.9-2-1.9zm11.5 10.2-5.3-9v9h-1.2v-11h1.2l5.3 9v-9h1.2v11h-1.2zm3.6 0h-.8l4.6-11h.8l-4.6 11zm13.9 0v-5.7c0-.7-.2-1.6-1.2-1.6-1.7 0-1.7 1.9-1.7 2.1v5.2H47v-5.8c0-1.3-.8-1.6-1.3-1.6-1.7 0-1.7 2-1.7 2.2v5.2h-1v-8h1v1c.3-.7.8-1.3 2-1.3 1.4 0 1.8.9 2 1.4.4-.7.8-1.4 2.1-1.4 1.6 0 2.2 1.3 2.2 2.5v5.9h-1.2zm10.5 0v-5.7c0-.7-.2-1.6-1.2-1.6-1.7 0-1.7 1.9-1.7 2.1v5.2h-1.1v-5.8c0-1.3-.8-1.6-1.3-1.6-1.7 0-1.7 2-1.7 2.2v5.2h-1.1v-8h1v1c.3-.7.8-1.3 2-1.3 1.4 0 1.8.9 2 1.4.4-.7.8-1.4 2.1-1.4 1.6 0 2.2 1.3 2.2 2.5v5.9h-1.2zm1.9-4c.1-1.3.8-1.9 2-2.6.7-.5 1-.7 1-1.4 0-.9-.6-1.1-1-1.1-1.1 0-1.2 1.1-1.2 1.4h-.6c0-.3 0-.9.4-1.3.4-.6 1.1-.6 1.4-.6.7 0 1.6.4 1.6 1.6 0 1-.5 1.4-1.3 1.9-1.2.7-1.3 1.2-1.5 1.6H67v.6h-3.5zm-53.2 38.3c.2-2.6 1.6-3.7 3.9-5.3 1.4-.9 2-1.3 2-2.7 0-1.7-1.2-2.2-2.1-2.2-2.2 0-2.3 2.2-2.3 2.8h-1.2c0-.6.1-1.7.8-2.7.9-1.2 2.2-1.3 2.7-1.3 1.3 0 3.3.7 3.3 3.2 0 2-1 2.8-2.7 3.9-2.4 1.5-2.7 2.4-2.9 3.1h5.6v1.1h-7.1zm13.9-2.6v2.6H23V298h-4.6v-1.2l4.7-7.2h1.1v7.2h1.4v1.2h-1.4zm-1.1-6.5-3.5 5.4h3.5v-5.4zm10.5 9.1-5.3-9v9h-1.2v-11h1.2l5.3 9v-9h1.2v11h-1.2zm3.6 0h-.8l4.6-11h.8l-4.6 11zm13.9 0v-5.7c0-.7-.2-1.6-1.2-1.6-1.7 0-1.7 1.9-1.7 2.1v5.2H47v-5.8c0-1.3-.8-1.6-1.3-1.6-1.7 0-1.7 2-1.7 2.2v5.2h-1v-8h1v1c.3-.7.8-1.3 2-1.3 1.4 0 1.8.9 2 1.4.4-.6.8-1.4 2.1-1.4 1.6 0 2.2 1.3 2.2 2.5v5.9h-1.2zm10.5 0v-5.7c0-.7-.2-1.6-1.2-1.6-1.7 0-1.7 1.9-1.7 2.1v5.2h-1.1v-5.8c0-1.3-.8-1.6-1.3-1.6-1.7 0-1.7 2-1.7 2.2v5.2h-1.1v-8h1v1c.3-.7.8-1.3 2-1.3 1.4 0 1.8.9 2 1.4.4-.6.8-1.4 2.1-1.4 1.6 0 2.2 1.3 2.2 2.5v5.9h-1.2zm1.9-4c.1-1.3.8-1.9 2-2.6.7-.5 1-.7 1-1.4 0-.9-.6-1.1-1-1.1-1.1 0-1.2 1.1-1.2 1.4h-.6c0-.3 0-.9.4-1.3.4-.6 1.1-.6 1.4-.6.7 0 1.6.4 1.6 1.6 0 1-.5 1.4-1.3 1.9-1.2.7-1.3 1.2-1.5 1.6H67v.6h-3.5zM15.2 217v-1h6.2v-5.2h-6.2v-1h7.1v7.9h-.9v-.7h-6.2zm16.9-4.2c-1.2 1.5-2.6 3.1-7.3 5.1 0 0-.1.3-.2.3s-.1-.2-.2-.3l-.4-1.1c1.1-.2 2.3-.5 4.4-1.9 1.9-1.3 2.7-2.3 3.4-3.1l.3 1zm-5.9-1.1c-.5-.8-1.2-1.5-1.8-2.2l.6-.7c.3.3 1.3 1.3 1.9 2.3l-.7.6zm13.6-1.9c.2 0 .2 0 .4-.1l.5.7c-.4.4-.5.6-.6.8-.9 2.8-1.5 4.1-2.8 5.5-.8.9-1.3 1.3-2.3 1.9l-.8-.8c1-.6 2.1-1.2 3.4-3 1.2-1.7 1.4-3.1 1.7-4.2H36c-.5.8-1 1.6-2.2 2.8l-.7-.6c.6-.5 1.3-1.1 2.1-2.4.7-1.1.9-1.8 1-2.3l.8.3c.2.1.2.2.2.2 0 .1-.1.1-.4.2-.1.3-.2.6-.4.9h3.4zm3.6-1.1c.1 0 .2 0 .2.1s0 .1-.2.3v5.7h-.9v-6.2l.9.1zm.4 9.3c1.3-.6 1.8-1 2.2-1.6.6-.9 1.1-2 1.1-4.1v-4h.9s.2 0 .2.2c0 .1 0 .1-.2.3 0 3.7 0 5-.4 6.5-.6 1.9-2 2.8-3.1 3.4l-.7-.7zm5.9-3.8v-1h8.1v1h-8.1zm11-2.4c1.9 1 2.6 1.6 3.7 2.5l-.5.9c-.3-.3-.8-.8-1.5-1.4-.9-.7-1.4-.9-1.9-1.2v5.8h-.9v-10.2l.8.1c.1 0 .3 0 .3.2 0 .1-.1.1-.3.3v3.7l.3-.7zm-28.9 22c-.2.6-.6 1.1-2 1l-.3-1.1c.3 0 .6.1.8.1.4 0 .7-.1.9-1.2.1-.3.3-1.6.3-2.5h-1.4c-.1.4-.1.5-.1.8l-.9-.2c.2-.8.3-1.5.4-2.3.1-.8.2-1.5.2-2.3l.7.2h1l.1-1.7h-2.2v-.9h3.1l-.1 3.5h-1.8c0 .3-.2 2-.2 2.1h2.1c-.1 1-.2 3.2-.6 4.5zm6.6.8c0-.1-.1-.2-.2-.4-.1-.1-.1-.2-.2-.5-3.1.6-3.6.7-4.7.9 0 .1 0 .3-.2.3-.1 0-.2-.2-.2-.3l-.3-1c1 0 1.9-.2 2.9-.3v-1.9H34v.5h-.8v-3.8h2.3v-1.5c-.5.1-.9.1-1.9.2 0 .1-.1.3-.2.3s-.2-.1-.2-.2l-.2-1h1c.7-1.3 1-2.1 1.3-2.9l.7.5c.1.1.1.1.1.2s-.1.2-.3.3c-.5 1.1-.7 1.4-1 1.9 1.5-.1 1.7-.1 2.7-.2-.3-.5-.4-.7-.8-1.2l.6-.5c.9 1.1 1.4 2.2 1.7 2.8l-.6.5c-.2-.4-.3-.6-.5-.9-.5.1-1.2.2-1.7.2v1.6h2.4v3.3h-2.4v1.8c.9-.1 1-.1 1.5-.2-.2-.3-.3-.5-.4-.8l.6-.6c.5.9 1 1.6 1.3 2.5l-.8.4zm-3-5.6h-1.5v1.6h1.5V229zm2.4 0h-1.6v1.6h1.6V229zm4.3-1.3c0 1.8-.1 5-1.2 7.3l-.8-.3c.7-1.5 1.2-3.1 1.2-6.8v-3.3H45v-1.4l.9.1c.1 0 .2 0 .2.2s-.2.2-.2.3v.9h4.3v.9h-8.1v1.5h1.8v-1.2l.8.1c.1 0 .2 0 .2.1s-.1.2-.3.3v.7h2.2v-1.2l.8.1c.1 0 .2 0 .2.2 0 .1 0 .1-.2.3v.7h1.9v.8h-1.9v1.7h-3.8V228h-1.7zm.4 6.6c1.6-.4 2.2-.7 3-1.1-.7-.7-1-1.4-1.2-1.7l.7-.4c.3.6.6 1 1.2 1.6.7-.6 1.1-1.2 1.4-1.6h-4.8v-.9h5.7l.3.4c-.3.6-.9 1.6-2 2.6.8.5 1.9.7 3.3.8l-.4 1c-2.1-.3-2.9-.7-3.6-1.2-1 .6-2 1.1-3.1 1.4l-.5-.9zm4.4-5.7v-.9h-2.2v.9h2.2zM91 254.9c-.2 1.3-.2 1.9-.2 2.6.9-.2 1.5-.4 2.3-.7l.1 1.1c-.6.2-1.1.3-2.4.6v2.3c1-.4 1.9-.8 2.9-.8 2 0 2.6 1.8 2.6 3.1 0 2.2-1.4 2.9-2.4 2.9-.7 0-1.1-.3-1.5-.6l.5-.9c.3.2.6.4 1 .4.8 0 1.5-.8 1.5-1.9 0-1.8-1.5-2.2-2-2.2s-1.5.2-2.6.8v3.5c0 .5 0 1.1-.6 1.1-.4 0-.7-.2-1.5-1.2-.2-.2-.7-.9-.9-.9-.1 0-.1 0-.5.3l-.8-1c.6-.3 3-1.9 3.4-2.2v-2.7c-.6.1-1.4.1-1.9.1l-.4-1.1c.9 0 1.4 0 2.3-.1 0-1.9 0-2.1-.1-3.1l1.2.6zm-1.1 7.4c-.5.4-1.1.8-1.4 1.2.3.4 1 1.3 1.3 1.3.2 0 .2-.1.2-.5v-2zm4.6-5.3c.9.5 1.5.9 2.3 1.7l-.5.9c-.7-.7-1.3-1.3-2.3-1.7l.5-.9zm11.9 9c-.6-.6-1.3-1.3-3-2 0 .3 0 .8-.1 1-.3 1.3-1.4 1.6-2.5 1.6-.2 0-1.3 0-1.9-.5-.4-.3-.7-.8-.7-1.5 0-1.8 1.9-2 2.9-2 .6 0 .8 0 1.2.1-.1-1.3-.1-2.7-.1-3.7v-4.5l1.3.3c-.3 1.4-.3 2.2-.3 2.7.2 0 .4.1.7.1.2 0 1.7 0 3-.6l-.1 1.3c-1 .2-2 .3-3 .3h-.7c0 1.6 0 2.4.2 4.3 1.2.4 1.8.8 3.5 1.9l-.4 1.2zm-5.5-2.6c-.2 0-.6 0-1.1.2-.2.1-.7.3-.7 1 0 1.1 1.3 1.1 1.6 1.1 1.2 0 1.6-.5 1.6-1.4v-.7c-.2-.1-.8-.2-1.4-.2zm9.6-8.4c2 0 2.9-.1 4.7-.7l.7 1c-.1.2-.2.3-.6.7-.4.4-2.1 2.5-2.8 3.5.4-.1.9-.3 1.3-.4 1.6-.5 2.7-1 3.3-1.2l.2 1.2c-.3.1-.5.2-.8.2-.6.1-1.6 1.3-1.9 1.7-.4.5-1.5 1.8-1.5 3.2 0 1.2.9 1.6 1.7 1.8.4.1.7.1 1.5.1v1.2c-.6 0-1.1-.1-1.6-.2-.7-.1-2.4-.6-2.4-3 0-1.9 1.5-3.4 2.3-4.2-.7.3-4 1.3-4.7 1.6-.3.1-.5.2-1 .4l-.4-1.3c.6 0 1.4-.2 2.1-.4.4-.1.6-.3.9-.6 1.1-1.5 1.3-1.6 2.4-3 .4-.5.4-.6.5-.9-.6.2-2.1.5-3.4.7l-.5-1.4zm11.6 11.6c-1.1 0-2.2-.3-3-1.5-.5-.8-.6-1.6-.6-2.2h1.2c0 .6.2 2.6 2.4 2.6 1.6 0 2.4-1.1 2.4-2.4 0-1.6-1.1-2.1-2.1-2.1h-1v-1h.8c.7 0 2-.5 2-1.9 0-.8-.4-1.9-2-1.9-.6 0-1.3.2-1.7.8-.4.5-.4 1.1-.5 1.5h-1c.2-2.7 1.9-3.4 3.3-3.4 1.9 0 3.1 1.2 3.1 2.9 0 1.9-1.2 2.3-1.6 2.5.5.2 1.9.6 1.9 2.7 0 1.8-1.3 3.4-3.6 3.4zm8.2 0c-2.9 0-3.6-3-3.6-5.8s.7-5.8 3.6-5.8c2.9 0 3.5 3.1 3.5 5.8 0 2.8-.7 5.8-3.5 5.8zm0-10.5c-1.8 0-2.3 2.2-2.3 4.7 0 2.6.5 4.7 2.3 4.7 1.8 0 2.3-2.1 2.3-4.7s-.5-4.7-2.3-4.7zm11.6 7.8v3.5h-1v-3.5h-5.8v-1.1h2.2v-4.1h3.6v-2.3H138c-.5.9-.9 1.4-1.4 2.1l-.8-.6c1-1.2 1.9-2.4 2.5-4.3.3.1.7.3.9.5.2.1.2.1.2.2 0 .2-.2.2-.4.2-.1.2-.2.4-.4.9h7.3v1.1h-4v2.3h3.4v1.1h-3.4v3h4.5v1.1h-4.5zm-1-4h-2.7v3h2.7v-3zM91 289.2c-.2 1.3-.2 1.9-.2 2.6.9-.2 1.5-.4 2.3-.7l.1 1.1c-.6.2-1.1.3-2.4.6v2.3c1-.4 1.9-.8 2.9-.8 2 0 2.6 1.8 2.6 3.1 0 2.2-1.4 2.9-2.4 2.9-.7 0-1.1-.3-1.5-.6l.5-.9c.3.2.6.4 1 .4.8 0 1.5-.8 1.5-1.9 0-1.8-1.5-2.2-2-2.2s-1.5.2-2.6.8v3.5c0 .5 0 1.1-.6 1.1-.4 0-.7-.2-1.5-1.2-.2-.2-.7-.9-.9-.9-.1 0-.1 0-.5.3l-.8-1c.6-.3 3-1.9 3.4-2.2V293c-.6.1-1.4.1-1.9.1l-.4-1.1c.9 0 1.4 0 2.3-.1 0-1.9 0-2.1-.1-3.1l1.2.4zm-1.1 7.4c-.5.4-1.1.8-1.4 1.2.3.4 1 1.3 1.3 1.3.2 0 .2-.1.2-.5v-2zm4.6-5.2c.9.5 1.5.9 2.3 1.7l-.5.9c-.7-.7-1.3-1.2-2.3-1.7l.5-.9zm11.9 8.9c-.6-.6-1.3-1.3-3-2 0 .3 0 .8-.1 1-.3 1.3-1.4 1.6-2.5 1.6-.2 0-1.3 0-1.9-.5-.4-.3-.7-.8-.7-1.5 0-1.8 1.9-2.1 2.9-2.1.6 0 .8 0 1.2.1-.1-1.3-.1-2.7-.1-3.7v-4.5l1.3.3c-.3 1.4-.3 2.2-.3 2.7.2 0 .4.1.7.1.2 0 1.7 0 3-.6l-.1 1.3c-1 .2-2 .3-3 .3h-.7c0 1.6 0 2.4.2 4.3 1.2.4 1.8.8 3.5 1.9l-.4 1.3zm-5.5-2.6c-.2 0-.6 0-1.1.2-.2.1-.7.3-.7.9 0 1.1 1.3 1.1 1.6 1.1 1.2 0 1.6-.5 1.6-1.4v-.7c-.2.1-.8-.1-1.4-.1zm9.6-8.4c2 0 2.9-.1 4.7-.7l.7 1c-.1.2-.2.3-.6.7-.4.4-2.1 2.5-2.8 3.5.4-.1.9-.3 1.3-.4 1.6-.5 2.7-1 3.3-1.2l.2 1.2c-.3.1-.5.2-.8.2-.6.1-1.6 1.3-1.9 1.7-.4.5-1.5 1.8-1.5 3.2 0 1.2.9 1.6 1.7 1.8.4.1.7.1 1.5.1v1.2c-.6 0-1.1-.1-1.6-.2-.7-.1-2.4-.6-2.4-3 0-1.9 1.5-3.4 2.3-4.2-.7.3-4 1.3-4.7 1.6-.3.1-.5.2-1 .4l-.4-1.3c.6 0 1.4-.2 2.1-.4.4-.1.6-.3.9-.6 1.1-1.5 1.3-1.6 2.4-3 .4-.5.4-.6.5-.9-.6.2-2.1.5-3.4.7l-.5-1.4zm11.8 11.6c-3.2 0-3.7-3.7-3.7-5.6 0-3.9 1.5-6.1 3.9-6.1 1.2 0 2.8.7 3.1 2.8h-1.2c-.1-.4-.4-1.6-1.9-1.6-2.5 0-2.6 3.3-2.6 4.4.5-.8 1.3-1.5 2.7-1.5 1.7 0 3.2 1.2 3.2 3.6-.1 2.3-1.4 4-3.5 4zm1.7-5.6c-.4-.6-1.1-.8-1.7-.8-1.2 0-2.3.8-2.3 2.5 0 1.1.5 2.8 2.3 2.8 1.3 0 2.2-1 2.2-2.7 0-.5-.1-1.2-.5-1.8zm6.1 5.6c-2 0-3.1-1.3-3.4-3.1h1.2c.2 1.3 1.1 2 2.2 2 1.3 0 2.5-.9 2.5-2.7 0-.5-.2-2.6-2.3-2.6-.6 0-1.5.2-2 1h-1.2l.8-5.9h5.4v1.1H129l-.5 3.4c.3-.3.9-.7 2-.7 1.9 0 3.3 1.3 3.3 3.7 0 2.5-1.7 3.8-3.7 3.8zm11.8-2.7v3.5h-1v-3.5h-5.8v-1.1h2.2V293h3.6v-2.3H138c-.5.9-.9 1.4-1.4 2.1l-.8-.6c1-1.2 1.9-2.4 2.5-4.3.3.1.7.3.9.5.2.1.2.1.2.2 0 .2-.2.2-.4.2-.1.2-.2.4-.4.9h7.3v1.1h-4v2.3h3.4v1.1h-3.4v3h4.5v1.1h-4.5zm-1-4h-2.7v3h2.7v-3zm-41.6-75.1c-1.1-.6-2.1-1.5-2.8-2.7-.7-1-1.1-2-1.4-3.3-.4 1.7-1.1 4.1-4.1 6l-.8-.8c2-1 3.6-2.7 4.2-6.3h-4.2v-.9h4.3v-3.6l.9.1c.1 0 .3 0 .3.2 0 0 0 .1-.3.3 0 1.2 0 1.4-.1 3h4.5v.9h-4.3c.2 1.5 1.1 3.2 1.4 3.7.4.6 1.3 1.7 3 2.6l-.6.8zm6.1-1.9c-.5-.4-1.1-1.1-1.5-2.6-.3 1.7-.8 2.9-2 4.2l-.7-.5c1.5-1.5 1.9-2.7 2.1-4.5h-1.8v-.9h1.9v-1.8h-1.7v-.9h1.7v-2.6l.8.1c.2 0 .3 0 .3.1s-.1.2-.3.3v2.1h1.6v.9h-1.6v1.8h1.6v.9h-1.4c.5 1.5.8 2.1 1.8 3l-.8.4zm5 1.8h-.9c-.6 0-.9-.1-.9-1v-3h-.8c-.1 2.7-1 3.6-2.7 4.3l-.5-.8c1.8-.5 2.4-1.5 2.5-3.5h-1v-7.2h4.5v7.2h-1.2v2.8c0 .3 0 .3.3.3h.4c.5 0 .5-.3.5-1.4l.8.3c-.1 1.9-.5 2-1 2zm-.5-10.4H107v1.4h2.9v-1.4zm0 2.1H107v1.4h2.9v-1.4zm0 2.2H107v1.4h2.9v-1.4zm5.4 1.5c-.5-.7-.6-1-.7-1.4v6.3h-.8v-5.9c-.3.9-.6 1.6-1 2.4l-.7-.4c1-1.6 1.3-2.8 1.5-3.8h-1.2v-.9h1.4v-3l.7.1c.1 0 .2.1.2.2s-.1.1-.2.2v2.5h1.2v.9h-1.1c.3.8.6 1.5 1.1 2.2l-.4.6zm4.2 2.1c.8 1 1.5 1.4 2.9 1.7l-.5.8c-1.1-.3-2.2-.8-3.2-2.2-.8 1.5-1.7 2-3.1 2.3l-.6-.8c1-.2 2.2-.5 2.9-1.8h-2.4v-.8h2.7c.1-.4.1-.6.2-1.1h-2v-3.8h5.1v3.8h-2.3c-.1.5-.1.7-.1 1.1h3.3v.8h-2.9zm.9-6.9v.9h-.8v-.9h-1.3v1h-.8v-1h-1.8v-.8h1.8v-1.1l.8.1c.1 0 .2 0 .2.1s-.1.2-.3.3v.6h1.3v-1.1l.9.1c.1 0 .2.1.2.1 0 .1-.1.2-.3.3v.6h1.6v.8h-1.5zm.3 1.9h-3.5v.8h3.5v-.8zm0 1.5h-3.5v.8h3.5v-.8zm6 1.6c-.4-.4-.6-.6-.8-.9v5.6h-.8v-5.7c-.4.5-.7.8-1.2 1.2l-.6-.6c1.4-1.1 2.3-2.4 2.8-3.5h-2.4v-.8h1.5v-2.3l.9.1c.1 0 .2 0 .2.1s-.1.2-.3.3v1.8h.9l.3.4c-.4 1-.7 1.6-1.2 2.4.4.5.6.8 1.2 1.4l-.5.5zm.6-2.2c-.3.5-.4.6-.6.8l-.4-.4c.4-.4.5-.7.7-1l.5.4s.1.1.1.2-.2.1-.3 0zm3.5-2.5v1.2h2.3v6.7c0 1.1 0 1.3-1.5 1.3l-.2-1c.2 0 .6.1.7.1.3 0 .3-.1.3-.5v-1.4h-1.6v2.8h-.8v-2.8h-1.5v2.9h-.8v-8h2.3V210h-2.6v-.9h2.6v-1.6l.8.1c.1 0 .2 0 .2.1s-.1.2-.3.2v1.1h2.8v.9h-2.7zm-.8 2.1h-1.5v1.4h1.5V212zm0 2.1h-1.5v1.4h1.5v-1.4zm2.3-2.1h-1.6v1.4h1.6V212zm0 2.1h-1.6v1.4h1.6v-1.4zm.4-5.3c-.3-.2-.7-.5-1.2-.7l.3-.7c.3.1.7.3 1.2.7l-.3.7zm1.6 4.3c1.4-2 1.9-3.5 2.6-5.7l.8.3c.1 0 .2.1.2.2s-.2.2-.3.2c-.3.8-.5 1.5-.7 2 .2.1.2.1.2.2s-.1.2-.2.2v8.8h-.8v-7.5c-.3.5-.6 1.3-1.1 1.9l-.7-.6zm3.2-2.8.8.1c.1 0 .2.1.2.1 0 .1-.1.2-.2.3v7.4h-.8v-7.9zm1.1 3.2c1.1-.3 1.8-.6 2.7-1.4-.5-.7-.8-1.2-1.2-2.1-.3.6-.5 1.2-.9 1.7l-.7-.5c.6-1 1.3-2.2 1.6-3.9l.8.4c.1.1.2.1.2.2s-.2.2-.3.2c-.1.3-.4 1-.4 1h4v.9h-.9c-.2.6-.5 1.3-1.2 2.2.7.7 1.4 1 2.5 1.4l-.5.8c-1-.4-1.7-.8-2.6-1.6-.9.8-1.6 1.2-2.7 1.7l-.4-1zm.1 5.1c.8 0 1.8-.1 3-.7.4-.2 1.4-.8 2.4-1.9l.5.7s.1.1.1.2-.1.1-.1.1h-.2c-2.3 2.2-3.9 2.4-5.3 2.6l-.4-1zm.3-3.5c.7-.2 2-.5 3.3-1.7l.5.6c0 .1.1.1.1.1 0 .1-.1.1-.1.1h-.2c-.9.7-1.5 1.1-3.1 1.7l-.5-.8zm0 1.8c.8-.1 1.4-.3 2.3-.8.9-.5 1.3-.9 1.8-1.3l.5.6s.1.1.1.2-.2.1-.3.1c-1.5 1.2-2.2 1.6-3.9 2.2l-.5-1zm1.8-7c.3.7.5 1.1 1 1.6.6-.7.8-1.2.9-1.6h-1.9zm-51.5 17.4.7.2c.1 0 .3.1.3.2s-.2.3-.3.4v6.7h-.8v-7.4c-.9 1.5-2 3-3.9 4.3l-.7-.7c3.2-2.1 4.6-5.3 4.9-6.2h-4.8v-.9h9.9v.9h-4.1c-.2.6-.5 1.3-1.2 2.5zm1.7-.7c.8.8 2 1.9 3.6 4.1l-.6.8c-1-1.3-2-2.6-3.5-4.2l.5-.7zm12.5 4.4c-.4.8-.7 1.2-1.1 1.7 1.5.7 2.1 1.1 2.7 1.6l-.7.6c-.8-.7-1.7-1.2-2.6-1.6-1.4 1.2-3 1.5-5 1.7l-.3-.9c.4 0 1.4 0 2.4-.2 1.2-.3 1.8-.7 2.1-.9-1.1-.4-1.9-.6-2.6-.6-.3.3-.4.5-.7.7l-.7-.5c.6-.6 1.1-1.2 1.4-1.6h-2.6v-.9h3.1c.2-.4.5-.7.7-1.3h-2.9v-3.2H99v-1.1h-3.1v-.9h9.5v.9h-3.2v1.1h2.5v3.2H100l.5.4c.1.1.1.1.1.2s-.1.1-.3.2c-.1.1-.3.3-.4.5h5.8v.9h-2.2zm-4.5-4.6h-1.6v1.6H99v-1.6zm.3 4.6c-.1.2-.2.3-.5.7.7.1 1.6.3 2.8.7.4-.4.6-.8.9-1.4h-3.2zm2.2-6.5h-1.7v1.1h1.7v-1.1zm0 1.9h-1.7v1.6h1.7v-1.6zm2.4 0h-1.7v1.6h1.7v-1.6zm10.5 4.9-.6-.6c.6-.6 1.1-1.1 1.7-1.8h-3v4.7c0 .7-.1 1.3-1.2 1.3h-.8l-.3-1.2c.2.1.7.2 1 .2.4 0 .4-.4.4-.6v-4.4h-4.4v-.9h5.2c-.6-.8-1.6-1.6-2.4-2.1l.4-.7c.4.2.7.5 1.3.9.8-.6 1.3-1 1.8-1.6h-5v-.9h6.5l.4.6c-.6.5-1.4 1.2-3.1 2.4l.8.8-.5.6h3.9l.3.4c-.8 1.1-1.7 2.1-2.4 2.9zm13.2 3.3h-3.3c-2.4 0-3.1-.5-4-2.2-.6 1.3-1.1 1.9-1.7 2.4l-.6-.7c1-.7 2.1-1.9 2.4-5.6l.8.3c.1 0 .2.1.2.2s-.1.2-.3.2c-.1 1-.3 1.7-.4 2.3.3 1.2 1.1 1.7 1.9 2v-5.7h-2.9v-.8h6.5v.9h-2.8v2.3h2.6v.9h-2.6v2.7h.9c1.1 0 2.5-.1 3.6-.2l-.3 1zm-.7-7.1v-1.8h-7.8v2h-.8v-2.8h4.3v-1.7h.9c.1 0 .2 0 .2.1 0 .2-.2.3-.4.3v1.2h4.3v2.6h-.7zm6.8-4.2c.1 0 .3 0 .3.1s-.1.2-.2.2v1.3h1v.8h-1v5.2h1v.8h-5.5v-.8h1.2v-5.2h-1.1v-.8h1.1v-1.7l.7.1c.1 0 .3 0 .3.1s0 .1-.2.2v1.3h1.8v-1.7l.6.1zm-4.2 11.3c.5-.6 1-1.4 1.3-2.5l.7.3c.1.1.2.1.2.2s-.1.2-.3.2c-.3.8-.7 1.5-1.3 2.3l-.6-.5zm3.5-8.9h-1.8v1.2h1.8v-1.2zm0 1.9h-1.8v1.2h1.8v-1.2zm0 2h-1.8v1.3h1.8v-1.3zm0 2.5c.5.9.8 1.3 1.2 1.7l-.6.6c-.5-.5-.9-1.2-1.2-1.8l.6-.5zm3-1.3c-.1 1.3-.4 2.8-1.1 4.2l-.7-.4c1-1.9 1.2-3.2 1.2-6.5 0-1.5 0-3-.1-4.5h3.5v10c0 .5 0 1.4-1.1 1.4-.1 0-.3 0-.7-.1l-.2-1c.3.1.6.2.8.2.3 0 .4-.3.4-.6v-2.6h-2zm2-.7v-2.5h-1.9v2.5h1.9zm0-3.3v-2.4h-1.9v2.4h1.9zm6.9-3.2v4.1h-3.4v7.3h-.8v-11.4h4.2zm-.8.8h-2.6v.9h2.6v-.9zm0 2.5v-.9h-2.6v.9h2.6zm-.2 7h-.8V229h4.3v4.2h-3.5v.7zm2.8-4.2h-2.8v.9h2.8v-.9zm0 1.7h-2.8v1h2.8v-1zm1.3 2.6h.6c.4 0 .6-.1.6-.4v-5.9h-3.4v-4.1h4.2v9.9c0 1.2-.1 1.4-1.5 1.5l-.5-1zm1.1-9.6h-2.7v.9h2.7v-.9zm0 1.6h-2.7v.9h2.7v-.9zm29.5 28.9c-.2 1.3-.2 1.9-.2 2.6.9-.2 1.5-.4 2.3-.7l.1 1.1c-.6.2-1.1.3-2.4.6v2.3c1-.4 1.9-.8 2.9-.8 2 0 2.6 1.8 2.6 3.1 0 2.2-1.4 2.9-2.4 2.9-.7 0-1.1-.3-1.5-.6l.5-.9c.3.2.6.4 1 .4.8 0 1.5-.8 1.5-1.9 0-1.8-1.5-2.2-2-2.2s-1.5.2-2.6.8v3.5c0 .5 0 1.1-.6 1.1-.4 0-.7-.2-1.5-1.2-.2-.2-.7-.9-.9-.9-.1 0-.1 0-.5.3l-.8-1c.6-.3 3-1.9 3.4-2.2v-2.7c-.6.1-1.4.1-1.9.1l-.4-1.1c.9 0 1.4 0 2.3-.1 0-1.9 0-2.1-.1-3.1l1.2.6zm-1.2 7.4c-.5.4-1.1.8-1.4 1.2.3.4 1 1.3 1.3 1.3.2 0 .2-.1.2-.5v-2zm4.6-5.3c.9.5 1.5.9 2.3 1.7l-.5.9c-.7-.7-1.3-1.3-2.3-1.7l.5-.9zm12 9c-.6-.6-1.3-1.3-3-2 0 .3 0 .8-.1 1-.3 1.3-1.4 1.6-2.5 1.6-.2 0-1.3 0-1.9-.5-.4-.3-.7-.8-.7-1.5 0-1.8 1.9-2 2.9-2 .6 0 .8 0 1.2.1-.1-1.3-.1-2.7-.1-3.7v-4.5l1.3.3c-.3 1.4-.3 2.2-.3 2.7.2 0 .4.1.7.1.2 0 1.7 0 3-.6l-.1 1.3c-1 .2-2 .3-3 .3h-.7c0 1.6 0 2.4.2 4.3 1.2.4 1.8.8 3.5 1.9l-.4 1.2zm-5.5-2.6c-.2 0-.6 0-1.1.2-.2.1-.7.3-.7 1 0 1.1 1.3 1.1 1.6 1.1 1.2 0 1.6-.5 1.6-1.4v-.7c-.3-.1-.9-.2-1.4-.2zm9.5-8.4c2 0 2.9-.1 4.7-.7l.7 1c-.1.2-.2.3-.6.7-.4.4-2.1 2.5-2.8 3.5.4-.1.9-.3 1.3-.4 1.6-.5 2.7-1 3.3-1.2l.2 1.2c-.3.1-.5.2-.8.2-.6.1-1.6 1.3-1.9 1.7-.5.5-1.5 1.8-1.5 3.2 0 1.2.9 1.6 1.7 1.8.4.1.7.1 1.5.1v1.2c-.6 0-1.1-.1-1.6-.2-.7-.1-2.4-.6-2.4-3 0-1.9 1.5-3.4 2.3-4.2-.7.3-4 1.3-4.7 1.6-.3.1-.5.2-1 .4l-.4-1.3c.6 0 1.4-.2 2.1-.4.5-.1.6-.3.9-.6 1.1-1.5 1.3-1.6 2.4-3 .4-.5.4-.6.5-.9-.6.2-2.1.5-3.4.7l-.5-1.4zm11.8 11.6c-3.2 0-3.7-3.7-3.7-5.6 0-3.9 1.5-6.1 3.9-6.1 1.2 0 2.8.7 3.1 2.8h-1.2c-.1-.4-.4-1.6-1.9-1.6-2.5 0-2.6 3.3-2.6 4.4.5-.8 1.3-1.5 2.7-1.5 1.7 0 3.2 1.2 3.2 3.6-.1 2.3-1.4 4-3.5 4zm1.8-5.6c-.4-.6-1.1-.8-1.7-.8-1.2 0-2.3.8-2.3 2.5 0 1.1.5 2.8 2.3 2.8 1.3 0 2.2-1 2.2-2.7-.1-.5-.2-1.2-.5-1.8zm6 5.6c-2 0-3.1-1.3-3.4-3.1h1.2c.2 1.3 1.1 2 2.2 2 1.3 0 2.5-.9 2.5-2.7 0-.5-.2-2.6-2.3-2.6-.6 0-1.5.2-2 1h-1.2l.8-5.9h5.4v1.1h-4.3l-.5 3.4c.3-.3.9-.7 2-.7 1.9 0 3.3 1.3 3.3 3.7 0 2.5-1.7 3.8-3.7 3.8zm11.8-2.7v3.5h-1v-3.5h-5.8v-1.1h2.2v-4.1h3.6v-2.3h-2.9c-.5.9-.9 1.4-1.4 2.1l-.8-.6c1-1.2 1.9-2.4 2.5-4.3.3.1.7.3.9.5.2.1.2.1.2.2 0 .2-.2.2-.4.2-.1.2-.2.4-.4.9h7.3v1.1h-4v2.3h3.4v1.1h-3.4v3h4.5v1.1h-4.5zm-1-4h-2.7v3h2.7v-3zm-53.9 29.3c-.2 1.3-.2 1.9-.2 2.6.9-.2 1.5-.4 2.3-.7l.1 1.1c-.6.2-1.1.3-2.4.6v2.3c1-.4 1.9-.8 2.9-.8 2 0 2.6 1.8 2.6 3.1 0 2.2-1.4 2.9-2.4 2.9-.7 0-1.1-.3-1.5-.6l.5-.9c.3.2.6.4 1 .4.8 0 1.5-.8 1.5-1.9 0-1.8-1.5-2.2-2-2.2s-1.5.2-2.6.8v3.5c0 .5 0 1.1-.6 1.1-.4 0-.7-.2-1.5-1.2-.2-.2-.7-.9-.9-.9-.1 0-.1 0-.5.3l-.8-1c.6-.3 3-1.9 3.4-2.2V293c-.6.1-1.4.1-1.9.1l-.4-1.1c.9 0 1.4 0 2.3-.1 0-1.9 0-2.1-.1-3.1l1.2.4zm-1.1 7.4c-.5.4-1.1.8-1.4 1.2.3.4 1 1.3 1.3 1.3.2 0 .2-.1.2-.5v-2zm4.6-5.2c.9.5 1.5.9 2.3 1.7l-.5.9c-.7-.7-1.3-1.2-2.3-1.7l.5-.9zm11.9 8.9c-.6-.6-1.3-1.3-3-2 0 .3 0 .8-.1 1-.3 1.3-1.4 1.6-2.5 1.6-.2 0-1.3 0-1.9-.5-.4-.3-.7-.8-.7-1.5 0-1.8 1.9-2.1 2.9-2.1.6 0 .8 0 1.2.1-.1-1.3-.1-2.7-.1-3.7v-4.5l1.3.3c-.3 1.4-.3 2.2-.3 2.7.2 0 .4.1.7.1.2 0 1.7 0 3-.6l-.1 1.3c-1 .2-2 .3-3 .3h-.7c0 1.6 0 2.4.2 4.3 1.2.4 1.8.8 3.5 1.9l-.4 1.3zm-5.5-2.6c-.2 0-.6 0-1.1.2-.2.1-.7.3-.7.9 0 1.1 1.3 1.1 1.6 1.1 1.2 0 1.6-.5 1.6-1.4v-.7c-.2.1-.9-.1-1.4-.1zm9.6-8.4c2 0 2.9-.1 4.7-.7l.7 1c-.1.2-.2.3-.6.7-.4.4-2.1 2.5-2.8 3.5.4-.1.9-.3 1.3-.4 1.6-.5 2.7-1 3.3-1.2l.2 1.2c-.3.1-.5.2-.8.2-.6.1-1.6 1.3-1.9 1.7-.5.5-1.5 1.8-1.5 3.2 0 1.2.9 1.6 1.7 1.8.4.1.7.1 1.5.1v1.2c-.6 0-1.1-.1-1.6-.2-.7-.1-2.4-.6-2.4-3 0-1.9 1.5-3.4 2.3-4.2-.7.3-4 1.3-4.7 1.6-.3.1-.5.2-1 .4l-.4-1.3c.6 0 1.4-.2 2.1-.4.5-.1.6-.3.9-.6 1.1-1.5 1.3-1.6 2.4-3 .4-.5.4-.6.5-.9-.6.2-2.1.5-3.4.7l-.5-1.4zm11.2 11.3v-8.1h-2v-1c.8-.1 1.9-.1 2.3-2h.9v11h-1.2zm8.5.3c-2.9 0-3.6-3-3.6-5.8s.7-5.8 3.6-5.8c2.9 0 3.5 3.1 3.5 5.8.1 2.8-.6 5.8-3.5 5.8zm0-10.5c-1.8 0-2.3 2.2-2.3 4.7 0 2.6.5 4.7 2.3 4.7 1.8 0 2.3-2.1 2.3-4.7.1-2.5-.5-4.7-2.3-4.7zm8.1 10.5c-2.9 0-3.6-3-3.6-5.8s.7-5.8 3.6-5.8c2.9 0 3.5 3.1 3.5 5.8.1 2.8-.6 5.8-3.5 5.8zm0-10.5c-1.8 0-2.3 2.2-2.3 4.7 0 2.6.5 4.7 2.3 4.7 1.8 0 2.3-2.1 2.3-4.7.1-2.5-.5-4.7-2.3-4.7zm11.6 7.8v3.5h-1v-3.5h-5.8v-1.1h2.2V293h3.6v-2.3h-2.9c-.5.9-.9 1.4-1.4 2.1l-.8-.6c1-1.2 1.9-2.4 2.5-4.3.3.1.7.3.9.5.2.1.2.1.2.2 0 .2-.2.2-.4.2-.1.2-.2.4-.4.9h7.3v1.1h-4v2.3h3.4v1.1h-3.4v3h4.5v1.1h-4.5zm-.9-4h-2.7v3h2.7v-3zm-57.4-77.9c-.3.9-.6 1.5-1 2.3.1.1.2.2.2.3 0 .1 0 .1-.3.3v8h-.8v-7.1c-.3.5-.4.7-.8 1.2l-.7-.6c.8-.9 2-2.5 2.8-5.2l.8.5c.1 0 .1.1.1.2 0 0-.1 0-.3.1zm-.6 7v-.9h2.1v-2.9h-1.7v-.9h1.7v-3h.8c.1 0 .2 0 .2.1s-.1.2-.2.3v2.5h1.9v-3h.8s.2 0 .2.1-.1.2-.2.3v2.5h1.7v.9h-1.7v2.9h2.1v.9h-7.7zm3 1.3c-.6 1.1-1.2 1.9-2.1 2.8l-.7-.6c.9-.8 1.5-1.6 2.3-3l.7.5s.1.1.1.2c.1.1-.2.1-.3.1zm1.8-5.1h-1.9v2.9h1.9v-2.9zm2 7.8c-.6-.6-1.3-1.4-2.2-3.1l.7-.5c.5 1.1 1.2 2.1 2.1 2.9l-.6.7zm10.3 0h-1.4l-.3-1.1c.3.1 1 .2 1.4.2.4 0 .4-.2.4-.5v-2.1h-2.9v3.3h-.8v-3.3h-3c-.3 1.5-.6 2.5-1.4 3.7l-.7-.6c1.1-1.6 1.2-3.1 1.3-4.2.1-1.2.1-2.4.1-6.6h8.1v10.4c.1.5 0 .8-.8.8zm-3.6-7.1h-2.8c0 1.3 0 1.9-.1 2.6h2.9v-2.6zm0-3.4h-2.8v2.5h2.8v-2.5zm3.7 0h-2.9v2.5h2.9v-2.5zm0 3.4h-2.9v2.6h2.9v-2.6zm5 5.4c-.4 0-.6-.1-.8-.1l-.3-1c.4.1.7.1 1 .1.9 0 .9-.7.9-.9 0-1.1-.8-2.2-1.9-3.6.7-1.3 1.1-2.3 1.6-3.4h-1.7v10.6h-.8v-11.5h3.2l.3.4c-.8 1.9-1.4 3-1.7 3.6 1 1.2 1.8 2.4 1.8 3.9 0 1.4-.7 1.9-1.6 1.9zm7.5 1.5c-2.9-1.6-3.6-4.7-3.8-6h-.7v4.4c.6-.2.9-.4 1.7-.7v.9c-1.7.7-2.6 1.1-3.2 1.3 0 .1-.1.2-.2.2s-.1-.1-.1-.2l-.3-.9c.5-.1.8-.2 1.3-.4v-9.8h4.7v5.2h-2.5c.1 1.1.5 2 .9 2.6.5-.4 1-1 1.7-2l.6.7s.1.1.1.2c0 .2-.3.2-.4.2-.9 1-1.3 1.4-1.6 1.6.6.9 1.2 1.4 2.3 1.9l-.5.8zm-1.3-10.4h-3.1v1.3h3.1v-1.3zm0 2.2h-3.1v1.4h3.1v-1.4zm12.3 5c-2.5-1.1-3.5-2.2-4.2-3.3h-.9c-.2.4-.8 1.3-1.7 2.1-.8.7-1.5 1.1-2.5 1.5l-.6-.8c2-.5 3.5-1.9 3.9-2.7h-2.3V216h7.5v4.7H212c1.1 1.3 2.4 2 3.8 2.5l-.6.7zm-5.6-.8c0 1.7-.1 3.2-1.7 4.3l-.8-.7c1.7-1 1.7-2.2 1.7-4.2l.8.1c.1 0 .3 0 .3.2l-.3.3zm.5-6.3h-2.5v1.1h2.5v-1.1zm0 1.9h-2.5v1.2h2.5v-1.2zm3.4 0h-2.6v1.2h2.6v-1.2zm0-1.9h-2.6v1.1h2.6v-1.1zm-1 6.2v4.4h-.8v-4.9l.8.1s.2 0 .2.2c.1.1 0 .1-.2.2zm8.7-7.4c.1 0 .3 0 .3.1s-.1.2-.2.2v1.3h1v.8h-1v5.2h1v.8h-5.5v-.8h1.2V218h-1.1v-.8h1.1v-1.7l.7.1c.1 0 .3 0 .3.1s0 .1-.2.2v1.3h1.8v-1.7l.6.1zm-4.2 11.3c.5-.6 1-1.4 1.3-2.5l.7.3c.1.1.2.1.2.2s-.1.2-.3.2c-.3.8-.7 1.5-1.3 2.3l-.6-.5zm3.5-8.9h-1.8v1.2h1.8V218zm0 2h-1.8v1.2h1.8V220zm0 2h-1.8v1.3h1.8V222zm.1 2.4c.5.9.8 1.3 1.2 1.7l-.6.6c-.5-.5-.9-1.2-1.2-1.8l.6-.5zm2.9-1.2c-.1 1.3-.4 2.8-1.1 4.2l-.7-.4c1-1.9 1.2-3.2 1.2-6.5 0-1.5 0-3-.1-4.5h3.5v10c0 .5 0 1.4-1.1 1.4-.1 0-.3 0-.7-.1l-.2-1c.3.1.6.2.8.2.3 0 .4-.3.4-.6v-2.6h-2zm2-.8v-2.5h-1.9v2.5h1.9zm0-3.2v-2.4h-1.9v2.4h1.9zm6.9-3.2v4.1H229v7.3h-.8V216h4.2zm-.8.7H229v.9h2.6v-.9zm0 2.6v-.9H229v.9h2.6zm-.2 6.9h-.8v-4.9h4.3v4.2h-3.5v.7zm2.8-4.1h-2.8v.9h2.8v-.9zm0 1.7h-2.8v1h2.8v-1zm1.3 2.6h.6c.4 0 .6-.1.6-.4v-5.9h-3.4V216h4.2v9.9c0 1.2-.1 1.4-1.5 1.5l-.5-1zm1.2-9.7H234v.9h2.7v-.9zm0 1.7H234v.9h2.7v-.9zm-87.3 108.4h-.6v-2.9l.5.1c.1 0 .2 0 .2.1s-.1.1-.1.1v1.4h2.2V323h-2v.4h-.6v-2.9l.5.1c.1 0 .2 0 .2.1s-.1.1-.2.2v1.6h2v-2.7l.6.1c.1 0 .2 0 .2.1l-.2.2v2.4h2v-2l.6.1c.1 0 .2 0 .2.1l-.2.2v2.6h-.6v-.4h-2v2.6h2.2v-1.7l.6.1c.1 0 .2 0 .2.1s-.1.2-.2.2v2.6h-.6v-.7h-5v.4zm7.9-6.1h1.5v-1.1l.6.1c.1 0 .1 0 .1.1s-.1.1-.2.1v.8h1v-1.1l.6.1c.1 0 .2 0 .2.1s-.1.1-.2.2v.8h1.5v3.6h1v.5h-7.2v-.5h1v-3.7zm-.8 5.7c.9-.5 1.4-.8 2-1.4l.5.4.1.1c0 .1-.1.1-.3.1-.7.6-1.3 1-1.9 1.3l-.4-.5zm2.3-3.9v-1.3h-1v1.3h1zm0 1.8V323h-1v1.3h1zm1.5-1.8v-1.3h-1v1.3h1zm0 1.8V323h-1v1.3h1zm.8.7c.6.5 1.2.9 2.1 1.3l-.4.5c-1-.5-1.5-1-2-1.4l.3-.4zm.8-2.5v-1.3h-1v1.3h1zm0 1.8V323h-1v1.3h1zm3.5-2.3h-.9v-.9h.9v.9zm0 3.4h-.9v-.9h.9v.9zm5.7 1.4v-.7h-3.5v.7h-.6v-6.7h4.8v6.7h-.7zm0-6.1h-3.5v2.2h3.5v-2.2zm0 2.7h-3.5v2.2h3.5v-2.2zm8.8 2.2c-1.5-1.1-2.4-2.1-2.9-3.4v2.8h1.4v.6H177v1.3h-.6v-1.3h-1.5v-.6h1.5v-2.8c-.6 1.3-1.6 2.5-2.9 3.5l-.5-.5c1.2-.9 2.2-2 2.9-3.4h-2.7v-.6h3.2v-1.7h.6s.2 0 .2.1-.1.1-.2.2v1.4h3.2v.6h-2.8c.8 1.6 1.8 2.5 3 3.3l-.5.5zm8.3 1H185c-1.9 0-2.3-.4-2.6-.6-.3.3-.6.6-1 .9l-.4-.4c.5-.3.8-.5 1-.8-.3-.6-.4-1-.6-2l.5-.1c0 .2.1 1.1.4 1.6.3-.5.4-1.1.5-2.2h-.8c-.1.1-.1.1-.2.4l-.5-.3c.8-1.2 1.2-2.1 1.4-2.5h-1.4v-.5h2l.2.2c-.4 1-.8 1.7-1.1 2.2h1.1c-.1.8-.2 2.2-.7 3.2.5.4 1 .5 2.1.5 1.2 0 2.4-.1 3.6-.1l-.3.5zm-.6-4.6v1.1H186v.5h1.5v.5H186v.6h1.9v.5H186v.7h-.5v-.7h-1.8v-.5h1.8v-.6h-1.3v-.5h1.3v-.5H184v-.5h1.4v-.6h-2v-.5h2v-.6H184v-.5h1.4v-.8h.6s.1 0 .1.1 0 .1-.1.1v.5h1.6v1.1h.7v.5h-.7zm-.5-1.1H186v.6h1.1v-.6zm0 1.1H186v.6h1.1v-.6zm4.2-1.1c.3.4.3.4.4.5l-.5.2c-.2-.2-.3-.4-.6-.8h-.4c-.3.5-.5.7-.6.8h2.4v.5h-.9v.9l1-.2-.1.5c-.5.1-1.2.2-1.8.3-.3 0-.4.1-.6.1-.1.1-.1.2-.2.2s-.1-.1-.1-.1l-.1-.6c.3 0 .4 0 1.2-.1v-1h-1v-.4l-.5-.3c.5-.6.8-1.1 1.1-1.8l.6.2s.1 0 .1.1-.1.1-.2.1l-.2.4h2.3v.5h-1.3zm4.5 5.7c-.5-.2-1.5-.6-2.7-1.5v1.8h-.6V325c-1 .9-2.3 1.4-2.7 1.6l-.5-.4c1.4-.5 2-.9 2.7-1.4h-2.7v-.5h3.2v-.5l.6.1c.1 0 .2 0 .2.1s-.1.1-.2.2v.2h3.1v.5h-2.8c.7.5 1.5 1 2.8 1.4l-.4.3zm-.1-3h-.5c-.4 0-.5 0-.5-.5v-1h-1c0 .4-.1 1-.6 1.5l-.5-.3c.4-.2.7-.4.6-1.7h2v1.2c0 .2 0 .2.3.2h.1c.3 0 .3 0 .4-.7l.5.2c-.3 1.1-.4 1.1-.8 1.1zm-.8-2.7c.2.2.2.3.3.4l-.5.2c-.1-.2-.2-.3-.5-.7h-.7c-.2.4-.3.6-.5.8l-.5-.3c.4-.5.7-1.2.9-1.8l.6.2c.1 0 .1.1.1.1 0 .1-.1.1-.2.1l-.2.4h2.6v.5h-1.4zm-.7 2.5c-.1-.1-.5-.4-.7-.6l.3-.3c.1 0 .5.4.7.6l-.3.3zm6.9 1.4v1.2c0 .6-.2.9-1.2.9l-.3-.6h.5c.2 0 .4 0 .4-.3v-1.2h-3.3v-.5h3.3v-.7h.5c.4-.2.6-.4.9-.7h-3.1v-.5h4l.2.4c-.9.6-1.6 1.1-1.9 1.3v.2h3.3v.5h-3.3zm2.6-1.9v-1.2h-5.8v1.2h-.6v-1.7h6.9v1.7h-.5zm-4.7-1.8c-.3-.3-.5-.7-.9-.9l.4-.4c.5.4.7.7.9.9l-.4.4zm1.8-.1c-.3-.5-.6-.9-.9-1.2l.5-.3c.4.4.7.7.9 1.1l-.5.4zm2.4-.8c-.3.4-.7.8-.8.9l-.4-.4c.3-.3.6-.6 1-1.2l.5.4.1.1c-.1.2-.2.2-.4.2zm9 2.5c-.7-.3-1.4-.6-2-1.1-.5-.4-.9-.8-1.3-1.3-.5.7-1.5 1.8-3.4 2.6l-.4-.5c1.7-.6 2.8-1.6 3.5-2.8l.6.2c.1 0 .2.1.2.1v.1c.5.8 1.6 1.6 3.2 2.2l-.4.5zm-3.5 1.6c-.5.9-.8 1.4-1 1.7.7-.1 1.6-.2 2.3-.3.2 0 .4-.1.5-.1-.4-.5-.5-.6-.7-.9l.5-.3c.4.5.9 1 1.4 2.1l-.5.3c-.3-.6-.4-.6-.5-.8-1 .2-2.2.4-4.3.7 0 .1-.1.2-.2.2s-.1-.1-.1-.2l-.1-.6c.3 0 .4 0 1-.1.5-.7.9-1.5 1-1.8h-2.4v-.6h6.7v.6h-3.6zm-1.6-1.6v-.5h3.5v.5h-3.5zm15.7 3.8c-1.4 0-1.5-1.2-1.5-1.8v-.4h.7v.3c0 .5 0 1.2.8 1.2s.8-.8.8-1.2v-4.3h.7v4.2c0 1.2-.5 2-1.5 2zm6.7-.2-.6-1.7h-2.4l-.6 1.7h-.7l2.1-5.9h.9l2.1 5.9h-.8zm-1.8-5.1-1 3h2.1l-1.1-3zm5.5 5.3c-.5 0-1.4-.1-2-.9-.3-.4-.3-.8-.3-1.1h.8c0 .2 0 .7.5 1 .4.3.9.3 1.2.3.9 0 1.4-.6 1.4-1.1 0-.5-.3-.7-1.6-1.1-1.2-.4-2-.7-2-1.7s1-1.6 2.1-1.6c.4 0 1.3.1 1.8.8.3.4.3.8.3 1h-.8c0-.4-.1-1.2-1.4-1.2-.9 0-1.4.4-1.4 1s.3.7 1.7 1.2c1.3.5 1.9.8 1.9 1.7.1 1-.9 1.7-2.2 1.7zm5.5 0c-.5 0-1.4-.1-2-.9-.3-.4-.3-.8-.3-1.1h.8c0 .2 0 .7.5 1 .4.3.9.3 1.2.3.9 0 1.4-.6 1.4-1.1 0-.5-.3-.7-1.6-1.1-1.2-.4-2-.7-2-1.7s1-1.6 2.1-1.6c.4 0 1.3.1 1.8.8.3.4.3.8.3 1h-.8c0-.4-.1-1.2-1.4-1.2-.9 0-1.4.4-1.4 1s.3.7 1.7 1.2c1.3.5 1.9.8 1.9 1.7.1 1-.9 1.7-2.2 1.7zm5.2 0c-1.3 0-2-.7-2.1-1.7h.8c.1.7.7 1.1 1.4 1.1.8 0 1.6-.5 1.6-1.4 0-.3-.1-1.4-1.4-1.4-.4 0-.9.1-1.3.5h-.9l.5-3.2h3.4v.6h-2.7l-.3 1.8c.2-.1.5-.4 1.3-.4 1.2 0 2.1.7 2.1 2-.1 1.4-1.1 2.1-2.4 2.1zM5.1 325v-.6h4.5v-3.2H5.1v-.6h5.1v4.8h-.6v-.4H5.1zm12.1-2.6c-.9.9-1.9 1.9-5.3 3.1l-.1.2c-.1 0-.1-.1-.2-.2l-.3-.7c.8-.1 1.7-.3 3.2-1.1 1.4-.8 2-1.4 2.4-1.9l.3.6zm-4.2-.7c-.4-.5-.9-.9-1.3-1.4l.5-.5c.2.2.9.8 1.4 1.4l-.6.5zm9.8-1.1h.3l.4.5c-.3.3-.4.3-.4.5-.7 1.7-1.1 2.5-2 3.4-.5.5-1 .8-1.6 1.2l-.6-.5c.7-.3 1.6-.8 2.4-1.9.8-1.1 1-1.9 1.2-2.6H20c-.4.5-.7 1-1.6 1.7l-.5-.4c.4-.3.9-.7 1.5-1.5.5-.7.6-1.1.7-1.4l.6.2c.2.1.2.1.2.2s-.1.1-.3.1c-.1.2-.2.3-.3.5h2.5zm2.6-.7c.1 0 .2 0 .2.1 0 0 0 .1-.1.2v3.5h-.7v-3.8h.6zm.3 5.7c.9-.4 1.3-.6 1.6-1 .5-.5.8-1.2.8-2.5v-2.4h.7s.2 0 .2.1l-.1.2c0 2.3 0 3.1-.3 4-.4 1.2-1.5 1.7-2.2 2.1l-.7-.5zm4.3-2.3v-.6h5.8v.6H30zm7.9-1.5c1.4.6 1.9 1 2.6 1.6l-.4.6c-.2-.2-.5-.5-1.1-.8-.6-.4-1-.6-1.4-.7v3.6H37v-6.3h.6s.2 0 .2.1l-.2.2v2.3l.3-.6zm5.4 3.9c-.1.4-.4.7-1.4.6l-.2-.7c.2 0 .4.1.6.1.3 0 .5-.1.7-.7 0-.2.2-1 .2-1.5h-1c0 .3 0 .3-.1.5l-.6-.1c.1-.5.2-1 .3-1.4.1-.5.1-1 .2-1.4l.5.1h.7v-1.1h-1.6v-.5h2.2l-.1 2.2h-1.3c0 .2-.1 1.2-.1 1.3h1.5c-.1.4-.2 1.8-.5 2.6zm4.8.5c0-.1 0-.1-.2-.3 0-.1-.1-.1-.2-.3-2.2.4-2.6.4-3.4.6 0 .1 0 .2-.1.2s-.1-.1-.2-.2l-.2-.6c.7 0 1.4-.1 2.1-.2v-1.2h-1.1v.3h-.6v-2.4h1.7v-.9c-.3 0-.7.1-1.4.1 0 .1-.1.2-.2.2s-.1-.1-.1-.1l-.2-.6h.7c.5-.8.8-1.3 1-1.8l.5.3c.1 0 .1.1.1.1 0 .1-.1.1-.2.2-.4.7-.5.9-.7 1.2 1.1-.1 1.2-.1 1.9-.2-.2-.3-.3-.4-.6-.7l.4-.3c.6.7 1 1.3 1.2 1.7l-.4.3c-.1-.2-.2-.3-.3-.6-.3.1-.8.1-1.2.2v1h1.7v2h-1.7v1.1c.7-.1.7-.1 1.1-.1-.1-.2-.2-.3-.3-.5l.5-.3c.4.5.7 1 .9 1.5l-.5.3zm-2.2-3.5h-1.1v1h1.1v-1zm1.8 0h-1.2v1h1.2v-1zm3.1-.8c0 1.1 0 3.1-.9 4.5l-.5-.2c.5-.9.9-1.9.9-4.2v-2H53v-.9h.6s.2 0 .2.1-.1.2-.2.2v.6h3.1v.5h-5.8v.9H52v-.7h.6c.1 0 .2 0 .2.1s-.1.1-.2.2v.4h1.6v-.7h.6c.1 0 .2 0 .2.1 0 0 0 .1-.2.2v.4h1.4v.5h-1.4v1H52v-1h-1.2zm.2 4.1c1.2-.2 1.6-.4 2.2-.7-.5-.4-.8-.8-.9-1l.5-.2c.2.3.4.6.9 1 .5-.4.8-.7 1-1h-3.5v-.5h4.2l.2.2c-.2.4-.6 1-1.4 1.6.6.3 1.3.5 2.4.5l-.3.6c-1.5-.2-2.1-.5-2.6-.8-.7.4-1.5.7-2.3.8l-.4-.5zm3.2-3.5v-.6h-1.6v.6h1.6zm5.2.7c-.3-.3-.4-.6-.4-.8v4h-.5v-3.8c-.1.6-.3 1-.6 1.5l-.5-.3c.3-.4.8-1.2.9-2.3h-.8v-.6h1v-1.7l.6.1c.1 0 .1 0 .1.1s-.1.1-.2.2v1.4h.6v.5H59c.1.5.4 1 .7 1.4l-.3.3zm2.3 1.4c-.1-.3-.1-.3-.2-.4-.7.7-1.3 1.2-1.6 1.5 0 .1 0 .2-.1.2 0 0-.1 0-.1-.1l-.3-.6c.2-.1.3-.2.5-.3v-5.5h1.7v2.8h-1.2v2.3c.4-.3.7-.5.9-.8-.1-.2-.3-.4-.6-.7l.4-.3c.5.5.8.9 1 1.5l-.4.4zM61 320h-.7v.7h.7v-.7zm0 1.2h-.7v.7h.7v-.7zm3.6 4.7c-.1.2-.4.2-.7.2h-.2c-.5 0-.6-.1-.6-.6V324c-.1.3-.4.9-1 1.5-.3.3-.6.5-1 .7l-.4-.5c.4-.2 1.1-.5 1.6-1.5.5-.8.6-1.4.7-2h-1.4v-.5h.4V320h-.3v-.5h2.5v.5h-.6c0 .9 0 1.4-.1 1.8h.9v.5h-1c0 .2-.1.4-.1.6h.2s.1 0 .1.1-.1.1-.2.1v2.2c0 .2.1.2.3.2.1 0 .2 0 .3-.2.1-.2.1-.8.1-.9l.5.1c.1 1.1.1 1.3 0 1.4zm-2-5.9v1.8h.5c.1-.6.1-1.2.1-1.8h-.6zm9.9 1.9c-1.9-.6-2.9-1.3-3.6-2-1.3 1.3-2.4 1.9-3.3 2.2l-.4-.5c1.4-.5 2.6-1.3 3.5-2.5l.6.3s.1 0 .1.1-.1.1-.2.1c1.2 1.2 2.7 1.6 3.6 1.7l-.3.6zm-5.4 2.6c-.6 1-.9 1.4-1.1 1.6l-.5-.4c.5-.5.9-1 1.2-1.8l.6.3s.1 0 .1.1c-.1.2-.2.2-.3.2zm2.7-.3-.5-.4c.5-.5.8-.8 1-.9h-3.7v-.5h4.7l.1.2c-.7.7-1 .9-1.6 1.6zm.1 2h-1.8c-.4 0-.5-.2-.5-.6v-1.9h.6c.1 0 .2 0 .2.1s-.1.1-.2.2v1.3c0 .2 0 .3.3.3h1.3c.5 0 .6-.1.8-1l.6.4c-.3 1.2-.5 1.2-1.3 1.2zm-2.2-4.5v-.5h2.7v.5h-2.7zm1.9 3.6c-.4-.4-.6-.5-1.1-.9l.4-.4c.5.3.8.6 1.1.9l-.4.4zm2.5.5c-.3-.5-.7-1.1-1.2-1.6l.4-.4c.6.5 1 1.1 1.3 1.5l-.5.5zm1.7-6.4h6.6v6.9h-.6v-.4h-5.4v.4h-.6v-6.9zm.6.6v5.4h5.4V320h-5.4zm1.1.7c.3.4.5.7.6 1.1l-.5.2c-.1-.4-.3-.7-.6-1.1l.5-.2zm-.5 4c.6-.2 1.2-.5 1.9-1.1-.4-.2-.8-.4-1.3-.6l.2-.5c.4.1.9.3 1.4.7.7-.9 1-1.9 1.2-2.7l.6.2c.1 0 .2.1.2.1 0 .1-.2.1-.3.2-.1.4-.5 1.6-1.2 2.5.6.4.9.8 1.2 1l-.4.4c-.3-.3-.5-.6-1.1-1-.7.7-1.5 1-1.9 1.2l-.5-.4zm1.9-4.2c.3.4.4.6.6 1.2l-.5.2c-.1-.3-.3-.7-.6-1.1l.5-.3z" class="st4"/><path d="M4.8 197h241.1v114.1H4.8zm0 45.6h241.1M4.8 276.8h241.1M72.8 197v114.1M160.4 197v114.1" style="fill:none;stroke:#231815;stroke-width:1.0829"/><path d="M210.3 131.2h-167l26.3-47.3H184z" style="fill:#dbdcdc;stroke:#231815;stroke-width:1.4093;stroke-linecap:round;stroke-linejoin:round"/><path d="M43.3 131.2h167v37.6h-167z" style="fill:#c8c9ca;stroke:#231815;stroke-width:1.4093;stroke-linecap:round;stroke-linejoin:round"/><path d="M172.1 53.5V11H81.4v42.5H48.2l78.6 42.4 78.6-42.4z" style="fill:#cca467;stroke:#231815;stroke-width:1.4738;stroke-linecap:round;stroke-linejoin:round"/><path d="M77.5 155.5V154h11.1v-8H77.5v-1.5h12.6v12h-1.6v-1h-11zm30-6.4c-2.2 2.2-4.7 4.7-13 7.7 0 0-.2.5-.4.5s-.3-.2-.4-.5l-.7-1.6c2-.4 4.1-.7 7.8-2.8 3.5-1.9 4.9-3.5 6-4.7l.7 1.4zm-10.4-1.6c-1-1.2-2.1-2.3-3.3-3.4L95 143c.6.5 2.3 2 3.5 3.5l-1.4 1zm24.2-2.9c.3 0 .4 0 .7-.1l.9 1.1c-.8.6-.9.8-1 1.2-1.6 4.3-2.7 6.2-5 8.4-1.4 1.3-2.3 1.9-4.1 2.9l-1.5-1.2c1.8-.9 3.8-1.9 6-4.6 2.1-2.6 2.6-4.7 3-6.4h-6c-.9 1.2-1.8 2.4-3.9 4.2l-1.3-1c1.1-.8 2.3-1.7 3.7-3.7 1.2-1.6 1.6-2.7 1.8-3.4l1.4.5c.4.1.4.3.4.4 0 .2-.3.2-.6.3-.2.4-.4.9-.7 1.4h6.2zm6.3-1.7c.2 0 .4.1.4.2s0 .1-.4.4v8.6H126v-9.4l1.6.2zm.8 14.2c2.3-.9 3.2-1.5 4-2.4 1.1-1.4 2-3.1 2-6.2 0-.6-.1-3.3-.1-3.8 0-.6 0-.7-.1-2.3l1.6.1c.1 0 .4 0 .4.2 0 .1 0 .1-.3.5 0 5.7 0 7.6-.8 9.9-1 2.9-3.6 4.3-5.5 5.2l-1.2-1.2zm10.1-6v-1.5h14.6v1.5h-14.6zm20.1-3.5c3.4 1.5 4.7 2.4 6.5 3.9l-1 1.4c-.6-.5-1.4-1.2-2.7-2.1-1.6-1.1-2.5-1.4-3.4-1.8v8.8h-1.6v-15.5l1.5.1c.1 0 .6 0 .6.3 0 .1-.2.2-.5.4v5.6l.6-1.1zm-48-26v-14.1h-4.1v-1.7c1.7-.1 3.9-.2 4.7-3.5h1.8v19.3h-2.4zm27.3 0v-10c0-1.1-.4-2.9-2.6-2.9-3.6 0-3.6 3.4-3.6 3.7v9.2h-2.2v-10.2c0-2.4-1.6-2.7-2.7-2.7-3.4 0-3.5 3.5-3.5 3.8v9.1h-2.2v-14.1h2.1v1.8c.6-1.2 1.7-2.4 4.1-2.4 2.9 0 3.6 1.5 4 2.4.7-1.1 1.7-2.4 4.3-2.4 3.3 0 4.5 2.3 4.5 4.3v10.3h-2.2zm4.7-8c.2-2.2.8-3.4 3.3-5.1 2.3-1.6 2.5-1.8 2.5-3 0-1.5-.8-2-1.7-2-1.9 0-2 2-2 2.8h-1.8c.1-2.6 1.3-4.2 3.8-4.2 1.4 0 3.4.8 3.4 3.4 0 2.1-1.1 2.9-2.7 4-2.2 1.5-2.5 2.3-2.7 2.9h5.4v1.4h-7.5zM93 50.6c-.2-.5-.3-.7-.5-1.2-.2 0-1.2.1-1.9.2V58h-1.4v-8.2c-.4 0-1.6.1-2.6.2 0 .2-.1.5-.3.5-.1 0-.3-.1-.3-.5l-.1-1.4c.3 0 1.3 0 1.6-.1.2-.3.3-.4.9-1.2.2-.2.6-.8.9-1.1-1-1-2-1.9-3.1-2.6l.9-1c.4.3.9.6 1.1.7.4-.6 1.1-1.5 2.1-3.4l1.2.8c.2.1.2.2.2.3 0 .3-.4.2-.6.2-.7 1.2-1.2 1.9-1.9 3 .2.2 1 .9 1.1 1 .6-.9 1.3-1.8 1.8-2.6l1.2.9c.2.1.3.3.3.4 0 .2-.3.2-.9.3-2.3 3-2.9 3.7-3.5 4.4 1.1-.1 2-.2 2.8-.3l-.5-1 1.1-.6c.8 1.4 1.3 2.3 1.7 3.3l-1.3.6zM88.3 52c-.2 2.4-.5 3.8-1 5.1l-1.5-.3c.5-1.5.9-3.9 1-5.6l1.4.2c.1 0 .4 0 .4.3.1.1-.2.2-.3.3zm4.2 4.5c-.2-2.1-.7-3.8-1.1-5l1.3-.4c.5 1.4.9 2.8 1.2 4.9l-1.4.5zm9.8-.5c-.5 1.9-1.8 1.9-2.8 1.9H98l-.5-1.8c1.1.2 1.5.3 1.9.3 1.4 0 1.6-1.2 1.8-2.6.3-2.7.4-5.5.4-8.5h-5.5c-.6 1-1.1 1.6-1.6 2.2l-1.3-.7c1.8-2.1 2.9-4.1 4-6.7l1.2.7c.2.1.3.2.3.3 0 .2-.5.3-.5.4-.4.8-.8 1.7-1.3 2.5h6.2c-.1 3.1-.1 9.3-.8 12zm-4.6-3.2c-.5-1.4-1-2.5-1.7-3.8l1.3-.5c.9 1.7 1.3 2.7 1.7 3.8l-1.3.5zm7.4 3.7c.3-3.5 2.4-4.9 6.1-7 2.2-1.2 3.1-1.8 3.1-3.6 0-2.3-1.9-2.8-3.2-2.8-3.4 0-3.6 2.9-3.6 3.7h-1.9c.1-.8.1-2.2 1.3-3.5 1.4-1.5 3.5-1.7 4.2-1.7 2.1 0 5 1 5 4.2 0 2.6-1.5 3.7-4.2 5.1-3.7 1.9-4.2 3.2-4.6 4.1h8.7v1.5h-10.9zm13.5 2.5v-1c.8-.2 1-.4 1.1-1.4h-1.1v-2.1h2.1v2.1c0 1.8-1.1 2.1-2.1 2.4zm13.3-5.9v3.4h-1.8v-3.4H123v-1.5l7.2-9.5h1.6v9.5h2.1v1.5h-2zm-1.8-8.6-5.3 7.1h5.3v-7.1zM141 56.9c-4.5 0-5.5-4-5.5-7.7s1.1-7.7 5.5-7.7c4.5 0 5.5 4 5.5 7.7s-1 7.7-5.5 7.7zm0-13.8c-2.8 0-3.6 2.9-3.6 6.2 0 3.4.8 6.2 3.6 6.2s3.6-2.8 3.6-6.2c0-3.4-.8-6.2-3.6-6.2zm12.5 13.8c-4.4 0-5.5-4-5.5-7.7s1.1-7.7 5.5-7.7c4.5 0 5.5 4 5.5 7.7s-1 7.7-5.5 7.7zm0-13.8c-2.8 0-3.6 2.9-3.6 6.2 0 3.4.8 6.2 3.6 6.2s3.6-2.8 3.6-6.2c.1-3.4-.7-6.2-3.6-6.2zm10.1 4v7.3c0 1.1.6 1.1 1.4 1.1h.5v1.3c-.7.1-1 .1-1.4.1-1.1 0-2.2-.5-2.2-2.1V47h-1.8v-1h1.8v-2.9h1.7V46h2.1v1.1h-2.1z" class="st4"/></svg>